<svg width="193" height="200" fill="none" xmlns="http://www.w3.org/2000/svg"><g filter="url(#filter0_d)"><path d="M29.535 155.051l16.75-127.556L157.92 17.073v152.151L29.535 155.051z" fill="#FFF1F0"/></g><path d="M101.156 60.14c-9.36 0-19.37 2.99-29.64 8.19l4.29 19.76h2.73c5.33-3.9 11.7-6.5 16.38-6.5 3.12 0 4.55 1.17 4.55 2.99 0 3.12-4.03 7.41-10.66 13.26l-16.64 14.3v15.34l1.17.91 4.68-.39h29.9l18.72 1.04 2.86-20.02-1.3-1.56-12.61 1.3h-10.01l-.39-.65 5.72-5.72c10.4-10.4 13.91-17.94 13.91-24.7 0-11.44-10.27-17.55-23.66-17.55z" fill="#3F7AD3"/><defs><filter id="filter0_d" x="0" y="0" width="193" height="199.028" filterUnits="userSpaceOnUse" color-interpolation-filters="sRGB"><feFlood flood-opacity="0" result="BackgroundImageFix"/><feColorMatrix in="SourceAlpha" values="0 0 0 0 0 0 0 0 0 0 0 0 0 0 0 0 0 0 127 0"/><feOffset/><feGaussianBlur stdDeviation="2.5"/><feColorMatrix values="0 0 0 0 0 0 0 0 0 0 0 0 0 0 0 0 0 0 0.25 0"/><feBlend in2="BackgroundImageFix" result="effect1_dropShadow"/><feBlend in="SourceGraphic" in2="effect1_dropShadow" result="shape"/></filter></defs></svg>