<svg width="163" height="167" fill="none" xmlns="http://www.w3.org/2000/svg"><g filter="url(#filter0_d)"><path d="M29.042 126.459l13.001-99 86.642-8.089v118.089l-99.643-11z" fill="#FFF1F0"/><path d="M88.431 52.758c5.334 0 9.7 1.2 13.1 3.6 3.4 2.334 5.1 5.634 5.1 9.9 0 2.734-.833 5.634-2.5 8.7-1.6 3-4.333 6.434-8.2 10.3l-4.4 4.4.3.5h7.7l9.7-1 1 1.2-2.2 15.4-14.4-.8h-23l-3.6.3-.9-.7v-11.8l12.8-11c2.734-2.466 4.767-4.5 6.1-6.1 1.4-1.6 2.1-2.966 2.1-4.1 0-1.533-1.166-2.3-3.5-2.3-1.8 0-3.833.467-6.1 1.4-2.266.867-4.433 2.067-6.5 3.6h-2.1l-3.3-15.2c8.267-4.2 15.867-6.3 22.8-6.3z" fill="#EB6D73"/></g><defs><filter id="filter0_d" x="0" y="0" width="162.031" height="166.71" filterUnits="userSpaceOnUse" color-interpolation-filters="sRGB"><feFlood flood-opacity="0" result="BackgroundImageFix"/><feColorMatrix in="SourceAlpha" values="0 0 0 0 0 0 0 0 0 0 0 0 0 0 0 0 0 0 127 0"/><feOffset/><feGaussianBlur stdDeviation="5"/><feColorMatrix values="0 0 0 0 0 0 0 0 0 0 0 0 0 0 0 0 0 0 0.25 0"/><feBlend in2="BackgroundImageFix" result="effect1_dropShadow"/><feBlend in="SourceGraphic" in2="effect1_dropShadow" result="shape"/></filter></defs></svg>