<svg width="163" height="167" fill="none" xmlns="http://www.w3.org/2000/svg"><g filter="url(#filter0_d)"><path d="M29.042 126.459l13.001-99 86.642-8.089v118.089l-99.643-11z" fill="#FFF1F0"/><path d="M86.787 52.559c-6.8 0-14.2 2-20.4 5.5l2.8 13.5h2c4.2-1.9 7.7-3.2 11-3.2 3.2 0 4.6 1 4.6 3.3 0 3.2-3.1 4.9-7.1 5.1l-4.5.2-.5 13.4.8 1.2h8.4c3.2 0 4.6 1.1 4.6 3.3 0 3.2-2.7 4.7-8.5 4.7-3.8 0-7.6-.7-12.1-2l-1.3 1.2 1 14.4c3.6.7 8 1.1 11.8 1.1 16.7 0 27.9-7.5 27.9-18.7 0-6.9-3-11.2-9.4-13.5v-.6c7.1-4.1 8.9-9.8 8.9-14 0-8.9-8-14.9-20-14.9z" fill="#EB6D73"/></g><defs><filter id="filter0_d" x="0" y="0" width="162.031" height="166.71" filterUnits="userSpaceOnUse" color-interpolation-filters="sRGB"><feFlood flood-opacity="0" result="BackgroundImageFix"/><feColorMatrix in="SourceAlpha" values="0 0 0 0 0 0 0 0 0 0 0 0 0 0 0 0 0 0 127 0"/><feOffset/><feGaussianBlur stdDeviation="5"/><feColorMatrix values="0 0 0 0 0 0 0 0 0 0 0 0 0 0 0 0 0 0 0.25 0"/><feBlend in2="BackgroundImageFix" result="effect1_dropShadow"/><feBlend in="SourceGraphic" in2="effect1_dropShadow" result="shape"/></filter></defs></svg>