<svg width="163" height="167" fill="none" xmlns="http://www.w3.org/2000/svg"><g filter="url(#filter0_d)"><path d="M29.042 126.459l13.001-99 86.642-8.089v118.089l-99.643-11z" fill="#FFF1F0"/><path d="M108.431 53.958l-1.1-1.2-11.7.8h-16.1l-6.3-.4-1.9 2-.5 31.4 1.1 1.4 10.9 1.8c4.2.7 5.9 2.1 5.9 4.8 0 3.3-3.1 5.1-8.6 5.1-4.3 0-8.4-.6-12.8-1.9l-1.3 1.3.9 14c3.8.8 9 1.4 12.9 1.4 16.5 0 27.5-8.8 27.5-22.1 0-8.9-4.9-14-15.5-16.3l-6-1.3.2-6.1h7.9l11.1 1.5 1.3-1.4 2.1-14.8z" fill="#EB6D73"/></g><defs><filter id="filter0_d" x="0" y="0" width="162.031" height="166.71" filterUnits="userSpaceOnUse" color-interpolation-filters="sRGB"><feFlood flood-opacity="0" result="BackgroundImageFix"/><feColorMatrix in="SourceAlpha" values="0 0 0 0 0 0 0 0 0 0 0 0 0 0 0 0 0 0 127 0"/><feOffset/><feGaussianBlur stdDeviation="5"/><feColorMatrix values="0 0 0 0 0 0 0 0 0 0 0 0 0 0 0 0 0 0 0.25 0"/><feBlend in2="BackgroundImageFix" result="effect1_dropShadow"/><feBlend in="SourceGraphic" in2="effect1_dropShadow" result="shape"/></filter></defs></svg>