<svg width="193" height="200" viewBox="0 0 193 200" fill="none" xmlns="http://www.w3.org/2000/svg">
<g filter="url(#filter0_d)">
<path d="M29.5352 155.051L46.2859 27.4946L157.92 17.073L157.92 169.224L29.5352 155.051Z" fill="#FFF1F0"/>
</g>
<path d="M102.036 50.2598C84.3559 50.2598 72.7859 58.9698 72.7859 73.5298C72.7859 82.7598 77.7259 88.0898 84.2259 91.5998V92.6398C75.3859 96.2798 70.8359 101.35 70.8359 109.67C70.8359 120.98 79.9359 129.56 98.0059 129.56C116.466 129.56 128.816 120.59 128.816 105.38C128.816 96.4098 123.486 91.3398 116.596 87.8298V86.7898C123.616 82.2398 126.996 76.7798 126.996 70.1498C126.996 58.0598 117.766 50.2598 102.036 50.2598ZM100.216 67.4198C104.636 67.4198 107.236 69.6298 107.236 73.1398C107.236 76.1298 105.676 78.5998 102.686 81.1998C97.4859 79.1198 93.3259 76.7798 93.3259 72.6198C93.3259 69.4998 95.4059 67.4198 100.216 67.4198ZM98.1359 98.7498C103.726 100.96 108.276 103.17 108.276 107.33C108.276 110.06 105.936 112.92 100.086 112.92C94.4959 112.92 91.6359 110.19 91.6359 106.03C91.6359 102.39 93.5859 100.44 98.1359 98.7498Z" fill="#3F7AD3"/>
<defs>
<filter id="filter0_d" x="0" y="0" width="193" height="199.028" filterUnits="userSpaceOnUse" color-interpolation-filters="sRGB">
<feFlood flood-opacity="0" result="BackgroundImageFix"/>
<feColorMatrix in="SourceAlpha" type="matrix" values="0 0 0 0 0 0 0 0 0 0 0 0 0 0 0 0 0 0 127 0"/>
<feOffset/>
<feGaussianBlur stdDeviation="2.5"/>
<feColorMatrix type="matrix" values="0 0 0 0 0 0 0 0 0 0 0 0 0 0 0 0 0 0 0.25 0"/>
<feBlend mode="normal" in2="BackgroundImageFix" result="effect1_dropShadow"/>
<feBlend mode="normal" in="SourceGraphic" in2="effect1_dropShadow" result="shape"/>
</filter>
</defs>
</svg>
