<svg width="163" height="168" fill="none" xmlns="http://www.w3.org/2000/svg"><g filter="url(#filter0_d)"><path d="M29.581 127.06l13.001-99 86.642-8.088V138.06l-99.642-11z" fill="#FFF1F0"/><path d="M89.646 45.763c6 0 10.7 1.4 14.1 4.2 3.4 2.733 5.1 6.433 5.1 11.1 0 5.066-2.667 9.333-8 12.8v.8c2.933 1.533 5.233 3.366 6.9 5.5 1.666 2.133 2.5 4.8 2.5 8 0 5.8-2.167 10.366-6.5 13.699-4.267 3.267-10 4.901-17.2 4.901-6.734 0-11.9-1.401-15.5-4.201-3.6-2.866-5.4-6.566-5.4-11.1 0-3.133.833-5.733 2.5-7.8 1.733-2.066 4.333-3.833 7.8-5.3v-.8c-5.867-3.2-8.8-7.833-8.8-13.9 0-5.533 2.033-9.9 6.1-13.1 4.066-3.2 9.533-4.8 16.4-4.8zm-1.4 13.2c-1.8 0-3.134.366-4 1.1-.867.666-1.3 1.633-1.3 2.9 0 1.466.6 2.7 1.8 3.7 1.266 1 3.066 1.966 5.4 2.9 2.333-2 3.5-4.067 3.5-6.2 0-1.334-.5-2.4-1.5-3.2-.934-.8-2.234-1.2-3.9-1.2zm-1.6 24.1c-1.8.666-3.1 1.433-3.9 2.3-.734.8-1.1 1.9-1.1 3.3 0 1.666.533 2.966 1.6 3.9 1.133.933 2.766 1.4 4.9 1.4 2.066 0 3.633-.4 4.7-1.2 1.066-.867 1.6-1.9 1.6-3.1 0-1.467-.667-2.667-2-3.6-1.267-1-3.2-2-5.8-3z" fill="#EB6D73"/></g><defs><filter id="filter0_d" x=".539" y=".602" width="162.031" height="166.71" filterUnits="userSpaceOnUse" color-interpolation-filters="sRGB"><feFlood flood-opacity="0" result="BackgroundImageFix"/><feColorMatrix in="SourceAlpha" values="0 0 0 0 0 0 0 0 0 0 0 0 0 0 0 0 0 0 127 0"/><feOffset/><feGaussianBlur stdDeviation="5"/><feColorMatrix values="0 0 0 0 0 0 0 0 0 0 0 0 0 0 0 0 0 0 0.25 0"/><feBlend in2="BackgroundImageFix" result="effect1_dropShadow"/><feBlend in="SourceGraphic" in2="effect1_dropShadow" result="shape"/></filter></defs></svg>