<svg width="58" height="54" viewBox="0 0 58 54" fill="none" xmlns="http://www.w3.org/2000/svg">
<path d="M23.9931 40.1865C23.9931 40.1865 21.3223 44.0862 19.3727 46.0361C17.4232 47.9859 13.5241 47.206 12.9392 48.7659C12.6273 49.6043 12.3544 49.7603 11.945 49.8968C11.0872 50.1503 10.1709 50.1308 9.31308 49.8578C7.88991 49.4288 5.84289 49.7018 4.94611 48.9609C3.77638 47.9859 2.02179 46.4261 2.02179 46.4261L0.462158 50.5207L5.414 55.6098C6.77868 57.0137 8.3773 58.2031 10.1124 59.1391C10.2879 59.2366 10.4243 59.3925 10.5023 59.5875C10.6973 60.1335 11.2626 61.2254 12.7638 60.465C14.7133 59.49 17.6376 56.5653 20.5619 55.7853C23.4863 55.0054 26.6055 51.6906 26.4106 49.9358C26.2156 48.1809 28.3601 43.1113 26.8005 41.1615C25.2408 39.2116 23.9541 39.0166 23.9931 40.1865Z" fill="#2E5A9C"/>
<path d="M24.0515 36.8717C24.0515 36.8717 24.0515 51.8855 21.5171 56.5651C18.9827 61.2447 15.0836 63.7795 15.6685 65.9244C16.2534 68.0692 12.9391 73.5288 14.1089 75.2836C15.2786 77.0385 16.4483 76.2586 20.9323 74.3087C25.4162 72.3589 32.0446 70.994 33.4093 70.604C34.774 70.214 43.352 69.0441 45.3015 70.799C47.2511 72.5539 50.7602 72.1639 49.9804 69.6291C49.4151 67.7767 46.7247 63.2921 45.321 61.0303C44.7362 60.0943 44.2878 59.0804 43.9953 58.008C42.8256 53.7573 39.9403 42.7212 41.2075 40.3814C42.7671 37.4566 43.9368 30.2422 41.7924 30.2422C39.6479 30.2422 24.0515 36.8717 24.0515 36.8717Z" fill="#2E5A9C"/>
<path d="M23.0963 37.5153C23.0963 37.5153 20.9323 54.4204 18.3979 57.1502C15.8635 59.88 12.1594 69.0443 12.3543 70.6042C12.5493 72.164 8.26028 79.1835 11.3795 78.9885C14.4988 78.7935 20.3474 74.3089 19.3727 73.5289C18.3979 72.749 27.3658 36.2869 27.3658 36.2869L23.0963 37.5153Z" fill="#3F7AD3"/>
<path d="M44.1124 31.3732C43.1766 31.3147 42.2798 31.7242 41.6949 32.4651C39.9208 34.6684 36.3727 39.855 39.0825 43.3258C42.5917 47.8104 44.3463 45.2756 44.1513 45.6656C43.9564 46.0555 35.5734 60.2894 35.9633 60.4844C36.3532 60.6794 39.0825 63.9941 41.0321 62.4343C42.9816 60.8744 47.8555 53.465 49.6101 51.9051C51.3646 50.3452 56.2385 46.8355 55.6536 44.4957C55.0688 42.1558 50.9747 39.2311 50.5848 37.0862C50.2144 35.1364 48.4403 31.6072 44.1124 31.3732Z" fill="#3F7AD3"/>
<path d="M-7.37502 47.2448C-6.77066 47.4397 -5.71791 47.4202 -3.96332 47.0108C-2.83258 47.0108 -1.66286 48.7656 -1.66286 48.7656L-0.0642327 48.6486L2.04127 46.0358L-0.103224 43.696C-0.103224 43.696 -0.824555 43.579 -1.58488 42.5456C-2.83258 40.8298 -5.21102 40.3813 -6.98511 41.5317C-8.64222 42.6236 -8.56424 44.7294 -8.09635 45.4509C-7.94038 45.6849 -8.09635 46.0358 -7.12158 46.0358C-6.69268 46.0358 -6.61469 42.5846 -5.7569 42.9161C-4.84061 43.2671 -3.51492 43.3256 -6.5952 45.1389" fill="#FFCBC8"/>
<path d="M38.1273 25.3481C40.5252 24.1002 43.1571 23.4373 45.867 23.4373C48.4404 23.4373 50.8578 23.6517 50.6823 24.4902C50.2924 26.245 51.2672 26.83 49.1227 27.9999C46.9782 29.1698 45.2236 31.3146 43.0791 32.0946C40.9346 32.8745 29.2374 40.6739 26.508 39.504C23.7787 38.3341 15.5906 32.4845 20.8543 29.7548C26.1181 27.025 27.2878 27.3564 28.0676 27.6099C29.0229 27.9219 34.8326 27.0445 38.1273 25.3481Z" fill="#FFF1F0"/>
<path d="M37.5472 4.38341C33.8154 4.08765 22.7592 3.65271 22.4113 8.78501C22.4026 8.8807 22.4026 8.97639 22.3852 9.07208C22.1677 10.864 20.0191 29.7579 25.6646 30.967C25.9865 31.0366 26.2996 31.1584 26.5954 31.315C32.3279 34.2726 35.8509 31.6368 37.1906 29.2012C38.6694 26.5045 40.5831 22.2421 40.9311 18.1537C41.3399 13.3867 41.279 9.71579 40.3917 5.97529C40.1308 4.86184 38.6781 4.4704 37.5472 4.38341Z" fill="#FFCBC8"/>
<path opacity="0.12" d="M31.7538 12.856C31.5711 12.7429 31.3362 12.8212 31.2579 13.0213C30.6403 14.5523 26.9647 21.7528 28.4917 22.0681C29.9642 22.2832 32.9281 20.6763 32.0582 20.0674C31.1883 19.4584 30.5794 17.3707 31.1014 16.2399C31.5102 15.3526 32.1452 13.1953 31.9712 13.0213C31.919 12.9604 31.8408 12.8995 31.7538 12.856Z" fill="#F87980"/>
<path d="M33.7545 12.6996C34.4591 12.6387 36.947 12.5343 37.8169 13.8131C37.8778 13.9 37.8517 14.0131 37.7647 14.074C36.1467 15.1266 33.8937 15.2223 33.5892 12.9171C33.5805 12.804 33.6501 12.7083 33.7545 12.6996Z" fill="white"/>
<path d="M24.5338 13.1606C25.2732 12.7691 27.6741 11.647 28.7527 13.0649C28.8049 13.1345 28.8049 13.2388 28.744 13.3084C26.926 15.4049 25.2732 14.2566 24.4903 13.465C24.4033 13.3693 24.4207 13.2214 24.5338 13.1606Z" fill="white"/>
<path d="M25.5778 12.6823C25.5778 12.6823 25.5517 14.1785 25.6735 14.3003C25.7953 14.4221 26.7608 14.6221 27.0653 14.4743C27.3697 14.3264 28.0744 12.8041 27.7177 12.43C27.361 12.0647 25.5778 12.6823 25.5778 12.6823Z" fill="#2C1E25"/>
<path d="M35.0072 12.6736C35.0072 12.6736 36.6948 12.8128 37.0601 13.1433C37.3211 13.8566 36.8861 14.5786 36.4773 14.7004C35.9554 14.8483 34.9724 14.7874 34.8767 14.683C34.7897 14.5699 34.4244 13.4391 35.0072 12.6736Z" fill="#2C1E25"/>
<path d="M28.3613 26.2783C28.9963 26.3479 30.4577 26.4784 31.3711 26.2087C31.4929 26.1739 31.6147 26.1478 31.7452 26.1304C32.067 26.0956 32.7194 25.9999 33.1109 25.8434C33.2414 25.7912 33.3544 25.9477 33.2674 26.0608C32.5889 26.8437 30.3446 27.5396 29.6313 27.4613C29.0311 27.4004 28.5092 26.835 28.2482 26.4958C28.1699 26.4001 28.2395 26.2696 28.3613 26.2783Z" fill="#2C1E25"/>
<path d="M30.7447 23.9731C30.9796 23.5382 31.3624 23.2077 31.806 23.0163C33.0499 22.477 36.1815 21.3809 37.2341 23.2598C37.4689 23.6861 37.8082 23.9731 38.2083 24.1297C39.4958 24.6517 40.3657 24.0949 40.8354 23.5991C40.8963 23.5382 41.0007 23.6078 40.9572 23.6861C40.2439 25.0518 38.3388 27.7571 35.4943 24.4951C35.4856 24.4864 35.4769 24.4777 35.4682 24.4777C33.7371 23.6339 31.4754 25.5302 30.7882 24.9735C30.4751 24.7039 30.5621 24.3124 30.7447 23.9731Z" fill="#F87980"/>
<path d="M28.8658 23.1034C28.0134 22.8511 26.1605 22.5206 24.1946 23.5905C24.038 23.6775 23.8553 23.721 23.6813 23.7123C21.959 23.6775 21.063 23.3035 20.6455 23.0338C20.5759 22.9903 20.4889 23.0773 20.5411 23.1469C21.0108 23.7993 22.3243 25.0085 25.3863 24.5039C25.7169 24.4517 26.0561 24.4691 26.378 24.5474C28.7528 25.1563 29.3965 24.6692 29.5009 24.1299C29.5965 23.6775 29.3095 23.2339 28.8658 23.1034Z" fill="#F87980"/>
<path d="M29.4487 28.2443C29.4487 28.2443 31.6234 27.5484 31.6234 28.3313C31.6234 29.1142 31.7974 30.158 31.6234 30.8539C31.4494 31.5498 30.8405 34.0725 30.6665 33.5506C30.4925 33.0286 29.9706 31.9848 29.8836 30.9409C29.7966 29.897 29.0137 28.4182 29.4487 28.2443Z" fill="#F87980"/>
<path d="M33.6264 7.01872C33.6264 7.01872 25.4321 7.68853 23.7968 10.6722C22.1614 13.6559 26.9283 15.4566 24.6666 17.6313C22.405 19.806 17.5336 23.8075 18.9254 17.1964C20.3172 10.5852 17.7076 8.41054 21.97 5.62691C26.1368 2.90418 36.6101 1.60805 38.3064 2.10389C38.3934 2.12998 38.4804 2.14738 38.5674 2.16478C38.9414 2.22567 39.8809 2.47794 40.1506 3.4522C40.4985 4.67004 47.8055 21.3718 43.4561 21.1978C39.1067 21.0238 38.9327 21.9807 39.8026 18.6752C40.6725 15.3696 41.5424 11.7161 39.2807 10.6722C37.019 9.62837 33.1915 10.6722 33.1915 9.10644C33.1915 7.54065 33.9744 7.10571 33.6264 7.01872Z" fill="#F87980"/>
<path d="M25.0123 10.6729C25.0123 10.6729 27.361 11.0208 27.8829 11.1948C28.4048 11.3688 28.9268 11.6297 29.0138 11.9777C29.1007 12.3256 25.4472 11.5427 25.1863 11.4557C24.9253 11.3688 24.2294 10.7598 25.0123 10.6729Z" fill="#F87980"/>
<path d="M34.755 11.038C35.0246 10.9249 35.3378 10.9597 35.59 11.0989C36.4686 11.5773 38.8608 12.9082 38.5824 13.1953C38.2345 13.5432 36.9297 12.4124 36.0598 12.1514C35.3204 11.9253 34.059 11.3163 34.755 11.038Z" fill="#F87980"/>
<mask id="path-20-outside-1" maskUnits="userSpaceOnUse" x="-15" y="0" width="73" height="143" fill="black">
<rect fill="white" x="-15" width="73" height="143"/>
<path fill-rule="evenodd" clip-rule="evenodd" d="M21.8197 19.9833C19.8263 21.2987 18.0042 21.5716 18.9253 17.1964C19.4441 14.7322 19.407 12.8844 19.377 11.3917C19.3265 8.87952 19.2962 7.37301 21.9699 5.62691C26.1367 2.90418 36.6101 1.60805 38.3063 2.10389C38.3933 2.12998 38.4803 2.14738 38.5673 2.16477L38.5673 2.16478C38.9414 2.22567 39.8808 2.47794 40.1505 3.4522C40.2022 3.63312 40.4075 4.15576 40.7053 4.91403L40.7053 4.91421L40.7054 4.91438C42.4125 9.2606 47.1592 21.3459 43.456 21.1978C42.4782 21.1587 41.7114 21.1767 41.1201 21.1907H41.12C40.8488 21.197 40.6145 21.2026 40.4136 21.2013C40.1501 22.2717 39.8125 23.3243 39.4372 24.3273C40.0702 24.2588 40.5347 23.9165 40.8353 23.5992C40.8962 23.5383 41.0006 23.6079 40.9571 23.6862C40.8606 23.8711 40.7422 24.0805 40.6025 24.2963C42.292 23.7313 44.0622 23.4372 45.867 23.4372C48.4404 23.4372 50.8578 23.6517 50.6823 24.4902C50.5625 25.0295 50.5716 25.4583 50.5794 25.8275C50.597 26.6598 50.6082 27.1895 49.1227 27.9999C48.1913 28.508 47.3334 29.2 46.4852 29.8843C45.8139 30.4258 45.1486 30.9625 44.4577 31.3992C48.5352 31.7968 50.2244 35.189 50.5848 37.0862C50.7805 38.1625 51.909 39.4353 53.0587 40.732C54.2 42.0192 55.3622 43.33 55.6536 44.4956C56.1449 46.461 52.7848 49.2517 50.6569 51.0191C50.2515 51.3558 49.8908 51.6554 49.61 51.905C49.115 52.3451 48.3716 53.2509 47.5157 54.3595C47.9919 54.4675 48.4963 54.6907 48.8108 55.0053C48.8442 55.0387 48.8834 55.0664 48.9215 55.0933C49.1051 55.2232 49.2619 55.3341 48.6158 55.9802C47.9626 56.6336 46.7621 57.4238 45.702 58.1215C45.4966 58.2567 45.2965 58.3884 45.1067 58.515C44.8985 58.6538 44.6532 58.8853 44.3829 59.1732C44.6382 59.8199 44.9525 60.4406 45.321 61.0303C46.7247 63.2921 49.4151 67.7767 49.9804 69.6291C50.534 71.4284 48.9263 72.147 47.2495 71.7848C47.213 78.0444 46.8922 94.825 44.5217 97.5119C43.0133 99.2217 43.1647 100.62 43.3172 102.028C43.4603 103.351 43.6043 104.681 42.3772 106.286C41.7396 107.12 41.1637 107.732 40.6371 108.153C40.7097 109.894 40.9484 118.599 38.6732 122.275C38.1969 123.99 38.186 125.132 38.1754 126.251C38.1643 127.422 38.1535 128.567 37.6096 130.317C31.9255 142.534 31.3658 139.487 31.3658 139.487L31.3825 139.38L31.3658 139.404C31.3658 139.404 29.7053 137.269 29.3153 136.489C29.157 136.173 29.4167 133.861 29.7288 131.085C30.185 127.025 30.7532 121.969 30.2901 120.696C29.6004 118.798 29.8258 114.003 29.887 112.921C29.1139 112.783 28.5883 112.469 28.5354 111.941C28.508 111.666 28.496 111.426 28.4848 111.202C28.4163 109.832 28.3761 109.027 25.0263 104.336C21.1272 98.8768 18.2029 92.2473 19.1776 87.7627C19.7736 85.0208 16.9445 81.2585 14.923 78.5702L14.9226 78.5697C14.7674 78.3633 14.6169 78.1631 14.4731 77.9703C13.3676 78.533 12.2639 78.9331 11.3795 78.9884C9.3179 79.1172 10.4924 76.0947 11.4696 73.5798C11.9709 72.2896 12.4204 71.1329 12.3543 70.604C12.1593 69.0442 15.8634 59.8799 18.3978 57.1501C18.5639 56.9712 18.7285 56.7314 18.8909 56.4395C17.6109 57.0822 16.3676 57.9923 15.2457 58.8135C14.3198 59.4912 13.4767 60.1084 12.7638 60.4649C11.2626 61.2253 10.6973 60.1334 10.5023 59.5874C10.4243 59.3924 10.2879 59.2365 10.1124 59.139C8.37732 58.203 6.7787 57.0136 5.41402 55.6097L4.23205 54.395C3.53561 54.3314 2.93583 54.0327 2.47022 53.5038C2.02271 52.988 0.908248 52.1268 -0.247403 51.2338C-2.06207 49.8315 -3.97831 48.3507 -3.57336 48.0053C-3.38916 47.8509 -2.95196 47.8504 -2.41534 47.8619C-2.84591 47.4321 -3.40928 47.0109 -3.96329 47.0109C-5.70166 47.4165 -6.75111 47.4394 -7.35811 47.2502L-10.8437 51.6279C-10.8439 51.6417 -10.8444 51.6561 -10.8453 51.671C-10.8453 51.8075 -10.9037 51.9245 -11.0012 52.0025C-12.2099 53.0944 -13.1847 53.7964 -12.9703 53.0554C-12.8025 52.3842 -12.1581 51.8573 -11.7083 51.5992L-8.05437 47.0101C-8.66854 46.7442 -9.35444 46.2661 -8.48637 45.646C-8.36629 45.5602 -8.23867 45.491 -8.10576 45.4362C-8.56518 44.7011 -8.63099 42.6163 -6.98508 41.5318C-5.8832 40.8173 -4.54817 40.7195 -3.39573 41.1592L-0.727142 37.8076L-0.181269 38.2366L-2.75624 41.4706C-2.30972 41.7395 -1.9091 42.0998 -1.58485 42.5457C-0.824527 43.5791 -0.103197 43.6961 -0.103197 43.6961L1.03748 44.9407C1.02883 44.8781 1.01903 44.8143 1.00806 44.749C0.969075 44.554 1.12504 44.3785 1.31999 44.3785C3.19155 44.476 8.20187 48.4147 8.26036 48.5902C8.26036 48.5902 8.54119 49.0594 8.73941 49.7238C8.93839 49.7593 9.13086 49.8028 9.3131 49.8577C10.1709 50.1307 11.0872 50.1502 11.945 49.8967C12.3544 49.7602 12.6273 49.6042 12.9393 48.7658C13.2253 48.0029 14.3039 47.7997 15.5596 47.5631C16.8715 47.3159 18.3766 47.0323 19.3727 46.036C20.3323 45.0763 21.4665 43.6443 22.3711 42.4374C22.8285 39.6068 23.0962 37.5151 23.0962 37.5151L23.2026 37.4845C20.151 35.1923 17.1231 31.6897 20.8543 29.7547C21.7591 29.2855 22.5429 28.9068 23.2245 28.6025C22.6982 27.4457 22.3507 25.9559 22.1312 24.3144C21.275 23.9938 20.7897 23.4923 20.541 23.1468C20.4888 23.0772 20.5758 22.9902 20.6454 23.0337C20.9021 23.1995 21.3396 23.4048 22.0388 23.5464C21.9151 22.3971 21.8474 21.1902 21.8197 19.9833ZM42.4373 48.6314C42.7095 48.1615 42.9602 47.7294 43.1811 47.3486L43.1909 47.3318L43.191 47.3316C43.7473 46.3726 44.1124 45.7433 44.1513 45.6655C44.1828 45.6025 44.1634 45.6158 44.094 45.6636C43.8288 45.8459 42.8331 46.5303 41.1527 45.3798C41.2941 46.3805 41.4846 47.458 41.7031 48.5565C41.8809 48.3912 42.0434 48.3202 42.1822 48.3757C42.1822 48.3757 42.2797 48.4682 42.4373 48.6314Z"/>
</mask>
<path d="M18.9253 17.1964L20.8824 17.6084L20.8824 17.6084L18.9253 17.1964ZM21.8197 19.9833L23.8192 19.9374L23.736 16.3226L20.7181 18.314L21.8197 19.9833ZM19.377 11.3917L21.3766 11.3515L21.3766 11.3515L19.377 11.3917ZM21.9699 5.62691L23.0635 7.30145L23.064 7.30116L21.9699 5.62691ZM38.3063 2.10389L38.881 0.188236L38.8743 0.186203L38.8675 0.184217L38.3063 2.10389ZM38.5673 2.16477L38.9654 0.20479L38.9595 0.203613L38.5673 2.16477ZM38.5673 2.16478L38.1692 4.12475L38.2074 4.13252L38.2459 4.13879L38.5673 2.16478ZM40.1505 3.4522L38.223 3.98572L38.2252 3.9937L38.2274 4.00167L40.1505 3.4522ZM40.7053 4.91403L42.5761 4.20694L42.5716 4.19487L42.5668 4.18287L40.7053 4.91403ZM40.7053 4.91421L38.8345 5.6213L38.8401 5.6361L38.8459 5.65081L40.7053 4.91421ZM40.7054 4.91438L42.567 4.18322L42.5648 4.17778L40.7054 4.91438ZM43.456 21.1978L43.536 19.1994L43.536 19.1994L43.456 21.1978ZM41.1201 21.1907V23.1907H41.1436L41.1671 23.1901L41.1201 21.1907ZM41.12 21.1907V19.1907H41.0965L41.073 19.1912L41.12 21.1907ZM40.4136 21.2013L40.4263 19.2013L38.8488 19.1914L38.4716 20.7231L40.4136 21.2013ZM39.4372 24.3273L37.564 23.6266L36.4275 26.6647L39.6524 26.3157L39.4372 24.3273ZM40.8353 23.5992L39.4211 22.185L39.402 22.2041L39.3834 22.2237L40.8353 23.5992ZM40.9571 23.6862L39.2088 22.7149L39.1963 22.7374L39.1843 22.7603L40.9571 23.6862ZM40.6025 24.2963L38.9232 23.2101L35.8226 28.0039L41.2369 26.1931L40.6025 24.2963ZM50.6823 24.4902L52.6347 24.924L52.6374 24.9119L52.6399 24.8998L50.6823 24.4902ZM50.5794 25.8275L52.5789 25.7853L52.5789 25.7853L50.5794 25.8275ZM49.1227 27.9999L48.1649 26.2442L48.1649 26.2442L49.1227 27.9999ZM46.4852 29.8843L47.741 31.4409L47.741 31.4409L46.4852 29.8843ZM44.4577 31.3992L43.3891 29.7087L38.4608 32.824L44.2637 33.3898L44.4577 31.3992ZM50.5848 37.0862L52.5525 36.7285L52.5511 36.7207L52.5496 36.7129L50.5848 37.0862ZM53.0587 40.732L54.5552 39.4052L54.5552 39.4052L53.0587 40.732ZM55.6536 44.4956L57.5939 44.0106L57.5939 44.0106L55.6536 44.4956ZM50.6569 51.0191L51.9348 52.5576L51.9348 52.5576L50.6569 51.0191ZM49.61 51.905L48.2812 50.4103L48.2812 50.4103L49.61 51.905ZM47.5157 54.3595L45.9326 53.1373L44.0178 55.6175L47.0736 56.3101L47.5157 54.3595ZM48.8108 55.0053L50.2252 53.5912L50.2251 53.5912L48.8108 55.0053ZM48.9215 55.0933L47.7666 56.7262L47.7666 56.7262L48.9215 55.0933ZM48.6158 55.9802L50.0302 57.3943L50.0302 57.3943L48.6158 55.9802ZM45.702 58.1215L44.6023 56.4509L44.6023 56.451L45.702 58.1215ZM45.1067 58.515L46.2162 60.179L46.2162 60.179L45.1067 58.515ZM44.3829 59.1732L42.9248 57.8044L42.0573 58.7285L42.5226 59.9075L44.3829 59.1732ZM45.321 61.0303L47.0204 59.9756L47.0171 59.9704L45.321 61.0303ZM49.9804 69.6291L48.0676 70.2129L48.0689 70.2172L49.9804 69.6291ZM47.2495 71.7848L47.6718 69.8299L45.2639 69.3098L45.2495 71.7731L47.2495 71.7848ZM44.5217 97.5119L46.0215 98.8351L46.0215 98.8351L44.5217 97.5119ZM43.3172 102.028L45.3056 101.813L45.3056 101.813L43.3172 102.028ZM42.3772 106.286L43.966 107.501L43.966 107.501L42.3772 106.286ZM40.6371 108.153L39.3888 106.59L38.5966 107.223L38.6388 108.236L40.6371 108.153ZM38.6732 122.275L36.9726 121.222L36.8224 121.465L36.7461 121.74L38.6732 122.275ZM38.1754 126.251L36.1755 126.232L36.1755 126.232L38.1754 126.251ZM37.6096 130.317L39.4229 131.16L39.4795 131.039L39.5194 130.91L37.6096 130.317ZM31.3658 139.487L29.3897 139.179L29.3374 139.514L29.3987 139.848L31.3658 139.487ZM31.3825 139.38L33.3586 139.688L29.7314 138.251L31.3825 139.38ZM31.3658 139.404L29.7872 140.632L31.4701 142.796L33.0169 140.533L31.3658 139.404ZM29.3153 136.489L27.5264 137.384L27.5264 137.384L29.3153 136.489ZM29.7288 131.085L27.7413 130.861L27.7413 130.861L29.7288 131.085ZM30.2901 120.696L28.4105 121.379L28.4105 121.379L30.2901 120.696ZM29.887 112.921L31.8838 113.034L31.9841 111.262L30.2374 110.951L29.887 112.921ZM28.5354 111.941L30.5255 111.742L30.5255 111.742L28.5354 111.941ZM28.4848 111.202L30.4823 111.102L30.4823 111.102L28.4848 111.202ZM25.0263 104.336L26.6538 103.174L26.6538 103.174L25.0263 104.336ZM19.1776 87.7627L17.2233 87.3379L17.2233 87.3379L19.1776 87.7627ZM14.923 78.5702L13.323 79.7702L13.3245 79.7722L14.923 78.5702ZM14.9226 78.5697L16.5226 77.3697L16.5211 77.3677L14.9226 78.5697ZM14.4731 77.9703L16.0763 76.7747L15.0684 75.423L13.5658 76.1879L14.4731 77.9703ZM11.3795 78.9884L11.5043 80.9845L11.5043 80.9845L11.3795 78.9884ZM11.4696 73.5798L13.3338 74.3042L13.3338 74.3042L11.4696 73.5798ZM12.3543 70.604L14.3388 70.356L14.3388 70.356L12.3543 70.604ZM18.3978 57.1501L16.9322 55.7893L16.9322 55.7893L18.3978 57.1501ZM18.8909 56.4395L20.6386 57.4118L23.7947 51.7389L17.9933 54.6522L18.8909 56.4395ZM15.2457 58.8135L16.427 60.4273L16.427 60.4273L15.2457 58.8135ZM12.7638 60.4649L11.8692 58.676L11.86 58.6807L12.7638 60.4649ZM10.5023 59.5874L12.3858 58.9148L12.3732 58.8795L12.3593 58.8447L10.5023 59.5874ZM10.1124 59.139L11.0838 57.3907L11.0729 57.3846L11.0619 57.3787L10.1124 59.139ZM5.41402 55.6097L6.84812 54.2157L6.84743 54.215L5.41402 55.6097ZM4.23205 54.395L5.66546 53.0003L5.14998 52.4705L4.41386 52.4033L4.23205 54.395ZM2.47022 53.5038L0.959475 54.8144L0.964285 54.82L0.969136 54.8255L2.47022 53.5038ZM-0.247403 51.2338L-1.47031 52.8163L-1.47031 52.8163L-0.247403 51.2338ZM-3.57336 48.0053L-4.85791 46.4723L-4.86467 46.478L-4.87137 46.4837L-3.57336 48.0053ZM-2.41534 47.8619L-2.45803 49.8614L2.52587 49.9678L-1.0025 46.4463L-2.41534 47.8619ZM-3.96329 47.0109V45.0109H-4.19357L-4.41782 45.0632L-3.96329 47.0109ZM-7.35811 47.2502L-6.76285 45.3408L-8.06992 44.9333L-8.92273 46.0044L-7.35811 47.2502ZM-10.8437 51.6279L-12.4083 50.3821L-12.8366 50.9199L-12.8436 51.6074L-10.8437 51.6279ZM-10.8453 51.671L-12.8418 51.5536L-12.8453 51.6123V51.671H-10.8453ZM-11.0012 52.0025L-12.2507 50.4409L-12.2975 50.4783L-12.3419 50.5184L-11.0012 52.0025ZM-12.9703 53.0554L-11.0491 53.6115L-11.0389 53.5761L-11.03 53.5404L-12.9703 53.0554ZM-11.7083 51.5992L-10.7129 53.3339L-10.3816 53.1438L-10.1437 52.845L-11.7083 51.5992ZM-8.05437 47.0101L-6.48976 48.2559L-4.86269 46.2124L-7.25983 45.1747L-8.05437 47.0101ZM-8.48637 45.646L-7.32377 47.2733L-7.32377 47.2733L-8.48637 45.646ZM-8.10576 45.4362L-7.34308 47.285L-5.15562 46.3827L-6.40978 44.3761L-8.10576 45.4362ZM-6.98508 41.5318L-8.07323 39.8537L-8.07939 39.8577L-8.08552 39.8617L-6.98508 41.5318ZM-3.39573 41.1592L-4.1086 43.0278L-2.74212 43.5491L-1.83112 42.405L-3.39573 41.1592ZM-0.727142 37.8076L0.50862 36.2351L-1.05391 35.0072L-2.29176 36.5618L-0.727142 37.8076ZM-0.181269 38.2366L1.38335 39.4824L2.63712 37.9077L1.05449 36.664L-0.181269 38.2366ZM-2.75624 41.4706L-4.32086 40.2248L-5.74067 42.008L-3.78802 43.1839L-2.75624 41.4706ZM-1.58485 42.5457L-3.20243 43.722L-3.19581 43.731L-1.58485 42.5457ZM-0.103197 43.6961L1.37122 42.3448L0.902196 41.833L0.21699 41.7219L-0.103197 43.6961ZM1.03748 44.9407L-0.436931 46.292L3.89785 51.0216L3.01861 44.6666L1.03748 44.9407ZM1.00806 44.749L2.98039 44.4174L2.97528 44.3871L2.96924 44.3569L1.00806 44.749ZM1.31999 44.3785L1.42403 42.3813L1.37205 42.3785H1.31999V44.3785ZM8.26036 48.5902L6.36296 49.2226L6.43206 49.4299L6.54431 49.6174L8.26036 48.5902ZM8.73941 49.7238L6.82288 50.2956L7.17509 51.4762L8.38799 51.6927L8.73941 49.7238ZM9.3131 49.8577L9.9196 47.9519L9.90498 47.9472L9.89029 47.9428L9.3131 49.8577ZM11.945 49.8967L12.5118 51.8147L12.5448 51.8049L12.5775 51.794L11.945 49.8967ZM12.9393 48.7658L11.0666 48.0636L11.0648 48.0684L12.9393 48.7658ZM15.5596 47.5631L15.9299 49.5285L15.9299 49.5285L15.5596 47.5631ZM19.3727 46.036L17.9584 44.6219L17.9584 44.6219L19.3727 46.036ZM22.3711 42.4374L23.9715 43.6369L24.2669 43.2427L24.3454 42.7565L22.3711 42.4374ZM23.0962 37.5151L22.5432 35.5931L21.2794 35.9567L21.1124 37.2612L23.0962 37.5151ZM23.2026 37.4845L23.7556 39.4066L27.6136 38.2965L24.4038 35.8854L23.2026 37.4845ZM20.8543 29.7547L19.9336 27.9793L19.9336 27.9793L20.8543 29.7547ZM23.2245 28.6025L24.0397 30.4288L25.8792 29.6078L25.045 27.7743L23.2245 28.6025ZM22.1312 24.3144L24.1136 24.0494L23.9548 22.8616L22.8325 22.4414L22.1312 24.3144ZM20.541 23.1468L22.1641 21.9782L22.1527 21.9624L22.141 21.9468L20.541 23.1468ZM20.6454 23.0337L21.7305 21.3537L21.718 21.3456L21.7054 21.3378L20.6454 23.0337ZM22.0388 23.5464L21.6418 25.5066L24.3197 26.0489L24.0273 23.3323L22.0388 23.5464ZM43.1811 47.3486L44.9111 48.3522L44.9112 48.3521L43.1811 47.3486ZM42.4373 48.6314L40.9987 50.0207L42.8396 51.9269L44.1679 49.6339L42.4373 48.6314ZM43.1909 47.3318L41.4633 46.324L41.4609 46.3283L43.1909 47.3318ZM43.191 47.3316L44.9185 48.3394L44.9209 48.3352L43.191 47.3316ZM44.1513 45.6655L42.3624 44.7712L42.3624 44.7712L44.1513 45.6655ZM44.094 45.6636L42.961 44.0154L42.961 44.0154L44.094 45.6636ZM41.1527 45.3798L42.2827 43.7296L38.5377 41.1654L39.1724 45.6595L41.1527 45.3798ZM41.7031 48.5565L39.7416 48.9468L40.441 52.4622L43.0654 50.0209L41.7031 48.5565ZM42.1822 48.3757L43.5578 46.9239L43.2802 46.6609L42.9251 46.5188L42.1822 48.3757ZM16.9682 16.7843C16.7194 17.9663 16.6111 19.0227 16.7247 19.9151C16.8387 20.8112 17.2385 21.9022 18.3388 22.4888C19.3485 23.027 20.3872 22.8246 21.0161 22.6198C21.6966 22.3983 22.3552 22.0262 22.9212 21.6527L20.7181 18.314C20.5122 18.4499 20.3249 18.5614 20.1588 18.6482C19.9905 18.7362 19.8639 18.7883 19.7778 18.8163C19.687 18.8459 19.6839 18.8347 19.7498 18.8335C19.8242 18.8322 20.0059 18.8446 20.2204 18.9589C20.4471 19.0798 20.5888 19.2499 20.6596 19.3775C20.7195 19.4854 20.7069 19.5216 20.6927 19.4101C20.6789 19.3022 20.6702 19.1059 20.6964 18.7942C20.7224 18.4862 20.7799 18.0955 20.8824 17.6084L16.9682 16.7843ZM17.3774 11.4319C17.4068 12.8974 17.4376 14.5548 16.9682 16.7843L20.8824 17.6084C21.4506 14.9097 21.4071 12.8715 21.3766 11.3515L17.3774 11.4319ZM20.8764 3.95237C19.3054 4.97831 18.2775 6.10473 17.7656 7.55723C17.301 8.87544 17.3541 10.2745 17.3774 11.4319L21.3766 11.3515C21.3493 9.99673 21.3621 9.38645 21.5382 8.88683C21.6669 8.5215 21.9608 8.02161 23.0635 7.30145L20.8764 3.95237ZM38.8675 0.184217C38.3774 0.0409672 37.7955 0.00845111 37.3176 0.00144766C36.7842 -0.00636755 36.1578 0.017754 35.4777 0.0676572C34.1146 0.167682 32.4465 0.377966 30.7107 0.689985C27.3382 1.29621 23.3249 2.3524 20.8759 3.95266L23.064 7.30116C24.7817 6.17869 28.0885 5.22545 31.4184 4.62689C33.0338 4.33651 34.5626 4.14556 35.7705 4.05693C36.3759 4.01251 36.8786 3.99545 37.259 4.00102C37.6947 4.0074 37.8112 4.04285 37.7452 4.02356L38.8675 0.184217ZM38.9595 0.203613C38.9368 0.199069 38.9209 0.195891 38.906 0.19282C38.8918 0.189887 38.8824 0.187851 38.8758 0.186373C38.8624 0.183357 38.8667 0.183936 38.881 0.188236L37.7316 4.01954C37.9233 4.07703 38.1019 4.11131 38.175 4.12593L38.9595 0.203613ZM38.9654 0.204803L38.9654 0.204798L38.1692 4.12475L38.1692 4.12475L38.9654 0.204803ZM42.078 2.91869C41.4683 0.715859 39.3828 0.271202 38.8887 0.190763L38.2459 4.13879C38.2574 4.14065 38.2832 4.14582 38.3123 4.15535C38.3423 4.16517 38.3563 4.17325 38.3561 4.17312C38.3541 4.17188 38.3262 4.15447 38.2922 4.11286C38.2752 4.09204 38.2596 4.06851 38.2466 4.04366C38.2336 4.01866 38.2264 3.99821 38.223 3.98572L42.078 2.91869ZM42.5668 4.18287C42.4167 3.80062 42.2946 3.48957 42.2033 3.25127C42.1577 3.1323 42.123 3.03979 42.0982 2.97086C42.0692 2.89079 42.0665 2.87821 42.0735 2.90274L38.2274 4.00167C38.3138 4.30376 38.5769 4.96584 38.8437 5.64519L42.5668 4.18287ZM42.5762 4.20712L42.5761 4.20694L38.8344 5.62111L38.8345 5.6213L42.5762 4.20712ZM42.5648 4.17778L42.5648 4.1776L38.8459 5.65081L38.846 5.65099L42.5648 4.17778ZM43.3761 23.1962C44.4804 23.2404 45.4879 22.7786 46.1239 21.8451C46.6557 21.0645 46.7964 20.1427 46.8269 19.4103C46.8892 17.9107 46.5192 16.0315 46.0432 14.2305C45.0713 10.5531 43.4129 6.33701 42.567 4.18322L38.8439 5.64554C39.705 7.83797 41.2735 11.8377 42.176 15.2525C42.6371 16.9976 42.8661 18.3835 42.8303 19.2441C42.8117 19.6918 42.729 19.7238 42.8183 19.5928C43.0118 19.3088 43.3575 19.1923 43.536 19.1994L43.3761 23.1962ZM41.1671 23.1901C41.7532 23.1763 42.4661 23.1598 43.3761 23.1962L43.536 19.1994C42.4903 19.1576 41.6696 19.1772 41.073 19.1912L41.1671 23.1901ZM41.12 23.1907H41.1201V19.1907H41.12V23.1907ZM40.401 23.2013C40.638 23.2027 40.9053 23.1963 41.1671 23.1901L41.073 19.1912C40.7923 19.1978 40.5909 19.2024 40.4263 19.2013L40.401 23.2013ZM41.3104 25.0281C41.708 23.9652 42.0704 22.8377 42.3556 21.6795L38.4716 20.7231C38.2297 21.7057 37.9169 22.6833 37.564 23.6266L41.3104 25.0281ZM39.3834 22.2237C39.3366 22.2731 39.2947 22.3051 39.2644 22.3225C39.2396 22.3367 39.2288 22.3382 39.222 22.3389L39.6524 26.3157C40.9163 26.1789 41.7902 25.4993 42.2872 24.9747L39.3834 22.2237ZM42.7054 24.6575C43.2995 23.5882 42.8183 22.4616 42.0738 21.9461C41.3792 21.4652 40.2398 21.3663 39.4211 22.185L42.2495 25.0134C41.4918 25.7712 40.435 25.6767 39.7969 25.2349C39.4735 25.011 39.1735 24.6527 39.0384 24.1679C38.8943 23.6508 38.9782 23.1299 39.2088 22.7149L42.7054 24.6575ZM42.2819 25.3826C42.4611 25.1055 42.6103 24.8411 42.7299 24.6121L39.1843 22.7603C39.1108 22.901 39.0232 23.0555 38.9232 23.2101L42.2819 25.3826ZM45.867 21.4372C43.8436 21.4372 41.8593 21.7671 39.9682 22.3996L41.2369 26.1931C42.7247 25.6955 44.2808 25.4372 45.867 25.4372V21.4372ZM52.6399 24.8998C52.7695 24.2804 52.6507 23.6565 52.3227 23.1369C52.031 22.6745 51.64 22.3961 51.3561 22.2343C50.8063 21.921 50.1625 21.769 49.6507 21.6793C48.567 21.4894 47.1749 21.4372 45.867 21.4372V25.4372C47.1325 25.4372 48.2358 25.4923 48.9603 25.6193C49.3525 25.688 49.441 25.7469 49.3756 25.7096C49.3338 25.6858 49.1231 25.5617 48.94 25.2715C48.7207 24.9241 48.639 24.4903 48.7247 24.0805L52.6399 24.8998ZM52.5789 25.7853C52.5714 25.4303 52.5711 25.2101 52.6347 24.924L48.7299 24.0564C48.5539 24.8489 48.5717 25.4863 48.5798 25.8698L52.5789 25.7853ZM50.0805 29.7556C50.9299 29.2922 51.7187 28.7243 52.1782 27.8653C52.6447 26.9932 52.5859 26.1162 52.5789 25.7853L48.5798 25.8698C48.5822 25.9801 48.5834 26.048 48.5828 26.1075C48.5826 26.1346 48.582 26.1537 48.5813 26.1671C48.5806 26.1803 48.58 26.186 48.58 26.1859C48.5815 26.1725 48.5951 26.0833 48.6512 25.9785C48.7031 25.8813 48.7436 25.8612 48.6833 25.9124C48.6147 25.9708 48.4634 26.0813 48.1649 26.2442L50.0805 29.7556ZM47.741 31.4409C48.6166 30.7345 49.3347 30.1625 50.0805 29.7556L48.1649 26.2442C47.0479 26.8535 46.0502 27.6655 45.2295 28.3276L47.741 31.4409ZM45.5264 33.0898C46.3321 32.5805 47.0879 31.9677 47.741 31.4409L45.2295 28.3276C44.5399 28.8839 43.9652 29.3445 43.3891 29.7087L45.5264 33.0898ZM52.5496 36.7129C52.1038 34.3662 49.978 29.928 44.6518 29.4087L44.2637 33.3898C47.0924 33.6656 48.3449 36.0119 48.6199 37.4594L52.5496 36.7129ZM54.5552 39.4052C53.9644 38.7388 53.4619 38.1696 53.0775 37.6447C52.6684 37.0862 52.566 36.8026 52.5525 36.7285L48.617 37.4439C48.7992 38.4461 49.3589 39.3371 49.8505 40.0082C50.3667 40.713 51.0033 41.4285 51.5622 42.0589L54.5552 39.4052ZM57.5939 44.0106C57.3514 43.0406 56.7983 42.1662 56.2823 41.4693C55.7503 40.7508 55.1121 40.0332 54.5552 39.4052L51.5622 42.0589C52.1467 42.718 52.6602 43.2994 53.0675 43.8495C53.4908 44.4212 53.6644 44.785 53.7133 44.9806L57.5939 44.0106ZM51.9348 52.5576C52.9751 51.6935 54.4659 50.4603 55.6261 49.1672C56.2066 48.5202 56.7797 47.7772 57.1728 46.9807C57.559 46.1982 57.8775 45.1453 57.5939 44.0106L53.7133 44.9806C53.6753 44.8286 53.758 44.8616 53.5859 45.2103C53.4207 45.5451 53.1128 45.9787 52.6488 46.496C51.7197 47.5314 50.4666 48.5773 49.3791 49.4806L51.9348 52.5576ZM50.9389 53.3997C51.1889 53.1774 51.5202 52.902 51.9348 52.5576L49.3791 49.4805C48.9828 49.8096 48.5927 50.1334 48.2812 50.4103L50.9389 53.3997ZM49.0988 55.5818C49.981 54.439 50.6097 53.6924 50.9389 53.3997L48.2812 50.4103C47.6202 50.9979 46.7622 52.0627 45.9326 53.1373L49.0988 55.5818ZM50.2251 53.5912C49.5471 52.913 48.6414 52.564 47.9577 52.409L47.0736 56.3101C47.177 56.3335 47.2772 56.3687 47.3542 56.4059C47.391 56.4237 47.4134 56.4375 47.4231 56.4441C47.4335 56.4511 47.4217 56.4446 47.3965 56.4194L50.2251 53.5912ZM50.0763 53.4604C50.0517 53.443 50.0669 53.4535 50.0872 53.4691C50.1108 53.4873 50.1628 53.5288 50.2252 53.5912L47.3964 56.4193C47.5706 56.5935 47.7528 56.7164 47.7666 56.7262L50.0763 53.4604ZM50.0302 57.3943C50.2302 57.1943 50.4283 56.9768 50.5931 56.7446C50.7403 56.5371 50.9809 56.1542 51.0579 55.6383C51.1547 54.9893 50.9577 54.3971 50.6151 53.9607C50.4748 53.782 50.3336 53.6589 50.2481 53.5895C50.1668 53.5235 50.0883 53.4689 50.0763 53.4604L47.7666 56.7262C47.8736 56.8018 47.6533 56.6657 47.469 56.4309C47.352 56.2819 47.2263 56.072 47.1503 55.8015C47.0736 55.5282 47.0688 55.2685 47.1017 55.048C47.16 54.6568 47.3301 54.4309 47.3308 54.43C47.349 54.4043 47.3245 54.4431 47.2015 54.5661L50.0302 57.3943ZM46.8016 59.7921C47.7842 59.1453 49.1973 58.2273 50.0302 57.3943L47.2015 54.5661C46.7279 55.0398 45.7399 55.7022 44.6023 56.4509L46.8016 59.7921ZM46.2162 60.179C46.4002 60.0563 46.5952 59.928 46.8016 59.7921L44.6023 56.451C44.398 56.5855 44.1928 56.7205 43.9971 56.851L46.2162 60.179ZM45.8411 60.542C45.9549 60.4208 46.0474 60.3287 46.1207 60.2614C46.1982 60.1903 46.228 60.1711 46.2162 60.179L43.9971 56.851C43.5877 57.124 43.2127 57.4976 42.9248 57.8044L45.8411 60.542ZM47.0171 59.9704C46.712 59.4822 46.4531 58.9704 46.2433 58.4389L42.5226 59.9075C42.8234 60.6695 43.193 61.3989 43.625 62.0901L47.0171 59.9704ZM51.8933 69.0452C51.5367 67.8768 50.6082 66.1047 49.7088 64.5037C48.7702 62.8329 47.73 61.119 47.0204 59.9756L43.6217 62.0849C44.3158 63.2033 45.3225 64.8627 46.2214 66.4628C47.1595 68.1326 47.8588 69.529 48.0676 70.2129L51.8933 69.0452ZM46.8272 73.7397C47.9821 73.9892 49.4118 73.9428 50.5559 73.1848C51.1648 72.7814 51.679 72.1764 51.9308 71.3765C52.178 70.5911 52.1208 69.7847 51.892 69.041L48.0689 70.2172C48.1168 70.3732 48.0663 70.3313 48.1154 70.1754C48.1387 70.1011 48.1771 70.0282 48.2262 69.9654C48.274 69.9044 48.3198 69.8681 48.3468 69.8502C48.3934 69.8193 48.3694 69.8508 48.2273 69.8675C48.0915 69.8836 47.8993 69.879 47.6718 69.8299L46.8272 73.7397ZM46.0215 98.8351C46.5973 98.1823 46.9631 97.3038 47.2208 96.5076C47.4953 95.6595 47.7214 94.6611 47.912 93.5886C48.2937 91.4399 48.5632 88.8158 48.7557 86.1312C49.1415 80.7518 49.2311 74.9402 49.2495 71.7964L45.2495 71.7731C45.2314 74.889 45.1423 80.5975 44.766 85.845C44.5774 88.4739 44.3199 90.9399 43.9737 92.8889C43.8002 93.8652 43.6121 94.6676 43.4152 95.2759C43.3172 95.5784 43.2252 95.8075 43.1447 95.9728C43.0606 96.1454 43.0126 96.1994 43.0219 96.1888L46.0215 98.8351ZM45.3056 101.813C45.2253 101.072 45.1917 100.649 45.2657 100.234C45.3275 99.8864 45.4882 99.4394 46.0215 98.8351L43.0219 96.1888C42.0468 97.2941 41.529 98.4013 41.3276 99.5327C41.1382 100.596 41.2566 101.577 41.3288 102.244L45.3056 101.813ZM43.966 107.501C44.7832 106.432 45.1922 105.378 45.3411 104.333C45.4813 103.349 45.3736 102.442 45.3056 101.813L41.3288 102.244C41.4039 102.937 41.4398 103.357 41.381 103.769C41.3309 104.121 41.1983 104.535 40.7884 105.071L43.966 107.501ZM41.8854 109.715C42.5833 109.158 43.2709 108.41 43.966 107.501L40.7884 105.071C40.2083 105.83 39.7441 106.306 39.3888 106.59L41.8854 109.715ZM40.3738 123.328C41.1151 122.13 41.587 120.644 41.9042 119.188C42.227 117.707 42.4179 116.121 42.5299 114.639C42.7539 111.675 42.6731 108.976 42.6354 108.069L38.6388 108.236C38.6737 109.071 38.7485 111.596 38.5413 114.338C38.4376 115.709 38.2661 117.097 37.996 118.337C37.7203 119.601 37.3688 120.582 36.9726 121.222L40.3738 123.328ZM40.1753 126.27C40.1855 125.198 40.1956 124.267 40.6002 122.81L36.7461 121.74C36.1981 123.713 36.1866 125.067 36.1755 126.232L40.1753 126.27ZM39.5194 130.91C40.1518 128.877 40.1637 127.495 40.1753 126.27L36.1755 126.232C36.1649 127.349 36.1551 128.258 35.6998 129.723L39.5194 130.91ZM31.3658 139.487C29.3987 139.848 29.3992 139.85 29.3996 139.853C29.3998 139.853 29.4002 139.856 29.4006 139.858C29.4012 139.861 29.4019 139.865 29.4025 139.868C29.4039 139.875 29.4054 139.883 29.407 139.89C29.4101 139.906 29.4137 139.922 29.4178 139.94C29.426 139.976 29.4364 140.018 29.4494 140.064C29.4749 140.153 29.5139 140.272 29.573 140.405C29.6774 140.64 29.9193 141.091 30.4274 141.432C31.0209 141.831 31.7253 141.912 32.3687 141.736C32.9251 141.585 33.3663 141.265 33.694 140.97C34.3508 140.379 35.078 139.401 35.955 137.926C36.854 136.414 37.9864 134.248 39.4229 131.16L35.7962 129.473C34.3907 132.494 33.3217 134.528 32.517 135.882C31.6904 137.272 31.212 137.822 31.0184 137.997C30.9208 138.084 31.0257 137.956 31.3166 137.877C31.6946 137.774 32.2045 137.808 32.6567 138.111C33.0236 138.358 33.1774 138.666 33.2289 138.782C33.2616 138.856 33.283 138.921 33.2976 138.972C33.3051 138.999 33.3116 139.024 33.3173 139.049C33.3202 139.062 33.3229 139.075 33.3255 139.087C33.3268 139.093 33.3281 139.1 33.3293 139.106C33.3299 139.109 33.3305 139.112 33.3311 139.116C33.3314 139.117 33.3319 139.12 33.332 139.12C33.3325 139.123 33.3329 139.125 31.3658 139.487ZM29.4063 139.072L29.3897 139.179L33.342 139.794L33.3586 139.688L29.4063 139.072ZM33.0169 140.533L33.0336 140.508L29.7314 138.251L29.7147 138.275L33.0169 140.533ZM27.5264 137.384C27.8135 137.958 28.4419 138.834 28.8752 139.424C29.1159 139.751 29.3429 140.052 29.5094 140.27C29.5928 140.38 29.6615 140.469 29.7096 140.532C29.7337 140.563 29.7527 140.588 29.7659 140.605C29.7724 140.613 29.7776 140.62 29.7811 140.624C29.7829 140.627 29.7843 140.628 29.7853 140.63C29.7858 140.63 29.7863 140.631 29.7866 140.631C29.7867 140.631 29.7868 140.632 29.7869 140.632C29.787 140.632 29.787 140.632 29.7871 140.632C29.7871 140.632 29.7872 140.632 31.3658 139.404C32.9445 138.176 32.9445 138.176 32.9445 138.176C32.9445 138.176 32.9445 138.176 32.9445 138.176C32.9445 138.176 32.9445 138.176 32.9445 138.176C32.9444 138.176 32.9442 138.176 32.9439 138.175C32.9433 138.175 32.9423 138.173 32.9409 138.172C32.9382 138.168 32.9339 138.163 32.9283 138.155C32.9169 138.141 32.8998 138.119 32.8777 138.09C32.8336 138.033 32.7695 137.949 32.6911 137.846C32.534 137.64 32.3216 137.358 32.0984 137.055C31.604 136.382 31.2071 135.801 31.1043 135.595L27.5264 137.384ZM27.7413 130.861C27.5863 132.24 27.44 133.541 27.3532 134.536C27.3101 135.03 27.2782 135.486 27.2698 135.856C27.2656 136.038 27.266 136.238 27.2805 136.43C27.2879 136.529 27.3133 136.957 27.5264 137.384L31.1043 135.595C31.2119 135.81 31.2461 135.986 31.2546 136.03C31.2613 136.065 31.2648 136.091 31.2666 136.105C31.2684 136.12 31.2691 136.129 31.2692 136.13C31.2693 136.131 31.2682 136.117 31.2677 136.082C31.2673 136.049 31.2674 136.005 31.2687 135.947C31.2742 135.708 31.2971 135.353 31.3381 134.883C31.4196 133.949 31.5592 132.706 31.7163 131.308L27.7413 130.861ZM28.4105 121.379C28.3944 121.335 28.4572 121.568 28.462 122.298C28.4662 122.938 28.4285 123.756 28.3595 124.699C28.2217 126.584 27.9706 128.821 27.7413 130.861L31.7163 131.308C31.9432 129.288 32.2043 126.968 32.3489 124.991C32.4211 124.004 32.4671 123.066 32.4619 122.272C32.4573 121.57 32.4173 120.693 32.1697 120.012L28.4105 121.379ZM27.8902 112.808C27.8584 113.369 27.784 114.892 27.8071 116.531C27.8287 118.06 27.9331 120.066 28.4105 121.379L32.1697 120.012C31.9574 119.428 31.8295 118.088 31.8067 116.474C31.7855 114.971 31.8544 113.554 31.8838 113.034L27.8902 112.808ZM26.5454 112.14C26.6421 113.108 27.1954 113.803 27.8064 114.224C28.3672 114.611 29.0023 114.795 29.5367 114.89L30.2374 110.951C30.1316 110.933 30.0657 110.913 30.0328 110.901C29.9981 110.889 30.0209 110.892 30.0759 110.93C30.1332 110.97 30.2388 111.056 30.3374 111.208C30.4411 111.368 30.5067 111.554 30.5255 111.742L26.5454 112.14ZM26.4873 111.301C26.4984 111.524 26.5123 111.81 26.5454 112.14L30.5255 111.742C30.5036 111.523 30.4936 111.329 30.4823 111.102L26.4873 111.301ZM23.3987 105.499C25.0688 107.837 25.8158 109.076 26.1664 109.844C26.4509 110.468 26.4582 110.72 26.4873 111.301L30.4823 111.102C30.4429 110.313 30.3958 109.478 29.8056 108.184C29.2815 107.035 28.3335 105.526 26.6538 103.174L23.3987 105.499ZM17.2233 87.3379C16.616 90.132 17.2511 93.3434 18.4035 96.3913C19.5742 99.4875 21.3726 102.662 23.3987 105.499L26.6538 103.174C24.7808 100.551 23.1676 97.6812 22.145 94.9766C21.1041 92.2237 20.7646 89.878 21.132 88.1875L17.2233 87.3379ZM13.3245 79.7722C14.352 81.1387 15.4731 82.6356 16.2771 84.1059C17.1273 85.6608 17.3569 86.7229 17.2233 87.3379L21.132 88.1875C21.5943 86.0606 20.7073 83.8706 19.7867 82.1868C18.8197 80.4184 17.5154 78.69 16.5215 77.3682L13.3245 79.7722ZM13.3226 79.7697L13.323 79.7702L16.523 77.3702L16.5226 77.3697L13.3226 79.7697ZM12.8698 79.1659C13.0164 79.3625 13.1693 79.5659 13.3241 79.7718L16.5211 77.3677C16.3654 77.1606 16.2173 76.9638 16.0763 76.7747L12.8698 79.1659ZM11.5043 80.9845C12.7991 80.9035 14.1955 80.3558 15.3803 79.7526L13.5658 76.1879C12.5397 76.7102 11.7286 76.9626 11.2547 76.9923L11.5043 80.9845ZM9.60538 72.8554C9.14808 74.0323 8.50578 75.6543 8.30711 76.9788C8.21446 77.5965 8.13823 78.5977 8.62682 79.502C8.90362 80.0143 9.33711 80.4466 9.91449 80.7126C10.4613 80.9645 11.0208 81.0147 11.5043 80.9845L11.2547 76.9923C11.2227 76.9943 11.3681 76.9782 11.5883 77.0796C11.8391 77.1952 12.0338 77.3928 12.146 77.6006C12.3055 77.8959 12.1974 78.0083 12.2629 77.5722C12.3803 76.789 12.8139 75.6422 13.3338 74.3042L9.60538 72.8554ZM10.3697 70.8521C10.3466 70.6669 10.379 70.5901 10.3534 70.7177C10.3337 70.8159 10.2931 70.9699 10.2215 71.192C10.0764 71.6412 9.86278 72.193 9.60538 72.8554L13.3338 74.3042C13.5777 73.6764 13.8395 73.0048 14.028 72.4209C14.1231 72.1264 14.2138 71.8115 14.2754 71.5036C14.3312 71.2253 14.395 70.8057 14.3388 70.356L10.3697 70.8521ZM16.9322 55.7893C16.1289 56.6544 15.3281 57.9118 14.6066 59.2169C13.8675 60.5538 13.1448 62.0649 12.5159 63.5242C11.8875 64.9823 11.3389 66.4209 10.9554 67.6171C10.7644 68.2128 10.6053 68.7764 10.4992 69.2675C10.4092 69.6836 10.2995 70.2903 10.3697 70.8521L14.3388 70.356C14.3603 70.5278 14.3237 70.5068 14.4089 70.1125C14.4779 69.7933 14.596 69.3637 14.7644 68.8382C15.0999 67.7921 15.5992 66.4765 16.1892 65.1073C16.7788 63.7394 17.4451 62.3501 18.1073 61.1521C18.787 59.9225 19.3996 59.0106 19.8635 58.5109L16.9322 55.7893ZM17.1431 55.4671C17.0263 55.6772 16.9513 55.7687 16.9322 55.7893L19.8635 58.5109C20.1766 58.1737 20.4307 57.7856 20.6386 57.4118L17.1431 55.4671ZM16.427 60.4273C17.5758 59.5864 18.6839 58.7814 19.7884 58.2268L17.9933 54.6522C16.538 55.383 15.1594 56.3981 14.0644 57.1996L16.427 60.4273ZM13.6583 62.2537C14.5565 61.8045 15.5538 61.0665 16.427 60.4273L14.0644 57.1996C13.0859 57.9159 12.3968 58.4123 11.8693 58.6761L13.6583 62.2537ZM8.61881 60.26C8.75135 60.6312 9.11653 61.5416 9.99999 62.1571C11.091 62.9171 12.4196 62.8812 13.6676 62.249L11.86 58.6807C11.697 58.7633 11.701 58.7236 11.8342 58.7256C11.9012 58.7266 11.9827 58.7382 12.0697 58.7671C12.1559 58.7957 12.2289 58.8349 12.2865 58.875C12.3949 58.9505 12.4322 59.0169 12.4258 59.0066C12.4209 58.9987 12.4051 58.9687 12.3858 58.9148L8.61881 60.26ZM9.14101 60.8872C8.90075 60.7537 8.73224 60.5474 8.64533 60.3301L12.3593 58.8447C12.1164 58.2375 11.675 57.7192 11.0838 57.3907L9.14101 60.8872ZM3.97992 57.0038C5.49404 58.5614 7.2583 59.8718 9.16292 60.8992L11.0619 57.3787C9.49634 56.5342 8.06335 55.4658 6.84812 54.2157L3.97992 57.0038ZM2.79864 55.7898L3.98061 57.0045L6.84743 54.215L5.66546 53.0003L2.79864 55.7898ZM0.969136 54.8255C1.77873 55.745 2.85376 56.2775 4.05024 56.3867L4.41386 52.4033C4.21745 52.3854 4.09293 52.3203 3.97131 52.1822L0.969136 54.8255ZM-1.47031 52.8163C-0.886467 53.2675 -0.342234 53.6882 0.111472 54.0589C0.595044 54.4541 0.861326 54.7013 0.959475 54.8144L3.98097 52.1932C3.6316 51.7905 3.1169 51.3492 2.64245 50.9615C2.13813 50.5494 1.54731 50.0931 0.975507 49.6512L-1.47031 52.8163ZM-4.87137 46.4837C-5.6418 47.1409 -5.70234 48.0477 -5.57225 48.6252C-5.46607 49.0965 -5.23002 49.4505 -5.10149 49.6287C-4.81784 50.0217 -4.42371 50.4016 -4.0793 50.711C-3.35652 51.3603 -2.35596 52.1319 -1.47031 52.8163L0.975509 49.6512C0.0464851 48.9333 -0.818409 48.2634 -1.40618 47.7354C-1.54769 47.6083 -1.65869 47.5021 -1.74171 47.4165C-1.82965 47.3258 -1.86003 47.2849 -1.85793 47.2879C-1.85564 47.291 -1.8312 47.3248 -1.79935 47.3858C-1.76996 47.4421 -1.71052 47.5664 -1.67004 47.7461C-1.62922 47.9273 -1.59432 48.2263 -1.68585 48.5817C-1.7842 48.9637 -1.99837 49.2905 -2.27535 49.5268L-4.87137 46.4837ZM-2.37265 45.8623C-2.6248 45.8569 -2.97818 45.8499 -3.30619 45.8795C-3.53559 45.9002 -4.25288 45.9653 -4.85791 46.4723L-2.28881 49.5382C-2.41417 49.6433 -2.53302 49.7119 -2.62437 49.756C-2.71536 49.7998 -2.79072 49.8248 -2.83915 49.8387C-2.92893 49.8645 -2.97615 49.8659 -2.94683 49.8633C-2.92327 49.8612 -2.87294 49.8583 -2.78256 49.8577C-2.69344 49.857 -2.58943 49.8586 -2.45803 49.8614L-2.37265 45.8623ZM-3.96329 49.0109C-4.07868 49.0109 -4.15614 48.989 -4.18556 48.9791C-4.21371 48.9697 -4.21043 48.9671 -4.17528 48.9882C-4.14115 49.0088 -4.09153 49.043 -4.0281 49.095C-3.96542 49.1463 -3.8981 49.2077 -3.82818 49.2775L-1.0025 46.4463C-1.28477 46.1646 -1.66091 45.8333 -2.11076 45.5622C-2.54828 45.2985 -3.18952 45.0109 -3.96329 45.0109V49.0109ZM-7.95338 49.1596C-6.79885 49.5195 -5.29288 49.3749 -3.50876 48.9585L-4.41782 45.0632C-5.21638 45.2496 -5.7954 45.3331 -6.20276 45.3571C-6.62397 45.3819 -6.77358 45.3375 -6.76285 45.3408L-7.95338 49.1596ZM-9.27911 52.8737L-5.7935 48.496L-8.92273 46.0044L-12.4083 50.3821L-9.27911 52.8737ZM-8.84871 51.7885C-8.84604 51.7431 -8.84433 51.6964 -8.84384 51.6484L-12.8436 51.6074C-12.8434 51.587 -12.8427 51.569 -12.8418 51.5536L-8.84871 51.7885ZM-9.7517 53.5641C-9.1754 53.103 -8.84525 52.4093 -8.84525 51.671H-12.8453C-12.8453 51.2058 -12.6321 50.746 -12.2507 50.4409L-9.7517 53.5641ZM-14.8914 52.4994C-14.9444 52.6825 -15.0538 53.1047 -14.9681 53.6053C-14.92 53.8862 -14.7983 54.2602 -14.5065 54.6094C-14.2017 54.9742 -13.8128 55.1899 -13.4375 55.2897C-12.7962 55.4605 -12.2623 55.2814 -12.09 55.2202C-11.8496 55.1347 -11.6432 55.0223 -11.4953 54.9342C-10.9385 54.6023 -10.2616 54.0296 -9.66053 53.4866L-12.3419 50.5184C-12.9495 51.0673 -13.3644 51.3916 -13.5435 51.4984C-13.5797 51.5199 -13.535 51.4886 -13.4303 51.4514C-13.3939 51.4385 -12.9698 51.275 -12.4085 51.4244C-12.0734 51.5136 -11.7171 51.7093 -11.437 52.0446C-11.17 52.3642 -11.0651 52.6988 -11.0255 52.9301C-10.9871 53.1545 -11.0005 53.3309 -11.0118 53.4221C-11.0237 53.5194 -11.0417 53.586 -11.0491 53.6115L-14.8914 52.4994ZM-12.7038 49.8646C-13.0636 50.071 -13.4953 50.379 -13.8869 50.7863C-14.2701 51.185 -14.7135 51.7821 -14.9106 52.5704L-11.03 53.5404C-11.046 53.6046 -11.0655 53.6345 -11.0626 53.6297C-11.0593 53.6245 -11.0424 53.5992 -11.0032 53.5584C-10.9647 53.5184 -10.9158 53.4749 -10.8599 53.4323C-10.804 53.3898 -10.7518 53.3562 -10.7129 53.3339L-12.7038 49.8646ZM-9.61899 45.7643L-13.273 50.3534L-10.1437 52.845L-6.48976 48.2559L-9.61899 45.7643ZM-9.64897 44.0186C-10.0282 44.2895 -10.5154 44.7335 -10.757 45.4164C-11.0366 46.207 -10.8649 46.9564 -10.536 47.4984C-10.2515 47.9674 -9.867 48.2655 -9.61662 48.4333C-9.34446 48.6157 -9.06832 48.7505 -8.84891 48.8455L-7.25983 45.1747C-7.29954 45.1575 -7.33193 45.142 -7.35676 45.129C-7.38232 45.1156 -7.39214 45.1089 -7.38947 45.1107C-7.38814 45.1116 -7.35954 45.1305 -7.31617 45.1715C-7.27418 45.2112 -7.19544 45.2931 -7.11638 45.4233C-6.92723 45.7351 -6.80264 46.2321 -6.98593 46.7503C-7.13114 47.1608 -7.37862 47.3125 -7.32377 47.2733L-9.64897 44.0186ZM-8.86843 43.5873C-9.1331 43.6965 -9.39633 43.8381 -9.64898 44.0186L-7.32377 47.2733C-7.32967 47.2775 -7.33478 47.2806 -7.33854 47.2827C-7.34226 47.2847 -7.34397 47.2854 -7.34308 47.285L-8.86843 43.5873ZM-8.08552 39.8617C-9.45119 40.7616 -10.0961 42.0844 -10.3046 43.2681C-10.4956 44.3524 -10.3646 45.5956 -9.80173 46.4962L-6.40978 44.3761C-6.3333 44.4985 -6.3568 44.5204 -6.37598 44.386C-6.39174 44.2756 -6.3939 44.1247 -6.36524 43.962C-6.31 43.6483 -6.16488 43.3865 -5.88464 43.2018L-8.08552 39.8617ZM-2.68287 39.2905C-4.40288 38.6344 -6.41048 38.7755 -8.07323 39.8537L-5.89693 43.2099C-5.35591 42.859 -4.69346 42.8047 -4.1086 43.0278L-2.68287 39.2905ZM-2.29176 36.5618L-4.96035 39.9134L-1.83112 42.405L0.837473 39.0534L-2.29176 36.5618ZM1.05449 36.664L0.50862 36.2351L-1.9629 39.3802L-1.41703 39.8091L1.05449 36.664ZM-1.19163 42.7164L1.38335 39.4824L-1.74588 36.9908L-4.32086 40.2248L-1.19163 42.7164ZM0.0327076 41.3695C-0.452146 40.7027 -1.05348 40.1613 -1.72446 39.7573L-3.78802 43.1839C-3.56595 43.3176 -3.36605 43.4969 -3.20241 43.7219L0.0327076 41.3695ZM-0.103197 43.6961C0.21699 41.7219 0.218173 41.7221 0.219353 41.7223C0.219743 41.7224 0.220922 41.7226 0.221703 41.7227C0.223265 41.7229 0.224818 41.7232 0.226362 41.7235C0.229451 41.724 0.232503 41.7245 0.235521 41.725C0.241555 41.7261 0.247447 41.7271 0.253199 41.7281C0.264704 41.7302 0.27565 41.7324 0.286052 41.7345C0.306856 41.7387 0.325491 41.7429 0.342074 41.747C0.375251 41.7551 0.400201 41.7628 0.417798 41.7688C0.453427 41.7809 0.458069 41.7862 0.438444 41.7749C0.405778 41.7561 0.243586 41.6561 0.0261154 41.3605L-3.19581 43.731C-2.65296 44.4688 -2.07433 44.944 -1.55625 45.242C-1.3005 45.3892 -1.06801 45.4883 -0.873368 45.5546C-0.776266 45.5878 -0.689022 45.6126 -0.613427 45.6312C-0.575636 45.6405 -0.54076 45.6482 -0.509019 45.6546C-0.493148 45.6579 -0.478059 45.6608 -0.463778 45.6634C-0.456638 45.6647 -0.449699 45.6659 -0.442966 45.6671C-0.439599 45.6676 -0.436283 45.6682 -0.43302 45.6687C-0.431388 45.669 -0.429769 45.6693 -0.428163 45.6695C-0.42736 45.6697 -0.426164 45.6699 -0.425763 45.6699C-0.424572 45.6701 -0.423383 45.6703 -0.103197 43.6961ZM2.5119 43.5894L1.37122 42.3448L-1.57761 45.0475L-0.436931 46.292L2.5119 43.5894ZM-0.964258 45.0806C-0.956398 45.1273 -0.949558 45.1721 -0.943646 45.2148L3.01861 44.6666C3.00721 44.5842 2.99446 44.5012 2.98039 44.4174L-0.964258 45.0806ZM1.31999 42.3785C-0.0443978 42.3785 -1.25741 43.6194 -0.95311 45.1412L2.96924 44.3569C3.19556 45.4887 2.29447 46.3785 1.31999 46.3785V42.3785ZM10.1578 47.9578C10.0564 47.6539 9.90388 47.4476 9.87294 47.4049C9.81537 47.3255 9.76274 47.2648 9.73245 47.2309C9.67014 47.1611 9.61104 47.1034 9.57391 47.068C9.49449 46.9922 9.4047 46.9134 9.31963 46.8409C9.14393 46.6911 8.91176 46.5032 8.64421 46.2946C8.10673 45.8755 7.38216 45.3383 6.59696 44.8028C5.81743 44.2712 4.94405 43.7178 4.11628 43.2827C3.37964 42.8955 2.37114 42.4306 1.42403 42.3813L1.21595 46.3758C1.20462 46.3752 1.52424 46.4392 2.25525 46.8234C2.89511 47.1597 3.62889 47.6203 4.3432 48.1074C5.05184 48.5907 5.70778 49.0772 6.18467 49.4491C6.42431 49.6359 6.60779 49.7853 6.72459 49.8848C6.75295 49.909 6.77494 49.9282 6.79113 49.9426C6.8081 49.9577 6.81439 49.9637 6.81277 49.9621C6.8117 49.9611 6.80599 49.9557 6.79691 49.9465C6.78862 49.9381 6.77129 49.9203 6.74878 49.895C6.72975 49.8737 6.68607 49.8239 6.6351 49.7536C6.61077 49.7201 6.46245 49.5211 6.36296 49.2226L10.1578 47.9578ZM10.6559 49.1521C10.521 48.6996 10.36 48.3195 10.2327 48.0511C10.1684 47.9153 10.1107 47.8041 10.0662 47.7219C10.0439 47.6807 10.0248 47.6466 10.0096 47.62C10.002 47.6066 9.99539 47.5952 9.98983 47.5857C9.98705 47.5809 9.98453 47.5767 9.98229 47.5729C9.98117 47.571 9.98012 47.5692 9.97914 47.5676C9.97865 47.5668 9.97818 47.566 9.97772 47.5652C9.9775 47.5648 9.97727 47.5644 9.97705 47.5641C9.97695 47.5639 9.97678 47.5636 9.97673 47.5635C9.97657 47.5633 9.97641 47.563 8.26036 48.5902C6.54431 49.6174 6.54415 49.6172 6.544 49.6169C6.54395 49.6168 6.54379 49.6166 6.54369 49.6164C6.54349 49.6161 6.54329 49.6157 6.5431 49.6154C6.54271 49.6148 6.54234 49.6141 6.54199 49.6135C6.54128 49.6124 6.54064 49.6113 6.54005 49.6103C6.53889 49.6083 6.53797 49.6068 6.5373 49.6056C6.53595 49.6033 6.53554 49.6026 6.53601 49.6034C6.53695 49.605 6.54131 49.6127 6.54844 49.6259C6.56283 49.6525 6.58774 49.7 6.61837 49.7646C6.68109 49.8969 6.75963 50.0836 6.82288 50.2956L10.6559 49.1521ZM9.89029 47.9428C9.6164 47.8602 9.34564 47.8004 9.09083 47.7549L8.38799 51.6927C8.53114 51.7183 8.64532 51.7453 8.73592 51.7726L9.89029 47.9428ZM11.3782 47.9787C10.9201 48.1141 10.4127 48.1088 9.9196 47.9519L8.70661 51.7635C9.92912 52.1526 11.2543 52.1863 12.5118 51.8147L11.3782 47.9787ZM11.0648 48.0684C11.0112 48.2125 10.9772 48.2778 10.9673 48.2955C10.9596 48.3091 10.9848 48.2611 11.0536 48.1912C11.0878 48.1564 11.1273 48.1219 11.1711 48.0896C11.2147 48.0575 11.2552 48.0331 11.2885 48.0153C11.348 47.9836 11.3784 47.9774 11.3124 47.9994L12.5775 51.794C12.8806 51.693 13.4119 51.4972 13.9038 50.9977C14.3502 50.5443 14.6172 49.9915 14.8137 49.4631L11.0648 48.0684ZM15.1893 45.5977C14.6175 45.7054 13.8387 45.8454 13.1752 46.0976C12.5065 46.3517 11.5089 46.8838 11.0666 48.0636L14.8119 49.4679C14.6556 49.8849 14.3404 49.9339 14.5964 49.8366C14.7048 49.7954 14.8658 49.748 15.1047 49.6936C15.3434 49.6393 15.6078 49.5892 15.9299 49.5285L15.1893 45.5977ZM17.9584 44.6219C17.4775 45.1029 16.6465 45.3231 15.1892 45.5977L15.9299 49.5285C17.0965 49.3087 19.2757 48.9617 20.7871 47.4501L17.9584 44.6219ZM20.7707 41.238C19.8725 42.4363 18.8101 43.7701 17.9584 44.6219L20.7871 47.4501C21.8544 46.3826 23.0605 44.8523 23.9715 43.6369L20.7707 41.238ZM23.0962 37.5151C21.1124 37.2612 21.1124 37.2612 21.1124 37.2611C21.1124 37.2611 21.1124 37.2611 21.1124 37.2611C21.1124 37.2611 21.1124 37.2612 21.1124 37.2612C21.1124 37.2614 21.1124 37.2616 21.1123 37.262C21.1122 37.2628 21.1121 37.2641 21.1118 37.2659C21.1114 37.2694 21.1107 37.275 21.1097 37.2825C21.1077 37.2976 21.1048 37.3205 21.1008 37.3508C21.0928 37.4115 21.0809 37.5022 21.065 37.6202C21.0334 37.8562 20.9863 38.2013 20.9249 38.6345C20.8022 39.5011 20.6229 40.7185 20.3967 42.1184L24.3454 42.7565C24.5767 41.3257 24.7599 40.0819 24.8854 39.1951C24.9482 38.7516 24.9967 38.3968 25.0295 38.1522C25.0459 38.0298 25.0584 37.935 25.0669 37.8703C25.0712 37.8379 25.0744 37.8131 25.0766 37.7961C25.0777 37.7876 25.0785 37.7811 25.0791 37.7766C25.0794 37.7743 25.0796 37.7726 25.0798 37.7713C25.0799 37.7707 25.0799 37.7702 25.08 37.7698C25.08 37.7696 25.08 37.7695 25.08 37.7693C25.08 37.7693 25.08 37.7692 25.08 37.7692C25.0801 37.7691 25.0801 37.7691 23.0962 37.5151ZM22.6496 35.5625L22.5432 35.5931L23.6492 39.4372L23.7556 39.4066L22.6496 35.5625ZM19.9336 27.9793C18.6902 28.6241 17.7015 29.5671 17.3043 30.8756C16.9151 32.1574 17.2188 33.3837 17.6809 34.3491C18.5704 36.2076 20.4204 37.8961 22.0014 39.0836L24.4038 35.8854C22.9332 34.7808 21.7434 33.5718 21.2889 32.6222C21.1876 32.4104 21.1465 32.2582 21.1327 32.1619C21.1199 32.0732 21.1309 32.0404 21.1318 32.0375C21.1331 32.0332 21.1362 32.0239 21.1458 32.0078C21.1556 31.9912 21.1761 31.9608 21.216 31.9183C21.2979 31.8312 21.4632 31.6919 21.7751 31.5302L19.9336 27.9793ZM22.4093 26.7762C21.6855 27.0993 20.8661 27.4957 19.9336 27.9793L21.7751 31.5302C22.6521 31.0754 23.4002 30.7143 24.0397 30.4288L22.4093 26.7762ZM20.1489 24.5794C20.3801 26.3092 20.7615 28.0184 21.4041 29.4308L25.045 27.7743C24.6349 26.873 24.3212 25.6026 24.1136 24.0494L20.1489 24.5794ZM18.918 24.3154C19.3556 24.9233 20.1416 25.705 21.4299 26.1874L22.8325 22.4414C22.4084 22.2826 22.2239 22.0613 22.1641 21.9782L18.918 24.3154ZM21.7054 21.3378C20.709 20.715 19.6437 21.0994 19.1023 21.6654C18.5263 22.2676 18.2262 23.3937 18.941 24.3468L22.141 21.9468C22.8037 22.8304 22.521 23.8782 21.9928 24.4303C21.4992 24.9464 20.5122 25.309 19.5854 24.7297L21.7054 21.3378ZM22.4358 21.5862C21.9457 21.4869 21.7487 21.3655 21.7305 21.3537L19.5604 24.7138C20.0555 25.0336 20.7335 25.3226 21.6418 25.5066L22.4358 21.5862ZM19.8202 20.0293C19.8489 21.2781 19.9192 22.5427 20.0503 23.7604L24.0273 23.3323C23.911 22.2516 23.8459 21.1024 23.8192 19.9374L19.8202 20.0293ZM41.4512 46.345C41.2303 46.7257 40.9793 47.1584 40.7068 47.6288L44.1679 49.6339C44.4397 49.1647 44.6902 48.733 44.9111 48.3522L41.4512 46.345ZM41.4609 46.3283L41.4511 46.3451L44.9112 48.3521L44.9209 48.3353L41.4609 46.3283ZM41.4634 46.3239L41.4633 46.324L44.9184 48.3395L44.9185 48.3394L41.4634 46.3239ZM42.3624 44.7712C42.3832 44.7296 42.3873 44.725 42.3254 44.8337C42.2799 44.9135 42.2155 45.0254 42.1332 45.168C41.9688 45.4528 41.7396 45.8477 41.461 46.328L44.9209 48.3352C45.4411 47.4386 45.8643 46.7116 45.9402 46.5598L42.3624 44.7712ZM45.227 47.3117C45.2582 47.2903 45.2332 47.3079 45.2017 47.3277C45.1851 47.3381 45.1292 47.3732 45.0516 47.4123C45.0139 47.4313 44.7814 47.5528 44.4537 47.6014C44.2786 47.6274 43.9375 47.6546 43.5369 47.5225C43.0775 47.3709 42.6727 47.0513 42.4214 46.6038C42.2009 46.211 42.1683 45.8451 42.1661 45.6502C42.1637 45.4455 42.1938 45.2844 42.2131 45.1975C42.2511 45.0271 42.3034 44.9027 42.3178 44.8685C42.3387 44.8188 42.3565 44.783 42.3624 44.7712L45.9402 46.5599C45.954 46.5323 45.978 46.4832 46.0037 46.4223C46.0228 46.3769 46.0782 46.2436 46.1176 46.0663C46.1272 46.0235 46.306 45.3522 45.9092 44.6454C45.3068 43.5727 44.2077 43.5942 43.8673 43.6446C43.5348 43.6939 43.2959 43.8179 43.2502 43.8409C43.1647 43.884 43.0993 43.9246 43.0716 43.942C43.018 43.9758 42.9645 44.013 42.961 44.0154L45.227 47.3117ZM40.0228 47.03C41.187 47.8272 42.3202 48.1167 43.3566 48.0112C44.3624 47.9088 45.02 47.454 45.227 47.3117L42.961 44.0154C42.9132 44.0483 42.9185 44.043 42.9263 44.0394C42.9362 44.0349 42.9468 44.0323 42.9515 44.0318C42.9593 44.031 42.9231 44.0376 42.8302 44.0112C42.7328 43.9836 42.5503 43.9128 42.2827 43.7296L40.0228 47.03ZM43.6647 48.1663C43.4511 47.093 43.2678 46.0538 43.1331 45.1001L39.1724 45.6595C39.3204 46.7072 39.518 47.823 39.7416 48.9468L43.6647 48.1663ZM42.9251 46.5188C41.5981 45.9879 40.5842 46.8659 40.3409 47.0922L43.0654 50.0209C43.0557 50.0299 42.9295 50.1503 42.688 50.2451C42.4104 50.354 41.9469 50.4357 41.4393 50.2326L42.9251 46.5188ZM43.876 47.242C43.7851 47.1479 43.7099 47.0725 43.6555 47.0188C43.6282 46.9919 43.606 46.9703 43.5896 46.9544C43.5813 46.9464 43.5745 46.9399 43.5692 46.9348C43.5666 46.9323 43.5643 46.9301 43.5624 46.9283C43.5614 46.9274 43.5606 46.9265 43.5598 46.9258C43.5594 46.9255 43.5591 46.9251 43.5587 46.9248C43.5586 46.9247 43.5584 46.9245 43.5582 46.9244C43.5582 46.9243 43.5581 46.9242 43.558 46.9241C43.558 46.9241 43.5579 46.9241 43.5579 46.924C43.5579 46.924 43.5578 46.9239 42.1822 48.3757C40.8066 49.8275 40.8065 49.8275 40.8065 49.8274C40.8065 49.8274 40.8064 49.8274 40.8064 49.8273C40.8063 49.8273 40.8062 49.8272 40.8062 49.8271C40.8061 49.827 40.8059 49.8269 40.8058 49.8268C40.8056 49.8266 40.8054 49.8264 40.8052 49.8262C40.8048 49.8258 40.8045 49.8255 40.8043 49.8253C40.8039 49.825 40.8039 49.8249 40.8042 49.8252C40.8048 49.8258 40.8068 49.8278 40.8102 49.831C40.817 49.8376 40.829 49.8493 40.8459 49.8659C40.8796 49.8992 40.932 49.9516 40.9987 50.0207L43.876 47.242Z" fill="white" mask="url(#path-20-outside-1)"/>
</svg>
