<svg width="60" height="60" fill="none" xmlns="http://www.w3.org/2000/svg"><g clip-path="url(#clip0)"><mask id="a" maskUnits="userSpaceOnUse" x="6" y="4.366" width="50" height="94" fill="#000"><path fill="#fff" d="M6 4.366h50v94H6z"/><path fill-rule="evenodd" clip-rule="evenodd" d="M33.046 7.779c-.864-.402-4.764-.854-5.983.461a2.922 2.922 0 01-.66.542l-.08.05c-.742.394-1.4.218-1.692.029-.154-.118-.54-.265-1.136-.24a4.27 4.27 0 00-1.196.24c-4.916 1.592-6.488 4.805-6.66 6.213-.126.836-.667 2.871-1.822 4.326-1.154 1.455-.71 4.36-.343 5.63.196.537.724 2.195 1.272 4.53.48 2.038 3.016 3.386 4.689 3.977.297.612.648 1.269 1.065 1.985.923 1.58 2.067 2.398 3.096 2.781.494 1.13 1 2.932.619 4.603-.404.416-1.075 1.051-1.649 1.412-.376.24-1.27.78-1.834 1.013-.911.45-3.056 1.884-4.355 4.015-.23.377-.478.753-.733 1.138-1.343 2.027-2.845 4.293-2.486 8.186a30.03 30.03 0 01-.167.223l-.022-.001-.12.157a9.779 9.779 0 00-.592.913h.004c-1.278 2.159-3.145 6.77-3.256 12.978-.128 7.133 2.466 11.11 3.78 12.206l.946-.097c.048.51.082.928.103 1.237l.761-1.144c2.247 1.043 3.054.664 3.114-.502l1.154-.118-.022.461c-.048 1.005-.085 1.79-.055 2.236l.762-1.144c2.62 1.216 3.434.132 3.428-1.975l1.898-.195c-.015.539-.023.965-.01 1.24l.43-.975c1.104.772 1.642.457 1.843-.497l3.708-.38c-.529 3.38-.17 5.676 3.23 4.098l.762 1.144c.03-.447-.007-1.232-.054-2.236a90.937 90.937 0 01-.116-3.399l3.801-.39c.026-.331.052-.692.08-1.076 5.67-1.338 15.285-4.014 14.147-5.427-1.495-1.859-2.308-9.878-.634-15.177 1.34-4.24-.558-7.867-1.674-9.151-.439-.498-1.479-2.04-2.13-4.215-.65-2.175-3.2-4.07-4.394-4.745-.734-.386-2.81-1.386-3.756-1.838l-1.152-.331h-.002.001c-.89-.438-4.504-2.345-3.655-7.09 1.88.84 5.892 1.38 7.388-.088 1.782-1.75 2.368-4.259 1.48-6.97-.89-2.712-.551-3.433.342-5.216 1.542-3.028-1.784-5.485-3.723-6.379a7.377 7.377 0 00-.094-.043 13.214 13.214 0 01-.64-.277c-1.134-.524-2.688-1.412-2.96-2.229-.928-2.54-2.893-3.766-3.722-4.283-.09-.056-.165-.103-.225-.143a.727.727 0 00-.1-.053z"/></mask><path d="M27.063 8.24l-2.2-2.04 2.2 2.04zm5.983-.461l-1.265 2.72.007.003.007.003 1.25-2.726zm-6.642 1.003l-1.52-2.587-.035.02-.035.023 1.59 2.544zm-.082.05l1.407 2.65.093-.05.09-.055-1.59-2.544zm-1.69.029l-1.82 2.386.092.07.097.063 1.63-2.519zm-1.137-.24l-.126-2.998-2.874.122V8.62h3zm0 0l.126 2.997 2.874-.12V8.62h-3zm-1.196.24l.924 2.854.023-.007.022-.008-.97-2.839zm-6.66 6.213l2.967.448.006-.043.006-.043-2.978-.362zm-2.165 9.956l-2.882.832.028.098.035.096 2.82-1.026zm1.272 4.53l2.92-.686-2.92.686zm4.689 3.977l2.699-1.31-.538-1.108-1.162-.41-1 2.828zm1.065 1.985l2.592-1.512-2.592 1.512zm3.096 2.781l2.75-1.201-.51-1.166-1.192-.444-1.047 2.811zm.619 4.603l2.153 2.089.585-.603.186-.818-2.924-.668zm-1.649 1.412l-.546 2.95 1.152.213.99-.623-1.596-2.54zm0 0l.546-2.95-1.165-.215-.997.638 1.616 2.527zm-1.834 1.013l-1.144-2.774-.128.053-.123.065 1.395 2.656zm0 0l1.33 2.689.032-.016.032-.017-1.395-2.656zm-4.355 4.015l2.562 1.561-2.562-1.56zm-.733 1.138l-2.501-1.657 2.5 1.657zm-2.486 8.186l2.413 1.782.679-.92-.105-1.137-2.987.275zm-.167.223l-.146 2.996 1.587.078.955-1.27-2.396-1.804zm-.022-.001l.147-2.997-1.577-.077-.957 1.256 2.387 1.818zm-.12.157l-2.372-1.838-.018.024-.017.023 2.407 1.791zm-.592.913l-2.595-1.506-2.734 4.708 5.441-.204-.112-2.998zm.004 0l2.582 1.528 2.8-4.733-5.495.207.113 2.998zM9.005 72.94l3 .054-3-.054zm3.78 12.206l-1.923 2.302.97.811 1.259-.129-.306-2.984zm.946-.097l2.986-.282-.283-3.012-3.01.31.307 2.984zm.103 1.237l-2.993.206.605 8.797 4.885-7.34-2.497-1.663zm.761-1.144l1.263-2.721-2.334-1.084-1.426 2.143 2.497 1.662zm3.114-.502l-.307-2.984-2.56.263-.13 2.57 2.997.151zm1.154-.118l2.997.14.162-3.48-3.465.356.306 2.984zm-.022.461l2.997.143-2.997-.143zm-.055 2.236l-2.993.206.605 8.797 4.886-7.34-2.497-1.663zm.762-1.144l1.263-2.72-2.335-1.084-1.426 2.142 2.498 1.662zm3.428-1.975l-.306-2.984-2.701.277.007 2.715 3-.008zm1.898-.195l2.999.086.098-3.42-3.403.35.306 2.984zm-.01 1.24l-2.997.137 5.74 1.076-2.743-1.212zm.43-.975l1.72-2.458-2.99-2.09-1.474 3.336 2.744 1.212zm1.843-.497l-.306-2.984-2.178.223-.452 2.142 2.936.619zm3.708-.38l2.964.463.602-3.846-3.872.398.306 2.984zm3.23 4.098l2.498-1.662-1.426-2.142-2.334 1.083 1.263 2.721zm.762 1.144l-2.497 1.662 4.885 7.34.605-8.796-2.993-.206zm-.054-2.236l-2.998.125v.01l.001.008 2.997-.143zm0 0l2.997-.125-.003-.062-.005-.062-2.99.249zm0 0l-2.997.143.002.053.005.053 2.99-.25zm-.116-3.399l-.307-2.984-2.724.28.03 2.738 3-.034zm3.801-.39l.306 2.984 2.49-.255.195-2.496-2.991-.233zm.08-1.076l-.69-2.92-2.15.507-.154 2.204 2.993.209zm14.147-5.427l-2.337 1.88 2.337-1.88zm-.634-15.177l-2.86-.904 2.86.904zm-1.674-9.151l2.263-1.969-.005-.006-.006-.007-2.252 1.982zm-2.13-4.215l-2.874.86 2.874-.86zm-4.394-4.745l-2.953.527.248 1.39 1.228.694 1.477-2.61zm0 0l2.953-.527-.258-1.445-1.298-.683-1.397 2.655zm-3.756-1.838l1.293-2.708-1.635-.78-1.452 1.083 1.794 2.405zm0 0l-.832 2.882 1.43.413 1.195-.89-1.793-2.405zm-1.152-.331l.824-2.885-.62-.177-.637.093.433 2.969zm-.002 0l-1.614-2.528 2.047 5.497-.433-2.969zm.001 0l1.615 2.528 4.495-2.87-4.787-2.351-1.323 2.692zM35.3 33.46l1.222-2.74-3.5-1.56-.675 3.772 2.953.529zm7.388-.088l2.102 2.14-2.102-2.14zm1.48-6.97l2.85-.935-2.85.935zm.342-5.216l-2.673-1.361-.005.009-.004.008 2.682 1.344zm-3.723-6.379l-1.258 2.723.002.001 1.256-2.724zm-.094-.043l1.223-2.74-.056-.024-.057-.023-1.11 2.787zm-.64-.277l-1.26 2.723h.001l1.258-2.723zm-2.96-2.229l2.847-.946-.014-.042-.015-.041-2.818 1.03zM33.37 7.975l1.588-2.545-.008-.005-.008-.005-1.572 2.555zm0 0l-1.586 2.547.008.004.007.005 1.571-2.556zm0 0l-1.601 2.537.007.005.008.005 1.586-2.547zm0 0l1.601-2.537-.025-.016-.026-.016-1.55 2.57zm0 0l-1.588 2.546.02.011.018.012 1.55-2.569zm-.225-.143l-1.66 2.499 1.66-2.499zm-3.883 2.448c-.264.286-.443.261-.15.189.24-.06.611-.103 1.079-.103.454 0 .906.04 1.269.095.18.028.314.056.399.078.112.028.06.024-.078-.04l2.53-5.44c-.618-.288-1.373-.44-1.934-.527-.65-.1-1.411-.167-2.192-.166-.768 0-1.655.066-2.515.279-.81.2-1.933.613-2.807 1.556l4.4 4.08zm-1.34 1.089c.49-.288.938-.655 1.34-1.089l-4.4-4.08-.025.027a.405.405 0 01.048-.032l3.038 5.174zm-.01.008l.082-.051-3.18-5.088-.082.05 3.18 5.089zm-4.91.002c1.127.73 2.945 1.05 4.727.103l-2.814-5.299c.138-.073.343-.127.582-.112.196.013.46.074.765.272l-3.26 5.037zm.62.24c.025-.002-.023.004-.134-.025a1.495 1.495 0 01-.239-.085 2.207 2.207 0 01-.436-.262l3.637-4.772c-.883-.673-2.036-.896-3.081-.852l.252 5.995zm2.873-2.998h-6 6zm-3.227 3.08c.211-.073.328-.082.353-.083l-.252-5.994a7.26 7.26 0 00-2.04.398l1.94 5.678zm-4.65 3.735c-.003.025.017-.129.154-.419.13-.273.344-.625.678-1.007.654-.75 1.806-1.658 3.773-2.295l-1.848-5.708c-5.896 1.91-8.385 6.006-8.713 8.704l5.956.725zm-2.451 5.83c1.607-2.025 2.272-4.637 2.439-5.744l-5.933-.896c-.03.203-.143.721-.371 1.334-.23.618-.519 1.177-.834 1.575l4.699 3.73zm.19 2.932a8.048 8.048 0 01-.282-1.95c-.004-.369.027-.657.073-.857.047-.206.086-.21.019-.126l-4.7-3.73c-1.236 1.558-1.407 3.524-1.392 4.785.017 1.38.272 2.693.517 3.543l5.765-1.665zm1.31 4.676c-.57-2.422-1.129-4.197-1.373-4.87l-5.639 2.052c.146.402.643 1.942 1.171 4.19l5.84-1.372zm2.767 1.835c-.647-.23-1.412-.591-2.011-1.033-.643-.473-.75-.779-.756-.802l-5.841 1.372c.473 2.015 1.874 3.403 3.037 4.26 1.208.89 2.547 1.498 3.573 1.86l1.998-5.657zm2.658 3.3a26.53 26.53 0 01-.958-1.781l-5.398 2.619c.334.688.722 1.413 1.173 2.186l5.183-3.023zm1.552 1.483c-.364-.135-.97-.484-1.552-1.482l-5.183 3.023c1.263 2.165 2.946 3.45 4.64 4.082l2.095-5.623zm2.495 8.082c.59-2.586-.194-5.1-.794-6.472l-5.497 2.403c.17.388.339.89.431 1.415.093.532.088.979.01 1.318l5.85 1.336zm-2.976 3.284c.895-.563 1.773-1.418 2.205-1.863l-4.307-4.177c-.16.164-.372.371-.592.566a4.463 4.463 0 01-.5.394l3.194 5.08zm-2.143.41l1.092-5.9-1.092 5.9zm-.144.836c.838-.346 1.933-1.02 2.306-1.259l-3.232-5.054c-.148.094-.422.262-.714.429a7.152 7.152 0 01-.648.337l2.288 5.547zm.25-.117l-2.79-5.312 2.79 5.312zm-3.187 2.92c.433-.71 1.047-1.362 1.688-1.9.648-.542 1.213-.878 1.435-.987L19.4 42.642c-1.243.616-3.903 2.384-5.584 5.143l5.123 3.122zm-.794 1.234c.249-.376.53-.8.794-1.234l-5.123-3.122c-.195.32-.412.648-.673 1.042l5.002 3.314zm-2 6.254c-.258-2.8.713-4.312 2-6.254l-5.002-3.314c-1.4 2.112-3.432 5.131-2.973 10.118l5.975-.55zm-.758 2.303c.06-.079.121-.16.184-.246l-4.827-3.564-.149.2 4.792 3.61zm-2.564 1.19l.022.001.293-5.993h-.022l-.293 5.992zm2.397-1.001c.044-.057.09-.116.136-.178l-4.774-3.635c-.037.05-.072.095-.105.137l4.743 3.676zm-.369.581c.172-.296.31-.502.404-.628l-4.813-3.582c-.257.346-.52.75-.78 1.198l5.189 3.012zm-2.703-4.504h-.004l.225 5.996h.004l-.225-5.996zm-.144 16.03c.101-5.66 1.81-9.766 2.838-11.504L9.68 58.434c-1.527 2.58-3.553 7.695-3.674 14.452l6 .108zm2.704 9.849c-.445-.371-2.82-3.375-2.704-9.85l-5.999-.107c-.14 7.792 2.675 12.74 4.857 14.562l3.845-4.605zm-1.284-.779l-.946.097.613 5.969.946-.097-.613-5.969zm3.403 4.016c-.024-.34-.06-.785-.11-1.313l-5.973.563c.046.491.078.884.097 1.162l5.986-.412zm-4.73-2.6l-.76 1.144 4.994 3.324.762-1.144-4.995-3.324zm2.615 1.008c0-.001.011-.343.286-.766a2.172 2.172 0 011.317-.93c.366-.082.55-.008.397-.044-.13-.03-.401-.117-.854-.327l-2.526 5.442c.671.312 1.343.569 1.998.724.633.15 1.444.252 2.3.06a3.83 3.83 0 002.398-1.654c.513-.79.647-1.616.677-2.2l-5.993-.305zm3.845-2.95l-1.155.118.613 5.969 1.154-.119-.612-5.968zm3.28 3.588l.023-.464-5.994-.28-.021.458 5.993.286zm-.058 1.888c-.015-.225.006-.778.059-1.888l-5.994-.286c-.042.9-.096 1.916-.05 2.585l5.985-.411zm-4.729-2.6l-.76 1.143 4.994 3.325.761-1.144-4.995-3.325zm2.926-.306c.001.364-.038.496-.032.48.01-.032.126-.383.548-.688.447-.322.86-.32.942-.314.038.003-.145-.01-.623-.232l-2.526 5.443c1.442.669 3.745 1.392 5.716-.03.952-.687 1.435-1.628 1.678-2.417.238-.775.299-1.569.297-2.258l-6 .016zm4.592-3.187l-1.898.194.612 5.97 1.898-.196-.612-5.968zm3.292 4.088c-.006-.144-.003-.456.013-1.018l-5.998-.172a21.781 21.781 0 00-.008 1.463l5.993-.273zm-5.31-2.05l-.43.974 5.488 2.425.43-.975-5.488-2.425zm1.651.095c-.008.039.02-.139.183-.396a2.304 2.304 0 011.2-.928 2.163 2.163 0 011.316-.046c.194.06.24.116.114.028l-3.439 4.917c.672.47 2.185 1.382 3.95.779 1.896-.648 2.402-2.428 2.547-3.117l-5.87-1.237zm6.338-2.746l-3.709.38.613 5.97 3.709-.381-.613-5.97zm2.274 4.362a3.379 3.379 0 01-.586.222c-.1.025-.05-.002.11.012.178.017.45.083.732.269.279.183.447.404.534.56.08.14.087.216.076.163a2.21 2.21 0 01-.03-.371c-.008-.42.04-1.004.16-1.769l-5.927-.928c-.145.926-.25 1.896-.233 2.808.016.857.14 1.997.722 3.033a4.294 4.294 0 003.417 2.21c1.275.117 2.509-.283 3.55-.767l-2.525-5.442zm4.522 2.203l-.762-1.144-4.995 3.324.762 1.144 4.995-3.324zm-5.549-.43c.053 1.109.074 1.662.058 1.886l5.986.412c.046-.67-.008-1.686-.05-2.585l-5.994.286zm0-.02v.001l5.994-.25-5.995.25zm.007.125l5.98-.498-5.98.498zm-.126-3.614c.015 1.327.073 2.546.119 3.508l5.993-.286c-.046-.969-.1-2.086-.113-3.29l-6 .068zm6.495-3.408l-3.802.39.613 5.968 3.801-.39-.612-5.968zm-2.608 1.7c-.026.376-.052.728-.077 1.05l5.982.467c.026-.34.054-.709.081-1.101l-5.986-.417zm14.804-3.339a2.626 2.626 0 01-.558-1.886 2.418 2.418 0 01.484-1.259c.212-.271.339-.282-.001-.089-.573.325-1.623.76-3.077 1.256-2.837.968-6.552 1.945-9.348 2.605l1.378 5.84c2.875-.679 6.803-1.708 9.907-2.766 1.516-.517 3.011-1.099 4.099-1.715.49-.278 1.225-.74 1.768-1.434.29-.37.68-1.004.763-1.868a3.375 3.375 0 00-.74-2.445l-4.675 3.761zm-1.157-17.96c-.986 3.118-1.2 6.847-1.006 9.969.1 1.582.308 3.098.616 4.394.279 1.171.73 2.582 1.547 3.597l4.675-3.761c.07.086-.142-.203-.384-1.223-.213-.896-.383-2.064-.465-3.381-.167-2.677.049-5.607.738-7.788L49.2 59.926zm-1.078-6.28c.647.745 2.015 3.314 1.078 6.28l5.72 1.807c1.743-5.514-.685-10.2-2.27-12.024l-4.528 3.937zm-2.74-5.323c.771 2.579 2.02 4.505 2.752 5.337l4.504-3.964a4.604 4.604 0 01-.2-.27 8.452 8.452 0 01-.41-.674 11.087 11.087 0 01-.898-2.149l-5.748 1.72zm-2.997-2.994c.399.226 1.13.723 1.804 1.367.715.683 1.085 1.266 1.193 1.627l5.748-1.72c-.542-1.815-1.772-3.266-2.794-4.243a15.92 15.92 0 00-2.997-2.253l-2.954 5.222zm-1.476-2.084l5.906-1.054-5.906 1.054zm-2.096.342c.968.462 2.982 1.433 3.652 1.786l2.794-5.31c-.797-.42-2.935-1.449-3.86-1.89l-2.586 5.414zm3.086-.302l-3.587-4.81 3.587 4.81zm-3.77.149c.194.055.695.198 1.145.328L40.939 38a489.9 489.9 0 00-1.16-.334l-1.649 5.77zm1.256.084h.002l-.866-5.938h-.002l.866 5.938zM37.34 38.02h-.001l3.228 5.058.002-.001-3.229-5.057zm-4.994-5.089c-.59 3.296.384 5.828 1.795 7.574 1.325 1.64 2.927 2.46 3.49 2.736l2.646-5.385c-.326-.16-.977-.513-1.469-1.122-.406-.503-.815-1.298-.556-2.746l-5.906-1.057zm8.239-1.7c.158-.156.208-.102-.096-.031-.282.065-.7.104-1.233.083-1.1-.044-2.191-.32-2.735-.563l-2.444 5.48c1.337.596 3.192 1.009 4.941 1.078.893.036 1.875-.013 2.825-.233.927-.215 2.04-.644 2.946-1.534l-4.204-4.28zm.73-3.895c.57 1.738.159 3.022-.73 3.895l4.204 4.28c2.676-2.628 3.436-6.36 2.228-10.045l-5.702 1.87zm.512-7.495c-.4.8-.982 1.902-1.138 3.261-.16 1.393.14 2.75.627 4.234l5.7-1.87c-.402-1.227-.377-1.588-.366-1.679.014-.125.049-.275.541-1.258l-5.364-2.688zm-2.297-2.31c.71.327 1.584.916 2.078 1.535.229.287.283.464.294.522 0 .007.025.056-.066.236l5.346 2.723c1.474-2.894.467-5.529-.884-7.222-1.268-1.59-3.027-2.677-4.255-3.243L39.53 17.53zm-.061-.029l.059.027 2.517-5.446a10.44 10.44 0 00-.13-.06l-2.446 5.48zm-.676-.292c.283.13.551.245.789.34l2.22-5.574a10.29 10.29 0 01-.493-.213l-2.516 5.447zm-4.548-4.007c.271.816.766 1.408 1.119 1.77.38.39.802.716 1.18.977a15.56 15.56 0 002.248 1.26l2.518-5.447a9.665 9.665 0 01-1.356-.75 2.296 2.296 0 01-.298-.233c-.008-.008.023.022.072.094.047.07.138.216.211.437l-5.694 1.892zm-2.462-2.683c.763.476 1.936 1.246 2.492 2.767l5.635-2.06c-1.301-3.56-4.059-5.241-4.952-5.798l-3.175 5.091zm.016.01l3.143-5.11V5.42l-3.143 5.11zm-.015-.01l3.172-5.092-3.172 5.093zm-.015-.01l3.202-5.073-3.202 5.074zm.051.033l3.1-5.138-3.1 5.138zm-.336-.213c.105.07.223.142.298.19l3.175-5.092a8.803 8.803 0 01-.152-.095l-3.32 4.997zm.31.174a2.282 2.282 0 01-.31-.174l3.321-4.997a3.732 3.732 0 00-.508-.282l-2.502 5.453z" fill="#fff" mask="url(#a)"/><path d="M36.008 55.471l1.698 26.158c5.495-1.255 16.186-4.136 14.99-5.622-1.496-1.859-2.31-9.877-.635-15.177 1.34-4.24-.558-7.867-1.674-9.15-.439-.5-1.479-2.04-2.13-4.216-.65-2.175-3.2-4.07-4.394-4.745l-4.514 3.816-3.341 8.936z" fill="#C6525C"/><path d="M36.008 55.471l1.698 26.158c5.495-1.255 16.186-4.136 14.99-5.622-1.496-1.859-2.31-9.877-.635-15.177 1.34-4.24-.558-7.867-1.674-9.15-.439-.5-1.479-2.04-2.13-4.216-.65-2.175-3.2-4.07-4.394-4.745l-4.514 3.816-3.341 8.936z" fill="#C6525C"/><path d="M16.377 49.346c1.299-2.131 3.444-3.565 4.355-4.015v10.223c-1.994 3.64-6.24 9.734-7.277 4.997-1.296-5.922 1.3-8.541 2.922-11.205z" fill="#D65A64"/><path d="M20.006 46.24c.201-.53.567-.827.726-.91l18.187 3.143c-2.512 5.885-1.524 10.905-.451 15.599.858 3.754.357 13.856 0 18.438l-25.683 2.635c-1.313-1.096-3.908-5.072-3.78-12.205.127-7.133 2.573-12.157 3.78-13.777.717-.925 2.18-2.975 2.284-3.776.25-1.936 1.734-4.523 2.445-5.575.747-.97 2.291-3.043 2.492-3.572z" fill="#EA646F"/><path d="M20.732 45.33c.564-.232 1.458-.771 1.834-1.012l10.36 1.89 7.18-5.327c.947.452 3.023 1.452 3.757 1.838-.151.355-2.85 3.792-3.995 5.192-1.145 1.4-7.46 4.482-9.598 5.37-2.137.89-6.24 1.939-8.147-.581-1.906-2.52-1.503-6.711-1.391-7.37z" fill="#D65A64"/><path d="M22.566 44.318c.695-.437 1.534-1.277 1.866-1.643l14.523-2.125 1.152.33c-.901 1.76-4.1 4.981-5.706 6.137-1.607 1.157-5.467 3.055-8.813 2.604-3.345-.45-3.022-3.987-3.022-5.303z" fill="#EA646F"/><path fill-rule="evenodd" clip-rule="evenodd" d="M23.495 8.621a4.27 4.27 0 00-1.196.24c-4.916 1.592-6.488 4.805-6.66 6.213-.126.836-.667 2.872-1.822 4.326-1.154 1.455-.71 4.36-.342 5.63.195.537.723 2.195 1.271 4.53.55 2.335 3.8 3.765 5.356 4.187.957-.133 2.132-.285 3.393-.433V8.621z" fill="#462937"/><path fill-rule="evenodd" clip-rule="evenodd" d="M23.495 33.314c4.585-.538 10.322-1.022 10.99-.357 1.064 1.061 6.42 2.166 8.202.415 1.782-1.75 2.368-4.259 1.48-6.97-.89-2.712-.551-3.433.342-5.216 1.566-3.075-1.889-5.56-3.812-6.42-1.065-.424-3.276-1.519-3.605-2.508-.928-2.54-2.893-3.766-3.721-4.283-.09-.055-.166-.103-.226-.143-.618-.41-4.805-.96-6.077.41-1.018 1.098-2.048.87-2.437.619-.154-.118-.54-.265-1.136-.24v24.693z" fill="#543343"/><path d="M24.197 42.982c.523-2.134-.43-4.502-.973-5.42 3.365-1.51 10.236-4.326 12.118-4.326-1.005 4.909 2.709 6.87 3.612 7.313-1.369.875-4.936 2.81-8.254 3.557-4.147.933-5.443-.235-6.503-1.124z" fill="#F0BBAC"/><path d="M19.133 16.96c.96-2.182 2.196-.929 2.671 0 .168.327.458.341 1.54 0 1.08-.341 1.877.37 2.14.77.518.773 1.863 2.352 3.107 2.48 1.244.127 1.444.352 2.217.87.838.56.934 1.308 1.755 1.893.765.546 1.575 1.575 1.937 2.425.29.679.698 5.512.866 7.843-.208.263-.937 1.023-2.197 1.958-2.922 2.194-6.112 3.134-7.341 3.33-1.05.241-3.586-.022-5.328-3.007-2.177-3.733-2.54-5.85-2.883-8.41-.274-2.048-.026-3.716.132-4.294.312-.859.937-2.745.937-3.422.024-1.57.08-1.559.447-2.436z" fill="#FFC9BA"/><path d="M27.235 21.924c-.97-.22-2.021.203-2.416.43-.168.097-.59.507-.47.926.249.873 1.359.59 2.523.16 1.165-.431 2.417.167 2.744.214.327.048 1.683.036 1.42-.793-.264-.83-1.313-.817-1.747-.734-.435.084-.842.072-2.054-.203z" fill="#543343"/><path d="M22.303 30.68c-1.452.148.965-7.54 1.288-7.272.162.134.275 1.662.315 3.186.04 1.51.007 3.016-.12 3.154-.255.276-.909.85-1.483.933z" fill="#F0BBAC"/><path d="M23.24 32.332c-1.557-.533-1.91.598-2.548.805.61 0 1.38 1.065 2.548.459.666.347 1.663.203 3.054-.459-.682-.255-1.81-1.38-3.054-.805z" fill="#9A1919"/><path fill-rule="evenodd" clip-rule="evenodd" d="M17.754 13.27c-.133-.666.077-1.431.417-2.149.998-.845 2.345-1.64 4.137-2.22 1.289-.44 2.092-.184 2.333 0 .26.168.81.326 1.452.08a6.913 6.913 0 00-.456 1.51c-.07.447-.324.75-.599 1.08-.402.482-.852 1.02-.852 2.15.142 1.77.701 3.146 1.401 4.183a6.067 6.067 0 01-.093-.136c-.263-.398-1.06-1.11-2.141-.77-1.082.342-1.372.328-1.54 0-.475-.928-1.71-2.181-2.671 0l-.088.21c-.288.678-.337.792-.359 2.227 0 .676-.624 2.563-.937 3.421-.091.336-.213 1.038-.246 1.968-.286.477-.609.76-.938.588-1.005-.526-1.176-2.476-.95-4.107.183-1.305 1.145-3.364 1.604-4.23.3-.643.826-2.302.526-3.805z" fill="#543343"/><path fill-rule="evenodd" clip-rule="evenodd" d="M30.215 20.683c3.025.42 8.224 2 8.224 5.549 0 4.693.482 5.176 1.798 4.869 1.053-.246 2.106-1.77 2.5-2.5.193-.533.578-1.841.578-2.808 0-1.208.196-2.815.818-3.863l.043-.08.06-.124c.164-.363.392-1.016.65-1.82.23-2.473-2.545-4.406-4.194-5.142-1.065-.424-3.276-1.52-3.605-2.508-.929-2.541-2.894-3.766-3.722-4.283-.09-.056-.165-.103-.226-.143-.618-.41-4.805-.961-6.077.41a2.922 2.922 0 01-.658.542l-.317.197a6.908 6.908 0 00-.455 1.51c-.071.448-.324.75-.6 1.08-.401.482-.851 1.021-.851 2.15.13 1.61.604 2.895 1.215 3.894.032.04.06.078.084.114.422.632 1.398 1.803 2.42 2.279l.516.175c.057.012.113.02.17.026.869.09 1.228.226 1.63.476z" fill="#462937"/><path d="M18.754 21.613c-1.187 0-1.547.172-1.547.519 0 .86.997 1.068 1.974.977.7-.066 1.483.091 1.778.275.236.146.868.375 1.22.375.255 0 .62-.211.53-.559-.089-.347-.753-.47-1.108-.542-1.16-.235-.925-1.045-2.847-1.045z" fill="#462937"/><path d="M12.435 75.736c-.864-4.729 1.633-12.817 2.99-16.27.314 3.743-.635 8.404-.83 12.966-.215 5.045 7.12 16.014 0 12.71l-.761 1.144c-.106-1.546-.535-5.821-1.4-10.55z" fill="#DF606A"/><path fill-rule="evenodd" clip-rule="evenodd" d="M12.257 59.962a9.78 9.78 0 01.591-.913c.039-.05.08-.102.121-.157 2.385.115 5.862.438 8.086 1.158 3.525 1.14 6.723.997 8.756.82 2.033-.176 7.366 1.121 9.325 2.787l.017.015.098.429c.032.14.062.288.09.445-.423-.023-1.105-.218-1.627-.4-.949-.36-3.433-1.06-5.784-.981-.503.017-1.004.042-1.506.068-2.434.123-4.889.248-7.61-.606-.692-.217-1.44-.481-2.226-.76-2.634-.93-5.678-2.007-8.331-1.905z" fill="#C14D57"/><path d="M25.56 25.303c.676-.643 2.377-1.671 3.782-.636-.572.702-1.83 1.464-3.781.636z" fill="#FFF3F1"/><mask id="b" maskUnits="userSpaceOnUse" x="26" y="24" width="3" height="2"><path d="M28.342 25.147c-.065.458-.577.742-1.035.677-.458-.066-.652-.452-.587-.91.066-.458.367-.814.825-.748.457.065.863.523.797.98z" fill="#2C1E25"/></mask><g mask="url(#b)"><path d="M25.544 25.307c.675-.645 2.377-1.676 3.782-.64-.573.704-1.83 1.468-3.782.64z" fill="#2C1E25"/></g><path d="M18.286 25.17c.416-.474 1.658-1.192 3.294-.27-.478.765-2.113 1.515-3.294.27z" fill="#FFF3F1"/><mask id="c" maskUnits="userSpaceOnUse" x="19" y="24" width="2" height="2"><path d="M20.555 25.142c0 .463-.227.837-.69.837-.462 0-.71-.354-.71-.816 0-.463.248-.858.71-.858.463 0 .69.375.69.837z" fill="#2C1E25"/></mask><g mask="url(#c)"><path d="M18.286 25.17c.416-.474 1.658-1.192 3.294-.27-.478.765-2.113 1.515-3.294.27z" fill="#2C1E25"/></g><ellipse cx="23.665" cy="55.048" rx="2.931" ry="3.11" fill="#C14D57"/><path d="M25.695 55.048c0 1.361-1.009 2.201-2.293 2.201-1.284 0-1.81-.84-1.81-2.2 0-1.362.79-1.839 2.073-1.839 1.284 0 2.03.477 2.03 1.838z" fill="#D65A64"/></g><defs><clipPath id="clip0"><path fill="#fff" d="M0 0h60v60H0z"/></clipPath></defs></svg>