<svg width="60" height="60" viewBox="0 0 60 60" fill="none" xmlns="http://www.w3.org/2000/svg">
<g clip-path="url(#clip0)">
<mask id="path-1-outside-1" maskUnits="userSpaceOnUse" x="6" y="4.36572" width="50" height="94" fill="black">
<rect fill="white" x="6" y="4.36572" width="50" height="94"/>
<path fill-rule="evenodd" clip-rule="evenodd" d="M33.0457 7.77862C32.1825 7.37712 28.2823 6.92512 27.0625 8.24049C26.8413 8.47903 26.6195 8.65494 26.4038 8.78159L26.3221 8.83268C25.5808 9.22633 24.9238 9.05022 24.6315 8.86099C24.4772 8.74338 24.0916 8.5956 23.495 8.62075V8.6209C23.1611 8.63496 22.7612 8.70318 22.2987 8.86114C17.3829 10.4529 15.8111 13.6661 15.6396 15.0736C15.5134 15.9097 14.9721 17.9454 13.8173 19.4C12.6626 20.8547 13.1076 23.7597 13.4744 25.0304C13.6698 25.5673 14.1978 27.2251 14.7464 29.5601C15.2254 31.5983 17.7625 32.9463 19.4349 33.5372C19.7317 34.1489 20.0826 34.8055 20.5003 35.5215C21.4226 37.1026 22.5675 37.9201 23.5965 38.3034C24.0901 39.4327 24.5963 41.2346 24.2146 42.9061C23.8108 43.3225 23.1399 43.9574 22.5662 44.318L22.566 44.3179C22.1898 44.5585 21.2963 45.0979 20.7317 45.3307L20.7314 45.3309C19.8207 45.7817 17.6756 47.2155 16.3774 49.3461C16.1478 49.723 15.8986 50.0991 15.6438 50.4837C14.3008 52.5109 12.7995 54.777 13.1577 58.6697C13.1004 58.7473 13.0447 58.8219 12.9914 58.8927L12.9694 58.8916C12.9273 58.947 12.8869 58.9995 12.8486 59.049C12.6733 59.2846 12.4725 59.5902 12.2566 59.962L12.2608 59.9619C10.9828 62.121 9.1156 66.7316 9.00454 72.94C8.87694 80.0728 11.4715 84.0491 12.7847 85.1457L13.7306 85.0486C13.7786 85.5582 13.8127 85.9767 13.834 86.2861L14.5953 85.1422C16.8421 86.185 17.6493 85.8061 17.7085 84.6404L18.8629 84.5219C18.8555 84.6803 18.8482 84.8343 18.8411 84.9834C18.7932 85.9876 18.7558 86.7724 18.7865 87.2193L19.5478 86.0754C22.1673 87.2911 22.982 86.2071 22.9761 84.0998L24.8741 83.905C24.8587 84.4438 24.8511 84.87 24.8636 85.1456L25.2944 84.1704C26.3984 84.9424 26.9358 84.6267 27.1368 83.6728L30.8454 83.2922C30.3164 86.6723 30.6756 88.9693 34.0758 87.3912L34.8372 88.5351C34.8679 88.0882 34.8305 87.3033 34.7826 86.2991L34.7826 86.299L34.7826 86.2989C34.7365 85.3336 34.6808 84.1656 34.6667 82.9001L38.468 82.51C38.4939 82.1786 38.5205 81.8183 38.5473 81.4336C44.2177 80.0958 53.8331 77.4204 52.6953 76.0065C51.2 74.1483 50.3866 66.1295 52.0613 60.8302C53.4011 56.5907 51.5031 52.9629 50.3866 51.6789C49.948 51.1805 48.908 49.6397 48.2573 47.4641C47.6065 45.2886 45.0567 43.3943 43.8631 42.7191L43.8631 42.7189C43.1294 42.333 41.0532 41.3326 40.1069 40.8807L40.1066 40.8809C39.6537 40.7501 39.1498 40.6058 38.9545 40.55L38.9531 40.5502L38.9544 40.5494C38.0644 40.1123 34.4503 38.2048 35.2987 33.4605C37.1797 34.2995 41.1911 34.8409 42.6868 33.372C44.4692 31.6215 45.0553 29.1134 44.1661 26.4019C43.2769 23.6904 43.6159 22.9687 44.509 21.1863C46.0514 18.1582 42.7249 15.7013 40.7864 14.807C40.7544 14.7922 40.7229 14.7779 40.6917 14.764C40.5074 14.6906 40.2886 14.597 40.0511 14.4873C38.918 13.9635 37.3636 13.0747 37.0923 12.2583C36.1638 9.71729 34.1988 8.49199 33.3704 7.97542L33.3703 7.97534L33.3699 7.9751L33.3699 7.97509L33.3698 7.97504C33.2807 7.91948 33.2048 7.87212 33.1447 7.83222C33.1182 7.81456 33.085 7.79663 33.0457 7.77862Z"/>
</mask>
<path d="M27.0625 8.24049L24.8628 6.20061L24.8628 6.20061L27.0625 8.24049ZM33.0457 7.77862L31.7806 10.4988L31.7876 10.5021L31.7947 10.5053L33.0457 7.77862ZM26.4038 8.78159L24.8848 6.19459L24.849 6.2156L24.8138 6.2376L26.4038 8.78159ZM26.3221 8.83268L27.7291 11.4823L27.8224 11.4327L27.9121 11.3767L26.3221 8.83268ZM24.6315 8.86099L22.8126 11.2467L22.9044 11.3167L23.0014 11.3795L24.6315 8.86099ZM23.495 8.62075L23.3686 5.62341L20.495 5.74454V8.62075H23.495ZM23.495 8.6209L23.6212 11.6182L26.495 11.4972V8.6209H23.495ZM22.2987 8.86114L23.2229 11.7152L23.2457 11.7078L23.2684 11.7001L22.2987 8.86114ZM15.6396 15.0736L18.606 15.5216L18.6124 15.4791L18.6176 15.4364L15.6396 15.0736ZM13.4744 25.0304L10.5921 25.8625L10.6204 25.9604L10.6552 26.0561L13.4744 25.0304ZM14.7464 29.5601L17.6669 28.8739L17.6669 28.8739L14.7464 29.5601ZM19.4349 33.5372L22.134 32.2276L21.5961 31.119L20.4343 30.7085L19.4349 33.5372ZM20.5003 35.5215L23.0917 34.0099L23.0917 34.0099L20.5003 35.5215ZM23.5965 38.3034L26.3454 37.1019L25.8359 35.9363L24.6438 35.4922L23.5965 38.3034ZM24.2146 42.9061L26.3682 44.9947L26.9525 44.3922L27.1393 43.574L24.2146 42.9061ZM22.5662 44.318L22.0203 47.2679L23.1715 47.4809L24.1627 46.8579L22.5662 44.318ZM22.566 44.3179L23.1118 41.368L21.9473 41.1525L20.9496 41.7906L22.566 44.3179ZM20.7317 45.3307L19.5879 42.5574L19.4597 42.6102L19.3369 42.6747L20.7317 45.3307ZM20.7314 45.3309L22.0622 48.0196L22.0944 48.0036L22.1262 47.987L20.7314 45.3309ZM16.3774 49.3461L18.9393 50.9071L18.9393 50.9071L16.3774 49.3461ZM15.6438 50.4837L13.1429 48.8268L13.1429 48.8268L15.6438 50.4837ZM13.1577 58.6697L15.571 60.4518L16.2498 59.5326L16.1451 58.3947L13.1577 58.6697ZM12.9914 58.8927L12.8452 61.8891L14.4318 61.9665L15.3875 60.6978L12.9914 58.8927ZM12.9694 58.8916L13.1156 55.8952L11.5388 55.8183L10.5825 57.0743L12.9694 58.8916ZM12.8486 59.049L10.4773 57.2113L10.4593 57.2346L10.4417 57.2582L12.8486 59.049ZM12.2566 59.962L9.66223 58.4557L6.92826 63.1643L12.3693 62.9599L12.2566 59.962ZM12.2608 59.9619L14.8425 61.4899L17.6434 56.7575L12.1481 56.964L12.2608 59.9619ZM9.00454 72.94L12.0041 72.9937L9.00454 72.94ZM12.7847 85.1457L10.8618 87.4484L11.8327 88.2591L13.0909 88.13L12.7847 85.1457ZM13.7306 85.0486L16.7174 84.7674L16.4338 81.7554L13.4243 82.0643L13.7306 85.0486ZM13.834 86.2861L10.841 86.4918L11.4457 95.2889L16.3314 87.9483L13.834 86.2861ZM14.5953 85.1422L15.8583 82.421L13.5239 81.3375L12.0979 83.48L14.5953 85.1422ZM17.7085 84.6404L17.4022 81.6561L14.8429 81.9187L14.7123 84.4882L17.7085 84.6404ZM18.8629 84.5219L21.8597 84.6616L22.0219 81.182L18.5567 81.5376L18.8629 84.5219ZM18.8411 84.9834L21.8377 85.1263L21.8377 85.1263L18.8411 84.9834ZM18.7865 87.2193L15.7935 87.425L16.3982 96.2222L21.2839 88.8815L18.7865 87.2193ZM19.5478 86.0754L20.8108 83.3542L18.4764 82.2708L17.0504 84.4132L19.5478 86.0754ZM22.9761 84.0998L22.6699 81.1155L19.9686 81.3927L19.9761 84.1081L22.9761 84.0998ZM24.8741 83.905L27.8729 83.9909L27.9708 80.5715L24.5678 80.9207L24.8741 83.905ZM24.8636 85.1456L21.8668 85.2823L27.6078 86.3578L24.8636 85.1456ZM25.2944 84.1704L27.0137 81.7119L24.0242 79.6214L22.5502 82.9582L25.2944 84.1704ZM27.1368 83.6728L26.8305 80.6885L24.6527 80.912L24.2012 83.0542L27.1368 83.6728ZM30.8454 83.2922L33.8093 83.7561L34.4112 79.9105L30.5391 80.3079L30.8454 83.2922ZM34.0758 87.3912L36.5732 85.729L35.1473 83.5865L32.8129 84.67L34.0758 87.3912ZM34.8372 88.5351L32.3398 90.1973L37.2255 97.5379L37.8301 88.7408L34.8372 88.5351ZM34.7826 86.2991L31.7852 86.424L31.7856 86.4331L31.786 86.4421L34.7826 86.2991ZM34.7826 86.299L37.78 86.1741L37.7774 86.1119L37.7722 86.0499L34.7826 86.299ZM34.7826 86.2989L31.786 86.4419L31.7885 86.495L31.7929 86.5481L34.7826 86.2989ZM34.6667 82.9001L34.3604 79.9157L31.6363 80.1953L31.6669 82.9336L34.6667 82.9001ZM38.468 82.51L38.7743 85.4943L41.2642 85.2388L41.4589 82.7434L38.468 82.51ZM38.5473 81.4336L37.8584 78.5137L35.708 79.021L35.5545 81.2251L38.5473 81.4336ZM52.6953 76.0065L50.3581 77.8873L50.3581 77.8873L52.6953 76.0065ZM52.0613 60.8302L49.2008 59.9261L49.2008 59.9262L52.0613 60.8302ZM50.3866 51.6789L52.6504 49.7104L52.6446 49.7037L52.6387 49.697L50.3866 51.6789ZM48.2573 47.4641L45.3831 48.3239L45.3831 48.3239L48.2573 47.4641ZM43.8631 42.7191L40.9098 43.2464L41.1578 44.6355L42.386 45.3302L43.8631 42.7191ZM43.8631 42.7189L46.8164 42.1916L46.5584 40.7471L45.2598 40.0639L43.8631 42.7189ZM40.1069 40.8807L41.3996 38.1735L39.7653 37.3931L38.3134 38.4758L40.1069 40.8807ZM40.1066 40.8809L39.2745 43.7632L40.7058 44.1764L41.9001 43.2858L40.1066 40.8809ZM38.9545 40.55L39.7786 37.6654L39.1591 37.4884L38.5215 37.5814L38.9545 40.55ZM38.9531 40.5502L37.3388 38.0216L39.3861 43.5188L38.9531 40.5502ZM38.9544 40.5494L40.5687 43.078L45.0641 40.208L40.277 37.8567L38.9544 40.5494ZM35.2987 33.4605L36.5207 30.7207L33.0202 29.1595L32.3456 32.9324L35.2987 33.4605ZM42.6868 33.372L44.7889 35.5124L44.7889 35.5124L42.6868 33.372ZM44.1661 26.4019L47.0168 25.4671L47.0168 25.4671L44.1661 26.4019ZM44.509 21.1863L41.8358 19.8247L41.8314 19.8335L41.827 19.8422L44.509 21.1863ZM40.7864 14.807L39.5277 17.5302L39.5296 17.5311L40.7864 14.807ZM40.6917 14.764L41.9147 12.0246L41.8587 11.9996L41.8017 11.9769L40.6917 14.764ZM40.0511 14.4873L38.7923 17.2104L38.7933 17.2109L40.0511 14.4873ZM37.0923 12.2583L39.9393 11.3124L39.9253 11.2703L39.9101 11.2286L37.0923 12.2583ZM33.3704 7.97542L34.9578 5.42981L34.95 5.42492L34.9421 5.42007L33.3704 7.97542ZM33.3703 7.97534L31.7843 10.5218L31.7915 10.5263L31.7986 10.5307L33.3703 7.97534ZM33.3699 7.9751L31.7685 10.5119L31.7762 10.5168L31.7839 10.5216L33.3699 7.9751ZM33.3699 7.97509L34.9713 5.43824L34.9457 5.42208L34.9197 5.40643L33.3699 7.97509ZM33.3698 7.97504L31.7823 10.5206L31.8011 10.5323L31.82 10.5437L33.3698 7.97504ZM33.1447 7.83222L31.4843 10.3308L31.4844 10.3309L33.1447 7.83222ZM29.2623 10.2804C28.9978 10.5656 28.8191 10.5414 29.1116 10.469C29.3523 10.4094 29.7232 10.3662 30.1908 10.3657C30.6452 10.3653 31.0973 10.4051 31.4596 10.4612C31.6396 10.489 31.7742 10.5173 31.8588 10.5386C31.971 10.5668 31.9195 10.5634 31.7806 10.4988L34.3109 5.05844C33.6932 4.77115 32.9383 4.61854 32.3768 4.53169C31.7269 4.43117 30.9659 4.36495 30.1848 4.36573C29.4171 4.3665 28.5303 4.4318 27.6697 4.64485C26.8608 4.8451 25.7372 5.2577 24.8628 6.20061L29.2623 10.2804ZM27.9228 11.3686C28.4127 11.081 28.86 10.7142 29.2623 10.2804L24.8628 6.20061C24.8422 6.22278 24.833 6.22982 24.8368 6.22669C24.8408 6.22344 24.8565 6.21121 24.8848 6.19459L27.9228 11.3686ZM27.9121 11.3767L27.9938 11.3256L24.8138 6.2376L24.7321 6.28868L27.9121 11.3767ZM23.0014 11.3795C24.1293 12.1095 25.9471 12.4285 27.7291 11.4823L24.9151 6.18307C25.0526 6.11006 25.2581 6.0563 25.4969 6.07134C25.6927 6.08366 25.9561 6.14476 26.2616 6.34251L23.0014 11.3795ZM23.6213 11.6181C23.6474 11.617 23.5995 11.6228 23.4881 11.5944C23.4329 11.5803 23.3514 11.5551 23.2493 11.5095C23.1562 11.4679 22.998 11.3881 22.8126 11.2467L26.4504 6.4753C25.5671 5.80187 24.4136 5.57936 23.3686 5.62341L23.6213 11.6181ZM26.495 8.6209V8.62075H20.495V8.6209H26.495ZM23.2684 11.7001C23.4793 11.6281 23.5955 11.6193 23.6212 11.6182L23.3687 5.62356C22.7267 5.6506 22.043 5.77829 21.329 6.0222L23.2684 11.7001ZM18.6176 15.4364C18.6146 15.4611 18.6349 15.3074 18.7723 15.0174C18.902 14.7437 19.116 14.3919 19.4497 14.0098C20.1038 13.2607 21.2557 12.3522 23.2229 11.7152L21.3745 6.00705C15.4787 7.91622 12.9903 12.013 12.6616 14.7109L18.6176 15.4364ZM16.167 21.2653C17.774 19.241 18.4388 16.6289 18.606 15.5216L12.6733 14.6256C12.6426 14.8289 12.5297 15.3472 12.302 15.9601C12.0725 16.5777 11.7831 17.1375 11.4677 17.5348L16.167 21.2653ZM16.3567 24.1982C16.2352 23.7773 16.0841 23.003 16.0751 22.2483C16.0707 21.8792 16.1015 21.5909 16.1478 21.391C16.1955 21.1849 16.2341 21.1808 16.167 21.2653L11.4677 17.5348C10.2311 19.0925 10.0604 21.0586 10.0755 22.3201C10.092 23.6992 10.3468 25.0128 10.5921 25.8625L16.3567 24.1982ZM17.6669 28.8739C17.0978 26.4518 16.5382 24.6767 16.2936 24.0046L10.6552 26.0561C10.8014 26.4579 11.2978 27.9984 11.826 30.2464L17.6669 28.8739ZM20.4343 30.7085C19.7872 30.4799 19.0216 30.1176 18.4229 29.6764C17.7802 29.2027 17.6724 28.8973 17.6669 28.8739L11.826 30.2464C12.2994 32.2612 13.6996 33.6488 14.8633 34.5064C16.0711 35.3965 17.4102 36.0036 18.4355 36.3658L20.4343 30.7085ZM23.0917 34.0099C22.7076 33.3515 22.3935 32.7624 22.134 32.2276L16.7359 34.8468C17.07 35.5354 17.4577 36.2595 17.909 37.0332L23.0917 34.0099ZM24.6438 35.4922C24.2803 35.3568 23.6736 35.0075 23.0917 34.0099L17.909 37.0332C19.1717 39.1977 20.8547 40.4835 22.5493 41.1147L24.6438 35.4922ZM27.1393 43.574C27.7298 40.9884 26.9449 38.4735 26.3454 37.1019L20.8476 39.505C21.0171 39.8926 21.1869 40.3955 21.279 40.9202C21.3723 41.4516 21.3674 41.8988 21.2899 42.2382L27.1393 43.574ZM24.1627 46.8579C25.0579 46.2952 25.9362 45.4402 26.3682 44.9947L22.061 40.8175C21.9017 40.9819 21.6895 41.1891 21.4691 41.3836C21.2345 41.5906 21.0608 41.7208 20.9697 41.7781L24.1627 46.8579ZM22.0201 47.2678L22.0203 47.2679L23.1121 41.3681L23.1118 41.368L22.0201 47.2678ZM21.8756 48.1041C22.7141 47.7583 23.8086 47.0842 24.1824 46.8452L20.9496 41.7906C20.8015 41.8853 20.5284 42.0533 20.2358 42.2198C19.9174 42.401 19.6877 42.5162 19.5879 42.5574L21.8756 48.1041ZM22.1262 47.987L22.1265 47.9868L19.3369 42.6747L19.3366 42.6749L22.1262 47.987ZM18.9393 50.9071C19.3719 50.1971 19.9857 49.5453 20.6271 49.0075C21.2746 48.4647 21.8403 48.1294 22.0622 48.0196L19.4005 42.6423C18.1571 43.2577 15.4969 45.0256 13.8155 47.7852L18.9393 50.9071ZM18.1447 52.1406C18.3936 51.7649 18.675 51.341 18.9393 50.9071L13.8155 47.7852C13.6206 48.1051 13.4036 48.4332 13.1429 48.8268L18.1447 52.1406ZM16.1451 58.3947C15.8875 55.5957 16.8579 54.083 18.1447 52.1406L13.1429 48.8268C11.7437 50.9388 9.71143 53.9583 10.1704 58.9446L16.1451 58.3947ZM15.3875 60.6978C15.4466 60.6194 15.508 60.5372 15.571 60.4518L10.7444 56.8876C10.6927 56.9575 10.6428 57.0244 10.5953 57.0875L15.3875 60.6978ZM12.8233 61.888L12.8452 61.8891L13.1376 55.8962L13.1156 55.8952L12.8233 61.888ZM15.2198 60.8867C15.2637 60.8302 15.3093 60.7708 15.3564 60.7089L10.5825 57.0743C10.5453 57.1232 10.5101 57.1689 10.4773 57.2113L15.2198 60.8867ZM14.851 61.4684C15.0228 61.1725 15.1619 60.9656 15.2555 60.8398L10.4417 57.2582C10.1846 57.6037 9.92216 58.008 9.66223 58.4557L14.851 61.4684ZM12.1481 56.964L12.144 56.9641L12.3693 62.9599L12.3734 62.9598L12.1481 56.964ZM12.0041 72.9937C12.1053 67.3344 13.8135 63.2284 14.8425 61.4899L9.67909 58.4338C8.15217 61.0137 6.1259 66.1288 6.00502 72.8864L12.0041 72.9937ZM14.7075 82.8429C14.2626 82.4715 11.8882 79.468 12.0041 72.9937L6.00502 72.8864C5.86564 80.6776 8.68027 85.6268 10.8618 87.4484L14.7075 82.8429ZM13.4243 82.0643L12.4784 82.1614L13.0909 88.13L14.0369 88.0329L13.4243 82.0643ZM16.8269 86.0804C16.8035 85.7397 16.7671 85.2952 16.7174 84.7674L10.7438 85.3298C10.7901 85.8211 10.8219 86.2137 10.841 86.4918L16.8269 86.0804ZM12.0979 83.48L11.3366 84.6239L16.3314 87.9483L17.0927 86.8044L12.0979 83.48ZM14.7123 84.4882C14.7124 84.4865 14.7231 84.1446 14.998 83.7217C15.3334 83.206 15.8466 82.8976 16.3147 82.7924C16.6807 82.7102 16.8651 82.7845 16.7122 82.7483C16.5828 82.7177 16.3108 82.631 15.8583 82.421L13.3324 87.8634C14.0033 88.1748 14.6747 88.4318 15.3304 88.587C15.9626 88.7366 16.7738 88.8388 17.6298 88.6465C18.588 88.4313 19.4545 87.8747 20.028 86.9927C20.5412 86.2035 20.6749 85.3771 20.7046 84.7926L14.7123 84.4882ZM18.5567 81.5376L17.4022 81.6561L18.0148 87.6247L19.1692 87.5062L18.5567 81.5376ZM21.8377 85.1263C21.8448 84.9774 21.8522 84.8219 21.8597 84.6616L15.8662 84.3822C15.8589 84.5387 15.8516 84.6911 15.8445 84.8404L21.8377 85.1263ZM21.7794 87.0136C21.764 86.7888 21.7848 86.2357 21.8377 85.1263L15.8445 84.8404C15.8016 85.7394 15.7476 86.756 15.7935 87.425L21.7794 87.0136ZM17.0504 84.4132L16.2891 85.5571L21.2839 88.8815L22.0452 87.7376L17.0504 84.4132ZM19.9761 84.1081C19.9771 84.4718 19.9384 84.6041 19.9437 84.5871C19.9533 84.5558 20.0698 84.2047 20.4918 83.9004C20.9395 83.5776 21.3512 83.5792 21.4342 83.586C21.4722 83.5891 21.2895 83.5764 20.8108 83.3542L18.2849 88.7966C19.7271 89.466 22.0298 90.1886 24.0011 88.7671C24.9534 88.0804 25.4363 87.1391 25.6789 86.3499C25.9171 85.575 25.978 84.7814 25.9761 84.0915L19.9761 84.1081ZM24.5678 80.9207L22.6699 81.1155L23.2824 87.0841L25.1804 86.8893L24.5678 80.9207ZM27.8605 85.0089C27.8539 84.8646 27.8568 84.5528 27.8729 83.9909L21.8753 83.8192C21.8606 84.3347 21.8482 84.8755 21.8668 85.2823L27.8605 85.0089ZM22.5502 82.9582L22.1194 83.9334L27.6078 86.3578L28.0386 85.3826L22.5502 82.9582ZM24.2012 83.0542C24.1932 83.0926 24.2214 82.915 24.3837 82.6583C24.5692 82.3649 24.9503 81.9466 25.5839 81.73C26.1935 81.5217 26.6888 81.6197 26.8997 81.6845C27.0937 81.744 27.1398 81.8002 27.0137 81.7119L23.5752 86.6289C24.2466 87.0984 25.7596 88.0108 27.5245 87.4076C29.4207 86.7595 29.9272 84.9802 30.0723 84.2914L24.2012 83.0542ZM30.5391 80.3079L26.8305 80.6885L27.443 86.6571L31.1517 86.2766L30.5391 80.3079ZM32.8129 84.67C32.5155 84.808 32.3255 84.8685 32.2273 84.8924C32.1265 84.9171 32.1775 84.8898 32.3365 84.9044C32.515 84.9208 32.7869 84.9873 33.0687 85.1727C33.3479 85.3564 33.5159 85.5771 33.6033 85.7327C33.6824 85.8737 33.6897 85.9492 33.679 85.896C33.6689 85.8462 33.6521 85.7287 33.6483 85.5247C33.6405 85.1056 33.6897 84.5207 33.8093 83.7561L27.8815 82.8283C27.7366 83.7538 27.6323 84.7236 27.6493 85.6365C27.6653 86.4927 27.7894 87.6329 28.371 88.6693C29.0643 89.9045 30.2727 90.7401 31.7879 90.8793C33.0635 90.9964 34.2966 90.5961 35.3388 90.1124L32.8129 84.67ZM37.3346 86.8729L36.5732 85.729L31.5784 89.0534L32.3398 90.1973L37.3346 86.8729ZM31.786 86.4421C31.8389 87.5515 31.8597 88.1045 31.8442 88.3294L37.8301 88.7408C37.8761 88.0718 37.822 87.0552 37.7792 86.1562L31.786 86.4421ZM31.7852 86.4239L31.7852 86.424L37.78 86.1743L37.78 86.1741L31.7852 86.4239ZM31.7929 86.5481L31.7929 86.5481L37.7722 86.0499L37.7722 86.0498L31.7929 86.5481ZM31.6669 82.9336C31.6817 84.2609 31.7401 85.4799 31.786 86.4419L37.7792 86.156C37.733 85.1874 37.6799 84.0703 37.6665 82.8666L31.6669 82.9336ZM38.1617 79.5256L34.3604 79.9157L34.9729 85.8844L38.7743 85.4943L38.1617 79.5256ZM35.5545 81.2251C35.5283 81.6021 35.5023 81.954 35.4771 82.2766L41.4589 82.7434C41.4855 82.4031 41.5127 82.0344 41.54 81.642L35.5545 81.2251ZM50.3581 77.8873C49.9953 77.4364 49.7267 76.7677 49.7998 76.0009C49.8636 75.3321 50.1587 74.9022 50.2837 74.7424C50.4962 74.4708 50.6225 74.4603 50.2826 74.653C49.7099 74.9777 48.6604 75.4133 47.2062 75.9091C44.3687 76.8766 40.6541 77.8542 37.8584 78.5137L39.2361 84.3534C42.1108 83.6752 46.0391 82.6462 49.1425 81.5881C50.6588 81.0711 52.1542 80.4891 53.2416 79.8726C53.7317 79.5948 54.4669 79.1329 55.0096 78.4391C55.2997 78.0683 55.6903 77.4346 55.7727 76.5707C55.8645 75.6086 55.5376 74.7533 55.0326 74.1257L50.3581 77.8873ZM49.2008 59.9262C48.2151 63.045 48.0006 66.7737 48.1954 69.8956C48.2941 71.4775 48.5033 72.9939 48.8112 74.29C49.0895 75.4615 49.5408 76.8716 50.3581 77.8873L55.0326 74.1257C55.1022 74.2123 54.8911 73.9232 54.6487 72.903C54.4359 72.0073 54.266 70.8394 54.1837 69.5219C54.0167 66.8451 54.2328 63.9147 54.9219 61.7342L49.2008 59.9262ZM48.1228 53.6474C48.77 54.3917 50.1378 56.9611 49.2008 59.9261L54.9219 61.7342C56.6644 56.2203 54.2362 51.5341 52.6504 49.7104L48.1228 53.6474ZM45.3831 48.3239C46.1545 50.9029 47.4024 52.8289 48.1345 53.6608L52.6387 49.697C52.6398 49.6982 52.6205 49.6761 52.5821 49.6257C52.5452 49.5773 52.4969 49.511 52.4396 49.4268C52.3245 49.2578 52.1825 49.0314 52.0294 48.7534C51.722 48.1951 51.388 47.4622 51.1315 46.6044L45.3831 48.3239ZM42.386 45.3302C42.7846 45.5557 43.5166 46.053 44.1905 46.6973C44.9046 47.3801 45.2752 47.9633 45.3831 48.3239L51.1315 46.6044C50.5886 44.7895 49.3589 43.3377 48.337 42.3606C47.2749 41.3451 46.1351 40.5576 45.3402 40.1079L42.386 45.3302ZM40.9098 43.2463L40.9098 43.2464L46.8164 42.1917L46.8164 42.1916L40.9098 43.2463ZM38.8141 43.5879C39.782 44.0501 41.7962 45.0214 42.4663 45.3739L45.2598 40.0639C44.4625 39.6445 42.3245 38.6152 41.3996 38.1735L38.8141 43.5879ZM41.9001 43.2858L41.9003 43.2856L38.3134 38.4758L38.3132 38.476L41.9001 43.2858ZM38.1303 43.4346C38.324 43.4899 38.8251 43.6334 39.2745 43.7632L40.9388 37.9986C40.4824 37.8668 39.9756 37.7217 39.7786 37.6654L38.1303 43.4346ZM39.3861 43.5188L39.3875 43.5186L38.5215 37.5814L38.5201 37.5816L39.3861 43.5188ZM37.34 38.0208L37.3388 38.0216L40.5674 43.0788L40.5687 43.078L37.34 38.0208ZM32.3456 32.9324C31.7562 36.2282 32.7303 38.7596 34.1413 40.5057C35.4664 42.1455 37.0679 42.9651 37.6318 43.2421L40.277 37.8567C39.9509 37.6965 39.3004 37.3439 38.808 36.7346C38.4016 36.2317 37.9928 35.4371 38.2519 33.9886L32.3456 32.9324ZM40.5847 31.2316C40.7429 31.0763 40.7931 31.1304 40.4887 31.2009C40.207 31.2662 39.7884 31.3052 39.2563 31.2841C38.1553 31.2403 37.0649 30.9634 36.5207 30.7207L34.0767 36.2004C35.4135 36.7966 37.2693 37.2099 39.0181 37.2793C39.911 37.3148 40.8933 37.2662 41.8432 37.0461C42.7703 36.8312 43.8828 36.4022 44.7889 35.5124L40.5847 31.2316ZM41.3155 27.3367C41.8854 29.0746 41.4735 30.3588 40.5847 31.2316L44.7889 35.5124C47.4649 32.8842 48.2253 29.1522 47.0168 25.4671L41.3155 27.3367ZM41.827 19.8422C41.4261 20.6423 40.8449 21.7436 40.6888 23.1034C40.5288 24.4965 40.8288 25.8526 41.3155 27.3367L47.0168 25.4671C46.6142 24.2397 46.6391 23.8792 46.6496 23.788C46.6639 23.6634 46.6989 23.5127 47.1911 22.5303L41.827 19.8422ZM39.5296 17.5311C40.2402 17.8589 41.1138 18.4481 41.6078 19.0673C41.8365 19.354 41.8909 19.5311 41.9017 19.589C41.9029 19.5956 41.9271 19.6455 41.8358 19.8247L47.1823 22.5478C48.6562 19.654 47.6492 17.0191 46.2982 15.3256C45.0299 13.7358 43.271 12.6494 42.0431 12.0829L39.5296 17.5311ZM39.4687 17.5034C39.4878 17.5119 39.5075 17.5208 39.5277 17.5302L42.045 12.0838C42.0014 12.0636 41.9579 12.0439 41.9147 12.0246L39.4687 17.5034ZM38.7933 17.2109C39.076 17.3415 39.3441 17.4565 39.5818 17.5511L41.8017 11.9769C41.6706 11.9247 41.5012 11.8525 41.309 11.7638L38.7933 17.2109ZM34.2454 13.2042C34.5164 14.0198 35.0105 14.6121 35.3639 14.9739C35.7448 15.3637 36.1658 15.69 36.5434 15.9508C37.299 16.4728 38.1374 16.9077 38.7923 17.2104L41.31 11.7643C40.8317 11.5431 40.3264 11.2717 39.9537 11.0142C39.7671 10.8853 39.6779 10.8036 39.6556 10.7808C39.6475 10.7725 39.6791 10.8031 39.728 10.8747C39.7755 10.9443 39.8657 11.091 39.9393 11.3124L34.2454 13.2042ZM31.783 10.521C32.5464 10.997 33.7187 11.7668 34.2746 13.288L39.9101 11.2286C38.6088 7.66774 35.8513 5.98693 34.9578 5.42981L31.783 10.521ZM31.7986 10.5307L31.7988 10.5308L34.9421 5.42007L34.942 5.41999L31.7986 10.5307ZM31.7839 10.5216L31.7843 10.5218L34.9563 5.42886L34.9559 5.42862L31.7839 10.5216ZM31.7685 10.5119L31.7685 10.5119L34.9713 5.43826L34.9713 5.43824L31.7685 10.5119ZM31.82 10.5437L31.8201 10.5437L34.9197 5.40643L34.9197 5.40638L31.82 10.5437ZM31.4844 10.3309C31.5886 10.4001 31.7066 10.4733 31.7823 10.5206L34.9573 5.42948C34.8549 5.36561 34.821 5.34412 34.8051 5.33357L31.4844 10.3309ZM31.7947 10.5053C31.7408 10.4806 31.6264 10.4252 31.4843 10.3308L34.8052 5.33361C34.6099 5.20389 34.4291 5.11266 34.2967 5.0519L31.7947 10.5053Z" fill="white" mask="url(#path-1-outside-1)"/>
<path d="M36.0078 55.4712L37.7065 81.629C43.2012 80.3743 53.8916 77.4932 52.6954 76.0067C51.2001 74.1485 50.3866 66.1297 52.0614 60.8304C53.4012 56.5909 51.5031 52.9631 50.3866 51.6791C49.948 51.1807 48.9081 49.6399 48.2573 47.4643C47.6066 45.2888 45.0567 43.3945 43.8631 42.7192L39.3493 46.5353L36.0078 55.4712Z" fill="#C6525C"/>
<path d="M36.0078 55.4712L37.7065 81.629C43.2012 80.3743 53.8916 77.4932 52.6954 76.0067C51.2001 74.1485 50.3866 66.1297 52.0614 60.8304C53.4012 56.5909 51.5031 52.9631 50.3866 51.6791C49.948 51.1807 48.9081 49.6399 48.2573 47.4643C47.6066 45.2888 45.0567 43.3945 43.8631 42.7192L39.3493 46.5353L36.0078 55.4712Z" fill="#C6525C"/>
<path d="M16.3774 49.346C17.6757 47.215 19.8213 45.7812 20.7317 45.3306V55.5545C18.738 59.1937 14.4913 65.2879 13.4546 60.5508C12.1587 54.6294 14.7545 52.0096 16.3774 49.346Z" fill="#D65A64"/>
<path d="M20.006 46.2397C20.207 45.7102 20.5735 45.413 20.7317 45.3306L38.9186 48.4727C36.4065 54.3582 37.3954 59.3784 38.468 64.0717C39.3261 67.8263 38.8255 77.9282 38.468 82.5098L12.7847 85.1455C11.4715 84.0489 8.87694 80.0726 9.00454 72.9398C9.13214 65.807 11.5778 60.7834 12.7847 59.1631C13.5024 58.238 14.9642 56.1877 15.0695 55.387C15.3183 53.4507 16.8027 50.8639 17.5138 49.8125C18.2608 48.8422 19.805 46.7692 20.006 46.2397Z" fill="#EA646F"/>
<path d="M20.7318 45.3309C21.2964 45.098 22.1899 44.5586 22.566 44.3181L32.9255 46.2081L40.1069 40.8809C41.0533 41.3328 43.1294 42.3331 43.8631 42.7191C43.7116 43.074 41.0121 46.5112 39.8677 47.9108C38.7233 49.3104 32.4071 52.3927 30.2698 53.2819C28.1325 54.1711 24.0294 55.2198 22.1234 52.6997C20.2174 50.1797 20.6201 45.9888 20.7318 45.3309Z" fill="#D65A64"/>
<path d="M22.566 44.318C23.2614 43.8809 24.0998 43.0406 24.4321 42.6751L38.9545 40.5498C39.1499 40.6056 39.6539 40.75 40.1069 40.8808C39.2057 42.6392 36.0077 45.8611 34.4008 47.0175C32.7938 48.1739 28.934 50.0719 25.5885 49.6213C22.243 49.1707 22.566 45.6338 22.566 44.318Z" fill="#EA646F"/>
<path fill-rule="evenodd" clip-rule="evenodd" d="M23.495 8.62109C23.1612 8.63516 22.7612 8.70337 22.2988 8.86134C17.383 10.4531 15.8111 13.6662 15.6397 15.0738C15.5134 15.9099 14.9722 17.9456 13.8174 19.4002C12.6626 20.8549 13.1076 23.7599 13.4745 25.0305C13.6699 25.5675 14.1978 27.2253 14.7465 29.5603C15.2952 31.8954 18.5452 33.3245 20.1017 33.7472C21.0594 33.6141 22.2337 33.4622 23.495 33.3144V8.62109Z" fill="#462937"/>
<path fill-rule="evenodd" clip-rule="evenodd" d="M23.495 33.314C28.0804 32.7765 33.8166 32.2918 34.4846 32.9573C35.5492 34.018 40.9044 35.1225 42.6868 33.372C44.4692 31.6215 45.0553 29.1134 44.1661 26.4019C43.2769 23.6904 43.6159 22.9687 44.5091 21.1863C46.0753 18.1111 42.6203 15.6251 40.697 14.7664C39.6324 14.3424 37.4209 13.2472 37.0924 12.2583C36.1638 9.71729 34.1988 8.49199 33.3705 7.97542C33.2811 7.91969 33.2049 7.87221 33.1448 7.83222C32.5267 7.42151 28.3399 6.87124 27.0679 8.24293C26.0502 9.34028 25.0196 9.1122 24.6315 8.86099C24.4772 8.74338 24.0916 8.5956 23.495 8.62075V33.314Z" fill="#543343"/>
<path d="M24.1967 42.9817C24.7199 40.8476 23.7661 38.4799 23.2238 37.5627C26.5892 36.0528 33.4596 33.2363 35.3417 33.2363C34.3368 38.1449 38.0505 40.1054 38.9543 40.5494C37.5853 41.4239 34.0178 43.3597 30.7003 44.1062C26.5533 45.0393 25.2574 43.8709 24.1967 42.9817Z" fill="#F0BBAC"/>
<path d="M19.1327 16.96C20.0928 14.7781 21.3287 16.0314 21.8043 16.96C21.9717 17.287 22.262 17.3014 23.3434 16.96C24.4248 16.6187 25.2215 17.3309 25.4847 17.7296C26.0018 18.5032 27.3469 20.0822 28.591 20.2098C29.835 20.3374 30.0349 20.5622 30.808 21.0791C31.6461 21.6396 31.7417 22.3875 32.5625 22.9732C33.3281 23.5194 34.1375 24.5482 34.5004 25.3975C34.7907 26.077 35.1982 30.9095 35.3657 33.2409C35.1583 33.5041 34.4286 34.2641 33.1686 35.1987C30.2466 37.3934 27.0571 38.3329 25.8276 38.5283C24.7776 38.7702 22.2421 38.5075 20.5004 35.5217C18.3232 31.7894 17.9603 29.6721 17.6174 27.1121C17.3431 25.0642 17.5908 23.3958 17.749 22.8176C18.0614 21.959 18.6861 20.0727 18.6861 19.3964C18.71 17.8253 18.7658 17.8373 19.1327 16.96Z" fill="#FFC9BA"/>
<path d="M27.2352 21.9239C26.2655 21.7038 25.2135 22.1272 24.8188 22.3545C24.6513 22.451 24.2286 22.8609 24.3483 23.2796C24.5979 24.1526 25.708 23.8698 26.8724 23.4391C28.0367 23.0085 29.2888 23.6066 29.6158 23.6544C29.9427 23.7023 31.2985 23.6903 31.0353 22.8609C30.7721 22.0315 29.7234 22.0435 29.2888 22.1272C28.8542 22.211 28.4474 22.199 27.2352 21.9239Z" fill="#543343"/>
<path d="M22.3028 30.6808C20.8513 30.8276 23.2677 23.1405 23.5907 23.4077C23.7529 23.5418 23.8658 25.0702 23.9058 26.5937C23.9453 28.1043 23.9132 29.6101 23.7861 29.7478C23.5309 30.0242 22.877 30.5979 22.3028 30.6808Z" fill="#F0BBAC"/>
<path d="M23.2399 32.3316C21.6832 31.7989 21.3299 32.9298 20.6919 33.1371C21.302 33.1371 22.0716 34.2017 23.2399 33.5957C23.9058 33.9426 24.9027 33.799 26.2943 33.1371C25.6124 32.8819 24.484 31.7574 23.2399 32.3316Z" fill="#9A1919"/>
<path fill-rule="evenodd" clip-rule="evenodd" d="M17.7542 13.2704C17.6213 12.6044 17.8308 11.8385 18.1714 11.1211C19.1688 10.276 20.5162 9.48048 22.3079 8.90029C23.5967 8.46008 24.4 8.71687 24.6406 8.90029C24.9012 9.06896 25.4514 9.22719 26.0928 8.98086C25.8675 9.51416 25.7055 10.0646 25.6375 10.4911C25.5662 10.9382 25.3133 11.2411 25.0381 11.5708C24.6359 12.0527 24.186 12.5916 24.186 13.7209C24.3283 15.4913 24.8874 16.8675 25.5871 17.9036C25.5536 17.8564 25.5225 17.8111 25.4939 17.7684C25.2308 17.3696 24.4341 16.6575 23.3527 16.9988C22.2712 17.3401 21.981 17.3258 21.8135 16.9988C21.3379 16.0702 20.1021 14.8169 19.1419 16.9988C19.1102 17.0747 19.0808 17.1439 19.0535 17.208C18.7656 17.8858 18.7171 17.9999 18.6953 19.4351C18.6953 20.1114 18.0706 21.9978 17.7582 22.8564C17.6665 23.1918 17.5446 23.894 17.5119 24.8243C17.2259 25.3014 16.903 25.5846 16.5739 25.4122C15.5691 24.8859 15.3976 22.936 15.6249 21.3051C15.8067 20.0004 16.7693 17.941 17.2279 17.0744C17.5283 16.4324 18.0541 14.7728 17.7542 13.2704Z" fill="#543343"/>
<path fill-rule="evenodd" clip-rule="evenodd" d="M30.2153 20.683C33.2403 21.1032 38.4388 22.6824 38.4388 26.232C38.4388 30.9253 38.9213 31.4078 40.2372 31.1007C41.2899 30.8551 42.3426 29.3316 42.7373 28.6006C42.9301 28.0676 43.3155 26.76 43.3155 25.7934C43.3155 24.5852 43.5109 22.9782 44.1329 21.9295C44.1467 21.9064 44.1612 21.8798 44.1764 21.85C44.1957 21.8091 44.2154 21.7678 44.2355 21.726C44.3996 21.3625 44.6282 20.7102 44.8865 19.9069C45.1155 17.4326 42.3406 15.5002 40.6917 14.764C39.627 14.34 37.4156 13.2448 37.087 12.2559C36.1584 9.71485 34.1935 8.48955 33.3651 7.97298C33.2757 7.91725 33.1996 7.86977 33.1394 7.82978C32.5213 7.41907 28.3345 6.8688 27.0625 8.24049C26.8413 8.47903 26.6195 8.65494 26.4038 8.78159L26.0873 8.97936C26.0874 8.97933 26.0875 8.97929 26.0876 8.97926C25.8622 9.51256 25.7002 10.063 25.6322 10.4895C25.561 10.9366 25.3081 11.2395 25.0329 11.5692C24.6306 12.0511 24.1808 12.59 24.1808 13.7193C24.3103 15.3299 24.7846 16.6142 25.396 17.6131C25.428 17.6529 25.4559 17.6911 25.4795 17.7269C25.9021 18.3592 26.8781 19.5298 27.8999 20.0058L28.4161 20.181C28.4728 20.1926 28.5293 20.2013 28.5857 20.2071C29.4545 20.2962 29.8141 20.4327 30.2153 20.683Z" fill="#462937"/>
<path d="M18.7539 21.6133C17.567 21.6133 17.2068 21.7847 17.2068 22.1317C17.2068 22.9917 18.2037 23.2003 19.1806 23.1086C19.8803 23.0429 20.6639 23.2003 20.959 23.3837C21.1951 23.5305 21.8272 23.7585 22.1792 23.7585C22.4344 23.7585 22.7988 23.548 22.7095 23.2003C22.6202 22.8526 21.9559 22.7298 21.601 22.658C20.4402 22.4232 20.6759 21.6133 18.7539 21.6133Z" fill="#462937"/>
<path d="M12.4349 75.7359C11.5707 71.0073 14.0679 62.9193 15.4245 59.4663C15.7394 63.2091 14.7902 67.87 14.5954 72.4318C14.3799 77.4769 21.7145 88.4463 14.5954 85.1422L13.834 86.2861C13.7277 84.7396 13.2991 80.4646 12.4349 75.7359Z" fill="#DF606A"/>
<path fill-rule="evenodd" clip-rule="evenodd" d="M12.2566 59.962C12.4725 59.5902 12.6732 59.2846 12.8485 59.049C12.8869 58.9995 12.9273 58.947 12.9694 58.8916C15.3537 59.0074 18.8313 59.3304 21.055 60.0501C24.5802 61.1909 27.7775 61.0473 29.8106 60.8708C31.8438 60.6944 37.1767 61.9911 39.136 63.6573C39.1418 63.6622 39.1476 63.6671 39.1533 63.672C39.1856 63.8152 39.2181 63.9581 39.2507 64.1007C39.2827 64.2408 39.3128 64.3895 39.3412 64.5462C38.9176 64.5226 38.2365 64.3277 37.7137 64.1456C36.7654 63.7859 34.2811 63.086 31.9299 63.1648C31.4274 63.1817 30.9262 63.2071 30.4241 63.2327C27.9899 63.3564 25.5355 63.4812 22.8135 62.6272C22.1224 62.4104 21.3736 62.1456 20.5882 61.8679C17.9543 60.9365 14.9098 59.8599 12.2566 59.962Z" fill="#C14D57"/>
<path d="M25.5608 25.3035C26.2358 24.66 27.9371 23.6318 29.3419 24.6669C28.77 25.369 27.5127 26.1307 25.5608 25.3035Z" fill="#FFF3F1"/>
<mask id="mask0" mask-type="alpha" maskUnits="userSpaceOnUse" x="26" y="24" width="3" height="2">
<path d="M28.3424 25.1468C28.2768 25.6045 27.7646 25.8891 27.3068 25.8235C26.849 25.7578 26.6545 25.3719 26.7202 24.9142C26.7858 24.4564 27.0867 24.1 27.5445 24.1657C28.0023 24.2313 28.4081 24.689 28.3424 25.1468Z" fill="#2C1E25"/>
</mask>
<g mask="url(#mask0)">
<path d="M25.5441 25.3066C26.2193 24.6616 27.921 23.6306 29.3256 24.6675C28.7534 25.3712 27.4958 26.135 25.5441 25.3066Z" fill="#2C1E25"/>
</g>
<path d="M18.2864 25.1707C18.7024 24.6962 19.9436 23.9777 21.58 24.8996C21.1015 25.6652 19.4667 26.4148 18.2864 25.1707Z" fill="#FFF3F1"/>
<mask id="mask1" mask-type="alpha" maskUnits="userSpaceOnUse" x="19" y="24" width="2" height="2">
<path d="M20.5552 25.1421C20.5552 25.6045 20.3279 25.9794 19.8654 25.9794C19.4029 25.9794 19.1556 25.6251 19.1556 25.1626C19.1556 24.7001 19.4029 24.3047 19.8654 24.3047C20.3279 24.3047 20.5552 24.6796 20.5552 25.1421Z" fill="#2C1E25"/>
</mask>
<g mask="url(#mask1)">
<path d="M18.2864 25.1707C18.7024 24.6962 19.9436 23.9777 21.58 24.8996C21.1015 25.6652 19.4667 26.4148 18.2864 25.1707Z" fill="#2C1E25"/>
</g>
<ellipse cx="23.6654" cy="55.0477" rx="2.93079" ry="3.11023" fill="#C14D57"/>
<path d="M25.695 55.0482C25.695 56.4092 24.6861 57.2493 23.4022 57.2493C22.1183 57.2493 21.5919 56.4092 21.5919 55.0482C21.5919 53.6872 22.3815 53.21 23.6654 53.21C24.9493 53.21 25.695 53.6872 25.695 55.0482Z" fill="#D65A64"/>
</g>
<defs>
<clipPath id="clip0">
<rect width="60" height="60" fill="white"/>
</clipPath>
</defs>
</svg>
