<svg width="337" height="191" fill="none" xmlns="http://www.w3.org/2000/svg"><path d="M161.867 203.763c-1.223-.532-17.206-12.827-25.044-18.908-.079 2.405-.429 9.012-1.192 16.196 3.643 6.126 17.667 11.295 24.224 13.114 1.18-3.246 3.236-9.871 2.012-10.402z" fill="#F37A84"/><path d="M136.183 193.558c-1.364-18.418 3.695-25.201 5.968-26.433 17.243-2.748 52.582-7.219 55.993-3.126 4.263 5.116 7.39 26.148 5.116 31.833-2.274 5.684-17.622 11.937-24.728 15.064-7.105 3.126-28.138-10.801-42.349-17.338z" fill="#C4535D"/><path d="M203.606 184.86c-.571 2.515-13.673 13.737-20.153 19.033l-.59 9.633c6.38-1.224 19.287-4.124 19.878-5.928.74-2.255 1.579-25.882.865-22.738z" fill="#F37A84"/><path d="M203.546 194.126c-1.706 5.685-3.038 16.962-4.325 24.641l22.515 33.523c5.719-.93 12.946-11.164 9.243-19.429-4.63-10.33-27.563-39.723-27.433-38.735z" fill="#DB5E68"/><path d="M114.223 68.196c5.285-5.784 15.78-4.638 20.366-3.342 23.318.682 71.112 1.268 75.744-1.842 5.79-3.888 27.246-8.867 24.862 2.796-1.907 9.331-12.374 11.845-17.369 11.936l-2.657 2.933c-25.021 1.546-77.746 4.502-88.481 3.956-13.419-.682-19.073-9.207-12.465-16.437z" fill="#C4535D"/><path d="M132.307 64.293c1.808-13.412-2.535-41.902-4.932-54.47C147.307-2.152 205.8-1.194 216.622 2.364c-10 28.33-3.562 59.67-1.987 66.788-2.876 5.953-18.835 6.432-31.438 3.763-12.603-2.669-44.315-6.637-50.89-8.622z" fill="#F37A84"/><path d="M152.866 74.357c-20.603-2.603-25.243 6.576-26.061 9.796 0 15.961 0 36.238 5.799 67.338 5.799 31.1 38.886 27.333 46.254 26.305 7.368-1.027 25.379-7.74 32.951-27.88 7.573-20.14 7.709-65.763 6.55-72.75-4.162.822-44.89-.206-65.493-2.809z" fill="#FFC9BA"/><path fill-rule="evenodd" clip-rule="evenodd" d="M127.297 109.007c1.236-3.796 3.14-7.851 5.688-9.435 5.05-3.14 13.608-8.695 21.497-16.584 3.124-3.124 4.892-5.603 5.596-7.55-2.596-.241-5.03-.5-7.234-.778-20.611-2.593-25.252 6.552-26.071 9.76 0 7.134 0 15.135.524 24.587zM194.838 77.65c-2.503 2.775-3.12 10.26 4.414 14.354 1.587.863 2.988 1.601 4.233 2.257 6.143 3.239 8.488 4.475 10.645 8.731 1.192 2.353 2.847 3.572 4.32 4.148.727-14.06.469-26.324-.09-29.674-1.907.375-11.498.363-23.312-.009a1.576 1.576 0 00-.21.193z" fill="#292929"/><path d="M217.885 140.462c-15.963-4.363-30.614-.182-35.944 2.453 23.507 9.065 39.702 14.313 62.936 12.473 20.569-1.629 31.57-28.013 14.487-34.76-17.084-6.748-22.345 6.952-24.122 13.222 7.243-11.791 14.35-3.271 12.505 1.5-2.293 5.929-9.908 10.564-29.862 5.112zM136.015 140.355c19.463-9.108 38.729-1.92 45.93 2.812-36.457 18.656-59.15 21.88-71.552 17.902-12.402-3.979-24.123-17.902-22.692-32.991 1.145-12.072 13.106-16.873 18.944-17.764 5.656-.343 16.804 1.591 16.15 12.071-.654 10.48-8.54 10.403-12.402 9.054 16.219-6.928-14.447-15.021-7.768 3.841 3.021 5.487 13.928 14.184 33.39 5.075z" fill="#292929"/><path d="M187.313 90.452c-2.118 48.114 5.723 76.257-15.289 49.924 3.772-14.076 8.185-47.534 15.289-49.924z" fill="#F0BBAC"/><path d="M193.832 112.067c2.211-.775 10.107-3.154 13.948.234.267.229.276.613.047.88-4.326 4.707-11.476 6.865-14.347-.281-.12-.355.024-.72.352-.833zM143.333 111.021c2.927-1.026 12.351-3.811 15.521 1.985a.727.727 0 01-.167.888c-7.826 6.68-13.25 1.555-15.682-1.781-.266-.399-.12-.931.328-1.092z" fill="#fff"/><path d="M147.434 109.842s-.924 5.471-.545 5.985c.379.514 3.809 1.782 5.007 1.408 1.198-.373 4.624-5.564 3.523-7.133-1.105-1.537-7.985-.26-7.985-.26zM197.827 110.957s5.529-.94 6.972-.18c1.424 2.074.621 4.748-.59 5.475-1.553.903-4.757 1.515-5.15 1.259-.372-.291-2.473-3.619-1.232-6.554z" fill="#2C1E25"/><path d="M166.595 112.757c0 8.771-8.401 17.986-17.172 17.986-8.772 0-14.661-9.215-14.661-17.986 0-8.772 5.889-13.847 14.661-13.847 8.771 0 17.172 5.075 17.172 13.847z" fill="#C7E6ED" fill-opacity=".5"/><path d="M184.143 169.474c-9.536-8.626-17.219-3.23-19.868.546-12.674 13.307-2.398 30.299 0 40.876 3.563-16.309 31.789-30.64 19.868-41.422z" fill="#292929"/><path fill-rule="evenodd" clip-rule="evenodd" d="M187.333 157.169c.323.768-.808 1.57-2.093 2.27-1.299.707-2.898 1.489-5.177 1.688-2.218.193-3.847-.546-5.966-.718-2.012-.164-4.543.197-6.063-.261-1.566-.472-1.513-1.33-1.698-2.08-.199-.807-.808-1.695.591-2.407 1.395-.709 4.039-.97 6.381-1.136 1.971-.139 3.766.11 5.611.288 1.695.165 3.332.333 4.672.708 1.606.45 3.432.912 3.742 1.648z" fill="#DBA89A"/></svg>