<svg width="5098" height="1024" fill="none" xmlns="http://www.w3.org/2000/svg"><path d="M1784 426.439l-32.39-59.606-27.14 152.55L931 582l456.5 443.52h3709.79V441.54L2364.17 556.298h-72.22l-30.5-30.495-48.95-6.42-48.95 26.574-53.77-72.317h-132.41l-61.79 72.317-8.03-114.626 29.69 10.209-36.91-74.707-50.56 64.498h21.67l-8.03 114.626h-93l-8.12-114.626 21.71-4.892z" fill="#2E5A9C"/><path fill-rule="evenodd" clip-rule="evenodd" d="M8.368 678.128L0 544.452l33.473-46.324 73.641-1.323 33.474 41.029 16.736-13.235-3.347-33.088 16.737-74.118 13.389 67.5 26.779-41.029 36.82 1.323v-30.441l-5.021-7.941 8.369-3.971 10.041-25.147 15.063-111.176-3.347-7.941 5.021-5.295 1.674-13.235h-21.758v-6.617l20.084-1.324v-21.177l11.716-1.323-1.674 21.176h10.042l1.674 10.589-11.716-3.971-1.673 11.912 3.347 7.941-5.021 9.265 5.021 68.823 6.695 35.736 16.736 33.088 8.368 3.97-5.02 9.265 1.673 27.794 8.368-6.617 38.495 47.647 6.694 42.353 48.537-2.647 1.673-17.206 30.126-38.383 6.695-1.323 1.674-13.236-5.021-5.294 18.41-60.882 3.347-29.118 1.674 45 18.41 42.353-3.347 19.853 35.147 1.324 23.431 34.412-1.674 33.088 10.042-17.206 120.504 1.323 1.674-25.147 50.21-37.058-5.021-45.001-6.695-1.323 35.147-67.5 16.737-78.088-5.021-14.559 8.368-3.971 5.021 1.324 1.674 7.941 15.063 88.676 10.042-18.529 1.673-46.323 10.042 50.294 8.369 27.794-1.674 41.029 3.347 9.265-8.368 3.97 1.674 50.295 41.841 30.441 13.39-10.588 30.126-2.647-3.348-26.471 26.779-37.059-1.674-50.294 15.063-66.176 1.674-38.383 5.021 27.794 6.694 38.383 26.779-104.559 1.674-154.853 8.368 3.97 13.39 153.53 20.08 112.5 6.7-70.147 10.04 55.588 6.69 35.735 1.68 48.971 18.41 1.323-3.35-51.617 8.37-31.765s5.02-60.882 6.69-60.882c1.68 0 8.37 58.235 8.37 58.235l11.72-41.029 6.69-54.265 5.02-86.03 5.02-93.97 16.74 154.853 26.78 132.353 11.72-64.853 5.02 60.882 10.04 25.147-5.02 6.618 1.67 91.323 26.78-23.823v-10.588l8.37-5.294v-10.589l5.02-3.97 3.35-22.5 1.67 26.47 5.02 3.971-1.67 10.588 5.02 1.324-1.67 13.235 18.41 19.853 1.67 34.412h28.45l11.72 9.264 8.37-7.941 13.38 2.647 11.72-13.235-18.41-2.647 8.37-11.912 15.06 2.647 5.02-15.882-8.37-7.941 8.37-7.941 11.72 7.941-1.68 5.294 1.68 17.206 15.06 1.323-1.67 7.941-10.04-1.323 8.36 15.882s21.76 0 21.76 1.324c0 1.323-3.35 11.912-3.35 11.912l-8.36-1.324 18.41 22.5 11.71-10.588-1.67-128.383-6.7-2.647 11.72-19.853 6.69-39.706 1.68-43.676 5.02-1.323 5.02 63.529 8.37 35.735 15.06-99.264 6.7-96.618 5.02-55.588h6.69l16.74 168.088 11.71 71.47 6.7 21.177 11.71-21.177 1.68-76.764 5.02 1.323 10.04 80.736 5.02 17.205v37.059l137.24 3.971 11.72 2.647 28.45 47.647 3.35-51.618-15.07-3.97 46.87-59.559 1.67 315L8.368 678.128z" fill="#2E5A9C"/><path fill-rule="evenodd" clip-rule="evenodd" d="M1690.37 566.676L1682 433l33.47-46.324 73.64-1.323 33.48 41.029 16.73-13.235-3.34-33.088 16.73-74.118 13.39 67.5 26.78-41.029 36.82 1.323v-30.441l-5.02-7.941 8.37-3.971 10.04-25.147 15.06-111.176-3.34-7.941 5.02-5.294 1.67-13.236h-21.76v-6.617l20.09-1.324V99.471l11.71-1.324-1.67 21.177h10.04l1.68 10.588-11.72-3.971-1.67 11.912 3.34 7.941-5.02 9.265 5.02 68.823 6.7 35.736 16.74 33.088 8.36 3.97-5.02 9.265 1.68 27.794 8.36-6.617 38.5 47.647 6.69 42.353 48.54-2.647 1.67-17.206 30.13-38.383 6.69-1.323 1.68-13.235-5.02-5.295 18.41-60.882 3.34-29.118 1.68 45 18.41 42.353-3.35 19.853 35.15 1.324 23.43 34.412-1.67 33.088 10.04-17.206 120.5 1.324 1.67-25.148 50.21-37.058-5.02-45-6.69-1.324 35.15-67.5 16.73-78.088-5.02-14.559 8.37-3.971 5.02 1.324 1.67 7.941 15.07 88.677 10.04-18.53 1.67-46.323 10.05 50.294 8.36 27.794-1.67 41.029 3.35 9.265-8.37 3.971 1.67 50.294 41.84 30.441 13.39-10.588 30.13-2.647-3.35-26.471 26.78-37.059-1.67-50.294 15.06-66.176 1.67-38.383 5.02 27.794 6.7 38.383 26.78-104.559 1.67-154.853 8.37 3.97 13.39 153.53 20.08 112.5 6.7-70.147 10.04 55.588 6.69 35.735 1.68 48.971 18.41 1.324-3.35-51.618 8.37-31.765s5.02-60.882 6.69-60.882c1.68 0 8.37 58.235 8.37 58.235l11.72-41.029 6.69-54.265 5.02-86.03 5.02-93.97 16.74 154.853 26.78 132.353 11.72-64.853 5.02 60.882 10.04 25.147-5.02 6.618 1.67 91.324 26.78-23.824v-10.588l8.37-5.294v-10.589l5.02-3.97 3.35-22.5 1.67 26.47 5.02 3.971-1.67 10.588 5.02 1.324-1.67 13.235L2940.6 343l1.67 34.412h28.45l11.72 9.264 8.37-7.941 13.38 2.647 11.72-13.235-18.41-2.647 8.37-11.912 15.06 2.647 5.02-15.882-8.37-7.941 8.37-7.941 11.72 7.941-1.68 5.294 1.68 17.206 15.06 1.323-1.67 7.941-10.04-1.323 8.36 15.882s21.76 0 21.76 1.324c0 1.323-3.35 11.912-3.35 11.912l-8.36-1.324 18.41 22.5 11.71-10.588-1.67-128.383-6.7-2.647 11.72-19.853 6.69-39.705 1.68-43.677 5.02-1.323 5.02 63.529 8.37 35.735 15.06-99.264 6.7-96.618 5.02-55.588h6.69l16.74 168.088 11.71 71.471 6.7 21.176 11.71-21.176 1.68-76.765 5.02 1.323 10.04 80.736 5.02 17.206v37.058l137.24 3.971 11.72 2.647 28.45 47.647 3.35-51.618-15.07-3.97L3434.33 253l1.67 315-1745.63-1.324z" fill="#2E5A9C"/></svg>