<svg width="5098" height="1024" viewBox="0 0 5098 1024" fill="none" xmlns="http://www.w3.org/2000/svg">
<path d="M1784 426.439L1751.61 366.833L1724.47 519.383L931 582L1387.5 1025.52H5097.29V441.54L2364.17 556.298H2291.95L2261.45 525.803L2212.5 519.383L2163.55 545.957L2109.78 473.64H1977.37L1915.58 545.957L1907.55 431.331L1937.24 441.54L1900.33 366.833L1849.77 431.331H1871.44L1863.41 545.957H1770.41L1762.29 431.331L1784 426.439Z" fill="#2E5A9C"/>
<path fill-rule="evenodd" clip-rule="evenodd" d="M8.36829 678.128L-0.00012207 544.452L33.4731 498.128L107.114 496.805L140.588 537.834L157.324 524.599L153.977 491.511L170.714 417.393L184.103 484.893L210.882 443.864L247.702 445.187V414.746L242.681 406.805L251.05 402.834L261.091 377.687L276.154 266.511L272.807 258.57L277.828 253.275L279.502 240.04H257.744V233.423L277.828 232.099V210.922L289.544 209.599L287.87 230.775H297.912L299.586 241.364L287.87 237.393L286.197 249.305L289.544 257.246L284.523 266.511L289.544 335.334L296.239 371.07L312.975 404.158L321.343 408.128L316.323 417.393L317.996 445.187L326.364 438.57L364.859 486.217L371.553 528.57L420.09 525.923L421.763 508.717L451.889 470.334L458.584 469.011L460.258 455.775L455.237 450.481L473.647 389.599L476.994 360.481L478.668 405.481L497.078 447.834L493.731 467.687L528.878 469.011L552.309 503.423L550.635 536.511L560.677 519.305L681.181 520.628L682.855 495.481L733.065 458.423L728.044 413.422L721.349 412.099L756.496 344.599L773.233 266.511L768.212 251.952L776.58 247.981L781.601 249.305L783.275 257.246L798.338 345.922L808.38 327.393L810.053 281.07L820.095 331.364L828.464 359.158L826.79 400.187L830.137 409.452L821.769 413.422L823.443 463.717L865.284 494.158L878.674 483.57L908.8 480.923L905.452 454.452L932.231 417.393L930.557 367.099L945.62 300.923L947.294 262.54L952.315 290.334L959.009 328.717L985.788 224.158L987.462 69.3048L995.83 73.2754L1009.22 226.805L1029.3 339.305L1036 269.158L1046.04 324.746L1052.73 360.481L1054.41 409.452L1072.82 410.775L1069.47 359.158L1077.84 327.393C1077.84 327.393 1082.86 266.511 1084.53 266.511C1086.21 266.511 1092.9 324.746 1092.9 324.746L1104.62 283.717L1111.31 229.452L1116.33 143.422L1121.35 49.4519L1138.09 204.305L1164.87 336.658L1176.59 271.805L1181.61 332.687L1191.65 357.834L1186.63 364.452L1188.3 455.775L1215.08 431.952V421.364L1223.45 416.07V405.481L1228.47 401.511L1231.82 379.011L1233.49 405.481L1238.51 409.452L1236.84 420.04L1241.86 421.364L1240.19 434.599L1258.6 454.452L1260.27 488.864H1288.72L1300.44 498.128L1308.81 490.187L1322.19 492.834L1333.91 479.599L1315.5 476.952L1323.87 465.04L1338.93 467.687L1343.95 451.805L1335.58 443.864L1343.95 435.923L1355.67 443.864L1353.99 449.158L1355.67 466.364L1370.73 467.687L1369.06 475.628L1359.02 474.305L1367.38 490.187C1367.38 490.187 1389.14 490.187 1389.14 491.511C1389.14 492.834 1385.79 503.423 1385.79 503.423L1377.43 502.099L1395.84 524.599L1407.55 514.011L1405.88 385.628L1399.18 382.981L1410.9 363.128L1417.59 323.422L1419.27 279.746L1424.29 278.423L1429.31 341.952L1437.68 377.687L1452.74 278.423L1459.44 181.805L1464.46 126.217H1471.15L1487.89 294.305L1499.6 365.775L1506.3 386.952L1518.01 365.775L1519.69 289.011L1524.71 290.334L1534.75 371.07L1539.77 388.275V425.334L1677.01 429.305L1688.73 431.952L1717.18 479.599L1720.53 427.981L1705.46 424.011L1752.33 364.452L1754 679.452L8.36829 678.128Z" fill="#2E5A9C"/>
<path fill-rule="evenodd" clip-rule="evenodd" d="M1690.37 566.676L1682 433L1715.47 386.676L1789.11 385.353L1822.59 426.382L1839.32 413.147L1835.98 380.059L1852.71 305.941L1866.1 373.441L1892.88 332.412L1929.7 333.735V303.294L1924.68 295.353L1933.05 291.382L1943.09 266.235L1958.15 155.059L1954.81 147.118L1959.83 141.824L1961.5 128.588H1939.74V121.971L1959.83 120.647V99.4706L1971.54 98.1471L1969.87 119.324H1979.91L1981.59 129.912L1969.87 125.941L1968.2 137.853L1971.54 145.794L1966.52 155.059L1971.54 223.882L1978.24 259.618L1994.98 292.706L2003.34 296.676L1998.32 305.941L2000 333.735L2008.36 327.118L2046.86 374.765L2053.55 417.118L2102.09 414.471L2103.76 397.265L2133.89 358.882L2140.58 357.559L2142.26 344.324L2137.24 339.029L2155.65 278.147L2158.99 249.029L2160.67 294.029L2179.08 336.382L2175.73 356.235L2210.88 357.559L2234.31 391.971L2232.64 425.059L2242.68 407.853L2363.18 409.177L2364.85 384.029L2415.06 346.971L2410.04 301.971L2403.35 300.647L2438.5 233.147L2455.23 155.059L2450.21 140.5L2458.58 136.529L2463.6 137.853L2465.27 145.794L2480.34 234.471L2490.38 215.941L2492.05 169.618L2502.1 219.912L2510.46 247.706L2508.79 288.735L2512.14 298L2503.77 301.971L2505.44 352.265L2547.28 382.706L2560.67 372.118L2590.8 369.471L2587.45 343L2614.23 305.941L2612.56 255.647L2627.62 189.471L2629.29 151.088L2634.31 178.882L2641.01 217.265L2667.79 112.706L2669.46 -42.1471L2677.83 -38.1765L2691.22 115.353L2711.3 227.853L2718 157.706L2728.04 213.294L2734.73 249.029L2736.41 298L2754.82 299.324L2751.47 247.706L2759.84 215.941C2759.84 215.941 2764.86 155.059 2766.53 155.059C2768.21 155.059 2774.9 213.294 2774.9 213.294L2786.62 172.265L2793.31 118L2798.33 31.9706L2803.35 -62L2820.09 92.853L2846.87 225.206L2858.59 160.353L2863.61 221.235L2873.65 246.382L2868.63 253L2870.3 344.324L2897.08 320.5V309.912L2905.45 304.618V294.029L2910.47 290.059L2913.82 267.559L2915.49 294.029L2920.51 298L2918.84 308.588L2923.86 309.912L2922.19 323.147L2940.6 343L2942.27 377.412H2970.72L2982.44 386.676L2990.81 378.735L3004.19 381.382L3015.91 368.147L2997.5 365.5L3005.87 353.588L3020.93 356.235L3025.95 340.353L3017.58 332.412L3025.95 324.471L3037.67 332.412L3035.99 337.706L3037.67 354.912L3052.73 356.235L3051.06 364.176L3041.02 362.853L3049.38 378.735C3049.38 378.735 3071.14 378.735 3071.14 380.059C3071.14 381.382 3067.79 391.971 3067.79 391.971L3059.43 390.647L3077.84 413.147L3089.55 402.559L3087.88 274.176L3081.18 271.529L3092.9 251.676L3099.59 211.971L3101.27 168.294L3106.29 166.971L3111.31 230.5L3119.68 266.235L3134.74 166.971L3141.44 70.353L3146.46 14.7647H3153.15L3169.89 182.853L3181.6 254.324L3188.3 275.5L3200.01 254.324L3201.69 177.559L3206.71 178.882L3216.75 259.618L3221.77 276.824V313.882L3359.01 317.853L3370.73 320.5L3399.18 368.147L3402.53 316.529L3387.46 312.559L3434.33 253L3436 568L1690.37 566.676Z" fill="#2E5A9C"/>
</svg>
