<svg width="4199" height="930" viewBox="0 0 4199 930" fill="none" xmlns="http://www.w3.org/2000/svg">
<path d="M3150.15 300.593L3136.93 199.973L3116.67 546.773L660 734.394L2915.37 940.545H4198.38L3144 330.817L3159.92 325.682L3150.15 300.593Z" fill="#2E5A9C"/>
<g clip-path="url(#clip0)">
<path fill-rule="evenodd" clip-rule="evenodd" d="M8.62805 739.669L0.259644 605.992L33.7329 559.669L107.374 558.345L140.847 599.375L157.584 586.139L154.237 553.051L170.973 478.933L184.363 546.433L211.141 505.404L247.962 506.728V476.286L242.941 468.345L251.309 464.375L261.351 439.228L276.414 328.051L273.067 320.11L278.088 314.816L279.762 301.58H258.004V294.963L278.088 293.639V272.463L289.804 271.139L288.13 292.316H298.172L299.845 302.904L288.13 298.933L286.456 310.845L289.804 318.786L284.782 328.051L289.804 396.875L296.498 432.61L313.235 465.698L321.603 469.669L316.582 478.933L318.256 506.728L326.624 500.11L365.118 547.757L371.813 590.11L420.349 587.463L422.023 570.257L452.149 531.875L458.844 530.551L460.517 517.316L455.496 512.022L473.907 451.139L477.254 422.022L478.928 467.022L497.338 509.375L493.991 529.228L529.138 530.551L552.569 564.963L550.895 598.051L560.937 580.845L681.441 582.169L683.115 557.022L733.325 519.963L728.304 474.963L721.609 473.639L756.756 406.139L773.492 328.051L768.472 313.492L776.84 309.522L781.861 310.845L783.535 318.786L798.597 407.463L808.64 388.933L810.313 342.61L820.355 392.904L828.723 420.698L827.05 461.728L830.397 470.992L822.029 474.963L823.702 525.257L865.544 555.698L878.933 545.11L909.059 542.463L905.712 515.992L932.491 478.933L930.817 428.639L945.88 362.463L947.554 324.08L952.575 351.875L959.269 390.257L986.048 285.698L987.722 130.845L996.09 134.816L1009.48 288.345L1029.56 400.845L1036.26 330.698L1046.3 386.286L1052.99 422.022L1054.67 470.992L1073.08 472.316L1069.73 420.698L1078.1 388.933C1078.1 388.933 1083.12 328.051 1084.79 328.051C1086.47 328.051 1093.16 386.286 1093.16 386.286L1104.88 345.257L1111.57 290.992L1116.59 204.963L1121.61 110.992L1138.35 265.845L1165.13 398.198L1176.85 333.345L1181.87 394.227L1191.91 419.375L1186.89 425.992L1188.56 517.316L1215.34 493.492V482.904L1223.71 477.61V467.022L1228.73 463.051L1232.08 440.551L1233.75 467.022L1238.77 470.992L1237.1 481.58L1242.12 482.904L1240.44 496.139L1258.86 515.992L1260.53 550.404H1288.98L1300.7 559.669L1309.07 551.728L1322.45 554.375L1334.17 541.139L1315.76 538.492L1324.13 526.58L1339.19 529.228L1344.21 513.345L1335.84 505.404L1344.21 497.463L1355.93 505.404L1354.25 510.698L1355.93 527.904L1370.99 529.228L1369.32 537.169L1359.28 535.845L1367.64 551.728C1367.64 551.728 1389.4 551.728 1389.4 553.051C1389.4 554.375 1386.05 564.963 1386.05 564.963L1377.69 563.639L1396.1 586.139L1407.81 575.551L1406.14 447.169L1399.44 444.522L1411.16 424.669L1417.85 384.963L1419.53 341.286L1424.55 339.963L1429.57 403.492L1437.94 439.228L1453 339.963L1459.69 243.345L1464.72 187.757H1471.41L1488.15 355.845L1499.86 427.316L1506.56 448.492L1518.27 427.316L1519.95 350.551L1524.97 351.875L1535.01 432.61L1540.03 449.816V486.875L1677.27 490.845L1688.99 493.492L1717.44 541.139L1720.79 489.522L1705.72 485.551L1752.59 425.992L1754.26 740.992L8.62805 739.669Z" fill="#2E5A9C"/>
<path fill-rule="evenodd" clip-rule="evenodd" d="M1690.63 628.217L1682.26 494.541L1715.73 448.217L1789.37 446.894L1822.85 487.923L1839.58 474.688L1836.23 441.6L1852.97 367.482L1866.36 434.982L1893.14 393.953L1929.96 395.276V364.835L1924.94 356.894L1933.31 352.923L1943.35 327.776L1958.41 216.6L1955.06 208.659L1960.09 203.365L1961.76 190.129H1940V183.512L1960.09 182.188V161.012L1971.8 159.688L1970.13 180.865H1980.17L1981.84 191.453L1970.13 187.482L1968.45 199.394L1971.8 207.335L1966.78 216.6L1971.8 285.423L1978.5 321.159L1995.23 354.247L2003.6 358.217L1998.58 367.482L2000.25 395.276L2008.62 388.659L2047.12 436.306L2053.81 478.659L2102.35 476.012L2104.02 458.806L2134.15 420.423L2140.84 419.1L2142.52 405.865L2137.49 400.57L2155.9 339.688L2159.25 310.57L2160.93 355.57L2179.34 397.923L2175.99 417.776L2211.14 419.1L2234.57 453.512L2232.89 486.6L2242.94 469.394L2363.44 470.718L2365.11 445.57L2415.32 408.512L2410.3 363.512L2403.61 362.188L2438.75 294.688L2455.49 216.6L2450.47 202.041L2458.84 198.07L2463.86 199.394L2465.53 207.335L2480.6 296.012L2490.64 277.482L2492.31 231.159L2502.35 281.453L2510.72 309.247L2509.05 350.276L2512.4 359.541L2504.03 363.512L2505.7 413.806L2547.54 444.247L2560.93 433.659L2591.06 431.012L2587.71 404.541L2614.49 367.482L2612.82 317.188L2627.88 251.012L2629.55 212.629L2634.57 240.423L2641.27 278.806L2668.05 174.247L2669.72 19.394L2678.09 23.3645L2691.48 176.894L2711.56 289.394L2718.26 219.247L2728.3 274.835L2734.99 310.57L2736.67 359.541L2755.08 360.865L2751.73 309.247L2760.1 277.482C2760.1 277.482 2765.12 216.6 2766.79 216.6C2768.47 216.6 2775.16 274.835 2775.16 274.835L2786.88 233.806L2793.57 179.541L2798.59 93.5116L2803.61 -0.458984L2820.35 154.394L2847.13 286.747L2858.84 221.894L2863.86 282.776L2873.91 307.923L2868.89 314.541L2870.56 405.865L2897.34 382.041V371.453L2905.71 366.159V355.57L2910.73 351.6L2914.07 329.1L2915.75 355.57L2920.77 359.541L2919.1 370.129L2924.12 371.453L2922.44 384.688L2940.85 404.541L2942.53 438.953H2970.98L2982.69 448.217L2991.06 440.276L3004.45 442.923L3016.17 429.688L2997.76 427.041L3006.13 415.129L3021.19 417.776L3026.21 401.894L3017.84 393.953L3026.21 386.012L3037.93 393.953L3036.25 399.247L3037.93 416.453L3052.99 417.776L3051.32 425.717L3041.27 424.394L3049.64 440.276C3049.64 440.276 3071.4 440.276 3071.4 441.6C3071.4 442.923 3068.05 453.512 3068.05 453.512L3059.68 452.188L3078.09 474.688L3089.81 464.1L3088.14 335.717L3081.44 333.07L3093.16 313.217L3099.85 273.512L3101.52 229.835L3106.55 228.512L3111.57 292.041L3119.94 327.776L3135 228.512L3141.69 131.894L3146.71 76.3057H3153.41L3170.15 244.394L3181.86 315.865L3188.56 337.041L3200.27 315.865L3201.94 239.1L3206.97 240.423L3217.01 321.159L3222.03 338.365V375.423L3359.27 379.394L3370.98 382.041L3399.44 429.688L3402.78 378.07L3387.72 374.1L3434.58 314.541L3436.26 629.541L1690.63 628.217Z" fill="#2E5A9C"/>
<rect x="1722.14" y="587.613" width="1714.11" height="153.379" fill="#2E5A9C"/>
</g>
<defs>
<clipPath id="clip0">
<rect width="3137" height="1024" fill="white"/>
</clipPath>
</defs>
</svg>
