<svg width="4199" height="930" fill="none" xmlns="http://www.w3.org/2000/svg"><path d="M3150.15 300.593l-13.22-100.62-20.26 346.8L660 734.394l2255.37 206.151h1283.01L3144 330.817l15.92-5.135-9.77-25.089z" fill="#2E5A9C"/><g clip-path="url(#clip0)" fill="#2E5A9C"><path fill-rule="evenodd" clip-rule="evenodd" d="M8.628 739.669L.26 605.992l33.473-46.323 73.641-1.324 33.473 41.03 16.737-13.236-3.347-33.088 16.736-74.118 13.39 67.5 26.778-41.029 36.821 1.324v-30.442l-5.021-7.941 8.368-3.97 10.042-25.147 15.063-111.177-3.347-7.941 5.021-5.294 1.674-13.236h-21.758v-6.617l20.084-1.324v-21.176l11.716-1.324-1.674 21.177h10.042l1.673 10.588-11.715-3.971-1.674 11.912 3.348 7.941-5.022 9.265 5.022 68.824 6.694 35.735 16.737 33.088 8.368 3.971-5.021 9.264 1.674 27.795 8.368-6.618 38.494 47.647 6.695 42.353 48.536-2.647 1.674-17.206 30.126-38.382 6.695-1.324 1.673-13.235-5.021-5.294 18.411-60.883 3.347-29.117 1.674 45 18.41 42.353-3.347 19.853 35.147 1.323 23.431 34.412-1.674 33.088 10.042-17.206 120.504 1.324 1.674-25.147 50.21-37.059-5.021-45-6.695-1.324 35.147-67.5 16.736-78.088-5.02-14.559 8.368-3.97 5.021 1.323 1.674 7.941 15.062 88.677 10.043-18.53 1.673-46.323 10.042 50.294 8.368 27.794-1.673 41.03 3.347 9.264-8.368 3.971 1.673 50.294 41.842 30.441 13.389-10.588 30.126-2.647-3.347-26.471 26.779-37.059-1.674-50.294 15.063-66.176 1.674-38.383 5.021 27.795 6.694 38.382 26.779-104.559 1.674-154.853 8.368 3.971 13.39 153.529 20.08 112.5 6.7-70.147 10.04 55.588 6.69 35.736 1.68 48.97 18.41 1.324-3.35-51.618 8.37-31.765s5.02-60.882 6.69-60.882c1.68 0 8.37 58.235 8.37 58.235l11.72-41.029 6.69-54.265 5.02-86.029 5.02-93.971 16.74 154.853 26.78 132.353 11.72-64.853 5.02 60.882 10.04 25.148-5.02 6.617 1.67 91.324 26.78-23.824v-10.588l8.37-5.294v-10.588l5.02-3.971 3.35-22.5 1.67 26.471 5.02 3.97-1.67 10.588 5.02 1.324-1.68 13.235 18.42 19.853 1.67 34.412h28.45l11.72 9.265 8.37-7.941 13.38 2.647 11.72-13.236-18.41-2.647 8.37-11.912 15.06 2.648 5.02-15.883-8.37-7.941 8.37-7.941 11.72 7.941-1.68 5.294 1.68 17.206 15.06 1.324-1.67 7.941-10.04-1.324 8.36 15.883s21.76 0 21.76 1.323c0 1.324-3.35 11.912-3.35 11.912l-8.36-1.324 18.41 22.5 11.71-10.588-1.67-128.382-6.7-2.647 11.72-19.853 6.69-39.706 1.68-43.677 5.02-1.323 5.02 63.529 8.37 35.736 15.06-99.265 6.69-96.618 5.03-55.588h6.69l16.74 168.088 11.71 71.471 6.7 21.176 11.71-21.176 1.68-76.765 5.02 1.324 10.04 80.735 5.02 17.206v37.059l137.24 3.97 11.72 2.647 28.45 47.647 3.35-51.617-15.07-3.971 46.87-59.559 1.67 315L8.628 739.669z"/><path fill-rule="evenodd" clip-rule="evenodd" d="M1690.63 628.217l-8.37-133.676 33.47-46.324 73.64-1.323 33.48 41.029 16.73-13.235-3.35-33.088 16.74-74.118 13.39 67.5 26.78-41.029 36.82 1.323v-30.441l-5.02-7.941 8.37-3.971 10.04-25.147 15.06-111.176-3.35-7.941 5.03-5.294 1.67-13.236H1940v-6.617l20.09-1.324v-21.176l11.71-1.324-1.67 21.177h10.04l1.67 10.588-11.71-3.971-1.68 11.912 3.35 7.941-5.02 9.265 5.02 68.823 6.7 35.736 16.73 33.088 8.37 3.97-5.02 9.265 1.67 27.794 8.37-6.617 38.5 47.647 6.69 42.353 48.54-2.647 1.67-17.206 30.13-38.383 6.69-1.323 1.68-13.235-5.03-5.295 18.41-60.882 3.35-29.118 1.68 45 18.41 42.353-3.35 19.853 35.15 1.324 23.43 34.412-1.68 33.088 10.05-17.206 120.5 1.324 1.67-25.148 50.21-37.058-5.02-45-6.69-1.324 35.14-67.5 16.74-78.088-5.02-14.559 8.37-3.971 5.02 1.324 1.67 7.941 15.07 88.677 10.04-18.53 1.67-46.323 10.04 50.294 8.37 27.794-1.67 41.029 3.35 9.265-8.37 3.971 1.67 50.294 41.84 30.441 13.39-10.588 30.13-2.647-3.35-26.471 26.78-37.059-1.67-50.294 15.06-66.176 1.67-38.383 5.02 27.794 6.7 38.383 26.78-104.559 1.67-154.853 8.37 3.97 13.39 153.53 20.08 112.5 6.7-70.147 10.04 55.588 6.69 35.735 1.68 48.971 18.41 1.324-3.35-51.618 8.37-31.765s5.02-60.882 6.69-60.882c1.68 0 8.37 58.235 8.37 58.235l11.72-41.029 6.69-54.265 5.02-86.03 5.02-93.97 16.74 154.853 26.78 132.353 11.71-64.853 5.02 60.882 10.05 25.147-5.02 6.618 1.67 91.324 26.78-23.824v-10.588l8.37-5.294V355.57l5.02-3.97 3.34-22.5 1.68 26.47 5.02 3.971-1.67 10.588 5.02 1.324-1.68 13.235 18.41 19.853 1.68 34.412h28.45l11.71 9.264 8.37-7.941 13.39 2.647 11.72-13.235-18.41-2.647 8.37-11.912 15.06 2.647 5.02-15.882-8.37-7.941 8.37-7.941 11.72 7.941-1.68 5.294 1.68 17.206 15.06 1.323-1.67 7.941-10.05-1.323 8.37 15.882s21.76 0 21.76 1.324c0 1.323-3.35 11.912-3.35 11.912l-8.37-1.324 18.41 22.5 11.72-10.588-1.67-128.383-6.7-2.647 11.72-19.853 6.69-39.705 1.67-43.677 5.03-1.323 5.02 63.529 8.37 35.735 15.06-99.264 6.69-96.618 5.02-55.588h6.7l16.74 168.088 11.71 71.471 6.7 21.176 11.71-21.176 1.67-76.765 5.03 1.323 10.04 80.736 5.02 17.206v37.058l137.24 3.971 11.71 2.647 28.46 47.647 3.34-51.618-15.06-3.97 46.86-59.559 1.68 315-1745.63-1.324z"/><path d="M1722.14 587.613h1714.11v153.379H1722.14z"/></g><defs><clipPath id="clip0"><path fill="#fff" d="M0 0h3137v1024H0z"/></clipPath></defs></svg>