<svg width="3138" height="610" viewBox="0 0 3138 610" fill="none" xmlns="http://www.w3.org/2000/svg">
<path fill-rule="evenodd" clip-rule="evenodd" d="M9.07922 608.251L0.710815 474.574L34.1841 428.251L107.825 426.927L141.299 467.957L158.035 454.721L154.688 421.633L171.425 347.515L184.814 415.015L211.593 373.986L248.413 375.31V344.868L243.392 336.927L251.76 332.957L261.802 307.81L276.865 196.633L273.518 188.692L278.539 183.398L280.213 170.162H258.455V163.545L278.539 162.221V141.045L290.255 139.721L288.581 160.898H298.623L300.297 171.486L288.581 167.515L286.907 179.427L290.255 187.368L285.234 196.633L290.255 265.457L296.949 301.192L313.686 334.28L322.054 338.251L317.033 347.515L318.707 375.31L327.075 368.692L365.57 416.339L372.264 458.692L420.801 456.045L422.474 438.839L452.6 400.457L459.295 399.133L460.969 385.898L455.948 380.604L474.358 319.721L477.705 290.604L479.379 335.604L497.789 377.957L494.442 397.81L529.589 399.133L553.02 433.545L551.346 466.633L561.388 449.427L681.892 450.751L683.566 425.604L733.776 388.545L728.755 343.545L722.06 342.221L757.207 274.721L773.944 196.633L768.923 182.074L777.291 178.104L782.312 179.427L783.986 187.368L799.049 276.045L809.091 257.515L810.764 211.192L820.806 261.486L829.175 289.28L827.501 330.31L830.848 339.574L822.48 343.545L824.154 393.839L865.995 424.28L879.385 413.692L909.51 411.045L906.163 384.574L932.942 347.515L931.268 297.221L946.331 231.045L948.005 192.662L953.026 220.457L959.72 258.839L986.499 154.28L988.173 -0.57284L996.541 3.39775L1009.93 156.927L1030.01 269.427L1036.71 199.28L1046.75 254.868L1053.45 290.604L1055.12 339.574L1073.53 340.898L1070.18 289.28L1078.55 257.515C1078.55 257.515 1083.57 196.633 1085.25 196.633C1086.92 196.633 1093.61 254.868 1093.61 254.868L1105.33 213.839L1112.02 159.574L1117.04 73.5448L1122.07 -20.4258L1138.8 134.427L1165.58 266.78L1177.3 201.927L1182.32 262.81L1192.36 287.957L1187.34 294.574L1189.01 385.898L1215.79 362.074V351.486L1224.16 346.192V335.604L1229.18 331.633L1232.53 309.133L1234.2 335.604L1239.22 339.574L1237.55 350.162L1242.57 351.486L1240.9 364.721L1259.31 384.574L1260.98 418.986H1289.43L1301.15 428.251L1309.52 420.31L1322.91 422.957L1334.62 409.721L1316.21 407.074L1324.58 395.162L1339.64 397.81L1344.66 381.927L1336.29 373.986L1344.66 366.045L1356.38 373.986L1354.71 379.28L1356.38 396.486L1371.44 397.81L1369.77 405.751L1359.73 404.427L1368.09 420.31C1368.09 420.31 1389.85 420.31 1389.85 421.633C1389.85 422.957 1386.5 433.545 1386.5 433.545L1378.14 432.221L1396.55 454.721L1408.26 444.133L1406.59 315.751L1399.89 313.104L1411.61 293.251L1418.3 253.545L1419.98 209.868L1425 208.545L1430.02 272.074L1438.39 307.81L1453.45 208.545L1460.15 111.927L1465.17 56.3389H1471.86L1488.6 224.427L1500.31 295.898L1507.01 317.074L1518.72 295.898L1520.4 219.133L1525.42 220.457L1535.46 301.192L1540.48 318.398V355.457L1677.72 359.427L1689.44 362.074L1717.89 409.721L1721.24 358.104L1706.17 354.133L1753.04 294.574L1754.71 609.574L9.07922 608.251Z" fill="#2E5A9C"/>
<path fill-rule="evenodd" clip-rule="evenodd" d="M1691.08 496.799L1682.71 363.123L1716.18 316.8L1789.83 315.476L1823.3 356.505L1840.04 343.27L1836.69 310.182L1853.42 236.064L1866.81 303.564L1893.59 262.535L1930.41 263.858V233.417L1925.39 225.476L1933.76 221.505L1943.8 196.358L1958.87 85.1819L1955.52 77.2407L1960.54 71.9466L1962.21 58.7113H1940.46V52.0936L1960.54 50.7701V29.5936L1972.25 28.2701L1970.58 49.4466H1980.62L1982.3 60.0348L1970.58 56.0642L1968.91 67.976L1972.25 75.9172L1967.23 85.1819L1972.25 154.005L1978.95 189.741L1995.69 222.829L2004.05 226.8L1999.03 236.064L2000.71 263.858L2009.08 257.241L2047.57 304.888L2054.26 347.241L2102.8 344.594L2104.47 327.388L2134.6 289.005L2141.29 287.682L2142.97 274.447L2137.95 269.152L2156.36 208.27L2159.71 179.152L2161.38 224.152L2179.79 266.505L2176.44 286.358L2211.59 287.682L2235.02 322.094L2233.35 355.182L2243.39 337.976L2363.89 339.3L2365.57 314.152L2415.78 277.094L2410.75 232.094L2404.06 230.77L2439.21 163.27L2455.94 85.1819L2450.92 70.623L2459.29 66.6525L2464.31 67.976L2465.99 75.9172L2481.05 164.594L2491.09 146.064L2492.76 99.7407L2502.81 150.035L2511.17 177.829L2509.5 218.858L2512.85 228.123L2504.48 232.094L2506.15 282.388L2548 312.829L2561.38 302.241L2591.51 299.594L2588.16 273.123L2614.94 236.064L2613.27 185.77L2628.33 119.594L2630 81.2113L2635.03 109.005L2641.72 147.388L2668.5 42.8289L2670.17 -112.024L2678.54 -108.053L2691.93 45.476L2712.01 157.976L2718.71 87.8289L2728.75 143.417L2735.45 179.152L2737.12 228.123L2755.53 229.447L2752.18 177.829L2760.55 146.064C2760.55 146.064 2765.57 85.1819 2767.25 85.1819C2768.92 85.1819 2775.61 143.417 2775.61 143.417L2787.33 102.388L2794.02 48.1231L2799.04 -37.9064L2804.07 -131.877L2820.8 22.976L2847.58 155.329L2859.3 90.476L2864.32 151.358L2874.36 176.505L2869.34 183.123L2871.01 274.447L2897.79 250.623V240.035L2906.16 234.741V224.152L2911.18 220.182L2914.53 197.682L2916.2 224.152L2921.22 228.123L2919.55 238.711L2924.57 240.035L2922.9 253.27L2941.31 273.123L2942.98 307.535H2971.43L2983.15 316.8L2991.52 308.858L3004.91 311.505L3016.62 298.27L2998.21 295.623L3006.58 283.711L3021.64 286.358L3026.66 270.476L3018.29 262.535L3026.66 254.594L3038.38 262.535L3036.71 267.829L3038.38 285.035L3053.44 286.358L3051.77 294.3L3041.73 292.976L3050.09 308.858C3050.09 308.858 3071.85 308.858 3071.85 310.182C3071.85 311.505 3068.5 322.094 3068.5 322.094L3060.14 320.77L3078.55 343.27L3090.26 332.682L3088.59 204.3L3081.89 201.652L3093.61 181.8L3100.3 142.094L3101.98 98.4172L3107 97.0936L3112.02 160.623L3120.39 196.358L3135.45 97.0936L3142.15 0.475998L3147.17 -55.1122H3153.86L3170.6 112.976L3182.31 184.447L3189.01 205.623L3200.72 184.447L3202.4 107.682L3207.42 109.005L3217.46 189.741L3222.48 206.947V244.005L3359.72 247.976L3371.44 250.623L3399.89 298.27L3403.24 246.652L3388.17 242.682L3435.04 183.123L3436.71 498.123L1691.08 496.799Z" fill="#2E5A9C"/>
<rect x="1722.59" y="456.195" width="1714.11" height="153.379" fill="#2E5A9C"/>
</svg>
