<svg width="3061" height="1024" viewBox="0 0 3061 1024" fill="none" xmlns="http://www.w3.org/2000/svg">
<path d="M100.023 472.598L81 588.231L0 1023.52H3060.69V534.028L2973.97 696.636L2936.63 555.709L2759.56 732.771L2652.36 534.028L2572.87 499.097L2475.3 732.771L2452.42 588.231L2405.44 555.709L2357.26 703.863H2310.28L2240.42 479.825H2207.9L2150.09 634.002H2074.2L2005.55 526.801L1905.57 612.321L1885.1 175.086L1753.8 45L1676.72 144.974L1630.95 588.231L1526.15 612.321L1449.07 378.647L1337.05 526.801L1296.09 464.167L1244.3 546.073L1185.28 559.323L1173.23 414.782H1125.05L1087.71 546.073H1034.72L984.127 450.917L879.336 546.073L804.657 499.097L768.521 535.233L725.159 253.379L643.253 45L574.597 224.471L533.643 535.233L484.259 559.323L437.283 535.233L397.535 566.55L343.332 535.233L315.628 566.55L267.448 576.186L275.88 507.529V450.917L210.837 464.167L216.859 535.233L190.36 566.55L155.43 472.598H100.023Z" fill="#2E5A9C"/>
<path d="M0.605469 1026.27L0.615997 -0.0532227L175.548 1026.27H0.605469Z" fill="#2E5A9C"/>
</svg>
