<svg width="4459" height="1011" fill="none" xmlns="http://www.w3.org/2000/svg"><path d="M2450.25 448.3l-36.52-8.248v360.646h409.78V424.25l-26.3 15.802-28-12.029-26.43 17.331-41.06-17.331-20.99-55.999 7.93-114.049-11.67-15.217-4.66-123.199-17.73-33.6-24.26 33.6-5.6 123.199-13.08 15.217v111.374l-31.22 53.027-46.54 22.978-31.81 6.481v-16.497l-5.89-12.962-12.96-5.303-13.55 22.979-19.44 8.248z" fill="#2E5A9C"/><path d="M75.984 454.797l21.735 9.721 17.494-9.721 3.711-22.095 3.358-25.453h3.71v28.635l11.133 28.634 15.904 8.838 27.566 8.838 13.253 18.383 23.856 1.767 16.257-2.474 6.891-96.686 4.065-78.834 17.67 3.535-1.943 15.555-10.249-3.005-4.418 69.819 3.711 92.09 15.373-2.474 3.711-23.155 110.266 2.121 31.63 23.508 4.771-56.915v-115.6l7.069 1.768-2.298 112.948 6.185 1.767v54.972l62.908-76.89 2.474 6.01-59.374 70.703-3.711 37.473 8.306-11.313 6.538-8.484 10.249 1.944 1.59 8.308 10.779-1.768V514.01l33.575-20.503v-6.894h23.148l4.418 5.126 6.362-5.126 10.425-.884 10.956 9.015 37.816 1.414 1.943-8.308 9.543-.53 8.305 11.313 5.831-9.545 9.366.707-3.004 25.453 19.968 1.591 4.417 10.428 19.085-18.383 10.072 1.768v-50.729l-5.478-6.894 2.651-163.854 4.948 3.535-1.768 116.307 7.599-.354v99.514l18.731 17.146 3.004-91.56 6.715-8.662 3.18-30.755 5.478 7.423 4.595 25.277 7.598 9.545-5.301 27.927 5.301-5.656 12.193-20.327v-43.836l9.542-2.121 1.767 17.146 7.599-1.061 5.124-34.468 9.012 4.419v14.848l12.016 1.767 14.49-7.6 7.952 14.494 14.137-12.373 26.859 68.228 7.776-24.922 2.473-14.318 6.185-20.504 10.779 18.737 11.84 38.002-1.237 30.403 6.715 11.666 22.265-3.535-1.944-18.737 7.952-2.474 2.12-7.247 21.912-2.121 2.121 10.782 9.365 2.828 3.711 7.6 11.133-2.474v-11.489l10.425-7.247 20.855 9.014 20.49-35.351 3.89-84.314 19.79 90.323 40.12-6.009v-55.502l7.77-.884 9.37-93.151 11.48 98.807 8.31 1.061v49.669l30.39 38.886 19.97-19.266 43.82 2.828 21.91-6.01 5.66-26.337 23.86 30.933 6.71.353 4.77-27.044 158.86-1.59 9.9 40.831 17.14 6.54 12.72-31.993v-15.555l12.19-.53 7.78 18.029h44.35l4.07 14.494 21.91-33.23 16.79.883v14.141h26.15v-15.378l5.65 4.773 11.49 15.024 66.09-15.732 16.61-.883v12.019h7.95l12.19-21.918v-27.044l10.78-15.201v-14.847h6.36v14.317l12.9 17.499v27.928l10.43 19.266 15.19 2.298v-16.262l12.2 1.414V97.04l4.42 3.181 3.71 279.631 9.89-24.216 14.32 31.463-6.72 15.731 17.14 39.947 16.43-205.215v-46.664l9.37-3.535 2.83-90.323 8.66-8.838v-38.71l7.77-9.368-8.48-5.656-1.24-12.904 9.72-4.949V0h7.42v14.848l10.96 4.419v18.736l-11.49 6.186 6.54 9.368.53 33.584 18.73 22.625v70.173l14.14 7.424v53.734l19.08 195.494 10.61-63.103 14.13-2.474 19.09-22.272 4.94-24.923 9.9-43.835 9.9 44.719v28.988l20.67 12.374 14.14 8.307 9.01 22.271v65.401l21.73 3.181 13.96-28.634 5.84-13.611h8.3l9.37 17.676 14.13 27.574 77.58-4.242 26.33-30.932 18.73-3.005v-13.434l35.16 1.061v14.671l43.3-3.536 3.71 7.778h6.89v15.908h10.25v13.257h13.6l30.04 24.569v310.333H522.877L0 1341.59l75.984-886.793zM3176.17 430.452h-353.5v370H4458.5V569.803l-905.78-76.883-76.85-17.619-192.12-14.416-107.58-30.433z" fill="#2E5A9C"/></svg>