<svg width="5101" height="1024" viewBox="0 0 5101 1024" fill="none" xmlns="http://www.w3.org/2000/svg">
<path fill-rule="evenodd" clip-rule="evenodd" d="M9.28235 708.129L0.91394 574.452L34.3872 528.129L108.028 526.805L141.502 567.835L158.238 554.599L154.891 521.511L171.628 447.393L185.017 514.893L211.796 473.864L248.616 475.187V444.746L243.595 436.805L251.964 432.835L262.005 407.687L277.068 296.511L273.721 288.57L278.742 283.276L280.416 270.04H258.658V263.423L278.742 262.099V240.923L290.458 239.599L288.784 260.776H298.826L300.5 271.364L288.784 267.393L287.111 279.305L290.458 287.246L285.437 296.511L290.458 365.335L297.153 401.07L313.889 434.158L322.257 438.129L317.237 447.393L318.91 475.187L327.278 468.57L365.773 516.217L372.467 558.57L421.004 555.923L422.677 538.717L452.803 500.335L459.498 499.011L461.172 485.776L456.151 480.482L474.561 419.599L477.908 390.482L479.582 435.482L497.992 477.835L494.645 497.687L529.792 499.011L553.223 533.423L551.55 566.511L561.591 549.305L682.095 550.629L683.769 525.482L733.979 488.423L728.958 443.423L722.263 442.099L757.41 374.599L774.147 296.511L769.126 281.952L777.494 277.982L782.515 279.305L784.189 287.246L799.252 375.923L809.294 357.393L810.967 311.07L821.009 361.364L829.378 389.158L827.704 430.187L831.051 439.452L822.683 443.423L824.357 493.717L866.198 524.158L879.588 513.57L909.714 510.923L906.366 484.452L933.145 447.393L931.471 397.099L946.534 330.923L948.208 292.54L953.229 320.335L959.924 358.717L986.702 254.158L988.376 99.3051L996.744 103.276L1010.13 256.805L1030.22 369.305L1036.91 299.158L1046.95 354.746L1053.65 390.482L1055.32 439.452L1073.73 440.776L1070.39 389.158L1078.75 357.393C1078.75 357.393 1083.77 296.511 1085.45 296.511C1087.12 296.511 1093.82 354.746 1093.82 354.746L1105.53 313.717L1112.23 259.452L1117.25 173.423L1122.27 79.4521L1139.01 234.305L1165.78 366.658L1177.5 301.805L1182.52 362.687L1192.56 387.835L1187.54 394.452L1189.22 485.776L1215.99 461.952V451.364L1224.36 446.07V435.482L1229.38 431.511L1232.73 409.011L1234.4 435.482L1239.43 439.452L1237.75 450.04L1242.77 451.364L1241.1 464.599L1259.51 484.452L1261.18 518.864H1289.64L1301.35 528.129L1309.72 520.187L1323.11 522.835L1334.82 509.599L1316.41 506.952L1324.78 495.04L1339.85 497.687L1344.87 481.805L1336.5 473.864L1344.87 465.923L1356.58 473.864L1354.91 479.158L1356.58 496.364L1371.64 497.687L1369.97 505.629L1359.93 504.305L1368.3 520.187C1368.3 520.187 1390.06 520.187 1390.06 521.511C1390.06 522.835 1386.71 533.423 1386.71 533.423L1378.34 532.099L1396.75 554.599L1408.47 544.011L1406.79 415.629L1400.1 412.982L1411.81 393.129L1418.51 353.423L1420.18 309.746L1425.2 308.423L1430.22 371.952L1438.59 407.687L1453.65 308.423L1460.35 211.805L1465.37 156.217H1472.06L1488.8 324.305L1500.52 395.776L1507.21 416.952L1518.93 395.776L1520.6 319.011L1525.62 320.335L1535.66 401.07L1540.69 418.276V455.335L1677.93 459.305L1689.64 461.952L1718.09 509.599L1721.44 457.982L1706.38 454.011L1753.24 394.452L1754.91 709.452L9.28235 708.129Z" fill="#2E5A9C"/>
<path fill-rule="evenodd" clip-rule="evenodd" d="M1691.28 596.676L1682.91 463L1716.38 416.676L1790.02 415.353L1823.5 456.382L1840.23 443.147L1836.89 410.059L1853.62 335.941L1867.01 403.441L1893.79 362.412L1930.61 363.735V333.294L1925.59 325.353L1933.96 321.382L1944 296.235L1959.06 185.059L1955.72 177.118L1960.74 171.824L1962.41 158.588H1940.65V151.971L1960.74 150.647V129.471L1972.45 128.147L1970.78 149.324H1980.82L1982.5 159.912L1970.78 155.941L1969.11 167.853L1972.45 175.794L1967.43 185.059L1972.45 253.882L1979.15 289.618L1995.89 322.706L2004.25 326.676L1999.23 335.941L2000.91 363.735L2009.27 357.118L2047.77 404.765L2054.46 447.118L2103 444.471L2104.67 427.265L2134.8 388.882L2141.49 387.559L2143.17 374.324L2138.15 369.029L2156.56 308.147L2159.9 279.029L2161.58 324.029L2179.99 366.382L2176.64 386.235L2211.79 387.559L2235.22 421.971L2233.55 455.059L2243.59 437.853L2364.09 439.177L2365.77 414.029L2415.97 376.971L2410.95 331.971L2404.26 330.647L2439.41 263.147L2456.14 185.059L2451.12 170.5L2459.49 166.529L2464.51 167.853L2466.18 175.794L2481.25 264.471L2491.29 245.941L2492.96 199.618L2503.01 249.912L2511.37 277.706L2509.7 318.735L2513.05 328L2504.68 331.971L2506.35 382.265L2548.19 412.706L2561.58 402.118L2591.71 399.471L2588.36 373L2615.14 335.941L2613.47 285.647L2628.53 219.471L2630.2 181.088L2635.23 208.882L2641.92 247.265L2668.7 142.706L2670.37 -12.1471L2678.74 -8.17647L2692.13 145.353L2712.21 257.853L2718.91 187.706L2728.95 243.294L2735.64 279.029L2737.32 328L2755.73 329.324L2752.38 277.706L2760.75 245.941C2760.75 245.941 2765.77 185.059 2767.44 185.059C2769.12 185.059 2775.81 243.294 2775.81 243.294L2787.53 202.265L2794.22 148L2799.24 61.9706L2804.27 -32L2821 122.853L2847.78 255.206L2859.5 190.353L2864.52 251.235L2874.56 276.382L2869.54 283L2871.21 374.324L2897.99 350.5V339.912L2906.36 334.618V324.029L2911.38 320.059L2914.73 297.559L2916.4 324.029L2921.42 328L2919.75 338.588L2924.77 339.912L2923.1 353.147L2941.51 373L2943.18 407.412H2971.63L2983.35 416.676L2991.72 408.735L3005.1 411.382L3016.82 398.147L2998.41 395.5L3006.78 383.588L3021.84 386.235L3026.86 370.353L3018.49 362.412L3026.86 354.471L3038.58 362.412L3036.9 367.706L3038.58 384.912L3053.64 386.235L3051.97 394.176L3041.93 392.853L3050.29 408.735C3050.29 408.735 3072.05 408.735 3072.05 410.059C3072.05 411.382 3068.7 421.971 3068.7 421.971L3060.34 420.647L3078.75 443.147L3090.46 432.559L3088.79 304.176L3082.09 301.529L3093.81 281.676L3100.5 241.971L3102.18 198.294L3107.2 196.971L3112.22 260.5L3120.59 296.235L3135.65 196.971L3142.35 100.353L3147.37 44.7647H3154.06L3170.8 212.853L3182.51 284.324L3189.21 305.5L3200.92 284.324L3202.6 207.559L3207.62 208.882L3217.66 289.618L3222.68 306.824V343.882L3359.92 347.853L3371.64 350.5L3400.09 398.147L3403.44 346.529L3388.37 342.559L3435.24 283L3436.91 598L1691.28 596.676Z" fill="#2E5A9C"/>
<path d="M1784.92 456.439L1752.52 396.833L1725.38 549.382L127 696L690.5 888.5L907 1024H5100.5L5098.21 471.54L2365.09 586.297H2292.86L2262.37 555.802L2213.41 549.382L2164.46 575.957L2110.69 503.64H1978.28L1916.49 575.957L1908.46 461.331L1938.16 471.54L1901.24 396.833L1850.68 461.331H1872.35L1864.33 575.957H1771.33L1763.21 461.331L1784.92 456.439Z" fill="#2E5A9C"/>
</svg>
