<svg width="5159" height="1024" viewBox="0 0 5159 1024" fill="none" xmlns="http://www.w3.org/2000/svg">
<path fill-rule="evenodd" clip-rule="evenodd" d="M69.2823 708.129L60.9139 574.452L94.3872 528.129L168.028 526.805L201.502 567.835L218.238 554.599L214.891 521.511L231.628 447.393L245.017 514.893L271.796 473.864L308.616 475.187V444.746L303.595 436.805L311.964 432.835L322.005 407.687L337.068 296.511L333.721 288.57L338.742 283.276L340.416 270.04H318.658V263.423L338.742 262.099V240.923L350.458 239.599L348.784 260.776H358.826L360.5 271.364L348.784 267.393L347.111 279.305L350.458 287.246L345.437 296.511L350.458 365.335L357.153 401.07L373.889 434.158L382.257 438.129L377.237 447.393L378.91 475.187L387.278 468.57L425.773 516.217L432.467 558.57L481.004 555.923L482.677 538.717L512.803 500.335L519.498 499.011L521.172 485.776L516.151 480.482L534.561 419.599L537.908 390.482L539.582 435.482L557.992 477.835L554.645 497.687L589.792 499.011L613.223 533.423L611.55 566.511L621.591 549.305L742.095 550.629L743.769 525.482L793.979 488.423L788.958 443.423L782.263 442.099L817.41 374.599L834.147 296.511L829.126 281.952L837.494 277.982L842.515 279.305L844.189 287.246L859.252 375.923L869.294 357.393L870.967 311.07L881.009 361.364L889.378 389.158L887.704 430.187L891.051 439.452L882.683 443.423L884.357 493.717L926.198 524.158L939.588 513.57L969.714 510.923L966.366 484.452L993.145 447.393L991.471 397.099L1006.53 330.923L1008.21 292.54L1013.23 320.335L1019.92 358.717L1046.7 254.158L1048.38 99.3051L1056.74 103.276L1070.13 256.805L1090.22 369.305L1096.91 299.158L1106.95 354.746L1113.65 390.482L1115.32 439.452L1133.73 440.776L1130.39 389.158L1138.75 357.393C1138.75 357.393 1143.77 296.511 1145.45 296.511C1147.12 296.511 1153.82 354.746 1153.82 354.746L1165.53 313.717L1172.23 259.452L1177.25 173.423L1182.27 79.4521L1199.01 234.305L1225.78 366.658L1237.5 301.805L1242.52 362.687L1252.56 387.835L1247.54 394.452L1249.22 485.776L1275.99 461.952V451.364L1284.36 446.07V435.482L1289.38 431.511L1292.73 409.011L1294.4 435.482L1299.43 439.452L1297.75 450.04L1302.77 451.364L1301.1 464.599L1319.51 484.452L1321.18 518.864H1349.64L1361.35 528.129L1369.72 520.187L1383.11 522.835L1394.82 509.599L1376.41 506.952L1384.78 495.04L1399.85 497.687L1404.87 481.805L1396.5 473.864L1404.87 465.923L1416.58 473.864L1414.91 479.158L1416.58 496.364L1431.64 497.687L1429.97 505.629L1419.93 504.305L1428.3 520.187C1428.3 520.187 1450.06 520.187 1450.06 521.511C1450.06 522.835 1446.71 533.423 1446.71 533.423L1438.34 532.099L1456.75 554.599L1468.47 544.011L1466.79 415.629L1460.1 412.982L1471.81 393.129L1478.51 353.423L1480.18 309.746L1485.2 308.423L1490.22 371.952L1498.59 407.687L1513.65 308.423L1520.35 211.805L1525.37 156.217H1532.06L1548.8 324.305L1560.52 395.776L1567.21 416.952L1578.93 395.776L1580.6 319.011L1585.62 320.335L1595.66 401.07L1600.69 418.276V455.335L1737.93 459.305L1749.64 461.952L1778.09 509.599L1781.44 457.982L1766.38 454.011L1813.24 394.452L1814.91 709.452L69.2823 708.129Z" fill="#2E5A9C"/>
<path fill-rule="evenodd" clip-rule="evenodd" d="M1751.28 596.676L1742.91 463L1776.38 416.676L1850.02 415.353L1883.5 456.382L1900.23 443.147L1896.89 410.059L1913.62 335.941L1927.01 403.441L1953.79 362.412L1990.61 363.735V333.294L1985.59 325.353L1993.96 321.382L2004 296.235L2019.06 185.059L2015.72 177.118L2020.74 171.824L2022.41 158.588H2000.65V151.971L2020.74 150.647V129.471L2032.45 128.147L2030.78 149.324H2040.82L2042.5 159.912L2030.78 155.941L2029.11 167.853L2032.45 175.794L2027.43 185.059L2032.45 253.882L2039.15 289.618L2055.89 322.706L2064.25 326.676L2059.23 335.941L2060.91 363.735L2069.27 357.118L2107.77 404.765L2114.46 447.118L2163 444.471L2164.67 427.265L2194.8 388.882L2201.49 387.559L2203.17 374.324L2198.15 369.029L2216.56 308.147L2219.9 279.029L2221.58 324.029L2239.99 366.382L2236.64 386.235L2271.79 387.559L2295.22 421.971L2293.55 455.059L2303.59 437.853L2424.09 439.177L2425.77 414.029L2475.97 376.971L2470.95 331.971L2464.26 330.647L2499.41 263.147L2516.14 185.059L2511.12 170.5L2519.49 166.529L2524.51 167.853L2526.18 175.794L2541.25 264.471L2551.29 245.941L2552.96 199.618L2563.01 249.912L2571.37 277.706L2569.7 318.735L2573.05 328L2564.68 331.971L2566.35 382.265L2608.19 412.706L2621.58 402.118L2651.71 399.471L2648.36 373L2675.14 335.941L2673.47 285.647L2688.53 219.471L2690.2 181.088L2695.23 208.882L2701.92 247.265L2728.7 142.706L2730.37 -12.1471L2738.74 -8.17647L2752.13 145.353L2772.21 257.853L2778.91 187.706L2788.95 243.294L2795.64 279.029L2797.32 328L2815.73 329.324L2812.38 277.706L2820.75 245.941C2820.75 245.941 2825.77 185.059 2827.44 185.059C2829.12 185.059 2835.81 243.294 2835.81 243.294L2847.53 202.265L2854.22 148L2859.24 61.9706L2864.27 -32L2881 122.853L2907.78 255.206L2919.5 190.353L2924.52 251.235L2934.56 276.382L2929.54 283L2931.21 374.324L2957.99 350.5V339.912L2966.36 334.618V324.029L2971.38 320.059L2974.73 297.559L2976.4 324.029L2981.42 328L2979.75 338.588L2984.77 339.912L2983.1 353.147L3001.51 373L3003.18 407.412H3031.63L3043.35 416.676L3051.72 408.735L3065.1 411.382L3076.82 398.147L3058.41 395.5L3066.78 383.588L3081.84 386.235L3086.86 370.353L3078.49 362.412L3086.86 354.471L3098.58 362.412L3096.9 367.706L3098.58 384.912L3113.64 386.235L3111.97 394.176L3101.93 392.853L3110.29 408.735C3110.29 408.735 3132.05 408.735 3132.05 410.059C3132.05 411.382 3128.7 421.971 3128.7 421.971L3120.34 420.647L3138.75 443.147L3150.46 432.559L3148.79 304.176L3142.09 301.529L3153.81 281.676L3160.5 241.971L3162.18 198.294L3167.2 196.971L3172.22 260.5L3180.59 296.235L3195.65 196.971L3202.35 100.353L3207.37 44.7647H3214.06L3230.8 212.853L3242.51 284.324L3249.21 305.5L3260.92 284.324L3262.6 207.559L3267.62 208.882L3277.66 289.618L3282.68 306.824V343.882L3419.92 347.853L3431.64 350.5L3460.09 398.147L3463.44 346.529L3448.37 342.559L3495.24 283L3496.91 598L1751.28 596.676Z" fill="#2E5A9C"/>
<path d="M1844.92 456.439L1812.52 396.833L1785.38 549.382L278.572 665.249L0.84375 1055.52H5158.21V471.54L2425.09 586.297H2352.86L2322.37 555.802L2273.41 549.382L2224.46 575.957L2170.69 503.64H2038.28L1976.49 575.957L1968.46 461.331L1998.16 471.54L1961.24 396.833L1910.68 461.331H1932.35L1924.33 575.957H1831.33L1823.21 461.331L1844.92 456.439Z" fill="#2E5A9C"/>
</svg>
