<svg width="5101" height="1024" fill="none" xmlns="http://www.w3.org/2000/svg"><path fill-rule="evenodd" clip-rule="evenodd" d="M9.282 708.129L.914 574.452l33.473-46.323 73.641-1.324 33.474 41.03 16.736-13.236-3.347-33.088 16.737-74.118 13.389 67.5 26.779-41.029 36.82 1.323v-30.441l-5.021-7.941 8.369-3.97 10.041-25.148 15.063-111.176-3.347-7.941 5.021-5.294 1.674-13.236h-21.758v-6.617l20.084-1.324v-21.176l11.716-1.324-1.674 21.177h10.042l1.674 10.588-11.716-3.971-1.673 11.912 3.347 7.941-5.021 9.265 5.021 68.824 6.695 35.735 16.736 33.088 8.368 3.971-5.02 9.264 1.673 27.794 8.368-6.617 38.495 47.647 6.694 42.353 48.537-2.647 1.673-17.206 30.126-38.382 6.695-1.324 1.674-13.235-5.021-5.294 18.41-60.883 3.347-29.117 1.674 45 18.41 42.353-3.347 19.852 35.147 1.324 23.431 34.412-1.673 33.088 10.041-17.206 120.504 1.324 1.674-25.147 50.21-37.059-5.021-45-6.695-1.324 35.147-67.5 16.737-78.088-5.021-14.559 8.368-3.97 5.021 1.323 1.674 7.941 15.063 88.677 10.042-18.53 1.673-46.323 10.042 50.294 8.369 27.794-1.674 41.029 3.347 9.265-8.368 3.971 1.674 50.294 41.841 30.441 13.39-10.588 30.126-2.647-3.348-26.471 26.779-37.059-1.674-50.294 15.063-66.176 1.674-38.383 5.021 27.795 6.695 38.382 26.778-104.559 1.674-154.853 8.368 3.971 13.386 153.529 20.09 112.5 6.69-70.147 10.04 55.588 6.7 35.736 1.67 48.97 18.41 1.324-3.34-51.618 8.36-31.765s5.02-60.882 6.7-60.882c1.67 0 8.37 58.235 8.37 58.235l11.71-41.029 6.7-54.265 5.02-86.029 5.02-93.97 16.74 154.852 26.77 132.353 11.72-64.853 5.02 60.882 10.04 25.148-5.02 6.617 1.68 91.324 26.77-23.824v-10.588l8.37-5.294v-10.588l5.02-3.971 3.35-22.5 1.67 26.471 5.03 3.97-1.68 10.588 5.02 1.324-1.67 13.235 18.41 19.853 1.67 34.412h28.46l11.71 9.265 8.37-7.942 13.39 2.648 11.71-13.236-18.41-2.647 8.37-11.912 15.07 2.647 5.02-15.882-8.37-7.941 8.37-7.941 11.71 7.941-1.67 5.294 1.67 17.206 15.06 1.323-1.67 7.942-10.04-1.324 8.37 15.882s21.76 0 21.76 1.324-3.35 11.912-3.35 11.912l-8.37-1.324 18.41 22.5 11.72-10.588-1.68-128.382-6.69-2.647 11.71-19.853 6.7-39.706 1.67-43.677 5.02-1.323 5.02 63.529 8.37 35.735 15.06-99.264 6.7-96.618 5.02-55.588h6.69l16.74 168.088 11.72 71.471 6.69 21.176 11.72-21.176 1.67-76.765 5.02 1.324 10.04 80.735 5.03 17.206v37.059l137.24 3.97 11.71 2.647 28.45 47.647 3.35-51.617-15.06-3.971 46.86-59.559 1.67 315L9.282 708.129z" fill="#2E5A9C"/><path fill-rule="evenodd" clip-rule="evenodd" d="M1691.28 596.676L1682.91 463l33.47-46.324 73.64-1.323 33.48 41.029 16.73-13.235-3.34-33.088 16.73-74.118 13.39 67.5 26.78-41.029 36.82 1.323v-30.441l-5.02-7.941 8.37-3.971 10.04-25.147 15.06-111.176-3.34-7.941 5.02-5.294 1.67-13.236h-21.76v-6.617l20.09-1.324v-21.176l11.71-1.324-1.67 21.177h10.04l1.68 10.588-11.72-3.971-1.67 11.912 3.34 7.941-5.02 9.265 5.02 68.823 6.7 35.736 16.74 33.088 8.36 3.97-5.02 9.265 1.68 27.794 8.36-6.617 38.5 47.647 6.69 42.353 48.54-2.647 1.67-17.206 30.13-38.383 6.69-1.323 1.68-13.235-5.02-5.295 18.41-60.882 3.34-29.118 1.68 45 18.41 42.353-3.35 19.853 35.15 1.324 23.43 34.412-1.67 33.088 10.04-17.206 120.5 1.324 1.68-25.148 50.2-37.058-5.02-45-6.69-1.324 35.15-67.5 16.73-78.088-5.02-14.559 8.37-3.971 5.02 1.324 1.67 7.941 15.07 88.677 10.04-18.53 1.67-46.323 10.05 50.294 8.36 27.794-1.67 41.029 3.35 9.265-8.37 3.971 1.67 50.294 41.84 30.441 13.39-10.588 30.13-2.647-3.35-26.471 26.78-37.059-1.67-50.294 15.06-66.176 1.67-38.383 5.03 27.794 6.69 38.383 26.78-104.559 1.67-154.853 8.37 3.97 13.39 153.53 20.08 112.5 6.7-70.147 10.04 55.588 6.69 35.735 1.68 48.971 18.41 1.324-3.35-51.618 8.37-31.765s5.02-60.882 6.69-60.882c1.68 0 8.37 58.235 8.37 58.235l11.72-41.029 6.69-54.265 5.02-86.03 5.03-93.97L2821 122.853l26.78 132.353 11.72-64.853 5.02 60.882 10.04 25.147-5.02 6.618 1.67 91.324 26.78-23.824v-10.588l8.37-5.294v-10.589l5.02-3.97 3.35-22.5 1.67 26.47 5.02 3.971-1.67 10.588 5.02 1.324-1.67 13.235L2941.51 373l1.67 34.412h28.45l11.72 9.264 8.37-7.941 13.38 2.647 11.72-13.235-18.41-2.647 8.37-11.912 15.06 2.647 5.02-15.882-8.37-7.941 8.37-7.941 11.72 7.941-1.68 5.294 1.68 17.206 15.06 1.323-1.67 7.941-10.04-1.323 8.36 15.882s21.76 0 21.76 1.324c0 1.323-3.35 11.912-3.35 11.912l-8.36-1.324 18.41 22.5 11.71-10.588-1.67-128.383-6.7-2.647 11.72-19.853 6.69-39.705 1.68-43.677 5.02-1.323 5.02 63.529 8.37 35.735 15.06-99.264 6.7-96.618 5.02-55.588h6.69l16.74 168.088 11.71 71.471 6.7 21.176 11.71-21.176 1.68-76.765 5.02 1.323 10.04 80.736 5.02 17.206v37.058l137.24 3.971 11.72 2.647 28.45 47.647 3.35-51.618-15.07-3.97L3435.24 283l1.67 315-1745.63-1.324z" fill="#2E5A9C"/><path d="M1784.92 456.439l-32.4-59.606-27.14 152.549L127 696l563.5 192.5L907 1024h4193.5l-2.29-552.46-2733.12 114.757h-72.23l-30.49-30.495-48.96-6.42-48.95 26.575-53.77-72.317h-132.41l-61.79 72.317-8.03-114.626 29.7 10.209-36.92-74.707-50.56 64.498h21.67l-8.02 114.626h-93l-8.12-114.626 21.71-4.892z" fill="#2E5A9C"/></svg>