<svg width="3436" height="1024" viewBox="0 0 3436 1024" fill="none" xmlns="http://www.w3.org/2000/svg">
<path fill-rule="evenodd" clip-rule="evenodd" d="M8.36829 1020.68L0.00170898 523.452L33.475 477.129L107.116 475.805L140.589 516.835L157.326 503.599L153.979 470.511L170.715 396.393L184.105 463.893L210.883 422.864L247.704 424.187V393.746L242.683 385.805L251.051 381.835L261.093 356.687L276.156 245.511L272.809 237.57L277.83 232.276L279.504 219.04H257.746V212.423L277.83 211.099V189.923L289.546 188.599L287.872 209.776H297.914L299.588 220.364L287.872 216.393L286.198 228.305L289.546 236.246L284.525 245.511L289.546 314.335L296.24 350.07L312.977 383.158L321.345 387.129L316.324 396.393L317.998 424.187L326.366 417.57L364.86 465.217L371.555 507.57L420.091 504.923L421.765 487.717L451.891 449.335L458.586 448.011L460.259 434.776L455.238 429.482L473.649 368.599L476.996 339.482L478.67 384.482L497.08 426.835L493.733 446.687L528.88 448.011L552.311 482.423L550.637 515.511L560.679 498.305L681.183 499.629L682.857 474.482L733.067 437.423L728.046 392.423L721.351 391.099L756.498 323.599L773.234 245.511L768.214 230.952L776.582 226.982L781.603 228.305L783.277 236.246L798.339 324.923L808.382 306.393L810.055 260.07L820.097 310.364L828.465 338.158L826.792 379.187L830.139 388.452L821.771 392.423L823.444 442.717L865.286 473.158L878.675 462.57L908.801 459.923L905.454 433.452L932.233 396.393L930.559 346.099L945.622 279.923L947.296 241.54L952.317 269.335L959.011 307.717L985.79 203.158L987.464 48.3051L995.832 52.2757L1009.22 205.805L1029.31 318.305L1036 248.158L1046.04 303.746L1052.74 339.482L1054.41 388.452L1072.82 389.776L1069.47 338.158L1077.84 306.393C1077.84 306.393 1082.86 245.511 1084.54 245.511C1086.21 245.511 1092.9 303.746 1092.9 303.746L1104.62 262.717L1111.31 208.452L1116.34 122.423L1121.36 28.4521L1138.09 183.305L1164.87 315.658L1176.59 250.805L1181.61 311.687L1191.65 336.835L1186.63 343.452L1188.3 434.776L1215.08 410.952V400.364L1223.45 395.07V384.482L1228.47 380.511L1231.82 358.011L1233.49 384.482L1238.51 388.452L1236.84 399.04L1241.86 400.364L1240.19 413.599L1258.6 433.452L1260.27 467.864H1288.72L1300.44 477.129L1308.81 469.187L1322.2 471.835L1333.91 458.599L1315.5 455.952L1323.87 444.04L1338.93 446.687L1343.95 430.805L1335.59 422.864L1343.95 414.923L1355.67 422.864L1354 428.158L1355.67 445.364L1370.73 446.687L1369.06 454.629L1359.02 453.305L1367.39 469.187C1367.39 469.187 1389.14 469.187 1389.14 470.511C1389.14 471.835 1385.8 482.423 1385.8 482.423L1377.43 481.099L1395.84 503.599L1407.55 493.011L1405.88 364.629L1399.18 361.982L1410.9 342.129L1417.6 302.423L1419.27 258.746L1424.29 257.423L1429.31 320.952L1437.68 356.687L1452.74 257.423L1459.44 160.805L1464.46 105.217H1471.15L1487.89 273.305L1499.6 344.776L1506.3 365.952L1518.02 344.776L1519.69 268.011L1524.71 269.335L1534.75 350.07L1539.77 367.276V404.335L1677.01 408.305L1688.73 410.952L1717.18 458.599L1720.53 406.982L1705.47 403.011L1752.33 343.452L1754 1022L8.36829 1020.68Z" fill="#2E5A9C"/>
<path fill-rule="evenodd" clip-rule="evenodd" d="M1690.36 1022.5L1682 412L1715.47 365.676L1789.11 364.353L1822.59 405.382L1839.32 392.147L1835.97 359.059L1852.71 284.941L1866.1 352.441L1892.88 311.412L1929.7 312.735V282.294L1924.68 274.353L1933.05 270.382L1943.09 245.235L1958.15 134.059L1954.81 126.118L1959.83 120.824L1961.5 107.588H1939.74V100.971L1959.83 99.6471V78.4706L1971.54 77.1471L1969.87 98.3235H1979.91L1981.58 108.912L1969.87 104.941L1968.19 116.853L1971.54 124.794L1966.52 134.059L1971.54 202.882L1978.24 238.618L1994.97 271.706L2003.34 275.676L1998.32 284.941L1999.99 312.735L2008.36 306.118L2046.86 353.765L2053.55 396.118L2102.09 393.471L2103.76 376.265L2133.89 337.882L2140.58 336.559L2142.26 323.324L2137.23 318.029L2155.64 257.147L2158.99 228.029L2160.67 273.029L2179.08 315.382L2175.73 335.235L2210.88 336.559L2234.31 370.971L2232.63 404.059L2242.68 386.853L2363.18 388.177L2364.85 363.029L2415.06 325.971L2410.04 280.971L2403.35 279.647L2438.49 212.147L2455.23 134.059L2450.21 119.5L2458.58 115.529L2463.6 116.853L2465.27 124.794L2480.34 213.471L2490.38 194.941L2492.05 148.618L2502.09 198.912L2510.46 226.706L2508.79 267.735L2512.14 277L2503.77 280.971L2505.44 331.265L2547.28 361.706L2560.67 351.118L2590.8 348.471L2587.45 322L2614.23 284.941L2612.56 234.647L2627.62 168.471L2629.29 130.088L2634.31 157.882L2641.01 196.265L2667.79 91.7059L2669.46 -63.1471L2677.83 -59.1765L2691.22 94.353L2711.3 206.853L2718 136.706L2728.04 192.294L2734.73 228.029L2736.41 277L2754.82 278.324L2751.47 226.706L2759.84 194.941C2759.84 194.941 2764.86 134.059 2766.53 134.059C2768.21 134.059 2774.9 192.294 2774.9 192.294L2786.62 151.265L2793.31 97L2798.33 10.9706L2803.35 -83L2820.09 71.853L2846.87 204.206L2858.58 139.353L2863.6 200.235L2873.65 225.382L2868.63 232L2870.3 323.324L2897.08 299.5V288.912L2905.45 283.618V273.029L2910.47 269.059L2913.81 246.559L2915.49 273.029L2920.51 277L2918.84 287.588L2923.86 288.912L2922.18 302.147L2940.59 322L2942.27 356.412H2970.72L2982.43 365.676L2990.8 357.735L3004.19 360.382L3015.91 347.147L2997.5 344.5L3005.87 332.588L3020.93 335.235L3025.95 319.353L3017.58 311.412L3025.95 303.471L3037.67 311.412L3035.99 316.706L3037.67 333.912L3052.73 335.235L3051.06 343.176L3041.01 341.853L3049.38 357.735C3049.38 357.735 3071.14 357.735 3071.14 359.059C3071.14 360.382 3067.79 370.971 3067.79 370.971L3059.42 369.647L3077.83 392.147L3089.55 381.559L3087.88 253.176L3081.18 250.529L3092.9 230.676L3099.59 190.971L3101.27 147.294L3106.29 145.971L3111.31 209.5L3119.68 245.235L3134.74 145.971L3141.43 49.353L3146.45 -6.23529H3153.15L3169.89 161.853L3181.6 233.324L3188.3 254.5L3200.01 233.324L3201.68 156.559L3206.71 157.882L3216.75 238.618L3221.77 255.824V292.882L3359.01 296.853L3370.72 299.5L3399.18 347.147L3402.52 295.529L3387.46 291.559L3434.32 232L3436 1023.82L1690.36 1022.5Z" fill="#2E5A9C"/>
</svg>
