<svg id="e4e6e2khy1yr1" xmlns="http://www.w3.org/2000/svg" xmlns:xlink="http://www.w3.org/1999/xlink" viewBox="0 0 5184 1051.700000" shape-rendering="geometricPrecision" text-rendering="geometricPrecision"><g id="e4e6e2khy1yr2"><path id="e4e6e2khy1yr3" d="M1587.700000,180L1591.200000,184.900000L1600.400000,193.700000L1616.400000,197.300000L1635.400000,201L1646,207.200000L1656.500000,215.700000L1658.100000,226.800000L1651.300000,235.100000L1643.400000,239L1641.200000,248.900000L1642.700000,250.400000L1642.700000,252.700000L1639.500000,256.900000L1646,347.900000L1741.600000,360.100000L1745.200000,314.700000L1776.600000,302.800000L1819.300000,292.500000L1806.500000,282.600000L1806.500000,264.900000L1806.500000,210.700000L1803,197.300000L1837.300000,166L1877.100000,191.700000L1875.200000,204.500000L1882.600000,267.100000L1882.600000,279.300000L1877.100000,302.700000L1993.900000,294.400000L1993.900000,295.500000L2052,373.100000L2052,373L2066.500000,373L2071.300000,321.300000C2077.200000,315.400000,2090.400000,302.500000,2095.500000,298.700000C2098.700000,292.200000,2094.900000,279.600000,2092.600000,274.200000L2093.800000,261.100000L2101.100000,259.200000L2101.100000,258.200000L2107.700000,272.400000L2104.800000,288.500000L2106,300.800000L2126.100000,321.500000L2130.600000,304.200000L2130.600000,274.300000L2140.800000,261.200000C2134.200000,250.700000,2131.800000,223.400000,2174.700000,198.600000C2180.100000,180.400000,2182.400000,161.900000,2182.800000,154.900000L2189,129.800000L2199.700000,145.400000L2199.700000,192.700000C2217.800000,202.700000,2251.300000,231.100000,2240.700000,264.900000C2248.600000,270.800000,2251.100000,297.100000,2251.400000,309.500000C2254.600000,307.100000,2261.700000,301.700000,2264.900000,298.800000C2266.600000,287,2268.200000,276.300000,2268.900000,272.400000L2267.900000,261.200000L2275.500000,255.300000L2284.300000,263.200000L2280.700000,272.400000L2280.700000,297L2301.400000,321.400000L2304,347.700000L2318.300000,376.200000L2338.600000,369.500000L2338.700000,369.800000L2347.200000,353.200000L2351.800000,357L2359.800000,357L2359.800000,348.300000L2372.300000,342.600000L2384.100000,342.600000L2384.100000,322.800000L2379.200000,314.800000L2379.200000,305.700000L2411.900000,302.700000L2416.500000,299.700000L2414.200000,296.100000L2414.200000,292.300000L2416.500000,290.700000L2426,288.300000L2423.900000,281.600000L2420.800000,273.300000L2421.800000,269.400000L2427.300000,264.100000L2427.300000,261L2426,256.500000L2424.700000,253.600000L2426.300000,253.300000L2429.300000,253.800000L2430.800000,257.600000L2431.700000,259.300000L2434.700000,258.600000L2437.500000,252.400000L2437.500000,249.600000L2441.400000,243.900000L2440,240.500000L2431.700000,235.100000L2429.200000,230L2429.600000,226.100000L2431.500000,226.500000L2431.700000,229.200000L2432.600000,232.100000L2435.700000,234.100000L2440,236.700000L2437.500000,230.200000L2435.100000,224.500000L2432.300000,219.100000L2430.600000,215.600000L2432.800000,216.600000L2435.900000,223.500000L2439.500000,229.400000L2440.700000,232.600000L2441.500000,232.900000L2442.300000,230.900000L2441.500000,228.900000L2442.100000,228L2443.300000,228.900000L2444.200000,227.400000L2445.400000,227.400000L2445.400000,229.700000L2446.900000,229.400000L2447,230.900000L2448.700000,229.800000L2448.900000,230.600000L2447.600000,232.200000L2447.600000,232.700000L2449.100000,232.700000L2449.100000,233.600000L2447.600000,233.900000L2447.300000,235.400000L2447.600000,235.700000L2450.800000,233.100000L2454.700000,226L2458,219.500000L2461.700000,214.800000L2462,218.500000L2458.900000,226L2458.900000,229L2455.300000,233.900000L2455.600000,235L2454.700000,235.700000L2455.800000,237L2456.700000,239.300000L2456.700000,243.500000L2455,245.100000L2455,247.700000L2453.600000,248L2454.300000,249.400000L2454,251.300000L2454.700000,252.100000L2456.800000,253.200000L2458,254.700000L2458,257.200000L2458,258.100000L2460,259.500000L2462.100000,258.800000L2460.900000,256.500000L2462.100000,254.500000L2464.100000,253.700000L2466.700000,254L2468.100000,255.500000L2467.600000,257.600000L2465.900000,259.800000L2464.700000,261.800000L2468.800000,268L2469.300000,269.500000L2469.300000,270.600000L2470.500000,270.600000L2471.300000,271.600000L2471.600000,273.300000L2470.800000,275L2468.900000,276.600000L2468.100000,277.600000L2468.400000,278.500000L2468.700000,280.400000L2467.500000,281.200000L2466.700000,279.600000L2466,280.800000L2467.700000,281.700000L2468.700000,282.700000L2467.500000,283.600000L2465.300000,283.600000L2463.500000,281.700000L2462.600000,281.700000L2463.500000,282.400000L2467.400000,288.100000L2465.900000,289.200000L2465.200000,290.600000L2468,290.200000L2469.200000,291L2469.200000,292.100000L2471.200000,293.100000L2476.700000,301.100000L2477.700000,303.500000L2479.700000,303L2479.700000,296.900000L2478.800000,296.600000L2479,293.300000L2480.400000,294L2480.800000,289.800000L2481.600000,287.800000L2481.900000,285.100000L2485.600000,279.600000L2484.100000,277.600000L2480.700000,274.400000L2477.900000,274.400000L2477.600000,275.800000L2475.300000,276.900000L2474.800000,276.600000L2476.900000,273.700000L2481,271.100000L2484.100000,273.500000L2486.100000,270.600000L2487.400000,266.400000L2491.500000,263.800000L2491.500000,261.800000L2494,262.600000L2495.100000,261.200000L2497.500000,261.200000L2499.600000,263.400000L2500.800000,266L2502.300000,266.700000L2503.100000,269.200000L2502,273.300000L2500.800000,275.700000L2497.800000,277.500000L2495.800000,278.400000L2497.600000,279.500000L2500.100000,280.700000L2502.300000,280.700000L2503.600000,282.300000L2504,285.700000L2502.700000,287.700000L2503.100000,291.400000L2501.700000,291.900000L2500.400000,288L2499.600000,284.100000L2497.700000,287.100000L2495.700000,288.400000L2496.900000,289.100000L2496.900000,290L2495.900000,290L2496.500000,291.100000L2497.500000,292.800000L2497.200000,293.800000L2499.200000,295L2505.800000,293.800000L2507.500000,291.900000L2508.800000,288.400000L2509.100000,280.300000L2510.400000,267.100000L2510.900000,267.600000L2509.600000,280.700000L2510.400000,288.500000L2512.600000,290.900000L2527.500000,284.200000L2567.500000,266.400000L2625,241.200000L2622.500000,239.100000L2624.600000,238.400000L2622.500000,236.700000L2625,235.100000L2627.800000,236.700000L2629.700000,236.900000L2627.200000,233.500000L2628.600000,232.100000L2633.400000,234.300000L2636,232.900000L2637.500000,230L2640.700000,231.600000L2643.500000,230.900000L2643.500000,228L2642.100000,228L2640.600000,226.500000L2640.600000,222.600000L2643.900000,222.600000L2643.400000,219.300000L2645,218.200000L2643.900000,216.200000L2640.100000,201.300000L2638.800000,201.300000L2638.900000,199.800000L2641.100000,199.300000L2645.700000,199.800000L2646.500000,198.400000L2645.700000,195.700000L2645.700000,193.500000L2647.100000,193.500000L2649,194L2649.300000,195.700000L2649,196.800000L2650.300000,196.800000L2651,198.400000L2651.800000,197.800000L2651,195.700000L2651.800000,189.300000L2651.400000,184.700000L2652.700000,178.100000L2654.200000,176.100000L2654,174L2652.700000,173.200000L2652.900000,172.100000L2654,172.300000L2654,171.400000L2655.200000,171.200000L2655.200000,172.100000L2655.700000,172.100000L2655.700000,170.700000L2657.500000,170L2658.400000,171.200000L2658.400000,172.100000L2659.300000,172.100000L2659.100000,171.100000L2660.200000,171.100000L2660.200000,172.400000L2661.100000,172.400000L2661.300000,173.300000L2660.100000,173.600000L2660.100000,176.300000L2662.600000,180.700000L2662.600000,186.100000L2661.400000,188L2661.400000,192.400000L2661.800000,197.300000L2663.200000,197.300000L2662.900000,195.800000L2663.200000,193.200000L2666,193.200000L2667.100000,195.800000L2665.300000,196.700000L2665.300000,198.400000L2667.300000,200.200000L2668.600000,198.800000L2670.600000,199.200000L2669.500000,200.900000L2674.500000,200.900000L2671.500000,204.700000L2670.600000,206.300000L2670.600000,211.900000L2668.700000,212.700000L2669.100000,215.500000L2669.100000,219.400000L2671,221.200000L2671,222.800000L2672.700000,222.400000L2672.700000,225L2673.300000,226.100000L2672.300000,227.800000L2671.500000,228.800000L2671.500000,231L2673.300000,231L2673.700000,229.900000L2676.100000,229.900000L2678.100000,232.200000L2680.100000,234L2683.600000,231.900000L2685.700000,231.600000L2686.400000,232.100000L2685.800000,234.400000L2683.900000,235.700000L2685.300000,236L2687.200000,234.900000L2690.400000,234.900000L2691,236.600000L2689.100000,237.500000L2691,238.100000L2691,239.400000L2688.700000,239.900000L2689.100000,241.200000L2691,241.600000L2801,290.500000L2802.500000,289.300000L2802.500000,287L2800.600000,287L2801.900000,284.200000L2801.900000,266.800000L2801.900000,265.900000L2802.500000,265.900000L2802.500000,284.200000L2804.400000,285.800000L2804.400000,287.700000L2803.100000,287.700000L2804.400000,289.700000L2806.700000,290.500000L2806.700000,293.500000L2810.200000,294.800000L2815.600000,294.800000L2816.400000,291.400000L2814.300000,289.200000L2815.100000,286.900000L2812,283.600000L2811.200000,286.400000L2811.200000,290.600000L2808.900000,291.100000L2807.200000,281L2810.100000,281.600000L2812.500000,281.600000L2815.100000,278.500000L2812,274.500000L2812,268.500000L2813.400000,263.300000L2816,262L2816.800000,262L2816.800000,263.900000L2816,264.900000L2816,266.500000L2818.800000,265.900000L2820.300000,263.900000L2822.700000,263.300000L2823.600000,265.200000L2825.700000,267.600000L2826.800000,269.200000L2825.700000,270.500000L2826.100000,272L2829,274L2832.900000,273.100000L2834.300000,274L2834.300000,275.700000L2838.100000,278.900000L2837.300000,280L2835.700000,278.400000L2835.100000,280L2833.400000,279.600000L2833.400000,276.700000L2829.800000,276.700000L2827,280L2825.900000,281.500000L2828.500000,281.500000L2829.800000,283.100000L2830.600000,287.600000L2832.800000,290L2833.400000,292.700000L2834.500000,295.400000L2833.700000,299.400000L2833.700000,302.900000L2835.600000,302.500000L2841.900000,293.400000L2843.400000,292.700000L2843.700000,290.400000L2847.100000,290.400000L2845.600000,289.200000L2848.600000,283.500000L2845.600000,284.600000L2845.600000,283L2847.100000,282L2847.100000,280.700000L2843.700000,279.400000L2842.800000,276.500000L2841,273.500000L2844.100000,270.700000L2849.600000,263L2848.200000,261.700000L2847.100000,261.700000L2847.100000,255.500000L2850.900000,255.100000L2852.200000,258.100000L2852.200000,260.900000L2854,260.900000L2855.700000,259.600000L2856.100000,256.100000L2859.400000,254.600000L2858,252.500000L2859.400000,250.800000L2858.800000,242.600000L2856.700000,238.600000L2856.700000,236.800000L2858.500000,235L2856.200000,227.600000L2854.100000,215.500000L2856.800000,217.900000L2864.400000,234.900000L2864.400000,237.800000L2866,237.800000L2866,235.500000L2865.100000,234.200000L2864.300000,232.700000L2865.100000,232.700000L2864.300000,230.300000L2865.600000,230.900000L2866.200000,232L2867.200000,232.100000L2865.300000,229.500000L2866.300000,229.700000L2867.100000,230.400000L2868.300000,230.100000L2868.500000,227.500000L2869.300000,229.600000L2871,229.500000L2870.600000,231L2870.600000,231.600000L2871,232.200000L2873.600000,228.900000L2873.300000,226.700000L2879.500000,215.900000L2881.200000,215.900000L2875.700000,231.200000L2873.400000,235.300000L2873.700000,237.600000L2875.900000,237.800000L2878.200000,233.300000L2879.500000,222.500000L2881.200000,222.800000L2881.200000,229.900000L2880.300000,239L2878.700000,241.100000L2877.500000,246.200000L2873.700000,248.900000L2873.700000,251.200000L2874.200000,255L2876.700000,256.500000L2877.100000,260.800000L2879.400000,261.300000L2881.100000,260.800000L2880.500000,259.200000L2878.500000,258.400000L2880.100000,256.600000L2881,256.600000L2882.600000,255.100000L2886.400000,256.100000L2885.900000,260.200000L2883.800000,261.700000L2883.800000,263.800000L2885.900000,267.800000L2887.600000,267.500000L2890,266.400000L2891.200000,267.100000L2892,269.400000L2892,271.300000L2891.200000,273.300000L2891.200000,275.400000L2890.400000,277.400000L2888.600000,280.600000L2887.300000,279.800000L2886.800000,280.600000L2886.800000,281.600000L2889.200000,281.600000L2888.600000,283.700000L2887.600000,284.700000L2886.800000,289.500000L2895.600000,290.200000L2896.300000,292.400000L2899,292.400000L2899,297.300000L2895.600000,300.600000L2899,303.400000L2900,304.500000L2905.600000,303.400000L2907.800000,301.500000L2911.600000,300.600000L2912.700000,304L2916.600000,303.400000L2918.800000,304.500000L2921.500000,301.500000L2924.600000,300.900000L2926.700000,303.900000L2928.300000,303.900000L2928.600000,302.400000L2930.900000,302L2931.100000,304.400000L2934.800000,304.400000L2931.700000,310.900000L2934.800000,310.900000L2932.800000,314.400000L2932.800000,316.200000L2930,320.100000L2927.500000,322.500000L2927.900000,324L2929,324L2929,324.400000L2927.600000,324.900000L2927.600000,326.500000L2927.600000,329L2926.800000,329.800000L2926.800000,343.700000L2930.100000,342.900000L2933.600000,338.200000L2933.600000,335.800000L2935.400000,335.800000L2935.400000,338.200000L2936.500000,339.200000L2936.500000,342.100000L2940.500000,342.100000L2943.900000,344.400000L2945.500000,346.100000L2943.900000,349.300000L2942.300000,351.100000L2942.300000,353.200000L2946.200000,353.200000L2946.200000,351.100000L2949.800000,351.100000L2952.200000,351.100000L2953.800000,353.200000L2954.700000,356.700000L2955.600000,359L2960.500000,359L2961.900000,356.700000L2963.800000,346.700000L2967,350L2965.200000,354.700000L2965.800000,356.600000L2969.400000,358.200000L2975.900000,353.100000L2973.600000,345.900000L2984.900000,347.700000L2981.500000,353L2984.900000,354.500000L2984.900000,358.100000L2987.500000,358.100000L2991.300000,356.500000L2991.300000,358.800000L2991.300000,363.200000L2990.200000,367L2987.500000,383.800000L2990.200000,385.600000L2993.100000,388L2995.500000,394.400000L2994.200000,407.800000L2994.400000,408.100000L3031.100000,381.700000L3140.300000,372.500000L3184.300000,144.900000L3222.600000,85.300000L3248.100000,144.900000L3270.100000,372.500000L3332.500000,400.200000L3411.200000,423.600000L3450.200000,269.700000L3499.100000,178.900000L3548,278.900000L3544.400000,423.500000L3604.500000,431.200000L3625.600000,423.500000L3645.500000,438.400000L3673.200000,459L3722.900000,479.600000L3739.900000,507.300000L5075.800000,1051.300000L725.700000,1050.300000L0,657.700000L0,383.200000L58,406.700000L110.500000,383.200000L110.500000,354.200000L146.500000,339.700000L187.500000,354.200000L218.500000,383.200000L293,469.200000L410.200000,406.900000L410.200000,394.100000L437.400000,386.900000L462.300000,394.100000L473.900000,402.400000L514.400000,398L526,386.900000L552.600000,349.200000L571.400000,355.300000L593.600000,371.400000L605.200000,394.100000L638.400000,371.400000L659.500000,340.400000L693.300000,343.700000L699.400000,205.700000L763.700000,205.700000L763.700000,268.300000L788.100000,268.300000L794.800000,226.200000L810.300000,205.700000L821.900000,148.100000L821.900000,79.300000L829.100000,85.400000L829.100000,151.900000L841.800000,205.600000L856.800000,218.300000L868.400000,245.500000L868.400000,268.200000L931.600000,268.200000L934.900000,379L973.700000,360.200000L1030.200000,331.900000L1067.900000,351.800000L1101.700000,364L1128.900000,340.200000L1126.100000,295.900000L1377.700000,302L1408.700000,317.500000L1439.700000,321.400000L1460.800000,339.300000L1521.900000,334.500000L1529,261.400000L1526.600000,255.600000L1526.600000,236.400000L1511.700000,224.200000L1515.300000,210.500000L1535.200000,200.700000L1549.900000,194.200000L1563.100000,180.700000L1587.700000,180Z" clip-rule="evenodd" fill="rgb(46,90,156)" fill-rule="evenodd" stroke="none" stroke-width="1"/></g><g id="e4e6e2khy1yr4"><polygon id="e4e6e2khy1yr5" points="1578.900000,79.300000 1605.800000,88.400000 1583.200000,161 1585.500000,162.400000 1586.900000,165.100000 1587.700000,167.900000 1700.400000,172.900000 1691.600000,204.500000 1587.700000,180 1584.100000,183.100000 1579.900000,184.400000 1575.900000,263.700000 1533.700000,254.300000 1571.900000,184 1566.200000,185.100000 1563.100000,180.900000 1560.200000,176.600000 1451.800000,175.400000 1461.200000,143.200000 1561.800000,166 1564.800000,161.900000 1570,159.500000 1571.900000,159.500000" transform="matrix(1 0 0 1 1.99265700000001 12.82270000000003)" clip-rule="evenodd" fill="rgb(46,90,156)" fill-rule="evenodd" stroke="none" stroke-width="1"/></g><script><![CDATA[!function(t,n){"object"==typeof exports&&"undefined"!=typeof module?module.exports=n():"function"==typeof define&&define.amd?define(n):(t=t||self).__SVGATOR_PLAYER__=n()}(this,(function(){"use strict";function t(n){return(t="function"==typeof Symbol&&"symbol"==typeof Symbol.iterator?function(t){return typeof t}:function(t){return t&&"function"==typeof Symbol&&t.constructor===Symbol&&t!==Symbol.prototype?"symbol":typeof t})(n)}function n(t,n){if(!(t instanceof n))throw new TypeError("Cannot call a class as a function")}function r(t,n){for(var r=0;r<n.length;r++){var e=n[r];e.enumerable=e.enumerable||!1,e.configurable=!0,"value"in e&&(e.writable=!0),Object.defineProperty(t,e.key,e)}}function e(t,n,e){return n&&r(t.prototype,n),e&&r(t,e),t}var i=Math.abs;function u(t){return t}function o(t,n,r){var e=1-r;return 3*r*e*(t*e+n*r)+r*r*r}function a(){var t=arguments.length>0&&void 0!==arguments[0]?arguments[0]:0,n=arguments.length>1&&void 0!==arguments[1]?arguments[1]:0,r=arguments.length>2&&void 0!==arguments[2]?arguments[2]:1,e=arguments.length>3&&void 0!==arguments[3]?arguments[3]:1;return t<0||t>1||r<0||r>1?null:i(t-n)<=1e-5&&i(r-e)<=1e-5?u:function(u){if(u<=0)return t>0?u*n/t:0===n&&r>0?u*e/r:0;if(u>=1)return r<1?1+(u-1)*(e-1)/(r-1):1===r&&t<1?1+(u-1)*(n-1)/(t-1):1;for(var a,l=0,f=1;l<f;){var s=o(t,r,a=(l+f)/2);if(i(u-s)<1e-5)break;s<u?l=a:f=a}return o(n,e,a)}}function l(){return 1}function f(t){return 1===t?1:0}function s(){var t=arguments.length>0&&void 0!==arguments[0]?arguments[0]:1,n=arguments.length>1&&void 0!==arguments[1]?arguments[1]:0;if(1===t){if(0===n)return f;if(1===n)return l}var r=1/t;return function(t){return t>=1?1:(t+=n*r)-t%r}}function c(t){var n=arguments.length>1&&void 0!==arguments[1]?arguments[1]:2;if(Number.isInteger(t))return t;var r=Math.pow(10,n);return Math.round(t*r)/r}var v=Math.PI/180;function h(t,n,r){return t>=.5?r:n}function y(t,n,r){return 0===t||n===r?n:t*(r-n)+n}function d(t,n,r){var e=y(t,n,r);return e<=0?0:e}function g(t,n,r){return 0===t?n:1===t?r:{x:y(t,n.x,r.x),y:y(t,n.y,r.y)}}function m(t,n,r){return 0===t?n:1===t?r:{x:d(t,n.x,r.x),y:d(t,n.y,r.y)}}function p(t,n,r){var e=function(t,n,r){return Math.round(y(t,n,r))}(t,n,r);return e<=0?0:e>=255?255:e}function b(t,n,r){return 0===t?n:1===t?r:{r:p(t,n.r,r.r),g:p(t,n.g,r.g),b:p(t,n.b,r.b),a:y(t,null==n.a?1:n.a,null==r.a?1:r.a)}}function w(t,n,r){if(0===t)return n;if(1===t)return r;var e=n.length;if(e!==r.length)return h(t,n,r);for(var i=[],u=0;u<e;u++)i.push(b(t,n[u],r[u]));return i}function A(t,n,r){var e=n.length;if(e!==r.length)return h(t,n,r);for(var i=new Array(e),u=0;u<e;u++)i[u]=y(t,n[u],r[u]);return i}function x(t,n){for(var r=[],e=0;e<t;e++)r.push(n);return r}function k(t,n){if(--n<=0)return t;var r=(t=Object.assign([],t)).length;do{for(var e=0;e<r;e++)t.push(t[e])}while(--n>0);return t}var S=/\.0+$/g;function _(t){return Number.isInteger(t)?t+"":t.toFixed(6).replace(S,"")}function M(t){var n=arguments.length>1&&void 0!==arguments[1]?arguments[1]:" ";return t&&t.length?t.map(_).join(n):""}function I(t){return _(t.x)+","+_(t.y)}function E(t){return t?null==t.a||t.a>=1?"rgb("+t.r+","+t.g+","+t.b+")":"rgba("+t.r+","+t.g+","+t.b+","+t.a+")":"transparent"}var F={f:null,i:m,u:function(t,n){return function(r){var e=n(r);t.setAttribute("rx",_(e.x)),t.setAttribute("ry",_(e.y))}}},B={f:null,i:function(t,n,r){return 0===t?n:1===t?r:{width:d(t,n.width,r.width),height:d(t,n.height,r.height)}},u:function(t,n){return function(r){var e=n(r);t.setAttribute("width",_(e.width)),t.setAttribute("height",_(e.height))}}},j=Math.sin,q=Math.cos,P=Math.acos,O=Math.asin,z=Math.tan,L=Math.atan2,C=Math.PI/180,R=180/Math.PI,T=Math.sqrt,V=function(){function t(){var r=arguments.length>0&&void 0!==arguments[0]?arguments[0]:1,e=arguments.length>1&&void 0!==arguments[1]?arguments[1]:0,i=arguments.length>2&&void 0!==arguments[2]?arguments[2]:0,u=arguments.length>3&&void 0!==arguments[3]?arguments[3]:1,o=arguments.length>4&&void 0!==arguments[4]?arguments[4]:0,a=arguments.length>5&&void 0!==arguments[5]?arguments[5]:0;n(this,t),this.m=[r,e,i,u,o,a],this.i=null,this.w=null,this.s=null}return e(t,[{key:"point",value:function(t,n){var r=this.m;return{x:r[0]*t+r[2]*n+r[4],y:r[1]*t+r[3]*n+r[5]}}},{key:"translateSelf",value:function(){var t=arguments.length>0&&void 0!==arguments[0]?arguments[0]:0,n=arguments.length>1&&void 0!==arguments[1]?arguments[1]:0;if(!t&&!n)return this;var r=this.m;return r[4]+=r[0]*t+r[2]*n,r[5]+=r[1]*t+r[3]*n,this.w=this.s=this.i=null,this}},{key:"rotateSelf",value:function(){var t=arguments.length>0&&void 0!==arguments[0]?arguments[0]:0;if(t%=360){var n=j(t*=C),r=q(t),e=this.m,i=e[0],u=e[1];e[0]=i*r+e[2]*n,e[1]=u*r+e[3]*n,e[2]=e[2]*r-i*n,e[3]=e[3]*r-u*n,this.w=this.s=this.i=null}return this}},{key:"scaleSelf",value:function(){var t=arguments.length>0&&void 0!==arguments[0]?arguments[0]:1,n=arguments.length>1&&void 0!==arguments[1]?arguments[1]:1;if(1!==t||1!==n){var r=this.m;r[0]*=t,r[1]*=t,r[2]*=n,r[3]*=n,this.w=this.s=this.i=null}return this}},{key:"skewSelf",value:function(t,n){if(n%=360,(t%=360)||n){var r=this.m,e=r[0],i=r[1],u=r[2],o=r[3];t&&(t=z(t*C),r[2]+=e*t,r[3]+=i*t),n&&(n=z(n*C),r[0]+=u*n,r[1]+=o*n),this.w=this.s=this.i=null}return this}},{key:"resetSelf",value:function(){var t=arguments.length>0&&void 0!==arguments[0]?arguments[0]:1,n=arguments.length>1&&void 0!==arguments[1]?arguments[1]:0,r=arguments.length>2&&void 0!==arguments[2]?arguments[2]:0,e=arguments.length>3&&void 0!==arguments[3]?arguments[3]:1,i=arguments.length>4&&void 0!==arguments[4]?arguments[4]:0,u=arguments.length>5&&void 0!==arguments[5]?arguments[5]:0,o=this.m;return o[0]=t,o[1]=n,o[2]=r,o[3]=e,o[4]=i,o[5]=u,this.w=this.s=this.i=null,this}},{key:"recomposeSelf",value:function(){var t=arguments.length>0&&void 0!==arguments[0]?arguments[0]:null,n=arguments.length>1&&void 0!==arguments[1]?arguments[1]:null,r=arguments.length>2&&void 0!==arguments[2]?arguments[2]:null,e=arguments.length>3&&void 0!==arguments[3]?arguments[3]:null,i=arguments.length>4&&void 0!==arguments[4]?arguments[4]:null;return this.isIdentity||this.resetSelf(),t&&(t.x||t.y)&&this.translateSelf(t.x,t.y),n&&this.rotateSelf(n),r&&(r.x&&this.skewSelf(r.x,0),r.y&&this.skewSelf(0,r.y)),!e||1===e.x&&1===e.y||this.scaleSelf(e.x,e.y),i&&(i.x||i.y)&&this.translateSelf(i.x,i.y),this}},{key:"decompose",value:function(){var t=arguments.length>0&&void 0!==arguments[0]?arguments[0]:0,n=arguments.length>1&&void 0!==arguments[1]?arguments[1]:0,r=this.m,e=r[0]*r[0]+r[1]*r[1],i=[[r[0],r[1]],[r[2],r[3]]],u=T(e);if(0===u)return{origin:{x:r[4],y:r[5]},translate:{x:t,y:n},scale:{x:0,y:0},skew:{x:0,y:0},rotate:0};i[0][0]/=u,i[0][1]/=u;var o=r[0]*r[3]-r[1]*r[2]<0;o&&(u=-u);var a=i[0][0]*i[1][0]+i[0][1]*i[1][1];i[1][0]-=i[0][0]*a,i[1][1]-=i[0][1]*a;var l=T(i[1][0]*i[1][0]+i[1][1]*i[1][1]);if(0===l)return{origin:{x:r[4],y:r[5]},translate:{x:t,y:n},scale:{x:u,y:0},skew:{x:0,y:0},rotate:0};i[1][0]/=l,i[1][1]/=l,a/=l;var f=0;return i[1][1]<0?(f=P(i[1][1])*R,i[0][1]<0&&(f=360-f)):f=O(i[0][1])*R,o&&(f=-f),a=L(a,T(i[0][0]*i[0][0]+i[0][1]*i[0][1]))*R,{origin:{x:r[4],y:r[5]},translate:{x:t,y:n},scale:{x:u,y:l},skew:{x:a,y:0},rotate:f}}},{key:"toString",value:function(){return null===this.s&&(this.s="matrix("+this.m.map(N).join(" ")+")"),this.s}},{key:"determinant",get:function(){var t=this.m;return t[0]*t[3]-t[1]*t[2]}},{key:"isIdentity",get:function(){if(null===this.i){var t=this.m;this.i=1===t[0]&&0===t[1]&&0===t[2]&&1===t[3]&&0===t[4]&&0===t[5]}return this.i}}]),t}(),D=/\.0+$/;function N(t){return Number.isInteger(t)?t:t.toFixed(14).replace(D,"")}Object.freeze({M:2,L:2,Z:0,H:1,V:1,C:6,Q:4,T:2,S:4,A:7});function G(t,n,r){return t+(n-t)*r}function $(t,n,r){var e=arguments.length>3&&void 0!==arguments[3]&&arguments[3],i={x:G(t.x,n.x,r),y:G(t.y,n.y,r)};return e&&(i.a=H(t,n)),i}function H(t,n){return Math.atan2(n.y-t.y,n.x-t.x)}function Q(t,n,r,e){var i=1-e;return i*i*t+2*i*e*n+e*e*r}function U(t,n,r,e){return 2*(1-e)*(n-t)+2*e*(r-n)}function Y(t,n,r,e){var i=arguments.length>4&&void 0!==arguments[4]&&arguments[4],u={x:Q(t.x,n.x,r.x,e),y:Q(t.y,n.y,r.y,e)};return i&&(u.a=Z(t,n,r,e)),u}function Z(t,n,r,e){return Math.atan2(U(t.y,n.y,r.y,e),U(t.x,n.x,r.x,e))}function J(t,n,r,e,i){var u=i*i;return i*u*(e-t+3*(n-r))+3*u*(t+r-2*n)+3*i*(n-t)+t}function K(t,n,r,e,i){var u=1-i;return 3*(u*u*(n-t)+2*u*i*(r-n)+i*i*(e-r))}function W(t,n,r,e,i){var u=arguments.length>5&&void 0!==arguments[5]&&arguments[5],o={x:J(t.x,n.x,r.x,e.x,i),y:J(t.y,n.y,r.y,e.y,i)};return u&&(o.a=X(t,n,r,e,i)),o}function X(t,n,r,e,i){return Math.atan2(K(t.y,n.y,r.y,e.y,i),K(t.x,n.x,r.x,e.x,i))}function tt(t,n,r){var e=arguments.length>3&&void 0!==arguments[3]&&arguments[3];if(rt(n)){if(et(r))return Y(n,r.start,r,t,e)}else if(rt(r)){if(n.end)return Y(n,n.end,r,t,e)}else{if(n.end)return r.start?W(n,n.end,r.start,r,t,e):Y(n,n.end,r,t,e);if(r.start)return Y(n,r.start,r,t,e)}return $(n,r,t,e)}function nt(t,n,r){var e=tt(t,n,r,!0);return e.a=function(t){var n=arguments.length>1&&void 0!==arguments[1]&&arguments[1];return n?t+Math.PI:t}(e.a)/v,e}function rt(t){return!t.type||"corner"===t.type}function et(t){return null!=t.start&&!rt(t)}var it=new V;var ut={f:function(t){return t?t.join(" "):""},i:function(n,r,e){if(0===n)return r;if(1===n)return e;var i=r.length;if(i!==e.length)return h(n,r,e);for(var u,o=new Array(i),a=0;a<i;a++){if((u=t(r[a]))!==t(e[a]))return h(n,r,e);if("number"===u)o[a]=y(n,r[a],e[a]);else{if(r[a]!==e[a])return h(n,r,e);o[a]=r[a]}}return o}},ot={f:null,i:A,u:function(t,n){return function(r){var e=n(r);t.setAttribute("x1",_(e[0])),t.setAttribute("y1",_(e[1])),t.setAttribute("x2",_(e[2])),t.setAttribute("y2",_(e[3]))}}},at={f:_,i:y},lt={f:_,i:function(t,n,r){var e=y(t,n,r);return e<=0?0:e>=1?1:e}},ft={f:M,i:function(t,n,r){var e,i,u,o=n.length,a=r.length;if(o!==a)if(0===o)n=x(o=a,0);else if(0===a)a=o,r=x(o,0);else{var l=(u=(e=o)*(i=a)/function(t,n){for(var r;n;)r=n,n=t%n,t=r;return t||1}(e,i))<0?-u:u;n=k(n,Math.floor(l/o)),r=k(r,Math.floor(l/a)),o=a=l}for(var f=[],s=0;s<o;s++)f.push(c(d(t,n[s],r[s]),6));return f}};function st(t,n,r,e,i,u,o,a){return n=function(t,n,r){for(var e,i,u,o=t.length-1,a={},l=0;l<=o;l++)(e=t[l]).e&&(e.e=n(e.e)),e.v&&"g"===(i=e.v).t&&i.r&&(u=r.getElementById(i.r))&&(a[i.r]=u.querySelectorAll("stop"));return a}(t,e,a),function(e){var i,u=r(e,t,ct);return u?"c"===u.t?E(u.v):"g"===u.t?(n[u.r]&&function(t,n){for(var r=0,e=t.length;r<e;r++)t[r].setAttribute("stop-color",E(n[r]))}(n[u.r],u.v),(i=u.r)?"url(#"+i+")":"none"):"none":"none"}}function ct(t,n,r){if(0===t)return n;if(1===t)return r;if(n&&r){var e=n.t;if(e===r.t)switch(n.t){case"c":return{t:e,v:b(t,n.v,r.v)};case"g":if(n.r===r.r)return{t:e,v:w(t,n.v,r.v),r:n.r}}}return h(t,n,r)}var vt={blur:m,brightness:d,contrast:d,"drop-shadow":function(t,n,r){return 0===t?n:1===t?r:{blur:m(t,n.blur,r.blur),offset:g(t,n.offset,r.offset),color:b(t,n.color,r.color)}},grayscale:d,"hue-rotate":y,invert:d,opacity:d,saturate:d,sepia:d};function ht(t,n,r){if(0===t)return n;if(1===t)return r;var e=n.length;if(e!==r.length)return h(t,n,r);for(var i,u=[],o=0;o<e;o++){if(n[o].type!==r[o].type)return n;if(!(i=vt[n[o].type]))return h(t,n,r);u.push({type:n.type,value:i(t,n[o].value,r[o].value)})}return u}var yt={blur:function(t){return t?function(n){t.setAttribute("stdDeviation",I(n))}:null},brightness:function(t,n,r){return(t=gt(r,n))?function(n){n=_(n),t.map((function(t){return t.setAttribute("slope",n)}))}:null},contrast:function(t,n,r){return(t=gt(r,n))?function(n){var r=_((1-n)/2);n=_(n),t.map((function(t){t.setAttribute("slope",n),t.setAttribute("intercept",r)}))}:null},"drop-shadow":function(t,n,r){var e=r.getElementById(n+"-blur");if(!e)return null;var i=r.getElementById(n+"-offset");if(!i)return null;var u=r.getElementById(n+"-flood");return u?function(t){e.setAttribute("stdDeviation",I(t.blur)),i.setAttribute("dx",_(t.offset.x)),i.setAttribute("dy",_(t.offset.y)),u.setAttribute("flood-color",E(t.color))}:null},grayscale:function(t){return t?function(n){t.setAttribute("values",M(function(t){return[.2126+.7874*(t=1-t),.7152-.7152*t,.0722-.0722*t,0,0,.2126-.2126*t,.7152+.2848*t,.0722-.0722*t,0,0,.2126-.2126*t,.7152-.7152*t,.0722+.9278*t,0,0,0,0,0,1,0]}(n)))}:null},"hue-rotate":function(t){return t?function(n){return t.setAttribute("values",_(n))}:null},invert:function(t,n,r){return(t=gt(r,n))?function(n){n=_(n)+" "+_(1-n),t.map((function(t){return t.setAttribute("tableValues",n)}))}:null},opacity:function(t,n,r){return(t=r.getElementById(n+"-A"))?function(n){return t.setAttribute("tableValues","0 "+_(n))}:null},saturate:function(t){return t?function(n){return t.setAttribute("values",_(n))}:null},sepia:function(t){return t?function(n){return t.setAttribute("values",M(function(t){return[.393+.607*(t=1-t),.769-.769*t,.189-.189*t,0,0,.349-.349*t,.686+.314*t,.168-.168*t,0,0,.272-.272*t,.534-.534*t,.131+.869*t,0,0,0,0,0,1,0]}(n)))}:null}};var dt=["R","G","B"];function gt(t,n){var r=dt.map((function(r){return t.getElementById(n+"-"+r)||null}));return-1!==r.indexOf(null)?null:r}var mt={fill:st,"fill-opacity":lt,stroke:st,"stroke-opacity":lt,"stroke-width":at,"stroke-dashoffset":{f:_,i:y},"stroke-dasharray":ft,opacity:lt,transform:function(n,r,e,i){if(!(n=function(n,r){if(!n||"object"!==t(n))return null;var e=!1;for(var i in n)n.hasOwnProperty(i)&&(n[i]&&n[i].length?(n[i].forEach((function(t){t.e&&(t.e=r(t.e))})),e=!0):delete n[i]);return e?n:null}(n,i)))return null;var u=function(t,i,u){var o=arguments.length>3&&void 0!==arguments[3]?arguments[3]:null;return n[t]?e(i,n[t],u):r&&r[t]?r[t]:o};return r&&r.a&&n.o?function(t){var r=e(t,n.o,nt);return it.recomposeSelf(r,u("r",t,y,0)+r.a,u("k",t,g),u("s",t,g),u("t",t,g)).toString()}:function(t){return it.recomposeSelf(u("o",t,tt,null),u("r",t,y,0),u("k",t,g),u("s",t,g),u("t",t,g)).toString()}},"#filter":function(t,n,r,e,i,u,o,a){if(!n.items||!t||!t.length)return null;var l=function(t,n){var r=(t=t.map((function(t){return t&&yt[t[0]]?(n.getElementById(t[1]),yt[t[0]](n.getElementById(t[1]),t[1],n)):null}))).length;return function(n){for(var e=0;e<r;e++)t[e]&&t[e](n[e].value)}}(n.items,a);return l?(t=function(t,n){return t.map((function(t){return t.e=n(t.e),t}))}(t,e),function(n){l(r(n,t,ht))}):null},"#line":ot,points:{f:M,i:A},d:ut,r:at,"#size":B,"#radius":F,_:function(t,n){if(Array.isArray(t))for(var r=0;r<t.length;r++)this[t[r]]=n;else this[t]=n}},pt=function(){function t(r){n(this,t),this.list=r,this.length=r.length}return e(t,[{key:"setAttribute",value:function(t,n){for(var r=this.list,e=0;e<this.length;e++)r[e].setAttribute(t,n)}},{key:"removeAttribute",value:function(t){for(var n=this.list,r=0;r<this.length;r++)n[r].removeAttribute(t)}},{key:"style",value:function(t,n){for(var r=this.list,e=0;e<this.length;e++)r[e].style[t]=n}}]),t}(),bt=/-./g,wt=function(t,n){return n.toUpperCase()};function At(t){return"function"==typeof t?t:h}function xt(t){return t?"function"==typeof t?t:Array.isArray(t)?function(t){var n=arguments.length>1&&void 0!==arguments[1]?arguments[1]:u;if(!Array.isArray(t))return n;switch(t.length){case 1:return s(t[0])||n;case 2:return s(t[0],t[1])||n;case 4:return a(t[0],t[1],t[2],t[3])||n}return n}(t,null):function(t,n){var r=arguments.length>2&&void 0!==arguments[2]?arguments[2]:u;switch(t){case"linear":return u;case"steps":return s(n.steps||1,n.jump||0)||r;case"bezier":case"cubic-bezier":return a(n.x1||0,n.y1||0,n.x2||0,n.y2||0)||r}return r}(t.type,t.value,null):null}function kt(t,n,r){var e=arguments.length>3&&void 0!==arguments[3]&&arguments[3],i=n.length-1;if(t<=n[0].t)return e?[0,0,n[0].v]:n[0].v;if(t>=n[i].t)return e?[i,1,n[i].v]:n[i].v;var u,o=n[0],a=null;for(u=1;u<=i;u++){if(!(t>n[u].t)){a=n[u];break}o=n[u]}return null==a?e?[i,1,n[i].v]:n[i].v:o.t===a.t?e?[u,1,a.v]:a.v:(t=(t-o.t)/(a.t-o.t),o.e&&(t=o.e(t)),e?[u,t,r(t,o.v,a.v)]:r(t,o.v,a.v))}function St(t,n){var r=arguments.length>2&&void 0!==arguments[2]?arguments[2]:null;return t&&t.length?"function"!=typeof n?null:("function"!=typeof r&&(r=null),function(e){var i=kt(e,t,n);return null!=i&&r&&(i=r(i)),i}):null}function _t(t,n){return t.t-n.t}function Mt(n,r,e,i,u){var o,a="@"===e[0],l="#"===e[0],f=mt[e],s=h;switch(a?(o=e.substr(1),e=o.replace(bt,wt)):l&&(e=e.substr(1)),t(f)){case"function":if(s=f(i,u,kt,xt,e,a,r,n),l)return s;break;case"string":s=St(i,At(f));break;case"object":if((s=St(i,At(f.i),f.f))&&"function"==typeof f.u)return f.u(r,s,e,a,n)}return s?function(t,n,r){var e=arguments.length>3&&void 0!==arguments[3]&&arguments[3];if(e)return t instanceof pt?function(e){return t.style(n,r(e))}:function(e){return t.style[n]=r(e)};if(Array.isArray(n)){var i=n.length;return function(e){var u=r(e);if(null==u)for(var o=0;o<i;o++)t[o].removeAttribute(n);else for(var a=0;a<i;a++)t[a].setAttribute(n,u)}}return function(e){var i=r(e);null==i?t.removeAttribute(n):t.setAttribute(n,i)}}(r,e,s,a):null}function It(n,r,e,i){if(!i||"object"!==t(i))return null;var u=null,o=null;return Array.isArray(i)?o=function(t){if(!t||!t.length)return null;for(var n=0;n<t.length;n++)t[n].e&&(t[n].e=xt(t[n].e));return t.sort(_t)}(i):(o=i.keys,u=i.data||null),o?Mt(n,r,e,o,u):null}function Et(t,n,r){if(!r)return null;var e=[];for(var i in r)if(r.hasOwnProperty(i)){var u=It(t,n,i,r[i]);u&&e.push(u)}return e.length?e:null}function Ft(t,n){if(!n.duration||n.duration<0)return null;var r=function(t,n){if(!n)return null;var r=[];if(Array.isArray(n))for(var e=n.length,i=0;i<e;i++){var u=n[i];if(2===u.length){var o=null;if("string"==typeof u[0])o=t.getElementById(u[0]);else if(Array.isArray(u[0])){o=[];for(var a=0;a<u[0].length;a++)if("string"==typeof u[0][a]){var l=t.getElementById(u[0][a]);l&&o.push(l)}o=o.length?1===o.length?o[0]:new pt(o):null}if(o){var f=Et(t,o,u[1]);f&&(r=r.concat(f))}}}else for(var s in n)if(n.hasOwnProperty(s)){var c=t.getElementById(s);if(c){var v=Et(t,c,n[s]);v&&(r=r.concat(v))}}return r.length?r:null}(t,n.elements);return r?function(t,n){var r=arguments.length>2&&void 0!==arguments[2]?arguments[2]:1/0,e=arguments.length>3&&void 0!==arguments[3]?arguments[3]:1,i=arguments.length>4&&void 0!==arguments[4]&&arguments[4],u=arguments.length>5&&void 0!==arguments[5]?arguments[5]:1,o=t.length,a=e>0?n:0;i&&r%2==0&&(a=n-a);var l=null;return function(f,s){var c=f%n,v=1+(f-c)/n;s*=e,i&&v%2==0&&(s=-s);var h=!1;if(v>r)c=a,h=!0,-1===u&&(c=e>0?0:n);else if(s<0&&(c=n-c),c===l)return!1;l=c;for(var y=0;y<o;y++)t[y](c);return h}}(r,n.duration,n.iterations||1/0,n.direction||1,!!n.alternate,n.fill||1):null}var Bt=function(){function t(r){var e=arguments.length>1&&void 0!==arguments[1]?arguments[1]:{};n(this,t),this._id=0,this._running=!1,this._animations=r,this.direction=e.direction||1,this.speed=e.speed||1,this.fps=e.fps||100,this.offset=e.offset||0}return e(t,[{key:"_start",value:function(){var t=this,n=arguments.length>0&&void 0!==arguments[0]?arguments[0]:0,r=-1/0,e=null,i={},u=function u(o){t._running=!0,null==e&&(e=o);var a=Math.round((o-e+n)*t.speed),l=t.fps?1e3/t.fps:0;if(a>r+l){t.offset=a,r=a;for(var f=t._animations,s=f.length,c=0,v=0;v<s;v++)i[v]?c++:(i[v]=f[v](a,t.direction),i[v]&&c++);if(c===s)return void t._stop()}t._id=window.requestAnimationFrame(u)};this._id=window.requestAnimationFrame(u)}},{key:"_stop",value:function(){this._id&&window.cancelAnimationFrame(this._id),this._running=!1}},{key:"play",value:function(){this._running||this._start(this.offset)}},{key:"stop",value:function(){this._stop(),this.offset=0;var t=this.direction,n=this._animations;requestAnimationFrame((function(){for(var r=0;r<n.length;r++)n[r](0,t)}))}},{key:"restart",value:function(){this._stop(),this.offset=0,this._start()}},{key:"pause",value:function(){this._stop()}},{key:"reverse",value:function(){this.direction=-this.direction}}],[{key:"build",value:function(n){if(!(n=function(t){if(!t||!t.root||!Array.isArray(t.animations))return null;var n=window.document.getElementById(t.root);if(!n)return null;var r=t.animations.map((function(t){return Ft(n,t)})).filter((function(t){return!!t}));return r.length?{element:n,animations:r,options:t.options||void 0}:null}(n)))return null;var r=n.element,e=n.options||{},i=new t(n.animations,n.options);return function(t,n,r){var e=arguments.length>3&&void 0!==arguments[3]?arguments[3]:null;if("click"===r){var i=function r(){n.removeEventListener("click",r),t.play()};return void n.addEventListener("click",i)}if("hover"===r)return n.addEventListener("mouseenter",(function(){return t.play()})),void n.addEventListener("mouseleave","freeze"===e?function(){return t.pause()}:function(){return t.stop()});t.play()}(i,r,e.start,e.hover),i}}]),t}();return function(){for(var t=0,n=["ms","moz","webkit","o"],r=0;r<n.length&&!window.requestAnimationFrame;++r)window.requestAnimationFrame=window[n[r]+"RequestAnimationFrame"],window.cancelAnimationFrame=window[n[r]+"CancelAnimationFrame"]||window[n[r]+"CancelRequestAnimationFrame"];window.requestAnimationFrame||(window.requestAnimationFrame=function(n){var r=Date.now(),e=Math.max(0,16-(r-t)),i=window.setTimeout((function(){n(r+e)}),e);return t=r+e,i},window.cancelAnimationFrame=window.clearTimeout)}(),Bt}));
__SVGATOR_PLAYER__.build({"root":"e4e6e2khy1yr1","animations":[{"duration":6000,"direction":1,"iterations":"Infinite","fill":1,"alternate":false,"elements":{"e4e6e2khy1yr5":{"transform":{"data":{"o":{"x":1573.992657,"y":181.82270000000003,"type":"corner"},"t":{"x":-1572,"y":-169}},"keys":{"r":[{"t":0,"v":0},{"t":6000,"v":360}]}}}}}],"options":{"start":"load","hover":"freeze"}})]]></script></svg>