<svg width="5184" height="973" viewBox="0 0 5184 973" fill="none" xmlns="http://www.w3.org/2000/svg">
<path d="M3030.72 303.679L2985.34 336.295L928.5 993L5183.79 1017.37L3739.52 429.229L3722.48 401.55L3672.8 380.968L3645.12 360.386L3625.25 345.513L3604.13 353.181L3544.07 345.513L3547.62 200.867L3498.69 100.891L3449.77 191.649L3410.77 345.513L3332.07 322.114L3269.67 294.461L3247.69 66.8563L3222.16 7.2959L3183.87 66.8563L3139.91 294.461L3030.72 303.679Z" fill="#2E5A9C"/>
<path d="M293 390.5L410.5 328L2943 972.5L787.5 1006L0 579V304.5L58 328L110.5 304.5V275.5L146.5 261L187.5 275.5L218.5 304.5L293 390.5Z" fill="#2E5A9C"/>
<path fill-rule="evenodd" clip-rule="evenodd" d="M437.347 308.179L410.195 315.383V572.724H1191.01V573.02H1898.52L1898.42 573.37H2341.69V389.684L2341.87 389.687V301.22L2338.4 290.714L2318.11 297.435L2303.76 268.922L2301.17 242.656L2280.43 218.29V193.579L2284.06 184.42L2275.25 176.471L2267.67 182.347L2268.68 193.579C2268.05 197.496 2266.37 208.267 2264.71 220.018C2261.53 222.921 2254.4 228.37 2251.23 230.732C2250.94 218.348 2248.4 192.093 2240.52 186.148C2251.16 152.278 2217.65 123.881 2199.56 113.916V66.567L2188.85 51.0145L2182.63 76.0713C2182.17 83.0411 2179.9 101.543 2174.51 119.791C2131.65 144.537 2134.07 171.805 2140.64 182.347L2130.44 195.48V225.375L2125.95 242.656L2105.9 221.919L2104.69 209.65L2107.63 193.579L2101.06 179.409V180.446L2093.81 182.347L2092.6 195.48C2094.9 200.952 2098.71 213.521 2095.53 220.018C2090.42 223.889 2077.27 236.723 2071.34 242.656L2066.5 294.324H2051.99V294.464L1993.9 216.835V215.753L1877.08 224.098L1882.53 200.67V188.474L1875.15 125.834L1877.08 113.055L1837.28 87.3214L1802.94 118.6L1806.47 132.031V186.228V203.879L1819.31 213.828L1776.63 224.098L1745.18 235.972L1741.56 281.414L1646.01 269.222L1639.53 178.213L1642.68 174.022V171.68L1641.2 170.201L1643.42 160.278L1651.31 156.333L1658.15 148.074L1656.55 136.981L1646.01 128.475L1635.39 122.266L1616.44 118.6L1600.39 114.982L1591.23 106.165L1587.71 101.305L1691.61 125.834L1700.38 94.2178L1587.71 89.241L1586.87 86.4395L1585.49 83.7437L1583.16 82.3535L1605.78 9.7231L1578.88 0.644531L1571.86 80.812H1569.97L1564.84 83.2102L1561.75 87.3214L1461.2 64.5389L1451.78 96.7428L1525.09 97.9421H1560.21L1563.12 102.224L1549.93 115.757L1535.2 122.266L1515.33 132.031L1511.73 145.734L1526.64 157.896V177.082L1529.05 182.837L1521.97 255.895L1460.88 260.676L1439.74 242.794L1408.71 238.915L1377.68 223.399L1126.11 217.304L1128.88 261.633L1101.73 285.461L1067.93 273.27L1030.25 253.322L973.731 281.582L934.943 300.422L931.619 189.598H868.449V166.88L856.813 139.728L841.852 126.983L829.107 73.2339V6.73997L821.904 0.644531V69.3551L810.267 126.983L794.752 147.486L788.102 189.598H763.721V126.983H699.444L693.348 264.958L659.547 261.633L638.491 292.664L605.244 315.383L593.608 292.664L571.443 276.594L552.603 270.499L526.005 308.179L514.369 319.261L473.918 323.694L462.282 315.383L437.347 308.179Z" fill="#2E5A9C"/>
<path d="M2313.54 347.393L2315.82 389.192L2315.06 587.386H3042.44V339.734L3033.24 332.665L3020.36 338.572L3022.1 341.961H3006.8L2995.86 339.734L2993.83 336.538L2995.86 333.924L2993.83 329.76L2995.18 316.396L2992.76 310.005L2989.86 307.584L2987.14 305.744L2989.86 288.991L2990.92 285.215V280.857V278.533L2987.14 280.179H2984.53V276.596L2981.14 275.047L2984.53 269.721L2973.2 267.881L2975.52 275.047L2969.04 280.179L2965.45 278.533L2964.87 276.596L2966.71 271.851L2963.52 268.559L2961.58 278.533L2960.22 280.857H2955.28L2954.41 278.533L2953.54 275.047L2951.99 272.916H2949.57H2945.99V275.047H2942.11V272.916L2943.76 271.077L2945.41 267.881L2943.76 266.138L2940.37 263.814H2936.4V260.909L2935.34 259.94V257.519H2933.59V259.94L2930.05 264.685L2926.73 265.498V251.557L2927.56 250.726V248.178V246.572L2929 246.073V245.63H2927.95L2927.56 244.135L2930.05 241.697L2932.82 237.765V235.992L2934.82 232.447H2931.77L2934.82 225.911H2931.16L2930.94 223.473L2928.67 223.861L2928.34 225.357H2926.73L2924.63 222.31L2921.52 222.864L2918.86 225.911L2916.65 224.803L2912.77 225.357L2911.72 221.978L2907.95 222.864L2905.74 224.803L2900.14 225.911L2899.09 224.803L2895.71 221.978L2899.09 218.71V213.78H2896.43L2895.71 211.614L2886.9 210.955L2887.73 206.191L2888.73 205.194L2889.34 203.089H2886.9V202.069L2887.4 201.219L2888.73 202.069L2890.5 198.879L2891.28 196.894V194.838L2892.11 192.842V190.903L2891.28 188.576L2890.12 187.856L2887.73 188.964L2886.07 189.241L2884.02 185.197V183.069L2886.07 181.542L2886.57 177.397L2882.75 176.405L2881.2 177.886H2880.29L2878.66 179.714L2880.64 180.545L2881.2 182.147L2879.46 182.649L2877.15 182.147L2876.71 177.886L2874.22 176.405L2873.71 172.623V170.297L2877.49 167.638L2878.66 162.555L2880.29 160.494L2881.2 151.41V144.275L2879.46 143.927L2878.18 154.686L2875.9 159.177L2873.71 158.968L2873.39 156.693L2875.69 152.572L2881.23 137.236H2879.54L2873.39 147.995L2873.71 150.163L2871.11 153.452L2870.76 152.839V152.265L2871.11 150.812L2869.41 150.883L2868.63 148.783L2868.42 151.41L2867.2 151.68L2866.35 150.989L2865.34 150.812L2867.2 153.452L2866.24 153.328L2865.64 152.265L2864.38 151.68L2865.16 154.09H2864.38L2865.16 155.561L2866.08 156.837V159.177H2864.52V156.27L2856.93 139.255L2854.24 136.844L2856.37 148.897L2858.71 156.27L2856.93 158.113V159.957L2859.06 163.927L2859.63 172.151L2858.21 173.852L2859.63 175.908L2856.37 177.397L2855.94 180.871L2854.24 182.147H2852.47V179.382L2851.19 176.405L2847.36 176.83V183.069H2848.43L2849.85 184.416L2844.39 192.073L2841.27 194.838L2843.04 197.887L2843.96 200.793L2847.36 202.069V203.346L2845.88 204.338V205.827L2848.92 204.693L2845.88 210.364L2847.36 211.614H2843.96L2843.61 213.909L2842.12 214.618L2835.81 223.693L2833.89 224.118V220.644L2834.67 216.603L2833.54 213.909L2832.97 211.215L2830.77 208.805L2829.99 204.338L2828.72 202.707H2826.17L2827.23 201.219L2829.99 197.887H2833.54V200.793L2835.24 201.219L2835.81 199.588L2837.37 201.219L2838.15 200.084L2834.32 196.894V195.192L2832.97 194.342L2829.07 195.192L2826.17 193.207L2825.74 191.718L2826.87 190.371L2825.74 188.741L2823.61 186.33L2822.76 184.416L2820.35 184.983L2818.86 186.968L2816.1 187.536V185.976L2816.95 184.983V183.069H2816.1L2813.48 184.416L2812.13 189.592V195.618L2815.18 199.588L2812.62 202.707H2810.21L2807.31 202.069L2809.01 212.137L2811.35 211.614V207.458L2812.13 204.693L2815.18 208.025L2814.4 210.364L2816.45 212.562L2815.6 215.965H2810.21L2806.74 214.618V211.614L2804.47 210.79L2803.12 208.805H2804.47V206.89L2802.56 205.26V186.968H2801.92V187.89V205.26L2800.64 208.025H2802.56V210.364L2801.05 211.614L2691.01 162.75L2689.11 162.369L2688.69 161.057L2691.01 160.549V159.236L2689.11 158.685L2691.01 157.796L2690.38 156.102H2687.16L2685.3 157.161L2683.86 156.907L2685.75 155.589L2686.36 153.27L2685.63 152.773L2683.56 153.055L2680.07 155.109L2678.11 153.27L2676.16 151.001H2673.77L2673.42 152.065H2671.58V149.842L2672.43 148.847L2673.42 147.15L2672.84 146.097V143.464L2671.11 143.83V142.201L2669.17 140.367V136.516L2668.78 133.739L2670.69 132.927V127.346L2671.58 125.748L2674.62 121.949H2669.64L2670.69 120.246L2668.7 119.854L2667.44 121.294L2665.45 119.487V117.784L2667.26 116.926L2666.21 114.299H2663.43L2663.14 116.926L2663.43 118.439H2662.04L2661.6 113.513V109.112L2662.78 107.252V101.803L2660.31 97.4015V94.7292L2661.47 94.4672L2661.23 93.6026H2660.31V92.3189H2659.24L2659.4 93.3669H2658.45V92.5023L2657.54 91.3496L2655.76 92.0046V93.3669H2655.28V92.5023L2654.03 92.6857V93.6026L2652.93 93.3669L2652.73 94.4672L2654.03 95.2533L2654.26 97.4015L2652.73 99.3528L2651.44 105.996L2651.87 110.568L2651.09 116.926L2651.87 118.998L2651.09 119.641L2650.37 118.069H2649.09L2649.37 116.926L2649.09 115.212L2647.23 114.712H2645.87V116.926L2646.66 119.641L2645.87 121.047L2641.23 120.593L2639.02 121.047L2638.89 122.579H2640.21L2643.99 137.446L2645.08 139.462L2643.49 140.554L2643.99 143.83H2640.67V147.778L2642.14 149.29H2643.49V151.641L2640.67 152.371L2637.5 150.771L2636 153.671L2633.42 155.067L2628.65 152.887L2627.21 154.328L2629.72 157.727L2627.84 157.542L2625.06 155.99L2622.59 157.542L2624.7 159.278L2622.59 160.017L2625.06 162.145L2567.6 187.296L2527.57 205.055L2512.66 211.798L2510.41 209.402L2509.63 201.651L2510.89 188.509L2510.41 188.032L2509.15 201.267L2508.89 209.402L2507.55 212.922L2505.85 214.871L2499.26 216.039L2497.29 214.871L2497.57 213.907L2496.54 212.16L2495.94 211.027H2496.96V210.095L2495.75 209.402L2497.76 208.093L2499.63 205.055L2500.42 209.002L2501.73 212.922L2503.09 212.44L2502.67 208.701L2503.98 206.738L2503.6 203.301L2502.34 201.651H2500.1L2497.57 200.461L2495.75 199.348L2497.76 198.466L2500.8 196.642L2502.01 194.206L2503.09 190.145L2502.34 187.668L2500.8 186.92L2499.63 184.349L2497.57 182.153H2495.14L2494.02 183.601L2491.5 182.771V184.723L2487.43 187.341L2486.17 191.52L2484.16 194.398L2481.07 191.968L2476.96 194.585L2474.9 197.506L2475.42 197.764L2477.71 196.642L2478.04 195.286H2480.79L2484.16 198.466L2485.65 200.461L2481.91 205.99L2481.59 208.701L2480.79 210.711L2480.37 214.871L2479.02 214.127L2478.78 217.423L2479.73 217.763V223.898L2477.69 224.373L2476.66 221.934L2471.13 213.907L2469.14 212.922V211.798L2467.91 211.027L2465.07 211.476L2465.76 210.095L2467.25 209.002L2463.3 203.301L2462.42 202.572H2463.3L2465.07 204.452H2467.25L2468.48 203.569L2467.45 202.572L2465.76 201.651L2466.49 200.461L2467.25 202.034L2468.48 201.267L2468.21 199.348L2467.91 198.466L2468.67 197.506L2470.59 195.894L2471.44 194.206L2471.13 192.518L2470.32 191.52H2469.14V190.407L2468.67 188.949L2464.53 182.771L2465.76 180.775L2467.45 178.549L2467.91 176.4L2466.49 174.942L2463.92 174.674L2461.92 175.518L2460.73 177.552L2461.92 179.835L2459.77 180.579L2457.81 179.202V178.281V175.748L2456.65 174.209L2454.53 173.064L2453.85 172.264L2454.14 170.319L2453.4 168.907L2454.81 168.614V166.003L2456.52 164.377V160.221L2455.58 157.882L2454.53 156.626L2455.4 155.958L2455.1 154.818L2458.7 149.905V146.927L2461.83 139.418L2461.53 135.674L2457.81 140.418L2454.53 146.927L2450.62 154.074L2447.38 156.626L2447.06 156.345L2447.38 154.818L2448.85 154.563V153.614H2447.38V153.138L2448.72 151.585L2448.51 150.777L2446.77 151.925L2446.62 150.458L2445.09 150.777V148.437H2443.9L2442.96 149.905L2441.77 148.99L2441.21 149.905L2442 151.925L2441.21 153.917L2440.4 153.614L2439.17 150.458L2435.59 144.592L2432.49 137.694L2430.24 136.743L2431.94 140.243L2434.78 145.684L2437.14 151.389L2439.64 157.882L2435.36 155.273L2432.23 153.31L2431.38 150.458L2431.18 147.768L2429.27 147.343L2428.89 151.267L2431.38 156.345L2439.64 161.762L2441.06 165.136L2437.15 170.819V173.661L2434.32 179.835L2431.28 180.579L2430.34 178.918L2428.88 175.139L2425.9 174.594L2424.33 174.909L2425.67 177.819L2426.96 182.315V185.205L2421.5 190.503L2420.54 194.356L2423.59 202.705L2425.67 209.449L2416.14 211.857L2413.83 213.462V217.268L2416.14 220.858L2411.58 223.898L2378.9 226.938V236.058L2383.84 244.037V263.797H2372.06L2359.52 269.496V278.236H2351.54L2346.98 274.436L2337.86 292.295L2329.12 304.075L2321.9 312.055L2315.82 325.354L2313.54 347.393Z" fill="#2E5A9C"/>
</svg>
