<svg width="3149" height="772" fill="none" xmlns="http://www.w3.org/2000/svg"><path d="M0 746.499V767l166.238-2.325H182v-18.176l-2.732-3.382-1.261-14.583 1.261-7.82-9.247-2.113h-28.372l-1.891-11.413-3.363-6.13-2.102-3.381-1.471-4.861-.84-19.445.84-4.015v-6.975h4.624v-4.65l-6.515-.211-4.834-6.975-1.261-5.495.631-6.763-1.682-2.325-5.044-4.861-1.261-2.536-1.681-3.382-.42-4.227 2.312-5.284v-1.902l-2.522-2.959 1.05-2.536-2.732.634-3.993-.845-1.471-4.016-4.623-98.067.21-2.747-.421-16.063 1.261-2.959.211-8.666.84-2.958.21-1.269-1.891-1.902-4.834.423-.42-4.016 1.471-.845.63-1.268-2.311-.212-.21-4.015 1.68-1.057.421-1.479-2.522.422-.42-3.17 1.26-1.268v-.846l-1.47-.211-.42-4.227 1.05-.211v-.846l-1.471-1.056.63-6.341 1.261-6.129-2.311-2.325-2.102-6.763v-3.171l1.05-1.902v-3.381h1.472v-1.057l-1.471-2.114v-5.495l-.63-2.325-.42-6.129-1.262-4.015 1.261-1.691v2.325l3.153 1.479 2.732-5.495 6.935-4.438 3.783-1.269-6.095-.634-4.623 1.269-3.783 2.747-2.732-.845 3.152-1.902v-2.114l-1.471-.423v-6.763L93.102 376l.63 6.129-1.26 1.691-1.262 1.479-3.362 2.114-2.102.423-10.718-5.284.42 1.268 10.088 5.284.21 3.593.63 1.057v4.649l2.522 14.583-6.094-1.268-2.732 2.114-5.465 3.17-2.101-.423 2.522 2.325 3.783-1.902 1.26 1.902h1.892v-2.959l3.783 1.48 1.681 4.227.42 3.382-3.152 4.649-2.732 4.65 1.471 3.804 1.892 1.48-1.051 9.088h-1.261v.423l1.05 1.056-.42 3.593-1.26-.211v2.113h1.05v3.593l-1.891.634v1.269h1.681l-.84 4.438-1.262-.634-1.26 4.227.84 2.536-3.152-.423-1.682 1.269.63 4.015 1.052 1.057-.63 7.609.63 1.902 1.47 2.747v18.177l-3.362 93.417-5.254-3.17-5.884-3.171-6.095 1.691-.84 2.536 3.362-.634 5.884.634 4.834 2.114 2.312 3.382-.63 3.381v4.227l-2.943 4.016-1.471-5.918h-2.102l-4.413 3.17.84 1.691 3.573 2.536-1.47 1.902-4.834 3.382-9.458 2.959v3.17l3.993 6.764 1.261 6.34-1.26 10.779-5.675 4.438 1.681 4.65 2.102 10.99-2.102 18.388-3.783 13.104-1.891 4.227-1.681 11.624H14.92l-11.769 2.114v8.454l3.153 8.665-3.153 4.861L0 746.499zM951.611 615.368v142.718L2353.1 769V640.554l26.9-38.618v-43.655h-458.19V523.86l-10.93-26.025-99.21-20.988-5.04-78.075-76.51-15.112-15.97-32.741-8.41-110.816-19.34-26.025v-65.483l-5.04-19.309v-23.507l-49.6-36.099V25.186h-17.66V0h-8.41v30.223h-15.13V69.68l-54.65 36.099v15.112l-8.4 15.111v73.878l-28.59 36.939v121.73l-15.13 26.025h-77.35v56.248h-305.18v47.013H992.806v16.791h-46.239L939 532.255l7.567 26.026v33.58L939 601.936l12.611 13.432z" fill="#2E5A9C"/><path d="M197.123 283.97H179.01l-8.278-11.621 4.339-7.343L169 260v504h448V270.143l-.95 11.264-2.579.815-2.663 8.529-1.167-2.562h-17.632l-.549 2.562H488.249l-3.8-2.691-.596-14.593 4.396-2.905-1.49-4.694-7.078 5.588-.521 9.014-2.012-2.607-5.066-2.682v-4.619l3.427-.745-2.607-6.184h-7.376l-2.831 5.588 3.502 2.235v4.768l-4.694 2.086-.882 7.704-6.135 2.046v4.673l-113.637-4.673-8.764-4.09-3.213-3.798v-7.011h-5.843l1.461-4.674V260.6h-6.135l-2.629 7.887 2.629 4.674-5.258 1.461-3.214 7.303-5.842-3.213-2.045 5.258 4.674 6.719-107.503-2.629-2.044-4.09zM2135.39 491.045l-4.39 3.936V770h466.6c3.39 0-.51-264.688 0-264.586.41.082-2.08-4.676-3.38-7.065v-20.58l-1.64-12.286-4.41-23.549-3.69 18.839-3.69-18.839-5.53 29.487-.93-54.163 1.13-2.15-1.74-3.481-1.23-19.658.61-16.178v-6.348l-3.18-40.135 3.18-5.734-9.02-56.518-1.84 1.843 1.84-10.546-2.77-1.741 1.85-57.029-1.85-8.396.82-39.01-7.48-43.207-4.2 22.832 1.02-23.959 2.46-.819 4.21-2.355-6.67-3.481 1.13-7.065-1.13-3.686 1.85-24.368-3.69-4.71-7.38-.921c-3.39-.99-10.28-2.97-10.77-2.97-.49 0-9.84 1.23-14.45 1.844l-1.95 1.126-8.1.921-3.9 5.427 1.85 6.45-4.61-.614-.82 6.86-4.82.512.61-6.758-9.53-.614-.72 7.884-5.33.921-1.33-7.372h-1.13v-8.703l-9.02 1.434.92 6.45h-2.46l-1.02 7.27h-5.23v-6.45c-2.74-.24-8.33-.738-8.82-.82-.49-.082-1.5 4.471-1.95 6.758l-3.99 1.433-1.54-6.86h-3.69V67.4l-8-2.047-8.2 3.174-.61 25.187v41.16l-5.13-23.652-5.43 45.972v98.702l-1.13 2.355-1.64 5.221h1.64v13.925l-1.64-9.215-5.44 40.443-4.71-29.283-3.69 36.86h1.43l-.51 21.956-9.84-18.065-.82-5.12 1.84.631.93-2.678-2.77-1.946.82-8.546 1.95-2-5.54-29.182-2.66 16.998-13.21-118.328.63-1.026v-2.446l-1.19-1.183-1.97.552-1.58 2.209 1.58 1.894-4.27 41.577-1.97-20.323.39-1.846-1.66-2.367.79-5.996h3.16l-.71-1.341h-1.97v-1.736l-1.27-.552v2.288h-2.76l-.48 1.341h2.53l-.67 5.996-.83 2.367.83 1.846v4.087l-5.45 46.622-2.43-8.931-3.33 29.972.91 23.009-8.94 16.499.91-2.876-6.22-28.306-5.76 29.82 2.43 1.362 1.36 16.046-11.21 19.678V318.48l1.21-2.876-5-35.573-3.19 28.004-3.79-34.21-1.36-11.656-2.12-2.422v-65.695c-.1-12.615-.46-38.176-1.06-39.508-.61-1.333-3.39-30.729-4.7-45.261l-4.24 6.963 1.36-23.916-4.55-2.12 1.22-22.857-10.46-1.211-7.28 1.211v3.482h-5.3v7.417h-4.09l-1.37-2.573-2.73-3.936h-5.15l-1.36 5.45h-3.64v-4.39l-3.03-1.06-1.67-5.601h-8.18l-1.06 3.179H2225.12v1.514l-3.34.908v3.936h-5v-2.877l-3.18-1.967-1.36-8.628h-10.01l-3.33-4.693L2185.41 56l-7.88 3.18-11.07 3.027v80.076l-6.06-35.118-4.7 46.622.76 64.182-.76 42.536-2.12 22.101-5.76 36.027v21.798l-2.73 70.388-1.36 4.087 1.36 2.876-1.36 36.48-3.64-19.527-3.18 19.527h-1.52l-1.36 13.321 1.36 3.633v19.829z" fill="#2E5A9C"/><path d="M2574.03 514.823V772h560.7v-70.605l4.39-117.796v-68.776l-5.86-.366 1.47-47.558 12.44-13.901 1.83-25.242-17.93-4.756v-44.997l8.05-4.756v-17.194h-8.05l-2.2-21.583 5.86-5.122v-9.146l-5.86-3.292-7.69-60.362-7.32 16.097h-3.29l-8.05-51.582-2.56-4.024-4.39 49.021-6.23 4.39-2.92 13.901 6.22 6.951v18.657l-6.22 4.39v11.341H2897.2v-47.924l-5.86-7.316v-13.902l-1.83-18.291v-17.194l-17.57-10.609v-7.317l5.86-11.706v-10.609l-8.42-10.243V146.8l-4.39-14.633-6.59-13.536V74h-4.02v37.314l-4.4 11.707-2.56 13.17v34.388l-9.51 12.438v10.975l6.95 9.145-20.13 25.608-4.03 29.632-4.75 12.073v55.24l-198.37 2.926-2.56-21.949-4.76-14.268 7.32-14.633-2.56-2.926-4.76-26.706v-22.315l-7.69 2.926v14.633l-5.49 27.072h-3.66v15.73l-4.39 26.706h-3.29l-2.56 8.414 2.56 9.511v23.779h-8.79v14.267l3.66 9.512v38.778l-10.61 6.951v26.705l10.61 15.365v48.655h-6.58zM414 476h672v288H414z" fill="#2E5A9C"/></svg>