<svg width="4108" height="1023" viewBox="0 0 4108 1023" fill="none" xmlns="http://www.w3.org/2000/svg">
<path d="M26 299.756L2167.76 274.3L3634.56 222.2V0H0L26 299.756Z" fill="#2E5A9C"/>
<path d="M1886.46 280V531.2L1932.26 534.8L1918.46 275L1886.46 280Z" fill="#2E5A9C"/>
<path d="M1066.45 215.65L1085.16 700.401H1106.86L1112.76 709.201L1192.56 705.701L1197.86 610.001L1189.66 608.801L1183.16 278.401L1066.45 215.65Z" fill="#2E5A9C"/>
<path d="M1880.66 489.9L1936.26 492L1940.76 537.1L1878.56 530.7L1880.66 489.9Z" fill="#2E5A9C"/>
<path d="M2167.76 274.3V532.256L2192.16 525.356L2206.26 252.9L2167.76 274.3Z" fill="#2E5A9C"/>
<path d="M2482.06 263.1L2484.66 494.1L2523.26 485.8L2525.86 221.6L2482.06 263.1Z" fill="#2E5A9C"/>
<path d="M2533.46 463.6L2465.76 471.8V525.5H2533.46V463.6Z" fill="#2E5A9C"/>
<path d="M2978.36 245.5L2965.06 476.8H2939.96L2918.46 554.6L3044.56 525.5L3024.56 200.9L2978.36 245.5Z" fill="#2E5A9C"/>
<path d="M3407.46 207V570L3377.46 584.1L3371.76 685.7L3511.26 674.6V574.6H3483.56L3502.06 187L3407.46 207Z" fill="#2E5A9C"/>
<path d="M3511.26 674.6L2981.46 513.5L2506.46 494.5L1912.76 506.1L1174.26 611.6L1084.16 671.1L833.861 838.634L198.5 1024H928.647H4107.56L3511.26 674.6Z" fill="#2E5A9C"/>
</svg>
