<svg width="4108" height="1024" viewBox="0 0 4108 1024" fill="none" xmlns="http://www.w3.org/2000/svg">
<path d="M26 300.5L2167.76 275.044L3634.56 222.944V0.744141H0L26 300.5Z" fill="#2E5A9C"/>
<path d="M1886.46 280.744V531.944L1932.26 535.544L1918.46 275.744L1886.46 280.744Z" fill="#2E5A9C"/>
<path d="M1066.45 216.395L1085.16 701.145H1106.86L1112.76 709.945L1192.56 706.445L1197.86 610.745L1189.66 609.545L1183.16 279.145L1066.45 216.395Z" fill="#2E5A9C"/>
<path d="M1880.66 490.645L1936.26 492.745L1940.76 537.845L1878.56 531.445L1880.66 490.645Z" fill="#2E5A9C"/>
<path d="M2167.76 275.045V533L2192.16 526.1L2206.26 253.645L2167.76 275.045Z" fill="#2E5A9C"/>
<path d="M2482.06 263.844L2484.66 494.844L2523.26 486.544L2525.86 222.344L2482.06 263.844Z" fill="#2E5A9C"/>
<path d="M2533.46 464.344L2465.76 472.544V526.244H2533.46V464.344Z" fill="#2E5A9C"/>
<path d="M2978.36 246.245L2965.06 477.545H2939.96L2918.46 555.345L3044.56 526.245L3024.56 201.645L2978.36 246.245Z" fill="#2E5A9C"/>
<path d="M3407.46 207.744V570.744L3377.46 584.844L3371.76 686.444L3511.26 675.344V575.344H3483.56L3502.06 187.744L3407.46 207.744Z" fill="#2E5A9C"/>
<path d="M3511.26 675.344L2981.46 514.244L2506.46 495.244L1912.76 506.844L1174.26 612.344L1084.16 671.844L833.861 839.378L198.5 1024.74H928.647H4107.56L3511.26 675.344Z" fill="#2E5A9C"/>
</svg>
