<svg width="4108" height="1024" fill="none" xmlns="http://www.w3.org/2000/svg"><path d="M26 300.5l2141.76-25.456 1466.8-52.1V.744H0L26 300.5z" fill="#2E5A9C"/><path d="M1886.46 280.744v251.2l45.8 3.6-13.8-259.8-32 5zM1066.45 216.395l18.71 484.75h21.7l5.9 8.8 79.8-3.5 5.3-95.7-8.2-1.2-6.5-330.4-116.71-62.75z" fill="#2E5A9C"/><path d="M1880.66 490.645l55.6 2.1 4.5 45.1-62.2-6.4 2.1-40.8zM2167.76 275.045V533l24.4-6.9 14.1-272.455-38.5 21.4zM2482.06 263.844l2.6 231 38.6-8.3 2.6-264.2-43.8 41.5z" fill="#2E5A9C"/><path d="M2533.46 464.344l-67.7 8.2v53.7h67.7v-61.9zM2978.36 246.245l-13.3 231.3h-25.1l-21.5 77.8 126.1-29.1-20-324.6-46.2 44.6zM3407.46 207.744v363l-30 14.1-5.7 101.6 139.5-11.1v-100h-27.7l18.5-387.6-94.6 20z" fill="#2E5A9C"/><path d="M3511.26 675.344l-529.8-161.1-475-19-593.7 11.6-738.5 105.5-90.1 59.5-250.299 167.534L198.5 1024.74h3909.06l-596.3-349.396z" fill="#2E5A9C"/></svg>