<svg width="155" height="1024" fill="none" xmlns="http://www.w3.org/2000/svg"><path d="M14.703-32.523H154.76V1050.2H44.703l-30-1082.723z" fill="#A75155"/><mask id="a" maskUnits="userSpaceOnUse" x="0" y="-25" width="141" height="1084"><path d="M.703-24.523H140.76V1058.2H30.703L.703-24.523z" fill="#F87980"/></mask><g mask="url(#a)"><path d="M.703-24.523H140.76V1058.2H30.703L.703-24.523z" fill="#F87980"/><g clip-path="url(#clip0)" fill-rule="evenodd" clip-rule="evenodd" fill="#fff"><path d="M-104.254-33.52H14.894V.83h-119.148v-34.35zm2.25 2.25v29.85H12.644v-29.85h-114.648z"/><path d="M12.645-33.52h119.147V.83H12.644v-34.35zm2.25 2.25v29.85h114.647v-29.85H14.894z"/><path d="M-45.805-1.416H73.343v34.35H-45.805v-34.35zm2.25 2.25v29.85H71.093V.834H-43.555z"/><path d="M-104.254 30.688H14.894v34.35h-119.148v-34.35zm2.25 2.25v29.85H12.644v-29.85h-114.648z"/><path d="M12.645 30.688h119.147v34.35H12.644v-34.35zm2.25 2.25v29.85h114.647v-29.85H14.894z"/></g><g clip-path="url(#clip1)" fill-rule="evenodd" clip-rule="evenodd" fill="#fff"><path d="M9.664-33.52h119.147V.83H9.664v-34.35zm2.25 2.25v29.85h114.648v-29.85H11.914z"/><path d="M126.562-33.52H245.71V.83H126.562v-34.35zm2.25 2.25v29.85H243.46v-29.85H128.812z"/><path d="M68.113-1.416h119.148v34.35H68.113v-34.35zm2.25 2.25v29.85h114.648V.834H70.363z"/><path d="M9.664 30.68h119.147v34.35H9.664V30.68zm2.25 2.25v29.85h114.648V32.93H11.914z"/><path d="M126.562 30.68H245.71v34.35H126.562V30.68zm2.25 2.25v29.85H243.46V32.93H128.812z"/></g><g clip-path="url(#clip2)" fill-rule="evenodd" clip-rule="evenodd" fill="#fff"><path d="M-45.805 576.387H73.343v34.35H-45.805v-34.35zm2.25 2.25v29.85H71.093v-29.85H-43.555z"/><path d="M-104.254 608.48H14.894v34.351h-119.148V608.48zm2.25 2.25v29.851H12.644V610.73h-114.648z"/><path d="M12.645 608.48h119.147v34.351H12.644V608.48zm2.25 2.25v29.851h114.647V610.73H14.894z"/><path d="M-45.805 640.586H73.343v34.35H-45.805v-34.35zm2.25 2.25v29.85H71.093v-29.85H-43.555z"/><path d="M-104.254 672.688H14.894v34.35h-119.148v-34.35zm2.25 2.249v29.851H12.644v-29.851h-114.648z"/><path d="M12.645 672.688h119.147v34.35H12.644v-34.35zm2.25 2.249v29.851h114.647v-29.851H14.894z"/><path d="M-45.805 704.793H73.343v34.35H-45.805v-34.35zm2.25 2.25v29.85H71.093v-29.85H-43.555z"/><path d="M-104.254 736.887H14.894v34.35h-119.148v-34.35zm2.25 2.25v29.85H12.644v-29.85h-114.648z"/><path d="M12.645 736.887h119.147v34.35H12.644v-34.35zm2.25 2.25v29.85h114.647v-29.85H14.894z"/><path d="M-45.805 768.992H73.343v34.35H-45.805v-34.35zm2.25 2.25v29.851H71.093v-29.851H-43.555z"/><path d="M-104.254 801.086H14.894v34.35h-119.148v-34.35zm2.25 2.25v29.85H12.644v-29.85h-114.648z"/><path d="M12.645 801.086h119.147v34.35H12.644v-34.35zm2.25 2.25v29.85h114.647v-29.85H14.894z"/><path d="M-45.805 833.191H73.343v34.351H-45.805v-34.351zm2.25 2.25v29.851H71.093v-29.851H-43.555z"/><path d="M-104.254 865.293H14.894v34.35h-119.148v-34.35zm2.25 2.25v29.85H12.644v-29.85h-114.648z"/><path d="M12.645 865.293h119.147v34.35H12.644v-34.35zm2.25 2.25v29.85h114.647v-29.85H14.894z"/><path d="M-45.805 897.391H73.343v34.35H-45.805v-34.35zm2.25 2.249v29.851H71.093V899.64H-43.555z"/><path d="M-104.254 929.492H14.894v34.35h-119.148v-34.35zm2.25 2.25v29.851H12.644v-29.851h-114.648z"/><path d="M12.645 929.492h119.147v34.35H12.644v-34.35zm2.25 2.25v29.851h114.647v-29.851H14.894z"/><path d="M-45.805 961.586H73.343v34.35H-45.805v-34.35zm2.25 2.25v29.85H71.093v-29.85H-43.555z"/><path d="M-104.254 993.691H14.894v34.349h-119.148v-34.349zm2.25 2.25v29.849H12.644v-29.849h-114.648z"/><path d="M12.645 993.691h119.147v34.349H12.644v-34.349zm2.25 2.25v29.849h114.647v-29.849H14.894z"/></g><g clip-path="url(#clip3)" fill-rule="evenodd" clip-rule="evenodd" fill="#fff"><path d="M68.113 576.387h119.148v34.35H68.113v-34.35zm2.25 2.25v29.85h114.648v-29.85H70.363z"/><path d="M9.664 608.492h119.147v34.35H9.664v-34.35zm2.25 2.25v29.851h114.648v-29.851H11.914z"/><path d="M126.562 608.492H245.71v34.35H126.562v-34.35zm2.25 2.25v29.851H243.46v-29.851H128.812z"/><path d="M68.113 640.586h119.148v34.35H68.113v-34.35zm2.25 2.25v29.85h114.648v-29.85H70.363z"/><path d="M9.664 672.688h119.147v34.35H9.664v-34.35zm2.25 2.249v29.851h114.648v-29.851H11.914z"/><path d="M126.562 672.688H245.71v34.35H126.562v-34.35zm2.25 2.249v29.851H243.46v-29.851H128.812z"/><path d="M68.113 704.785h119.148v34.35H68.113v-34.35zm2.25 2.25v29.851h114.648v-29.851H70.363z"/><path d="M9.664 736.887h119.147v34.35H9.664v-34.35zm2.25 2.25v29.85h114.648v-29.85H11.914z"/><path d="M126.562 736.887H245.71v34.35H126.562v-34.35zm2.25 2.25v29.85H243.46v-29.85H128.812z"/><path d="M68.113 768.992h119.148v34.35H68.113v-34.35zm2.25 2.25v29.851h114.648v-29.851H70.363z"/><path d="M9.664 801.086h119.147v34.35H9.664v-34.35zm2.25 2.25v29.85h114.648v-29.85H11.914z"/><path d="M126.562 801.086H245.71v34.35H126.562v-34.35zm2.25 2.25v29.85H243.46v-29.85H128.812z"/><path d="M68.113 833.191h119.148v34.351H68.113v-34.351zm2.25 2.25v29.851h114.648v-29.851H70.363z"/><path d="M9.664 865.293h119.147v34.35H9.664v-34.35zm2.25 2.25v29.85h114.648v-29.85H11.914z"/><path d="M126.562 865.293H245.71v34.35H126.562v-34.35zm2.25 2.25v29.85H243.46v-29.85H128.812z"/><path d="M68.113 897.391h119.148v34.35H68.113v-34.35zm2.25 2.249v29.851h114.648V899.64H70.363z"/><path d="M9.664 929.492h119.147v34.35H9.664v-34.35zm2.25 2.25v29.851h114.648v-29.851H11.914z"/><path d="M126.562 929.492H245.71v34.35H126.562v-34.35zm2.25 2.25v29.851H243.46v-29.851H128.812z"/><path d="M68.113 961.586h119.148v34.35H68.113v-34.35zm2.25 2.25v29.85h114.648v-29.85H70.363z"/><path d="M9.664 993.691h119.147v34.349H9.664v-34.349zm2.25 2.25v29.849h114.648v-29.849H11.914z"/><path d="M126.562 993.691H245.71v34.349H126.562v-34.349zm2.25 2.25v29.849H243.46v-29.849H128.812z"/></g><g clip-path="url(#clip4)" fill-rule="evenodd" clip-rule="evenodd" fill="#fff"><path d="M-45.805 62.781H73.343v34.35H-45.805v-34.35zm2.25 2.25v29.85H71.093v-29.85H-43.555z"/><path d="M-104.254 94.877H14.894v34.35h-119.148v-34.35zm2.25 2.25v29.85H12.644v-29.85h-114.648z"/><path d="M12.645 94.877h119.147v34.35H12.644v-34.35zm2.25 2.25v29.85h114.647v-29.85H14.894z"/><path d="M-45.805 126.98H73.343v34.351H-45.805V126.98zm2.25 2.25v29.851H71.093V129.23H-43.555z"/><path d="M-104.254 159.082H14.894v34.35h-119.148v-34.35zm2.25 2.25v29.85H12.644v-29.85h-114.648z"/><path d="M12.645 159.082h119.147v34.35H12.644v-34.35zm2.25 2.25v29.85h114.647v-29.85H14.894z"/><path d="M-45.805 191.188H73.343v34.35H-45.805v-34.35zm2.25 2.249v29.851H71.093v-29.851H-43.555z"/><path d="M-104.254 223.281H14.894v34.351h-119.148v-34.351zm2.25 2.25v29.851H12.644v-29.851h-114.648z"/><path d="M12.645 223.281h119.147v34.351H12.644v-34.351zm2.25 2.25v29.851h114.647v-29.851H14.894z"/><path d="M-45.805 255.387H73.343v34.35H-45.805v-34.35zm2.25 2.25v29.85H71.093v-29.85H-43.555z"/><path d="M-104.254 287.48H14.894v34.351h-119.148V287.48zm2.25 2.25v29.851H12.644V289.73h-114.648z"/><path d="M12.645 287.48h119.147v34.351H12.644V287.48zm2.25 2.25v29.851h114.647V289.73H14.894z"/><path d="M-45.805 319.586H73.343v34.35H-45.805v-34.35zm2.25 2.25v29.85H71.093v-29.85H-43.555z"/><path d="M-104.254 351.688H14.894v34.35h-119.148v-34.35zm2.25 2.249v29.851H12.644v-29.851h-114.648z"/><path d="M12.645 351.688h119.147v34.35H12.644v-34.35zm2.25 2.249v29.851h114.647v-29.851H14.894z"/><path d="M-45.805 383.785H73.343v34.35H-45.805v-34.35zm2.25 2.25v29.851H71.093v-29.851H-43.555z"/><path d="M-104.254 415.887H14.894v34.35h-119.148v-34.35zm2.25 2.25v29.85H12.644v-29.85h-114.648z"/><path d="M12.645 415.887h119.147v34.35H12.644v-34.35zm2.25 2.25v29.85h114.647v-29.85H14.894z"/><path d="M-45.805 447.98H73.343v34.351H-45.805V447.98zm2.25 2.25v29.851H71.093V450.23H-43.555z"/><path d="M-104.254 480.086H14.894v34.35h-119.148v-34.35zm2.25 2.25v29.85H12.644v-29.85h-114.648z"/><path d="M12.645 480.086h119.147v34.35H12.644v-34.35zm2.25 2.25v29.85h114.647v-29.85H14.894z"/><path d="M-45.805 512.188H73.343v34.35H-45.805v-34.35zm2.25 2.249v29.851H71.093v-29.851H-43.555z"/><path d="M-104.254 544.293H14.894v34.35h-119.148v-34.35zm2.25 2.25v29.85H12.644v-29.85h-114.648z"/><path d="M12.645 544.293h119.147v34.35H12.644v-34.35zm2.25 2.25v29.85h114.647v-29.85H14.894z"/></g><g clip-path="url(#clip5)" fill-rule="evenodd" clip-rule="evenodd" fill="#fff"><path d="M68.113 62.781h119.148v34.35H68.113v-34.35zm2.25 2.25v29.85h114.648v-29.85H70.363z"/><path d="M9.664 94.885h119.147v34.35H9.664v-34.35zm2.25 2.25v29.85h114.648v-29.85H11.914z"/><path d="M126.562 94.885H245.71v34.35H126.562v-34.35zm2.25 2.25v29.85H243.46v-29.85H128.812z"/><path d="M68.113 126.98h119.148v34.351H68.113V126.98zm2.25 2.25v29.851h114.648V129.23H70.363z"/><path d="M9.664 159.082h119.147v34.35H9.664v-34.35zm2.25 2.25v29.85h114.648v-29.85H11.914z"/><path d="M126.562 159.082H245.71v34.35H126.562v-34.35zm2.25 2.25v29.85H243.46v-29.85H128.812z"/><path d="M68.113 191.18h119.148v34.35H68.113v-34.35zm2.25 2.25v29.85h114.648v-29.85H70.363z"/><path d="M9.664 223.281h119.147v34.351H9.664v-34.351zm2.25 2.25v29.851h114.648v-29.851H11.914z"/><path d="M126.562 223.281H245.71v34.351H126.562v-34.351zm2.25 2.25v29.851H243.46v-29.851H128.812z"/><path d="M68.113 255.387h119.148v34.35H68.113v-34.35zm2.25 2.25v29.85h114.648v-29.85H70.363z"/><path d="M9.664 287.48h119.147v34.351H9.664V287.48zm2.25 2.25v29.851h114.648V289.73H11.914z"/><path d="M126.562 287.48H245.71v34.351H126.562V287.48zm2.25 2.25v29.851H243.46V289.73H128.812z"/><path d="M68.113 319.586h119.148v34.35H68.113v-34.35zm2.25 2.25v29.85h114.648v-29.85H70.363z"/><path d="M9.664 351.688h119.147v34.35H9.664v-34.35zm2.25 2.249v29.851h114.648v-29.851H11.914z"/><path d="M126.562 351.688H245.71v34.35H126.562v-34.35zm2.25 2.249v29.851H243.46v-29.851H128.812z"/><path d="M68.113 383.785h119.148v34.35H68.113v-34.35zm2.25 2.25v29.851h114.648v-29.851H70.363z"/><path d="M9.664 415.887h119.147v34.35H9.664v-34.35zm2.25 2.25v29.85h114.648v-29.85H11.914z"/><path d="M126.562 415.887H245.71v34.35H126.562v-34.35zm2.25 2.25v29.85H243.46v-29.85H128.812z"/><path d="M68.113 447.98h119.148v34.351H68.113V447.98zm2.25 2.25v29.851h114.648V450.23H70.363z"/><path d="M9.664 480.086h119.147v34.35H9.664v-34.35zm2.25 2.25v29.85h114.648v-29.85H11.914z"/><path d="M126.562 480.086H245.71v34.35H126.562v-34.35zm2.25 2.25v29.85H243.46v-29.85H128.812z"/><path d="M68.113 512.188h119.148v34.35H68.113v-34.35zm2.25 2.249v29.851h114.648v-29.851H70.363z"/><path d="M9.664 544.285h119.147v34.35H9.664v-34.35zm2.25 2.25v29.851h114.648v-29.851H11.914z"/><path d="M126.562 544.285H245.71v34.35H126.562v-34.35zm2.25 2.25v29.851H243.46v-29.851H128.812z"/></g></g><defs><clipPath id="clip0"><path fill="#fff" transform="translate(-862.969 -449.699)" d="M0 0h935.18v513.607H0z"/></clipPath><clipPath id="clip1"><path fill="#fff" transform="translate(69.234 -449.699)" d="M0 0h935.18v513.607H0z"/></clipPath><clipPath id="clip2"><path fill="#fff" transform="translate(-862.969 577.512)" d="M0 0h935.18v513.607H0z"/></clipPath><clipPath id="clip3"><path fill="#fff" transform="translate(69.234 577.512)" d="M0 0h935.18v513.607H0z"/></clipPath><clipPath id="clip4"><path fill="#fff" transform="translate(-862.969 63.906)" d="M0 0h935.18v513.607H0z"/></clipPath><clipPath id="clip5"><path fill="#fff" transform="translate(69.234 63.906)" d="M0 0h935.18v513.607H0z"/></clipPath></defs></svg>