<svg width="155" height="1024" viewBox="0 0 155 1024" fill="none" xmlns="http://www.w3.org/2000/svg">
<path d="M14.7031 -32.5234H154.759V1050.2H44.7031L14.7031 -32.5234Z" fill="#A75155"/>
<mask id="mask0" mask-type="alpha" maskUnits="userSpaceOnUse" x="0" y="-25" width="141" height="1084">
<path d="M0.703125 -24.5234H140.759V1058.2H30.7031L0.703125 -24.5234Z" fill="#F87980"/>
</mask>
<g mask="url(#mask0)">
<path d="M0.703125 -24.5234H140.759V1058.2H30.7031L0.703125 -24.5234Z" fill="#F87980"/>
<g clip-path="url(#clip0)">
<path fill-rule="evenodd" clip-rule="evenodd" d="M-104.254 -33.5195H14.8936V0.830811H-104.254V-33.5195ZM-102.004 -31.2697V-1.41906H12.6437V-31.2697H-102.004Z" fill="white"/>
<path fill-rule="evenodd" clip-rule="evenodd" d="M12.6445 -33.5195H131.792V0.830811H12.6445V-33.5195ZM14.8944 -31.2697V-1.41906H129.542V-31.2697H14.8944Z" fill="white"/>
<path fill-rule="evenodd" clip-rule="evenodd" d="M-45.8047 -1.41602H73.3426V32.9343H-45.8047V-1.41602ZM-43.5548 0.833857V30.6845H71.0927V0.833857H-43.5548Z" fill="white"/>
<path fill-rule="evenodd" clip-rule="evenodd" d="M-104.254 30.6875H14.8936V65.0378H-104.254V30.6875ZM-102.004 32.9374V62.7879H12.6437V32.9374H-102.004Z" fill="white"/>
<path fill-rule="evenodd" clip-rule="evenodd" d="M12.6445 30.6875H131.792V65.0378H12.6445V30.6875ZM14.8944 32.9374V62.7879H129.542V32.9374H14.8944Z" fill="white"/>
</g>
<g clip-path="url(#clip1)">
<path fill-rule="evenodd" clip-rule="evenodd" d="M9.66406 -33.5195H128.811V0.830811H9.66406V-33.5195ZM11.9139 -31.2697V-1.41906H126.562V-31.2697H11.9139Z" fill="white"/>
<path fill-rule="evenodd" clip-rule="evenodd" d="M126.562 -33.5195H245.71V0.830811H126.562V-33.5195ZM128.812 -31.2697V-1.41906H243.46V-31.2697H128.812Z" fill="white"/>
<path fill-rule="evenodd" clip-rule="evenodd" d="M68.1133 -1.41602H187.261V32.9343H68.1133V-1.41602ZM70.3632 0.833857V30.6845H185.011V0.833857H70.3632Z" fill="white"/>
<path fill-rule="evenodd" clip-rule="evenodd" d="M9.66406 30.6797H128.811V65.03H9.66406V30.6797ZM11.9139 32.9296V62.7802H126.562V32.9296H11.9139Z" fill="white"/>
<path fill-rule="evenodd" clip-rule="evenodd" d="M126.562 30.6797H245.71V65.03H126.562V30.6797ZM128.812 32.9296V62.7802H243.46V32.9296H128.812Z" fill="white"/>
</g>
<g clip-path="url(#clip2)">
<path fill-rule="evenodd" clip-rule="evenodd" d="M-45.8047 576.387H73.3426V610.737H-45.8047V576.387ZM-43.5548 578.637V608.487H71.0927V578.637H-43.5548Z" fill="white"/>
<path fill-rule="evenodd" clip-rule="evenodd" d="M-104.254 608.48H14.8936V642.831H-104.254V608.48ZM-102.004 610.73V640.581H12.6437V610.73H-102.004Z" fill="white"/>
<path fill-rule="evenodd" clip-rule="evenodd" d="M12.6445 608.48H131.792V642.831H12.6445V608.48ZM14.8944 610.73V640.581H129.542V610.73H14.8944Z" fill="white"/>
<path fill-rule="evenodd" clip-rule="evenodd" d="M-45.8047 640.586H73.3426V674.936H-45.8047V640.586ZM-43.5548 642.836V672.686H71.0927V642.836H-43.5548Z" fill="white"/>
<path fill-rule="evenodd" clip-rule="evenodd" d="M-104.254 672.688H14.8936V707.038H-104.254V672.688ZM-102.004 674.937V704.788H12.6437V674.937H-102.004Z" fill="white"/>
<path fill-rule="evenodd" clip-rule="evenodd" d="M12.6445 672.688H131.792V707.038H12.6445V672.688ZM14.8944 674.937V704.788H129.542V674.937H14.8944Z" fill="white"/>
<path fill-rule="evenodd" clip-rule="evenodd" d="M-45.8047 704.793H73.3426V739.143H-45.8047V704.793ZM-43.5548 707.043V736.893H71.0927V707.043H-43.5548Z" fill="white"/>
<path fill-rule="evenodd" clip-rule="evenodd" d="M-104.254 736.887H14.8936V771.237H-104.254V736.887ZM-102.004 739.137V768.987H12.6437V739.137H-102.004Z" fill="white"/>
<path fill-rule="evenodd" clip-rule="evenodd" d="M12.6445 736.887H131.792V771.237H12.6445V736.887ZM14.8944 739.137V768.987H129.542V739.137H14.8944Z" fill="white"/>
<path fill-rule="evenodd" clip-rule="evenodd" d="M-45.8047 768.992H73.3426V803.342H-45.8047V768.992ZM-43.5548 771.242V801.093H71.0927V771.242H-43.5548Z" fill="white"/>
<path fill-rule="evenodd" clip-rule="evenodd" d="M-104.254 801.086H14.8936V835.436H-104.254V801.086ZM-102.004 803.336V833.186H12.6437V803.336H-102.004Z" fill="white"/>
<path fill-rule="evenodd" clip-rule="evenodd" d="M12.6445 801.086H131.792V835.436H12.6445V801.086ZM14.8944 803.336V833.186H129.542V803.336H14.8944Z" fill="white"/>
<path fill-rule="evenodd" clip-rule="evenodd" d="M-45.8047 833.191H73.3426V867.542H-45.8047V833.191ZM-43.5548 835.441V865.292H71.0927V835.441H-43.5548Z" fill="white"/>
<path fill-rule="evenodd" clip-rule="evenodd" d="M-104.254 865.293H14.8936V899.643H-104.254V865.293ZM-102.004 867.543V897.393H12.6437V867.543H-102.004Z" fill="white"/>
<path fill-rule="evenodd" clip-rule="evenodd" d="M12.6445 865.293H131.792V899.643H12.6445V865.293ZM14.8944 867.543V897.393H129.542V867.543H14.8944Z" fill="white"/>
<path fill-rule="evenodd" clip-rule="evenodd" d="M-45.8047 897.391H73.3426V931.741H-45.8047V897.391ZM-43.5548 899.64V929.491H71.0927V899.64H-43.5548Z" fill="white"/>
<path fill-rule="evenodd" clip-rule="evenodd" d="M-104.254 929.492H14.8936V963.842H-104.254V929.492ZM-102.004 931.742V961.593H12.6437V931.742H-102.004Z" fill="white"/>
<path fill-rule="evenodd" clip-rule="evenodd" d="M12.6445 929.492H131.792V963.842H12.6445V929.492ZM14.8944 931.742V961.593H129.542V931.742H14.8944Z" fill="white"/>
<path fill-rule="evenodd" clip-rule="evenodd" d="M-45.8047 961.586H73.3426V995.936H-45.8047V961.586ZM-43.5548 963.836V993.686H71.0927V963.836H-43.5548Z" fill="white"/>
<path fill-rule="evenodd" clip-rule="evenodd" d="M-104.254 993.691H14.8936V1028.04H-104.254V993.691ZM-102.004 995.941V1025.79H12.6437V995.941H-102.004Z" fill="white"/>
<path fill-rule="evenodd" clip-rule="evenodd" d="M12.6445 993.691H131.792V1028.04H12.6445V993.691ZM14.8944 995.941V1025.79H129.542V995.941H14.8944Z" fill="white"/>
</g>
<g clip-path="url(#clip3)">
<path fill-rule="evenodd" clip-rule="evenodd" d="M68.1133 576.387H187.261V610.737H68.1133V576.387ZM70.3632 578.637V608.487H185.011V578.637H70.3632Z" fill="white"/>
<path fill-rule="evenodd" clip-rule="evenodd" d="M9.66406 608.492H128.811V642.842H9.66406V608.492ZM11.9139 610.742V640.593H126.562V610.742H11.9139Z" fill="white"/>
<path fill-rule="evenodd" clip-rule="evenodd" d="M126.562 608.492H245.71V642.842H126.562V608.492ZM128.812 610.742V640.593H243.46V610.742H128.812Z" fill="white"/>
<path fill-rule="evenodd" clip-rule="evenodd" d="M68.1133 640.586H187.261V674.936H68.1133V640.586ZM70.3632 642.836V672.686H185.011V642.836H70.3632Z" fill="white"/>
<path fill-rule="evenodd" clip-rule="evenodd" d="M9.66406 672.688H128.811V707.038H9.66406V672.688ZM11.9139 674.937V704.788H126.562V674.937H11.9139Z" fill="white"/>
<path fill-rule="evenodd" clip-rule="evenodd" d="M126.562 672.688H245.71V707.038H126.562V672.688ZM128.812 674.937V704.788H243.46V674.937H128.812Z" fill="white"/>
<path fill-rule="evenodd" clip-rule="evenodd" d="M68.1133 704.785H187.261V739.135H68.1133V704.785ZM70.3632 707.035V736.886H185.011V707.035H70.3632Z" fill="white"/>
<path fill-rule="evenodd" clip-rule="evenodd" d="M9.66406 736.887H128.811V771.237H9.66406V736.887ZM11.9139 739.137V768.987H126.562V739.137H11.9139Z" fill="white"/>
<path fill-rule="evenodd" clip-rule="evenodd" d="M126.562 736.887H245.71V771.237H126.562V736.887ZM128.812 739.137V768.987H243.46V739.137H128.812Z" fill="white"/>
<path fill-rule="evenodd" clip-rule="evenodd" d="M68.1133 768.992H187.261V803.342H68.1133V768.992ZM70.3632 771.242V801.093H185.011V771.242H70.3632Z" fill="white"/>
<path fill-rule="evenodd" clip-rule="evenodd" d="M9.66406 801.086H128.811V835.436H9.66406V801.086ZM11.9139 803.336V833.186H126.562V803.336H11.9139Z" fill="white"/>
<path fill-rule="evenodd" clip-rule="evenodd" d="M126.562 801.086H245.71V835.436H126.562V801.086ZM128.812 803.336V833.186H243.46V803.336H128.812Z" fill="white"/>
<path fill-rule="evenodd" clip-rule="evenodd" d="M68.1133 833.191H187.261V867.542H68.1133V833.191ZM70.3632 835.441V865.292H185.011V835.441H70.3632Z" fill="white"/>
<path fill-rule="evenodd" clip-rule="evenodd" d="M9.66406 865.293H128.811V899.643H9.66406V865.293ZM11.9139 867.543V897.393H126.562V867.543H11.9139Z" fill="white"/>
<path fill-rule="evenodd" clip-rule="evenodd" d="M126.562 865.293H245.71V899.643H126.562V865.293ZM128.812 867.543V897.393H243.46V867.543H128.812Z" fill="white"/>
<path fill-rule="evenodd" clip-rule="evenodd" d="M68.1133 897.391H187.261V931.741H68.1133V897.391ZM70.3632 899.64V929.491H185.011V899.64H70.3632Z" fill="white"/>
<path fill-rule="evenodd" clip-rule="evenodd" d="M9.66406 929.492H128.811V963.842H9.66406V929.492ZM11.9139 931.742V961.593H126.562V931.742H11.9139Z" fill="white"/>
<path fill-rule="evenodd" clip-rule="evenodd" d="M126.562 929.492H245.71V963.842H126.562V929.492ZM128.812 931.742V961.593H243.46V931.742H128.812Z" fill="white"/>
<path fill-rule="evenodd" clip-rule="evenodd" d="M68.1133 961.586H187.261V995.936H68.1133V961.586ZM70.3632 963.836V993.686H185.011V963.836H70.3632Z" fill="white"/>
<path fill-rule="evenodd" clip-rule="evenodd" d="M9.66406 993.691H128.811V1028.04H9.66406V993.691ZM11.9139 995.941V1025.79H126.562V995.941H11.9139Z" fill="white"/>
<path fill-rule="evenodd" clip-rule="evenodd" d="M126.562 993.691H245.71V1028.04H126.562V993.691ZM128.812 995.941V1025.79H243.46V995.941H128.812Z" fill="white"/>
</g>
<g clip-path="url(#clip4)">
<path fill-rule="evenodd" clip-rule="evenodd" d="M-45.8047 62.7812H73.3426V97.1315H-45.8047V62.7812ZM-43.5548 65.0311V94.8817H71.0927V65.0311H-43.5548Z" fill="white"/>
<path fill-rule="evenodd" clip-rule="evenodd" d="M-104.254 94.877H14.8936V129.227H-104.254V94.877ZM-102.004 97.1268V126.977H12.6437V97.1268H-102.004Z" fill="white"/>
<path fill-rule="evenodd" clip-rule="evenodd" d="M12.6445 94.877H131.792V129.227H12.6445V94.877ZM14.8944 97.1268V126.977H129.542V97.1268H14.8944Z" fill="white"/>
<path fill-rule="evenodd" clip-rule="evenodd" d="M-45.8047 126.98H73.3426V161.331H-45.8047V126.98ZM-43.5548 129.23V159.081H71.0927V129.23H-43.5548Z" fill="white"/>
<path fill-rule="evenodd" clip-rule="evenodd" d="M-104.254 159.082H14.8936V193.432H-104.254V159.082ZM-102.004 161.332V191.182H12.6437V161.332H-102.004Z" fill="white"/>
<path fill-rule="evenodd" clip-rule="evenodd" d="M12.6445 159.082H131.792V193.432H12.6445V159.082ZM14.8944 161.332V191.182H129.542V161.332H14.8944Z" fill="white"/>
<path fill-rule="evenodd" clip-rule="evenodd" d="M-45.8047 191.188H73.3426V225.538H-45.8047V191.188ZM-43.5548 193.437V223.288H71.0927V193.437H-43.5548Z" fill="white"/>
<path fill-rule="evenodd" clip-rule="evenodd" d="M-104.254 223.281H14.8936V257.632H-104.254V223.281ZM-102.004 225.531V255.382H12.6437V225.531H-102.004Z" fill="white"/>
<path fill-rule="evenodd" clip-rule="evenodd" d="M12.6445 223.281H131.792V257.632H12.6445V223.281ZM14.8944 225.531V255.382H129.542V225.531H14.8944Z" fill="white"/>
<path fill-rule="evenodd" clip-rule="evenodd" d="M-45.8047 255.387H73.3426V289.737H-45.8047V255.387ZM-43.5548 257.637V287.487H71.0927V257.637H-43.5548Z" fill="white"/>
<path fill-rule="evenodd" clip-rule="evenodd" d="M-104.254 287.48H14.8936V321.831H-104.254V287.48ZM-102.004 289.73V319.581H12.6437V289.73H-102.004Z" fill="white"/>
<path fill-rule="evenodd" clip-rule="evenodd" d="M12.6445 287.48H131.792V321.831H12.6445V287.48ZM14.8944 289.73V319.581H129.542V289.73H14.8944Z" fill="white"/>
<path fill-rule="evenodd" clip-rule="evenodd" d="M-45.8047 319.586H73.3426V353.936H-45.8047V319.586ZM-43.5548 321.836V351.686H71.0927V321.836H-43.5548Z" fill="white"/>
<path fill-rule="evenodd" clip-rule="evenodd" d="M-104.254 351.688H14.8936V386.038H-104.254V351.688ZM-102.004 353.937V383.788H12.6437V353.937H-102.004Z" fill="white"/>
<path fill-rule="evenodd" clip-rule="evenodd" d="M12.6445 351.688H131.792V386.038H12.6445V351.688ZM14.8944 353.937V383.788H129.542V353.937H14.8944Z" fill="white"/>
<path fill-rule="evenodd" clip-rule="evenodd" d="M-45.8047 383.785H73.3426V418.135H-45.8047V383.785ZM-43.5548 386.035V415.886H71.0927V386.035H-43.5548Z" fill="white"/>
<path fill-rule="evenodd" clip-rule="evenodd" d="M-104.254 415.887H14.8936V450.237H-104.254V415.887ZM-102.004 418.137V447.987H12.6437V418.137H-102.004Z" fill="white"/>
<path fill-rule="evenodd" clip-rule="evenodd" d="M12.6445 415.887H131.792V450.237H12.6445V415.887ZM14.8944 418.137V447.987H129.542V418.137H14.8944Z" fill="white"/>
<path fill-rule="evenodd" clip-rule="evenodd" d="M-45.8047 447.98H73.3426V482.331H-45.8047V447.98ZM-43.5548 450.23V480.081H71.0927V450.23H-43.5548Z" fill="white"/>
<path fill-rule="evenodd" clip-rule="evenodd" d="M-104.254 480.086H14.8936V514.436H-104.254V480.086ZM-102.004 482.336V512.186H12.6437V482.336H-102.004Z" fill="white"/>
<path fill-rule="evenodd" clip-rule="evenodd" d="M12.6445 480.086H131.792V514.436H12.6445V480.086ZM14.8944 482.336V512.186H129.542V482.336H14.8944Z" fill="white"/>
<path fill-rule="evenodd" clip-rule="evenodd" d="M-45.8047 512.188H73.3426V546.538H-45.8047V512.188ZM-43.5548 514.437V544.288H71.0927V514.437H-43.5548Z" fill="white"/>
<path fill-rule="evenodd" clip-rule="evenodd" d="M-104.254 544.293H14.8936V578.643H-104.254V544.293ZM-102.004 546.543V576.393H12.6437V546.543H-102.004Z" fill="white"/>
<path fill-rule="evenodd" clip-rule="evenodd" d="M12.6445 544.293H131.792V578.643H12.6445V544.293ZM14.8944 546.543V576.393H129.542V546.543H14.8944Z" fill="white"/>
</g>
<g clip-path="url(#clip5)">
<path fill-rule="evenodd" clip-rule="evenodd" d="M68.1133 62.7812H187.261V97.1315H68.1133V62.7812ZM70.3632 65.0311V94.8817H185.011V65.0311H70.3632Z" fill="white"/>
<path fill-rule="evenodd" clip-rule="evenodd" d="M9.66406 94.8848H128.811V129.235H9.66406V94.8848ZM11.9139 97.1346V126.985H126.562V97.1346H11.9139Z" fill="white"/>
<path fill-rule="evenodd" clip-rule="evenodd" d="M126.562 94.8848H245.71V129.235H126.562V94.8848ZM128.812 97.1346V126.985H243.46V97.1346H128.812Z" fill="white"/>
<path fill-rule="evenodd" clip-rule="evenodd" d="M68.1133 126.98H187.261V161.331H68.1133V126.98ZM70.3632 129.23V159.081H185.011V129.23H70.3632Z" fill="white"/>
<path fill-rule="evenodd" clip-rule="evenodd" d="M9.66406 159.082H128.811V193.432H9.66406V159.082ZM11.9139 161.332V191.182H126.562V161.332H11.9139Z" fill="white"/>
<path fill-rule="evenodd" clip-rule="evenodd" d="M126.562 159.082H245.71V193.432H126.562V159.082ZM128.812 161.332V191.182H243.46V161.332H128.812Z" fill="white"/>
<path fill-rule="evenodd" clip-rule="evenodd" d="M68.1133 191.18H187.261V225.53H68.1133V191.18ZM70.3632 193.43V223.28H185.011V193.43H70.3632Z" fill="white"/>
<path fill-rule="evenodd" clip-rule="evenodd" d="M9.66406 223.281H128.811V257.632H9.66406V223.281ZM11.9139 225.531V255.382H126.562V225.531H11.9139Z" fill="white"/>
<path fill-rule="evenodd" clip-rule="evenodd" d="M126.562 223.281H245.71V257.632H126.562V223.281ZM128.812 225.531V255.382H243.46V225.531H128.812Z" fill="white"/>
<path fill-rule="evenodd" clip-rule="evenodd" d="M68.1133 255.387H187.261V289.737H68.1133V255.387ZM70.3632 257.637V287.487H185.011V257.637H70.3632Z" fill="white"/>
<path fill-rule="evenodd" clip-rule="evenodd" d="M9.66406 287.48H128.811V321.831H9.66406V287.48ZM11.9139 289.73V319.581H126.562V289.73H11.9139Z" fill="white"/>
<path fill-rule="evenodd" clip-rule="evenodd" d="M126.562 287.48H245.71V321.831H126.562V287.48ZM128.812 289.73V319.581H243.46V289.73H128.812Z" fill="white"/>
<path fill-rule="evenodd" clip-rule="evenodd" d="M68.1133 319.586H187.261V353.936H68.1133V319.586ZM70.3632 321.836V351.686H185.011V321.836H70.3632Z" fill="white"/>
<path fill-rule="evenodd" clip-rule="evenodd" d="M9.66406 351.688H128.811V386.038H9.66406V351.688ZM11.9139 353.937V383.788H126.562V353.937H11.9139Z" fill="white"/>
<path fill-rule="evenodd" clip-rule="evenodd" d="M126.562 351.688H245.71V386.038H126.562V351.688ZM128.812 353.937V383.788H243.46V353.937H128.812Z" fill="white"/>
<path fill-rule="evenodd" clip-rule="evenodd" d="M68.1133 383.785H187.261V418.135H68.1133V383.785ZM70.3632 386.035V415.886H185.011V386.035H70.3632Z" fill="white"/>
<path fill-rule="evenodd" clip-rule="evenodd" d="M9.66406 415.887H128.811V450.237H9.66406V415.887ZM11.9139 418.137V447.987H126.562V418.137H11.9139Z" fill="white"/>
<path fill-rule="evenodd" clip-rule="evenodd" d="M126.562 415.887H245.71V450.237H126.562V415.887ZM128.812 418.137V447.987H243.46V418.137H128.812Z" fill="white"/>
<path fill-rule="evenodd" clip-rule="evenodd" d="M68.1133 447.98H187.261V482.331H68.1133V447.98ZM70.3632 450.23V480.081H185.011V450.23H70.3632Z" fill="white"/>
<path fill-rule="evenodd" clip-rule="evenodd" d="M9.66406 480.086H128.811V514.436H9.66406V480.086ZM11.9139 482.336V512.186H126.562V482.336H11.9139Z" fill="white"/>
<path fill-rule="evenodd" clip-rule="evenodd" d="M126.562 480.086H245.71V514.436H126.562V480.086ZM128.812 482.336V512.186H243.46V482.336H128.812Z" fill="white"/>
<path fill-rule="evenodd" clip-rule="evenodd" d="M68.1133 512.188H187.261V546.538H68.1133V512.188ZM70.3632 514.437V544.288H185.011V514.437H70.3632Z" fill="white"/>
<path fill-rule="evenodd" clip-rule="evenodd" d="M9.66406 544.285H128.811V578.635H9.66406V544.285ZM11.9139 546.535V576.386H126.562V546.535H11.9139Z" fill="white"/>
<path fill-rule="evenodd" clip-rule="evenodd" d="M126.562 544.285H245.71V578.635H126.562V544.285ZM128.812 546.535V576.386H243.46V546.535H128.812Z" fill="white"/>
</g>
</g>
<defs>
<clipPath id="clip0">
<rect width="935.18" height="513.607" fill="white" transform="translate(-862.969 -449.699)"/>
</clipPath>
<clipPath id="clip1">
<rect width="935.18" height="513.607" fill="white" transform="translate(69.2344 -449.699)"/>
</clipPath>
<clipPath id="clip2">
<rect width="935.18" height="513.607" fill="white" transform="translate(-862.969 577.512)"/>
</clipPath>
<clipPath id="clip3">
<rect width="935.18" height="513.607" fill="white" transform="translate(69.2344 577.512)"/>
</clipPath>
<clipPath id="clip4">
<rect width="935.18" height="513.607" fill="white" transform="translate(-862.969 63.9062)"/>
</clipPath>
<clipPath id="clip5">
<rect width="935.18" height="513.607" fill="white" transform="translate(69.2344 63.9062)"/>
</clipPath>
</defs>
</svg>
