<svg width="3234" height="1025" viewBox="0 0 3234 1025" fill="none" xmlns="http://www.w3.org/2000/svg">
<g clip-path="url(#clip0)">
<path d="M1128.16 955.999H322.836V579.824L1128.16 575.018V955.999Z" fill="#F87980"/>
<path d="M1128.16 554.727H322.836L353.274 435.107H1097.72L1128.16 554.727Z" fill="#5C404E"/>
<path d="M1128.16 570.213H322.836V579.825L1128.16 575.019V570.213Z" fill="#FFF1F0"/>
<path d="M1049.94 374L403.348 376.289V385.901H1047.65L1049.94 374Z" fill="#FFF1F0"/>
<path d="M1136 554.725L315 551.674V575.018H1128.16L1128.09 572.348H1136V554.725Z" fill="#FFF1F0"/>
<path d="M1047.65 385.9H731.931H719.147H403.349L353.277 435.106H719.147H731.931H1097.72L1047.65 385.9Z" fill="#5C404E"/>
<path d="M774.546 739.418H666.641L663.598 610.568L774.546 606.754V739.418Z" fill="#FACABC"/>
<path d="M763.587 705.395H677.599L674.555 622.928L763.587 619.113V705.395Z" fill="#FFF1F0"/>
<path d="M600.057 606.754H492.152V739.418H600.057V606.754Z" fill="#FACABC"/>
<path d="M955.424 956.001H877.654L875.371 802.662L955.424 805.714V956.001Z" fill="#FACABC"/>
<path d="M600.057 906.719L488.348 909.771L492.152 771.613H600.057V906.719Z" fill="#FACABC"/>
<path d="M403.651 956.001H345.438V811.283L406.695 808.994L403.651 956.001Z" fill="#FACABC"/>
<path d="M589.098 619.113H503.109V730.188H589.098V619.113Z" fill="#FFF1F0"/>
<path d="M1056.02 739.42H948.117V606.755L1058.3 602.178L1056.02 739.42Z" fill="#FACABC"/>
<path d="M1045.07 652.298H959.078V619.112L1047.35 614.535L1045.07 652.298Z" fill="#FFF1F0"/>
<path d="M1045.07 660.004H959.078V730.265H1045.07V660.004Z" fill="#FFF1F0"/>
<path d="M1087.15 906.108L974.676 903.819V771.154H1082.58L1087.15 906.108Z" fill="#FACABC"/>
<path d="M1071.62 783.514H985.633V816.699H1071.62V783.514Z" fill="#FFF1F0"/>
<path d="M1076.19 896.878L985.633 894.589V824.328H1071.62L1076.19 896.878Z" fill="#FFF1F0"/>
<path d="M589.098 783.514H503.109V816.699H589.098V783.514Z" fill="#FFF1F0"/>
<path d="M589.098 894.589L499.305 897.641L503.109 824.328H589.098V894.589Z" fill="#FFF1F0"/>
<path d="M763.586 710.125H677.598V730.265H763.586V710.125Z" fill="#FFF1F0"/>
<path d="M697.688 724.847H695.177L694.949 723.397L694.797 722.863H693.046L691.524 722.94L691.372 723.321L691.068 724.923H688.633L691.829 715.082H694.797L697.688 724.847ZM694.264 721.032L693.275 717.294H693.199L692.057 721.032H693.199H694.264Z" fill="#2C1E25"/>
<path d="M705.983 722.33L706.059 724.848H703.548L700.885 720.576H700.732V722.101L700.809 724.848H698.754L698.83 722.559L698.754 717.067H701.265L703.928 721.339H704.081L704.005 717.143L706.135 716.99L705.983 722.33Z" fill="#2C1E25"/>
<path d="M715.268 722.33L715.344 724.848H712.833L710.17 720.576H710.018V722.101L710.094 724.848H708.039L708.115 722.559L708.039 717.067H710.55L713.214 721.339H713.366L713.29 717.143L715.42 716.99L715.268 722.33Z" fill="#2C1E25"/>
<path d="M723.483 717.982C724.092 718.668 724.473 719.584 724.473 720.804C724.473 722.177 724.092 723.169 723.407 723.932C722.723 724.695 721.733 725.076 720.44 725.076C719.298 725.076 718.385 724.771 717.7 724.085C717.091 723.398 716.711 722.406 716.711 721.186C716.711 719.889 717.091 718.821 717.776 718.134C718.461 717.448 719.45 717.066 720.744 717.066C721.885 716.99 722.799 717.295 723.483 717.982ZM719.679 718.973C719.45 719.126 719.298 719.278 719.222 719.584C719.146 719.889 719.07 720.27 719.07 720.804C719.07 721.491 719.146 721.949 719.222 722.33C719.298 722.711 719.45 722.94 719.679 723.093C719.907 723.245 720.211 723.322 720.592 723.322C720.972 723.322 721.277 723.245 721.429 723.169C721.657 723.017 721.809 722.864 721.885 722.559C721.962 722.254 722.038 721.872 722.038 721.338C722.038 720.652 721.962 720.194 721.885 719.812C721.809 719.431 721.657 719.202 721.429 719.05C721.201 718.897 720.896 718.821 720.516 718.821C720.135 718.821 719.831 718.897 719.679 718.973Z" fill="#2C1E25"/>
<path d="M731.248 717.219L731.096 721.644L731.172 724.848H728.737L728.813 721.949V719.737L727.215 720.118L727.062 719.965V718.058L730.867 716.99L731.248 717.219Z" fill="#2C1E25"/>
<path d="M738.706 716.379C739.162 716.76 739.466 717.37 739.466 718.057C739.466 718.515 739.39 718.896 739.162 719.201C738.934 719.507 738.629 719.812 738.173 720.117V720.193C738.629 720.422 739.01 720.727 739.314 721.032C739.619 721.337 739.695 721.795 739.695 722.329C739.695 723.168 739.39 723.855 738.782 724.313C738.173 724.77 737.336 725.076 736.347 725.076C735.357 725.076 734.673 724.847 734.14 724.465C733.607 724.084 733.379 723.473 733.379 722.787C733.379 722.253 733.531 721.871 733.759 721.49C734.064 721.185 734.444 720.88 734.977 720.651V720.575C734.596 720.346 734.216 720.041 733.988 719.735C733.759 719.43 733.607 718.972 733.607 718.438C733.607 717.599 733.912 716.989 734.444 716.531C734.977 716.074 735.814 715.845 736.727 715.845C737.488 715.768 738.173 715.997 738.706 716.379ZM735.51 721.643C735.357 721.795 735.281 722.024 735.281 722.329C735.281 722.634 735.357 722.863 735.586 723.092C735.814 723.245 736.118 723.397 736.499 723.397C736.879 723.397 737.184 723.321 737.412 723.092C737.64 722.939 737.716 722.711 737.716 722.405C737.716 722.1 737.564 721.871 737.336 721.719C737.108 721.566 736.727 721.337 736.27 721.185C735.89 721.337 735.662 721.49 735.51 721.643ZM735.738 717.676C735.586 717.828 735.433 718.057 735.433 718.286C735.433 718.591 735.51 718.82 735.738 718.973C735.966 719.125 736.27 719.354 736.651 719.507C736.955 719.354 737.108 719.125 737.26 718.973C737.412 718.82 737.488 718.591 737.488 718.286C737.488 717.981 737.412 717.828 737.184 717.599C736.955 717.37 736.727 717.37 736.423 717.37C736.194 717.447 735.89 717.523 735.738 717.676Z" fill="#2C1E25"/>
<path d="M744.486 717.219L744.334 721.644L744.41 724.848H741.975L742.051 721.949V719.737L740.453 720.118L740.301 719.965V718.058L744.106 716.99L744.486 717.219Z" fill="#2C1E25"/>
<path d="M748.141 717.067H751.413H752.174V718.821L749.891 723.856L748.978 726.374L747.075 725.84L746.923 725.458L749.891 719.126H747.76L746.238 719.279L746.086 719.05L746.238 716.99L748.141 717.067Z" fill="#2C1E25"/>
<path d="M1128.16 739.418H322.836V771.611H1128.16V739.418Z" fill="#FFF1F0"/>
<path d="M382.803 749.335L381.662 752.234L381.129 752.311C379.836 751.853 378.618 751.548 377.629 751.319C376.563 751.09 375.498 751.014 374.357 751.014C371.998 751.014 370.247 751.395 369.106 752.234C368.041 753.073 367.432 754.447 367.432 756.354C367.432 757.651 367.66 758.642 368.117 759.329C368.573 760.092 369.334 760.626 370.324 760.931C371.313 761.236 372.606 761.465 374.281 761.465C374.813 761.465 375.346 761.465 375.879 761.389C376.335 761.313 376.944 761.236 377.705 761.16L377.781 759.863L377.705 757.422L382.727 757.193L382.575 759.329L382.727 763.067C379.531 763.677 376.563 763.983 373.9 763.983C369.867 763.983 366.899 763.372 364.845 762.075C362.79 760.779 361.801 758.948 361.801 756.506C361.801 753.836 362.942 751.853 365.301 750.48C367.66 749.107 370.932 748.42 375.27 748.42C378.009 748.42 380.52 748.725 382.803 749.335Z" fill="#2C1E25"/>
<path d="M403.958 761.16L404.263 761.389L403.882 763.754H387.75L388.054 759.176L387.75 748.496H404.111L404.415 748.725L404.035 751.09L397.871 750.937H393.229L393.077 754.599L397.49 754.675L401.676 754.599L401.98 754.828L401.599 757.193L397.034 757.117H392.925L392.848 758.719L393.001 761.007H397.566L403.958 761.16Z" fill="#2C1E25"/>
<path d="M428.003 756.354L427.927 758.337C427.927 760.168 427.09 761.541 425.263 762.533C423.437 763.525 420.85 764.059 417.426 764.059C414.153 764.059 411.642 763.601 409.968 762.609C408.294 761.617 407.457 760.244 407.533 758.49L407.609 756.277L407.457 748.648H412.936L412.632 758.108C412.632 759.252 413.012 760.092 413.849 760.626C414.686 761.16 415.98 761.465 417.73 761.465C421.23 761.465 422.905 760.397 422.905 758.261L422.6 748.648H428.155L428.003 756.354Z" fill="#2C1E25"/>
<path d="M451.061 750.937L438.201 761.389H446.876L451.213 761.16L451.441 761.312L450.985 763.83L445.201 763.754H434.929L431.809 763.83V761.541L444.745 750.937H436.527L432.189 751.166L431.961 751.014L432.341 748.496H448.55H451.061V750.937Z" fill="#2C1E25"/>
<path d="M471.913 761.16L472.218 761.389L471.837 763.754H455.629L455.933 759.176L455.629 748.496H471.99L472.294 748.725L471.913 751.09L465.75 750.937H461.108L460.956 754.599L465.369 754.675L469.554 754.599L469.859 754.828L469.478 757.193L464.913 757.117H460.803L460.727 758.719L460.88 761.007H465.445L471.913 761.16Z" fill="#2C1E25"/>
<path d="M501.359 756.431C501.968 756.812 502.196 757.27 502.196 757.88C502.196 758.567 501.892 759.101 501.283 759.482C500.674 759.864 499.761 760.092 498.696 760.092C497.631 760.092 496.793 759.94 496.185 759.558C495.576 759.177 495.348 758.719 495.348 758.033C495.348 757.346 495.652 756.812 496.337 756.431C496.946 756.049 497.859 755.82 499 755.82C499.99 755.897 500.75 756.125 501.359 756.431Z" fill="#2C1E25"/>
<path d="M554.097 763.143L554.02 763.525C552.499 763.754 550.748 763.906 548.694 764.059L548.085 763.906C544.585 761.16 541.465 758.566 538.725 755.972L538.649 759.024L538.877 763.83H533.398L533.703 759.253L533.398 748.572H538.877L538.649 755.667L545.878 750.098L547.4 748.649H553.259L544.128 755.82C547.02 758.108 550.292 760.626 554.097 763.143Z" fill="#2C1E25"/>
<path d="M576.621 763.067L576.545 763.448C574.795 763.83 573.044 764.059 571.218 764.059L570.685 763.83C568.783 761.846 567.185 760.168 565.967 758.719H562.087V759.024L562.315 763.83H556.836L557.14 759.253L556.836 748.572H566.728C569.392 748.572 571.522 748.954 572.968 749.717C574.414 750.479 575.175 751.624 575.175 753.073C575.175 754.065 574.719 754.98 573.881 755.743C573.044 756.582 571.827 757.193 570.305 757.727C572.512 759.71 574.566 761.465 576.621 763.067ZM562.163 756.201L566.12 756.277C568.403 755.82 569.544 754.828 569.544 753.378C569.544 752.539 569.164 752.005 568.479 751.547C567.718 751.166 566.576 750.937 565.054 750.861L562.315 750.937L562.163 756.201Z" fill="#2C1E25"/>
<path d="M585.676 759.024L585.905 763.83H580.426L580.73 759.253L580.426 748.572H585.981L585.676 759.024Z" fill="#2C1E25"/>
<path d="M608.581 761.16L608.886 761.389L608.505 763.754H592.297L592.601 759.176L592.297 748.496H608.658L608.962 748.725L608.581 751.09L602.418 750.937H597.776L597.624 754.599L602.037 754.675L606.222 754.599L606.527 754.828L606.146 757.193L601.581 757.117H597.471L597.395 758.719L597.548 761.007H602.113L608.581 761.16Z" fill="#2C1E25"/>
<path d="M633.388 763.143L633.312 763.525C631.79 763.754 630.039 763.906 627.985 764.059L627.376 763.906C623.876 761.16 620.756 758.566 618.016 755.972L617.94 759.024L618.168 763.83H612.766L613.07 759.253L612.766 748.572H618.245L618.016 755.667L625.245 750.098L626.767 748.649H632.627L623.495 755.82C626.311 758.108 629.659 760.626 633.388 763.143Z" fill="#2C1E25"/>
<path d="M667.023 756.431C667.632 756.812 667.86 757.27 667.86 757.88C667.86 758.567 667.556 759.101 666.947 759.482C666.338 759.864 665.425 760.092 664.36 760.092C663.295 760.092 662.458 759.94 661.849 759.558C661.24 759.177 661.012 758.719 661.012 758.033C661.012 757.346 661.316 756.812 662.001 756.431C662.61 756.049 663.523 755.82 664.664 755.82C665.654 755.897 666.491 756.125 667.023 756.431Z" fill="#2C1E25"/>
<path d="M711.689 761.465L711.308 763.83H697.383L697.687 759.253L697.383 748.572H702.938L702.633 758.947L702.786 761.16H711.461L711.689 761.465Z" fill="#2C1E25"/>
<path d="M735.356 763.83H729.801L729.192 761.846L728.507 760.397L723.485 760.321L719.071 760.397L718.386 761.618L717.702 763.754H712.223L720.974 748.496H727.442L735.356 763.83ZM727.29 757.956L724.246 751.624H723.865L720.365 757.956L723.789 758.032L727.29 757.956Z" fill="#2C1E25"/>
<path d="M766.025 763.83H761.231L760.85 759.253L759.937 753.378H759.556L753.773 762.228H749.512L744.261 753.378H743.881L742.891 758.947L742.359 763.83H737.793L740.38 748.572H746.62L747.685 750.785L751.795 758.032H752.175L756.436 750.785L757.578 748.572H763.742L766.025 763.83Z" fill="#2C1E25"/>
<path d="M788.623 757.193C789.46 757.803 789.917 758.566 789.917 759.558C789.917 762.533 786.036 763.982 778.198 763.982C775.915 763.982 773.556 763.906 771.121 763.83L771.425 759.253L771.121 748.572H780.329C782.992 748.572 785.047 748.877 786.492 749.564C787.938 750.251 788.699 751.166 788.699 752.387C788.699 753.226 788.395 753.912 787.71 754.523C787.025 755.133 786.036 755.591 784.818 755.896C786.493 756.201 787.786 756.582 788.623 757.193ZM782.916 761.083C783.829 760.702 784.286 760.092 784.286 759.405C784.286 758.261 783.068 757.574 780.633 757.345L776.219 757.422L776.143 759.1L776.296 761.617C777.209 761.694 778.122 761.694 779.035 761.694C780.709 761.617 782.003 761.465 782.916 761.083ZM782.003 751.319C781.318 751.013 780.1 750.861 778.35 750.861H776.372L776.219 754.98L780.024 755.057C781.014 754.904 781.775 754.675 782.307 754.294C782.84 753.912 783.068 753.455 783.068 752.768C783.068 752.082 782.688 751.624 782.003 751.319Z" fill="#2C1E25"/>
<path d="M799.505 759.024L799.733 763.83H794.254L794.558 759.253L794.254 748.572H799.809L799.505 759.024Z" fill="#2C1E25"/>
<path d="M822.866 749.335L821.876 752.005L821.42 752.158C820.583 751.853 819.746 751.547 818.756 751.395C817.767 751.242 816.778 751.09 815.789 751.09C811.527 751.09 809.397 752.768 809.397 756.048C809.397 757.803 809.929 759.176 811.071 760.092C812.212 761.007 813.81 761.465 815.941 761.465C816.93 761.465 817.919 761.389 818.985 761.16C820.05 761.007 820.963 760.702 821.876 760.397L822.333 760.549L821.876 763.296C819.822 763.83 817.691 764.135 815.484 764.135C811.603 764.135 808.712 763.448 806.657 762.151C804.603 760.855 803.613 758.947 803.613 756.43C803.613 753.912 804.679 751.929 806.809 750.556C808.94 749.182 811.984 748.496 815.941 748.496C818.604 748.42 820.887 748.725 822.866 749.335Z" fill="#2C1E25"/>
<path d="M852.086 758.414L860.456 753.455L868.827 758.414L860.456 763.373L852.086 758.414Z" fill="#2C1E25"/>
<path d="M920.268 749.335L919.279 752.005L918.822 752.158C917.985 751.853 917.148 751.547 916.159 751.395C915.169 751.242 914.18 751.09 913.191 751.09C908.93 751.09 906.799 752.768 906.799 756.048C906.799 757.803 907.332 759.176 908.473 760.092C909.614 761.007 911.212 761.465 913.343 761.465C914.332 761.465 915.322 761.389 916.387 761.16C917.452 761.007 918.365 760.702 919.279 760.397L919.735 760.549L919.279 763.296C917.224 763.83 915.093 764.135 912.887 764.135C909.006 764.135 906.114 763.448 904.059 762.151C902.005 760.855 901.016 758.947 901.016 756.43C901.016 753.912 902.081 751.929 904.212 750.556C906.342 749.182 909.386 748.496 913.343 748.496C916.006 748.42 918.213 748.725 920.268 749.335Z" fill="#2C1E25"/>
<path d="M944.01 763.83H938.455L937.846 761.846L937.162 760.397L932.139 760.321L927.726 760.397L927.041 761.618L926.356 763.754H920.953L929.704 748.496H936.172L944.01 763.83ZM935.944 757.956L932.9 751.624H932.52L929.019 757.956L932.444 758.032L935.944 757.956Z" fill="#2C1E25"/>
<path d="M969.125 759.1L969.353 763.83H963.494L952.917 753.531H952.612L952.536 758.566L952.688 763.83H947.742L948.047 759.329L947.818 748.572H953.602L964.179 758.871H964.559L964.407 748.725L969.43 748.572L969.125 759.1Z" fill="#2C1E25"/>
<path d="M991.799 748.877L991.495 751.242L986.625 751.09H985.027L984.799 759.024L985.027 763.83H979.548L979.852 759.252L979.624 751.09H978.026L973.08 751.242L972.699 751.013L973.08 748.648H991.495L991.799 748.877Z" fill="#2C1E25"/>
<path d="M1000.55 759.024L1000.78 763.83H995.301L995.605 759.253L995.301 748.572H1000.86L1000.55 759.024Z" fill="#2C1E25"/>
<path d="M1021.33 761.465L1020.95 763.83H1007.02L1007.32 759.253L1007.02 748.572H1012.57L1012.27 758.947L1012.42 761.16H1021.1L1021.33 761.465Z" fill="#2C1E25"/>
<path d="M1038.67 761.465L1038.29 763.83H1024.37L1024.67 759.253L1024.37 748.572H1029.92L1029.62 758.947L1029.77 761.16H1038.44L1038.67 761.465Z" fill="#2C1E25"/>
<path d="M1059.3 750.327C1061.28 751.624 1062.27 753.455 1062.27 755.896C1062.27 758.49 1061.2 760.55 1059.07 761.923C1056.94 763.372 1053.9 764.059 1050.01 764.059C1046.44 764.059 1043.62 763.372 1041.64 762.075C1039.67 760.778 1038.68 758.871 1038.68 756.43C1038.68 753.836 1039.74 751.853 1041.87 750.48C1044 749.106 1047.05 748.42 1050.93 748.42C1054.5 748.344 1057.32 749.03 1059.3 750.327ZM1045.75 752.158C1044.76 752.921 1044.31 754.218 1044.31 756.049C1044.31 758.108 1044.76 759.558 1045.75 760.397C1046.67 761.236 1048.26 761.694 1050.47 761.694C1052.6 761.694 1054.12 761.313 1055.11 760.473C1056.1 759.71 1056.56 758.337 1056.56 756.583C1056.56 754.599 1056.1 753.15 1055.11 752.311C1054.2 751.471 1052.6 751.014 1050.39 751.014C1048.26 750.937 1046.74 751.319 1045.75 752.158Z" fill="#2C1E25"/>
<path d="M1087.61 759.1L1087.83 763.83H1081.97L1071.4 753.531H1071.09L1071.02 758.566L1071.17 763.83H1066.22L1066.53 759.329L1066.3 748.572H1072.08L1082.66 758.871H1083.04L1082.89 748.725L1087.91 748.572L1087.61 759.1Z" fill="#2C1E25"/>
<path d="M943.477 956H889.525L887.242 813.342L943.477 816.393V956Z" fill="#FFF1F0"/>
<path d="M747.379 771.613H647.312V906.719H747.379V771.613Z" fill="#FACABC"/>
<path d="M738.093 781.225H656.594V894.588H738.093V781.225Z" fill="#FFF1F0"/>
<path d="M758.943 465.469L681.934 468.139V553.047L757.421 553.352L758.943 465.469Z" fill="#F87980"/>
<path d="M749.811 477.141H689.543V546.868H749.811V477.141Z" fill="#FACABC"/>
<path d="M675.391 469.284L765.412 465.47L719.679 435.107L675.391 469.284Z" fill="#F87980"/>
<path d="M720.592 424.654H718.766V440.446H720.592V424.654Z" fill="#F87980"/>
<path d="M588.944 466.918H513.457V552.36L588.944 552.666V466.918Z" fill="#F87980"/>
<path d="M581.337 474.776L519.547 473.25L521.069 544.503L583.62 546.791L581.337 474.776Z" fill="#FACABC"/>
<path d="M506.914 466.919H595.414L551.202 432.742L506.914 466.919Z" fill="#F87980"/>
<path d="M552.115 424.654H550.289V440.446H552.115V424.654Z" fill="#F87980"/>
<path d="M1030.07 468.902L951.543 472.717L954.587 554.04L1030.07 554.345V468.902Z" fill="#F87980"/>
<path d="M1026.34 474.854L962.195 477.142V546.869L1024.82 548.395L1026.34 474.854Z" fill="#FACABC"/>
<path d="M945.074 473.099L1036.62 469.284L992.33 435.107L945.074 473.099Z" fill="#F87980"/>
<path d="M993.244 424.654H991.418V440.446H993.244V424.654Z" fill="#F87980"/>
<path d="M1128.16 739.418H322.836V743.309H1128.16V739.418Z" fill="#2C1E25"/>
<path d="M1128.16 767.721H322.836V771.611H1128.16V767.721Z" fill="#2C1E25"/>
<path d="M980.078 606.754L749.203 608.28L751.486 579.824H980.078V606.754Z" fill="#5C404E"/>
<path d="M768.684 587.605L768.152 590.199L767.923 590.275C767.467 589.97 766.934 589.741 766.402 589.512C765.869 589.36 765.26 589.207 764.727 589.207C762.292 589.207 761.075 590.809 761.075 593.937C761.075 595.691 761.379 596.912 761.988 597.827C762.597 598.667 763.51 599.124 764.727 599.124C765.26 599.124 765.869 599.048 766.478 598.895C767.086 598.743 767.619 598.514 768.076 598.209L768.38 598.361L768.152 600.955C767.01 601.489 765.793 601.718 764.499 601.718C762.292 601.718 760.618 601.108 759.477 599.811C758.335 598.514 757.727 596.683 757.727 594.318C757.727 591.877 758.335 589.97 759.553 588.673C760.77 587.3 762.521 586.689 764.727 586.689C766.249 586.689 767.543 586.995 768.684 587.605Z" fill="#FFF1F0"/>
<path d="M782.077 601.565H778.957L778.576 599.658L778.196 598.285L775.304 598.209L772.793 598.285L772.413 599.505L772.032 601.565H768.988L773.935 586.918H777.587L782.077 601.565ZM777.587 595.92L775.837 589.817H775.609L773.63 595.92L775.609 595.996L777.587 595.92Z" fill="#FFF1F0"/>
<path d="M787.329 589.359L787.253 593.326H789.308L791.819 593.25L792.047 593.479L791.819 595.767L789.079 595.691H787.253V596.835L787.405 601.489H784.285L784.437 597.141L784.285 586.842H792.96L793.112 587.071L792.884 589.359L789.384 589.207L787.329 589.359Z" fill="#FFF1F0"/>
<path d="M803.842 599.048L803.994 599.277L803.766 601.566H794.559L794.711 597.217L794.559 586.919H803.842L803.994 587.147L803.766 589.436L800.266 589.36H797.602L797.526 592.869L800.038 592.945L802.396 592.869L802.549 593.098L802.32 595.387L799.733 595.31H797.374V596.912L797.45 599.125H800.038L803.842 599.048ZM801.788 581.35L802.549 583.181L802.473 583.486C801.027 584.096 799.353 584.63 797.526 585.24L797.222 585.164L796.689 583.943C798.592 583.028 800.114 582.112 801.407 581.35H801.788Z" fill="#FFF1F0"/>
<path d="M820.429 588.597C821.57 589.818 822.103 591.496 822.103 593.708C822.103 596.302 821.494 598.285 820.2 599.659C818.907 601.032 817.08 601.718 814.721 601.718C814.037 601.718 813.123 601.718 812.134 601.642C811.145 601.642 810.308 601.566 809.547 601.566L809.699 597.217L809.547 586.919L815.406 586.842C817.613 586.766 819.287 587.376 820.429 588.597ZM818.907 594.395C818.907 592.564 818.602 591.267 817.994 590.504C817.385 589.665 816.472 589.284 815.254 589.284C814.417 589.284 813.58 589.36 812.667 589.36L812.515 596.912L812.591 599.201C813.656 599.277 814.569 599.354 815.254 599.354C817.689 599.354 818.907 597.675 818.907 594.395Z" fill="#FFF1F0"/>
<path d="M833.596 599.048L833.748 599.277L833.52 601.565H824.312L824.465 597.217L824.312 586.918H833.596L833.748 587.147L833.52 589.435L830.02 589.359H827.356L827.28 592.868L829.791 592.945L832.15 592.868L832.303 593.097L832.074 595.386L829.487 595.31H827.128V596.912L827.204 599.124H829.791L833.596 599.048Z" fill="#FFF1F0"/>
<path d="M851.096 600.955L851.02 601.26C850.183 601.489 849.193 601.642 848.052 601.794L847.671 601.642C845.693 598.972 843.943 596.454 842.345 594.013L842.269 596.912L842.345 601.565H839.301L839.453 597.217L839.301 586.918H842.421L842.345 593.708L846.454 588.291L847.291 586.842H850.639L845.465 593.784C847.139 596.073 849.041 598.438 851.096 600.955Z" fill="#FFF1F0"/>
<path d="M860.759 599.277L860.531 601.565H852.617L852.769 597.217L852.617 586.918H855.737L855.585 596.912L855.661 598.971H860.607L860.759 599.277Z" fill="#FFF1F0"/>
<path d="M871.795 599.048L871.948 599.277L871.719 601.565H862.512L862.664 597.217L862.512 586.918H871.795L871.948 587.147L871.719 589.435L868.219 589.359H865.556L865.479 592.868L867.991 592.945L870.35 592.868L870.502 593.097L870.273 595.386L867.686 595.31H865.327V596.912L865.403 599.124H867.991L871.795 599.048Z" fill="#FFF1F0"/>
<path d="M877.046 596.912L877.198 601.565H874.078L874.23 597.217L874.078 586.918H877.198L877.046 596.912Z" fill="#FFF1F0"/>
<path d="M892.949 597.064L893.025 601.565H889.677L883.665 591.648H883.513V596.53L883.589 601.565H880.773L880.926 597.217L880.773 586.842H884.046L890.057 596.759H890.285L890.209 586.918L893.025 586.766L892.949 597.064Z" fill="#FFF1F0"/>
<path d="M905.885 599.048L906.037 599.277L905.809 601.565H896.602L896.754 597.217L896.602 586.918H905.885L906.037 587.147L905.809 589.435L902.309 589.359H899.645L899.569 592.868L902.08 592.945L904.439 592.868L904.592 593.097L904.363 595.386L901.776 595.31H899.417V596.912L899.493 599.124H902.08L905.885 599.048Z" fill="#FFF1F0"/>
<path d="M923.389 600.955L923.313 601.26C922.476 601.489 921.486 601.642 920.345 601.794L919.964 601.642C917.986 598.972 916.236 596.454 914.638 594.013L914.562 596.912L914.638 601.565H911.594L911.746 597.217L911.594 586.918H914.714L914.638 593.708L918.747 588.291L919.584 586.842H922.932L917.758 593.784C919.356 596.073 921.258 598.438 923.389 600.955Z" fill="#FFF1F0"/>
<path d="M936.17 594.318V596.225C936.17 597.98 935.713 599.353 934.648 600.269C933.583 601.26 932.137 601.718 930.235 601.718C928.408 601.718 926.962 601.26 925.973 600.345C924.984 599.429 924.527 598.056 924.603 596.378V594.242L924.527 586.842H927.647L927.495 595.92C927.495 597.064 927.723 597.827 928.18 598.361C928.637 598.895 929.397 599.124 930.387 599.124C932.365 599.124 933.354 598.056 933.354 595.996L933.202 586.766H936.322L936.17 594.318Z" fill="#FFF1F0"/>
<path d="M951.543 597.064L951.619 601.565H948.27L942.259 591.648H942.107V596.53L942.183 601.565H939.367L939.519 597.217L939.367 586.842H942.639L948.651 596.759H948.879L948.803 586.918L951.619 586.766L951.543 597.064Z" fill="#FFF1F0"/>
<path d="M963.643 587.454L963.11 590.124L962.654 590.276C962.121 589.895 961.588 589.59 961.056 589.437C960.523 589.208 959.99 589.132 959.534 589.132C958.925 589.132 958.468 589.285 958.088 589.59C957.707 589.895 957.555 590.276 957.555 590.734C957.555 591.192 957.784 591.573 958.164 591.878C958.545 592.183 959.229 592.565 960.066 592.946C960.903 593.328 961.588 593.709 962.121 594.014C962.654 594.32 963.11 594.777 963.491 595.311C963.871 595.845 964.023 596.532 964.023 597.295C964.023 598.134 963.795 598.897 963.339 599.583C962.882 600.27 962.273 600.804 961.436 601.262C960.599 601.643 959.61 601.872 958.545 601.872C957.099 601.872 955.653 601.567 954.207 600.957L954.664 598.058L954.968 597.905C955.577 598.439 956.262 598.821 956.946 599.126C957.631 599.431 958.316 599.583 958.849 599.583C959.534 599.583 960.066 599.431 960.371 599.126C960.751 598.821 960.903 598.439 960.903 597.981C960.903 597.524 960.675 597.066 960.295 596.761C959.914 596.456 959.229 596.074 958.316 595.693C957.479 595.311 956.794 595.006 956.338 594.701C955.805 594.396 955.348 593.938 955.044 593.404C954.664 592.87 954.511 592.26 954.511 591.497C954.511 590.658 954.74 589.895 955.196 589.208C955.653 588.522 956.262 587.988 957.099 587.606C957.936 587.225 958.849 586.996 959.914 586.996C961.208 586.691 962.425 586.996 963.643 587.454Z" fill="#FFF1F0"/>
<path d="M975.589 587.147L975.437 589.435L972.697 589.283H971.784L971.708 596.912L971.86 601.565H968.74L968.892 597.217L968.816 589.359H967.903L965.088 589.512L964.859 589.283L965.088 586.994H975.513L975.589 587.147Z" fill="#FFF1F0"/>
<path d="M1071.62 783.514H985.633V816.699H1071.62V783.514Z" fill="#FFF1F0"/>
<path d="M322.836 579.824V585.393H1128.16V575.018L322.836 579.824Z" fill="#A75155"/>
<path d="M751.031 585.393L751.488 579.824H980.08V585.241L751.031 585.393Z" fill="#2C1E25"/>
<path d="M747.757 585.395L745.246 607.823L749.203 607.671L751.029 585.395H747.757Z" fill="#A75155"/>
<path d="M745.248 607.823L744.715 611.866H774.544V608.128L749.204 608.28V607.67L745.248 607.823Z" fill="#BE988D"/>
<path d="M774.543 611.865H948.118V606.982L774.543 608.127V611.865Z" fill="#A75155"/>
<path d="M948.117 611.865H974.827V606.83L948.117 606.983V611.865Z" fill="#BE988D"/>
<path d="M897.211 821.733L943.477 824.785V816.393L887.242 813.342L889.525 956H899.494L897.211 821.733Z" fill="#CBBEBD"/>
<path d="M665.954 788.014H738.093V781.225H656.594V894.588H665.954V788.014Z" fill="#CBBEBD"/>
<path d="M510.491 790.303H589.098V783.514H503.109V816.699H510.491V790.303Z" fill="#CBBEBD"/>
<path d="M510.491 831.118H589.098V824.328H503.109L499.305 897.641H506.686L510.491 831.118Z" fill="#CBBEBD"/>
<path d="M682.925 631.319L763.587 627.505V619.113L674.555 622.928L677.599 705.395H685.969L682.925 631.319Z" fill="#CBBEBD"/>
<path d="M513.458 630.251H589.098V619.113H503.109V730.265H513.458V630.251Z" fill="#CBBEBD"/>
<path d="M989.97 789.083H1071.62V783.514H985.633V816.699H989.97V789.083Z" fill="#CBBEBD"/>
<path d="M993.166 833.559H1071.62V824.328H985.633V894.589H993.166V833.559Z" fill="#CBBEBD"/>
<path d="M964.861 669.158H1045.07V660.004H959.078V730.265H964.861V669.158Z" fill="#CBBEBD"/>
<path d="M967.144 626.589L1047.35 622.011V614.535L959.078 619.112V652.298H967.144V626.589Z" fill="#CBBEBD"/>
<path d="M358.146 822.268L406.467 819.98L406.695 808.994L345.438 811.283V956.001H358.146V822.268Z" fill="#BE988D"/>
<path d="M699.97 481.108L749.813 484.922V477.141L687.262 473.326L689.545 546.868H702.253L699.97 481.108Z" fill="#BE988D"/>
<path d="M527.917 485.837L581.717 487.363L581.337 474.776L519.547 473.25L521.069 544.503H529.439L527.917 485.837Z" fill="#BE988D"/>
<path d="M969.805 485L1026.19 482.711L1026.34 474.854L962.195 477.142V546.869H969.805V485Z" fill="#BE988D"/>
<path d="M727.592 872.998L724.701 867.353L726.831 866.056L728.353 858.885L726.223 853.697L726.831 847.899L725.538 840.423L721.124 832.184L715.569 830.048L711.079 829.285L708.264 829.819L702.024 830.124L699.665 830.353L697.306 834.091L699.741 836.38L698.143 839.203L697.306 842.254V844.848L694.643 850.493L696.849 852.324L696.317 855.528L697.306 856.52V857.817L698.447 860.411L700.426 862.165L704.535 862.623L707.199 865.446L706.209 868.345L704.611 870.252L700.426 870.938L695.708 874.829L687.185 884.594L684.902 888.485L682.848 876.05L684.902 863.92L687.87 855.147L697.458 856.749L697.763 847.442L689.925 847.594L689.164 846.984L688.327 846.908L687.566 846.526L686.653 847.289L685.587 846.679L684.37 847.213L683.38 846.603L682.543 847.747L677.445 847.823L676.988 852.934L681.63 853.392L673.184 877.652L674.173 886.501L676.227 895.045H726.223L727.592 889.553L728.962 885.357L727.592 872.998Z" fill="#5C404E"/>
</g>
<path d="M1787.94 746.873H1164.09V772.888H1787.94V746.873Z" fill="#F87980"/>
<path d="M1543.88 821.508H1594.27L1572.85 944.708L1543.88 945.332V821.508Z" fill="#BE988D"/>
<path d="M1163.29 797.936H1773.94V937.267L1575.9 936.699V821.508H1554.42V937.267H1163.29V797.936Z" fill="#3F7AD3"/>
<path d="M1431.55 922.102L1398.56 923.806L1397.43 760.221H1439.48L1431.55 922.102Z" fill="#F87980"/>
<path d="M1434.49 956.865L1396.18 956.297L1395.05 921.535L1434.49 920.967V956.865Z" fill="#5C404E"/>
<path d="M1791.05 738.809H1756.93V922.103H1791.05V738.809Z" fill="#F87980"/>
<path d="M1792.3 956.296H1755.69V922.102L1795.14 919.83L1792.3 956.296Z" fill="#5C404E"/>
<path d="M1180.29 922.102H1146.17V751.871L1188.79 760.221L1180.29 922.102Z" fill="#F87980"/>
<path d="M1183.24 957.999L1144.93 956.295V922.102H1181.54L1183.24 957.999Z" fill="#5C404E"/>
<path d="M1396.12 920.172H1181.54V954.366H1396.12V920.172Z" fill="#5C404E"/>
<path d="M1755.69 954.309H1612.8L1611.44 922.501L1755.69 920.172V954.309Z" fill="#5C404E"/>
<path d="M1556.12 954.308H1432.79L1434.49 919.035H1557.82L1556.12 954.308Z" fill="#5C404E"/>
<path d="M1797.51 542.562H1140.22L1145.89 703.307L1140.22 720.234L1137.39 754.144L1796.1 749.145L1797.51 720.234V698.309V542.562Z" fill="#F87980"/>
<path d="M1431.55 754.145L1420.21 821.51H1768.27L1756.93 754.145H1431.55Z" fill="#FACABC"/>
<path d="M1185.34 757.495L1168.96 821.509H1408.87L1403.15 754.258L1185.34 757.495Z" fill="#FACABC"/>
<path d="M1572.84 944.709L1612.8 954.309L1611.44 922.5L1573.98 911.197L1572.84 944.709Z" fill="#5C404E"/>
<path d="M1728.03 447.422V427.088H1468.84H1209.65V447.422L1140.22 542.563H1468.84H1797.52L1728.03 447.422Z" fill="#5C404E"/>
<path d="M1738.17 410.559H1198.83V427.087H1738.17V410.559Z" fill="#FACABC"/>
<path d="M1745.15 405.219H1191.8V410.558H1745.15V405.219Z" fill="#FACABC"/>
<path d="M1208.18 613.619V599.76H1218.84V602.145L1209.82 602.259V613.619" fill="#F87980"/>
<path d="M1797.52 720.234L1797.29 723.87L1139.88 724.154L1140.22 720.234H1797.52Z" fill="#A75155"/>
<path d="M1729.73 579.256L1636.27 580.96L1637.97 702.285H1728.03L1729.73 579.256Z" fill="#FFF1F0"/>
<path d="M1551.87 580.96L1458.98 579.256L1460.11 702.285L1549.6 703.989L1551.87 580.96Z" fill="#FFF1F0"/>
<path d="M1289.45 578.119L1197.13 580.959L1194.86 705.125L1288.89 702.285L1289.45 578.119Z" fill="#FFF1F0"/>
<path d="M1429.73 580.96L1362.29 578.688V674.964H1426.9L1429.73 580.96Z" fill="#FFF1F0"/>
<path d="M1440.5 674.963H1351.46V679.223H1440.5V674.963Z" fill="#FFF1F0"/>
<path d="M1435.34 679.225H1356.62V683.485H1435.34V679.225Z" fill="#FFF1F0"/>
<path d="M1808 706.431L1130.13 711.543L1129 703.421L1805.73 698.309L1808 706.431Z" fill="#FACABC"/>
<path d="M1803.07 720.234H1133.93L1135.23 710.18L1804.77 706.432L1803.07 720.234Z" fill="#FACABC"/>
<path d="M1715.16 694.617H1683.31V616.971L1714.03 618.675L1715.16 694.617Z" fill="#F87980"/>
<path d="M1677.42 694.617L1644.43 695.753L1645.56 616.971H1677.42V694.617Z" fill="#F87980"/>
<path d="M1656.22 599.76H1645.56V613.619H1656.22V599.76Z" fill="#F87980"/>
<path d="M1656.22 584.539H1645.56V598.398H1656.22V584.539Z" fill="#F87980"/>
<path d="M1677.42 599.76H1657.8V613.619H1677.42V599.76Z" fill="#F87980"/>
<path d="M1677.42 584.539H1657.8V598.398H1677.42V584.539Z" fill="#F87980"/>
<path d="M1693.96 599.76H1683.31V613.619H1693.96V599.76Z" fill="#F87980"/>
<path d="M1693.96 584.539H1683.31V598.398H1693.96V584.539Z" fill="#F87980"/>
<path d="M1715.11 599.76H1695.5V613.619H1715.11V599.76Z" fill="#F87980"/>
<path d="M1715.11 584.539H1695.5V598.398H1715.11V584.539Z" fill="#F87980"/>
<path d="M1541.9 695.752L1508.91 694.616L1508.34 616.402L1540.76 616.97L1541.9 695.752Z" fill="#F87980"/>
<path d="M1503.02 694.618L1470.6 695.754L1471.16 616.972L1503.58 615.836L1503.02 694.618Z" fill="#F87980"/>
<path d="M1481.82 599.76H1471.16V613.619H1481.82V599.76Z" fill="#F87980"/>
<path d="M1481.82 584.539H1471.16V598.398H1481.82V584.539Z" fill="#F87980"/>
<path d="M1503.02 599.76H1483.41V613.619H1503.02V599.76Z" fill="#F87980"/>
<path d="M1503.02 584.539H1483.41V598.398H1503.02V584.539Z" fill="#F87980"/>
<path d="M1519.57 599.76H1508.91V613.619H1519.57V599.76Z" fill="#F87980"/>
<path d="M1519.57 584.539H1508.91V598.398H1519.57V584.539Z" fill="#F87980"/>
<path d="M1540.76 599.76H1521.15V613.619H1540.76V599.76Z" fill="#F87980"/>
<path d="M1540.76 584.539H1521.15V598.398H1540.76V584.539Z" fill="#F87980"/>
<path d="M1277.78 694.617H1245.93V616.971L1276.65 617.539L1277.78 694.617Z" fill="#F87980"/>
<path d="M1240.03 694.617L1209.31 693.481L1208.18 616.971H1240.03V694.617Z" fill="#F87980"/>
<path d="M1218.84 599.76H1208.18V613.619H1218.84V599.76Z" fill="#F87980"/>
<path d="M1218.84 584.539H1208.18V598.398H1218.84V584.539Z" fill="#F87980"/>
<path d="M1240.03 599.76H1220.42V613.619H1240.03V599.76Z" fill="#F87980"/>
<path d="M1240.03 584.539H1220.42V598.398H1240.03V584.539Z" fill="#F87980"/>
<path d="M1256.58 599.76H1245.93V613.619H1256.58V599.76Z" fill="#F87980"/>
<path d="M1256.58 584.539H1245.93V598.398H1256.58V584.539Z" fill="#F87980"/>
<path d="M1277.78 599.76H1258.17V613.619L1277.21 613.051L1277.78 599.76Z" fill="#F87980"/>
<path d="M1277.78 584.539H1258.17V598.398H1277.78V584.539Z" fill="#F87980"/>
<path d="M1292.51 431.348H1234.48V528.533H1292.51V431.348Z" fill="#F87980"/>
<path d="M1292.52 528.534L1314.17 462.077V401.926L1292.52 431.348V528.534Z" fill="#F87980"/>
<path d="M1217.47 431.347H1307.08L1274.77 380L1217.47 431.347Z" fill="#FFF1F0"/>
<path d="M1307.08 431.347L1323.52 402.663L1274.77 380L1307.08 431.347Z" fill="#FFF1F0"/>
<path d="M1263.5 481.787C1274.77 481.787 1283.9 472.632 1283.9 461.339C1283.9 450.046 1274.77 440.891 1263.5 440.891C1252.23 440.891 1243.09 450.046 1243.09 461.339C1243.09 472.632 1252.23 481.787 1263.5 481.787Z" fill="#FFF1F0"/>
<path d="M1645.18 528.562L1703.22 528.562L1703.22 431.377L1645.18 431.377L1645.18 528.562Z" fill="#F87980"/>
<path d="M1645.16 528.534L1623.57 462.077V401.926L1645.16 431.348V528.534Z" fill="#F87980"/>
<path d="M1720.21 431.347H1630.6L1662.9 380L1720.21 431.347Z" fill="#FFF1F0"/>
<path d="M1630.6 431.347L1614.16 402.663L1662.9 380L1630.6 431.347Z" fill="#FFF1F0"/>
<path d="M1674.19 481.787C1685.45 481.787 1694.59 472.632 1694.59 461.339C1694.59 450.046 1685.45 440.891 1674.19 440.891C1662.92 440.891 1653.78 450.046 1653.78 461.339C1653.78 472.632 1662.92 481.787 1674.19 481.787Z" fill="#FFF1F0"/>
<path d="M1209.31 693.481L1208.18 616.971H1240.03V621.856L1212.32 621.969L1213.39 693.651L1209.31 693.481Z" fill="#A75155"/>
<path d="M1276.65 617.539L1245.93 616.971V694.617H1249.67L1249.84 622.537L1276.65 623.048V617.539Z" fill="#A75155"/>
<path d="M1208.18 613.619V599.76H1218.84V602.486H1210.28V613.619H1208.18Z" fill="#A75155"/>
<path d="M1208.18 598.455V584.539H1218.84V587.265H1210.28V598.455H1208.18Z" fill="#A75155"/>
<path d="M1245.93 613.619V599.76H1256.58V602.486H1248.02V613.619H1245.93Z" fill="#A75155"/>
<path d="M1245.93 598.455V584.539H1256.58V587.265H1248.02V598.455H1245.93Z" fill="#A75155"/>
<path d="M1471.16 613.619V599.76H1481.82V602.486H1473.26V613.619H1471.16Z" fill="#A75155"/>
<path d="M1471.16 598.455V584.539H1481.82V587.265H1473.26V598.455H1471.16Z" fill="#A75155"/>
<path d="M1508.91 613.619V599.76H1519.57V602.486H1511.01V613.619H1508.91Z" fill="#A75155"/>
<path d="M1508.91 598.455V584.539H1519.57V587.265H1511.01V598.455H1508.91Z" fill="#A75155"/>
<path d="M1645.56 613.619V599.76H1656.22V602.486H1647.66V613.619H1645.56Z" fill="#A75155"/>
<path d="M1645.56 598.455V584.539H1656.22V587.265H1647.66V598.455H1645.56Z" fill="#A75155"/>
<path d="M1683.31 613.619V599.76H1693.96V602.486H1685.41V613.619H1683.31Z" fill="#A75155"/>
<path d="M1683.31 598.455V584.539H1693.96V587.265H1685.41V598.455H1683.31Z" fill="#A75155"/>
<path d="M1220.42 598.455V584.539H1240.03V589.878L1223.14 587.322L1223.82 598.455H1220.42Z" fill="#A75155"/>
<path d="M1220.42 613.619V599.76H1240.03V605.042L1223.14 602.543L1223.82 613.619H1220.42Z" fill="#A75155"/>
<path d="M1258.17 613.619V599.76H1277.78L1277.61 604.304L1260.15 602.145L1260.89 613.562L1258.17 613.619Z" fill="#A75155"/>
<path d="M1258.17 598.455V584.539H1277.78V588.856L1260.15 586.981L1260.89 598.455H1258.17Z" fill="#A75155"/>
<path d="M1362.29 674.964V578.688L1429.73 580.96V591.524L1369.43 584.879L1370.5 674.964H1362.29Z" fill="#CBBEBD"/>
<path d="M1471.16 616.972L1470.6 695.754L1475.47 695.584L1474.57 622.141L1503.53 625.265L1503.58 615.836L1471.16 616.972Z" fill="#A75155"/>
<path d="M1508.91 694.616L1508.34 616.402L1540.76 616.97V628.444L1512.99 621.344L1515.71 694.844L1508.91 694.616Z" fill="#A75155"/>
<path d="M1483.41 613.619V599.76H1503.02V603.054L1485.28 602.202L1486.13 613.619H1483.41Z" fill="#A75155"/>
<path d="M1483.41 598.455V584.539H1503.02V587.833L1485.28 587.038L1486.13 598.455H1483.41Z" fill="#A75155"/>
<path d="M1521.15 598.455V584.539H1540.76V587.833L1523.02 587.038L1523.87 598.455H1521.15Z" fill="#A75155"/>
<path d="M1521.15 613.619V599.76H1540.76V603.054L1523.02 602.202L1523.87 613.619H1521.15Z" fill="#A75155"/>
<path d="M1657.8 613.619V599.76H1677.42V603.054L1659.68 602.202L1660.53 613.619H1657.8Z" fill="#A75155"/>
<path d="M1657.8 598.455V584.539H1677.42V587.833L1659.68 587.038L1660.53 598.455H1657.8Z" fill="#A75155"/>
<path d="M1695.5 598.455V584.539H1715.16V587.833L1697.42 587.038L1698.22 598.455H1695.5Z" fill="#A75155"/>
<path d="M1695.5 613.619V599.76H1715.16V603.054L1697.42 602.202L1698.22 613.619H1695.5Z" fill="#A75155"/>
<path d="M1645.56 616.971L1644.43 695.753L1649.02 695.582L1648.28 622.253L1677.42 625.434V616.971H1645.56Z" fill="#A75155"/>
<path d="M1714.03 618.675L1683.31 616.971V694.617H1687.56L1686.48 624.525L1714.03 622.878V618.675Z" fill="#A75155"/>
<path d="M1247.4 465.258C1247.4 453.955 1256.53 444.81 1267.81 444.81C1272 444.81 1275.97 446.116 1279.2 448.275C1275.46 443.731 1269.79 440.891 1263.5 440.891C1252.22 440.891 1243.09 450.035 1243.09 461.339C1243.09 468.382 1246.66 474.63 1252.11 478.265C1249.21 474.744 1247.4 470.2 1247.4 465.258Z" fill="#CBBEBD"/>
<path d="M1657.86 463.611C1657.86 452.308 1666.99 443.163 1678.27 443.163C1681.04 443.163 1683.71 443.731 1686.09 444.696C1682.74 442.311 1678.66 440.834 1674.19 440.834C1662.91 440.834 1653.78 449.979 1653.78 461.282C1653.78 469.802 1659 477.073 1666.36 480.14C1661.21 476.505 1657.86 470.427 1657.86 463.611Z" fill="#CBBEBD"/>
<path d="M1292.52 528.533L1421.12 427.088L1413.86 406.355L1322.04 406.923L1314.17 419.022V462.077L1292.52 528.533Z" fill="#2C1E25"/>
<path d="M1421.12 427.087L1425.2 405.219H1322.05L1314.17 419.021V427.087H1421.12Z" fill="#BE988D"/>
<path d="M1703.2 528.533L1749.4 476.675L1728.03 447.422V427.088H1715.45L1720.21 431.291L1703.2 431.348V528.533Z" fill="#2C1E25"/>
<path d="M1715.44 427.087H1738.17V410.558H1745.2V405.219H1691.02L1715.44 427.087Z" fill="#BE988D"/>
<path d="M1180.29 922.101L1185.56 821.508H1195.03L1188.79 920.17H1181.54V922.101H1180.29Z" fill="#2E5A9C"/>
<path d="M1185.57 821.508H1397.88L1397.94 828.551L1185.34 826.279L1185.57 821.508Z" fill="#2E5A9C"/>
<path d="M1431.6 921.022L1436.48 821.508H1554.42V830.482L1441.41 829.289L1436.65 919.034H1434.49L1434.44 921.022H1431.6Z" fill="#2E5A9C"/>
<path d="M1575.9 911.82V821.508H1756.93V830.085L1581 830.823V913.297L1573.98 911.195" fill="#2E5A9C"/>
<path d="M1146.17 754.143L1791.05 749.201V756.585L1146.17 759.312V751.871" fill="#A75155"/>
<path d="M1135.06 711.487L1804.77 706.432L1804.48 708.704L1134.95 712.452L1135.06 711.487Z" fill="#BE988D"/>
<path d="M1274.77 380L1307.08 431.347L1323.52 402.663L1274.77 380Z" fill="#CBBEBD"/>
<path d="M1292.52 528.532V431.347H1307.08L1314.17 419.021V462.076L1292.52 528.532Z" fill="#A75155"/>
<path d="M1183.07 954.309L1181.54 920.172H1188.79L1184.66 954.309H1183.07Z" fill="#2C1E25"/>
<path d="M1434.49 954.308V919.035H1439.25L1438.12 954.308H1434.49Z" fill="#2C1E25"/>
<path d="M1264.69 437.254H1262.36V485.421H1264.69V437.254Z" fill="#F87980"/>
<path d="M1239.48 460.154V462.482H1287.54V460.154H1239.48Z" fill="#F87980"/>
<path d="M1673.01 485.414L1675.34 485.414L1675.34 437.247L1673.01 437.247L1673.01 485.414Z" fill="#F87980"/>
<path d="M1650.16 460.152L1650.16 462.48L1698.23 462.48L1698.23 460.152L1650.16 460.152Z" fill="#F87980"/>
<path d="M1140.22 720.234L1137.39 754.144L1796.1 749.146L1797.51 720.234H1140.22Z" fill="#FFF1F0"/>
<path d="M1137.39 754.143L1796.1 749.145L1796.27 744.941L1137.67 750.905L1137.39 754.143Z" fill="#2C1E25"/>
<path d="M1797.52 720.234L1797.35 723.642L1140 722.79L1140.22 720.234H1797.52Z" fill="#2C1E25"/>
<path d="M1247.17 737.558L1256.24 732.219L1265.31 737.558L1256.24 742.897L1247.17 737.558Z" fill="black"/>
<path d="M1296.26 727.561L1295.29 730.571L1294.44 730.799C1293.48 730.401 1292.46 730.06 1291.38 729.833C1290.3 729.606 1289.34 729.492 1288.49 729.492C1287.36 729.492 1286.39 729.663 1285.71 730.06C1285.03 730.401 1284.69 730.855 1284.69 731.31C1284.69 731.821 1285.09 732.219 1285.83 732.559C1286.62 732.9 1287.81 733.298 1289.45 733.752C1291.04 734.207 1292.35 734.547 1293.31 734.945C1294.33 735.286 1295.18 735.797 1295.86 736.365C1296.54 736.99 1296.94 737.671 1296.94 738.58C1296.94 739.489 1296.48 740.398 1295.63 741.136C1294.78 741.931 1293.54 742.499 1291.95 742.954C1290.36 743.408 1288.55 743.635 1286.45 743.635C1283.73 743.635 1280.95 743.295 1278.18 742.613L1279.03 739.375L1279.65 739.148C1280.78 739.773 1282.09 740.227 1283.45 740.511C1284.81 740.852 1286.05 740.966 1287.13 740.966C1288.38 740.966 1289.4 740.795 1290.08 740.398C1290.76 740.057 1291.15 739.603 1291.15 739.091C1291.15 738.523 1290.76 738.126 1290.02 737.785C1289.23 737.444 1288.04 737.047 1286.34 736.535C1284.75 736.138 1283.5 735.74 1282.54 735.399C1281.58 735.059 1280.73 734.547 1280.05 733.979C1279.37 733.411 1279.03 732.673 1279.03 731.821C1279.03 730.855 1279.48 730.003 1280.33 729.208C1281.18 728.413 1282.43 727.845 1283.96 727.391C1285.54 726.936 1287.3 726.709 1289.28 726.709C1291.55 726.709 1293.93 726.993 1296.26 727.561Z" fill="black"/>
<path d="M1319.27 740.795L1318.87 743.351H1303.79L1304.08 738.466L1303.79 726.936H1309.8L1309.46 738.182L1309.57 740.511H1318.93L1319.27 740.795Z" fill="black"/>
<path d="M1347.04 743.408H1341.03L1340.35 741.249L1339.61 739.716L1334.17 739.659L1329.35 739.716L1328.62 741.079L1327.88 743.408H1322.04L1331.51 726.936H1338.48L1347.04 743.408ZM1338.37 737.046L1335.08 730.173H1334.68L1330.88 737.046L1334.63 737.103L1338.37 737.046Z" fill="black"/>
<path d="M1373.11 727.731L1371.86 730.855L1371.3 730.912C1369.88 730.458 1368.63 730.117 1367.5 729.89C1366.37 729.663 1365.18 729.549 1363.93 729.549C1361.38 729.549 1359.45 730.003 1358.32 730.912C1357.13 731.821 1356.56 733.298 1356.56 735.343C1356.56 736.706 1356.79 737.785 1357.3 738.58C1357.81 739.375 1358.6 739.943 1359.68 740.341C1360.75 740.682 1362.17 740.909 1363.93 740.909C1364.55 740.909 1365.12 740.909 1365.63 740.852C1366.14 740.795 1366.82 740.682 1367.61 740.568L1367.73 739.148L1367.61 736.535L1373.05 736.308L1372.94 738.58L1373.05 742.613C1369.6 743.295 1366.37 743.635 1363.48 743.635C1359.11 743.635 1355.88 742.954 1353.67 741.534C1351.46 740.114 1350.38 738.126 1350.38 735.513C1350.38 732.673 1351.63 730.515 1354.18 728.981C1356.73 727.447 1360.3 726.709 1364.95 726.709C1367.95 726.709 1370.67 727.05 1373.11 727.731Z" fill="black"/>
<path d="M1398.16 740.511L1398.5 740.795L1398.11 743.351H1380.65L1380.93 738.466L1380.65 726.936H1398.33L1398.67 727.22L1398.22 729.776L1391.53 729.662H1386.49L1386.37 733.638L1391.19 733.695L1395.72 733.638L1396.06 733.865L1395.67 736.421L1390.74 736.364H1386.26L1386.2 738.125L1386.32 740.624H1391.19L1398.16 740.511Z" fill="black"/>
<path d="M1426.22 742.555L1426.1 742.953C1424.23 743.351 1422.31 743.578 1420.32 743.635L1419.7 743.351C1417.6 741.249 1415.9 739.375 1414.6 737.841H1410.4V738.182L1410.69 743.407H1404.79L1405.08 738.523L1404.79 726.992H1415.51C1418.45 726.992 1420.66 727.39 1422.25 728.242C1423.84 729.094 1424.63 730.287 1424.63 731.877C1424.63 732.956 1424.18 733.922 1423.27 734.774C1422.36 735.626 1421.06 736.364 1419.42 736.932C1421.8 738.977 1424.01 740.851 1426.22 742.555ZM1410.57 735.171L1414.88 735.285C1417.32 734.774 1418.57 733.751 1418.57 732.161C1418.57 731.309 1418.17 730.627 1417.38 730.23C1416.58 729.775 1415.34 729.548 1413.69 729.548L1410.74 729.662L1410.57 735.171Z" fill="black"/>
<path d="M1438.23 738.182L1438.52 743.407H1432.62L1432.9 738.523L1432.62 726.992H1438.63L1438.23 738.182Z" fill="black"/>
<path d="M1455.07 737.955L1455.18 740.283C1455.18 741.249 1454.9 742.101 1454.33 742.783C1453.76 743.464 1452.91 744.089 1451.67 744.6C1450.42 745.111 1448.78 745.623 1446.62 746.134L1444.87 744.316V744.032C1446.68 743.464 1447.93 742.953 1448.66 742.385C1449.4 741.874 1449.8 741.135 1449.8 740.283V738.352L1449.51 729.548L1444.92 729.605L1444.47 729.378L1444.75 726.992H1455.35L1455.07 737.955Z" fill="black"/>
<path d="M1506.53 728.809C1508.68 730.116 1509.76 732.047 1509.76 734.546C1509.76 737.443 1508.57 739.715 1506.13 741.249C1503.7 742.782 1500.24 743.578 1495.71 743.578C1494.35 743.578 1492.7 743.578 1490.83 743.521C1488.96 743.464 1487.32 743.464 1485.96 743.407L1486.24 738.522L1485.96 726.992L1497.18 726.878C1501.26 726.821 1504.38 727.503 1506.53 728.809ZM1503.7 735.342C1503.7 733.353 1503.13 731.877 1502.05 730.968C1500.92 730.059 1499.22 729.605 1496.84 729.605C1495.31 729.605 1493.67 729.661 1491.96 729.718L1491.68 738.182L1491.79 740.738C1493.84 740.851 1495.48 740.908 1496.84 740.908C1501.37 740.908 1503.7 739.034 1503.7 735.342Z" fill="black"/>
<path d="M1533.91 740.511L1534.25 740.795L1533.85 743.351H1516.34L1516.62 738.466L1516.34 726.936H1534.02L1534.36 727.22L1533.91 729.776L1527.22 729.662H1522.17L1522.06 733.638L1526.88 733.695L1531.41 733.638L1531.75 733.865L1531.36 736.421L1526.42 736.364H1521.95L1521.89 738.125L1522 740.624H1526.88L1533.91 740.511Z" fill="black"/>
<path d="M1559.52 736.251C1560.43 736.875 1560.88 737.727 1560.88 738.75C1560.88 741.931 1556.63 743.521 1548.19 743.521C1545.69 743.521 1543.14 743.464 1540.54 743.407L1540.82 738.523L1540.54 726.992H1550.45C1553.29 726.992 1555.55 727.333 1557.14 728.071C1558.73 728.753 1559.52 729.775 1559.52 731.139C1559.52 732.047 1559.18 732.786 1558.39 733.467C1557.6 734.149 1556.63 734.66 1555.27 735.001C1557.2 735.115 1558.62 735.569 1559.52 736.251ZM1553.4 740.397C1554.42 739.999 1554.87 739.375 1554.87 738.579C1554.87 737.387 1553.57 736.648 1550.91 736.307L1546.09 736.364L1546.03 738.182L1546.15 740.965C1547.17 741.022 1548.13 741.079 1549.15 741.079C1551.02 741.022 1552.44 740.851 1553.4 740.397ZM1552.38 729.889C1551.64 729.548 1550.34 729.435 1548.41 729.435H1546.32L1546.2 733.922L1550.28 733.979C1551.36 733.808 1552.21 733.524 1552.72 733.127C1553.23 732.729 1553.51 732.218 1553.51 731.479C1553.51 730.741 1553.17 730.23 1552.38 729.889Z" fill="black"/>
<path d="M1587.98 728.811C1590.07 730.231 1591.15 732.219 1591.15 734.831C1591.15 737.671 1590.02 739.83 1587.69 741.363C1585.37 742.897 1582.14 743.692 1577.89 743.692C1573.98 743.692 1570.97 742.954 1568.82 741.534C1566.72 740.114 1565.64 738.069 1565.64 735.399C1565.64 732.616 1566.78 730.458 1569.1 728.981C1571.43 727.504 1574.66 726.709 1578.91 726.709C1582.82 726.709 1585.88 727.391 1587.98 728.811ZM1573.35 730.799C1572.33 731.651 1571.77 733.014 1571.77 734.945C1571.77 737.16 1572.28 738.694 1573.3 739.659C1574.32 740.625 1576.02 741.079 1578.4 741.079C1580.72 741.079 1582.36 740.625 1583.44 739.773C1584.46 738.921 1585.03 737.501 1585.03 735.57C1585.03 733.411 1584.52 731.878 1583.5 730.912C1582.48 730.003 1580.78 729.492 1578.4 729.492C1576.07 729.492 1574.37 729.947 1573.35 730.799Z" fill="black"/>
<path d="M1612.97 740.795L1612.57 743.351H1597.5L1597.78 738.466L1597.5 726.936H1603.5L1603.16 738.182L1603.28 740.511H1612.63L1612.97 740.795Z" fill="black"/>
<path d="M1633.94 740.795L1633.55 743.351H1618.47L1618.75 738.466L1618.47 726.936H1624.48L1624.14 738.182L1624.25 740.511H1633.6L1633.94 740.795Z" fill="black"/>
<path d="M1657.12 740.511L1657.46 740.795L1657.06 743.351H1639.55L1639.83 738.466L1639.55 726.936H1657.23L1657.57 727.22L1657.12 729.776L1650.43 729.662H1645.39L1645.28 733.638L1650.09 733.695L1654.63 733.638L1654.97 733.865L1654.57 736.421L1649.64 736.364H1645.16L1645.11 738.125L1645.22 740.624H1650.09L1657.12 740.511Z" fill="black"/>
<path d="M1669.76 737.558L1678.83 732.219L1687.9 737.558L1678.83 742.897L1669.76 737.558Z" fill="black"/>
<g clip-path="url(#clip1)">
<path d="M3017.1 494.389H1899.9L1835.59 542.34H3081.42L3017.1 494.389Z" fill="#5C404E"/>
<path d="M3087 533.217H1830V542.31H3087V533.217Z" fill="#5C404E"/>
<path d="M2875.48 515.293H2684.98V957H2875.48V515.293Z" fill="#FACABC"/>
<path d="M3081.45 542.34H2875.51V957.001H3081.45V542.34Z" fill="#F87980"/>
<path d="M2685.02 542.34H1835.59V957.001H2685.02V542.34Z" fill="#F87980"/>
<path d="M2718.66 957V786.861C2718.66 786.861 2737.46 779.609 2780.23 779.609C2823 779.609 2841.8 786.861 2841.8 786.861V957H2718.66Z" fill="#FFF1F0"/>
<path d="M2725.65 957V790.428C2725.65 790.428 2742.32 783.498 2780.26 783.498C2818.18 783.498 2834.88 790.428 2834.88 790.428V957H2725.65Z" fill="#F87980"/>
<path d="M2594.27 782.241L2499.25 779.902L2502.18 775.574L2596.31 772.65L2594.27 782.241Z" fill="#FACABC"/>
<path d="M2583.72 905.189L2508.96 908.113L2511.88 783.703H2583.72V905.189Z" fill="#FACABC"/>
<path d="M2621.19 776.979L2583.71 783.703V905.19L2618.27 895.541L2621.19 776.979Z" fill="#5C404E"/>
<path d="M2617.51 782.505L2587.37 789.23V786.862L2617.51 780.137V782.505Z" fill="#2C1E25"/>
<path d="M2617.51 787.124L2587.37 793.849V791.481L2617.51 784.756V787.124Z" fill="#2C1E25"/>
<path d="M2617.51 791.773L2587.37 798.497V796.129L2617.51 789.404V791.773Z" fill="#2C1E25"/>
<path d="M2617.51 796.392L2587.37 803.117V800.748L2617.51 794.023V796.392Z" fill="#2C1E25"/>
<path d="M2617.51 801.011L2587.37 807.736V805.367L2617.51 798.643V801.011Z" fill="#2C1E25"/>
<path d="M2617.51 805.661L2587.37 812.386V809.989L2617.51 803.264V805.661Z" fill="#2C1E25"/>
<path d="M2617.51 810.28L2587.37 817.005V814.637L2617.51 807.912V810.28Z" fill="#2C1E25"/>
<path d="M2474.38 776.979L2511.88 783.703L2508.96 908.113L2474.38 898.465V776.979Z" fill="#5C404E"/>
<path d="M2478.06 782.505L2508.2 789.23V786.862L2478.06 780.137V782.505Z" fill="#2C1E25"/>
<path d="M2478.06 787.124L2508.2 793.849V791.481L2478.06 784.756V787.124Z" fill="#2C1E25"/>
<path d="M2478.06 791.773L2508.2 798.497V796.129L2478.06 789.404V791.773Z" fill="#2C1E25"/>
<path d="M2478.06 796.392L2508.2 803.117V800.748L2478.06 794.023V796.392Z" fill="#2C1E25"/>
<path d="M2478.06 801.011L2508.2 807.736V805.367L2478.06 798.643V801.011Z" fill="#2C1E25"/>
<path d="M2478.06 805.661L2508.2 812.386V809.989L2478.06 803.264V805.661Z" fill="#2C1E25"/>
<path d="M2478.06 810.28L2508.2 817.005V814.637L2478.06 807.912V810.28Z" fill="#2C1E25"/>
<path d="M2583.72 911.155L2508.96 914.078V903.436L2583.72 900.512V911.155Z" fill="#FACABC"/>
<path d="M2589.56 911.154L2503.08 914.078V908.113L2589.56 905.189V911.154Z" fill="#FACABC"/>
<path d="M3026.01 779.902H2928.95V772.65L3028.94 769.727L3026.01 779.902Z" fill="#FACABC"/>
<path d="M3013.39 783.701H2941.55V905.187H3013.39V783.701Z" fill="#FACABC"/>
<path d="M3050.9 776.977L3013.39 783.701V905.188L3054.4 901.971L3050.9 776.977Z" fill="#5C404E"/>
<path d="M3047.21 782.505L3017.07 789.23V786.862L3047.21 780.137V782.505Z" fill="#2C1E25"/>
<path d="M3047.21 787.124L3017.07 793.849V791.481L3047.21 784.756V787.124Z" fill="#2C1E25"/>
<path d="M3047.21 791.773L3017.07 798.498V796.129L3047.21 789.404V791.773Z" fill="#2C1E25"/>
<path d="M3047.21 796.392L3017.07 803.117V800.748L3047.21 794.023V796.392Z" fill="#2C1E25"/>
<path d="M3047.21 801.011L3017.07 807.736V805.367L3047.21 798.643V801.011Z" fill="#2C1E25"/>
<path d="M3047.21 805.661L3017.07 812.386V809.989L3047.21 803.264V805.661Z" fill="#2C1E25"/>
<path d="M3047.21 810.28L3017.07 817.005V814.637L3047.21 807.912V810.28Z" fill="#2C1E25"/>
<path d="M2901.15 774.053L2941.56 783.701V905.188L2904.08 898.463L2901.15 774.053Z" fill="#5C404E"/>
<path d="M2904.84 779.579L2937.9 789.228V786.86L2904.84 777.211V779.579Z" fill="#2C1E25"/>
<path d="M2904.84 784.198L2937.9 793.847V791.479L2904.84 781.83V784.198Z" fill="#2C1E25"/>
<path d="M2904.84 788.849L2937.9 798.498V796.129L2904.84 786.48V788.849Z" fill="#2C1E25"/>
<path d="M2904.84 793.468L2937.9 803.117V800.748L2904.84 791.1V793.468Z" fill="#2C1E25"/>
<path d="M2904.84 798.087L2937.9 807.736V805.367L2904.84 795.719V798.087Z" fill="#2C1E25"/>
<path d="M2904.84 802.737L2937.9 812.386V809.989L2904.84 800.34V802.737Z" fill="#2C1E25"/>
<path d="M2904.84 807.357L2937.9 817.005V814.637L2904.84 804.988V807.357Z" fill="#2C1E25"/>
<path d="M3013.39 900.51H2941.55V911.153H3013.39V900.51Z" fill="#FACABC"/>
<path d="M3022.18 914.076L2935.71 911.152V905.188H3019.26L3022.18 914.076Z" fill="#FACABC"/>
<path d="M2982.43 905.188H2978.39L2975.47 813.262H2982.43V905.188Z" fill="#F87980"/>
<path d="M2978.13 812.386H2976.81V782.416H2981.34L2978.13 812.386Z" fill="#F87980"/>
<path d="M3013.39 810.367V817.297L2941.55 814.373V810.367H3013.39Z" fill="#F87980"/>
<path d="M2396.52 779.902H2299.46V772.65L2393.6 775.574L2396.52 779.902Z" fill="#FACABC"/>
<path d="M2386.82 908.113H2312.06V783.703H2383.89L2386.82 908.113Z" fill="#FACABC"/>
<path d="M2421.4 776.979L2383.89 783.703L2386.81 908.113L2421.4 898.465V776.979Z" fill="#5C404E"/>
<path d="M2417.72 782.505L2387.57 789.23V786.862L2417.72 780.137V782.505Z" fill="#2C1E25"/>
<path d="M2417.72 787.124L2387.57 793.849V791.481L2417.72 784.756V787.124Z" fill="#2C1E25"/>
<path d="M2417.72 791.773L2387.57 798.497V796.129L2417.72 789.404V791.773Z" fill="#2C1E25"/>
<path d="M2417.72 796.392L2387.57 803.117V800.748L2417.72 794.023V796.392Z" fill="#2C1E25"/>
<path d="M2417.72 801.011L2387.57 807.736V805.367L2417.72 798.643V801.011Z" fill="#2C1E25"/>
<path d="M2417.72 805.661L2387.57 812.386V809.989L2417.72 803.264V805.661Z" fill="#2C1E25"/>
<path d="M2417.72 810.28L2387.57 817.005V814.637L2417.72 807.912V810.28Z" fill="#2C1E25"/>
<path d="M2274.58 776.979L2312.06 783.703V905.19L2274.58 898.465V776.979Z" fill="#5C404E"/>
<path d="M2278.27 782.505L2308.41 789.23V786.862L2278.27 780.137V782.505Z" fill="#2C1E25"/>
<path d="M2278.27 787.124L2308.41 793.849V791.481L2278.27 784.756V787.124Z" fill="#2C1E25"/>
<path d="M2278.27 791.773L2308.41 798.497V796.129L2278.27 789.404V791.773Z" fill="#2C1E25"/>
<path d="M2278.27 796.392L2308.41 803.117V800.748L2278.27 794.023V796.392Z" fill="#2C1E25"/>
<path d="M2278.27 801.011L2308.41 807.736V805.367L2278.27 798.643V801.011Z" fill="#2C1E25"/>
<path d="M2278.27 805.661L2308.41 812.386V809.989L2278.27 803.264V805.661Z" fill="#2C1E25"/>
<path d="M2278.27 810.28L2308.41 817.005V814.637L2278.27 807.912V810.28Z" fill="#2C1E25"/>
<path d="M2392.69 914.078L2306.21 911.154V905.189L2392.69 908.113V914.078Z" fill="#FACABC"/>
<path d="M2195.27 778.44L2099.64 779.902L2096.71 769.727L2196.73 772.65L2195.27 778.44Z" fill="#FACABC"/>
<path d="M2184.1 905.189L2112.27 907.821V783.703H2184.1V905.189Z" fill="#FACABC"/>
<path d="M2218.95 778.148L2184.1 783.704V905.19L2221.58 898.465L2218.95 778.148Z" fill="#5C404E"/>
<path d="M2217.92 782.505L2187.78 789.23V786.862L2217.92 780.137V782.505Z" fill="#2C1E25"/>
<path d="M2217.92 787.124L2187.78 793.849V791.481L2217.92 784.756V787.124Z" fill="#2C1E25"/>
<path d="M2217.92 791.773L2187.78 798.497V796.129L2217.92 789.404V791.773Z" fill="#2C1E25"/>
<path d="M2217.92 796.392L2187.78 803.117V800.748L2217.92 794.023V796.392Z" fill="#2C1E25"/>
<path d="M2217.92 801.011L2187.78 807.736V805.367L2217.92 798.643V801.011Z" fill="#2C1E25"/>
<path d="M2217.92 805.661L2187.78 812.386V809.989L2217.92 803.264V805.661Z" fill="#2C1E25"/>
<path d="M2217.92 810.28L2187.78 817.005V814.637L2217.92 807.912V810.28Z" fill="#2C1E25"/>
<path d="M2074.79 776.979L2112.26 783.703V907.821L2080.63 892.617L2074.79 776.979Z" fill="#5C404E"/>
<path d="M2078.47 782.505L2108.58 789.23V786.862L2078.47 780.137V782.505Z" fill="#2C1E25"/>
<path d="M2078.47 787.124L2108.58 793.849V791.481L2078.47 784.756V787.124Z" fill="#2C1E25"/>
<path d="M2078.47 791.773L2108.58 798.497V796.129L2078.47 789.404V791.773Z" fill="#2C1E25"/>
<path d="M2078.47 796.392L2108.58 803.117V800.748L2078.47 794.023V796.392Z" fill="#2C1E25"/>
<path d="M2078.47 801.011L2108.58 807.736V805.367L2078.47 798.643V801.011Z" fill="#2C1E25"/>
<path d="M2078.47 805.661L2108.58 812.386V809.989L2078.47 803.264V805.661Z" fill="#2C1E25"/>
<path d="M2078.47 810.28L2108.58 817.005V814.637L2078.47 807.912V810.28Z" fill="#2C1E25"/>
<path d="M2184.1 911.155L2112.27 913.786V903.143L2184.1 900.512V911.155Z" fill="#FACABC"/>
<path d="M2189.97 911.154L2106.39 913.786V907.821L2189.97 905.189V911.154Z" fill="#FACABC"/>
<path d="M1996.93 779.902H1899.84V772.651L1999.86 770.02L1996.93 779.902Z" fill="#FACABC"/>
<path d="M1984.3 783.703H1912.47V905.189H1984.3V783.703Z" fill="#FACABC"/>
<path d="M2021.78 776.979L1984.3 783.703V905.19L2027.63 901.389L2021.78 776.979Z" fill="#5C404E"/>
<path d="M2018.1 782.505L1987.99 789.23V786.862L2018.1 780.137V782.505Z" fill="#2C1E25"/>
<path d="M2018.1 787.124L1987.99 793.849V791.481L2018.1 784.756V787.124Z" fill="#2C1E25"/>
<path d="M2018.1 791.773L1987.99 798.497V796.129L2018.1 789.404V791.773Z" fill="#2C1E25"/>
<path d="M2018.1 796.392L1987.99 803.117V800.748L2018.1 794.023V796.392Z" fill="#2C1E25"/>
<path d="M2018.1 801.011L1987.99 807.736V805.367L2018.1 798.643V801.011Z" fill="#2C1E25"/>
<path d="M2018.1 805.661L1987.99 812.386V809.989L2018.1 803.264V805.661Z" fill="#2C1E25"/>
<path d="M2018.1 810.28L1987.99 817.005V814.637L2018.1 807.912V810.28Z" fill="#2C1E25"/>
<path d="M1874.96 776.979L1912.47 783.703V905.19L1874.96 898.465V776.979Z" fill="#5C404E"/>
<path d="M1878.65 782.505L1908.79 789.23V786.862L1878.65 780.137V782.505Z" fill="#2C1E25"/>
<path d="M1878.65 787.124L1908.79 793.849V791.481L1878.65 784.756V787.124Z" fill="#2C1E25"/>
<path d="M1878.65 791.773L1908.79 798.497V796.129L1878.65 789.404V791.773Z" fill="#2C1E25"/>
<path d="M1878.65 796.392L1908.79 803.117V800.748L1878.65 794.023V796.392Z" fill="#2C1E25"/>
<path d="M1878.65 801.011L1908.79 807.736V805.367L1878.65 798.643V801.011Z" fill="#2C1E25"/>
<path d="M1878.65 805.661L1908.79 812.386V809.989L1878.65 803.264V805.661Z" fill="#2C1E25"/>
<path d="M1878.65 810.28L1908.79 817.005V814.637L1878.65 807.912V810.28Z" fill="#2C1E25"/>
<path d="M1984.3 900.512H1912.47V911.155H1984.3V900.512Z" fill="#FACABC"/>
<path d="M1992.52 913.786L1906.6 911.154V905.189H1990.18L1992.52 913.786Z" fill="#FACABC"/>
<path d="M2696.42 515.292H2672.53L2669.61 488.51L2696.42 491.434V515.292Z" fill="#FACABC"/>
<path d="M2720.3 491.436H2696.41V515.323H2720.3V491.436Z" fill="#FACABC"/>
<path d="M2744.19 491.436H2720.3V515.323H2744.19V491.436Z" fill="#FACABC"/>
<path d="M2768.05 491.436H2744.16V515.323H2768.05V491.436Z" fill="#FACABC"/>
<path d="M2791.93 491.436H2768.04V515.323H2791.93V491.436Z" fill="#FACABC"/>
<path d="M2815.81 491.436H2791.93V515.323H2815.81V491.436Z" fill="#FACABC"/>
<path d="M2839.67 491.436H2815.79V515.323H2839.67V491.436Z" fill="#FACABC"/>
<path d="M2863.52 515.294H2839.67V491.436L2862.94 492.313L2863.52 515.294Z" fill="#FACABC"/>
<path d="M2720.3 491.435H2696.41V467.547L2720.59 468.716L2720.3 491.435Z" fill="#FACABC"/>
<path d="M2744.16 491.435H2720.3L2720.59 468.716L2744.16 467.547V491.435Z" fill="#FACABC"/>
<path d="M2768.05 467.547H2744.16V491.435H2768.05V467.547Z" fill="#FACABC"/>
<path d="M2791.93 467.547H2768.04V491.435H2791.93V467.547Z" fill="#FACABC"/>
<path d="M2815.81 467.547H2791.93V491.435H2815.81V467.547Z" fill="#FACABC"/>
<path d="M2839.67 467.547H2815.79V491.435H2839.67V467.547Z" fill="#FACABC"/>
<path d="M2862.94 492.312L2839.67 491.435V467.547L2866.45 470.471L2862.94 492.312Z" fill="#FACABC"/>
<path d="M2744.16 467.546L2720.59 468.716L2717.38 443.658H2744.16V467.546Z" fill="#FACABC"/>
<path d="M2768.05 443.658H2744.16V467.546H2768.05V443.658Z" fill="#FACABC"/>
<path d="M2791.93 443.658H2768.04V467.546H2791.93V443.658Z" fill="#FACABC"/>
<path d="M2815.79 467.546H2791.93V443.658L2812.86 446.582L2815.79 467.546Z" fill="#FACABC"/>
<path d="M2839.67 467.546H2815.79L2812.86 446.582L2839.67 443.658V467.546Z" fill="#FACABC"/>
<path d="M2768.04 443.659H2744.16L2741.23 422.725L2768.04 419.801V443.659Z" fill="#FACABC"/>
<path d="M2791.93 419.801H2768.04V443.689H2791.93V419.801Z" fill="#FACABC"/>
<path d="M2791.93 419.8H2768.04V395.912L2794.85 392.988L2791.93 419.8Z" fill="#FACABC"/>
<path d="M2812.86 446.583L2791.93 443.659V419.801H2818.71L2812.86 446.583Z" fill="#FACABC"/>
<path d="M2887.41 515.294H2863.53L2862.94 492.313L2887.41 491.436V515.294Z" fill="#FACABC"/>
<path d="M2891.3 491.435L2862.94 492.312V485.295L2891.3 484.418V491.435Z" fill="#5C404E"/>
<path d="M2870.34 470.47L2839.67 467.547V460.559L2870.34 463.482V470.47Z" fill="#5C404E"/>
<path d="M2843.56 443.658L2812.86 446.582V439.594L2843.56 436.67V443.658Z" fill="#5C404E"/>
<path d="M2822.63 412.812H2791.93V419.801H2822.63V412.812Z" fill="#5C404E"/>
<path d="M2798.74 392.988L2768.04 395.912V388.924L2798.74 386V392.988Z" fill="#5C404E"/>
<path d="M2665.72 488.511L2696.42 491.435V484.418L2665.72 481.494V488.511Z" fill="#5C404E"/>
<path d="M2692.53 467.547L2720.59 468.716V461.728L2692.53 460.559V467.547Z" fill="#5C404E"/>
<path d="M2713.46 443.678L2744.16 443.678L2744.16 436.69L2713.46 436.69L2713.46 443.678Z" fill="#5C404E"/>
<path d="M2737.34 422.724L2768.04 419.801V412.812L2737.34 415.736V422.724Z" fill="#5C404E"/>
<path d="M2764.15 395.912L2794.85 392.988V386L2764.15 388.924V395.912Z" fill="#5C404E"/>
<path d="M2781.93 513.509C2796.4 513.509 2808.12 501.78 2808.12 487.311C2808.12 472.842 2796.4 461.113 2781.93 461.113C2767.46 461.113 2755.73 472.842 2755.73 487.311C2755.73 501.78 2767.46 513.509 2781.93 513.509Z" fill="#5C404E"/>
<path d="M2732.29 819.375V793.528C2732.29 793.528 2746.94 786.861 2780.26 786.861C2813.59 786.861 2828.24 793.528 2828.24 793.528V819.375H2732.29Z" fill="#FACABC"/>
<path d="M2521.8 790.984H2583.72V783.703H2511.88L2508.96 908.113L2519.05 907.704L2521.8 790.984Z" fill="#BE988D"/>
<path d="M2321.77 790.896H2384.07L2383.89 783.703H2312.06V905.365L2321.77 905.716V790.896Z" fill="#BE988D"/>
<path d="M2119.75 792.241H2184.1V783.703H2112.27V907.821L2119.75 907.528V792.241Z" fill="#BE988D"/>
<path d="M1920.66 789.668H1984.3V783.703H1912.47V905.189H1920.66V789.668Z" fill="#BE988D"/>
<path d="M2763.42 494.387C2763.42 479.914 2775.15 468.189 2789.62 468.189C2794.56 468.189 2799.18 469.563 2803.12 471.932C2798.36 465.382 2790.64 461.113 2781.93 461.113C2767.46 461.113 2755.73 472.838 2755.73 487.311C2755.73 496.843 2760.82 505.147 2768.39 509.737C2765.27 505.439 2763.42 500.118 2763.42 494.387Z" fill="#2C1E25"/>
<path d="M2875.51 542.34L2944.42 505.529H2963.8L2982.28 494.389H2887.41V515.294H2875.51V542.34Z" fill="#2C1E25"/>
<path d="M2549.8 906.533L2545.77 906.65V813.262H2547.78L2549.8 906.533Z" fill="#F87980"/>
<path d="M2548.46 812.386H2547.14L2545.09 782.416H2548.46V812.386Z" fill="#F87980"/>
<path d="M2583.71 810.369V814.375L2511.09 816.421L2511.24 810.369H2583.71Z" fill="#F87980"/>
<path d="M2350.01 906.65L2345.97 906.504L2344.54 813.262H2350.01V906.65Z" fill="#F87980"/>
<path d="M2348.64 812.386H2347.32L2349.07 782.416H2351.56L2348.64 812.386Z" fill="#F87980"/>
<path d="M2384.48 808.059L2384.6 812.971L2312.06 814.374V810.368L2384.48 808.059Z" fill="#F87980"/>
<path d="M2149.02 906.474L2147.2 906.533L2146.18 813.262H2150.18L2149.02 906.474Z" fill="#F87980"/>
<path d="M2148.84 812.386H2147.52V782.416H2151.76L2148.84 812.386Z" fill="#F87980"/>
<path d="M2184.1 812.971V814.375H2112.27V810.369L2184.1 812.971Z" fill="#F87980"/>
<path d="M1948.35 905.188H1946.39V813.262H1950.39L1948.35 905.188Z" fill="#F87980"/>
<path d="M1949.05 812.386H1947.73L1946.27 782.416H1949.05V812.386Z" fill="#F87980"/>
<path d="M1984.3 810.369V814.375H1912.47V812.708L1984.3 810.369Z" fill="#F87980"/>
<path d="M2732.29 819.375V793.528C2732.29 793.528 2746.94 786.861 2780.26 786.861C2813.59 786.861 2828.24 793.528 2828.24 793.528V819.375H2732.29Z" fill="#FACABC"/>
<path d="M2828.21 827.473H2732.29V956.999H2828.21V827.473Z" fill="#FACABC"/>
<path d="M2875.48 805.574H2841.8V915.19H2875.48V805.574Z" fill="#5C404E"/>
<path d="M2718.66 805.574H2684.98V915.19H2718.66V805.574Z" fill="#5C404E"/>
<path d="M2832.8 692.771H2727.73V735.167H2832.8V692.771Z" fill="#FFF1F0"/>
<path d="M2832.77 554.443V694.349H2727.7V554.443C2727.7 554.443 2745.85 551.256 2780.23 551.256C2814.62 551.256 2832.77 554.443 2832.77 554.443Z" fill="#FFF1F0"/>
<path d="M2601.78 571.227L2600.32 712.596H2495.25V572.689C2495.25 572.689 2513.41 569.502 2547.79 569.502C2582.17 569.531 2601.78 571.227 2601.78 571.227Z" fill="#FACABC"/>
<path d="M3034.11 571.227L3032.65 712.596H2927.58V572.689C2927.58 572.689 2945.73 569.502 2980.11 569.502C3014.49 569.502 3034.11 571.227 3034.11 571.227Z" fill="#FACABC"/>
<path d="M2397.6 578.537L2400.52 712.596H2295.45V572.689C2295.45 572.689 2313.61 569.502 2347.99 569.502C2382.37 569.502 2397.6 578.537 2397.6 578.537Z" fill="#FACABC"/>
<path d="M2200.7 572.689L2197.78 706.748L2095.63 712.596L2098.56 572.689C2098.56 572.689 2113.79 569.502 2148.17 569.502C2182.58 569.531 2200.7 572.689 2200.7 572.689Z" fill="#FACABC"/>
<path d="M2000.91 572.689V712.596L1892.91 703.824V572.689C1892.91 572.689 1913.99 569.502 1948.37 569.502C1982.75 569.502 2000.91 572.689 2000.91 572.689Z" fill="#FACABC"/>
<path d="M1905.19 581.782C1905.19 581.782 1926.27 578.595 1960.65 578.595C1978.57 578.595 1992.08 579.472 2000.91 580.291V572.689C2000.91 572.689 1982.75 569.502 1948.37 569.502C1913.99 569.502 1892.91 572.689 1892.91 572.689V703.824L1905.19 704.818V581.782Z" fill="#BE988D"/>
<path d="M2109.67 581.782C2109.67 581.782 2124.9 578.595 2159.28 578.595C2177.9 578.595 2191.76 579.531 2200.53 580.379L2200.7 572.689C2200.7 572.689 2182.55 569.502 2148.17 569.502C2113.79 569.502 2098.56 572.689 2098.56 572.689L2095.63 712.596L2106.95 711.952L2109.67 581.782Z" fill="#BE988D"/>
<path d="M2301.21 588.946C2301.21 588.946 2319.37 585.759 2353.75 585.759C2376.41 585.759 2390.76 589.677 2397.89 592.367L2397.6 578.537C2397.6 578.537 2382.37 569.502 2347.99 569.502C2313.61 569.502 2295.45 572.689 2295.45 572.689V712.596H2301.21V588.946Z" fill="#BE988D"/>
<path d="M2504.78 579.765C2504.78 579.765 2522.94 576.578 2557.32 576.578C2577.58 576.578 2592.69 577.162 2601.72 577.66L2601.78 571.227C2601.78 571.227 2582.17 569.502 2547.79 569.502C2513.41 569.502 2495.25 572.689 2495.25 572.689V712.596H2504.78V579.765Z" fill="#BE988D"/>
<path d="M2941.55 576.841C2941.55 576.841 2959.71 573.654 2994.09 573.654C3011.34 573.654 3024.87 574.092 3034.08 574.502L3034.11 571.227C3034.11 571.227 3014.49 569.502 2980.11 569.502C2945.73 569.502 2927.58 572.689 2927.58 572.689V712.596H2941.55V576.841Z" fill="#BE988D"/>
<path d="M2737.43 563.682C2737.43 563.682 2755.59 560.495 2789.97 560.495C2809.73 560.495 2824.12 561.548 2832.8 562.425V554.443C2832.8 554.443 2814.64 551.256 2780.26 551.256C2745.88 551.256 2727.73 554.443 2727.73 554.443V694.349H2737.43V563.682Z" fill="#CBBEBD"/>
<path d="M2741.62 835.747H2828.21V827.473H2732.29V956.999H2741.62V835.747Z" fill="#BE988D"/>
<path d="M2741.62 800.779C2741.62 800.779 2756.26 794.113 2789.59 794.113C2807.86 794.113 2820.52 796.13 2828.24 797.943V793.557C2828.24 793.557 2813.59 786.891 2780.26 786.891C2746.94 786.891 2732.29 793.557 2732.29 793.557V819.404H2741.62V800.779Z" fill="#BE988D"/>
<path d="M2521.33 810.369L2521.18 816.129L2511.09 816.421L2511.24 810.369H2521.33Z" fill="#A75155"/>
<path d="M2321.77 810.047V814.199L2312.06 814.374V810.368L2321.77 810.047Z" fill="#A75155"/>
<path d="M2119.75 810.632V814.375H2112.27V810.369L2119.75 810.632Z" fill="#A75155"/>
<path d="M1920.66 812.445V814.375H1912.47V812.708L1920.66 812.445Z" fill="#A75155"/>
<path d="M1946.33 783.703H1949.05V789.668H1946.62L1946.33 783.703Z" fill="#A75155"/>
<path d="M2147.52 792.241H2150.8L2151.65 783.703H2147.52V792.241Z" fill="#A75155"/>
<path d="M2348.57 790.896H2350.74L2351.44 783.703H2349.01L2348.57 790.896Z" fill="#A75155"/>
<path d="M2548.46 783.703V790.984H2545.68L2545.18 783.703H2548.46Z" fill="#A75155"/>
<path d="M2776.93 675.988H2724.28V691.982H2776.93V675.988Z" fill="#5C404E"/>
<path d="M2835.96 675.988H2783.3V691.982H2835.96V675.988Z" fill="#5C404E"/>
<path d="M2828.21 701.484H2732.29V703.59H2828.21V701.484Z" fill="black"/>
<path d="M2828.21 727.244H2732.29V729.349H2828.21V727.244Z" fill="black"/>
<path d="M2750.71 717.8L2750.85 721.952H2746.18L2746.38 718.034L2746.35 716.514L2741.35 716.485L2736.82 716.514L2736.79 717.771L2736.97 721.923H2732.29L2732.52 718.005L2732.29 708.824H2737.03L2736.88 714.233L2741.64 714.263L2746.32 714.233L2746.18 708.824H2750.94L2750.71 717.8Z" fill="black"/>
<path d="M2772.99 710.344C2774.68 711.455 2775.53 713.063 2775.53 715.11C2775.53 717.362 2774.59 719.087 2772.75 720.315C2770.91 721.543 2768.31 722.157 2764.95 722.157C2761.85 722.157 2759.42 721.572 2757.75 720.432C2756.06 719.291 2755.21 717.654 2755.21 715.549C2755.21 713.327 2756.12 711.631 2757.96 710.432C2759.8 709.233 2762.37 708.648 2765.76 708.648C2768.86 708.678 2771.29 709.233 2772.99 710.344ZM2761.32 711.923C2760.5 712.596 2760.06 713.707 2760.06 715.227C2760.06 716.981 2760.47 718.209 2761.29 718.97C2762.11 719.701 2763.46 720.081 2765.36 720.081C2767.2 720.081 2768.54 719.73 2769.36 719.057C2770.18 718.385 2770.62 717.245 2770.62 715.695C2770.62 713.97 2770.21 712.742 2769.39 712.011C2768.57 711.28 2767.23 710.9 2765.33 710.9C2763.48 710.9 2762.14 711.221 2761.32 711.923Z" fill="black"/>
<path d="M2793.31 709.087L2793.04 711.134L2788.86 711.017H2787.49L2787.31 717.8L2787.52 721.952H2782.81L2783.04 718.034L2782.87 710.988H2781.49L2777.26 711.105L2776.93 710.871L2777.26 708.824H2793.04L2793.31 709.087Z" fill="black"/>
<path d="M2811.37 719.672L2811.63 719.906L2811.31 721.952H2797.39L2797.63 718.034L2797.39 708.854H2811.49L2811.75 709.087L2811.4 711.134L2806.08 711.046L2802.07 711.076L2801.96 714.233L2805.79 714.263L2809.41 714.204L2809.67 714.409L2809.35 716.456L2805.4 716.397L2801.84 716.426L2801.81 717.83L2801.93 719.789L2805.84 719.818L2811.37 719.672Z" fill="black"/>
<path d="M2828.21 719.906L2827.89 721.952H2815.88L2816.11 718.034L2815.88 708.854H2820.64L2820.38 717.801L2820.49 719.672H2827.95L2828.21 719.906Z" fill="black"/>
<path d="M2728.2 676.807L2725.71 673.503L2729.42 665.667L2727.58 661.076L2734.25 658.299L2738.81 662.743L2742.52 660.462L2747.23 658.299L2748.05 662.743L2750.62 664.117L2752.61 661.369H2755.18L2757.14 666.252H2759.51L2761.44 670.462L2763.89 663.152L2766.38 661.924L2768.45 666.252L2771.49 660.462L2774.24 661.515L2775.5 665.111L2778.51 665.667L2776.17 670.462L2776.67 673.415L2773.69 674.731L2773.28 678.327L2757.84 679.555L2728.2 676.807Z" fill="#5C404E"/>
<path d="M2787.34 677.977L2783.3 672.392L2787.34 671.106L2789.41 667.217L2787.08 665.112L2787.72 662.539L2791.23 663.825L2795.5 660.463L2798.48 662.656L2802.89 666.252L2806.28 661.369L2809.62 663.445V665.667L2812.25 666.252L2814.82 663.299L2818.33 662.393L2820.14 665.667L2820.78 668.24L2824.29 667.071L2827.27 663.182H2830.26L2831.28 667.451H2835.93L2836.6 668.942L2835.93 673.152L2832.77 677.977L2815.87 683.415L2787.34 677.977Z" fill="#5C404E"/>
<path d="M2544.92 694.234H2489.38L2492.3 710.286L2544.92 711.193V694.234Z" fill="#5C404E"/>
<path d="M2603.95 695.432H2551.29V711.308L2601.02 712.244L2603.95 695.432Z" fill="#5C404E"/>
<path d="M2496.18 695.053L2493.7 691.749L2497.44 683.913L2495.57 679.323L2502.27 676.545L2506.83 680.989L2510.54 678.709L2515.22 676.545L2516.06 680.989L2518.61 682.363L2520.6 679.615H2523.2L2525.16 684.498H2527.5L2529.42 688.708L2531.91 681.399L2534.39 680.17L2536.47 684.498L2539.48 678.709L2542.26 679.761L2543.52 683.358L2546.53 683.913L2544.19 688.708L2544.66 691.661L2541.7 692.977L2541.29 696.573L2525.83 697.801L2496.18 695.053Z" fill="#5C404E"/>
<path d="M2555.36 697.391L2551.29 691.836L2555.36 690.52L2557.43 686.631L2555.09 684.555L2555.74 681.982L2559.24 683.269L2563.51 679.906L2566.5 682.099L2570.91 685.666L2574.27 680.813L2577.63 682.889V685.111L2580.24 685.666L2582.84 682.742L2586.32 681.836L2588.13 685.111L2588.8 687.684L2592.28 686.514L2595.26 682.625H2598.24L2599.3 686.894H2603.95L2604.62 688.385L2603.95 692.596L2600.79 697.391L2583.89 702.859L2555.36 697.391Z" fill="#5C404E"/>
<path d="M2977.28 694.234H2921.7L2924.63 710.286L2977.28 711.193V694.234Z" fill="#5C404E"/>
<path d="M3036.28 695.432H2983.65V711.308L3033.35 712.244L3036.28 695.432Z" fill="#5C404E"/>
<path d="M2928.54 695.053L2926.06 691.749L2929.77 683.913L2927.9 679.323L2934.6 676.545L2939.16 680.989L2942.87 678.709L2947.55 676.545L2948.39 680.989L2950.94 682.363L2952.93 679.615H2955.53L2957.49 684.498H2959.83L2961.75 688.708L2964.24 681.399L2966.72 680.17L2968.8 684.498L2971.81 678.709L2974.59 679.761L2975.85 683.358L2978.86 683.913L2976.52 688.708L2977.02 691.661L2974.03 692.977L2973.62 696.573L2958.19 697.801L2928.54 695.053Z" fill="#5C404E"/>
<path d="M2987.69 697.391L2983.65 691.836L2987.69 690.52L2989.76 686.631L2987.42 684.555L2988.07 681.982L2991.58 683.269L2995.84 679.906L2998.83 682.099L3003.24 685.666L3006.6 680.813L3009.96 682.889V685.111L3012.57 685.666L3015.17 682.742L3018.68 681.836L3020.49 685.111L3021.13 687.684L3024.61 686.514L3027.59 682.625H3030.58L3031.63 686.894H3036.28L3036.95 688.385L3036.28 692.596L3033.12 697.391L3016.22 702.859L2987.69 697.391Z" fill="#5C404E"/>
<path d="M2345.15 694.234H2292.5V710.228H2345.15V694.234Z" fill="#5C404E"/>
<path d="M2404.15 694.234H2351.5V710.228H2404.15V694.234Z" fill="#5C404E"/>
<path d="M2296.39 695.053L2293.91 691.749L2297.65 683.913L2295.78 679.323L2302.47 676.545L2307 680.989L2310.75 678.709L2315.42 676.545L2316.24 680.989L2318.81 682.363L2320.8 679.615H2323.4L2325.36 684.498H2327.7L2329.63 688.708L2332.12 681.399L2334.57 680.17L2336.65 684.498L2339.69 678.709L2342.44 679.761L2343.72 683.358L2346.73 683.913L2344.37 688.708L2344.86 691.661L2341.88 692.977L2341.47 696.573L2326.04 697.801L2296.39 695.053Z" fill="#5C404E"/>
<path d="M2355.53 696.221L2351.5 690.636L2355.53 689.35L2357.61 685.461L2355.27 683.356L2355.94 680.783L2359.42 682.069L2363.72 678.707L2366.7 680.9L2371.09 684.496L2374.48 679.613L2377.81 681.689V683.912L2380.44 684.496L2383.02 681.572L2386.52 680.637L2388.34 683.912L2388.98 686.484L2392.49 685.315L2395.47 681.426H2398.45L2399.48 685.695H2404.15L2404.8 687.186L2404.15 691.426L2400.97 696.221L2384.07 701.659L2355.53 696.221Z" fill="#5C404E"/>
<path d="M2145.33 694.234H2092.68V710.228H2145.33V694.234Z" fill="#5C404E"/>
<path d="M2204.33 694.234H2151.7V710.228L2201.93 706.251L2204.33 694.234Z" fill="#5C404E"/>
<path d="M2096.59 695.053L2094.11 691.749L2097.82 683.913L2095.98 679.323L2102.65 676.545L2107.21 680.989L2110.92 678.709L2115.63 676.545L2116.45 680.989L2119.02 682.363L2121.01 679.615H2123.58L2125.54 684.498H2127.88L2129.81 688.708L2132.29 681.399L2134.78 680.17L2136.85 684.498L2139.89 678.709L2142.64 679.761L2143.9 683.358L2146.91 683.913L2144.57 688.708L2145.07 691.661L2142.08 692.977L2141.68 696.573L2126.24 697.801L2096.59 695.053Z" fill="#5C404E"/>
<path d="M2155.74 696.221L2151.7 690.636L2155.74 689.35L2157.81 685.461L2155.47 683.356L2156.12 680.783L2159.63 682.069L2163.89 678.707L2166.88 680.9L2171.29 684.496L2174.65 679.613L2178.01 681.689V683.912L2180.62 684.496L2183.22 681.572L2186.73 680.637L2188.54 683.912L2189.18 686.484L2192.69 685.315L2195.67 681.426H2198.65L2199.68 685.695H2204.33L2205 687.186L2204.33 691.426L2201.17 696.221L2184.27 701.659L2155.74 696.221Z" fill="#5C404E"/>
<path d="M1945.51 694.234H1892.89L1892.92 703.825L1945.51 710.228V694.234Z" fill="#5C404E"/>
<path d="M2004.54 694.234H1951.88V710.228H2004.54V694.234Z" fill="#5C404E"/>
<path d="M1896.77 695.053L1894.32 691.749L1898.03 683.913L1896.16 679.323L1902.85 676.545L1907.41 680.989L1911.13 678.709L1915.8 676.545L1916.65 680.989L1919.2 682.363L1921.18 679.615H1923.79L1925.74 684.498H1928.08L1930.01 688.708L1932.5 681.399L1934.98 680.17L1937.06 684.498L1940.07 678.709L1942.85 679.761L1944.1 683.358L1947.12 683.913L1944.78 688.708L1945.27 691.661L1942.29 692.977L1941.88 696.573L1926.42 697.801L1896.77 695.053Z" fill="#5C404E"/>
<path d="M1955.95 696.221L1951.88 690.636L1955.95 689.35L1958.02 685.461L1955.68 683.356L1956.33 680.783L1959.83 682.069L1964.1 678.707L1967.09 680.9L1971.5 684.496L1974.86 679.613L1978.22 681.689V683.912L1980.83 684.496L1983.43 681.572L1986.91 680.637L1988.75 683.912L1989.39 686.484L1992.87 685.315L1995.85 681.426H1998.83L1999.89 685.695H2004.54L2005.21 687.186L2004.54 691.426L2001.38 696.221L1984.48 701.659L1955.95 696.221Z" fill="#5C404E"/>
<path d="M2606.96 712.273L2489.49 710.227L2486.57 717.624L2606.96 716.747V712.273Z" fill="#FFF1F0"/>
<path d="M2409.21 707.303L2289.7 710.227V714.7H2406.29L2409.21 707.303Z" fill="#FFF1F0"/>
<path d="M2203.54 704.379L2089.9 710.227V714.7L2205.88 711.776L2203.54 704.379Z" fill="#FFF1F0"/>
<path d="M2006.67 710.227L1887.15 701.455L1884.23 708.852L2006.67 714.7V710.227Z" fill="#FFF1F0"/>
<path d="M3039.29 712.273L2921.82 710.227V714.7L3039.29 716.747V712.273Z" fill="#FFF1F0"/>
<path d="M2838.53 691.982H2721.94V696.427H2838.53V691.982Z" fill="#5C404E"/>
<path d="M2704.02 661.311L2695.25 647.686H2684.99H2682.33L2673.56 661.311H2669.38V662.451H2671.95L2674.87 705.315H2686.95V715.841H2684.11V725.489H2678.5V751.687H2693.58L2691.74 755.488H2695.31L2699.11 751.687V725.489H2693.46V715.841H2690.63V705.315H2702.7L2705.63 662.451H2708.2V661.311H2704.02Z" fill="#BE988D"/>
<path d="M2695.31 729.291H2674.7V755.489H2695.31V729.291Z" fill="#5C404E"/>
<path d="M2698.9 709.116H2671.07L2668.15 666.252H2701.83L2698.9 709.116Z" fill="#5C404E"/>
<path d="M2689.66 719.641H2680.31V730.167H2689.66V719.641Z" fill="#5C404E"/>
<path d="M2686.83 709.115H2683.14V719.641H2686.83V709.115Z" fill="#5C404E"/>
<path d="M2704.4 665.111H2665.57V666.252H2704.4V665.111Z" fill="#5C404E"/>
<path d="M2700.22 665.112H2669.75L2678.52 651.486H2691.45L2700.22 665.112Z" fill="#5C404E"/>
<path d="M2694.63 704.904H2675.34L2673.29 670.461H2696.68L2694.63 704.904Z" fill="#FFDD66"/>
<path d="M2695.31 665.11H2674.7L2680.63 655.812H2689.37L2695.31 665.11Z" fill="#FFDD66"/>
</g>
<path d="M214.811 0.744141H2697.96L3233.41 1047.7H0.0898438L214.811 0.744141Z" fill="black" fill-opacity="0.5"/>
<defs>
<clipPath id="clip0">
<rect width="821" height="582" fill="white" transform="translate(315 374)"/>
</clipPath>
<clipPath id="clip1">
<rect width="1257" height="571" fill="white" transform="translate(1830 386)"/>
</clipPath>
</defs>
</svg>
