<svg width="275" height="127" fill="none" xmlns="http://www.w3.org/2000/svg"><path d="M116.689 138.096l-2.221-11.406 49.58-1.867-.423 8.342-46.936 4.931z" fill="#FACABC"/><path d="M98.211 48.58s-1.725-10.865 3.924-18.805c5.648-7.94 16.915-24.238 37.994-23.415 21.08.824 27.443 16.469 28.692 20.612 1.249 4.143 2.291 18.847 2.291 18.847l-32.704 3.683-40.197-.922z" fill="#0B6AC2"/><path d="M99.904 53.71s-.012 9.284.177 22.732c.191 13.49-5.876 31.708-3.673 39.211 2.204 7.502 21.095 12.51 21.095 12.51l47.537-6.74 11.427-29.558s-2.037-5.15-3.358-11.651c-1.32-6.502-2.127-25.313-2.377-28.842-.25-3.53-70.828 2.338-70.828 2.338z" fill="#FACABC"/><path d="M148.22 66.626s2.913.666 4.251-.682c1.338-1.347 4.103-2.782 6.065-2.058 1.962.725 3.984 2.289 4.103 3.97.119 1.68-4.816 6.2-10.286 3.159-2.944-1.087-2.676 2.695-6.63.826-3.955-1.868-3.271-5.707 2.497-5.215zM121.199 69.54s6.72.434 6.898 2.955c.179 2.52-2.021 5.187-4.43 4.912-2.408-.275-4.37-1-6.243-.463-1.873.536-8.354 3.463-8.592.102-.238-3.36.178-4.23 1.575-4.737 1.397-.507 5.768.492 7.611-.465 1.843-.956 1.754-2.216 3.181-2.303z" fill="#1D1D1D"/><path d="M110.61 84.38s2.241-6.671 12.991-2.66c-3.013 6.72-10.61 3.449-12.991 2.66z" fill="#FFF1F0"/><path d="M114.368 80.867s-2.8 2.673.569 4.696c2.312.99 4.17.02 4.17.02s1.316-4.743-.678-5.136c-1.939-.156-4.061.42-4.061.42z" fill="#2C1E25"/><path d="M147.346 79.685s4.276-5.879 12.762-2.027c-1.94 5.735-10.639 4.394-12.762 2.027z" fill="#FFF1F0"/><path d="M151.244 76.953s-2.093 2.343.591 4.564c1.952.529 4.01-.142 4.01-.142s1.308-3.692-.389-4.952c-2.09-.315-4.212.53-4.212.53z" fill="#2C1E25"/><path d="M135.3 68.978s-2.402 8.585-3.823 13.482c-1.421 4.896-3.457 11.223-.284 12.844 3.172 1.62 6.356.709 7.325-.447.922-1.153 1.029-7.067 1.029-7.067s-1.467-15.311-2.062-16.288c-.594-.976-1.252-3.51-1.252-3.51l-.933.986z" fill="#F0BBAC"/><path d="M177.365 91.791s-1.369-10.706-7.161-4.87c-14.186 6.72-21.578 8.262-21.578 8.262s-15.137 4.894-25.659.899c-10.475-3.995-23.244-7.373-23.244-7.373-1.248-2.106-4.557 19.384-4.45 22.46.06 3.076.458 9.694 10.661 14.906 10.204 5.169 34.429 3.099 51.147 1.841 16.718-1.259 20.515-16.492 21.559-23.342 1.043-6.85-1.275-12.782-1.275-12.782zm-39.936 20.742c-3.507-.77-6.476 1.501-9.11.196-2.634-1.304-6.151-3.464 1.386-5.412 0 0 7 .276 12.126-.656 5.125-.932 7.93 1.133 7.828 3.112-.149 1.977-3.769 3.648-12.23 2.76zM109.781 63.147c12.189.066 31.259-3.595 39.271-5.434 2.331 3.857 15.24 1.095 22.208.67 6.968-.425 1.983-3.969-.532-7.51-2.012-2.835-14.162-2.023-19.986-1.262l-49.869 3.043-2.558 2.636c-1.257 2.592-.724 7.79 11.466 7.857z" fill="#1D1D1D"/><path d="M100.503 47.184s-5.83-1.336-9.454 1.414c-3.625 2.75-5.378 4.965.897 5.852 6.275.888 30.091-.128 40.466-2.02 10.375-1.891 36.456 2.02 42.044-.005 5.588-2.025 7.997-1.748 6.804-5.052-1.192-3.303-12.134-2.643-12.134-2.643s-29.94 2.229-36.63 2.21c-6.69-.018-31.993.244-31.993.244z" fill="#307CC1"/><mask id="a" maskUnits="userSpaceOnUse" x=".084" y="-.987" width="276.108" height="434.787" fill="#000"><path fill="#fff" d="M.084-.987h276.108V433.8H.084z"/><path fill-rule="evenodd" clip-rule="evenodd" d="M171.013 44.684c3.189-.02 9.356.263 10.234 2.696.932 2.582-.336 2.976-3.604 3.993-.912.284-1.981.616-3.2 1.058-.534.194-1.254.333-2.13.428l.188.22c2.304 2.69 4.258 4.97-1.246 5.307l-.124.007c.409 7.138 1.072 17.372 1.977 21.827a75.833 75.833 0 001.261 5.218c2.33 1.217 2.987 6.356 2.987 6.356s2.318 5.933 1.275 12.783c-.882 5.786-3.728 17.554-14.668 21.828l-.192 3.774 3.808-1.033s3.17 3.222 5.846 5.98v-.005s11.339 10.584 17.084 9.787c2.832.359 2.453.926 1.487 2.372v.001c-.097.145-.2.298-.306.462 4.68 1.882 9.886 3.56 14.521 4.088 2.154-.362 4.672.325 7.557 2.788a73.454 73.454 0 015.43 5.144l10.47-.274.231 8.841c2.622-.065 4.786.076 5.354.525 1.442 1.14 6.946 11.688 5.952 18.664a1392.98 1392.98 0 00-1.435 10.363c1.084-1.037 1.991-1.435 2.493-.414.215.438.456.881.701 1.333v.001c.885 1.63 1.826 3.366 1.838 5.306.561.006.931.202 1.065.629 1.433 4.431 8.651 25.889 14.348 31.622 5.698 5.733 9.866 13.793 6.067 25.282-3.799 11.488-12.41 28.93-36.839 21.708-2.9-2.144-5.261-4.953-7.17-8.193l-7.496.196c4.586 20.191 8.987 39.315 12.051 52.629l.001.002.007.033c1.515 6.584 2.703 11.744 3.423 14.905 5.257 22.856 10.921 61.312 4.724 64.993-3.494 2.075-21.736 5.78-40.487 9.589h-.001c-14.507 2.947-29.317 5.956-37.837 8.318-9.104-8.639-11.407-32.139-11.922-47.077-1.779 10.18-4.9 20.562-9.899 29.266-11.378 19.724-64.897 14.088-72.763 12.708-6.877-1.207-5.785-52.551-5.136-83.098.093-4.391.177-8.352.228-11.673.128-8.488 2.71-26.152 6.343-46.636l-2.278.06c-.428 2.063-.87 3.916-1.321 5.448-3.29 11.18-9.06 12.645-17.067 14.676l-.358.091c-7.415 1.702-28.381-25.13-30.534-27.965-2.152-2.834-3.077-11.819-1.035-19.839 2.041-8.019 23.413-26.771 23.413-26.771.049.089.1.178.155.268.52-1.895 2.18-7.407 3.701-6.482.295.174.763.534 1.36 1.024.796-2.59 1.717-6.45 1.348-9.56-.12-1.002-.424-2.359-.78-3.943-1.481-6.603-3.844-17.133 2.702-22.169 4.138-3.165 8.952-5.429 12.97-6.736.097-.25.192-.495.287-.734l-.331-12.638 7.72-.202c3.73-4.619 7.65-7.673 10.634-9.997 1.203-.936 2.293-1.451 3.251-1.697.021-.199.111-.39.281-.575 5.652-6.213 14.063-10.03 21.517-12.343l-.012-.076-.03-.19c-1.016-6.607 10.174-4.075 14.435-2.884.923-.12 1.541-.183 1.778-.205.11-.619.186-1.004.186-1.004l.556.009-1.227-6.298c-3.526-.522-6.58-1.324-8.905-2.502-10.203-5.212-10.601-11.829-10.66-14.905-.09-2.576 2.215-18.061 3.7-21.795.671-4.457 1.171-8.903 1.114-12.929-.087-6.216-.131-11.543-.154-15.474-2.474-1.751-2.351-4.163-1.615-5.681l.497-.513c-2.985-.013-5.408-.116-6.874-.323-6.275-.887-4.522-3.103-.897-5.853 2.11-1.601 4.97-1.817 6.99-1.718-.23-3.367-.191-11.078 4.096-17.105l.249-.35c5.728-8.058 16.972-23.876 37.745-23.064 21.08.823 27.443 16.468 28.692 20.611 1.038 3.442 1.932 14.171 2.205 17.706z"/></mask><path d="M181.247 47.38l2.822-1.019-2.822 1.019zm-10.234-2.696l-2.991.23.215 2.787 2.795-.017-.019-3zm6.63 6.69l-.891-2.866.891 2.865zm-3.2 1.057l1.022 2.82-1.022-2.82zm-2.13.428l-.324-2.982-5.647.614 3.691 4.318 2.28-1.95zm.188.22l-2.278 1.95v.001l2.278-1.951zm-1.246 5.307l-.183-2.995h-.005l.188 2.995zm-.124.007l-.188-2.994-2.978.187.171 2.979 2.995-.172zm1.977 21.827l-2.94.597 2.94-.597zm1.261 5.218l-2.89.806.349 1.252 1.153.602 1.388-2.66zm2.987 6.356l-2.976.38.047.367.135.345 2.794-1.092zm1.275 12.783l-2.966-.452 2.966.452zm-14.668 21.828l-1.092-2.795-1.806.706-.099 1.937 2.997.152zm-.192 3.774l-2.996-.152-.209 4.13 3.991-1.083-.786-2.895zm3.808-1.033l2.139-2.104-1.231-1.251-1.693.459.785 2.896zm5.846 5.98l-2.154 2.089 4.525 4.664.615-6.469-2.986-.284zm0-.005l2.047-2.193-4.457-4.16-.577 6.069 2.987.284zm17.084 9.787l.378-2.976-.396-.051-.394.055.412 2.972zm1.487 2.372l-2.494-1.666-.011.016-.01.016 2.515 1.634zm0 .001l2.494 1.666.011-.016.011-.016-2.516-1.634zm-.306.462l-2.516-1.634-1.984 3.057 3.381 1.36 1.119-2.783zm14.521 4.088l-.34 2.98.42.048.416-.07-.496-2.958zm7.557 2.788l-1.947 2.282.004.004 1.943-2.286zm5.43 5.144l-2.166 2.076.918.958 1.327-.035-.079-2.999zm10.47-.274l2.999-.078-.079-2.999-2.999.078.079 2.999zm.231 8.841l-2.999.078.079 2.995 2.994-.074-.074-2.999zm5.354.525l-1.861 2.353 1.861-2.353zm5.952 18.664l2.97.423-2.97-.423zm-1.435 10.363l-2.973-.4-1.141 8.485 6.188-5.917-2.074-2.168zm2.493-.414l2.692-1.324-2.692 1.324zm.701 1.333l2.68-1.348-.021-.042-.022-.04-2.637 1.43zm0 .001l-2.68 1.348.021.041.022.041 2.637-1.43zm1.838 5.306l-3 .019.019 2.946 2.946.034.035-2.999zm1.065.629l-2.862.897.004.013.004.013 2.854-.923zm20.415 56.904l2.848.942-2.848-.942zm-36.839 21.708l-1.784 2.412.426.314.507.15.851-2.876zm-7.17-8.193l2.584-1.524-.897-1.522-1.766.047.079 2.999zm-7.496.196l-.079-2.999-3.657.096.81 3.567 2.926-.664zm12.051 52.629l-2.923.673.002.009 2.921-.682zm.001.002l2.923-.672-.002-.01-2.921.682zm.007.033l-2.923.672v.001l2.923-.673zm3.423 14.905l-2.925.666.001.006 2.924-.672zm4.724 64.993l1.532 2.579-1.532-2.579zm-40.487 9.589l-.597-2.94-.025.005-.025.006.647 2.929zm-.001 0l-.647-2.929-.128.028-.124.039.899 2.862zm0 0l.597 2.94.153-.031.149-.047-.899-2.862zm-37.837 8.318l-2.065 2.177 1.231 1.168 1.636-.454-.802-2.891zm-11.922-47.077l2.998-.104-5.954-.412 2.956.516zm-9.899 29.266l2.598 1.499.003-.005-2.601-1.494zm-72.763 12.708l-.518 2.955.518-2.955zm-5.136-83.098l-3-.064 3 .064zm.228-11.673l3 .045-3-.045zm6.343-46.636l2.954.524.642-3.619-3.674.096.078 2.999zm-2.278.06l-.079-2.999-2.377.062-.482 2.328 2.938.609zm-1.321 5.448l2.878.847-2.878-.847zm-17.067 14.676l-.738-2.907.738 2.907zm-.358.091l.671 2.924.034-.007.033-.009-.738-2.908zm-30.534-27.965l2.39-1.814-2.39 1.814zm-1.035-19.839l2.907.74-2.907-.74zm23.413-26.771l2.632-1.44-1.797-3.284-2.814 2.469 1.979 2.255zm.155.268l-2.56 1.563 3.618 5.93 1.836-6.701-2.894-.792zm3.701-6.482l-1.557 2.564.016.009.016.01 1.525-2.583zm1.36 1.024l-1.9 2.321 3.457 2.831 1.312-4.271-2.868-.881zm1.348-9.56l-2.98.354 2.98-.354zm-.78-3.943l2.928-.656-2.927.656zm2.702-22.169l-1.822-2.383-.007.005 1.83 2.378zm12.97-6.736l.928 2.853 1.36-.442.512-1.334-2.8-1.077zm.287-.734l2.79 1.103.225-.57-.016-.612-3 .079zm-.331-12.638l-.079-2.998-2.998.078.078 2.999 2.999-.079zm7.72-.202l.079 2.999 1.385-.036.87-1.078-2.334-1.885zm10.634-9.997l1.843 2.368-1.843-2.368zm3.251-1.697l.745 2.907 2.023-.519.216-2.077-2.984-.311zm.281-.575l2.212 2.027.007-.009-2.219-2.018zm21.517-12.343l.889 2.865 2.474-.767-.399-2.56-2.964.462zm-.012-.076l-2.965.458.001.004 2.964-.462zm-.03-.19l-2.964.456v.002l2.965-.458zm14.435-2.884l-.807 2.889.589.165.607-.079-.389-2.975zm1.778-.205l.281 2.987 2.276-.214.398-2.252-2.955-.521zm.186-1.004l.051-3-2.503-.043-.49 2.455 2.942.588zm.556.009l-.051 3 3.703.062-.708-3.635-2.944.573zm-1.227-6.298l2.945-.574-.406-2.083-2.1-.311-.439 2.968zm-8.905-2.502l-1.364 2.672.008.004 1.356-2.676zm-10.66-14.905l2.999-.058v-.024l-.002-.023-2.998.105zm3.7-21.795l2.788 1.108.127-.32.051-.342-2.966-.446zm1.114-12.929l-3 .042 3-.042zm-.154-15.474l3-.017-.009-1.54-1.257-.891-1.734 2.448zm-1.615-5.681l-2.153-2.089-.336.346-.21.433 2.699 1.31zm.497-.513l2.154 2.089 4.907-5.059-7.048-.03-.013 3zm-6.874-.323l.42-2.97-.42 2.97zm-.897-5.853l-1.814-2.39 1.814 2.39zm6.99-1.718l-.148 2.996 3.37.166-.23-3.367-2.993.205zm4.096-17.105l2.444 1.74.001-.001-2.445-1.738zm.249-.35l2.445 1.738-2.445-1.738zm37.745-23.064l-.117 2.997.117-2.997zm28.692 20.611l-2.872.866 2.872-.866zm15.261 19.383c-.603-1.669-1.966-2.608-3.023-3.126-1.103-.54-2.36-.865-3.513-1.075-2.326-.422-4.885-.487-6.538-.476l.037 6c1.535-.01 3.654.057 5.428.38.897.162 1.546.363 1.946.559.446.219.183.227.019-.225l5.644-2.037zm-5.535 7.877c.783-.244 1.589-.493 2.274-.76.66-.258 1.505-.642 2.22-1.285a4.49 4.49 0 001.496-2.964c.099-1.057-.161-2.053-.455-2.868l-5.644 2.037c.172.476.104.498.125.273.013-.143.058-.335.162-.537.103-.199.223-.33.3-.4.106-.095.08-.028-.388.155-.443.173-1.021.355-1.872.62l1.782 5.729zm-3.069 1.014a67.191 67.191 0 013.069-1.014l-1.782-5.73c-.911.284-2.039.635-3.331 1.103l2.044 5.64zm-2.827.59c.97-.106 1.964-.278 2.827-.59l-2.044-5.641c-.205.074-.652.18-1.432.266l.649 5.964zm2.142-4.715l-.186-.217-4.561 3.899.19.22 4.557-3.902zm-3.343 10.253c1.481-.09 2.941-.323 4.097-.954.627-.343 1.284-.868 1.74-1.66a4.072 4.072 0 00.519-2.43c-.123-1.316-.831-2.42-1.289-3.07-.519-.736-1.175-1.497-1.724-2.139l-4.557 3.903c.292.341.553.647.793.939.24.292.433.54.584.755.155.22.233.358.267.427.038.08-.026-.021-.048-.258a1.8 1.8 0 01.028-.509c.04-.21.117-.42.229-.614.229-.397.508-.57.581-.61.06-.032-.005.015-.298.077-.283.06-.699.118-1.287.154l.365 5.989zm-.118.007l.123-.007-.375-5.989-.124.008.376 5.988zm4.729 18.236c-.851-4.191-1.507-14.16-1.922-21.401l-5.99.343c.402 7.033 1.074 17.533 2.032 22.252l5.88-1.194zm1.211 5.01a72.751 72.751 0 01-1.211-5.01l-5.88 1.194c.399 1.965.86 3.806 1.311 5.427l5.78-1.61zm.097 7.161c2.976-.38 2.976-.381 2.976-.382v-.001l-.001-.003-.001-.008-.003-.021-.008-.064-.032-.211a20.85 20.85 0 00-.691-2.938c-.267-.843-.651-1.836-1.2-2.758-.532-.891-1.365-1.964-2.638-2.629l-2.777 5.319c-.109-.057.014-.031.261.383.229.384.446.904.635 1.498a14.426 14.426 0 01.504 2.2v-.001-.001-.001c0-.001-.001-.002 2.975-.382zm4.24 13.235c.589-3.863.226-7.42-.265-9.978a30.538 30.538 0 00-.758-3.093 21.904 21.904 0 00-.416-1.24l-.004-.009-.001-.004-.001-.001c0-.001 0-.002-2.795 1.09-2.794 1.092-2.794 1.091-2.795 1.09v-.001l-.001-.002-.001-.003c0-.001 0 0 0 0l.01.027.053.147c.048.139.122.357.209.646.176.579.406 1.432.608 2.484.407 2.121.681 4.956.226 7.943l5.931.904zm-16.542 24.17c12.629-4.933 15.656-18.354 16.542-24.17l-5.931-.904c-.877 5.757-3.542 15.871-12.794 19.485l2.183 5.589zm1.714 1.132l.191-3.775-5.993-.303-.191 3.774 5.993.304zm.026-4.081l-3.808 1.034 1.571 5.79 3.808-1.033-1.571-5.791zm8.784 6.787a1306.116 1306.116 0 00-3.936-4.035l-1.385-1.412-.397-.403a16.847 16.847 0 01-.105-.108l-.027-.028a.022.022 0 01-.007-.007l-.002-.001-.001-.001-2.139 2.104-2.139 2.103h.001v.001l.002.001.006.007.027.028.105.106.395.402 1.379 1.407c1.126 1.149 2.583 2.64 3.916 4.014l4.307-4.178zm-5.14 1.8v.005l5.973.568.001-.005-5.974-.568zm19.659 7.099c-.539.075-1.658-.115-3.404-.936-1.639-.771-3.429-1.904-5.133-3.125a68.284 68.284 0 01-4.331-3.399 68.56 68.56 0 01-1.304-1.136l-.345-.313-.086-.078a.237.237 0 00-.019-.018l-.003-.004h-.001.001l-2.047 2.194c-2.047 2.193-2.047 2.193-2.046 2.194l.001.001.003.002.008.008.03.028.107.098c.092.084.224.205.394.357.338.302.823.73 1.422 1.239a74.243 74.243 0 004.721 3.704c1.85 1.325 3.972 2.688 6.074 3.677 1.996.939 4.449 1.774 6.782 1.45l-.824-5.943zm4.394 7.01c.198-.296.54-.797.778-1.287.202-.416.744-1.628.214-3.032-.544-1.442-1.797-2.006-2.387-2.22-.671-.244-1.449-.379-2.209-.475l-.756 5.952c.305.039.531.076.695.109.17.035.23.057.221.053a1.82 1.82 0 01-.397-.232 2.437 2.437 0 01-.78-1.068 2.44 2.44 0 01-.127-1.282c.047-.263.125-.42.127-.423.006-.012-.011.024-.083.139-.072.113-.159.244-.285.434l4.989 3.332zm.021-.031v-.001l-5.031-3.268h-.001l5.032 3.269zm-.305.461c.093-.144.186-.282.283-.429l-4.989-3.333c-.096.144-.209.313-.327.495l5.033 3.267zm12.343-.526c-4.24-.483-9.155-2.047-13.74-3.891l-2.239 5.567c4.775 1.92 10.271 3.713 15.3 4.285l.679-5.961zm9.166 3.488c-3.338-2.851-6.721-4.017-10.002-3.466l.993 5.917c1.028-.172 2.681.035 5.114 2.112l3.895-4.563zm5.649 5.35a76.388 76.388 0 00-5.654-5.354l-3.886 4.571a70.32 70.32 0 015.207 4.934l4.333-4.151zm8.224-1.198l-10.469.274.157 5.998 10.469-.274-.157-5.998zm3.309 11.761l-.231-8.84-5.998.157.231 8.84 5.998-.157zm4.215-1.75c-.686-.543-1.476-.753-1.887-.849a11.848 11.848 0 00-1.615-.241c-1.097-.097-2.418-.114-3.786-.08l.148 5.998c1.255-.031 2.327-.011 3.108.059.395.035.649.076.784.108.066.015.059.018.003-.004-.04-.016-.236-.094-.476-.284l3.721-4.707zm7.062 21.441c.611-4.284-.761-9.269-2.24-13.039a42.47 42.47 0 00-2.385-5.096 22.081 22.081 0 00-1.126-1.825c-.303-.435-.758-1.044-1.311-1.481l-3.721 4.707c-.192-.152-.16-.182.11.205.215.308.492.752.81 1.322a36.353 36.353 0 012.038 4.359c1.385 3.533 2.269 7.309 1.885 10.002l5.94.846zm-1.431 10.339c.298-2.216.812-5.988 1.431-10.339l-5.94-.846a1427.72 1427.72 0 00-1.438 10.386l5.947.799zm2.211-2.137c-.308-.627-.844-1.373-1.753-1.847a3.81 3.81 0 00-2.664-.312c-1.268.303-2.266 1.179-2.841 1.728l4.147 4.337c.199-.19.328-.291.392-.335.081-.055-.03.041-.305.106-.326.078-.901.11-1.505-.205-.563-.294-.798-.707-.855-.824l5.384-2.648zm.646 1.227a34.927 34.927 0 01-.646-1.227l-5.384 2.648c.246.501.516.998.756 1.439l5.274-2.86zm.043.083v-.001l-5.36 2.696v.001l5.36-2.696zm2.158 6.635c-.018-2.818-1.385-5.214-2.201-6.718l-5.274 2.861c.954 1.758 1.469 2.832 1.475 3.895l6-.038zm.928-.25a3.8 3.8 0 00-1.74-2.175c-.774-.445-1.566-.549-2.153-.556l-.07 5.999c-.026 0-.353-.003-.768-.242a2.196 2.196 0 01-.994-1.231l5.725-1.795zm13.613 30.405c-1.085-1.092-2.433-3.163-3.91-6.005-1.44-2.773-2.882-6.037-4.212-9.309-2.657-6.54-4.794-12.936-5.5-15.116l-5.708 1.846c.727 2.25 2.916 8.799 5.65 15.529 1.366 3.363 2.887 6.815 4.446 9.817 1.524 2.931 3.215 5.693 4.978 7.467l4.256-4.229zm6.787 28.339c2.08-6.289 2.023-11.815.548-16.622-1.464-4.767-4.257-8.62-7.335-11.717l-4.256 4.229c2.62 2.637 4.759 5.68 5.855 9.249 1.083 3.528 1.211 7.777-.509 12.977l5.697 1.884zm-40.538 23.642c13.067 3.864 22.416 1.2 28.965-4.441 6.324-5.447 9.634-13.339 11.573-19.201l-5.697-1.884c-1.86 5.626-4.754 12.199-9.792 16.539-4.814 4.147-11.985 6.593-23.348 3.234l-1.701 5.753zm-8.904-9.546c2.072 3.515 4.686 6.653 7.971 9.082l3.567-4.825c-2.515-1.859-4.621-4.339-6.369-7.304l-5.169 3.047zm-4.833 1.672l7.496-.196-.157-5.998-7.496.196.157 5.998zm14.897 48.957c-3.064-13.314-7.465-32.434-12.05-52.621l-5.851 1.329c4.587 20.196 8.99 39.324 12.054 52.638l5.847-1.346zm-.002-.007v-.001l-5.843 1.363v.001l5.843-1.363zm.01.043l-.008-.033-5.847 1.344.008.033 5.847-1.344zm3.424 14.911c-.721-3.166-1.909-8.33-3.424-14.911l-5.847 1.345c1.515 6.586 2.702 11.741 3.421 14.898l5.85-1.332zm3.331 68.238c1.786-1.061 2.654-3.008 3.137-4.641.521-1.763.806-3.914.942-6.259.271-4.713-.038-10.761-.693-17.285-1.313-13.079-4.067-28.533-6.718-40.06l-5.848 1.345c2.606 11.33 5.312 26.532 6.596 39.315.644 6.407.917 12.092.673 16.339-.124 2.135-.371 3.771-.706 4.905-.373 1.263-.683 1.323-.447 1.182l3.064 5.159zm-41.421 9.95c9.364-1.902 18.649-3.788 26.029-5.459 3.689-.835 6.94-1.625 9.506-2.343 2.434-.682 4.617-1.394 5.886-2.148l-3.064-5.159c-.477.284-1.886.813-4.44 1.529-2.423.679-5.56 1.442-9.213 2.269-7.301 1.653-16.513 3.524-25.899 5.431l1.195 5.88zm.048-.01l.001-.001-1.294-5.858h-.001l1.294 5.859zm.252-.068l-1.798-5.724h-.001l1.799 5.724zm-37.934 8.347c8.391-2.327 23.07-5.311 37.632-8.269l-1.195-5.88c-14.451 2.936-29.393 5.969-38.041 8.368l1.604 5.781zm-15.723-49.865c.261 7.544.974 17.338 2.798 26.39 1.789 8.873 4.773 17.746 10.058 22.761l4.13-4.353c-3.819-3.624-6.538-10.821-8.306-19.593-1.732-8.592-2.428-18.017-2.683-25.412l-5.997.207zm-4.299 30.657c5.228-9.103 8.437-19.85 10.253-30.244l-5.911-1.032c-1.741 9.965-4.775 19.983-9.545 28.288l5.203 2.988zm-75.882 14.169c4.132.725 19.71 2.498 35.75 1.6 8.023-.449 16.317-1.574 23.408-3.913 7.031-2.32 13.339-5.987 16.721-11.851l-5.197-2.998c-2.306 3.999-6.955 7.023-13.404 9.151-6.389 2.108-14.1 3.186-21.863 3.621-15.53.869-30.644-.865-34.378-1.52l-1.037 5.91zm-7.617-86.117c-.325 15.255-.762 35.809-.254 52.706.254 8.432.745 16.07 1.63 21.722.44 2.805 1 5.288 1.75 7.177.373.942.851 1.884 1.493 2.665.646.786 1.627 1.606 2.998 1.847l1.037-5.91c.511.09.694.367.601.254-.097-.119-.3-.434-.553-1.07-.504-1.269-.982-3.235-1.398-5.89-.825-5.269-1.309-12.602-1.56-20.976-.504-16.713-.07-37.105.254-52.397l-5.998-.128zm.227-11.654c-.05 3.309-.134 7.26-.227 11.654l5.998.128c.094-4.388.178-8.36.228-11.692l-5.999-.09zm6.39-47.115c-3.624 20.43-6.258 38.341-6.39 47.115l6 .09c.123-8.201 2.654-25.618 6.297-46.157l-5.907-1.048zm.753 3.583l2.279-.06-.157-5.998-2.279.06.157 5.998zm1.479 3.296c.482-1.639.944-3.579 1.38-5.687l-5.875-1.217c-.418 2.018-.842 3.785-1.261 5.21l5.756 1.694zM43.58 302.403c3.877-.984 7.903-1.967 11.296-4.365 3.554-2.512 6.133-6.332 7.91-12.372l-5.755-1.694c-1.513 5.14-3.463 7.643-5.618 9.166-2.317 1.637-5.18 2.402-9.309 3.45l1.476 5.815zm-.358.091l.358-.091-1.476-5.815-.358.091 1.476 5.815zm-33.66-29.058c1.107 1.459 6.958 8.967 13.496 15.923 3.259 3.468 6.774 6.89 10.01 9.359 1.614 1.231 3.256 2.301 4.837 3.009 1.514.678 3.383 1.212 5.25.783l-1.342-5.848c.014-.003-.395.064-1.456-.411-.992-.444-2.221-1.214-3.65-2.303-2.847-2.172-6.099-5.316-9.277-8.698-6.337-6.742-12.046-14.068-13.09-15.443l-4.779 3.629zm-1.555-22.394c-1.107 4.349-1.405 8.921-1.14 12.808.132 1.947.41 3.778.824 5.363.4 1.529.987 3.059 1.87 4.223l4.779-3.629c-.193-.254-.53-.91-.844-2.113-.3-1.148-.53-2.596-.643-4.251-.226-3.32.035-7.25.969-10.921l-5.815-1.48zm26.321-26.031l-1.98-2.255v.001a.483.483 0 01-.017.015l-.049.043-.185.164a229.167 229.167 0 00-3.177 2.885 232.46 232.46 0 00-7.672 7.421c-2.834 2.881-5.779 6.062-8.163 9.066-2.289 2.882-4.393 6.002-5.078 8.691l5.815 1.48c.336-1.32 1.669-3.552 3.962-6.441 2.197-2.767 4.977-5.778 7.741-8.588a225.852 225.852 0 017.47-7.225 228.187 228.187 0 013.083-2.8l.173-.153.043-.038a.348.348 0 00.01-.009l.002-.002-1.978-2.255zm2.716-1.295a3.175 3.175 0 01-.084-.145l-5.264 2.88c.073.132.148.262.226.391l5.122-3.126zm2.697-7.484a3.65 3.65 0 00-3.106-.337c-.867.298-1.466.852-1.82 1.242-.71.783-1.233 1.806-1.596 2.619-.769 1.72-1.362 3.756-1.63 4.73l5.788 1.585c.252-.92.748-2.587 1.32-3.866a8.04 8.04 0 01.379-.756c.119-.206.185-.283.183-.28-.005.005-.053.057-.148.128-.094.07-.27.184-.527.272a2.352 2.352 0 01-1.957-.208l3.114-5.129zm1.704 1.268c-.566-.464-1.209-.976-1.736-1.287l-3.05 5.167c-.003-.002.079.049.28.202.186.14.42.326.706.56l3.8-4.642zm-3.532-6.885c.29 2.438-.453 5.777-1.236 8.325l5.736 1.762c.808-2.631 1.907-7.014 1.458-10.795l-5.958.708zm-.727-3.64c.37 1.649.63 2.828.727 3.64l5.958-.708c-.142-1.191-.49-2.727-.831-4.245l-5.854 1.313zm3.799-25.204c-4.328 3.329-5.485 8.343-5.532 12.844-.046 4.493 1.004 9.115 1.733 12.36l5.854-1.313c-.754-3.359-1.625-7.303-1.587-10.985.038-3.674.971-6.443 3.19-8.15l-3.658-4.756zm13.872-7.211c-4.28 1.392-9.41 3.799-13.865 7.206l3.645 4.766c3.822-2.923 8.318-5.044 12.075-6.266l-1.855-5.706zm-1.576 1.016a74.63 74.63 0 00-.296.76l5.6 2.154c.092-.242.184-.478.276-.708l-5.58-2.206zm-.54-11.456l.33 12.637 5.999-.157-.331-12.637-5.998.157zm10.64-3.28l-7.72.203.157 5.997 7.72-.202-.156-5.998zm8.87-9.365c-2.993 2.33-7.157 5.566-11.125 10.48l4.668 3.769c3.494-4.326 7.168-7.198 10.143-9.514l-3.686-4.735zm4.35-2.236c-1.415.363-2.872 1.085-4.35 2.236l3.686 4.735c.928-.723 1.651-1.03 2.153-1.158l-1.49-5.813zm-1.186.303a3.994 3.994 0 00-1.053 2.293l5.967.621a2.015 2.015 0 01-.491 1.141l-4.423-4.055zm22.839-13.18c-7.644 2.372-16.661 6.39-22.847 13.189l4.438 4.037c5.119-5.626 12.924-9.242 20.187-11.496l-1.778-5.73zm-2.087 3.251l.012.076 5.928-.924-.012-.076-5.928.924zm-.03-.194l.03.19 5.929-.916-.029-.19-5.93.916zm18.207-6.231c-2.161-.604-6.38-1.643-10.046-1.593-1.776.025-3.955.302-5.676 1.494a5.855 5.855 0 00-2.165 2.72c-.448 1.158-.508 2.391-.32 3.608l5.93-.913c-.067-.434 0-.567-.014-.53-.023.06-.065.082-.017.049.224-.155.918-.409 2.345-.428 2.741-.038 6.248.784 8.348 1.371l1.615-5.778zm.689-.303a57.71 57.71 0 00-1.885.217l.777 5.95a46.396 46.396 0 011.67-.193l-.562-5.974zm.467 1.983l-2.942-.588v.003l-.001.005a56.714 56.714 0 00-.197 1.063l5.909 1.042a52.227 52.227 0 01.171-.927l.002-.01v-.002h.001-.001v.001l-2.942-.587zm.607-2.991l-.556-.009-.102 5.999.556.01.102-6zm-4.223-2.725l1.227 6.298 5.889-1.146-1.226-6.299-5.89 1.147zm-7.316-.399c2.736 1.386 6.148 2.25 9.822 2.793l.878-5.935c-3.379-.5-6.073-1.24-7.988-2.21l-2.712 5.352zM92.265 111.23c.032 1.675.157 4.656 1.858 7.965 1.713 3.335 4.868 6.709 10.438 9.554l2.729-5.344c-4.633-2.366-6.78-4.907-7.83-6.953-1.065-2.071-1.17-3.937-1.196-5.338l-6 .116zm3.912-22.962c-.478 1.203-.944 3.106-1.366 5.11-.436 2.078-.869 4.493-1.249 6.853-.38 2.362-.712 4.696-.945 6.613-.22 1.816-.383 3.511-.351 4.432l5.996-.209c-.013-.366.078-1.574.312-3.502.221-1.827.541-4.081.912-6.379.37-2.3.786-4.617 1.197-6.574.427-2.03.805-3.462 1.07-4.127l-5.576-2.217zm.903-11.777c.053 3.776-.418 8.03-1.082 12.439l5.933.893c.679-4.504 1.209-9.143 1.148-13.417l-6 .085zm-.155-15.5c.023 3.938.068 9.273.155 15.5l5.999-.085c-.087-6.207-.131-11.525-.154-15.449l-6 .035zm-1.314-7.008c-.595 1.226-.97 2.858-.647 4.607.337 1.828 1.393 3.533 3.228 4.833l3.467-4.897c-.639-.453-.759-.829-.795-1.024-.051-.274.004-.608.145-.9l-5.398-2.619zm1.043-1.292l-.497.513 4.306 4.178.498-.513-4.307-4.178zm-5.14 4.736c1.685.239 4.286.34 7.28.353l.026-6c-2.976-.013-5.22-.117-6.467-.294l-.84 5.941zm-2.291-11.213c-.941.714-1.888 1.487-2.637 2.278-.648.684-1.633 1.869-1.797 3.421a4.079 4.079 0 00.611 2.63c.483.764 1.145 1.275 1.755 1.621 1.165.66 2.689 1.027 4.358 1.263l.84-5.94a13.005 13.005 0 01-1.609-.315c-.397-.11-.579-.199-.627-.226-.052-.03.152.071.355.391a1.911 1.911 0 01.283 1.208c-.034.327-.144.486-.117.44a2.53 2.53 0 01.305-.368c.192-.203.448-.443.777-.723.327-.278.704-.578 1.129-.9l-3.627-4.78zm8.95-2.325c-2.209-.108-5.97.065-8.95 2.325l3.626 4.78c1.243-.943 3.198-1.202 5.029-1.112l.294-5.992zm2.845 2.792c-.219-3.211-.109-10.02 3.548-15.16l-4.889-3.479c-4.918 6.913-4.886 15.526-4.645 19.048l5.986-.409zm3.549-15.161l.249-.35-4.89-3.478-.25.351 4.891 3.477zm.249-.351c5.812-8.176 16.195-22.547 35.183-21.805l.235-5.995c-22.559-.881-34.664 16.383-40.308 24.324l4.89 3.476zm35.183-21.805c19.168.75 24.834 14.821 25.937 18.48l5.745-1.732c-1.395-4.627-8.457-21.845-31.447-22.743l-.235 5.995zm25.937 18.48c.423 1.404.884 4.65 1.279 8.277.383 3.509.672 7.04.807 8.794l5.982-.462c-.137-1.78-.432-5.382-.824-8.982-.38-3.482-.885-7.32-1.499-9.358l-5.745 1.731z" fill="#fff" mask="url(#a)"/></svg>