<svg width="275" height="127" viewBox="0 0 275 127" fill="none" xmlns="http://www.w3.org/2000/svg">
<path d="M116.689 138.096L114.468 126.69L164.048 124.823L163.625 133.165L116.689 138.096Z" fill="#FACABC"/>
<path d="M98.2113 48.5796C98.2113 48.5796 96.4862 37.7146 102.135 29.7752C107.783 21.8357 119.05 5.53672 140.129 6.36021C161.209 7.18369 167.572 22.8289 168.821 26.972C170.07 31.1152 171.112 45.8193 171.112 45.8193L138.408 49.5025L98.2113 48.5796Z" fill="#0B6AC2"/>
<path d="M99.9037 53.7104C99.9037 53.7104 99.8924 62.9936 100.081 76.4418C100.272 89.932 94.2047 108.15 96.4083 115.653C98.6119 123.155 117.503 128.163 117.503 128.163L165.04 121.423L176.467 91.8651C176.467 91.8651 174.43 86.7152 173.109 80.2136C171.789 73.712 170.982 54.9008 170.732 51.3718C170.482 47.8428 99.9037 53.7104 99.9037 53.7104Z" fill="#FACABC"/>
<path d="M148.22 66.6256C148.22 66.6256 151.133 67.2917 152.471 65.9442C153.809 64.5968 156.574 63.1623 158.536 63.8864C160.498 64.6106 162.52 66.1749 162.639 67.8554C162.758 69.5359 157.823 74.0563 152.353 71.0147C149.409 69.9285 149.677 73.7095 145.723 71.8411C141.768 69.9728 142.452 66.1337 148.22 66.6256Z" fill="#1D1D1D"/>
<path d="M121.199 69.5405C121.199 69.5405 127.919 69.9744 128.097 72.4951C128.276 75.0158 126.076 77.6817 123.667 77.4067C121.259 77.1317 119.297 76.4076 117.424 76.9438C115.551 77.48 109.07 80.407 108.832 77.0461C108.594 73.6852 109.01 72.8159 110.407 72.3087C111.804 71.8015 116.175 72.8006 118.018 71.8443C119.861 70.888 119.772 69.6276 121.199 69.5405Z" fill="#1D1D1D"/>
<path d="M110.61 84.3805C110.61 84.3805 112.851 77.7088 123.601 81.7206C120.588 88.4395 112.991 85.1687 110.61 84.3805Z" fill="#FFF1F0"/>
<path d="M114.368 80.8665C114.368 80.8665 111.568 83.5402 114.937 85.5633C117.249 86.5536 119.107 85.5831 119.107 85.5831C119.107 85.5831 120.423 80.8399 118.429 80.4473C116.49 80.2913 114.368 80.8665 114.368 80.8665Z" fill="#2C1E25"/>
<path d="M147.346 79.6846C147.346 79.6846 151.622 73.8064 160.108 77.6577C158.168 83.3933 149.469 82.0516 147.346 79.6846Z" fill="#FFF1F0"/>
<path d="M151.244 76.9528C151.244 76.9528 149.151 79.2957 151.835 81.5175C153.787 82.0459 155.845 81.3751 155.845 81.3751C155.845 81.3751 157.153 77.6828 155.456 76.4232C153.366 76.1077 151.244 76.9528 151.244 76.9528Z" fill="#2C1E25"/>
<path d="M135.3 68.9777C135.3 68.9777 132.898 77.5629 131.477 82.4597C130.056 87.3564 128.02 93.683 131.193 95.3038C134.365 96.9245 137.549 96.013 138.518 94.8568C139.44 93.7035 139.547 87.79 139.547 87.79C139.547 87.79 138.08 72.4789 137.485 71.5025C136.891 70.5262 136.233 67.9925 136.233 67.9925L135.3 68.9777Z" fill="#F0BBAC"/>
<path d="M177.365 91.7915C177.365 91.7915 175.996 81.0847 170.204 86.9213C156.018 93.6405 148.626 95.1828 148.626 95.1828C148.626 95.1828 133.489 100.077 122.967 96.0816C112.492 92.087 99.723 88.7092 99.723 88.7092C98.4755 86.6028 95.1659 108.093 95.2732 111.169C95.3329 114.245 95.7314 120.863 105.934 126.075C116.138 131.244 140.363 129.174 157.081 127.916C173.799 126.657 177.596 111.424 178.64 104.574C179.683 97.7245 177.365 91.7915 177.365 91.7915ZM137.429 112.533C133.922 111.763 130.953 114.034 128.319 112.729C125.685 111.425 122.168 109.265 129.705 107.317C129.705 107.317 136.705 107.593 141.831 106.661C146.956 105.729 149.761 107.794 149.659 109.773C149.51 111.75 145.89 113.421 137.429 112.533Z" fill="#1D1D1D"/>
<path d="M109.781 63.1469C121.97 63.2132 141.04 59.552 149.052 57.7131C151.383 61.5704 164.292 58.8083 171.26 58.3831C178.228 57.958 173.243 54.4145 170.728 50.8722C168.716 48.0383 156.566 48.8505 150.742 49.6109L100.873 52.6537L98.3152 55.2905C97.0579 57.8817 97.5908 63.0806 109.781 63.1469Z" fill="#1D1D1D"/>
<path d="M100.503 47.1836C100.503 47.1836 94.6737 45.8477 91.0487 48.5979C87.4237 51.3481 85.6715 53.5634 91.9462 54.4505C98.2209 55.3376 122.037 54.3223 132.412 52.4305C142.787 50.5387 168.868 54.4497 174.456 52.4249C180.044 50.4 182.453 50.6766 181.26 47.3733C180.068 44.0699 169.126 44.7302 169.126 44.7302C169.126 44.7302 139.186 46.9588 132.496 46.9406C125.806 46.9224 100.503 47.1836 100.503 47.1836Z" fill="#307CC1"/>
<mask id="path-14-outside-1" maskUnits="userSpaceOnUse" x="0.0838689" y="-0.986557" width="276.108" height="434.787" fill="black">
<rect fill="white" x="0.0838689" y="-0.986557" width="276.108" height="434.787"/>
<path fill-rule="evenodd" clip-rule="evenodd" d="M171.013 44.6836C174.202 44.6637 180.369 44.9466 181.247 47.3796C182.179 49.9619 180.911 50.3565 177.643 51.3731C176.731 51.6569 175.662 51.9892 174.443 52.4312C173.909 52.6245 173.189 52.7637 172.313 52.8591C172.376 52.9325 172.439 53.0057 172.501 53.0786C174.805 55.7683 176.759 58.0497 171.255 58.3856L171.131 58.3933C171.54 65.5306 172.203 75.765 173.108 80.2199C173.491 82.1037 173.933 83.8739 174.369 85.4384C176.699 86.6548 177.356 91.794 177.356 91.794C177.356 91.794 179.674 97.7269 178.631 104.577C177.749 110.363 174.903 122.131 163.963 126.405L163.771 130.179L167.579 129.146C167.579 129.146 170.749 132.368 173.425 135.126L173.425 135.121C173.425 135.121 184.764 145.705 190.509 144.908C193.341 145.267 192.962 145.834 191.996 147.28L191.996 147.281C191.899 147.426 191.796 147.579 191.69 147.743C196.37 149.625 201.576 151.303 206.211 151.831C208.365 151.469 210.883 152.156 213.768 154.619C215.582 156.161 217.407 157.893 219.198 159.763L229.668 159.489L229.899 168.33C232.521 168.265 234.685 168.406 235.253 168.855C236.695 169.995 242.199 180.543 241.205 187.519C240.584 191.88 240.069 195.66 239.77 197.882C240.854 196.845 241.761 196.447 242.263 197.468C242.478 197.906 242.719 198.349 242.964 198.801L242.964 198.802C243.849 200.432 244.79 202.168 244.802 204.108C245.363 204.114 245.733 204.31 245.867 204.737C247.3 209.168 254.518 230.626 260.215 236.359C265.913 242.092 270.081 250.152 266.282 261.641C262.483 273.129 253.872 290.571 229.443 283.349C226.543 281.205 224.182 278.396 222.273 275.156L214.777 275.352C219.363 295.543 223.764 314.667 226.828 327.981L226.829 327.983L226.836 328.016C228.351 334.6 229.539 339.76 230.259 342.921C235.516 365.777 241.18 404.233 234.983 407.914C231.489 409.989 213.247 413.694 194.496 417.503L194.495 417.503L194.495 417.503C179.988 420.45 165.178 423.459 156.658 425.821C147.554 417.182 145.251 393.682 144.736 378.744C142.957 388.924 139.836 399.306 134.837 408.01C123.459 427.734 69.9403 422.098 62.0744 420.718C55.197 419.511 56.2886 368.167 56.938 337.62C57.0313 333.229 57.1155 329.268 57.1656 325.947C57.2937 317.459 59.8762 299.795 63.5094 279.311L61.2308 279.371C60.8035 281.434 60.3608 283.287 59.9099 284.819C56.6199 295.999 50.8495 297.464 42.8432 299.495L42.4851 299.586C35.0699 301.288 14.104 274.456 11.9515 271.621C9.79889 268.787 8.87417 259.802 10.9156 251.782C12.9571 243.763 34.329 225.011 34.329 225.011C34.3777 225.1 34.4295 225.189 34.4842 225.279C35.0032 223.384 36.6634 217.872 38.185 218.797C38.4805 218.971 38.9477 219.331 39.5459 219.821C40.3412 217.231 41.2622 213.371 40.8928 210.261C40.7738 209.259 40.4692 207.902 40.1138 206.318C38.632 199.715 36.2688 189.185 42.8151 184.149C46.9534 180.984 51.7666 178.72 55.7853 177.413C55.8816 177.163 55.9771 176.918 56.0717 176.679L55.7409 164.041L63.4611 163.839C67.1919 159.22 71.1111 156.166 74.095 153.842C75.2981 152.906 76.3882 152.391 77.3464 152.145C77.3671 151.946 77.4572 151.755 77.6273 151.57C83.2793 145.357 91.6904 141.54 99.144 139.227L99.1321 139.151L99.1028 138.961C98.0857 132.354 109.276 134.886 113.537 136.077C114.46 135.957 115.078 135.894 115.315 135.872C115.425 135.253 115.501 134.868 115.501 134.868L116.057 134.877L114.83 128.579C111.304 128.057 108.25 127.255 105.925 126.077C95.7224 120.865 95.3238 114.248 95.2641 111.172C95.1743 108.596 97.4799 93.111 98.9648 89.3766C99.6362 84.9197 100.136 80.4735 100.079 76.4481C99.9923 70.2317 99.9479 64.9052 99.9254 60.9742C97.4514 59.2227 97.5737 56.8105 98.31 55.2929L98.8074 54.7801C95.822 54.7675 93.399 54.664 91.9332 54.4568C85.6585 53.5697 87.4108 51.3544 91.0357 48.6042C93.1469 47.0026 96.0056 46.7868 98.0251 46.8859C97.7951 43.519 97.8345 35.8076 102.122 29.7815L102.371 29.4307C108.099 21.3727 119.343 5.55501 140.116 6.36655C161.196 7.19003 167.559 22.8352 168.808 26.9784C169.846 30.42 170.74 41.149 171.013 44.6836Z"/>
</mask>
<path d="M181.247 47.3796L184.069 46.361L184.069 46.361L181.247 47.3796ZM171.013 44.6836L168.022 44.9147L168.237 47.7009L171.032 47.6835L171.013 44.6836ZM177.643 51.3731L176.752 48.5085L176.752 48.5085L177.643 51.3731ZM174.443 52.4312L175.465 55.2517L175.465 55.2517L174.443 52.4312ZM172.313 52.8591L171.989 49.8767L166.342 50.4914L170.033 54.8085L172.313 52.8591ZM172.501 53.0786L170.223 55.0299L170.223 55.03L172.501 53.0786ZM171.255 58.3856L171.072 55.3911L171.067 55.3914L171.255 58.3856ZM171.131 58.3933L170.943 55.3992L167.965 55.5859L168.136 58.5648L171.131 58.3933ZM173.108 80.2199L170.168 80.817L170.168 80.817L173.108 80.2199ZM174.369 85.4384L171.479 86.2436L171.828 87.496L172.981 88.0977L174.369 85.4384ZM177.356 91.794L174.38 92.1744L174.427 92.5413L174.562 92.8857L177.356 91.794ZM178.631 104.577L175.665 104.125L175.665 104.125L178.631 104.577ZM163.963 126.405L162.871 123.61L161.065 124.316L160.966 126.253L163.963 126.405ZM163.771 130.179L160.775 130.027L160.566 134.157L164.557 133.074L163.771 130.179ZM167.579 129.146L169.718 127.042L168.487 125.791L166.794 126.25L167.579 129.146ZM173.425 135.126L171.271 137.215L175.796 141.879L176.411 135.41L173.425 135.126ZM173.425 135.121L175.472 132.928L171.015 128.768L170.438 134.837L173.425 135.121ZM190.509 144.908L190.887 141.932L190.491 141.881L190.097 141.936L190.509 144.908ZM191.996 147.28L189.502 145.614L189.491 145.63L189.481 145.646L191.996 147.28ZM191.996 147.281L194.49 148.947L194.501 148.931L194.512 148.915L191.996 147.281ZM191.69 147.743L189.174 146.109L187.19 149.166L190.571 150.526L191.69 147.743ZM206.211 151.831L205.871 154.811L206.291 154.859L206.707 154.789L206.211 151.831ZM213.768 154.619L211.821 156.901L211.825 156.905L213.768 154.619ZM219.198 159.763L217.032 161.839L217.95 162.797L219.277 162.762L219.198 159.763ZM229.668 159.489L232.667 159.411L232.588 156.412L229.589 156.49L229.668 159.489ZM229.899 168.33L226.9 168.408L226.979 171.403L229.973 171.329L229.899 168.33ZM235.253 168.855L233.392 171.208L233.392 171.208L235.253 168.855ZM241.205 187.519L244.175 187.942L244.175 187.942L241.205 187.519ZM239.77 197.882L236.797 197.482L235.656 205.967L241.844 200.05L239.77 197.882ZM242.263 197.468L244.955 196.144L244.955 196.144L242.263 197.468ZM242.964 198.801L245.644 197.453L245.623 197.411L245.601 197.371L242.964 198.801ZM242.964 198.802L240.284 200.15L240.305 200.191L240.327 200.232L242.964 198.802ZM244.802 204.108L241.802 204.127L241.821 207.073L244.767 207.107L244.802 204.108ZM245.867 204.737L243.005 205.634L243.009 205.647L243.013 205.66L245.867 204.737ZM266.282 261.641L269.13 262.583L269.13 262.583L266.282 261.641ZM229.443 283.349L227.659 285.761L228.085 286.075L228.592 286.225L229.443 283.349ZM222.273 275.156L224.857 273.632L223.96 272.11L222.194 272.157L222.273 275.156ZM214.777 275.352L214.698 272.353L211.041 272.449L211.851 276.016L214.777 275.352ZM226.828 327.981L223.905 328.654L223.907 328.663L226.828 327.981ZM226.829 327.983L229.752 327.311L229.75 327.301L226.829 327.983ZM226.836 328.016L223.913 328.688L223.913 328.689L226.836 328.016ZM230.259 342.921L227.334 343.587L227.335 343.593L230.259 342.921ZM234.983 407.914L236.515 410.493L236.515 410.493L234.983 407.914ZM194.496 417.503L193.899 414.563L193.874 414.568L193.849 414.574L194.496 417.503ZM194.495 417.503L193.848 414.574L193.72 414.602L193.596 414.641L194.495 417.503ZM194.495 417.503L195.092 420.443L195.245 420.412L195.394 420.365L194.495 417.503ZM156.658 425.821L154.593 427.998L155.824 429.166L157.46 428.712L156.658 425.821ZM144.736 378.744L147.734 378.64L141.78 378.228L144.736 378.744ZM134.837 408.01L137.435 409.509L137.438 409.504L134.837 408.01ZM62.0744 420.718L61.556 423.673L61.556 423.673L62.0744 420.718ZM56.938 337.62L53.9387 337.556L53.9387 337.556L56.938 337.62ZM57.1656 325.947L60.1653 325.992L60.1653 325.992L57.1656 325.947ZM63.5094 279.311L66.4633 279.835L67.1052 276.216L63.4309 276.312L63.5094 279.311ZM61.2308 279.371L61.1523 276.372L58.7754 276.434L58.2931 278.762L61.2308 279.371ZM59.9099 284.819L62.7879 285.666L62.7879 285.666L59.9099 284.819ZM42.8432 299.495L42.1053 296.588L42.105 296.588L42.8432 299.495ZM42.4851 299.586L43.156 302.51L43.1898 302.503L43.2233 302.494L42.4851 299.586ZM11.9515 271.621L14.3406 269.807L14.3406 269.807L11.9515 271.621ZM10.9156 251.782L13.8229 252.522L13.8229 252.522L10.9156 251.782ZM34.329 225.011L36.961 223.571L35.1643 220.287L32.3504 222.756L34.329 225.011ZM34.4842 225.279L31.9234 226.842L35.5421 232.772L37.3776 226.071L34.4842 225.279ZM38.185 218.797L36.6276 221.361L36.6438 221.37L36.66 221.38L38.185 218.797ZM39.5459 219.821L37.6455 222.142L41.1022 224.973L42.4138 220.702L39.5459 219.821ZM40.8928 210.261L37.9138 210.615L37.9138 210.615L40.8928 210.261ZM40.1138 206.318L43.041 205.662L43.041 205.662L40.1138 206.318ZM42.8151 184.149L40.9925 181.766L40.986 181.771L42.8151 184.149ZM55.7853 177.413L56.7132 180.266L58.0721 179.824L58.5852 178.49L55.7853 177.413ZM56.0717 176.679L58.8615 177.782L59.0867 177.212L59.0707 176.6L56.0717 176.679ZM55.7409 164.041L55.6624 161.043L52.6635 161.121L52.742 164.12L55.7409 164.041ZM63.4611 163.839L63.5396 166.838L64.9246 166.802L65.795 165.724L63.4611 163.839ZM74.095 153.842L75.938 156.21L75.938 156.21L74.095 153.842ZM77.3464 152.145L78.0909 155.052L80.1141 154.533L80.3303 152.456L77.3464 152.145ZM77.6273 151.57L79.8387 153.597L79.8463 153.588L77.6273 151.57ZM99.144 139.227L100.033 142.092L102.507 141.325L102.108 138.765L99.144 139.227ZM99.1321 139.151L96.1672 139.609L96.168 139.613L99.1321 139.151ZM99.1028 138.961L96.1377 139.417L96.1379 139.419L99.1028 138.961ZM113.537 136.077L112.73 138.966L113.319 139.131L113.926 139.052L113.537 136.077ZM115.315 135.872L115.596 138.859L117.872 138.645L118.27 136.393L115.315 135.872ZM115.501 134.868L115.552 131.868L113.049 131.825L112.559 134.28L115.501 134.868ZM116.057 134.877L116.006 137.877L119.709 137.939L119.001 134.304L116.057 134.877ZM114.83 128.579L117.775 128.005L117.369 125.922L115.269 125.611L114.83 128.579ZM105.925 126.077L104.561 128.749L104.569 128.753L105.925 126.077ZM95.2641 111.172L98.2636 111.114L98.2631 111.09L98.2623 111.067L95.2641 111.172ZM98.9648 89.3766L101.753 90.4851L101.88 90.1646L101.931 89.8235L98.9648 89.3766ZM100.079 76.4481L97.0796 76.4901L97.0796 76.4907L100.079 76.4481ZM99.9254 60.9742L102.925 60.957L102.916 59.4162L101.659 58.5258L99.9254 60.9742ZM98.31 55.2929L96.1566 53.2042L95.8212 53.5499L95.6109 53.9833L98.31 55.2929ZM98.8074 54.7801L100.961 56.8689L105.868 51.8101L98.8201 51.7802L98.8074 54.7801ZM91.9332 54.4568L92.3531 51.4864L92.3531 51.4864L91.9332 54.4568ZM91.0357 48.6042L89.2225 46.2142L89.2225 46.2142L91.0357 48.6042ZM98.0251 46.8859L97.878 49.8823L101.248 50.0477L101.018 46.6814L98.0251 46.8859ZM102.122 29.7815L104.566 31.5206L104.567 31.5199L102.122 29.7815ZM102.371 29.4307L104.816 31.1691L104.816 31.1688L102.371 29.4307ZM140.116 6.36655L139.999 9.36426L140.116 6.36655ZM168.808 26.9784L165.936 27.8442L165.936 27.8443L168.808 26.9784ZM184.069 46.361C183.466 44.6921 182.103 43.7532 181.046 43.2353C179.943 42.6945 178.686 42.3696 177.533 42.1601C175.207 41.7377 172.648 41.6734 170.995 41.6837L171.032 47.6835C172.567 47.674 174.686 47.7412 176.46 48.0635C177.357 48.2263 178.006 48.4271 178.406 48.6229C178.852 48.8417 178.589 48.8505 178.425 48.3982L184.069 46.361ZM178.534 54.2377C179.317 53.9943 180.123 53.7451 180.808 53.4777C181.468 53.2197 182.313 52.8363 183.028 52.1928C183.856 51.4468 184.41 50.442 184.524 49.2293C184.623 48.1723 184.363 47.1763 184.069 46.361L178.425 48.3982C178.597 48.8741 178.529 48.8957 178.55 48.6708C178.563 48.5282 178.608 48.336 178.712 48.1338C178.815 47.935 178.935 47.8038 179.012 47.7343C179.118 47.6392 179.092 47.7065 178.624 47.8891C178.181 48.0622 177.603 48.2436 176.752 48.5085L178.534 54.2377ZM175.465 55.2517C176.612 54.8359 177.621 54.5218 178.534 54.2377L176.752 48.5085C175.841 48.792 174.713 49.1426 173.421 49.6107L175.465 55.2517ZM172.638 55.8414C173.608 55.7358 174.602 55.5643 175.465 55.2517L173.421 49.6107C173.216 49.6847 172.769 49.7917 171.989 49.8767L172.638 55.8414ZM174.78 51.1273C174.717 51.054 174.655 50.9819 174.594 50.9096L170.033 54.8085C170.097 54.8831 170.16 54.9574 170.223 55.0299L174.78 51.1273ZM171.437 61.38C172.918 61.2896 174.378 61.0571 175.534 60.4256C176.161 60.0827 176.818 59.5579 177.274 58.7663C177.745 57.9503 177.863 57.0917 177.793 56.3363C177.67 55.0201 176.962 53.9163 176.504 53.2668C175.985 52.5303 175.329 51.7685 174.78 51.1271L170.223 55.03C170.515 55.3711 170.776 55.6768 171.016 55.9689C171.256 56.2607 171.449 56.5089 171.6 56.7238C171.755 56.9437 171.833 57.0815 171.867 57.1508C171.905 57.2303 171.841 57.1299 171.819 56.8932C171.807 56.7644 171.807 56.5892 171.847 56.3841C171.887 56.1747 171.964 55.9649 172.076 55.7697C172.305 55.3728 172.584 55.1999 172.657 55.1602C172.717 55.1275 172.652 55.1748 172.359 55.2371C172.076 55.2972 171.66 55.3552 171.072 55.3911L171.437 61.38ZM171.319 61.3874L171.442 61.3797L171.067 55.3914L170.943 55.3992L171.319 61.3874ZM176.048 79.6228C175.197 75.4319 174.541 65.4632 174.126 58.2219L168.136 58.5648C168.538 65.598 169.21 76.0981 170.168 80.817L176.048 79.6228ZM177.259 84.6331C176.839 83.125 176.414 81.425 176.048 79.6228L170.168 80.817C170.567 82.7823 171.028 84.6229 171.479 86.2436L177.259 84.6331ZM177.356 91.794C180.332 91.4135 180.332 91.4129 180.332 91.4123C180.332 91.412 180.332 91.4114 180.332 91.4109C180.332 91.4099 180.331 91.4089 180.331 91.4077C180.331 91.4055 180.331 91.4029 180.33 91.4C180.329 91.3942 180.329 91.3872 180.327 91.3789C180.325 91.3623 180.322 91.3408 180.319 91.3147C180.311 91.2624 180.301 91.1914 180.287 91.1038C180.259 90.9292 180.218 90.6869 180.161 90.3958C180.049 89.8196 179.868 89.0229 179.596 88.1658C179.329 87.3229 178.945 86.3303 178.396 85.4083C177.864 84.5166 177.031 83.4439 175.758 82.779L172.981 88.0977C172.872 88.0411 172.995 88.0669 173.242 88.4809C173.471 88.8647 173.688 89.385 173.877 89.9789C174.061 90.5586 174.19 91.1227 174.273 91.5481C174.314 91.7578 174.343 91.9266 174.36 92.0377C174.369 92.0931 174.375 92.1337 174.378 92.1573C174.38 92.169 174.381 92.1766 174.381 92.1795C174.381 92.181 174.381 92.1813 174.381 92.1805C174.381 92.1801 174.381 92.1794 174.381 92.1783C174.381 92.1778 174.381 92.1773 174.381 92.1766C174.381 92.1763 174.381 92.1757 174.381 92.1756C174.381 92.175 174.38 92.1744 177.356 91.794ZM181.596 105.029C182.185 101.166 181.822 97.6093 181.331 95.0512C181.084 93.7637 180.8 92.7055 180.573 91.9579C180.46 91.5835 180.36 91.2851 180.286 91.0729C180.249 90.9667 180.218 90.882 180.195 90.8198C180.184 90.7887 180.174 90.7633 180.166 90.7436C180.163 90.7338 180.16 90.7254 180.157 90.7185C180.156 90.7151 180.154 90.712 180.153 90.7093C180.153 90.7079 180.152 90.7066 180.152 90.7055C180.152 90.7049 180.151 90.7041 180.151 90.7038C180.151 90.703 180.151 90.7022 177.356 91.794C174.562 92.8857 174.562 92.885 174.561 92.8843C174.561 92.8841 174.561 92.8834 174.561 92.883C174.561 92.8822 174.56 92.8815 174.56 92.8809C174.56 92.8796 174.559 92.8787 174.559 92.8781C174.559 92.8769 174.559 92.8772 174.559 92.8788C174.56 92.882 174.564 92.8907 174.569 92.9048C174.579 92.9329 174.597 92.9822 174.622 93.0517C174.67 93.1907 174.744 93.4094 174.831 93.6982C175.007 94.277 175.237 95.1303 175.439 96.1822C175.846 98.3031 176.12 101.138 175.665 104.125L181.596 105.029ZM165.054 129.199C177.683 124.266 180.71 110.845 181.596 105.029L175.665 104.125C174.788 109.882 172.123 119.996 162.871 123.61L165.054 129.199ZM166.768 130.331L166.959 126.556L160.966 126.253L160.775 130.027L166.768 130.331ZM166.794 126.25L162.986 127.284L164.557 133.074L168.365 132.041L166.794 126.25ZM175.578 133.037C174.235 131.653 172.77 130.154 171.642 129.002C171.077 128.426 170.597 127.936 170.257 127.59C170.087 127.417 169.953 127.28 169.86 127.187C169.814 127.14 169.779 127.104 169.755 127.079C169.743 127.067 169.734 127.058 169.728 127.051C169.724 127.048 169.722 127.046 169.721 127.044C169.72 127.044 169.719 127.043 169.719 127.043C169.719 127.042 169.718 127.042 169.718 127.042C169.718 127.042 169.718 127.042 169.718 127.042C169.718 127.042 169.718 127.042 167.579 129.146C165.44 131.249 165.44 131.249 165.44 131.249C165.44 131.249 165.441 131.249 165.441 131.249C165.441 131.249 165.441 131.25 165.441 131.25C165.441 131.25 165.442 131.251 165.443 131.251C165.444 131.253 165.446 131.255 165.449 131.258C165.455 131.264 165.464 131.274 165.476 131.286C165.5 131.31 165.535 131.346 165.581 131.392C165.673 131.485 165.807 131.622 165.976 131.794C166.314 132.139 166.793 132.627 167.355 133.201C168.481 134.35 169.938 135.841 171.271 137.215L175.578 133.037ZM170.438 134.837L170.438 134.842L176.411 135.41L176.412 135.405L170.438 134.837ZM190.097 141.936C189.558 142.011 188.439 141.821 186.693 141C185.054 140.229 183.264 139.096 181.56 137.875C179.871 136.664 178.341 135.421 177.229 134.476C176.675 134.005 176.23 133.613 175.925 133.34C175.773 133.203 175.657 133.097 175.58 133.027C175.541 132.992 175.513 132.965 175.494 132.949C175.485 132.94 175.479 132.934 175.475 132.931C175.473 132.929 175.472 132.928 175.472 132.927C175.471 132.927 175.471 132.927 175.471 132.927C175.471 132.927 175.472 132.927 175.472 132.927C175.472 132.928 175.472 132.928 173.425 135.121C171.378 137.314 171.378 137.314 171.379 137.315C171.379 137.315 171.379 137.315 171.38 137.316C171.381 137.316 171.382 137.317 171.383 137.318C171.385 137.32 171.388 137.323 171.391 137.326C171.399 137.333 171.408 137.342 171.421 137.354C171.446 137.377 171.482 137.41 171.528 137.452C171.62 137.536 171.752 137.657 171.922 137.809C172.26 138.111 172.745 138.539 173.344 139.048C174.538 140.063 176.202 141.416 178.065 142.752C179.915 144.077 182.037 145.44 184.139 146.429C186.135 147.368 188.588 148.203 190.921 147.879L190.097 141.936ZM194.491 148.946C194.689 148.65 195.031 148.149 195.269 147.659C195.471 147.243 196.013 146.031 195.483 144.627C194.939 143.185 193.686 142.621 193.096 142.407C192.425 142.163 191.647 142.028 190.887 141.932L190.131 147.884C190.436 147.923 190.662 147.96 190.826 147.993C190.996 148.028 191.056 148.05 191.047 148.046C191.039 148.044 190.998 148.028 190.934 147.995C190.87 147.963 190.769 147.905 190.65 147.814C190.399 147.621 190.07 147.275 189.87 146.746C189.672 146.221 189.691 145.755 189.743 145.464C189.79 145.201 189.868 145.044 189.87 145.041C189.876 145.029 189.859 145.065 189.787 145.18C189.715 145.293 189.628 145.424 189.502 145.614L194.491 148.946ZM194.512 148.915L194.512 148.914L189.481 145.646L189.48 145.646L194.512 148.915ZM194.207 149.376C194.3 149.232 194.393 149.094 194.49 148.947L189.501 145.614C189.405 145.758 189.292 145.927 189.174 146.109L194.207 149.376ZM206.55 148.85C202.31 148.367 197.395 146.803 192.81 144.959L190.571 150.526C195.346 152.446 200.842 154.239 205.871 154.811L206.55 148.85ZM215.716 152.338C212.378 149.487 208.995 148.321 205.714 148.872L206.707 154.789C207.735 154.617 209.388 154.824 211.821 156.901L215.716 152.338ZM221.365 157.688C219.511 155.753 217.612 153.949 215.711 152.334L211.825 156.905C213.553 158.373 215.303 160.034 217.032 161.839L221.365 157.688ZM229.589 156.49L219.12 156.764L219.277 162.762L229.746 162.488L229.589 156.49ZM232.898 168.251L232.667 159.411L226.669 159.568L226.9 168.408L232.898 168.251ZM237.113 166.501C236.427 165.958 235.637 165.748 235.226 165.652C234.714 165.533 234.156 165.459 233.611 165.411C232.514 165.314 231.193 165.297 229.825 165.331L229.973 171.329C231.228 171.298 232.3 171.318 233.081 171.388C233.476 171.423 233.73 171.464 233.865 171.496C233.931 171.511 233.924 171.514 233.868 171.492C233.828 171.476 233.632 171.398 233.392 171.208L237.113 166.501ZM244.175 187.942C244.786 183.658 243.414 178.673 241.935 174.903C241.171 172.955 240.322 171.188 239.55 169.807C239.165 169.118 238.783 168.497 238.424 167.982C238.121 167.547 237.666 166.938 237.113 166.501L233.392 171.208C233.2 171.056 233.232 171.026 233.502 171.413C233.717 171.721 233.994 172.165 234.312 172.735C234.947 173.87 235.682 175.39 236.35 177.094C237.735 180.627 238.619 184.403 238.235 187.096L244.175 187.942ZM242.744 198.281C243.042 196.065 243.556 192.293 244.175 187.942L238.235 187.096C237.613 191.466 237.097 195.255 236.797 197.482L242.744 198.281ZM244.955 196.144C244.647 195.517 244.111 194.771 243.202 194.297C242.253 193.802 241.29 193.806 240.538 193.985C239.27 194.288 238.272 195.164 237.697 195.713L241.844 200.05C242.043 199.86 242.172 199.759 242.236 199.715C242.317 199.66 242.206 199.756 241.931 199.821C241.605 199.899 241.03 199.931 240.426 199.616C239.863 199.322 239.628 198.909 239.571 198.792L244.955 196.144ZM245.601 197.371C245.35 196.909 245.139 196.518 244.955 196.144L239.571 198.792C239.817 199.293 240.087 199.79 240.327 200.231L245.601 197.371ZM245.644 197.454L245.644 197.453L240.284 200.149L240.284 200.15L245.644 197.454ZM247.802 204.089C247.784 201.271 246.417 198.875 245.601 197.371L240.327 200.232C241.281 201.99 241.796 203.064 241.802 204.127L247.802 204.089ZM248.73 203.839C248.444 202.929 247.843 202.154 246.99 201.664C246.216 201.219 245.424 201.115 244.837 201.108L244.767 207.107C244.741 207.107 244.414 207.104 243.999 206.865C243.506 206.582 243.156 206.119 243.005 205.634L248.73 203.839ZM262.343 234.244C261.258 233.152 259.91 231.081 258.433 228.239C256.993 225.466 255.551 222.202 254.221 218.93C251.564 212.39 249.427 205.994 248.721 203.814L243.013 205.66C243.74 207.91 245.929 214.459 248.663 221.189C250.029 224.552 251.55 228.004 253.109 231.006C254.633 233.937 256.324 236.699 258.087 238.473L262.343 234.244ZM269.13 262.583C271.21 256.294 271.153 250.768 269.678 245.961C268.214 241.194 265.421 237.341 262.343 234.244L258.087 238.473C260.707 241.11 262.846 244.153 263.942 247.722C265.025 251.25 265.153 255.499 263.433 260.699L269.13 262.583ZM228.592 286.225C241.659 290.089 251.008 287.425 257.557 281.784C263.881 276.337 267.191 268.445 269.13 262.583L263.433 260.699C261.573 266.325 258.679 272.898 253.641 277.238C248.827 281.385 241.656 283.831 230.293 280.472L228.592 286.225ZM219.688 276.679C221.76 280.194 224.374 283.332 227.659 285.761L231.226 280.936C228.711 279.077 226.605 276.597 224.857 273.632L219.688 276.679ZM214.855 278.351L222.351 278.155L222.194 272.157L214.698 272.353L214.855 278.351ZM229.752 327.308C226.688 313.994 222.287 294.874 217.702 274.687L211.851 276.016C216.438 296.212 220.841 315.34 223.905 328.654L229.752 327.308ZM229.75 327.301L229.75 327.3L223.907 328.663L223.907 328.664L229.75 327.301ZM229.76 327.344L229.752 327.311L223.905 328.655L223.913 328.688L229.76 327.344ZM233.184 342.255C232.463 339.089 231.275 333.925 229.76 327.344L223.913 328.689C225.428 335.275 226.615 340.43 227.334 343.587L233.184 342.255ZM236.515 410.493C238.301 409.432 239.169 407.485 239.652 405.852C240.173 404.089 240.458 401.938 240.594 399.593C240.865 394.88 240.556 388.832 239.901 382.308C238.588 369.229 235.834 353.775 233.183 342.248L227.335 343.593C229.941 354.923 232.647 370.125 233.931 382.908C234.575 389.315 234.848 395 234.604 399.247C234.48 401.382 234.233 403.018 233.898 404.152C233.525 405.415 233.215 405.475 233.451 405.334L236.515 410.493ZM195.094 420.443C204.458 418.541 213.743 416.655 221.123 414.984C224.812 414.149 228.063 413.359 230.629 412.641C233.063 411.959 235.246 411.247 236.515 410.493L233.451 405.334C232.974 405.618 231.565 406.147 229.011 406.863C226.588 407.542 223.451 408.305 219.798 409.132C212.497 410.785 203.285 412.656 193.899 414.563L195.094 420.443ZM195.142 420.433L195.143 420.432L193.849 414.574L193.848 414.574L195.142 420.433ZM195.394 420.365L195.394 420.365L193.596 414.641L193.595 414.641L195.394 420.365ZM157.46 428.712C165.851 426.385 180.53 423.401 195.092 420.443L193.897 414.563C179.446 417.499 164.504 420.532 155.856 422.931L157.46 428.712ZM141.737 378.847C141.998 386.391 142.711 396.185 144.535 405.237C146.324 414.11 149.308 422.983 154.593 427.998L158.723 423.645C154.904 420.021 152.185 412.824 150.417 404.052C148.685 395.46 147.989 386.035 147.734 378.64L141.737 378.847ZM137.438 409.504C142.666 400.401 145.875 389.654 147.691 379.26L141.78 378.228C140.039 388.193 137.005 398.211 132.235 406.516L137.438 409.504ZM61.556 423.673C65.6877 424.398 81.2654 426.171 97.3065 425.273C105.329 424.824 113.623 423.699 120.714 421.36C127.745 419.04 134.053 415.373 137.435 409.509L132.238 406.511C129.932 410.51 125.283 413.534 118.834 415.662C112.445 417.77 104.734 418.848 96.971 419.283C81.4418 420.152 66.327 418.418 62.5927 417.763L61.556 423.673ZM53.9387 337.556C53.6143 352.811 53.1766 373.365 53.685 390.262C53.9387 398.694 54.4305 406.332 55.3152 411.984C55.7541 414.789 56.3141 417.272 57.0643 419.161C57.4384 420.103 57.9164 421.045 58.5584 421.826C59.2042 422.612 60.1849 423.432 61.556 423.673L62.5927 417.763C63.1042 417.853 63.2874 418.13 63.194 418.017C63.0968 417.898 62.8936 417.583 62.6407 416.947C62.1367 415.678 61.6587 413.712 61.243 411.057C60.4184 405.788 59.9342 398.455 59.6823 390.081C59.1794 373.368 59.6122 352.976 59.9373 337.684L53.9387 337.556ZM54.166 325.902C54.1161 329.211 54.0321 333.162 53.9387 337.556L59.9373 337.684C60.0306 333.296 60.115 329.324 60.1653 325.992L54.166 325.902ZM60.5555 278.787C56.9321 299.217 54.2983 317.128 54.166 325.902L60.1653 325.992C60.289 317.791 62.8204 300.374 66.4633 279.835L60.5555 278.787ZM61.3093 282.37L63.5879 282.31L63.4309 276.312L61.1523 276.372L61.3093 282.37ZM62.7879 285.666C63.2702 284.027 63.7318 282.087 64.1685 279.979L58.2931 278.762C57.8752 280.78 57.4513 282.547 57.0319 283.972L62.7879 285.666ZM43.5811 302.403C47.4581 301.419 51.484 300.436 54.8767 298.038C58.4308 295.526 61.0104 291.706 62.7879 285.666L57.0319 283.972C55.5194 289.112 53.5688 291.615 51.4136 293.138C49.0971 294.775 46.2347 295.54 42.1053 296.588L43.5811 302.403ZM43.2233 302.494L43.5814 302.403L42.105 296.588L41.7469 296.679L43.2233 302.494ZM9.56228 273.436C10.6704 274.895 16.5208 282.403 23.0587 289.359C26.3179 292.827 29.8326 296.249 33.0691 298.718C34.6828 299.949 36.3249 301.019 37.9063 301.727C39.4204 302.405 41.2886 302.939 43.156 302.51L41.8142 296.662C41.8278 296.659 41.4188 296.726 40.3585 296.251C39.3657 295.807 38.1365 295.037 36.7082 293.948C33.8607 291.776 30.6092 288.632 27.4309 285.25C21.0939 278.508 15.3851 271.182 14.3406 269.807L9.56228 273.436ZM8.00833 251.042C6.90133 255.391 6.60334 259.963 6.8677 263.85C7.00014 265.797 7.2774 267.628 7.69212 269.213C8.09234 270.742 8.67874 272.272 9.56229 273.436L14.3406 269.807C14.1479 269.553 13.8115 268.897 13.4967 267.694C13.1964 266.546 12.9665 265.098 12.8539 263.443C12.6281 260.123 12.8885 256.193 13.8229 252.522L8.00833 251.042ZM34.329 225.011C32.3504 222.756 32.3502 222.756 32.3498 222.756C32.3496 222.756 32.3492 222.757 32.3487 222.757C32.3478 222.758 32.3466 222.759 32.3451 222.76C32.342 222.763 32.3376 222.767 32.332 222.772C32.3207 222.782 32.3044 222.796 32.2831 222.815C32.2406 222.853 32.1783 222.908 32.0977 222.979C31.9363 223.122 31.7012 223.332 31.4022 223.6C30.8043 224.137 29.9504 224.911 28.9204 225.864C26.8625 227.768 24.0912 230.397 21.2493 233.285C18.4154 236.166 15.4701 239.347 13.0855 242.351C10.7974 245.233 8.69293 248.353 8.00833 251.042L13.8229 252.522C14.159 251.202 15.4916 248.97 17.7849 246.081C19.9817 243.314 22.7621 240.303 25.5265 237.493C28.2827 234.691 30.982 232.131 32.9951 230.268C34.0006 229.338 34.8324 228.584 35.4112 228.064C35.7006 227.804 35.9266 227.603 36.0794 227.468C36.1557 227.4 36.2137 227.349 36.2522 227.315C36.2714 227.298 36.2858 227.285 36.2951 227.277C36.2997 227.273 36.3031 227.27 36.3052 227.268C36.3062 227.267 36.307 227.266 36.3074 227.266C36.3076 227.266 36.3076 227.266 36.3077 227.266C36.3077 227.266 36.3076 227.266 34.329 225.011ZM37.045 223.716C37.0138 223.665 36.9859 223.617 36.961 223.571L31.6971 226.451C31.7696 226.583 31.8452 226.713 31.9234 226.842L37.045 223.716ZM39.7423 216.232C38.7746 215.645 37.6526 215.545 36.6356 215.895C35.7686 216.193 35.1702 216.747 34.8158 217.137C34.106 217.92 33.5834 218.943 33.2198 219.756C32.4512 221.476 31.8576 223.512 31.5908 224.486L37.3776 226.071C37.6297 225.151 38.1258 223.484 38.6975 222.205C38.8354 221.896 38.9634 221.643 39.0765 221.449C39.196 221.243 39.2619 221.166 39.2598 221.169C39.255 221.174 39.2074 221.226 39.1124 221.297C39.018 221.367 38.8424 221.481 38.5852 221.569C37.9522 221.787 37.2149 221.717 36.6276 221.361L39.7423 216.232ZM41.4464 217.5C40.8804 217.036 40.237 216.524 39.7099 216.213L36.66 221.38C36.6571 221.378 36.7386 221.429 36.9403 221.582C37.126 221.722 37.3597 221.908 37.6455 222.142L41.4464 217.5ZM37.9138 210.615C38.2034 213.053 37.4609 216.392 36.6781 218.94L42.4138 220.702C43.2216 218.071 44.321 213.688 43.8719 209.907L37.9138 210.615ZM37.1866 206.975C37.5566 208.624 37.8173 209.803 37.9138 210.615L43.8719 209.907C43.7303 208.716 43.3818 207.18 43.041 205.662L37.1866 206.975ZM40.986 181.771C36.6584 185.1 35.5006 190.114 35.454 194.615C35.4076 199.108 36.4584 203.73 37.1866 206.975L43.041 205.662C42.2874 202.303 41.4157 198.359 41.4537 194.677C41.4917 191.003 42.4254 188.234 44.6442 186.527L40.986 181.771ZM54.8575 174.56C50.5773 175.952 45.4472 178.359 40.9926 181.766L44.6376 186.532C48.4597 183.609 52.956 181.488 56.7132 180.266L54.8575 174.56ZM53.2819 175.576C53.1837 175.824 53.0848 176.077 52.9855 176.336L58.5852 178.49C58.6784 178.248 58.7705 178.012 58.8615 177.782L53.2819 175.576ZM52.742 164.12L53.0727 176.757L59.0707 176.6L58.7399 163.963L52.742 164.12ZM63.3826 160.84L55.6624 161.043L55.8194 167.04L63.5396 166.838L63.3826 160.84ZM72.252 151.475C69.2593 153.805 65.0949 157.041 61.1271 161.955L65.795 165.724C69.289 161.398 72.9629 158.526 75.938 156.21L72.252 151.475ZM76.6019 149.239C75.187 149.602 73.7301 150.324 72.252 151.475L75.938 156.21C76.8661 155.487 77.5894 155.18 78.0909 155.052L76.6019 149.239ZM75.4159 149.542C74.8924 150.113 74.4613 150.885 74.3625 151.835L80.3303 152.456C80.2728 153.008 80.0219 153.397 79.8387 153.597L75.4159 149.542ZM98.2549 136.362C90.6111 138.734 81.5936 142.752 75.4082 149.551L79.8463 153.588C84.965 147.962 92.7697 144.346 100.033 142.092L98.2549 136.362ZM96.168 139.613L96.1798 139.689L102.108 138.765L102.096 138.689L96.168 139.613ZM96.1379 139.419L96.1672 139.609L102.097 138.693L102.068 138.503L96.1379 139.419ZM114.345 133.188C112.184 132.584 107.965 131.545 104.299 131.595C102.523 131.62 100.344 131.897 98.6227 133.089C97.6984 133.728 96.9154 134.628 96.4584 135.809C96.0103 136.967 95.9503 138.2 96.1377 139.417L102.068 138.504C102.001 138.07 102.068 137.937 102.054 137.974C102.031 138.034 101.989 138.056 102.037 138.023C102.261 137.868 102.955 137.614 104.382 137.595C107.123 137.557 110.63 138.379 112.73 138.966L114.345 133.188ZM115.034 132.885C114.765 132.911 114.11 132.977 113.149 133.102L113.926 139.052C114.809 138.936 115.392 138.878 115.596 138.859L115.034 132.885ZM115.501 134.868C112.559 134.28 112.559 134.28 112.559 134.28C112.559 134.28 112.559 134.281 112.559 134.281C112.559 134.281 112.559 134.281 112.559 134.281C112.559 134.281 112.559 134.281 112.559 134.281C112.559 134.282 112.559 134.282 112.559 134.283C112.559 134.284 112.558 134.286 112.558 134.288C112.557 134.292 112.556 134.298 112.555 134.305C112.552 134.319 112.548 134.339 112.543 134.364C112.533 134.415 112.519 134.487 112.502 134.58C112.467 134.764 112.418 135.027 112.361 135.351L118.27 136.393C118.322 136.097 118.366 135.858 118.397 135.695C118.412 135.614 118.424 135.552 118.432 135.511C118.436 135.49 118.439 135.475 118.441 135.466C118.442 135.461 118.443 135.458 118.443 135.456C118.443 135.455 118.443 135.454 118.443 135.454C118.444 135.454 118.444 135.454 118.444 135.454C118.443 135.454 118.443 135.454 118.443 135.454C118.443 135.454 118.443 135.454 118.443 135.455C118.443 135.455 118.443 135.455 118.443 135.455C118.443 135.455 118.443 135.455 115.501 134.868ZM116.108 131.877L115.552 131.868L115.45 137.867L116.006 137.877L116.108 131.877ZM111.885 129.152L113.112 135.45L119.001 134.304L117.775 128.005L111.885 129.152ZM104.569 128.753C107.305 130.139 110.717 131.003 114.391 131.546L115.269 125.611C111.89 125.111 109.196 124.371 107.281 123.401L104.569 128.753ZM92.2647 111.23C92.2972 112.905 92.4223 115.886 94.1227 119.195C95.8365 122.53 98.9911 125.904 104.561 128.749L107.29 123.405C102.657 121.039 100.51 118.498 99.4593 116.452C98.3948 114.381 98.2908 112.515 98.2636 111.114L92.2647 111.23ZM96.1771 88.2681C95.6989 89.4707 95.2326 91.3736 94.8115 93.3788C94.3754 95.4558 93.9424 97.8709 93.5621 100.231C93.1816 102.593 92.8496 104.927 92.6174 106.844C92.3974 108.66 92.2338 110.355 92.2659 111.276L98.2623 111.067C98.2495 110.701 98.3404 109.493 98.5739 107.565C98.7951 105.738 99.1155 103.484 99.4857 101.186C99.8562 98.8862 100.272 96.569 100.683 94.6118C101.11 92.5829 101.488 91.1498 101.753 90.4851L96.1771 88.2681ZM97.0796 76.4907C97.1331 80.2672 96.6625 84.5205 95.9983 88.9298L101.931 89.8235C102.61 85.3189 103.14 80.6797 103.079 76.4056L97.0796 76.4907ZM96.9254 60.9915C96.948 64.9293 96.9925 70.2642 97.0796 76.4901L103.079 76.4062C102.992 70.1993 102.948 64.8812 102.925 60.957L96.9254 60.9915ZM95.6109 53.9833C95.0161 55.2092 94.6409 56.8406 94.9636 58.5901C95.3008 60.4179 96.3567 62.1234 98.1919 63.4227L101.659 58.5258C101.02 58.0735 100.9 57.6972 100.864 57.5016C100.813 57.2277 100.868 56.8942 101.009 56.6025L95.6109 53.9833ZM96.654 52.6914L96.1566 53.2042L100.463 57.3817L100.961 56.8689L96.654 52.6914ZM91.5132 57.4273C93.1987 57.6656 95.7998 57.7674 98.7946 57.7801L98.8201 51.7802C95.8443 51.7675 93.5993 51.6625 92.3531 51.4864L91.5132 57.4273ZM89.2225 46.2142C88.2816 46.9281 87.3346 47.7008 86.5859 48.4915C85.9381 49.1757 84.9533 50.3606 84.7888 51.9131C84.6939 52.8087 84.8842 53.7271 85.4002 54.5433C85.8826 55.3065 86.5454 55.8178 87.1553 56.164C88.3199 56.8249 89.8437 57.1912 91.5132 57.4273L92.3531 51.4864C91.6571 51.388 91.1312 51.279 90.744 51.172C90.3469 51.0621 90.165 50.9731 90.1168 50.9458C90.0653 50.9165 90.2694 51.0171 90.4718 51.3374C90.577 51.5038 90.6659 51.7058 90.7177 51.9346C90.7691 52.1619 90.7738 52.3713 90.7554 52.5453C90.7208 52.8719 90.6107 53.0305 90.6384 52.9847C90.661 52.9473 90.7448 52.8259 90.9427 52.6169C91.1345 52.4143 91.3909 52.174 91.7202 51.8938C92.0472 51.6157 92.4243 51.3164 92.849 50.9942L89.2225 46.2142ZM98.1721 43.8895C95.964 43.7811 92.2021 43.9536 89.2225 46.2142L92.849 50.9942C94.0916 50.0515 96.0472 49.7924 97.878 49.8823L98.1721 43.8895ZM101.018 46.6814C100.799 43.4698 100.909 36.6604 104.566 31.5206L99.6771 28.0424C94.7594 34.9548 94.7914 43.5682 95.0321 47.0903L101.018 46.6814ZM104.567 31.5199L104.816 31.1691L99.9261 27.6923L99.6766 28.0431L104.567 31.5199ZM104.816 31.1688C110.628 22.9928 121.011 8.62247 139.999 9.36426L140.234 3.36884C117.675 2.48755 105.57 19.7525 99.9259 27.6926L104.816 31.1688ZM139.999 9.36426C159.167 10.1131 164.833 24.1851 165.936 27.8442L171.681 26.1125C170.286 21.4854 163.224 4.26699 140.234 3.36884L139.999 9.36426ZM165.936 27.8443C166.359 29.2477 166.82 32.4943 167.215 36.1212C167.598 39.6299 167.887 43.1601 168.022 44.9147L174.004 44.4525C173.867 42.6724 173.572 39.0708 173.18 35.471C172.8 31.9894 172.295 28.1506 171.681 26.1125L165.936 27.8443Z" fill="white" mask="url(#path-14-outside-1)"/>
</svg>
