<svg width="509" height="332" fill="none" xmlns="http://www.w3.org/2000/svg"><g filter="url(#filter0_d)"><path d="M10.543 18.964l476.5-8.5 11.5 311h-488v-302.5z" fill="#F0757C"/><path fill-rule="evenodd" clip-rule="evenodd" d="M239.362 14.883L10.543 18.964v302.5h180.003l48.816-306.581z" fill="#EB6D73"/><path fill-rule="evenodd" clip-rule="evenodd" d="M496.029 241.104L499 321.458H11V192.877l15.58 19.728-7.007 1.84 1.557 23.925 13.236-22.084 5.45-1.227 63.848-1.841v-17.176l2.336-7.975 4.672-37.42 2.336-.613.778 35.579 5.451 9.816 3.114-9.816 5.451-33.126 7.786-77.907h3.114l2.336 25.765 3.115 44.781 7.007 46.008 3.893-16.563 2.336-29.445 2.336.614.779 20.243 3.114 18.404 5.451 9.201-3.115 1.227-.778 59.504 5.45 4.908 8.565-10.429-3.893.614s-1.558-4.908-1.558-5.521c0-.614 10.123-.614 10.123-.614l3.893-7.361-4.672.613-.779-3.68 7.008-.614.779-7.974-.779-2.454 5.45-3.681 3.893 3.681-3.893 3.68 2.336 7.362 7.008-1.227 3.893 5.521-8.565 1.227 5.45 6.134 6.23-1.227 3.893 3.681 5.45-4.294h13.237l.778-15.95 8.565-9.201-.778-6.135 2.335-.613-.778-4.908 2.336-1.84.778-12.269 1.558 10.428 2.335 1.841v4.907l3.894 2.454v4.908l12.458 11.042.778-42.328-2.336-3.067 4.672-11.656 2.336-28.218 5.45 30.059 12.458-61.345L298.321 39l2.335 43.555 2.336 39.874 3.115 25.151 5.45 19.017s3.115-26.992 3.893-26.992c.779 0 3.115 28.219 3.115 28.219l3.893 14.722-1.557 23.925 8.565-.614.778-22.697 3.115-16.563 4.672-25.765 3.114 32.513 9.344-52.143 6.229-71.16 3.893-1.84.778 71.773 12.458 48.462 3.115-17.79 2.336-12.882.778 17.79 7.008 30.672-.779 23.311 12.458 17.176-1.557 12.269 14.015 1.227 6.229 4.908 19.466-14.11.779-23.311-3.893-1.84 1.557-4.294-.779-19.017 3.893-12.882 4.672-23.311.779 21.471 4.671 8.588 7.008-41.101.779-3.681 2.336-.613 3.893 1.84-2.336 6.748 7.786 36.193 16.351 31.286-3.114.613-2.336 20.858 17.067 12.549z" fill="#EB6D73"/><path fill-rule="evenodd" clip-rule="evenodd" d="M426.302 30.74c-1.333.03-2.438-.752-2.513-1.761l-.999.023c-.029 1.012-1.097 1.844-2.43 1.875-1.332.03-2.437-.752-2.512-1.761l-.991.022c-.029 1.012-1.097 1.844-2.429 1.875-1.332.03-2.437-.751-2.513-1.761l-.994.023.004.075c.023 1.022-1.015 1.88-2.337 1.948l.018.76c1.323.007 2.4.816 2.423 1.838.024 1.022-1.014 1.88-2.336 1.947l.017.761c1.324.007 2.4.816 2.424 1.838.023 1.023-1.015 1.88-2.337 1.948l.018.76c1.323.007 2.4.815 2.423 1.837.024 1.023-1.014 1.88-2.336 1.948l.017.76c1.324.008 2.4.817 2.424 1.839.024 1.022-1.015 1.88-2.336 1.947l.017.761c1.324.007 2.4.816 2.424 1.838.023 1.022-1.015 1.88-2.337 1.948l.018.76c1.323.006 2.4.815 2.423 1.837.024 1.023-1.014 1.88-2.336 1.948l.017.76c1.324.008 2.4.817 2.424 1.839.023 1.022-1.015 1.88-2.337 1.947l.018.76c1.323.007 2.4.816 2.423 1.839.024 1.022-1.014 1.88-2.336 1.947l.017.76c1.324.008 2.4.817 2.424 1.839.023 1.022-1.015 1.88-2.337 1.947l.018.76c1.323.007 2.4.816 2.423 1.839.024 1.022-1.014 1.88-2.336 1.947l.017.76c1.324.007 2.401.816 2.424 1.838.024 1.023-1.015 1.88-2.336 1.948l.017.76c1.324.007 2.4.816 2.424 1.838.023 1.022-1.015 1.88-2.337 1.948l.018.76c1.323.007 2.4.816 2.423 1.839.024 1.022-1.014 1.88-2.336 1.947l.017.76c1.324.007 2.4.816 2.424 1.838.023 1.023-1.015 1.88-2.337 1.948l.018.76c1.323.008 2.4.816 2.423 1.839.024 1.022-1.014 1.88-2.336 1.947l.017.76c1.324.007 2.4.816 2.424 1.838.023 1.023-1.015 1.88-2.337 1.948l.018.761c1.324.007 2.4.815 2.423 1.838.024 1.022-1.014 1.879-2.336 1.947l.017.76c1.324.007 2.401.816 2.424 1.838a.963.963 0 010 .076l.994-.023a1.837 1.837 0 01-.004-.076c-.024-1.046 1.064-1.919 2.43-1.951 1.365-.031 2.492.791 2.516 1.837a.989.989 0 010 .077l.99-.023-.003-.076c-.024-1.046 1.063-1.92 2.429-1.951 1.366-.032 2.493.791 2.517 1.837v.032l-.001.044 1-.023a1.837 1.837 0 01-.004-.076c-.024-1.046 1.064-1.92 2.43-1.951 1.365-.031 2.492.791 2.516 1.837a.989.989 0 010 .077l.99-.023a.965.965 0 01-.003-.076c-.024-1.047 1.063-1.92 2.429-1.952 1.366-.031 2.492.792 2.517 1.838l-.001.076.991-.023-.001-.009-.001-.016-.001-.014-.001-.037c-.024-1.046 1.064-1.92 2.429-1.951 1.366-.031 2.493.791 2.517 1.837a.989.989 0 010 .077l.99-.023a.965.965 0 01-.003-.076c-.024-1.047 1.063-1.92 2.429-1.951 1.366-.032 2.492.791 2.517 1.837l-.001.076.995-.023-.002-.035-.001-.041c-.025-1.046 1.063-1.92 2.429-1.951 1.366-.031 2.492.791 2.516 1.837a.989.989 0 010 .077l.995-.023a1.985 1.985 0 01-.004-.077c-.024-1.046 1.064-1.919 2.43-1.951 1.366-.031 2.492.792 2.516 1.838a.963.963 0 010 .076l.991-.023a1.837 1.837 0 01-.004-.076c-.024-1.046 1.064-1.92 2.429-1.951 1.366-.031 2.493.791 2.517 1.837v.077l.995-.023a.99.99 0 01-.003-.077c-.024-1.046 1.063-1.919 2.429-1.951h.093l-.017-.76-.093.003c-1.366.032-2.493-.791-2.517-1.837-.024-1.046 1.064-1.92 2.429-1.951l.055-.001h.038l-.017-.76-.093.003c-1.366.031-2.493-.791-2.517-1.837-.024-1.046 1.064-1.92 2.43-1.951l.048-.001h.045l-.018-.76a3.3 3.3 0 01-.093.003c-1.365.032-2.492-.79-2.516-1.837-.024-1.046 1.063-1.92 2.429-1.951h.093l-.017-.761h-.029l-.029.002-.035.001c-1.366.031-2.493-.791-2.517-1.837-.024-1.046 1.064-1.92 2.43-1.951l.093-.001-.018-.76a3.21 3.21 0 01-.093.003c-1.366.032-2.492-.791-2.516-1.837-.024-1.046 1.063-1.92 2.429-1.951h.093l-.017-.762a3.21 3.21 0 01-.093.004c-1.366.031-2.493-.791-2.517-1.837-.024-1.047 1.064-1.92 2.43-1.951l.093-.001-.018-.76a3.21 3.21 0 01-.093.003c-1.366.031-2.492-.791-2.516-1.837-.025-1.046 1.063-1.92 2.429-1.951l.093-.001-.018-.76c-.03.001-.061.003-.092.003-1.366.032-2.493-.79-2.517-1.837-.024-1.046 1.064-1.92 2.429-1.951h.093l-.017-.76a3.611 3.611 0 01-.093.003c-1.366.03-2.493-.792-2.517-1.838-.024-1.046 1.064-1.92 2.43-1.95l.033-.001h.06l-.018-.761a3.851 3.851 0 01-.093.003c-1.365.032-2.492-.79-2.516-1.837-.024-1.046 1.063-1.92 2.429-1.951h.093l-.017-.761a3.21 3.21 0 01-.093.003c-1.366.032-2.493-.79-2.517-1.837-.024-1.046 1.064-1.92 2.43-1.95.031-.002.062-.002.093-.002l-.018-.76a3.21 3.21 0 01-.093.003c-1.366.032-2.492-.791-2.516-1.837-.024-1.046 1.063-1.92 2.429-1.951l.093-.001-.017-.76a3.21 3.21 0 01-.093.004c-1.366.031-2.493-.791-2.517-1.837-.024-1.047 1.064-1.92 2.43-1.951l.036-.001h.057l-.018-.76a3.21 3.21 0 01-.093.003c-1.366.031-2.492-.792-2.516-1.838-.025-1.046 1.063-1.92 2.429-1.95.031-.002.062-.002.093-.002l-.018-.76a3.3 3.3 0 01-.093.003c-1.365.032-2.492-.79-2.516-1.837-.024-1.046 1.064-1.92 2.429-1.951h.093l-.017-.76a3.21 3.21 0 01-.093.003c-1.366.031-2.493-.791-2.517-1.837-.024-1.046 1.064-1.92 2.43-1.951l.093-.001-.018-.76a3.21 3.21 0 01-.093.003c-1.365.031-2.492-.791-2.516-1.838-.024-1.046 1.063-1.92 2.429-1.95.031-.001.062-.002.093-.001l-.017-.76a3.21 3.21 0 01-.093.003c-1.366.031-2.493-.791-2.517-1.837v-.076l-.995.023c-.029 1.012-1.097 1.844-2.429 1.875-1.333.03-2.438-.752-2.513-1.761l-.991.023c-.029 1.012-1.096 1.844-2.429 1.874-1.332.031-2.437-.751-2.513-1.76l-.995.022c-.029 1.012-1.096 1.844-2.429 1.875-1.332.03-2.437-.752-2.513-1.761l-.995.023c-.028 1.012-1.096 1.844-2.429 1.875-1.332.03-2.437-.752-2.513-1.761l-.99.022c-.029 1.012-1.097 1.844-2.429 1.875-1.333.03-2.438-.752-2.513-1.761l-.99.023c-.029 1.012-1.097 1.844-2.43 1.875-1.332.03-2.437-.752-2.513-1.762l-.99.023c-.029 1.012-1.097 1.844-2.429 1.875z" fill="#D16369"/><path d="M459.224 35.325l-40.448.93.05 66.863 43.639-.167-3.241-67.626z" fill="#EB7077"/><g clip-path="url(#clip0)"><path fill="#F0757C" d="M22.16 246.643l61.424 1.493-1.493 61.424-61.424-1.493z"/><path d="M83.584 248.135l-61.424-1.492-1.493 61.424 61.424 1.493 1.493-61.425z" fill="#DE6D74"/><path d="M29.41 251.735l-2.457-.059-.06 2.457 2.457.059.06-2.457z" fill="#F9C4C7"/><path d="M31.867 251.795l-2.457-.06-.06 2.457 2.457.06.06-2.457z" fill="#F9C4C7"/><path d="M34.324 251.855l-2.457-.06-.06 2.457 2.457.06.06-2.457zM36.781 251.915l-2.457-.06-.06 2.457 2.457.06.06-2.457z" fill="#F9C4C7"/><path d="M39.238 251.974l-2.457-.059-.06 2.457 2.458.059.06-2.457z" fill="#F9C4C7"/><path d="M41.695 252.034l-2.457-.059-.06 2.457 2.458.059.06-2.457z" fill="#F9C4C7"/><path d="M44.152 252.094l-2.457-.06-.06 2.457 2.458.06.06-2.457zM51.523 252.273l-2.457-.06-.06 2.457 2.458.06.06-2.457zM56.437 252.392l-2.456-.059-.06 2.456 2.457.06.06-2.457z" fill="#F9C4C7"/><path d="M58.895 252.452l-2.458-.059-.06 2.457 2.458.059.06-2.457zM63.809 252.571l-2.457-.059-.06 2.457 2.457.059.06-2.457zM66.266 252.631l-2.457-.059-.06 2.457 2.457.059.06-2.457z" fill="#F9C4C7"/><path d="M68.723 252.691l-2.457-.06-.06 2.457 2.457.06.06-2.457zM71.18 252.751l-2.457-.06-.06 2.457 2.457.06.06-2.457z" fill="#F9C4C7"/><path d="M73.637 252.811l-2.457-.06-.06 2.457 2.457.06.06-2.457z" fill="#F9C4C7"/><path d="M76.094 252.87l-2.457-.059-.06 2.457 2.457.059.06-2.457z" fill="#F9C4C7"/><path d="M78.55 252.93l-2.456-.06-.06 2.457 2.457.06.06-2.457zM29.352 254.193l-2.457-.06-.06 2.457 2.457.059.06-2.456zM44.094 254.551l-2.457-.06-.06 2.457 2.457.06.06-2.457zM49.008 254.67l-2.457-.06-.06 2.457 2.457.06.06-2.457z" fill="#F9C4C7"/><path d="M51.465 254.73l-2.457-.06-.06 2.457 2.457.06.06-2.457zM56.379 254.849l-2.457-.059-.06 2.457 2.457.059.06-2.457zM63.75 255.028l-2.457-.059-.06 2.457 2.457.059.06-2.457zM78.488 255.387l-2.457-.06-.06 2.457 2.457.06.06-2.457zM29.289 256.65l-2.457-.06-.06 2.457 2.457.06.06-2.457zM34.207 256.769l-2.457-.06-.06 2.457 2.457.06.06-2.457z" fill="#F9C4C7"/><path d="M36.66 256.829l-2.457-.06-.06 2.457 2.457.06.06-2.457z" fill="#F9C4C7"/><path d="M39.117 256.888l-2.457-.059-.06 2.457 2.457.059.06-2.457zM44.031 257.008l-2.457-.06-.06 2.457 2.457.06.06-2.457zM48.945 257.127l-2.457-.06-.06 2.457 2.458.06.06-2.457z" fill="#F9C4C7"/><path d="M51.402 257.187l-2.457-.06-.06 2.457 2.458.06.06-2.457zM58.773 257.366l-2.457-.06-.06 2.457 2.458.06.06-2.457zM63.687 257.485l-2.456-.059-.06 2.457 2.457.059.06-2.457zM68.602 257.605l-2.458-.06-.06 2.457 2.458.06.06-2.457z" fill="#F9C4C7"/><path d="M71.058 257.665l-2.456-.06-.06 2.457 2.457.06.06-2.457zM73.516 257.724l-2.457-.059-.06 2.457 2.457.059.06-2.457zM78.43 257.844l-2.457-.06-.06 2.457 2.457.06.06-2.457zM29.23 259.107l-2.457-.06-.06 2.457 2.458.06.06-2.457zM34.145 259.226l-2.458-.06-.06 2.457 2.458.06.06-2.457z" fill="#F9C4C7"/><path d="M36.602 259.286l-2.457-.06-.06 2.457 2.457.06.06-2.457z" fill="#F9C4C7"/><path d="M39.059 259.345l-2.457-.059-.06 2.457 2.457.059.06-2.457zM43.973 259.465l-2.457-.06-.06 2.457 2.457.06.06-2.457zM51.344 259.644l-2.457-.06-.06 2.457 2.457.06.06-2.457zM56.258 259.763l-2.457-.059-.06 2.457 2.457.059.06-2.457zM63.629 259.943l-2.457-.06-.06 2.457 2.457.059.06-2.456zM68.543 260.062l-2.457-.06-.06 2.457 2.457.06.06-2.457zM71 260.122l-2.457-.06-.06 2.457 2.457.06.06-2.457z" fill="#F9C4C7"/><path d="M73.457 260.181L71 260.122l-.06 2.457 2.457.059.06-2.457zM78.371 260.301l-2.457-.06-.06 2.457 2.457.06.06-2.457zM29.172 261.564l-2.457-.06-.06 2.457 2.457.06.06-2.457zM34.086 261.683l-2.457-.06-.06 2.457 2.457.06.06-2.457zM36.543 261.743l-2.457-.06-.06 2.457 2.457.06.06-2.457z" fill="#F9C4C7"/><path d="M39 261.802l-2.457-.059-.06 2.457 2.457.059.06-2.457zM43.914 261.922l-2.457-.06-.06 2.457 2.457.06.06-2.457zM48.828 262.041l-2.457-.06-.06 2.457 2.457.06.06-2.457zM58.656 262.28l-2.457-.06-.06 2.457 2.457.06.06-2.457zM63.57 262.4l-2.457-.06-.06 2.457 2.458.06.06-2.457zM68.484 262.519l-2.457-.06-.06 2.457 2.458.06.06-2.457z" fill="#F9C4C7"/><path d="M70.941 262.579l-2.457-.06-.06 2.457 2.458.06.06-2.457z" fill="#F9C4C7"/><path d="M73.398 262.638l-2.457-.059-.06 2.457 2.458.059.06-2.457zM78.312 262.757l-2.456-.059-.06 2.457 2.457.059.06-2.457zM29.113 264.02l-2.457-.06-.06 2.457 2.457.06.06-2.457zM43.855 264.379l-2.457-.06-.06 2.457 2.458.06.06-2.457zM48.766 264.498l-2.457-.06-.06 2.457 2.457.06.06-2.457zM56.14 264.677l-2.456-.059-.06 2.457 2.457.059.06-2.457z" fill="#F9C4C7"/><path d="M58.594 264.737l-2.457-.06-.06 2.457 2.457.06.06-2.457zM63.508 264.857l-2.457-.06-.06 2.457 2.457.06.06-2.457zM78.25 265.215l-2.457-.06-.06 2.457 2.457.059.06-2.456zM29.05 266.477l-2.456-.06-.06 2.457 2.457.06.06-2.457zM31.508 266.537l-2.457-.059-.06 2.457 2.457.059.06-2.457zM33.965 266.597l-2.457-.06-.06 2.457 2.457.06.06-2.457z" fill="#F9C4C7"/><path d="M36.422 266.656l-2.457-.059-.06 2.457 2.457.059.06-2.457z" fill="#F9C4C7"/><path d="M38.879 266.716l-2.457-.06-.06 2.457 2.457.06.06-2.457zM41.336 266.776l-2.457-.06-.06 2.457 2.457.06.06-2.457zM43.793 266.836l-2.457-.06-.06 2.457 2.457.06.06-2.457zM48.707 266.955l-2.457-.059-.06 2.456 2.457.06.06-2.457zM53.621 267.074l-2.457-.059-.06 2.457 2.457.059.06-2.457zM58.535 267.194l-2.457-.06-.06 2.457 2.457.06.06-2.457zM63.45 267.313l-2.458-.06-.06 2.457 2.457.06.06-2.457z" fill="#F9C4C7"/><path d="M65.906 267.373l-2.457-.06-.06 2.457 2.458.06.06-2.457z" fill="#F9C4C7"/><path d="M68.363 267.433l-2.457-.06-.06 2.457 2.457.06.06-2.457z" fill="#F9C4C7"/><path d="M70.82 267.492l-2.457-.059-.06 2.457 2.457.059.06-2.457zM73.277 267.552l-2.457-.059-.06 2.457 2.458.059.06-2.457z" fill="#F9C4C7"/><path d="M75.734 267.612l-2.457-.06-.06 2.457 2.458.06.06-2.457z" fill="#F9C4C7"/><path d="M78.191 267.672l-2.457-.06-.06 2.457 2.458.06.06-2.457zM48.648 269.412l-2.457-.059-.06 2.457 2.458.059.06-2.457z" fill="#F9C4C7"/><path d="M51.105 269.472l-2.457-.06-.06 2.457 2.458.06.06-2.457z" fill="#F9C4C7"/><path d="M53.562 269.531l-2.456-.059-.06 2.457 2.457.059.06-2.457z" fill="#F9C4C7"/><path d="M56.02 269.591l-2.458-.059-.06 2.457 2.458.059.06-2.457z" fill="#F9C4C7"/><path d="M58.477 269.651l-2.457-.06-.06 2.457 2.457.06.06-2.457zM28.933 271.391l-2.456-.059-.06 2.457 2.457.059.06-2.457z" fill="#F9C4C7"/><path d="M31.39 271.451l-2.456-.06-.06 2.457 2.457.06.06-2.457zM36.305 271.57l-2.457-.059-.06 2.457 2.457.059.06-2.457zM43.676 271.75l-2.457-.06-.06 2.457 2.457.06.06-2.457z" fill="#F9C4C7"/><path d="M46.133 271.809l-2.457-.059-.06 2.456 2.457.06.06-2.457zM51.047 271.929l-2.457-.06-.06 2.457 2.457.06.06-2.457z" fill="#F9C4C7"/><path d="M53.504 271.988l-2.457-.059-.06 2.457 2.457.059.06-2.457zM63.332 272.227l-2.457-.06-.06 2.457 2.457.06.06-2.457zM65.789 272.287l-2.457-.059-.06 2.457 2.457.059.06-2.457z" fill="#F9C4C7"/><path d="M68.246 272.347l-2.457-.06-.06 2.457 2.457.06.06-2.457zM73.16 272.466l-2.457-.06-.06 2.457 2.457.06.06-2.457zM75.617 272.526l-2.457-.06-.06 2.457 2.457.06.06-2.457zM36.246 274.027l-2.457-.059-.06 2.457 2.457.059.06-2.457z" fill="#F9C4C7"/><path d="M38.7 274.087l-2.458-.06-.06 2.457 2.457.06.06-2.457zM50.984 274.386l-2.457-.06-.06 2.457 2.458.06.06-2.457z" fill="#F9C4C7"/><path d="M53.441 274.445l-2.457-.059-.06 2.457 2.458.059.06-2.457zM63.27 274.684l-2.458-.059-.06 2.456 2.458.06.06-2.457z" fill="#F9C4C7"/><path d="M65.727 274.744l-2.458-.06-.06 2.457 2.458.06.06-2.457zM70.64 274.863l-2.456-.059-.06 2.457 2.457.059.06-2.457zM75.555 274.983l-2.457-.06-.06 2.457 2.457.06.06-2.457zM28.812 276.305l-2.457-.059-.06 2.457 2.458.059.06-2.457zM33.727 276.424l-2.457-.059-.06 2.457 2.457.059.06-2.457zM36.184 276.485l-2.457-.06-.06 2.457 2.457.059.06-2.456zM41.098 276.604l-2.457-.06-.06 2.457 2.457.06.06-2.457zM43.555 276.664l-2.457-.06-.06 2.457 2.457.06.06-2.457z" fill="#F9C4C7"/><path d="M46.012 276.723l-2.457-.059-.06 2.457 2.457.059.06-2.457zM58.297 277.022l-2.457-.06-.06 2.457 2.457.06.06-2.457zM60.754 277.082l-2.457-.06-.06 2.457 2.457.06.06-2.457zM70.582 277.32l-2.457-.059-.06 2.457 2.457.059.06-2.457zM31.21 278.822l-2.456-.06-.06 2.457 2.457.06.06-2.457z" fill="#F9C4C7"/><path d="M33.668 278.881l-2.457-.059-.06 2.457 2.457.059.06-2.457zM36.125 278.942l-2.457-.06-.06 2.457 2.457.06.06-2.457z" fill="#F9C4C7"/><path d="M38.582 279.001l-2.457-.06-.06 2.457 2.457.06.06-2.457zM45.953 279.18l-2.457-.059-.06 2.457 2.457.059.06-2.457z" fill="#F9C4C7"/><path d="M48.41 279.24l-2.457-.06-.06 2.457 2.457.06.06-2.457z" fill="#F9C4C7"/><path d="M50.867 279.299l-2.457-.059-.06 2.457 2.457.059.06-2.457zM53.324 279.36l-2.457-.06-.06 2.457 2.457.059.06-2.456z" fill="#F9C4C7"/><path d="M55.781 279.419l-2.457-.06-.06 2.457 2.457.06.06-2.457zM65.61 279.658l-2.458-.06-.06 2.457 2.458.06.06-2.457z" fill="#F9C4C7"/><path d="M68.066 279.717l-2.457-.059-.06 2.457 2.458.059.06-2.457zM72.98 279.837l-2.457-.06-.06 2.457 2.458.06.06-2.457z" fill="#F9C4C7"/><path d="M75.437 279.897l-2.456-.06-.06 2.457 2.457.06.06-2.457z" fill="#F9C4C7"/><path d="M77.894 279.957l-2.457-.06-.06 2.457 2.458.06.06-2.457zM36.066 281.398l-2.457-.06-.06 2.457 2.458.06.06-2.457z" fill="#F9C4C7"/><path d="M38.523 281.458l-2.457-.06-.06 2.457 2.458.06.06-2.457zM43.437 281.577l-2.456-.059-.06 2.457 2.457.059.06-2.457zM58.176 281.936l-2.457-.06-.06 2.457 2.457.06.06-2.457zM63.09 282.055l-2.457-.059-.06 2.457 2.457.059.06-2.457z" fill="#F9C4C7"/><path d="M65.547 282.115l-2.457-.06-.06 2.457 2.457.06.06-2.457zM70.46 282.235l-2.456-.06-.06 2.457 2.457.059.06-2.456z" fill="#F9C4C7"/><path d="M72.918 282.294l-2.457-.06-.06 2.457 2.457.06.06-2.457zM75.375 282.354l-2.457-.06-.06 2.457 2.457.06.06-2.457zM48.289 284.154l-2.457-.06-.06 2.457 2.457.06.06-2.457zM50.746 284.214l-2.457-.06-.06 2.457 2.457.059.06-2.456z" fill="#F9C4C7"/><path d="M53.203 284.273l-2.457-.06-.06 2.457 2.457.06.06-2.457z" fill="#F9C4C7"/><path d="M55.66 284.333l-2.457-.06-.06 2.457 2.457.06.06-2.457zM65.488 284.572l-2.457-.06-.06 2.457 2.458.06.06-2.457zM70.402 284.692l-2.457-.06-.06 2.457 2.458.06.06-2.457z" fill="#F9C4C7"/><path d="M72.86 284.751l-2.458-.06-.06 2.457 2.458.06.06-2.457z" fill="#F9C4C7"/><path d="M75.316 284.811l-2.457-.06-.06 2.457 2.458.06.06-2.457zM28.574 286.133l-2.457-.06-.06 2.457 2.457.06.06-2.457z" fill="#F9C4C7"/><path d="M31.031 286.193l-2.457-.06-.06 2.457 2.457.06.06-2.457zM33.488 286.253l-2.457-.06-.06 2.457 2.457.06.06-2.457z" fill="#F9C4C7"/><path d="M35.945 286.312l-2.457-.06-.06 2.457 2.458.06.06-2.457z" fill="#F9C4C7"/><path d="M38.402 286.372l-2.457-.06-.06 2.457 2.458.06.06-2.457z" fill="#F9C4C7"/><path d="M40.86 286.432l-2.458-.06-.06 2.457 2.458.06.06-2.457z" fill="#F9C4C7"/><path d="M43.316 286.491l-2.457-.059-.06 2.457 2.458.059.06-2.457zM48.23 286.611l-2.457-.06-.06 2.457 2.458.06.06-2.457zM53.145 286.73l-2.458-.06-.06 2.457 2.458.06.06-2.457zM60.516 286.909l-2.457-.059-.06 2.457 2.457.059.06-2.457zM67.887 287.089l-2.457-.06-.06 2.457 2.457.06.06-2.457z" fill="#F9C4C7"/><path d="M70.344 287.148l-2.457-.06-.06 2.457 2.457.06.06-2.457zM72.8 287.208l-2.456-.06-.06 2.457 2.457.06.06-2.457zM28.516 288.59l-2.457-.06-.06 2.457 2.457.06.06-2.457zM43.258 288.948l-2.457-.059-.06 2.457 2.457.059.06-2.457zM50.629 289.128l-2.457-.06-.06 2.457 2.457.06.06-2.457zM55.543 289.247l-2.457-.059-.06 2.456 2.457.06.06-2.457zM58 289.307l-2.457-.06-.06 2.457 2.457.06.06-2.457z" fill="#F9C4C7"/><path d="M60.457 289.366L58 289.307l-.06 2.457 2.457.059.06-2.457zM65.371 289.486l-2.457-.06-.06 2.457 2.457.06.06-2.457zM28.457 291.047l-2.457-.06-.06 2.457 2.457.06.06-2.457zM33.367 291.167l-2.457-.06-.06 2.457 2.457.06.06-2.457z" fill="#F9C4C7"/><path d="M35.824 291.226l-2.457-.059-.06 2.456 2.457.06.06-2.457zM38.281 291.286l-2.457-.06-.06 2.457 2.457.06.06-2.457zM43.195 291.405l-2.457-.059-.06 2.457 2.458.059.06-2.457zM50.566 291.585l-2.457-.06-.06 2.457 2.458.06.06-2.457z" fill="#F9C4C7"/><path d="M53.023 291.644l-2.457-.06-.06 2.457 2.458.06.06-2.457z" fill="#F9C4C7"/><path d="M55.48 291.704l-2.457-.06-.06 2.457 2.458.06.06-2.457zM62.852 291.883l-2.457-.06-.06 2.457 2.457.06.06-2.457zM70.223 292.062l-2.457-.06-.06 2.457 2.457.06.06-2.457zM77.594 292.241l-2.457-.059-.06 2.457 2.457.059.06-2.457zM28.395 293.504l-2.457-.06-.06 2.457 2.457.06.06-2.457zM33.309 293.624l-2.457-.06-.06 2.457 2.457.06.06-2.457z" fill="#F9C4C7"/><path d="M35.766 293.683l-2.457-.059-.06 2.456 2.457.06.06-2.457zM38.223 293.743l-2.457-.06-.06 2.457 2.457.06.06-2.457zM43.137 293.862l-2.457-.059-.06 2.457 2.457.059.06-2.457zM48.05 293.982l-2.456-.06-.06 2.457 2.457.06.06-2.457zM50.508 294.042l-2.457-.06-.06 2.457 2.457.06.06-2.457z" fill="#F9C4C7"/><path d="M52.965 294.101l-2.457-.059-.06 2.456 2.457.06.06-2.457z" fill="#F9C4C7"/><path d="M55.422 294.161l-2.457-.06-.06 2.457 2.457.06.06-2.457zM67.707 294.46l-2.457-.06-.06 2.457 2.457.06.06-2.457zM75.078 294.639l-2.457-.06-.06 2.457 2.457.06.06-2.457z" fill="#F9C4C7"/><path d="M77.535 294.698l-2.457-.059-.06 2.457 2.457.059.06-2.457zM28.336 295.961l-2.457-.06-.06 2.457 2.457.06.06-2.457zM33.25 296.08l-2.457-.059-.06 2.456 2.457.06.06-2.457zM35.707 296.14l-2.457-.059-.06 2.457 2.457.059.06-2.457z" fill="#F9C4C7"/><path d="M38.164 296.2l-2.457-.06-.06 2.457 2.457.06.06-2.457zM43.078 296.319l-2.457-.059-.06 2.457 2.457.059.06-2.457zM52.906 296.558l-2.457-.059-.06 2.457 2.457.059.06-2.457zM57.82 296.677l-2.457-.059-.06 2.457 2.458.059.06-2.457zM65.191 296.857l-2.457-.06-.06 2.457 2.458.06.06-2.457z" fill="#F9C4C7"/><path d="M67.648 296.917l-2.457-.06-.06 2.457 2.458.06.06-2.457zM72.562 297.036l-2.456-.06-.06 2.457 2.457.06.06-2.457zM77.477 297.155l-2.458-.059-.06 2.457 2.458.059.06-2.457zM28.277 298.418l-2.457-.06-.06 2.457 2.458.06.06-2.457zM43.016 298.777l-2.457-.06-.06 2.457 2.457.059.06-2.456zM47.934 298.896l-2.457-.06-.06 2.457 2.457.06.06-2.457z" fill="#F9C4C7"/><path d="M50.387 298.955l-2.457-.059-.06 2.456 2.457.06.06-2.457zM60.215 299.194l-2.457-.059-.06 2.457 2.457.059.06-2.457z" fill="#F9C4C7"/><path d="M62.672 299.254l-2.457-.06-.06 2.457 2.457.06.06-2.457zM67.586 299.373l-2.457-.06-.06 2.457 2.457.06.06-2.457zM72.5 299.493l-2.457-.06-.06 2.457 2.457.06.06-2.457zM77.414 299.612l-2.457-.059-.06 2.457 2.457.059.06-2.457zM28.215 300.875l-2.457-.06-.06 2.457 2.457.06.06-2.457zM30.672 300.935l-2.457-.06-.06 2.457 2.457.06.06-2.457z" fill="#F9C4C7"/><path d="M33.129 300.994l-2.457-.059-.06 2.457 2.457.059.06-2.457z" fill="#F9C4C7"/><path d="M35.586 301.054l-2.457-.06-.06 2.457 2.457.06.06-2.457zM38.043 301.114l-2.457-.06-.06 2.457 2.457.06.06-2.457z" fill="#F9C4C7"/><path d="M40.5 301.173l-2.457-.059-.06 2.457 2.457.059.06-2.457z" fill="#F9C4C7"/><path d="M42.957 301.233l-2.457-.06-.06 2.457 2.457.06.06-2.457zM47.871 301.353l-2.457-.06-.06 2.457 2.457.06.06-2.457zM55.242 301.532l-2.457-.06-.06 2.457 2.457.06.06-2.457zM57.7 301.591l-2.458-.059-.06 2.457 2.457.059.06-2.457zM67.527 301.83l-2.457-.059-.06 2.456 2.458.06.06-2.457z" fill="#F9C4C7"/><path d="M69.984 301.89l-2.457-.059-.06 2.457 2.458.059.06-2.457z" fill="#F9C4C7"/><path d="M72.441 301.95l-2.457-.06-.06 2.457 2.458.06.06-2.457z" fill="#F9C4C7"/></g><path d="M270.543 201.964l3.411-6.069 169.589-1.931v6.897l-173 1.103zM443.543 222.964l-3.411 6.069-169.589 1.931v-6.896l173-1.104zM270.543 262.964l3.234-6.069 160.766-1.931v6.897l-164 1.103z" fill="#E26C73"/></g><defs><clipPath id="clip0"><path fill="#fff" transform="rotate(1.392 -10138.392 1035.224)" d="M0 0h61.442v61.442H0z"/></clipPath><filter id="filter0_d" x=".543" y=".464" width="508.457" height="331" filterUnits="userSpaceOnUse" color-interpolation-filters="sRGB"><feFlood flood-opacity="0" result="BackgroundImageFix"/><feColorMatrix in="SourceAlpha" values="0 0 0 0 0 0 0 0 0 0 0 0 0 0 0 0 0 0 127 0"/><feOffset/><feGaussianBlur stdDeviation="5"/><feColorMatrix values="0 0 0 0 0 0 0 0 0 0 0 0 0 0 0 0 0 0 0.25 0"/><feBlend in2="BackgroundImageFix" result="effect1_dropShadow"/><feBlend in="SourceGraphic" in2="effect1_dropShadow" result="shape"/></filter></defs></svg>