<svg width="509" height="332" viewBox="0 0 509 332" fill="none" xmlns="http://www.w3.org/2000/svg">
<g filter="url(#filter0_d)">
<path d="M10.543 18.9644L487.043 10.4644L498.543 321.464H10.543V18.9644Z" fill="#F0757C"/>
<path fill-rule="evenodd" clip-rule="evenodd" d="M239.362 14.8826L10.543 18.9644L10.543 321.464L190.546 321.464L239.362 14.8826Z" fill="#EB6D73"/>
<path fill-rule="evenodd" clip-rule="evenodd" d="M496.029 241.104L499 321.458H11V192.877L26.5802 212.605L19.5725 214.445L21.1298 238.37L34.3664 216.286L39.8168 215.059L103.664 213.218V196.042L106 188.067L110.672 150.647L113.008 150.034L113.786 185.613L119.237 195.429L122.351 185.613L127.802 152.487L135.588 74.5798H138.702L141.038 100.345L144.153 145.126L151.16 191.134L155.053 174.571L157.389 145.126L159.725 145.74L160.504 165.983L163.618 184.387L169.069 193.588L165.954 194.815L165.176 254.319L170.626 259.227L179.191 248.798L175.298 249.412C175.298 249.412 173.74 244.504 173.74 243.891C173.74 243.277 183.863 243.277 183.863 243.277L187.756 235.916L183.084 236.529L182.305 232.849L189.313 232.235L190.092 224.261L189.313 221.807L194.763 218.126L198.656 221.807L194.763 225.487L197.099 232.849L204.107 231.622L208 237.143L199.435 238.37L204.885 244.504L211.115 243.277L215.008 246.958L220.458 242.664H233.695L234.473 226.714L243.038 217.513L242.26 211.378L244.595 210.765L243.817 205.857L246.153 204.017L246.931 191.748L248.489 202.176L250.824 204.017V208.924L254.718 211.378V216.286L267.176 227.328L267.954 185L265.618 181.933L270.29 170.277L272.626 142.059L278.076 172.118L290.534 110.773L298.321 39L300.656 82.5546L302.992 122.429L306.107 147.58L311.557 166.597C311.557 166.597 314.672 139.605 315.45 139.605C316.229 139.605 318.565 167.824 318.565 167.824L322.458 182.546L320.901 206.471L329.466 205.857L330.244 183.16L333.359 166.597L338.031 140.832L341.145 173.345L350.489 121.202L356.718 50.042L360.611 48.2017L361.389 119.975L373.847 168.437L376.962 150.647L379.298 137.765L380.076 155.555L387.084 186.227L386.305 209.538L398.763 226.714L397.206 238.983L411.221 240.21L417.45 245.118L436.916 231.008L437.695 207.697L433.802 205.857L435.359 201.563L434.58 182.546L438.473 169.664L443.145 146.353L443.924 167.824L448.595 176.412L455.603 135.311L456.382 131.63L458.718 131.017L462.611 132.857L460.275 139.605L468.061 175.798L484.412 207.084L481.298 207.697L478.962 228.555L496.029 241.104Z" fill="#EB6D73"/>
<path fill-rule="evenodd" clip-rule="evenodd" d="M426.302 30.7399C424.969 30.7706 423.864 29.9884 423.789 28.9789L422.79 29.0019C422.761 30.0138 421.693 30.846 420.36 30.8766C419.028 30.9073 417.923 30.1251 417.848 29.1155L416.857 29.1383C416.828 30.1503 415.76 30.9824 414.428 31.0131C413.096 31.0437 411.991 30.2616 411.915 29.252L410.921 29.2749C410.923 29.2998 410.924 29.3249 410.925 29.3502C410.948 30.3724 409.91 31.2299 408.588 31.2977L408.606 32.0579C409.929 32.0649 411.006 32.8737 411.029 33.896C411.053 34.9182 410.015 35.7757 408.693 35.8435L408.71 36.6042C410.034 36.6112 411.11 37.42 411.134 38.4423C411.157 39.4645 410.119 40.322 408.797 40.3898L408.815 41.1495C410.138 41.1565 411.215 41.9653 411.238 42.9875C411.262 44.0098 410.224 44.8672 408.902 44.9351L408.919 45.6958C410.243 45.7028 411.319 46.5116 411.343 47.5338C411.367 48.5561 410.328 49.4135 409.007 49.4814L409.024 50.2421C410.348 50.2491 411.424 51.0579 411.448 52.0801C411.471 53.1024 410.433 53.9598 409.111 54.0277L409.129 54.7873C410.452 54.7944 411.529 55.6032 411.552 56.6254C411.576 57.6477 410.538 58.5051 409.216 58.573L409.233 59.3336C410.557 59.3407 411.633 60.1495 411.657 61.1717C411.68 62.194 410.642 63.0514 409.32 63.1193L409.338 63.8794C410.661 63.8864 411.738 64.6952 411.761 65.7175C411.785 66.7398 410.747 67.5972 409.425 67.6651L409.442 68.4257C410.766 68.4327 411.842 69.2415 411.866 70.2638C411.889 71.2861 410.851 72.1435 409.529 72.2114L409.547 72.9715C410.87 72.9785 411.947 73.7873 411.97 74.8096C411.994 75.8319 410.956 76.6893 409.634 76.7572L409.651 77.5173C410.975 77.5243 412.052 78.3331 412.075 79.3554C412.099 80.3776 411.06 81.2351 409.739 81.303L409.756 82.0631C411.08 82.0701 412.156 82.8789 412.18 83.9012C412.203 84.9234 411.165 85.7809 409.843 85.8487L409.861 86.6094C411.184 86.6164 412.261 87.4252 412.284 88.4475C412.308 89.4697 411.27 90.3272 409.948 90.395L409.965 91.1552C411.289 91.1622 412.365 91.971 412.389 92.9933C412.412 94.0155 411.374 94.873 410.052 94.9408L410.07 95.7015C411.393 95.7085 412.47 96.5173 412.493 97.5396C412.517 98.5618 411.479 99.4193 410.157 99.4871L410.174 100.247C411.498 100.254 412.574 101.063 412.598 102.085C412.621 103.108 411.583 103.965 410.261 104.033L410.279 104.794C411.603 104.801 412.679 105.609 412.702 106.632C412.726 107.654 411.688 108.511 410.366 108.579L410.383 109.339C411.707 109.346 412.784 110.155 412.807 111.177C412.808 111.202 412.808 111.228 412.807 111.253L413.801 111.23C413.799 111.205 413.798 111.18 413.797 111.154C413.773 110.108 414.861 109.235 416.227 109.203C417.592 109.172 418.719 109.994 418.743 111.04C418.744 111.066 418.744 111.091 418.743 111.117L419.733 111.094C419.732 111.069 419.73 111.043 419.73 111.018C419.706 109.972 420.793 109.098 422.159 109.067C423.525 109.035 424.652 109.858 424.676 110.904C424.676 110.915 424.676 110.926 424.676 110.936C424.676 110.951 424.676 110.966 424.675 110.98L425.675 110.957C425.673 110.932 425.672 110.907 425.671 110.881C425.647 109.835 426.735 108.961 428.101 108.93C429.466 108.899 430.593 109.721 430.617 110.767C430.618 110.793 430.618 110.818 430.617 110.844L431.607 110.821C431.605 110.796 431.604 110.77 431.604 110.745C431.58 109.698 432.667 108.825 434.033 108.793C435.399 108.762 436.525 109.585 436.55 110.631C436.55 110.656 436.55 110.682 436.549 110.707L437.54 110.684L437.539 110.675L437.538 110.659L437.537 110.645C437.537 110.633 437.536 110.62 437.536 110.608C437.512 109.562 438.6 108.688 439.965 108.657C441.331 108.626 442.458 109.448 442.482 110.494C442.483 110.52 442.483 110.545 442.482 110.571L443.472 110.548C443.47 110.523 443.469 110.497 443.469 110.472C443.445 109.425 444.532 108.552 445.898 108.521C447.264 108.489 448.39 109.312 448.415 110.358C448.415 110.383 448.415 110.409 448.414 110.434L449.409 110.411C449.408 110.399 449.408 110.388 449.407 110.376C449.406 110.362 449.406 110.349 449.406 110.335C449.381 109.289 450.469 108.415 451.835 108.384C453.201 108.353 454.327 109.175 454.351 110.221C454.352 110.247 454.352 110.272 454.351 110.298L455.346 110.275C455.344 110.249 455.343 110.224 455.342 110.198C455.318 109.152 456.406 108.279 457.772 108.247C459.138 108.216 460.264 109.039 460.288 110.085C460.289 110.11 460.289 110.136 460.288 110.161L461.279 110.138C461.277 110.113 461.276 110.088 461.275 110.062C461.251 109.016 462.339 108.142 463.704 108.111C465.07 108.08 466.197 108.902 466.221 109.948C466.221 109.961 466.221 109.973 466.221 109.986C466.221 109.999 466.221 110.012 466.221 110.025L467.216 110.002C467.214 109.976 467.213 109.951 467.213 109.925C467.189 108.879 468.276 108.006 469.642 107.974C469.673 107.974 469.704 107.973 469.735 107.974L469.718 107.214C469.687 107.215 469.656 107.217 469.625 107.217C468.259 107.249 467.132 106.426 467.108 105.38C467.084 104.334 468.172 103.46 469.537 103.429C469.556 103.429 469.574 103.428 469.592 103.428C469.605 103.428 469.617 103.428 469.63 103.428L469.613 102.668C469.582 102.669 469.551 102.67 469.52 102.671C468.154 102.702 467.027 101.88 467.003 100.834C466.979 99.7877 468.067 98.9142 469.433 98.8828C469.449 98.8824 469.465 98.8821 469.481 98.882C469.496 98.8819 469.511 98.8819 469.526 98.8819L469.508 98.1218C469.478 98.1234 469.447 98.1245 469.415 98.1253C468.05 98.1567 466.923 97.3341 466.899 96.288C466.875 95.2419 467.962 94.3684 469.328 94.337C469.359 94.3363 469.39 94.336 469.421 94.3362L469.404 93.5755L469.375 93.5769L469.346 93.578L469.311 93.579C467.945 93.6104 466.818 92.7878 466.794 91.7417C466.77 90.6956 467.858 89.8221 469.224 89.7907C469.255 89.79 469.286 89.7897 469.317 89.7899L469.299 89.0297C469.268 89.0313 469.237 89.0325 469.206 89.0332C467.84 89.0646 466.714 88.242 466.69 87.1959C466.666 86.1498 467.753 85.2763 469.119 85.2449C469.15 85.2442 469.181 85.2439 469.212 85.2441L469.195 84.4834C469.164 84.485 469.133 84.4862 469.102 84.4869C467.736 84.5183 466.609 83.6957 466.585 82.6496C466.561 81.6035 467.649 80.73 469.015 80.6986C469.046 80.6979 469.077 80.6976 469.108 80.6978L469.09 79.9376C469.059 79.9392 469.028 79.9404 468.997 79.9411C467.631 79.9725 466.505 79.1499 466.481 78.1038C466.456 77.0577 467.544 76.1842 468.91 76.1528C468.941 76.1521 468.972 76.1518 469.003 76.152L468.985 75.3918C468.955 75.3934 468.924 75.3946 468.893 75.3953C467.527 75.4267 466.4 74.6042 466.376 73.558C466.352 72.5119 467.44 71.6384 468.805 71.607C468.837 71.6063 468.868 71.606 468.898 71.6062L468.881 70.8461C468.85 70.8476 468.819 70.8488 468.788 70.8495C467.422 70.8809 466.295 70.0584 466.271 69.0123C466.247 67.9661 467.335 67.0926 468.701 67.0612L468.734 67.0606C468.754 67.0604 468.774 67.0603 468.794 67.0604L468.776 66.2998C468.76 66.3006 468.744 66.3013 468.728 66.3019C468.713 66.3024 468.698 66.3029 468.683 66.3032C467.318 66.3346 466.191 65.5121 466.167 64.466C466.143 63.4199 467.23 62.5464 468.596 62.5149C468.627 62.5142 468.658 62.5139 468.689 62.5141L468.672 61.754C468.641 61.7556 468.61 61.7567 468.579 61.7574C467.213 61.7888 466.086 60.9663 466.062 59.9202C466.038 58.8741 467.126 58.0006 468.492 57.9691C468.523 57.9684 468.554 57.9682 468.585 57.9683L468.567 57.2077C468.536 57.2093 468.505 57.2104 468.474 57.2111C467.108 57.2425 465.982 56.42 465.958 55.3739C465.934 54.3278 467.021 53.4543 468.387 53.4228C468.418 53.4221 468.449 53.4219 468.48 53.422L468.463 52.6624C468.432 52.664 468.401 52.6651 468.37 52.6658C467.004 52.6973 465.877 51.8747 465.853 50.8286C465.829 49.7825 466.917 48.909 468.283 48.8776L468.319 48.8769L468.342 48.8767L468.376 48.8767L468.358 48.1161C468.327 48.1177 468.296 48.1188 468.265 48.1195C466.899 48.151 465.773 47.3284 465.749 46.2823C465.724 45.2362 466.812 44.3627 468.178 44.3313C468.209 44.3305 468.24 44.3303 468.271 44.3304L468.253 43.5698C468.223 43.5714 468.192 43.5725 468.16 43.5733C466.795 43.6047 465.668 42.7821 465.644 41.736C465.62 40.6899 466.708 39.8164 468.073 39.785C468.104 39.7843 468.135 39.784 468.166 39.7841L468.149 39.0245C468.118 39.0261 468.087 39.0273 468.056 39.028C466.69 39.0594 465.563 38.2368 465.539 37.1907C465.515 36.1446 466.603 35.2711 467.969 35.2397C468 35.239 468.031 35.2387 468.062 35.2389L468.044 34.4782C468.013 34.4798 467.982 34.481 467.951 34.4817C466.586 34.5131 465.459 33.6905 465.435 32.6444C465.411 31.5983 466.498 30.7248 467.864 30.6934C467.895 30.6927 467.926 30.6924 467.957 30.6926L467.94 29.9324C467.909 29.934 467.878 29.9352 467.847 29.9359C466.481 29.9673 465.354 29.1447 465.33 28.0986C465.33 28.0734 465.33 28.0483 465.33 28.0233L464.335 28.0462C464.306 29.0581 463.238 29.8903 461.906 29.9209C460.573 29.9516 459.468 29.1694 459.393 28.1598L458.402 28.1826C458.373 29.1946 457.306 30.0267 455.973 30.0574C454.641 30.088 453.536 29.3059 453.46 28.2963L452.465 28.3192C452.436 29.3312 451.369 30.1633 450.036 30.194C448.704 30.2246 447.599 29.4424 447.523 28.4329L446.528 28.4558C446.5 29.4677 445.432 30.2999 444.099 30.3305C442.767 30.3612 441.662 29.579 441.586 28.5695L440.596 28.5922C440.567 29.6042 439.499 30.4363 438.167 30.467C436.834 30.4977 435.729 29.7155 435.654 28.7059L434.664 28.7287C434.635 29.7407 433.567 30.5728 432.234 30.6035C430.902 30.6341 429.797 29.852 429.721 28.8424L428.731 28.8652C428.702 29.8772 427.634 30.7093 426.302 30.7399Z" fill="#D16369"/>
<path d="M459.224 35.3249L418.776 36.2553L418.826 103.118L462.465 102.951L459.224 35.3249Z" fill="#EB7077"/>
<g clip-path="url(#clip0)">
<rect width="61.4424" height="61.4424" transform="translate(22.1602 246.643) rotate(1.39228)" fill="#F0757C"/>
<path d="M83.5844 248.135L22.1602 246.643L20.6673 308.067L82.0915 309.56L83.5844 248.135Z" fill="#DE6D74"/>
<path d="M29.4101 251.735L26.9531 251.676L26.8934 254.133L29.3504 254.192L29.4101 251.735Z" fill="#F9C4C7"/>
<path d="M31.8671 251.795L29.4102 251.735L29.3504 254.192L31.8074 254.252L31.8671 251.795Z" fill="#F9C4C7"/>
<path d="M34.3242 251.855L31.8672 251.795L31.8075 254.252L34.2644 254.312L34.3242 251.855Z" fill="#F9C4C7"/>
<path d="M36.7812 251.915L34.3242 251.855L34.2645 254.312L36.7215 254.372L36.7812 251.915Z" fill="#F9C4C7"/>
<path d="M39.2382 251.974L36.7812 251.915L36.7215 254.372L39.1785 254.431L39.2382 251.974Z" fill="#F9C4C7"/>
<path d="M41.6953 252.034L39.2383 251.975L39.1786 254.432L41.6355 254.491L41.6953 252.034Z" fill="#F9C4C7"/>
<path d="M44.1523 252.094L41.6953 252.034L41.6356 254.491L44.0926 254.551L44.1523 252.094Z" fill="#F9C4C7"/>
<path d="M51.5234 252.273L49.0664 252.213L49.0067 254.67L51.4637 254.73L51.5234 252.273Z" fill="#F9C4C7"/>
<path d="M56.4374 252.392L53.9805 252.333L53.9208 254.789L56.3777 254.849L56.4374 252.392Z" fill="#F9C4C7"/>
<path d="M58.8945 252.452L56.4375 252.393L56.3778 254.85L58.8347 254.909L58.8945 252.452Z" fill="#F9C4C7"/>
<path d="M63.8085 252.571L61.3516 252.512L61.2918 254.969L63.7488 255.028L63.8085 252.571Z" fill="#F9C4C7"/>
<path d="M66.2656 252.631L63.8086 252.572L63.7489 255.029L66.2058 255.088L66.2656 252.631Z" fill="#F9C4C7"/>
<path d="M68.7226 252.691L66.2656 252.631L66.2059 255.088L68.6629 255.148L68.7226 252.691Z" fill="#F9C4C7"/>
<path d="M71.1796 252.751L68.7227 252.691L68.6629 255.148L71.1199 255.208L71.1796 252.751Z" fill="#F9C4C7"/>
<path d="M73.6366 252.811L71.1797 252.751L71.12 255.208L73.5769 255.268L73.6366 252.811Z" fill="#F9C4C7"/>
<path d="M76.0937 252.87L73.6367 252.811L73.577 255.268L76.034 255.327L76.0937 252.87Z" fill="#F9C4C7"/>
<path d="M78.5507 252.93L76.0938 252.87L76.034 255.327L78.491 255.387L78.5507 252.93Z" fill="#F9C4C7"/>
<path d="M29.3515 254.193L26.8945 254.133L26.8348 256.59L29.2918 256.649L29.3515 254.193Z" fill="#F9C4C7"/>
<path d="M44.0937 254.551L41.6367 254.491L41.577 256.948L44.034 257.008L44.0937 254.551Z" fill="#F9C4C7"/>
<path d="M49.0078 254.67L46.5508 254.61L46.4911 257.067L48.948 257.127L49.0078 254.67Z" fill="#F9C4C7"/>
<path d="M51.4648 254.73L49.0078 254.67L48.9481 257.127L51.4051 257.187L51.4648 254.73Z" fill="#F9C4C7"/>
<path d="M56.3789 254.849L53.9219 254.79L53.8622 257.247L56.3191 257.306L56.3789 254.849Z" fill="#F9C4C7"/>
<path d="M63.7499 255.028L61.293 254.969L61.2333 257.426L63.6902 257.485L63.7499 255.028Z" fill="#F9C4C7"/>
<path d="M78.4882 255.387L76.0312 255.327L75.9715 257.784L78.4285 257.844L78.4882 255.387Z" fill="#F9C4C7"/>
<path d="M29.289 256.65L26.832 256.59L26.7723 259.047L29.2293 259.107L29.289 256.65Z" fill="#F9C4C7"/>
<path d="M34.207 256.769L31.75 256.709L31.6903 259.166L34.1473 259.226L34.207 256.769Z" fill="#F9C4C7"/>
<path d="M36.6601 256.829L34.2031 256.769L34.1434 259.226L36.6004 259.286L36.6601 256.829Z" fill="#F9C4C7"/>
<path d="M39.1171 256.888L36.6602 256.829L36.6004 259.286L39.0574 259.345L39.1171 256.888Z" fill="#F9C4C7"/>
<path d="M44.0312 257.008L41.5742 256.948L41.5145 259.405L43.9715 259.465L44.0312 257.008Z" fill="#F9C4C7"/>
<path d="M48.9453 257.127L46.4883 257.067L46.4286 259.524L48.8855 259.584L48.9453 257.127Z" fill="#F9C4C7"/>
<path d="M51.4023 257.187L48.9453 257.127L48.8856 259.584L51.3426 259.644L51.4023 257.187Z" fill="#F9C4C7"/>
<path d="M58.7734 257.366L56.3164 257.306L56.2567 259.763L58.7137 259.823L58.7734 257.366Z" fill="#F9C4C7"/>
<path d="M63.6874 257.485L61.2305 257.426L61.1708 259.883L63.6277 259.942L63.6874 257.485Z" fill="#F9C4C7"/>
<path d="M68.6015 257.605L66.1445 257.545L66.0848 260.002L68.5418 260.062L68.6015 257.605Z" fill="#F9C4C7"/>
<path d="M71.0585 257.665L68.6016 257.605L68.5418 260.062L70.9988 260.122L71.0585 257.665Z" fill="#F9C4C7"/>
<path d="M73.5156 257.724L71.0586 257.665L70.9989 260.122L73.4558 260.181L73.5156 257.724Z" fill="#F9C4C7"/>
<path d="M78.4296 257.844L75.9727 257.784L75.9129 260.241L78.3699 260.301L78.4296 257.844Z" fill="#F9C4C7"/>
<path d="M29.2304 259.107L26.7734 259.047L26.7137 261.504L29.1707 261.564L29.2304 259.107Z" fill="#F9C4C7"/>
<path d="M34.1445 259.226L31.6875 259.166L31.6278 261.623L34.0848 261.683L34.1445 259.226Z" fill="#F9C4C7"/>
<path d="M36.6015 259.286L34.1445 259.226L34.0848 261.683L36.5418 261.743L36.6015 259.286Z" fill="#F9C4C7"/>
<path d="M39.0585 259.345L36.6016 259.286L36.5418 261.743L38.9988 261.802L39.0585 259.345Z" fill="#F9C4C7"/>
<path d="M43.9726 259.465L41.5156 259.405L41.4559 261.862L43.9129 261.922L43.9726 259.465Z" fill="#F9C4C7"/>
<path d="M51.3437 259.644L48.8867 259.584L48.827 262.041L51.284 262.101L51.3437 259.644Z" fill="#F9C4C7"/>
<path d="M56.2578 259.763L53.8008 259.704L53.7411 262.161L56.198 262.22L56.2578 259.763Z" fill="#F9C4C7"/>
<path d="M63.6288 259.943L61.1719 259.883L61.1122 262.34L63.5691 262.399L63.6288 259.943Z" fill="#F9C4C7"/>
<path d="M68.5429 260.062L66.0859 260.002L66.0262 262.459L68.4832 262.519L68.5429 260.062Z" fill="#F9C4C7"/>
<path d="M70.9999 260.122L68.543 260.062L68.4833 262.519L70.9402 262.579L70.9999 260.122Z" fill="#F9C4C7"/>
<path d="M73.457 260.181L71 260.122L70.9403 262.579L73.3972 262.638L73.457 260.181Z" fill="#F9C4C7"/>
<path d="M78.371 260.301L75.9141 260.241L75.8543 262.698L78.3113 262.758L78.371 260.301Z" fill="#F9C4C7"/>
<path d="M29.1718 261.564L26.7148 261.504L26.6551 263.961L29.1121 264.021L29.1718 261.564Z" fill="#F9C4C7"/>
<path d="M34.0859 261.683L31.6289 261.623L31.5692 264.08L34.0262 264.14L34.0859 261.683Z" fill="#F9C4C7"/>
<path d="M36.5429 261.743L34.0859 261.683L34.0262 264.14L36.4832 264.2L36.5429 261.743Z" fill="#F9C4C7"/>
<path d="M38.9999 261.802L36.543 261.743L36.4833 264.2L38.9402 264.259L38.9999 261.802Z" fill="#F9C4C7"/>
<path d="M43.914 261.922L41.457 261.862L41.3973 264.319L43.8543 264.379L43.914 261.922Z" fill="#F9C4C7"/>
<path d="M48.8281 262.041L46.3711 261.981L46.3114 264.438L48.7683 264.498L48.8281 262.041Z" fill="#F9C4C7"/>
<path d="M58.6562 262.28L56.1992 262.22L56.1395 264.677L58.5965 264.737L58.6562 262.28Z" fill="#F9C4C7"/>
<path d="M63.5703 262.4L61.1133 262.34L61.0536 264.797L63.5105 264.857L63.5703 262.4Z" fill="#F9C4C7"/>
<path d="M68.4843 262.519L66.0273 262.459L65.9676 264.916L68.4246 264.976L68.4843 262.519Z" fill="#F9C4C7"/>
<path d="M70.9413 262.579L68.4844 262.519L68.4247 264.976L70.8816 265.036L70.9413 262.579Z" fill="#F9C4C7"/>
<path d="M73.3984 262.638L70.9414 262.579L70.8817 265.036L73.3387 265.095L73.3984 262.638Z" fill="#F9C4C7"/>
<path d="M78.3124 262.757L75.8555 262.698L75.7958 265.155L78.2527 265.214L78.3124 262.757Z" fill="#F9C4C7"/>
<path d="M29.1132 264.02L26.6562 263.96L26.5965 266.417L29.0535 266.477L29.1132 264.02Z" fill="#F9C4C7"/>
<path d="M43.8554 264.379L41.3984 264.319L41.3387 266.776L43.7957 266.836L43.8554 264.379Z" fill="#F9C4C7"/>
<path d="M48.7656 264.498L46.3086 264.438L46.2489 266.895L48.7058 266.955L48.7656 264.498Z" fill="#F9C4C7"/>
<path d="M56.1406 264.677L53.6836 264.618L53.6239 267.075L56.0809 267.134L56.1406 264.677Z" fill="#F9C4C7"/>
<path d="M58.5937 264.737L56.1367 264.677L56.077 267.134L58.534 267.194L58.5937 264.737Z" fill="#F9C4C7"/>
<path d="M63.5078 264.857L61.0508 264.797L60.9911 267.254L63.448 267.314L63.5078 264.857Z" fill="#F9C4C7"/>
<path d="M78.2499 265.215L75.793 265.155L75.7333 267.612L78.1902 267.671L78.2499 265.215Z" fill="#F9C4C7"/>
<path d="M29.0507 266.477L26.5938 266.417L26.534 268.874L28.991 268.934L29.0507 266.477Z" fill="#F9C4C7"/>
<path d="M31.5077 266.537L29.0508 266.478L28.9911 268.935L31.448 268.994L31.5077 266.537Z" fill="#F9C4C7"/>
<path d="M33.9648 266.597L31.5078 266.537L31.4481 268.994L33.9051 269.054L33.9648 266.597Z" fill="#F9C4C7"/>
<path d="M36.4218 266.656L33.9648 266.597L33.9051 269.054L36.3621 269.113L36.4218 266.656Z" fill="#F9C4C7"/>
<path d="M38.8788 266.716L36.4219 266.656L36.3622 269.113L38.8191 269.173L38.8788 266.716Z" fill="#F9C4C7"/>
<path d="M41.3359 266.776L38.8789 266.716L38.8192 269.173L41.2762 269.233L41.3359 266.776Z" fill="#F9C4C7"/>
<path d="M43.7929 266.836L41.3359 266.776L41.2762 269.233L43.7332 269.293L43.7929 266.836Z" fill="#F9C4C7"/>
<path d="M48.707 266.955L46.25 266.896L46.1903 269.352L48.6473 269.412L48.707 266.955Z" fill="#F9C4C7"/>
<path d="M53.621 267.074L51.1641 267.015L51.1043 269.472L53.5613 269.531L53.621 267.074Z" fill="#F9C4C7"/>
<path d="M58.5351 267.194L56.0781 267.134L56.0184 269.591L58.4754 269.651L58.5351 267.194Z" fill="#F9C4C7"/>
<path d="M63.4492 267.313L60.9922 267.253L60.9325 269.71L63.3894 269.77L63.4492 267.313Z" fill="#F9C4C7"/>
<path d="M65.9062 267.373L63.4492 267.313L63.3895 269.77L65.8465 269.83L65.9062 267.373Z" fill="#F9C4C7"/>
<path d="M68.3632 267.433L65.9062 267.373L65.8465 269.83L68.3035 269.89L68.3632 267.433Z" fill="#F9C4C7"/>
<path d="M70.8203 267.492L68.3633 267.433L68.3036 269.89L70.7605 269.949L70.8203 267.492Z" fill="#F9C4C7"/>
<path d="M73.2773 267.552L70.8203 267.493L70.7606 269.95L73.2176 270.009L73.2773 267.552Z" fill="#F9C4C7"/>
<path d="M75.7343 267.612L73.2773 267.552L73.2176 270.009L75.6746 270.069L75.7343 267.612Z" fill="#F9C4C7"/>
<path d="M78.1913 267.672L75.7344 267.612L75.6747 270.069L78.1316 270.129L78.1913 267.672Z" fill="#F9C4C7"/>
<path d="M48.6484 269.412L46.1914 269.353L46.1317 271.81L48.5887 271.869L48.6484 269.412Z" fill="#F9C4C7"/>
<path d="M51.1054 269.472L48.6484 269.412L48.5887 271.869L51.0457 271.929L51.1054 269.472Z" fill="#F9C4C7"/>
<path d="M53.5624 269.531L51.1055 269.472L51.0458 271.929L53.5027 271.988L53.5624 269.531Z" fill="#F9C4C7"/>
<path d="M56.0195 269.591L53.5625 269.532L53.5028 271.989L55.9598 272.048L56.0195 269.591Z" fill="#F9C4C7"/>
<path d="M58.4765 269.651L56.0195 269.591L55.9598 272.048L58.4168 272.108L58.4765 269.651Z" fill="#F9C4C7"/>
<path d="M28.9335 271.391L26.4766 271.332L26.4168 273.789L28.8738 273.848L28.9335 271.391Z" fill="#F9C4C7"/>
<path d="M31.3906 271.451L28.9336 271.391L28.8739 273.848L31.3308 273.908L31.3906 271.451Z" fill="#F9C4C7"/>
<path d="M36.3046 271.57L33.8477 271.511L33.7879 273.968L36.2449 274.027L36.3046 271.57Z" fill="#F9C4C7"/>
<path d="M43.6757 271.75L41.2188 271.69L41.159 274.147L43.616 274.207L43.6757 271.75Z" fill="#F9C4C7"/>
<path d="M46.1327 271.809L43.6758 271.75L43.6161 274.206L46.073 274.266L46.1327 271.809Z" fill="#F9C4C7"/>
<path d="M51.0468 271.929L48.5898 271.869L48.5301 274.326L50.9871 274.386L51.0468 271.929Z" fill="#F9C4C7"/>
<path d="M53.5038 271.988L51.0469 271.929L50.9872 274.386L53.4441 274.445L53.5038 271.988Z" fill="#F9C4C7"/>
<path d="M63.332 272.227L60.875 272.167L60.8153 274.624L63.2723 274.684L63.332 272.227Z" fill="#F9C4C7"/>
<path d="M65.789 272.287L63.332 272.228L63.2723 274.685L65.7293 274.744L65.789 272.287Z" fill="#F9C4C7"/>
<path d="M68.246 272.347L65.7891 272.287L65.7293 274.744L68.1863 274.804L68.246 272.347Z" fill="#F9C4C7"/>
<path d="M73.1601 272.466L70.7031 272.406L70.6434 274.863L73.1004 274.923L73.1601 272.466Z" fill="#F9C4C7"/>
<path d="M75.6171 272.526L73.1602 272.466L73.1004 274.923L75.5574 274.983L75.6171 272.526Z" fill="#F9C4C7"/>
<path d="M36.246 274.027L33.7891 273.968L33.7293 276.425L36.1863 276.484L36.246 274.027Z" fill="#F9C4C7"/>
<path d="M38.6992 274.087L36.2422 274.027L36.1825 276.484L38.6394 276.544L38.6992 274.087Z" fill="#F9C4C7"/>
<path d="M50.9843 274.386L48.5273 274.326L48.4676 276.783L50.9246 276.843L50.9843 274.386Z" fill="#F9C4C7"/>
<path d="M53.4413 274.445L50.9844 274.386L50.9247 276.843L53.3816 276.902L53.4413 274.445Z" fill="#F9C4C7"/>
<path d="M63.2695 274.684L60.8125 274.625L60.7528 277.081L63.2098 277.141L63.2695 274.684Z" fill="#F9C4C7"/>
<path d="M65.7265 274.744L63.2695 274.684L63.2098 277.141L65.6668 277.201L65.7265 274.744Z" fill="#F9C4C7"/>
<path d="M70.6406 274.863L68.1836 274.804L68.1239 277.261L70.5808 277.32L70.6406 274.863Z" fill="#F9C4C7"/>
<path d="M75.5546 274.983L73.0977 274.923L73.0379 277.38L75.4949 277.44L75.5546 274.983Z" fill="#F9C4C7"/>
<path d="M28.8124 276.305L26.3555 276.246L26.2958 278.703L28.7527 278.762L28.8124 276.305Z" fill="#F9C4C7"/>
<path d="M33.7265 276.424L31.2695 276.365L31.2098 278.822L33.6668 278.881L33.7265 276.424Z" fill="#F9C4C7"/>
<path d="M36.1835 276.485L33.7266 276.425L33.6668 278.882L36.1238 278.941L36.1835 276.485Z" fill="#F9C4C7"/>
<path d="M41.0976 276.604L38.6406 276.544L38.5809 279.001L41.0379 279.061L41.0976 276.604Z" fill="#F9C4C7"/>
<path d="M43.5546 276.664L41.0977 276.604L41.0379 279.061L43.4949 279.121L43.5546 276.664Z" fill="#F9C4C7"/>
<path d="M46.0117 276.723L43.5547 276.664L43.495 279.121L45.9519 279.18L46.0117 276.723Z" fill="#F9C4C7"/>
<path d="M58.2968 277.022L55.8398 276.962L55.7801 279.419L58.2371 279.479L58.2968 277.022Z" fill="#F9C4C7"/>
<path d="M60.7538 277.082L58.2969 277.022L58.2372 279.479L60.6941 279.539L60.7538 277.082Z" fill="#F9C4C7"/>
<path d="M70.582 277.32L68.125 277.261L68.0653 279.718L70.5223 279.777L70.582 277.32Z" fill="#F9C4C7"/>
<path d="M31.2109 278.822L28.7539 278.762L28.6942 281.219L31.1512 281.279L31.2109 278.822Z" fill="#F9C4C7"/>
<path d="M33.6679 278.881L31.2109 278.822L31.1512 281.279L33.6082 281.338L33.6679 278.881Z" fill="#F9C4C7"/>
<path d="M36.1249 278.942L33.668 278.882L33.6083 281.339L36.0652 281.399L36.1249 278.942Z" fill="#F9C4C7"/>
<path d="M38.582 279.001L36.125 278.941L36.0653 281.398L38.5223 281.458L38.582 279.001Z" fill="#F9C4C7"/>
<path d="M45.9531 279.18L43.4961 279.121L43.4364 281.578L45.8933 281.637L45.9531 279.18Z" fill="#F9C4C7"/>
<path d="M48.4101 279.24L45.9531 279.18L45.8934 281.637L48.3504 281.697L48.4101 279.24Z" fill="#F9C4C7"/>
<path d="M50.8671 279.299L48.4102 279.24L48.3504 281.697L50.8074 281.756L50.8671 279.299Z" fill="#F9C4C7"/>
<path d="M53.3241 279.36L50.8672 279.3L50.8075 281.757L53.2644 281.816L53.3241 279.36Z" fill="#F9C4C7"/>
<path d="M55.7812 279.419L53.3242 279.359L53.2645 281.816L55.7215 281.876L55.7812 279.419Z" fill="#F9C4C7"/>
<path d="M65.6093 279.658L63.1523 279.598L63.0926 282.055L65.5496 282.115L65.6093 279.658Z" fill="#F9C4C7"/>
<path d="M68.0663 279.717L65.6094 279.658L65.5497 282.115L68.0066 282.174L68.0663 279.717Z" fill="#F9C4C7"/>
<path d="M72.9804 279.837L70.5234 279.777L70.4637 282.234L72.9207 282.294L72.9804 279.837Z" fill="#F9C4C7"/>
<path d="M75.4374 279.897L72.9805 279.837L72.9208 282.294L75.3777 282.354L75.4374 279.897Z" fill="#F9C4C7"/>
<path d="M77.8945 279.957L75.4375 279.897L75.3778 282.354L77.8348 282.414L77.8945 279.957Z" fill="#F9C4C7"/>
<path d="M36.0663 281.398L33.6094 281.338L33.5497 283.795L36.0066 283.855L36.0663 281.398Z" fill="#F9C4C7"/>
<path d="M38.5234 281.458L36.0664 281.398L36.0067 283.855L38.4637 283.915L38.5234 281.458Z" fill="#F9C4C7"/>
<path d="M43.4374 281.577L40.9805 281.518L40.9208 283.975L43.3777 284.034L43.4374 281.577Z" fill="#F9C4C7"/>
<path d="M58.1757 281.936L55.7188 281.876L55.659 284.333L58.116 284.393L58.1757 281.936Z" fill="#F9C4C7"/>
<path d="M63.0898 282.055L60.6328 281.996L60.5731 284.453L63.0301 284.512L63.0898 282.055Z" fill="#F9C4C7"/>
<path d="M65.5468 282.115L63.0898 282.055L63.0301 284.512L65.4871 284.572L65.5468 282.115Z" fill="#F9C4C7"/>
<path d="M70.4609 282.235L68.0039 282.175L67.9442 284.632L70.4012 284.691L70.4609 282.235Z" fill="#F9C4C7"/>
<path d="M72.9179 282.294L70.4609 282.234L70.4012 284.691L72.8582 284.751L72.9179 282.294Z" fill="#F9C4C7"/>
<path d="M75.375 282.354L72.918 282.294L72.8583 284.751L75.3152 284.811L75.375 282.354Z" fill="#F9C4C7"/>
<path d="M48.289 284.154L45.832 284.094L45.7723 286.551L48.2293 286.611L48.289 284.154Z" fill="#F9C4C7"/>
<path d="M50.746 284.214L48.2891 284.154L48.2293 286.611L50.6863 286.67L50.746 284.214Z" fill="#F9C4C7"/>
<path d="M53.2031 284.273L50.7461 284.213L50.6864 286.67L53.1433 286.73L53.2031 284.273Z" fill="#F9C4C7"/>
<path d="M55.6601 284.333L53.2031 284.273L53.1434 286.73L55.6004 286.79L55.6601 284.333Z" fill="#F9C4C7"/>
<path d="M65.4882 284.572L63.0312 284.512L62.9715 286.969L65.4285 287.029L65.4882 284.572Z" fill="#F9C4C7"/>
<path d="M70.4023 284.692L67.9453 284.632L67.8856 287.089L70.3426 287.149L70.4023 284.692Z" fill="#F9C4C7"/>
<path d="M72.8593 284.751L70.4023 284.691L70.3426 287.148L72.7996 287.208L72.8593 284.751Z" fill="#F9C4C7"/>
<path d="M75.3164 284.811L72.8594 284.751L72.7997 287.208L75.2566 287.268L75.3164 284.811Z" fill="#F9C4C7"/>
<path d="M28.5742 286.133L26.1172 286.073L26.0575 288.53L28.5144 288.59L28.5742 286.133Z" fill="#F9C4C7"/>
<path d="M31.0312 286.193L28.5742 286.133L28.5145 288.59L30.9715 288.65L31.0312 286.193Z" fill="#F9C4C7"/>
<path d="M33.4882 286.253L31.0312 286.193L30.9715 288.65L33.4285 288.71L33.4882 286.253Z" fill="#F9C4C7"/>
<path d="M35.9453 286.312L33.4883 286.252L33.4286 288.709L35.8855 288.769L35.9453 286.312Z" fill="#F9C4C7"/>
<path d="M38.4023 286.372L35.9453 286.312L35.8856 288.769L38.3426 288.829L38.4023 286.372Z" fill="#F9C4C7"/>
<path d="M40.8593 286.432L38.4023 286.372L38.3426 288.829L40.7996 288.889L40.8593 286.432Z" fill="#F9C4C7"/>
<path d="M43.3163 286.491L40.8594 286.432L40.7997 288.889L43.2566 288.948L43.3163 286.491Z" fill="#F9C4C7"/>
<path d="M48.2304 286.611L45.7734 286.551L45.7137 289.008L48.1707 289.068L48.2304 286.611Z" fill="#F9C4C7"/>
<path d="M53.1445 286.73L50.6875 286.67L50.6278 289.127L53.0847 289.187L53.1445 286.73Z" fill="#F9C4C7"/>
<path d="M60.5156 286.909L58.0586 286.85L57.9989 289.307L60.4558 289.366L60.5156 286.909Z" fill="#F9C4C7"/>
<path d="M67.8867 287.089L65.4297 287.029L65.37 289.486L67.8269 289.546L67.8867 287.089Z" fill="#F9C4C7"/>
<path d="M70.3437 287.148L67.8867 287.088L67.827 289.545L70.284 289.605L70.3437 287.148Z" fill="#F9C4C7"/>
<path d="M72.8007 287.208L70.3438 287.148L70.284 289.605L72.741 289.665L72.8007 287.208Z" fill="#F9C4C7"/>
<path d="M28.5156 288.59L26.0586 288.53L25.9989 290.987L28.4558 291.047L28.5156 288.59Z" fill="#F9C4C7"/>
<path d="M43.2578 288.948L40.8008 288.889L40.7411 291.346L43.198 291.405L43.2578 288.948Z" fill="#F9C4C7"/>
<path d="M50.6288 289.128L48.1719 289.068L48.1122 291.525L50.5691 291.585L50.6288 289.128Z" fill="#F9C4C7"/>
<path d="M55.5429 289.247L53.0859 289.188L53.0262 291.644L55.4832 291.704L55.5429 289.247Z" fill="#F9C4C7"/>
<path d="M57.9999 289.307L55.543 289.247L55.4833 291.704L57.9402 291.764L57.9999 289.307Z" fill="#F9C4C7"/>
<path d="M60.457 289.366L58 289.307L57.9403 291.764L60.3973 291.823L60.457 289.366Z" fill="#F9C4C7"/>
<path d="M65.371 289.486L62.9141 289.426L62.8543 291.883L65.3113 291.943L65.371 289.486Z" fill="#F9C4C7"/>
<path d="M28.457 291.047L26 290.987L25.9403 293.444L28.3973 293.504L28.457 291.047Z" fill="#F9C4C7"/>
<path d="M33.3671 291.167L30.9102 291.107L30.8504 293.564L33.3074 293.624L33.3671 291.167Z" fill="#F9C4C7"/>
<path d="M35.8242 291.226L33.3672 291.167L33.3075 293.623L35.7644 293.683L35.8242 291.226Z" fill="#F9C4C7"/>
<path d="M38.2812 291.286L35.8242 291.226L35.7645 293.683L38.2215 293.743L38.2812 291.286Z" fill="#F9C4C7"/>
<path d="M43.1953 291.405L40.7383 291.346L40.6786 293.803L43.1355 293.862L43.1953 291.405Z" fill="#F9C4C7"/>
<path d="M50.5663 291.585L48.1094 291.525L48.0497 293.982L50.5066 294.042L50.5663 291.585Z" fill="#F9C4C7"/>
<path d="M53.0234 291.644L50.5664 291.584L50.5067 294.041L52.9637 294.101L53.0234 291.644Z" fill="#F9C4C7"/>
<path d="M55.4804 291.704L53.0234 291.644L52.9637 294.101L55.4207 294.161L55.4804 291.704Z" fill="#F9C4C7"/>
<path d="M62.8515 291.883L60.3945 291.823L60.3348 294.28L62.7918 294.34L62.8515 291.883Z" fill="#F9C4C7"/>
<path d="M70.2226 292.062L67.7656 292.002L67.7059 294.459L70.1629 294.519L70.2226 292.062Z" fill="#F9C4C7"/>
<path d="M77.5937 292.241L75.1367 292.182L75.077 294.639L77.534 294.698L77.5937 292.241Z" fill="#F9C4C7"/>
<path d="M28.3945 293.504L25.9375 293.444L25.8778 295.901L28.3348 295.961L28.3945 293.504Z" fill="#F9C4C7"/>
<path d="M33.3085 293.624L30.8516 293.564L30.7918 296.021L33.2488 296.081L33.3085 293.624Z" fill="#F9C4C7"/>
<path d="M35.7656 293.683L33.3086 293.624L33.2489 296.08L35.7058 296.14L35.7656 293.683Z" fill="#F9C4C7"/>
<path d="M38.2226 293.743L35.7656 293.683L35.7059 296.14L38.1629 296.2L38.2226 293.743Z" fill="#F9C4C7"/>
<path d="M43.1367 293.862L40.6797 293.803L40.62 296.26L43.0769 296.319L43.1367 293.862Z" fill="#F9C4C7"/>
<path d="M48.0507 293.982L45.5938 293.922L45.534 296.379L47.991 296.439L48.0507 293.982Z" fill="#F9C4C7"/>
<path d="M50.5077 294.042L48.0508 293.982L47.9911 296.439L50.448 296.499L50.5077 294.042Z" fill="#F9C4C7"/>
<path d="M52.9648 294.101L50.5078 294.042L50.4481 296.498L52.9051 296.558L52.9648 294.101Z" fill="#F9C4C7"/>
<path d="M55.4218 294.161L52.9648 294.101L52.9051 296.558L55.3621 296.618L55.4218 294.161Z" fill="#F9C4C7"/>
<path d="M67.707 294.46L65.25 294.4L65.1903 296.857L67.6473 296.917L67.707 294.46Z" fill="#F9C4C7"/>
<path d="M75.0781 294.639L72.6211 294.579L72.5614 297.036L75.0184 297.096L75.0781 294.639Z" fill="#F9C4C7"/>
<path d="M77.5351 294.698L75.0781 294.639L75.0184 297.096L77.4754 297.155L77.5351 294.698Z" fill="#F9C4C7"/>
<path d="M28.3359 295.961L25.8789 295.901L25.8192 298.358L28.2762 298.418L28.3359 295.961Z" fill="#F9C4C7"/>
<path d="M33.2499 296.08L30.793 296.021L30.7333 298.477L33.1902 298.537L33.2499 296.08Z" fill="#F9C4C7"/>
<path d="M35.707 296.14L33.25 296.081L33.1903 298.538L35.6473 298.597L35.707 296.14Z" fill="#F9C4C7"/>
<path d="M38.164 296.2L35.707 296.14L35.6473 298.597L38.1043 298.657L38.164 296.2Z" fill="#F9C4C7"/>
<path d="M43.0781 296.319L40.6211 296.26L40.5614 298.717L43.0183 298.776L43.0781 296.319Z" fill="#F9C4C7"/>
<path d="M52.9062 296.558L50.4492 296.499L50.3895 298.956L52.8465 299.015L52.9062 296.558Z" fill="#F9C4C7"/>
<path d="M57.8202 296.677L55.3633 296.618L55.3036 299.075L57.7605 299.134L57.8202 296.677Z" fill="#F9C4C7"/>
<path d="M65.1914 296.857L62.7344 296.797L62.6747 299.254L65.1316 299.314L65.1914 296.857Z" fill="#F9C4C7"/>
<path d="M67.6484 296.917L65.1914 296.857L65.1317 299.314L67.5887 299.374L67.6484 296.917Z" fill="#F9C4C7"/>
<path d="M72.5624 297.036L70.1055 296.976L70.0458 299.433L72.5027 299.493L72.5624 297.036Z" fill="#F9C4C7"/>
<path d="M77.4765 297.155L75.0195 297.096L74.9598 299.553L77.4168 299.612L77.4765 297.155Z" fill="#F9C4C7"/>
<path d="M28.2773 298.418L25.8203 298.358L25.7606 300.815L28.2176 300.875L28.2773 298.418Z" fill="#F9C4C7"/>
<path d="M43.0156 298.777L40.5586 298.717L40.4989 301.174L42.9558 301.233L43.0156 298.777Z" fill="#F9C4C7"/>
<path d="M47.9335 298.896L45.4766 298.836L45.4168 301.293L47.8738 301.353L47.9335 298.896Z" fill="#F9C4C7"/>
<path d="M50.3867 298.955L47.9297 298.896L47.87 301.352L50.3269 301.412L50.3867 298.955Z" fill="#F9C4C7"/>
<path d="M60.2148 299.194L57.7578 299.135L57.6981 301.592L60.1551 301.651L60.2148 299.194Z" fill="#F9C4C7"/>
<path d="M62.6718 299.254L60.2148 299.194L60.1551 301.651L62.6121 301.711L62.6718 299.254Z" fill="#F9C4C7"/>
<path d="M67.5859 299.373L65.1289 299.313L65.0692 301.77L67.5262 301.83L67.5859 299.373Z" fill="#F9C4C7"/>
<path d="M72.4999 299.493L70.043 299.433L69.9833 301.89L72.4402 301.95L72.4999 299.493Z" fill="#F9C4C7"/>
<path d="M77.414 299.612L74.957 299.553L74.8973 302.01L77.3543 302.069L77.414 299.612Z" fill="#F9C4C7"/>
<path d="M28.2148 300.875L25.7578 300.815L25.6981 303.272L28.1551 303.332L28.2148 300.875Z" fill="#F9C4C7"/>
<path d="M30.6718 300.935L28.2148 300.875L28.1551 303.332L30.6121 303.392L30.6718 300.935Z" fill="#F9C4C7"/>
<path d="M33.1288 300.994L30.6719 300.935L30.6122 303.392L33.0691 303.451L33.1288 300.994Z" fill="#F9C4C7"/>
<path d="M35.5859 301.054L33.1289 300.994L33.0692 303.451L35.5262 303.511L35.5859 301.054Z" fill="#F9C4C7"/>
<path d="M38.0429 301.114L35.5859 301.054L35.5262 303.511L37.9832 303.571L38.0429 301.114Z" fill="#F9C4C7"/>
<path d="M40.4999 301.173L38.043 301.114L37.9833 303.571L40.4402 303.63L40.4999 301.173Z" fill="#F9C4C7"/>
<path d="M42.957 301.233L40.5 301.173L40.4403 303.63L42.8973 303.69L42.957 301.233Z" fill="#F9C4C7"/>
<path d="M47.871 301.353L45.4141 301.293L45.3543 303.75L47.8113 303.81L47.871 301.353Z" fill="#F9C4C7"/>
<path d="M55.2421 301.532L52.7852 301.472L52.7254 303.929L55.1824 303.989L55.2421 301.532Z" fill="#F9C4C7"/>
<path d="M57.6991 301.591L55.2422 301.532L55.1825 303.989L57.6394 304.048L57.6991 301.591Z" fill="#F9C4C7"/>
<path d="M67.5273 301.83L65.0703 301.771L65.0106 304.227L67.4676 304.287L67.5273 301.83Z" fill="#F9C4C7"/>
<path d="M69.9843 301.89L67.5273 301.831L67.4676 304.288L69.9246 304.347L69.9843 301.89Z" fill="#F9C4C7"/>
<path d="M72.4413 301.95L69.9844 301.89L69.9247 304.347L72.3816 304.407L72.4413 301.95Z" fill="#F9C4C7"/>
</g>
<path d="M270.543 201.964L273.954 195.895L443.543 193.964V200.861L270.543 201.964Z" fill="#E26C73"/>
<path d="M443.543 222.964L440.132 229.033L270.543 230.964L270.543 224.068L443.543 222.964Z" fill="#E26C73"/>
<path d="M270.543 262.964L273.777 256.895L434.543 254.964V261.861L270.543 262.964Z" fill="#E26C73"/>
</g>
<defs>
<filter id="filter0_d" x="0.542969" y="0.464355" width="508.457" height="331" filterUnits="userSpaceOnUse" color-interpolation-filters="sRGB">
<feFlood flood-opacity="0" result="BackgroundImageFix"/>
<feColorMatrix in="SourceAlpha" type="matrix" values="0 0 0 0 0 0 0 0 0 0 0 0 0 0 0 0 0 0 127 0"/>
<feOffset/>
<feGaussianBlur stdDeviation="5"/>
<feColorMatrix type="matrix" values="0 0 0 0 0 0 0 0 0 0 0 0 0 0 0 0 0 0 0.25 0"/>
<feBlend mode="normal" in2="BackgroundImageFix" result="effect1_dropShadow"/>
<feBlend mode="normal" in="SourceGraphic" in2="effect1_dropShadow" result="shape"/>
</filter>
<clipPath id="clip0">
<rect width="61.4424" height="61.4424" fill="white" transform="translate(22.1602 246.643) rotate(1.39228)"/>
</clipPath>
</defs>
</svg>
