<svg width="446" height="720" fill="none" xmlns="http://www.w3.org/2000/svg"><path fill="#3789D5" d="M193.486 224.457h105.155v116.931H193.486z"/><path d="M382.361 763.207l7.63-56.724c12.716-2.571 37.866-5.872 36.738 1.492-1.41 9.206 3.234 33.504 7.132 48.017 3.898 14.513 2.986 17.83-7.132 20.318-10.117 2.488-28.76-6.883-32.326-5.971-10.882 20.634-12.581 4.04-12.042-7.132z" fill="#FFC9BA"/><path d="M100.645 1002.71c-11.212-58.586-4.671-154.338 0-194.89l56.973-171.5 200.774-69.91c.332 46.635.796 154.88 0 214.789-.995 74.886-36.572 221.511-49.758 282.961-13.186 61.45-19.489 124.72-14.927 167.27 4.561 42.54.414 72.15-4.562 87.49-35.411 4.06-46.855 10.03-94.457-8.88 19.157-65.84 21.23-273.58 17.415-288.34-3.814-14.77-2.571-45.366 0-66.928-21.562 37.318-31.513 143.218-24.713 188.338 6.8 45.11-3.151 163.12 0 182.36-13.136 11.01-69.716 6.91-96.365 3.48 7.879-84.34 20.833-267.66 9.62-326.24z" fill="#2365A2"/><path fill-rule="evenodd" clip-rule="evenodd" d="M302.062 586.065c6.574 9.065 10.029 20.777 8.151 35.781-.946 7.556-.743 16.516-.498 27.362.814 36.022 2.099 92.845-36.655 188.134-8.569 27.311-22.987 50.356-35.998 71.15-1.52 2.429-3.02 4.826-4.489 7.197l-20.217 39.121-.023.099.022-.184c-21.562 37.318-31.513 143.225-24.713 188.335 4.059 26.93 2.15 79.82.621 122.18-1.032 28.62-1.891 52.43-.621 60.18-13.136 11.02-69.716 6.91-96.365 3.49 7.879-84.34 20.833-267.67 9.62-326.25-11.212-58.583-4.671-154.334 0-194.887l56.973-171.5 144.192-50.208z" fill="#1E588C"/><path d="M234.172 608.373l45.197-152.84c10.56 41.963 30.153 126.999 24.049 131.444-7.629 5.557-12.937 24.631-17 37.236-13.8 1.393-40.581-9.979-52.246-15.84z" fill="#307CC1"/><path d="M273.965 351.456c15.591-29.987 14.79-101.285 12.44-133.185l20.069 26.205L342.963 421.2c8.293 49.344 23.121 151.563 16.089 165.695-7.033 14.131-37.595 31.43-51.998 38.313-1.769-9.592-6.319-30.684-10.366-38.313-5.059-9.537-12.108-37.485-9.454-55.729 2.123-14.596-2.488-46.607-5.059-60.788-9.232-27.146-23.801-88.934-8.21-118.922z" fill="#3B89D2"/><path d="M378.545 458.687l12.522-89.73c12.523 6.634 28.86 72.315 23.801 154.499-5.058 82.184 15.259 175.563 15.259 189.163-10.88-5.174-35.66-3.649-46.689-2.239l-4.893-251.693z" fill="#2D76B9"/><path d="M251.59 245.64l6.966-31.679 18.079 28.777-2.737 17.996-13.186.829-9.122-15.923zM228.77 282.625c-19.438-22.425-33.18-60.048-37.188-75.003-52.448 43.671-71.403 41.05-110.38 71.569 5.058 2.571 32.13 26.239 41.833 43.738 9.703 17.498 21.727 83.427 16.918 91.306-3.848 6.302-8.459 15.065-10.284 18.659-3.068 41.631-18.742 122.073-33.835 173.407-12.075 41.067-15.094 86.385-15.094 103.911-3.013 26.178-8.674 81.686-7.215 94.292 1.825 15.756 36.241 27.118 72.481 29.606 28.993 1.99 42.267-29.413 45.28-45.363 8.873-34.444 28.793-108.158 37.484-127.464 10.864-24.132 25.957-97.857 49.51-196.378 23.455-98.116-24.811-153.791-49.209-181.933l-.301-.347z" fill="#2D70AD"/><path d="M247.933 309.329c.929-8.824 9.177-30.822 13.186-40.719l11.61-2.073c.884.691 5.025 5.838 14.513 20.898 1.791 22.823-8.874 59.047-14.43 74.306-8.68-13.794-25.808-43.588-24.879-52.412zM200.244 236.517c-2.588-3.516-6.22-18.77-7.713-25.957 22.308-2.073 66.875-4.179 66.676 3.981-.249 10.2-3.483 29.191-10.034 36.406-5.242 5.772-14.458 2.405-18.411 0-7.547-3.732-24.216-11.842-30.518-14.43z" fill="#0B6AC2"/><path d="M269.166 238.588l-10.449-24.382c3.483-3.289 12.887-12.655 22.64-23.801 12.19 25.128 4.561 48.183-1.327 54.071-4.711 4.71-9.205-1.963-10.864-5.888z" fill="#307CC1"/><path fill-rule="evenodd" clip-rule="evenodd" d="M206.811 247.649c20.378 57.437 49.282 140.724 66.986 192.051l4.558 24.884c23.273-97.915-24.914-153.499-49.285-181.61l-.301-.347c-8.704-10.041-16.093-22.708-21.958-34.978z" fill="#3387D6"/><path d="M277.877 134.097l2.82-32.757 18.991 14.596-.664 21.313-12.439 11.527-8.708-14.679zM155.903 117.107l-6.532-32.223 22.336 8.648 5.373 20.635-8.684 14.567-12.493-11.627z" fill="#2668A6"/><path d="M165.092 145.956c4.91-9.023 2.046-35.329 0-47.353l54.734-8.376 61.783 12.854v23.884c14.762 1.244 5.142 18.991 1.741 21.893 2.986 15.757 3.152 47.104-12.854 61.866-12.804 11.809-51.444 9.012-69.163 6.137-15.121-2.129-45.993-10.964-48.514-29.275-3.152-22.888 6.136-30.352 12.273-41.63z" fill="#FFC9BA"/><path d="M186.899 22.39c-15.591 10.218-20.097 36.158-20.401 47.851l67.754 3.317c17.775 2.516 53.324 6.386 53.324 1.742 6.883-37.65-16.49-53.212-45.114-61.949-21.027-6.417-36.075-3.732-55.563 9.04z" fill="#0B6AC2"/><path d="M208.95 109.93c-27.135-.53-46.911-9.398-53.407-13.766 7.895-15.458 58.355-17.775 82.598-17 23 8.928 64.719 27.333 47.602 29.522-17.117 2.19-31.79-4.395-36.987-7.961-1.962 3.29-12.671 9.736-39.806 9.205z" fill="#1D1D1D"/><path d="M237.402 484.81c.265-3.782-1.603-30.657-2.571-43.621-3.184-30.519-14.208-39.088-19.322-39.558l-1.327 1.161 3.4 46.358c6.496 13.462 19.555 39.441 19.82 35.66z" fill="#C4C4C4"/><path d="M133.316 88.817c2.455 19.97 23.414 37.706 34.333 44.451.415-4.147.166-7.961-.083-12.357-38.728-37.401 29.275-36.489 49.427-36.738 20.152-.249 66.427 17.084 75.881 33.67 7.556 13.256-.648 20.221-5.047 23.956l-.012.011c-1.161 2.653-2.156 4.229-4.478 7.049.912 6.137 1.14 10.823 1.658 16.337 19.323-7.547 36.49-31.182 26.455-63.939-10.034-32.758-41.631-33.587-61.451-34.748-13.741-.805-25.543-1.492-34.997-1.493-28.168-.884-84.14 3.832-81.686 23.801z" fill="#307CC1"/><path fill-rule="evenodd" clip-rule="evenodd" d="M283.333 148.947c2.97 15.957 3.107 47.561-12.87 62.458-12.804 11.938-51.444 9.11-69.164 6.204-15.12-2.152-45.993-11.084-48.514-29.595-1.106-8.125-.679-14.327.607-19.449 3.765-2.326 9.439-4.523 14.983-2.936 9.371 2.683 23.552 3.438 32.094-1.257 8.541-4.695 26.454-1.425 31.098 1.257 4.644 2.683 34.168 8.133 43.787-7.796 3.902-6.461 6.42-8.698 7.979-8.886z" fill="#1D1D1D"/><path d="M231.867 131.351c4.879-3.753 16.761-9.316 25.261-1.544-4.243 4.21-13.026 8.333-25.261 1.544z" fill="#FFF3F1"/><mask id="a" maskUnits="userSpaceOnUse" x="239" y="125" width="12" height="12"><path d="M250.229 132.263c-.749 2.959-4.309 4.47-7.268 3.72-2.959-.75-3.967-3.418-3.217-6.377.75-2.959 2.973-5.088 5.932-4.338 2.959.75 5.303 4.036 4.553 6.995z" fill="#2C1E25"/></mask><g mask="url(#a)"><path d="M231.755 131.363c4.881-3.763 16.768-9.344 25.264-1.561-4.246 4.221-13.031 8.357-25.264 1.561z" fill="#2C1E25"/></g><mask id="b" maskUnits="userSpaceOnUse" x="169" y="124" width="10" height="12"><path d="M178.842 130.156c-.084 3.179-1.715 5.714-4.894 5.63-3.178-.084-4.814-2.565-4.729-5.744.084-3.179 1.856-5.851 5.035-5.767 3.178.084 4.673 2.703 4.588 5.881z" fill="#2C1E25"/></mask><g mask="url(#b)"><path d="M159.899 129.904c2.946-3.185 11.608-7.898 22.688-1.263-3.429 5.175-14.803 10.03-22.688 1.263z" fill="#2C1E25"/></g><path fill-rule="evenodd" clip-rule="evenodd" d="M167.715 134.502c.205-3.048.174-6.491.091-8.858 3.966-.83 9.012-.412 14.695 2.991-2.378 3.589-8.578 7.025-14.786 5.867z" fill="#FFF3F1"/><path fill-rule="evenodd" clip-rule="evenodd" d="M173.564 125.409a17.62 17.62 0 00-5.746.233c.083 2.367.114 5.81-.091 8.858 2.056.384 4.111.263 6.027-.2 1.273-3.079.976-6.525-.19-8.891z" fill="#2C1E25"/><path d="M242.29 108.961c-4.676-1.452-9.749 1.341-11.652 2.839-.808.636-2.846 3.34-2.269 6.101 1.203 5.757 6.557 3.891 12.171 1.052 5.615-2.84 11.652 1.104 13.229 1.42 1.576.315 8.114.236 6.845-5.233-1.269-5.469-6.326-5.39-8.422-4.838-2.096.552-4.057.473-9.902-1.341z" fill="#1D1D1D"/><path d="M200.331 188.582c-4.676-1.452-8.581-2.648-10.484-1.15-.808.636-2.846 3.34-2.269 6.101 1.203 5.757 8.216 5.311 13.831 2.471 5.614-2.839 9.992 1.783 11.569 0 4.146-4.688 8.114.237 6.845-5.232-1.269-5.469-6.326-5.391-8.422-4.838-2.096.552-5.225 4.462-11.07 2.648z" fill="#FFC9BA"/><path d="M180.58 119.019c4.624-1.801 5.602-3.441 4.741-5.651-2.135-5.48-6.536-5.296-10.115-3.229-2.563 1.481-6.006 1.667-7.611.946-1.284-.577-4.313-1.07-5.684-.536-.994.387-1.891 2.282-.68 4.362 1.211 2.079 4.104 1.854 5.664 1.772 5.105-.265 6.197 5.253 13.685 2.336z" fill="#1D1D1D"/><path d="M200.864 117.344c-13.727 25.607-32.944 70.748 0 46.448 0-17.708 7.586-41.408 0-46.448z" fill="#F0BBAC"/><path d="M166.253 296.558c1.725-14.794-3.906-48.824-5.841-63.475 22.142-13.932 20.152-20.898 30.021-18.742 12.273 20.981 23.284 46.834 32.545 61.153 1.824 9.288 3.234 24.879 30.103 87.574 26.87 62.695 27.008 98.328 23.718 108.307 0-67.754-72.729-96.697-112.37-151.43 1.824-6.054 18.908-15.923 24.796-19.738-5.307-.414-14.844-1.658-22.972-3.649z" fill="#307CC1"/><path d="M235.902 355.771c-6.037 6.9-17.277 36.711-22.142 50.753l8.79 43.953c2.295-.552 10.151-1.774 23.221-2.239 16.337-.58 27.201-15.591 39.972-27.035s12.688-18.245 0-18.245c21.728-13.517 11.03-18.659 2.986-18.659 11.029-6.303 4.561-12.771 0-14.844 6.219-2.654 5.971-8.376 2.322-16.172-3.649-7.795-16.586-7.049-21.894-3.649 3.4-17.913-25.708-2.488-33.255 6.137z" fill="#FFC9BA"/><path d="M215.509 401.629c-3.848-.133-14.043 4.81-18.659 7.297l26.371 81.521h14.264c.332-7.464-.497-12.523-8.376-28.031-7.878-15.508-13.6-56.724-13.6-60.787z" fill="#DFDFDF"/><path d="M47.537 328.036c8.094-22.889 27.56-44.147 35.328-50.256 10.477 8.376 37.272 28.894 41.916 39.177 5.805 12.854 44.699 83.428 3.815 117.263 9.779-.714 19.538-2.637 24.049-7.215 14.015-12.688 15.923-10.2 35.163-20.069 19.239-9.869 19.488 25.791 21.23 35.577 1.741 9.786 16.586 36.987 18.079 47.022 1.492 10.034-9.372 25.376-43.456 34.913-74.056 22.474-124.56 26.289-144.879 21.479-20.318-4.81-23.303-23.635-20.732-30.435 2.57-6.801 3.068-20.733-2.57-26.621-5.64-5.888-6.386-18.576 5.638-33.67 9.62-12.074 6.939-32.121 4.396-40.635-1.161-3.787-3.42-15.409 4.607-28.479 10.035-16.337 7.298-29.44 17.416-58.051zM140.211 545.43c12.606-4.976 43.179 3.179 56.89 7.878-2.045 4.866-7.646 16.023-13.683 21.728-7.547 7.132-36.075 1.576-45.86 0-7.829-1.26-8.791-5.888-8.293-8.044 1.907-6.386 6.767-19.638 10.946-21.562z" fill="#307CC1"/><ellipse cx="268.835" cy="262.971" rx="12.191" ry="11.113" fill="#307CC1"/><path d="M309.385 230.379c-4.047-2.322-17.443-17.387-23.635-24.63-1.133 4.147-2.72 13.202 0 16.254 2.72 3.052 13.628 34.886 18.742 50.422 5.833 25.183 18.427 80.326 22.142 99.433 4.645 23.884 18.162 96.365 20.982 111.624 2.819 15.259 2.405 47.602 3.566 54.07 1.161 6.469 4.976 29.689 4.976 42.792 0 13.103 6.8 30.021 14.015 46.524 7.215 16.503 7.381 67.505 5.971 74.969-1.41 7.464-1.576 36.406 0 45.777 1.575 9.371.497 30.436.58 39.06.083 8.625 1.576 7.132 4.727 8.542 8.758-29.191 9.841-67.56 9.288-83.096-4.367-42.239-11.311-138.394-4.146-185.1 8.956-58.383.829-66.51-2.405-71.403-3.234-4.892 1.576-19.82 6.303-52.411 4.727-32.592 2.653-63.027 1.575-71.569-1.078-8.542-.829-32.343-4.146-42.212-3.317-9.868-18.494-25.791-32.177-35.659-13.684-9.869-41.299-20.484-46.358-23.387z" fill="#3387D6"/><path fill-rule="evenodd" clip-rule="evenodd" d="M383.182 452.207c-1.267-1.727-2.532-3.44-3.781-5.133-2.63-3.565-5.196-7.042-7.585-10.364-11.212-15.591-20.152-48.238-23.22-62.612l-13.176 44.144a30095.022 30095.022 0 0112.182 65.241c1.72 9.306 2.236 24.967 2.641 37.238.259 7.848.472 14.309.925 16.832 1.161 6.469 4.976 29.689 4.976 42.792 0 13.103 6.8 30.021 14.015 46.524 7.215 16.503 7.381 67.505 5.971 74.969-1.41 7.464-1.576 36.406 0 45.777 1.143 6.799.89 19.753.696 29.645-.073 3.743-.138 7.048-.115 9.415.067 7.03 1.071 7.339 3.147 7.976.471.144.997.306 1.58.566 8.757-29.191 9.841-67.56 9.288-83.096-4.368-42.239-11.312-138.393-4.147-185.1 8.517-55.515 1.587-65.59-1.895-70.652-.18-.262-.351-.51-.51-.751-.551-.833-.868-1.958-.992-3.411zM308.555 229.806a9.63 9.63 0 001.015.693c1.49.855 4.938 2.38 9.41 4.357 4.909 2.17 11.053 4.887 17.198 7.863 1.616 8.245 7.634 27.633 10.799 37.372l-20.069 5.64-15.756-31.845-2.597-24.08z" fill="#307CC1"/><path d="M358.894 304.022c2.853-10.748-13.904-20.18-22.64-23.553l-9.785-1.409c4.202 20.345 14.048 63.441 19.82 73.061 1.41-7.464 9.039-34.665 12.605-48.099z" fill="#2D70AD"/><path fill-rule="evenodd" clip-rule="evenodd" d="M309.258 229.909c1.202 8.138 4.735 20.175 12.821 36.71 14.795 30.253 19.765 51.417 20.401 58.217 3.013 12.218 10.532 38.529 16.503 46.026 5.642 7.083-6.978 59.637-15.126 89.266-5.237-28.078-13.271-70.953-16.639-88.273-3.715-19.107-16.309-74.25-22.142-99.433-5.114-15.536-16.022-47.37-18.742-50.422-2.72-3.051-1.133-12.107 0-16.254 5.867 6.863 18.203 20.75 22.924 24.163z" fill="#0B6AC2"/><mask id="c" maskUnits="userSpaceOnUse" x="0" y="-.346" width="446" height="1440" fill="#000"><path fill="#fff" d="M0-.346h446v1440H0z"/><path fill-rule="evenodd" clip-rule="evenodd" d="M166.041 69c.712-12.4 5.525-36.259 20.321-45.955 19.488-12.771 34.536-15.457 55.563-9.04 28.166 8.597 51.247 23.802 45.422 60.157 10.197 4.751 19.065 13.025 23.576 27.751 9.912 32.358-6.718 55.815-25.75 63.656-.061 8.353-1.097 17.445-3.795 25.627a41.788 41.788 0 01-.182.633c2.407 5.122 3.997 10.152 4.953 14.96 5.992 6.988 17.972 20.44 22.601 23.782l.067.444.039.022c1.491.855 4.938 2.38 9.41 4.357 10.71 4.735 27.296 12.068 36.948 19.03 13.684 9.868 28.86 25.791 32.177 35.66 2.233 6.643 2.85 19.599 3.344 29.964.24 5.033.45 9.455.803 12.247.701 5.559 1.825 20.392 1.22 39.058 12.134 12.561 26.357 75.337 21.591 152.759-3.765 61.173 6.529 128.549 12.039 164.61v.001l.001.003v.001c1.892 12.383 3.219 21.072 3.219 24.549a23.538 23.538 0 00-3.144-1.205c-.173 10.848 3.903 31.617 7.385 44.579 3.898 14.513 2.985 17.83-7.132 20.318-6.328 1.556-15.991-1.527-23.214-3.831-4.325-1.381-7.776-2.482-9.112-2.14-5.035 9.983-8.071 12.119-9.851 10.403-1.028 4.972-2.226 9.84-3.617 14.477a13.032 13.032 0 00-1.579-.566c-1.136-.349-1.951-.599-2.467-1.907-.251-.634-.431-1.517-.544-2.78a42.338 42.338 0 01-.137-3.291c-.023-2.368.042-5.673.115-9.416.194-9.893.447-22.846-.696-29.645-.197-1.171-.367-2.648-.51-4.351-1.005-11.92-.723-34.895.51-41.426 1.234-6.531 1.261-46.395-3.585-67.315a59.656 59.656 0 00-1.114-4.174 33.648 33.648 0 00-1.271-3.477c-3.777-8.639-7.44-17.392-10.074-25.652a117.7 117.7 0 01-1.506-5.101c.276 53.489.477 135.706-.18 185.084-.841 63.328-26.414 177.957-42.262 249h-.001c-2.892 12.96-5.46 24.47-7.495 33.96-13.186 61.45-19.488 124.72-14.927 167.27 4.561 42.54.415 72.15-4.561 87.49-.544.06-1.082.12-1.614.19 11.4 37.88 63.118 48.01 86.894 52.67h.004c5.895 1.15 10.071 1.97 11.489 2.79 7.297 4.23 11.941 15.01-24.631 21.98-29.257 5.57-91.416-8.18-118.839-15.76v12.69h-31.927c1.022-1.69 1.227-10.83-6.137-33.92-5.825-18.26-1.795-34.99 2.675-44.87a336.697 336.697 0 01-12.372-4.64c19.157-65.85 21.23-273.59 17.416-288.35-3.787-14.66-2.589-44.92-.056-66.455-21.356 37.773-31.185 142.905-24.416 187.815 4.058 26.93 2.15 79.82.621 122.18-1.033 28.62-1.892 52.43-.621 60.18-2.722 2.29-7.309 3.92-13.108 5.04-.138.03-.277.06-.417.08-.14.03-.282.06-.424.08-.458 13.57 1.028 36.72 9.811 53.49 12.771 24.38 11.278 36.74 2.902 41.55-26.206 10.94-56.724-9.13-73.476-33.18-11.653-16.73-4.336-44.53 2.715-61.06-9.318-.7-17.91-1.6-24.61-2.47 7.88-84.34 20.833-267.66 9.621-326.24-9.848-51.456-6-131.583-1.753-177.799-14.388-5.214-24.256-12.271-25.212-20.532-1.464-12.656 4.215-68.389 7.237-94.673 0-17.597 3.028-63.098 15.14-104.332 5.493-18.702 11.063-41.254 16.078-64.395-35.423 6.42-60.42 6.83-73.309 3.775-20.38-4.829-23.374-23.73-20.795-30.558 2.578-6.828 3.078-20.816-2.579-26.728-5.656-5.912-6.405-18.652 5.657-33.806 9.649-12.124 6.96-32.252 4.408-40.8-1.164-3.803-1.48-14.688 6.572-27.811 5.566-9.072 7.24-17.507 9.34-28.094 1.699-8.556 3.675-18.518 8.211-31.358 8.119-22.981 26.73-41.827 34.52-47.961l.038.03c15.968-12.356 29.002-18.746 42.289-25.26 17.146-8.405 34.712-17.017 59.548-38.924-14.793-4.379-31.432-12.664-33.255-25.901-.934-6.784-.775-12.212.07-16.787a39.48 39.48 0 01.939-5.139c.159-.097.322-.194.487-.291 1.726-5.004 4.282-8.974 6.834-12.938 1.357-2.109 2.714-4.216 3.944-6.476 1.589-2.922 2.364-7.655 2.615-13.129l-.041.441c-10.919-6.745-31.878-24.481-34.333-44.45-1.318-10.727 14.22-17.053 33.252-20.473z"/></mask><path d="M186.362 23.045l5.481 8.364-5.481-8.364zM166.041 69l1.769 9.842a10 10 0 008.215-9.269l-9.984-.573zm75.884-54.996l2.919-9.564-2.919 9.564zm45.422 60.157l-9.874-1.583a10 10 0 005.65 10.647l4.224-9.064zm23.576 27.751l9.561-2.93-9.561 2.93zm-25.75 63.656l-3.809-9.246a9.999 9.999 0 00-6.191 9.173l10 .073zm-3.795 25.627l-9.497-3.131a9.83 9.83 0 00-.126.413l9.623 2.718zm-.095.334l9.609 2.77v-.002l-9.609-2.768zm-.087.299l-9.595-2.816a10.001 10.001 0 00.545 7.07l9.05-4.254zm4.953 14.96l-9.807 1.95a10 10 0 002.216 4.559l7.591-6.509zm22.601 23.782l9.892-1.463a9.996 9.996 0 00-4.039-6.645l-5.853 8.108zm.067.444l-9.881 1.537a10.003 10.003 0 004.868 7.115l5.013-8.652zm.039.022l-5.013 8.653.037.021 4.976-8.674zm9.41 4.357l-4.043 9.146 4.043-9.146zm36.948 19.03l5.85-8.111-5.85 8.111zm32.177 35.66l9.479-3.187-9.479 3.187zm3.344 29.964l-9.989.476 9.989-.476zm.803 12.247l9.921-1.252-9.921 1.252zm1.22 39.058l-9.995-.324a10.002 10.002 0 002.803 7.271l7.192-6.947zm21.591 152.759l-9.981-.614 9.981.614zm12.039 164.61l-9.885 1.51c.023.151.049.301.079.451l9.806-1.961zm0 .001l9.878-1.56a10.854 10.854 0 00-.072-.401l-9.806 1.961zm.001.003l9.95-.995a9.657 9.657 0 00-.073-.564l-9.877 1.559zm0 .001l-9.951.995c.018.173.039.344.065.516l9.886-1.511zm3.219 24.549l-4.295 9.03a10 10 0 0014.295-9.03h-10zm-3.144-1.205l2.961-9.552a10 10 0 00-12.96 9.392l9.999.16zm7.385 44.579l-9.658 2.594 9.658-2.594zm-7.132 20.318l2.388 9.711-2.388-9.711zm-23.214-3.831l-3.039 9.526 3.039-9.526zm-9.112-2.14l-2.478-9.688a10.002 10.002 0 00-6.451 5.185l8.929 4.503zM384.54 781.4l6.942-7.198a10 10 0 00-16.735 5.173l9.793 2.025zm-3.617 14.477l-4.082 9.129a10 10 0 0013.661-6.255l-9.579-2.874zm-1.579-.566l2.934-9.56-2.934 9.56zm-2.467-1.907l9.302-3.671-.003-.007-9.299 3.678zm-.544-2.78l9.961-.886v-.001l-9.961.887zm-.137-3.291l9.999-.097-9.999.097zm.115-9.416l9.998.196.002-.196h-10zm0 0l-9.998-.196-.002.196h10zm-.696-29.645l9.862-1.658-9.862 1.658zm-.51-4.351l9.965-.84-9.965.84zm.51-41.426l9.826 1.856-9.826-1.856zm-3.585-67.315l9.742-2.257-9.742 2.257zm-1.114-4.174l9.552-2.96-.001-.001-9.551 2.961zm-1.271-3.477l-9.163 4.006 9.163-4.006zm-10.074-25.652l9.527-3.038-9.527 3.038zm-1.506-5.101l9.655-2.603a10 10 0 00-19.655 2.654l10-.051zm-.18 185.084l-9.999-.133 9.999.133zm-42.262 249l-9.76-2.18a9.04 9.04 0 00-.104.53l9.864 1.65zm0 0l9.756 2.19c.041-.18.077-.37.108-.55l-9.864-1.64zm-.001 0l-9.756-2.2c-.041.19-.077.37-.108.56l9.864 1.64zm0 0l9.76 2.18c.04-.18.074-.36.104-.54l-9.864-1.64zm-7.495 33.96l-9.777-2.1 9.777 2.1zM293.2 1232.09l9.943-1.07-9.943 1.07zm-4.561 87.49l1.14 9.93a9.984 9.984 0 008.372-6.85l-9.512-3.08zm-1.614.19l-1.179-9.93a9.98 9.98 0 00-7.185 4.45 9.994 9.994 0 00-1.212 8.36l9.576-2.88zm86.894 52.67l2.29-9.74c-.122-.03-.245-.05-.368-.08l-1.922 9.82zm.001 0l-2.29 9.73c.273.07.548.12.825.16l1.465-9.89zm.003 0l1.923-9.82c-.152-.03-.305-.05-.458-.07l-1.465 9.89zm11.489 2.79l5.014-8.65-5.014 8.65zm-24.631 21.98l-1.871-9.82 1.871 9.82zm-118.839-15.76l2.663-9.64a9.981 9.981 0 00-8.72 1.69 9.99 9.99 0 00-3.943 7.95h10zm0 12.69v10c5.523 0 10-4.48 10-10h-10zm-31.927 0l-8.55-5.19a10.013 10.013 0 00-.164 10.1 10.01 10.01 0 008.714 5.09v-10zm-6.137-33.92l9.527-3.04-9.527 3.04zm2.675-44.87l9.11 4.12a9.986 9.986 0 00.084-8.05 10.016 10.016 0 00-5.885-5.51l-3.309 9.44zm-12.372-4.64l-9.602-2.8c-1.44 4.95 1.119 10.19 5.911 12.09l3.691-9.29zm17.416-288.35l-9.682 2.5 9.682-2.5zm-.056-66.455l9.931 1.168a10 10 0 00-18.636-6.089l8.705 4.921zm-24.416 187.815l-9.889 1.49 9.889-1.49zm.621 122.18l9.993.36-9.993-.36zm-.621 60.18l6.424 7.67a10.004 10.004 0 003.444-9.28l-9.868 1.61zm-13.108 5.04l-1.904-9.81h-.029l1.933 9.81zm-.417.08l-1.873-9.82h-.008l1.881 9.82zm-.424.08l-1.823-9.83a10.011 10.011 0 00-8.172 9.5l9.995.33zm9.811 53.49l-8.859 4.64 8.859-4.64zm2.902 41.55l3.855 9.22a9.51 9.51 0 001.125-.55l-4.98-8.67zm-73.476-33.18l8.205-5.71-8.205 5.71zm2.715-61.06l9.198 3.92a9.998 9.998 0 00-.655-9.12 9.996 9.996 0 00-7.798-4.78l-.745 9.98zm-24.61-2.47l-9.956-.93a10 10 0 008.681 10.85l1.276-9.92zm9.621-326.24l-9.822 1.88 9.822-1.88zm-1.753-177.799l9.958.916a10 10 0 00-6.551-10.317l-3.407 9.401zm-25.212-20.532l-9.934 1.149 9.934-1.149zm7.237-94.673l9.934 1.143c.044-.38.066-.761.066-1.143h-10zm15.14-104.332l-9.595-2.818 9.594 2.818zm16.078-64.395l9.773 2.118a10 10 0 00-11.556-11.958l1.783 9.84zm-73.309 3.775l-2.306 9.731 2.306-9.731zm-20.795-30.558l9.355 3.533-9.355-3.533zm-2.579-26.728l-7.225 6.913 7.225-6.913zm5.657-33.806l-7.825-6.228 7.825 6.228zm4.408-40.8l9.583-2.86a9.04 9.04 0 00-.021-.069l-9.562 2.929zm6.572-27.811l-8.524-5.23 8.524 5.23zm9.34-28.094l9.81 1.946-9.81-1.946zm8.211-31.358l-9.429-3.331 9.43 3.331zm34.52-47.961l6.25-7.806a10 10 0 00-12.435-.051l6.186 7.857zm.038.03l-6.25 7.806a10 10 0 0012.37.103l-6.12-7.909zm42.289-25.26l4.402 8.979-4.402-8.979zm59.548-38.924l6.615 7.499a10 10 0 00-3.777-17.088l-2.838 9.589zm-33.255-25.901l9.907-1.364-9.907 1.364zm.07-16.787l9.834 1.817c.04-.218.073-.438.099-.659l-9.933-1.158zm.939-5.139l-5.22-8.529a9.997 9.997 0 00-4.473 6.073l9.693 2.456zm.487-.291l5.038 8.638a10 10 0 004.416-5.378l-9.454-3.26zm6.834-12.938l-8.409-5.413 8.409 5.413zm3.944-6.476l-8.784-4.78 8.784 4.78zm2.615-13.129l9.99.459a10 10 0 00-19.95-1.348l9.96.889zm-.041.441l-5.256 8.507a10 10 0 0015.206-7.512l-9.95-.995zm-34.333-44.45l9.925-1.22-9.925 1.22zm48.092-74.793c-10.019 6.565-15.906 17.317-19.37 26.94-3.53 9.805-5.054 19.847-5.453 26.807l19.967 1.146c.312-5.442 1.55-13.53 4.304-21.178 2.819-7.831 6.736-13.856 11.514-16.987l-10.962-16.728zm63.963-10.24C233.28.911 222.661-.318 211.929 1.465c-10.66 1.77-20.61 6.375-31.048 13.216l10.962 16.728c9.05-5.93 16.369-9.053 23.362-10.215 6.92-1.149 14.339-.512 23.801 2.376l5.838-19.129zm52.377 71.303c3.326-20.757-1.56-36.828-12.439-48.796C274.395 15.52 259.494 8.912 244.844 4.44l-5.838 19.129c13.516 4.125 24.238 9.417 30.977 16.83 6.247 6.873 9.989 16.582 7.49 32.18l19.748 3.164zm23.263 23.24c-5.412-17.67-16.38-28.046-28.913-33.887l-8.448 18.129c7.86 3.663 14.629 9.834 18.238 21.616l19.123-5.858zm-31.502 75.831c23.612-9.728 42.986-38.343 31.502-75.831l-19.123 5.858c8.341 27.228-5.546 45.527-19.997 51.481l7.618 18.492zm1.894 19.512c3.118-9.459 4.231-19.651 4.297-28.686l-20-.145c-.056 7.672-1.016 15.665-3.292 22.569l18.995 6.262zm.016-.029l.11-.385-19.247-5.435-.081.284 19.218 5.536zm-.101.348l.101-.346-19.218-5.54-.073.253 19.19 5.633zm5.166 10.192c-1.11-5.584-2.95-11.388-5.711-17.262l-18.1 8.507c2.054 4.37 3.394 8.624 4.196 12.656l19.615-3.901zm18.646 17.625c-1.354-.978-4.81-4.371-9.315-9.221-4.21-4.533-8.612-9.54-11.547-12.962l-15.183 13.018c3.057 3.565 7.64 8.778 12.075 13.554 4.141 4.459 8.989 9.463 12.264 11.827l11.706-16.216zm4.096 7.014l-.057-.369-19.784 2.926c.025.173.052.346.078.518l19.763-3.075zm-4.829-7.092l-.039-.022-10.027 17.304.039.023 10.027-17.305zm8.44 3.863c-4.82-2.131-7.574-3.366-8.477-3.884l-9.953 17.347c2.078 1.192 6.218 3.005 10.343 4.829l8.087-18.292zm38.754 20.065c-10.695-7.713-28.412-15.492-38.754-20.065l-8.087 18.292c11.077 4.897 26.532 11.785 35.142 17.994l11.699-16.221zm35.806 40.584c-2.366-7.037-8.23-14.779-14.313-21.406-6.356-6.924-14.076-13.828-21.493-19.178l-11.699 16.221c6.266 4.519 12.976 10.51 18.458 16.482 5.755 6.269 9.138 11.423 10.089 14.254l18.958-6.373zm3.854 32.676c-.245-5.139-.532-11.196-1.051-16.822-.5-5.413-1.283-11.333-2.803-15.854l-18.958 6.373c.714 2.122 1.355 6.002 1.846 11.319.471 5.105.739 10.708.988 15.935l19.978-.951zm.735 11.47c-.291-2.305-.486-6.238-.735-11.47l-19.978.951c.231 4.834.457 9.745.87 13.023l19.843-2.504zm1.294 40.633c.62-19.149-.521-34.511-1.294-40.633l-19.843 2.504c.631 4.996 1.736 19.3 1.147 37.482l19.99.647zm21.577 153.051c2.428-39.446.029-75.252-4.574-102.957-2.3-13.841-5.177-25.822-8.352-35.31-3.028-9.05-6.758-17.194-11.453-22.055L385.566 378.3c1.371 1.42 3.969 5.833 6.872 14.506 2.755 8.235 5.411 19.142 7.588 32.243 4.35 26.179 6.68 60.472 4.342 98.449l19.962 1.229zm11.943 162.485c-5.53-36.193-15.633-102.541-11.943-162.485l-19.962-1.229c-3.841 62.401 6.645 130.806 12.135 166.734l19.77-3.02zm-.079-.45v-.001l-19.612 3.922v.001l19.612-3.922zm.072.405v-.004l-19.756 3.119.001.004 19.755-3.119zm.073.565v-.001l-19.901 1.99v.001l19.901-1.99zm3.269 25.544c0-2.536-.441-6.26-.992-10.29-.582-4.25-1.401-9.607-2.342-15.769l-19.771 3.021c.951 6.22 1.742 11.399 2.297 15.459.586 4.279.808 6.638.808 7.579h20zm-16.105 8.346c.78.242 1.374.477 1.81.684l8.59-18.061a33.598 33.598 0 00-4.478-1.726l-5.922 19.103zm20.004 32.435c-3.448-12.839-7.194-32.464-7.044-41.827l-19.998-.319c-.197 12.334 4.211 34.247 7.726 47.333l19.316-5.187zm-14.402 32.622c5.061-1.245 13.026-3.694 15.9-12.138 1.215-3.57 1.102-7.182.716-10.207-.394-3.094-1.216-6.562-2.214-10.277l-19.316 5.187c.951 3.541 1.476 5.93 1.691 7.617.223 1.757-.02 1.851.19 1.236.131-.387.368-.839.714-1.251.328-.391.604-.567.634-.586.007-.004-.191.116-.739.314-.544.198-1.3.425-2.352.684l4.776 19.421zm-28.641-4.016c3.528 1.126 8.233 2.637 12.924 3.623 4.454.937 10.286 1.728 15.717.393l-4.776-19.421c-.897.22-3.061.248-6.825-.544-3.529-.742-7.267-1.925-10.961-3.104l-6.079 19.053zm-3.595-1.978c-.899.23-1.59.249-1.885.249-.327 0-.522-.027-.528-.028-.019-.002.044.006.21.041.162.034.379.084.662.157 1.236.319 2.876.839 5.136 1.559l6.079-19.053c-2.066-.659-4.315-1.381-6.219-1.872-.961-.248-2.09-.506-3.24-.658-.917-.122-2.935-.343-5.171.229l4.956 19.376zm-19.271 7.912c2.487 2.399 6.196 3.915 10.363 3.135 3.418-.64 5.844-2.604 7.257-3.979 2.876-2.798 5.506-7.106 8.102-12.253l-17.858-9.006c-1.151 2.284-2.109 3.958-2.88 5.149a18.854 18.854 0 01-.931 1.329 7.857 7.857 0 01-.379.446l.034-.031a4.533 4.533 0 01.575-.415 7.093 7.093 0 012.401-.899 8.3 8.3 0 014.104.281 8.095 8.095 0 013.096 1.848l-13.884 14.395zm12.904 10.154c1.489-4.963 2.754-10.12 3.831-15.327l-19.586-4.049c-.979 4.738-2.109 9.318-3.402 13.629l19.157 5.747zm-14.093 6.119c.487.15.474.155.432.136l8.165-18.257c-1.208-.541-2.273-.858-2.728-.998l-5.869 19.119zm-8.834-7.796c.919 2.329 2.472 4.462 4.81 5.999 1.829 1.202 3.789 1.725 4.025 1.798l5.868-19.12c-.355-.109-.29-.094-.17-.048.171.065.662.263 1.263.658a7.698 7.698 0 011.822 1.677c.523.669.823 1.283.986 1.695l-18.604 7.341zm-1.202-5.563c.147 1.651.438 3.633 1.204 5.57l18.599-7.355c.078.197.125.35.152.445.027.095.037.146.035.14a7.945 7.945 0 01-.069-.573l-19.921 1.773zm-.177-4.082c.014 1.475.066 2.839.177 4.082l19.921-1.774c-.048-.54-.088-1.34-.099-2.501l-19.999.193zm.117-9.707c-.072 3.679-.141 7.158-.117 9.707l19.999-.193c-.021-2.186.039-5.317.114-9.123l-19.996-.391zm-.002.195h20-20zm-.557-27.986c.947 5.635.763 17.388.559 27.79l19.996.392c.184-9.384.507-23.536-.832-31.499l-19.723 3.317zm-.614-5.17c.155 1.841.353 3.619.614 5.17l19.723-3.317c-.134-.792-.276-1.968-.407-3.533l-19.93 1.68zm.649-44.122c-.805 4.263-1.17 12.511-1.268 20.425-.1 8.199.079 17.281.619 23.697l19.93-1.68c-.464-5.504-.647-13.869-.55-21.771.101-8.186.493-14.692.921-16.959l-19.652-3.712zm-3.501-63.203c2.193 9.467 3.379 23.855 3.82 37.129.217 6.538.247 12.608.151 17.397a145.315 145.315 0 01-.226 6.002c-.049.788-.1 1.425-.15 1.916-.025.243-.047.431-.066.571-.02.144-.03.2-.028.188l19.652 3.712c.489-2.586.716-7.135.814-11.986.104-5.176.07-11.603-.158-18.464-.449-13.521-1.672-29.525-4.325-40.978l-19.484 4.513zm-.924-3.471c.312 1.008.622 2.166.924 3.471l19.484-4.513a69.97 69.97 0 00-1.304-4.877l-19.104 5.919zm-.882-2.43c.27.616.568 1.42.882 2.431l19.103-5.921a43.356 43.356 0 00-1.66-4.522l-18.325 8.012zm-10.438-26.621c2.802 8.79 6.647 17.948 10.438 26.621l18.325-8.012c-3.762-8.606-7.244-16.954-9.709-24.684l-19.054 6.075zm-1.634-5.535a126.622 126.622 0 001.634 5.536l19.054-6.076c-.509-1.598-.97-3.154-1.378-4.666l-19.31 5.206zm19.474 182.614c.658-49.483.457-131.785.181-185.269l-20 .103c.277 53.496.476 135.626-.179 184.9l19.998.266zm-42.501 251.037c15.734-70.525 41.643-186.409 42.501-251.037l-19.998-.266c-.824 62.029-26.061 175.402-42.023 246.953l19.52 4.35zm.104-.53l-19.728-3.29 19.728 3.29zm-.109.55h.001l-19.512-4.39h-.001l19.512 4.39zm.108-.55l-19.728-3.28 19.728 3.28zm-7.581 34.42c2.024-9.44 4.582-20.91 7.477-33.88l-19.52-4.36c-2.889 12.95-5.467 24.51-7.512 34.04l19.555 4.2zm-14.762 164.1c-4.398-41.02 1.673-103.11 14.762-164.1l-19.555-4.2c-13.283 61.9-19.817 126.37-15.093 170.43l19.886-2.13zm-4.992 91.64c5.524-17.03 9.658-48.12 4.992-91.64l-19.886 2.13c4.456 41.57.297 69.69-4.13 83.34l19.024 6.17zm-9.947 7.04c.519-.06 1.044-.13 1.575-.19l-2.28-19.87c-.556.07-1.107.13-1.653.2l2.358 19.86zm87.637 32.92c-11.98-2.34-29.76-5.86-45.883-13.17-16.215-7.34-28.872-17.66-33.357-32.56l-19.152 5.76c6.916 22.98 25.817 36.67 44.255 45.02 18.531 8.39 38.497 12.27 50.292 14.58l3.845-19.63zm.37.08h-.002l-4.581 19.47h.002l4.581-19.47zm-.823-.15h-.002l-2.931 19.78h.002l2.931-19.78zm15.038 4.03c-2.241-1.3-5.178-1.98-6.832-2.36-2.157-.5-4.863-1.03-7.748-1.6L372 1382.25c3.01.59 5.339 1.05 7.099 1.45.873.21 1.451.36 1.806.47.491.15.142.09-.508-.29l10.029-17.3zm-27.774 40.45c9.565-1.82 16.958-3.98 22.519-6.47 5.367-2.4 10.131-5.6 12.913-10.16 3.224-5.28 2.939-10.99.576-15.54-2.064-3.97-5.43-6.65-8.234-8.28l-10.029 17.3c.845.49.797.75.513.2-.583-1.12-.625-2.9.101-4.09.284-.47-.192.6-4.012 2.31-3.626 1.63-9.368 3.42-18.089 5.09l3.742 19.64zm-123.372-15.94c13.998 3.87 36.749 9.28 59.784 13.04 22.595 3.68 47.038 6.05 63.588 2.9l-3.742-19.64c-12.707 2.42-33.972.69-56.627-3-22.214-3.62-44.254-8.87-57.678-12.58l-5.325 19.28zm12.662 3.05v-12.69h-20v12.69h20zm-41.927 10h31.927v-20h-31.927v20zm-15.664-40.88c3.573 11.2 5.195 18.68 5.834 23.31.321 2.33.367 3.76.343 4.48-.012.36-.037.39.004.18.012-.06.185-1.04.933-2.28l17.1 10.38c1.003-1.66 1.406-3.29 1.597-4.27.218-1.12.319-2.26.355-3.35.073-2.2-.098-4.81-.519-7.87-.845-6.13-2.802-14.77-6.593-26.66l-19.054 6.08zm3.091-52.03c-5.174 11.43-9.872 30.77-3.091 52.03l19.054-6.08c-4.869-15.26-1.507-29.39 2.258-37.71l-18.221-8.24zm-6.952 8.77c4.528 1.8 8.764 3.39 12.754 4.79l6.618-18.88c-3.699-1.29-7.678-2.79-11.989-4.5L190.49 1320zm11.425-295.14c-.004-.02.165.86.358 3.25.173 2.15.331 5.01.463 8.55.265 7.06.422 16.51.443 27.74.042 22.43-.455 51.7-1.668 82.58-2.446 62.28-7.757 129.4-16.932 160.93l19.204 5.59c9.983-34.31 15.287-103.99 17.713-165.73 1.223-31.14 1.726-60.68 1.683-83.41-.022-11.36-.18-21.07-.457-28.45-.138-3.69-.308-6.86-.514-9.41-.187-2.31-.448-4.78-.929-6.64l-19.364 5zm-.306-70.123c-1.303 11.08-2.262 24.382-2.409 36.856-.145 12.217.468 24.577 2.715 33.267l19.364-5c-1.541-5.96-2.222-16.06-2.081-28.03.138-11.705 1.045-24.302 2.274-34.757l-19.863-2.336zm-4.596 187.493c-3.192-21.17-2.534-57.67 1.705-93.93 4.276-36.58 11.931-70.5 21.528-87.473l-17.41-9.843c-11.76 20.799-19.697 58.336-23.983 94.996-4.322 36.97-5.194 75.5-1.617 99.23l19.777-2.98zm.726 124.03c1.51-41.83 3.509-95.94-.726-124.03l-19.777 2.98c3.883 25.76 2.064 77.43.516 120.33l19.987.72zm-.746 58.21c-.459-2.81-.613-9.71-.423-20.48.183-10.39.652-23.39 1.169-37.73l-19.987-.72c-.515 14.28-.992 27.49-1.179 38.1-.18 10.23-.128 19.11.683 24.06l19.737-3.23zm-21.072 16.47c6.145-1.19 12.865-3.2 17.628-7.19l-12.849-15.33c-.68.57-3.134 1.83-8.587 2.89l3.808 19.63zm-.447.09c.162-.03.321-.07.476-.1l-3.866-19.62c-.121.02-.24.05-.357.07l3.747 19.65zm-.476.09c.165-.03.326-.06.484-.1l-3.763-19.64c-.124.03-.246.05-.366.07l3.645 19.67zm16.847 39.01c-7.554-14.42-9.116-35.44-8.675-48.51l-19.989-.67c-.474 14.06.937 39.35 10.947 58.46l17.717-9.28zm-.976 54.86c7.949-4.57 11.749-12.67 11.496-22.37-.236-9-3.87-19.8-10.52-32.49l-17.717 9.28c6.122 11.68 8.126 19.26 8.243 23.73.099 3.78-1.034 4.26-1.462 4.5l9.96 17.35zm-86.662-36.13c9.168 13.16 22.173 25.39 36.842 32.9 14.689 7.52 32.042 10.74 48.695 3.78l-7.709-18.45c-9.553 3.99-20.563 2.65-31.872-3.14-11.33-5.8-21.96-15.63-29.545-26.52l-16.411 11.43zm1.722-70.71c-3.777 8.86-7.715 20.91-9.11 33.26-1.37 12.14-.458 26.18 7.388 37.45l16.411-11.43c-3.806-5.47-5.063-13.69-3.925-23.77 1.114-9.87 4.36-19.99 7.633-27.66l-18.397-7.85zm-16.686 11.38c6.879.89 15.647 1.81 25.14 2.52l1.49-19.95c-9.143-.68-17.558-1.57-24.079-2.4l-2.55 19.83zm1.074-334.28c5.343 27.91 5.016 87.14 2.18 151.14-2.812 63.5-8.007 130.25-11.935 172.29l19.913 1.86c3.951-42.29 9.172-109.37 12.003-173.27 2.808-63.39 3.352-125.12-2.517-155.78l-19.644 3.76zm-1.89-180.594c-4.249 46.235-8.249 127.617 1.89 180.594l19.644-3.76c-9.557-49.935-5.863-128.806-1.617-175.003l-19.916-1.831zM63.24 806.188c.909 7.855 5.883 13.843 11.32 18.12 5.53 4.348 12.671 7.857 20.418 10.665l6.815-18.803c-6.64-2.407-11.627-5.033-14.868-7.582-3.332-2.621-3.77-4.292-3.817-4.698l-19.868 2.298zm7.236-96.964c-1.518 13.208-3.704 33.812-5.33 52.734-.811 9.455-1.49 18.56-1.871 26.142-.368 7.304-.51 13.973-.035 18.088l19.868-2.298c-.256-2.213-.238-7.257.141-14.783.366-7.249 1.022-16.093 1.824-25.438 1.605-18.68 3.769-39.085 5.272-52.16l-19.869-2.285zm15.48-106.008c-12.458 42.413-15.545 88.921-15.545 107.15h20c0-16.965 2.97-61.46 14.734-101.513l-19.19-5.637zm15.9-63.695c-4.98 22.983-10.494 45.289-15.9 63.695l19.189 5.637c5.581-19 11.208-41.797 16.257-65.096l-19.546-4.236zm-65.842 15.624c14.994 3.553 41.7 2.804 77.399-3.666l-3.567-19.68c-35.148 6.371-58.438 6.44-69.22 3.885l-4.612 19.461zM8.17 511.323c-2.453 6.496-1.76 15.802 2.132 23.896 4.208 8.748 12.429 16.778 25.713 19.926l4.612-19.461c-7.095-1.681-10.562-5.517-12.301-9.134-.93-1.933-1.4-3.894-1.54-5.558-.152-1.803.124-2.68.095-2.603l-18.71-7.066zm-.448-16.282c.304.318 1.394 2.277 1.615 6.617.205 3.999-.456 7.784-1.167 9.665l18.71 7.066c1.869-4.947 2.747-11.57 2.431-17.751-.298-5.839-1.786-13.83-7.138-19.424L7.72 495.041zm5.057-46.947c-13.38 16.811-15.849 35.668-5.057 46.947l14.45-13.827c-.52-.544-4.487-7.167 6.256-20.665l-15.649-12.455zm2.65-31.713c1.006 3.369 2.14 9.477 1.958 15.918-.185 6.568-1.692 12.132-4.608 15.795l15.649 12.455c6.733-8.46 8.706-19.022 8.951-27.686.248-8.79-1.239-17.021-2.784-22.201l-19.165 5.719zm7.631-35.9c-9.285 15.132-9.753 28.971-7.61 35.969l19.124-5.857c.024.081-.122-.418-.166-1.559-.041-1.075.017-2.539.306-4.327.574-3.553 2.051-8.32 5.393-13.766l-17.047-10.46zm8.056-24.81c-2.129 10.729-3.55 17.466-8.056 24.81l17.047 10.46c6.627-10.8 8.554-20.932 10.627-31.378l-19.618-3.892zm8.59-32.743c-4.79 13.56-6.879 24.119-8.59 32.743l19.618 3.892c1.684-8.489 3.549-17.854 7.83-29.973l-18.858-6.662zm37.764-52.487c-8.685 6.838-28.803 27.121-37.764 52.487l18.858 6.662c7.276-20.596 24.38-38.004 31.277-43.434L77.47 270.441zm12.473.081l-.037-.03-12.5 15.613.037.029 12.5-15.612zm31.637-26.433c-13.359 6.549-27.179 13.309-44.007 26.33l12.24 15.818c15.109-11.692 27.357-17.712 40.571-24.19l-8.804-17.958zm57.335-37.445c-23.847 21.035-40.483 29.183-57.335 37.445l8.804 17.958c17.439-8.549 35.935-17.624 61.761-40.404l-13.23-14.999zm-36.546-17.037c1.462 10.624 8.706 18.148 16.017 23.157 7.429 5.091 16.381 8.623 24.306 10.969l5.676-19.178c-6.868-2.033-13.633-4.833-18.677-8.289-5.163-3.538-7.15-6.774-7.509-9.387l-19.813 2.728zm.143-19.968c-1.07 5.786-1.199 12.303-.143 19.968l19.813-2.728c-.813-5.902-.625-10.242-.003-13.606l-19.667-3.634zm1.079-5.778a49.397 49.397 0 00-1.179 6.438l19.866 2.315a29.27 29.27 0 01.7-3.84l-19.387-4.913zm5.143-6.473a32.06 32.06 0 00-.67.4l10.441 17.058c.099-.06.2-.121.304-.182l-10.075-17.276zm3.462-9.713c-2.495 3.877-5.706 8.792-7.878 15.091l18.907 6.52c1.279-3.709 3.18-6.734 5.788-10.785l-16.817-10.826zm3.569-5.843c-1.026 1.885-2.182 3.689-3.569 5.843l16.817 10.826c1.328-2.063 2.885-4.474 4.32-7.11l-17.568-9.559zm1.41-8.807c-.245 5.326-.995 8.044-1.41 8.807l17.568 9.559c2.764-5.08 3.563-11.828 3.821-17.449l-19.979-.917zm19.898 1.894c.018-.183.036-.365.052-.546l-19.921-1.779c-.01.111-.02.223-.032.334l19.901 1.991zm-54.208-44.226c1.584 12.884 8.93 24.159 16.444 32.609 7.628 8.58 16.37 15.307 22.558 19.129l10.511-17.015c-4.731-2.922-11.928-8.436-18.123-15.403-6.309-7.096-10.669-14.674-11.54-21.76l-19.85 2.44zm41.408-31.534c-9.871 1.774-19.779 4.441-27.302 8.573-7.236 3.975-15.535 11.339-14.106 22.961l19.85-2.44c-.008-.066.004-.01-.022.084-.022.078-.022.008.145-.221.397-.546 1.45-1.584 3.761-2.854 4.673-2.567 12.051-4.772 21.212-6.419l-3.538-19.684z" fill="#fff" mask="url(#c)"/></svg>