<svg width="446" height="720" viewBox="0 0 446 720" fill="none" xmlns="http://www.w3.org/2000/svg">
<rect x="193.486" y="224.457" width="105.155" height="116.931" fill="#3789D5"/>
<path d="M382.361 763.207L389.991 706.483C402.707 703.912 427.857 700.611 426.729 707.975C425.319 717.181 429.963 741.479 433.861 755.992C437.759 770.505 436.847 773.822 426.729 776.31C416.612 778.798 397.969 769.427 394.403 770.339C383.521 790.973 381.822 774.379 382.361 763.207Z" fill="#FFC9BA"/>
<path d="M100.645 1002.71C89.4333 944.124 95.9738 848.372 100.645 807.82L157.618 636.32L358.392 566.41C358.724 613.045 359.188 721.29 358.392 781.199C357.397 856.085 321.82 1002.71 308.634 1064.16C295.448 1125.61 289.145 1188.88 293.707 1231.43C298.268 1273.97 294.121 1303.58 289.145 1318.92C253.734 1322.98 242.29 1328.95 194.688 1310.04C213.845 1244.2 215.918 1036.46 212.103 1021.7C208.289 1006.93 209.532 976.334 212.103 954.772C190.541 992.09 180.59 1097.99 187.39 1143.11C194.19 1188.22 184.239 1306.23 187.39 1325.47C174.254 1336.48 117.674 1332.38 91.0254 1328.95C98.9038 1244.61 111.858 1061.29 100.645 1002.71Z" fill="#2365A2"/>
<path fill-rule="evenodd" clip-rule="evenodd" d="M302.062 586.065C308.636 595.13 312.091 606.842 310.213 621.846C309.267 629.402 309.47 638.362 309.715 649.208C310.529 685.23 311.814 742.053 273.06 837.342C264.491 864.653 250.073 887.698 237.062 908.492C235.542 910.921 234.042 913.318 232.573 915.689L212.356 954.81L212.333 954.909C212.341 954.848 212.348 954.786 212.355 954.725C190.793 992.043 180.842 1097.95 187.642 1143.06C191.701 1169.99 189.792 1222.88 188.263 1265.24C187.231 1293.86 186.372 1317.67 187.642 1325.42C174.506 1336.44 117.926 1332.33 91.2773 1328.91C99.1558 1244.57 112.11 1061.24 100.897 1002.66C89.6853 944.077 96.2257 848.326 100.897 807.773L157.87 636.273L302.062 586.065Z" fill="#1E588C"/>
<path d="M234.172 608.373L279.369 455.533C289.929 497.496 309.522 582.532 303.418 586.977C295.789 592.534 290.481 611.608 286.418 624.213C272.618 625.606 245.837 614.234 234.172 608.373Z" fill="#307CC1"/>
<path d="M273.965 351.456C289.556 321.469 288.755 250.171 286.405 218.271L306.474 244.476L342.963 421.2C351.256 470.544 366.084 572.763 359.052 586.895C352.019 601.026 321.457 618.325 307.054 625.208C305.285 615.616 300.735 594.524 296.688 586.895C291.629 577.358 284.58 549.41 287.234 531.166C289.357 516.57 284.746 484.559 282.175 470.378C272.943 443.232 258.374 381.444 273.965 351.456Z" fill="#3B89D2"/>
<path d="M378.545 458.687L391.067 368.957C403.59 375.591 419.927 441.272 414.868 523.456C409.81 605.64 430.127 699.019 430.127 712.619C419.247 707.445 394.467 708.97 383.438 710.38L378.545 458.687Z" fill="#2D76B9"/>
<path d="M251.59 245.64L258.556 213.961L276.635 242.738L273.898 260.734L260.712 261.563L251.59 245.64Z" fill="#2D70AD"/>
<path d="M228.77 282.625C209.332 260.2 195.59 222.577 191.582 207.622C139.134 251.293 120.179 248.672 81.2018 279.191C86.2605 281.762 113.332 305.43 123.035 322.929C132.738 340.427 144.762 406.356 139.953 414.235C136.105 420.537 131.494 429.3 129.669 432.894C126.601 474.525 110.927 554.967 95.8337 606.301C83.7591 647.368 80.7403 692.686 80.7402 710.212C77.727 736.39 72.0657 791.898 73.5252 804.504C75.3497 820.26 109.766 831.622 146.006 834.11C174.999 836.1 188.273 804.697 191.286 788.747C200.159 754.303 220.079 680.589 228.77 661.283C239.634 637.151 254.727 563.426 278.28 464.905C301.735 366.789 253.469 311.114 229.071 282.972L228.77 282.625Z" fill="#2D70AD"/>
<path d="M247.933 309.329C248.862 300.505 257.11 278.507 261.119 268.61L272.729 266.537C273.613 267.228 277.754 272.375 287.242 287.435C289.033 310.258 278.368 346.482 272.812 361.741C264.132 347.947 247.004 318.153 247.933 309.329Z" fill="#0B6AC2"/>
<path d="M200.244 236.517C197.656 233.001 194.024 217.747 192.531 210.56C214.839 208.487 259.406 206.381 259.207 214.541C258.958 224.741 255.724 243.732 249.173 250.947C243.931 256.719 234.715 253.352 230.762 250.947C223.215 247.215 206.546 239.105 200.244 236.517Z" fill="#0B6AC2"/>
<path d="M269.166 238.588L258.717 214.206C262.2 210.917 271.604 201.551 281.357 190.405C293.547 215.533 285.918 238.588 280.03 244.476C275.319 249.186 270.825 242.513 269.166 238.588Z" fill="#307CC1"/>
<path fill-rule="evenodd" clip-rule="evenodd" d="M206.811 247.649C227.189 305.086 256.093 388.373 273.797 439.7L278.355 464.584C301.628 366.669 253.441 311.085 229.07 282.974L228.769 282.627C220.065 272.586 212.676 259.919 206.811 247.649Z" fill="#3387D6"/>
<path d="M277.877 134.097L280.697 101.34L299.688 115.936L299.024 137.249L286.585 148.776L277.877 134.097Z" fill="#2668A6"/>
<path d="M155.903 117.107L149.371 84.8836L171.707 93.5321L177.08 114.167L168.396 128.734L155.903 117.107Z" fill="#2668A6"/>
<path d="M165.092 145.956C170.002 136.933 167.138 110.627 165.092 98.6025L219.826 90.2266L281.609 103.081V126.965C296.371 128.209 286.751 145.956 283.35 148.858C286.336 164.615 286.502 195.962 270.496 210.724C257.692 222.533 219.052 219.736 201.333 216.861C186.212 214.732 155.34 205.897 152.819 187.586C149.667 164.698 158.955 157.234 165.092 145.956Z" fill="#FFC9BA"/>
<path d="M186.899 22.3906C171.308 32.6076 166.802 58.5481 166.498 70.2413L234.252 73.5584C252.027 76.074 287.576 79.9441 287.576 75.3C294.459 37.6497 271.086 22.0875 242.462 13.3512C221.435 6.93387 206.387 9.61938 186.899 22.3906Z" fill="#0B6AC2"/>
<path d="M208.95 109.93C181.815 109.4 162.039 100.532 155.543 96.1639C163.438 80.7057 213.898 78.3892 238.141 79.1632C261.141 88.092 302.86 106.497 285.743 108.686C268.626 110.876 253.953 104.291 248.756 100.725C246.794 104.015 236.085 110.461 208.95 109.93Z" fill="#1D1D1D"/>
<path d="M237.402 484.81C237.667 481.028 235.799 454.153 234.831 441.189C231.647 410.67 220.623 402.101 215.509 401.631L214.182 402.792L217.582 449.15C224.078 462.612 237.137 488.591 237.402 484.81Z" fill="#C4C4C4"/>
<path d="M133.316 88.8174C135.771 108.787 156.73 126.523 167.649 133.268C168.064 129.121 167.815 125.307 167.566 120.911C128.838 83.5098 196.841 84.422 216.993 84.1732C237.145 83.9245 283.42 101.257 292.874 117.843C300.43 131.099 292.226 138.064 287.827 141.799L287.815 141.81C286.654 144.463 285.659 146.039 283.337 148.859C284.249 154.996 284.477 159.682 284.995 165.196C304.318 157.649 321.485 134.014 311.45 101.257C301.416 68.4995 269.819 67.6701 249.999 66.5092C236.258 65.7043 224.456 65.0166 215.002 65.0165C186.834 64.1319 130.862 68.8478 133.316 88.8174Z" fill="#307CC1"/>
<path fill-rule="evenodd" clip-rule="evenodd" d="M283.333 148.947C286.303 164.904 286.44 196.508 270.463 211.405C257.659 223.343 219.019 220.515 201.299 217.609C186.179 215.457 155.306 206.525 152.785 188.014C151.679 179.889 152.106 173.687 153.392 168.565C157.157 166.239 162.831 164.042 168.375 165.629C177.746 168.312 191.927 169.067 200.469 164.372C209.01 159.677 226.923 162.947 231.567 165.629C236.211 168.312 265.735 173.762 275.354 157.833C279.256 151.372 281.774 149.135 283.333 148.947Z" fill="#1D1D1D"/>
<path d="M231.867 131.351C236.746 127.598 248.628 122.035 257.128 129.807C252.885 134.017 244.102 138.14 231.867 131.351Z" fill="#FFF3F1"/>
<mask id="mask0" mask-type="alpha" maskUnits="userSpaceOnUse" x="239" y="125" width="12" height="12">
<path d="M250.229 132.263C249.48 135.222 245.92 136.733 242.961 135.983C240.002 135.233 238.994 132.565 239.744 129.606C240.494 126.647 242.717 124.518 245.676 125.268C248.635 126.018 250.979 129.304 250.229 132.263Z" fill="#2C1E25"/>
</mask>
<g mask="url(#mask0)">
<path d="M231.755 131.363C236.636 127.6 248.523 122.019 257.019 129.802C252.773 134.023 243.988 138.159 231.755 131.363Z" fill="#2C1E25"/>
</g>
<mask id="mask1" mask-type="alpha" maskUnits="userSpaceOnUse" x="169" y="124" width="10" height="12">
<path d="M178.842 130.156C178.758 133.335 177.127 135.87 173.948 135.786C170.77 135.702 169.134 133.221 169.219 130.042C169.303 126.863 171.075 124.191 174.254 124.275C177.432 124.359 178.927 126.978 178.842 130.156Z" fill="#2C1E25"/>
</mask>
<g mask="url(#mask1)">
<path d="M159.899 129.904C162.845 126.719 171.507 122.006 182.587 128.641C179.158 133.816 167.784 138.671 159.899 129.904Z" fill="#2C1E25"/>
</g>
<path fill-rule="evenodd" clip-rule="evenodd" d="M167.715 134.502C167.92 131.454 167.889 128.011 167.806 125.644C171.772 124.814 176.818 125.232 182.501 128.635C180.123 132.224 173.923 135.66 167.715 134.502Z" fill="#FFF3F1"/>
<path fill-rule="evenodd" clip-rule="evenodd" d="M173.564 125.409C171.469 125.156 169.541 125.281 167.818 125.642C167.901 128.009 167.932 131.452 167.727 134.5C169.783 134.884 171.838 134.763 173.754 134.3C175.027 131.221 174.73 127.775 173.564 125.409Z" fill="#2C1E25"/>
<path d="M242.29 108.961C237.614 107.509 232.541 110.302 230.638 111.8C229.83 112.436 227.792 115.14 228.369 117.901C229.572 123.658 234.926 121.792 240.54 118.953C246.155 116.113 252.192 120.057 253.769 120.373C255.345 120.688 261.883 120.609 260.614 115.14C259.345 109.671 254.288 109.75 252.192 110.302C250.096 110.854 248.135 110.775 242.29 108.961Z" fill="#1D1D1D"/>
<path d="M200.331 188.582C195.655 187.13 191.75 185.934 189.847 187.432C189.039 188.068 187.001 190.772 187.578 193.533C188.781 199.29 195.794 198.844 201.409 196.004C207.023 193.165 211.401 197.787 212.978 196.004C217.124 191.316 221.092 196.241 219.823 190.772C218.554 185.303 213.497 185.381 211.401 185.934C209.305 186.486 206.176 190.396 200.331 188.582Z" fill="#FFC9BA"/>
<path d="M180.58 119.019C185.204 117.218 186.182 115.578 185.321 113.368C183.186 107.888 178.785 108.072 175.206 110.139C172.643 111.62 169.2 111.806 167.595 111.085C166.311 110.508 163.282 110.015 161.911 110.549C160.917 110.936 160.02 112.831 161.231 114.911C162.442 116.99 165.335 116.765 166.895 116.683C172 116.418 173.092 121.936 180.58 119.019Z" fill="#1D1D1D"/>
<path d="M200.864 117.344C187.137 142.951 167.92 188.092 200.864 163.792C200.864 146.084 208.45 122.384 200.864 117.344Z" fill="#F0BBAC"/>
<path d="M166.253 296.558C167.978 281.764 162.347 247.734 160.412 233.083C182.554 219.151 180.564 212.185 190.433 214.341C202.706 235.322 213.717 261.175 222.978 275.494C224.802 284.782 226.212 300.373 253.081 363.068C279.951 425.763 280.089 461.396 276.799 471.375C276.799 403.621 204.07 374.678 164.429 319.945C166.253 313.891 183.337 304.022 189.225 300.207C183.918 299.793 174.381 298.549 166.253 296.558Z" fill="#307CC1"/>
<path d="M235.902 355.771C229.865 362.671 218.625 392.482 213.76 406.524L222.55 450.477C224.845 449.925 232.701 448.703 245.771 448.238C262.108 447.658 272.972 432.647 285.743 421.203C298.514 409.759 298.431 402.958 285.743 402.958C307.471 389.441 296.773 384.299 288.729 384.299C299.758 377.996 293.29 371.528 288.729 369.455C294.948 366.801 294.7 361.079 291.051 353.283C287.402 345.488 274.465 346.234 269.157 349.634C272.557 331.721 243.449 347.146 235.902 355.771Z" fill="#FFC9BA"/>
<path d="M215.509 401.629C211.661 401.496 201.466 406.439 196.85 408.926L223.221 490.447H237.485C237.817 482.983 236.988 477.924 229.109 462.416C221.231 446.908 215.509 405.692 215.509 401.629Z" fill="#DFDFDF"/>
<path d="M47.5366 328.036C55.6306 305.147 75.097 283.889 82.8648 277.78C93.3416 286.156 120.137 306.674 124.781 316.957C130.586 329.811 169.48 400.385 128.596 434.22C138.375 433.506 148.134 431.583 152.645 427.005C166.66 414.317 168.568 416.805 187.808 406.936C207.047 397.067 207.296 432.727 209.038 442.513C210.779 452.299 225.624 479.5 227.117 489.535C228.609 499.569 217.745 514.911 183.661 524.448C109.605 546.922 59.1001 550.737 38.7823 545.927C18.4644 541.117 15.4791 522.292 18.0498 515.492C20.6204 508.691 21.1184 494.759 15.4791 488.871C9.8399 482.983 9.09353 470.295 21.1184 455.201C30.7383 443.127 28.0569 423.08 25.5137 414.566C24.3527 410.779 22.0936 399.157 30.1213 386.087C40.1558 369.75 37.4191 356.647 47.5366 328.036Z" fill="#307CC1"/>
<path d="M140.211 545.43C152.817 540.454 183.39 548.609 197.101 553.308C195.056 558.174 189.455 569.331 183.418 575.036C175.871 582.168 147.343 576.612 137.558 575.036C129.729 573.776 128.767 569.148 129.265 566.992C131.172 560.606 136.032 547.354 140.211 545.43Z" fill="#307CC1"/>
<ellipse cx="268.835" cy="262.971" rx="12.1907" ry="11.1126" fill="#307CC1"/>
<path d="M309.385 230.379C305.338 228.057 291.942 212.992 285.75 205.749C284.617 209.896 283.03 218.951 285.75 222.003C288.47 225.055 299.378 256.889 304.492 272.425C310.325 297.608 322.919 352.751 326.634 371.858C331.279 395.742 344.796 468.223 347.616 483.482C350.435 498.741 350.021 531.084 351.182 537.552C352.343 544.021 356.158 567.241 356.158 580.344C356.158 593.447 362.958 610.365 370.173 626.868C377.388 643.371 377.554 694.373 376.144 701.837C374.734 709.301 374.568 738.243 376.144 747.614C377.719 756.985 376.641 778.05 376.724 786.674C376.807 795.299 378.3 793.806 381.451 795.216C390.209 766.025 391.292 727.656 390.739 712.12C386.372 669.881 379.428 573.726 386.593 527.02C395.549 468.637 387.422 460.51 384.188 455.617C380.954 450.725 385.764 435.797 390.491 403.206C395.218 370.614 393.144 340.179 392.066 331.637C390.988 323.095 391.237 299.294 387.92 289.425C384.603 279.557 369.426 263.634 355.743 253.766C342.059 243.897 314.444 233.282 309.385 230.379Z" fill="#3387D6"/>
<path fill-rule="evenodd" clip-rule="evenodd" d="M383.182 452.207C381.915 450.48 380.65 448.767 379.401 447.074C376.771 443.509 374.205 440.032 371.816 436.71C360.604 421.119 351.664 388.472 348.596 374.098L335.42 418.242C340.523 445.41 345.934 474.457 347.602 483.483C349.322 492.789 349.838 508.45 350.243 520.721C350.502 528.569 350.715 535.03 351.168 537.553C352.329 544.022 356.144 567.242 356.144 580.345C356.144 593.448 362.944 610.366 370.159 626.869C377.374 643.372 377.54 694.374 376.13 701.838C374.72 709.302 374.554 738.244 376.13 747.615C377.273 754.414 377.02 767.368 376.826 777.26C376.753 781.003 376.688 784.308 376.711 786.675C376.778 793.705 377.782 794.014 379.858 794.651C380.329 794.795 380.855 794.957 381.438 795.217C390.195 766.026 391.279 727.657 390.726 712.121C386.358 669.882 379.414 573.728 386.579 527.021C395.096 471.506 388.166 461.431 384.684 456.369C384.504 456.107 384.333 455.859 384.174 455.618C383.623 454.785 383.306 453.66 383.182 452.207Z" fill="#307CC1"/>
<path fill-rule="evenodd" clip-rule="evenodd" d="M308.555 229.806C308.938 230.098 309.278 230.332 309.57 230.499C311.06 231.354 314.508 232.879 318.98 234.856C323.889 237.026 330.033 239.743 336.178 242.719C337.794 250.964 343.812 270.352 346.977 280.091L326.908 285.731L311.152 253.886L308.555 229.806Z" fill="#307CC1"/>
<path d="M358.894 304.022C361.747 293.274 344.99 283.842 336.254 280.469L326.469 279.06C330.671 299.405 340.517 342.501 346.289 352.121C347.699 344.657 355.328 317.456 358.894 304.022Z" fill="#2D70AD"/>
<path fill-rule="evenodd" clip-rule="evenodd" d="M309.258 229.909C310.46 238.047 313.993 250.084 322.079 266.619C336.874 296.872 341.844 318.036 342.48 324.836C345.493 337.054 353.012 363.365 358.983 370.862C364.625 377.945 352.005 430.499 343.857 460.128C338.62 432.05 330.586 389.175 327.218 371.855C323.503 352.748 310.909 297.605 305.076 272.422C299.962 256.886 289.054 225.052 286.334 222C283.614 218.949 285.201 209.893 286.334 205.746C292.201 212.609 304.537 226.496 309.258 229.909Z" fill="#0B6AC2"/>
<mask id="path-44-outside-1" maskUnits="userSpaceOnUse" x="0" y="-0.345703" width="446" height="1440" fill="black">
<rect fill="white" y="-0.345703" width="446" height="1440"/>
<path fill-rule="evenodd" clip-rule="evenodd" d="M166.041 69.0009C166.753 56.5994 171.566 32.7412 186.362 23.0449C205.85 10.2737 220.898 7.58817 241.925 14.0055C270.091 22.6018 293.172 37.8071 287.347 74.1615C297.544 78.9135 306.412 87.187 310.923 101.913C320.835 134.271 304.205 157.728 285.173 165.569C285.112 173.922 284.076 183.014 281.378 191.196C281.347 191.307 281.315 191.419 281.283 191.53C281.254 191.63 281.225 191.73 281.196 191.829C283.603 196.951 285.193 201.981 286.149 206.789C292.141 213.777 304.121 227.229 308.75 230.571C308.772 230.718 308.794 230.866 308.817 231.015L308.856 231.037C310.347 231.892 313.794 233.417 318.266 235.394C328.976 240.129 345.562 247.462 355.214 254.424C368.898 264.292 384.074 280.215 387.391 290.084C389.624 296.727 390.241 309.683 390.735 320.048C390.975 325.081 391.185 329.503 391.538 332.295C392.239 337.854 393.363 352.687 392.758 371.353C404.892 383.914 419.115 446.69 414.349 524.112C410.584 585.285 420.878 652.661 426.388 688.722L426.388 688.723L426.389 688.726L426.389 688.727C428.281 701.11 429.608 709.799 429.608 713.276C428.66 712.825 427.605 712.424 426.464 712.071C426.291 722.919 430.367 743.688 433.849 756.65C437.747 771.163 436.834 774.48 426.717 776.968C420.389 778.524 410.726 775.441 403.503 773.137C399.178 771.756 395.727 770.655 394.391 770.997C389.356 780.98 386.32 783.116 384.54 781.4C383.512 786.372 382.314 791.24 380.923 795.877C380.341 795.617 379.815 795.455 379.344 795.311C378.208 794.962 377.393 794.712 376.877 793.404C376.626 792.77 376.446 791.887 376.333 790.624C376.254 789.732 376.208 788.651 376.196 787.333C376.173 784.965 376.238 781.66 376.311 777.917V777.917C376.505 768.024 376.758 755.071 375.615 748.272C375.418 747.101 375.248 745.624 375.105 743.921C374.1 732.001 374.382 709.026 375.615 702.495C376.849 695.964 376.876 656.1 372.03 635.18C371.684 633.685 371.313 632.288 370.916 631.006C370.519 629.725 370.095 628.56 369.645 627.529C365.868 618.89 362.205 610.137 359.571 601.877C359.021 600.153 358.517 598.451 358.065 596.776C358.341 650.265 358.542 732.482 357.885 781.86C357.044 845.188 331.471 959.817 315.623 1030.86L315.623 1030.86L315.622 1030.86L315.622 1030.86C312.73 1043.82 310.162 1055.33 308.127 1064.82C294.941 1126.27 288.639 1189.54 293.2 1232.09C297.761 1274.63 293.615 1304.24 288.639 1319.58C288.095 1319.64 287.557 1319.7 287.025 1319.77C298.425 1357.65 350.143 1367.78 373.919 1372.44L373.92 1372.44L373.923 1372.44C379.818 1373.59 383.994 1374.41 385.412 1375.23C392.709 1379.46 397.353 1390.24 360.781 1397.21C331.524 1402.78 269.365 1389.03 241.942 1381.45V1394.14H210.015C211.037 1392.45 211.242 1383.31 203.878 1360.22C198.053 1341.96 202.083 1325.23 206.553 1315.35C202.708 1314 198.601 1312.46 194.181 1310.71C213.338 1244.86 215.411 1037.12 211.597 1022.36C207.81 1007.7 209.008 977.44 211.541 955.905C190.185 993.678 180.356 1098.81 187.125 1143.72C191.183 1170.65 189.275 1223.54 187.746 1265.9C186.713 1294.52 185.854 1318.33 187.125 1326.08C184.403 1328.37 179.816 1330 174.017 1331.12C173.879 1331.15 173.74 1331.18 173.6 1331.2C173.46 1331.23 173.318 1331.26 173.176 1331.28C172.718 1344.85 174.204 1368 182.987 1384.77C195.758 1409.15 194.265 1421.51 185.889 1426.32C159.683 1437.26 129.165 1417.19 112.413 1393.14C100.76 1376.41 108.077 1348.61 115.128 1332.08C105.81 1331.38 97.2185 1330.48 90.5188 1329.61C98.3972 1245.27 111.351 1061.95 100.139 1003.37C90.2912 951.914 94.1382 871.787 98.3857 825.571C83.9979 820.357 74.1296 813.3 73.174 805.039C71.71 792.383 77.3886 736.65 80.4109 710.366C80.411 692.769 83.439 647.268 95.5503 606.034C101.044 587.332 106.614 564.78 111.629 541.639C76.2056 548.059 51.2083 548.469 38.3202 545.414C17.9405 540.585 14.9462 521.684 17.5246 514.856C20.103 508.028 20.6026 494.04 14.9462 488.128C9.28979 482.216 8.54115 469.476 20.6026 454.322C30.2517 442.198 27.5622 422.07 25.0113 413.522C23.8467 409.719 23.5306 398.834 31.5827 385.711C37.1491 376.639 38.8229 368.204 40.9237 357.617C42.6216 349.061 44.5983 339.099 49.1341 326.259C57.2527 303.278 75.8631 284.432 83.6545 278.298L83.6916 278.328C99.6604 265.972 112.694 259.582 125.981 253.068C143.127 244.663 160.693 236.051 185.529 214.144C170.736 209.765 154.097 201.48 152.274 188.243C151.34 181.459 151.499 176.031 152.344 171.456C152.558 169.62 152.878 167.916 153.283 166.317C153.442 166.22 153.605 166.123 153.77 166.026C155.496 161.022 158.052 157.052 160.604 153.088C161.961 150.979 163.318 148.872 164.548 146.612C166.137 143.69 166.912 138.957 167.163 133.483C167.15 133.63 167.136 133.777 167.122 133.924C156.203 127.179 135.244 109.443 132.789 89.4732C131.471 78.7469 147.009 72.4214 166.041 69.0009Z"/>
</mask>
<path d="M186.362 23.0449L191.843 31.409L186.362 23.0449ZM166.041 69.0009L167.81 78.8432C172.362 78.025 175.76 74.1917 176.025 69.574L166.041 69.0009ZM241.925 14.0055L244.844 4.44107L241.925 14.0055ZM287.347 74.1615L277.473 72.5793C276.766 76.9919 279.072 81.3379 283.123 83.2256L287.347 74.1615ZM310.923 101.913L320.484 98.9838V98.9838L310.923 101.913ZM285.173 165.569L281.364 156.323C277.642 157.856 275.202 161.471 275.173 165.496L285.173 165.569ZM281.378 191.196L271.881 188.065C271.836 188.202 271.794 188.339 271.755 188.478L281.378 191.196ZM281.283 191.53L290.892 194.3L290.892 194.298L281.283 191.53ZM281.196 191.829L271.601 189.013C270.913 191.357 271.107 193.872 272.146 196.083L281.196 191.829ZM286.149 206.789L276.342 208.739C276.677 210.424 277.44 211.994 278.558 213.298L286.149 206.789ZM308.75 230.571L318.642 229.108C318.248 226.439 316.791 224.042 314.603 222.463L308.75 230.571ZM308.817 231.015L298.936 232.552C299.401 235.537 301.19 238.152 303.804 239.667L308.817 231.015ZM308.856 231.037L303.843 239.69C303.855 239.697 303.867 239.704 303.88 239.711L308.856 231.037ZM318.266 235.394L314.223 244.54L318.266 235.394ZM355.214 254.424L361.064 246.313L355.214 254.424ZM387.391 290.084L396.87 286.897L387.391 290.084ZM390.735 320.048L380.746 320.524V320.524L390.735 320.048ZM391.538 332.295L401.459 331.043V331.043L391.538 332.295ZM392.758 371.353L382.763 371.029C382.676 373.732 383.687 376.355 385.566 378.3L392.758 371.353ZM414.349 524.112L404.368 523.498L414.349 524.112ZM426.388 688.722L416.503 690.232C416.526 690.383 416.552 690.533 416.582 690.683L426.388 688.722ZM426.388 688.723L436.266 687.163C436.244 687.029 436.221 686.895 436.194 686.762L426.388 688.723ZM426.389 688.726L436.339 687.731C436.32 687.542 436.296 687.354 436.266 687.167L426.389 688.726ZM426.389 688.727L416.438 689.722C416.456 689.895 416.477 690.066 416.503 690.238L426.389 688.727ZM429.608 713.276L425.313 722.306C428.411 723.78 432.049 723.562 434.949 721.73C437.85 719.898 439.608 716.706 439.608 713.276H429.608ZM426.464 712.071L429.425 702.519C426.417 701.587 423.145 702.125 420.596 703.973C418.046 705.821 416.516 708.762 416.465 711.911L426.464 712.071ZM433.849 756.65L424.191 759.244L433.849 756.65ZM426.717 776.968L429.105 786.679L426.717 776.968ZM403.503 773.137L400.464 782.663L400.464 782.663L403.503 773.137ZM394.391 770.997L391.913 761.309C389.115 762.025 386.763 763.915 385.462 766.494L394.391 770.997ZM384.54 781.4L391.482 774.202C388.859 771.672 385.068 770.77 381.587 771.846C378.105 772.922 375.485 775.806 374.747 779.375L384.54 781.4ZM380.923 795.877L376.841 805.006C379.467 806.18 382.471 806.167 385.087 804.969C387.702 803.772 389.675 801.506 390.502 798.751L380.923 795.877ZM379.344 795.311L382.278 785.751L382.278 785.751L379.344 795.311ZM376.877 793.404L386.179 789.733L386.176 789.726L376.877 793.404ZM376.333 790.624L386.294 789.738L386.294 789.737L376.333 790.624ZM376.196 787.333L386.195 787.236V787.236L376.196 787.333ZM376.311 777.917L386.309 778.113C386.31 778.048 386.311 777.983 386.311 777.917H376.311ZM376.311 777.917L366.313 777.721C366.312 777.786 366.311 777.852 366.311 777.917H376.311ZM375.615 748.272L385.477 746.614L375.615 748.272ZM375.105 743.921L385.07 743.081L385.07 743.081L375.105 743.921ZM375.615 702.495L385.441 704.351L375.615 702.495ZM372.03 635.18L381.772 632.923L372.03 635.18ZM370.916 631.006L380.468 628.046L380.467 628.045L370.916 631.006ZM369.645 627.529L360.482 631.535L360.482 631.535L369.645 627.529ZM359.571 601.877L369.098 598.839L369.098 598.839L359.571 601.877ZM358.065 596.776L367.72 594.173C366.412 589.321 361.707 586.193 356.727 586.866C351.747 587.538 348.039 591.802 348.065 596.827L358.065 596.776ZM357.885 781.86L347.886 781.727L357.885 781.86ZM315.623 1030.86L305.863 1028.68C305.824 1028.85 305.789 1029.03 305.759 1029.21L315.623 1030.86ZM315.623 1030.86L325.379 1033.05C325.42 1032.87 325.456 1032.68 325.487 1032.5L315.623 1030.86ZM315.622 1030.86L305.866 1028.66C305.825 1028.85 305.789 1029.03 305.758 1029.22L315.622 1030.86ZM315.622 1030.86L325.382 1033.04C325.422 1032.86 325.456 1032.68 325.486 1032.5L315.622 1030.86ZM308.127 1064.82L298.35 1062.72L308.127 1064.82ZM293.2 1232.09L303.143 1231.02L293.2 1232.09ZM288.639 1319.58L289.779 1329.51C293.67 1329.07 296.943 1326.39 298.151 1322.66L288.639 1319.58ZM287.025 1319.77L285.846 1309.84C282.911 1310.19 280.281 1311.81 278.661 1314.29C277.041 1316.76 276.598 1319.82 277.449 1322.65L287.025 1319.77ZM373.919 1372.44L376.209 1362.7C376.087 1362.67 375.964 1362.65 375.841 1362.62L373.919 1372.44ZM373.92 1372.44L371.63 1382.17C371.903 1382.24 372.178 1382.29 372.455 1382.33L373.92 1372.44ZM373.923 1372.44L375.846 1362.62C375.694 1362.59 375.541 1362.57 375.388 1362.55L373.923 1372.44ZM385.412 1375.23L390.426 1366.58L390.426 1366.58L385.412 1375.23ZM360.781 1397.21L358.91 1387.39H358.91L360.781 1397.21ZM241.942 1381.45L244.605 1371.81C241.595 1370.98 238.37 1371.6 235.885 1373.5C233.401 1375.39 231.942 1378.33 231.942 1381.45H241.942ZM241.942 1394.14V1404.14C247.465 1404.14 251.942 1399.66 251.942 1394.14H241.942ZM210.015 1394.14L201.465 1388.95C199.592 1392.04 199.529 1395.9 201.301 1399.05C203.073 1402.19 206.403 1404.14 210.015 1404.14V1394.14ZM203.878 1360.22L213.405 1357.18L203.878 1360.22ZM206.553 1315.35L215.663 1319.47C216.819 1316.92 216.85 1313.99 215.747 1311.42C214.643 1308.84 212.508 1306.84 209.862 1305.91L206.553 1315.35ZM194.181 1310.71L184.579 1307.91C183.139 1312.86 185.698 1318.1 190.49 1320L194.181 1310.71ZM211.597 1022.36L201.915 1024.86H201.915L211.597 1022.36ZM211.541 955.905L221.472 957.073C222.028 952.344 219.173 947.879 214.647 946.4C210.121 944.921 205.179 946.839 202.836 950.984L211.541 955.905ZM187.125 1143.72L177.236 1145.21L187.125 1143.72ZM187.746 1265.9L197.739 1266.26L187.746 1265.9ZM187.125 1326.08L193.549 1333.75C196.255 1331.48 197.564 1327.95 196.993 1324.47L187.125 1326.08ZM174.017 1331.12L172.113 1321.31C172.103 1321.31 172.094 1321.31 172.084 1321.31L174.017 1331.12ZM173.6 1331.2L171.727 1321.38L171.719 1321.38L173.6 1331.2ZM173.176 1331.28L171.353 1321.45C166.739 1322.31 163.34 1326.26 163.181 1330.95L173.176 1331.28ZM182.987 1384.77L174.128 1389.41L174.128 1389.41L182.987 1384.77ZM185.889 1426.32L189.744 1435.54C190.13 1435.38 190.506 1435.2 190.869 1434.99L185.889 1426.32ZM112.413 1393.14L120.618 1387.43H120.618L112.413 1393.14ZM115.128 1332.08L124.326 1336C125.592 1333.03 125.348 1329.64 123.671 1326.88C121.994 1324.12 119.09 1322.34 115.873 1322.1L115.128 1332.08ZM90.5188 1329.61L80.5621 1328.68C80.0611 1334.05 83.8996 1338.84 89.2431 1339.53L90.5188 1329.61ZM100.139 1003.37L90.3172 1005.25L100.139 1003.37ZM98.3857 825.571L108.344 826.487C108.76 821.958 106.068 817.719 101.793 816.17L98.3857 825.571ZM73.174 805.039L63.2403 806.188V806.188L73.174 805.039ZM80.4109 710.366L90.3454 711.509C90.389 711.129 90.4109 710.748 90.4109 710.366L80.4109 710.366ZM95.5503 606.034L85.9557 603.216L95.5503 606.034ZM111.629 541.639L121.402 543.757C122.11 540.493 121.141 537.091 118.82 534.689C116.499 532.288 113.132 531.204 109.846 531.799L111.629 541.639ZM38.3202 545.414L36.0143 555.145H36.0143L38.3202 545.414ZM17.5246 514.856L26.8798 518.389L26.8798 518.389L17.5246 514.856ZM14.9462 488.128L7.72072 495.041H7.72072L14.9462 488.128ZM20.6026 454.322L12.7783 448.094H12.7783L20.6026 454.322ZM25.0113 413.522L34.5937 410.662C34.5869 410.639 34.5799 410.616 34.5729 410.593L25.0113 413.522ZM31.5827 385.711L23.0593 380.481H23.0593L31.5827 385.711ZM40.9237 357.617L50.7325 359.563L40.9237 357.617ZM49.1341 326.259L39.7052 322.928L39.7052 322.928L49.1341 326.259ZM83.6545 278.298L89.9046 270.492C86.2752 267.586 81.1219 267.565 77.4688 270.441L83.6545 278.298ZM83.6916 278.328L77.4415 286.134C81.0465 289.021 86.159 289.063 89.8113 286.237L83.6916 278.328ZM125.981 253.068L130.383 262.047H130.383L125.981 253.068ZM185.529 214.144L192.144 221.643C194.872 219.237 196.079 215.538 195.293 211.986C194.508 208.434 191.856 205.588 188.367 204.555L185.529 214.144ZM152.274 188.243L162.181 186.879L152.274 188.243ZM152.344 171.456L162.178 173.273C162.218 173.055 162.251 172.835 162.277 172.614L152.344 171.456ZM153.283 166.317L148.063 157.788C145.836 159.151 144.231 161.33 143.59 163.861L153.283 166.317ZM153.77 166.026L158.808 174.664C160.876 173.458 162.443 171.55 163.224 169.286L153.77 166.026ZM160.604 153.088L152.195 147.675L152.195 147.675L160.604 153.088ZM164.548 146.612L155.764 141.832L155.764 141.832L164.548 146.612ZM167.163 133.483L177.153 133.942C177.402 128.509 173.264 123.873 167.838 123.506C162.411 123.139 157.687 127.177 157.203 132.594L167.163 133.483ZM167.122 133.924L161.866 142.431C164.8 144.244 168.46 144.417 171.551 142.889C174.642 141.362 176.729 138.35 177.072 134.919L167.122 133.924ZM132.789 89.4732L142.714 88.2532L132.789 89.4732ZM180.881 14.6809C170.862 21.2462 164.975 31.9984 161.511 41.6213C157.981 51.4259 156.457 61.4681 156.058 68.4277L176.025 69.574C176.337 64.1322 177.575 56.0445 180.329 48.3956C183.148 40.5649 187.065 34.54 191.843 31.409L180.881 14.6809ZM244.844 4.44107C233.28 0.911532 222.661 -0.317557 211.929 1.46457C201.269 3.23458 191.319 7.8403 180.881 14.6809L191.843 31.409C200.893 25.4783 208.212 22.3556 215.205 21.1944C222.125 20.0453 229.544 20.6822 239.006 23.57L244.844 4.44107ZM297.221 75.7437C300.547 54.9867 295.661 38.9157 284.782 26.9479C274.395 15.521 259.494 8.91233 244.844 4.44107L239.006 23.57C252.522 27.695 263.244 32.987 269.983 40.4005C276.23 47.273 279.972 56.9819 277.473 72.5793L297.221 75.7437ZM320.484 98.9838C315.072 81.3143 304.104 70.9382 291.571 65.0974L283.123 83.2256C290.983 86.8888 297.752 93.0598 301.361 104.842L320.484 98.9838ZM288.982 174.815C312.594 165.087 331.968 136.472 320.484 98.9838L301.361 104.842C309.702 132.07 295.815 150.369 281.364 156.323L288.982 174.815ZM290.876 194.327C293.994 184.868 295.107 174.676 295.173 165.641L275.173 165.496C275.117 173.168 274.157 181.161 271.881 188.065L290.876 194.327ZM290.892 194.298C290.929 194.17 290.966 194.042 291.002 193.913L271.755 188.478C271.728 188.573 271.701 188.668 271.674 188.762L290.892 194.298ZM290.791 194.646C290.825 194.53 290.859 194.414 290.892 194.3L271.674 188.76C271.65 188.845 271.625 188.93 271.601 189.013L290.791 194.646ZM295.957 204.838C294.847 199.254 293.007 193.45 290.246 187.576L272.146 196.083C274.2 200.453 275.54 204.707 276.342 208.739L295.957 204.838ZM314.603 222.463C313.249 221.485 309.793 218.092 305.288 213.242C301.078 208.709 296.676 203.702 293.741 200.28L278.558 213.298C281.615 216.863 286.198 222.076 290.633 226.852C294.774 231.311 299.622 236.315 302.897 238.679L314.603 222.463ZM318.699 229.477C318.679 229.351 318.66 229.228 318.642 229.108L298.858 232.034C298.883 232.207 298.91 232.38 298.936 232.552L318.699 229.477ZM313.87 222.385L313.831 222.363L303.804 239.667L303.843 239.69L313.87 222.385ZM322.31 226.248C317.49 224.117 314.736 222.882 313.833 222.364L303.88 239.711C305.958 240.903 310.098 242.716 314.223 244.54L322.31 226.248ZM361.064 246.313C350.369 238.6 332.652 230.821 322.31 226.248L314.223 244.54C325.3 249.437 340.755 256.325 349.365 262.534L361.064 246.313ZM396.87 286.897C394.504 279.86 388.64 272.118 382.557 265.491C376.201 258.567 368.481 251.663 361.064 246.313L349.365 262.534C355.631 267.053 362.341 273.044 367.823 279.016C373.578 285.285 376.961 290.439 377.912 293.27L396.87 286.897ZM400.724 319.573C400.479 314.434 400.192 308.377 399.673 302.751C399.173 297.338 398.39 291.418 396.87 286.897L377.912 293.27C378.626 295.392 379.267 299.272 379.758 304.589C380.229 309.694 380.497 315.297 380.746 320.524L400.724 319.573ZM401.459 331.043C401.168 328.738 400.973 324.805 400.724 319.573L380.746 320.524C380.977 325.358 381.203 330.269 381.616 333.547L401.459 331.043ZM402.753 371.676C403.373 352.527 402.232 337.165 401.459 331.043L381.616 333.547C382.247 338.543 383.352 352.847 382.763 371.029L402.753 371.676ZM424.33 524.727C426.758 485.281 424.359 449.475 419.756 421.77C417.456 407.929 414.579 395.948 411.404 386.46C408.376 377.41 404.646 369.266 399.951 364.405L385.566 378.3C386.937 379.72 389.535 384.133 392.438 392.806C395.193 401.041 397.849 411.948 400.026 425.049C404.376 451.228 406.706 485.521 404.368 523.498L424.33 524.727ZM436.273 687.212C430.743 651.019 420.64 584.671 424.33 524.727L404.368 523.498C400.527 585.899 411.013 654.304 416.503 690.232L436.273 687.212ZM436.194 686.762L436.194 686.761L416.582 690.683L416.582 690.684L436.194 686.762ZM436.266 687.167L436.266 687.163L416.51 690.282L416.511 690.286L436.266 687.167ZM436.339 687.732L436.339 687.731L416.438 689.721L416.438 689.722L436.339 687.732ZM439.608 713.276C439.608 710.74 439.167 707.016 438.616 702.986C438.034 698.736 437.215 693.379 436.274 687.217L416.503 690.238C417.454 696.458 418.245 701.637 418.8 705.697C419.386 709.976 419.608 712.335 419.608 713.276H439.608ZM423.503 721.622C424.283 721.864 424.877 722.099 425.313 722.306L433.903 704.245C432.442 703.55 430.928 702.985 429.425 702.519L423.503 721.622ZM443.507 754.057C440.059 741.218 436.313 721.593 436.463 712.23L416.465 711.911C416.268 724.245 420.676 746.158 424.191 759.244L443.507 754.057ZM429.105 786.679C434.166 785.434 442.131 782.985 445.005 774.541C446.22 770.971 446.107 767.359 445.721 764.334C445.327 761.24 444.505 757.772 443.507 754.057L424.191 759.244C425.142 762.785 425.667 765.174 425.882 766.861C426.105 768.618 425.862 768.712 426.072 768.097C426.203 767.71 426.44 767.258 426.786 766.846C427.114 766.455 427.39 766.279 427.42 766.26C427.427 766.256 427.229 766.376 426.681 766.574C426.137 766.772 425.381 766.999 424.329 767.258L429.105 786.679ZM400.464 782.663C403.992 783.789 408.697 785.3 413.388 786.286C417.842 787.223 423.674 788.014 429.105 786.679L424.329 767.258C423.432 767.478 421.268 767.506 417.504 766.714C413.975 765.972 410.237 764.789 406.543 763.61L400.464 782.663ZM396.869 780.685C395.97 780.915 395.279 780.934 394.984 780.934C394.657 780.934 394.462 780.907 394.456 780.906C394.437 780.904 394.5 780.912 394.666 780.947C394.828 780.981 395.045 781.031 395.328 781.104C396.564 781.423 398.204 781.943 400.464 782.663L406.543 763.61C404.477 762.951 402.228 762.229 400.324 761.738C399.363 761.49 398.234 761.232 397.084 761.08C396.167 760.958 394.149 760.737 391.913 761.309L396.869 780.685ZM377.598 788.597C380.085 790.996 383.794 792.512 387.961 791.732C391.379 791.092 393.805 789.128 395.218 787.753C398.094 784.955 400.724 780.647 403.32 775.5L385.462 766.494C384.311 768.778 383.353 770.452 382.582 771.643C382.2 772.234 381.889 772.666 381.651 772.972C381.533 773.122 381.44 773.232 381.373 773.308C381.306 773.385 381.272 773.418 381.272 773.418C381.272 773.418 381.284 773.407 381.306 773.387C381.328 773.367 381.362 773.338 381.41 773.3C381.502 773.226 381.659 773.108 381.881 772.972C382.308 772.71 383.121 772.29 384.282 772.073C385.514 771.842 386.942 771.88 388.386 772.354C389.791 772.815 390.815 773.558 391.482 774.202L377.598 788.597ZM390.502 798.751C391.991 793.788 393.256 788.631 394.333 783.424L374.747 779.375C373.768 784.113 372.638 788.693 371.345 793.004L390.502 798.751ZM376.409 804.87C376.896 805.02 376.883 805.025 376.841 805.006L385.006 786.749C383.798 786.208 382.733 785.891 382.278 785.751L376.409 804.87ZM367.575 797.074C368.494 799.403 370.047 801.536 372.385 803.073C374.214 804.275 376.174 804.798 376.41 804.871L382.278 785.751C381.923 785.642 381.988 785.657 382.108 785.703C382.279 785.768 382.77 785.966 383.371 786.361C384.016 786.785 384.65 787.345 385.193 788.038C385.716 788.707 386.016 789.321 386.179 789.733L367.575 797.074ZM366.373 791.511C366.52 793.162 366.811 795.144 367.577 797.081L386.176 789.726C386.254 789.923 386.301 790.076 386.328 790.171C386.355 790.266 386.365 790.317 386.363 790.311C386.362 790.306 386.353 790.258 386.34 790.159C386.326 790.061 386.31 789.922 386.294 789.738L366.373 791.511ZM366.196 787.429C366.21 788.904 366.262 790.268 366.373 791.511L386.294 789.737C386.246 789.197 386.206 788.397 386.195 787.236L366.196 787.429ZM366.313 777.722C366.241 781.401 366.172 784.88 366.196 787.429L386.195 787.236C386.174 785.05 386.234 781.919 386.309 778.113L366.313 777.722ZM366.311 777.917V777.917H386.311V777.917H366.311ZM365.754 749.931C366.701 755.566 366.517 767.319 366.313 777.721L386.309 778.113C386.493 768.729 386.816 754.577 385.477 746.614L365.754 749.931ZM365.14 744.761C365.295 746.602 365.493 748.38 365.754 749.931L385.477 746.614C385.343 745.822 385.201 744.646 385.07 743.081L365.14 744.761ZM365.789 700.639C364.984 704.902 364.619 713.15 364.521 721.064C364.421 729.263 364.6 738.345 365.14 744.761L385.07 743.081C384.606 737.577 384.423 729.212 384.52 721.31C384.621 713.124 385.013 706.618 385.441 704.351L365.789 700.639ZM362.288 637.436C364.481 646.903 365.667 661.291 366.108 674.565C366.325 681.103 366.355 687.173 366.259 691.962C366.211 694.36 366.132 696.388 366.033 697.964C365.984 698.752 365.933 699.389 365.883 699.88C365.858 700.123 365.836 700.311 365.817 700.451C365.797 700.595 365.787 700.651 365.789 700.639L385.441 704.351C385.93 701.765 386.157 697.216 386.255 692.365C386.359 687.189 386.325 680.762 386.097 673.901C385.648 660.38 384.425 644.376 381.772 632.923L362.288 637.436ZM361.364 633.965C361.676 634.973 361.986 636.131 362.288 637.436L381.772 632.923C381.382 631.24 380.95 629.603 380.468 628.046L361.364 633.965ZM360.482 631.535C360.752 632.151 361.05 632.955 361.364 633.966L380.467 628.045C379.987 626.495 379.439 624.969 378.807 623.523L360.482 631.535ZM350.044 604.914C352.846 613.704 356.691 622.862 360.482 631.535L378.807 623.523C375.045 614.917 371.563 606.569 369.098 598.839L350.044 604.914ZM348.41 599.379C348.905 601.217 349.454 603.065 350.044 604.915L369.098 598.839C368.589 597.241 368.128 595.685 367.72 594.173L348.41 599.379ZM367.884 781.993C368.542 732.51 368.341 650.208 368.065 596.724L348.065 596.827C348.342 650.323 348.541 732.453 347.886 781.727L367.884 781.993ZM325.383 1033.03C341.117 962.505 367.026 846.621 367.884 781.993L347.886 781.727C347.062 843.756 321.825 957.129 305.863 1028.68L325.383 1033.03ZM325.487 1032.5L325.487 1032.5L305.759 1029.21L305.759 1029.21L325.487 1032.5ZM325.378 1033.05L325.379 1033.05L305.867 1028.66L305.866 1028.66L325.378 1033.05ZM325.486 1032.5L325.486 1032.5L305.758 1029.22L305.758 1029.22L325.486 1032.5ZM317.905 1066.92C319.929 1057.48 322.487 1046.01 325.382 1033.04L305.862 1028.68C302.973 1041.63 300.395 1053.19 298.35 1062.72L317.905 1066.92ZM303.143 1231.02C298.745 1190 304.816 1127.91 317.905 1066.92L298.35 1062.72C285.067 1124.62 278.533 1189.09 283.257 1233.15L303.143 1231.02ZM298.151 1322.66C303.675 1305.63 307.809 1274.54 303.143 1231.02L283.257 1233.15C287.713 1274.72 283.554 1302.84 279.127 1316.49L298.151 1322.66ZM288.204 1329.7C288.723 1329.64 289.248 1329.57 289.779 1329.51L287.499 1309.64C286.943 1309.71 286.392 1309.77 285.846 1309.84L288.204 1329.7ZM375.841 1362.62C363.861 1360.28 346.081 1356.76 329.958 1349.45C313.743 1342.11 301.086 1331.79 296.601 1316.89L277.449 1322.65C284.365 1345.63 303.266 1359.32 321.704 1367.67C340.235 1376.06 360.201 1379.94 371.996 1382.25L375.841 1362.62ZM376.211 1362.7L376.209 1362.7L371.628 1382.17L371.63 1382.17L376.211 1362.7ZM375.388 1362.55L375.386 1362.55L372.455 1382.33L372.457 1382.33L375.388 1362.55ZM390.426 1366.58C388.185 1365.28 385.248 1364.6 383.594 1364.22C381.437 1363.72 378.731 1363.19 375.846 1362.62L372 1382.25C375.01 1382.84 377.339 1383.3 379.099 1383.7C379.972 1383.91 380.55 1384.06 380.905 1384.17C381.396 1384.32 381.047 1384.26 380.397 1383.88L390.426 1366.58ZM362.652 1407.03C372.217 1405.21 379.61 1403.05 385.171 1400.56C390.538 1398.16 395.302 1394.96 398.084 1390.4C401.308 1385.12 401.023 1379.41 398.66 1374.86C396.596 1370.89 393.23 1368.21 390.426 1366.58L380.397 1383.88C381.242 1384.37 381.194 1384.63 380.91 1384.08C380.327 1382.96 380.285 1381.18 381.011 1379.99C381.295 1379.52 380.819 1380.59 376.999 1382.3C373.373 1383.93 367.631 1385.72 358.91 1387.39L362.652 1407.03ZM239.28 1391.09C253.278 1394.96 276.029 1400.37 299.064 1404.13C321.659 1407.81 346.102 1410.18 362.652 1407.03L358.91 1387.39C346.203 1389.81 324.938 1388.08 302.283 1384.39C280.069 1380.77 258.029 1375.52 244.605 1371.81L239.28 1391.09ZM251.942 1394.14V1381.45H231.942V1394.14H251.942ZM210.015 1404.14H241.942V1384.14H210.015V1404.14ZM194.351 1363.26C197.924 1374.46 199.546 1381.94 200.185 1386.57C200.506 1388.9 200.552 1390.33 200.528 1391.05C200.516 1391.41 200.491 1391.44 200.532 1391.23C200.544 1391.17 200.717 1390.19 201.465 1388.95L218.565 1399.33C219.568 1397.67 219.971 1396.04 220.162 1395.06C220.38 1393.94 220.481 1392.8 220.517 1391.71C220.59 1389.51 220.419 1386.9 219.998 1383.84C219.153 1377.71 217.196 1369.07 213.405 1357.18L194.351 1363.26ZM197.442 1311.23C192.268 1322.66 187.57 1342 194.351 1363.26L213.405 1357.18C208.536 1341.92 211.898 1327.79 215.663 1319.47L197.442 1311.23ZM190.49 1320C195.018 1321.8 199.254 1323.39 203.244 1324.79L209.862 1305.91C206.163 1304.62 202.184 1303.12 197.873 1301.41L190.49 1320ZM201.915 1024.86C201.911 1024.84 202.08 1025.72 202.273 1028.11C202.446 1030.26 202.604 1033.12 202.736 1036.66C203.001 1043.72 203.158 1053.17 203.179 1064.4C203.221 1086.83 202.724 1116.1 201.511 1146.98C199.065 1209.26 193.754 1276.38 184.579 1307.91L203.783 1313.5C213.766 1279.19 219.07 1209.51 221.496 1147.77C222.719 1116.63 223.222 1087.09 223.179 1064.36C223.157 1053 222.999 1043.29 222.722 1035.91C222.584 1032.22 222.414 1029.05 222.208 1026.5C222.021 1024.19 221.76 1021.72 221.279 1019.86L201.915 1024.86ZM201.609 954.737C200.306 965.817 199.347 979.119 199.2 991.593C199.055 1003.81 199.668 1016.17 201.915 1024.86L221.279 1019.86C219.738 1013.9 219.057 1003.8 219.198 991.83C219.336 980.125 220.243 967.528 221.472 957.073L201.609 954.737ZM197.013 1142.23C193.821 1121.06 194.479 1084.56 198.718 1048.3C202.994 1011.72 210.649 977.8 220.246 960.827L202.836 950.984C191.076 971.783 183.139 1009.32 178.853 1045.98C174.531 1082.95 173.659 1121.48 177.236 1145.21L197.013 1142.23ZM197.739 1266.26C199.249 1224.43 201.248 1170.32 197.013 1142.23L177.236 1145.21C181.119 1170.97 179.3 1222.64 177.752 1265.54L197.739 1266.26ZM196.993 1324.47C196.534 1321.66 196.38 1314.76 196.57 1303.99C196.753 1293.6 197.222 1280.6 197.739 1266.26L177.752 1265.54C177.237 1279.82 176.76 1293.03 176.573 1303.64C176.393 1313.87 176.445 1322.75 177.256 1327.7L196.993 1324.47ZM175.921 1340.94C182.066 1339.75 188.786 1337.74 193.549 1333.75L180.7 1318.42C180.02 1318.99 177.566 1320.25 172.113 1321.31L175.921 1340.94ZM175.474 1341.03C175.636 1341 175.795 1340.96 175.95 1340.93L172.084 1321.31C171.963 1321.33 171.844 1321.36 171.727 1321.38L175.474 1341.03ZM174.998 1341.12C175.163 1341.09 175.324 1341.06 175.482 1341.02L171.719 1321.38C171.595 1321.41 171.473 1321.43 171.353 1321.45L174.998 1341.12ZM191.845 1380.13C184.291 1365.71 182.729 1344.69 183.17 1331.62L163.181 1330.95C162.707 1345.01 164.118 1370.3 174.128 1389.41L191.845 1380.13ZM190.869 1434.99C198.818 1430.42 202.618 1422.32 202.365 1412.62C202.129 1403.62 198.495 1392.82 191.845 1380.13L174.128 1389.41C180.25 1401.09 182.254 1408.67 182.371 1413.14C182.47 1416.92 181.337 1417.4 180.909 1417.64L190.869 1434.99ZM104.207 1398.86C113.375 1412.02 126.38 1424.25 141.049 1431.76C155.738 1439.28 173.091 1442.5 189.744 1435.54L182.035 1417.09C172.482 1421.08 161.472 1419.74 150.163 1413.95C138.833 1408.15 128.203 1398.32 120.618 1387.43L104.207 1398.86ZM105.929 1328.15C102.152 1337.01 98.2137 1349.06 96.8193 1361.41C95.4495 1373.55 96.3607 1387.59 104.207 1398.86L120.618 1387.43C116.812 1381.96 115.555 1373.74 116.693 1363.66C117.807 1353.79 121.053 1343.67 124.326 1336L105.929 1328.15ZM89.2431 1339.53C96.1216 1340.42 104.89 1341.34 114.383 1342.05L115.873 1322.1C106.73 1321.42 98.3153 1320.53 91.7944 1319.7L89.2431 1339.53ZM90.3172 1005.25C95.6601 1033.16 95.3328 1092.39 92.4976 1156.39C89.6846 1219.89 84.4899 1286.64 80.5621 1328.68L100.475 1330.54C104.426 1288.25 109.647 1221.17 112.478 1157.27C115.286 1093.88 115.83 1032.15 109.961 1001.49L90.3172 1005.25ZM88.4277 824.656C84.1785 870.891 80.1783 952.273 90.3172 1005.25L109.961 1001.49C100.404 951.555 104.098 872.684 108.344 826.487L88.4277 824.656ZM63.2403 806.188C64.1488 814.043 69.1226 820.031 74.5608 824.308C80.0891 828.656 87.2312 832.165 94.9785 834.973L101.793 816.17C95.1524 813.763 90.1663 811.137 86.9247 808.588C83.5929 805.967 83.1548 804.296 83.1078 803.89L63.2403 806.188ZM70.4763 709.224C68.9576 722.432 66.7716 743.036 65.1468 761.958C64.3348 771.413 63.6569 780.518 63.2748 788.1C62.9067 795.404 62.7642 802.073 63.2403 806.188L83.1078 803.89C82.8518 801.677 82.8701 796.633 83.2495 789.107C83.6148 781.858 84.2709 773.014 85.0734 763.669C86.6775 744.989 88.8419 724.584 90.3454 711.509L70.4763 709.224ZM85.9557 603.216C73.4978 645.629 70.411 692.137 70.4109 710.366L90.4109 710.366C90.411 693.401 93.3802 648.906 105.145 608.853L85.9557 603.216ZM101.856 539.521C96.8753 562.504 91.3622 584.81 85.9557 603.216L105.145 608.853C110.726 589.853 116.353 567.056 121.402 543.757L101.856 539.521ZM36.0143 555.145C51.0084 558.698 77.7138 557.949 113.413 551.479L109.846 531.799C74.6975 538.17 51.4082 538.239 40.626 535.684L36.0143 555.145ZM8.16946 511.323C5.71647 517.819 6.40809 527.125 10.3014 535.219C14.5093 543.967 22.7296 551.997 36.0143 555.145L40.626 535.684C33.5311 534.003 30.0644 530.167 28.3248 526.55C27.3949 524.617 26.9251 522.656 26.7849 520.992C26.633 519.189 26.9088 518.312 26.8798 518.389L8.16946 511.323ZM7.72072 495.041C8.02508 495.359 9.11486 497.318 9.33646 501.658C9.54062 505.657 8.87979 509.442 8.16945 511.323L26.8798 518.389C28.7479 513.442 29.626 506.819 29.3104 500.638C29.0123 494.799 27.5237 486.808 22.1716 481.214L7.72072 495.041ZM12.7783 448.094C-0.601402 464.905 -3.07072 483.762 7.72072 495.041L22.1716 481.214C21.6503 480.67 17.6837 474.047 28.4269 460.549L12.7783 448.094ZM15.4288 416.381C16.4341 419.75 17.5677 425.858 17.3859 432.299C17.2006 438.867 15.694 444.431 12.7783 448.094L28.4269 460.549C35.1603 452.089 37.1335 441.527 37.378 432.863C37.626 424.073 36.1393 415.842 34.5937 410.662L15.4288 416.381ZM23.0593 380.481C13.7744 395.613 13.3063 409.452 15.4496 416.45L34.5729 410.593C34.5975 410.674 34.4509 410.175 34.4071 409.034C34.3658 407.959 34.4237 406.495 34.7126 404.707C35.287 401.154 36.7643 396.387 40.106 390.941L23.0593 380.481ZM31.115 355.671C28.986 366.4 27.5655 373.137 23.0593 380.481L40.106 390.941C46.7327 380.141 48.6598 370.009 50.7325 359.563L31.115 355.671ZM39.7052 322.928C34.9149 336.488 32.8262 347.047 31.115 355.671L50.7325 359.563C52.4169 351.074 54.2817 341.709 58.5631 329.59L39.7052 322.928ZM77.4688 270.441C68.7835 277.279 48.6662 297.562 39.7052 322.928L58.563 329.59C65.8392 308.994 82.9427 291.586 89.8403 286.156L77.4688 270.441ZM89.9417 270.522L89.9046 270.492L77.4044 286.105L77.4415 286.134L89.9417 270.522ZM121.579 244.089C108.22 250.638 94.4 257.398 77.5719 270.419L89.8113 286.237C104.921 274.545 117.169 268.525 130.383 262.047L121.579 244.089ZM178.914 206.644C155.067 227.679 138.431 235.827 121.579 244.089L130.383 262.047C147.822 253.498 166.318 244.423 192.144 221.643L178.914 206.644ZM142.368 189.607C143.83 200.231 151.074 207.755 158.385 212.764C165.814 217.855 174.766 221.387 182.691 223.733L188.367 204.555C181.499 202.522 174.734 199.722 169.69 196.266C164.527 192.728 162.54 189.492 162.181 186.879L142.368 189.607ZM142.511 169.639C141.441 175.425 141.312 181.942 142.368 189.607L162.181 186.879C161.368 180.977 161.556 176.637 162.178 173.273L142.511 169.639ZM143.59 163.861C143.076 165.888 142.676 168.026 142.411 170.299L162.277 172.614C162.44 171.213 162.68 169.943 162.977 168.774L143.59 163.861ZM148.733 157.388C148.505 157.52 148.282 157.654 148.063 157.788L158.504 174.846C158.603 174.786 158.704 174.725 158.808 174.664L148.733 157.388ZM152.195 147.675C149.7 151.552 146.489 156.467 144.317 162.766L163.224 169.286C164.503 165.577 166.404 162.552 169.012 158.501L152.195 147.675ZM155.764 141.832C154.738 143.717 153.582 145.521 152.195 147.675L169.012 158.501C170.34 156.438 171.897 154.027 173.332 151.391L155.764 141.832ZM157.174 133.025C156.929 138.351 156.179 141.069 155.764 141.832L173.332 151.391C176.096 146.311 176.895 139.563 177.153 133.942L157.174 133.025ZM177.072 134.919C177.09 134.736 177.108 134.554 177.124 134.373L157.203 132.594C157.193 132.705 157.183 132.817 157.171 132.928L177.072 134.919ZM122.864 90.6933C124.448 103.577 131.794 114.852 139.308 123.302C146.936 131.882 155.678 138.609 161.866 142.431L172.377 125.416C167.646 122.494 160.449 116.98 154.254 110.013C147.945 102.917 143.585 95.3388 142.714 88.2532L122.864 90.6933ZM164.272 59.1586C154.401 60.9326 144.493 63.6 136.97 67.7324C129.734 71.7067 121.435 79.0709 122.864 90.6933L142.714 88.2532C142.706 88.1867 142.718 88.2423 142.692 88.3367C142.67 88.4151 142.67 88.3448 142.837 88.1157C143.234 87.5696 144.287 86.5316 146.598 85.2623C151.271 82.6953 158.649 80.4896 167.81 78.8432L164.272 59.1586Z" fill="white" mask="url(#path-44-outside-1)"/>
</svg>
