<svg width="45" height="56" viewBox="0 0 45 56" fill="none" xmlns="http://www.w3.org/2000/svg">
<path fill-rule="evenodd" clip-rule="evenodd" d="M30.3068 24.5168C33.5542 22.1628 35.6664 18.3386 35.6664 14.0211C35.6664 6.86648 29.8665 1.06653 22.7119 1.06653C15.5573 1.06653 9.75731 6.86648 9.75731 14.0211C9.75731 18.3694 11.8997 22.2174 15.1866 24.567C3.38226 25.1597 0.854078 45.2431 1.07987 55.3597H44.7413C44.7413 29.484 35.3067 24.0346 30.3068 24.5168Z" fill="#A75155"/>
<path fill-rule="evenodd" clip-rule="evenodd" d="M29.2404 23.4503C32.4878 21.0963 34.6 17.2721 34.6 12.9545C34.6 5.79995 28.8001 0 21.6455 0C14.4909 0 8.69091 5.79995 8.69091 12.9545C8.69091 17.3029 10.8333 21.1509 14.1202 23.5005C2.31585 24.0932 -0.212328 44.1765 0.0134648 54.2932H43.6748C43.6748 28.4175 34.2403 22.9681 29.2404 23.4503Z" fill="#F87980"/>
</svg>
