<svg width="351" height="137" fill="none" xmlns="http://www.w3.org/2000/svg"><path d="M126 8.185V1l58 9.88L172.743 96l-25.47-2.096" fill="#5C404E"/><path d="M103.76 106.244L88.16.744l57.6 11.6v93.9h-42z" fill="#FACABC"/><path d="M6.257 136.244l-5.3-38 68.2-12.5-7.7 43.7-55.2 6.8z" fill="#3F7AD3"/><path d="M20.559 94.644l-4.5-26.9 62.8 4.3-4.3 39-9.5-2.4 4.1-22.9-48.6 8.9z" fill="#FACABC"/><path d="M13.66 95.945l-10-54.4 63.1 6.8-5 22.5-45.7-3.1 4.5 26.9-6.9 1.3z" fill="#FFF1F0"/><path d="M56.557 47.245l-8.1-40.2 40.1-3.5 12.2 82.2-23.1-3.1 1.2-10.6-17.1-1.2 5-22.5-10.2-1.1z" fill="#3F7AD3"/><path d="M6.257 136.244l-5.3-38 68.2-12.5-1.6 9-59.6 8.6 3.9 32.2-5.6.7z" fill="#2E5A9C"/><path d="M20.559 94.644l-4.5-26.9 62.8 4.3-.7 6.3-56.5-6 4.8 21.3-5.9 1z" fill="#BE988D"/><path d="M66.76 48.345l-1.1 5.1-54.2-5.1 6.8 46.8-4.6.8-10-54.4 63.1 6.8z" fill="#CBBEBD"/><path d="M56.557 47.245l-8.1-40.2 40.1-3.5 1.1 7.5h-33.5l5.9 36.8-5.5-.6zM64.258 59.744l1.1 11.4-3.6-.3 2.5-11.1z" fill="#2E5A9C"/><path d="M103.76 106.244L88.16.744l57.6 11.6v13.3l-46.3-11.1 10.8 91.7h-6.5z" fill="#BE988D"/><path d="M184.257 10.644l-1.3 9-37.2-5.6v-1.7l-22.3-4.4v-7.2l60.8 9.9z" fill="#2C1E25"/><path d="M180.958 34.543l48.6-20.6 22.8 7.7 22.4-5 27 7.6 21-10.3 11.1 17.3 16.8 7.8-204.9 67.2v-12.4l15.8 1.2 10.9.9 8.5-61.4zM61.457 129.445l77.4-23.2h-35.1l-3-20.5-23.1-3.1-3.1 28.399-9.5-2.399-3.6 20.8z" fill="#A75155"/></svg>