<svg width="1893" height="294" fill="none" xmlns="http://www.w3.org/2000/svg"><path d="M1822.95.184l-52.5 18-8 8.5h-37l37 25h52l22 14.5 56-6.5-17-17.5v-15.5l-28.5-8.5-24-18zM1357.46 188.234l52.5-18 8-8.5h37l-37-25h-52l-22-14.5-56 6.5 17 17.5v15.5l28.5 8.5 24 18zM153.165 128.906l-46.82 22.368-4.681-5.721-10.404 11.964-22.369 4.162-11.443-10.405-17.688-5.721-4.683 16.126-19.246 2.601-15.604 7.803 6.243 14.565v13.525l28.607 3.121 22.37 3.122 20.288-6.243 28.61 6.243h36.415l17.166-3.122 27.571 3.122 15.606-9.364 14.565-14.045V164.28l-21.848-6.763-20.288-11.964-22.367-16.647zM528.882 216.176l46.82 22.368 4.681-5.722 10.404 11.965 22.369 4.161 11.443-10.404 17.688-5.722 4.683 16.126 19.246 2.601 15.604 7.803-6.243 14.566v13.525l-28.607 3.121-22.371 3.121-20.287-6.242-28.61 6.242h-36.415l-17.166-3.121-27.571 3.121-15.606-9.363-14.565-14.046v-18.727l21.848-6.762 20.288-11.965 22.367-16.646z" fill="#FFF1F0"/></svg>