<svg width="2223" height="219" fill="none" xmlns="http://www.w3.org/2000/svg"><path d="M2153.5 0L2101 18l-8 8.5h-37l37 25h52l22 14.5 56-6.5-17-17.5V26.5l-28.5-8.5-24-18zM1708.02 218.053l52.5-18 8-8.5h37l-37-25h-52l-22-14.5-56 6.5 17 17.5v15.5l28.5 8.5 24 18zM153.72 18.722L106.899 41.09l-4.681-5.722-10.404 11.965-22.368 4.161L58.002 41.09l-17.687-5.722-4.683 16.126-19.246 2.601L.78 61.898l6.244 14.565V89.99l28.607 3.12 22.37 3.122 20.288-6.242 28.609 6.242h36.416l17.166-3.121 27.57 3.121 15.606-9.363 14.566-14.046V54.095l-21.848-6.762-20.288-11.965-22.367-16.646zM529.437 105.991l46.82 22.368 4.681-5.721 10.404 11.964 22.368 4.162 11.444-10.405 17.687-5.721 4.684 16.126 19.245 2.601 15.605 7.803-6.244 14.565v13.525l-28.606 3.121-22.371 3.122-20.288-6.243-28.609 6.243h-36.415l-17.167-3.122-27.57 3.122-15.606-9.364-14.566-14.045v-18.727l21.849-6.763 20.287-11.964 22.368-16.647z" fill="#FFF1F0"/></svg>