<svg width="1893" height="294" viewBox="0 0 1893 294" fill="none" xmlns="http://www.w3.org/2000/svg">
<path d="M1822.95 0.183594L1770.45 18.1836L1762.45 26.6836H1725.45L1762.45 51.6836H1814.45L1836.45 66.1836L1892.45 59.6836L1875.45 42.1836V26.6836L1846.95 18.1836L1822.95 0.183594Z" fill="#FFF1F0"/>
<path d="M1357.46 188.234L1409.96 170.234L1417.96 161.734H1454.96L1417.96 136.734H1365.96L1343.96 122.234L1287.96 128.734L1304.96 146.234V161.734L1333.46 170.234L1357.46 188.234Z" fill="#FFF1F0"/>
<path d="M153.165 128.906L106.345 151.274L101.664 145.553L91.2596 157.517L68.8911 161.679L57.4477 151.274L39.7601 145.553L35.0768 161.679L15.8311 164.28L0.226562 172.083L6.47014 186.648V200.173L35.0768 203.294L57.4477 206.416L77.7353 200.173L106.345 206.416H142.76L159.926 203.294L187.497 206.416L203.103 197.052L217.668 183.007V164.28L195.82 157.517L175.532 145.553L153.165 128.906Z" fill="#FFF1F0"/>
<path d="M528.882 216.176L575.702 238.544L580.383 232.822L590.787 244.787L613.156 248.948L624.599 238.544L642.287 232.822L646.97 248.948L666.216 251.549L681.82 259.352L675.577 273.918V287.443L646.97 290.564L624.599 293.685L604.312 287.443L575.702 293.685H539.287L522.121 290.564L494.55 293.685L478.944 284.322L464.379 270.276V251.549L486.227 244.787L506.515 232.822L528.882 216.176Z" fill="#FFF1F0"/>
</svg>
