<svg width="69" height="71" fill="none" xmlns="http://www.w3.org/2000/svg"><g filter="url(#filter0_d)"><ellipse cx="34.802" cy="33.129" rx="28" ry="27.5" transform="rotate(-3.38 34.802 33.13)" fill="#E0C358"/><path d="M59.946 33.941C58.882 48.815 45.962 60.01 31.088 58.946 16.215 57.882 5.02 44.962 6.083 30.088 7.148 15.214 20.068 4.02 34.942 5.083 49.815 6.148 61.01 19.068 59.946 33.942z" fill="#C5AE39"/><path d="M57.9 34.515c-.93 13.005-13.992 23.343-26.867 22.422-12.875-.921-23.89-13.64-23.003-26.033.983-13.737 12.842-23.82 26.675-22.83 13.833.99 24.177 12.704 23.195 26.441z" fill="#FD6"/><path fill-rule="evenodd" clip-rule="evenodd" d="M31.214 57.186c13.902.994 25.977-9.47 26.972-23.37.994-13.902-9.47-25.978-23.37-26.972-13.902-.995-25.978 9.468-26.972 23.37-.995 13.902 9.468 25.977 23.37 26.972zm-.126 1.76C45.962 60.01 58.882 48.815 59.946 33.94 61.01 19.067 49.815 6.147 34.94 5.083 20.067 4.02 7.147 15.215 6.083 30.088 5.02 44.962 16.215 57.882 31.088 58.946z" fill="#F3D35F"/><g filter="url(#filter1_d)"><path d="M31.937 22.49l-.714 8.038 4.152.344 5.043.22.383.493-.796 4.639-5.485-.532-3.744-.221-.215 2.356-.398 9.456-6.28-.45.96-8.858 1.172-20.93L43.7 18.308l.333.535-.8 4.686-7.044-.783-4.252-.258z" fill="#F3D35F"/></g></g><defs><filter id="filter0_d" x=".157" y="3.157" width="68.217" height="67.075" filterUnits="userSpaceOnUse" color-interpolation-filters="sRGB"><feFlood flood-opacity="0" result="BackgroundImageFix"/><feColorMatrix in="SourceAlpha" values="0 0 0 0 0 0 0 0 0 0 0 0 0 0 0 0 0 0 127 0"/><feOffset dy="4"/><feGaussianBlur stdDeviation="2"/><feColorMatrix values="0 0 0 0 0 0 0 0 0 0 0 0 0 0 0 0 0 0 0.25 0"/><feBlend in2="BackgroundImageFix" result="effect1_dropShadow"/><feBlend in="SourceGraphic" in2="effect1_dropShadow" result="shape"/></filter><filter id="filter1_d" x="23.884" y="17.044" width="21.185" height="33.081" filterUnits="userSpaceOnUse" color-interpolation-filters="sRGB"><feFlood flood-opacity="0" result="BackgroundImageFix"/><feColorMatrix in="SourceAlpha" values="0 0 0 0 0 0 0 0 0 0 0 0 0 0 0 0 0 0 127 0"/><feOffset dx="1" dy="2"/><feColorMatrix values="0 0 0 0 0.879167 0 0 0 0 0.763529 0 0 0 0 0.34434 0 0 0 1 0"/><feBlend in2="BackgroundImageFix" result="effect1_dropShadow"/><feBlend in="SourceGraphic" in2="effect1_dropShadow" result="shape"/></filter></defs></svg>