<svg width="60" height="67" viewBox="0 0 60 67" fill="none" xmlns="http://www.w3.org/2000/svg">
<path d="M52.8987 32.8964C52.8987 32.8964 51.8221 31.0841 49.8682 29.6063C49.9658 27.3541 48.9499 25.3837 47.1752 24.7682C46.4138 24.5041 45.6073 24.5232 44.8283 24.7761C45.35 25.5554 45.6471 26.5498 45.6846 27.6333L34.9507 24.3371L39.2192 15.573C40.1383 16.2727 40.8184 17.1012 41.1712 17.9522C41.8751 17.5607 42.3924 17.0016 42.6365 16.2977C43.2035 14.6628 42.1205 12.721 40.1024 11.3913C40.0321 9.09165 39.1252 7.2051 39.1252 7.2051C39.1252 7.2051 37.2459 8.12539 35.766 9.88745C33.3576 9.68299 31.3061 10.5367 30.7391 12.1717C30.495 12.8755 30.5551 13.6349 30.8654 14.3781C31.6694 13.9282 32.7176 13.6982 33.8713 13.7183L29.6031 21.2524L21.3284 19.1855C22.0281 18.3567 22.8785 17.7613 23.768 17.4713C23.3155 16.7913 22.6932 16.2767 21.9299 16.0121C20.1552 15.3966 18.1402 16.3158 16.8207 18.1443C14.3718 18.0962 12.4044 18.8527 12.4044 18.8527C12.4044 18.8527 13.4807 20.6658 15.4338 22.1434C15.337 24.3959 16.3508 26.3666 18.1255 26.982C18.8887 27.2467 19.6963 27.2271 20.4727 26.9733C19.9537 26.1949 19.6548 25.1999 19.6185 24.1158L30.3524 26.183L20.8401 51.2965C19.9207 50.5976 19.2409 49.7683 18.8875 48.9189C18.1839 49.3097 17.6666 49.8687 17.4228 50.5717C16.8558 52.2066 17.9376 54.149 19.956 55.4778C20.026 57.7784 20.9323 59.6637 20.9323 59.6637C20.9323 59.6637 22.8122 58.7446 24.2925 56.9817C26.7005 57.187 28.7532 56.3327 29.3202 54.6978C29.564 53.9948 29.5039 53.2355 29.1933 52.493C28.39 52.9412 27.3414 53.1721 26.188 53.1511L33.2421 28.0376L43.9759 32.563C43.2753 33.3916 42.4263 33.9885 41.5342 34.2775C41.9894 34.9584 42.6105 35.4735 43.372 35.7376C45.1467 36.3531 47.1638 35.4336 48.4824 33.6048C50.9313 33.6529 52.8987 32.8964 52.8987 32.8964Z" fill="#333333"/>
</svg>
