<svg width="428" height="749" fill="none" xmlns="http://www.w3.org/2000/svg"><path d="M296.564 684.275s45.3 122.786 42.915 138.283c-2.384 15.497-8.344 40.531-7.152 54.836 1.192 14.306 17.881 98.944 10.729 106.097-7.153 7.153-47.684 21.459-54.837 15.497-7.152-5.96-23.842-26.226-23.842-32.186 0-5.961-10.729-115.634-10.729-115.634s5.961-30.994 2.385-60.797c-3.577-29.802-13.114-65.565-16.69-59.605-3.576 5.961 2.384 119.21 4.769 122.786 2.384 3.577 38.147 119.21 29.802 120.402-8.345 1.192-60.797 19.074-72.718 5.961-11.921-13.113-16.689-63.181-15.497-91.792 1.192-28.61-20.266-52.452-19.074-75.102 1.192-22.65-7.152-65.565-7.152-65.565l19.073-78.679 118.018 15.498z" fill="#5C414E"/><path d="M169.012 598.443s15.497 103.712 26.226 128.746c10.729 25.035 21.458 71.526 5.96 67.95-15.497-3.576-35.762-35.763-60.796-34.571-25.035 1.192-52.453-8.344-52.453-14.305 0-5.96 34.571-107.289 34.571-133.515 0-26.226 1.192-65.565-1.192-77.486-2.384-11.921-1.192-57.221-1.192-57.221l28.61-3.576 20.266 123.978z" fill="#A75256"/><path d="M178.546 325.454s-11.921-27.418-21.458-28.61c-9.537-1.192-14.305-8.345-13.113 0 1.192 8.344-13.113 158.549-3.576 176.43 9.537 17.882 28.61 123.978 35.763 123.978 7.152 0 26.226-54.836 26.226-66.757 0-11.921-23.842-205.041-23.842-205.041z" fill="#A75256"/><path d="M177.711 315.798s-9.895 32.425 3.218 105.143-.596 167.37-.596 167.37-25.511 93.58 10.252 105.501c35.763 11.921 3.577-5.96 65.566-5.96 10.728-9.537-9.537-51.261-10.729-69.142-1.192-17.882-19.551-289.561 2.146-314.118 11.205-16.808 5.364-20.504.953-17.762-4.411 2.861-65.804 15.616-70.81 28.968z" fill="#A75256"/><path d="M75.31 652.208c1.67-11.087-41.842 45.299-48.16 45.299-7.153 0-4.768 8.345-4.768 8.345s41.723 83.447 58.412 67.95c16.69-15.498 53.645-51.26 66.758-53.645 0 0-20.266-10.729-34.571-21.457-14.305-10.729-38.147-43.512-37.67-46.492z" fill="#2C1E24"/><path d="M78.411 610.364s-21.934 30.399 8.106 63.42c30.041 33.021 37.671 32.306 53.526 42.319 15.854 9.895 43.273 23.008 42.081 13.471-1.192-9.537-25.273-42.438-31.71-51.26-6.318-8.702-32.664-60.797-35.048-61.989-2.384-1.192-14.305-27.418-36.955-5.961z" fill="#5C414E"/><path d="M105.827 641.36s-20.265-11.921-8.344 13.113c11.921 25.034 25.034 51.26 42.915 51.26 17.882 0 4.769-20.265 4.769-20.265s-16.69-27.419-39.34-44.108z" fill="#2C1E24"/><path d="M90.332 602.855c-1.311.715-9.537 5.603-13.113 10.014a1.167 1.167 0 01-2.026-.477c-1.908-7.153-3.22-32.425.834-36.478 3.815-3.815 6.08-5.246 6.795-5.723.238-.119.477-.119.715-.119l21.339 1.073c.596 0 1.073.477 1.073 1.073.715 6.318 4.172 41.485-6.08 46.73-6.795 2.265-2.861-10.609-2.384-11.802v-.238c.119-.954.715-7.629-1.43-9.06-.478-.358-1.074-.119-1.431.239l-3.934 4.768c-.12-.119-.239-.119-.358 0z" fill="#F1AA9A"/><path d="M68.874 573.41s50.068 5.961 50.068-4.768v-11.921l-54.836 8.344 4.768 8.345z" fill="#A75256"/><path d="M189.276 232.47l-11.921 11.921 10.729 20.265 10.729 20.266 27.418-13.113 16.69-29.803-14.305-21.219h-22.65l-16.69 11.683z" fill="#FEF1F0"/><path d="M156.014 30.052c-2.503.596-4.768 1.788-6.556 3.457-7.868 7.153-29.088 27.895-28.134 41.604 1.192 16.69 11.921 29.803 14.305 40.532 2.384 10.728 16.69 53.644 17.882 66.757 1.192 13.113 17.881 36.955 36.955 40.531 19.073 3.577 96.56-9.536 96.56-36.955 0-27.418-14.306-22.65-14.306-48.876s-4.768-39.339-14.305-88.215c-17.762-36.478-85.592-22.769-102.401-18.835z" fill="#F1AA9A"/><path d="M146.358 36.966s-4.888 15.974 33.021 13.828c38.028-2.146 51.856-1.073 64.969 13.47 0 0 24.2 17.882 21.458 4.292-2.623-13.47-11.921-34.213-29.206-39.577-17.286-5.365-72.361-15.855-90.242 7.987z" fill="#5C414E"/><path d="M179.737 215.781l-11.921-2.385s-34.571 73.911-20.266 82.255c14.305 8.345 26.226 19.074 26.226 21.458 0 1.907 20.266-20.266 28.611-29.445 1.669-1.788 1.43-4.649-.358-6.199-5.245-4.887-14.901-19.789-22.292-65.684z" fill="#ECE6E6"/><path d="M247.687 212.205s-13.113 32.186-48.876 65.565-29.803 54.837-20.266 47.684c9.537-7.153 69.142-39.339 73.91-39.339 4.769 0 25.63-79.99 20.504-79.99-5.007.119-25.272 6.08-25.272 6.08z" fill="#CBBEBD"/><path d="M215.145 222.932s11.205 30.995 23.126 11.921c11.921-19.074 15.497-22.65 15.497-22.65l-38.623 10.729zM214.308 221.741s-30.995 27.418-32.187 21.458c-1.192-5.961-5.96-26.226-3.576-26.226s35.763 4.768 35.763 4.768z" fill="#D8707A"/><path d="M145.523 238.311s-42.081 7.391-57.578 78.916c-15.497 71.526-13.113 76.295-21.458 97.752-8.344 21.458-17.881 147.82-4.768 160.934 10.729 3.576 26.226-19.074 58.413-13.114 26.226 7.153-2.385-23.842 3.576-51.26 5.96-27.418 5.96-34.571 5.96-34.571l15.855-238.657z" fill="#F37880"/><path d="M169.01 207.436s-46.492 51.26-56.029 90.599c-13.113 39.34-5.96 38.148-15.497 63.182-9.537 25.034-9.537 75.102 34.571 152.588 44.107 77.486 7.152 76.294 42.915 126.362 10.729 1.192 3.576-57.22 3.576-57.22s-19.073-90.6-19.073-96.56c0-5.961-17.882-166.894-9.537-195.504 8.345-28.61 25.034-82.255 21.458-83.447-3.576-1.192-2.384 0-2.384 0z" fill="#D8707A"/><path d="M162.454 41.733c-.119 2.384.357 4.888 1.073 7.152 2.98 9.418 8.225 31.353 1.907 51.261-8.345 26.226-4.768 90.599 13.113 83.446 17.882-7.152 45.3-27.418 67.95-21.457 22.649 5.96 21.577-22.173 28.61-14.305 4.888 5.483 7.987 15.974 11.921 25.034 4.292 9.894 1.43 21.577-7.272 28.133-18.477 13.828-53.644 26.941-79.513 22.531-37.193-6.438-41.962-18.359-50.306-46.969-8.345-28.61-8.345-33.379-13.113-47.684-4.769-14.305-26.226-45.3-17.882-59.605 8.345-14.305 25.034-36.955 35.763-34.57 6.676 1.43 7.868 4.768 7.749 7.033z" fill="#5C414E"/><path d="M269.386 106.107s-23.008 5.841-17.167 8.583c5.842 2.742 20.028 5.841 20.147 2.265.238-3.457-1.669-11.921-2.98-10.848zM177.355 120.413s8.345-7.152 19.074-4.768c10.729 2.384 5.961 4.768 5.961 4.768s-11.921 10.729-25.035 0z" fill="#FEF1F0"/><path d="M251.266 91.802s-12.875 6.437-2.98 11.206c.953.477 2.145.357 3.099-.358 2.384-1.907 7.987-5.484 14.305-3.695 8.345 2.384 10.729-2.385 10.729-2.385s2.384-5.96-5.96-7.152c-8.345-1.192-10.729 1.192-13.114 1.192-2.384 0-6.079 1.192-6.079 1.192zM192.612 96.451c-.596.12-1.073.358-1.549.596-3.338 2.027-17.405 10.491-19.551 11.445-2.384 1.192-10.729 9.536-1.192 9.536 9.537 0 17.882-10.729 23.842-9.536 5.961 1.192 17.882 2.384 16.689-5.961-1.192-7.868-12.04-7.153-18.239-6.08z" fill="#5C414E"/><path d="M231.117 99.55c1.311 0 2.384.835 2.861 2.027 1.907 5.007 8.583 21.577 12.517 23.604 4.768 2.384 10.729 26.226 5.96 26.226-4.768 0-14.305-2.384-17.881-21.458-3.577-19.073-5.961-22.65-5.961-27.418 0-2.384 1.312-2.98 2.504-2.98z" fill="#E0A194"/><path d="M265.33 107.299s-5.126 7.867.239 11.205c6.318 1.55 7.033-1.788 7.033-1.788s-.954-10.729-2.742-10.61c-1.669 0-4.53 1.193-4.53 1.193zM194.041 115.645s-3.695 4.649-.596 9.537c7.272-1.073 9.656-4.173 9.895-6.199.238-2.027-9.299-4.53-9.299-3.338z" fill="#2C1E24"/><path d="M321.836 283.611s18.835 366.213 22.412 381.71c3.576 15.497 21.457 120.402 10.729 120.402-10.729 0-73.91 34.571-73.91 19.073 0-15.497-5.961-82.254-26.227-123.978-20.265-41.723-11.205-205.517-8.583-210.643 2.623-5.246 75.579-186.564 75.579-186.564z" fill="#A75256"/><path d="M372.857 640.168v88.215s8.345 104.905 8.345 114.442c0 9.536 17.881 170.465 10.729 168.085-7.153-2.38-14.305-21.458-13.113-29.802 1.192-8.345-4.769-65.566-4.769-72.718 0-7.153-5.96-72.718-5.96-78.679 0-5.96-7.153-64.373-7.153-70.333 0-5.961-4.768-112.057-4.768-112.057v-7.153h16.689z" fill="#2C1E24"/><path d="M221.701 178.348c-1.43 1.192-2.98 2.265-4.768 2.861-6.199 2.146-18.716 7.152-16.928 10.848 2.384 4.768-3.576 16.689 11.921 16.689s16.689-13.113 29.802-11.921c13.114 1.192 21.458 0 19.074-7.152-2.384-7.153 4.768-14.305-14.305-15.497-15.021-1.073-21.935 1.788-24.796 4.172z" fill="#F1AA9A"/><path d="M216.695 193.131s-1.192 5.96 2.384 2.384c3.576-3.576 7.152-7.152 10.729-7.152 3.576 0 11.921 0 11.921-2.385 0-2.384-7.153-1.192-9.537-1.192-2.384 0-15.497 5.961-15.497 8.345z" fill="#2C1E24"/><path d="M285.121 219.477s45.061 13.232 55.552 23.722c13.113 13.113 44.107 102.521 44.107 102.521s14.306 59.605 16.69 107.288c2.384 47.684 8.344 189.544-3.576 189.544-11.921 0-69.142 20.266-70.334 2.384 0 0-10.729-42.915-3.577-72.718 7.153-29.802 4.769-101.328 4.769-101.328s-1.192-91.792-3.576-114.441c-2.385-22.65-13.113-54.837-13.113-54.837l-26.942-82.135z" fill="#F37880"/><path d="M278.681 209.821c10.729 11.921 56.029 52.452 50.068 89.407-5.96 36.955-33.379 69.142-38.147 78.679-4.768 9.536-48.041 97.99-44.465 128.985 3.576 30.994-4.411 66.519-5.603 43.869l-4.768-90.6s2.503-85.592 1.192-109.673c-1.788-33.617 14.305-53.644 13.113-78.678-1.192-25.034 17.881-73.91 28.61-61.989z" fill="#D8707A"/><g filter="url(#filter0_f)"><mask id="a" maskUnits="userSpaceOnUse" x="13" y="13" width="402" height="1007" fill="#000"><path fill="#fff" d="M13 13h402v1007H13z"/><path fill-rule="evenodd" clip-rule="evenodd" d="M149.282 33.67a179.875 179.875 0 00-3.873 3.641c-9.525 6.187-20.286 21.363-26.467 31.96-6.004 10.292 3.418 29.222 10.953 44.361 2.939 5.904 5.59 11.231 6.928 15.244 2.384 7.153 3.576 11.921 5.216 18.478 1.639 6.556 3.725 14.901 7.897 29.206 4.577 15.691 8.078 26.363 16.442 33.862-4.219 4.868-12.976 15.284-22.291 28.233-7.504 2.06-42.349 14.92-56.14 78.573-6.578 30.361-9.935 48.693-12.257 61.38-3.15 17.201-4.398 24.022-9.2 36.372-8.346 21.457-17.882 147.82-4.77 160.933 3.09 1.029 6.573-.115 10.736-2.124 1.432.141 3.23.306 5.283.469a66.92 66.92 0 00-1.713 1.656c-4.054 4.053-2.742 29.325-.835 36.478a1.167 1.167 0 001.476.843c-3.242 5.948-9.372 20.557-3.61 38.273-3.964 2.675-12.496 12.153-21.195 21.816-10.757 11.95-21.77 24.183-24.712 24.183-7.153 0-4.768 8.345-4.768 8.345s41.723 83.447 58.412 67.95c1.697-1.576 3.604-3.362 5.674-5.3l.003-.003.067-.063.008-.007.047-.044.018-.017.002-.002.008-.008.002-.001c4.275-4.004 9.235-8.65 14.478-13.447 10.289 3.589 25.173 6.332 39.298 5.659 7.981-.38 15.476 2.632 22.488 7.028 2.147 14.228 4.397 32.916 3.738 45.424-.564 10.732 3.956 21.731 8.742 33.379 5.315 12.935 10.959 26.669 10.332 41.723-1.192 28.611 3.576 78.679 15.497 91.792 9.544 10.498 45.067 1.13 63.136-3.635 1.395-.368 2.686-.708 3.852-1.01 5.36 8.377 15.031 19.548 20.035 23.718 7.153 5.962 47.684-8.344 54.837-15.497 5.235-5.235-2.302-51.978-7.187-82.274-1.789-11.097-3.222-19.987-3.542-23.823-.882-10.585 2.152-27.045 4.756-41.168v-.002c.915-4.963 1.777-9.637 2.397-13.666.614-3.995-1.939-15.117-6.069-29.428 9.923-4.106 18.25-7.408 21.566-7.408 10.729 0-7.153-104.905-10.729-120.402-.336-1.454-.805-5.994-1.381-13.029 4.069-.104 8.674-.65 13.46-1.436.827 18.469 4.61 103.213 4.61 108.522 0 2.98 1.788 19.074 3.576 35.167s3.576 32.186 3.576 35.167c0 2.844 1.358 19.261 2.777 36.426v.004l.001.005c1.554 18.804 3.183 38.504 3.183 42.243 0 2.586.779 11.714 1.717 22.711 1.658 19.424 3.813 44.679 3.051 50.007-1.192 8.345 5.961 27.423 13.113 29.803 5.249 1.75-2.984-84.455-7.738-134.233v-.003c-1.724-18.051-2.99-31.312-2.99-33.85 0-9.537-8.345-114.442-8.345-114.442v-80.839c2.255-.507 4.46-1.016 6.577-1.504h.001c8.222-1.897 15.116-3.487 18.456-3.487 11.921 0 5.96-141.86 3.576-189.544s-16.689-107.289-16.689-107.289-30.995-89.407-44.108-102.52c-8.586-8.586-40.329-19.008-51.572-22.51-1.79-1.877-3.463-3.6-4.969-5.151-2.241-2.308-4.112-4.234-5.447-5.718-1.505-1.672-3.174-2.148-4.929-1.661-.053-1.311-.306-2.035-.793-2.035-.287.007-.624.033-1.004.076 2.834-1.699 5.451-3.445 7.799-5.202 8.702-6.557 11.563-18.239 7.271-28.134-1.066-2.455-2.071-5.016-3.067-7.554v-.001c-2.678-6.824-5.291-13.482-8.854-17.479-.583-.653-1.111-1.058-1.602-1.255-.494-2.654-.782-5.751-.782-9.473 0-6.987-.339-13.044-1.016-19.094l.036-.029.033-.028c.209-.141.366-.308.466-.503.291-.403.362-.731.362-.731s-.91-10.238-2.619-10.601a352.25 352.25 0 00-1.206-6.555c5.861.566 7.639-2.99 7.639-2.99s2.384-5.961-5.96-7.153a31.78 31.78 0 00-3.793-.328c-.508-2.44-1.047-5.007-1.618-7.724l-.001-.002-.006-.031-.002-.009c-.511-2.434-1.048-4.99-1.611-7.686 2.002-.163 3.089-1.575 2.381-5.082-2.622-13.47-11.921-34.213-29.206-39.577-16.429-5.099-66.995-14.828-87.319 4.69zm88.035 345.943c-.173 7.756-.261 15.871-.277 24.232.132-8.256.234-16.558.277-24.232zm4.468 178.148l.182 3.404c.002-1.091.005-2.18.01-3.265a.605.605 0 01-.192-.139zM120.134 562.8c.961.262 1.849.473 2.668.635.051 8.941-.047 18.849-.141 28.429-.073 7.349-.143 14.505-.143 20.885 0 3.223-.523 7.581-1.439 12.757-2.966-5.306-5.109-8.878-5.714-9.18-.392-.196-1.042-1.07-1.955-2.297-1.604-2.153-4.019-5.397-7.273-7.981 1.723-10.756.685-25.014.062-31.425 7.298-.721 12.743-2.444 12.743-5.982v-6.05c.394.065.792.135 1.192.209zm-22.545 39.318c-.137-1.822-.543-3.608-1.536-4.27-.477-.357-1.073-.119-1.43.239l-3.704 4.489c2.403-.663 4.625-.761 6.67-.458zm160.535 295.319c-2.356-24.599-4.475-46.269-4.475-46.269s5.96-30.994 2.384-60.797c-3.577-29.802-13.113-65.565-16.69-59.605-3.576 5.961 2.385 119.21 4.769 122.786.958 1.437 7.303 20.961 14.012 43.885z"/></mask><path d="M145.409 37.311l4.902 7.548.732-.475.626-.607-6.26-6.466zm3.873-3.641l6.064 6.65.086-.078.084-.081-6.234-6.491zm-30.34 35.601l7.774 4.535-7.774-4.535zm10.953 44.361l-8.057 4.01 8.057-4.01zm6.928 15.244l8.538-2.846-8.538 2.846zm5.216 18.478l-8.732 2.182 8.732-2.182zm7.897 29.206l8.64-2.52-8.64 2.52zm16.442 33.862l6.801 5.895 5.797-6.687-6.59-5.909-6.008 6.701zm-22.291 28.233l2.382 8.679 3.067-.842 1.857-2.581-7.306-5.256zm-56.14 78.573l-8.796-1.906 8.796 1.906zm-12.257 61.38l8.853 1.621-8.853-1.621zm-9.2 36.372l-8.389-3.262 8.388 3.262zm-4.77 160.933l-6.363 6.364 1.502 1.502 2.016.672 2.846-8.538zm10.736-2.124l.879-8.957-2.515-.246-2.275 1.098 3.911 8.105zm5.283.469l6.131 6.589 14.973-13.933-20.388-1.627-.716 8.971zm-1.713 1.656l-6.364-6.364 6.364 6.364zm-.835 36.478l8.731-2.183-.017-.068-.018-.068-8.696 2.319zm1.476.843l7.902 4.308 10.503-19.267-21.006 6.343 2.601 8.616zm-3.61 38.273l5.034 7.461 5.622-3.794-2.097-6.45-8.56 2.783zm-21.195 21.816l-6.689-6.022-.161.18-.152.188 7.002 5.654zm0 0l6.69 6.021.161-.179.152-.189-7.003-5.653zm-29.48 32.528l-8.654 2.473.23.804.374.748 8.05-4.025zm58.412 67.95l6.124 6.595-6.124-6.595zm5.674-5.3l-6.105-6.614-.023.022-.024.023 6.152 6.569zm.003-.003l6.104 6.613.025-.022.024-.023-6.153-6.568zm.067-.063l6.152 6.569.008-.008.008-.007-6.168-6.554zm.008-.007l-6.148-6.573-.01.009-.01.01 6.168 6.554zm.047-.044l6.148 6.572.008-.007-6.156-6.565zm.018-.017l-6.054-6.66-.051.047-.051.047 6.156 6.566zm.002-.002l6.054 6.659.033-.03.033-.031-6.12-6.598zm.008-.008l-6.054-6.659-.033.03-.034.031 6.12 6.598zm.002-.001l6.054 6.659.05-.045.048-.046-6.152-6.568zM101.1 754.91l2.964-8.498-5.075-1.77-3.965 3.628 6.076 6.64zm39.298 5.659l-.428-8.99.428 8.99zm22.488 7.028l8.899-1.343-.617-4.087-3.501-2.195-4.781 7.625zm3.738 45.424l8.988.473-8.988-.473zm8.742 33.379l-8.325 3.421 8.325-3.421zm10.332 41.723l8.992.375-8.992-.375zm15.497 91.792l-6.659 6.054 6.659-6.054zm63.136-3.635l2.295 8.703-2.295-8.703zm3.852-1.01l7.582-4.85-3.517-5.497-6.318 1.634 2.253 8.713zm20.035 23.718l-5.761 6.912 5.761-6.912zm54.837-15.497l6.364 6.364-6.364-6.364zm-7.187-82.274l-8.885 1.433 8.885-1.433zm-3.542-23.823l-8.969.748 8.969-.748zm4.756-41.168l8.851 1.631.014-.076.012-.076-8.877-1.479zm0-.002l-8.851-1.632-.014.076-.012.076 8.877 1.48zm2.397-13.666l-8.896-1.369 8.896 1.369zm-6.069-29.428l-3.441-8.316-7.437 3.077 2.231 7.734 8.647-2.495zm10.837-127.81l8.769-2.024-8.769 2.024zm-1.381-13.029l-.229-8.997-9.518.242.777 9.489 8.97-.734zm13.46-1.436l8.991-.402-.453-10.12-9.996 1.641 1.458 8.881zm8.186 143.689l-8.945.994 8.945-.994zm6.353 71.593l8.98-.598-.005-.072-.006-.071-8.969.741zm0 .003l8.983-.561-.001-.019-.002-.019-8.98.599zm0 .001l-8.982.562.004.064.005.065 8.973-.691zm.001.005l-8.974.69.002.026.002.026 8.97-.742zm4.9 64.954l-8.967.765 8.967-.765zm3.051 50.007l-8.909-1.273 8.909 1.273zm13.113 29.803l2.847-8.54h-.001l-2.846 8.54zm-7.738-134.233l-8.973.69.006.083.008.083 8.959-.856zm0-.003l8.974-.69-.007-.083-.008-.082-8.959.855zm-11.335-148.292h-9v.358l.028.356 8.972-.714zm0-80.839l-1.975-8.781-7.025 1.58v7.201h9zm6.577-1.504l-1.368-8.896-.33.051-.325.075 2.023 8.77zm.001 0l1.369 8.895.329-.051.325-.075-2.023-8.769zm5.343-300.32l8.751-2.1-.103-.43-.145-.418-8.503 2.948zm-44.108-102.52l-6.364 6.364 6.364-6.364zm-51.572-22.51l-6.512 6.212 1.609 1.688 2.227.693 2.676-8.593zm-4.969-5.151l6.457-6.269-6.457 6.269zm-5.447-5.718l-6.69 6.021 6.69-6.021zm-4.929-1.661l-8.992.367.462 11.34 10.937-3.035-2.407-8.672zm-.793-2.035v-9h-.108l-.107.003.215 8.997zm-1.004.076l-4.629-7.718 5.639 16.661-1.01-8.943zm7.799-5.202l5.392 7.206.012-.009.011-.009-5.415-7.188zm7.271-28.134l8.257-3.581-.001-.003-8.256 3.584zm-3.067-7.554l8.378-3.288-.059-.151-.065-.15-8.254 3.589zm0-.001l-8.378 3.288.059.151.065.149 8.254-3.588zm-8.854-17.479l6.719-5.988-.009-.01-6.71 5.998zm-1.602-1.255l-8.847 1.649.905 4.859 4.586 1.843 3.356-8.351zm-1.798-28.567l-5.659-6.998-3.833 3.1.548 4.899 8.944-1.001zm.036-.029l5.759 6.917.001-.002-5.76-6.915zm.033-.028l-5.034-7.461-.431.291-.395.339 5.86 6.831zm.466-.503l-7.292-5.275-.41.567-.318.623 8.02 4.085zm.362-.731l8.8 1.885.285-1.328-.121-1.354-8.964.797zm-2.619-10.601l-8.869 1.535 1.039 6.003 5.959 1.266 1.871-8.804zm-1.206-6.555l.865-8.958-11.985-1.158 2.283 11.822 8.837-1.706zm7.639-2.99l8.05 4.024.167-.335.139-.347-8.356-3.343zm-5.96-7.153l-1.273 8.91 1.273-8.91zm-3.793-.328l-8.812 1.831 1.457 7.01 7.157.157.198-8.998zm-1.618-7.724l-8.811 1.835.002.008.001.008 8.808-1.851zm-.001-.002l8.811-1.836-.002-.01-.002-.009-8.807 1.855zm-.006-.031l8.807-1.855-.002-.008-.002-.008-8.803 1.87zm-.002-.009l-8.807 1.851.002.01.002.01 8.803-1.87zm-1.611-7.686l-.732-8.97-10.161.829 2.083 9.98 8.81-1.839zm2.381-5.082l-8.834 1.72.006.03.006.03 8.822-1.78zM236.601 28.98l-2.668 8.595 2.668-8.595zm.716 350.634l9 .05-17.997-.251 8.997.201zm-.277 24.232l-9-.017 17.998.162-8.998-.145zm4.745 153.916l6.49-6.236-16.756-17.437 1.279 24.149 8.987-.476zm.182 3.404l-8.987.483 17.987-.467-9-.016zm.01-3.265l9 .041.028-6.023-5.557-2.322-3.471 8.304zm-119.175 5.535l8.999-.052-.042-7.352-7.213-1.426-1.744 8.83zm-2.668-.635l2.368-8.683-.362-.099-.368-.068-1.638 8.85zm2.527 29.064l-9-.089 9 .089zm-1.582 33.642l-7.855 4.392 12.318 22.035 4.4-24.858-8.863-1.569zm-5.714-9.18l-4.025 8.049v.001l4.025-8.05zm-1.955-2.297l-7.22 5.375h.001l7.219-5.375zm-7.273-7.981l-8.887-1.424-.834 5.2 4.125 3.274 5.596-7.05zm.062-31.425l-.884-8.957-8.944.883.87 8.945 8.958-.871zm12.743-12.032l1.469-8.88-10.469-1.732v10.612h9zm-22.89 35.257l-5.4 7.2.2.15.209.139 4.992-7.489zm1.537 4.27l-1.32 8.903 11.143 1.651-.848-11.232-8.975.678zm-2.967-4.031l-6.364-6.364-.304.304-.274.332 6.942 5.728zm-3.703 4.489l-6.942-5.728-18.135 21.982 27.47-7.579-2.393-8.675zm162.73 248.592l-8.839-1.699-.246 1.279.127 1.297 8.958-.877zm4.475 46.269l-8.638 2.527 17.597-3.385-8.959.858zm-18.781-166.671l7.718 4.631-7.718-4.631zm4.769 122.786l7.488-4.992-7.488 4.992zM151.669 43.777a168.74 168.74 0 013.677-3.457l-12.128-13.3a187.08 187.08 0 00-4.069 3.825l12.52 12.932zm-24.953 30.029c2.913-4.995 6.916-11.08 11.268-16.59 4.47-5.66 8.812-10.074 12.327-12.357l-9.805-15.095c-6.01 3.903-11.81 10.17-16.647 16.295-4.955 6.274-9.423 13.075-12.691 18.677l15.548 9.07zm11.237 35.816c-3.841-7.716-7.745-15.603-10.044-22.746-2.487-7.722-2.069-11.57-1.193-13.07l-15.548-9.07c-5.129 8.792-3.001 19.555-.393 27.656 2.794 8.679 7.369 17.827 11.063 25.25l16.115-8.02zm7.408 16.408c-1.585-4.757-4.592-10.751-7.408-16.408l-16.115 8.02c3.061 6.15 5.357 10.81 6.447 14.08l17.076-5.692zm5.409 19.141c-1.645-6.581-2.907-11.637-5.409-19.141l-17.076 5.692c2.267 6.801 3.389 11.282 5.022 17.814l17.463-4.365zm7.806 28.869c-4.126-14.147-6.181-22.367-7.806-28.869l-17.463 4.365c1.653 6.611 3.771 15.081 7.989 29.544l17.28-5.04zm13.81 29.681c-6.132-5.498-9.092-13.505-13.81-29.681l-17.28 5.04c4.436 15.207 8.478 28.542 19.074 38.043l12.016-13.402zm-20.993 40.19c9.106-12.659 17.677-22.853 21.786-27.594l-13.602-11.79c-4.33 4.996-13.272 15.632-22.796 28.873l14.612 10.511zm-54.65 75.222c6.577-30.354 17.995-47.875 28.011-57.94 10.05-10.1 19.149-13.155 21.715-13.859l-4.764-17.358c-4.939 1.356-17.014 5.761-29.71 18.52-12.73 12.792-25.63 33.528-32.844 66.826l17.592 3.811zm-12.2 61.096c2.314-12.642 5.65-30.868 12.2-61.096l-17.592-3.811c-6.607 30.495-9.983 48.934-12.314 61.665l17.706 3.242zm-9.666 38.013c5.144-13.227 6.515-20.803 9.666-38.013l-17.706-3.242c-3.148 17.191-4.274 23.258-8.736 34.731l16.776 6.524zm-6.792 151.307c.432.432.256.468-.186-.659-.398-1.012-.838-2.516-1.265-4.591-.854-4.148-1.491-9.76-1.89-16.572-.792-13.573-.583-30.911.303-48.704.884-17.759 2.432-35.756 4.265-50.585 1.886-15.264 3.954-26.052 5.565-30.196l-16.776-6.524c-2.56 6.584-4.815 19.638-6.653 34.512-1.893 15.308-3.475 33.745-4.379 51.898-.902 18.119-1.14 36.171-.293 50.649.421 7.215 1.125 13.794 2.227 19.15.551 2.677 1.242 5.253 2.142 7.543.854 2.175 2.14 4.736 4.212 6.807l12.728-12.728zm.46-3.865c-1.893.913-3.087 1.354-3.875 1.535-.694.159-.572-.001-.103.156l-5.692 17.076c6.896 2.299 13.475-.618 17.493-2.556l-7.823-16.211zm9.91-.397a284.199 284.199 0 01-5.12-.455l-1.757 17.914c1.478.145 3.331.315 5.445.484l1.432-17.943zm3.934 16.991a56.2 56.2 0 011.481-1.431L71.608 567.67a74.507 74.507 0 00-1.946 1.88l12.727 12.728zm1.498 27.795c-.655-2.456-1.456-9.647-1.514-17.152-.028-3.637.125-6.926.461-9.384.17-1.239.355-2.032.489-2.453.203-.636.088.173-.933 1.194L69.662 569.55c-2.035 2.034-2.996 4.519-3.49 6.068-.562 1.765-.924 3.668-1.172 5.48-.498 3.644-.658 7.88-.627 11.962.062 7.933.87 16.954 2.122 21.651l17.392-4.638zm-9.821-5.454c3.845-1.161 8.668.837 9.856 5.59l-17.462 4.366c1.543 6.171 7.774 8.796 12.809 7.276l-5.203-17.232zm7.55 44.106c-4.672-14.365.276-26.271 2.953-31.182l-15.804-8.616c-3.808 6.985-11.119 24.297-4.267 45.365l17.117-5.567zm-23.065 30.62c4.374-4.858 8.594-9.545 12.21-13.351 3.856-4.06 6.308-6.336 7.33-7.025l-10.068-14.921c-2.942 1.984-6.737 5.785-10.313 9.549-3.816 4.017-8.211 8.9-12.537 13.705l13.378 12.043zm.314-.368L44.86 667.67v.001l14.005 11.306zm-31.715 27.53c2.947 0 5.233-1.32 6.054-1.806 1.172-.695 2.29-1.546 3.268-2.353 1.98-1.636 4.23-3.805 6.528-6.148 4.63-4.72 10.217-10.928 15.551-16.855l-13.378-12.042c-5.422 6.024-10.721 11.907-15.022 16.291-2.166 2.209-3.895 3.846-5.143 4.877-.297.245-.535.429-.716.562-.187.136-.272.187-.265.183a4.535 4.535 0 01.587-.268c.337-.127 1.25-.441 2.536-.441v18zm-4.768-.655c8.653-2.472 8.654-2.469 8.655-2.466l.002.007.003.012.007.023.01.039.014.05.001.005a3.344 3.344 0 01-.044-.246c-.045-.316-.021-.433-.037-.323-.012.084-.168 1.149-1.242 2.222a4.907 4.907 0 01-1.748 1.136c-.543.2-.878.196-.853.196v-18c-3.635 0-7.31 1.123-10.127 3.94-2.638 2.639-3.539 5.789-3.85 7.96-.313 2.196-.14 4.165.038 5.414A21.379 21.379 0 0013.64 708l.05.19.02.074.01.032a.42.42 0 01.004.015l.002.007c0 .003.002.007 8.655-2.466zm52.288 61.355c.61-.566 1.565-.451 1.343-.516-.815-.237-2.608-1.171-5.36-3.652-5.374-4.847-11.643-13.031-17.817-22.366-6.074-9.183-11.68-18.898-15.79-26.364a459.992 459.992 0 01-4.858-9.061 321.572 321.572 0 01-1.652-3.212l-.082-.163-.019-.038-.004-.008v-.001l-8.05 4.026c-8.05 4.025-8.049 4.026-8.048 4.028l.002.005a.14.14 0 01.008.015l.026.053.098.193.369.727c.321.63.79 1.543 1.39 2.694 1.2 2.302 2.927 5.562 5.05 9.421 4.237 7.696 10.104 17.874 16.547 27.615 6.343 9.591 13.634 19.363 20.776 25.803 3.508 3.163 7.712 6.206 12.374 7.565 5.253 1.533 11.164.866 15.945-3.574l-12.248-13.19zm5.646-5.274a2011.047 2011.047 0 01-5.646 5.274l12.248 13.19c1.714-1.592 3.636-3.391 5.702-5.326l-12.304-13.138zm.05-.047l-.003.002 12.21 13.227.002-.003-12.209-13.226zm.019-.018l-.067.062 12.306 13.137.066-.062-12.305-13.137zm-.007.007l-.009.008 12.337 13.107.008-.008-12.336-13.107zm.066-.063l-.046.044 12.296 13.145.047-.044-12.297-13.145zm.011-.01l-.018.018 12.312 13.13.018-.017-12.312-13.131zm.104-.096l-.002.002 12.108 13.319.002-.002-12.108-13.319zm-.058.054l-.008.007 12.24 13.197.008-.007-12.24-13.197zm.068-.063l-.002.002 12.108 13.319.002-.002-12.108-13.319zm14.456-13.427c-5.286 4.837-10.283 9.517-14.554 13.518l12.304 13.137c4.279-4.007 9.203-8.619 14.401-13.376l-12.15-13.279zm44.946 3.309c-12.856.612-26.589-1.917-35.906-5.167l-5.928 16.996c11.262 3.928 27.297 6.884 42.69 6.151l-.856-17.98zm27.697 8.393c-7.78-4.878-17.132-8.896-27.697-8.393l.856 17.98c5.396-.257 11.036 1.749 17.279 5.663l9.562-15.25zm7.945 53.522c.712-13.533-1.687-33.059-3.827-47.24l-17.799 2.686c2.155 14.275 4.255 32.126 3.651 43.608l17.975.946zm8.079 29.485c-5.002-12.17-8.517-21.171-8.079-29.485l-17.975-.946c-.692 13.15 4.833 26.148 9.404 37.273l16.65-6.842zm10.999 45.519c.723-17.339-5.806-32.881-10.999-45.519l-16.65 6.842c5.438 13.232 10.197 25.158 9.665 37.928l17.984.749zm13.165 85.363c-1.572-1.729-3.642-5.695-5.661-12.394-1.93-6.406-3.527-14.309-4.755-22.909-2.459-17.212-3.321-36.329-2.749-50.06l-17.984-.749c-.62 14.879.306 35.101 2.914 53.354 1.304 9.133 3.06 17.993 5.34 25.557 2.191 7.271 5.187 14.481 9.576 19.309l13.319-12.108zm54.181-6.283c-9.125 2.406-21.974 5.782-33.646 7.32-5.852.772-10.956 1.015-14.899.598-4.227-.447-5.494-1.479-5.636-1.635l-13.319 12.108c4.63 5.093 11.382 6.827 17.064 7.427 5.966.631 12.662.202 19.142-.652 12.992-1.712 26.939-5.403 35.884-7.761l-4.59-17.405zm3.894-1.021c-1.192.308-2.505.654-3.894 1.021l4.59 17.405c1.4-.37 2.669-.704 3.811-.999l-4.507-17.427zm28.05 25.517c-4.143-3.452-13.234-13.868-18.215-21.654l-15.163 9.7c5.737 8.968 15.99 20.89 21.855 25.78l11.523-13.826zm42.711-14.947c.006-.006-.159.154-.599.47-.421.302-.99.673-1.721 1.103-1.468.865-3.376 1.846-5.646 2.887-4.536 2.079-10.137 4.219-15.773 5.98-5.68 1.775-11.08 3.066-15.27 3.59-2.112.264-3.606.292-4.527.208-1.179-.108-.382-.296.825.709l-11.523 13.826c2.995 2.5 6.623 3.17 9.058 3.39 2.693.25 5.594.08 8.4-.27 5.645-.71 12.165-2.32 18.406-4.27 6.286-1.97 12.606-4.37 17.904-6.8 4.88-2.237 10.136-5.037 13.194-8.095l-12.728-12.728zm-9.708-74.477c2.451 15.199 5.519 34.242 7.332 50.122.909 7.969 1.47 14.877 1.513 19.991.021 2.582-.094 4.406-.272 5.552-.089.57-.159.743-.126.653.003-.007.294-.874 1.261-1.841l12.728 12.728c1.621-1.621 2.467-3.467 2.932-4.749.495-1.364.795-2.761.992-4.03.393-2.531.509-5.454.484-8.464-.051-6.07-.698-13.722-1.629-21.881-1.868-16.373-5.01-35.85-7.444-50.947l-17.771 2.866zm-3.626-24.508c.357 4.282 1.878 13.666 3.626 24.508l17.771-2.866c-1.831-11.352-3.177-19.748-3.459-23.137l-17.938 1.495zm4.874-43.548c-1.294 7.02-2.745 14.882-3.753 22.337-.993 7.347-1.647 14.905-1.121 21.211l17.938-1.495c-.357-4.279.066-10.244 1.021-17.305.939-6.951 2.307-14.381 3.617-21.485l-17.702-3.263zm-.027.151v.001l17.755 2.959.001-.001-17.756-2.959zm.001-.001l-.001.001 17.756 2.959-17.755-2.96zm2.378-13.555c-.595 3.871-1.43 8.402-2.352 13.403l17.702 3.264c.908-4.924 1.796-9.741 2.441-13.929l-17.791-2.738zm-5.82-25.564c2.04 7.068 3.644 13.194 4.657 17.959.508 2.388.84 4.309 1.013 5.766.194 1.631.112 2.086.15 1.839l17.791 2.738c.345-2.244.174-4.678-.067-6.703-.261-2.199-.71-4.702-1.28-7.383-1.143-5.372-2.88-11.964-4.969-19.206l-17.295 4.99zm30.213-18.903c-2.04 0-4.106.461-5.692.884-1.742.464-3.665 1.097-5.649 1.808-3.967 1.421-8.715 3.352-13.666 5.4l6.882 16.632c4.973-2.057 9.349-3.831 12.855-5.087 1.753-.628 3.153-1.078 4.215-1.361 1.219-.325 1.437-.276 1.055-.276v-18zm-19.499-109.378c1.695 7.343 7.014 37.118 10.57 65.122 1.779 14.006 3.071 27.228 3.284 36.822.108 4.892-.081 8.305-.442 10.275-.195 1.065-.315.973.031.389.409-.691 2.305-3.23 6.056-3.23v18c5.092 0 8.105-3.359 9.429-5.594 1.261-2.128 1.854-4.489 2.19-6.323.701-3.828.846-8.731.731-13.916-.234-10.56-1.624-24.533-3.422-38.69-3.596-28.322-9.006-58.749-10.888-66.903l-17.539 4.048zm-1.581-14.319c.546 6.678 1.06 12.059 1.581 14.319l17.539-4.048c.014.06-.034-.156-.127-.844a85.493 85.493 0 01-.292-2.497 377.138 377.138 0 01-.761-8.398l-17.94 1.468zm20.972-11.051c-4.58.752-8.736 1.231-12.231 1.32l.457 17.994c4.645-.118 9.698-.732 14.69-1.551l-2.916-17.763zm15.068 117.403c0-5.577-3.802-90.692-4.619-108.924l-17.982.805c.838 18.704 4.601 103.078 4.601 108.119h18zm3.521 34.173c-.895-8.056-1.785-16.071-2.452-22.444a578.43 578.43 0 01-.798-8.045 128.225 128.225 0 01-.212-2.599 44.09 44.09 0 01-.049-.802c-.01-.215-.01-.296-.01-.283h-18c0 2.091.527 7.49 1.166 13.603.675 6.442 1.572 14.521 2.465 22.558l17.89-1.988zm3.631 36.161c0-2.092-.526-7.491-1.166-13.603-.674-6.442-1.572-14.521-2.465-22.558l-17.89 1.988c.895 8.056 1.786 16.071 2.453 22.443.333 3.189.607 5.932.797 8.045.095 1.058.166 1.928.213 2.6.023.335.039.6.048.801.01.216.01.297.01.284h18zm2.746 35.685c-.71-8.59-1.402-16.963-1.917-23.544a847.836 847.836 0 01-.615-8.272 196.417 196.417 0 01-.165-2.667 57.513 57.513 0 01-.039-.843l-.008-.258-.001-.074v-.02l-.001-.007h-18c0 3.336 1.421 20.393 2.808 37.168l17.938-1.483zm.011.145v-.002l-17.96 1.197v.003l17.96-1.198zm.003.039v-.001l-17.965 1.122v.002l17.965-1.123zm-.009-.124v-.005l-17.947 1.381v.004l17.947-1.38zm3.21 42.933c0-4.23-1.691-24.559-3.214-42.984l-17.939 1.483c1.586 19.182 3.153 38.254 3.153 41.501h18zm1.685 21.946c-.969-11.349-1.685-19.865-1.685-21.946h-18c0 3.09.841 12.83 1.75 23.476l17.935-1.53zm2.993 52.045c.322-2.258.278-5.641.162-8.921-.126-3.569-.384-7.948-.712-12.691-.656-9.494-1.616-20.74-2.443-30.434l-17.935 1.531c.83 9.731 1.776 20.824 2.421 30.145.323 4.665.565 8.813.68 12.085.058 1.638.082 2.994.073 4.053-.004.527-.017.942-.034 1.255-.017.333-.035.456-.031.431l17.819 2.546zm7.049 19.99c.883.3.476.49-.83-1.28-1.112-1.515-2.312-3.699-3.388-6.294-1.063-2.565-1.892-5.257-2.384-7.654-.521-2.544-.535-4.144-.447-4.762l-17.819-2.546c-.508 3.554-.075 7.468.633 10.922.738 3.601 1.92 7.39 3.39 10.934 1.457 3.52 3.312 7.07 5.515 10.06 2.01 2.74 5.179 6.21 9.638 7.7l5.692-17.08zm-19.543-124.837c2.38 24.915 5.616 58.802 7.603 86.234.996 13.746 1.665 25.69 1.769 34.02.053 4.243-.047 7.173-.244 8.853-.116.99-.188.81.086.15.108-.26.685-1.66 2.231-2.93 2.087-1.71 5.133-2.48 8.099-1.49l-5.693 17.08c3.294 1.1 6.642.27 9.005-1.67 1.822-1.49 2.651-3.29 2.986-4.1.727-1.75 1.012-3.65 1.164-4.95.339-2.89.419-6.79.365-11.169-.112-8.897-.815-21.287-1.815-35.095-2.005-27.677-5.263-61.782-7.637-86.645l-17.919 1.712zm-.014-.168v.002l17.947-1.38v-.003l-17.947 1.381zm-3.017-34.541c0 1.788.376 6.282.885 11.917a5065.94 5065.94 0 002.146 22.789l17.918-1.711c-.863-9.035-1.608-16.837-2.137-22.697a588.611 588.611 0 01-.614-7.171c-.071-.914-.123-1.651-.156-2.217a37.065 37.065 0 01-.035-.672c-.007-.178-.007-.247-.007-.238h-18zm.655-114.442l-8.972.715.001.004.001.014.004.057.018.224.07.878.264 3.344a17933.508 17933.508 0 013.812 49.092c2.11 27.733 4.147 55.795 4.147 60.114h18c0-5.219-2.137-34.377-4.199-61.48a16206.923 16206.923 0 00-3.816-49.144l-.265-3.349-.069-.88-.018-.226-.005-.057-.001-.014v-.004l-8.972.712zm-9-80.839v80.839h18v-80.839h-18zm13.554-10.274c-2.12.489-4.302.992-6.529 1.493l3.949 17.562c2.283-.514 4.512-1.028 6.626-1.516l-4.046-17.539zm.656-.126h-.001l2.737 17.791h.001l-2.737-17.791zm19.824-3.591c-2.675 0-6.046.583-9.164 1.207-3.325.666-7.245 1.571-11.315 2.51l4.046 17.539c4.152-.957 7.79-1.796 10.804-2.399 3.219-.645 4.964-.857 5.629-.857v-18zm-5.413-180.094c1.191 23.808 3.269 71.04 3.566 112.268.148 20.656-.153 39.571-1.203 53.225-.531 6.9-1.224 12.033-2.017 15.27-.415 1.693-.717 2.261-.683 2.204.028-.049.374-.656 1.203-1.317a7.32 7.32 0 014.547-1.556v18c5.762 0 8.777-4.301 9.812-6.083 1.254-2.158 2.045-4.685 2.603-6.964 1.154-4.708 1.932-11.029 2.482-18.174 1.11-14.435 1.405-33.965 1.255-54.734-.299-41.623-2.393-89.163-3.587-113.038l-17.978.899zm-7.7-107.739l-8.752 2.1v.001l.002.006.006.027.029.119.115.488c.102.434.253 1.083.448 1.929a646.14 646.14 0 011.63 7.303 853.825 853.825 0 015.124 25.434c3.848 20.719 7.936 47.084 9.098 70.332l17.978-.899c-1.222-24.436-5.478-51.717-9.379-72.72a871.791 871.791 0 00-5.233-25.975 667.676 667.676 0 00-1.675-7.505 415.741 415.741 0 00-.636-2.724l-.002-.011-.001-.003c0-.001-.001-.002-8.752 2.098zm-50.472-96.156c.732.731 2.159 2.662 4.2 6.253 1.934 3.404 4.105 7.729 6.426 12.725 4.636 9.981 9.662 22.19 14.328 34.115 4.658 11.902 8.914 23.412 12.008 31.954 1.546 4.268 2.8 7.79 3.667 10.241.433 1.226.769 2.183.996 2.833l.258.738.065.186.016.046.003.011.001.002 8.504-2.948 8.503-2.949-.001-.004-.005-.014a23.776 23.776 0 01-.087-.249l-.266-.763a1464.129 1464.129 0 00-4.73-13.261c-3.127-8.631-7.439-20.293-12.169-32.382-4.722-12.065-9.903-24.667-14.766-35.138-2.43-5.23-4.831-10.041-7.102-14.037-2.164-3.808-4.574-7.54-7.121-10.087l-12.728 12.728zm-47.884-20.281c5.535 1.724 16.039 5.128 26.15 9.125 5.062 2.001 9.889 4.097 13.887 6.151 4.2 2.157 6.741 3.898 7.847 5.005l12.728-12.728c-3.186-3.186-7.832-5.968-12.351-8.288-4.72-2.425-10.142-4.764-15.494-6.879-10.717-4.237-21.707-7.794-27.415-9.572l-5.352 17.186zm-8.751-7.475c1.509 1.554 3.156 3.25 4.915 5.094l13.024-12.424a799.86 799.86 0 00-5.024-5.208l-12.915 12.538zm-5.679-5.966c1.477 1.64 3.489 3.71 5.679 5.966l12.915-12.538c-2.291-2.36-4.02-4.143-5.214-5.47l-13.38 12.042zm4.168.99c-.625.173-1.583.247-2.622-.089-.985-.319-1.475-.823-1.546-.901l13.38-12.042c-1.576-1.75-3.653-3.328-6.288-4.181-2.688-.871-5.358-.792-7.737-.132l4.813 17.345zm-3.2-1.707a8.547 8.547 0 01-5.874-2.338 7.994 7.994 0 01-1.982-2.945c-.391-1.031-.358-1.688-.343-1.315l17.985-.734c-.039-.938-.159-2.612-.812-4.333-.567-1.497-2.991-6.335-8.974-6.335v18zm.006.019c.099-.011.167-.017.208-.02.042-.003.04-.002 0-.001l-.429-17.995c-.636.015-1.253.068-1.798.13l2.019 17.886zm1.396-21.351c-2.073 1.552-4.432 3.128-7.035 4.69l9.259 15.436c3.063-1.837 5.939-3.752 8.561-5.714l-10.785-14.412zm4.408-17.346c2.69 6.202.844 13.389-4.431 17.364l10.831 14.376c12.13-9.139 16.006-25.316 10.113-38.903l-16.513 7.163zm-3.189-7.848c.985 2.51 2.049 5.223 3.19 7.851l16.511-7.169c-.992-2.283-1.938-4.692-2.945-7.258l-16.756 6.576zm.124.299v.001l16.508-7.177-.001-.001-16.507 7.177zm-7.318-15.078c.944 1.059 2.054 2.83 3.347 5.552 1.274 2.682 2.481 5.747 3.847 9.226l16.756-6.576c-1.313-3.345-2.751-7.021-4.344-10.373-1.573-3.312-3.55-6.868-6.169-9.806l-13.437 11.977zm1.76 1.107a5.849 5.849 0 01-1.41-.796c-.251-.195-.362-.325-.341-.301l13.419-11.997c-1.048-1.173-2.668-2.688-4.955-3.607l-6.713 16.701zm-6.426-17.824c0 4.185.324 7.843.935 11.122l17.695-3.297c-.378-2.029-.63-4.567-.63-7.825h-18zm-.96-18.093c.638 5.695.96 11.416.96 18.093h18c0-7.298-.355-13.69-1.071-20.094l-17.889 2.001zm3.222-7.947l.063-.052 11.319 13.996.135-.11-11.517-13.834zm-.069.058l.068-.057 11.519 13.831.133-.112-11.72-13.662zm-1.694 2.243a7.666 7.666 0 012.52-2.873l10.068 14.922a10.356 10.356 0 003.451-3.879l-16.039-8.17zm8.382 3.354c-8.801-1.886-8.8-1.888-8.8-1.891l.002-.005.002-.01.004-.021.009-.041.019-.081.04-.163a7.72 7.72 0 01.318-.973c.178-.434.419-.899.752-1.359l14.584 10.549a11.502 11.502 0 001.332-2.392 10.823 10.823 0 00.499-1.556l.02-.088a.639.639 0 00.01-.042l.004-.021.003-.01.001-.005c0-.003.001-.006-8.799-1.891zm-4.49-1.797a8.346 8.346 0 01-3.997-2.081 7.252 7.252 0 01-1.251-1.539c-.321-.538-.393-.849-.318-.615.125.388.315 1.197.513 2.37a61.65 61.65 0 01.545 4.122l.027.27.005.061a.051.051 0 01.001.01v-.002-.001l8.965-.798c8.964-.797 8.964-.798 8.964-.799v-.001-.005l-.001-.011-.004-.034a3.406 3.406 0 00-.01-.111l-.037-.38a85.663 85.663 0 00-.707-5.326c-.243-1.431-.601-3.25-1.128-4.884-.25-.777-.673-1.947-1.372-3.114-.415-.694-2.326-3.862-6.454-4.74l-3.741 17.608zm-8.172-13.653c.43 2.227.821 4.342 1.174 6.384l17.737-3.07a351.73 351.73 0 00-1.237-6.727l-17.674 3.413zm16.476-4.697c-8.05-4.025-8.047-4.03-8.044-4.035l.005-.011.011-.022a5.51 5.51 0 01.021-.042l.043-.081a6.048 6.048 0 01.244-.425c.104-.168.206-.313.308-.44.203-.256.42-.464.653-.626.625-.434.854-.202-.015-.285l-1.73 17.916c4.992.482 9.041-.78 12.02-2.852a14.91 14.91 0 003.157-2.946 13.19 13.19 0 001.165-1.726c.042-.075.081-.146.116-.213l.05-.097.024-.046.011-.022.006-.011c.002-.005.005-.011-8.045-4.036zm-7.233 1.757c1.035.148.863.324.257-.14-.723-.553-1.299-1.427-1.558-2.378-.216-.793-.148-1.38-.109-1.622a4.078 4.078 0 01.226-.803l.029-.076.016-.04.008-.02a.065.065 0 01.004-.01c.002-.005.004-.01 8.36 3.332 8.356 3.343 8.359 3.338 8.361 3.332l.004-.01a2.458 2.458 0 00.027-.069l.038-.1a12.911 12.911 0 00.287-.859c.139-.47.293-1.084.41-1.81.226-1.396.368-3.55-.295-5.981-.706-2.59-2.25-5.178-4.874-7.184-2.505-1.916-5.508-2.933-8.646-3.38l-2.545 17.818zm-2.718-.24c.721.016 1.615.083 2.718.24l2.545-17.819a40.683 40.683 0 00-4.868-.416l-.395 17.996zm-10.228-14.87c.572 2.72 1.109 5.275 1.614 7.704l17.623-3.663c-.51-2.452-1.051-5.028-1.621-7.743l-17.616 3.702zm-.003-.018v.002l17.622-3.67-.001-.003-17.621 3.671zm-.003-.012l.007.031 17.613-3.709-.006-.03-17.614 3.708zm.002.008l.002.009 17.606-3.742-.002-.009-17.606 3.742zm-1.618-7.719a4514.51 4514.51 0 001.614 7.7l17.615-3.703c-.512-2.434-1.048-4.984-1.609-7.673l-17.62 3.676zm2.369-5.14c.203 1.004-.324-.291.709-2.225a6.763 6.763 0 012.626-2.682c1.03-.58 1.924-.725 2.374-.761l1.464 17.94c3.08-.251 7.132-1.746 9.413-6.017 1.9-3.557 1.564-7.311 1.059-9.815l-17.645 3.56zm-23.052-32.762c5.896 1.83 11.034 6.496 15.184 12.996 4.124 6.461 6.731 13.925 7.856 19.706l17.668-3.44c-1.497-7.689-4.85-17.332-10.352-25.951-5.477-8.58-13.631-16.967-25.02-20.502l-5.336 17.191zm-78.417 2.587c3.485-3.347 8.725-5.85 15.634-7.392 6.862-1.531 14.778-1.98 22.923-1.682 16.336.596 32.296 4.14 39.86 6.487l5.336-17.191c-8.865-2.751-26.403-6.622-44.538-7.284-9.091-.333-18.653.127-27.502 2.102-8.802 1.965-17.504 5.565-24.181 11.977l12.468 12.983zm72.804 339.251c-.175 7.827-.264 16.003-.28 24.416l18 .035c.016-8.311.104-16.364.275-24.049l-17.995-.402zm17.718 24.578c.133-8.277.236-16.611.279-24.327l-17.999-.1c-.043 7.633-.145 15.902-.277 24.138l17.997.289zm-13.24 154.247l.182 3.411 17.974-.965-.181-3.398-17.975.952zm18.169 2.944c.002-1.082.005-2.163.01-3.24l-18-.083c-.005 1.094-.008 2.191-.01 3.291l18 .032zm-5.519-11.585a8.411 8.411 0 012.827 1.929l-12.979 12.472c.708.737 1.76 1.6 3.211 2.206l6.941-16.607zm-120.902 5.009a30.126 30.126 0 01-2.044-.488l-4.737 17.366c1.133.309 2.231.571 3.292.781l3.489-17.659zm7.114 37.348c.095-9.564.193-19.545.141-28.57l-17.999.103c.05 8.858-.046 18.692-.141 28.289l17.999.178zm-.142 20.796c0-6.327.07-13.436.142-20.796l-17.999-.178c-.072 7.337-.143 14.541-.143 20.974h18zm-1.576 14.326c.943-5.333 1.576-10.306 1.576-14.326h-18c0 2.427-.413 6.169-1.301 11.189l17.725 3.137zm-18.602-2.699a8.38 8.38 0 01-1.819-1.226 6.825 6.825 0 01-.573-.568c-.168-.189-.227-.28-.149-.173.142.197.426.622.875 1.351.879 1.427 2.081 3.511 3.55 6.138l15.711-8.784c-1.498-2.679-2.851-5.034-3.936-6.796a41.785 41.785 0 00-1.606-2.445 15.94 15.94 0 00-1.016-1.277c-.172-.192-1.246-1.45-2.987-2.32l-8.05 16.1zm-5.149-4.972c.407.547.945 1.274 1.44 1.876.253.308.624.742 1.071 1.183.34.336 1.259 1.223 2.638 1.912l8.051-16.099a8.088 8.088 0 011.39.88c.272.214.463.396.563.494.186.184.263.286.191.199a16.194 16.194 0 01-.322-.414c-.165-.216-.349-.464-.584-.78l-14.438 10.749zm-5.65-6.306c2.217 1.759 4.002 4.092 5.649 6.306l14.439-10.749c-1.559-2.094-4.604-6.248-8.897-9.656l-11.191 14.099zm-3.3-37.604c.623 6.405 1.531 19.631.009 29.13l17.773 2.849c1.925-12.013.758-27.303.134-33.721l-17.916 1.742zm12.701-6.853c0-.746.15-1.522.458-2.251.3-.712.683-1.226.992-1.557.549-.59.888-.636.405-.431-.423.179-1.179.424-2.353.667-1.147.237-2.529.44-4.129.597l1.768 17.913c3.923-.387 8.193-1.103 11.735-2.603 3.153-1.336 9.124-4.883 9.124-12.335h-18zm0-6.05v6.05h18v-6.05h-18zm11.83-8.641a76.268 76.268 0 00-1.361-.239l-2.938 17.759c.337.056.678.116 1.022.179l3.277-17.699zm-30.711 51.387a6.802 6.802 0 01-2.01-2.043 4.556 4.556 0 01-.479-.997c-.06-.185 0-.063.043.499l17.949-1.356c-.095-1.261-.307-2.942-.852-4.641-.472-1.47-1.649-4.427-4.667-6.439l-9.984 14.977zm9.925-.886a7.556 7.556 0 01-3.632 2.009 8.114 8.114 0 01-6.701-1.412l10.8-14.4c-2.719-2.039-5.827-2.273-8.222-1.709a10.443 10.443 0 00-4.972 2.784l12.727 12.728zm-3.125 3.852l3.704-4.489-13.885-11.455-3.703 4.489 13.884 11.455zm1.048-15.088c-3.302-.489-6.789-.307-10.383.685l4.787 17.351c1.21-.334 2.168-.347 2.957-.23l2.639-17.806zm154.74 257.953l-8.958.877v.001l.001.002.001.012.004.047.019.186.071.729.272 2.79.986 10.136c.824 8.489 1.942 20.052 3.12 32.346l17.918-1.715a26122.17 26122.17 0 00-3.122-32.371l-.987-10.143a3377.62 3377.62 0 01-.362-3.71l-.005-.047-.001-.012v-.003-.001l-8.957.876zm-6.552-59.724c1.684 14.036 1.135 28.546.122 39.687a237.86 237.86 0 01-1.597 13.401 162.158 162.158 0 01-.761 4.664l-.041.224a.56.56 0 00-.009.046l-.001.007v-.001-.001c0-.001 0-.002 8.839 1.697 8.838 1.7 8.838 1.699 8.838 1.697l.001-.003.002-.01.005-.027.016-.088.057-.307c.048-.263.116-.64.199-1.124.167-.967.396-2.361.658-4.118.524-3.512 1.18-8.491 1.72-14.427 1.073-11.807 1.716-27.696-.176-43.462l-17.872 2.145zm-.036-56.047c-.388.646-1.88 2.829-5.064 3.523a7.984 7.984 0 01-6.517-1.372c-1.24-.946-1.33-1.702-.613-.23 1.071 2.197 2.534 6.375 4.143 12.226 3.156 11.475 6.35 27.426 8.087 41.9l17.872-2.145c-1.84-15.329-5.202-32.161-8.603-44.528-1.669-6.069-3.485-11.578-5.319-15.341-.736-1.508-2.186-4.312-4.645-6.19-1.418-1.082-4.383-2.747-8.237-1.908-3.719.811-5.704 3.413-6.539 4.804l15.435 9.261zM251.6 848.56a7.88 7.88 0 01.869 1.707c.09.252.131.413.132.42.004.016-.033-.136-.101-.538-.132-.781-.295-1.989-.48-3.651-.366-3.291-.771-7.907-1.187-13.472-.83-11.106-1.682-25.693-2.35-40.381-.668-14.697-1.147-29.4-1.239-40.754-.046-5.695.007-10.429.17-13.857.082-1.729.185-2.972.291-3.772.053-.405.088-.555.081-.526-.004.02-.039.165-.12.394a7.094 7.094 0 01-.605 1.267l-15.435-9.261c-.834 1.39-1.19 2.763-1.341 3.394a23.302 23.302 0 00-.427 2.385c-.199 1.515-.332 3.32-.424 5.265-.187 3.92-.236 9.04-.189 14.856.094 11.668.584 26.618 1.257 41.426.673 14.817 1.535 29.584 2.381 40.905.422 5.649.846 10.514 1.248 14.123.199 1.789.406 3.386.621 4.66.106.626.237 1.313.403 1.968.063.247.436 1.879 1.468 3.427l14.977-9.985zm15.161 46.349c-3.373-11.528-6.659-22.215-9.231-30.223-1.283-3.998-2.401-7.369-3.271-9.86a102.842 102.842 0 00-1.156-3.175c-.164-.42-.723-1.92-1.503-3.091l-14.977 9.985c-.541-.811-.692-1.387-.298-.375.224.576.537 1.435.94 2.588.799 2.29 1.866 5.502 3.127 9.43 2.518 7.844 5.759 18.381 9.094 29.776l17.275-5.055z" fill="#fff" mask="url(#a)"/></g><mask id="b" maskUnits="userSpaceOnUse" x="13" y="13" width="402" height="1007" fill="#000"><path fill="#fff" d="M13 13h402v1007H13z"/><path fill-rule="evenodd" clip-rule="evenodd" d="M149.282 33.67a179.875 179.875 0 00-3.873 3.641c-9.525 6.187-20.286 21.363-26.467 31.96-6.004 10.292 3.418 29.222 10.953 44.361 2.939 5.904 5.59 11.231 6.928 15.244 2.384 7.153 3.576 11.921 5.216 18.478 1.639 6.556 3.725 14.901 7.897 29.206 4.577 15.691 8.078 26.363 16.442 33.862-4.219 4.868-12.976 15.284-22.291 28.233-7.504 2.06-42.349 14.92-56.14 78.573-6.578 30.361-9.935 48.693-12.257 61.38-3.15 17.201-4.398 24.022-9.2 36.372-8.346 21.457-17.882 147.82-4.77 160.933 3.09 1.029 6.573-.115 10.736-2.124 1.432.141 3.23.306 5.283.469a66.92 66.92 0 00-1.713 1.656c-4.054 4.053-2.742 29.325-.835 36.478a1.167 1.167 0 001.476.843c-3.242 5.948-9.372 20.557-3.61 38.273-3.964 2.675-12.496 12.153-21.195 21.816-10.757 11.95-21.77 24.183-24.712 24.183-7.153 0-4.768 8.345-4.768 8.345s41.723 83.447 58.412 67.95c1.697-1.576 3.604-3.362 5.674-5.3l.003-.003.067-.063.008-.007.047-.044.018-.017.002-.002.008-.008.002-.001c4.275-4.004 9.235-8.65 14.478-13.447 10.289 3.589 25.173 6.332 39.298 5.659 7.981-.38 15.476 2.632 22.488 7.028 2.147 14.228 4.397 32.916 3.738 45.424-.564 10.732 3.956 21.731 8.742 33.379 5.315 12.935 10.959 26.669 10.332 41.723-1.192 28.611 3.576 78.679 15.497 91.792 9.544 10.498 45.067 1.13 63.136-3.635 1.395-.368 2.686-.708 3.852-1.01 5.36 8.377 15.031 19.548 20.035 23.718 7.153 5.962 47.684-8.344 54.837-15.497 5.235-5.235-2.302-51.978-7.187-82.274-1.789-11.097-3.222-19.987-3.542-23.823-.882-10.585 2.152-27.045 4.756-41.168v-.002c.915-4.963 1.777-9.637 2.397-13.666.614-3.995-1.939-15.117-6.069-29.428 9.923-4.106 18.25-7.408 21.566-7.408 10.729 0-7.153-104.905-10.729-120.402-.336-1.454-.805-5.994-1.381-13.029 4.069-.104 8.674-.65 13.46-1.436.827 18.469 4.61 103.213 4.61 108.522 0 2.98 1.788 19.074 3.576 35.167s3.576 32.186 3.576 35.167c0 2.844 1.358 19.261 2.777 36.426v.004l.001.005c1.554 18.804 3.183 38.504 3.183 42.243 0 2.586.779 11.714 1.717 22.711 1.658 19.424 3.813 44.679 3.051 50.007-1.192 8.345 5.961 27.423 13.113 29.803 5.249 1.75-2.984-84.455-7.738-134.233v-.003c-1.724-18.051-2.99-31.312-2.99-33.85 0-9.537-8.345-114.442-8.345-114.442v-80.839c2.255-.507 4.46-1.016 6.577-1.504h.001c8.222-1.897 15.116-3.487 18.456-3.487 11.921 0 5.96-141.86 3.576-189.544s-16.689-107.289-16.689-107.289-30.995-89.407-44.108-102.52c-8.586-8.586-40.329-19.008-51.572-22.51-1.79-1.877-3.463-3.6-4.969-5.151-2.241-2.308-4.112-4.234-5.447-5.718-1.505-1.672-3.174-2.148-4.929-1.661-.053-1.311-.306-2.035-.793-2.035-.287.007-.624.033-1.004.076 2.834-1.699 5.451-3.445 7.799-5.202 8.702-6.557 11.563-18.239 7.271-28.134-1.066-2.455-2.071-5.016-3.067-7.554v-.001c-2.678-6.824-5.291-13.482-8.854-17.479-.583-.653-1.111-1.058-1.602-1.255-.494-2.654-.782-5.751-.782-9.473 0-6.987-.339-13.044-1.016-19.094l.036-.029.033-.028c.209-.141.366-.308.466-.503.291-.403.362-.731.362-.731s-.91-10.238-2.619-10.601a352.25 352.25 0 00-1.206-6.555c5.861.566 7.639-2.99 7.639-2.99s2.384-5.961-5.96-7.153a31.78 31.78 0 00-3.793-.328c-.508-2.44-1.047-5.007-1.618-7.724l-.001-.002-.006-.031-.002-.009c-.511-2.434-1.048-4.99-1.611-7.686 2.002-.163 3.089-1.575 2.381-5.082-2.622-13.47-11.921-34.213-29.206-39.577-16.429-5.099-66.995-14.828-87.319 4.69zm88.035 345.943c-.173 7.756-.261 15.871-.277 24.232.132-8.256.234-16.558.277-24.232zm4.468 178.148l.182 3.404c.002-1.091.005-2.18.01-3.265a.605.605 0 01-.192-.139zM120.134 562.8c.961.262 1.849.473 2.668.635.051 8.941-.047 18.849-.141 28.429-.073 7.349-.143 14.505-.143 20.885 0 3.223-.523 7.581-1.439 12.757-2.966-5.306-5.109-8.878-5.714-9.18-.392-.196-1.042-1.07-1.955-2.297-1.604-2.153-4.019-5.397-7.273-7.981 1.723-10.756.685-25.014.062-31.425 7.298-.721 12.743-2.444 12.743-5.982v-6.05c.394.065.792.135 1.192.209zm-22.545 39.318c-.137-1.822-.543-3.608-1.536-4.27-.477-.357-1.073-.119-1.43.239l-3.704 4.489c2.403-.663 4.625-.761 6.67-.458zm160.535 295.319c-2.356-24.599-4.475-46.269-4.475-46.269s5.96-30.994 2.384-60.797c-3.577-29.802-13.113-65.565-16.69-59.605-3.576 5.961 2.385 119.21 4.769 122.786.958 1.437 7.303 20.961 14.012 43.885z"/></mask><path d="M145.409 37.311l4.902 7.548.732-.475.626-.607-6.26-6.466zm3.873-3.641l6.064 6.65.086-.078.084-.081-6.234-6.491zm-30.34 35.601l7.774 4.535-7.774-4.535zm10.953 44.361l-8.057 4.01 8.057-4.01zm6.928 15.244l8.538-2.846-8.538 2.846zm5.216 18.478l-8.732 2.182 8.732-2.182zm7.897 29.206l8.64-2.52-8.64 2.52zm16.442 33.862l6.801 5.895 5.797-6.687-6.59-5.909-6.008 6.701zm-22.291 28.233l2.382 8.679 3.067-.842 1.857-2.581-7.306-5.256zm-56.14 78.573l-8.796-1.906 8.796 1.906zm-12.257 61.38l8.853 1.621-8.853-1.621zm-9.2 36.372l-8.389-3.262 8.388 3.262zm-4.77 160.933l-6.363 6.364 1.502 1.502 2.016.672 2.846-8.538zm10.736-2.124l.879-8.957-2.515-.246-2.275 1.098 3.911 8.105zm5.283.469l6.131 6.589 14.973-13.933-20.388-1.627-.716 8.971zm-1.713 1.656l-6.364-6.364 6.364 6.364zm-.835 36.478l8.731-2.183-.017-.068-.018-.068-8.696 2.319zm1.476.843l7.902 4.308 10.503-19.267-21.006 6.343 2.601 8.616zm-3.61 38.273l5.034 7.461 5.622-3.794-2.097-6.45-8.56 2.783zm-21.195 21.816l-6.689-6.022-.161.18-.152.188 7.002 5.654zm0 0l6.69 6.021.161-.179.152-.189-7.003-5.653zm-29.48 32.528l-8.654 2.473.23.804.374.748 8.05-4.025zm58.412 67.95l6.124 6.595-6.124-6.595zm5.674-5.3l-6.105-6.614-.023.022-.024.023 6.152 6.569zm.003-.003l6.104 6.613.025-.022.024-.023-6.153-6.568zm.067-.063l6.152 6.569.008-.008.008-.007-6.168-6.554zm.008-.007l-6.148-6.573-.01.009-.01.01 6.168 6.554zm.047-.044l6.148 6.572.008-.007-6.156-6.565zm.018-.017l-6.054-6.66-.051.047-.051.047 6.156 6.566zm.002-.002l6.054 6.659.033-.03.033-.031-6.12-6.598zm.008-.008l-6.054-6.659-.033.03-.034.031 6.12 6.598zm.002-.001l6.054 6.659.05-.045.048-.046-6.152-6.568zM101.1 754.91l2.964-8.498-5.075-1.77-3.965 3.628 6.076 6.64zm39.298 5.659l-.428-8.99.428 8.99zm22.488 7.028l8.899-1.343-.617-4.087-3.501-2.195-4.781 7.625zm3.738 45.424l8.988.473-8.988-.473zm8.742 33.379l-8.325 3.421 8.325-3.421zm10.332 41.723l8.992.375-8.992-.375zm15.497 91.792l-6.659 6.054 6.659-6.054zm63.136-3.635l2.295 8.703-2.295-8.703zm3.852-1.01l7.582-4.85-3.517-5.497-6.318 1.634 2.253 8.713zm20.035 23.718l-5.761 6.912 5.761-6.912zm54.837-15.497l6.364 6.364-6.364-6.364zm-7.187-82.274l-8.885 1.433 8.885-1.433zm-3.542-23.823l-8.969.748 8.969-.748zm4.756-41.168l8.851 1.631.014-.076.012-.076-8.877-1.479zm0-.002l-8.851-1.632-.014.076-.012.076 8.877 1.48zm2.397-13.666l-8.896-1.369 8.896 1.369zm-6.069-29.428l-3.441-8.316-7.437 3.077 2.231 7.734 8.647-2.495zm10.837-127.81l8.769-2.024-8.769 2.024zm-1.381-13.029l-.229-8.997-9.518.242.777 9.489 8.97-.734zm13.46-1.436l8.991-.402-.453-10.12-9.996 1.641 1.458 8.881zm8.186 143.689l-8.945.994 8.945-.994zm6.353 71.593l8.98-.598-.005-.072-.006-.071-8.969.741zm0 .003l8.983-.561-.001-.019-.002-.019-8.98.599zm0 .001l-8.982.562.004.064.005.065 8.973-.691zm.001.005l-8.974.69.002.026.002.026 8.97-.742zm4.9 64.954l-8.967.765 8.967-.765zm3.051 50.007l-8.909-1.273 8.909 1.273zm13.113 29.803l2.847-8.54h-.001l-2.846 8.54zm-7.738-134.233l-8.973.69.006.083.008.083 8.959-.856zm0-.003l8.974-.69-.007-.083-.008-.082-8.959.855zm-11.335-148.292h-9v.358l.028.356 8.972-.714zm0-80.839l-1.975-8.781-7.025 1.58v7.201h9zm6.577-1.504l-1.368-8.896-.33.051-.325.075 2.023 8.77zm.001 0l1.369 8.895.329-.051.325-.075-2.023-8.769zm5.343-300.32l8.751-2.1-.103-.43-.145-.418-8.503 2.948zm-44.108-102.52l-6.364 6.364 6.364-6.364zm-51.572-22.51l-6.512 6.212 1.609 1.688 2.227.693 2.676-8.593zm-4.969-5.151l6.457-6.269-6.457 6.269zm-5.447-5.718l-6.69 6.021 6.69-6.021zm-4.929-1.661l-8.992.367.462 11.34 10.937-3.035-2.407-8.672zm-.793-2.035v-9h-.108l-.107.003.215 8.997zm-1.004.076l-4.629-7.718 5.639 16.661-1.01-8.943zm7.799-5.202l5.392 7.206.012-.009.011-.009-5.415-7.188zm7.271-28.134l8.257-3.581-.001-.003-8.256 3.584zm-3.067-7.554l8.378-3.288-.059-.151-.065-.15-8.254 3.589zm0-.001l-8.378 3.288.059.151.065.149 8.254-3.588zm-8.854-17.479l6.719-5.988-.009-.01-6.71 5.998zm-1.602-1.255l-8.847 1.649.905 4.859 4.586 1.843 3.356-8.351zm-1.798-28.567l-5.659-6.998-3.833 3.1.548 4.899 8.944-1.001zm.036-.029l5.759 6.917.001-.002-5.76-6.915zm.033-.028l-5.034-7.461-.431.291-.395.339 5.86 6.831zm.466-.503l-7.292-5.275-.41.567-.318.623 8.02 4.085zm.362-.731l8.8 1.885.285-1.328-.121-1.354-8.964.797zm-2.619-10.601l-8.869 1.535 1.039 6.003 5.959 1.266 1.871-8.804zm-1.206-6.555l.865-8.958-11.985-1.158 2.283 11.822 8.837-1.706zm7.639-2.99l8.05 4.024.167-.335.139-.347-8.356-3.343zm-5.96-7.153l-1.273 8.91 1.273-8.91zm-3.793-.328l-8.812 1.831 1.457 7.01 7.157.157.198-8.998zm-1.618-7.724l-8.811 1.835.002.008.001.008 8.808-1.851zm-.001-.002l8.811-1.836-.002-.01-.002-.009-8.807 1.855zm-.006-.031l8.807-1.855-.002-.008-.002-.008-8.803 1.87zm-.002-.009l-8.807 1.851.002.01.002.01 8.803-1.87zm-1.611-7.686l-.732-8.97-10.161.829 2.083 9.98 8.81-1.839zm2.381-5.082l-8.834 1.72.006.03.006.03 8.822-1.78zM236.601 28.98l-2.668 8.595 2.668-8.595zm.716 350.634l9 .05-17.997-.251 8.997.201zm-.277 24.232l-9-.017 17.998.162-8.998-.145zm4.745 153.916l6.49-6.236-16.756-17.437 1.279 24.149 8.987-.476zm.182 3.404l-8.987.483 17.987-.467-9-.016zm.01-3.265l9 .041.028-6.023-5.557-2.322-3.471 8.304zm-119.175 5.535l8.999-.052-.042-7.352-7.213-1.426-1.744 8.83zm-2.668-.635l2.368-8.683-.362-.099-.368-.068-1.638 8.85zm2.527 29.064l-9-.089 9 .089zm-1.582 33.642l-7.855 4.392 12.318 22.035 4.4-24.858-8.863-1.569zm-5.714-9.18l-4.025 8.049v.001l4.025-8.05zm-1.955-2.297l-7.22 5.375h.001l7.219-5.375zm-7.273-7.981l-8.887-1.424-.834 5.2 4.125 3.274 5.596-7.05zm.062-31.425l-.884-8.957-8.944.883.87 8.945 8.958-.871zm12.743-12.032l1.469-8.88-10.469-1.732v10.612h9zm-22.89 35.257l-5.4 7.2.2.15.209.139 4.992-7.489zm1.537 4.27l-1.32 8.903 11.143 1.651-.848-11.232-8.975.678zm-2.967-4.031l-6.364-6.364-.304.304-.274.332 6.942 5.728zm-3.703 4.489l-6.942-5.728-18.135 21.982 27.47-7.579-2.393-8.675zm162.73 248.592l-8.839-1.699-.246 1.279.127 1.297 8.958-.877zm4.475 46.269l-8.638 2.527 17.597-3.385-8.959.858zm-18.781-166.671l7.718 4.631-7.718-4.631zm4.769 122.786l7.488-4.992-7.488 4.992zM151.669 43.777a168.74 168.74 0 013.677-3.457l-12.128-13.3a187.08 187.08 0 00-4.069 3.825l12.52 12.932zm-24.953 30.029c2.913-4.995 6.916-11.08 11.268-16.59 4.47-5.66 8.812-10.074 12.327-12.357l-9.805-15.095c-6.01 3.903-11.81 10.17-16.647 16.295-4.955 6.274-9.423 13.075-12.691 18.677l15.548 9.07zm11.237 35.816c-3.841-7.716-7.745-15.603-10.044-22.746-2.487-7.722-2.069-11.57-1.193-13.07l-15.548-9.07c-5.129 8.792-3.001 19.555-.393 27.656 2.794 8.679 7.369 17.827 11.063 25.25l16.115-8.02zm7.408 16.408c-1.585-4.757-4.592-10.751-7.408-16.408l-16.115 8.02c3.061 6.15 5.357 10.81 6.447 14.08l17.076-5.692zm5.409 19.141c-1.645-6.581-2.907-11.637-5.409-19.141l-17.076 5.692c2.267 6.801 3.389 11.282 5.022 17.814l17.463-4.365zm7.806 28.869c-4.126-14.147-6.181-22.367-7.806-28.869l-17.463 4.365c1.653 6.611 3.771 15.081 7.989 29.544l17.28-5.04zm13.81 29.681c-6.132-5.498-9.092-13.505-13.81-29.681l-17.28 5.04c4.436 15.207 8.478 28.542 19.074 38.043l12.016-13.402zm-20.993 40.19c9.106-12.659 17.677-22.853 21.786-27.594l-13.602-11.79c-4.33 4.996-13.272 15.632-22.796 28.873l14.612 10.511zm-54.65 75.222c6.577-30.354 17.995-47.875 28.011-57.94 10.05-10.1 19.149-13.155 21.715-13.859l-4.764-17.358c-4.939 1.356-17.014 5.761-29.71 18.52-12.73 12.792-25.63 33.528-32.844 66.826l17.592 3.811zm-12.2 61.096c2.314-12.642 5.65-30.868 12.2-61.096l-17.592-3.811c-6.607 30.495-9.983 48.934-12.314 61.665l17.706 3.242zm-9.666 38.013c5.144-13.227 6.515-20.803 9.666-38.013l-17.706-3.242c-3.148 17.191-4.274 23.258-8.736 34.731l16.776 6.524zm-6.792 151.307c.432.432.256.468-.186-.659-.398-1.012-.838-2.516-1.265-4.591-.854-4.148-1.491-9.76-1.89-16.572-.792-13.573-.583-30.911.303-48.704.884-17.759 2.432-35.756 4.265-50.585 1.886-15.264 3.954-26.052 5.565-30.196l-16.776-6.524c-2.56 6.584-4.815 19.638-6.653 34.512-1.893 15.308-3.475 33.745-4.379 51.898-.902 18.119-1.14 36.171-.293 50.649.421 7.215 1.125 13.794 2.227 19.15.551 2.677 1.242 5.253 2.142 7.543.854 2.175 2.14 4.736 4.212 6.807l12.728-12.728zm.46-3.865c-1.893.913-3.087 1.354-3.875 1.535-.694.159-.572-.001-.103.156l-5.692 17.076c6.896 2.299 13.475-.618 17.493-2.556l-7.823-16.211zm9.91-.397a284.199 284.199 0 01-5.12-.455l-1.757 17.914c1.478.145 3.331.315 5.445.484l1.432-17.943zm3.934 16.991a56.2 56.2 0 011.481-1.431L71.608 567.67a74.507 74.507 0 00-1.946 1.88l12.727 12.728zm1.498 27.795c-.655-2.456-1.456-9.647-1.514-17.152-.028-3.637.125-6.926.461-9.384.17-1.239.355-2.032.489-2.453.203-.636.088.173-.933 1.194L69.662 569.55c-2.035 2.034-2.996 4.519-3.49 6.068-.562 1.765-.924 3.668-1.172 5.48-.498 3.644-.658 7.88-.627 11.962.062 7.933.87 16.954 2.122 21.651l17.392-4.638zm-9.821-5.454c3.845-1.161 8.668.837 9.856 5.59l-17.462 4.366c1.543 6.171 7.774 8.796 12.809 7.276l-5.203-17.232zm7.55 44.106c-4.672-14.365.276-26.271 2.953-31.182l-15.804-8.616c-3.808 6.985-11.119 24.297-4.267 45.365l17.117-5.567zm-23.065 30.62c4.374-4.858 8.594-9.545 12.21-13.351 3.856-4.06 6.308-6.336 7.33-7.025l-10.068-14.921c-2.942 1.984-6.737 5.785-10.313 9.549-3.816 4.017-8.211 8.9-12.537 13.705l13.378 12.043zm.314-.368L44.86 667.67v.001l14.005 11.306zm-31.715 27.53c2.947 0 5.233-1.32 6.054-1.806 1.172-.695 2.29-1.546 3.268-2.353 1.98-1.636 4.23-3.805 6.528-6.148 4.63-4.72 10.217-10.928 15.551-16.855l-13.378-12.042c-5.422 6.024-10.721 11.907-15.022 16.291-2.166 2.209-3.895 3.846-5.143 4.877-.297.245-.535.429-.716.562-.187.136-.272.187-.265.183a4.535 4.535 0 01.587-.268c.337-.127 1.25-.441 2.536-.441v18zm-4.768-.655c8.653-2.472 8.654-2.469 8.655-2.466l.002.007.003.012.007.023.01.039.014.05.001.005a3.344 3.344 0 01-.044-.246c-.045-.316-.021-.433-.037-.323-.012.084-.168 1.149-1.242 2.222a4.907 4.907 0 01-1.748 1.136c-.543.2-.878.196-.853.196v-18c-3.635 0-7.31 1.123-10.127 3.94-2.638 2.639-3.539 5.789-3.85 7.96-.313 2.196-.14 4.165.038 5.414A21.379 21.379 0 0013.64 708l.05.19.02.074.01.032a.42.42 0 01.004.015l.002.007c0 .003.002.007 8.655-2.466zm52.288 61.355c.61-.566 1.565-.451 1.343-.516-.815-.237-2.608-1.171-5.36-3.652-5.374-4.847-11.643-13.031-17.817-22.366-6.074-9.183-11.68-18.898-15.79-26.364a459.992 459.992 0 01-4.858-9.061 321.572 321.572 0 01-1.652-3.212l-.082-.163-.019-.038-.004-.008v-.001l-8.05 4.026c-8.05 4.025-8.049 4.026-8.048 4.028l.002.005a.14.14 0 01.008.015l.026.053.098.193.369.727c.321.63.79 1.543 1.39 2.694 1.2 2.302 2.927 5.562 5.05 9.421 4.237 7.696 10.104 17.874 16.547 27.615 6.343 9.591 13.634 19.363 20.776 25.803 3.508 3.163 7.712 6.206 12.374 7.565 5.253 1.533 11.164.866 15.945-3.574l-12.248-13.19zm5.646-5.274a2011.047 2011.047 0 01-5.646 5.274l12.248 13.19c1.714-1.592 3.636-3.391 5.702-5.326l-12.304-13.138zm.05-.047l-.003.002 12.21 13.227.002-.003-12.209-13.226zm.019-.018l-.067.062 12.306 13.137.066-.062-12.305-13.137zm-.007.007l-.009.008 12.337 13.107.008-.008-12.336-13.107zm.066-.063l-.046.044 12.296 13.145.047-.044-12.297-13.145zm.011-.01l-.018.018 12.312 13.13.018-.017-12.312-13.131zm.104-.096l-.002.002 12.108 13.319.002-.002-12.108-13.319zm-.058.054l-.008.007 12.24 13.197.008-.007-12.24-13.197zm.068-.063l-.002.002 12.108 13.319.002-.002-12.108-13.319zm14.456-13.427c-5.286 4.837-10.283 9.517-14.554 13.518l12.304 13.137c4.279-4.007 9.203-8.619 14.401-13.376l-12.15-13.279zm44.946 3.309c-12.856.612-26.589-1.917-35.906-5.167l-5.928 16.996c11.262 3.928 27.297 6.884 42.69 6.151l-.856-17.98zm27.697 8.393c-7.78-4.878-17.132-8.896-27.697-8.393l.856 17.98c5.396-.257 11.036 1.749 17.279 5.663l9.562-15.25zm7.945 53.522c.712-13.533-1.687-33.059-3.827-47.24l-17.799 2.686c2.155 14.275 4.255 32.126 3.651 43.608l17.975.946zm8.079 29.485c-5.002-12.17-8.517-21.171-8.079-29.485l-17.975-.946c-.692 13.15 4.833 26.148 9.404 37.273l16.65-6.842zm10.999 45.519c.723-17.339-5.806-32.881-10.999-45.519l-16.65 6.842c5.438 13.232 10.197 25.158 9.665 37.928l17.984.749zm13.165 85.363c-1.572-1.729-3.642-5.695-5.661-12.394-1.93-6.406-3.527-14.309-4.755-22.909-2.459-17.212-3.321-36.329-2.749-50.06l-17.984-.749c-.62 14.879.306 35.101 2.914 53.354 1.304 9.133 3.06 17.993 5.34 25.557 2.191 7.271 5.187 14.481 9.576 19.309l13.319-12.108zm54.181-6.283c-9.125 2.406-21.974 5.782-33.646 7.32-5.852.772-10.956 1.015-14.899.598-4.227-.447-5.494-1.479-5.636-1.635l-13.319 12.108c4.63 5.093 11.382 6.827 17.064 7.427 5.966.631 12.662.202 19.142-.652 12.992-1.712 26.939-5.403 35.884-7.761l-4.59-17.405zm3.894-1.021c-1.192.308-2.505.654-3.894 1.021l4.59 17.405c1.4-.37 2.669-.704 3.811-.999l-4.507-17.427zm28.05 25.517c-4.143-3.452-13.234-13.868-18.215-21.654l-15.163 9.7c5.737 8.968 15.99 20.89 21.855 25.78l11.523-13.826zm42.711-14.947c.006-.006-.159.154-.599.47-.421.302-.99.673-1.721 1.103-1.468.865-3.376 1.846-5.646 2.887-4.536 2.079-10.137 4.219-15.773 5.98-5.68 1.775-11.08 3.066-15.27 3.59-2.112.264-3.606.292-4.527.208-1.179-.108-.382-.296.825.709l-11.523 13.826c2.995 2.5 6.623 3.17 9.058 3.39 2.693.25 5.594.08 8.4-.27 5.645-.71 12.165-2.32 18.406-4.27 6.286-1.97 12.606-4.37 17.904-6.8 4.88-2.237 10.136-5.037 13.194-8.095l-12.728-12.728zm-9.708-74.477c2.451 15.199 5.519 34.242 7.332 50.122.909 7.969 1.47 14.877 1.513 19.991.021 2.582-.094 4.406-.272 5.552-.089.57-.159.743-.126.653.003-.007.294-.874 1.261-1.841l12.728 12.728c1.621-1.621 2.467-3.467 2.932-4.749.495-1.364.795-2.761.992-4.03.393-2.531.509-5.454.484-8.464-.051-6.07-.698-13.722-1.629-21.881-1.868-16.373-5.01-35.85-7.444-50.947l-17.771 2.866zm-3.626-24.508c.357 4.282 1.878 13.666 3.626 24.508l17.771-2.866c-1.831-11.352-3.177-19.748-3.459-23.137l-17.938 1.495zm4.874-43.548c-1.294 7.02-2.745 14.882-3.753 22.337-.993 7.347-1.647 14.905-1.121 21.211l17.938-1.495c-.357-4.279.066-10.244 1.021-17.305.939-6.951 2.307-14.381 3.617-21.485l-17.702-3.263zm-.027.151v.001l17.755 2.959.001-.001-17.756-2.959zm.001-.001l-.001.001 17.756 2.959-17.755-2.96zm2.378-13.555c-.595 3.871-1.43 8.402-2.352 13.403l17.702 3.264c.908-4.924 1.796-9.741 2.441-13.929l-17.791-2.738zm-5.82-25.564c2.04 7.068 3.644 13.194 4.657 17.959.508 2.388.84 4.309 1.013 5.766.194 1.631.112 2.086.15 1.839l17.791 2.738c.345-2.244.174-4.678-.067-6.703-.261-2.199-.71-4.702-1.28-7.383-1.143-5.372-2.88-11.964-4.969-19.206l-17.295 4.99zm30.213-18.903c-2.04 0-4.106.461-5.692.884-1.742.464-3.665 1.097-5.649 1.808-3.967 1.421-8.715 3.352-13.666 5.4l6.882 16.632c4.973-2.057 9.349-3.831 12.855-5.087 1.753-.628 3.153-1.078 4.215-1.361 1.219-.325 1.437-.276 1.055-.276v-18zm-19.499-109.378c1.695 7.343 7.014 37.118 10.57 65.122 1.779 14.006 3.071 27.228 3.284 36.822.108 4.892-.081 8.305-.442 10.275-.195 1.065-.315.973.031.389.409-.691 2.305-3.23 6.056-3.23v18c5.092 0 8.105-3.359 9.429-5.594 1.261-2.128 1.854-4.489 2.19-6.323.701-3.828.846-8.731.731-13.916-.234-10.56-1.624-24.533-3.422-38.69-3.596-28.322-9.006-58.749-10.888-66.903l-17.539 4.048zm-1.581-14.319c.546 6.678 1.06 12.059 1.581 14.319l17.539-4.048c.014.06-.034-.156-.127-.844a85.493 85.493 0 01-.292-2.497 377.138 377.138 0 01-.761-8.398l-17.94 1.468zm20.972-11.051c-4.58.752-8.736 1.231-12.231 1.32l.457 17.994c4.645-.118 9.698-.732 14.69-1.551l-2.916-17.763zm15.068 117.403c0-5.577-3.802-90.692-4.619-108.924l-17.982.805c.838 18.704 4.601 103.078 4.601 108.119h18zm3.521 34.173c-.895-8.056-1.785-16.071-2.452-22.444a578.43 578.43 0 01-.798-8.045 128.225 128.225 0 01-.212-2.599 44.09 44.09 0 01-.049-.802c-.01-.215-.01-.296-.01-.283h-18c0 2.091.527 7.49 1.166 13.603.675 6.442 1.572 14.521 2.465 22.558l17.89-1.988zm3.631 36.161c0-2.092-.526-7.491-1.166-13.603-.674-6.442-1.572-14.521-2.465-22.558l-17.89 1.988c.895 8.056 1.786 16.071 2.453 22.443.333 3.189.607 5.932.797 8.045.095 1.058.166 1.928.213 2.6.023.335.039.6.048.801.01.216.01.297.01.284h18zm2.746 35.685c-.71-8.59-1.402-16.963-1.917-23.544a847.836 847.836 0 01-.615-8.272 196.417 196.417 0 01-.165-2.667 57.513 57.513 0 01-.039-.843l-.008-.258-.001-.074v-.02l-.001-.007h-18c0 3.336 1.421 20.393 2.808 37.168l17.938-1.483zm.011.145v-.002l-17.96 1.197v.003l17.96-1.198zm.003.039v-.001l-17.965 1.122v.002l17.965-1.123zm-.009-.124v-.005l-17.947 1.381v.004l17.947-1.38zm3.21 42.933c0-4.23-1.691-24.559-3.214-42.984l-17.939 1.483c1.586 19.182 3.153 38.254 3.153 41.501h18zm1.685 21.946c-.969-11.349-1.685-19.865-1.685-21.946h-18c0 3.09.841 12.83 1.75 23.476l17.935-1.53zm2.993 52.045c.322-2.258.278-5.641.162-8.921-.126-3.569-.384-7.948-.712-12.691-.656-9.494-1.616-20.74-2.443-30.434l-17.935 1.531c.83 9.731 1.776 20.824 2.421 30.145.323 4.665.565 8.813.68 12.085.058 1.638.082 2.994.073 4.053-.004.527-.017.942-.034 1.255-.017.333-.035.456-.031.431l17.819 2.546zm7.049 19.99c.883.3.476.49-.83-1.28-1.112-1.515-2.312-3.699-3.388-6.294-1.063-2.565-1.892-5.257-2.384-7.654-.521-2.544-.535-4.144-.447-4.762l-17.819-2.546c-.508 3.554-.075 7.468.633 10.922.738 3.601 1.92 7.39 3.39 10.934 1.457 3.52 3.312 7.07 5.515 10.06 2.01 2.74 5.179 6.21 9.638 7.7l5.692-17.08zm-19.543-124.837c2.38 24.915 5.616 58.802 7.603 86.234.996 13.746 1.665 25.69 1.769 34.02.053 4.243-.047 7.173-.244 8.853-.116.99-.188.81.086.15.108-.26.685-1.66 2.231-2.93 2.087-1.71 5.133-2.48 8.099-1.49l-5.693 17.08c3.294 1.1 6.642.27 9.005-1.67 1.822-1.49 2.651-3.29 2.986-4.1.727-1.75 1.012-3.65 1.164-4.95.339-2.89.419-6.79.365-11.169-.112-8.897-.815-21.287-1.815-35.095-2.005-27.677-5.263-61.782-7.637-86.645l-17.919 1.712zm-.014-.168v.002l17.947-1.38v-.003l-17.947 1.381zm-3.017-34.541c0 1.788.376 6.282.885 11.917a5065.94 5065.94 0 002.146 22.789l17.918-1.711c-.863-9.035-1.608-16.837-2.137-22.697a588.611 588.611 0 01-.614-7.171c-.071-.914-.123-1.651-.156-2.217a37.065 37.065 0 01-.035-.672c-.007-.178-.007-.247-.007-.238h-18zm.655-114.442l-8.972.715.001.004.001.014.004.057.018.224.07.878.264 3.344a17933.508 17933.508 0 013.812 49.092c2.11 27.733 4.147 55.795 4.147 60.114h18c0-5.219-2.137-34.377-4.199-61.48a16206.923 16206.923 0 00-3.816-49.144l-.265-3.349-.069-.88-.018-.226-.005-.057-.001-.014v-.004l-8.972.712zm-9-80.839v80.839h18v-80.839h-18zm13.554-10.274c-2.12.489-4.302.992-6.529 1.493l3.949 17.562c2.283-.514 4.512-1.028 6.626-1.516l-4.046-17.539zm.656-.126h-.001l2.737 17.791h.001l-2.737-17.791zm19.824-3.591c-2.675 0-6.046.583-9.164 1.207-3.325.666-7.245 1.571-11.315 2.51l4.046 17.539c4.152-.957 7.79-1.796 10.804-2.399 3.219-.645 4.964-.857 5.629-.857v-18zm-5.413-180.094c1.191 23.808 3.269 71.04 3.566 112.268.148 20.656-.153 39.571-1.203 53.225-.531 6.9-1.224 12.033-2.017 15.27-.415 1.693-.717 2.261-.683 2.204.028-.049.374-.656 1.203-1.317a7.32 7.32 0 014.547-1.556v18c5.762 0 8.777-4.301 9.812-6.083 1.254-2.158 2.045-4.685 2.603-6.964 1.154-4.708 1.932-11.029 2.482-18.174 1.11-14.435 1.405-33.965 1.255-54.734-.299-41.623-2.393-89.163-3.587-113.038l-17.978.899zm-7.7-107.739l-8.752 2.1v.001l.002.006.006.027.029.119.115.488c.102.434.253 1.083.448 1.929a646.14 646.14 0 011.63 7.303 853.825 853.825 0 015.124 25.434c3.848 20.719 7.936 47.084 9.098 70.332l17.978-.899c-1.222-24.436-5.478-51.717-9.379-72.72a871.791 871.791 0 00-5.233-25.975 667.676 667.676 0 00-1.675-7.505 415.741 415.741 0 00-.636-2.724l-.002-.011-.001-.003c0-.001-.001-.002-8.752 2.098zm-50.472-96.156c.732.731 2.159 2.662 4.2 6.253 1.934 3.404 4.105 7.729 6.426 12.725 4.636 9.981 9.662 22.19 14.328 34.115 4.658 11.902 8.914 23.412 12.008 31.954 1.546 4.268 2.8 7.79 3.667 10.241.433 1.226.769 2.183.996 2.833l.258.738.065.186.016.046.003.011.001.002 8.504-2.948 8.503-2.949-.001-.004-.005-.014a23.776 23.776 0 01-.087-.249l-.266-.763a1464.129 1464.129 0 00-4.73-13.261c-3.127-8.631-7.439-20.293-12.169-32.382-4.722-12.065-9.903-24.667-14.766-35.138-2.43-5.23-4.831-10.041-7.102-14.037-2.164-3.808-4.574-7.54-7.121-10.087l-12.728 12.728zm-47.884-20.281c5.535 1.724 16.039 5.128 26.15 9.125 5.062 2.001 9.889 4.097 13.887 6.151 4.2 2.157 6.741 3.898 7.847 5.005l12.728-12.728c-3.186-3.186-7.832-5.968-12.351-8.288-4.72-2.425-10.142-4.764-15.494-6.879-10.717-4.237-21.707-7.794-27.415-9.572l-5.352 17.186zm-8.751-7.475c1.509 1.554 3.156 3.25 4.915 5.094l13.024-12.424a799.86 799.86 0 00-5.024-5.208l-12.915 12.538zm-5.679-5.966c1.477 1.64 3.489 3.71 5.679 5.966l12.915-12.538c-2.291-2.36-4.02-4.143-5.214-5.47l-13.38 12.042zm4.168.99c-.625.173-1.583.247-2.622-.089-.985-.319-1.475-.823-1.546-.901l13.38-12.042c-1.576-1.75-3.653-3.328-6.288-4.181-2.688-.871-5.358-.792-7.737-.132l4.813 17.345zm-3.2-1.707a8.547 8.547 0 01-5.874-2.338 7.994 7.994 0 01-1.982-2.945c-.391-1.031-.358-1.688-.343-1.315l17.985-.734c-.039-.938-.159-2.612-.812-4.333-.567-1.497-2.991-6.335-8.974-6.335v18zm.006.019c.099-.011.167-.017.208-.02.042-.003.04-.002 0-.001l-.429-17.995c-.636.015-1.253.068-1.798.13l2.019 17.886zm1.396-21.351c-2.073 1.552-4.432 3.128-7.035 4.69l9.259 15.436c3.063-1.837 5.939-3.752 8.561-5.714l-10.785-14.412zm4.408-17.346c2.69 6.202.844 13.389-4.431 17.364l10.831 14.376c12.13-9.139 16.006-25.316 10.113-38.903l-16.513 7.163zm-3.189-7.848c.985 2.51 2.049 5.223 3.19 7.851l16.511-7.169c-.992-2.283-1.938-4.692-2.945-7.258l-16.756 6.576zm.124.299v.001l16.508-7.177-.001-.001-16.507 7.177zm-7.318-15.078c.944 1.059 2.054 2.83 3.347 5.552 1.274 2.682 2.481 5.747 3.847 9.226l16.756-6.576c-1.313-3.345-2.751-7.021-4.344-10.373-1.573-3.312-3.55-6.868-6.169-9.806l-13.437 11.977zm1.76 1.107a5.849 5.849 0 01-1.41-.796c-.251-.195-.362-.325-.341-.301l13.419-11.997c-1.048-1.173-2.668-2.688-4.955-3.607l-6.713 16.701zm-6.426-17.824c0 4.185.324 7.843.935 11.122l17.695-3.297c-.378-2.029-.63-4.567-.63-7.825h-18zm-.96-18.093c.638 5.695.96 11.416.96 18.093h18c0-7.298-.355-13.69-1.071-20.094l-17.889 2.001zm3.222-7.947l.063-.052 11.319 13.996.135-.11-11.517-13.834zm-.069.058l.068-.057 11.519 13.831.133-.112-11.72-13.662zm-1.694 2.243a7.666 7.666 0 012.52-2.873l10.068 14.922a10.356 10.356 0 003.451-3.879l-16.039-8.17zm8.382 3.354c-8.801-1.886-8.8-1.888-8.8-1.891l.002-.005.002-.01.004-.021.009-.041.019-.081.04-.163a7.72 7.72 0 01.318-.973c.178-.434.419-.899.752-1.359l14.584 10.549a11.502 11.502 0 001.332-2.392 10.823 10.823 0 00.499-1.556l.02-.088a.639.639 0 00.01-.042l.004-.021.003-.01.001-.005c0-.003.001-.006-8.799-1.891zm-4.49-1.797a8.346 8.346 0 01-3.997-2.081 7.252 7.252 0 01-1.251-1.539c-.321-.538-.393-.849-.318-.615.125.388.315 1.197.513 2.37a61.65 61.65 0 01.545 4.122l.027.27.005.061a.051.051 0 01.001.01v-.002-.001l8.965-.798c8.964-.797 8.964-.798 8.964-.799v-.001-.005l-.001-.011-.004-.034a3.406 3.406 0 00-.01-.111l-.037-.38a85.663 85.663 0 00-.707-5.326c-.243-1.431-.601-3.25-1.128-4.884-.25-.777-.673-1.947-1.372-3.114-.415-.694-2.326-3.862-6.454-4.74l-3.741 17.608zm-8.172-13.653c.43 2.227.821 4.342 1.174 6.384l17.737-3.07a351.73 351.73 0 00-1.237-6.727l-17.674 3.413zm16.476-4.697c-8.05-4.025-8.047-4.03-8.044-4.035l.005-.011.011-.022a5.51 5.51 0 01.021-.042l.043-.081a6.048 6.048 0 01.244-.425c.104-.168.206-.313.308-.44.203-.256.42-.464.653-.626.625-.434.854-.202-.015-.285l-1.73 17.916c4.992.482 9.041-.78 12.02-2.852a14.91 14.91 0 003.157-2.946 13.19 13.19 0 001.165-1.726c.042-.075.081-.146.116-.213l.05-.097.024-.046.011-.022.006-.011c.002-.005.005-.011-8.045-4.036zm-7.233 1.757c1.035.148.863.324.257-.14-.723-.553-1.299-1.427-1.558-2.378-.216-.793-.148-1.38-.109-1.622a4.078 4.078 0 01.226-.803l.029-.076.016-.04.008-.02a.065.065 0 01.004-.01c.002-.005.004-.01 8.36 3.332 8.356 3.343 8.359 3.338 8.361 3.332l.004-.01a2.458 2.458 0 00.027-.069l.038-.1a12.911 12.911 0 00.287-.859c.139-.47.293-1.084.41-1.81.226-1.396.368-3.55-.295-5.981-.706-2.59-2.25-5.178-4.874-7.184-2.505-1.916-5.508-2.933-8.646-3.38l-2.545 17.818zm-2.718-.24c.721.016 1.615.083 2.718.24l2.545-17.819a40.683 40.683 0 00-4.868-.416l-.395 17.996zm-10.228-14.87c.572 2.72 1.109 5.275 1.614 7.704l17.623-3.663c-.51-2.452-1.051-5.028-1.621-7.743l-17.616 3.702zm-.003-.018v.002l17.622-3.67-.001-.003-17.621 3.671zm-.003-.012l.007.031 17.613-3.709-.006-.03-17.614 3.708zm.002.008l.002.009 17.606-3.742-.002-.009-17.606 3.742zm-1.618-7.719a4514.51 4514.51 0 001.614 7.7l17.615-3.703c-.512-2.434-1.048-4.984-1.609-7.673l-17.62 3.676zm2.369-5.14c.203 1.004-.324-.291.709-2.225a6.763 6.763 0 012.626-2.682c1.03-.58 1.924-.725 2.374-.761l1.464 17.94c3.08-.251 7.132-1.746 9.413-6.017 1.9-3.557 1.564-7.311 1.059-9.815l-17.645 3.56zm-23.052-32.762c5.896 1.83 11.034 6.496 15.184 12.996 4.124 6.461 6.731 13.925 7.856 19.706l17.668-3.44c-1.497-7.689-4.85-17.332-10.352-25.951-5.477-8.58-13.631-16.967-25.02-20.502l-5.336 17.191zm-78.417 2.587c3.485-3.347 8.725-5.85 15.634-7.392 6.862-1.531 14.778-1.98 22.923-1.682 16.336.596 32.296 4.14 39.86 6.487l5.336-17.191c-8.865-2.751-26.403-6.622-44.538-7.284-9.091-.333-18.653.127-27.502 2.102-8.802 1.965-17.504 5.565-24.181 11.977l12.468 12.983zm72.804 339.251c-.175 7.827-.264 16.003-.28 24.416l18 .035c.016-8.311.104-16.364.275-24.049l-17.995-.402zm17.718 24.578c.133-8.277.236-16.611.279-24.327l-17.999-.1c-.043 7.633-.145 15.902-.277 24.138l17.997.289zm-13.24 154.247l.182 3.411 17.974-.965-.181-3.398-17.975.952zm18.169 2.944c.002-1.082.005-2.163.01-3.24l-18-.083c-.005 1.094-.008 2.191-.01 3.291l18 .032zm-5.519-11.585a8.411 8.411 0 012.827 1.929l-12.979 12.472c.708.737 1.76 1.6 3.211 2.206l6.941-16.607zm-120.902 5.009a30.126 30.126 0 01-2.044-.488l-4.737 17.366c1.133.309 2.231.571 3.292.781l3.489-17.659zm7.114 37.348c.095-9.564.193-19.545.141-28.57l-17.999.103c.05 8.858-.046 18.692-.141 28.289l17.999.178zm-.142 20.796c0-6.327.07-13.436.142-20.796l-17.999-.178c-.072 7.337-.143 14.541-.143 20.974h18zm-1.576 14.326c.943-5.333 1.576-10.306 1.576-14.326h-18c0 2.427-.413 6.169-1.301 11.189l17.725 3.137zm-18.602-2.699a8.38 8.38 0 01-1.819-1.226 6.825 6.825 0 01-.573-.568c-.168-.189-.227-.28-.149-.173.142.197.426.622.875 1.351.879 1.427 2.081 3.511 3.55 6.138l15.711-8.784c-1.498-2.679-2.851-5.034-3.936-6.796a41.785 41.785 0 00-1.606-2.445 15.94 15.94 0 00-1.016-1.277c-.172-.192-1.246-1.45-2.987-2.32l-8.05 16.1zm-5.149-4.972c.407.547.945 1.274 1.44 1.876.253.308.624.742 1.071 1.183.34.336 1.259 1.223 2.638 1.912l8.051-16.099a8.088 8.088 0 011.39.88c.272.214.463.396.563.494.186.184.263.286.191.199a16.194 16.194 0 01-.322-.414c-.165-.216-.349-.464-.584-.78l-14.438 10.749zm-5.65-6.306c2.217 1.759 4.002 4.092 5.649 6.306l14.439-10.749c-1.559-2.094-4.604-6.248-8.897-9.656l-11.191 14.099zm-3.3-37.604c.623 6.405 1.531 19.631.009 29.13l17.773 2.849c1.925-12.013.758-27.303.134-33.721l-17.916 1.742zm12.701-6.853c0-.746.15-1.522.458-2.251.3-.712.683-1.226.992-1.557.549-.59.888-.636.405-.431-.423.179-1.179.424-2.353.667-1.147.237-2.529.44-4.129.597l1.768 17.913c3.923-.387 8.193-1.103 11.735-2.603 3.153-1.336 9.124-4.883 9.124-12.335h-18zm0-6.05v6.05h18v-6.05h-18zm11.83-8.641a76.268 76.268 0 00-1.361-.239l-2.938 17.759c.337.056.678.116 1.022.179l3.277-17.699zm-30.711 51.387a6.802 6.802 0 01-2.01-2.043 4.556 4.556 0 01-.479-.997c-.06-.185 0-.063.043.499l17.949-1.356c-.095-1.261-.307-2.942-.852-4.641-.472-1.47-1.649-4.427-4.667-6.439l-9.984 14.977zm9.925-.886a7.556 7.556 0 01-3.632 2.009 8.114 8.114 0 01-6.701-1.412l10.8-14.4c-2.719-2.039-5.827-2.273-8.222-1.709a10.443 10.443 0 00-4.972 2.784l12.727 12.728zm-3.125 3.852l3.704-4.489-13.885-11.455-3.703 4.489 13.884 11.455zm1.048-15.088c-3.302-.489-6.789-.307-10.383.685l4.787 17.351c1.21-.334 2.168-.347 2.957-.23l2.639-17.806zm154.74 257.953l-8.958.877v.001l.001.002.001.012.004.047.019.186.071.729.272 2.79.986 10.136c.824 8.489 1.942 20.052 3.12 32.346l17.918-1.715a26122.17 26122.17 0 00-3.122-32.371l-.987-10.143a3377.62 3377.62 0 01-.362-3.71l-.005-.047-.001-.012v-.003-.001l-8.957.876zm-6.552-59.724c1.684 14.036 1.135 28.546.122 39.687a237.86 237.86 0 01-1.597 13.401 162.158 162.158 0 01-.761 4.664l-.041.224a.56.56 0 00-.009.046l-.001.007v-.001-.001c0-.001 0-.002 8.839 1.697 8.838 1.7 8.838 1.699 8.838 1.697l.001-.003.002-.01.005-.027.016-.088.057-.307c.048-.263.116-.64.199-1.124.167-.967.396-2.361.658-4.118.524-3.512 1.18-8.491 1.72-14.427 1.073-11.807 1.716-27.696-.176-43.462l-17.872 2.145zm-.036-56.047c-.388.646-1.88 2.829-5.064 3.523a7.984 7.984 0 01-6.517-1.372c-1.24-.946-1.33-1.702-.613-.23 1.071 2.197 2.534 6.375 4.143 12.226 3.156 11.475 6.35 27.426 8.087 41.9l17.872-2.145c-1.84-15.329-5.202-32.161-8.603-44.528-1.669-6.069-3.485-11.578-5.319-15.341-.736-1.508-2.186-4.312-4.645-6.19-1.418-1.082-4.383-2.747-8.237-1.908-3.719.811-5.704 3.413-6.539 4.804l15.435 9.261zM251.6 848.56a7.88 7.88 0 01.869 1.707c.09.252.131.413.132.42.004.016-.033-.136-.101-.538-.132-.781-.295-1.989-.48-3.651-.366-3.291-.771-7.907-1.187-13.472-.83-11.106-1.682-25.693-2.35-40.381-.668-14.697-1.147-29.4-1.239-40.754-.046-5.695.007-10.429.17-13.857.082-1.729.185-2.972.291-3.772.053-.405.088-.555.081-.526-.004.02-.039.165-.12.394a7.094 7.094 0 01-.605 1.267l-15.435-9.261c-.834 1.39-1.19 2.763-1.341 3.394a23.302 23.302 0 00-.427 2.385c-.199 1.515-.332 3.32-.424 5.265-.187 3.92-.236 9.04-.189 14.856.094 11.668.584 26.618 1.257 41.426.673 14.817 1.535 29.584 2.381 40.905.422 5.649.846 10.514 1.248 14.123.199 1.789.406 3.386.621 4.66.106.626.237 1.313.403 1.968.063.247.436 1.879 1.468 3.427l14.977-9.985zm15.161 46.349c-3.373-11.528-6.659-22.215-9.231-30.223-1.283-3.998-2.401-7.369-3.271-9.86a102.842 102.842 0 00-1.156-3.175c-.164-.42-.723-1.92-1.503-3.091l-14.977 9.985c-.541-.811-.692-1.387-.298-.375.224.576.537 1.435.94 2.588.799 2.29 1.866 5.502 3.127 9.43 2.518 7.844 5.759 18.381 9.094 29.776l17.275-5.055z" fill="#fff" mask="url(#b)"/><defs><filter id="filter0_f" x="0" y="0" width="427.08" height="1032.94" filterUnits="userSpaceOnUse" color-interpolation-filters="sRGB"><feFlood flood-opacity="0" result="BackgroundImageFix"/><feBlend in="SourceGraphic" in2="BackgroundImageFix" result="shape"/><feGaussianBlur stdDeviation="6.5" result="effect1_foregroundBlur"/></filter></defs></svg>