<svg width="614" height="805" viewBox="0 0 614 805" fill="none" xmlns="http://www.w3.org/2000/svg">
<mask id="path-1-outside-1" maskUnits="userSpaceOnUse" x="92.3358" y="30.9111" width="429" height="1039" fill="black">
<rect fill="white" x="92.3358" y="30.9111" width="429" height="1039"/>
<path fill-rule="evenodd" clip-rule="evenodd" d="M410.319 101.144C412.356 101.184 413.597 99.8715 413.241 96.2601C411.969 82.4032 404.704 60.5295 387.814 53.3549C371.762 46.5366 321.753 31.5675 299.255 49.1751C298.061 50.0616 296.602 51.1697 294.971 52.4574C284.73 57.725 272.324 71.9407 265.006 82.0024C257.9 91.7726 265.475 111.831 271.532 127.871C273.894 134.127 276.026 139.771 276.966 143.956C278.642 151.415 279.358 156.347 280.343 163.129L280.343 163.129L280.343 163.129C281.328 169.911 282.582 178.542 285.332 193.398C288.348 209.693 290.791 220.814 298.463 229.233C293.71 233.713 283.811 243.329 273.091 255.446C265.294 256.764 228.848 266.199 208.451 328.984C198.718 358.942 193.463 377.094 189.826 389.656C184.895 406.687 182.939 413.441 176.835 425.409C166.228 446.205 143.72 572.709 155.611 587.275C158.622 588.629 162.252 587.83 166.657 586.228C168.086 586.516 169.884 586.866 171.938 587.24C171.352 587.684 170.72 588.18 170.042 588.734C165.54 592.409 164.285 618.038 165.48 625.448C165.586 626.179 166.26 626.567 166.876 626.451C162.998 632.122 155.326 646.233 159.331 664.691C155.062 666.982 145.485 675.676 135.722 684.539L135.722 684.54C123.651 695.498 111.294 706.716 108.325 706.416C101.109 705.686 102.663 714.348 102.663 714.348C102.663 714.348 136.244 802.785 154.661 788.854C156.573 787.408 158.727 785.764 161.067 783.978L161.094 783.957C165.816 780.353 171.295 776.171 177.075 771.865C187.089 776.536 201.827 780.822 216.147 781.584C224.241 782.015 231.499 785.822 238.126 790.975C238.841 805.547 239.204 824.625 237.265 837.174C235.6 847.943 239.039 859.5 242.679 871.739C246.722 885.33 251.015 899.76 248.847 914.884C244.727 943.625 244.431 994.62 255.119 1009.06C263.677 1020.63 300.468 1014.8 319.182 1011.84L319.207 1011.83C320.642 1011.61 321.971 1011.4 323.172 1011.21C327.724 1020.21 336.342 1032.46 340.965 1037.18C347.572 1043.92 389.92 1033.63 397.865 1027.14C403.68 1022.39 400.844 974.469 399.006 943.408C398.333 932.031 397.793 922.916 397.862 919.014C398.052 908.245 402.792 891.949 406.859 877.966C408.288 873.053 409.634 868.425 410.67 864.424C411.698 860.457 410.256 848.975 407.55 834.117C417.976 830.988 426.709 828.507 430.053 828.845C440.877 829.939 433.536 722.286 431.509 706.287C431.319 704.786 431.308 700.157 431.445 693C435.561 693.311 440.262 693.229 445.171 692.924C444.122 711.642 439.295 797.516 438.754 802.872C438.45 805.878 438.612 822.296 438.775 838.713C438.937 855.131 439.1 871.548 438.796 874.555C438.506 877.424 438.201 894.126 437.882 911.589L437.882 911.59C437.532 930.72 437.166 950.763 436.785 954.535C436.521 957.143 436.376 966.431 436.201 977.62L436.201 977.621C435.892 997.385 435.49 1023.08 434.179 1028.38C432.125 1036.68 437.396 1056.65 444.368 1059.78C449.485 1062.08 449.971 974.28 450.252 923.578C450.354 905.19 450.429 891.681 450.687 889.121C451.66 879.5 453.941 772.82 453.941 772.82L462.185 691.268C464.502 690.988 466.769 690.701 468.945 690.425L468.969 690.422C477.457 689.347 484.575 688.446 487.944 688.786C499.97 690.002 508.425 546.284 510.883 497.937C513.341 449.589 504.989 388 504.989 388C504.989 388 482.839 294.643 470.948 280.077C463.164 270.542 432.214 256.793 421.223 252.112C419.608 250.035 418.095 248.125 416.733 246.406C414.708 243.85 413.018 241.715 411.822 240.082C410.473 238.24 408.836 237.59 407.014 237.905C407.094 236.576 406.913 235.819 406.421 235.769C406.133 235.747 405.793 235.739 405.407 235.743C408.438 234.318 411.256 232.824 413.803 231.291C423.251 225.565 427.329 214.071 424.008 203.652C423.183 201.065 422.43 198.379 421.684 195.716C419.679 188.559 417.722 181.577 414.536 177.181C414.013 176.463 413.522 176 413.047 175.751C412.819 173.024 412.845 169.87 413.224 166.116C413.937 159.066 414.213 152.921 414.147 146.748C414.167 146.735 414.186 146.722 414.205 146.708C414.448 146.582 414.635 146.419 414.758 146.217C415.078 145.85 415.178 145.539 415.178 145.539C415.178 145.539 415.304 135.14 413.622 134.58C413.469 132.413 413.285 130.178 413.074 127.843C418.927 129.011 421.084 125.605 421.084 125.605C421.084 125.605 424.097 119.835 415.8 117.781C414.38 117.43 413.125 117.202 412.009 117.064C411.746 114.55 411.464 111.907 411.165 109.107L411.165 109.106L411.165 109.105C410.896 106.585 410.613 103.937 410.319 101.144ZM350.043 431.404C351.006 423.194 351.943 414.942 352.76 407.297C351.807 415.008 350.902 423.081 350.043 431.404ZM339.116 587.331C339.171 587.401 339.231 587.453 339.293 587.487C339.179 588.567 339.065 589.65 338.954 590.736C339.007 589.612 339.061 588.477 339.116 587.331ZM215.458 609.582C216.53 599.926 217.639 589.941 218.5 580.915C217.691 580.669 216.818 580.366 215.876 580.004C215.684 579.948 215.492 579.893 215.3 579.839C215.098 579.782 214.895 579.726 214.694 579.671L214.076 585.776C213.716 589.345 208.048 590.528 200.613 590.51C200.588 597.043 200.181 611.535 197.344 622.209C200.362 625.147 202.465 628.663 203.862 630.998C204.659 632.329 205.226 633.276 205.601 633.514C206.18 633.88 207.979 637.704 210.431 643.362C211.883 638.233 212.855 633.889 213.184 630.637C213.834 624.201 214.635 616.989 215.458 609.584L215.458 609.582L215.458 609.582ZM182.35 617.148L186.542 612.999C186.939 612.675 187.564 612.495 188.009 612.904C188.944 613.674 189.171 615.517 189.124 617.369C187.092 616.854 184.841 616.725 182.35 617.148ZM320.96 931.665C316.531 907.856 312.12 887.512 311.301 885.965C309.26 882.114 314.797 767.259 319.013 761.61C323.228 755.962 329.202 793.013 329.77 823.443C330.339 853.873 321.165 884.533 321.165 884.533C321.165 884.533 321.093 906.61 320.96 931.665Z"/>
</mask>
<path d="M413.241 96.2601L403.289 97.2418L403.286 97.208L403.283 97.1742L413.241 96.2601ZM410.319 101.144L400.374 102.191L399.187 90.9223L410.516 91.1457L410.319 101.144ZM387.814 53.3549L383.904 62.559L383.904 62.559L387.814 53.3549ZM299.255 49.1751L305.418 57.05L305.318 57.1289L305.215 57.2051L299.255 49.1751ZM294.971 52.4574L301.169 60.3053L300.408 60.9063L299.545 61.3499L294.971 52.4574ZM265.006 82.0024L273.093 87.8844L273.093 87.8844L265.006 82.0024ZM271.532 127.871L262.177 131.404L262.177 131.404L271.532 127.871ZM276.966 143.956L286.723 141.764L286.723 141.764L276.966 143.956ZM280.343 163.129L290.239 161.691L290.343 162.406L290.343 163.129L280.343 163.129ZM280.343 163.129L270.439 164.511L270.343 163.823L270.343 163.129L280.343 163.129ZM280.343 163.129L270.447 164.566L270.443 164.539L270.439 164.511L280.343 163.129ZM285.332 193.398L275.499 195.218L285.332 193.398ZM298.463 229.233L305.854 222.498L312.477 229.765L305.322 236.51L298.463 229.233ZM273.091 255.446L280.581 262.072L278.24 264.717L274.758 265.306L273.091 255.446ZM208.451 328.984L198.94 325.894L208.451 328.984ZM189.826 389.656L199.431 392.437L199.431 392.437L189.826 389.656ZM176.835 425.409L185.743 429.953L176.835 425.409ZM155.611 587.275L151.511 596.396L149.357 595.428L147.865 593.599L155.611 587.275ZM166.657 586.228L163.239 576.831L165.877 575.871L168.629 576.425L166.657 586.228ZM171.938 587.24L173.732 577.402L196.088 581.48L177.979 595.209L171.938 587.24ZM170.042 588.734L176.366 596.48L176.366 596.48L170.042 588.734ZM165.48 625.448L175.353 623.857L175.365 623.934L175.376 624.011L165.48 625.448ZM166.876 626.451L165.027 616.623L188.764 612.158L175.13 632.096L166.876 626.451ZM159.331 664.691L169.104 662.57L170.703 669.938L164.06 673.502L159.331 664.691ZM135.722 684.539L128.651 677.468L128.822 677.297L129 677.135L135.722 684.539ZM135.722 684.54L142.793 691.611L142.622 691.781L142.443 691.944L135.722 684.54ZM108.325 706.416L107.319 716.365L107.319 716.365L108.325 706.416ZM102.663 714.348L93.3148 717.897L92.9848 717.029L92.8207 716.114L102.663 714.348ZM154.661 788.854L160.694 796.829L154.661 788.854ZM161.067 783.978L167.136 791.925L167.134 791.927L161.067 783.978ZM161.094 783.957L155.025 776.009L155.027 776.008L161.094 783.957ZM177.075 771.865L171.1 763.846L175.889 760.278L181.302 762.802L177.075 771.865ZM216.147 781.584L216.678 771.598L216.678 771.598L216.147 781.584ZM238.126 790.975L244.265 783.081L247.889 785.9L248.114 790.486L238.126 790.975ZM237.265 837.174L247.147 838.701L247.147 838.701L237.265 837.174ZM242.679 871.739L252.264 868.887L242.679 871.739ZM248.847 914.884L258.746 916.303L258.746 916.303L248.847 914.884ZM255.119 1009.06L247.081 1015.01L247.081 1015.01L255.119 1009.06ZM319.182 1011.84L317.618 1001.96L317.627 1001.96L317.637 1001.96L319.182 1011.84ZM319.207 1011.83L320.772 1021.71L320.762 1021.71L320.752 1021.71L319.207 1011.83ZM323.172 1011.21L321.655 1001.33L328.822 1000.23L332.095 1006.7L323.172 1011.21ZM340.965 1037.18L348.107 1030.18L340.965 1037.18ZM397.865 1027.14L404.189 1034.89L404.189 1034.89L397.865 1027.14ZM399.006 943.408L389.023 943.999L399.006 943.408ZM397.862 919.014L387.864 918.838L397.862 919.014ZM406.859 877.966L397.257 875.173L406.859 877.966ZM410.67 864.424L420.351 866.931L410.67 864.424ZM407.55 834.117L397.711 835.908L396.109 827.109L404.675 824.539L407.55 834.117ZM430.053 828.845L429.047 838.794L429.047 838.794L430.053 828.845ZM431.509 706.287L421.588 707.544L421.588 707.544L431.509 706.287ZM431.445 693L421.446 692.809L421.648 682.233L432.196 683.028L431.445 693ZM445.171 692.924L444.552 682.943L455.785 682.246L455.155 693.484L445.171 692.924ZM438.754 802.872L428.804 801.866L438.754 802.872ZM438.775 838.713L428.775 838.812L438.775 838.713ZM438.796 874.555L448.745 875.561L448.745 875.561L438.796 874.555ZM437.882 911.589L427.882 911.589L427.882 911.498L427.884 911.407L437.882 911.589ZM437.882 911.59L447.882 911.59L447.882 911.681L447.88 911.772L437.882 911.59ZM436.785 954.535L426.836 953.529L436.785 954.535ZM436.201 977.62L426.201 977.62L426.201 977.542L426.202 977.464L436.201 977.62ZM436.201 977.621L446.201 977.621L446.201 977.699L446.2 977.777L436.201 977.621ZM434.179 1028.38L443.886 1030.78L443.886 1030.78L434.179 1028.38ZM444.368 1059.78L440.268 1068.9L440.268 1068.9L444.368 1059.78ZM450.252 923.578L460.252 923.633L450.252 923.578ZM450.687 889.121L460.637 890.127L450.687 889.121ZM453.941 772.82L443.943 772.606L443.951 772.209L443.991 771.814L453.941 772.82ZM462.185 691.268L452.236 690.262L453.041 682.302L460.984 681.341L462.185 691.268ZM468.945 690.425L470.237 700.341L470.219 700.344L470.201 700.346L468.945 690.425ZM468.969 690.422L467.678 680.506L467.695 680.503L467.713 680.501L468.969 690.422ZM487.944 688.786L488.95 678.837L488.95 678.837L487.944 688.786ZM510.883 497.937L520.87 498.444L510.883 497.937ZM504.989 388L514.719 385.691L514.832 386.169L514.898 386.656L504.989 388ZM470.948 280.077L478.694 273.753L470.948 280.077ZM421.223 252.112L417.304 261.312L414.92 260.297L413.329 258.251L421.223 252.112ZM416.733 246.406L408.894 252.615L408.894 252.615L416.733 246.406ZM411.822 240.082L403.754 245.99L403.754 245.99L411.822 240.082ZM407.014 237.905L408.714 247.759L396.273 249.905L397.032 237.303L407.014 237.905ZM406.421 235.769L407.19 225.799L407.308 225.808L407.427 225.82L406.421 235.769ZM405.407 235.743L405.521 245.742L401.152 226.694L405.407 235.743ZM413.803 231.291L418.987 239.843L418.973 239.851L418.959 239.86L413.803 231.291ZM424.008 203.652L433.535 200.611L433.536 200.615L424.008 203.652ZM421.684 195.716L431.313 193.018L421.684 195.716ZM414.536 177.181L422.623 171.3L422.628 171.306L422.632 171.312L414.536 177.181ZM413.047 175.751L408.404 184.608L403.54 182.057L403.082 176.584L413.047 175.751ZM413.224 166.116L423.174 167.122L423.174 167.122L413.224 166.116ZM414.147 146.748L404.148 146.855L404.089 141.388L408.659 138.388L414.147 146.748ZM414.205 146.708L408.535 138.471L409.034 138.128L409.571 137.847L414.205 146.708ZM414.758 146.217L406.233 140.991L406.668 140.281L407.215 139.653L414.758 146.217ZM415.178 145.539L425.177 145.66L425.159 147.17L424.696 148.607L415.178 145.539ZM413.622 134.58L410.464 144.068L404.119 141.956L403.647 135.285L413.622 134.58ZM413.074 127.843L403.115 128.742L401.913 115.42L415.031 118.036L413.074 127.843ZM421.084 125.605L429.948 130.234L429.755 130.602L429.533 130.954L421.084 125.605ZM415.8 117.781L418.203 108.074L418.203 108.074L415.8 117.781ZM412.009 117.064L410.785 126.989L402.891 126.015L402.063 118.104L412.009 117.064ZM411.165 109.107L421.106 108.023L421.107 108.034L421.109 108.045L411.165 109.107ZM411.165 109.106L401.224 110.19L401.222 110.172L401.22 110.153L411.165 109.106ZM411.165 109.105L421.108 108.043L421.109 108.051L421.11 108.058L411.165 109.105ZM350.043 431.404L359.975 432.569L340.096 430.377L350.043 431.404ZM352.76 407.297L342.835 406.071L362.703 408.359L352.76 407.297ZM339.293 587.487L344.062 578.697L349.941 581.887L349.237 588.539L339.293 587.487ZM339.116 587.331L329.127 586.852L330.404 560.182L346.961 581.13L339.116 587.331ZM338.954 590.736L348.901 591.76L328.965 590.265L338.954 590.736ZM218.5 580.915L221.416 571.35L229.229 573.732L228.454 581.864L218.5 580.915ZM215.458 609.582L225.397 610.685L225.389 610.754L225.381 610.822L215.458 609.582ZM215.876 580.004L218.678 570.404L219.076 570.521L219.464 570.67L215.876 580.004ZM215.3 579.839L212.59 589.464L212.587 589.464L215.3 579.839ZM214.694 579.671L204.744 578.665L205.93 566.935L217.31 570.019L214.694 579.671ZM214.076 585.776L224.026 586.782L224.026 586.782L214.076 585.776ZM200.613 590.51L190.613 590.472L190.652 580.487L200.636 580.51L200.613 590.51ZM197.344 622.209L190.369 629.375L186.177 625.295L187.68 619.641L197.344 622.209ZM203.862 630.998L195.281 636.132L195.281 636.132L203.862 630.998ZM205.601 633.514L210.95 625.064L210.95 625.065L205.601 633.514ZM210.431 643.362L220.053 646.086L212.41 673.075L201.256 647.338L210.431 643.362ZM213.184 630.637L203.234 629.631L203.234 629.631L213.184 630.637ZM215.458 609.584L205.519 608.48L205.519 608.48L215.458 609.584ZM215.458 609.582L205.519 608.478L205.527 608.41L205.535 608.342L215.458 609.582ZM186.542 612.999L179.507 605.891L179.847 605.555L180.217 605.253L186.542 612.999ZM182.35 617.148L184.022 627.007L152.827 632.297L175.315 610.04L182.35 617.148ZM188.009 612.904L181.653 620.625L181.439 620.448L181.235 620.26L188.009 612.904ZM189.124 617.369L199.12 617.623L198.802 630.14L186.666 627.062L189.124 617.369ZM311.301 885.965L320.137 881.283L311.301 885.965ZM320.96 931.665L330.96 931.718L311.129 933.494L320.96 931.665ZM329.77 823.443L319.772 823.63L329.77 823.443ZM321.165 884.533L311.165 884.5L311.169 883.053L311.584 881.666L321.165 884.533ZM423.193 95.2784C423.454 97.93 423.428 102.002 420.978 105.649C418.026 110.041 413.456 111.208 410.122 111.142L410.516 91.1457C409.966 91.1348 408.918 91.201 407.677 91.7439C406.339 92.3292 405.182 93.2961 404.377 94.494C402.968 96.5919 403.384 98.2016 403.289 97.2418L423.193 95.2784ZM391.723 44.1508C403.11 48.9875 410.608 58.475 415.312 67.7961C420.039 77.1631 422.465 87.3426 423.199 95.3461L403.283 97.1742C402.746 91.3207 400.903 83.6349 397.457 76.8071C393.988 69.9335 389.408 64.8969 383.904 62.559L391.723 44.1508ZM293.092 41.3002C300.652 35.3835 309.969 32.6053 319.142 31.5115C328.368 30.4115 338.139 30.9307 347.32 32.1994C365.632 34.73 383.001 40.446 391.723 44.1508L383.904 62.559C376.574 59.4455 360.913 54.2678 344.583 52.0111C336.443 50.8863 328.491 50.5385 321.51 51.3708C314.478 52.2094 309.107 54.1629 305.418 57.05L293.092 41.3002ZM288.774 44.6095C290.49 43.254 292.029 42.0852 293.295 41.1451L305.215 57.2051C304.093 58.0381 302.714 59.0854 301.169 60.3053L288.774 44.6095ZM256.919 76.1204C260.808 70.7735 266.036 64.334 271.708 58.476C277.234 52.7689 283.806 46.9553 290.397 43.5649L299.545 61.3499C295.896 63.2271 291.144 67.1552 286.077 72.3883C281.156 77.4704 276.522 83.1696 273.093 87.8844L256.919 76.1204ZM262.177 131.404C259.212 123.554 255.504 113.794 253.554 104.677C251.745 96.2201 250.608 84.7977 256.919 76.1204L273.093 87.8844C272.298 88.9773 271.395 92.469 273.112 100.494C274.687 107.858 277.794 116.148 280.887 124.339L262.177 131.404ZM267.209 146.148C266.46 142.813 264.647 137.945 262.177 131.404L280.887 124.339C283.142 130.308 285.592 136.73 286.723 141.764L267.209 146.148ZM270.447 164.566C269.466 157.812 268.795 153.205 267.209 146.148L286.723 141.764C288.489 149.625 289.25 154.882 290.239 161.691L270.447 164.566ZM270.343 163.129L270.343 163.129L290.343 163.129L290.343 163.129L270.343 163.129ZM270.439 164.511L270.439 164.511L290.247 161.747L290.247 161.747L270.439 164.511ZM275.499 195.218C272.715 180.182 271.441 171.409 270.447 164.566L290.239 161.692C291.215 168.412 292.448 176.901 295.165 191.578L275.499 195.218ZM291.071 235.968C281.157 225.089 278.413 210.962 275.499 195.218L295.165 191.578C298.283 208.424 300.426 216.54 305.854 222.498L291.071 235.968ZM265.602 248.82C276.586 236.404 286.714 226.565 291.603 221.956L305.322 236.51C300.705 240.862 291.037 250.254 280.581 262.072L265.602 248.82ZM198.94 325.894C209.656 292.911 224.865 273.162 239.151 261.435C253.398 249.742 266.178 246.472 271.425 245.586L274.758 265.306C272.207 265.737 262.866 267.845 251.841 276.894C240.856 285.911 227.644 302.272 217.962 332.074L198.94 325.894ZM180.22 386.874C183.871 374.264 189.16 355.997 198.94 325.894L217.962 332.074C208.276 361.887 203.054 379.924 199.431 392.437L180.22 386.874ZM167.926 420.866C173.556 409.829 175.292 403.895 180.22 386.874L199.431 392.437C194.497 409.479 192.322 417.053 185.743 429.953L167.926 420.866ZM147.865 593.599C145.878 591.165 144.8 588.32 144.145 585.986C143.453 583.52 143.012 580.798 142.726 578.011C142.154 572.436 142.117 565.68 142.428 558.339C143.053 543.603 145.139 525.382 147.899 507.179C150.665 488.939 154.145 470.48 157.621 455.207C160.988 440.408 164.614 427.361 167.926 420.866L185.743 429.953C183.752 433.856 180.587 444.42 177.122 459.645C173.766 474.395 170.373 492.371 167.673 510.178C164.967 528.021 162.992 545.457 162.41 559.187C162.118 566.079 162.19 571.759 162.622 575.971C162.838 578.078 163.122 579.587 163.402 580.585C163.718 581.714 163.858 581.564 163.357 580.951L147.865 593.599ZM170.075 595.626C165.839 597.166 158.589 599.578 151.511 596.396L159.712 578.155C159.067 577.865 158.755 578.015 159.364 577.938C160.079 577.848 161.255 577.552 163.239 576.831L170.075 595.626ZM170.144 597.078C168.023 596.691 166.165 596.33 164.685 596.032L168.629 576.425C170.008 576.702 171.746 577.04 173.732 577.402L170.144 597.078ZM163.718 580.987C164.486 580.36 165.212 579.79 165.896 579.272L177.979 595.209C177.491 595.579 176.954 596.001 176.366 596.48L163.718 580.987ZM155.608 627.04C154.805 622.063 154.919 612.791 155.668 604.762C156.055 600.619 156.653 596.316 157.541 592.634C157.982 590.804 158.556 588.869 159.331 587.083C160.005 585.528 161.296 582.965 163.718 580.987L176.366 596.48C177.663 595.422 177.93 594.463 177.679 595.042C177.528 595.39 177.274 596.119 176.983 597.324C176.407 599.712 175.922 602.97 175.582 606.62C174.877 614.176 174.96 621.424 175.353 623.857L155.608 627.04ZM168.724 636.279C163.068 637.343 156.585 633.78 155.584 626.885L175.376 624.011C174.587 618.577 169.451 615.791 165.027 616.623L168.724 636.279ZM149.559 666.811C144.724 644.527 154.003 627.56 158.621 620.806L175.13 632.096C171.993 636.684 165.929 647.94 169.104 662.57L149.559 666.811ZM129 677.135C133.852 672.73 138.795 668.242 143.066 664.569C147.042 661.149 151.333 657.634 154.603 655.879L164.06 673.502C163.06 674.039 160.428 676.016 156.108 679.732C152.082 683.194 147.355 687.485 142.443 691.943L129 677.135ZM128.65 677.469L128.651 677.468L142.793 691.61L142.793 691.611L128.65 677.469ZM109.331 696.467C107.891 696.321 106.825 696.568 106.415 696.677C105.942 696.803 105.669 696.932 105.652 696.94C105.632 696.949 105.921 696.808 106.6 696.354C107.925 695.467 109.808 694.015 112.212 692.014C116.98 688.045 122.91 682.664 129 677.136L142.443 691.944C136.462 697.374 130.178 703.081 125.008 707.385C122.442 709.521 119.925 711.502 117.722 712.976C116.636 713.703 115.378 714.475 114.067 715.083C113.167 715.501 110.542 716.691 107.319 716.365L109.331 696.467ZM102.663 714.348C92.8207 716.114 92.82 716.11 92.8193 716.106C92.8191 716.105 92.8184 716.101 92.8179 716.098C92.8169 716.093 92.8159 716.087 92.8149 716.082C92.8129 716.07 92.8108 716.058 92.8087 716.045C92.8043 716.02 92.7996 715.993 92.7946 715.963C92.7846 715.903 92.7734 715.833 92.7615 715.754C92.7376 715.597 92.7102 715.402 92.6828 715.175C92.6284 714.724 92.5709 714.123 92.5418 713.417C92.4873 712.092 92.5137 709.998 93.0813 707.705C93.6421 705.44 94.9442 702.155 98.0723 699.601C101.418 696.869 105.486 696.078 109.331 696.467L107.319 716.365C107.378 716.371 107.821 716.407 108.506 716.231C109.226 716.045 110.008 715.675 110.72 715.094C112.11 713.959 112.448 712.702 112.495 712.511C112.55 712.292 112.514 712.318 112.525 712.594C112.529 712.689 112.536 712.759 112.539 712.779C112.54 712.787 112.539 712.777 112.534 712.747C112.532 712.732 112.528 712.71 112.524 712.683C112.522 712.669 112.519 712.654 112.516 712.637C112.515 712.629 112.513 712.62 112.511 712.611C112.511 712.606 112.51 712.601 112.509 712.596C112.509 712.594 112.508 712.59 112.508 712.589C112.507 712.585 112.506 712.582 102.663 714.348ZM160.694 796.829C155.133 801.036 148.768 801.099 143.388 798.922C138.643 797.002 134.606 793.39 131.357 789.805C124.731 782.493 118.331 771.81 112.903 761.475C107.381 750.962 102.49 740.072 98.9969 731.864C97.2448 727.748 95.8322 724.277 94.8546 721.827C94.3657 720.602 93.985 719.631 93.7245 718.96C93.5942 718.625 93.4939 718.365 93.4251 718.186C93.3907 718.097 93.3642 718.027 93.3458 717.979C93.3365 717.955 93.3293 717.936 93.3242 717.922C93.3216 717.915 93.3195 717.91 93.3179 717.906C93.3171 717.904 93.3163 717.902 93.3159 717.901C93.3153 717.899 93.3148 717.897 102.663 714.348C112.012 710.798 112.012 710.797 112.012 710.797C112.012 710.797 112.012 710.797 112.012 710.798C112.013 710.799 112.014 710.801 112.015 710.805C112.018 710.813 112.023 710.826 112.03 710.845C112.044 710.881 112.066 710.938 112.096 711.016C112.155 711.171 112.246 711.405 112.366 711.715C112.606 712.333 112.965 713.248 113.43 714.414C114.361 716.747 115.716 720.076 117.4 724.032C120.778 731.971 125.434 742.321 130.609 752.175C135.879 762.208 141.326 771.022 146.177 776.375C148.666 779.121 150.274 780.133 150.891 780.383C151.079 780.459 150.768 780.295 150.112 780.356C149.385 780.424 148.851 780.71 148.628 780.879L160.694 796.829ZM167.134 791.927C164.798 793.709 162.626 795.367 160.694 796.829L148.628 780.879C150.519 779.448 152.655 777.818 155 776.028L167.134 791.927ZM167.163 791.905L167.136 791.925L154.998 776.03L155.025 776.009L167.163 791.905ZM183.049 779.884C177.323 784.15 171.887 788.299 167.161 791.906L155.027 776.008C159.744 772.407 165.268 768.191 171.1 763.846L183.049 779.884ZM215.616 791.57C199.886 790.733 183.9 786.082 172.848 780.928L181.302 762.802C190.279 766.989 203.768 770.911 216.678 771.598L215.616 791.57ZM231.988 798.87C226.155 794.334 220.836 791.848 215.615 791.57L216.678 771.598C227.645 772.182 236.843 777.31 244.265 783.081L231.988 798.87ZM227.382 835.647C229.147 824.225 228.855 806.089 228.138 791.465L248.114 790.486C248.826 805.005 249.261 825.025 247.147 838.701L227.382 835.647ZM233.094 874.59C229.633 862.954 225.307 849.075 227.382 835.647L247.147 838.701C245.894 846.811 248.444 856.047 252.264 868.887L233.094 874.59ZM238.948 913.464C240.756 900.857 237.239 888.523 233.094 874.59L252.264 868.887C256.206 882.136 261.275 898.664 258.746 916.303L238.948 913.464ZM247.081 1015.01C243.025 1009.53 240.708 1001.79 239.234 994.204C237.695 986.283 236.824 977.119 236.438 967.747C235.667 949.015 236.797 928.467 238.948 913.464L258.746 916.303C256.776 930.041 255.698 949.361 256.421 966.924C256.783 975.699 257.584 983.788 258.867 990.389C260.215 997.325 261.87 1001.38 263.158 1003.12L247.081 1015.01ZM320.747 1021.71C311.492 1023.18 296.991 1025.49 283.645 1025.89C276.99 1026.1 270.113 1025.85 264.062 1024.58C258.322 1023.38 251.425 1020.88 247.081 1015.01L263.158 1003.12C263.092 1003.03 264.004 1004.14 268.154 1005C271.992 1005.81 277.087 1006.08 283.039 1005.9C294.907 1005.54 308.158 1003.46 317.618 1001.96L320.747 1021.71ZM320.752 1021.71L320.728 1021.72L317.637 1001.96L317.662 1001.95L320.752 1021.71ZM324.689 1021.1C323.516 1021.28 322.213 1021.48 320.772 1021.71L317.642 1001.96C319.072 1001.73 320.425 1001.52 321.655 1001.33L324.689 1021.1ZM333.822 1044.18C328.328 1038.57 319.153 1025.42 314.249 1015.73L332.095 1006.7C336.295 1015 344.355 1026.35 348.107 1030.18L333.822 1044.18ZM404.189 1034.89C400.658 1037.77 394.931 1040.1 389.783 1041.86C384.151 1043.78 377.494 1045.57 370.921 1046.92C364.398 1048.25 357.6 1049.23 351.762 1049.37C348.862 1049.44 345.849 1049.31 343.073 1048.77C340.579 1048.28 336.775 1047.19 333.822 1044.18L348.107 1030.18C346.806 1028.86 345.771 1028.92 346.889 1029.14C347.724 1029.3 349.166 1029.42 351.29 1029.37C355.498 1029.27 361.022 1028.53 366.906 1027.33C372.738 1026.13 378.571 1024.55 383.321 1022.93C385.697 1022.12 387.693 1021.33 389.228 1020.63C389.991 1020.28 390.578 1019.97 391.006 1019.73C391.457 1019.47 391.596 1019.35 391.541 1019.39L404.189 1034.89ZM408.988 942.818C409.904 958.291 411.089 978.281 411.305 995.013C411.412 1003.35 411.284 1011.17 410.712 1017.35C410.429 1020.4 410.008 1023.4 409.336 1025.97C408.999 1027.27 408.537 1028.7 407.866 1030.1C407.238 1031.4 406.127 1033.3 404.189 1034.89L391.541 1019.39C390.33 1020.38 389.879 1021.35 389.846 1021.42C389.772 1021.58 389.843 1021.47 389.982 1020.93C390.261 1019.86 390.558 1018.09 390.798 1015.5C391.272 1010.38 391.411 1003.39 391.306 995.271C391.098 979.089 389.946 959.587 389.023 943.999L408.988 942.818ZM407.86 919.19C407.8 922.594 408.298 931.153 408.988 942.818L389.023 943.999C388.367 932.909 387.786 923.237 387.864 918.838L407.86 919.19ZM416.461 880.759C414.414 887.796 412.283 895.131 410.631 902.025C408.952 909.036 407.935 914.936 407.86 919.19L387.864 918.838C387.978 912.324 389.427 904.69 391.182 897.366C392.964 889.923 395.237 882.119 397.257 875.173L416.461 880.759ZM420.351 866.931C419.27 871.105 417.878 875.888 416.461 880.759L397.257 875.173C398.698 870.218 399.998 865.745 400.99 861.917L420.351 866.931ZM417.388 832.325C418.759 839.853 419.843 846.703 420.451 852.269C420.754 855.047 420.955 857.646 420.995 859.927C421.032 862.015 420.959 864.584 420.351 866.931L400.99 861.917C400.896 862.28 401.027 861.926 400.998 860.281C400.973 858.829 400.836 856.885 400.569 854.44C400.036 849.558 399.047 843.239 397.711 835.908L417.388 832.325ZM429.047 838.794C429.55 838.845 429.426 838.758 428.183 838.958C427.117 839.13 425.685 839.434 423.866 839.886C420.225 840.79 415.65 842.126 410.424 843.695L404.675 824.539C409.875 822.978 414.879 821.51 419.048 820.475C421.133 819.957 423.164 819.509 425.002 819.213C426.662 818.946 428.884 818.676 431.059 818.895L429.047 838.794ZM441.43 705.03C442.502 713.488 444.857 744.766 445.597 773.72C445.967 788.193 445.945 802.468 445.101 813.191C444.687 818.448 444.035 823.452 442.912 827.33C442.375 829.183 441.502 831.62 439.922 833.762C438.26 836.014 434.612 839.357 429.047 838.794L431.059 818.895C426.847 818.47 424.41 821.099 423.829 821.887C423.329 822.564 423.406 822.785 423.701 821.767C424.24 819.906 424.774 816.554 425.163 811.622C425.923 801.968 425.969 788.535 425.603 774.231C424.872 745.633 422.544 715.085 421.588 707.544L441.43 705.03ZM441.443 693.191C441.375 696.736 441.345 699.595 441.354 701.723C441.359 702.788 441.373 703.624 441.394 704.246C441.418 704.944 441.443 705.134 441.43 705.03L421.588 707.544C421.283 705.131 421.317 699.569 421.446 692.809L441.443 693.191ZM445.79 702.905C440.65 703.224 435.446 703.33 430.693 702.972L432.196 683.028C435.676 683.291 439.874 683.233 444.552 682.943L445.79 702.905ZM428.804 801.866C429.316 796.807 434.123 711.344 435.186 692.364L455.155 693.484C454.121 711.939 449.274 798.225 448.703 803.877L428.804 801.866ZM428.775 838.812C428.694 830.614 428.612 822.37 428.589 815.798C428.567 809.596 428.585 804.033 428.804 801.866L448.703 803.877C448.706 803.845 448.699 803.912 448.688 804.123C448.677 804.319 448.666 804.581 448.656 804.918C448.634 805.592 448.617 806.47 448.605 807.544C448.581 809.689 448.578 812.479 448.589 815.728C448.612 822.221 448.693 830.395 448.774 838.614L428.775 838.812ZM428.847 873.549C428.844 873.581 428.851 873.515 428.862 873.304C428.872 873.108 428.883 872.845 428.894 872.509C428.915 871.834 428.932 870.957 428.944 869.882C428.969 867.737 428.972 864.947 428.96 861.698C428.938 855.205 428.857 847.031 428.775 838.812L448.774 838.614C448.856 846.812 448.937 855.057 448.96 861.628C448.982 867.831 448.965 873.393 448.745 875.561L428.847 873.549ZM427.884 911.407C428.195 894.379 428.502 876.963 428.847 873.549L448.745 875.561C448.746 875.556 448.743 875.581 448.738 875.644C448.734 875.704 448.728 875.786 448.721 875.892C448.707 876.107 448.692 876.385 448.675 876.733C448.642 877.43 448.607 878.331 448.57 879.428C448.498 881.618 448.423 884.479 448.347 887.826C448.195 894.516 448.04 903.033 447.88 911.772L427.884 911.407ZM427.882 911.59L427.882 911.589L447.882 911.589L447.882 911.59L427.882 911.59ZM426.836 953.529C427.162 950.3 427.526 930.959 427.884 911.407L447.88 911.772C447.538 930.48 447.171 951.225 446.734 955.541L426.836 953.529ZM426.202 977.464C426.371 966.666 426.516 956.695 426.836 953.529L446.734 955.541C446.527 957.591 446.381 966.196 446.2 977.777L426.202 977.464ZM426.201 977.621L426.201 977.62L446.201 977.62L446.201 977.621L426.201 977.621ZM424.472 1025.98C424.47 1025.99 424.563 1025.55 424.69 1024.4C424.805 1023.35 424.918 1021.99 425.026 1020.34C425.242 1017.04 425.421 1012.84 425.571 1008.11C425.871 998.648 426.047 987.368 426.202 977.465L446.2 977.777C446.046 987.638 445.867 999.089 445.561 1008.74C445.408 1013.56 445.221 1018.02 444.983 1021.65C444.767 1024.95 444.463 1028.45 443.886 1030.78L424.472 1025.98ZM440.268 1068.9C435.672 1066.84 432.713 1062.82 430.935 1059.81C428.973 1056.48 427.439 1052.64 426.313 1048.9C425.177 1045.12 424.359 1041.13 423.976 1037.36C423.609 1033.76 423.563 1029.65 424.472 1025.98L443.886 1030.78C443.768 1031.26 443.611 1032.76 443.873 1035.33C444.118 1037.74 444.668 1040.49 445.465 1043.14C446.272 1045.82 447.234 1048.07 448.157 1049.64C449.264 1051.51 449.579 1051.16 448.469 1050.66L440.268 1068.9ZM460.252 923.633C460.112 948.955 459.92 983.703 459.12 1011.84C458.721 1025.87 458.165 1038.47 457.368 1047.48C456.977 1051.91 456.494 1055.88 455.843 1058.83C455.554 1060.14 455.053 1062.12 454.081 1063.93C453.634 1064.76 452.531 1066.63 450.365 1068.07C447.549 1069.94 443.771 1070.48 440.268 1068.9L448.469 1050.66C445.286 1049.23 441.818 1049.74 439.305 1051.41C437.44 1052.64 436.631 1054.15 436.468 1054.45C436.065 1055.2 436.1 1055.48 436.314 1054.51C436.671 1052.9 437.068 1050 437.446 1045.72C438.187 1037.33 438.731 1025.24 439.128 1011.27C439.92 983.407 440.112 948.902 440.252 923.522L460.252 923.633ZM460.637 890.127C460.639 890.102 460.633 890.158 460.623 890.333C460.613 890.496 460.602 890.715 460.59 890.997C460.566 891.565 460.543 892.308 460.522 893.234C460.478 895.083 460.442 897.536 460.41 900.52C460.347 906.484 460.303 914.429 460.252 923.633L440.252 923.522C440.303 914.339 440.347 906.335 440.411 900.308C440.472 894.594 440.551 889.969 440.738 888.115L460.637 890.127ZM453.941 772.82C463.938 773.033 463.938 773.034 463.938 773.035C463.938 773.035 463.938 773.037 463.938 773.038C463.938 773.042 463.938 773.046 463.938 773.053C463.938 773.066 463.937 773.085 463.937 773.111C463.936 773.163 463.934 773.239 463.932 773.341C463.927 773.543 463.921 773.844 463.912 774.236C463.896 775.021 463.871 776.172 463.838 777.641C463.774 780.579 463.681 784.786 463.567 789.864C463.337 800.02 463.022 813.664 462.676 827.61C461.993 855.132 461.173 884.819 460.637 890.127L440.738 888.115C441.174 883.802 441.981 855.338 442.682 827.114C443.027 813.188 443.343 799.56 443.572 789.413C443.686 784.34 443.779 780.137 443.843 777.203C443.875 775.736 443.9 774.587 443.917 773.804C443.926 773.412 443.932 773.113 443.936 772.911C443.939 772.81 443.94 772.734 443.941 772.683C443.942 772.657 443.942 772.638 443.943 772.625C443.943 772.619 443.943 772.614 443.943 772.611C443.943 772.609 443.943 772.608 443.943 772.607C443.943 772.606 443.943 772.606 453.941 772.82ZM472.134 692.274L463.89 773.825L443.991 771.814L452.236 690.262L472.134 692.274ZM470.201 700.346C468.029 700.621 465.735 700.911 463.387 701.196L460.984 681.341C463.269 681.064 465.508 680.78 467.69 680.504L470.201 700.346ZM470.261 700.338L470.237 700.341L467.654 680.509L467.678 680.506L470.261 700.338ZM486.939 698.736C486.365 698.678 484.663 698.704 481.344 699.026C478.258 699.327 474.516 699.8 470.226 700.343L467.713 680.501C471.911 679.97 475.972 679.455 479.409 679.12C482.614 678.809 486.155 678.555 488.95 678.837L486.939 698.736ZM520.87 498.444C519.639 522.656 516.903 570.843 512.958 612.882C510.99 633.855 508.698 653.558 506.099 668.044C504.814 675.207 503.374 681.562 501.706 686.263C500.901 688.532 499.812 691.093 498.254 693.243C496.979 695.002 493.237 699.372 486.939 698.736L488.95 678.837C486.659 678.605 484.798 679.334 483.643 680.078C482.617 680.74 482.131 681.408 482.06 681.506C481.948 681.661 482.277 681.212 482.858 679.573C483.964 676.458 485.177 671.407 486.414 664.512C488.859 650.882 491.089 631.861 493.046 611.014C496.949 569.41 499.669 521.565 500.896 497.429L520.87 498.444ZM504.989 388C514.898 386.656 514.898 386.657 514.898 386.658C514.898 386.659 514.899 386.66 514.899 386.662C514.899 386.665 514.9 386.668 514.9 386.673C514.902 386.682 514.903 386.695 514.906 386.712C514.91 386.746 514.917 386.794 514.925 386.857C514.942 386.983 514.966 387.166 514.997 387.406C515.06 387.885 515.151 388.587 515.265 389.493C515.493 391.307 515.814 393.94 516.191 397.246C516.945 403.855 517.923 413.169 518.823 424.01C520.618 445.611 522.133 473.611 520.87 498.444L500.896 497.429C502.092 473.915 500.66 446.947 498.892 425.666C498.012 415.067 497.055 405.961 496.32 399.512C495.952 396.288 495.64 393.732 495.421 391.988C495.311 391.116 495.225 390.448 495.167 390.001C495.137 389.778 495.115 389.61 495.1 389.499C495.093 389.444 495.088 389.403 495.084 389.377C495.082 389.364 495.081 389.355 495.08 389.349C495.08 389.347 495.08 389.345 495.079 389.344C495.079 389.343 495.079 389.343 495.079 389.343C495.079 389.343 495.079 389.344 504.989 388ZM478.694 273.753C481.083 276.679 483.172 280.781 484.972 284.855C486.868 289.148 488.809 294.271 490.731 299.806C494.578 310.891 498.525 324.152 502.059 336.812C505.601 349.499 508.764 361.711 511.039 370.742C512.177 375.261 513.095 378.99 513.73 381.593C514.047 382.895 514.293 383.915 514.46 384.612C514.544 384.96 514.608 385.228 514.652 385.41C514.673 385.501 514.69 385.57 514.701 385.617C514.707 385.641 514.711 385.659 514.714 385.671C514.715 385.677 514.716 385.682 514.717 385.686C514.718 385.687 514.718 385.689 514.718 385.69C514.718 385.691 514.719 385.691 504.989 388C495.259 390.308 495.259 390.308 495.259 390.308C495.259 390.308 495.259 390.307 495.258 390.306C495.258 390.303 495.257 390.3 495.256 390.295C495.253 390.284 495.249 390.269 495.244 390.247C495.234 390.205 495.219 390.14 495.198 390.054C495.157 389.881 495.095 389.623 495.014 389.284C494.851 388.606 494.61 387.607 494.298 386.327C493.674 383.768 492.769 380.09 491.645 375.628C489.396 366.7 486.278 354.662 482.796 342.19C479.306 329.69 475.487 316.881 471.836 306.364C470.009 301.099 468.269 296.539 466.678 292.938C464.99 289.118 463.786 287.117 463.202 286.401L478.694 273.753ZM425.142 242.912C430.73 245.292 441.475 250.011 451.881 255.392C457.077 258.078 462.334 261.005 466.881 263.953C471.216 266.764 475.715 270.104 478.694 273.753L463.202 286.401C462.289 285.283 460 283.328 455.999 280.733C452.21 278.276 447.583 275.685 442.695 273.157C432.932 268.109 422.707 263.613 417.304 261.312L425.142 242.912ZM424.572 240.197C425.932 241.914 427.47 243.856 429.116 245.973L413.329 258.251C411.745 256.214 410.258 254.337 408.894 252.615L424.572 240.197ZM419.89 234.174C420.947 235.618 422.498 237.578 424.572 240.197L408.894 252.615C406.919 250.121 405.088 247.812 403.754 245.99L419.89 234.174ZM405.314 228.05C407.932 227.598 410.812 227.798 413.613 229.027C416.357 230.231 418.407 232.149 419.89 234.174L403.754 245.99C403.888 246.173 404.445 246.845 405.578 247.342C406.767 247.864 407.918 247.896 408.714 247.759L405.314 228.05ZM407.427 225.82C414.021 226.486 416.143 232.091 416.592 233.773C417.112 235.714 417.055 237.528 416.996 238.506L397.032 237.303C397.053 236.953 396.946 237.724 397.272 238.942C397.443 239.583 397.905 241.009 399.152 242.458C400.595 244.136 402.778 245.452 405.415 245.718L407.427 225.82ZM405.294 225.744C405.864 225.737 406.516 225.747 407.19 225.799L405.652 245.74C405.71 245.744 405.729 245.744 405.698 245.743C405.669 245.742 405.611 245.741 405.521 245.742L405.294 225.744ZM418.959 239.86C416.086 241.589 412.963 243.241 409.663 244.793L401.152 226.694C403.914 225.395 406.427 224.06 408.647 222.723L418.959 239.86ZM433.536 200.615C438.214 215.295 432.512 231.645 418.987 239.843L408.62 222.74C413.99 219.484 416.443 212.847 414.481 206.688L433.536 200.615ZM431.313 193.018C432.068 195.712 432.773 198.224 433.535 200.611L414.482 206.692C413.593 203.906 412.792 201.045 412.055 198.415L431.313 193.018ZM422.632 171.312C425.046 174.642 426.711 178.522 427.971 182.052C429.248 185.631 430.332 189.516 431.313 193.018L412.055 198.415C411.031 194.759 410.134 191.575 409.134 188.774C408.118 185.925 407.211 184.116 406.439 183.05L422.632 171.312ZM417.691 166.895C420.071 168.143 421.646 169.955 422.623 171.3L406.448 183.062C406.452 183.068 406.585 183.252 406.864 183.519C407.143 183.786 407.649 184.212 408.404 184.608L417.691 166.895ZM423.174 167.122C422.846 170.363 422.843 172.894 423.013 174.918L403.082 176.584C402.795 173.153 402.844 169.377 403.275 165.11L423.174 167.122ZM424.147 146.641C424.217 153.211 423.921 159.728 423.174 167.122L403.275 165.11C403.953 158.404 404.209 152.631 404.148 146.855L424.147 146.641ZM419.876 154.945C419.796 155 419.716 155.054 419.635 155.107L408.659 138.388C408.618 138.415 408.577 138.443 408.535 138.471L419.876 154.945ZM423.284 151.444C422.025 153.498 420.325 154.793 418.84 155.57L409.571 137.847C408.57 138.371 407.245 139.34 406.233 140.991L423.284 151.444ZM415.178 145.539C424.696 148.607 424.695 148.61 424.694 148.613C424.694 148.613 424.693 148.616 424.692 148.618C424.691 148.622 424.69 148.625 424.689 148.629C424.686 148.636 424.684 148.644 424.682 148.651C424.677 148.666 424.672 148.681 424.667 148.696C424.657 148.726 424.646 148.757 424.636 148.788C424.614 148.85 424.592 148.915 424.567 148.981C424.519 149.114 424.464 149.256 424.402 149.406C424.279 149.704 424.127 150.036 423.94 150.393C423.567 151.103 423.039 151.935 422.302 152.782L407.215 139.653C406.797 140.133 406.479 140.625 406.236 141.089C406.114 141.322 406.007 141.553 405.912 141.782C405.865 141.896 405.821 142.011 405.779 142.126C405.758 142.183 405.738 142.241 405.718 142.298C405.708 142.327 405.698 142.356 405.689 142.385C405.684 142.399 405.679 142.414 405.674 142.428C405.672 142.436 405.669 142.443 405.667 142.45C405.666 142.454 405.665 142.457 405.664 142.461C405.663 142.463 405.662 142.465 405.662 142.466C405.661 142.469 405.66 142.472 415.178 145.539ZM416.78 125.092C421.164 126.551 422.874 130.21 423.236 130.987C423.855 132.316 424.177 133.607 424.355 134.443C424.73 136.204 424.909 138.122 425.008 139.602C425.113 141.17 425.154 142.674 425.17 143.759C425.178 144.309 425.18 144.768 425.18 145.097C425.18 145.262 425.179 145.394 425.179 145.489C425.178 145.537 425.178 145.576 425.178 145.604C425.178 145.619 425.178 145.631 425.177 145.64C425.177 145.645 425.177 145.649 425.177 145.652C425.177 145.654 425.177 145.655 425.177 145.657C425.177 145.657 425.177 145.658 425.177 145.659C425.177 145.66 425.177 145.66 415.178 145.539C405.179 145.418 405.179 145.419 405.179 145.42C405.179 145.42 405.179 145.421 405.179 145.421C405.179 145.422 405.179 145.423 405.179 145.423C405.179 145.424 405.179 145.424 405.179 145.424C405.179 145.423 405.179 145.42 405.179 145.415C405.179 145.404 405.179 145.384 405.179 145.356C405.18 145.298 405.18 145.207 405.18 145.086C405.18 144.844 405.179 144.487 405.172 144.053C405.159 143.17 405.127 142.039 405.053 140.938C404.973 139.747 404.868 138.96 404.795 138.614C404.748 138.396 404.803 138.783 405.108 139.436C405.266 139.774 405.631 140.492 406.317 141.295C407.003 142.096 408.337 143.36 410.464 144.068L416.78 125.092ZM423.034 126.944C423.249 129.329 423.438 131.63 423.597 133.874L403.647 135.285C403.499 133.196 403.321 131.027 403.115 128.742L423.034 126.944ZM421.084 125.605C429.533 130.954 429.529 130.96 429.526 130.965C429.524 130.967 429.521 130.973 429.518 130.977C429.513 130.985 429.508 130.992 429.503 131C429.493 131.016 429.483 131.032 429.472 131.048C429.451 131.081 429.429 131.114 429.406 131.149C429.36 131.218 429.31 131.291 429.257 131.368C429.149 131.522 429.025 131.692 428.884 131.874C428.603 132.237 428.249 132.655 427.815 133.1C426.947 133.991 425.735 135.012 424.128 135.904C420.726 137.794 416.302 138.684 411.118 137.65L415.031 118.036C415.7 118.17 415.281 117.941 414.42 118.419C414.084 118.605 413.777 118.849 413.496 119.137C413.355 119.281 413.215 119.443 413.075 119.624C413.004 119.715 412.932 119.813 412.859 119.917C412.823 119.969 412.786 120.024 412.748 120.08C412.73 120.108 412.711 120.137 412.692 120.166C412.682 120.181 412.673 120.196 412.663 120.21C412.659 120.218 412.654 120.225 412.649 120.233C412.647 120.237 412.643 120.242 412.642 120.244C412.638 120.25 412.635 120.256 421.084 125.605ZM418.203 108.074C421.422 108.871 424.497 110.259 426.969 112.578C429.559 115.009 430.939 117.955 431.417 120.816C431.864 123.497 431.477 125.785 431.087 127.248C430.884 128.011 430.652 128.651 430.452 129.139C430.351 129.386 430.255 129.602 430.17 129.784C430.127 129.875 430.087 129.958 430.05 130.033C430.031 130.07 430.014 130.106 429.996 130.139C429.988 130.156 429.98 130.172 429.972 130.188C429.967 130.196 429.963 130.204 429.96 130.211C429.958 130.215 429.955 130.221 429.954 130.223C429.951 130.228 429.948 130.234 421.084 125.605C412.22 120.976 412.217 120.981 412.214 120.987C412.213 120.989 412.21 120.994 412.208 120.998C412.204 121.005 412.201 121.012 412.197 121.019C412.19 121.034 412.182 121.048 412.175 121.062C412.161 121.09 412.147 121.117 412.134 121.143C412.108 121.196 412.083 121.247 412.061 121.295C412.016 121.391 411.976 121.481 411.942 121.566C411.874 121.731 411.813 121.904 411.763 122.094C411.678 122.411 411.526 123.129 411.69 124.11C411.884 125.272 412.461 126.391 413.283 127.162C413.986 127.822 414.326 127.718 413.397 127.488L418.203 108.074ZM413.233 107.139C414.779 107.33 416.428 107.635 418.203 108.074L413.397 127.488C412.332 127.225 411.472 127.073 410.785 126.989L413.233 107.139ZM421.109 108.045C421.407 110.842 421.691 113.497 421.955 116.024L402.063 118.104C401.802 115.603 401.521 112.971 401.222 110.169L421.109 108.045ZM421.106 108.022L421.106 108.023L401.224 110.192L401.224 110.19L421.106 108.022ZM421.11 108.058L421.11 108.059L401.22 110.153L401.22 110.152L421.11 108.058ZM420.264 100.096C420.557 102.882 420.839 105.522 421.108 108.043L401.221 110.167C400.952 107.647 400.669 104.993 400.374 102.191L420.264 100.096ZM340.111 430.239C341.071 422.052 342.004 413.836 342.816 406.234L362.703 408.359C361.881 416.049 360.94 424.337 359.975 432.569L340.111 430.239ZM362.684 408.523C361.741 416.158 360.843 424.163 359.99 432.43L340.096 430.377C340.96 421.999 341.873 413.859 342.835 406.071L362.684 408.523ZM334.524 596.277C333.012 595.456 331.961 594.405 331.27 593.532L346.961 581.13C346.382 580.398 345.449 579.45 344.062 578.697L334.524 596.277ZM329.006 589.712C329.119 588.617 329.233 587.524 329.348 586.435L349.237 588.539C349.124 589.61 349.012 590.684 348.901 591.76L329.006 589.712ZM349.104 587.809C349.049 588.953 348.995 590.085 348.943 591.207L328.965 590.265C329.018 589.138 329.072 588.001 329.127 586.852L349.104 587.809ZM228.454 581.864C227.585 590.982 226.467 601.048 225.397 610.685L205.519 608.478C206.593 598.804 207.693 588.9 208.545 579.967L228.454 581.864ZM219.464 570.67C220.223 570.961 220.87 571.184 221.416 571.35L215.583 590.481C214.513 590.154 213.414 589.771 212.288 589.338L219.464 570.67ZM218.011 570.213C218.232 570.275 218.454 570.339 218.678 570.404L213.075 589.603C212.913 589.556 212.752 589.51 212.59 589.464L218.011 570.213ZM217.31 570.019C217.543 570.083 217.778 570.147 218.014 570.214L212.587 589.464C212.417 589.416 212.247 589.369 212.077 589.323L217.31 570.019ZM204.127 584.77L204.744 578.665L224.643 580.677L224.026 586.782L204.127 584.77ZM200.636 580.51C202.244 580.514 203.627 580.452 204.77 580.333C205.943 580.211 206.67 580.05 207.042 579.934C207.485 579.798 207.012 579.857 206.271 580.506C205.86 580.867 205.352 581.425 204.921 582.214C204.48 583.022 204.215 583.902 204.127 584.77L224.026 586.782C223.21 594.847 216.359 597.988 212.953 599.041C209.099 600.233 204.614 600.52 200.59 600.51L200.636 580.51ZM187.68 619.641C190.153 610.333 190.588 596.998 190.613 590.472L210.613 590.549C210.588 597.089 210.209 612.736 207.009 624.778L187.68 619.641ZM195.281 636.132C193.842 633.726 192.332 631.286 190.369 629.375L204.319 615.044C208.391 619.007 211.089 623.599 212.444 625.863L195.281 636.132ZM200.252 641.963C198.814 641.052 197.907 639.979 197.58 639.584C197.146 639.059 196.797 638.555 196.565 638.207C196.113 637.528 195.632 636.719 195.281 636.132L212.444 625.863C212.649 626.206 212.808 626.472 212.949 626.703C213.092 626.936 213.173 627.063 213.214 627.124C213.27 627.209 213.184 627.069 212.987 626.831C212.882 626.704 212.685 626.476 212.403 626.204C212.138 625.947 211.651 625.508 210.95 625.064L200.252 641.963ZM201.256 647.338C200.043 644.541 199.049 642.328 198.315 640.816C197.94 640.041 197.707 639.605 197.599 639.419C197.539 639.315 197.606 639.442 197.782 639.684C197.871 639.808 198.068 640.071 198.366 640.394C198.606 640.656 199.244 641.324 200.252 641.963L210.95 625.065C212.77 626.217 213.809 627.718 213.967 627.936C214.362 628.479 214.683 629.009 214.911 629.404C215.38 630.214 215.859 631.157 216.312 632.091C217.236 633.997 218.367 636.525 219.606 639.385L201.256 647.338ZM223.133 631.643C222.715 635.776 221.553 640.788 220.053 646.086L200.809 640.637C202.214 635.678 202.995 632.003 203.234 629.631L223.133 631.643ZM225.397 610.688C224.573 618.106 223.778 625.266 223.133 631.643L203.234 629.631C203.891 623.137 204.698 615.873 205.519 608.48L225.397 610.688ZM225.397 610.687L225.397 610.688L205.519 608.48L205.519 608.478L225.397 610.687ZM225.381 610.822L225.381 610.823L205.535 608.342L205.535 608.341L225.381 610.822ZM193.576 620.106L189.384 624.255L175.315 610.04L179.507 605.891L193.576 620.106ZM181.235 620.26C183.546 622.389 186.396 622.875 188.558 622.592C190.467 622.341 191.903 621.531 192.866 620.745L180.217 605.253C181.577 604.142 183.525 603.08 185.958 602.761C188.643 602.409 192.027 603.01 194.784 605.548L181.235 620.26ZM179.127 617.115C179.14 616.578 179.092 616.524 179.153 616.811C179.188 616.977 179.3 617.446 179.605 618.069C179.913 618.696 180.525 619.696 181.653 620.625L194.365 605.184C197.432 607.709 198.375 611.048 198.716 612.65C199.112 614.514 199.154 616.308 199.12 617.623L179.127 617.115ZM180.678 607.288C184.523 606.636 188.182 606.814 191.581 607.676L186.666 627.062C186.002 626.894 185.158 626.814 184.022 627.007L180.678 607.288ZM320.137 881.283C320.859 882.646 321.294 884.32 321.407 884.731C321.66 885.643 321.947 886.784 322.258 888.081C322.883 890.693 323.669 894.216 324.557 898.383C326.336 906.733 328.563 917.857 330.792 929.836L311.129 933.494C308.928 921.665 306.735 910.712 304.996 902.551C304.125 898.463 303.378 895.122 302.808 892.739C302.521 891.54 302.294 890.652 302.131 890.063C301.83 888.972 301.947 889.671 302.464 890.647L320.137 881.283ZM327.027 767.592C327.49 766.971 327.75 766.451 327.856 766.226C327.978 765.969 328.039 765.796 328.053 765.756C328.076 765.688 328.033 765.803 327.942 766.19C327.762 766.953 327.535 768.168 327.278 769.895C326.767 773.312 326.233 778.064 325.699 783.808C324.635 795.256 323.62 810.126 322.795 825.015C321.971 839.894 321.343 854.689 321.049 865.966C320.901 871.618 320.839 876.304 320.873 879.647C320.89 881.336 320.93 882.552 320.982 883.329C321.009 883.73 321.029 883.862 321.022 883.812C321.018 883.788 320.99 883.592 320.915 883.292C320.869 883.108 320.666 882.282 320.137 881.283L302.464 890.647C301.503 888.832 301.278 887.009 301.24 886.76C301.135 886.049 301.071 885.316 301.027 884.663C300.938 883.332 300.892 881.681 300.874 879.849C300.836 876.151 300.905 871.188 301.055 865.443C301.357 853.925 301.994 838.931 302.826 823.909C303.657 808.896 304.689 793.753 305.785 781.957C306.331 776.079 306.906 770.9 307.497 766.941C307.79 764.978 308.112 763.143 308.476 761.601C308.656 760.836 308.883 759.984 309.175 759.15C309.4 758.507 309.934 757.055 310.999 755.629L327.027 767.592ZM319.772 823.63C319.497 808.894 317.905 792.519 315.899 780.666C314.875 774.609 313.836 770.312 313.008 768.065C312.435 766.51 312.507 767.46 313.826 768.696C314.676 769.493 317.18 771.407 320.957 770.975C324.581 770.561 326.5 768.297 327.027 767.592L310.999 755.629C312.052 754.218 314.512 751.581 318.687 751.104C323.015 750.61 326.08 752.77 327.499 754.099C329.953 756.399 331.187 759.555 331.776 761.154C333.272 765.217 334.553 771.025 335.619 777.329C337.796 790.196 339.475 807.562 339.769 823.256L319.772 823.63ZM321.165 884.533C311.584 881.666 311.584 881.667 311.584 881.668C311.584 881.669 311.583 881.67 311.583 881.67C311.583 881.671 311.583 881.671 311.583 881.671C311.583 881.671 311.583 881.669 311.584 881.666C311.587 881.658 311.591 881.643 311.598 881.621C311.61 881.577 311.632 881.505 311.661 881.404C311.719 881.203 311.808 880.891 311.924 880.476C312.155 879.645 312.491 878.401 312.897 876.804C313.71 873.607 314.794 869.013 315.863 863.497C318.015 852.392 320.038 837.877 319.772 823.63L339.769 823.256C340.071 839.439 337.791 855.468 335.498 867.301C334.344 873.254 333.171 878.226 332.281 881.729C331.836 883.482 331.46 884.871 331.192 885.836C331.058 886.318 330.95 886.695 330.874 886.958C330.836 887.089 330.806 887.192 330.784 887.266C330.773 887.303 330.765 887.333 330.758 887.355C330.755 887.366 330.752 887.375 330.75 887.383C330.749 887.387 330.748 887.39 330.747 887.393C330.747 887.394 330.746 887.396 330.746 887.396C330.745 887.398 330.745 887.399 321.165 884.533ZM310.96 931.612C311.027 919.09 311.078 907.312 311.112 898.663C311.13 894.339 311.143 890.798 311.151 888.338C311.156 887.108 311.159 886.148 311.161 885.496C311.162 885.17 311.163 884.921 311.164 884.754C311.164 884.67 311.164 884.606 311.164 884.564C311.165 884.543 311.165 884.527 311.165 884.516C311.165 884.511 311.165 884.507 311.165 884.504C311.165 884.503 311.165 884.502 311.165 884.501C311.165 884.501 311.165 884.501 311.165 884.501C311.165 884.5 311.165 884.5 321.165 884.533C331.165 884.565 331.165 884.565 331.165 884.565C331.165 884.566 331.165 884.566 331.165 884.566C331.165 884.567 331.165 884.568 331.165 884.569C331.165 884.572 331.165 884.576 331.165 884.581C331.164 884.592 331.164 884.608 331.164 884.63C331.164 884.672 331.164 884.736 331.164 884.82C331.163 884.988 331.162 885.238 331.161 885.564C331.159 886.217 331.156 887.178 331.151 888.409C331.143 890.872 331.129 894.416 331.112 898.743C331.078 907.397 331.027 919.185 330.96 931.718L310.96 931.612Z" fill="white" mask="url(#path-1-outside-1)"/>
<path d="M381.469 720.546C381.469 720.546 414.646 849.035 410.66 864.425C406.674 879.816 398.108 904.463 397.852 919.016C397.595 933.569 405.8 1020.66 397.855 1027.14C389.91 1033.63 347.562 1043.93 340.954 1037.18C334.347 1030.44 319.577 1008.29 320.185 1002.28C320.793 996.268 321.154 884.534 321.154 884.534C321.154 884.534 330.329 853.874 329.76 823.444C329.192 793.015 323.218 755.964 319.003 761.612C314.787 767.26 309.25 882.116 311.29 885.967C313.331 889.818 337.616 1010.12 329.076 1010.47C320.536 1010.82 265.798 1023.51 255.109 1009.07C244.421 994.622 244.716 943.626 248.837 914.885C252.957 886.144 233.742 859.904 237.255 837.176C240.767 814.448 236.726 770.303 236.726 770.303L263.992 692.876L381.469 720.546Z" fill="#5C414E"/>
<path d="M261.543 620.949C261.543 620.949 266.6 727.156 274.87 753.505C283.14 779.854 289.222 827.85 273.953 822.662C258.684 817.473 241.522 782.936 216.146 781.586C190.77 780.235 164.082 767.818 164.69 761.805C165.298 755.792 210.508 657.096 213.183 630.639C215.857 604.181 221.072 564.617 219.883 552.348C218.693 540.078 224.516 494.501 224.516 494.501L253.743 493.811L261.543 620.949Z" fill="#A75256"/>
<path d="M299.001 346.525C299.001 346.525 289.771 317.649 280.272 315.474C270.772 313.299 266.691 305.597 267.043 314.136C267.395 322.676 237.644 472.746 245.442 491.758C253.239 510.769 261.66 619.747 268.876 620.476C276.091 621.205 300.926 567.831 302.141 555.805C303.357 543.779 299.001 346.525 299.001 346.525Z" fill="#A75256"/>
<path d="M299.147 336.696C299.147 336.696 285.859 368.398 291.671 443.094C297.483 517.791 274 611.88 274 611.88C274 611.88 238.72 703.683 273.583 719.356C308.445 735.029 277.798 713.708 340.334 720.03C352.13 711.503 335.941 667.345 336.562 649.184C337.183 631.024 346.371 355.077 370.763 332.516C383.782 316.702 378.266 312.378 373.536 314.695C368.795 317.131 305.56 323.738 299.147 336.696Z" fill="#A75256"/>
<path d="M161.53 665.632C164.344 654.618 114.698 707.064 108.324 706.419C101.109 705.69 102.663 714.351 102.663 714.351C102.663 714.351 136.244 802.789 154.661 788.857C173.078 774.926 214.006 742.616 227.478 741.548C227.478 741.548 208.128 728.658 194.791 716.376C181.454 704.093 160.745 668.59 161.53 665.632Z" fill="#2C1E24"/>
<path d="M168.928 623.736C168.928 623.736 143.7 652.166 170.638 688.542C197.576 724.918 205.345 724.974 220.319 736.693C235.304 748.292 261.627 764.317 261.397 754.575C261.167 744.832 240.23 709.184 234.636 699.628C229.149 690.205 207.885 634.964 205.601 633.518C203.317 632.073 193.966 604.4 168.928 623.736Z" fill="#5C414E"/>
<path d="M193.428 657.803C193.428 657.803 174.199 643.71 183.672 670.18C193.145 696.651 203.699 724.446 221.738 726.269C239.777 728.093 228.616 706.311 228.616 706.311C228.616 706.311 214.575 676.949 193.428 657.803Z" fill="#2C1E24"/>
<path d="M181.718 617.376C180.323 617.964 171.526 622.055 167.468 626.14C166.794 626.801 165.616 626.439 165.473 625.453C164.278 618.042 165.533 592.413 170.035 588.738C174.272 585.279 176.703 584.066 177.473 583.658C177.726 583.562 177.966 583.587 178.207 583.611L199.624 586.87C200.226 586.93 200.658 587.46 200.597 588.061C200.674 594.508 200.575 630.338 189.698 634.584C182.612 636.176 187.894 623.589 188.496 622.435C188.509 622.314 188.509 622.314 188.521 622.194C188.738 621.244 190.02 614.57 188.002 612.908C187.557 612.499 186.931 612.679 186.534 613.003L182.079 617.412C181.971 617.28 181.851 617.268 181.718 617.376Z" fill="#F1AA9A"/>
<path d="M163.077 585.481C163.077 585.481 212.979 596.6 214.073 585.777C215.167 574.953 215.289 573.751 215.289 573.751L159.118 576.576L163.077 585.481Z" fill="#A75256"/>
<path d="M319.317 253.815L306.075 264.625L314.832 286.164L323.588 307.702L352.586 297.27L372.462 268.907L360.195 246.041L337.345 243.731L319.317 253.815Z" fill="#FEF1F0"/>
<path d="M306.403 46.2204C303.816 46.5663 301.41 47.538 299.436 49.0392C290.769 55.4525 267.247 74.2137 266.811 88.141C266.312 105.099 275.798 119.422 277.109 130.489C278.42 141.555 288.474 186.308 288.339 199.658C288.205 213.009 302.61 238.763 321.486 244.316C340.363 249.869 419.87 244.543 422.667 216.883C425.463 189.223 410.545 192.574 413.22 166.117C415.895 139.66 412.422 125.945 407.786 75.6652C393.587 37.0538 323.761 43.966 306.403 46.2204Z" fill="#F1AA9A"/>
<path d="M311.394 236.004L299.611 232.383C299.611 232.383 257.198 303.419 270.778 313.297C284.358 323.174 295.29 335.213 295.047 337.618C294.852 339.542 317.558 319.241 326.912 310.832C328.778 309.198 328.83 306.287 327.184 304.542C322.391 299.076 314.169 283.059 311.394 236.004Z" fill="#ECE6E6"/>
<path d="M380.307 239.328C380.307 239.328 363.796 270.461 324.313 300.486C284.831 330.512 288.656 352.767 299.006 346.524C309.356 340.281 372.769 313.889 377.58 314.376C382.39 314.862 411.594 236.295 406.422 235.772C401.359 235.381 380.307 239.328 380.307 239.328Z" fill="#CBBEBD"/>
<path d="M346.378 246.831C346.378 246.831 354.522 279.242 368.493 261.216C382.465 243.19 386.437 239.947 386.437 239.947L346.378 246.831Z" fill="#D8707A"/>
<path d="M345.668 245.543C345.668 245.543 311.604 270.042 311.009 263.908C310.415 257.773 307.671 236.843 310.076 237.086C312.482 237.329 345.668 245.543 345.668 245.543Z" fill="#D8707A"/>
<path d="M274.579 255.247C274.579 255.247 231.373 258.411 208.444 328.987C185.516 399.563 187.435 404.617 176.828 425.412C166.221 446.208 143.713 572.712 155.605 587.278C166.063 591.98 184.007 570.711 215.87 580.007C241.598 589.897 215.896 555.712 224.705 528.659C233.515 501.607 234.244 494.392 234.244 494.392L274.579 255.247Z" fill="#F37880"/>
<path d="M301.422 226.494C301.422 226.494 249.293 273.465 235.66 312.178C218.419 350.527 225.756 350.054 213.582 374.336C201.408 398.618 196.302 449.127 232.896 531.795C269.49 614.463 232.33 609.492 263.302 663.648C274.004 665.945 272.746 606.288 272.746 606.288C272.746 606.288 262.744 512.945 263.352 506.932C263.96 500.919 262.334 336.743 273.67 308.731C285.006 280.72 307.314 228.305 303.827 226.737C300.341 225.17 301.422 226.494 301.422 226.494Z" fill="#D8707A"/>
<path d="M311.705 58.6629C311.342 61.0559 311.567 63.63 312.058 65.9879C314.104 75.7925 317.158 98.4554 308.754 117.895C297.661 143.501 294.704 208.806 313.472 203.414C332.241 198.022 361.968 180.374 384.209 188.697C406.451 197.021 408.238 168.53 414.531 177.184C418.902 183.215 420.959 194.114 424.004 203.655C427.324 214.074 423.246 225.568 413.799 231.295C393.748 243.36 356.934 253.002 331.287 245.914C294.422 235.627 290.828 223.115 285.327 193.401C279.827 163.688 280.313 158.877 276.962 143.96C273.61 129.042 255.124 95.5857 265.001 82.0055C274.879 68.4253 294.025 47.2778 304.605 50.7772C311.194 52.9012 312.056 56.3901 311.705 58.6629Z" fill="#5C414E"/>
<path d="M413.016 134.509C413.016 134.509 389.21 138.055 394.823 141.417C400.437 144.779 414.431 149.352 414.916 145.757C415.51 142.294 414.449 133.561 413.016 134.509Z" fill="#FEF1F0"/>
<path d="M318.718 139.556C318.718 139.556 327.866 133.192 338.446 136.691C349.026 140.19 343.973 142.109 343.973 142.109C343.973 142.109 330.852 151.717 318.718 139.556Z" fill="#FEF1F0"/>
<path d="M396.196 118.229C396.196 118.229 382.552 123.41 392.047 129.23C392.96 129.808 394.175 129.809 395.21 129.185C397.81 127.504 403.827 124.467 410.018 126.916C418.193 130.172 421.085 125.605 421.085 125.605C421.085 125.605 424.098 119.835 415.801 117.781C407.505 115.727 404.856 117.89 402.451 117.646C400.046 117.403 396.196 118.229 396.196 118.229Z" fill="#5C414E"/>
<path d="M336.555 116.937C335.942 116.996 335.437 117.188 334.931 117.38C331.357 119.084 316.303 126.188 314.041 126.931C311.514 127.891 302.245 135.458 311.866 136.431C321.487 137.403 330.999 127.431 336.891 129.241C342.782 131.052 354.687 133.47 354.335 124.93C353.935 116.872 342.918 116.487 336.555 116.937Z" fill="#5C414E"/>
<path d="M375.082 123.993C376.405 124.126 377.402 125.078 377.762 126.329C379.175 131.574 384.22 148.971 387.982 151.417C392.549 154.309 396.131 178.969 391.32 178.482C386.51 177.996 377.132 174.618 375.469 155.012C373.807 135.405 371.766 131.554 372.253 126.744C372.496 124.339 373.879 123.871 375.082 123.993Z" fill="#E0A194"/>
<path d="M408.802 135.298C408.802 135.298 402.829 142.712 407.9 146.627C414.116 148.835 415.178 145.54 415.178 145.54C415.178 145.54 415.31 134.62 413.494 134.557C411.81 134.387 408.802 135.298 408.802 135.298Z" fill="#2C1E24"/>
<path d="M336.034 136.447C336.034 136.447 331.832 140.76 334.46 146.007C341.905 145.666 344.627 142.783 345.074 140.763C345.521 138.742 336.155 135.244 336.034 136.447Z" fill="#2C1E24"/>
<path d="M447.826 318.928C447.826 318.928 429.478 690.29 431.505 706.289C433.532 722.287 440.873 829.94 430.049 828.846C419.226 827.752 351.962 856.184 353.542 840.55C355.123 824.916 355.918 756.962 339.729 712.804C323.54 668.646 349.385 504.332 352.553 499.428C355.734 494.404 447.826 318.928 447.826 318.928Z" fill="#A75256"/>
<path d="M462.934 683.829L453.937 772.822C453.937 772.822 451.657 879.502 450.684 889.123C449.711 898.744 451.337 1062.92 444.365 1059.79C437.392 1056.65 432.122 1036.68 434.176 1028.38C436.229 1020.09 436.052 961.753 436.782 954.537C437.511 947.322 438.185 880.57 438.793 874.557C439.401 868.544 438.142 808.887 438.75 802.874C439.358 796.861 445.368 689.343 445.368 689.343L446.098 682.127L462.934 683.829Z" fill="#2C1E24"/>
<path d="M357.543 202.521C355.978 203.578 354.305 204.502 352.44 204.921C345.968 206.454 332.83 210.228 334.257 214.139C336.176 219.192 328.947 230.61 344.581 232.191C360.215 233.771 362.755 220.664 375.862 223.204C388.969 225.744 397.509 225.393 395.833 217.934C394.157 210.475 402.102 203.989 382.982 200.841C367.939 198.227 360.672 200.408 357.543 202.521Z" fill="#F1AA9A"/>
<path d="M350.989 216.926C350.989 216.926 349.178 222.817 353.151 219.574C357.123 216.331 361.096 213.088 364.704 213.453C368.312 213.818 376.73 214.669 376.973 212.263C377.216 209.858 369.879 210.331 367.474 210.088C365.068 209.845 351.232 214.521 350.989 216.926Z" fill="#2C1E24"/>
<path d="M417.322 250.479C417.322 250.479 461.431 268.424 470.944 280.077C482.836 294.643 504.985 388 504.985 388C504.985 388 513.337 449.589 510.88 497.936C508.422 546.284 499.967 690.002 487.941 688.786C475.915 687.57 416.123 702.179 416.744 684.018C416.744 684.018 410.297 639.63 420.552 610.294C430.807 580.959 435.697 508.559 435.697 508.559C435.697 508.559 443.856 415.837 443.761 392.744C443.665 369.651 436.124 336.087 436.124 336.087L417.322 250.479Z" fill="#F37880"/>
<path d="M411.813 240.083C421.421 253.203 462.986 298.712 453.204 335.385C443.422 372.058 412.48 401.732 406.696 410.866C400.913 420.001 348.238 504.821 348.684 536.454C349.131 568.086 337.451 603.109 338.558 580.138C339.665 557.167 342.988 488.254 342.988 488.254C342.988 488.254 354.242 402.162 355.375 377.735C357 343.64 375.278 325.077 376.628 299.701C377.979 274.324 402.205 226.963 411.813 240.083Z" fill="#D8707A"/>
<path d="M295.958 52.2113C295.958 52.2113 289.398 67.8278 327.86 69.5293C366.442 71.243 380.283 73.7356 392.028 89.7448C392.028 89.7448 414.618 110.252 413.238 96.2626C411.966 82.4057 404.701 60.532 387.81 53.3574C370.919 46.1827 316.429 29.9829 295.958 52.2113Z" fill="#5C414E"/>
</svg>
