<svg width="614" height="805" fill="none" xmlns="http://www.w3.org/2000/svg"><mask id="a" maskUnits="userSpaceOnUse" x="92.336" y="30.911" width="429" height="1039" fill="#000"><path fill="#fff" d="M92.336 30.911h429v1039h-429z"/><path fill-rule="evenodd" clip-rule="evenodd" d="M410.319 101.144c2.037.04 3.278-1.273 2.922-4.884-1.272-13.857-8.537-35.73-25.427-42.905-16.052-6.818-66.061-21.787-88.559-4.18a183.019 183.019 0 00-4.284 3.282c-10.241 5.268-22.647 19.484-29.965 29.545-7.106 9.77.469 29.829 6.526 45.869 2.362 6.256 4.494 11.9 5.434 16.085 1.676 7.459 2.392 12.391 3.377 19.173.985 6.782 2.239 15.413 4.989 30.269 3.016 16.295 5.459 27.416 13.131 35.835-4.753 4.48-14.652 14.096-25.372 26.213-7.797 1.318-44.243 10.753-64.64 73.538-9.733 29.958-14.988 48.11-18.625 60.672-4.931 17.031-6.887 23.785-12.991 35.753-10.607 20.796-33.115 147.3-21.224 161.866 3.011 1.354 6.641.555 11.046-1.047 1.429.288 3.227.638 5.281 1.012a65.81 65.81 0 00-1.896 1.494c-4.502 3.675-5.757 29.304-4.562 36.714.106.731.78 1.119 1.396 1.003-3.878 5.671-11.55 19.782-7.545 38.24-4.269 2.291-13.846 10.985-23.609 19.848v.001c-12.071 10.958-24.428 22.176-27.397 21.876-7.216-.73-5.662 7.932-5.662 7.932s33.581 88.437 51.998 74.506c1.912-1.446 4.066-3.09 6.406-4.876l.027-.021c4.722-3.604 10.201-7.786 15.981-12.092 10.014 4.671 24.752 8.957 39.072 9.719 8.094.431 15.352 4.238 21.979 9.391.715 14.572 1.078 33.65-.861 46.199-1.665 10.769 1.774 22.326 5.414 34.565 4.043 13.591 8.336 28.021 6.168 43.145-4.12 28.741-4.416 79.736 6.272 94.176 8.558 11.57 45.349 5.74 64.063 2.78l.025-.01c1.435-.22 2.764-.43 3.965-.62 4.552 9 13.17 21.25 17.793 25.97 6.607 6.74 48.955-3.55 56.9-10.04 5.815-4.75 2.979-52.671 1.141-83.732-.673-11.377-1.213-20.492-1.144-24.394.19-10.769 4.93-27.065 8.997-41.048 1.429-4.913 2.775-9.541 3.811-13.542 1.028-3.967-.414-15.449-3.12-30.307 10.426-3.129 19.159-5.61 22.503-5.272 10.824 1.094 3.483-106.559 1.456-122.558-.19-1.501-.201-6.13-.064-13.287 4.116.311 8.817.229 13.726-.076-1.049 18.718-5.876 104.592-6.417 109.948-.304 3.006-.142 19.424.021 35.841.162 16.418.325 32.835.021 35.842-.29 2.869-.595 19.571-.914 37.034v.001c-.35 19.13-.716 39.173-1.097 42.945-.264 2.608-.409 11.896-.584 23.085v.001c-.309 19.764-.711 45.459-2.022 50.759-2.054 8.3 3.217 28.27 10.189 31.4 5.117 2.3 5.603-85.5 5.884-136.202.102-18.388.177-31.897.435-34.457.973-9.621 3.254-116.301 3.254-116.301l8.244-81.552c2.317-.28 4.584-.567 6.76-.843l.024-.003c8.488-1.075 15.606-1.976 18.975-1.636 12.026 1.216 20.481-142.502 22.939-190.849C513.341 449.589 504.989 388 504.989 388s-22.15-93.357-34.041-107.923c-7.784-9.535-38.734-23.284-49.725-27.965a777.352 777.352 0 00-4.49-5.706c-2.025-2.556-3.715-4.691-4.911-6.324-1.349-1.842-2.986-2.492-4.808-2.177.08-1.329-.101-2.086-.593-2.136-.288-.022-.628-.03-1.014-.026 3.031-1.425 5.849-2.919 8.396-4.452 9.448-5.726 13.526-17.22 10.205-27.639-.825-2.587-1.578-5.273-2.324-7.936-2.005-7.157-3.962-14.139-7.148-18.535-.523-.718-1.014-1.181-1.489-1.43-.228-2.727-.202-5.881.177-9.635.713-7.05.989-13.195.923-19.368a1.19 1.19 0 00.058-.04c.243-.126.43-.289.553-.491.32-.367.42-.678.42-.678s.126-10.399-1.556-10.959a344.522 344.522 0 00-.548-6.737c5.853 1.168 8.01-2.238 8.01-2.238s3.013-5.77-5.284-7.824a32.363 32.363 0 00-3.791-.717 3786.43 3786.43 0 00-.844-7.957v-.002c-.269-2.52-.552-5.168-.846-7.961zm-60.276 330.26a2397.4 2397.4 0 002.717-24.107 1210.952 1210.952 0 00-2.717 24.107zm-10.927 155.927a.59.59 0 00.177.156c-.114 1.08-.228 2.163-.339 3.249l.162-3.405zm-123.658 22.251c1.072-9.656 2.181-19.641 3.042-28.667a38.924 38.924 0 01-2.624-.911 62.24 62.24 0 00-1.182-.333l-.618 6.105c-.36 3.569-6.028 4.752-13.463 4.734-.025 6.533-.432 21.025-3.269 31.699 3.018 2.938 5.121 6.454 6.518 8.789.797 1.331 1.364 2.278 1.739 2.516.579.366 2.378 4.19 4.83 9.848 1.452-5.129 2.424-9.473 2.753-12.725.65-6.436 1.451-13.648 2.274-21.053v-.002zm-33.108 7.566l4.192-4.149c.397-.324 1.022-.504 1.467-.095.935.77 1.162 2.613 1.115 4.465-2.032-.515-4.283-.644-6.774-.221zm138.61 314.517c-4.429-23.809-8.84-44.153-9.659-45.7-2.041-3.851 3.496-118.706 7.712-124.355 4.215-5.648 10.189 31.403 10.757 61.833.569 30.43-8.605 61.09-8.605 61.09s-.072 22.077-.205 47.132z"/></mask><path d="M413.241 96.26l-9.952.982-.003-.034-.003-.034 9.958-.914zm-2.922 4.884l-9.945 1.047-1.187-11.269 11.329.224-.197 9.998zm-22.505-47.79l-3.91 9.205 3.91-9.204zm-88.559-4.179l6.163 7.875-.1.079-.103.076-5.96-8.03zm-4.284 3.282l6.198 7.848-.761.601-.863.444-4.574-8.893zm-29.965 29.545l8.087 5.882-8.087-5.882zm6.526 45.869l-9.355 3.533 9.355-3.533zm5.434 16.085l9.757-2.192-9.757 2.192zm3.377 19.173l9.896-1.438.104.715v.723h-10zm0 0l-9.904 1.382-.096-.688v-.694h10zm0 0l-9.896 1.437-.004-.027-.004-.028 9.904-1.382zm4.989 30.269l-9.833 1.82 9.833-1.82zm13.131 35.835l7.391-6.735 6.623 7.267-7.155 6.745-6.859-7.277zm-25.372 26.213l7.49 6.626-2.341 2.645-3.482.589-1.667-9.86zm-64.64 73.538l-9.511-3.09 9.511 3.09zm-18.625 60.672l9.605 2.781-9.605-2.781zm-12.991 35.753l8.908 4.544-8.908-4.544zm-21.224 161.866l-4.1 9.121-2.154-.968-1.492-1.829 7.746-6.324zm11.046-1.047l-3.418-9.397 2.638-.96 2.752.554-1.972 9.803zm5.281 1.012l1.794-9.838 22.356 4.078-18.109 13.729-6.041-7.969zm-1.896 1.494l6.324 7.746-6.324-7.746zm-4.562 36.714l9.873-1.591.012.077.011.077-9.896 1.437zm1.396 1.003l-1.849-9.828 23.737-4.465-13.634 19.938-8.254-5.645zm-7.545 38.24l9.773-2.121 1.599 7.368-6.643 3.564-4.729-8.811zm-23.609 19.848l-7.071-7.071.171-.171.178-.162 6.722 7.404zm0 .001l7.071 7.071-.171.17-.179.163-6.721-7.404zm-27.397 21.876l-1.006 9.949 1.006-9.949zm-5.662 7.932l-9.348 3.549-.33-.868-.164-.915 9.842-1.766zm51.998 74.506l6.033 7.975-6.033-7.975zm6.406-4.876l6.069 7.947-.002.002-6.067-7.949zm.027-.021l-6.069-7.948.002-.001 6.067 7.949zm15.981-12.092l-5.975-8.019 4.789-3.568 5.413 2.524-4.227 9.063zm39.072 9.719l.531-9.986-.531 9.986zm21.979 9.391l6.139-7.894 3.624 2.819.225 4.586-9.988.489zm-.861 46.199l9.882 1.527-9.882-1.527zm5.414 34.565l9.585-2.852-9.585 2.852zm6.168 43.145l9.899 1.419-9.899-1.419zm6.272 94.176l-8.038 5.95 8.038-5.95zm64.063 2.78l-1.564-9.88h.019l1.545 9.88zm.025-.01l1.565 9.88h-.02l-1.545-9.88zm3.965-.62l-1.517-9.88 7.167-1.1 3.273 6.47-8.923 4.51zm17.793 25.97l7.142-7-7.142 7zm56.9-10.04l6.324 7.75-6.324-7.75zm1.141-83.732l-9.983.591 9.983-.591zm-1.144-24.394l-9.998-.176 9.998.176zm8.997-41.048l-9.602-2.793 9.602 2.793zm3.811-13.542l9.681 2.507-9.681-2.507zm-3.12-30.307l-9.839 1.791-1.602-8.799 8.566-2.57 2.875 9.578zm22.503-5.272l-1.006 9.949 1.006-9.949zm1.456-122.558l-9.921 1.257 9.921-1.257zM431.445 693l-9.999-.191.202-10.576 10.548.795-.751 9.972zm13.726-.076l-.619-9.981 11.233-.697-.63 11.238-9.984-.56zm-6.417 109.948l-9.95-1.006 9.95 1.006zm.021 35.841l-10 .099 10-.099zm.021 35.842l9.949 1.006-9.949-1.006zm-.914 37.034h-10v-.091l.002-.091 9.998.182zm0 .001h10v.091l-.002.091-9.998-.182zm-1.097 42.945l-9.949-1.006 9.949 1.006zm-.584 23.085h-10v-.078l.001-.078 9.999.156zm0 .001h10v.078l-.001.078-9.999-.156zm-2.022 50.759l9.707 2.4-9.707-2.4zm10.189 31.4l-4.1 9.12 4.1-9.12zm5.884-136.202l10 .055-10-.055zm.435-34.457l9.95 1.006-9.95-1.006zm3.254-116.301l-9.998-.214.008-.397.04-.395 9.95 1.006zm8.244-81.552l-9.949-1.006.805-7.96 7.943-.961 1.201 9.927zm6.76-.843l1.292 9.916-.018.003-.018.002-1.256-9.921zm.024-.003l-1.291-9.916.017-.003.018-.002 1.256 9.921zm18.975-1.636l1.006-9.949-1.006 9.949zm22.939-190.849l9.987.507-9.987-.507zM504.989 388l9.73-2.309.113.478.066.487-9.909 1.344zm-34.041-107.923l7.746-6.324-7.746 6.324zm-49.725-27.965l-3.919 9.2-2.384-1.015-1.591-2.046 7.894-6.139zm-4.49-5.706l-7.839 6.209 7.839-6.209zm-4.911-6.324l-8.068 5.908 8.068-5.908zm-4.808-2.177l1.7 9.854-12.441 2.146.759-12.602 9.982.602zm-.593-2.136l.769-9.97.118.009.119.012-1.006 9.949zm-1.014-.026l.114 9.999-4.369-19.048 4.255 9.049zm8.396-4.452l5.184 8.552-.014.008-.014.009-5.156-8.569zm10.205-27.639l9.527-3.041.001.004-9.528 3.037zm-2.324-7.936l9.629-2.698-9.629 2.698zm-7.148-18.535l8.087-5.881.005.006.004.006-8.096 5.869zm-1.489-1.43l-4.643 8.857-4.864-2.551-.458-5.473 9.965-.833zm.177-9.635l9.95 1.006-9.95-1.006zm.923-19.368l-9.999.107-.059-5.467 4.57-3 5.488 8.36zm.058-.04l-5.67-8.237.499-.343.537-.281 4.634 8.861zm.553-.491l-8.525-5.226.435-.71.547-.628 7.543 6.564zm.42-.678l9.999.121-.018 1.51-.463 1.437-9.518-3.068zm-1.556-10.959l-3.158 9.488-6.345-2.112-.472-6.671 9.975-.705zm-.548-6.737l-9.959.899-1.202-13.322 13.118 2.616-1.957 9.807zm8.01-2.238l8.864 4.629-.193.368-.222.352-8.449-5.349zm-5.284-7.824l2.403-9.707-2.403 9.707zm-3.791-.717l-1.224 9.925-7.894-.974-.828-7.911 9.946-1.04zm-.844-7.957l9.941-1.084.001.011.002.011-9.944 1.062zm0-.001l-9.941 1.084-.002-.018-.002-.019 9.945-1.047zm0-.001l9.943-1.062.001.008.001.007-9.945 1.047zm-61.122 322.299l9.932 1.165-19.879-2.192 9.947 1.027zm2.717-24.107l-9.925-1.226 19.868 2.288-9.943-1.062zm-13.467 180.19l4.769-8.79 5.879 3.19-.704 6.652-9.944-1.052zm-.177-.156l-9.989-.479 1.277-26.67 16.557 20.948-7.845 6.201zm-.162 3.405l9.947 1.024-19.936-1.495 9.989.471zM218.5 580.915l2.916-9.565 7.813 2.382-.775 8.132-9.954-.949zm-3.042 28.667l9.939 1.103-.008.069-.008.068-9.923-1.24zm.418-29.578l2.802-9.6.398.117.388.149-3.588 9.334zm-.576-.165l-2.71 9.625h-.003l2.713-9.625zm-.606-.168l-9.95-1.006 1.186-11.73 11.38 3.084-2.616 9.652zm-.618 6.105l9.95 1.006-9.95-1.006zm-13.463 4.734l-10-.038.039-9.985 9.984.023-.023 10zm-3.269 31.699l-6.975 7.166-4.192-4.08 1.503-5.654 9.664 2.568zm6.518 8.789l-8.581 5.134 8.581-5.134zm1.739 2.516l5.349-8.45v.001l-5.349 8.449zm4.83 9.848l9.622 2.724-7.643 26.989-11.154-25.737 9.175-3.976zm2.753-12.725l-9.95-1.006 9.95 1.006zm2.274-21.053l-9.939-1.104 9.939 1.104zm0-.002l-9.939-1.104.008-.068.008-.068 9.923 1.24zm-28.916 3.417l-7.035-7.108.34-.336.37-.302 6.325 7.746zm-4.192 4.149l1.672 9.859-31.195 5.29 22.488-22.257 7.035 7.108zm5.659-4.244l-6.356 7.721-.214-.177-.204-.188 6.774-7.356zm1.115 4.465l9.996.254-.318 12.517-12.136-3.078 2.458-9.693zm122.177 268.596l8.836-4.682-8.836 4.682zm9.659 45.7l10 .053-19.831 1.776 9.831-1.829zm8.81-108.222l-9.998.187 9.998-.187zm-8.605 61.09l-10-.033.004-1.447.415-1.387 9.581 2.867zM423.193 95.278c.261 2.652.235 6.724-2.215 10.371-2.952 4.392-7.522 5.559-10.856 5.493l.394-19.996c-.55-.011-1.598.055-2.839.598a7.729 7.729 0 00-3.3 2.75c-1.409 2.098-.993 3.708-1.088 2.748l19.904-1.964zm-31.47-51.127c11.387 4.836 18.885 14.324 23.589 23.645 4.727 9.367 7.153 19.547 7.887 27.55l-19.916 1.828c-.537-5.853-2.38-13.54-5.826-20.367-3.469-6.874-8.049-11.91-13.553-14.248l7.819-18.408zm-98.631-2.85c7.56-5.918 16.877-8.696 26.05-9.79 9.226-1.1 18.997-.58 28.178.688 18.312 2.531 35.681 8.247 44.403 11.952l-7.819 18.408c-7.33-3.113-22.991-8.291-39.321-10.548-8.14-1.125-16.092-1.473-23.073-.64-7.032.838-12.403 2.792-16.092 5.679L293.092 41.3zm-4.318 3.308a191.82 191.82 0 014.521-3.464l11.92 16.06c-1.122.833-2.501 1.88-4.046 3.1L288.774 44.61zM256.919 76.12c3.889-5.347 9.117-11.786 14.789-17.644 5.526-5.707 12.098-11.52 18.689-14.911l9.148 17.785c-3.649 1.877-8.401 5.805-13.468 11.038-4.921 5.082-9.555 10.782-12.984 15.496L256.919 76.12zm5.258 55.284c-2.965-7.85-6.673-17.61-8.623-26.727-1.809-8.457-2.946-19.88 3.365-28.557l16.174 11.764c-.795 1.093-1.698 4.585.019 12.61 1.575 7.364 4.682 15.654 7.775 23.845l-18.71 7.065zm5.032 14.744c-.749-3.335-2.562-8.203-5.032-14.744l18.71-7.065c2.255 5.969 4.705 12.391 5.836 17.425l-19.514 4.384zm3.238 18.418c-.981-6.754-1.652-11.361-3.238-18.418l19.514-4.384c1.766 7.861 2.527 13.118 3.516 19.927l-19.792 2.875zm-.104-1.437h20-20zm.096 1.382l19.808-2.764-19.808 2.764zm5.06 30.707c-2.784-15.036-4.058-23.809-5.052-30.652l19.792-2.874c.976 6.72 2.209 15.209 4.926 29.886l-19.666 3.64zm15.572 40.75c-9.914-10.879-12.658-25.006-15.572-40.75l19.666-3.64c3.118 16.846 5.261 24.962 10.689 30.92l-14.783 13.47zm-25.469 12.852c10.984-12.416 21.112-22.255 26.001-26.864l13.719 14.554c-4.617 4.352-14.285 13.744-24.741 25.562l-14.979-13.252zm-66.662 77.074c10.716-32.983 25.925-52.732 40.211-64.459 14.247-11.693 27.027-14.963 32.274-15.849l3.333 19.72c-2.551.431-11.892 2.539-22.917 11.588-10.985 9.017-24.197 25.378-33.879 55.18l-19.022-6.18zm-18.72 60.98c3.651-12.61 8.94-30.877 18.72-60.98l19.022 6.18c-9.686 29.813-14.908 47.85-18.531 60.363l-19.211-5.563zm-12.294 33.992c5.63-11.037 7.366-16.971 12.294-33.992l19.211 5.563c-4.934 17.042-7.109 24.616-13.688 37.516l-17.817-9.087zm-20.061 172.733c-1.987-2.434-3.065-5.279-3.72-7.613-.692-2.466-1.133-5.188-1.419-7.975-.572-5.575-.609-12.331-.298-19.672.625-14.736 2.711-32.957 5.471-51.16 2.766-18.24 6.246-36.699 9.722-51.972 3.367-14.799 6.993-27.846 10.305-34.341l17.817 9.087c-1.991 3.903-5.156 14.467-8.621 29.692-3.356 14.75-6.749 32.726-9.449 50.533-2.706 17.843-4.681 35.279-5.263 49.009-.292 6.892-.22 12.572.212 16.784.216 2.107.5 3.616.78 4.614.316 1.129.456.979-.045.366l-15.492 12.648zm22.21 2.027c-4.236 1.54-11.486 3.952-18.564.77l8.201-18.241c-.645-.29-.957-.14-.348-.217.715-.09 1.891-.386 3.875-1.107l6.836 18.795zm.069 1.452a307.67 307.67 0 01-5.459-1.046l3.944-19.607c1.379.277 3.117.615 5.103.977l-3.588 19.676zm-6.426-16.091a75.985 75.985 0 012.178-1.715l12.083 15.937c-.488.37-1.025.792-1.613 1.271l-12.648-15.493zm-8.11 46.053c-.803-4.977-.689-14.249.06-22.278.387-4.143.985-8.446 1.873-12.128.441-1.83 1.015-3.765 1.79-5.551.674-1.555 1.965-4.118 4.387-6.096l12.648 15.493c1.297-1.058 1.564-2.017 1.313-1.438-.151.348-.405 1.077-.696 2.282-.576 2.388-1.061 5.646-1.401 9.296-.705 7.556-.622 14.804-.229 17.237l-19.745 3.183zm13.116 9.239c-5.656 1.064-12.139-2.499-13.14-9.394l19.792-2.874c-.789-5.434-5.925-8.22-10.349-7.388l3.697 19.656zm-19.165 30.532c-4.835-22.284 4.444-39.251 9.062-46.005l16.509 11.29c-3.137 4.588-9.201 15.844-6.026 30.474l-19.545 4.241zM129 677.135c4.852-4.405 9.795-8.893 14.066-12.566 3.976-3.42 8.267-6.935 11.537-8.69l9.457 17.623c-1 .537-3.632 2.514-7.952 6.23-4.026 3.462-8.753 7.753-13.665 12.211L129 677.135zm-.35.334l.001-.001 14.142 14.142v.001l-14.143-14.142zm-19.319 18.998c-1.44-.146-2.506.101-2.916.21-.473.126-.746.255-.763.263-.02.009.269-.132.948-.586 1.325-.887 3.208-2.339 5.612-4.34 4.768-3.969 10.698-9.35 16.788-14.878l13.443 14.808c-5.981 5.43-12.265 11.137-17.435 15.441-2.566 2.136-5.083 4.117-7.286 5.591-1.086.727-2.344 1.499-3.655 2.107-.9.418-3.525 1.608-6.748 1.282l2.012-19.898zm-6.668 17.881c-9.842 1.766-9.843 1.762-9.844 1.758a.43.43 0 01-.001-.008l-.003-.016-.006-.037a8.996 8.996 0 01-.047-.291 22.482 22.482 0 01-.22-2.337c-.055-1.325-.028-3.419.54-5.712.56-2.265 1.862-5.55 4.99-8.104 3.346-2.732 7.414-3.523 11.259-3.134l-2.012 19.898c.059.006.502.042 1.187-.134a5.867 5.867 0 002.214-1.137c1.39-1.135 1.728-2.392 1.775-2.583.055-.219.019-.193.03.083.004.095.011.165.014.185l-.005-.032-.01-.064-.008-.046a.294.294 0 00-.005-.026.077.077 0 00-.002-.015l-.001-.007c-.001-.004-.002-.007-9.845 1.759zm58.031 82.481c-5.561 4.207-11.926 4.27-17.306 2.093-4.745-1.92-8.782-5.532-12.031-9.117-6.626-7.312-13.026-17.995-18.454-28.33-5.522-10.513-10.413-21.403-13.906-29.611a481.192 481.192 0 01-4.142-10.037 332.136 332.136 0 01-1.43-3.641c-.034-.089-.06-.159-.08-.207a3.169 3.169 0 01-.02-.057l-.007-.016-.002-.005c0-.002-.001-.004 9.347-3.553l9.349-3.551v.001l.003.007.015.04.066.171.27.699c.24.618.599 1.533 1.064 2.699a462.163 462.163 0 003.97 9.618c3.378 7.939 8.034 18.289 13.209 28.143 5.27 10.033 10.717 18.847 15.568 24.2 2.489 2.746 4.097 3.758 4.714 4.008.188.076-.123-.088-.779-.027-.727.068-1.261.354-1.484.523l12.066 15.95zm6.44-4.902c-2.336 1.782-4.508 3.44-6.44 4.902l-12.066-15.95c1.891-1.431 4.027-3.061 6.372-4.851l12.134 15.899zm.029-.022l-.027.02-12.138-15.895.027-.021 12.138 15.896zm15.886-12.021c-5.726 4.266-11.162 8.415-15.888 12.022l-12.134-15.898c4.717-3.601 10.241-7.817 16.073-12.162l11.949 16.038zm32.567 11.686c-15.73-.837-31.716-5.488-42.768-10.642l8.454-18.126c8.977 4.187 22.466 8.109 35.376 8.796l-1.062 19.972zm16.372 7.3c-5.833-4.536-11.152-7.022-16.373-7.3l1.063-19.972c10.967.584 20.165 5.712 27.587 11.483l-12.277 15.789zm-4.606 36.777c1.765-11.422 1.473-29.558.756-44.182l19.976-.979c.712 14.519 1.147 34.539-.967 48.215l-19.765-3.054zm5.712 38.943c-3.461-11.636-7.787-25.515-5.712-38.943l19.765 3.054c-1.253 8.11 1.297 17.346 5.117 30.186l-19.17 5.703zm5.854 38.874c1.808-12.607-1.709-24.941-5.854-38.874l19.17-5.703c3.942 13.249 9.011 29.777 6.482 47.416l-19.798-2.839zm8.133 101.546c-4.056-5.48-6.373-13.22-7.847-20.806-1.539-7.921-2.41-17.085-2.796-26.457-.771-18.732.359-39.28 2.51-54.283l19.798 2.839c-1.97 13.738-3.048 33.058-2.325 50.621.362 8.775 1.163 16.864 2.446 23.465 1.348 6.936 3.003 10.991 4.291 12.731l-16.077 11.89zm73.666 6.7c-9.255 1.47-23.756 3.78-37.102 4.18-6.655.21-13.532-.04-19.583-1.31-5.74-1.2-12.637-3.7-16.981-9.57l16.077-11.89c-.066-.09.846 1.02 4.996 1.88 3.838.81 8.933 1.08 14.885.9 11.868-.36 25.119-2.44 34.579-3.94l3.129 19.75zm.005 0l-.024.01-3.091-19.76.025-.01 3.09 19.76zm3.937-.61c-1.173.18-2.476.38-3.917.61l-3.13-19.75c1.43-.23 2.783-.44 4.013-.63l3.034 19.77zm9.133 23.08c-5.494-5.61-14.669-18.76-19.573-28.45l17.846-9.03c4.2 8.3 12.26 19.65 16.012 23.48l-14.285 14zm70.367-9.29c-3.531 2.88-9.258 5.21-14.406 6.97-5.632 1.92-12.289 3.71-18.862 5.06-6.523 1.33-13.321 2.31-19.159 2.45-2.9.07-5.913-.06-8.689-.6-2.494-.49-6.298-1.58-9.251-4.59l14.285-14c-1.301-1.32-2.336-1.26-1.218-1.04.835.16 2.277.28 4.401.23 4.208-.1 9.732-.84 15.616-2.04 5.832-1.2 11.665-2.78 16.415-4.4 2.376-.81 4.372-1.6 5.907-2.3.763-.35 1.35-.66 1.778-.9.451-.26.59-.38.535-.34l12.648 15.5zm4.799-92.072c.916 15.473 2.101 35.463 2.317 52.195.107 8.337-.021 16.157-.593 22.337-.283 3.05-.704 6.05-1.376 8.62-.337 1.3-.799 2.73-1.47 4.13-.628 1.3-1.739 3.2-3.677 4.79l-12.648-15.5c-1.211.99-1.662 1.96-1.695 2.03-.074.16-.003.05.136-.49.279-1.07.576-2.84.816-5.43.474-5.12.613-12.11.508-20.229-.208-16.182-1.36-35.684-2.283-51.272l19.965-1.181zm-1.128-23.628c-.06 3.404.438 11.963 1.128 23.628l-19.965 1.181c-.656-11.09-1.237-20.762-1.159-25.161l19.996.352zm8.601-38.431c-2.047 7.037-4.178 14.372-5.83 21.266-1.679 7.011-2.696 12.911-2.771 17.165l-19.996-.352c.114-6.514 1.563-14.148 3.318-21.472 1.782-7.443 4.055-15.247 6.075-22.193l19.204 5.586zm3.89-13.828c-1.081 4.174-2.473 8.957-3.89 13.828l-19.204-5.586c1.441-4.955 2.741-9.428 3.733-13.256l19.361 5.014zm-2.963-34.606c1.371 7.528 2.455 14.378 3.063 19.944.303 2.778.504 5.377.544 7.658.037 2.088-.036 4.657-.644 7.004l-19.361-5.014c-.094.363.037.009.008-1.636-.025-1.452-.162-3.396-.429-5.841-.533-4.882-1.522-11.201-2.858-18.532l19.677-3.583zm11.659 6.469c.503.051.379-.036-.864.164-1.066.172-2.498.476-4.317.928-3.641.904-8.216 2.24-13.442 3.809l-5.749-19.156c5.2-1.561 10.204-3.029 14.373-4.064 2.085-.518 4.116-.966 5.954-1.262 1.66-.267 3.882-.537 6.057-.318l-2.012 19.899zM441.43 705.03c1.072 8.458 3.427 39.736 4.167 68.69.37 14.473.348 28.748-.496 39.471-.414 5.257-1.066 10.261-2.189 14.139-.537 1.853-1.41 4.29-2.99 6.432-1.662 2.252-5.31 5.595-10.875 5.032l2.012-19.899c-4.212-.425-6.649 2.204-7.23 2.992-.5.677-.423.898-.128-.12.539-1.861 1.073-5.213 1.462-10.145.76-9.654.806-23.087.44-37.391-.731-28.598-3.059-59.146-4.015-66.687l19.842-2.514zm.013-11.839a384.013 384.013 0 00-.089 8.532c.005 1.065.019 1.901.04 2.523.024.698.049.888.036.784l-19.842 2.514c-.305-2.413-.271-7.975-.142-14.735l19.997.382zm4.347 9.714c-5.14.319-10.344.425-15.097.067l1.503-19.944c3.48.263 7.678.205 12.356-.085l1.238 19.962zm-16.986 98.961c.512-5.059 5.319-90.522 6.382-109.502l19.969 1.12c-1.034 18.455-5.881 104.741-6.452 110.393l-19.899-2.011zm-.029 36.946c-.081-8.198-.163-16.442-.186-23.014-.022-6.202-.004-11.765.215-13.932l19.899 2.011c.003-.032-.004.035-.015.246a31.08 31.08 0 00-.032.795c-.022.674-.039 1.552-.051 2.626a594.694 594.694 0 00-.016 8.184c.023 6.493.104 14.667.185 22.886l-19.999.198zm.072 34.737c-.003.032.004-.034.015-.245.01-.196.021-.459.032-.795.021-.675.038-1.552.05-2.627.025-2.145.028-4.935.016-8.184-.022-6.493-.103-14.667-.185-22.886l19.999-.198c.082 8.198.163 16.443.186 23.014.022 6.203.005 11.765-.215 13.933l-19.898-2.012zm-.963 37.858c.311-17.028.618-34.444.963-37.858l19.898 2.012-.007.083-.017.248c-.014.215-.029.493-.046.841-.033.697-.068 1.598-.105 2.695a871.27 871.27 0 00-.223 8.398c-.152 6.69-.307 15.207-.467 23.946l-19.996-.365zm-.002.183v-.001h20v.001h-20zm-1.046 41.939c.326-3.229.69-22.57 1.048-42.122l19.996.365c-.342 18.708-.709 39.453-1.146 43.769l-19.898-2.012zm-.634 23.935c.169-10.798.314-20.769.634-23.935l19.898 2.012c-.207 2.05-.353 10.655-.534 22.236l-19.998-.313zm-.001.157v-.001h20v.001h-20zm-1.729 48.359c-.002.01.091-.43.218-1.58.115-1.05.228-2.41.336-4.06.216-3.3.395-7.5.545-12.23.3-9.462.476-20.742.631-30.645l19.998.312c-.154 9.861-.333 21.312-.639 30.963-.153 4.82-.34 9.28-.578 12.91-.216 3.3-.52 6.8-1.097 9.13l-19.414-4.8zm15.796 42.92c-4.596-2.06-7.555-6.08-9.333-9.09-1.962-3.33-3.496-7.17-4.622-10.91-1.136-3.78-1.954-7.77-2.337-11.54-.367-3.6-.413-7.71.496-11.38l19.414 4.8c-.118.48-.275 1.98-.013 4.55.245 2.41.795 5.16 1.592 7.81.807 2.68 1.769 4.93 2.692 6.5 1.107 1.87 1.422 1.52.312 1.02l-8.201 18.24zm19.984-145.267c-.14 25.322-.332 60.07-1.132 88.207-.399 14.03-.955 26.63-1.752 35.64-.391 4.43-.874 8.4-1.525 11.35-.289 1.31-.79 3.29-1.762 5.1-.447.83-1.55 2.7-3.716 4.14-2.816 1.87-6.594 2.41-10.097.83l8.201-18.24c-3.183-1.43-6.651-.92-9.164.75-1.865 1.23-2.674 2.74-2.837 3.04-.403.75-.368 1.03-.154.06.357-1.61.754-4.51 1.132-8.79.741-8.39 1.285-20.48 1.682-34.45.792-27.863.984-62.368 1.124-87.748l20 .111zm.385-33.506c.002-.025-.004.031-.014.206-.01.163-.021.382-.033.664-.024.568-.047 1.311-.068 2.237-.044 1.849-.08 4.302-.112 7.286-.063 5.964-.107 13.909-.158 23.113l-20-.111c.051-9.183.095-17.187.159-23.214.061-5.714.14-10.339.327-12.193l19.899 2.012zm-6.696-117.307c9.997.213 9.997.214 9.997.215v.018l-.001.058-.005.23-.02.895a19181.591 19181.591 0 01-.345 15.628c-.23 10.156-.545 23.8-.891 37.746-.683 27.522-1.503 57.209-2.039 62.517l-19.899-2.012c.436-4.313 1.243-32.777 1.944-61.001a17600.063 17600.063 0 001.254-54.203l.005-.228.002-.058v-.014-.004l9.998.213zm18.193-80.546l-8.244 81.551-19.899-2.011 8.245-81.552 19.898 2.012zm-1.933 8.072c-2.172.275-4.466.565-6.814.85l-2.403-19.855c2.285-.277 4.524-.561 6.706-.837l2.511 19.842zm.06-.008l-.024.003-2.583-19.832.024-.003 2.583 19.832zm16.678-1.602c-.574-.058-2.276-.032-5.595.29-3.086.301-6.828.774-11.118 1.317l-2.513-19.842c4.198-.531 8.259-1.046 11.696-1.381 3.205-.311 6.746-.565 9.541-.283l-2.011 19.899zm33.931-200.292c-1.231 24.212-3.967 72.399-7.912 114.438-1.968 20.973-4.26 40.676-6.859 55.162-1.285 7.163-2.725 13.518-4.393 18.219-.805 2.269-1.894 4.83-3.452 6.98-1.275 1.759-5.017 6.129-11.315 5.493l2.011-19.899a8.302 8.302 0 00-5.307 1.241c-1.026.662-1.512 1.33-1.583 1.428-.112.155.217-.294.798-1.933 1.106-3.115 2.319-8.166 3.556-15.061 2.445-13.63 4.675-32.651 6.632-53.498 3.903-41.604 6.623-89.449 7.85-113.585l19.974 1.015zM504.989 388c9.909-1.344 9.909-1.343 9.909-1.342l.001.004.001.011.006.039.019.145.072.549c.063.479.154 1.181.268 2.087.228 1.814.549 4.447.926 7.753a884.198 884.198 0 012.632 26.764c1.795 21.601 3.31 49.601 2.047 74.434l-19.974-1.015c1.196-23.514-.236-50.482-2.004-71.763a866.94 866.94 0 00-2.572-26.154 677.456 677.456 0 00-1.153-9.511l-.067-.502-.016-.122-.004-.028-.001-.005v-.001l9.91-1.343zm-26.295-114.247c2.389 2.926 4.478 7.028 6.278 11.102 1.896 4.293 3.837 9.416 5.759 14.951 3.847 11.085 7.794 24.346 11.328 37.006 3.542 12.687 6.705 24.899 8.98 33.93 1.138 4.519 2.056 8.248 2.691 10.851.317 1.302.563 2.322.73 3.019l.192.798.049.207.013.054a.197.197 0 00.003.015l.001.004c0 .001.001.001-9.729 2.31l-9.73 2.308-.001-.002-.002-.011a1.09 1.09 0 01-.012-.048l-.046-.193-.184-.77a1457.447 1457.447 0 00-3.369-13.656c-2.249-8.928-5.367-20.966-8.849-33.438-3.49-12.5-7.309-25.309-10.96-35.826-1.827-5.265-3.567-9.825-5.158-13.426-1.688-3.82-2.892-5.821-3.476-6.537l15.492-12.648zm-53.552-30.841c5.588 2.38 16.333 7.099 26.739 12.48 5.196 2.686 10.453 5.613 15 8.561 4.335 2.811 8.834 6.151 11.813 9.8l-15.492 12.648c-.913-1.118-3.202-3.073-7.203-5.668-3.789-2.457-8.416-5.048-13.304-7.576-9.763-5.048-19.988-9.544-25.391-11.845l7.838-18.4zm-.57-2.715a796.66 796.66 0 014.544 5.776l-15.787 12.278c-1.584-2.037-3.071-3.914-4.435-5.636l15.678-12.418zm-4.682-6.023c1.057 1.444 2.608 3.404 4.682 6.023l-15.678 12.418c-1.975-2.494-3.806-4.803-5.14-6.625l16.136-11.816zm-14.576-6.124c2.618-.452 5.498-.252 8.299.977 2.744 1.204 4.794 3.122 6.277 5.147l-16.136 11.816c.134.183.691.855 1.824 1.352 1.189.522 2.34.554 3.136.417l-3.4-19.709zm2.113-2.23c6.594.666 8.716 6.271 9.165 7.953.52 1.941.463 3.755.404 4.733l-19.964-1.203c.021-.35-.086.421.24 1.639a8.958 8.958 0 001.88 3.516 9.535 9.535 0 006.263 3.26l2.012-19.898zm-2.133-.076c.57-.007 1.222.003 1.896.055l-1.538 19.941c.058.004.077.004.046.003a4.157 4.157 0 00-.177-.001l-.227-19.998zm13.665 14.116c-2.873 1.729-5.996 3.381-9.296 4.933l-8.511-18.099c2.762-1.299 5.275-2.634 7.495-3.971l10.312 17.137zm14.577-39.245c4.678 14.68-1.024 31.03-14.549 39.228L408.62 222.74c5.37-3.256 7.823-9.893 5.861-16.052l19.055-6.073zm-2.223-7.597c.755 2.694 1.46 5.206 2.222 7.593l-19.053 6.081c-.889-2.786-1.69-5.647-2.427-8.277l19.258-5.397zm-8.681-21.706c2.414 3.33 4.079 7.21 5.339 10.74 1.277 3.579 2.361 7.464 3.342 10.966l-19.258 5.397c-1.024-3.656-1.921-6.84-2.921-9.641-1.016-2.849-1.923-4.658-2.695-5.724l16.193-11.738zm-4.941-4.417c2.38 1.248 3.955 3.06 4.932 4.405l-16.175 11.762c.004.006.137.19.416.457.279.267.785.693 1.54 1.089l9.287-17.713zm5.483.227c-.328 3.241-.331 5.772-.161 7.796l-19.931 1.666c-.287-3.431-.238-7.207.193-11.474l19.899 2.012zm.973-20.481c.07 6.57-.226 13.087-.973 20.481l-19.899-2.012c.678-6.706.934-12.479.873-18.255l19.999-.214zm-4.271 8.304c-.08.055-.16.109-.241.162l-10.976-16.719-.124.083 11.341 16.474zm3.408-3.501a11.372 11.372 0 01-4.444 4.126l-9.269-17.723a8.64 8.64 0 00-3.338 3.144l17.051 10.453zm-8.106-5.905c9.518 3.068 9.517 3.071 9.516 3.074l-.002.005-.003.011-.007.022-.015.045-.031.092c-.022.062-.044.127-.069.193a11.983 11.983 0 01-.627 1.412c-.373.71-.901 1.542-1.638 2.389l-15.087-13.129c-.418.48-.736.972-.979 1.436a8.572 8.572 0 00-.457 1.037l-.061.172-.029.087-.015.043-.007.022-.003.011-.002.005c-.001.003-.002.006 9.516 3.073zm1.602-20.447c4.384 1.459 6.094 5.118 6.456 5.895.619 1.329.941 2.62 1.119 3.456.375 1.761.554 3.679.653 5.159a81.65 81.65 0 01.162 4.157c.008.55.01 1.009.01 1.338l-.001.392-.001.115-.001.036V145.659l-9.999-.12c-9.999-.121-9.999-.12-9.999-.119V145.415v-.059l.001-.27c0-.242-.001-.599-.008-1.033a61.378 61.378 0 00-.119-3.115c-.08-1.191-.185-1.978-.258-2.324-.047-.218.008.169.313.822a8.252 8.252 0 001.209 1.859 9.34 9.34 0 004.147 2.773l6.316-18.976zm6.254 1.852c.215 2.385.404 4.686.563 6.93l-19.95 1.411a342.454 342.454 0 00-.532-6.543l19.919-1.798zm-1.95-1.339c8.449 5.349 8.445 5.355 8.442 5.36l-.008.012-.015.023-.031.048-.066.101a13.208 13.208 0 01-.522.725c-.281.363-.635.781-1.069 1.226a15.956 15.956 0 01-3.687 2.804c-3.402 1.89-7.826 2.78-13.01 1.746l3.913-19.614c.669.134.25-.095-.611.383-.336.186-.643.43-.924.718a5.535 5.535 0 00-.421.487 7.233 7.233 0 00-.216.293l-.111.163-.056.086-.029.044-.014.023-.007.011c-.004.006-.007.012 8.442 5.361zm-2.881-17.531c3.219.797 6.294 2.185 8.766 4.504 2.59 2.431 3.97 5.377 4.448 8.238.447 2.681.06 4.969-.33 6.432a15.525 15.525 0 01-.917 2.536 16.49 16.49 0 01-.12.249c-.019.037-.036.073-.054.106a2.256 2.256 0 01-.036.072l-.006.012c-.003.005-.006.011-8.87-4.618-8.864-4.629-8.867-4.624-8.87-4.618l-.006.011-.011.021-.022.043-.041.081a6.572 6.572 0 00-.192.423 4.134 4.134 0 00-.179.528c-.085.317-.237 1.035-.073 2.016.194 1.162.771 2.281 1.593 3.052.703.66 1.043.556.114.326l4.806-19.414zm-4.97-.935c1.546.191 3.195.496 4.97.935l-4.806 19.414a22.2 22.2 0 00-2.612-.499l2.448-19.85zm7.876.906c.298 2.797.582 5.452.846 7.979l-19.892 2.08c-.261-2.501-.542-5.133-.841-7.935l19.887-2.124zm-.003-.023v.001l-19.882 2.169v-.002l19.882-2.168zm.004.036v.001l-19.89 2.094v-.001l19.89-2.094zm-.846-7.962c.293 2.786.575 5.426.844 7.947l-19.887 2.124c-.269-2.52-.552-5.174-.847-7.976l19.89-2.095zm-80.153 330.143c.96-8.187 1.893-16.403 2.705-24.005l19.887 2.125c-.822 7.69-1.763 15.978-2.728 24.21l-19.864-2.33zm22.573-21.716c-.943 7.635-1.841 15.64-2.694 23.907l-19.894-2.053c.864-8.378 1.777-16.518 2.739-24.306l19.849 2.452zm-28.16 187.754a10.608 10.608 0 01-3.254-2.745l15.691-12.402a9.434 9.434 0 00-2.899-2.433l-9.538 17.58zm-5.518-6.565c.113-1.095.227-2.188.342-3.277l19.889 2.104a1393.92 1393.92 0 00-.336 3.221l-19.895-2.048zm20.098-1.903c-.055 1.144-.109 2.276-.161 3.398l-19.978-.942.162-3.413 19.977.957zm-120.65-5.945c-.869 9.118-1.987 19.184-3.057 28.821l-19.878-2.207c1.074-9.674 2.174-19.578 3.026-28.511l19.909 1.897zm-8.99-11.194c.759.291 1.406.514 1.952.68l-5.833 19.131a49.568 49.568 0 01-3.295-1.143l7.176-18.668zm-1.453-.457c.221.062.443.126.667.191l-5.603 19.199a88.265 88.265 0 00-.485-.139l5.421-19.251zm-.701-.194c.233.064.468.128.704.195l-5.427 19.25-.51-.141 5.233-19.304zm-13.183 14.751l.617-6.105 19.899 2.012-.617 6.105-19.899-2.012zm-3.491-4.26c1.608.004 2.991-.058 4.134-.177 1.173-.122 1.9-.283 2.272-.399.443-.136-.03-.077-.771.572a6.284 6.284 0 00-1.35 1.708 6.793 6.793 0 00-.794 2.556l19.899 2.012c-.816 8.065-7.667 11.206-11.073 12.259-3.854 1.192-8.339 1.479-12.363 1.469l.046-20zm-12.956 39.131c2.473-9.308 2.908-22.643 2.933-29.169l20 .077c-.025 6.54-.404 22.187-3.604 34.229l-19.329-5.137zm7.601 16.491c-1.439-2.406-2.949-4.846-4.912-6.757l13.95-14.331c4.072 3.963 6.77 8.555 8.125 10.819l-17.163 10.269zm4.971 5.831a11.417 11.417 0 01-2.672-2.379 16.728 16.728 0 01-1.015-1.377c-.452-.679-.933-1.488-1.284-2.075l17.163-10.269c.205.343.364.609.505.84.143.233.224.36.265.421.056.085-.03-.055-.227-.293a7.666 7.666 0 00-.584-.627 9.02 9.02 0 00-1.453-1.14l-10.698 16.899zm1.004 5.375c-1.213-2.797-2.207-5.01-2.941-6.522a23.95 23.95 0 00-.716-1.397c-.06-.104.007.023.183.265.089.124.286.387.584.71.24.262.878.93 1.886 1.569l10.698-16.898c1.82 1.152 2.859 2.653 3.017 2.871.395.543.716 1.073.944 1.468.469.81.948 1.753 1.401 2.687.924 1.906 2.055 4.434 3.294 7.294l-18.35 7.953zm21.877-15.695c-.418 4.133-1.58 9.145-3.08 14.443l-19.244-5.449c1.405-4.959 2.186-8.634 2.425-11.006l19.899 2.012zm2.264-20.955c-.824 7.418-1.619 14.578-2.264 20.955l-19.899-2.012c.657-6.494 1.464-13.758 2.285-21.151l19.878 2.208zm0-.001v.001l-19.878-2.208v-.002l19.878 2.209zm-.016.135v.001l-19.846-2.481v-.001l19.846 2.481zm-31.805 9.284l-4.192 4.149-14.069-14.215 4.192-4.149 14.069 14.215zm-12.341.154c2.311 2.129 5.161 2.615 7.323 2.332a8.543 8.543 0 004.308-1.847l-12.649-15.492a11.463 11.463 0 015.741-2.492c2.685-.352 6.069.249 8.826 2.787l-13.549 14.712zm-2.108-3.145c.013-.537-.035-.591.026-.304.035.166.147.635.452 1.258.308.627.92 1.627 2.048 2.556l12.712-15.441c3.067 2.525 4.01 5.864 4.351 7.466.396 1.864.438 3.658.404 4.973l-19.993-.508zm1.551-9.827c3.845-.652 7.504-.474 10.903.388l-4.915 19.386c-.664-.168-1.508-.248-2.644-.055l-3.344-19.719zm139.459 273.995c.722 1.363 1.157 3.037 1.27 3.448.253.912.54 2.053.851 3.35.625 2.612 1.411 6.135 2.299 10.302 1.779 8.35 4.006 19.474 6.235 31.453l-19.663 3.658c-2.201-11.829-4.394-22.782-6.133-30.943-.871-4.088-1.618-7.429-2.188-9.812a83.934 83.934 0 00-.677-2.676c-.301-1.091-.184-.392.333.584l17.673-9.364zm6.89-113.691a8.038 8.038 0 00.829-1.366c.122-.257.183-.43.197-.47.023-.068-.02.047-.111.434-.18.763-.407 1.978-.664 3.705-.511 3.417-1.045 8.169-1.579 13.913-1.064 11.448-2.079 26.318-2.904 41.207-.824 14.879-1.452 29.674-1.746 40.951-.148 5.652-.21 10.338-.176 13.681.017 1.689.057 2.905.109 3.682.027.401.047.533.04.483-.004-.024-.032-.22-.107-.52-.046-.184-.249-1.01-.778-2.009l-17.673 9.364c-.961-1.815-1.186-3.638-1.224-3.887a27.007 27.007 0 01-.213-2.097c-.089-1.331-.135-2.982-.153-4.814-.038-3.698.031-8.661.181-14.406.302-11.518.939-26.512 1.771-41.534.831-15.013 1.863-30.156 2.959-41.952.546-5.878 1.121-11.057 1.712-15.016.293-1.963.615-3.798.979-5.34.18-.765.407-1.617.699-2.451.225-.643.759-2.095 1.824-3.521l16.028 11.963zm-7.255 56.038c-.275-14.736-1.867-31.111-3.873-42.964-1.024-6.057-2.063-10.354-2.891-12.601-.573-1.555-.501-.605.818.631a8.964 8.964 0 007.131 2.279c3.624-.414 5.543-2.678 6.07-3.383l-16.028-11.963c1.053-1.411 3.513-4.048 7.688-4.525 4.328-.494 7.393 1.666 8.812 2.995 2.454 2.3 3.688 5.456 4.277 7.055 1.496 4.063 2.777 9.871 3.843 16.175 2.177 12.867 3.856 30.233 4.15 45.927l-19.997.374zm1.393 60.903c-9.581-2.867-9.581-2.866-9.581-2.865l-.001.002v.001l.001-.005.014-.045.063-.217c.058-.201.147-.513.263-.928.231-.831.567-2.075.973-3.672a239.41 239.41 0 002.966-13.307c2.152-11.105 4.175-25.62 3.909-39.867l19.997-.374c.302 16.183-1.978 32.212-4.271 44.045a260.351 260.351 0 01-3.217 14.428 190.948 190.948 0 01-1.089 4.107 113.33 113.33 0 01-.408 1.43l-.026.089-.008.028-.003.01a.01.01 0 01-.001.003c-.001.002-.001.003-9.581-2.863zm-10.205 47.079a23727.947 23727.947 0 00.204-46.858v-.19l.001-.048v-.012-.003l10 .032 10 .032v.016l-.001.049v.19l-.003.744-.01 2.845c-.008 2.463-.022 6.007-.039 10.334-.034 8.654-.085 20.442-.152 32.975l-20-.106z" fill="#fff" mask="url(#a)"/><path d="M381.469 720.546s33.177 128.489 29.191 143.879c-3.986 15.391-12.552 40.038-12.808 54.591-.257 14.553 7.948 101.644.003 108.124-7.945 6.49-50.293 16.79-56.901 10.04-6.607-6.74-21.377-28.89-20.769-34.9.608-6.012.969-117.746.969-117.746s9.175-30.66 8.606-61.09c-.568-30.429-6.542-67.48-10.757-61.832-4.216 5.648-9.753 120.504-7.713 124.355 2.041 3.851 26.326 124.153 17.786 124.503-8.54.35-63.278 13.04-73.967-1.4-10.688-14.448-10.393-65.444-6.272-94.185 4.12-28.741-15.095-54.981-11.582-77.709 3.512-22.728-.529-66.873-.529-66.873l27.266-77.427 117.477 27.67z" fill="#5C414E"/><path d="M261.543 620.949s5.057 106.207 13.327 132.556c8.27 26.349 14.352 74.345-.917 69.157-15.269-5.189-32.431-39.726-57.807-41.076-25.376-1.351-52.064-13.768-51.456-19.781.608-6.013 45.818-104.709 48.493-131.166 2.674-26.458 7.889-66.022 6.7-78.291-1.19-12.27 4.633-57.847 4.633-57.847l29.227-.69 7.8 127.138z" fill="#A75256"/><path d="M299.001 346.525s-9.23-28.876-18.729-31.051c-9.5-2.175-13.581-9.877-13.229-1.338.352 8.54-29.399 158.61-21.601 177.622 7.797 19.011 16.218 127.989 23.434 128.718 7.215.729 32.05-52.645 33.265-64.671 1.216-12.026-3.14-209.28-3.14-209.28z" fill="#A75256"/><path d="M299.147 336.696s-13.288 31.702-7.476 106.398C297.483 517.791 274 611.88 274 611.88s-35.28 91.803-.417 107.476c34.862 15.673 4.215-5.648 66.751.674 11.796-8.527-4.393-52.685-3.772-70.846.621-18.16 9.809-294.107 34.201-316.668 13.019-15.814 7.503-20.138 2.773-17.821-4.741 2.436-67.976 9.043-74.389 22.001z" fill="#A75256"/><path d="M161.53 665.632c2.814-11.014-46.832 41.432-53.206 40.787-7.215-.729-5.661 7.932-5.661 7.932s33.581 88.438 51.998 74.506c18.417-13.931 59.345-46.241 72.817-47.309 0 0-19.35-12.89-32.687-25.172-13.337-12.283-34.046-47.786-33.261-50.744z" fill="#2C1E24"/><path d="M168.928 623.736s-25.228 28.43 1.71 64.806c26.938 36.376 34.707 36.432 49.681 48.151 14.985 11.599 41.308 27.624 41.078 17.882-.23-9.743-21.167-45.391-26.761-54.947-5.487-9.423-26.751-64.664-29.035-66.11-2.284-1.445-11.635-29.118-36.673-9.782z" fill="#5C414E"/><path d="M193.428 657.803s-19.229-14.093-9.756 12.377c9.473 26.471 20.027 54.266 38.066 56.089 18.039 1.824 6.878-19.958 6.878-19.958s-14.041-29.362-35.188-48.508z" fill="#2C1E24"/><path d="M181.718 617.376c-1.395.588-10.192 4.679-14.25 8.764a1.182 1.182 0 01-1.995-.687c-1.195-7.411.06-33.04 4.562-36.715 4.237-3.459 6.668-4.672 7.438-5.08.253-.096.493-.071.734-.047l21.417 3.259c.602.06 1.034.59.973 1.191.077 6.447-.022 42.277-10.899 46.523-7.086 1.592-1.804-10.995-1.202-12.149l.025-.241c.217-.95 1.499-7.624-.519-9.286-.445-.409-1.071-.229-1.468.095l-4.455 4.409c-.108-.132-.228-.144-.361-.036z" fill="#F1AA9A"/><path d="M163.077 585.481s49.902 11.119 50.996.296l1.216-12.026-56.171 2.825 3.959 8.905z" fill="#A75256"/><path d="M319.317 253.815l-13.242 10.81 8.757 21.539 8.756 21.538 28.998-10.432 19.876-28.363-12.267-22.866-22.85-2.31-18.028 10.084z" fill="#FEF1F0"/><path d="M306.403 46.22c-2.587.346-4.993 1.318-6.967 2.82-8.667 6.413-32.189 25.174-32.625 39.101-.499 16.958 8.987 31.281 10.298 42.348 1.311 11.066 11.365 55.819 11.23 69.169-.134 13.351 14.271 39.105 33.147 44.658 18.877 5.553 98.384.227 101.181-27.433 2.796-27.66-12.122-24.309-9.447-50.766 2.675-26.457-.798-40.172-5.434-90.452-14.199-38.611-84.025-31.699-101.383-29.445z" fill="#F1AA9A"/><path d="M311.394 236.004l-11.783-3.621s-42.413 71.036-28.833 80.914c13.58 9.877 24.512 21.916 24.269 24.321-.195 1.924 22.511-18.377 31.865-26.786 1.866-1.634 1.918-4.545.272-6.29-4.793-5.466-13.015-21.483-15.79-68.538z" fill="#ECE6E6"/><path d="M380.307 239.328s-16.511 31.133-55.994 61.158c-39.482 30.026-35.657 52.281-25.307 46.038 10.35-6.243 73.763-32.635 78.574-32.148 4.81.486 34.014-78.081 28.842-78.604-5.063-.391-26.115 3.556-26.115 3.556z" fill="#CBBEBD"/><path d="M346.378 246.831s8.144 32.411 22.115 14.385c13.972-18.026 17.944-21.269 17.944-21.269l-40.059 6.884zM345.668 245.543s-34.064 24.499-34.659 18.365c-.594-6.135-3.338-27.065-.933-26.822 2.406.243 35.592 8.457 35.592 8.457z" fill="#D8707A"/><path d="M274.579 255.247s-43.206 3.164-66.135 73.74c-22.928 70.576-21.009 75.63-31.616 96.425-10.607 20.796-33.115 147.3-21.223 161.866 10.458 4.702 28.402-16.567 60.265-7.271 25.728 9.89.026-24.295 8.835-51.348 8.81-27.052 9.539-34.267 9.539-34.267l40.335-239.145z" fill="#F37880"/><path d="M301.422 226.494s-52.129 46.971-65.762 85.684c-17.241 38.349-9.904 37.876-22.078 62.158-12.174 24.282-17.28 74.791 19.314 157.459s-.566 77.697 30.406 131.853c10.702 2.297 9.444-57.36 9.444-57.36s-10.002-93.343-9.394-99.356c.608-6.013-1.018-170.189 10.318-198.201 11.336-28.011 33.644-80.426 30.157-81.994-3.486-1.567-2.405-.243-2.405-.243z" fill="#D8707A"/><path d="M311.705 58.663c-.363 2.393-.138 4.967.353 7.325 2.046 9.805 5.1 32.467-3.304 51.907-11.093 25.606-14.05 90.911 4.718 85.519 18.769-5.392 48.496-23.04 70.737-14.717 22.242 8.324 24.029-20.167 30.322-11.513 4.371 6.031 6.428 16.93 9.473 26.471 3.32 10.419-.758 21.913-10.205 27.64-20.051 12.065-56.865 21.707-82.512 14.619-36.865-10.287-40.459-22.799-45.96-52.513-5.5-29.713-5.014-34.524-8.365-49.441-3.352-14.918-21.838-48.374-11.961-61.955 9.878-13.58 29.024-34.727 39.604-31.228 6.589 2.124 7.451 5.613 7.1 7.886z" fill="#5C414E"/><path d="M413.016 134.509s-23.806 3.546-18.193 6.908c5.614 3.362 19.608 7.935 20.093 4.34.594-3.463-.467-12.196-1.9-11.248zM318.718 139.556s9.148-6.364 19.728-2.865c10.58 3.499 5.527 5.418 5.527 5.418s-13.121 9.608-25.255-2.553z" fill="#FEF1F0"/><path d="M396.196 118.229s-13.644 5.181-4.149 11.001c.913.578 2.128.579 3.163-.045 2.6-1.681 8.617-4.718 14.808-2.269 8.175 3.256 11.067-1.311 11.067-1.311s3.013-5.77-5.284-7.824c-8.296-2.054-10.945.109-13.35-.135-2.405-.243-6.255.583-6.255.583zM336.555 116.937c-.613.059-1.118.251-1.624.443-3.574 1.704-18.628 8.808-20.89 9.551-2.527.96-11.796 8.527-2.175 9.5 9.621.972 19.133-9 25.025-7.19 5.891 1.811 17.796 4.229 17.444-4.311-.4-8.058-11.417-8.443-17.78-7.993z" fill="#5C414E"/><path d="M375.082 123.993c1.323.133 2.32 1.085 2.68 2.336 1.413 5.245 6.458 22.642 10.22 25.088 4.567 2.892 8.149 27.552 3.338 27.065-4.81-.486-14.188-3.864-15.851-23.47-1.662-19.607-3.703-23.458-3.216-28.268.243-2.405 1.626-2.873 2.829-2.751z" fill="#E0A194"/><path d="M408.802 135.298s-5.973 7.414-.902 11.329c6.216 2.208 7.278-1.087 7.278-1.087s.132-10.92-1.684-10.983c-1.684-.17-4.692.741-4.692.741zM336.034 136.447s-4.202 4.313-1.574 9.56c7.445-.341 10.167-3.224 10.614-5.244.447-2.021-8.919-5.519-9.04-4.316z" fill="#2C1E24"/><path d="M447.826 318.928s-18.348 371.362-16.321 387.361c2.027 15.998 9.368 123.651-1.456 122.557-10.823-1.094-78.087 27.338-76.507 11.704 1.581-15.634 2.376-83.588-13.813-127.746s9.656-208.472 12.824-213.376c3.181-5.024 95.273-180.5 95.273-180.5z" fill="#A75256"/><path d="M462.934 683.829l-8.997 88.993s-2.28 106.68-3.253 116.301c-.973 9.621.653 173.797-6.319 170.667-6.973-3.14-12.243-23.11-10.189-31.41 2.053-8.29 1.876-66.627 2.606-73.843.729-7.215 1.403-73.967 2.011-79.98.608-6.013-.651-65.67-.043-71.683.608-6.013 6.618-113.531 6.618-113.531l.73-7.216 16.836 1.702z" fill="#2C1E24"/><path d="M357.543 202.521c-1.565 1.057-3.238 1.981-5.103 2.4-6.472 1.533-19.61 5.307-18.183 9.218 1.919 5.053-5.31 16.471 10.324 18.052 15.634 1.58 18.174-11.527 31.281-8.987 13.107 2.54 21.647 2.189 19.971-5.27-1.676-7.459 6.269-13.945-12.851-17.093-15.043-2.614-22.31-.433-25.439 1.68z" fill="#F1AA9A"/><path d="M350.989 216.926s-1.811 5.891 2.162 2.648c3.972-3.243 7.945-6.486 11.553-6.121 3.608.365 12.026 1.216 12.269-1.19.243-2.405-7.094-1.932-9.499-2.175-2.406-.243-16.242 4.433-16.485 6.838z" fill="#2C1E24"/><path d="M417.322 250.479s44.109 17.945 53.622 29.598C482.836 294.643 504.985 388 504.985 388s8.352 61.589 5.895 109.936c-2.458 48.348-10.913 192.066-22.939 190.85-12.026-1.216-71.818 13.393-71.197-4.768 0 0-6.447-44.388 3.808-73.724 10.255-29.335 15.145-101.735 15.145-101.735s8.159-92.722 8.064-115.815c-.096-23.093-7.637-56.657-7.637-56.657l-18.802-85.608z" fill="#F37880"/><path d="M411.813 240.083c9.608 13.12 51.173 58.629 41.391 95.302-9.782 36.673-40.724 66.347-46.508 75.481-5.783 9.135-58.458 93.955-58.012 125.588.447 31.632-11.233 66.655-10.126 43.684l4.43-91.884s11.254-86.092 12.387-110.519c1.625-34.095 19.903-52.658 21.253-78.034 1.351-25.377 25.577-72.738 35.185-59.618z" fill="#D8707A"/><path d="M295.958 52.211s-6.56 15.617 31.902 17.318c38.582 1.714 52.423 4.207 64.168 20.216 0 0 22.59 20.507 21.21 6.518-1.272-13.857-8.537-35.731-25.428-42.906-16.891-7.174-71.381-23.374-91.852-1.146z" fill="#5C414E"/></svg>