<svg width="210" height="274" fill="none" xmlns="http://www.w3.org/2000/svg"><path d="M12.832 9.83L209.7 22.183l-8.521 244.27-180.112 7.219-8.235-263.84z" fill="#2E5A9C"/><path d="M.613.15l196.868 12.352-8.521 248.395-180.112 7.219L.613.151z" fill="#F87980"/><path d="M22.453 38.237l.29 13.253-.29 5.51c2.262.145 5.19.261 7.076.261 6.409 0 9.976-3.712 9.976-10.411 0-5.626-3.045-8.729-8.584-8.729l-8.468.116zM30.63 52.94c-.61 0-1.653-.116-2.523-.232l-.058-1.798.203-8.149a21.503 21.503 0 012.175-.116c2.204 0 2.987 1.421 2.987 5.626 0 3.48-1.073 4.669-2.784 4.669zm18.148-2.117l.32-12.586h-8.382l-.232 3.799.32.377 2.464-.087.203 9.077v1.827c0 1.682-.667 2.61-2.668 3.567v.464l1.508 2.987c4.96-1.45 6.525-3.277 6.525-6.844l-.058-2.581zm16.126-12.905c-6.206 0-9.715 3.625-9.715 9.86 0 6.177 3.103 9.541 9.396 9.541 1.276 0 2.668-.116 4.031-.551l.464-4.582-.464-.29c-1.044.377-2.523.609-3.567.609-2.552 0-3.712-1.653-3.712-5.394 0-3.219 1.015-4.466 3.335-4.466 1.102 0 2.552.348 3.567.899l.377-.232.986-4.611c-1.392-.493-2.958-.783-4.698-.783zM82.702 52.65l-.32-.406h-5.538l-.058-1.334.319-12.673h-5.916l.29 13.253-.29 5.51h11.165l.348-4.35zm9.157-14.761c-5.974 0-9.396 3.654-9.396 10.063 0 5.974 3.103 9.396 8.555 9.396 5.974 0 9.396-3.712 9.396-10.208 0-5.887-3.103-9.251-8.555-9.251zm-.522 4.64c2.349 0 2.987 1.189 2.987 5.858 0 3.712-.61 4.669-2.784 4.669-2.35 0-2.987-1.189-2.987-5.887 0-3.683.609-4.64 2.784-4.64zm24.572 9.831l-4.814.174h-2.784l-.058-1.624.029-1.102h2.61l3.364.087.348-4.234-.319-.406-3.016.087h-2.871l.058-2.639h2.987l4.611.174.377-4.234-.319-.406h-13.456l.29 13.253-.29 5.51h13.224l.348-4.234-.319-.406zm14.79-2.755c1.972-1.392 3.132-3.393 3.132-5.597 0-3.741-2.378-5.8-6.583-5.8l-8.903.029.29 13.253-.29 5.51h5.829l-.203-5.597h1.943c.783 1.856 1.653 3.683 2.494 5.481l.551.464a24.62 24.62 0 005.829-1.073l.087-.638a101.926 101.926 0 01-4.176-6.032zm-2.987-5.017c0 1.392-.464 2.204-1.566 2.697l-2.117-.116.116-4.843 1.044-.087c1.769.087 2.523.783 2.523 2.349zm25.371-6.351h-6.148l-.986 2.03-3.596 5.8.203-7.83h-5.916l.29 13.253-.29 5.51h5.829l-.232-6.09.058-2.523c1.566 2.929 3.19 5.771 4.843 8.613l.638.348a44.67 44.67 0 005.8-.928l.087-.638c-2.146-2.813-4.205-5.713-6.09-8.671l5.51-8.874zm7.364 12.673l.319-12.673h-5.916l.29 13.253-.29 5.51h5.829l-.232-6.09zm17.144 1.45l-4.814.174h-2.784l-.058-1.624.029-1.102h2.61l3.364.087.348-4.234-.319-.406-3.016.087h-2.871l.058-2.639h2.987l4.611.174.377-4.234-.319-.406h-13.456l.29 13.253-.29 5.51h13.224l.348-4.234-.319-.406zM49.483 224.601c2.08 0 3.783.468 5.11 1.404 1.325.91 1.988 2.197 1.988 3.861 0 1.066-.325 2.197-.975 3.393-.624 1.17-1.69 2.509-3.198 4.017l-1.716 1.716.117.195h3.003l3.783-.39.39.468-.858 6.006-5.616-.312h-8.97l-1.404.117-.351-.273v-4.602l4.992-4.29c1.066-.962 1.859-1.755 2.379-2.379.546-.624.819-1.157.819-1.599 0-.598-.455-.897-1.365-.897-.702 0-1.495.182-2.379.546a10.6 10.6 0 00-2.535 1.404h-.819l-1.287-5.928c3.224-1.638 6.188-2.457 8.892-2.457zm24.61 1.131l-.118 4.524h2.652l4.524-.117.43.546-.469 5.694-5.03-.117h-2.263v.507l.312 8.19h-7.839l.39-7.41-.39-17.823H83.14l.43.546-.508 5.694-6.24-.234h-2.73zm21.944.78c.338 0 .637.026.897.078v6.825l-.741.234c-.338-.208-.806-.312-1.404-.312-.572 0-1.183.13-1.833.39a6.578 6.578 0 00-1.755 1.092v1.95l.312 8.19h-7.605l.35-7.41-.272-10.569 7.215-.507v3.432h.35c1.119-2.262 2.614-3.393 4.486-3.393zm10.655-.429c2.392 0 4.238.494 5.538 1.482 1.3.962 1.95 2.353 1.95 4.173 0 .52-.052 1.898-.156 4.134-.104 1.976-.156 3.081-.156 3.315 0 .286.039.494.117.624a.52.52 0 00.429.195c.182 0 .403-.039.663-.117l.468.39-.663 3.9c-.962.676-2.171 1.066-3.627 1.17a3.626 3.626 0 01-2.028-.78c-.572-.468-1.014-1.131-1.326-1.989h-.273c-1.144 1.326-2.444 2.262-3.9 2.808-1.976-.026-3.562-.572-4.758-1.638-1.17-1.092-1.755-2.574-1.755-4.446 0-2.886 1.495-4.537 4.485-4.953l5.538-.741v-.468c0-.676-.143-1.157-.429-1.443-.26-.286-.728-.429-1.404-.429-1.456 0-3.341.624-5.655 1.872l-.468-.312-.82-4.797a16.865 16.865 0 013.94-1.443 18.932 18.932 0 014.29-.507zm-1.677 11.154c-.364.052-.637.195-.819.429-.156.208-.234.533-.234.975 0 1.04.481 1.56 1.443 1.56.624 0 1.235-.208 1.833-.624v-2.652l-2.223.312zm23.358 7.722l.39-10.296c0-1.586-.611-2.379-1.833-2.379-.598 0-1.209.182-1.833.546v3.939l.312 8.19h-7.605l.351-7.41-.273-10.569 7.215-.507v2.73h.273c1.352-1.352 2.873-2.314 4.563-2.886 1.95 0 3.432.442 4.446 1.326 1.04.884 1.534 2.158 1.482 3.822l-.156 5.304.273 8.19h-7.605zm24.958-10.257c1.222 2.496 2.873 5.499 4.953 9.009l-.039.78c-1.69.338-4.069.65-7.137.936l-.78-.39a60.478 60.478 0 01-3.9-8.697v.429l.312 8.19h-7.605l.351-7.41-.273-19.461 7.566-.507-.312 16.692 2.964-5.538.819-2.184h7.761l-4.68 8.151z" fill="#2C1E25"/><mask id="a" maskUnits="userSpaceOnUse" x="0" y="0" width="196" height="200"><path d="M.7 0l194.732 12.361-8.83 175.485L6.799 199.693.7 0z" fill="#F87980"/></mask><g mask="url(#a)"><path d="M47.591 266.76c50.267 0 91.017-40.75 91.017-91.017 0-50.268-40.75-91.017-91.017-91.017-50.267 0-91.017 40.749-91.017 91.017 0 50.267 40.75 91.017 91.017 91.017z" fill="#FFF1F0"/><path d="M47.596 203.941c15.573 0 28.198-12.624 28.198-28.197 0-15.573-12.625-28.198-28.198-28.198s-28.198 12.625-28.198 28.198 12.625 28.197 28.198 28.197z" fill="#5C404E"/><path d="M47.593 178.618a2.874 2.874 0 100-5.748 2.874 2.874 0 000 5.748z" fill="#FFF1F0"/></g><path d="M4.14 199.553L197.4 185.962v11.574L4.453 210.775l-.312-11.222z" fill="#2E5A9C"/><path d="M17.594 198.603l-13.489.949.16 11.237 14.06-.964-.731-11.222z" fill="#3F7AD3"/></svg>