<svg width="213" height="275" viewBox="0 0 213 275" fill="none" xmlns="http://www.w3.org/2000/svg">
<path d="M15.9727 10.5312L212.84 22.8823L204.319 267.153L24.2073 274.372L15.9727 10.5312Z" fill="#2E5A9C"/>
<path d="M3.75391 0.851562L200.621 13.2026L192.1 261.598L11.9885 268.817L3.75391 0.851562Z" fill="#F87980"/>
<path d="M86.9328 34.4282C92.3668 34.4282 96.5278 35.9102 99.4158 38.8742C102.342 41.8002 103.805 46.0372 103.805 51.5852C103.805 58.1592 102.114 63.2132 98.7318 66.7472C95.3498 70.2812 90.5048 72.0482 84.1968 72.0482C80.2448 72.0482 75.6088 71.8772 70.2888 71.5352L70.8588 60.7052L70.2888 34.6562L86.9328 34.4282ZM86.3628 63.5552C88.1488 63.5552 89.4978 62.8522 90.4098 61.4462C91.3598 60.0022 91.8348 57.6462 91.8348 54.3782C91.8348 51.6042 91.6448 49.4192 91.2648 47.8232C90.8848 46.2272 90.2768 45.0872 89.4408 44.4032C88.6048 43.6812 87.4458 43.3202 85.9638 43.3202C84.5198 43.3202 83.0948 43.3962 81.6888 43.5482L81.2898 59.5652L81.4038 63.0992C83.6838 63.4032 85.3368 63.5552 86.3628 63.5552ZM122.034 59.3942L122.148 64.4672C122.148 66.8612 121.749 68.8752 120.951 70.5092C120.153 72.1432 118.823 73.5492 116.961 74.7272C115.137 75.9052 112.591 76.9692 109.323 77.9192L106.359 72.0482V71.1362C108.297 70.1862 109.646 69.1982 110.406 68.1722C111.204 67.1462 111.603 65.7972 111.603 64.1252V60.5342L111.204 42.6932L106.359 42.8642L105.732 42.1232L106.188 34.6562H122.661L122.034 59.3942Z" fill="#2C1E25"/>
<path d="M52.6237 225.302C54.7037 225.302 56.4067 225.77 57.7327 226.706C59.0587 227.616 59.7217 228.903 59.7217 230.567C59.7217 231.633 59.3967 232.764 58.7467 233.96C58.1227 235.13 57.0567 236.469 55.5487 237.977L53.8327 239.693L53.9497 239.888H56.9527L60.7357 239.498L61.1257 239.966L60.2677 245.972L54.6517 245.66H45.6817L44.2777 245.777L43.9267 245.504V240.902L48.9187 236.612C49.9847 235.65 50.7777 234.857 51.2977 234.233C51.8437 233.609 52.1167 233.076 52.1167 232.634C52.1167 232.036 51.6617 231.737 50.7517 231.737C50.0497 231.737 49.2567 231.919 48.3727 232.283C47.4887 232.621 46.6437 233.089 45.8377 233.687H45.0187L43.7317 227.759C46.9557 226.121 49.9197 225.302 52.6237 225.302ZM77.2327 226.433L77.1157 230.957H79.7677L84.2917 230.84L84.7207 231.386L84.2527 237.08L79.2217 236.963H76.9597V237.47L77.2717 245.66H69.4327L69.8227 238.25L69.4327 220.427H86.2807L86.7097 220.973L86.2027 226.667L79.9627 226.433H77.2327ZM99.1772 227.213C99.5152 227.213 99.8142 227.239 100.074 227.291V234.116L99.3332 234.35C98.9952 234.142 98.5272 234.038 97.9292 234.038C97.3572 234.038 96.7462 234.168 96.0962 234.428C95.4722 234.688 94.8872 235.052 94.3412 235.52V237.47L94.6532 245.66H87.0482L87.3992 238.25L87.1262 227.681L94.3412 227.174V230.606H94.6922C95.8102 228.344 97.3052 227.213 99.1772 227.213ZM109.832 226.784C112.224 226.784 114.07 227.278 115.37 228.266C116.67 229.228 117.32 230.619 117.32 232.439C117.32 232.959 117.268 234.337 117.164 236.573C117.06 238.549 117.008 239.654 117.008 239.888C117.008 240.174 117.047 240.382 117.125 240.512C117.229 240.642 117.372 240.707 117.554 240.707C117.736 240.707 117.957 240.668 118.217 240.59L118.685 240.98L118.022 244.88C117.06 245.556 115.851 245.946 114.395 246.05C113.641 245.998 112.965 245.738 112.367 245.27C111.795 244.802 111.353 244.139 111.041 243.281H110.768C109.624 244.607 108.324 245.543 106.868 246.089C104.892 246.063 103.306 245.517 102.11 244.451C100.94 243.359 100.355 241.877 100.355 240.005C100.355 237.119 101.85 235.468 104.84 235.052L110.378 234.311V233.843C110.378 233.167 110.235 232.686 109.949 232.4C109.689 232.114 109.221 231.971 108.545 231.971C107.089 231.971 105.204 232.595 102.89 233.843L102.422 233.531L101.603 228.734C102.799 228.11 104.112 227.629 105.542 227.291C106.998 226.953 108.428 226.784 109.832 226.784ZM108.155 237.938C107.791 237.99 107.518 238.133 107.336 238.367C107.18 238.575 107.102 238.9 107.102 239.342C107.102 240.382 107.583 240.902 108.545 240.902C109.169 240.902 109.78 240.694 110.378 240.278V237.626L108.155 237.938ZM131.514 245.66L131.904 235.364C131.904 233.778 131.293 232.985 130.071 232.985C129.473 232.985 128.862 233.167 128.238 233.531V237.47L128.55 245.66H120.945L121.296 238.25L121.023 227.681L128.238 227.174V229.904H128.511C129.863 228.552 131.384 227.59 133.074 227.018C135.024 227.018 136.506 227.46 137.52 228.344C138.56 229.228 139.054 230.502 139.002 232.166L138.846 237.47L139.119 245.66H131.514ZM156.472 235.403C157.694 237.899 159.345 240.902 161.425 244.412L161.386 245.192C159.696 245.53 157.317 245.842 154.249 246.128L153.469 245.738C151.935 242.93 150.635 240.031 149.569 237.041V237.47L149.881 245.66H142.276L142.627 238.25L142.354 218.789L149.92 218.282L149.608 234.974L152.572 229.436L153.391 227.252H161.152L156.472 235.403Z" fill="#2C1E25"/>
<mask id="mask0" mask-type="alpha" maskUnits="userSpaceOnUse" x="3" y="0" width="196" height="201">
<path d="M3.83984 0.701172L198.573 13.0625L189.743 188.547L9.93983 200.394L3.83984 0.701172Z" fill="#F87980"/>
</mask>
<g mask="url(#mask0)">
<path d="M50.7318 267.462C100.999 267.462 141.749 226.712 141.749 176.445C141.749 126.177 100.999 85.4277 50.7318 85.4277C0.464508 85.4277 -40.2852 126.177 -40.2852 176.445C-40.2852 226.712 0.464508 267.462 50.7318 267.462Z" fill="#FFF1F0"/>
<path d="M50.7367 204.643C66.3099 204.643 78.9344 192.019 78.9344 176.446C78.9344 160.873 66.3099 148.248 50.7367 148.248C35.1636 148.248 22.5391 160.873 22.5391 176.446C22.5391 192.019 35.1636 204.643 50.7367 204.643Z" fill="#5C404E"/>
<path d="M50.7332 179.32C52.3204 179.32 53.6071 178.033 53.6071 176.446C53.6071 174.859 52.3204 173.572 50.7332 173.572C49.146 173.572 47.8594 174.859 47.8594 176.446C47.8594 178.033 49.146 179.32 50.7332 179.32Z" fill="#FFF1F0"/>
</g>
<path d="M7.28125 200.255L200.54 186.664V198.238L7.59341 211.477L7.28125 200.255Z" fill="#2E5A9C"/>
<path d="M20.7344 199.305L7.24609 200.254L7.4061 211.491L21.4648 210.527L20.7344 199.305Z" fill="#3F7AD3"/>
</svg>
