<svg width="237" height="246" viewBox="0 0 237 246" fill="none" xmlns="http://www.w3.org/2000/svg">
<path d="M181.05 167.864C181.05 167.864 163.701 177.631 162.408 187.709C161.114 197.787 160.834 218.704 164.653 222.455C168.469 226.245 163.622 229.372 163.622 229.372C163.622 229.372 156.285 220.751 154.606 217.948C152.927 215.145 146.659 196.943 139.134 189.526C131.609 182.109 84.7902 176.946 84.7902 176.946L175.683 161.082L181.05 167.864Z" fill="#5C414E"/>
<path d="M221.233 33.5141C221.233 33.5141 201.886 3.65056 185.057 18.6233C168.228 33.596 165.751 72.6917 162.076 81.9247C158.403 91.1187 161.241 100.261 142.968 113.111C124.695 125.961 55.4609 154.928 44.0279 154.692C32.595 154.456 22.7995 157.06 23.2425 160.888C23.6855 164.716 35.1458 164.484 49.5606 167.363C63.9754 170.243 154.929 188.252 168.722 182.315C182.554 176.379 227.855 161.853 226.792 134.39C225.691 106.924 207.623 60.5134 209.408 55.4431C213.454 43.8797 214.137 43.6059 219.516 43.4494C224.894 43.3321 230.435 45.7723 230.533 44.0924C230.632 42.4125 228.596 39.0008 228.228 38.5873C227.858 38.2129 221.233 33.5141 221.233 33.5141Z" fill="#FEF1F0"/>
<path d="M200.614 103.343C200.614 103.343 176.625 88.5364 160.288 98.4417C143.951 108.347 134.669 119.605 127.462 122.203C120.254 124.8 31.732 168.557 22.8696 171.294C14.0073 174.03 5.37051 177.603 7.12524 180.45C8.87997 183.296 36.2551 179.719 43.3424 179.858C50.4297 179.998 84.9669 179.308 96.5184 177.513C108.07 175.717 212.64 167.982 209.327 145.483C206.014 122.985 200.614 103.343 200.614 103.343Z" fill="#CBBEBD"/>
<path d="M149.95 102.268C154.528 96.3806 161.62 93.0704 169.062 93.1911C184.845 93.4458 214.28 96.2221 214.209 113.545C214.082 137.215 210.405 161.932 192.722 167.368C175.039 172.805 95.0067 173.191 87.2186 168.267C79.4305 163.344 44.7126 161.083 64.994 158.15C85.2753 155.218 126.982 147.891 98.6869 150.434C70.392 152.977 49.8211 160.871 51.23 156.21C52.6389 151.549 70.9569 152.03 75.1864 149.415C79.416 146.8 142.776 113.022 146.487 107.201C147.654 105.349 148.809 103.691 149.95 102.268Z" fill="#BD988D"/>
<path d="M208.802 35.5719C212.858 35.8086 216.339 32.7121 216.575 28.6557C216.812 24.5993 213.716 21.119 209.659 20.8823C205.603 20.6455 202.123 23.742 201.886 27.7984C201.649 31.8548 204.746 35.3351 208.802 35.5719Z" fill="#CBBEBD"/>
<path d="M209.506 33.5743C212.225 33.733 214.557 31.6577 214.716 28.939C214.875 26.2204 212.799 23.8878 210.081 23.7292C207.362 23.5705 205.03 25.6458 204.871 28.3645C204.712 31.0831 206.788 33.4157 209.506 33.5743Z" fill="#FEF1F0"/>
<path d="M221.23 33.5139C221.23 33.5139 217.05 39.3069 217.117 40.8397C217.185 42.3725 218.249 43.6107 218.249 43.6107C218.249 43.6107 224.27 43.8837 226.516 44.3675C228.761 44.8514 230.158 45.0897 230.395 44.3979C230.631 43.7061 230.431 42.4399 229.584 40.8225C228.736 39.2441 228.42 38.5985 227.745 38.0886C227.103 37.6592 221.23 33.5139 221.23 33.5139Z" fill="#F37880"/>
<path d="M166.025 225.827C166.025 225.827 162.343 229.807 171.414 231.552C180.485 233.296 189.949 233.692 193.604 235.552C197.259 237.411 195.9 237.175 195.9 237.175C195.9 237.175 184.813 239.076 179.214 236.946C173.615 234.816 170.002 234.919 170.002 234.919C170.002 234.919 171.339 237.545 172.167 238.809C172.995 240.072 167.055 236.393 167.055 236.393C167.055 236.393 164.422 232.476 161.305 232.138C158.15 231.797 154.67 229.634 150.584 230.454C151.355 227.323 157.73 228.911 160.11 227.089C162.49 225.268 161.857 222.683 161.857 222.683L166.025 225.827Z" fill="#5C414E"/>
<path d="M157.27 215.947C157.27 215.947 154.091 219.368 161.885 220.842C169.639 222.314 177.733 222.669 180.855 224.262C183.976 225.856 182.85 225.672 182.85 225.672C182.85 225.672 173.346 227.313 168.593 225.468C163.798 223.659 160.698 223.713 160.698 223.713C160.698 223.713 161.86 225.976 162.582 227.038C163.304 228.099 158.194 224.978 158.194 224.978C158.194 224.978 155.958 221.633 153.27 221.359C150.581 221.084 147.592 219.224 144.102 219.922C144.767 217.256 150.216 218.593 152.266 217.067C154.278 215.498 153.781 213.274 153.781 213.274L157.27 215.947Z" fill="#5C414E"/>
<path d="M206.778 27.9269C206.913 26.9548 207.664 26.1754 208.659 25.9198C209.574 25.6988 210.792 25.6523 211.684 26.4884C213.279 28.0319 212.774 29.2961 212.561 29.5972C212.049 30.3122 211.668 31.466 208.013 30.2727C207.59 30.1304 206.572 29.4437 206.778 27.9269Z" fill="#2C1E24"/>
<path d="M217.835 39.3136C217.835 39.3136 226.075 41.8721 227.798 41.8943C229.522 41.9165 232.078 43.1241 230.743 44.4967C229.372 45.8279 224.256 44.1572 223.114 44.2474C222.091 44.3053 218.247 45.0218 217.72 43.3054C217.186 41.7062 216.459 39.3901 217.835 39.3136Z" fill="#E5737E"/>
<mask id="path-12-outside-1" maskUnits="userSpaceOnUse" x="0.809535" y="0.830309" width="237.136" height="244.657" fill="black">
<rect fill="white" x="0.809535" y="0.830309" width="237.136" height="244.657"/>
<path fill-rule="evenodd" clip-rule="evenodd" d="M210.013 20.9114C203.004 15.069 193.698 10.9346 185.056 18.6232C172.751 29.5712 168.119 53.4165 165.081 69.0543L165.081 69.0544L165.081 69.0546C163.964 74.8033 163.063 79.4429 162.075 81.9247C161.183 84.1571 160.675 86.3864 160.156 88.6666L160.156 88.6667L160.156 88.6669L160.156 88.667L160.156 88.6673C159.646 90.9052 159.125 93.1922 158.219 95.5789C155.03 97.1255 152.189 99.3885 149.951 102.268C148.809 103.691 147.654 105.349 146.487 107.201C144.52 110.286 125.795 121.226 108 131.216C106.43 131.967 104.795 132.749 103.107 133.559C78.2372 144.581 50.8476 154.833 44.0274 154.692C32.5944 154.456 22.799 157.06 23.242 160.888C23.5404 163.467 28.8377 164.203 36.6697 165.289C29.7026 168.513 24.6598 170.741 22.8691 171.294C14.0067 174.03 5.36997 177.603 7.1247 180.449C8.30878 182.37 21.1589 181.366 31.5693 180.553C36.5865 180.161 41.037 179.813 43.3419 179.858C49.8008 179.985 79.0578 179.424 92.9384 177.964C106.698 179.818 133.587 184.06 139.133 189.526C144.773 195.085 149.708 206.704 152.532 213.355L152.533 213.356C152.88 214.174 153.196 214.917 153.477 215.565C153.243 216.073 152.866 216.599 152.266 217.067C151.412 217.703 149.967 217.842 148.524 217.98C146.505 218.174 144.491 218.368 144.103 219.922C146.351 219.473 148.392 220.085 150.278 220.65L150.278 220.651C151.319 220.963 152.314 221.261 153.27 221.359C155.959 221.633 158.194 224.978 158.194 224.978C158.194 224.978 159.563 225.814 160.783 226.473C160.591 226.685 160.368 226.892 160.11 227.089C159.112 227.853 157.413 228.017 155.719 228.181C153.37 228.409 151.031 228.635 150.584 230.454C153.228 229.923 155.619 230.642 157.833 231.308C159.039 231.671 160.192 232.017 161.305 232.138C164.421 232.476 167.054 236.393 167.054 236.393C167.054 236.393 172.994 240.072 172.166 238.809C171.338 237.545 170.002 234.919 170.002 234.919C170.002 234.919 173.615 234.816 179.214 236.946C184.813 239.076 195.9 237.175 195.9 237.175C195.9 237.175 197.258 237.411 193.603 235.552C191.357 234.408 186.915 233.818 181.719 233.128C178.462 232.696 174.909 232.224 171.414 231.552C166.534 230.613 165.345 229.028 165.288 227.763C165.883 226.94 166.335 225.851 166.006 224.612C166.798 224.836 167.664 225.117 168.593 225.468C173.347 227.313 182.851 225.673 182.851 225.673C182.851 225.673 183.977 225.856 180.855 224.262C178.919 223.274 175.068 222.762 170.573 222.165L170.572 222.165L170.572 222.164C168.411 221.877 166.102 221.57 163.784 221.181C160.887 215.305 161.221 196.95 162.407 187.709C162.597 186.225 163.136 184.748 163.916 183.309C165.972 183.121 167.601 182.797 168.721 182.315C170.258 181.655 172.183 180.89 174.39 180.012L174.391 180.012L174.391 180.012C192.048 172.991 227.737 158.801 226.792 134.389C226.14 118.142 219.551 95.2648 214.647 78.2378C211.261 66.4815 208.678 57.514 209.408 55.443C212.982 45.2272 213.931 43.823 217.814 43.5266C218.475 44.7382 221.118 44.4543 222.505 44.3053C222.755 44.2783 222.965 44.2558 223.115 44.2473C223.463 44.2198 224.182 44.3563 225.051 44.5214C227.031 44.8973 229.791 45.4216 230.744 44.4966C231.443 43.7777 231.075 43.104 230.318 42.6222C230.174 42.0919 229.935 41.4869 229.587 40.8226L229.413 40.4977C228.692 39.1525 228.375 38.5622 227.748 38.0888C227.106 37.6593 221.233 33.5141 221.233 33.5141L221.233 33.5143L221.232 33.5141C221.232 33.5141 219.469 30.7918 216.543 27.4032C216.166 24.0202 213.476 21.2787 210.013 20.9114Z"/>
</mask>
<path d="M185.056 18.6232L187.051 20.8646L187.051 20.8646L185.056 18.6232ZM210.013 20.9114L208.092 23.2158L208.792 23.7986L209.697 23.8946L210.013 20.9114ZM165.081 69.0543L162.136 68.4822L162.098 68.6792L162.086 68.8795L165.081 69.0543ZM165.081 69.0546L168.026 69.6267L168.064 69.4297L168.076 69.2294L165.081 69.0546ZM162.075 81.9247L164.861 83.0376L164.862 83.0341L162.075 81.9247ZM160.156 88.6666L162.942 89.7795L163.029 89.5617L163.081 89.333L160.156 88.6666ZM160.156 88.6667L157.37 87.5538L157.346 87.6144L157.324 87.6759L160.156 88.6667ZM160.156 88.6669L157.324 87.676L157.308 87.7232L157.293 87.7709L160.156 88.6669ZM160.156 88.667L157.293 87.7711L157.281 87.8088L157.27 87.8467L160.156 88.667ZM160.156 88.6673L157.27 87.8469L157.248 87.9234L157.231 88.0009L160.156 88.6673ZM158.219 95.5789L159.528 98.2781L160.6 97.758L161.023 96.6437L158.219 95.5789ZM149.951 102.268L152.291 104.145L152.305 104.127L152.319 104.109L149.951 102.268ZM146.487 107.201L149.017 108.814L149.022 108.807L149.026 108.8L146.487 107.201ZM108 131.216L109.294 133.923L109.383 133.881L109.469 133.832L108 131.216ZM103.107 133.559L104.323 136.301L104.364 136.283L104.404 136.264L103.107 133.559ZM44.0274 154.692L43.9654 157.691L44.0274 154.692ZM23.242 160.888L26.2221 160.543L23.242 160.888ZM36.6697 165.289L37.9297 168.011L47.2015 163.72L37.0817 162.317L36.6697 165.289ZM22.8691 171.294L21.984 168.427L21.984 168.427L22.8691 171.294ZM7.1247 180.449L4.57094 182.024L4.57095 182.024L7.1247 180.449ZM31.5693 180.553L31.3356 177.562L31.5693 180.553ZM43.3419 179.858L43.2829 182.858L43.2829 182.858L43.3419 179.858ZM92.9384 177.964L93.3388 174.991L92.9824 174.943L92.6247 174.981L92.9384 177.964ZM139.133 189.526L137.027 191.662L139.133 189.526ZM152.532 213.355L149.771 214.528L149.775 214.538L152.532 213.355ZM152.533 213.356L155.294 212.183L155.29 212.173L152.533 213.356ZM153.477 215.565L156.203 216.818L156.763 215.6L156.229 214.37L153.477 215.565ZM152.266 217.067L154.059 219.472L154.085 219.453L154.11 219.433L152.266 217.067ZM148.524 217.98L148.237 214.994L148.237 214.994L148.524 217.98ZM144.103 219.922L141.192 219.196L140.045 223.793L144.691 222.864L144.103 219.922ZM150.278 220.65L151.391 217.865L151.267 217.815L151.14 217.777L150.278 220.65ZM150.278 220.651L149.165 223.436L149.289 223.486L149.416 223.524L150.278 220.651ZM153.27 221.359L153.575 218.374L153.27 221.359ZM158.194 224.978L155.7 226.645L156.067 227.194L156.631 227.539L158.194 224.978ZM160.783 226.473L163.004 228.49L165.579 225.655L162.209 223.834L160.783 226.473ZM160.11 227.089L158.287 224.707L160.11 227.089ZM155.719 228.181L156.008 231.167L156.008 231.167L155.719 228.181ZM150.584 230.454L147.671 229.736L146.541 234.325L151.174 233.395L150.584 230.454ZM157.833 231.308L156.969 234.181L156.969 234.181L157.833 231.308ZM161.305 232.138L161.629 229.155L161.627 229.155L161.305 232.138ZM167.054 236.393L164.565 238.067L164.925 238.603L165.475 238.944L167.054 236.393ZM172.166 238.809L169.657 240.453L169.657 240.453L172.166 238.809ZM170.002 234.919L169.917 231.92L165.179 232.055L167.328 236.28L170.002 234.919ZM179.214 236.946L178.147 239.75L179.214 236.946ZM195.9 237.175L196.414 234.22L195.903 234.131L195.393 234.218L195.9 237.175ZM193.603 235.552L192.243 238.225L192.243 238.225L193.603 235.552ZM181.719 233.128L182.114 230.154L182.114 230.154L181.719 233.128ZM171.414 231.552L170.847 234.498L171.414 231.552ZM165.288 227.763L162.858 226.003L162.243 226.851L162.291 227.898L165.288 227.763ZM166.006 224.612L166.824 221.726L161.752 220.287L163.107 225.382L166.006 224.612ZM168.593 225.468L169.679 222.671L169.666 222.666L169.652 222.661L168.593 225.468ZM182.851 225.673L183.333 222.712L182.836 222.631L182.34 222.716L182.851 225.673ZM180.855 224.262L179.491 226.934L180.855 224.262ZM170.573 222.165L170.968 219.191L170.858 219.176L170.747 219.17L170.573 222.165ZM170.572 222.165L170.127 225.131L170.262 225.151L170.398 225.159L170.572 222.165ZM170.572 222.164L171.017 219.198L170.992 219.194L170.967 219.191L170.572 222.164ZM163.784 221.181L161.093 222.508L161.772 223.885L163.287 224.14L163.784 221.181ZM162.407 187.709L165.383 188.091L162.407 187.709ZM163.916 183.309L163.644 180.321L162.043 180.467L161.278 181.88L163.916 183.309ZM168.721 182.315L167.538 179.558L167.535 179.559L168.721 182.315ZM174.39 180.012L175.499 182.8L175.536 182.785L175.573 182.769L174.39 180.012ZM174.391 180.012L173.282 177.224L173.245 177.239L173.208 177.255L174.391 180.012ZM174.391 180.012L175.499 182.8L175.5 182.8L174.391 180.012ZM226.792 134.389L229.79 134.273L229.79 134.269L226.792 134.389ZM214.647 78.2378L211.764 79.0681L211.764 79.0681L214.647 78.2378ZM209.408 55.443L212.237 56.4395L212.239 56.4339L209.408 55.443ZM217.814 43.5266L220.447 42.0892L219.518 40.3877L217.585 40.5353L217.814 43.5266ZM222.505 44.3053L222.184 41.3224L222.184 41.3225L222.505 44.3053ZM223.115 44.2473L223.284 47.2425L223.318 47.2407L223.351 47.238L223.115 44.2473ZM225.051 44.5214L224.492 47.4687L225.051 44.5214ZM230.744 44.4966L232.834 46.6492L232.865 46.619L232.895 46.588L230.744 44.4966ZM230.318 42.6222L227.423 43.4094L227.728 44.5299L228.707 45.1532L230.318 42.6222ZM229.587 40.8226L232.245 39.4316L232.238 39.4177L232.231 39.4039L229.587 40.8226ZM229.413 40.4977L226.769 41.9154L226.77 41.9164L229.413 40.4977ZM227.748 38.0888L229.554 35.6938L229.487 35.643L229.417 35.596L227.748 38.0888ZM221.233 33.5141L222.963 31.063L220.39 29.2472L218.701 31.9049L221.233 33.5141ZM221.233 33.5143L219.511 35.971L222.081 37.7722L223.765 35.1234L221.233 33.5143ZM221.232 33.5141L218.715 35.1453L219.032 35.6356L219.511 35.9709L221.232 33.5141ZM216.543 27.4032L213.562 27.7356L213.665 28.6598L214.272 29.3637L216.543 27.4032ZM187.051 20.8646C190.667 17.6473 194.209 17.0073 197.594 17.6418C201.158 18.3098 204.769 20.4457 208.092 23.2158L211.934 18.6069C208.248 15.5347 203.702 12.6821 198.7 11.7445C193.519 10.7734 188.088 11.9105 183.062 16.3819L187.051 20.8646ZM168.026 69.6264C169.55 61.7819 171.435 52.0971 174.441 43.0235C177.469 33.8847 181.499 25.8038 187.051 20.8646L183.062 16.3819C176.309 22.3907 171.87 31.7064 168.746 41.1366C165.6 50.6321 163.65 60.6888 162.136 68.4822L168.026 69.6264ZM168.076 69.2292L168.076 69.2291L162.086 68.8795L162.086 68.8797L168.076 69.2292ZM168.076 69.2294L168.076 69.2292L162.086 68.8797L162.086 68.8798L168.076 69.2294ZM164.862 83.0341C165.983 80.2192 166.942 75.2088 168.026 69.6267L162.136 68.4825C160.987 74.3979 160.143 78.6665 159.288 80.8153L164.862 83.0341ZM163.081 89.333C163.608 87.0214 164.07 85.0182 164.861 83.0376L159.289 80.8118C158.297 83.2959 157.743 85.7514 157.231 88.0001L163.081 89.333ZM162.942 89.7796L162.942 89.7795L157.37 87.5537L157.37 87.5538L162.942 89.7796ZM162.987 89.6577L162.987 89.6575L157.324 87.6759L157.324 87.676L162.987 89.6577ZM163.019 89.563L163.019 89.5628L157.293 87.7709L157.293 87.7711L163.019 89.563ZM163.041 89.4876L163.041 89.4874L157.27 87.8467L157.27 87.8469L163.041 89.4876ZM161.023 96.6437C162.014 94.0342 162.575 91.5515 163.081 89.3337L157.231 88.0009C156.716 90.259 156.235 92.3502 155.414 94.5141L161.023 96.6437ZM152.319 104.109C154.269 101.601 156.744 99.6283 159.528 98.2781L156.909 92.8796C153.316 94.6228 150.11 97.1758 147.582 100.427L152.319 104.109ZM149.026 108.8C150.15 107.016 151.239 105.457 152.291 104.145L147.61 100.391C146.379 101.926 145.158 103.682 143.949 105.603L149.026 108.8ZM109.469 133.832C118.375 128.833 127.543 123.578 134.743 119.179C138.339 116.983 141.481 114.976 143.866 113.309C145.056 112.477 146.095 111.702 146.922 111.012C147.675 110.383 148.501 109.623 149.017 108.814L143.958 105.589C143.982 105.551 143.793 105.808 143.076 106.407C142.433 106.944 141.547 107.609 140.427 108.392C138.192 109.955 135.171 111.887 131.615 114.059C124.512 118.399 115.421 123.61 106.532 128.6L109.469 133.832ZM104.404 136.264C106.091 135.455 107.725 134.673 109.294 133.923L106.707 128.51C105.135 129.26 103.499 130.044 101.81 130.853L104.404 136.264ZM43.9654 157.691C46.1813 157.737 49.5815 156.988 53.4591 155.885C57.469 154.745 62.3825 153.106 67.8222 151.132C78.708 147.181 91.8379 141.835 104.323 136.301L101.892 130.816C89.5065 136.305 76.5066 141.597 65.7751 145.492C60.4061 147.44 55.639 149.027 51.8179 150.114C47.8647 151.238 45.2835 151.717 44.0893 151.693L43.9654 157.691ZM26.2221 160.543C26.2865 161.1 25.87 161.142 26.4991 160.668C27.1157 160.204 28.2594 159.653 30.0108 159.149C33.462 158.156 38.4515 157.578 43.9654 157.691L44.0893 151.693C38.1702 151.57 32.5455 152.176 28.3516 153.383C26.2803 153.979 24.3436 154.781 22.8909 155.875C21.4508 156.959 19.9759 158.762 20.2618 161.233L26.2221 160.543ZM37.0817 162.317C33.0824 161.763 30.0316 161.333 27.9244 160.755C26.868 160.465 26.3055 160.202 26.0493 160.029C25.8497 159.893 26.1651 160.05 26.2221 160.543L20.2618 161.233C20.4681 163.015 21.5574 164.231 22.6798 164.993C23.7456 165.716 25.0529 166.189 26.3371 166.541C28.9112 167.247 32.4251 167.729 36.2577 168.26L37.0817 162.317ZM23.7542 174.16C25.7879 173.532 31.0622 171.19 37.9297 168.011L35.4097 162.566C28.343 165.837 23.5316 167.949 21.984 168.427L23.7542 174.16ZM9.67846 178.875C9.86435 179.177 9.95121 179.613 9.85897 180.017C9.79024 180.319 9.6718 180.383 9.82637 180.212C10.1593 179.842 10.9612 179.243 12.4039 178.49C15.2011 177.029 19.3625 175.516 23.7542 174.16L21.984 168.427C17.5133 169.808 12.9251 171.449 9.62709 173.171C8.02211 174.009 6.43993 175.007 5.37006 176.194C4.82322 176.801 4.24868 177.632 4.00887 178.685C3.74556 179.84 3.94636 181.011 4.57094 182.024L9.67846 178.875ZM31.3356 177.562C26.1059 177.971 20.379 178.417 15.8147 178.527C13.5207 178.583 11.6337 178.549 10.2973 178.407C9.6193 178.335 9.20726 178.247 9.00007 178.181C8.63828 178.065 9.22727 178.143 9.67845 178.875L4.57095 182.024C5.31815 183.236 6.56773 183.703 7.17598 183.897C7.93884 184.14 8.80631 184.282 9.66221 184.373C11.3935 184.558 13.5917 184.583 15.9596 184.526C20.719 184.411 26.6223 183.948 31.803 183.544L31.3356 177.562ZM43.4008 176.859C40.9084 176.81 36.2605 177.177 31.3356 177.562L31.803 183.544C36.9125 183.144 41.1656 182.816 43.2829 182.858L43.4008 176.859ZM92.6247 174.981C78.9093 176.423 49.7853 176.984 43.4008 176.859L43.2829 182.858C49.8162 182.986 79.2064 182.425 93.2521 180.948L92.6247 174.981ZM141.239 187.389C139.317 185.494 135.994 184.03 132.476 182.834C128.806 181.586 124.37 180.457 119.75 179.458C110.5 177.458 100.247 175.922 93.3388 174.991L92.538 180.938C99.39 181.86 109.461 183.372 118.482 185.322C122.997 186.299 127.184 187.371 130.545 188.514C134.059 189.709 136.177 190.824 137.027 191.662L141.239 187.389ZM155.294 212.183C153.885 208.866 151.904 204.199 149.553 199.653C147.231 195.163 144.411 190.516 141.239 187.389L137.027 191.662C139.495 194.095 141.963 198.037 144.224 202.409C146.456 206.725 148.355 211.193 149.771 214.528L155.294 212.183ZM155.29 212.173L155.289 212.172L149.775 214.538L149.776 214.539L155.29 212.173ZM156.229 214.37C155.953 213.736 155.643 213.005 155.294 212.183L149.771 214.529C150.118 215.344 150.438 216.099 150.725 216.76L156.229 214.37ZM154.11 219.433C155.107 218.656 155.778 217.741 156.203 216.818L150.751 214.312C150.708 214.405 150.626 214.542 150.422 214.7L154.11 219.433ZM148.81 220.967C149.495 220.901 150.381 220.819 151.212 220.65C152.019 220.487 153.106 220.182 154.059 219.472L150.474 214.661C150.573 214.587 150.51 214.671 150.019 214.77C149.553 214.865 148.995 214.921 148.237 214.994L148.81 220.967ZM147.013 220.648C146.954 220.887 146.808 221.109 146.645 221.251C146.522 221.358 146.475 221.345 146.646 221.288C146.813 221.233 147.073 221.173 147.468 221.116C147.861 221.058 148.291 221.017 148.81 220.967L148.237 214.994C147.33 215.081 145.949 215.198 144.757 215.594C143.481 216.017 141.74 216.998 141.192 219.196L147.013 220.648ZM151.14 217.777C149.339 217.237 146.601 216.363 143.514 216.98L144.691 222.864C146.102 222.582 147.444 222.933 149.416 223.524L151.14 217.777ZM151.391 217.865L151.391 217.865L149.165 223.436L149.165 223.436L151.391 217.865ZM153.575 218.374C152.956 218.311 152.247 218.109 151.14 217.777L149.416 223.524C150.392 223.817 151.672 224.211 152.966 224.343L153.575 218.374ZM158.194 224.978C160.689 223.312 160.688 223.311 160.688 223.31C160.688 223.31 160.687 223.309 160.687 223.309C160.686 223.308 160.686 223.307 160.685 223.306C160.684 223.304 160.682 223.301 160.68 223.299C160.677 223.294 160.673 223.288 160.668 223.281C160.659 223.268 160.648 223.251 160.634 223.232C160.607 223.192 160.571 223.141 160.526 223.079C160.437 222.955 160.312 222.787 160.156 222.59C159.846 222.198 159.396 221.669 158.832 221.121C157.812 220.129 155.962 218.618 153.575 218.374L152.966 224.343C153.268 224.374 153.879 224.673 154.649 225.422C154.981 225.745 155.257 226.069 155.451 226.313C155.546 226.433 155.617 226.529 155.66 226.589C155.682 226.619 155.696 226.64 155.703 226.65C155.706 226.655 155.708 226.657 155.707 226.656C155.707 226.656 155.707 226.655 155.705 226.653C155.705 226.652 155.704 226.651 155.703 226.65C155.703 226.649 155.702 226.648 155.702 226.648C155.701 226.647 155.701 226.647 155.701 226.646C155.7 226.646 155.7 226.645 158.194 224.978ZM162.209 223.834C161.646 223.529 161.034 223.177 160.554 222.894C160.316 222.754 160.115 222.633 159.974 222.549C159.903 222.506 159.848 222.473 159.811 222.45C159.793 222.439 159.779 222.431 159.77 222.425C159.765 222.423 159.762 222.421 159.76 222.419C159.759 222.419 159.758 222.418 159.758 222.418C159.758 222.418 159.758 222.418 159.758 222.418C159.758 222.418 159.758 222.418 159.758 222.418C159.758 222.418 159.758 222.418 159.758 222.418C159.758 222.418 159.758 222.418 158.194 224.978C156.631 227.539 156.631 227.539 156.631 227.539C156.631 227.539 156.631 227.539 156.631 227.539C156.631 227.539 156.631 227.539 156.632 227.539C156.632 227.539 156.632 227.54 156.633 227.54C156.634 227.54 156.635 227.541 156.637 227.542C156.64 227.544 156.644 227.547 156.65 227.551C156.662 227.558 156.679 227.568 156.7 227.581C156.742 227.607 156.804 227.644 156.881 227.69C157.035 227.782 157.252 227.912 157.509 228.064C158.017 228.363 158.7 228.758 159.357 229.113L162.209 223.834ZM161.933 229.472C162.333 229.166 162.689 228.837 163.004 228.49L158.562 224.457C158.493 224.532 158.404 224.617 158.287 224.707L161.933 229.472ZM156.008 231.167C156.817 231.089 157.834 230.994 158.782 230.798C159.706 230.608 160.903 230.26 161.933 229.472L158.287 224.707C158.32 224.682 158.168 224.798 157.57 224.922C156.995 225.04 156.314 225.11 155.43 225.195L156.008 231.167ZM153.497 231.171C153.455 231.34 153.345 231.512 153.226 231.616C153.147 231.686 153.156 231.644 153.39 231.566C153.62 231.489 153.952 231.414 154.424 231.345C154.895 231.276 155.406 231.226 156.008 231.167L155.43 225.195C154.358 225.299 152.811 225.433 151.487 225.876C150.073 226.348 148.244 227.409 147.671 229.736L153.497 231.171ZM158.697 228.435C156.568 227.794 153.478 226.813 149.993 227.512L151.174 233.395C152.979 233.033 154.671 233.49 156.969 234.181L158.697 228.435ZM161.627 229.155C160.842 229.07 159.966 228.817 158.697 228.435L156.969 234.181C158.112 234.525 159.542 234.965 160.983 235.12L161.627 229.155ZM167.054 236.393C169.544 234.72 169.544 234.719 169.543 234.718C169.543 234.718 169.543 234.718 169.542 234.717C169.542 234.716 169.541 234.715 169.54 234.714C169.539 234.712 169.537 234.71 169.535 234.707C169.532 234.702 169.528 234.695 169.523 234.688C169.513 234.674 169.501 234.656 169.485 234.634C169.455 234.591 169.415 234.534 169.364 234.464C169.264 234.325 169.122 234.136 168.944 233.911C168.592 233.467 168.08 232.866 167.443 232.245C166.276 231.108 164.225 229.437 161.629 229.155L160.981 235.12C161.501 235.177 162.324 235.634 163.254 236.541C163.664 236.941 164.006 237.34 164.244 237.641C164.362 237.789 164.45 237.908 164.506 237.985C164.533 238.023 164.552 238.05 164.563 238.064C164.568 238.071 164.57 238.075 164.571 238.076C164.571 238.076 164.57 238.076 164.569 238.074C164.569 238.073 164.568 238.072 164.567 238.071C164.567 238.071 164.567 238.07 164.566 238.069C164.566 238.069 164.566 238.068 164.565 238.068C164.565 238.068 164.565 238.067 167.054 236.393ZM169.657 240.453C169.623 240.4 169.548 240.28 169.472 240.106C169.405 239.951 169.271 239.603 169.249 239.129C169.224 238.608 169.339 237.855 169.887 237.169C170.412 236.511 171.069 236.252 171.472 236.153C171.863 236.058 172.177 236.069 172.323 236.08C172.487 236.091 172.608 236.116 172.666 236.129C172.778 236.155 172.826 236.177 172.782 236.16C172.563 236.076 172.066 235.832 171.369 235.448C170.722 235.091 170.038 234.69 169.509 234.373C169.246 234.216 169.025 234.082 168.871 233.988C168.793 233.941 168.733 233.904 168.693 233.879C168.672 233.867 168.657 233.857 168.647 233.851C168.642 233.848 168.639 233.846 168.636 233.844C168.635 233.844 168.634 233.843 168.634 233.843C168.634 233.843 168.634 233.843 168.634 233.843C168.634 233.843 168.634 233.843 168.634 233.843C168.634 233.843 168.634 233.843 167.054 236.393C165.475 238.944 165.475 238.944 165.475 238.944C165.475 238.944 165.475 238.944 165.475 238.944C165.476 238.945 165.476 238.945 165.477 238.945C165.478 238.946 165.479 238.947 165.481 238.948C165.484 238.95 165.489 238.953 165.496 238.957C165.508 238.964 165.526 238.975 165.549 238.99C165.595 239.018 165.662 239.059 165.745 239.11C165.912 239.212 166.149 239.355 166.43 239.523C166.989 239.857 167.738 240.297 168.472 240.702C169.157 241.079 169.99 241.518 170.652 241.769C170.828 241.836 171.069 241.919 171.338 241.98C171.494 242.016 172.138 242.167 172.897 241.982C173.342 241.873 174.03 241.597 174.576 240.912C175.144 240.201 175.268 239.414 175.242 238.851C175.2 237.945 174.766 237.303 174.676 237.164L169.657 240.453ZM170.002 234.919C167.328 236.28 167.328 236.28 167.328 236.28C167.328 236.28 167.329 236.28 167.329 236.28C167.329 236.28 167.329 236.28 167.329 236.281C167.329 236.281 167.33 236.282 167.33 236.283C167.331 236.284 167.332 236.287 167.333 236.29C167.336 236.295 167.341 236.304 167.346 236.314C167.357 236.336 167.373 236.366 167.393 236.405C167.433 236.483 167.49 236.595 167.562 236.733C167.705 237.007 167.904 237.388 168.131 237.81C168.568 238.623 169.164 239.7 169.657 240.453L174.676 237.164C174.341 236.654 173.855 235.786 173.416 234.97C173.206 234.578 173.019 234.223 172.886 233.965C172.819 233.837 172.766 233.734 172.73 233.663C172.711 233.628 172.698 233.601 172.688 233.583C172.684 233.574 172.681 233.568 172.678 233.564C172.677 233.561 172.677 233.56 172.676 233.559C172.676 233.559 172.676 233.558 172.676 233.558C172.676 233.558 172.676 233.558 172.676 233.558C172.676 233.558 172.676 233.558 172.676 233.558C172.676 233.558 172.676 233.558 170.002 234.919ZM180.28 234.142C177.264 232.995 174.752 232.437 172.953 232.167C172.055 232.032 171.335 231.969 170.82 231.941C170.563 231.927 170.357 231.921 170.205 231.919C170.129 231.918 170.067 231.918 170.019 231.918C169.995 231.919 169.974 231.919 169.957 231.919C169.949 231.919 169.941 231.92 169.934 231.92C169.931 231.92 169.928 231.92 169.925 231.92C169.923 231.92 169.922 231.92 169.921 231.92C169.92 231.92 169.919 231.92 169.919 231.92C169.918 231.92 169.917 231.92 170.002 234.919C170.087 237.918 170.086 237.918 170.086 237.918C170.085 237.918 170.084 237.918 170.084 237.918C170.083 237.918 170.082 237.918 170.081 237.918C170.079 237.918 170.077 237.918 170.075 237.918C170.072 237.918 170.07 237.918 170.068 237.918C170.065 237.918 170.065 237.918 170.069 237.918C170.077 237.918 170.097 237.918 170.131 237.918C170.199 237.919 170.319 237.922 170.488 237.932C170.825 237.95 171.359 237.995 172.063 238.101C173.471 238.312 175.564 238.767 178.147 239.75L180.28 234.142ZM195.9 237.175C195.393 234.218 195.393 234.218 195.394 234.218C195.394 234.218 195.394 234.218 195.394 234.218C195.394 234.218 195.394 234.218 195.394 234.218C195.394 234.218 195.393 234.218 195.391 234.219C195.388 234.219 195.382 234.22 195.374 234.222C195.357 234.224 195.33 234.229 195.293 234.235C195.22 234.247 195.108 234.265 194.961 234.287C194.667 234.332 194.235 234.394 193.697 234.463C192.619 234.602 191.128 234.765 189.476 234.865C186.011 235.073 182.421 234.957 180.28 234.142L178.147 239.75C181.605 241.066 186.358 241.063 189.837 240.854C191.657 240.744 193.288 240.566 194.463 240.414C195.052 240.339 195.53 240.269 195.864 240.219C196.031 240.193 196.163 240.172 196.255 240.157C196.301 240.15 196.337 240.144 196.362 240.14C196.375 240.138 196.385 240.136 196.393 240.135C196.396 240.134 196.399 240.133 196.402 240.133C196.403 240.133 196.404 240.133 196.405 240.132C196.405 240.132 196.406 240.132 196.406 240.132C196.407 240.132 196.407 240.132 195.9 237.175ZM192.243 238.225C193.125 238.674 193.641 238.965 193.925 239.14C194.068 239.229 194.11 239.263 194.093 239.25C194.083 239.242 194.036 239.205 193.969 239.14C193.91 239.082 193.777 238.948 193.637 238.741C193.513 238.558 193.252 238.127 193.171 237.501C193.075 236.759 193.261 235.933 193.81 235.259C194.279 234.681 194.832 234.441 195.103 234.345C195.396 234.241 195.638 234.21 195.761 234.198C196.004 234.173 196.185 234.19 196.232 234.195C196.272 234.199 196.305 234.203 196.333 234.207C196.347 234.209 196.36 234.211 196.374 234.213C196.38 234.214 196.387 234.215 196.394 234.216C196.397 234.217 196.4 234.217 196.404 234.218C196.405 234.218 196.407 234.218 196.409 234.219C196.409 234.219 196.411 234.219 196.411 234.219C196.412 234.219 196.414 234.22 195.9 237.175C195.386 240.131 195.388 240.131 195.389 240.131C195.389 240.131 195.391 240.132 195.391 240.132C195.393 240.132 195.395 240.132 195.397 240.133C195.4 240.133 195.404 240.134 195.408 240.135C195.416 240.136 195.425 240.137 195.434 240.139C195.452 240.142 195.473 240.145 195.496 240.148C195.541 240.155 195.601 240.162 195.67 240.169C195.778 240.179 196.036 240.2 196.35 240.169C196.507 240.153 196.782 240.115 197.104 240.002C197.403 239.896 197.979 239.641 198.464 239.045C199.028 238.352 199.221 237.502 199.122 236.73C199.037 236.074 198.761 235.607 198.607 235.38C198.306 234.935 197.943 234.643 197.779 234.515C197.565 234.348 197.327 234.19 197.083 234.039C196.594 233.736 195.909 233.359 194.964 232.878L192.243 238.225ZM181.324 236.102C183.945 236.45 186.272 236.76 188.223 237.12C190.238 237.492 191.537 237.866 192.243 238.225L194.964 232.878C193.424 232.094 191.378 231.601 189.312 231.22C187.181 230.827 184.689 230.496 182.114 230.154L181.324 236.102ZM170.847 234.498C174.441 235.189 178.08 235.671 181.324 236.102L182.114 230.154C178.844 229.72 175.376 229.259 171.98 228.606L170.847 234.498ZM162.291 227.898C162.366 229.565 163.23 231.069 164.766 232.197C166.191 233.244 168.203 233.989 170.847 234.498L171.98 228.606C169.744 228.176 168.722 227.658 168.318 227.362C168.025 227.147 168.266 227.226 168.285 227.628L162.291 227.898ZM163.107 225.382C163.12 225.434 163.122 225.472 163.102 225.546C163.075 225.643 163.006 225.799 162.858 226.003L167.717 229.523C168.599 228.305 169.555 226.285 168.905 223.841L163.107 225.382ZM169.652 222.661C168.641 222.279 167.695 221.973 166.824 221.726L165.187 227.498C165.9 227.7 166.686 227.955 167.534 228.275L169.652 222.661ZM182.851 225.673C182.34 222.716 182.341 222.716 182.341 222.716C182.341 222.716 182.341 222.716 182.341 222.716C182.342 222.716 182.342 222.716 182.342 222.716C182.342 222.716 182.341 222.716 182.34 222.716C182.337 222.717 182.333 222.718 182.326 222.719C182.312 222.721 182.29 222.725 182.259 222.73C182.197 222.74 182.103 222.755 181.978 222.774C181.73 222.812 181.363 222.866 180.906 222.925C179.989 223.044 178.723 223.183 177.323 223.268C174.357 223.447 171.386 223.334 169.679 222.671L167.508 228.264C170.554 229.447 174.711 229.436 177.685 229.257C179.256 229.162 180.663 229.006 181.677 228.875C182.185 228.809 182.598 228.749 182.887 228.705C183.032 228.683 183.147 228.664 183.227 228.651C183.267 228.645 183.298 228.639 183.321 228.636C183.332 228.634 183.341 228.632 183.348 228.631C183.351 228.63 183.354 228.63 183.356 228.63C183.357 228.629 183.358 228.629 183.359 228.629C183.359 228.629 183.36 228.629 183.36 228.629C183.36 228.629 183.361 228.629 182.851 225.673ZM179.491 226.934C180.24 227.316 180.671 227.561 180.902 227.704C181.019 227.776 181.045 227.799 181.019 227.779C181.005 227.768 180.957 227.73 180.891 227.667C180.832 227.61 180.708 227.487 180.576 227.299C180.457 227.132 180.217 226.756 180.106 226.205C179.979 225.572 180.042 224.765 180.52 224.023C180.948 223.357 181.518 223.045 181.833 222.91C182.158 222.77 182.434 222.723 182.574 222.704C182.854 222.666 183.065 222.682 183.123 222.686C183.17 222.69 183.21 222.694 183.242 222.698C183.258 222.7 183.274 222.703 183.289 222.705C183.296 222.706 183.304 222.707 183.311 222.708C183.314 222.709 183.318 222.709 183.322 222.71C183.324 222.71 183.325 222.71 183.327 222.711C183.328 222.711 183.329 222.711 183.33 222.711C183.331 222.711 183.333 222.712 182.851 225.673C182.369 228.634 182.37 228.634 182.371 228.634C182.372 228.634 182.373 228.634 182.374 228.634C182.376 228.635 182.378 228.635 182.38 228.635C182.384 228.636 182.388 228.637 182.392 228.637C182.4 228.639 182.409 228.64 182.419 228.641C182.438 228.644 182.459 228.647 182.483 228.65C182.53 228.656 182.591 228.663 182.663 228.668C182.77 228.677 183.045 228.695 183.381 228.649C183.55 228.626 183.853 228.572 184.2 228.423C184.537 228.278 185.126 227.953 185.565 227.27C186.637 225.604 185.653 224.087 185.471 223.831C185.185 223.426 184.853 223.159 184.697 223.039C184.499 222.885 184.282 222.74 184.066 222.606C183.63 222.336 183.032 222.005 182.219 221.59L179.491 226.934ZM170.177 225.138C172.448 225.44 174.452 225.707 176.129 226.017C177.871 226.339 178.942 226.654 179.491 226.934L182.219 221.59C180.832 220.882 179.009 220.447 177.218 220.117C175.362 219.774 173.193 219.486 170.968 219.191L170.177 225.138ZM170.398 225.159L170.398 225.159L170.747 219.17L170.747 219.17L170.398 225.159ZM170.127 225.131L170.127 225.131L171.018 219.198L171.017 219.198L170.127 225.131ZM163.287 224.14C165.664 224.539 168.023 224.852 170.177 225.138L170.967 219.191C168.799 218.902 166.54 218.602 164.281 218.223L163.287 224.14ZM159.431 187.327C158.817 192.112 158.432 199.16 158.565 205.767C158.631 209.075 158.829 212.328 159.206 215.166C159.573 217.928 160.143 220.581 161.093 222.508L166.475 219.855C165.976 218.843 165.502 216.998 165.154 214.376C164.816 211.832 164.627 208.817 164.564 205.646C164.436 199.296 164.811 192.546 165.383 188.091L159.431 187.327ZM161.278 181.88C160.369 183.557 159.68 185.389 159.431 187.327L165.383 188.091C165.515 187.062 165.902 185.94 166.554 184.737L161.278 181.88ZM167.535 179.559C166.853 179.853 165.6 180.143 163.644 180.321L164.188 186.296C166.343 186.1 168.349 185.741 169.908 185.07L167.535 179.559ZM173.282 177.225C171.088 178.097 169.12 178.879 167.538 179.558L169.904 185.072C171.396 184.432 173.278 183.683 175.499 182.8L173.282 177.225ZM173.208 177.255L173.207 177.255L175.573 182.769L175.574 182.769L173.208 177.255ZM173.283 177.224L173.282 177.224L175.499 182.8L175.499 182.8L173.283 177.224ZM223.794 134.505C224.203 145.075 216.696 153.898 205.882 161.24C195.185 168.504 182.154 173.697 173.283 177.224L175.5 182.8C184.286 179.306 197.927 173.894 209.253 166.204C220.461 158.594 230.325 148.116 229.79 134.273L223.794 134.505ZM211.764 79.0681C216.707 96.2285 223.16 118.707 223.794 134.51L229.79 134.269C229.12 117.577 222.395 94.3011 217.53 77.4075L211.764 79.0681ZM206.578 54.4466C206.31 55.2065 206.275 55.9941 206.285 56.5828C206.295 57.2259 206.367 57.9313 206.474 58.6595C206.687 60.1175 207.074 61.9092 207.571 63.9258C208.566 67.966 210.078 73.2121 211.764 79.0681L217.53 77.4075C215.83 71.5071 214.358 66.3914 213.397 62.491C212.916 60.5373 212.582 58.9641 212.411 57.7909C212.325 57.2034 212.289 56.7766 212.284 56.487C212.279 56.143 212.322 56.1973 212.237 56.4395L206.578 54.4466ZM217.585 40.5353C216.479 40.6197 215.253 40.8006 214.062 41.3745C212.814 41.9764 211.851 42.8867 211.04 44.0408C209.579 46.1216 208.314 49.4839 206.576 54.4522L212.239 56.4339C214.075 51.1863 215.073 48.7387 215.95 47.4892C216.309 46.9783 216.535 46.8434 216.668 46.7794C216.858 46.6874 217.207 46.5816 218.042 46.5179L217.585 40.5353ZM222.184 41.3225C221.449 41.4015 220.701 41.4743 220.089 41.433C219.787 41.4126 219.687 41.3725 219.721 41.3856C219.764 41.4024 220.163 41.5698 220.447 42.0892L215.18 44.964C215.795 46.0892 216.772 46.6755 217.54 46.9751C218.299 47.2711 219.071 47.3779 219.685 47.4194C220.906 47.5017 222.174 47.3581 222.825 47.2881L222.184 41.3225ZM222.945 41.2521C222.701 41.2659 222.401 41.2992 222.184 41.3224L222.825 47.2881C223.11 47.2575 223.229 47.2457 223.284 47.2425L222.945 41.2521ZM225.611 41.5741C225.193 41.4946 224.74 41.4082 224.346 41.3474C224.031 41.2988 223.444 41.212 222.879 41.2567L223.351 47.238C223.197 47.2502 223.118 47.2384 223.177 47.2437C223.218 47.2473 223.298 47.2566 223.429 47.2769C223.699 47.3187 224.04 47.3831 224.492 47.4687L225.611 41.5741ZM228.655 42.344C229.024 41.9855 229.343 41.9656 229.208 41.9895C229.107 42.0075 228.869 42.0263 228.46 42.0021C227.631 41.9531 226.643 41.7701 225.611 41.5741L224.492 47.4687C225.439 47.6486 226.821 47.9157 228.106 47.9916C228.753 48.0298 229.508 48.0297 230.254 47.8976C230.966 47.7715 231.988 47.4702 232.834 46.6492L228.655 42.344ZM228.707 45.1532C228.841 45.2383 228.423 45.0362 228.213 44.3639C228.09 43.9692 228.08 43.522 228.207 43.1C228.326 42.7079 228.519 42.482 228.593 42.4053L232.895 46.588C233.811 45.6465 234.446 44.1954 233.941 42.5771C233.533 41.2677 232.552 40.4878 231.928 40.0912L228.707 45.1532ZM226.929 42.2136C227.194 42.7204 227.345 43.1229 227.423 43.4094L233.213 41.8349C233.002 41.0609 232.675 40.2534 232.245 39.4316L226.929 42.2136ZM226.77 41.9164L226.944 42.2413L232.231 39.4039L232.056 39.079L226.77 41.9164ZM225.941 40.4837C225.949 40.4895 225.945 40.4872 225.945 40.4873C225.95 40.4923 225.98 40.5259 226.042 40.6202C226.196 40.8535 226.382 41.1945 226.769 41.9154L232.057 39.0801C231.439 37.9273 230.819 36.6478 229.554 35.6938L225.941 40.4837ZM221.233 33.5141C219.503 35.9651 219.503 35.9651 219.503 35.9651C219.503 35.9652 219.503 35.9652 219.503 35.9653C219.503 35.9654 219.504 35.9656 219.504 35.9659C219.505 35.9664 219.506 35.9671 219.507 35.9681C219.51 35.9701 219.514 35.9731 219.52 35.9771C219.531 35.985 219.548 35.9966 219.569 36.0119C219.613 36.0424 219.676 36.0872 219.757 36.1444C219.919 36.2587 220.151 36.4224 220.432 36.6202C220.993 37.0159 221.748 37.5479 222.523 38.0936C224.047 39.1662 225.72 40.3414 226.078 40.5816L229.417 35.596C229.134 35.4068 227.55 34.2946 225.976 33.1872C225.203 32.6428 224.45 32.1117 223.889 31.7167C223.609 31.5192 223.377 31.3557 223.216 31.2417C223.135 31.1846 223.072 31.1399 223.029 31.1095C223.007 31.0943 222.991 31.0827 222.979 31.0749C222.974 31.0709 222.97 31.068 222.967 31.066C222.965 31.065 222.964 31.0643 222.964 31.0638C222.963 31.0635 222.963 31.0633 222.963 31.0632C222.963 31.0631 222.963 31.0631 222.963 31.0631C222.963 31.063 222.963 31.063 221.233 33.5141ZM223.765 35.1234L223.765 35.1232L218.701 31.9049L218.701 31.9052L223.765 35.1234ZM219.511 35.9709L219.511 35.971L222.954 31.0575L222.954 31.0573L219.511 35.9709ZM214.272 29.3637C215.672 30.9848 216.794 32.4467 217.562 33.499C217.946 34.0244 218.241 34.4456 218.436 34.731C218.534 34.8736 218.607 34.9821 218.653 35.0525C218.677 35.0877 218.694 35.1134 218.704 35.129C218.709 35.1368 218.713 35.1421 218.714 35.1449C218.715 35.1462 218.716 35.1469 218.716 35.147C218.716 35.1471 218.716 35.1469 218.716 35.1466C218.715 35.1465 218.715 35.1463 218.715 35.1461C218.715 35.146 218.715 35.1458 218.715 35.1457C218.715 35.1455 218.715 35.1453 221.232 33.5141C223.75 31.8829 223.75 31.8827 223.75 31.8824C223.75 31.8823 223.75 31.8821 223.75 31.8819C223.749 31.8815 223.749 31.8811 223.749 31.8806C223.748 31.8796 223.747 31.8785 223.746 31.8772C223.745 31.8746 223.743 31.8714 223.74 31.8675C223.735 31.8597 223.728 31.8493 223.72 31.8364C223.703 31.8105 223.679 31.7744 223.648 31.7285C223.587 31.6368 223.5 31.5062 223.386 31.3406C223.16 31.0096 222.83 30.5385 222.407 29.9597C221.563 28.8037 220.34 27.2103 218.814 25.4427L214.272 29.3637ZM209.697 23.8946C211.742 24.1116 213.339 25.7351 213.562 27.7356L219.525 27.0708C218.994 22.3053 215.21 18.4459 210.33 17.9281L209.697 23.8946Z" fill="white" mask="url(#path-12-outside-1)"/>
</svg>
