<svg width="237" height="246" fill="none" xmlns="http://www.w3.org/2000/svg"><path d="M181.05 167.864s-17.349 9.767-18.642 19.845c-1.294 10.078-1.574 30.995 2.245 34.746 3.816 3.79-1.031 6.917-1.031 6.917s-7.337-8.621-9.016-11.424c-1.679-2.803-7.947-21.005-15.472-28.422-7.525-7.417-54.344-12.58-54.344-12.58l90.893-15.864 5.367 6.782z" fill="#5C414E"/><path d="M221.233 33.514s-19.347-29.863-36.176-14.89c-16.829 14.972-19.306 54.068-22.981 63.3-3.673 9.195-.835 18.337-19.108 31.187-18.273 12.85-87.507 41.817-98.94 41.581-11.433-.236-21.229 2.368-20.785 6.196.443 3.828 11.903 3.596 26.318 6.475 14.414 2.88 105.368 20.889 119.161 14.952 13.832-5.936 59.133-20.462 58.07-47.925-1.101-27.466-19.169-73.877-17.384-78.947 4.046-11.563 4.729-11.837 10.108-11.994 5.378-.117 10.919 2.323 11.017.643.099-1.68-1.937-5.091-2.305-5.505-.37-.374-6.995-5.073-6.995-5.073z" fill="#FEF1F0"/><path d="M200.614 103.343s-23.989-14.807-40.326-4.901c-16.337 9.905-25.619 21.163-32.826 23.761-7.208 2.597-95.73 46.354-104.592 49.091-8.863 2.736-17.5 6.309-15.745 9.156 1.755 2.846 29.13-.731 36.217-.592 7.088.14 41.625-.55 53.176-2.345 11.552-1.796 116.122-9.531 112.809-32.03-3.313-22.498-8.713-42.14-8.713-42.14z" fill="#CBBEBD"/><path d="M149.95 102.268c4.578-5.887 11.67-9.198 19.112-9.077 15.783.255 45.218 3.031 45.147 20.354-.127 23.67-3.804 48.387-21.487 53.823-17.683 5.437-97.715 5.823-105.503.899-7.788-4.923-42.506-7.184-22.225-10.117 20.281-2.932 61.988-10.259 33.693-7.716S49.82 160.871 51.23 156.21c1.409-4.661 19.727-4.18 23.956-6.795 4.23-2.615 67.59-36.393 71.301-42.214 1.167-1.852 2.322-3.51 3.463-4.933z" fill="#BD988D"/><path d="M208.802 35.572a7.357 7.357 0 007.773-6.916 7.357 7.357 0 10-14.689-.858 7.357 7.357 0 006.916 7.774z" fill="#CBBEBD"/><path d="M209.506 33.574a4.931 4.931 0 10.575-9.845 4.931 4.931 0 00-.575 9.845z" fill="#FEF1F0"/><path d="M221.23 33.514s-4.18 5.793-4.113 7.326c.068 1.532 1.132 2.77 1.132 2.77s6.021.274 8.267.758c2.245.483 3.642.722 3.879.03.236-.692.036-1.958-.811-3.576-.848-1.578-1.164-2.224-1.839-2.733-.642-.43-6.515-4.575-6.515-4.575z" fill="#F37880"/><path d="M166.025 225.827s-3.682 3.98 5.389 5.725c9.071 1.744 18.535 2.14 22.19 4 3.655 1.859 2.296 1.623 2.296 1.623s-11.087 1.901-16.686-.229-9.212-2.027-9.212-2.027 1.337 2.626 2.165 3.89c.828 1.263-5.112-2.416-5.112-2.416s-2.633-3.917-5.75-4.255c-3.155-.341-6.635-2.504-10.721-1.684.771-3.131 7.146-1.543 9.526-3.365 2.38-1.821 1.747-4.406 1.747-4.406l4.168 3.144z" fill="#5C414E"/><path d="M157.27 215.947s-3.179 3.421 4.615 4.895c7.754 1.472 15.848 1.827 18.97 3.42 3.121 1.594 1.995 1.41 1.995 1.41s-9.504 1.641-14.257-.204c-4.795-1.809-7.895-1.755-7.895-1.755s1.162 2.263 1.884 3.325c.722 1.061-4.388-2.06-4.388-2.06s-2.236-3.345-4.924-3.619c-2.689-.275-5.678-2.135-9.168-1.437.665-2.666 6.114-1.329 8.164-2.855 2.012-1.569 1.515-3.793 1.515-3.793l3.489 2.673z" fill="#5C414E"/><path d="M206.778 27.927c.135-.972.886-1.752 1.881-2.007.915-.221 2.133-.268 3.025.568 1.595 1.544 1.09 2.808.877 3.11-.512.714-.893 1.868-4.548.675-.423-.143-1.441-.83-1.235-2.346z" fill="#2C1E24"/><path d="M217.835 39.314s8.24 2.558 9.963 2.58c1.724.023 4.28 1.23 2.945 2.603-1.371 1.33-6.487-.34-7.629-.25-1.023.058-4.867.775-5.394-.942-.534-1.599-1.261-3.915.115-3.991z" fill="#E5737E"/><mask id="a" maskUnits="userSpaceOnUse" x=".81" y=".83" width="237.136" height="244.657" fill="#000"><path fill="#fff" d="M.81.83h237.136v244.657H.81z"/><path fill-rule="evenodd" clip-rule="evenodd" d="M210.013 20.911c-7.009-5.842-16.315-9.976-24.957-2.288-12.305 10.948-16.937 34.794-19.975 50.431-1.117 5.75-2.018 10.389-3.006 12.87-.892 2.233-1.4 4.462-1.919 6.743-.51 2.238-1.031 4.525-1.937 6.912a23.373 23.373 0 00-8.268 6.689c-1.142 1.423-2.297 3.081-3.464 4.933-1.967 3.085-20.692 14.025-38.487 24.015-1.57.751-3.205 1.533-4.893 2.343-24.87 11.022-52.26 21.274-59.08 21.133-11.433-.236-21.228 2.368-20.785 6.196.298 2.579 5.596 3.315 13.428 4.401-6.967 3.224-12.01 5.452-13.8 6.005-8.863 2.736-17.5 6.309-15.745 9.155 1.184 1.921 14.034.917 24.444.104 5.018-.392 9.468-.74 11.773-.695 6.459.127 35.716-.434 49.596-1.894 13.76 1.854 40.649 6.096 46.195 11.562 5.64 5.559 10.575 17.178 13.399 23.829l.001.001c.347.818.663 1.561.944 2.209a4.037 4.037 0 01-1.211 1.502c-.854.636-2.299.775-3.742.913-2.019.194-4.033.388-4.421 1.942 2.248-.449 4.289.163 6.175.728v.001c1.041.312 2.036.61 2.992.708 2.689.274 4.924 3.619 4.924 3.619s1.369.836 2.589 1.495a4.993 4.993 0 01-.673.616c-.998.764-2.697.928-4.391 1.092-2.349.228-4.688.454-5.135 2.273 2.644-.531 5.035.188 7.249.854 1.206.363 2.359.709 3.472.83 3.116.338 5.749 4.255 5.749 4.255s5.94 3.679 5.112 2.416c-.828-1.264-2.164-3.89-2.164-3.89s3.613-.103 9.212 2.027c5.599 2.13 16.686.229 16.686.229s1.358.236-2.297-1.623c-2.246-1.144-6.688-1.734-11.884-2.424-3.257-.432-6.81-.904-10.305-1.576-4.88-.939-6.069-2.524-6.126-3.789.595-.823 1.047-1.912.718-3.151.792.224 1.658.505 2.587.856 4.754 1.845 14.258.205 14.258.205s1.126.183-1.996-1.411c-1.936-.988-5.787-1.5-10.282-2.097h-.001v-.001c-2.161-.287-4.47-.594-6.788-.983-2.897-5.876-2.563-24.231-1.377-33.472.19-1.484.729-2.961 1.509-4.4 2.056-.188 3.685-.512 4.805-.994 1.537-.66 3.462-1.425 5.669-2.303h.001c17.657-7.021 53.346-21.211 52.401-45.623-.652-16.247-7.241-39.124-12.145-56.151-3.386-11.757-5.969-20.724-5.239-22.795 3.574-10.216 4.523-11.62 8.406-11.916.661 1.211 3.304.927 4.691.778.25-.027.46-.05.61-.058.348-.027 1.067.11 1.936.274 1.98.376 4.74.9 5.693-.024.699-.72.331-1.393-.426-1.875a9.047 9.047 0 00-.731-1.8l-.174-.324c-.721-1.345-1.038-1.936-1.665-2.41-.642-.429-6.515-4.574-6.515-4.574h-.001s-1.763-2.722-4.689-6.11a7.36 7.36 0 00-6.53-6.493z"/></mask><path d="M185.056 18.623l1.995 2.242-1.995-2.242zm24.957 2.288l-1.921 2.305.7.583.905.096.316-2.984zm-44.932 48.143l-2.945-.572-.038.197-.012.2 2.995.175zm0 0l2.945.573.038-.197.012-.2-2.995-.175zm-3.006 12.87l2.786 1.114.001-.004-2.787-1.11zm-1.919 6.743l2.786 1.112.087-.217.052-.229-2.925-.666zm0 0l-2.786-1.113-.024.06-.022.062 2.832.99zm0 0l-2.832-.991-.016.047-.015.048 2.863.896zm0 0l-2.863-.896-.012.038-.011.038 2.886.82zm0 0l-2.886-.82-.022.076-.017.078 2.925.666zm-1.937 6.912l1.309 2.7 1.072-.521.423-1.114-2.804-1.065zm-8.268 6.689l2.34 1.877.014-.018.014-.018-2.368-1.841zm-3.464 4.933l2.53 1.613.005-.007.004-.007-2.539-1.599zM108 131.216l1.294 2.707.089-.042.086-.049-1.469-2.616zm-4.893 2.343l1.216 2.742.041-.018.04-.019-1.297-2.705zm-59.08 21.133l-.062 2.999.062-2.999zm-20.785 6.196l2.98-.345-2.98.345zm13.428 4.401l1.26 2.722 9.272-4.291-10.12-1.403-.412 2.972zm-13.8 6.005l-.886-2.867.885 2.867zm-15.745 9.155l-2.554 1.575 2.554-1.575zm24.444.104l-.233-2.991.233 2.991zm11.773-.695l-.06 3 .06-3zm49.596-1.894l.4-2.973-.356-.048-.357.038.313 2.983zm46.195 11.562l-2.106 2.136 2.106-2.136zm13.399 23.829l-2.761 1.173.004.01 2.757-1.183zm.001.001l2.761-1.173-.004-.01-2.757 1.183zm.944 2.209l2.726 1.253.56-1.218-.534-1.23-2.752 1.195zm-1.211 1.502l1.793 2.405.026-.019.025-.02-1.844-2.366zm-3.742.913l-.287-2.986.287 2.986zm-4.421 1.942l-2.911-.726-1.147 4.597 4.646-.929-.588-2.942zm6.175.728l1.113-2.785-.124-.05-.127-.038-.862 2.873zm0 .001l-1.113 2.785.124.05.127.038.862-2.873zm2.992.708l.305-2.985-.305 2.985zm4.924 3.619l-2.494 1.667.367.549.564.345 1.563-2.561zm2.589 1.495l2.221 2.017 2.575-2.835-3.37-1.821-1.426 2.639zm-.673.616l-1.823-2.382 1.823 2.382zm-4.391 1.092l.289 2.986-.289-2.986zm-5.135 2.273l-2.913-.718-1.13 4.589 4.633-.93-.59-2.941zm7.249.854l-.864 2.873.864-2.873zm3.472.83l.324-2.983h-.002l-.322 2.983zm5.749 4.255l-2.489 1.674.36.536.55.341 1.579-2.551zm5.112 2.416l-2.509 1.644 2.509-1.644zm-2.164-3.89l-.085-2.999-4.738.135 2.149 4.225 2.674-1.361zm9.212 2.027l-1.067 2.804 1.067-2.804zm16.686.229l.514-2.955-.511-.089-.51.087.507 2.957zm-2.297-1.623l-1.36 2.673 1.36-2.673zm-11.884-2.424l.395-2.974-.395 2.974zm-10.305-1.576l-.567 2.946.567-2.946zm-6.126-3.789l-2.43-1.76-.615.848.048 1.047 2.997-.135zm.718-3.151l.818-2.886-5.072-1.439 1.355 5.095 2.899-.77zm2.587.856l1.086-2.797-.013-.005-.014-.005-1.059 2.807zm14.258.205l.482-2.961-.497-.081-.496.085.511 2.957zm-1.996-1.411l-1.364 2.672 1.364-2.672zm-10.282-2.097l.395-2.974-.11-.015-.111-.006-.174 2.995zm-.001 0l-.445 2.966.135.02.136.008.174-2.994zm0-.001l.445-2.966-.025-.004-.025-.003-.395 2.973zm-6.788-.983l-2.691 1.327.679 1.377 1.515.255.497-2.959zm-1.377-33.472l2.976.382-2.976-.382zm1.509-4.4l-.272-2.988-1.601.146-.765 1.413 2.638 1.429zm4.805-.994l-1.183-2.757-.003.001 1.186 2.756zm5.669-2.303l1.109 2.788.037-.015.037-.016-1.183-2.757zm.001 0l-1.109-2.788-.037.015-.037.016 1.183 2.757zm0 0l1.108 2.788h.001l-1.109-2.788zm52.401-45.623l2.998-.116v-.004l-2.998.12zm-12.145-56.151l-2.883.83 2.883-.83zm-5.239-22.795l2.829.997.002-.006-2.831-.991zm8.406-11.916l2.633-1.438-.929-1.701-1.933.147.229 2.992zm4.691.778l-.321-2.983.321 2.983zm.61-.058l.169 2.995.034-.001.033-.003-.236-2.99zm1.936.274l-.559 2.948.559-2.948zm5.693-.024l2.09 2.152.031-.03.03-.031-2.151-2.091zm-.426-1.875l-2.895.787.305 1.12.979.624 1.611-2.53zm-.731-1.8l2.658-1.39-.007-.014-.007-.014-2.644 1.419zm-.174-.324l-2.644 1.417.001.001 2.643-1.418zm-1.665-2.41l1.806-2.394-.067-.051-.07-.047-1.669 2.493zm-6.515-4.574l1.73-2.451-2.573-1.816-1.689 2.658 2.532 1.61zm0 0l-1.722 2.457 2.57 1.801 1.684-2.649-2.532-1.609zm-.001 0l-2.517 1.631.317.49.479.336 1.721-2.457zm-4.689-6.11l-2.981.332.103.924.607.704 2.271-1.96zm-29.492-6.54c3.616-3.217 7.158-3.857 10.543-3.222 3.564.668 7.175 2.804 10.498 5.574l3.842-4.61c-3.686-3.071-8.232-5.924-13.234-6.862-5.181-.97-10.612.167-15.638 4.638l3.989 4.483zm-19.025 48.762c1.524-7.844 3.409-17.529 6.415-26.603 3.028-9.138 7.058-17.22 12.61-22.158l-3.989-4.483c-6.753 6.009-11.192 15.324-14.316 24.755-3.146 9.495-5.096 19.552-6.61 27.345l5.89 1.144zm.05-.397l-5.99-.35 5.99.35zm0 0l-5.99-.35 5.99.35zm-3.214 13.805c1.121-2.815 2.08-7.825 3.164-13.407l-5.89-1.144c-1.149 5.915-1.993 10.183-2.848 12.332l5.574 2.22zm-1.781 6.299c.527-2.312.989-4.315 1.78-6.295l-5.572-2.226c-.992 2.484-1.546 4.94-2.058 7.188l5.85 1.333zm-.139.447l-5.572-2.226 5.572 2.226zm.045-.122l-5.663-1.982 5.663 1.982zm.032-.095l-5.726-1.792 5.726 1.792zm.022-.075l-5.771-1.641 5.771 1.64zm-2.018 7.156c.991-2.61 1.552-5.093 2.058-7.31L157.231 88c-.515 2.258-.996 4.35-1.817 6.513l5.609 2.13zm-8.704 7.465a20.38 20.38 0 017.209-5.83l-2.619-5.4a26.392 26.392 0 00-9.327 7.548l4.737 3.682zm-3.293 4.691c1.124-1.784 2.213-3.343 3.265-4.655l-4.681-3.754c-1.231 1.535-2.452 3.291-3.661 5.212l5.077 3.197zm-39.557 25.032c8.906-4.999 18.074-10.254 25.274-14.653 3.596-2.196 6.738-4.203 9.123-5.87 1.19-.832 2.229-1.607 3.056-2.297.753-.629 1.579-1.389 2.095-2.198l-5.059-3.225c.024-.038-.165.219-.882.818-.643.537-1.529 1.202-2.649 1.985-2.235 1.563-5.256 3.495-8.812 5.667-7.103 4.34-16.194 9.551-25.083 14.541l2.937 5.232zm-5.065 2.432c1.687-.809 3.321-1.591 4.89-2.341l-2.587-5.413c-1.572.75-3.208 1.534-4.897 2.343l2.594 5.411zm-60.439 21.427c2.216.046 5.616-.703 9.494-1.806 4.01-1.14 8.923-2.779 14.363-4.753 10.886-3.951 24.016-9.297 36.501-14.831l-2.431-5.485c-12.385 5.489-25.385 10.781-36.117 14.676-5.369 1.948-10.136 3.535-13.957 4.622-3.953 1.124-6.535 1.603-7.729 1.579l-.124 5.998zm-17.743 2.852c.064.557-.352.599.277.125.617-.464 1.76-1.015 3.512-1.519 3.451-.993 8.44-1.571 13.954-1.458l.124-5.998c-5.919-.123-11.544.483-15.737 1.69-2.072.596-4.008 1.398-5.461 2.492-1.44 1.084-2.915 2.887-2.63 5.358l5.961-.69zm10.86 1.774c-4-.554-7.05-.984-9.158-1.562-1.056-.29-1.619-.553-1.875-.726-.2-.136.116.021.173.514l-5.96.69c.206 1.782 1.295 2.998 2.418 3.76 1.066.723 2.373 1.196 3.657 1.548 2.574.706 6.088 1.188 9.92 1.719l.825-5.943zM23.754 174.16c2.034-.628 7.308-2.97 14.176-6.149l-2.52-5.445c-7.067 3.271-11.878 5.383-13.426 5.861l1.77 5.733zm-14.076 4.715c.186.302.273.738.181 1.142-.069.302-.187.366-.033.195.333-.37 1.135-.969 2.578-1.722 2.797-1.461 6.959-2.974 11.35-4.33l-1.77-5.733c-4.47 1.381-9.059 3.022-12.357 4.744-1.605.838-3.187 1.836-4.257 3.023-.547.607-1.121 1.438-1.361 2.491a4.419 4.419 0 00.562 3.339l5.107-3.149zm21.658-1.313c-5.23.409-10.957.855-15.521.965-2.294.056-4.181.022-5.518-.12-.678-.072-1.09-.16-1.297-.226-.362-.116.227-.038.678.694l-5.107 3.149c.747 1.212 1.997 1.679 2.605 1.873.763.243 1.63.385 2.486.476 1.731.185 3.93.21 6.298.153 4.759-.115 10.662-.578 15.843-.982l-.467-5.982zm12.065-.703c-2.493-.049-7.14.318-12.065.703l.467 5.982c5.11-.4 9.363-.728 11.48-.686l.118-5.999zm49.224-1.878c-13.716 1.442-42.84 2.003-49.224 1.878l-.118 5.999c6.533.128 35.923-.433 49.97-1.91l-.628-5.967zm48.614 12.408c-1.922-1.895-5.245-3.359-8.763-4.555-3.67-1.248-8.106-2.377-12.726-3.376-9.25-2-19.503-3.536-26.411-4.467l-.801 5.947c6.852.922 16.923 2.434 25.944 4.384 4.515.977 8.702 2.049 12.063 3.192 3.514 1.195 5.632 2.31 6.482 3.148l4.212-4.273zm14.055 24.794c-1.409-3.317-3.39-7.984-5.741-12.53-2.322-4.49-5.142-9.137-8.314-12.264l-4.212 4.273c2.468 2.433 4.936 6.375 7.197 10.747 2.232 4.316 4.131 8.784 5.547 12.119l5.523-2.345zm-.004-.01l-.001-.001-5.514 2.366.001.001 5.514-2.366zm.939 2.197c-.276-.634-.586-1.365-.935-2.187l-5.523 2.346c.347.815.667 1.57.954 2.231l5.504-2.39zm-2.119 5.063a7.034 7.034 0 002.093-2.615l-5.452-2.506a1.03 1.03 0 01-.329.388l3.688 4.733zm-5.3 1.534c.685-.066 1.571-.148 2.402-.317.807-.163 1.894-.468 2.847-1.178l-3.585-4.811c.099-.074.036.01-.455.109-.466.095-1.024.151-1.782.224l.573 5.973zm-1.797-.319a1.22 1.22 0 01-.368.603c-.123.107-.17.094.001.037.167-.055.427-.115.822-.172.393-.058.823-.099 1.342-.149l-.573-5.973c-.907.087-2.288.204-3.48.6-1.276.423-3.017 1.404-3.565 3.602l5.821 1.452zm4.127-2.871c-1.801-.54-4.539-1.414-7.626-.797l1.177 5.884c1.411-.282 2.753.069 4.725.66l1.724-5.747zm.251.088l-2.226 5.571 2.226-5.571zm2.184.509c-.619-.063-1.328-.265-2.435-.597l-1.724 5.747c.976.293 2.256.687 3.55.819l.609-5.969zm4.619 6.604c2.495-1.666 2.494-1.667 2.494-1.668l-.001-.001-.002-.003a.279.279 0 00-.017-.025l-.034-.049a13.167 13.167 0 00-.478-.642 15.31 15.31 0 00-1.324-1.469c-1.02-.992-2.87-2.503-5.257-2.747l-.609 5.969c.302.031.913.33 1.683 1.079a9.559 9.559 0 011.011 1.167l.043.061.004.006-.002-.003-.002-.003-.001-.002-.001-.002c-.001 0-.001-.001 2.493-1.668zm4.015-1.144a55.18 55.18 0 01-1.655-.94c-.238-.14-.439-.261-.58-.345l-.163-.099-.041-.025a.029.029 0 01-.01-.006l-.002-.001-1.564 2.56-1.563 2.561h.001l.001.001.004.002.013.009.05.03.181.109.628.374a60.38 60.38 0 001.848 1.049l2.852-5.279zm-.276 5.638c.4-.306.756-.635 1.071-.982l-4.442-4.033c-.069.075-.158.16-.275.25l3.646 4.765zm-5.925 1.695c.809-.078 1.826-.173 2.774-.369.924-.19 2.121-.538 3.151-1.326l-3.646-4.765c.033-.025-.119.091-.717.215-.575.118-1.256.188-2.14.273l.578 5.972zm-2.511.004a.927.927 0 01-.271.445c-.079.07-.07.028.164-.05.23-.077.562-.152 1.034-.221.471-.069.982-.119 1.584-.178l-.578-5.972c-1.072.104-2.619.238-3.943.681-1.414.472-3.243 1.533-3.816 3.86l5.826 1.435zm5.2-2.736c-2.129-.641-5.219-1.622-8.704-.923l1.181 5.883c1.805-.362 3.497.095 5.795.786l1.728-5.746zm2.93.72c-.785-.085-1.661-.338-2.93-.72l-1.728 5.746c1.143.344 2.573.784 4.014.939l.644-5.965zm5.427 7.238c2.49-1.673 2.49-1.674 2.489-1.675l-.001-.001-.002-.003-.005-.007-.012-.019-.038-.054-.121-.17a17.782 17.782 0 00-1.921-2.219c-1.167-1.137-3.218-2.808-5.814-3.09l-.648 5.965c.52.057 1.343.514 2.273 1.421a11.751 11.751 0 011.252 1.444l.057.079.008.012-.002-.002-.002-.003-.001-.002-.001-.001 2.489-1.675zm2.603 4.06a2.448 2.448 0 01-.185-.347 2.79 2.79 0 01-.223-.977 2.92 2.92 0 01.638-1.96 2.923 2.923 0 011.585-1.016c.391-.095.705-.084.851-.073.164.011.285.036.343.049.112.026.16.048.116.031-.219-.084-.716-.328-1.413-.712a76.629 76.629 0 01-2.676-1.569l-.046-.028-.011-.007-.002-.001-1.58 2.55-1.579 2.551.002.001.004.003a70.99 70.99 0 002.991 1.754c.685.377 1.518.816 2.18 1.067.176.067.417.15.686.211.156.036.8.187 1.559.002a3.071 3.071 0 002.345-3.131c-.042-.906-.476-1.548-.566-1.687l-5.019 3.289zm.345-5.534l-2.674 1.361h.001v.001l.001.002.003.007a.39.39 0 01.013.024l.047.091.169.328c.143.274.342.655.569 1.077.437.813 1.033 1.89 1.526 2.643l5.019-3.289c-.335-.51-.821-1.378-1.26-2.194a76.015 76.015 0 01-.686-1.307l-.042-.08a.104.104 0 00-.01-.019l-.002-.005v-.001l-2.674 1.361zm10.278-.777c-3.016-1.147-5.528-1.705-7.327-1.975a22.795 22.795 0 00-2.133-.226c-.257-.014-.463-.02-.615-.022l-.186-.001-.062.001-.023.001h-.015c-.001 0-.002 0 .083 2.999l.084 2.999H170.069h.062c.068.001.188.004.357.014.337.018.871.063 1.575.169 1.408.211 3.501.666 6.084 1.649l2.133-5.608zm15.62 3.033l-.506-2.957-.003.001a.086.086 0 00-.017.003l-.081.013a53.815 53.815 0 01-1.596.228 63.64 63.64 0 01-4.221.402c-3.465.208-7.055.092-9.196-.723l-2.133 5.608c3.458 1.316 8.211 1.313 11.69 1.104a69.238 69.238 0 006.418-.697l.107-.017.031-.005a.03.03 0 01.009-.002l.003-.001h.001l-.506-2.957zm-3.657 1.05c.882.449 1.398.74 1.682.915.143.089.185.123.168.11-.01-.008-.057-.045-.124-.11a2.568 2.568 0 01-.332-.399 2.87 2.87 0 01-.466-1.24 2.952 2.952 0 011.932-3.156c.293-.104.535-.135.658-.147a2.328 2.328 0 01.572.009l.041.006a.918.918 0 00.02.003l.01.002.005.001h.002c.001 0 .003.001-.511 2.956-.514 2.956-.512 2.956-.511 2.956l.002.001.006.001.011.002.026.004.062.009a3.524 3.524 0 00.854.021c.157-.016.432-.054.754-.167a3.049 3.049 0 002.018-3.272 3.123 3.123 0 00-.515-1.35 3.836 3.836 0 00-.828-.865 7.867 7.867 0 00-.696-.476c-.489-.303-1.174-.68-2.119-1.161l-2.721 5.347zm-10.919-2.123c2.621.348 4.948.658 6.899 1.018 2.015.372 3.314.746 4.02 1.105l2.721-5.347c-1.54-.784-3.586-1.277-5.652-1.658-2.131-.393-4.623-.724-7.198-1.066l-.79 5.948zm-10.477-1.604c3.594.691 7.233 1.173 10.477 1.604l.79-5.948c-3.27-.434-6.738-.895-10.134-1.548l-1.133 5.892zm-8.556-6.6c.075 1.667.939 3.171 2.475 4.299 1.425 1.047 3.437 1.792 6.081 2.301l1.133-5.892c-2.236-.43-3.258-.948-3.662-1.244-.293-.215-.052-.136-.033.266l-5.994.27zm.816-2.516a.28.28 0 01-.005.164 1.523 1.523 0 01-.244.457l4.859 3.52c.882-1.218 1.838-3.238 1.188-5.682l-5.798 1.541zm6.545-2.721a35.057 35.057 0 00-2.828-.935l-1.637 5.772c.713.202 1.499.457 2.347.777l2.118-5.614zm13.199 3.012l-.51-2.957h-.001a.078.078 0 01-.014.003l-.067.011-.281.044a53.548 53.548 0 01-4.655.494c-2.966.179-5.937.066-7.644-.597l-2.171 5.593c3.046 1.183 7.203 1.172 10.177.993a59.68 59.68 0 005.202-.552c.145-.022.26-.041.34-.054l.094-.015.027-.005.008-.001.003-.001h.001l-.509-2.956zm-3.36 1.261c.749.382 1.18.627 1.411.77.117.072.143.095.117.075a2.5 2.5 0 01-.443-.48 2.862 2.862 0 01-.47-1.094 2.957 2.957 0 011.727-3.295c.325-.14.601-.187.741-.206.28-.038.491-.022.549-.018l.119.012.047.007.022.003.011.002.005.001h.003c.001 0 .003.001-.479 2.962-.482 2.961-.481 2.961-.48 2.961h.003a.013.013 0 00.006.001.05.05 0 00.012.002 3.322 3.322 0 00.989.012c.169-.023.472-.077.819-.226.337-.145.926-.47 1.365-1.153 1.072-1.666.088-3.183-.094-3.439a3.717 3.717 0 00-.774-.792 7.323 7.323 0 00-.631-.433 26.562 26.562 0 00-1.847-1.016l-2.728 5.344zm-9.314-1.796c2.271.302 4.275.569 5.952.879 1.742.322 2.813.637 3.362.917l2.728-5.344c-1.387-.708-3.21-1.143-5.001-1.473-1.856-.343-4.025-.631-6.25-.926l-.791 5.947zm.221.021l.349-5.989-.349 5.989zm-.271-.028l.891-5.933h-.001l-.89 5.933zm-6.84-.991c2.377.399 4.736.712 6.89.998l.79-5.947c-2.168-.289-4.427-.589-6.686-.968l-.994 5.917zm-3.856-36.813c-.614 4.785-.999 11.833-.866 18.44.066 3.308.264 6.561.641 9.399.367 2.762.937 5.415 1.887 7.342l5.382-2.653c-.499-1.012-.973-2.857-1.321-5.479-.338-2.544-.527-5.559-.59-8.73-.128-6.35.247-13.1.819-17.555l-5.952-.764zm1.847-5.447c-.909 1.677-1.598 3.509-1.847 5.447l5.952.764c.132-1.029.519-2.151 1.171-3.354l-5.276-2.857zm6.257-2.321c-.682.294-1.935.584-3.891.762l.544 5.975c2.155-.196 4.161-.555 5.72-1.226l-2.373-5.511zm5.747-2.334c-2.194.872-4.162 1.654-5.744 2.333l2.366 5.514c1.492-.64 3.374-1.389 5.595-2.272l-2.217-5.575zm-.074.03h-.001l2.366 5.514h.001l-2.366-5.514zm.075-.031h-.001l2.217 5.576-2.216-5.576zm50.511-42.719c.409 10.57-7.098 19.393-17.912 26.735-10.697 7.264-23.728 12.457-32.599 15.984l2.217 5.576c8.786-3.494 22.427-8.906 33.753-16.596 11.208-7.61 21.072-18.088 20.537-31.931l-5.996.232zm-12.03-55.437c4.943 17.16 11.396 39.639 12.03 55.442l5.996-.241c-.67-16.692-7.395-39.968-12.26-56.862l-5.766 1.661zm-5.186-24.621c-.268.76-.303 1.547-.293 2.136.01.643.082 1.348.189 2.077.213 1.458.6 3.25 1.097 5.266.995 4.04 2.507 9.286 4.193 15.142l5.766-1.66c-1.7-5.9-3.172-11.017-4.133-14.917-.481-1.954-.815-3.527-.986-4.7a10.732 10.732 0 01-.127-1.304c-.005-.344.038-.29-.047-.047l-5.659-1.993zm11.007-13.912c-1.106.085-2.332.266-3.523.84-1.248.601-2.211 1.512-3.022 2.666-1.461 2.08-2.726 5.443-4.464 10.411l5.663 1.982c1.836-5.248 2.834-7.695 3.711-8.945.359-.51.585-.646.718-.71.19-.092.539-.197 1.374-.261l-.457-5.983zm4.599.788c-.735.078-1.483.151-2.095.11-.302-.02-.402-.06-.368-.047.043.016.442.184.726.703l-5.267 2.875c.615 1.125 1.592 1.712 2.36 2.011.759.296 1.531.403 2.145.444 1.221.083 2.489-.06 3.14-.13l-.641-5.967zm.761-.07c-.244.013-.544.046-.761.07l.641 5.965c.285-.03.404-.042.459-.045l-.339-5.99zm2.666.321c-.418-.08-.871-.166-1.265-.227-.315-.048-.902-.135-1.467-.09l.472 5.981c-.154.012-.233 0-.174.006.041.003.121.013.252.033.27.042.611.106 1.063.192l1.119-5.895zm3.044.77c.369-.358.688-.378.553-.355-.101.019-.339.037-.748.013-.829-.049-1.817-.232-2.849-.428l-1.119 5.895c.947.18 2.329.447 3.614.523.647.038 1.402.038 2.148-.094.712-.127 1.734-.428 2.58-1.249l-4.179-4.305zm.052 2.81c.134.084-.284-.118-.494-.79a2.175 2.175 0 01-.006-1.264c.119-.392.312-.618.386-.695l4.302 4.183c.916-.941 1.551-2.393 1.046-4.01-.408-1.31-1.389-2.09-2.013-2.487l-3.221 5.062zm-1.778-2.94c.265.506.416.909.494 1.195l5.79-1.574a12.096 12.096 0 00-.968-2.403l-5.316 2.782zm-.159-.298l.174.325 5.287-2.837-.175-.325-5.286 2.837zm-.829-1.432l.004.003c.005.005.035.039.097.133.154.233.34.575.727 1.295l5.288-2.835c-.618-1.153-1.238-2.432-2.503-3.386l-3.613 4.79zm-4.708-6.97l-1.73 2.451h.001l.003.003.013.01.049.034.188.132.675.476a3346 3346 0 002.091 1.474 439.426 439.426 0 003.555 2.488l3.339-4.986c-.283-.19-1.867-1.301-3.441-2.409l-2.087-1.47-.673-.475-.187-.133-.05-.034a.176.176 0 00-.015-.011h-.001l-1.73 2.45zm2.532 1.61l-5.064-3.22v.001l5.064 3.218zm-4.254.847l3.443-4.913-3.443 4.913zm-5.239-6.607a65.366 65.366 0 013.29 4.135 48.621 48.621 0 011.142 1.63l.01.016.002.002h-.001v-.001l2.517-1.632 2.518-1.632-.001-.001a.035.035 0 01-.003-.004.042.042 0 00-.006-.01l-.02-.03a53.84 53.84 0 00-1.313-1.877 71.604 71.604 0 00-3.593-4.517l-4.542 3.92zm-4.575-5.47a4.36 4.36 0 013.865 3.842l5.963-.665c-.531-4.766-4.315-8.625-9.195-9.143l-.633 5.967z" fill="#fff" mask="url(#a)"/></svg>