<svg width="451" height="718" viewBox="0 0 451 718" fill="none" xmlns="http://www.w3.org/2000/svg">
<path d="M370.998 737.704C380.301 718.109 381.445 705.086 380.854 701.024L405.616 698.303L428.019 706.106C430.088 722.452 431.863 760.937 422.415 784.102C410.606 813.058 385.433 802.997 372.538 794.049C359.642 785.101 359.37 762.198 370.998 737.704Z" fill="#FFC9BA"/>
<rect x="188.632" y="255.585" width="90.9154" height="78.4524" fill="#5597D6"/>
<path d="M222.593 264.453L233.458 239.128H238.491L247.758 259.26L243.524 275.398L233.458 278.194L222.593 264.453Z" fill="#2365A1"/>
<path d="M379.09 297.69C377.812 286.505 364.178 285.253 357.52 286.026C352.3 320.219 343.411 403.848 349.611 464.82C357.36 541.036 387.639 696.343 391.633 710.404C404.895 704.332 426.865 712.241 434.055 713.839C436.212 698.979 429.262 653.122 423.989 625.88C427.105 599.116 412.325 517.468 409.129 506.044C405.934 494.62 399.542 464.741 399.303 444.049C399.063 423.357 394.03 401.627 390.834 388.605C387.639 375.583 380.688 311.67 379.09 297.69Z" fill="#2365A1"/>
<path d="M433.26 628.599C417.666 622.911 386.498 626.229 372.863 628.599C373.556 643.805 377.113 672.523 385.806 665.748C394.498 658.973 408.921 660.688 415.045 662.392C419.253 663.777 429.25 664.597 435.577 656.8C443.486 647.053 442.767 632.593 433.26 628.599Z" fill="#307CC1"/>
<path d="M425.078 636.721C426.862 638.431 425.989 642.582 424.278 644.366C422.568 646.149 419.736 646.209 417.953 644.499C416.169 642.789 416.11 639.957 417.82 638.173C419.53 636.39 423.295 635.011 425.078 636.721Z" fill="#2365A1"/>
<path d="M179.128 240.566L182.004 230.18L234.812 241.445L217.875 279.393C215.345 278.887 209.199 277.523 204.853 276.117C200.507 264.229 185.892 247.463 179.128 240.566Z" fill="#307CC1"/>
<path d="M252.23 277.635C251.079 268.432 242.164 249.567 237.85 241.285L269.806 228.822L270.924 262.536C266.264 266.69 256.001 275.526 252.23 277.635Z" fill="#307CC1"/>
<path d="M230.175 331.004L233.53 276.359L243.117 274.202L270.919 310.552L266.845 338.993L255.42 362.641L230.175 331.004Z" fill="#3B89D2"/>
<path d="M68.7174 319.577C73.4469 308.009 78.7303 302.987 80.7808 301.921H92.4448L103.07 322.773L120.167 357.605L133.508 414.407L111.938 556.373C105.014 611.976 91.1665 726.395 91.1665 739.242C67.1994 728.76 48.1056 741.479 41.5545 749.148C41.1285 744.248 39.1898 730.214 34.8438 713.277C25.8162 675.969 31.1689 655.836 32.4471 631.629C33.7254 607.423 33.0063 571.232 36.0422 467.854C39.078 364.476 62.8055 334.037 68.7174 319.577Z" fill="#2D76B9"/>
<path d="M110.823 291.775C123.414 288.004 156.44 267.835 171.38 258.221C201.685 295.157 263.541 371.074 268.527 379.255C274.758 389.481 282.268 422.955 287.061 461.383C291.855 499.81 294.251 695.462 290.417 718.071C286.582 740.68 292.334 797.881 299.524 813.779C242.962 822.28 139.45 804.432 94.7649 794.446C96.7355 786.936 99.4944 770.878 94.7649 766.724C81.5031 749.707 91.809 748.269 89.9715 737.164C83.3406 692.026 92.9274 661.348 98.8393 634.665C104.751 607.982 103.313 566.678 108.027 510.835C112.74 454.991 127.919 420.559 130.076 415.046C125.539 409.038 122.167 390.28 121.049 381.652C119.984 373.663 115.888 355.48 108.027 346.66C98.2002 335.635 96.2828 325.649 94.2856 314.624C92.6877 305.804 84.0329 302.694 79.9053 302.241C84.965 300.323 98.2321 295.546 110.823 291.775Z" fill="#307CC1"/>
<path d="M151.802 338.91L177.926 306.395L233.849 331.001C246.099 346.34 270.823 378.936 271.717 386.605C250.818 384.304 183.066 353.85 151.802 338.91Z" fill="#5497D6"/>
<path d="M171.378 255.588C172.72 239.546 163.575 226.161 158.835 221.475L168.741 202.94L176.331 207.653C173.721 211.249 169.588 220.308 173.934 227.786C179.367 237.133 175.852 247.679 171.378 255.588Z" fill="#623B4E"/>
<path d="M314.62 243.443C314.62 223.79 310.812 218.73 307.75 218.437L302.637 214.442L295.207 183.045L320.293 192.952C317.976 207.572 322.609 215.401 326.045 219.635C329.48 223.869 339.706 233.696 333.075 246.079C327.77 255.985 329.107 263.042 330.439 265.333C324.66 261.524 314.62 252.71 314.62 243.443Z" fill="#623B4E"/>
<path d="M280.266 208.929L291.37 130.796C291.37 127.494 293.032 122.471 299.679 128.799C306.326 135.126 303.674 152.473 301.516 160.355C299.999 166.827 298.896 183.46 306.629 198.223C316.296 216.678 306.869 237.29 301.516 244.64C287.056 269.086 293.927 285.863 298.88 297.927C278.588 275.877 286.817 251.91 289.213 234.094C291.131 219.842 284.047 211.379 280.266 208.929Z" fill="#452A37"/>
<path d="M321.735 187.759C314.705 185.368 305.278 153.938 303.36 141.103C301.15 150.796 297.081 172.18 298.487 180.169C300.245 190.155 313.586 200.461 318.54 198.544C323.493 196.626 327.407 197.985 330.363 202.299C330.523 195.508 325.73 189.117 321.735 187.759Z" fill="#543343"/>
<path d="M357.525 286.024C335.635 282.269 317.287 273.348 307.753 267.969L276.436 345.782L255.105 416.964V791.411C269.353 798.921 298.182 813.908 299.525 813.78C301.202 813.621 400.346 790.372 416.085 779.907C415.685 708.724 383.09 632.589 359.442 590.726C340.524 557.236 346.873 501.941 352.412 478.48C354.436 470.598 358.164 445.374 356.886 407.537C355.288 360.242 363.916 326.049 364.316 309.032C364.635 295.419 359.922 288.021 357.525 286.024Z" fill="#3B89D2"/>
<path d="M180.079 230.66C166.785 213.275 160.053 163.339 158.349 140.543C202.821 119.266 296.468 88.0598 294.322 133.433C290.967 204.375 279.143 228.902 264.523 235.773C250.899 242.175 221.382 245.12 208.2 244.72C195.018 244.321 187.269 240.726 180.079 230.66Z" fill="#FFC9BA"/>
<path d="M141.104 304.238C153.822 273.113 171.755 248.821 179.131 240.565C195.589 246.717 222.512 319.018 236.253 333.957C229.143 335.156 189.677 300.963 141.104 304.238Z" fill="#2365A1"/>
<path d="M268.615 132.146C262.455 130.748 255.774 133.438 253.266 134.882C252.203 135.494 249.518 138.099 250.278 140.759C251.863 146.304 258.915 144.507 266.31 141.772C273.706 139.036 281.659 142.836 283.735 143.14C285.812 143.444 294.424 143.368 292.752 138.099C291.08 132.83 284.419 132.906 281.659 133.438C278.898 133.97 276.315 133.894 268.615 132.146Z" fill="#462937"/>
<path d="M185.427 136.282C177.986 137.637 175.922 139.116 176.315 141.277C177.291 146.633 183.777 146.795 189.797 145.109C194.109 143.901 199.2 143.987 201.258 144.792C202.904 145.437 207.126 146.136 209.332 145.734C210.932 145.443 212.978 143.716 212.024 141.652C211.07 139.588 206.766 139.582 204.46 139.54C196.916 139.402 197.476 134.088 185.427 136.282Z" fill="#462937"/>
<path d="M137.183 169.063C143.958 154.107 142.722 145.149 141.258 142.539H150.285C149.859 167.598 148.831 218.195 148.128 220.113C147.249 222.509 144.693 237.609 142.536 245.758C142.536 239.286 137.183 222.509 133.668 211.724C130.153 200.939 128.715 187.757 137.183 169.063Z" fill="#543343"/>
<path d="M146.213 175.537C149.856 157.833 147.731 144.14 146.213 139.506L168.583 141.663C164.029 157.402 167.544 174.179 169.701 179.132C171.858 184.085 176.811 197.027 171.858 206.534C166.905 216.041 161.952 228.504 163.63 239.29C166.426 260.62 163.63 267.731 159.156 282.43C160.274 272.364 156.359 257.425 148.53 234.097C140.701 210.769 141.659 197.667 146.213 175.537Z" fill="#452A37"/>
<path d="M113.06 131.276C119.927 127.441 127.496 125.82 139.26 123.047C200.058 108.716 253.986 114.339 302.56 112.981C309.51 113.301 325.073 113.972 331.72 114.099C340.028 114.259 350.654 120.091 340.028 125.684C329.403 131.276 283.862 139.345 246.074 141.342C193.533 144.119 124.963 146.375 113.06 143.1C101.156 139.824 109.028 133.527 113.06 131.276Z" fill="#307CC1"/>
<path d="M218.111 11.3596C194.062 13.1516 185.036 23.8226 165.863 44.2745C147.839 63.5003 140.263 102.823 138.357 123.286C141.454 123.233 151.291 123.35 165.863 124.245C184.078 125.363 220.108 124.724 244.555 123.126C269.001 121.529 295.205 116.016 302.316 114.498C300.957 99.3989 298.96 64.2471 274.753 36.2855C255.388 13.9161 242.212 9.56387 218.111 11.3596Z" fill="#2365A1"/>
<path fill-rule="evenodd" clip-rule="evenodd" d="M298 76.5246C259.385 80.9938 186.541 81.8629 147 81.6935C151.412 67.5325 157.683 53.7451 166.328 44.5236C167.125 43.6741 167.904 42.8413 168.667 42.025C186.519 22.9422 195.883 12.9334 219.236 11.1933C243.641 9.37488 256.983 13.7821 276.593 36.4337C287.612 49.1614 294.086 63.3602 298 76.5246Z" fill="#307CC1"/>
<path d="M250.068 151.327C250.068 151.327 252.098 217.556 241.36 203.815C230.623 190.074 250.068 151.327 250.068 151.327Z" fill="#F0BBAC"/>
<path d="M269.482 232.818L271 275.479L306.552 312.549L323.089 297.689C319.441 290.286 311.265 273.977 307.75 267.97C285.508 257.168 272.971 240.035 269.482 232.818Z" fill="#307CC1"/>
<path d="M10 689.71L26.058 674.371C46.0626 667.468 79.3982 668.299 93.5654 669.578C93.0062 674.797 91.6001 686.626 90.4497 692.187C74.0242 688.735 39.7725 698.791 24.6998 704.25L10 689.71Z" fill="#307CC1"/>
<circle cx="30.7717" cy="685.398" r="4.47387" fill="#2365A1"/>
<path fill-rule="evenodd" clip-rule="evenodd" d="M137.624 278.751C126.833 284.868 116.594 290.146 110.753 291.896C110.299 292.032 109.843 292.169 109.388 292.308C111.631 296.216 116.771 308.756 120.583 330.001C125.456 357.164 141.195 420.198 145.988 434.179C150.782 448.159 160.448 503.843 161.167 510.154C161.321 511.503 162.127 515.283 163.292 520.744C167.578 540.841 176.718 583.694 176.027 611.775C175.653 626.961 172.058 651.611 168.399 676.698C163.453 710.604 158.39 745.31 161.008 758.534C164.692 777.148 167.958 797.332 168.859 808C175.455 808.958 182.182 809.872 188.969 810.718V766.603C188.969 737.043 198.157 690.228 202.79 668.018C207.424 645.808 196.719 533.802 190.168 492.339C183.617 450.876 169.236 384.007 161.088 355.007C155.427 334.861 144.376 299.803 137.624 278.751Z" fill="#5497D6"/>
<path d="M253.825 363.835C267.502 335.203 270.975 292.999 271.002 275.477L329.082 329.243L269.164 385.326C265.622 380.186 257.596 368.693 253.825 363.835Z" fill="#5497D6"/>
<path fill-rule="evenodd" clip-rule="evenodd" d="M308.718 602.34C308.585 602.317 308.451 602.294 308.316 602.271C292.504 599.577 272.274 593.341 255.405 587.453V604.482L316.689 621.406C314.183 614.54 311.442 608.105 308.718 602.34Z" fill="#2365A1"/>
<path d="M193.896 563.326L255.412 587.453V625.641L199.329 610.062L193.896 563.326Z" fill="#2365A1"/>
<path d="M217.24 80.7848V64.4871L224.031 56.498H235.295L241.846 64.4871L241.127 80.7848L232.979 89.0135H222.593L217.24 80.7848Z" fill="#3B89D2"/>
<path d="M260.465 150.838C265.165 147.223 276.612 141.864 284.8 149.351C280.712 153.406 272.252 157.378 260.465 150.838Z" fill="#FFF3F1"/>
<mask id="mask0" mask-type="alpha" maskUnits="userSpaceOnUse" x="267" y="144" width="12" height="12">
<path d="M278.152 151.717C277.43 154.567 274 156.023 271.15 155.3C268.299 154.578 267.329 152.008 268.051 149.157C268.773 146.307 270.915 144.256 273.765 144.978C276.616 145.7 278.874 148.866 278.152 151.717Z" fill="#2C1E25"/>
</mask>
<g mask="url(#mask0)">
<path d="M260.355 150.847C265.057 147.221 276.508 141.845 284.694 149.344C280.603 153.409 272.139 157.394 260.355 150.847Z" fill="#2C1E25"/>
</g>
<path d="M185.684 153.998C188.216 150.672 196.09 145.357 207.325 150.701C204.513 155.979 194.052 161.68 185.684 153.998Z" fill="#FFF3F1"/>
<mask id="mask1" mask-type="alpha" maskUnits="userSpaceOnUse" x="191" y="147" width="10" height="12">
<path d="M200.657 152.773C200.868 155.829 199.537 158.41 196.481 158.621C193.425 158.833 191.629 156.604 191.417 153.548C191.206 150.492 192.66 147.766 195.716 147.555C198.772 147.343 200.445 149.717 200.657 152.773Z" fill="#2C1E25"/>
</mask>
<g mask="url(#mask1)">
<path d="M185.69 153.997C188.222 150.672 196.096 145.357 207.331 150.701C204.518 155.979 194.058 161.679 185.69 153.997Z" fill="#2C1E25"/>
</g>
<path d="M208.451 214.952C211.986 216.058 220.156 218.402 225.679 217.501C226.414 217.388 227.138 217.334 227.902 217.348C229.777 217.436 233.607 217.445 236.023 216.783C236.828 216.562 237.286 217.73 236.657 218.405C231.863 223.002 218.253 225.442 214.282 224.199C210.936 223.187 208.633 218.852 207.549 216.304C207.217 215.581 207.768 214.771 208.451 214.952Z" fill="#2C1E25"/>
<mask id="path-43-outside-1" maskUnits="userSpaceOnUse" x="0" y="0.99707" width="451" height="1384" fill="black">
<rect fill="white" y="0.99707" width="451" height="1384"/>
<path fill-rule="evenodd" clip-rule="evenodd" d="M218.111 11.3596C195.049 13.0781 185.802 22.9621 168.173 41.8071L168.169 41.8115L168.157 41.8243L168.095 41.8898L168.079 41.907L168.075 41.9119L168.072 41.9147L168.072 41.9149L168.069 41.9177C167.348 42.6883 166.613 43.4739 165.863 44.2745C147.847 63.4917 140.27 102.788 138.36 123.259L137.005 123.577L136.996 123.579C126.505 126.042 119.476 127.693 113.06 131.275C109.028 133.527 101.156 139.824 113.06 143.099C117.109 144.213 127.715 144.688 142.016 144.719C142.903 148.779 142.668 156.956 137.183 169.063C128.715 187.757 130.153 200.939 133.668 211.724C137.183 222.51 142.536 239.287 142.536 245.758C143.69 241.399 144.958 235.051 146.022 229.723C146.176 228.954 146.325 228.207 146.469 227.49C147.074 229.605 147.76 231.802 148.53 234.097C153.026 247.494 156.232 258.124 157.934 266.654C141.68 276.62 120.373 288.915 110.823 291.775C98.2322 295.546 84.965 300.324 79.9053 302.241C79.9998 302.251 80.0967 302.263 80.1958 302.276C77.8437 303.879 73.0483 308.984 68.7174 319.577C67.8632 321.666 66.637 324.089 65.155 327.018L65.1549 327.018C56.3804 344.357 38.6394 379.413 36.0422 467.854C34.3254 526.316 33.8094 563.29 33.4539 588.762C33.1808 608.332 33.0025 621.112 32.4471 631.629C32.1685 636.906 31.6963 641.988 31.2216 647.098C30.4483 655.422 29.6684 663.817 29.7085 673.233C28.4502 673.586 27.2312 673.965 26.058 674.369L10 689.708L24.6999 704.248C26.8909 703.455 29.4872 702.564 32.375 701.632C33.0422 705.327 33.8571 709.2 34.8438 713.277C39.1898 730.214 41.1285 744.248 41.5546 749.148C42.2189 748.37 43.0122 747.541 43.9265 746.689C44.581 753.191 44.3564 763.83 41.0758 778.308C35.084 804.752 40.3568 827.042 54.8969 832.953C66.3492 837.61 85.3845 841.275 95.4901 827.554C95.919 845.632 96.5101 865.967 97.2817 887.292C88.8275 936.143 77.2337 1014.27 74.0685 1077.42C73.1477 1095.79 72.147 1111 71.3154 1123.63C67.7461 1177.88 67.2929 1184.77 89.6472 1191.18C100.849 1194.4 109.13 1192.47 114.909 1188.8C114.515 1198.25 117.863 1216.19 134.544 1219.94C136.014 1220.28 137.7 1220.67 139.587 1221.11L139.619 1221.12C143.562 1222.05 148.386 1223.18 153.977 1224.36C157.169 1241.58 158.285 1275.08 141.262 1297.6C118.254 1328.04 104.832 1347.85 114.259 1366.7C123.686 1385.56 168.984 1364.55 172.979 1351.6C175.192 1344.43 178.534 1335.08 184.405 1323.99C185.858 1328.15 187.411 1333.25 187.832 1336.74C193.392 1336.74 199.416 1333.92 201.733 1332.51C201.481 1324.61 201.699 1307.42 204.135 1294.18L204.216 1294.08C207.396 1290.21 210.687 1282.18 204.216 1250.22C203.206 1245.23 203.286 1240.8 203.367 1236.33C203.396 1234.76 203.424 1233.19 203.405 1231.59C222.95 1233.05 245.165 1232.97 268.693 1229.53C268.394 1237.87 266.755 1248.71 262.139 1259.81C255.156 1276.6 253.634 1285.52 260.463 1294.41C262.571 1304.46 266.417 1320.14 270.044 1326.52C274.262 1333.93 287.141 1333.07 293.052 1331.71L292.189 1319.82C305.287 1329.65 317.401 1339.42 322.536 1346.57C330.286 1357.36 354.652 1368.14 370.55 1357.36C383.269 1348.73 371.749 1329.53 364.399 1321.01C348.793 1309.77 316.88 1279.54 314.068 1248.54C312.528 1231.58 312.323 1219.1 312.645 1210.61C312.852 1209.76 313.017 1208.86 313.145 1207.93C321.268 1204.92 333.831 1201.9 347.291 1203.17C370.22 1205.32 418.953 1193.66 436.449 1164.82C436.302 1163.61 435.513 1160.06 434.251 1154.37L434.25 1154.36L434.25 1154.36C425.554 1115.14 394.396 974.614 395.745 803.204C405.841 803.963 416.062 799.677 422.416 784.099C430.797 763.549 430.346 730.943 428.693 712.432L429.139 712.554L429.448 712.638C431.31 713.148 432.88 713.578 434.055 713.839C435.413 704.486 433.162 682.852 429.993 661.309C431.994 660.304 433.913 658.849 435.578 656.798C443.487 647.051 442.768 632.591 433.261 628.596C430.603 627.627 427.493 626.919 424.094 626.423L423.989 625.879C427.105 599.116 412.325 517.468 409.129 506.044C405.934 494.619 399.543 464.74 399.303 444.049C399.063 423.357 394.03 401.627 390.835 388.605C388.003 377.066 382.223 325.571 379.832 304.262L379.831 304.26L379.823 304.188L379.822 304.172L379.812 304.091C379.514 301.429 379.269 299.249 379.091 297.689C377.813 286.508 364.186 285.254 357.526 286.025L357.525 286.024C335.635 282.269 317.287 273.348 307.753 267.968L307.752 267.973L307.75 267.97C302.937 265.632 298.578 262.999 294.668 260.233C296.022 255.412 298.212 250.226 301.517 244.64C304.747 240.204 309.462 230.938 310.567 220.23C312.745 223.044 314.621 229.649 314.621 243.443C314.621 252.71 324.66 261.525 330.439 265.333C329.107 263.043 327.771 255.986 333.075 246.079C339.076 234.874 331.273 225.762 327.189 220.993L327.188 220.992L327.183 220.986L327.176 220.978C326.752 220.482 326.368 220.034 326.045 219.635C323.041 215.932 319.12 209.479 319.733 198.139C324.126 196.868 327.649 198.337 330.364 202.299C330.523 195.508 325.73 189.117 321.735 187.759C315.218 185.543 306.64 158.367 303.896 144.188C303.963 140.915 303.718 137.69 302.975 134.905C320.533 131.929 334.689 128.493 340.028 125.683C350.654 120.091 340.028 114.259 331.72 114.099C325.073 113.971 309.51 113.3 302.56 112.981L302.183 112.991L302.123 112.296C301.385 103.778 300.232 90.4723 295.894 75.8791L295.908 75.8774C292.043 62.8769 285.65 48.8547 274.768 36.2855C257.914 16.8168 245.748 10.9955 226.988 10.9971C224.188 10.9968 221.242 11.1264 218.111 11.3596ZM286.17 253.454C286.634 249.561 287.288 245.788 287.912 242.186C288.398 239.376 288.867 236.671 289.214 234.094C290.751 222.665 286.5 214.958 282.806 211.09C279.092 221.514 274.718 228.172 269.92 232.264L269.97 233.779C272.39 238.345 277.749 245.902 286.17 253.454ZM172.581 216.016C174.802 221.958 177.297 227.022 180.079 230.66C180.512 231.266 180.948 231.85 181.386 232.41L179.128 240.566L179.13 240.567C178.223 241.582 177.157 242.839 175.96 244.322C177.222 238.898 177.049 233.145 173.934 227.786C171.712 223.962 171.707 219.725 172.581 216.016ZM171.448 250.184C169.309 253.084 166.959 256.43 164.492 260.167C164.99 254.63 164.798 248.2 163.63 239.29C163.063 235.646 163.253 231.812 163.944 227.964C167.462 233.44 170.944 241.244 171.448 250.184ZM359.443 590.726C341.461 558.893 346.307 507.36 351.587 482.19C356.399 521 365.061 572.625 373.142 617.057C368.443 607.283 363.792 598.425 359.443 590.726Z"/>
</mask>
<path d="M168.173 41.8071L160.87 34.9755L160.862 34.9846L168.173 41.8071ZM218.111 11.3596L217.368 1.38729L218.111 11.3596ZM168.169 41.8115L175.475 48.6396L175.48 48.634L168.169 41.8115ZM168.157 41.8243L175.459 48.6565L175.463 48.6525L168.157 41.8243ZM168.095 41.8898L160.793 35.0577L160.791 35.0602L168.095 41.8898ZM168.079 41.907L175.379 48.7416L175.384 48.7366L168.079 41.907ZM168.075 41.9119L175.35 48.7729C175.358 48.7642 175.366 48.7554 175.375 48.7465L168.075 41.9119ZM168.072 41.9147L175.251 48.8762C175.283 48.8429 175.315 48.8095 175.347 48.7758L168.072 41.9147ZM168.072 41.9149L160.893 34.9535C160.844 35.0041 160.795 35.0552 160.747 35.1069L168.072 41.9149ZM168.069 41.9177L175.372 48.7495C175.379 48.7416 175.387 48.7336 175.394 48.7257L168.069 41.9177ZM165.863 44.2745L173.158 51.1139L173.158 51.1139L165.863 44.2745ZM138.36 123.259L140.647 132.994C144.83 132.011 147.918 128.466 148.317 124.188L138.36 123.259ZM137.005 123.577L139.29 133.312L139.292 133.312L137.005 123.577ZM136.996 123.579L134.711 113.844L134.71 113.844L136.996 123.579ZM113.06 131.275L117.935 140.006L117.935 140.006L113.06 131.275ZM113.06 143.099L115.713 133.458H115.713L113.06 143.099ZM142.016 144.719L151.786 142.586C150.785 138.001 146.731 134.729 142.038 134.719L142.016 144.719ZM137.183 169.063L128.074 164.936H128.074L137.183 169.063ZM133.668 211.724L143.176 208.626L133.668 211.724ZM142.536 245.758H132.536C132.536 250.782 136.264 255.026 141.246 255.674C146.228 256.322 150.917 253.173 152.203 248.317L142.536 245.758ZM146.022 229.723L155.829 231.682V231.682L146.022 229.723ZM146.469 227.49L156.084 224.74C154.815 220.305 150.677 217.313 146.068 217.498C141.459 217.683 137.574 220.997 136.665 225.52L146.469 227.49ZM148.53 234.097L158.01 230.915V230.915L148.53 234.097ZM157.934 266.654L163.161 275.179C166.733 272.989 168.56 268.805 167.741 264.697L157.934 266.654ZM110.823 291.775L107.954 282.196L110.823 291.775ZM79.9053 302.241L76.3617 292.89C72.0388 294.528 69.4022 298.916 69.9851 303.502C70.5681 308.088 74.2185 311.677 78.8139 312.181L79.9053 302.241ZM80.1958 302.276L85.8277 310.54C89.2526 308.205 90.8826 304 89.9256 299.967C88.9685 295.935 85.623 292.91 81.5144 292.364L80.1958 302.276ZM68.7174 319.577L59.4611 315.793L68.7174 319.577ZM65.155 327.018L56.2325 322.502C56.1742 322.618 56.1181 322.734 56.0643 322.851L65.155 327.018ZM65.1549 327.018L74.0774 331.533C74.1357 331.418 74.1917 331.302 74.2455 331.185L65.1549 327.018ZM36.0422 467.854L26.0465 467.56L36.0422 467.854ZM33.4539 588.762L43.453 588.902L33.4539 588.762ZM32.4471 631.629L42.4332 632.157L32.4471 631.629ZM31.2216 647.098L21.2645 646.173H21.2645L31.2216 647.098ZM29.7085 673.233L32.4102 682.861C36.7411 681.646 39.7276 677.689 39.7084 673.191L29.7085 673.233ZM26.058 674.369L22.7964 664.916C21.4353 665.386 20.1918 666.144 19.1507 667.138L26.058 674.369ZM10 689.708L3.09267 682.477C1.13931 684.343 0.0239229 686.92 0.000379562 689.621C-0.0231628 692.323 1.04714 694.918 2.96769 696.818L10 689.708ZM24.6999 704.248L17.6675 711.358C20.4125 714.073 24.4752 714.966 28.1053 713.651L24.6999 704.248ZM32.375 701.632L42.2159 699.855C41.7033 697.017 39.9901 694.538 37.516 693.055C35.042 691.572 32.0481 691.229 29.3032 692.116L32.375 701.632ZM34.8438 713.277L25.1243 715.629C25.1351 715.674 25.1462 715.718 25.1576 715.763L34.8438 713.277ZM41.5546 749.148L31.5922 750.015C31.9412 754.029 34.6658 757.442 38.5032 758.671C42.3407 759.901 46.5412 758.707 49.1584 755.643L41.5546 749.148ZM43.9265 746.689L53.8762 745.687C53.4958 741.907 51.0061 738.669 47.4506 737.33C43.8951 735.991 39.888 736.783 37.1086 739.373L43.9265 746.689ZM41.0758 778.308L31.323 776.099H31.323L41.0758 778.308ZM54.8969 832.953L51.1304 842.217H51.1304L54.8969 832.953ZM95.4901 827.554L105.487 827.316C105.386 823.041 102.577 819.303 98.4981 818.017C94.4195 816.73 89.9742 818.18 87.4381 821.623L95.4901 827.554ZM97.2817 887.292L107.135 888.997C107.253 888.315 107.3 887.622 107.275 886.93L97.2817 887.292ZM74.0685 1077.42L84.056 1077.92L74.0685 1077.42ZM71.3154 1123.63L81.2939 1124.29L71.3154 1123.63ZM89.6472 1191.18L86.8889 1200.79H86.8889L89.6472 1191.18ZM114.909 1188.8L124.9 1189.21C125.055 1185.49 123.131 1182 119.907 1180.14C116.682 1178.28 112.69 1178.36 109.548 1180.36L114.909 1188.8ZM134.544 1219.94L132.348 1229.7H132.348L134.544 1219.94ZM139.587 1221.11L137.303 1230.85C137.313 1230.85 137.322 1230.85 137.331 1230.86L139.587 1221.11ZM139.619 1221.12L141.902 1211.39C141.893 1211.38 141.884 1211.38 141.875 1211.38L139.619 1221.12ZM153.977 1224.36L163.809 1222.54C163.072 1218.56 160.01 1215.42 156.053 1214.58L153.977 1224.36ZM141.262 1297.6L133.285 1291.57H133.285L141.262 1297.6ZM114.259 1366.7L105.315 1371.18H105.315L114.259 1366.7ZM172.979 1351.6L163.423 1348.65V1348.65L172.979 1351.6ZM184.405 1323.99L193.848 1320.69C192.539 1316.94 189.128 1314.32 185.162 1314.01C181.196 1313.71 177.428 1315.79 175.567 1319.31L184.405 1323.99ZM187.832 1336.74L177.904 1337.94C178.509 1342.96 182.772 1346.74 187.832 1346.74V1336.74ZM201.733 1332.51L206.936 1341.05C210.012 1339.17 211.843 1335.79 211.728 1332.19L201.733 1332.51ZM204.135 1294.18L196.318 1287.95C195.291 1289.23 194.598 1290.76 194.3 1292.37L204.135 1294.18ZM204.216 1294.08L196.492 1287.73C196.46 1287.77 196.429 1287.81 196.399 1287.85L204.216 1294.08ZM204.216 1250.22L214.017 1248.24L204.216 1250.22ZM203.367 1236.33L193.369 1236.15V1236.15L203.367 1236.33ZM203.405 1231.59L204.152 1221.61C201.357 1221.4 198.603 1222.38 196.56 1224.3C194.518 1226.21 193.373 1228.9 193.406 1231.7L203.405 1231.59ZM268.693 1229.53L278.687 1229.89C278.793 1226.92 277.577 1224.06 275.367 1222.08C273.157 1220.1 270.182 1219.2 267.246 1219.63L268.693 1229.53ZM262.139 1259.81L271.372 1263.65L262.139 1259.81ZM260.463 1294.41L270.25 1292.36C269.942 1290.89 269.308 1289.51 268.395 1288.32L260.463 1294.41ZM270.044 1326.52L261.352 1331.46H261.352L270.044 1326.52ZM293.052 1331.71L295.291 1341.46C300.099 1340.35 303.383 1335.91 303.026 1330.99L293.052 1331.71ZM292.189 1319.82L298.19 1311.82C295.056 1309.47 290.836 1309.16 287.396 1311.04C283.957 1312.92 281.931 1316.64 282.215 1320.54L292.189 1319.82ZM322.536 1346.57L330.657 1340.74L330.657 1340.74L322.536 1346.57ZM370.55 1357.36L364.936 1349.08H364.936L370.55 1357.36ZM364.399 1321.01L371.971 1314.47C371.459 1313.88 370.879 1313.35 370.243 1312.89L364.399 1321.01ZM314.068 1248.54L324.027 1247.64V1247.64L314.068 1248.54ZM312.645 1210.61L302.929 1208.24C302.77 1208.89 302.678 1209.56 302.652 1210.23L312.645 1210.61ZM313.145 1207.93L309.67 1198.55C306.212 1199.83 303.74 1202.91 303.238 1206.57L313.145 1207.93ZM347.291 1203.17L346.354 1213.12H346.354L347.291 1203.17ZM436.449 1164.82L444.999 1170.01C446.162 1168.09 446.647 1165.83 446.375 1163.61L436.449 1164.82ZM434.251 1154.37L424.468 1156.44C424.475 1156.47 424.482 1156.5 424.489 1156.53L434.251 1154.37ZM434.25 1154.36L444.034 1152.29C444.027 1152.26 444.02 1152.22 444.012 1152.19L434.25 1154.36ZM434.25 1154.36L424.487 1156.52L424.488 1156.53L434.25 1154.36ZM395.745 803.204L396.495 793.232C393.734 793.025 391.01 793.971 388.973 795.846C386.936 797.721 385.767 800.357 385.746 803.125L395.745 803.204ZM422.416 784.099L413.156 780.323L422.416 784.099ZM428.693 712.432L431.331 702.786C428.172 701.922 424.79 702.66 422.278 704.76C419.766 706.861 418.441 710.059 418.733 713.321L428.693 712.432ZM429.139 712.554L431.779 702.908L431.777 702.908L429.139 712.554ZM429.448 712.638L432.088 702.993L432.088 702.993L429.448 712.638ZM434.055 713.839L431.886 723.601C434.601 724.204 437.445 723.649 439.735 722.07C442.024 720.49 443.552 718.028 443.952 715.275L434.055 713.839ZM429.993 661.309L425.504 652.374C421.65 654.31 419.472 658.498 420.1 662.765L429.993 661.309ZM435.578 656.798L443.343 663.099L443.343 663.099L435.578 656.798ZM433.261 628.596L437.134 619.377C436.987 619.315 436.838 619.256 436.687 619.202L433.261 628.596ZM424.094 626.423L414.276 628.319C415.082 632.496 418.442 635.705 422.651 636.319L424.094 626.423ZM423.989 625.879L414.056 624.723C413.938 625.74 413.976 626.77 414.171 627.776L423.989 625.879ZM409.129 506.044L418.76 503.35L409.129 506.044ZM399.303 444.049L409.302 443.933L399.303 444.049ZM390.835 388.605L400.546 386.221L390.835 388.605ZM379.832 304.262L369.893 305.366L369.894 305.378L379.832 304.262ZM379.831 304.26L389.77 303.155L389.769 303.145L379.831 304.26ZM379.823 304.188L369.882 305.273C369.883 305.283 369.885 305.293 369.886 305.302L379.823 304.188ZM379.822 304.172L389.762 303.086C389.761 303.075 389.76 303.064 389.759 303.053L379.822 304.172ZM379.812 304.091L369.875 305.206L369.875 305.21L379.812 304.091ZM379.091 297.689L369.155 298.825L369.155 298.825L379.091 297.689ZM357.526 286.025L351.056 293.65C353.167 295.441 355.926 296.276 358.676 295.958L357.526 286.025ZM357.525 286.024L363.995 278.399C362.63 277.241 360.98 276.47 359.216 276.168L357.525 286.024ZM307.753 267.968L312.668 259.259C310.154 257.841 307.151 257.578 304.429 258.537C301.707 259.497 299.533 261.585 298.464 264.266L307.753 267.968ZM307.752 267.973L299.128 273.035C301.061 276.328 304.701 278.233 308.509 277.944C312.317 277.655 315.627 275.222 317.041 271.675L307.752 267.973ZM307.75 267.97L316.374 262.908C315.375 261.205 313.894 259.837 312.119 258.974L307.75 267.97ZM294.668 260.233L285.04 257.529C283.896 261.602 285.439 265.954 288.894 268.397L294.668 260.233ZM301.517 244.64L293.433 238.753C293.246 239.009 293.071 239.275 292.91 239.548L301.517 244.64ZM310.567 220.23L318.475 214.11C315.973 210.877 311.755 209.493 307.824 210.614C303.893 211.735 301.04 215.137 300.62 219.203L310.567 220.23ZM330.439 265.333L324.936 273.683C328.812 276.237 333.936 275.788 337.309 272.599C340.682 269.41 341.417 264.319 339.084 260.307L330.439 265.333ZM333.075 246.079L324.26 241.358V241.359L333.075 246.079ZM327.189 220.993L334.785 214.489C334.745 214.442 334.704 214.395 334.663 214.349L327.189 220.993ZM327.188 220.992L319.629 227.539C319.657 227.571 319.685 227.603 319.714 227.635L327.188 220.992ZM327.183 220.986L319.578 227.48C319.594 227.497 319.609 227.515 319.624 227.533L327.183 220.986ZM327.176 220.978L334.781 214.484L334.773 214.474L327.176 220.978ZM326.045 219.635L333.811 213.335L333.811 213.335L326.045 219.635ZM319.733 198.139L316.953 188.533C312.868 189.716 309.977 193.352 309.748 197.599L319.733 198.139ZM330.364 202.299L322.114 207.951C324.567 211.531 329.049 213.12 333.21 211.885C337.37 210.65 340.259 206.873 340.361 202.534L330.364 202.299ZM321.735 187.759L324.954 178.291L321.735 187.759ZM303.896 144.188L293.898 143.984C293.883 144.689 293.944 145.395 294.078 146.088L303.896 144.188ZM302.975 134.905L301.304 125.046C298.53 125.516 296.082 127.133 294.561 129.5C293.041 131.867 292.588 134.766 293.313 137.484L302.975 134.905ZM340.028 125.683L335.371 116.834L335.371 116.834L340.028 125.683ZM331.72 114.099L331.528 124.097H331.528L331.72 114.099ZM302.56 112.981L303.019 102.991C302.774 102.98 302.529 102.978 302.284 102.984L302.56 112.981ZM302.183 112.991L292.22 113.855C292.678 119.129 297.167 123.133 302.459 122.987L302.183 112.991ZM302.123 112.296L292.16 113.159L292.16 113.16L302.123 112.296ZM295.894 75.8791L294.745 65.9452C291.81 66.2846 289.175 67.9047 287.548 70.3708C285.92 72.8369 285.467 75.8965 286.309 78.7287L295.894 75.8791ZM295.908 75.8774L297.057 85.8112C299.992 85.4718 302.627 83.8517 304.255 81.3856C305.882 78.9195 306.336 75.8599 305.494 73.0277L295.908 75.8774ZM274.768 36.2855L282.329 29.7403V29.7403L274.768 36.2855ZM226.988 10.9971L226.987 20.9971H226.988L226.988 10.9971ZM287.912 242.186L297.765 243.893L297.765 243.893L287.912 242.186ZM286.17 253.454L279.493 260.899C282.271 263.39 286.205 264.128 289.697 262.812C293.189 261.495 295.657 258.344 296.099 254.639L286.17 253.454ZM289.214 234.094L299.124 235.427V235.427L289.214 234.094ZM282.806 211.09L290.037 204.183C287.64 201.674 284.114 200.586 280.72 201.31C277.327 202.034 274.551 204.465 273.386 207.734L282.806 211.09ZM269.92 232.264L263.43 224.656C261.115 226.632 259.825 229.554 259.926 232.596L269.92 232.264ZM269.97 233.779L259.976 234.111C260.026 235.63 260.422 237.118 261.134 238.461L269.97 233.779ZM180.079 230.66L188.216 224.847C188.153 224.759 188.089 224.671 188.023 224.585L180.079 230.66ZM172.581 216.016L181.948 212.515C180.406 208.389 176.346 205.758 171.951 206.036C167.555 206.314 163.859 209.435 162.848 213.722L172.581 216.016ZM181.386 232.41L191.024 235.079C191.87 232.023 191.216 228.746 189.262 226.248L181.386 232.41ZM179.128 240.566L169.491 237.897C168.537 241.34 169.493 245.03 171.998 247.577L179.128 240.566ZM179.13 240.567L186.587 247.23C190.1 243.299 189.957 237.315 186.26 233.556L179.13 240.567ZM175.96 244.322L166.221 242.055C165.164 246.597 167.386 251.265 171.576 253.309C175.767 255.353 180.814 254.23 183.742 250.602L175.96 244.322ZM173.934 227.786L165.289 232.811L165.289 232.811L173.934 227.786ZM164.492 260.167L154.532 259.271C154.121 263.834 156.864 268.093 161.189 269.606C165.513 271.119 170.313 269.5 172.837 265.676L164.492 260.167ZM171.448 250.184L179.495 256.122C180.879 254.247 181.564 251.947 181.433 249.621L171.448 250.184ZM163.63 239.29L173.545 237.99C173.534 237.911 173.523 237.832 173.511 237.753L163.63 239.29ZM163.944 227.964L172.357 222.559C170.134 219.1 166.021 217.354 161.989 218.157C157.957 218.961 154.828 222.15 154.101 226.197L163.944 227.964ZM351.587 482.19L361.511 480.96C360.91 476.108 356.889 472.403 352.004 472.199C347.12 471.995 342.804 475.352 341.8 480.137L351.587 482.19ZM359.443 590.726L368.15 585.808L359.443 590.726ZM373.142 617.057L364.129 621.389C366.298 625.901 371.469 628.114 376.23 626.568C380.992 625.021 383.876 620.193 382.98 615.267L373.142 617.057ZM175.475 48.6388C184.527 38.9629 190.445 32.7117 196.736 28.4246C202.524 24.4805 208.872 22.0758 218.854 21.332L217.368 1.38729C204.288 2.36189 194.482 5.75847 185.473 11.8972C176.968 17.693 169.448 25.8063 160.87 34.9755L175.475 48.6388ZM175.48 48.634L175.484 48.6296L160.862 34.9846L160.857 34.989L175.48 48.634ZM175.463 48.6525L175.475 48.6396L160.863 34.9834L160.851 34.9962L175.463 48.6525ZM175.397 48.722L175.459 48.6565L160.854 34.9922L160.793 35.0577L175.397 48.722ZM175.384 48.7366L175.4 48.7195L160.791 35.0602L160.775 35.0773L175.384 48.7366ZM175.375 48.7465L175.379 48.7416L160.779 35.0723L160.775 35.0773L175.375 48.7465ZM175.347 48.7758L175.35 48.7729L160.8 35.0509L160.797 35.0537L175.347 48.7758ZM175.251 48.8764L175.251 48.8762L160.893 34.9533L160.893 34.9535L175.251 48.8764ZM175.394 48.7257L175.397 48.7229L160.747 35.1069L160.745 35.1097L175.394 48.7257ZM173.158 51.1139C173.913 50.309 174.651 49.5197 175.372 48.7495L160.767 35.0859C160.045 35.857 159.314 36.6389 158.567 37.4352L173.158 51.1139ZM148.317 124.188C149.223 114.475 151.492 100.19 155.659 86.1399C159.897 71.8496 165.751 59.0154 173.158 51.1139L158.567 37.4351C147.959 48.7509 141.016 65.1733 136.484 80.4531C131.881 95.9735 129.407 111.572 128.403 122.33L148.317 124.188ZM139.292 133.312L140.647 132.994L136.073 113.524L134.718 113.842L139.292 133.312ZM139.281 133.315L139.29 133.312L134.72 113.842L134.711 113.844L139.281 133.315ZM117.935 140.006C122.884 137.243 128.415 135.866 139.281 133.314L134.71 113.844C124.595 116.219 116.068 118.142 108.184 122.545L117.935 140.006ZM115.713 133.458C114.718 133.184 114.278 132.97 114.194 132.925C114.097 132.874 114.631 133.133 115.266 133.922C115.978 134.809 116.595 136.1 116.729 137.652C116.854 139.107 116.507 140.21 116.256 140.788C116.129 141.08 116.009 141.282 115.937 141.394C115.899 141.452 115.869 141.494 115.85 141.52C115.831 141.545 115.82 141.559 115.819 141.559C115.818 141.56 115.826 141.551 115.842 141.533C115.859 141.515 115.883 141.49 115.916 141.458C115.982 141.392 116.073 141.308 116.189 141.208C116.706 140.766 117.381 140.316 117.935 140.006L108.184 122.545C106.723 123.361 104.902 124.542 103.181 126.016C101.621 127.352 99.2945 129.637 97.9122 132.819C96.2458 136.655 96.0321 141.917 99.6764 146.451C102.545 150.02 106.787 151.745 110.407 152.741L115.713 133.458ZM142.038 134.719C134.968 134.703 128.929 134.578 124.222 134.329C119.203 134.064 116.558 133.69 115.713 133.458L110.407 152.741C113.61 153.622 118.293 154.043 123.165 154.301C128.349 154.576 134.763 154.703 141.994 154.719L142.038 134.719ZM146.292 173.189C152.357 159.8 153.269 149.376 151.786 142.586L132.246 146.852C132.537 148.182 132.978 154.112 128.074 164.936L146.292 173.189ZM143.176 208.626C140.353 199.964 138.958 189.381 146.292 173.189L128.074 164.936C118.472 186.134 119.953 201.914 124.16 214.823L143.176 208.626ZM152.536 245.758C152.536 240.906 150.752 233.744 149.05 227.664C147.21 221.089 144.934 214.02 143.176 208.626L124.16 214.823C125.917 220.214 128.075 226.926 129.79 233.054C131.644 239.676 132.536 244.138 132.536 245.758H152.536ZM136.216 227.764C135.128 233.209 133.926 239.206 132.869 243.199L152.203 248.317C153.454 243.592 154.787 236.894 155.829 231.682L136.216 227.764ZM136.665 225.52C136.52 226.243 136.37 226.996 136.216 227.764L155.829 231.682C155.982 230.912 156.131 230.171 156.273 229.46L136.665 225.52ZM158.01 230.915C157.283 228.748 156.643 226.696 156.084 224.74L136.855 230.24C137.506 232.515 138.237 234.855 139.05 237.279L158.01 230.915ZM167.741 264.697C165.905 255.5 162.522 244.357 158.01 230.915L139.05 237.279C143.531 250.63 146.558 260.748 148.127 268.611L167.741 264.697ZM113.692 301.355C119.615 299.581 128.198 295.282 136.663 290.653C145.413 285.868 154.957 280.21 163.161 275.179L152.707 258.129C144.657 263.065 135.42 268.537 127.066 273.106C118.426 277.831 111.581 281.109 107.954 282.196L113.692 301.355ZM83.4489 311.592C88.3618 309.73 101.395 305.038 113.692 301.355L107.954 282.196C95.0698 286.054 81.5683 290.917 76.3617 292.89L83.4489 311.592ZM81.5144 292.364C81.341 292.341 81.1684 292.32 80.9968 292.301L78.8139 312.181C78.8313 312.183 78.8524 312.186 78.8771 312.189L81.5144 292.364ZM77.9737 323.361C79.8654 318.734 81.7699 315.524 83.2896 313.432C84.8833 311.238 85.8855 310.5 85.8277 310.54L74.5638 294.013C70.0428 297.094 64.2362 304.113 59.4611 315.793L77.9737 323.361ZM74.0775 331.533C75.496 328.73 76.9337 325.905 77.9737 323.361L59.4611 315.793C58.7926 317.428 57.7779 319.449 56.2325 322.502L74.0775 331.533ZM74.2455 331.185L74.2456 331.184L56.0643 322.851L56.0642 322.852L74.2455 331.185ZM46.0379 468.147C48.5875 381.328 65.8943 347.703 74.0774 331.533L56.2323 322.503C46.8664 341.01 28.6913 377.499 26.0465 467.56L46.0379 468.147ZM43.453 588.902C43.8081 563.451 44.3233 526.535 46.0379 468.147L26.0465 467.56C24.3275 526.097 23.8107 563.13 23.4549 588.623L43.453 588.902ZM42.4332 632.157C43.0013 621.399 43.181 608.39 43.453 588.902L23.4549 588.623C23.1807 608.274 23.0037 620.824 22.461 631.102L42.4332 632.157ZM41.1787 648.023C41.6508 642.942 42.1424 637.664 42.4332 632.157L22.461 631.102C22.1946 636.148 21.7418 641.035 21.2645 646.173L41.1787 648.023ZM39.7084 673.191C39.6707 664.325 40.4018 656.386 41.1787 648.023L21.2645 646.173C20.4948 654.458 19.6662 663.308 19.7086 673.276L39.7084 673.191ZM29.3196 683.823C30.2906 683.488 31.3217 683.167 32.4102 682.861L27.0069 663.605C25.5787 664.006 24.1717 664.442 22.7964 664.916L29.3196 683.823ZM16.9073 696.94L32.9653 681.601L19.1507 667.138L3.09267 682.477L16.9073 696.94ZM31.7322 697.139L17.0323 682.599L2.96769 696.818L17.6675 711.358L31.7322 697.139ZM29.3032 692.116C26.3143 693.08 23.6061 694.009 21.2944 694.846L28.1053 713.651C30.1756 712.901 32.6601 712.048 35.4469 711.148L29.3032 692.116ZM44.5633 710.925C43.6211 707.032 42.8471 703.351 42.2159 699.855L22.5342 703.409C23.2374 707.303 24.0932 711.368 25.1243 715.629L44.5633 710.925ZM51.517 748.282C51.0403 742.801 49.0034 728.225 44.53 710.792L25.1576 715.763C29.3763 732.203 31.2166 745.696 31.5922 750.015L51.517 748.282ZM37.1086 739.373C35.9415 740.461 34.8821 741.563 33.9507 742.653L49.1584 755.643C49.5556 755.178 50.0829 754.621 50.7444 754.004L37.1086 739.373ZM50.8286 780.518C54.3125 765.143 54.6537 753.412 53.8762 745.687L33.9768 747.69C34.5083 752.971 34.4002 762.518 31.323 776.099L50.8286 780.518ZM58.6634 823.69C55.3885 822.358 51.9244 818.706 49.9925 810.922C48.0765 803.202 48.0785 792.655 50.8286 780.518L31.323 776.099C28.0814 790.405 27.7238 804.225 30.5813 815.739C33.4228 827.188 39.8652 837.637 51.1304 842.217L58.6634 823.69ZM87.4381 821.623C84.7205 825.313 80.7655 826.994 75.4077 827.15C69.8207 827.312 63.635 825.711 58.6634 823.69L51.1304 842.217C57.6111 844.852 66.6692 847.412 75.9893 847.141C85.5386 846.863 96.154 843.515 103.542 833.484L87.4381 821.623ZM107.275 886.93C106.505 865.65 105.915 845.356 105.487 827.316L85.4929 827.791C85.9227 845.908 86.5151 866.285 87.2883 887.654L107.275 886.93ZM84.056 1077.92C87.1905 1015.38 98.702 937.727 107.135 888.997L87.4282 885.587C78.953 934.559 67.2769 1013.16 64.0811 1076.92L84.056 1077.92ZM81.2939 1124.29C82.1255 1111.65 83.1309 1096.37 84.056 1077.92L64.0811 1076.92C63.1645 1095.2 62.1685 1110.34 61.337 1122.98L81.2939 1124.29ZM92.4054 1181.57C87.0153 1180.02 84.4593 1178.81 83.0326 1177.69C82.0695 1176.93 81.1771 1175.9 80.4834 1173.01C79.686 1169.69 79.3359 1164.63 79.5277 1156.4C79.7167 1148.29 80.396 1137.94 81.2939 1124.29L61.337 1122.98C60.4503 1136.45 59.7343 1147.3 59.5331 1155.94C59.3346 1164.46 59.5991 1171.7 61.0365 1177.68C62.5776 1184.1 65.5402 1189.38 70.6678 1193.41C75.3317 1197.08 81.1019 1199.13 86.8889 1200.79L92.4054 1181.57ZM109.548 1180.36C106.37 1182.37 101.078 1184.06 92.4054 1181.57L86.8889 1200.79C100.621 1204.73 111.891 1202.56 120.27 1197.24L109.548 1180.36ZM136.74 1210.19C132.093 1209.14 129.267 1206.3 127.38 1202.27C125.355 1197.94 124.752 1192.78 124.9 1189.21L104.918 1188.38C104.672 1194.27 105.546 1202.8 109.267 1210.75C113.125 1218.99 120.313 1226.99 132.348 1229.7L136.74 1210.19ZM141.871 1211.38C139.996 1210.94 138.263 1210.53 136.739 1210.19L132.348 1229.7C133.765 1230.02 135.403 1230.4 137.303 1230.85L141.871 1211.38ZM141.875 1211.38L141.843 1211.37L137.331 1230.86L137.363 1230.86L141.875 1211.38ZM156.053 1214.58C150.577 1213.42 145.847 1212.31 141.902 1211.39L137.335 1230.86C141.278 1231.78 146.195 1232.94 151.901 1234.15L156.053 1214.58ZM149.24 1303.63C159.217 1290.43 163.577 1274.47 165.142 1260.07C166.712 1245.62 165.555 1231.95 163.809 1222.54L144.145 1226.19C145.591 1233.99 146.588 1245.68 145.259 1257.91C143.924 1270.2 140.33 1282.25 133.285 1291.57L149.24 1303.63ZM123.204 1362.23C120.307 1356.44 120.388 1350.12 124.701 1340.63C129.214 1330.71 137.597 1319.03 149.24 1303.63L133.285 1291.57C121.92 1306.6 112.087 1320.05 106.494 1332.36C100.701 1345.1 98.7847 1358.11 105.315 1371.18L123.204 1362.23ZM163.423 1348.65C163.542 1348.27 163.481 1348.73 162.347 1349.96C161.307 1351.09 159.751 1352.44 157.681 1353.9C153.534 1356.83 148.048 1359.66 142.377 1361.63C136.595 1363.64 131.413 1364.47 127.697 1364.15C124.142 1363.85 123.466 1362.76 123.204 1362.23L105.315 1371.18C109.766 1380.08 118.288 1383.43 126.002 1384.08C133.555 1384.72 141.716 1383.03 148.936 1380.52C156.267 1377.98 163.443 1374.31 169.208 1370.25C172.093 1368.21 174.805 1365.95 177.044 1363.52C179.188 1361.2 181.417 1358.17 182.534 1354.55L163.423 1348.65ZM175.567 1319.31C169.327 1331.09 165.766 1341.06 163.423 1348.65L182.534 1354.55C184.618 1347.8 187.741 1339.06 193.243 1328.66L175.567 1319.31ZM197.76 1335.55C197.197 1330.87 195.301 1324.86 193.848 1320.69L174.963 1327.28C176.415 1331.44 177.626 1335.63 177.904 1337.94L197.76 1335.55ZM196.531 1323.97C195.976 1324.31 194.517 1325.07 192.66 1325.73C190.762 1326.4 189.058 1326.74 187.832 1326.74V1346.74C196.042 1346.74 203.935 1342.88 206.936 1341.05L196.531 1323.97ZM194.3 1292.37C191.676 1306.63 191.476 1324.64 191.738 1332.83L211.728 1332.19C211.485 1324.59 211.722 1308.21 213.97 1295.99L194.3 1292.37ZM196.399 1287.85L196.318 1287.95L211.952 1300.42L212.033 1300.32L196.399 1287.85ZM194.415 1252.21C197.583 1267.85 198.185 1276.85 197.855 1282.05C197.552 1286.83 196.524 1287.69 196.492 1287.73L211.94 1300.43C218.397 1292.58 220.458 1280.05 214.017 1248.24L194.415 1252.21ZM193.369 1236.15C193.289 1240.54 193.159 1246.01 194.415 1252.21L214.017 1248.24C213.252 1244.46 213.283 1241.05 213.365 1236.51L193.369 1236.15ZM193.406 1231.7C193.423 1233.13 193.398 1234.56 193.369 1236.15L213.365 1236.51C213.394 1234.97 213.426 1233.24 213.405 1231.47L193.406 1231.7ZM267.246 1219.63C244.581 1222.95 223.118 1223.03 204.152 1221.61L202.659 1241.56C222.783 1243.06 245.749 1242.99 270.14 1239.42L267.246 1219.63ZM271.372 1263.65C276.539 1251.22 278.354 1239.16 278.687 1229.89L258.699 1229.17C258.434 1236.57 256.972 1246.19 252.905 1255.97L271.372 1263.65ZM268.395 1288.32C266.456 1285.8 265.877 1283.76 266.095 1280.8C266.366 1277.11 267.907 1271.98 271.372 1263.65L252.905 1255.97C249.389 1264.43 246.677 1272.15 246.149 1279.34C245.567 1287.26 247.641 1294.13 252.531 1300.5L268.395 1288.32ZM278.736 1321.57C277.595 1319.57 275.998 1315.14 274.311 1309.14C272.711 1303.44 271.274 1297.24 270.25 1292.36L250.676 1296.46C251.759 1301.63 253.299 1308.29 255.057 1314.55C256.727 1320.49 258.866 1327.09 261.352 1331.46L278.736 1321.57ZM290.813 1321.97C288.688 1322.45 285.182 1322.85 282.111 1322.48C278.681 1322.06 278.468 1321.1 278.736 1321.57L261.352 1331.46C265.839 1339.35 274.173 1341.66 279.715 1342.33C285.615 1343.04 291.505 1342.33 295.291 1341.46L290.813 1321.97ZM282.215 1320.54L283.079 1332.44L303.026 1330.99L302.162 1319.1L282.215 1320.54ZM330.657 1340.74C327.364 1336.15 322.294 1331.29 316.87 1326.62C311.311 1321.84 304.801 1316.78 298.19 1311.82L286.187 1327.82C292.675 1332.69 298.771 1337.43 303.827 1341.78C309.019 1346.25 312.574 1349.84 314.415 1352.41L330.657 1340.74ZM364.936 1349.08C360.372 1352.18 353.752 1352.68 346.343 1350.47C338.824 1348.23 332.92 1343.89 330.657 1340.74L314.415 1352.41C319.901 1360.04 330.055 1366.48 340.631 1369.64C351.318 1372.82 364.83 1373.32 376.164 1365.63L364.936 1349.08ZM356.826 1327.54C359.996 1331.21 363.816 1336.97 365.471 1342.17C366.286 1344.74 366.34 1346.44 366.162 1347.38C366.049 1347.98 365.857 1348.46 364.936 1349.08L376.164 1365.63C381.603 1361.94 384.74 1356.78 385.815 1351.09C386.824 1345.74 385.923 1340.49 384.53 1336.11C381.767 1327.42 376.151 1319.32 371.971 1314.47L356.826 1327.54ZM304.109 1249.45C305.775 1267.81 315.856 1284.98 326.631 1298.44C337.536 1312.05 350.098 1323.03 358.555 1329.12L370.243 1312.89C363.095 1307.74 351.896 1297.99 342.241 1285.93C332.454 1273.71 325.173 1260.28 324.027 1247.64L304.109 1249.45ZM302.652 1210.23C302.311 1219.23 302.538 1232.14 304.109 1249.45L324.027 1247.64C322.518 1231.02 322.335 1218.97 322.638 1210.98L302.652 1210.23ZM303.238 1206.57C303.149 1207.21 303.044 1207.77 302.929 1208.24L322.361 1212.97C322.66 1211.74 322.884 1210.51 323.053 1209.29L303.238 1206.57ZM348.228 1193.21C332.839 1191.76 318.727 1195.19 309.67 1198.55L316.621 1217.3C323.809 1214.64 334.823 1212.04 346.354 1213.12L348.228 1193.21ZM427.899 1159.63C420.859 1171.24 406.79 1180.31 390.498 1186.22C374.304 1192.09 357.892 1194.12 348.228 1193.21L346.354 1213.12C359.618 1214.37 379.037 1211.65 397.317 1205.02C415.497 1198.42 434.542 1187.24 444.999 1170.01L427.899 1159.63ZM424.489 1156.53C425.123 1159.39 425.625 1161.66 425.988 1163.36C426.169 1164.21 426.306 1164.87 426.402 1165.37C426.51 1165.93 426.53 1166.09 426.522 1166.03L446.375 1163.61C446.151 1161.77 445.182 1157.47 444.014 1152.2L424.489 1156.53ZM424.467 1156.43L424.468 1156.44L444.035 1152.3L444.034 1152.29L424.467 1156.43ZM424.488 1156.53L424.489 1156.53L444.012 1152.19L444.012 1152.19L424.488 1156.53ZM385.746 803.125C384.388 975.692 415.747 1117.1 424.487 1156.52L444.013 1152.19C435.36 1113.17 404.405 973.536 405.745 803.283L385.746 803.125ZM413.156 780.323C410.57 786.664 407.596 789.768 405.129 791.332C402.686 792.881 399.851 793.484 396.495 793.232L394.996 813.176C401.736 813.682 409.06 812.522 415.839 808.223C422.595 803.939 427.908 797.112 431.675 787.875L413.156 780.323ZM418.733 713.321C419.525 722.199 420.029 734.485 419.332 746.943C418.627 759.566 416.728 771.563 413.156 780.323L431.675 787.875C436.484 776.085 438.55 761.505 439.301 748.059C440.062 734.449 439.513 721.176 438.653 711.542L418.733 713.321ZM431.777 702.908L431.331 702.786L426.055 722.078L426.502 722.2L431.777 702.908ZM432.088 702.993L431.779 702.908L426.5 722.199L426.808 722.284L432.088 702.993ZM436.225 704.077C435.343 703.881 434.049 703.53 432.088 702.993L426.808 722.283C428.571 722.766 430.417 723.274 431.886 723.601L436.225 704.077ZM420.1 662.765C421.668 673.422 422.992 683.998 423.758 692.993C424.549 702.288 424.654 708.991 424.159 712.402L443.952 715.275C444.814 709.334 444.473 700.544 443.686 691.297C442.873 681.751 441.488 670.74 439.887 659.854L420.1 662.765ZM427.813 650.496C427.087 651.39 426.306 651.97 425.504 652.374L434.483 670.245C437.681 668.638 440.738 666.308 443.343 663.099L427.813 650.496ZM429.387 637.815C429.741 637.964 430.784 638.559 430.975 641.25C431.169 643.969 430.218 647.532 427.812 650.496L443.343 663.099C448.846 656.317 451.49 647.776 450.925 639.83C450.357 631.855 446.287 623.223 437.134 619.377L429.387 637.815ZM422.651 636.319C425.614 636.751 428.013 637.326 429.834 637.991L436.687 619.202C433.193 617.927 429.371 617.087 425.537 616.528L422.651 636.319ZM414.171 627.776L414.276 628.319L433.913 624.527L433.808 623.983L414.171 627.776ZM399.499 508.738C400.907 513.77 405.326 536.466 409.033 561.665C410.868 574.144 412.494 587.002 413.468 598.328C414.46 609.863 414.709 619.114 414.056 624.723L433.922 627.036C434.827 619.263 434.397 608.272 433.394 596.614C432.374 584.747 430.689 571.461 428.82 558.754C425.117 533.582 420.548 509.742 418.76 503.35L399.499 508.738ZM389.304 444.164C389.558 466.111 396.201 496.947 399.499 508.738L418.76 503.35C415.667 492.291 409.527 463.369 409.302 443.933L389.304 444.164ZM381.123 390.988C384.318 404.007 389.079 424.74 389.304 444.164L409.302 443.933C409.048 421.974 403.743 399.247 400.546 386.221L381.123 390.988ZM369.894 305.378C371.089 316.026 373.138 334.28 375.244 351.323C377.305 368.012 379.531 384.5 381.123 390.988L400.546 386.221C399.307 381.17 397.226 366.142 395.093 348.871C393.003 331.955 390.966 313.807 389.769 303.147L369.894 305.378ZM369.893 305.364L369.893 305.366L389.77 303.158L389.77 303.155L369.893 305.364ZM369.886 305.302L369.894 305.374L389.769 303.145L389.761 303.073L369.886 305.302ZM369.881 305.257L369.882 305.273L389.764 303.102L389.762 303.086L369.881 305.257ZM369.875 305.21L369.884 305.291L389.759 303.053L389.75 302.972L369.875 305.21ZM369.155 298.825C369.332 300.372 369.576 302.54 369.875 305.206L389.75 302.975C389.452 300.318 389.206 298.125 389.026 296.554L369.155 298.825ZM358.676 295.958C360.982 295.691 364.38 295.844 366.88 296.762C368.042 297.189 368.586 297.625 368.798 297.853C368.903 297.967 369.078 298.152 369.155 298.825L389.026 296.554C387.82 286.003 380.419 280.427 373.773 277.987C367.476 275.676 360.73 275.587 356.377 276.091L358.676 295.958ZM351.055 293.649L351.056 293.65L363.996 278.399L363.995 278.399L351.055 293.649ZM302.839 276.678C312.916 282.363 332.39 291.858 355.835 295.88L359.216 276.168C338.881 272.68 321.658 264.332 312.668 259.259L302.839 276.678ZM317.041 271.675L317.043 271.671L298.464 264.266L298.462 264.27L317.041 271.675ZM299.126 273.032L299.128 273.035L316.376 262.911L316.374 262.908L299.126 273.032ZM288.894 268.397C293.22 271.457 298.047 274.374 303.382 276.965L312.119 258.974C307.827 256.89 303.937 254.54 300.442 252.068L288.894 268.397ZM292.91 239.548C289.207 245.808 286.652 251.791 285.04 257.529L304.295 262.937C305.392 259.033 307.217 254.644 310.124 249.731L292.91 239.548ZM300.62 219.203C299.725 227.866 295.809 235.49 293.433 238.753L309.6 250.526C313.685 244.918 319.198 234.009 320.514 221.258L300.62 219.203ZM324.621 243.443C324.621 236.149 324.129 230.349 323.218 225.768C322.336 221.332 320.912 217.259 318.475 214.11L302.659 226.351C302.399 226.015 303.002 226.651 303.602 229.669C304.174 232.543 304.621 236.942 304.621 243.443H324.621ZM335.941 256.983C333.653 255.475 330.485 252.93 328.012 249.993C325.37 246.857 324.621 244.597 324.621 243.443H304.621C304.621 251.556 308.891 258.337 312.714 262.877C316.705 267.616 321.446 271.383 324.936 273.683L335.941 256.983ZM324.26 241.359C317.828 253.37 318.236 264.24 321.794 270.359L339.084 260.307C339.648 261.276 339.16 260.999 339.256 259.055C339.34 257.365 339.879 254.558 341.891 250.8L324.26 241.359ZM319.593 227.497C321.731 229.994 323.616 232.305 324.63 234.839C325.448 236.882 325.624 238.811 324.26 241.358L341.891 250.8C346.527 242.142 345.802 233.913 343.198 227.406C340.789 221.39 336.731 216.761 334.785 214.489L319.593 227.497ZM319.714 227.635L319.715 227.636L334.663 214.349L334.662 214.348L319.714 227.635ZM319.624 227.533L319.629 227.539L334.747 214.444L334.742 214.439L319.624 227.533ZM319.571 227.471L319.578 227.48L334.788 214.492L334.781 214.484L319.571 227.471ZM318.279 225.936C318.703 226.458 319.18 227.015 319.579 227.481L334.773 214.474C334.324 213.95 334.034 213.61 333.811 213.335L318.279 225.936ZM309.748 197.599C308.973 211.921 314.063 220.739 318.279 225.936L333.811 213.335C332.018 211.125 329.266 207.038 329.718 198.679L309.748 197.599ZM338.613 196.646C336.456 193.499 333.457 190.588 329.373 188.964C325.196 187.304 320.898 187.392 316.953 188.533L322.513 207.745C322.774 207.67 322.806 207.697 322.655 207.694C322.581 207.692 322.477 207.683 322.352 207.658C322.227 207.633 322.101 207.596 321.983 207.549C321.733 207.45 321.618 207.349 321.635 207.363C321.663 207.388 321.838 207.548 322.114 207.951L338.613 196.646ZM318.516 197.226C317.92 197.024 317.835 196.845 318.149 197.124C318.415 197.36 318.801 197.783 319.189 198.389C320.01 199.669 320.391 201.032 320.366 202.063L340.361 202.534C340.496 196.775 338.56 191.547 336.025 187.594C333.643 183.878 329.854 179.957 324.954 178.291L318.516 197.226ZM294.078 146.088C295.557 153.733 298.54 164.606 302.032 173.958C303.772 178.616 305.759 183.229 307.905 186.978C308.974 188.844 310.232 190.765 311.698 192.433C313.032 193.951 315.281 196.126 318.516 197.226L324.954 178.291C326.561 178.837 327.115 179.678 326.722 179.231C326.46 178.933 325.958 178.256 325.263 177.042C323.882 174.629 322.331 171.146 320.769 166.961C317.656 158.626 314.978 148.822 313.714 142.288L294.078 146.088ZM293.313 137.484C293.729 139.041 293.954 141.247 293.898 143.984L313.894 144.392C313.972 140.583 313.708 136.339 312.637 132.326L293.313 137.484ZM335.371 116.834C333.885 117.616 330.076 118.944 323.684 120.524C317.591 122.03 309.917 123.586 301.304 125.046L304.646 144.764C313.591 143.248 321.774 141.598 328.483 139.94C334.894 138.355 340.833 136.56 344.686 134.532L335.371 116.834ZM331.528 124.097C332.552 124.117 333.788 124.326 334.896 124.69C336.129 125.095 336.447 125.437 336.204 125.214C336.045 125.067 335.446 124.48 334.989 123.352C334.474 122.077 334.301 120.475 334.741 118.878C335.144 117.415 335.875 116.628 336.068 116.439C336.25 116.261 336.13 116.434 335.371 116.834L344.686 134.532C348.059 132.757 352.525 129.622 354.022 124.194C355.785 117.799 352.373 112.912 349.744 110.494C347.135 108.094 343.903 106.598 341.139 105.69C338.25 104.74 335.042 104.161 331.912 104.101L331.528 124.097ZM302.1 122.97C309.014 123.288 324.72 123.966 331.528 124.097L331.912 104.101C325.426 103.976 310.007 103.312 303.019 102.991L302.1 122.97ZM302.459 122.987L302.835 122.977L302.284 102.984L301.907 102.995L302.459 122.987ZM292.16 113.16L292.22 113.855L312.146 112.127L312.085 111.433L292.16 113.16ZM286.309 78.7287C290.331 92.2591 291.425 104.669 292.16 113.159L312.085 111.434C311.345 102.887 310.134 88.6855 305.479 73.0294L286.309 78.7287ZM294.76 65.9436L294.745 65.9452L297.043 85.8129L297.057 85.8112L294.76 65.9436ZM267.208 42.8307C276.935 54.0665 282.752 66.7157 286.323 78.7272L305.494 73.0277C301.335 59.0381 294.365 43.643 282.329 29.7403L267.208 42.8307ZM226.988 20.9971C235.234 20.9964 241.282 22.2554 246.986 25.2159C252.886 28.2775 259.172 33.5481 267.208 42.8307L282.329 29.7403C273.51 19.5541 265.286 12.1798 256.199 7.46398C246.917 2.64705 237.501 0.996217 226.987 0.99707L226.988 20.9971ZM218.854 21.332C221.8 21.1125 224.491 20.9969 226.987 20.9971L226.988 0.99707C223.885 0.996819 220.683 1.14025 217.368 1.38729L218.854 21.332ZM278.058 240.479C277.441 244.045 276.741 248.073 276.24 252.27L296.099 254.639C296.527 251.049 297.135 247.53 297.765 243.893L278.058 240.479ZM279.303 232.761C278.986 235.116 278.552 237.629 278.058 240.479L297.765 243.893C298.245 241.123 298.748 238.226 299.124 235.427L279.303 232.761ZM275.574 217.997C277.376 219.883 280.397 224.625 279.303 232.761L299.124 235.427C301.105 220.704 295.625 210.033 290.037 204.183L275.574 217.997ZM276.41 239.872C283.001 234.25 288.168 225.836 292.226 214.446L273.386 207.734C270.016 217.193 266.435 222.093 263.43 224.656L276.41 239.872ZM279.965 233.448L279.915 231.933L259.926 232.596L259.976 234.111L279.965 233.448ZM292.846 246.01C285.24 239.187 280.636 232.55 278.807 229.097L261.134 238.461C264.143 244.14 270.258 252.617 279.493 260.899L292.846 246.01ZM188.023 224.585C186.098 222.069 184.015 218.043 181.948 212.515L163.214 219.518C165.59 225.873 168.496 231.975 172.135 236.734L188.023 224.585ZM189.262 226.248C188.919 225.809 188.57 225.343 188.216 224.847L171.942 236.472C172.455 237.19 172.977 237.891 173.511 238.573L189.262 226.248ZM188.765 243.234L191.024 235.079L171.749 229.741L169.491 237.897L188.765 243.234ZM186.26 233.556L186.258 233.554L171.998 247.577L172 247.579L186.26 233.556ZM183.742 250.602C184.855 249.224 185.812 248.097 186.587 247.23L171.673 233.905C170.634 235.067 169.459 236.455 168.179 238.041L183.742 250.602ZM165.289 232.811C166.782 235.381 167.08 238.361 166.221 242.055L185.7 246.588C187.365 239.434 187.316 230.909 182.58 222.761L165.289 232.811ZM162.848 213.722C161.61 218.974 161.364 226.059 165.289 232.811L182.58 222.761C182.06 221.866 181.804 220.477 182.314 218.311L162.848 213.722ZM172.837 265.676C175.209 262.084 177.459 258.881 179.495 256.122L163.402 244.247C161.159 247.287 158.709 250.775 156.146 254.658L172.837 265.676ZM153.714 240.589C154.822 249.035 154.944 254.689 154.532 259.271L174.451 261.064C175.036 254.57 174.774 247.366 173.545 237.99L153.714 240.589ZM154.101 226.197C153.269 230.831 152.969 235.818 153.748 240.827L173.511 237.753C173.156 235.475 173.237 232.793 173.786 229.732L154.101 226.197ZM181.433 249.621C180.804 238.484 176.512 229.026 172.357 222.559L155.531 233.37C158.412 237.854 161.084 244.004 161.464 250.748L181.433 249.621ZM341.8 480.137C339.031 493.337 336.401 513.271 336.793 534.147C337.182 554.825 340.551 577.614 350.736 595.644L368.15 585.808C360.353 572.005 357.153 553.111 356.79 533.771C356.43 514.63 358.863 496.213 361.374 484.243L341.8 480.137ZM382.98 615.267C374.909 570.884 366.287 519.482 361.511 480.96L341.663 483.42C346.511 522.518 355.214 574.366 363.303 618.846L382.98 615.267ZM350.736 595.644C354.973 603.146 359.523 611.809 364.129 621.389L382.154 612.724C377.363 602.758 372.61 593.704 368.15 585.808L350.736 595.644Z" fill="white" mask="url(#path-43-outside-1)"/>
</svg>
