<svg width="392" height="710" viewBox="0 0 392 710" fill="none" xmlns="http://www.w3.org/2000/svg">
<path d="M32.5077 684.181C36.7506 665.456 35.2184 653.986 33.922 650.591L54.7827 643.449L75.6435 645.854C80.5935 659.572 89.5743 692.469 85.8971 714.305C81.3007 741.601 57.6114 737.783 44.7413 732.55C31.8713 727.317 27.2041 707.587 32.5077 684.181Z" fill="#FFC9BA"/>
<path d="M324.537 648.236C332.771 630.891 333.784 619.364 333.261 615.768L355.178 613.36L375.009 620.267C376.84 634.736 378.411 668.8 370.048 689.304C359.595 714.935 337.314 706.029 325.899 698.109C314.485 690.189 314.244 669.917 324.537 648.236Z" fill="#FFC9BA"/>
<rect x="163.113" y="221.5" width="80.4733" height="69.4418" fill="#5597D6"/>
<path d="M193.176 229.342L202.793 206.926H207.248L215.451 224.746L211.703 239.03L202.793 241.505L193.176 229.342Z" fill="#2365A1"/>
<path d="M331.697 258.765C330.565 248.865 318.497 247.757 312.604 248.44C307.984 278.706 300.116 352.73 305.603 406.7C312.463 474.162 339.263 611.631 342.799 624.077C354.538 618.702 373.984 625.703 380.349 627.117C382.258 613.964 376.106 573.374 371.439 549.26C374.196 525.571 361.114 453.301 358.286 443.189C355.457 433.076 349.8 406.629 349.588 388.314C349.376 369.999 344.921 350.764 342.092 339.238C339.263 327.712 333.111 271.14 331.697 258.765Z" fill="#2365A1"/>
<path d="M379.644 551.663C365.84 546.628 338.252 549.565 326.184 551.663C326.796 565.122 329.946 590.542 337.639 584.545C345.333 578.549 358.099 580.067 363.521 581.575C367.245 582.801 376.094 583.527 381.695 576.625C388.695 567.998 388.059 555.199 379.644 551.663Z" fill="#307CC1"/>
<path d="M372.408 558.853C373.986 560.366 373.213 564.041 371.7 565.619C370.186 567.198 367.679 567.251 366.101 565.737C364.522 564.223 364.469 561.716 365.983 560.138C367.497 558.559 370.829 557.339 372.408 558.853Z" fill="#2365A1"/>
<path d="M154.707 208.201L157.253 199.008L203.995 208.979L189.004 242.568C186.764 242.12 181.324 240.913 177.477 239.669C173.63 229.146 160.694 214.306 154.707 208.201Z" fill="#307CC1"/>
<path d="M219.404 241.015C218.386 232.869 210.494 216.171 206.676 208.84L234.962 197.809L235.952 227.65C231.827 231.327 222.742 239.148 219.404 241.015Z" fill="#307CC1"/>
<path d="M264.715 1067.41L265.071 1071.21L268.41 1069.37C273.431 1066.6 287.692 1061.27 303.318 1062.74C313.915 1063.73 330.149 1061.54 345.666 1055.92C361.159 1050.3 376.436 1041.07 384.607 1027.6L385.056 1026.86L384.951 1026C384.81 1024.85 384.078 1021.54 382.913 1016.27C374.806 979.616 345.729 848.148 349.187 689.617C349.347 682.272 348.106 676.432 345.509 672.058C342.871 667.616 338.953 664.892 334.231 663.637C325.043 661.196 312.903 664.323 300.494 670.154C275.5 681.899 247 705.786 233.311 726.067L232.81 726.809L232.894 727.699L264.715 1067.41Z" fill="#2365A1" stroke="black" stroke-width="5"/>
<path d="M97.9177 972.419C86.2074 921.674 81.1584 768.643 80.0977 698.47C143.387 693.332 268.34 687.708 261.834 706.32C253.702 729.585 255.329 841.455 258.581 853.336C261.834 865.216 267.209 915.494 266.148 938.759C265.087 962.024 272.229 1015.41 272.936 1038.89C273.644 1062.37 276.826 1072.98 261.198 1077.93C194.726 1096.03 134.406 1079.41 115.243 1075.1C99.9119 1071.65 97.3049 1054.66 97.9177 1046.6C100.204 1031.63 103.405 995.84 97.9177 972.419Z" fill="#3B89D2"/>
<path d="M199.891 288.251L202.861 239.882L211.346 237.973L235.955 270.148L232.349 295.322L222.236 316.254L199.891 288.251Z" fill="#3B89D2"/>
<path d="M56.9751 278.136C61.1614 267.896 65.838 263.451 67.653 262.508H77.9773L87.3823 280.964L102.515 311.796L114.325 362.074L95.2317 487.734C89.1031 536.951 76.8459 638.229 76.8459 649.6C55.6315 640.322 38.7307 651.58 32.9321 658.368C32.5549 654.031 30.8389 641.609 26.9921 626.618C19.0014 593.594 23.7392 575.774 24.8707 554.347C26.0021 532.921 25.3657 500.887 28.0528 409.382C30.74 317.877 51.7422 290.935 56.9751 278.136Z" fill="#2D76B9"/>
<path d="M94.2455 253.532C105.39 250.194 134.624 232.341 147.847 223.832C174.672 256.526 229.424 323.724 233.836 330.965C239.352 340.016 245.999 369.646 250.242 403.659C254.485 437.673 256.606 610.853 253.212 630.865C249.818 650.878 254.909 701.509 261.273 715.582C211.207 723.106 119.585 707.308 80.0318 698.469C81.7761 691.821 84.2181 677.608 80.0318 673.931C68.2932 658.868 77.4154 657.596 75.789 647.766C69.9196 607.812 78.4054 580.658 83.6383 557.039C88.8712 533.421 87.5983 496.861 91.7705 447.432C95.9426 398.002 109.378 367.524 111.288 362.645C107.271 357.327 104.287 340.723 103.297 333.086C102.354 326.015 98.7288 309.92 91.7705 302.113C83.0726 292.354 81.3754 283.515 79.6075 273.757C78.1932 265.95 70.5325 263.197 66.8789 262.796C71.3575 261.099 83.1008 256.87 94.2455 253.532Z" fill="#307CC1"/>
<path d="M130.512 295.246L153.635 266.465L203.136 288.245C213.979 301.822 235.862 330.674 236.654 337.462C218.155 335.426 158.185 308.469 130.512 295.246Z" fill="#5497D6"/>
<path d="M147.84 221.499C149.028 207.3 140.934 195.453 136.738 191.304L145.507 174.898L152.225 179.071C149.915 182.253 146.256 190.272 150.103 196.891C154.912 205.164 151.8 214.499 147.84 221.499Z" fill="#623B4E"/>
<path d="M274.629 210.749C274.629 193.354 271.258 188.875 268.548 188.616L264.022 185.08L257.445 157.289L279.65 166.058C277.599 178.998 281.7 185.928 284.741 189.676C287.782 193.424 296.833 202.122 290.964 213.083C286.269 221.852 287.452 228.098 288.63 230.125C283.515 226.754 274.629 218.952 274.629 210.749Z" fill="#623B4E"/>
<path d="M244.223 180.201L254.052 111.042C254.052 108.12 255.523 103.674 261.406 109.275C267.29 114.875 264.942 130.23 263.033 137.207C261.689 142.935 260.713 157.657 267.558 170.726C276.115 187.061 267.771 205.305 263.033 211.811C250.233 233.449 256.315 248.3 260.699 258.977C242.738 239.46 250.021 218.246 252.143 202.476C253.84 189.861 247.57 182.37 244.223 180.201Z" fill="#452A37"/>
<path d="M280.931 161.458C274.709 159.342 266.364 131.522 264.667 120.16C262.71 128.74 259.109 147.668 260.353 154.74C261.909 163.579 273.718 172.701 278.103 171.004C282.487 169.307 285.952 170.509 288.568 174.328C288.71 168.317 284.467 162.66 280.931 161.458Z" fill="#543343"/>
<path d="M312.613 248.435C293.237 245.111 276.997 237.215 268.558 232.453L240.838 301.329L221.957 364.336V695.775C234.568 702.423 260.086 715.689 261.274 715.576C262.759 715.434 350.516 694.856 364.447 685.593C364.093 622.586 335.242 555.195 314.31 518.14C297.565 488.497 303.185 439.553 308.087 418.786C309.879 411.809 313.179 389.482 312.047 355.992C310.633 314.129 318.27 283.863 318.624 268.8C318.907 256.751 314.735 250.202 312.613 248.435Z" fill="#3B89D2"/>
<path d="M155.547 199.434C143.78 184.046 137.821 139.845 136.312 119.668C175.677 100.834 258.568 73.2122 256.669 113.374C253.699 176.168 243.233 197.878 230.292 203.959C218.233 209.627 192.106 212.233 180.438 211.879C168.771 211.526 161.911 208.344 155.547 199.434Z" fill="#FFC9BA"/>
<path d="M121.043 264.567C132.301 237.016 148.174 215.514 154.703 208.207C169.27 213.652 193.101 277.649 205.264 290.872C198.97 291.933 164.037 261.667 121.043 264.567Z" fill="#2365A1"/>
<path d="M233.912 112.233C228.459 110.995 222.545 113.376 220.326 114.654C219.384 115.197 217.008 117.502 217.681 119.856C219.084 124.765 225.325 123.175 231.872 120.753C238.418 118.332 245.457 121.695 247.295 121.964C249.134 122.233 256.756 122.166 255.276 117.502C253.797 112.838 247.901 112.906 245.457 113.376C243.013 113.847 240.727 113.78 233.912 112.233Z" fill="#462937"/>
<path d="M160.277 115.894C153.69 117.093 151.863 118.402 152.212 120.315C153.075 125.056 158.816 125.199 164.145 123.707C167.962 122.638 172.468 122.714 174.29 123.427C175.747 123.998 179.484 124.616 181.437 124.261C182.853 124.003 184.664 122.474 183.819 120.647C182.974 118.821 179.165 118.815 177.124 118.777C170.446 118.656 170.942 113.952 160.277 115.894Z" fill="#462937"/>
<path d="M117.574 144.911C123.57 131.673 122.477 123.744 121.18 121.434H129.171C128.794 143.614 127.884 188.4 127.261 190.098C126.484 192.219 124.221 205.584 122.311 212.797C122.311 207.069 117.574 192.219 114.462 182.672C111.351 173.126 110.078 161.458 117.574 144.911Z" fill="#543343"/>
<path d="M125.566 150.642C128.791 134.972 126.91 122.851 125.566 118.75L145.366 120.659C141.336 134.59 144.447 149.44 146.356 153.824C148.266 158.209 152.65 169.665 148.266 178.08C143.881 186.495 139.497 197.526 140.982 207.073C143.457 225.953 140.982 232.247 137.022 245.258C138.012 236.348 134.547 223.125 127.617 202.476C120.687 181.827 121.535 170.23 125.566 150.642Z" fill="#452A37"/>
<path d="M96.2213 111.463C102.3 108.069 109 106.634 119.413 104.18C173.227 91.4945 220.962 96.4717 263.956 95.2695C270.108 95.5524 283.884 96.1464 289.767 96.2595C297.121 96.401 306.526 101.563 297.121 106.513C287.716 111.463 247.406 118.605 213.958 120.373C167.452 122.831 106.758 124.828 96.2213 121.929C85.6848 119.03 92.6529 113.456 96.2213 111.463Z" fill="#307CC1"/>
<path d="M189.203 5.32093C167.916 6.90704 159.927 16.3524 142.956 34.4554C127.002 51.473 120.296 86.2793 118.609 104.392C121.35 104.345 130.057 104.449 142.956 105.241C159.078 106.231 190.971 105.665 212.609 104.251C234.248 102.836 257.443 97.9571 263.736 96.6135C262.534 83.2485 260.766 52.134 239.34 27.3839C222.198 7.58379 210.535 3.73141 189.203 5.32093Z" fill="#2365A1"/>
<path fill-rule="evenodd" clip-rule="evenodd" d="M258.071 62.43C224.318 66.3368 160.643 67.0966 126.078 66.9485C129.935 54.5693 135.417 42.5165 142.974 34.4554C143.67 33.7128 144.351 32.9848 145.019 32.2714C160.623 15.5908 168.808 6.84198 189.221 5.32093C210.554 3.73141 222.217 7.58379 239.358 27.3839C248.99 38.51 254.649 50.9223 258.071 62.43Z" fill="#307CC1"/>
<path d="M217.496 129.211C217.496 129.211 219.292 187.833 209.788 175.67C200.284 163.508 217.496 129.211 217.496 129.211Z" fill="#F0BBAC"/>
<path d="M234.68 201.34L236.023 239.101L267.491 271.913L282.129 258.76C278.9 252.207 271.663 237.772 268.552 232.454C248.865 222.894 237.768 207.728 234.68 201.34Z" fill="#307CC1"/>
<path d="M5 605.759L19.2136 592.182C36.9206 586.072 66.4274 586.808 78.9675 587.939C78.4725 592.559 77.2279 603.029 76.2096 607.951C61.6707 604.896 31.353 613.797 18.0115 618.629L5 605.759Z" fill="#307CC1"/>
<circle cx="23.3858" cy="601.94" r="3.96002" fill="#2365A1"/>
<path fill-rule="evenodd" clip-rule="evenodd" d="M117.97 242C108.42 247.413 99.3581 252.085 94.1885 253.633C93.7852 253.754 93.3811 253.876 92.9766 253.999C94.9623 257.459 99.5122 268.558 102.886 287.363C107.2 311.406 121.13 367.2 125.373 379.575C129.616 391.95 138.173 441.238 138.809 446.824C138.945 448.018 139.659 451.364 140.69 456.197C144.484 473.987 152.574 511.917 151.962 536.773C151.631 550.215 148.449 572.034 145.21 594.239C140.832 624.251 136.351 654.971 138.668 666.676C141.928 683.152 144.819 701.016 145.617 710.459C151.455 711.308 157.41 712.116 163.418 712.865V673.818C163.418 647.654 171.55 606.215 175.651 586.556C179.753 566.898 170.277 467.756 164.478 431.055C158.68 394.354 145.951 335.166 138.738 309.497C133.728 291.665 123.947 260.634 117.97 242Z" fill="#5497D6"/>
<path d="M220.816 317.316C232.923 291.972 235.996 254.616 236.02 239.105L287.43 286.696L234.394 336.338C231.259 331.789 224.154 321.615 220.816 317.316Z" fill="#5497D6"/>
<path fill-rule="evenodd" clip-rule="evenodd" d="M327.966 544.775C327.703 544.729 327.438 544.683 327.171 544.637C295.809 539.295 255.681 526.924 222.223 515.246V549.022L343.776 582.588C338.805 568.971 333.37 556.209 327.966 544.775Z" fill="#2365A1"/>
<path d="M167.777 493.891L222.228 515.246V549.048L172.586 535.259L167.777 493.891Z" fill="#2365A1"/>
<path d="M188.438 66.7707V52.3449L194.448 45.2734H204.419L210.218 52.3449L209.581 66.7707L202.368 74.0543H193.175L188.438 66.7707Z" fill="#3B89D2"/>
<path d="M226.701 128.786C230.861 125.586 240.993 120.842 248.24 127.469C244.622 131.059 237.133 134.575 226.701 128.786Z" fill="#FFF3F1"/>
<mask id="mask0" mask-type="alpha" maskUnits="userSpaceOnUse" x="233" y="123" width="10" height="10">
<path d="M242.356 129.563C241.717 132.086 238.682 133.374 236.159 132.735C233.636 132.096 232.776 129.821 233.416 127.298C234.055 124.775 235.951 122.959 238.474 123.598C240.997 124.238 242.996 127.04 242.356 129.563Z" fill="#2C1E25"/>
</mask>
<g mask="url(#mask0)">
<path d="M226.606 128.795C230.769 125.586 240.905 120.828 248.15 127.465C244.529 131.064 237.037 134.591 226.606 128.795Z" fill="#2C1E25"/>
</g>
<path d="M160.509 131.577C162.75 128.633 169.719 123.929 179.664 128.659C177.175 133.331 167.915 138.377 160.509 131.577Z" fill="#FFF3F1"/>
<mask id="mask1" mask-type="alpha" maskUnits="userSpaceOnUse" x="165" y="125" width="9" height="11">
<path d="M173.755 130.5C173.942 133.205 172.764 135.49 170.059 135.677C167.354 135.864 165.764 133.891 165.577 131.186C165.39 128.481 166.677 126.068 169.382 125.881C172.087 125.694 173.568 127.795 173.755 130.5Z" fill="#2C1E25"/>
</mask>
<g mask="url(#mask1)">
<path d="M160.509 131.589C162.75 128.645 169.719 123.941 179.664 128.671C177.175 133.343 167.915 138.388 160.509 131.589Z" fill="#2C1E25"/>
</g>
<path d="M180.66 185.532C183.789 186.511 191.021 188.586 195.909 187.788C196.56 187.689 197.201 187.641 197.877 187.653C199.537 187.731 202.927 187.739 205.065 187.153C205.778 186.957 206.184 187.992 205.626 188.589C201.383 192.657 189.336 194.817 185.822 193.717C182.859 192.821 180.821 188.985 179.862 186.729C179.568 186.089 180.055 185.372 180.66 185.532Z" fill="#2C1E25"/>
<mask id="path-46-outside-1" maskUnits="userSpaceOnUse" x="0" y="0" width="392" height="1217" fill="black">
<rect fill="white" width="392" height="1217"/>
<path fill-rule="evenodd" clip-rule="evenodd" d="M189.203 5.32093C168.789 6.84198 160.605 15.5908 145 32.2714C144.333 32.9848 143.652 33.7128 142.955 34.4554C127.008 51.4655 120.302 86.2486 118.612 104.368L117.408 104.651C108.122 106.831 101.9 108.292 96.2213 111.463C92.6529 113.456 85.6848 119.03 96.2213 121.929C99.8054 122.915 109.193 123.335 121.852 123.363C122.636 126.956 122.428 134.194 117.574 144.91C110.078 161.458 111.351 173.126 114.463 182.672C117.574 192.219 122.312 207.069 122.312 212.797C123.333 208.938 124.456 203.32 125.398 198.603L125.398 198.6C125.534 197.922 125.666 197.262 125.793 196.629C126.329 198.502 126.935 200.445 127.617 202.477C131.597 214.337 134.435 223.747 135.941 231.298C121.555 240.119 102.698 251 94.2455 253.531C83.1009 256.869 71.3575 261.098 66.8789 262.795C66.961 262.804 67.0451 262.814 67.1311 262.826C65.0474 264.248 60.8064 268.767 56.976 278.136C56.2198 279.985 55.1344 282.13 53.8226 284.722C46.0559 300.069 30.3526 331.1 28.0537 409.382C26.5341 461.129 26.0773 493.857 25.7627 516.403C25.521 533.726 25.3631 545.038 24.8715 554.347C24.6249 559.017 24.2069 563.516 23.7868 568.039C23.1022 575.408 22.4118 582.839 22.4475 591.176C21.3328 591.488 20.2529 591.823 19.2136 592.182L5 605.759L18.0115 618.629C19.9516 617.927 22.2508 617.138 24.8082 616.312C25.3987 619.582 26.1198 623.009 26.993 626.617C30.8398 641.609 32.5558 654.031 32.9329 658.368C33.5207 657.68 34.2226 656.946 35.0315 656.192C35.6108 661.948 35.4119 671.365 32.5082 684.18C27.2046 707.586 31.8718 727.316 44.7418 732.549C54.8798 736.671 71.7311 739.915 80.6753 727.765C81.0549 743.765 81.578 761.764 82.2609 780.638C74.7775 823.877 64.5137 893.038 61.7119 948.937C60.8968 965.199 60.011 978.66 59.275 989.846C56.1156 1037.86 55.7145 1043.96 75.5012 1049.64C85.4184 1052.48 92.749 1050.77 97.8643 1047.52C97.5145 1055.89 100.477 1071.77 115.243 1075.1C116.547 1075.39 118.04 1075.74 119.713 1076.13L119.735 1076.14C123.224 1076.96 127.491 1077.96 132.437 1079.01C135.262 1094.24 136.249 1123.89 121.182 1143.83C100.816 1170.77 88.9364 1188.31 97.2807 1204.99C105.625 1221.68 145.72 1203.08 149.256 1191.63C151.215 1185.28 154.174 1177 159.371 1167.18C160.657 1170.87 162.033 1175.38 162.406 1178.48C167.328 1178.48 172.66 1175.98 174.711 1174.73C174.487 1167.74 174.68 1152.51 176.839 1140.8L176.905 1140.71C179.72 1137.29 182.633 1130.18 176.905 1101.89C176.011 1097.48 176.082 1093.55 176.154 1089.6C176.179 1088.21 176.204 1086.82 176.188 1085.4C193.489 1086.7 213.153 1086.63 233.981 1083.58C233.715 1090.96 232.265 1100.55 228.18 1110.38C221.999 1125.24 220.652 1133.13 226.697 1141C228.562 1149.9 231.968 1163.78 235.178 1169.43C238.912 1175.99 250.311 1175.23 255.544 1174.02L254.779 1163.49C266.373 1172.19 277.095 1180.85 281.64 1187.17C288.499 1196.72 310.067 1206.26 324.139 1196.72C335.397 1189.08 325.2 1172.09 318.694 1164.54C304.881 1154.6 276.633 1127.84 274.144 1100.4C272.783 1085.4 272.6 1074.37 272.884 1066.85C273.069 1066.09 273.217 1065.3 273.332 1064.46C280.522 1061.8 291.64 1059.13 303.552 1060.25C323.847 1062.16 366.983 1051.83 382.469 1026.31C382.339 1025.24 381.64 1022.09 380.523 1017.05C372.825 982.33 345.246 857.942 346.441 706.215C355.378 706.887 364.425 703.094 370.049 689.305C377.467 671.116 377.068 642.258 375.605 625.872L376.271 626.054L376.272 626.054L376.273 626.055C377.92 626.506 379.31 626.886 380.349 627.117C381.551 618.838 379.559 599.688 376.754 580.619C378.524 579.729 380.222 578.441 381.695 576.626C388.696 567.999 388.059 555.199 379.644 551.664C377.292 550.806 374.54 550.179 371.532 549.741L371.439 549.26C374.197 525.571 361.115 453.3 358.286 443.188C355.458 433.076 349.801 406.629 349.589 388.313C349.376 369.998 344.921 350.764 342.093 339.238C339.587 329.026 334.472 283.458 332.355 264.591L332.354 264.589L332.354 264.583L332.353 264.581C332.081 262.157 331.859 260.174 331.698 258.764C330.567 248.872 318.515 247.758 312.618 248.438L312.613 248.435C293.237 245.111 276.997 237.215 268.558 232.453L268.555 232.46L268.552 232.454C264.292 230.385 260.434 228.054 256.972 225.606C258.171 221.341 260.109 216.753 263.033 211.811C265.892 207.885 270.065 199.683 271.044 190.206C272.97 192.699 274.629 198.545 274.629 210.749C274.629 218.952 283.515 226.754 288.63 230.125C287.452 228.098 286.269 221.852 290.964 213.083C296.275 203.165 289.369 195.099 285.754 190.878C285.374 190.434 285.03 190.033 284.741 189.676C282.082 186.398 278.611 180.686 279.154 170.647C283.045 169.52 286.165 170.82 288.568 174.328C288.71 168.317 284.467 162.66 280.931 161.458C275.161 159.496 267.566 135.43 265.139 122.882C265.197 119.989 264.98 117.138 264.322 114.676C279.865 112.042 292.395 109.001 297.121 106.513C306.526 101.563 297.121 96.401 289.767 96.2595C283.884 96.1464 270.108 95.5524 263.956 95.2695L263.618 95.2788L263.565 94.6646C262.912 87.1251 261.892 75.3485 258.053 62.4322L258.072 62.43C254.65 50.9223 248.991 38.51 239.359 27.3839C224.44 10.1502 213.67 4.99797 197.063 5C194.584 4.9997 191.975 5.11436 189.203 5.32093ZM249.449 219.605C249.86 216.162 250.438 212.825 250.99 209.639C251.421 207.152 251.836 204.757 252.143 202.476C253.503 192.362 249.743 185.542 246.473 182.117C243.184 191.346 239.311 197.238 235.063 200.859L235.107 202.182C237.246 206.222 241.991 212.916 249.449 219.605ZM148.908 186.465C150.874 191.728 153.083 196.212 155.547 199.434C155.931 199.971 156.317 200.488 156.705 200.985L154.707 208.201L154.719 208.213L154.703 208.207C153.9 209.106 152.956 210.219 151.896 211.532C153.014 206.729 152.862 201.635 150.104 196.89C148.136 193.503 148.132 189.75 148.908 186.465ZM147.904 216.719C146.01 219.286 143.929 222.248 141.745 225.557C142.186 220.655 142.016 214.963 140.982 207.073C140.481 203.848 140.649 200.453 141.261 197.047C144.375 201.895 147.458 208.804 147.904 216.719ZM314.31 518.14C298.397 489.969 302.682 444.367 307.354 422.083C311.613 456.429 319.278 502.11 326.429 541.431C322.272 532.786 318.158 524.951 314.31 518.14Z"/>
</mask>
<path d="M145 32.2714L141.349 28.8555V28.8555L145 32.2714ZM189.203 5.32093L189.574 10.3071L189.203 5.32093ZM142.955 34.4554L146.603 37.8751V37.8751L142.955 34.4554ZM118.612 104.368L119.755 109.236C121.846 108.744 123.39 106.972 123.59 104.833L118.612 104.368ZM117.408 104.651L118.551 109.519L118.551 109.518L117.408 104.651ZM96.2213 111.463L93.7836 107.098H93.7835L96.2213 111.463ZM96.2213 121.929L94.8948 126.75H94.8948L96.2213 121.929ZM121.852 123.363L126.737 122.296C126.236 120.004 124.209 118.368 121.863 118.363L121.852 123.363ZM117.574 144.91L122.129 146.974L117.574 144.91ZM114.463 182.672L119.216 181.123L114.463 182.672ZM122.312 212.797H117.312C117.312 215.309 119.176 217.431 121.667 217.755C124.158 218.079 126.503 216.504 127.145 214.076L122.312 212.797ZM125.398 198.603L130.301 199.583L130.302 199.577L125.398 198.603ZM125.398 198.6L120.495 197.621L120.494 197.627L125.398 198.6ZM125.793 196.629L130.6 195.254C129.966 193.036 127.897 191.54 125.592 191.633C123.288 191.726 121.345 193.383 120.891 195.644L125.793 196.629ZM127.617 202.477L122.877 204.068V204.068L127.617 202.477ZM135.941 231.298L138.555 235.56C140.341 234.465 141.255 232.373 140.845 230.319L135.941 231.298ZM94.2455 253.531L92.811 248.742H92.811L94.2455 253.531ZM66.8789 262.795L65.1072 258.119C62.9456 258.938 61.6273 261.133 61.9189 263.426C62.2105 265.719 64.0359 267.513 66.3337 267.765L66.8789 262.795ZM67.1311 262.826L69.9505 266.955C71.6616 265.786 72.4749 263.684 71.9953 261.668C71.5158 259.653 69.8428 258.142 67.7889 257.869L67.1311 262.826ZM56.976 278.136L52.3478 276.243V276.244L56.976 278.136ZM53.8226 284.722L49.3613 282.464L53.8226 284.722ZM28.0537 409.382L23.0558 409.235L28.0537 409.382ZM25.7627 516.403L30.7622 516.473L25.7627 516.403ZM24.8715 554.347L29.8646 554.611L24.8715 554.347ZM23.7868 568.039L18.8082 567.576H18.8082L23.7868 568.039ZM22.4475 591.176L23.7981 595.99C25.9637 595.382 27.4571 593.403 27.4474 591.154L22.4475 591.176ZM19.2136 592.182L17.5828 587.455C16.9023 587.69 16.2805 588.069 15.76 588.566L19.2136 592.182ZM5 605.759L1.54634 602.144C0.569655 603.077 0.0119624 604.365 0.000189781 605.716C-0.0115824 607.066 0.523567 608.364 1.48384 609.314L5 605.759ZM18.0115 618.629L14.4953 622.184C15.8678 623.542 17.8991 623.988 19.7142 623.33L18.0115 618.629ZM24.8082 616.312L29.7286 615.424C29.4723 614.004 28.6157 612.765 27.3787 612.024C26.1417 611.282 24.6448 611.111 23.2723 611.554L24.8082 616.312ZM26.993 626.617L22.1332 627.793C22.1386 627.816 22.1442 627.838 22.1499 627.86L26.993 626.617ZM32.9329 658.368L27.9517 658.802C28.1263 660.809 29.4885 662.515 31.4072 663.13C33.326 663.745 35.4262 663.148 36.7348 661.616L32.9329 658.368ZM35.0315 656.192L40.0064 655.691C39.8161 653.801 38.5712 652.182 36.7934 651.513C35.0156 650.843 33.012 651.239 31.6223 652.535L35.0315 656.192ZM32.5082 684.18L27.6318 683.075L32.5082 684.18ZM44.7418 732.549L42.8586 737.18H42.8586L44.7418 732.549ZM80.6753 727.765L85.6739 727.647C85.6232 725.509 84.2184 723.64 82.1789 722.997C80.1393 722.354 77.9166 723.079 76.6487 724.801L80.6753 727.765ZM82.2609 780.638L87.1877 781.49C87.2467 781.149 87.2702 780.803 87.2576 780.457L82.2609 780.638ZM61.7119 948.937L56.7181 948.687L61.7119 948.937ZM59.275 989.846L64.2642 990.174L59.275 989.846ZM75.5012 1049.64L76.8804 1044.83H76.8803L75.5012 1049.64ZM97.8643 1047.52L102.86 1047.73C102.938 1045.87 101.976 1044.12 100.363 1043.19C98.7504 1042.26 96.7545 1042.3 95.1831 1043.3L97.8643 1047.52ZM115.243 1075.1L114.145 1079.97H114.146L115.243 1075.1ZM119.713 1076.13L118.571 1081L118.575 1081L119.713 1076.13ZM119.735 1076.14L120.877 1071.27L120.873 1071.27L119.735 1076.14ZM132.437 1079.01L137.353 1078.09C136.985 1076.11 135.454 1074.54 133.475 1074.12L132.437 1079.01ZM121.182 1143.83L117.194 1140.81L121.182 1143.83ZM97.2807 1204.99L92.8086 1207.23H92.8086L97.2807 1204.99ZM149.256 1191.63L144.478 1190.15L149.256 1191.63ZM159.371 1167.18L164.092 1165.54C163.438 1163.66 161.732 1162.35 159.749 1162.2C157.766 1162.05 155.882 1163.08 154.952 1164.84L159.371 1167.18ZM162.406 1178.48L157.442 1179.08C157.745 1181.59 159.876 1183.48 162.406 1183.48V1178.48ZM174.711 1174.73L177.312 1179C178.85 1178.06 179.766 1176.37 179.708 1174.57L174.711 1174.73ZM176.839 1140.8L172.93 1137.68C172.417 1138.32 172.071 1139.08 171.922 1139.89L176.839 1140.8ZM176.905 1140.71L173.043 1137.54C173.027 1137.56 173.012 1137.58 172.996 1137.6L176.905 1140.71ZM176.905 1101.89L181.806 1100.9V1100.9L176.905 1101.89ZM176.154 1089.6L181.153 1089.69L176.154 1089.6ZM176.188 1085.4L176.561 1080.41C175.164 1080.31 173.787 1080.8 172.766 1081.75C171.744 1082.71 171.172 1084.06 171.188 1085.46L176.188 1085.4ZM233.981 1083.58L238.977 1083.76C239.031 1082.28 238.423 1080.85 237.318 1079.86C236.213 1078.87 234.725 1078.42 233.257 1078.63L233.981 1083.58ZM228.18 1110.38L232.796 1112.3L228.18 1110.38ZM226.697 1141L231.59 1139.98C231.436 1139.24 231.119 1138.55 230.663 1137.96L226.697 1141ZM235.178 1169.43L239.524 1166.95L235.178 1169.43ZM255.544 1174.02L256.663 1178.9C259.067 1178.34 260.709 1176.12 260.531 1173.66L255.544 1174.02ZM254.779 1163.49L257.78 1159.5C256.213 1158.32 254.103 1158.17 252.383 1159.11C250.663 1160.05 249.65 1161.9 249.792 1163.86L254.779 1163.49ZM281.64 1187.17L277.579 1190.09H277.579L281.64 1187.17ZM324.139 1196.72L326.946 1200.86L324.139 1196.72ZM318.694 1164.54L322.481 1161.28C322.224 1160.98 321.934 1160.71 321.616 1160.49L318.694 1164.54ZM274.144 1100.4L269.164 1100.86L274.144 1100.4ZM272.884 1066.85L268.027 1065.66C267.947 1065.99 267.9 1066.33 267.887 1066.66L272.884 1066.85ZM273.332 1064.46L271.594 1059.77C269.865 1060.41 268.629 1061.95 268.378 1063.78L273.332 1064.46ZM303.552 1060.25L303.083 1065.23H303.083L303.552 1060.25ZM382.469 1026.31L386.744 1028.9C387.326 1027.94 387.568 1026.81 387.432 1025.7L382.469 1026.31ZM380.523 1017.05L375.641 1018.13L380.523 1017.05ZM346.441 706.215L346.816 701.229C345.435 701.125 344.074 701.599 343.055 702.536C342.036 703.474 341.452 704.791 341.441 706.176L346.441 706.215ZM370.049 689.305L374.678 691.193L370.049 689.305ZM375.605 625.872L376.925 621.049C375.345 620.617 373.654 620.986 372.398 622.036C371.142 623.087 370.48 624.686 370.625 626.317L375.605 625.872ZM376.271 626.054L374.952 630.877C375.03 630.898 375.108 630.918 375.187 630.935L376.271 626.054ZM376.272 626.054L377.853 621.311C377.69 621.257 377.525 621.211 377.357 621.173L376.272 626.054ZM376.273 626.055L374.692 630.798C374.778 630.827 374.865 630.853 374.953 630.877L376.273 626.055ZM380.349 627.117L379.265 631.998C380.622 632.299 382.044 632.022 383.189 631.232C384.334 630.442 385.098 629.211 385.298 627.835L380.349 627.117ZM376.754 580.619L374.508 576.151C372.582 577.119 371.493 579.213 371.807 581.347L376.754 580.619ZM381.695 576.626L377.812 573.475L381.695 576.626ZM379.644 551.664L381.581 547.054C381.507 547.023 381.433 546.994 381.358 546.966L379.644 551.664ZM371.532 549.741L366.623 550.689C367.026 552.777 368.706 554.381 370.811 554.688L371.532 549.741ZM371.439 549.26L366.473 548.682C366.414 549.19 366.433 549.705 366.53 550.208L371.439 549.26ZM349.589 388.313L344.589 388.371L349.589 388.313ZM342.093 339.238L346.949 338.046L342.093 339.238ZM332.355 264.591L337.323 264.033C337.32 264.003 337.316 263.974 337.313 263.944L332.355 264.591ZM332.354 264.589L327.387 265.159C327.39 265.184 327.393 265.21 327.396 265.235L332.354 264.589ZM332.354 264.583L327.374 265.036C327.378 265.075 327.382 265.114 327.386 265.153L332.354 264.583ZM332.353 264.581L337.333 264.128C337.33 264.093 337.326 264.058 337.322 264.023L332.353 264.581ZM331.698 258.764L326.73 259.332V259.332L331.698 258.764ZM312.618 248.438L309.417 252.28C310.468 253.155 311.832 253.562 313.191 253.406L312.618 248.438ZM312.613 248.435L315.814 244.594C315.138 244.03 314.326 243.655 313.459 243.507L312.613 248.435ZM268.558 232.453L271.015 228.099C269.761 227.391 268.263 227.258 266.904 227.735C265.545 228.211 264.458 229.25 263.92 230.585L268.558 232.453ZM268.555 232.46L264.239 234.984C265.202 236.63 267.018 237.586 268.921 237.447C270.823 237.307 272.481 236.097 273.193 234.328L268.555 232.46ZM268.552 232.454L272.868 229.931C272.369 229.076 271.627 228.389 270.736 227.957L268.552 232.454ZM256.972 225.606L252.159 224.253C251.586 226.29 252.358 228.467 254.085 229.688L256.972 225.606ZM263.033 211.811L258.991 208.867C258.897 208.996 258.81 209.128 258.729 209.265L263.033 211.811ZM271.044 190.206L275 187.149C273.749 185.531 271.64 184.837 269.674 185.398C267.707 185.958 266.28 187.659 266.07 189.693L271.044 190.206ZM288.63 230.125L285.879 234.3C287.817 235.577 290.379 235.353 292.066 233.758C293.752 232.164 294.12 229.618 292.953 227.612L288.63 230.125ZM290.964 213.083L295.372 215.443L290.964 213.083ZM285.754 190.878L289.552 187.626L285.754 190.878ZM284.741 189.676L288.624 186.526V186.526L284.741 189.676ZM279.154 170.647L277.763 165.845C275.721 166.437 274.277 168.254 274.162 170.377L279.154 170.647ZM288.568 174.328L284.444 177.154C285.67 178.944 287.911 179.738 289.991 179.121C292.072 178.503 293.516 176.614 293.567 174.445L288.568 174.328ZM280.931 161.458L279.322 166.191L280.931 161.458ZM265.139 122.882L260.14 122.782C260.133 123.134 260.163 123.486 260.23 123.832L265.139 122.882ZM264.322 114.676L263.487 109.746C262.1 109.982 260.876 110.79 260.115 111.974C259.355 113.158 259.129 114.607 259.492 115.967L264.322 114.676ZM297.121 106.513L294.793 102.089L297.121 106.513ZM289.767 96.2595L289.671 101.259L289.767 96.2595ZM263.956 95.2695L264.186 90.2748C264.063 90.2692 263.941 90.2681 263.818 90.2714L263.956 95.2695ZM263.618 95.2788L258.637 95.7107C258.866 98.3479 261.11 100.35 263.756 100.277L263.618 95.2788ZM263.565 94.6646L258.584 95.0961L258.584 95.0965L263.565 94.6646ZM258.053 62.4322L257.478 57.4653C256.011 57.635 254.693 58.4451 253.88 59.6781C253.066 60.9111 252.839 62.4408 253.26 63.8569L258.053 62.4322ZM258.072 62.43L258.646 67.3969C260.114 67.2272 261.431 66.4172 262.245 65.1841C263.058 63.9511 263.285 62.4213 262.864 61.0052L258.072 62.43ZM239.359 27.3839L235.579 30.6565V30.6565L239.359 27.3839ZM197.063 5L197.062 10H197.064L197.063 5ZM250.99 209.639L246.064 208.785L250.99 209.639ZM249.449 219.605L246.111 223.327C247.5 224.573 249.467 224.942 251.213 224.284C252.959 223.626 254.193 222.05 254.414 220.198L249.449 219.605ZM252.143 202.476L247.187 201.81L247.187 201.81L252.143 202.476ZM246.473 182.117L250.089 178.664C248.891 177.409 247.128 176.865 245.431 177.227C243.734 177.589 242.346 178.804 241.763 180.439L246.473 182.117ZM235.063 200.859L231.819 197.054C230.661 198.042 230.015 199.504 230.066 201.025L235.063 200.859ZM235.107 202.182L230.109 202.347C230.135 203.107 230.332 203.85 230.688 204.521L235.107 202.182ZM155.547 199.434L159.616 196.527C159.584 196.483 159.552 196.439 159.519 196.396L155.547 199.434ZM148.908 186.465L153.591 184.715C152.82 182.652 150.791 181.337 148.593 181.475C146.396 181.614 144.548 183.173 144.042 185.316L148.908 186.465ZM156.705 200.985L161.524 202.319C161.947 200.791 161.62 199.152 160.643 197.903L156.705 200.985ZM154.707 208.201L149.888 206.866C149.412 208.585 149.888 210.427 151.136 211.701L154.707 208.201ZM154.719 208.213L152.961 212.894C155.155 213.718 157.629 212.907 158.909 210.942C160.188 208.978 159.931 206.388 158.29 204.713L154.719 208.213ZM154.703 208.207L156.462 203.526C154.53 202.801 152.35 203.336 150.975 204.876L154.703 208.207ZM151.896 211.532L147.026 210.398C146.497 212.669 147.608 215.003 149.703 216.026C151.799 217.048 154.322 216.487 155.787 214.673L151.896 211.532ZM150.104 196.89L154.427 194.377L150.104 196.89ZM141.745 225.557L136.765 225.109C136.559 227.39 137.931 229.52 140.093 230.277C142.256 231.033 144.656 230.224 145.918 228.312L141.745 225.557ZM147.904 216.719L151.927 219.688C152.619 218.751 152.961 217.601 152.896 216.438L147.904 216.719ZM140.982 207.073L145.94 206.423C145.935 206.384 145.929 206.344 145.923 206.305L140.982 207.073ZM141.261 197.047L145.467 194.344C144.356 192.615 142.299 191.742 140.283 192.144C138.267 192.545 136.703 194.14 136.339 196.163L141.261 197.047ZM307.354 422.083L312.316 421.468C312.016 419.042 310.005 417.19 307.563 417.088C305.12 416.986 302.963 418.665 302.461 421.057L307.354 422.083ZM314.31 518.14L318.664 515.681L314.31 518.14ZM326.429 541.431L321.922 543.597C323.007 545.853 325.592 546.96 327.973 546.186C330.354 545.413 331.796 542.999 331.348 540.536L326.429 541.431ZM148.651 35.6872C156.572 27.2202 162.119 21.3284 168.114 17.2432C173.857 13.3294 180.142 11.0099 189.574 10.3071L188.831 0.334749C177.85 1.15297 169.836 3.96842 162.482 8.97947C155.381 13.819 149.033 20.6419 141.349 28.8555L148.651 35.6872ZM146.603 37.8751C147.301 37.1303 147.984 36.4004 148.651 35.6872L141.349 28.8555C140.681 29.5693 140.002 30.2954 139.308 31.0357L146.603 37.8751ZM123.59 104.833C124.411 96.0341 126.459 83.1367 130.231 70.4174C134.039 57.5778 139.43 45.5265 146.603 37.8751L139.308 31.0357C130.534 40.3943 124.598 54.2397 120.644 67.5741C116.653 81.0287 114.503 94.5827 113.633 103.904L123.59 104.833ZM118.551 109.518L119.755 109.236L117.468 99.5007L116.265 99.7834L118.551 109.518ZM98.6591 115.829C103.605 113.067 109.077 111.743 118.551 109.519L116.265 99.7832C107.167 101.919 100.196 103.517 93.7836 107.098L98.6591 115.829ZM97.5479 117.108C96.4772 116.814 95.8031 116.531 95.4083 116.32C95.007 116.105 95.0227 116.033 95.1717 116.218C95.36 116.453 95.5835 116.882 95.6316 117.439C95.6755 117.947 95.5487 118.277 95.5179 118.348C95.4926 118.407 95.5225 118.318 95.7097 118.094C95.8888 117.88 96.1469 117.62 96.4862 117.329C97.1754 116.739 97.9938 116.2 98.6591 115.829L93.7835 107.098C92.6647 107.723 91.2738 108.627 89.9822 109.733C88.7713 110.77 87.2267 112.337 86.346 114.364C85.3233 116.718 85.2188 119.798 87.3772 122.483C89.1474 124.686 91.9389 125.936 94.8948 126.75L97.5479 117.108ZM121.863 118.363C115.573 118.349 110.156 118.238 105.898 118.012C101.484 117.779 98.7503 117.439 97.5479 117.108L94.8948 126.75C97.2764 127.405 101.029 127.768 105.369 127.998C109.866 128.236 115.471 128.349 121.841 128.363L121.863 118.363ZM122.129 146.974C127.273 135.616 127.819 127.255 126.737 122.296L116.967 124.429C117.453 126.658 117.584 132.772 113.02 142.847L122.129 146.974ZM119.216 181.123C116.451 172.638 115.2 162.269 122.129 146.974L113.02 142.847C104.957 160.646 106.251 173.613 109.709 184.221L119.216 181.123ZM127.312 212.797C127.312 209.125 125.905 203.305 124.369 197.819C122.764 192.085 120.772 185.897 119.216 181.123L109.709 184.221C111.264 188.994 113.197 195.004 114.739 200.514C116.35 206.271 117.312 210.74 117.312 212.797H127.312ZM120.495 197.624C119.541 202.399 118.451 207.842 117.478 211.517L127.145 214.076C128.215 210.035 129.37 204.241 130.301 199.583L120.495 197.624ZM120.494 197.627L120.494 197.63L130.302 199.577L130.303 199.574L120.494 197.627ZM120.891 195.644C120.763 196.28 120.631 196.943 120.495 197.621L130.302 199.58C130.437 198.901 130.568 198.244 130.695 197.614L120.891 195.644ZM132.357 200.886C131.697 198.918 131.113 197.047 130.6 195.254L120.986 198.004C121.544 199.956 122.174 201.972 122.877 204.068L132.357 200.886ZM140.845 230.319C139.271 222.435 136.345 212.769 132.357 200.886L122.877 204.068C126.85 215.905 129.598 225.059 131.038 232.276L140.845 230.319ZM95.68 258.321C100.48 256.883 107.742 253.275 115.267 249.16C122.935 244.967 131.323 239.995 138.555 235.56L133.328 227.035C126.173 231.422 117.939 236.301 110.469 240.386C102.856 244.55 96.4631 247.648 92.811 248.742L95.68 258.321ZM68.6507 267.47C73.0559 265.801 84.6821 261.615 95.68 258.321L92.811 248.742C81.5197 252.123 69.6592 256.394 65.1072 258.119L68.6507 267.47ZM67.7889 257.869C67.6664 257.853 67.5448 257.838 67.4241 257.825L66.3337 267.765C66.3772 267.77 66.4237 267.775 66.4733 267.782L67.7889 257.869ZM61.6041 280.028C65.2124 271.202 68.9484 267.639 69.9505 266.955L64.3117 258.696C61.1463 260.858 56.4005 266.331 52.3478 276.243L61.6041 280.028ZM58.2839 286.98C59.5639 284.45 60.7551 282.104 61.6041 280.028L52.3478 276.244C51.6846 277.866 50.7049 279.81 49.3613 282.464L58.2839 286.98ZM33.0515 409.529C35.3266 332.057 50.8129 301.743 58.2839 286.98L49.3613 282.464C41.299 298.396 25.3785 330.142 23.0558 409.235L33.0515 409.529ZM30.7622 516.473C31.0767 493.938 31.533 461.239 33.0515 409.529L23.0558 409.235C21.5351 461.02 21.078 493.777 20.7632 516.334L30.7622 516.473ZM29.8646 554.611C30.3625 545.181 30.5211 533.755 30.7622 516.473L20.7632 516.334C20.5209 533.697 20.3637 544.894 19.8785 554.083L29.8646 554.611ZM28.7654 568.501C29.1842 563.993 29.6119 559.396 29.8646 554.611L19.8785 554.083C19.638 558.638 19.2297 563.04 18.8082 567.576L28.7654 568.501ZM27.4474 591.154C27.4129 583.093 28.0789 575.89 28.7654 568.501L18.8082 567.576C18.1255 574.926 17.4107 582.585 17.4475 591.197L27.4474 591.154ZM20.8445 596.909C21.7825 596.585 22.7684 596.279 23.7981 595.99L21.0968 586.361C19.8972 586.698 18.7233 587.062 17.5828 587.455L20.8445 596.909ZM8.45366 609.375L22.6673 595.797L15.76 588.566L1.54634 602.144L8.45366 609.375ZM21.5277 615.074L8.51616 602.204L1.48384 609.314L14.4953 622.184L21.5277 615.074ZM23.2723 611.554C20.6643 612.396 18.3093 613.203 16.3088 613.928L19.7142 623.33C21.594 622.65 23.8372 621.88 26.3441 621.07L23.2723 611.554ZM31.8527 625.442C31.0018 621.925 30.3011 618.594 29.7286 615.424L19.8878 617.201C20.4963 620.57 21.2379 624.093 22.1332 627.793L31.8527 625.442ZM37.9141 657.935C37.5117 653.307 35.7466 640.614 31.8361 625.375L22.1499 627.86C25.933 642.604 27.5998 654.755 27.9517 658.802L37.9141 657.935ZM31.6223 652.535C30.6871 653.406 29.8523 654.277 29.131 655.121L36.7348 661.616C37.1892 661.084 37.7581 660.486 38.4407 659.85L31.6223 652.535ZM37.3846 685.285C40.39 672.021 40.6471 662.058 40.0064 655.691L30.0566 656.693C30.5744 661.838 30.4338 670.709 27.6318 683.075L37.3846 685.285ZM46.6251 727.917C42.1876 726.113 38.5479 721.571 36.6627 713.975C34.7855 706.411 34.8557 696.446 37.3846 685.285L27.6318 683.075C24.8571 695.321 24.6091 706.923 26.9571 716.384C29.2971 725.812 34.426 733.752 42.8586 737.18L46.6251 727.917ZM76.6487 724.801C73.344 729.29 68.5604 731.099 63.0105 731.261C57.3458 731.426 51.3168 729.825 46.6251 727.917L42.8586 737.18C48.3048 739.395 55.7704 741.476 63.3019 741.257C70.9482 741.034 79.0624 738.39 84.7019 730.73L76.6487 724.801ZM87.2576 780.457C86.5756 761.605 86.0531 743.627 85.6739 727.647L75.6767 727.884C76.0568 743.903 76.5805 761.922 77.2642 780.818L87.2576 780.457ZM66.7056 949.188C69.4921 893.594 79.7147 824.669 87.1877 781.49L77.3342 779.785C69.8403 823.085 59.5353 892.482 56.7181 948.687L66.7056 949.188ZM64.2642 990.174C65.0003 978.987 65.8884 965.492 66.7056 949.188L56.7181 948.687C55.9052 964.906 55.0218 978.333 54.2858 989.518L64.2642 990.174ZM76.8803 1044.83C72.0329 1043.44 69.1515 1042.2 67.2652 1040.72C65.6108 1039.42 64.4222 1037.68 63.645 1034.45C62.816 1031 62.5226 1026.1 62.6936 1018.76C62.8633 1011.48 63.4716 1002.22 64.2642 990.174L54.2858 989.518C53.4987 1001.48 52.8721 1010.99 52.6963 1018.53C52.5219 1026.01 52.7725 1032 53.9216 1036.78C55.1225 1041.78 57.3462 1045.64 61.0828 1048.58C64.5877 1051.34 69.0762 1052.99 74.1221 1054.44L76.8803 1044.83ZM95.1831 1043.3C91.3682 1045.73 85.5322 1047.31 76.8804 1044.83L74.1221 1054.44C85.3045 1057.65 94.1299 1055.82 100.545 1051.74L95.1831 1043.3ZM116.341 1070.22C110.805 1068.97 107.463 1065.46 105.414 1061.08C103.295 1056.56 102.709 1051.34 102.86 1047.73L92.8686 1047.31C92.6695 1052.08 93.3901 1058.98 96.3567 1065.32C99.3921 1071.81 104.915 1077.9 114.145 1079.97L116.341 1070.22ZM120.855 1071.26C119.188 1070.87 117.671 1070.52 116.341 1070.22L114.146 1079.97C115.422 1080.26 116.892 1080.61 118.571 1081L120.855 1071.26ZM120.873 1071.27L120.851 1071.26L118.575 1081L118.597 1081.01L120.873 1071.27ZM133.475 1074.12C128.587 1073.08 124.366 1072.09 120.877 1071.27L118.593 1081.01C122.082 1081.82 126.396 1082.84 131.399 1083.9L133.475 1074.12ZM125.171 1146.84C133.437 1135.91 137.149 1122.53 138.49 1110.2C139.834 1097.83 138.841 1086.12 137.353 1078.09L127.521 1079.92C128.859 1087.13 129.772 1097.86 128.548 1109.11C127.322 1120.4 123.994 1131.81 117.194 1140.81L125.171 1146.84ZM101.753 1202.76C98.4891 1196.23 98.9145 1189.35 103.017 1180.32C107.22 1171.08 114.919 1160.4 125.171 1146.84L117.194 1140.81C107.08 1154.19 98.6563 1165.75 93.9135 1176.19C89.0705 1186.84 87.728 1197.07 92.8086 1207.23L101.753 1202.76ZM144.478 1190.15C144.345 1190.59 143.874 1191.49 142.675 1192.79C141.524 1194.03 139.924 1195.41 137.935 1196.81C133.953 1199.62 128.771 1202.29 123.432 1204.14C118.037 1206.02 112.877 1206.92 108.849 1206.58C104.901 1206.24 102.792 1204.84 101.753 1202.76L92.8086 1207.23C95.942 1213.5 101.974 1216.03 108.001 1216.54C113.948 1217.05 120.597 1215.71 126.711 1213.59C132.881 1211.45 138.907 1208.36 143.698 1204.98C146.095 1203.29 148.273 1201.47 150.024 1199.57C151.727 1197.72 153.283 1195.54 154.033 1193.1L144.478 1190.15ZM154.952 1164.84C149.57 1175.01 146.502 1183.6 144.478 1190.15L154.033 1193.1C155.928 1186.96 158.777 1178.99 163.79 1169.52L154.952 1164.84ZM167.37 1177.88C166.926 1174.19 165.379 1169.23 164.092 1165.54L154.65 1168.83C155.936 1172.52 157.141 1176.57 157.442 1179.08L167.37 1177.88ZM172.109 1170.46C170.4 1171.5 166.003 1173.48 162.406 1173.48V1183.48C168.653 1183.48 174.919 1180.46 177.312 1179L172.109 1170.46ZM171.922 1139.89C169.669 1152.12 169.485 1167.76 169.713 1174.89L179.708 1174.57C179.489 1167.73 179.692 1152.91 181.756 1141.7L171.922 1139.89ZM172.996 1137.6L172.93 1137.68L180.748 1143.92L180.814 1143.83L172.996 1137.6ZM172.005 1102.88C177.748 1131.24 174.22 1136.11 173.043 1137.54L180.767 1143.89C185.22 1138.47 187.518 1129.11 181.806 1100.9L172.005 1102.88ZM171.155 1089.51C171.084 1093.42 170.988 1097.86 172.005 1102.88L181.806 1100.9C181.034 1097.09 181.081 1093.68 181.153 1089.69L171.155 1089.51ZM171.188 1085.46C171.204 1086.79 171.18 1088.11 171.155 1089.51L181.153 1089.69C181.178 1088.31 181.205 1086.85 181.188 1085.34L171.188 1085.46ZM233.257 1078.63C212.862 1081.62 193.573 1081.69 176.561 1080.41L175.815 1090.39C193.405 1091.7 213.445 1091.64 234.704 1088.53L233.257 1078.63ZM232.796 1112.3C237.156 1101.81 238.695 1091.61 238.977 1083.76L228.984 1083.4C228.735 1090.31 227.373 1099.29 223.563 1108.46L232.796 1112.3ZM230.663 1137.96C228.378 1134.98 227.577 1132.25 227.84 1128.68C228.13 1124.74 229.719 1119.7 232.796 1112.3L223.563 1108.46C220.46 1115.92 218.285 1122.26 217.867 1127.95C217.422 1134 218.971 1139.15 222.731 1144.05L230.663 1137.96ZM239.524 1166.95C238.255 1164.72 236.737 1160.39 235.247 1155.08C233.8 1149.93 232.508 1144.35 231.59 1139.98L221.803 1142.03C222.751 1146.55 224.094 1152.36 225.62 1157.79C227.101 1163.06 228.891 1168.49 230.832 1171.9L239.524 1166.95ZM254.424 1169.15C252.223 1169.66 248.661 1170.07 245.398 1169.67C241.955 1169.26 240.202 1168.15 239.524 1166.95L230.832 1171.9C233.888 1177.27 239.701 1179.06 244.2 1179.6C248.878 1180.16 253.632 1179.59 256.663 1178.9L254.424 1169.15ZM249.792 1163.86L250.557 1174.39L260.531 1173.66L259.766 1163.13L249.792 1163.86ZM285.7 1184.25C283.065 1180.59 278.87 1176.52 274.114 1172.43C269.29 1168.28 263.607 1163.87 257.78 1159.5L251.779 1167.49C257.544 1171.82 263.02 1176.08 267.592 1180.01C272.232 1184.01 275.67 1187.43 277.579 1190.09L285.7 1184.25ZM321.332 1192.58C315.989 1196.21 308.802 1196.46 301.613 1194.31C294.369 1192.15 288.324 1187.91 285.7 1184.25L277.579 1190.09C281.815 1195.98 289.984 1201.28 298.757 1203.9C307.585 1206.53 318.218 1206.78 326.946 1200.86L321.332 1192.58ZM314.908 1167.81C317.908 1171.29 321.635 1176.84 323.313 1182.11C324.147 1184.73 324.357 1186.92 324.039 1188.6C323.754 1190.11 323.017 1191.44 321.332 1192.58L326.946 1200.86C330.89 1198.18 333.1 1194.52 333.866 1190.46C334.599 1186.57 333.965 1182.61 332.843 1179.08C330.611 1172.06 325.986 1165.34 322.481 1161.28L314.908 1167.81ZM269.164 1100.86C270.539 1116.01 278.923 1130.49 288.27 1142.16C297.683 1153.91 308.539 1163.39 315.772 1168.6L321.616 1160.49C315.037 1155.75 304.863 1146.88 296.075 1135.91C287.223 1124.85 280.238 1112.24 279.124 1099.95L269.164 1100.86ZM267.887 1066.66C267.594 1074.43 267.788 1085.68 269.164 1100.86L279.124 1099.95C277.778 1085.12 277.606 1074.31 277.88 1067.04L267.887 1066.66ZM268.378 1063.78C268.283 1064.47 268.166 1065.1 268.027 1065.66L277.74 1068.04C277.973 1067.09 278.15 1066.12 278.285 1065.14L268.378 1063.78ZM304.02 1055.27C291.144 1054.06 279.251 1056.93 271.594 1059.77L275.069 1069.15C281.792 1066.66 292.135 1064.2 303.083 1065.23L304.02 1055.27ZM378.194 1023.71C371.305 1035.07 357.894 1043.5 343.109 1048.87C328.374 1054.21 313.268 1056.14 304.02 1055.27L303.083 1065.23C314.131 1066.27 330.74 1063.99 346.519 1058.27C362.247 1052.56 378.147 1043.07 386.744 1028.9L378.194 1023.71ZM375.641 1018.13C376.806 1023.38 377.414 1026.16 377.506 1026.91L387.432 1025.7C387.264 1024.32 386.475 1020.79 385.404 1015.96L375.641 1018.13ZM341.441 706.176C340.241 858.481 367.922 983.313 375.641 1018.13L385.404 1015.96C377.729 981.346 350.25 857.403 351.441 706.255L341.441 706.176ZM365.419 687.417C362.902 693.587 359.819 697.052 356.81 698.96C353.812 700.861 350.438 701.502 346.816 701.229L346.066 711.201C351.38 711.601 356.999 710.681 362.164 707.406C367.319 704.138 371.571 698.811 374.678 691.193L365.419 687.417ZM370.625 626.317C371.34 634.321 371.794 645.385 371.165 656.633C370.532 667.964 368.819 679.08 365.419 687.417L374.678 691.193C378.696 681.341 380.493 668.934 381.149 657.191C381.81 645.367 381.334 633.809 380.586 625.427L370.625 626.317ZM377.59 621.231L376.925 621.049L374.286 630.695L374.952 630.877L377.59 621.231ZM377.357 621.173L377.356 621.173L375.187 630.935L375.187 630.935L377.357 621.173ZM377.854 621.311L377.853 621.311L374.691 630.798L374.692 630.798L377.854 621.311ZM381.434 622.236C380.541 622.037 379.29 621.696 377.593 621.232L374.953 630.877C376.551 631.315 378.078 631.734 379.265 631.998L381.434 622.236ZM371.807 581.347C373.201 590.824 374.385 600.27 375.072 608.338C375.772 616.556 375.91 622.891 375.401 626.399L385.298 627.835C385.99 623.063 385.734 615.684 385.036 607.49C384.326 599.146 383.111 589.483 381.7 579.891L371.807 581.347ZM377.812 573.475C376.809 574.712 375.68 575.563 374.508 576.151L378.999 585.086C381.368 583.896 383.635 582.171 385.577 579.777L377.812 573.475ZM377.707 556.273C379.715 557.117 381.221 559.191 381.463 562.591C381.706 566.004 380.539 570.116 377.812 573.475L385.577 579.777C389.852 574.509 391.867 567.907 391.438 561.881C391.008 555.839 387.988 549.746 381.581 547.054L377.707 556.273ZM370.811 554.688C373.6 555.095 375.997 555.656 377.931 556.361L381.358 546.966C378.587 545.956 375.479 545.263 372.254 544.793L370.811 554.688ZM366.53 550.208L366.623 550.689L376.441 548.793L376.349 548.312L366.53 550.208ZM353.471 444.535C354.791 449.251 358.731 469.561 362.011 491.86C363.642 502.95 365.093 514.413 365.964 524.543C366.844 534.777 367.099 543.3 366.473 548.682L376.406 549.838C377.158 543.375 376.813 533.981 375.927 523.686C375.033 513.286 373.553 501.608 371.905 490.405C368.626 468.119 364.611 447.237 363.102 441.841L353.471 444.535ZM344.589 388.371C344.808 407.314 350.592 434.24 353.471 444.535L363.102 441.841C360.324 431.912 354.793 405.943 354.588 388.256L344.589 388.371ZM337.237 340.429C340.065 351.954 344.384 370.69 344.589 388.371L354.588 388.256C354.369 369.307 349.778 349.574 346.949 338.046L337.237 340.429ZM327.386 265.149C328.444 274.579 330.255 290.714 332.116 305.773C333.954 320.654 335.896 334.964 337.237 340.429L346.949 338.046C345.784 333.299 343.915 319.719 342.04 304.547C340.188 289.552 338.383 273.47 337.323 264.033L327.386 265.149ZM327.396 265.235L327.397 265.238L337.313 263.944L337.312 263.942L327.396 265.235ZM327.386 265.153L327.387 265.159L337.322 264.019L337.321 264.013L327.386 265.153ZM327.374 265.034L327.374 265.036L337.333 264.13L337.333 264.128L327.374 265.034ZM326.73 259.332C326.89 260.735 327.112 262.712 327.385 265.139L337.322 264.023C337.05 261.601 336.827 259.612 336.665 258.197L326.73 259.332ZM313.191 253.406C315.628 253.124 319.279 253.248 322.221 254.33C324.988 255.347 326.448 256.864 326.73 259.332L336.665 258.197C335.817 250.772 330.685 246.786 325.67 244.943C320.829 243.165 315.505 243.072 312.045 243.471L313.191 253.406ZM309.412 252.276L309.417 252.28L315.819 244.597L315.814 244.594L309.412 252.276ZM266.101 236.808C274.811 241.722 291.615 249.906 311.768 253.363L313.459 243.507C294.86 240.316 279.182 232.707 271.015 228.099L266.101 236.808ZM273.193 234.328L273.196 234.321L263.92 230.585L263.917 230.592L273.193 234.328ZM264.236 234.978L264.239 234.984L272.872 229.936L272.868 229.931L264.236 234.978ZM254.085 229.688C257.755 232.283 261.847 234.756 266.368 236.952L270.736 227.957C266.737 226.014 263.113 223.825 259.859 221.524L254.085 229.688ZM258.729 209.265C255.607 214.544 253.486 219.53 252.159 224.253L261.786 226.959C262.856 223.152 264.612 218.962 267.336 214.356L258.729 209.265ZM266.07 189.693C265.197 198.148 261.423 205.528 258.991 208.867L267.075 214.754C270.361 210.242 274.933 201.219 276.017 190.72L266.07 189.693ZM279.629 210.749C279.629 204.449 279.203 199.586 278.463 195.861C277.737 192.208 276.636 189.265 275 187.149L267.088 193.264C267.378 193.64 268.069 194.866 268.655 197.81C269.225 200.682 269.629 204.845 269.629 210.749H279.629ZM291.382 225.95C289.125 224.463 286.018 221.975 283.536 219.029C280.97 215.982 279.629 213.111 279.629 210.749H269.629C269.629 216.591 272.731 221.722 275.887 225.47C279.128 229.318 283.021 232.417 285.879 234.3L291.382 225.95ZM286.556 210.723C281.297 220.544 282.016 228.697 284.308 232.638L292.953 227.612C292.979 227.656 292.478 226.617 292.588 224.379C292.693 222.267 293.344 219.23 295.372 215.443L286.556 210.723ZM281.956 194.13C283.811 196.297 285.898 198.789 287.064 201.702C288.132 204.37 288.394 207.291 286.556 210.723L295.372 215.443C298.845 208.957 298.309 202.886 296.348 197.986C294.485 193.331 291.311 189.68 289.552 187.626L281.956 194.13ZM280.858 192.827C281.198 193.245 281.589 193.701 281.956 194.13L289.552 187.626C289.159 187.167 288.863 186.821 288.624 186.526L280.858 192.827ZM274.162 170.377C273.537 181.907 277.593 188.802 280.858 192.827L288.624 186.526C286.57 183.995 283.684 179.466 284.147 170.918L274.162 170.377ZM292.693 171.501C291.091 169.164 288.99 167.185 286.265 166.102C283.494 165.001 280.582 165.028 277.763 165.845L280.546 175.45C281.618 175.139 282.21 175.252 282.573 175.396C282.982 175.558 283.642 175.983 284.444 177.154L292.693 171.501ZM279.322 166.191C279.639 166.299 280.787 167.022 281.92 168.788C282.976 170.436 283.613 172.386 283.57 174.21L293.567 174.445C293.666 170.258 292.251 166.375 290.338 163.39C288.5 160.525 285.76 157.818 282.541 156.724L279.322 166.191ZM260.23 123.832C261.497 130.384 264.079 139.804 267.097 147.888C268.603 151.922 270.278 155.788 272.031 158.851C272.905 160.378 273.874 161.839 274.939 163.052C275.939 164.189 277.39 165.535 279.322 166.191L282.541 156.724C283.03 156.89 282.981 157.054 282.452 156.451C281.988 155.924 281.397 155.084 280.71 153.883C279.34 151.489 277.883 148.187 276.465 144.391C273.637 136.815 271.208 127.928 270.048 121.933L260.23 123.832ZM259.492 115.967C259.986 117.815 260.193 120.156 260.14 122.782L270.138 122.983C270.202 119.821 269.975 116.461 269.153 113.386L259.492 115.967ZM294.793 102.089C293.021 103.021 289.24 104.286 283.578 105.686C278.066 107.048 271.175 108.443 263.487 109.746L265.158 119.606C273.012 118.275 280.158 116.832 285.978 115.393C291.648 113.992 296.495 112.493 299.45 110.938L294.793 102.089ZM289.671 101.259C290.983 101.284 292.457 101.541 293.781 101.975C295.167 102.431 296.01 102.956 296.344 103.263C296.492 103.4 296.363 103.332 296.231 103.006C296.07 102.606 296.005 102.055 296.154 101.514C296.285 101.039 296.487 100.911 296.31 101.084C296.128 101.262 295.684 101.62 294.793 102.089L299.45 110.938C302.16 109.512 304.904 107.4 305.794 104.172C306.818 100.459 304.884 97.5315 303.114 95.9032C301.353 94.2837 299.054 93.182 296.902 92.475C294.688 91.7476 292.228 91.3059 289.863 91.2605L289.671 101.259ZM263.727 100.264C269.86 100.546 283.707 101.144 289.671 101.259L289.863 91.2605C284.06 91.1489 270.357 90.5585 264.186 90.2748L263.727 100.264ZM263.756 100.277L264.094 100.268L263.818 90.2714L263.481 90.2807L263.756 100.277ZM258.584 95.0965L258.637 95.7107L268.6 94.847L268.547 94.2327L258.584 95.0965ZM253.26 63.8569C256.941 76.2418 257.932 87.5707 258.584 95.0961L268.547 94.2332C267.892 86.6794 266.843 74.4551 262.845 61.0075L253.26 63.8569ZM257.497 57.4631L257.478 57.4653L258.627 67.3991L258.646 67.3969L257.497 57.4631ZM235.579 30.6565C244.634 41.1159 250.005 52.8416 253.279 63.8548L262.864 61.0052C259.296 49.0029 253.349 35.9042 243.139 24.1113L235.579 30.6565ZM197.064 10C204.8 9.99905 210.802 11.1887 216.541 14.1666C222.377 17.195 228.315 22.2655 235.579 30.6565L243.139 24.1113C235.484 15.2685 228.577 9.14604 221.147 5.29047C213.619 1.38434 205.933 -0.00108385 197.062 4.76837e-07L197.064 10ZM189.574 10.3071C192.254 10.1074 194.736 9.99972 197.062 10L197.064 4.76837e-07C194.433 -0.000320435 191.696 0.121296 188.831 0.33475L189.574 10.3071ZM246.064 208.785C245.515 211.953 244.914 215.418 244.485 219.013L254.414 220.198C254.807 216.906 255.362 213.696 255.917 210.492L246.064 208.785ZM247.187 201.81C246.895 203.98 246.498 206.278 246.064 208.785L255.917 210.492C256.344 208.025 256.776 205.535 257.098 203.143L247.187 201.81ZM242.857 185.57C245.18 188.003 248.327 193.342 247.187 201.81L257.098 203.143C258.68 191.382 254.305 183.08 250.089 178.664L242.857 185.57ZM238.307 204.664C243.452 200.278 247.722 193.507 251.183 183.796L241.763 180.439C238.647 189.184 235.17 194.198 231.819 197.054L238.307 204.664ZM240.104 202.016L240.06 200.694L230.066 201.025L230.109 202.347L240.104 202.016ZM252.788 215.883C245.736 209.558 241.369 203.325 239.526 199.842L230.688 204.521C233.122 209.119 238.245 216.273 246.111 223.327L252.788 215.883ZM159.519 196.396C157.484 193.736 155.481 189.771 153.591 184.715L144.224 188.216C146.268 193.685 148.683 198.688 151.575 202.471L159.519 196.396ZM160.643 197.903C160.302 197.468 159.96 197.009 159.616 196.527L151.478 202.34C151.902 202.933 152.331 203.509 152.768 204.066L160.643 197.903ZM159.526 209.535L161.524 202.319L151.887 199.65L149.888 206.866L159.526 209.535ZM158.29 204.713L158.278 204.701L151.136 211.701L151.148 211.713L158.29 204.713ZM152.945 212.888L152.961 212.894L156.478 203.532L156.462 203.526L152.945 212.888ZM155.787 214.673C156.805 213.411 157.695 212.363 158.432 211.539L150.975 204.876C150.106 205.848 149.107 207.027 148.005 208.392L155.787 214.673ZM145.781 199.402C147.728 202.752 147.943 206.46 147.026 210.398L156.766 212.666C158.086 206.999 157.996 200.518 154.427 194.377L145.781 199.402ZM144.042 185.316C143.084 189.372 142.961 194.55 145.781 199.402L154.427 194.377C153.31 192.456 153.18 190.127 153.774 187.614L144.042 185.316ZM145.918 228.312C148.054 225.075 150.085 222.185 151.927 219.688L143.881 213.751C141.934 216.388 139.804 219.421 137.572 222.803L145.918 228.312ZM136.025 207.723C137.028 215.38 137.163 220.684 136.765 225.109L146.725 226.006C147.209 220.625 147.005 214.546 145.94 206.423L136.025 207.723ZM136.339 196.163C135.657 199.963 135.434 203.934 136.042 207.842L145.923 206.305C145.527 203.762 145.641 200.944 146.182 197.931L136.339 196.163ZM152.896 216.438C152.388 207.425 148.901 199.688 145.467 194.344L137.054 199.75C139.85 204.102 142.528 210.184 142.912 217.001L152.896 216.438ZM302.461 421.057C300.06 432.507 297.771 449.857 298.113 467.998C298.454 486.04 301.403 505.457 309.957 520.599L318.664 515.681C311.304 502.652 308.439 485.183 308.112 467.81C307.786 450.536 309.976 433.944 312.248 423.11L302.461 421.057ZM331.348 540.536C324.202 501.24 316.557 455.67 312.316 421.468L302.392 422.699C306.669 457.188 314.354 502.981 321.509 542.326L331.348 540.536ZM309.957 520.599C313.748 527.312 317.812 535.049 321.922 543.597L330.935 539.264C326.732 530.523 322.567 522.59 318.664 515.681L309.957 520.599Z" fill="white" mask="url(#path-46-outside-1)"/>
</svg>
