<svg width="392" height="710" fill="none" xmlns="http://www.w3.org/2000/svg"><path d="M32.508 684.181c4.243-18.725 2.71-30.195 1.414-33.59l20.86-7.142 20.862 2.405c4.95 13.718 13.93 46.615 10.253 68.451-4.596 27.296-28.286 23.478-41.156 18.245-12.87-5.233-17.537-24.963-12.233-48.369zM324.537 648.236c8.234-17.345 9.247-28.872 8.724-32.468l21.917-2.408 19.831 6.907c1.831 14.469 3.402 48.533-4.961 69.037-10.453 25.631-32.734 16.725-44.149 8.805-11.414-7.92-11.655-28.192-1.362-49.873z" fill="#FFC9BA"/><path fill="#5597D6" d="M163.113 221.5h80.473v69.442h-80.473z"/><path d="M193.176 229.342l9.617-22.416h4.455l8.203 17.82-3.748 14.284-8.91 2.475-9.617-12.163zM331.697 258.765c-1.132-9.9-13.2-11.008-19.093-10.325-4.62 30.266-12.488 104.29-7.001 158.26 6.86 67.462 33.66 204.931 37.196 217.377 11.739-5.375 31.185 1.626 37.55 3.04 1.909-13.153-4.243-53.743-8.91-77.857 2.757-23.689-10.325-95.959-13.153-106.071-2.829-10.113-8.486-36.56-8.698-54.875-.212-18.315-4.667-37.55-7.496-49.076-2.829-11.526-8.981-68.098-10.395-80.473z" fill="#2365A1"/><path d="M379.644 551.663c-13.804-5.035-41.392-2.098-53.46 0 .612 13.459 3.762 38.879 11.455 32.882 7.694-5.996 20.46-4.478 25.882-2.97 3.724 1.226 12.573 1.952 18.174-4.95 7-8.627 6.364-21.426-2.051-24.962z" fill="#307CC1"/><path d="M372.408 558.853c1.578 1.513.805 5.188-.708 6.766a3.96 3.96 0 11-5.717-5.481c1.514-1.579 4.846-2.799 6.425-1.285z" fill="#2365A1"/><path d="M154.707 208.201l2.546-9.193 46.742 9.971-14.991 33.589c-2.24-.448-7.68-1.655-11.527-2.899-3.847-10.523-16.783-25.363-22.77-31.468zM219.404 241.015c-1.018-8.146-8.91-24.844-12.728-32.175l28.286-11.031.99 29.841c-4.125 3.677-13.21 11.498-16.548 13.365z" fill="#307CC1"/><path d="M264.715 1067.41l.356 3.8 3.339-1.84c5.021-2.77 19.282-8.1 34.908-6.63 10.597.99 26.831-1.2 42.348-6.82 15.493-5.62 30.77-14.85 38.941-28.32l.449-.74-.105-.86c-.141-1.15-.873-4.46-2.038-9.73-8.107-36.654-37.184-168.122-33.726-326.653.16-7.345-1.081-13.185-3.678-17.559-2.638-4.442-6.556-7.166-11.278-8.421-9.188-2.441-21.328.686-33.737 6.517-24.994 11.745-53.494 35.632-67.183 55.913l-.501.742.084.89 31.821 339.711z" fill="#2365A1" stroke="#000" stroke-width="5"/><path d="M97.918 972.419c-11.71-50.745-16.76-203.776-17.82-273.949 63.289-5.138 188.242-10.762 181.736 7.85-8.132 23.265-6.505 135.135-3.253 147.016 3.253 11.88 8.628 62.158 7.567 85.423s6.081 76.651 6.788 100.131c.708 23.48 3.89 34.09-11.738 39.04-66.472 18.1-126.792 1.48-145.955-2.83-15.331-3.45-17.938-20.44-17.325-28.5 2.286-14.97 5.487-50.76 0-74.181zM199.891 288.251l2.97-48.369 8.485-1.909 24.609 32.175-3.606 25.174-10.113 20.932-22.345-28.003z" fill="#3B89D2"/><path d="M56.975 278.136c4.186-10.24 8.863-14.685 10.678-15.628h10.324l9.405 18.456 15.133 30.832 11.81 50.278-19.093 125.66C89.103 536.951 76.846 638.229 76.846 649.6c-21.215-9.278-38.115 1.98-43.914 8.768-.377-4.337-2.093-16.759-5.94-31.75-7.99-33.024-3.253-50.844-2.121-72.271 1.131-21.426.495-53.46 3.182-144.965s23.69-118.447 28.922-131.246z" fill="#2D76B9"/><path d="M94.246 253.532c11.144-3.338 40.378-21.191 53.601-29.7 26.825 32.694 81.577 99.892 85.989 107.133 5.516 9.051 12.163 38.681 16.406 72.694 4.243 34.014 6.364 207.194 2.97 227.206-3.394 20.013 1.697 70.644 8.061 84.717-50.066 7.524-141.688-8.274-181.241-17.113 1.744-6.648 4.186-20.861 0-24.538-11.739-15.063-2.617-16.335-4.243-26.165-5.87-39.954 2.616-67.108 7.85-90.727 5.232-23.618 3.96-60.178 8.132-109.607 4.172-49.43 17.607-79.908 19.517-84.787-4.017-5.318-7.001-21.922-7.991-29.559-.943-7.071-4.568-23.166-11.526-30.973-8.698-9.759-10.396-18.598-12.163-28.356-1.415-7.807-9.076-10.56-12.73-10.961 4.48-1.697 16.223-5.926 27.368-9.264z" fill="#307CC1"/><path d="M130.512 295.246l23.123-28.781 49.501 21.78c10.843 13.577 32.726 42.429 33.518 49.217-18.499-2.036-78.469-28.993-106.142-42.216z" fill="#5497D6"/><path d="M147.84 221.499c1.188-14.199-6.906-26.046-11.102-30.195l8.769-16.406 6.718 4.173c-2.31 3.182-5.969 11.201-2.122 17.82 4.809 8.273 1.697 17.608-2.263 24.608zM274.629 210.749c0-17.395-3.371-21.874-6.081-22.133l-4.526-3.536-6.577-27.791 22.205 8.769c-2.051 12.94 2.05 19.87 5.091 23.618 3.041 3.748 12.092 12.446 6.223 23.407-4.695 8.769-3.512 15.015-2.334 17.042-5.115-3.371-14.001-11.173-14.001-19.376z" fill="#623B4E"/><path d="M244.223 180.201l9.829-69.159c0-2.922 1.471-7.368 7.354-1.767 5.884 5.6 3.536 20.955 1.627 27.932-1.344 5.728-2.32 20.45 4.525 33.519 8.557 16.335.213 34.579-4.525 41.085-12.8 21.638-6.718 36.489-2.334 47.166-17.961-19.517-10.678-40.731-8.556-56.501 1.697-12.615-4.573-20.106-7.92-22.275z" fill="#452A37"/><path d="M280.931 161.458c-6.222-2.116-14.567-29.936-16.264-41.298-1.957 8.58-5.558 27.508-4.314 34.58 1.556 8.839 13.365 17.961 17.75 16.264 4.384-1.697 7.849-.495 10.465 3.324.142-6.011-4.101-11.668-7.637-12.87z" fill="#543343"/><path d="M312.613 248.435c-19.376-3.324-35.616-11.22-44.055-15.982l-27.72 68.876-18.881 63.007v331.439c12.611 6.648 38.129 19.914 39.317 19.801 1.485-.142 89.242-20.72 103.173-29.983-.354-63.007-29.205-130.398-50.137-167.453-16.745-29.643-11.125-78.587-6.223-99.354 1.792-6.977 5.092-29.304 3.96-62.794-1.414-41.863 6.223-72.129 6.577-87.192.283-12.049-3.889-18.598-6.011-20.365z" fill="#3B89D2"/><path d="M155.547 199.434c-11.767-15.388-17.726-59.589-19.235-79.766 39.365-18.834 122.256-46.456 120.357-6.294-2.97 62.794-13.436 84.504-26.377 90.585-12.059 5.668-38.186 8.274-49.854 7.92-11.667-.353-18.527-3.535-24.891-12.445z" fill="#FFC9BA"/><path d="M121.043 264.567c11.258-27.551 27.131-49.053 33.66-56.36 14.567 5.445 38.398 69.442 50.561 82.665-6.294 1.061-41.227-29.205-84.221-26.305z" fill="#2365A1"/><path d="M233.912 112.233c-5.453-1.238-11.367 1.143-13.586 2.421-.942.543-3.318 2.848-2.645 5.202 1.403 4.909 7.644 3.319 14.191.897 6.546-2.421 13.585.942 15.423 1.211 1.839.269 9.461.202 7.981-4.462-1.479-4.664-7.375-4.596-9.819-4.126-2.444.471-4.73.404-11.545-1.143zM160.277 115.894c-6.587 1.199-8.414 2.508-8.065 4.421.863 4.741 6.604 4.884 11.933 3.392 3.817-1.069 8.323-.993 10.145-.28 1.457.571 5.194 1.189 7.147.834 1.416-.258 3.227-1.787 2.382-3.614-.845-1.826-4.654-1.832-6.695-1.87-6.678-.121-6.182-4.825-16.847-2.883z" fill="#462937"/><path d="M117.574 144.911c5.996-13.238 4.903-21.167 3.606-23.477h7.991c-.377 22.18-1.287 66.966-1.91 68.664-.777 2.121-3.04 15.486-4.95 22.699 0-5.728-4.737-20.578-7.849-30.125-3.111-9.546-4.384-21.214 3.112-37.761z" fill="#543343"/><path d="M125.566 150.642c3.225-15.67 1.344-27.791 0-31.892l19.8 1.909c-4.03 13.931-.919 28.781.99 33.165 1.91 4.385 6.294 15.841 1.91 24.256-4.385 8.415-8.769 19.446-7.284 28.993 2.475 18.88 0 25.174-3.96 38.185.99-8.91-2.475-22.133-9.405-42.782-6.93-20.649-6.082-32.246-2.051-51.834z" fill="#452A37"/><path d="M96.221 111.463c6.079-3.394 12.779-4.829 23.192-7.283 53.814-12.686 101.549-7.708 144.543-8.91 6.152.282 19.928.876 25.811.99 7.354.141 16.759 5.303 7.354 10.253-9.405 4.95-49.715 12.092-83.163 13.86-46.506 2.458-107.2 4.455-117.737 1.556-10.536-2.899-3.568-8.473 0-10.466z" fill="#307CC1"/><path d="M189.203 5.32c-21.287 1.587-29.276 11.032-46.247 29.135-15.954 17.018-22.66 51.824-24.347 69.937 2.741-.047 11.448.057 24.347.849 16.122.99 48.015.424 69.653-.99 21.639-1.415 44.834-6.294 51.127-7.638-1.202-13.364-2.97-44.479-24.396-69.23-17.142-19.8-28.805-23.652-50.137-22.062z" fill="#2365A1"/><path fill-rule="evenodd" clip-rule="evenodd" d="M258.071 62.43c-33.753 3.907-97.428 4.667-131.993 4.518 3.857-12.379 9.339-24.431 16.896-32.493l2.045-2.184c15.604-16.68 23.789-25.429 44.202-26.95 21.333-1.59 32.996 2.263 50.137 22.063 9.632 11.126 15.291 23.538 18.713 35.046z" fill="#307CC1"/><path d="M217.496 129.211s1.796 58.622-7.708 46.459c-9.504-12.162 7.708-46.459 7.708-46.459z" fill="#F0BBAC"/><path d="M234.68 201.34l1.343 37.761 31.468 32.812 14.638-13.153c-3.229-6.553-10.466-20.988-13.577-26.306-19.687-9.56-30.784-24.726-33.872-31.114zM5 605.759l14.214-13.577c17.707-6.11 47.213-5.374 59.754-4.243-.496 4.62-1.74 15.09-2.758 20.012-14.54-3.055-44.857 5.846-58.198 10.678L5 605.759z" fill="#307CC1"/><circle cx="23.386" cy="601.94" r="3.96" fill="#2365A1"/><path fill-rule="evenodd" clip-rule="evenodd" d="M117.97 242c-9.55 5.413-18.612 10.085-23.781 11.633l-1.212.366c1.985 3.46 6.535 14.559 9.909 33.364 4.314 24.043 18.244 79.837 22.487 92.212 4.243 12.375 12.8 61.663 13.436 67.249.136 1.194.85 4.54 1.881 9.373 3.794 17.79 11.884 55.72 11.272 80.576-.331 13.442-3.513 35.261-6.752 57.466-4.378 30.012-8.859 60.732-6.542 72.437 3.26 16.476 6.151 34.34 6.949 43.783a882.529 882.529 0 0017.801 2.406v-39.047c0-26.164 8.132-67.603 12.233-87.262 4.102-19.658-5.374-118.8-11.173-155.501-5.798-36.701-18.527-95.889-25.74-121.558-5.01-17.832-14.791-48.863-20.768-67.497z" fill="#5497D6"/><path d="M220.816 317.316c12.107-25.344 15.18-62.7 15.204-78.211l51.41 47.591-53.036 49.642c-3.135-4.549-10.24-14.723-13.578-19.022z" fill="#5497D6"/><path fill-rule="evenodd" clip-rule="evenodd" d="M327.966 544.775a317.23 317.23 0 00-.795-.138c-31.362-5.342-71.49-17.713-104.948-29.391v33.776l121.553 33.566a450.697 450.697 0 00-15.81-37.813z" fill="#2365A1"/><path d="M167.777 493.891l54.451 21.355v33.802l-49.642-13.789-4.809-41.368z" fill="#2365A1"/><path d="M188.438 66.77V52.346l6.01-7.072h9.971l5.799 7.072-.637 14.426-7.213 7.283h-9.193l-4.737-7.283z" fill="#3B89D2"/><path d="M226.701 128.786c4.16-3.2 14.292-7.944 21.539-1.317-3.618 3.59-11.107 7.106-21.539 1.317z" fill="#FFF3F1"/><mask id="a" maskUnits="userSpaceOnUse" x="232" y="122" width="12" height="13"><path d="M242.356 129.563c-.639 2.523-3.674 3.811-6.197 3.172-2.523-.639-3.383-2.914-2.743-5.437.639-2.523 2.535-4.339 5.058-3.7 2.523.64 4.522 3.442 3.882 5.965z" fill="#2C1E25"/></mask><g mask="url(#a)"><path d="M226.606 128.795c4.163-3.209 14.299-7.967 21.544-1.33-3.621 3.599-11.113 7.126-21.544 1.33z" fill="#2C1E25"/></g><path d="M160.509 131.577c2.241-2.944 9.21-7.648 19.155-2.918-2.489 4.672-11.749 9.718-19.155 2.918z" fill="#FFF3F1"/><mask id="b" maskUnits="userSpaceOnUse" x="165" y="125" width="10" height="11"><path d="M173.755 130.5c.187 2.705-.991 4.99-3.696 5.177-2.705.187-4.295-1.786-4.482-4.491-.187-2.705 1.1-5.118 3.805-5.305 2.705-.187 4.186 1.914 4.373 4.619z" fill="#2C1E25"/></mask><g mask="url(#b)"><path d="M160.509 131.589c2.241-2.944 9.21-7.648 19.155-2.918-2.489 4.672-11.749 9.717-19.155 2.918z" fill="#2C1E25"/></g><path d="M180.66 185.532c3.129.979 10.361 3.054 15.249 2.256a11.555 11.555 0 011.968-.135c1.66.078 5.05.086 7.188-.5.713-.196 1.119.839.561 1.436-4.243 4.068-16.29 6.228-19.804 5.128-2.963-.896-5.001-4.732-5.96-6.988-.294-.64.193-1.357.798-1.197z" fill="#2C1E25"/><mask id="c" maskUnits="userSpaceOnUse" x="0" y="0" width="392" height="1217" fill="#000"><path fill="#fff" d="M0 0h392v1217H0z"/><path fill-rule="evenodd" clip-rule="evenodd" d="M189.203 5.32C168.789 6.843 160.605 15.59 145 32.272c-.667.714-1.348 1.442-2.045 2.184-15.947 17.01-22.653 51.794-24.343 69.913l-1.204.283c-9.286 2.18-15.508 3.641-21.187 6.812-3.568 1.993-10.536 7.567 0 10.466 3.584.986 12.972 1.406 25.631 1.434.784 3.593.576 10.831-4.278 21.547-7.496 16.548-6.223 28.216-3.111 37.762 3.111 9.547 7.849 24.397 7.849 30.125 1.021-3.859 2.144-9.477 3.086-14.194v-.003l.395-1.971a135.852 135.852 0 001.824 5.848c3.98 11.86 6.818 21.27 8.324 28.821-14.386 8.821-33.243 19.702-41.695 22.233-11.145 3.338-22.888 7.567-27.367 9.264.082.009.166.019.252.031-2.084 1.422-6.325 5.941-10.155 15.31-.756 1.849-1.842 3.994-3.153 6.586-7.767 15.347-23.47 46.378-25.77 124.66-1.519 51.747-1.976 84.475-2.29 107.021-.242 17.323-.4 28.635-.892 37.944-.246 4.67-.664 9.169-1.084 13.692-.685 7.369-1.375 14.8-1.34 23.137a56.835 56.835 0 00-3.233 1.006L5 605.759l13.012 12.87c1.94-.702 4.239-1.491 6.796-2.317.59 3.27 1.312 6.697 2.185 10.305 3.847 14.992 5.563 27.414 5.94 31.751a26.835 26.835 0 012.099-2.176c.579 5.756.38 15.173-2.524 27.988-5.303 23.406-.636 43.136 12.234 48.369 10.138 4.122 26.99 7.366 35.933-4.784.38 16 .903 33.999 1.586 52.873-7.483 43.239-17.747 112.4-20.55 168.299-.814 16.262-1.7 29.723-2.436 40.909-3.16 48.014-3.56 54.114 16.226 59.794 9.917 2.84 17.248 1.13 22.363-2.12-.35 8.37 2.613 24.25 17.379 27.58 1.304.29 2.797.64 4.47 1.03l.022.01c3.489.82 7.756 1.82 12.702 2.87 2.825 15.23 3.812 44.88-11.255 64.82-20.366 26.94-32.246 44.48-23.901 61.16 8.344 16.69 48.439-1.91 51.975-13.36 1.959-6.35 4.918-14.63 10.115-24.45 1.286 3.69 2.662 8.2 3.035 11.3 4.922 0 10.254-2.5 12.305-3.75-.224-6.99-.031-22.22 2.128-33.93l.066-.09c2.815-3.42 5.728-10.53 0-38.82-.894-4.41-.823-8.34-.751-12.29.025-1.39.05-2.78.034-4.2 17.301 1.3 36.965 1.23 57.793-1.82-.266 7.38-1.716 16.97-5.801 26.8-6.181 14.86-7.528 22.75-1.483 30.62 1.865 8.9 5.271 22.78 8.481 28.43 3.734 6.56 15.133 5.8 20.366 4.59l-.765-10.53c11.594 8.7 22.316 17.36 26.861 23.68 6.859 9.55 28.427 19.09 42.499 9.55 11.258-7.64 1.061-24.63-5.445-32.18-13.813-9.94-42.061-36.7-44.55-64.14-1.361-15-1.544-26.03-1.26-33.55.185-.76.333-1.55.448-2.39 7.19-2.66 18.308-5.33 30.22-4.21 20.295 1.91 63.431-8.42 78.917-33.94-.13-1.07-.829-4.22-1.946-9.26-7.698-34.72-35.277-159.108-34.082-310.835 8.937.672 17.984-3.121 23.608-16.91 7.418-18.189 7.019-47.047 5.556-63.433l.666.182h.001l.001.001c1.647.451 3.037.831 4.076 1.062 1.202-8.279-.79-27.429-3.595-46.498a14.991 14.991 0 004.941-3.993c7.001-8.627 6.364-21.427-2.051-24.962-2.352-.858-5.104-1.485-8.112-1.923l-.093-.481c2.758-23.689-10.324-95.96-13.153-106.072-2.828-10.112-8.485-36.559-8.697-54.875-.213-18.315-4.668-37.549-7.496-49.075-2.506-10.212-7.621-55.78-9.738-74.647l-.001-.002v-.006l-.001-.002c-.272-2.424-.494-4.407-.655-5.817-1.131-9.892-13.183-11.006-19.08-10.326l-.005-.003c-19.376-3.324-35.616-11.22-44.055-15.982l-.003.007-.003-.006a82.446 82.446 0 01-11.58-6.848c1.199-4.265 3.137-8.853 6.061-13.795 2.859-3.926 7.032-12.128 8.011-21.605 1.926 2.493 3.585 8.339 3.585 20.543 0 8.203 8.886 16.005 14.001 19.376-1.178-2.027-2.361-8.273 2.334-17.042 5.311-9.918-1.595-17.984-5.21-22.205-.38-.444-.724-.845-1.013-1.202-2.659-3.278-6.13-8.99-5.587-19.029 3.891-1.127 7.011.173 9.414 3.681.142-6.011-4.101-11.668-7.637-12.87-5.77-1.962-13.365-26.028-15.792-38.576.058-2.893-.159-5.744-.817-8.206 15.543-2.634 28.073-5.675 32.799-8.163 9.405-4.95 0-10.112-7.354-10.254-5.883-.113-19.659-.707-25.811-.99l-.338.01-.053-.614c-.653-7.54-1.673-19.317-5.512-32.233l.019-.002c-3.422-11.508-9.081-23.92-18.713-35.046C224.44 10.15 213.67 4.998 197.063 5c-2.479 0-5.088.114-7.86.32zm60.246 214.285c.411-3.443.989-6.78 1.541-9.966.431-2.487.846-4.882 1.153-7.163 1.36-10.114-2.4-16.934-5.67-20.359-3.289 9.229-7.162 15.121-11.41 18.742l.044 1.323c2.139 4.04 6.884 10.734 14.342 17.423zm-100.541-33.14c1.966 5.263 4.175 9.747 6.639 12.969.384.537.77 1.054 1.158 1.551l-1.998 7.216.012.012-.016-.006a88.691 88.691 0 00-2.807 3.325c1.118-4.803.966-9.897-1.792-14.642-1.968-3.387-1.972-7.14-1.196-10.425zm-1.004 30.254a207.053 207.053 0 00-6.159 8.838c.441-4.902.271-10.594-.763-18.484-.501-3.225-.333-6.62.279-10.026 3.114 4.848 6.197 11.757 6.643 19.672zM314.31 518.14c-15.913-28.171-11.628-73.773-6.956-96.057 4.259 34.346 11.924 80.027 19.075 119.348-4.157-8.645-8.271-16.48-12.119-23.291z"/></mask><path d="M145 32.271l-3.651-3.416L145 32.271zm44.203-26.95l.371 4.986-.371-4.986zm-46.248 29.134l3.648 3.42-3.648-3.42zm-24.343 69.913l1.143 4.868a5.002 5.002 0 003.835-4.403l-4.978-.465zm-1.204.283l1.143 4.868v-.001l-1.143-4.867zm-21.187 6.812l-2.437-4.365 2.437 4.365zm0 10.466l-1.326 4.821 1.326-4.821zm25.631 1.434l4.885-1.067a5 5 0 00-4.874-3.933l-.011 5zm-4.278 21.547l4.555 2.064-4.555-2.064zm-3.111 37.762l4.753-1.549-4.753 1.549zm7.849 30.125h-5a5 5 0 009.833 1.279l-4.833-1.279zm3.086-14.194l4.903.98.001-.006-4.904-.974zm0-.003l-4.903-.979-.001.006 4.904.973zm.395-1.971l4.807-1.375a4.999 4.999 0 00-9.709.39l4.902.985zm1.824 5.848l-4.74 1.591 4.74-1.591zm8.324 28.821l2.614 4.262a5 5 0 002.29-5.241l-4.904.979zm-41.695 22.233l-1.435-4.789 1.434 4.789zm-27.367 9.264l-1.772-4.676a5 5 0 001.227 9.646l.545-4.97zm.252.031l2.82 4.129a5 5 0 00-2.162-9.086l-.658 4.957zm-10.155 15.31l-4.628-1.893v.001l4.628 1.892zm-3.153 6.586l-4.462-2.258 4.462 2.258zm-25.77 124.66l-4.997-.147 4.998.147zm-2.29 107.021l5 .07-5-.07zm-.892 37.944l4.994.264-4.993-.264zm-1.084 13.692l-4.979-.463 4.979.463zm-1.34 23.137l1.351 4.814a5.001 5.001 0 003.65-4.836l-5 .022zm-3.233 1.006l-1.631-4.727a5.005 5.005 0 00-1.823 1.111l3.454 3.616zM5 605.759l-3.454-3.615a5 5 0 00-.062 7.17L5 605.759zm13.012 12.87l-3.517 3.555a4.998 4.998 0 005.22 1.146l-1.703-4.701zm6.796-2.317l4.92-.888a4.997 4.997 0 00-6.456-3.87l1.536 4.758zm2.185 10.305l-4.86 1.176.017.067 4.843-1.243zm5.94 31.751l-4.981.434a5 5 0 008.783 2.814l-3.802-3.248zm2.099-2.176l4.974-.501a4.999 4.999 0 00-8.384-3.156l3.41 3.657zm-2.524 27.988l-4.876-1.105 4.876 1.105zm12.234 48.369l-1.883 4.631 1.883-4.631zm35.933-4.784l4.999-.118a5 5 0 00-9.025-2.846l4.026 2.964zm1.586 52.873l4.927.852c.059-.341.082-.687.07-1.033l-4.997.181zM61.71 948.937l-4.993-.25 4.994.25zm-2.436 40.909l4.99.328-4.99-.328zm16.226 59.794l1.38-4.81-1.38 4.81zm22.363-2.12l4.996.21a4.999 4.999 0 00-7.677-4.43l2.681 4.22zm17.379 27.58l-1.098 4.87h.001l1.097-4.87zm4.47 1.03l-1.142 4.87h.004l1.138-4.87zm.022.01l1.142-4.87h-.004l-1.138 4.87zm12.702 2.87l4.916-.92a4.999 4.999 0 00-3.878-3.97l-1.038 4.89zm-11.255 64.82l-3.988-3.02 3.988 3.02zm-23.901 61.16l-4.472 2.24 4.472-2.24zm51.975-13.36l-4.778-1.48 4.778 1.48zm10.115-24.45l4.721-1.64a4.996 4.996 0 00-4.343-3.34 4.991 4.991 0 00-4.797 2.64l4.419 2.34zm3.035 11.3l-4.964.6a5 5 0 004.964 4.4v-5zm12.305-3.75l2.601 4.27a5.004 5.004 0 002.396-4.43l-4.997.16zm2.128-33.93l-3.909-3.12c-.513.64-.859 1.4-1.008 2.21l4.917.91zm.066-.09l-3.862-3.17-.047.06 3.909 3.11zm0-38.82l4.901-.99-4.901.99zm-.751-12.29l4.999.09-4.999-.09zm.034-4.2l.373-4.99a5.05 5.05 0 00-3.795 1.34 5.017 5.017 0 00-1.578 3.71l5-.06zm57.793-1.82l4.996.18a4.994 4.994 0 00-1.659-3.9 5.022 5.022 0 00-4.061-1.23l.724 4.95zm-5.801 26.8l4.616 1.92-4.616-1.92zm-1.483 30.62l4.893-1.02a4.949 4.949 0 00-.927-2.02l-3.966 3.04zm8.481 28.43l4.346-2.48-4.346 2.48zm20.366 4.59l1.119 4.88a5.012 5.012 0 003.868-5.24l-4.987.36zm-.765-10.53l3.001-3.99a4.99 4.99 0 00-5.397-.39 4.995 4.995 0 00-2.591 4.75l4.987-.37zm26.861 23.68l-4.061 2.92 4.061-2.92zm42.499 9.55l2.807 4.14-2.807-4.14zm-5.445-32.18l3.787-3.26c-.257-.3-.547-.57-.865-.79l-2.922 4.05zm-44.55-64.14l-4.98.46 4.98-.46zm-1.26-33.55l-4.857-1.19c-.08.33-.127.67-.14 1l4.997.19zm.448-2.39l-1.738-4.69a4.997 4.997 0 00-3.216 4.01l4.954.68zm30.22-4.21l-.469 4.98.469-4.98zm78.917-33.94l4.275 2.59c.582-.96.824-2.09.688-3.2l-4.963.61zm-1.946-9.26l-4.882 1.08 4.882-1.08zm-34.082-310.835l.375-4.986a5.001 5.001 0 00-5.375 4.947l5 .039zm23.608-16.91l4.629 1.888-4.629-1.888zm5.556-63.433l1.32-4.823a5.002 5.002 0 00-6.3 5.268l4.98-.445zm.666.182l-1.319 4.823c.078.021.156.041.235.058l1.084-4.881zm.001 0l1.581-4.743a5.276 5.276 0 00-.496-.138l-1.085 4.881zm.001.001l-1.581 4.743c.086.029.173.055.261.079l1.32-4.822zm4.076 1.062l-1.084 4.881a5.002 5.002 0 006.033-4.163l-4.949-.718zm-3.595-46.498l-2.246-4.468a5 5 0 00-2.701 5.196l4.947-.728zm4.941-3.993l-3.883-3.151 3.883 3.151zm-2.051-24.962l1.937-4.61a6.068 6.068 0 00-.223-.088l-1.714 4.698zm-8.112-1.923l-4.909.948a4.999 4.999 0 004.188 3.999l.721-4.947zm-.093-.481l-4.966-.578a5.01 5.01 0 00.057 1.526l4.909-.948zm-21.85-160.947l-5 .058 5-.058zm-7.496-49.075l4.856-1.192-4.856 1.192zm-9.738-74.647l4.968-.558-.01-.089-4.958.647zm-.001-.002l-4.967.57.009.076 4.958-.646zm0-.006l-4.98.453.012.117 4.968-.57zm-.001-.002l4.98-.453a3.736 3.736 0 00-.011-.105l-4.969.558zm-.655-5.817l-4.968.568 4.968-.568zm-19.08-10.326l-3.201 3.842a5.007 5.007 0 003.774 1.126l-.573-4.968zm-.005-.003l3.201-3.841a4.985 4.985 0 00-2.355-1.087l-.846 4.928zm-44.055-15.982l2.457-4.354a5 5 0 00-7.095 2.486l4.638 1.868zm-.003.007l-4.316 2.524a5.001 5.001 0 008.954-.656l-4.638-1.868zm-.003-.006l4.316-2.523a4.988 4.988 0 00-2.132-1.974l-2.184 4.497zm-11.58-6.848l-4.813-1.353a4.999 4.999 0 001.926 5.435l2.887-4.082zm6.061-13.795l-4.042-2.944a4.963 4.963 0 00-.262.398l4.304 2.546zm8.011-21.605l3.956-3.057a4.999 4.999 0 00-8.93 2.544l4.974.513zm17.586 39.919l-2.751 4.175a5 5 0 007.074-6.688l-4.323 2.513zm2.334-17.042l4.408 2.36-4.408-2.36zm-5.21-22.205l3.798-3.252-3.798 3.252zm-1.013-1.202l3.883-3.15-3.883 3.15zm-5.587-19.029l-1.391-4.802a5 5 0 00-3.601 4.532l4.992.27zm9.414 3.681l-4.124 2.826a5 5 0 009.123-2.709l-4.999-.117zm-7.637-12.87l-1.609 4.733 1.609-4.733zm-15.792-38.576l-4.999-.1a5 5 0 00.09 1.05l4.909-.95zm-.817-8.206l-.835-4.93a5.002 5.002 0 00-3.995 6.221l4.83-1.291zm32.799-8.163l-2.328-4.424 2.328 4.424zm-7.354-10.254l-.096 5 .096-5zm-25.811-.99l.23-4.994a5.074 5.074 0 00-.368-.004l.138 4.998zm-.338.01l-4.981.432a5 5 0 005.119 4.566l-.138-4.998zm-.053-.614l-4.981.431 4.981-.431zm-5.512-32.233l-.575-4.967a4.998 4.998 0 00-4.218 6.392l4.793-1.425zm.019-.002l.574 4.967a5 5 0 004.218-6.392l-4.792 1.425zm-18.713-35.046l-3.78 3.273 3.78-3.273zM197.063 5l-.001 5h.002l-.001-5zm53.927 204.639l-4.926-.854 4.926.854zm-1.541 9.966l-3.338 3.722a5 5 0 008.303-3.129l-4.965-.593zm2.694-17.129l-4.956-.666 4.956.666zm-5.67-20.359l3.616-3.453a4.998 4.998 0 00-8.326 1.775l4.71 1.678zm-11.41 18.742l-3.244-3.805a5.001 5.001 0 00-1.753 3.971l4.997-.166zm.044 1.323l-4.998.165a5 5 0 00.579 2.174l4.419-2.339zm-79.56-2.748l4.069-2.907-.097-.131-3.972 3.038zm-6.639-12.969l4.683-1.75a5 5 0 00-9.549.601l4.866 1.149zm7.797 14.52l4.819 1.334a5.002 5.002 0 00-.881-4.416l-3.938 3.082zm-1.998 7.216l-4.819-1.335a5.002 5.002 0 001.248 4.835l3.571-3.5zm.012.012l-1.758 4.681a5.001 5.001 0 005.329-8.181l-3.571 3.5zm-.016-.006l1.759-4.681a5 5 0 00-5.487 1.35l3.728 3.331zm-2.807 3.325l-4.87-1.134a5 5 0 008.761 4.275l-3.891-3.141zm-1.792-14.642l4.323-2.513-4.323 2.513zm-8.359 28.667l-4.98-.448a5 5 0 009.153 3.203l-4.173-2.755zm6.159-8.838l4.023 2.969a5.001 5.001 0 00.969-3.25l-4.992.281zm-6.922-9.646l4.958-.65a4.787 4.787 0 00-.017-.118l-4.941.768zm.279-10.026l4.206-2.703a5 5 0 00-9.128 1.819l4.922.884zm166.093 225.036l4.962-.615a4.999 4.999 0 00-9.855-.411l4.893 1.026zm6.956 96.057l4.354-2.459-4.354 2.459zm12.119 23.291l-4.507 2.166a5 5 0 009.426-3.061l-4.919.895zM148.651 35.687c7.921-8.467 13.468-14.359 19.463-18.444 5.743-3.914 12.028-6.233 21.46-6.936l-.743-9.972c-10.981.818-18.995 3.633-26.349 8.644-7.101 4.84-13.449 11.663-21.133 19.877l7.302 6.831zm-2.048 2.188l2.048-2.188-7.302-6.831-2.041 2.18 7.295 6.84zm-23.013 66.958c.821-8.799 2.869-21.696 6.641-34.416 3.808-12.84 9.199-24.89 16.372-32.542l-7.295-6.84c-8.774 9.36-14.71 23.205-18.664 36.54-3.991 13.454-6.141 27.008-7.011 36.329l9.957.929zm-5.039 4.685l1.204-.282-2.287-9.735-1.203.282 2.286 9.735zm-19.892 6.311c4.946-2.762 10.418-4.086 19.892-6.31l-2.286-9.736c-9.098 2.136-16.069 3.734-22.481 7.315l4.875 8.731zm-1.111 1.279c-1.07-.294-1.745-.577-2.14-.788-.401-.215-.385-.287-.236-.102.188.235.412.664.46 1.221.043.508-.083.838-.114.909-.025.059.004-.03.192-.254.179-.214.437-.474.776-.765.69-.59 1.508-1.129 2.173-1.5l-4.876-8.731a23.968 23.968 0 00-3.8 2.635c-1.212 1.037-2.756 2.604-3.637 4.631-1.023 2.354-1.127 5.434 1.031 8.119 1.77 2.203 4.562 3.453 7.518 4.267l2.653-9.642zm24.315 1.255c-6.29-.014-11.707-.125-15.965-.351-4.414-.233-7.148-.573-8.35-.904l-2.653 9.642c2.381.655 6.134 1.018 10.474 1.248 4.497.238 10.102.351 16.472.365l.022-10zm.266 28.611c5.144-11.358 5.69-19.719 4.608-24.678l-9.77 2.133c.486 2.229.617 8.343-3.947 18.418l9.109 4.127zm-2.913 34.149c-2.765-8.485-4.016-18.854 2.913-34.149l-9.109-4.127c-8.063 17.799-6.769 30.766-3.311 41.374l9.507-3.098zm8.096 31.674c0-3.672-1.407-9.492-2.943-14.978-1.605-5.734-3.597-11.922-5.153-16.696l-9.507 3.098c1.555 4.773 3.488 10.783 5.03 16.293 1.611 5.757 2.573 10.226 2.573 12.283h10zm-6.817-15.173c-.954 4.775-2.044 10.218-3.017 13.893l9.667 2.559c1.07-4.041 2.225-9.835 3.156-14.493l-9.806-1.959zm-.001.003v.003l9.808 1.947.001-.003-9.809-1.947zm.397-1.983l-.396 1.977 9.807 1.959c.135-.679.266-1.336.393-1.966l-9.804-1.97zm11.466 5.242a131.447 131.447 0 01-1.757-5.632l-9.614 2.75a140.701 140.701 0 001.891 6.064l9.48-3.182zm8.488 29.433c-1.574-7.884-4.5-17.55-8.488-29.433l-9.48 3.182c3.973 11.837 6.721 20.991 8.161 28.208l9.807-1.957zM95.68 258.321c4.8-1.438 12.062-5.046 19.587-9.161 7.668-4.193 16.056-9.165 23.288-13.6l-5.227-8.525c-7.155 4.387-15.389 9.266-22.859 13.351-7.613 4.164-14.006 7.262-17.658 8.356l2.869 9.579zm-27.03 9.149c4.406-1.669 16.032-5.855 27.03-9.149l-2.869-9.579c-11.291 3.381-23.152 7.652-27.704 9.377l3.544 9.351zm-.861-9.601a16.29 16.29 0 00-.365-.044l-1.09 9.94.14.017 1.315-9.913zm-6.185 22.159c3.608-8.826 7.344-12.389 8.347-13.073l-5.64-8.259c-3.165 2.162-7.91 7.635-11.963 17.547l9.256 3.785zm-3.32 6.952c1.28-2.53 2.471-4.876 3.32-6.952l-9.256-3.784c-.663 1.622-1.643 3.566-2.987 6.22l8.923 4.516zM33.05 409.529c2.276-77.472 17.762-107.786 25.233-122.549l-8.923-4.516C41.3 298.396 25.38 330.142 23.056 409.235l9.995.294zm-2.289 106.944c.315-22.535.771-55.234 2.29-106.944l-9.996-.294c-1.52 51.785-1.978 84.542-2.293 107.099l10 .139zm-.897 38.138c.498-9.43.656-20.856.897-38.138l-9.999-.139c-.242 17.363-.4 28.56-.885 37.749l9.987.528zm-1.1 13.89c.42-4.508.847-9.105 1.1-13.89l-9.986-.528c-.241 4.555-.65 8.957-1.07 13.493l9.956.925zm-1.318 22.653c-.034-8.061.632-15.264 1.318-22.653l-9.957-.925c-.683 7.35-1.397 15.009-1.36 23.621l10-.043zm-6.602 5.755c.938-.324 1.923-.63 2.953-.919l-2.701-9.629c-1.2.337-2.374.701-3.514 1.094l3.262 9.454zM8.454 609.375l14.213-13.578-6.907-7.231-14.214 13.578 6.908 7.231zm13.074 5.699l-13.012-12.87-7.032 7.11 13.011 12.87 7.033-7.11zm1.744-3.52a210.731 210.731 0 00-6.963 2.374l3.405 9.402c1.88-.68 4.123-1.45 6.63-2.26l-3.072-9.516zm8.58 13.888a174.353 174.353 0 01-2.123-10.018l-9.841 1.777c.608 3.369 1.35 6.892 2.245 10.592l9.72-2.351zm6.062 32.493c-.402-4.628-2.167-17.321-6.078-32.56l-9.686 2.485c3.783 14.744 5.45 26.895 5.802 30.942l9.962-.867zm-6.292-5.4a31.75 31.75 0 00-2.491 2.586l7.604 6.495a21.78 21.78 0 011.706-1.766l-6.819-7.315zm5.763 32.75c3.005-13.264 3.262-23.227 2.621-29.594l-9.95 1.002c.518 5.145.378 14.016-2.424 26.382l9.753 2.21zm9.24 42.632c-4.437-1.804-8.077-6.346-9.962-13.942-1.877-7.564-1.807-17.529.722-28.69l-9.753-2.21c-2.775 12.246-3.023 23.848-.675 33.309 2.34 9.428 7.469 17.368 15.902 20.796l3.766-9.263zm30.024-3.116c-3.305 4.489-8.089 6.298-13.639 6.46-5.664.165-11.693-1.436-16.385-3.344l-3.766 9.263c5.446 2.215 12.911 4.296 20.443 4.077 7.646-.223 15.76-2.867 21.4-10.527l-8.053-5.929zm10.609 55.656a4289.141 4289.141 0 01-1.584-52.81l-9.997.237c.38 16.019.903 34.038 1.587 52.934l9.994-.361zM66.706 949.188c2.786-55.594 13.009-124.519 20.482-167.698l-9.854-1.705c-7.494 43.3-17.799 112.697-20.616 168.902l9.988.501zm-2.442 40.986c.736-11.187 1.624-24.682 2.442-40.986l-9.988-.501c-.813 16.219-1.696 29.646-2.432 40.831l9.978.656zm12.616 54.656c-4.847-1.39-7.728-2.63-9.615-4.11-1.654-1.3-2.843-3.04-3.62-6.27-.829-3.45-1.122-8.35-.951-15.69.17-7.28.778-16.54 1.57-28.586l-9.978-.656c-.787 11.962-1.414 21.472-1.59 29.012-.174 7.48.077 13.47 1.226 18.25 1.2 5 3.424 8.86 7.16 11.8 3.506 2.76 7.994 4.41 13.04 5.86l2.758-9.61zm18.303-1.53c-3.815 2.43-9.65 4.01-18.303 1.53l-2.758 9.61c11.183 3.21 20.008 1.38 26.423-2.7l-5.362-8.44zm21.158 26.92c-5.536-1.25-8.878-4.76-10.927-9.14-2.119-4.52-2.705-9.74-2.554-13.35l-9.991-.42c-.2 4.77.521 11.67 3.488 18.01 3.035 6.49 8.558 12.58 17.788 14.65l2.196-9.75zm4.514 1.04c-1.667-.39-3.184-.74-4.514-1.04l-2.195 9.75c1.276.29 2.746.64 4.425 1.03l2.284-9.74zm.018.01l-.022-.01-2.276 9.74.022.01 2.276-9.74zm12.602 2.85c-4.888-1.04-9.109-2.03-12.598-2.85l-2.284 9.74c3.489.81 7.803 1.83 12.806 2.89l2.076-9.78zm-8.304 72.72c8.266-10.93 11.978-24.31 13.319-36.64 1.344-12.37.351-24.08-1.137-32.11l-9.832 1.83c1.338 7.21 2.251 17.94 1.027 29.19-1.226 11.29-4.554 22.7-11.354 31.7l7.977 6.03zm-23.418 55.92c-3.264-6.53-2.838-13.41 1.264-22.44 4.203-9.24 11.902-19.92 22.154-33.48l-7.977-6.03c-10.114 13.38-18.538 24.94-23.28 35.38-4.844 10.65-6.186 20.88-1.105 31.04l8.944-4.47zm42.725-12.61c-.133.44-.604 1.34-1.803 2.64-1.151 1.24-2.751 2.62-4.74 4.02-3.982 2.81-9.164 5.48-14.503 7.33-5.395 1.88-10.555 2.78-14.583 2.44-3.948-.34-6.057-1.74-7.096-3.82l-8.944 4.47c3.133 6.27 9.165 8.8 15.192 9.31 5.947.51 12.596-.83 18.71-2.95 6.17-2.14 12.196-5.23 16.987-8.61 2.397-1.69 4.575-3.51 6.326-5.41 1.703-1.85 3.259-4.03 4.009-6.47l-9.555-2.95zm10.474-25.31c-5.382 10.17-8.45 18.76-10.474 25.31l9.555 2.95c1.895-6.14 4.744-14.11 9.757-23.58l-8.838-4.68zm12.418 13.04c-.444-3.69-1.991-8.65-3.278-12.34l-9.442 3.29c1.286 3.69 2.491 7.74 2.792 10.25l9.928-1.2zm4.739-7.42c-1.709 1.04-6.106 3.02-9.703 3.02v10c6.247 0 12.513-3.02 14.906-4.48l-5.203-8.54zm-.187-30.57c-2.253 12.23-2.437 27.87-2.209 35l9.995-.32c-.219-6.84-.016-21.66 2.048-32.87l-9.834-1.81zm1.074-2.29l-.066.08 7.818 6.24.066-.09-7.818-6.23zm-.991-34.72c5.743 28.36 2.215 33.23 1.038 34.66l7.724 6.35c4.453-5.42 6.751-14.78 1.039-42.99l-9.801 1.98zm-.85-13.37c-.071 3.91-.167 8.35.85 13.37l9.801-1.98c-.772-3.81-.725-7.22-.653-11.21l-9.998-.18zm.033-4.05c.016 1.33-.008 2.65-.033 4.05l9.998.18c.025-1.38.052-2.84.035-4.35l-10 .12zm62.069-6.83c-20.395 2.99-39.684 3.06-56.696 1.78l-.746 9.98c17.59 1.31 37.63 1.25 58.889-1.86l-1.447-9.9zm-.461 33.67c4.36-10.49 5.899-20.69 6.181-28.54l-9.993-.36c-.249 6.91-1.611 15.89-5.421 25.06l9.233 3.84zm-2.133 25.66c-2.285-2.98-3.086-5.71-2.823-9.28.29-3.94 1.879-8.98 4.956-16.38l-9.233-3.84c-3.103 7.46-5.278 13.8-5.696 19.49-.445 6.05 1.104 11.2 4.864 16.1l7.932-6.09zm8.861 28.99c-1.269-2.23-2.787-6.56-4.277-11.87-1.447-5.15-2.739-10.73-3.657-15.1l-9.787 2.05c.948 4.52 2.291 10.33 3.817 15.76 1.481 5.27 3.271 10.7 5.212 14.11l8.692-4.95zm14.9 2.2c-2.201.51-5.763.92-9.026.52-3.443-.41-5.196-1.52-5.874-2.72l-8.692 4.95c3.056 5.37 8.869 7.16 13.368 7.7 4.678.56 9.432-.01 12.463-.7l-2.239-9.75zm-4.632-5.29l.765 10.53 9.974-.73-.765-10.53-9.974.73zm35.908 20.39c-2.635-3.66-6.83-7.73-11.586-11.82-4.824-4.15-10.507-8.56-16.334-12.93l-6.001 7.99c5.765 4.33 11.241 8.59 15.813 12.52 4.64 4 8.078 7.42 9.987 10.08l8.121-5.84zm35.632 8.33c-5.343 3.63-12.53 3.88-19.719 1.73-7.244-2.16-13.289-6.4-15.913-10.06l-8.121 5.84c4.236 5.89 12.405 11.19 21.178 13.81 8.828 2.63 19.461 2.88 28.189-3.04l-5.614-8.28zm-6.424-24.77c3 3.48 6.727 9.03 8.405 14.3.834 2.62 1.044 4.81.726 6.49-.285 1.51-1.022 2.84-2.707 3.98l5.614 8.28c3.944-2.68 6.154-6.34 6.92-10.4.733-3.89.099-7.85-1.023-11.38-2.232-7.02-6.857-13.74-10.362-17.8l-7.573 6.53zm-45.744-66.95c1.375 15.15 9.759 29.63 19.106 41.3 9.413 11.75 20.269 21.23 27.502 26.44l5.844-8.11c-6.579-4.74-16.753-13.61-25.541-24.58-8.852-11.06-15.837-23.67-16.951-35.96l-9.96.91zm-1.277-34.2c-.293 7.77-.099 19.02 1.277 34.2l9.96-.91c-1.346-14.83-1.518-25.64-1.244-32.91l-9.993-.38zm.491-2.88a18.14 18.14 0 01-.351 1.88l9.713 2.38c.233-.95.41-1.92.545-2.9l-9.907-1.36zm35.642-8.51c-12.876-1.21-24.769 1.66-32.426 4.5l3.475 9.38c6.723-2.49 17.066-4.95 28.014-3.92l.937-9.96zm74.174-31.56c-6.889 11.36-20.3 19.79-35.085 25.16-14.735 5.34-29.841 7.27-39.089 6.4l-.937 9.96c11.048 1.04 27.657-1.24 43.436-6.96 15.728-5.71 31.628-15.2 40.225-29.37l-8.55-5.19zm-2.553-5.58c1.165 5.25 1.773 8.03 1.865 8.78l9.926-1.21c-.168-1.38-.957-4.91-2.028-9.74l-9.763 2.17zm-34.2-311.954c-1.2 152.305 26.481 277.137 34.2 311.954l9.763-2.17c-7.675-34.614-35.154-158.557-33.963-309.705l-10-.079zm23.978-18.759c-2.517 6.17-5.6 9.635-8.609 11.543-2.998 1.901-6.372 2.542-9.994 2.269l-.75 9.972c5.314.4 10.933-.52 16.098-3.795 5.155-3.268 9.407-8.595 12.514-16.213l-9.259-3.776zm5.206-61.1c.715 8.004 1.169 19.068.54 30.316-.633 11.331-2.346 22.447-5.746 30.784l9.259 3.776c4.018-9.852 5.815-22.259 6.471-34.002.661-11.824.185-23.382-.563-31.764l-9.961.89zm6.965-5.086l-.665-.182-2.639 9.646.666.182 2.638-9.646zm-.233-.058h-.001l-2.169 9.762 2.17-9.762zm.497.138h-.001l-3.162 9.487h.001l3.162-9.487zm3.58.925c-.893-.199-2.144-.54-3.841-1.004l-2.64 9.645c1.598.438 3.125.857 4.312 1.121l2.169-9.762zm-9.627-40.889c1.394 9.477 2.578 18.923 3.265 26.991.7 8.218.838 14.553.329 18.061l9.897 1.436c.692-4.772.436-12.151-.262-20.345-.71-8.344-1.925-18.007-3.336-27.599l-9.893 1.456zm6.005-7.872a9.959 9.959 0 01-3.304 2.676l4.491 8.935a19.963 19.963 0 006.578-5.309l-7.765-6.302zm-.105-17.202c2.008.844 3.514 2.918 3.756 6.318.243 3.413-.924 7.525-3.651 10.884l7.765 6.302c4.275-5.268 6.29-11.87 5.861-17.896-.43-6.042-3.45-12.135-9.857-14.827l-3.874 9.219zm-6.896-1.585c2.789.407 5.186.968 7.12 1.673l3.427-9.395c-2.771-1.01-5.879-1.703-9.104-2.173l-1.443 9.895zm-4.281-4.48l.093.481 9.818-1.896-.092-.481-9.819 1.896zm-13.059-105.673c1.32 4.716 5.26 25.026 8.54 47.325 1.631 11.09 3.082 22.553 3.953 32.683.88 10.234 1.135 18.757.509 24.139l9.933 1.156c.752-6.463.407-15.857-.479-26.152-.894-10.4-2.374-22.078-4.022-33.281-3.279-22.286-7.294-43.168-8.803-48.564l-9.631 2.694zm-8.882-56.164c.219 18.943 6.003 45.869 8.882 56.164l9.631-2.694c-2.778-9.929-8.309-35.898-8.514-53.585l-9.999.115zm-7.352-47.942c2.828 11.525 7.147 30.261 7.352 47.942l9.999-.115c-.219-18.949-4.81-38.682-7.639-50.21l-9.712 2.383zm-9.851-75.28c1.058 9.43 2.869 25.565 4.73 40.624 1.838 14.881 3.78 29.191 5.121 34.656l9.712-2.383c-1.165-4.747-3.034-18.327-4.909-33.499-1.852-14.995-3.657-31.077-4.717-40.514l-9.937 1.116zm.01.086l.001.003 9.916-1.294-.001-.002-9.916 1.293zm-.01-.082l.001.006 9.935-1.14-.001-.006-9.935 1.14zm-.012-.119v.002l9.959-.906v-.002l-9.959.906zm-.644-5.702c.16 1.403.382 3.38.655 5.807l9.937-1.116c-.272-2.422-.495-4.411-.657-5.826l-9.935 1.135zm-13.539-5.926c2.437-.282 6.088-.158 9.03.924 2.767 1.017 4.227 2.534 4.509 5.002l9.935-1.135c-.848-7.425-5.98-11.411-10.995-13.254-4.841-1.778-10.165-1.871-13.625-1.472l1.146 9.935zm-3.779-1.13l.005.004 6.402-7.683-.005-.003-6.402 7.682zm-43.311-15.468c8.71 4.914 25.514 13.098 45.667 16.555l1.691-9.856c-18.599-3.191-34.277-10.8-42.444-15.408l-4.914 8.709zm7.092-2.48l.003-.007-9.276-3.736-.003.007 9.276 3.736zm-8.957.65l.003.006 8.633-5.048-.004-.005-8.632 5.047zm-10.151-5.29a87.481 87.481 0 0012.283 7.264l4.368-8.995a77.51 77.51 0 01-10.877-6.433l-5.774 8.164zm4.644-20.423c-3.122 5.279-5.243 10.265-6.57 14.988l9.627 2.706c1.07-3.807 2.826-7.997 5.55-12.603l-8.607-5.091zm7.341-19.572c-.873 8.455-4.647 15.835-7.079 19.174l8.084 5.887c3.286-4.512 7.858-13.535 8.942-24.034l-9.947-1.027zm13.559 21.056c0-6.3-.426-11.163-1.166-14.888-.726-3.653-1.827-6.596-3.463-8.712l-7.912 6.115c.29.376.981 1.602 1.567 4.546.57 2.872.974 7.035.974 12.939h10zm11.753 15.201c-2.257-1.487-5.364-3.975-7.846-6.921-2.566-3.047-3.907-5.918-3.907-8.28h-10c0 5.842 3.102 10.973 6.258 14.721 3.241 3.848 7.134 6.947 9.992 8.83l5.503-8.35zm-4.826-15.227c-5.259 9.821-4.54 17.974-2.248 21.915l8.645-5.026c.026.044-.475-.995-.365-3.233.105-2.112.756-5.149 2.784-8.936l-8.816-4.72zm-4.6-16.593c1.855 2.167 3.942 4.659 5.108 7.572 1.068 2.668 1.33 5.589-.508 9.021l8.816 4.72c3.473-6.486 2.937-12.557.976-17.457-1.863-4.655-5.037-8.306-6.796-10.36l-7.596 6.504zm-1.098-1.303c.34.418.731.874 1.098 1.303l7.596-6.504a56.95 56.95 0 01-.928-1.1l-7.766 6.301zm-6.696-22.45c-.625 11.53 3.431 18.425 6.696 22.45l7.766-6.301c-2.054-2.531-4.94-7.06-4.477-15.608l-9.985-.541zm18.531 1.124c-1.602-2.337-3.703-4.316-6.428-5.399-2.771-1.101-5.683-1.074-8.502-.257l2.783 9.605c1.072-.311 1.664-.198 2.027-.054.409.162 1.069.587 1.871 1.758l8.249-5.653zm-13.371-5.31c.317.108 1.465.831 2.598 2.597 1.056 1.648 1.693 3.598 1.65 5.422l9.997.235c.099-4.187-1.316-8.07-3.229-11.055-1.838-2.865-4.578-5.572-7.797-6.666l-3.219 9.467zm-19.092-42.359c1.267 6.552 3.849 15.972 6.867 24.056 1.506 4.034 3.181 7.9 4.934 10.963.874 1.527 1.843 2.988 2.908 4.201 1 1.137 2.451 2.483 4.383 3.139l3.219-9.467c.489.166.44.33-.089-.273-.464-.527-1.055-1.367-1.742-2.568-1.37-2.394-2.827-5.696-4.245-9.492-2.828-7.576-5.257-16.463-6.417-22.458l-9.818 1.899zm-.738-7.865c.494 1.848.701 4.189.648 6.815l9.998.201c.064-3.162-.163-6.522-.985-9.597l-9.661 2.581zm35.301-13.878c-1.772.932-5.553 2.197-11.215 3.597-5.512 1.362-12.403 2.757-20.091 4.06l1.671 9.86c7.854-1.331 15-2.774 20.82-4.213 5.67-1.401 10.517-2.9 13.472-4.455l-4.657-8.849zm-5.122-.83c1.312.025 2.786.282 4.11.716 1.386.456 2.229.981 2.563 1.288.148.137.019.069-.113-.257a2.399 2.399 0 01-.077-1.492c.131-.475.333-.603.156-.43-.182.178-.626.536-1.517 1.005l4.657 8.849c2.71-1.426 5.454-3.538 6.344-6.766 1.024-3.713-.91-6.64-2.68-8.269-1.761-1.62-4.06-2.721-6.212-3.428-2.214-.727-4.674-1.17-7.039-1.215l-.192 9.999zm-25.944-.995c6.133.282 19.98.88 25.944.995l.192-9.999c-5.803-.111-19.506-.702-25.677-.985l-.459 9.989zm.029.013l.338-.009-.276-9.997-.337.01.275 9.996zm-5.172-5.18l.053.614 9.963-.864-.053-.614-9.963.864zm-5.324-31.24c3.681 12.385 4.672 23.714 5.324 31.24l9.963-.864c-.655-7.554-1.704-19.778-5.702-33.226l-9.585 2.85zm4.237-6.394l-.019.002 1.149 9.934.019-.002-1.149-9.934zm-21.918-26.806c9.055 10.459 14.426 22.185 17.7 33.198l9.585-2.85c-3.568-12.002-9.515-25.1-19.725-36.894l-7.56 6.546zM197.064 10c7.736 0 13.738 1.189 19.477 4.167 5.836 3.028 11.774 8.098 19.038 16.49l7.56-6.546c-7.655-8.843-14.562-14.965-21.992-18.82C213.619 1.383 205.933-.002 197.062 0l.002 10zm-7.49.307c2.68-.2 5.162-.307 7.488-.307l.002-10c-2.631 0-5.368.121-8.233.335l.743 9.972zm56.49 198.478c-.549 3.168-1.15 6.633-1.579 10.228l9.929 1.185c.393-3.292.948-6.502 1.503-9.706l-9.853-1.707zm1.123-6.975c-.292 2.17-.689 4.468-1.123 6.975l9.853 1.707c.427-2.467.859-4.957 1.181-7.349l-9.911-1.333zm-4.33-16.24c2.323 2.433 5.47 7.772 4.33 16.24l9.911 1.333c1.582-11.761-2.793-20.063-7.009-24.479l-7.232 6.906zm-4.55 19.094c5.145-4.386 9.415-11.157 12.876-20.868l-9.42-3.357c-3.116 8.745-6.593 13.759-9.944 16.615l6.488 7.61zm1.797-2.648l-.044-1.322-9.994.331.043 1.322 9.995-.331zm12.684 13.867c-7.052-6.325-11.419-12.558-13.262-16.041l-8.838 4.679c2.434 4.598 7.557 11.752 15.423 18.806l6.677-7.444zm-93.269-19.487c-2.035-2.66-4.038-6.625-5.928-11.681l-9.367 3.501c2.044 5.469 4.459 10.472 7.351 14.255l7.944-6.075zm1.124 1.507a38.219 38.219 0 01-1.027-1.376l-8.138 5.813c.424.593.853 1.169 1.29 1.726l7.875-6.163zm-1.117 11.632l1.998-7.216-9.637-2.669-1.999 7.216 9.638 2.669zm-1.236-4.822l-.012-.012-7.142 7 .012.012 7.142-7zm-5.345 8.175l.016.006 3.517-9.362-.016-.006-3.517 9.362zm2.842 1.785a82.017 82.017 0 012.645-3.134l-7.457-6.663a92.902 92.902 0 00-2.97 3.516l7.782 6.281zm-10.006-15.271c1.947 3.35 2.162 7.058 1.245 10.996l9.74 2.268c1.32-5.667 1.23-12.148-2.339-18.289l-8.646 5.025zm-1.739-14.086c-.958 4.056-1.081 9.234 1.739 14.086l8.646-5.025c-1.117-1.921-1.247-4.25-.653-6.763l-9.732-2.298zm1.876 42.996a201.952 201.952 0 016.009-8.624l-8.046-5.937a210.618 210.618 0 00-6.309 9.052l8.346 5.509zm-9.893-20.589c1.003 7.657 1.138 12.961.74 17.386l9.96.897c.484-5.381.28-11.46-.785-19.583l-9.915 1.3zm.314-11.56c-.682 3.8-.905 7.771-.297 11.679l9.881-1.537c-.396-2.543-.282-5.361.259-8.374l-9.843-1.768zm16.557 20.275c-.508-9.013-3.995-16.75-7.429-22.094l-8.413 5.406c2.796 4.352 5.474 10.434 5.858 17.251l9.984-.563zm149.565 204.619c-2.401 11.45-4.69 28.8-4.348 46.941.341 18.042 3.29 37.459 11.844 52.601l8.707-4.918c-7.36-13.029-10.225-30.498-10.552-47.871-.326-17.274 1.864-33.866 4.136-44.7l-9.787-2.053zm28.887 119.479c-7.146-39.296-14.791-84.866-19.032-119.068l-9.924 1.231c4.277 34.489 11.962 80.282 19.117 119.627l9.839-1.79zm-21.391-19.937c3.791 6.713 7.855 14.45 11.965 22.998l9.013-4.333c-4.203-8.741-8.368-16.674-12.271-23.583l-8.707 4.918z" fill="#fff" mask="url(#c)"/></svg>