<svg width="210" height="274" fill="none" xmlns="http://www.w3.org/2000/svg"><path d="M13.133 10.141L210 22.492l-8.521 244.271-180.112 7.219-8.234-263.84z" fill="#2E5A9C"/><path d="M.914.461l196.868 12.351-8.521 248.395-180.112 7.22L.914.461z" fill="#F87980"/><path d="M28.742 40.234c-5.778 0-9.045 3.375-9.045 9.18 0 5.751 2.89 8.883 8.748 8.883 1.188 0 2.484-.108 3.753-.513l.432-4.266-.432-.27c-.972.351-2.349.567-3.32.567-2.377 0-3.457-1.539-3.457-5.022 0-2.997.945-4.158 3.105-4.158 1.026 0 2.376.324 3.321.837l.351-.216.918-4.293a13.026 13.026 0 00-4.374-.729zm16.57 13.716l-.298-.378h-5.157l-.054-1.242.297-11.799h-5.508l.27 12.339-.27 5.13h10.395l.324-4.05zM62.237 58L57.46 40.531h-6.534L45.633 58h5.292l.46-2.916 2.213-.108 2.646.054.027.081.486 2.889h5.481zm-6.804-6.912l-1.512.027-1.512-.027 1.512-5.724h.324l1.188 5.724zm20.195.027c1.836-1.296 2.916-3.159 2.916-5.211 0-3.483-2.214-5.4-6.13-5.4l-8.288.027.27 12.339-.27 5.13h5.427l-.19-5.211h1.81c.729 1.728 1.539 3.429 2.322 5.103l.513.432a22.922 22.922 0 005.427-.999l.08-.594a94.896 94.896 0 01-3.887-5.616zm-2.781-4.671c0 1.296-.432 2.052-1.458 2.511l-1.971-.108.108-4.509.972-.081c1.647.081 2.349.729 2.349 2.187zM96.199 58L91.42 40.531h-6.534L79.594 58h5.292l.459-2.916 2.214-.108 2.646.054.027.081.486 2.889h5.481zm-6.804-6.912l-1.512.027-1.512-.027 1.512-5.724h.324l1.188 5.724zM113.127 58l-4.779-17.469h-6.534L96.522 58h5.292l.459-2.916 2.214-.108 2.646.054.027.081.486 2.889h5.481zm-6.804-6.912l-1.512.027-1.512-.027 1.512-5.724h.324l1.188 5.724zm19.711-10.179l-.297-.378h-13.041l-.297 3.942.324.378 3.591-.162h.351l.135 8.181-.27 5.13h5.4l-.216-5.67.135-7.641h.324l3.564.162.297-3.942zm13.272 10.206c1.836-1.296 2.916-3.159 2.916-5.211 0-3.483-2.214-5.4-6.129-5.4l-8.289.027.27 12.339-.27 5.13h5.427l-.189-5.211h1.809c.729 1.728 1.539 3.429 2.322 5.103l.513.432a22.922 22.922 0 005.427-.999l.081-.594a94.896 94.896 0 01-3.888-5.616zm-2.781-4.671c0 1.296-.432 2.052-1.458 2.511l-1.971-.108.108-4.509.972-.081c1.647.081 2.349.729 2.349 2.187zm15.635-6.237c-5.562 0-8.748 3.402-8.748 9.369 0 5.562 2.889 8.748 7.965 8.748 5.562 0 8.748-3.456 8.748-9.504 0-5.481-2.889-8.613-7.965-8.613zm-.486 4.32c2.187 0 2.781 1.107 2.781 5.454 0 3.456-.567 4.347-2.592 4.347-2.187 0-2.781-1.107-2.781-5.481 0-3.429.567-4.32 2.592-4.32zm26.172 7.776l.297-11.88-4.968.297.162 9.153h-.324l-4.914-9.342h-5.886l.27 12.339-.27 5.13h4.914l-.216-6.318.027-3.024h.324L172.176 58h5.886l-.216-5.697zM49.784 224.912c2.08 0 3.783.468 5.109 1.404 1.326.91 1.989 2.197 1.989 3.861 0 1.066-.325 2.197-.975 3.393-.624 1.17-1.69 2.509-3.198 4.017l-1.716 1.716.117.195h3.003l3.783-.39.39.468-.858 6.006-5.616-.312h-8.97l-1.404.117-.351-.273v-4.602l4.992-4.29c1.066-.962 1.859-1.755 2.379-2.379.546-.624.819-1.157.819-1.599 0-.598-.455-.897-1.365-.897-.702 0-1.495.182-2.38.546a10.6 10.6 0 00-2.534 1.404h-.82l-1.286-5.928c3.224-1.638 6.188-2.457 8.892-2.457zm24.609 1.131l-.117 4.524h2.652l4.524-.117.429.546-.468 5.694-5.031-.117H74.12v.507l.312 8.19h-7.84l.39-7.41-.39-17.823h16.849l.429.546-.507 5.694-6.24-.234h-2.73zm21.944.78c.338 0 .637.026.897.078v6.825l-.74.234c-.339-.208-.807-.312-1.405-.312-.572 0-1.183.13-1.833.39a6.578 6.578 0 00-1.755 1.092v1.95l.312 8.19h-7.605l.351-7.41-.273-10.569 7.215-.507v3.432h.351c1.118-2.262 2.613-3.393 4.485-3.393zm10.656-.429c2.392 0 4.238.494 5.538 1.482 1.3.962 1.95 2.353 1.95 4.173 0 .52-.052 1.898-.156 4.134-.104 1.976-.156 3.081-.156 3.315 0 .286.039.494.117.624a.52.52 0 00.429.195c.182 0 .403-.039.663-.117l.468.39-.663 3.9c-.962.676-2.171 1.066-3.627 1.17a3.626 3.626 0 01-2.028-.78c-.572-.468-1.014-1.131-1.326-1.989h-.273c-1.144 1.326-2.444 2.262-3.9 2.808-1.976-.026-3.562-.572-4.758-1.638-1.17-1.092-1.755-2.574-1.755-4.446 0-2.886 1.495-4.537 4.485-4.953l5.538-.741v-.468c0-.676-.143-1.157-.429-1.443-.26-.286-.728-.429-1.404-.429-1.456 0-3.341.624-5.655 1.872l-.468-.312-.82-4.797a16.867 16.867 0 013.94-1.443 18.932 18.932 0 014.29-.507zm-1.677 11.154c-.364.052-.637.195-.819.429-.156.208-.234.533-.234.975 0 1.04.481 1.56 1.443 1.56.624 0 1.235-.208 1.833-.624v-2.652l-2.223.312zm23.358 7.722l.39-10.296c0-1.586-.611-2.379-1.833-2.379-.598 0-1.209.182-1.833.546v3.939l.312 8.19h-7.605l.351-7.41-.273-10.569 7.215-.507v2.73h.273c1.352-1.352 2.873-2.314 4.563-2.886 1.95 0 3.432.442 4.446 1.326 1.04.884 1.534 2.158 1.482 3.822l-.156 5.304.273 8.19h-7.605zm24.958-10.257c1.222 2.496 2.873 5.499 4.953 9.009l-.039.78c-1.69.338-4.069.65-7.137.936l-.78-.39a60.478 60.478 0 01-3.9-8.697v.429l.312 8.19h-7.605l.351-7.41-.273-19.461 7.566-.507-.312 16.692 2.964-5.538.819-2.184h7.761l-4.68 8.151z" fill="#2C1E25"/><g clip-path="url(#clip0)"><path d="M48.926 101.115l6.896-7.903 6.288-4.953 4.675 2.381 7.898 2.618 6.642 5.302 6.113 7.147.609.867 2.238 2.457 3.12 3.136 1.446 1.684.333.87-.549.283 29.774 31.149 3.054 1.526.478 1.467 1.668.991 7.099 5.02 4.671 2.013 2.7 2.636 2.226 5.263-.474 2.627-14.585 14.944-6.118.028-5.102-7.252-5.951-8.99-1.541-1.867-1.052.519-1.884-3.657-32.086-28.407-.635.744-6.188-5.767-2.18-1.491-.548.374-.424-.868-10.559-9.578-4.105-8.46-3.947-6.853z" fill="#FFF1F0"/><path d="M67.537 126.005l6.202-8.218 8.36-8.565 5.563-4.024.553.085-.22.785-6.61 4.91-8.04 8.424-4.924 7.466-.503.236-.381-1.099zM90.286 109.031l1.612.21 1.022.816.206 1.745-6.604 5.463-3.864 3.773-5.129 5.72-3.117 4.684-1.748.021-1.257-1.226.028-1.519 5.073-6.501 3.995-4.373 5.276-4.94 4.507-3.873zM81.356 127.493l10.2 10.318 3.563 1.751 4.125-1.246 1.636-1.676.459-3.824-1.287-3.71-10.84-10.035-7.856 8.422z" fill="#2C1E25"/><path d="M83.1 127.196l2.198 2.963 6.681-6.659-2.927-2.402-5.952 6.098z" fill="#FFF1F0"/></g><g clip-path="url(#clip1)"><path d="M119.865 80.826l9.137 5.152 6.123 5.154-1.384 5.06-.964 8.265-3.846 7.579-5.762 7.434-.725.771-1.952 2.69-2.44 3.69-1.356 1.758-.785.502-.388-.48-24.471 35.466-.877 3.3-1.339.765-.633 1.834-3.478 7.969-1.025 4.982-2.034 3.178-4.703 3.246-2.669.068-17.588-11.255-1.267-5.986 6.068-6.465 7.598-7.649 1.516-1.887-.72-.925 3.199-2.586 21.318-37.175-.857-.471 4.394-7.228 1.019-2.437-.478-.461.765-.591 7.24-12.28 7.453-5.734 5.911-5.253z" fill="#FFF1F0"/><path d="M99.26 104.093l9.304 4.409 10.082 6.451 5.067 4.633.028.559-.813-.057-6.147-5.479-9.878-6.166-8.309-3.309-.333-.445 1-.596zM120.492 122.931l.12 1.621-.591 1.166-1.668.555-6.687-5.36-4.477-3.02-6.641-3.864-5.218-2.103-.375-1.708.947-1.479 1.492-.281 7.395 3.651 5.091 3.027 5.906 4.165 4.706 3.63zM100.602 117.926l-8.038 12.078-.992 3.844 2.055 3.787 1.973 1.262 3.838-.324 3.372-2.012 7.631-12.648-9.839-5.987z" fill="#2C1E25"/><path d="M101.247 119.574l-2.457 2.753 7.875 5.193 1.76-3.353-7.178-4.593z" fill="#FFF1F0"/></g><path d="M4.945 199.863l193.259-13.591v11.574L5.257 211.084l-.312-11.221z" fill="#2E5A9C"/><path d="M18.402 198.913l-13.488.949.16 11.237 14.059-.964-.73-11.222z" fill="#3F7AD3"/><defs><clipPath id="clip0"><path fill="#fff" transform="rotate(-45.697 146.424 -.878)" d="M0 0h29.793v116.439H0z"/></clipPath><clipPath id="clip1"><path fill="#fff" transform="rotate(32.616 -74.528 236.435)" d="M0 0h29.793v116.439H0z"/></clipPath></defs></svg>