<svg width="213" height="274" viewBox="0 0 213 274" fill="none" xmlns="http://www.w3.org/2000/svg">
<path d="M15.832 9.67969L212.7 22.0307L204.179 266.301L24.0667 273.52L15.832 9.67969Z" fill="#2E5A9C"/>
<path d="M3.61328 0L200.481 12.351L191.96 260.746L11.8479 267.965L3.61328 0Z" fill="#F87980"/>
<path d="M42.3328 42.5826H46.3228L55.4428 42.9246L56.1838 34.6026L55.5568 33.8046H30.9328L31.5028 59.8536L30.9328 70.6836H42.3898L41.9338 58.7136V57.9726H45.2398L52.5928 58.1436L53.2768 49.8216L52.6498 49.0236L46.0378 49.1946H42.1618L42.3328 42.5826ZM80.7192 62.1336L80.0922 61.3356H69.2052L69.0912 58.7136L69.7182 33.8046H58.0902L58.6602 59.8536L58.0902 70.6836H80.0352L80.7192 62.1336ZM113.814 52.5006L114.213 33.8046H102.585L103.098 56.8326C103.155 60.7086 101.673 62.3616 98.0824 62.3616C94.5484 62.3616 93.1234 60.7086 93.1804 56.8326L93.6934 33.8046H82.2364L82.5784 52.5006L82.4074 58.3716C82.1794 66.7506 87.6514 71.3676 97.6264 71.3676C107.943 71.3676 113.7 66.7506 113.757 58.3716L113.814 52.5006ZM131.275 58.7136L131.902 33.8046H120.274L120.844 59.8536L120.274 70.6836H131.731L131.275 58.7136ZM164.742 34.6026L164.115 33.8046H136.584L135.957 42.1266L136.641 42.9246L144.222 42.5826H144.963L145.248 59.8536L144.678 70.6836H156.078L155.622 58.7136L155.907 42.5826H156.591L164.115 42.9246L164.742 34.6026Z" fill="#2C1E25"/>
<path d="M52.483 224.451C54.563 224.451 56.2661 224.919 57.5921 225.855C58.9181 226.765 59.5811 228.052 59.5811 229.716C59.5811 230.782 59.256 231.913 58.606 233.109C57.9821 234.279 56.9161 235.618 55.4081 237.126L53.6921 238.842L53.809 239.037H56.812L60.595 238.647L60.9851 239.115L60.127 245.121L54.5111 244.809H45.541L44.137 244.926L43.786 244.653V240.051L48.778 235.761C49.844 234.799 50.637 234.006 51.157 233.382C51.703 232.758 51.976 232.225 51.976 231.783C51.976 231.185 51.521 230.886 50.611 230.886C49.909 230.886 49.116 231.068 48.232 231.432C47.348 231.77 46.503 232.238 45.697 232.836H44.878L43.591 226.908C46.815 225.27 49.779 224.451 52.483 224.451ZM77.0921 225.582L76.975 230.106H79.627L84.151 229.989L84.5801 230.535L84.1121 236.229L79.0811 236.112H76.8191V236.619L77.131 244.809H69.292L69.682 237.399L69.292 219.576H86.14L86.5691 220.122L86.062 225.816L79.822 225.582H77.0921ZM99.0366 226.362C99.3746 226.362 99.6736 226.388 99.9336 226.44V233.265L99.1926 233.499C98.8546 233.291 98.3866 233.187 97.7886 233.187C97.2166 233.187 96.6056 233.317 95.9556 233.577C95.3316 233.837 94.7466 234.201 94.2006 234.669V236.619L94.5126 244.809H86.9076L87.2586 237.399L86.9856 226.83L94.2006 226.323V229.755H94.5516C95.6696 227.493 97.1646 226.362 99.0366 226.362ZM109.692 225.933C112.084 225.933 113.93 226.427 115.23 227.415C116.53 228.377 117.18 229.768 117.18 231.588C117.18 232.108 117.128 233.486 117.024 235.722C116.92 237.698 116.868 238.803 116.868 239.037C116.868 239.323 116.907 239.531 116.985 239.661C117.089 239.791 117.232 239.856 117.414 239.856C117.596 239.856 117.817 239.817 118.077 239.739L118.545 240.129L117.882 244.029C116.92 244.705 115.711 245.095 114.255 245.199C113.501 245.147 112.825 244.887 112.227 244.419C111.655 243.951 111.213 243.288 110.901 242.43H110.628C109.484 243.756 108.184 244.692 106.728 245.238C104.752 245.212 103.166 244.666 101.97 243.6C100.8 242.508 100.215 241.026 100.215 239.154C100.215 236.268 101.71 234.617 104.7 234.201L110.238 233.46V232.992C110.238 232.316 110.095 231.835 109.809 231.549C109.549 231.263 109.081 231.12 108.405 231.12C106.949 231.12 105.064 231.744 102.75 232.992L102.282 232.68L101.463 227.883C102.659 227.259 103.972 226.778 105.402 226.44C106.858 226.102 108.288 225.933 109.692 225.933ZM108.015 237.087C107.651 237.139 107.378 237.282 107.196 237.516C107.04 237.724 106.962 238.049 106.962 238.491C106.962 239.531 107.443 240.051 108.405 240.051C109.029 240.051 109.64 239.843 110.238 239.427V236.775L108.015 237.087ZM131.373 244.809L131.763 234.513C131.763 232.927 131.152 232.134 129.93 232.134C129.332 232.134 128.721 232.316 128.097 232.68V236.619L128.409 244.809H120.804L121.155 237.399L120.882 226.83L128.097 226.323V229.053H128.37C129.722 227.701 131.243 226.739 132.933 226.167C134.883 226.167 136.365 226.609 137.379 227.493C138.419 228.377 138.913 229.651 138.861 231.315L138.705 236.619L138.978 244.809H131.373ZM156.331 234.552C157.553 237.048 159.204 240.051 161.284 243.561L161.245 244.341C159.555 244.679 157.176 244.991 154.108 245.277L153.328 244.887C151.794 242.079 150.494 239.18 149.428 236.19V236.619L149.74 244.809H142.135L142.486 237.399L142.213 217.938L149.779 217.431L149.467 234.123L152.431 228.585L153.25 226.401H161.011L156.331 234.552Z" fill="#2C1E25"/>
<g clip-path="url(#clip0)">
<path d="M51.6251 100.654L58.5211 92.7501L64.809 87.7976L69.484 90.1788L77.382 92.7968L84.0245 98.0982L90.1375 105.246L90.746 106.113L92.9839 108.569L96.1041 111.706L97.5506 113.39L97.8832 114.26L97.3346 114.543L127.108 145.691L130.162 147.218L130.64 148.684L132.308 149.676L139.407 154.696L144.078 156.709L146.778 159.344L149.004 164.607L148.53 167.235L133.945 182.179L127.828 182.207L122.725 174.955L116.774 165.965L115.233 164.098L114.182 164.617L112.297 160.959L80.2113 132.553L79.5763 133.297L73.3881 127.53L71.208 126.038L70.6605 126.413L70.236 125.544L59.6774 115.966L55.5725 107.506L51.6251 100.654Z" fill="#FFF1F0"/>
<path d="M70.2359 125.544L76.4381 117.327L84.7981 108.761L90.3613 104.737L90.9143 104.822L90.6939 105.607L84.0835 110.518L76.0438 118.941L71.1205 126.407L70.6173 126.643L70.2359 125.544Z" fill="#2C1E25"/>
<path d="M92.985 108.569L94.5976 108.779L95.6196 109.595L95.8248 111.34L89.2211 116.803L85.3569 120.576L80.2284 126.296L77.1113 130.98L75.3635 131.001L74.1066 129.775L74.1341 128.256L79.2071 121.755L83.202 117.382L88.4781 112.442L92.985 108.569Z" fill="#2C1E25"/>
<path d="M84.0555 127.031L94.255 137.349L97.8184 139.1L101.943 137.853L103.579 136.177L104.038 132.354L102.751 128.643L91.9112 118.609L84.0555 127.031Z" fill="#2C1E25"/>
<path d="M85.7995 126.735L87.9976 129.699L94.6787 123.039L91.7515 120.637L85.7995 126.735Z" fill="#FFF1F0"/>
</g>
<g clip-path="url(#clip1)">
<path d="M122.564 80.3644L131.701 85.5163L137.825 90.6706L136.44 95.7311L135.476 103.996L131.63 111.574L125.869 119.008L125.143 119.78L123.191 122.469L120.752 126.16L119.395 127.918L118.611 128.42L118.223 127.94L93.751 163.405L92.8745 166.706L91.5355 167.471L90.9022 169.305L87.4246 177.274L86.3991 182.255L84.3655 185.433L79.6625 188.679L76.9932 188.747L59.4051 177.492L58.1381 171.507L64.2063 165.042L71.8041 157.393L73.3206 155.505L72.5995 154.581L75.7991 151.994L97.117 114.82L96.2601 114.348L100.654 107.12L101.673 104.683L101.195 104.223L101.96 103.631L109.2 91.3515L116.654 85.6179L122.564 80.3644Z" fill="#FFF1F0"/>
<path d="M101.96 103.63L111.263 108.039L121.345 114.491L126.412 119.124L126.441 119.682L125.628 119.625L119.48 114.147L109.602 107.98L101.294 104.671L100.96 104.226L101.96 103.63Z" fill="#2C1E25"/>
<path d="M123.191 122.468L123.312 124.09L122.72 125.256L121.052 125.811L114.365 120.45L109.888 117.431L103.247 113.567L98.0289 111.463L97.6541 109.756L98.6007 108.277L100.093 107.996L107.488 111.647L112.579 114.673L118.486 118.839L123.191 122.468Z" fill="#2C1E25"/>
<path d="M103.302 117.465L95.2634 129.543L94.2708 133.387L96.3267 137.174L98.2992 138.436L102.137 138.112L105.509 136.1L113.14 123.452L103.302 117.465Z" fill="#2C1E25"/>
<path d="M103.946 119.112L101.49 121.865L109.364 127.059L111.124 123.706L103.946 119.112Z" fill="#FFF1F0"/>
</g>
<path d="M7.64844 199.402L200.907 185.811V197.384L7.9606 210.623L7.64844 199.402Z" fill="#2E5A9C"/>
<path d="M21.1016 198.451L7.61328 199.4L7.77329 210.637L21.832 209.674L21.1016 198.451Z" fill="#3F7AD3"/>
<defs>
<clipPath id="clip0">
<rect width="29.7929" height="116.439" fill="white" transform="translate(47.4805 104.062) rotate(-45.6965)"/>
</clipPath>
<clipPath id="clip1">
<rect width="29.7929" height="116.439" fill="white" transform="translate(118.387 76.9961) rotate(32.6164)"/>
</clipPath>
</defs>
</svg>
