<svg id="eqe0k4iirqvf1" xmlns="http://www.w3.org/2000/svg" viewBox="0 0 5258 1024" shape-rendering="geometricPrecision" text-rendering="geometricPrecision"><defs><radialGradient id="eqe0k4iirqvf46-fill" cx="4144.882" cy="255.904" r="1" spreadMethod="pad" gradientUnits="userSpaceOnUse"><stop id="eqe0k4iirqvf46-fill-0" offset="0%" stop-color="#FD6"/><stop id="eqe0k4iirqvf46-fill-1" offset="75%" stop-color="rgba(248,121,128,0)"/></radialGradient><radialGradient id="eqe0k4iirqvf48-fill" cx="4913.835" cy="255.904" r="1" spreadMethod="pad" gradientUnits="userSpaceOnUse"><stop id="eqe0k4iirqvf48-fill-0" offset="0%" stop-color="#FD6"/><stop id="eqe0k4iirqvf48-fill-1" offset="75%" stop-color="rgba(248,121,128,0)"/></radialGradient><radialGradient id="eqe0k4iirqvf143-fill" cx=".5" cy=".5" r=".5" spreadMethod="pad" gradientUnits="objectBoundingBox"><stop id="eqe0k4iirqvf143-fill-0" offset="0%" stop-color="#FD6"/><stop id="eqe0k4iirqvf143-fill-1" offset="100%" stop-color="rgba(248,121,128,0)"/></radialGradient><radialGradient id="eqe0k4iirqvf144-fill" cx=".5" cy=".5" r=".5" spreadMethod="pad" gradientUnits="objectBoundingBox"><stop id="eqe0k4iirqvf144-fill-0" offset="0%" stop-color="#FD6"/><stop id="eqe0k4iirqvf144-fill-1" offset="100%" stop-color="rgba(248,121,128,0)"/></radialGradient><radialGradient id="eqe0k4iirqvf146-fill" cx=".5" cy=".5" r=".5" spreadMethod="pad" gradientUnits="objectBoundingBox"><stop id="eqe0k4iirqvf146-fill-0" offset="0%" stop-color="#FD6"/><stop id="eqe0k4iirqvf146-fill-1" offset="100%" stop-color="rgba(248,121,128,0)"/></radialGradient><radialGradient id="eqe0k4iirqvf147-fill" cx=".5" cy=".5" r=".5" spreadMethod="pad" gradientUnits="objectBoundingBox"><stop id="eqe0k4iirqvf147-fill-0" offset="0%" stop-color="#FD6"/><stop id="eqe0k4iirqvf147-fill-1" offset="100%" stop-color="rgba(248,121,128,0)"/></radialGradient><clipPath id="eqe0k4iirqvf2"><rect id="eqe0k4iirqvf3" width="87" height="130" rx="0" ry="0" transform="translate(4101.3 238.018)" fill="none" stroke="none" stroke-width="1"/></clipPath><clipPath id="eqe0k4iirqvf4"><rect id="eqe0k4iirqvf5" width="87" height="130" rx="0" ry="0" transform="translate(4870.26 238.018)" fill="none" stroke="none" stroke-width="1"/></clipPath></defs><g id="eqe0k4iirqvf6" stroke="none" stroke-width="1"><path id="eqe0k4iirqvf7" d="M5257.7-.24v725.886H3911.8L3408.38 792.5 0 1031v-14L1260.795-.24z" fill="#F87980"/><g id="eqe0k4iirqvf8" clip-path="url(#eqe0k4iirqvf2)"><path id="eqe0k4iirqvf9" d="M4149.96 356.952l-11.74-.238-4.28-100.122h18.33z" fill="#5C414E"/><path id="eqe0k4iirqvf10" d="M4129.7 291.754l30.49 1.629-1.37 23.441-29.24 1.987z" fill="#5C414E"/><path id="eqe0k4iirqvf11" d="M4157.63 315.851s2.7 6.337 8.91 3.238c6.21-3.099 6.77-5.8 6.35-8.899a16.132 16.132 0 01-.14-4.589l7.31.536c.113 2.816-.54 5.61-1.89 8.085-2.29 4.45-4.6 12.277-13.38 10.807a19.463 19.463 0 01-12.84-8.224z" fill="#5C414E"/><path id="eqe0k4iirqvf12" d="M4181.51 262.571h-8.48v29.739h8.48z" fill="#FEF1F0"/><path id="eqe0k4iirqvf13" d="M4153.62 251.805h-21.77v4.092h21.77z" fill="#5C414E"/><path id="eqe0k4iirqvf14" d="M4151.94 250.751l-18.2.1-3.6-12.833h24.36z" fill="#5C414E"/><path id="eqe0k4iirqvf15" d="M4150.06 357.628h-12.56v1.371h12.56z" fill="#5C414E"/><path id="eqe0k4iirqvf16" d="M4153.03 368.018h-17.94l2.73-7.212 12.38-.099z" fill="#5C414E"/><path id="eqe0k4iirqvf17" d="M4131.97 314.281s-2.71 6.337-8.92 3.238c-6.21-3.099-6.76-5.801-6.35-8.9.252-1.516.3-3.06.14-4.589l-7.3.537c-.113 2.816.54 5.61 1.89 8.085 2.29 4.45 4.6 12.277 13.37 10.787a19.542 19.542 0 0012.84-8.224" fill="#5C414E"/><path id="eqe0k4iirqvf18" d="M4108.09 290.732h8.48v-29.738h-8.48z" fill="#FEF1F0"/><path id="eqe0k4iirqvf19" d="M4173.05 303.494l6.65.556s3.16-7.449 5.25-8.363c2.09-.914 4.54-1.47 2.67-2.503-1.87-1.033-6.69-2.026-6.69-2.026l-13.49-.279s-3.45-.158-.9 2.047c2.55 2.205 7.84 5.105 6.51 10.568z" fill="#5C414E"/><path id="eqe0k4iirqvf20" d="M4116.54 301.925l-6.65.556s-3.16-7.449-5.25-8.363c-2.09-.934-4.56-1.47-2.69-2.523 1.87-1.053 6.69-2.026 6.69-2.026l13.49-.278s3.45-.159.9 2.046c-2.55 2.205-7.82 5.125-6.49 10.588z" fill="#5C414E"/><path id="eqe0k4iirqvf21" d="M4111.97 251.169s-3.96 3.417.37 9.754c2.67-4.172-.37-9.754-.37-9.754z" fill="#FD6"/><path id="eqe0k4iirqvf22" d="M4177.55 252.36s-2.35 9.039-.26 10.052c2.03-2.026.26-10.052.26-10.052z" fill="#FD6"/></g><g id="eqe0k4iirqvf23" clip-path="url(#eqe0k4iirqvf4)"><path id="eqe0k4iirqvf24" d="M4918.92 356.952l-11.74-.238-4.28-100.122h18.33z" fill="#5C414E"/><path id="eqe0k4iirqvf25" d="M4898.66 291.754l30.49 1.629-1.37 23.441-29.24 1.987z" fill="#5C414E"/><path id="eqe0k4iirqvf26" d="M4926.59 315.851s2.7 6.337 8.91 3.238c6.21-3.099 6.77-5.8 6.35-8.899a16.132 16.132 0 01-.14-4.589l7.31.536c.113 2.816-.54 5.61-1.89 8.085-2.29 4.45-4.6 12.277-13.38 10.807a19.465 19.465 0 01-12.84-8.224z" fill="#5C414E"/><path id="eqe0k4iirqvf27" d="M4950.47 262.571h-8.48v29.739h8.48z" fill="#FEF1F0"/><path id="eqe0k4iirqvf28" d="M4922.58 251.805h-21.77v4.092h21.77z" fill="#5C414E"/><path id="eqe0k4iirqvf29" d="M4920.9 250.751l-18.2.1-3.6-12.833h24.36z" fill="#5C414E"/><path id="eqe0k4iirqvf30" d="M4919.02 357.628h-12.56v1.371h12.56z" fill="#5C414E"/><path id="eqe0k4iirqvf31" d="M4921.99 368.018h-17.94l2.73-7.212 12.38-.099z" fill="#5C414E"/><path id="eqe0k4iirqvf32" d="M4900.93 314.281s-2.71 6.337-8.92 3.238c-6.21-3.099-6.76-5.801-6.35-8.9.252-1.516.3-3.06.14-4.589l-7.3.537c-.113 2.816.54 5.61 1.89 8.085 2.29 4.45 4.6 12.277 13.38 10.787a19.538 19.538 0 0012.83-8.224" fill="#5C414E"/><path id="eqe0k4iirqvf33" d="M4877.05 290.732h8.48v-29.738h-8.48z" fill="#FEF1F0"/><path id="eqe0k4iirqvf34" d="M4942.01 303.494l6.65.556s3.16-7.449 5.25-8.363c2.09-.914 4.54-1.47 2.67-2.503-1.87-1.033-6.69-2.026-6.69-2.026l-13.49-.279s-3.45-.158-.9 2.047c2.55 2.205 7.84 5.105 6.51 10.568z" fill="#5C414E"/><path id="eqe0k4iirqvf35" d="M4885.5 301.925l-6.64.556s-3.17-7.449-5.26-8.363c-2.09-.934-4.56-1.47-2.69-2.523 1.87-1.053 6.69-2.026 6.69-2.026l13.5-.278s3.44-.159.89 2.046c-2.55 2.205-7.82 5.125-6.49 10.588z" fill="#5C414E"/><path id="eqe0k4iirqvf36" d="M4880.93 251.169s-3.96 3.417.38 9.754c2.66-4.172-.38-9.754-.38-9.754z" fill="#FD6"/><path id="eqe0k4iirqvf37" d="M4946.51 252.36s-2.35 9.039-.26 10.052c2.03-2.026.26-10.052.26-10.052z" fill="#FD6"/></g><path id="eqe0k4iirqvf38" d="M4870.25 31.099l-619.12 6.713 15.07 114.672h584.33z" fill="#CBBEBD"/><path id="eqe0k4iirqvf39" d="M4860.45 41.658l-622.32 6.155 15.07 112.496h588.07z" fill="#FFF1F0"/><path id="eqe0k4iirqvf40" d="M4318.9 95.14l-5.32-17.387h-4.35l-5.88 17.388h3.62l.46-2.457.45-1.431 3-.081 3.4.08.46 1.62.43 2.269zm-5.4-6.722l-2.35.054-2.32-.054 2.38-7.236h.24zm12.28-6.075a9.66 9.66 0 00-5.13 1.512l.4 2.376.27.162a6.86 6.86 0 013.86-1.566 1.527 1.527 0 011.73 1.755v1.107l-4.13.783c-1.83.35-2.78 1.35-2.78 3.159 0 2.295 1.57 3.726 4.16 3.753a7.902 7.902 0 002.78-1.998h.19a2.264 2.264 0 002.08 1.97 4.266 4.266 0 001.97-.674l.32-1.89-.27-.216a2.724 2.724 0 01-.7.108c-.46 0-.62-.216-.62-.81 0-.864.3-5.076.3-5.994 0-2.241-1.68-3.537-4.43-3.537zm1.11 7.155l-.06 1.998a3.19 3.19 0 01-2.21 1.242 1.336 1.336 0 01-1.43-1.485.982.982 0 01.83-1.134zm14.43 5.643h3.59l-.14-5.508.08-3.591c.03-2.322-1.4-3.618-4.16-3.618a9.058 9.058 0 00-3.26 1.944h-.16v-1.836l-3.43.297.16 7.128-.19 5.184h3.59l-.16-5.535v-3.132a4.06 4.06 0 012.59-1.161c1.13 0 1.7.729 1.7 1.998zm18.82-13.095l-.27-.243c-1.29.47-2.619.83-3.97 1.08a6.967 6.967 0 00-2.64-.486c-3.32 0-5.43 1.674-5.43 4.482a3.744 3.744 0 001.97 3.483v.135a8.924 8.924 0 00-1.83 1.647 2.472 2.472 0 001.94 2.457v.135a7.287 7.287 0 00-2.24 2.025c0 2.133 1.75 3.645 5.1 3.645 3.62 0 6.19-1.863 6.19-4.428 0-4.401-7.97-2.565-7.97-4.374 0-.243.11-.405.41-.702a9.243 9.243 0 001.56.135c3.38 0 5.46-1.728 5.46-4.428a3.964 3.964 0 00-.41-1.81l.05-.107c.7-.095 1.395-.23 2.08-.405zm-7.07 6.83a1.927 1.927 0 01-2.13-2.186c0-1.377.75-2.08 2.26-2.08 1.44 0 2.11.676 2.11 2.053a1.99 1.99 0 01-2.24 2.214zm2.86 7.75c0 1.08-1.16 1.674-2.81 1.674-1.7 0-2.53-.648-2.53-1.566 0-.621.45-1.134 1.29-1.701 2 .297 4.05.324 4.05 1.593zm15.12-7.317l.52-.513c.065-.493.101-.989.11-1.485 0-3.078-1.73-4.941-4.89-4.941-3.78 0-6.21 2.457-6.21 6.56 0 4.024 2.32 6.48 6.32 6.48a9.929 9.929 0 003.78-.81l.48-2.645-.29-.19a8.226 8.226 0 01-3.62.973c-2.19 0-3.22-1.188-3.35-3.402zm-2.53-2.08l-4.54.136c.32-1.701 1.27-2.646 2.67-2.646 1.19 0 1.92.702 1.92 2.187zm9.01 2.377l.22-13.42-3.59.27.16 13.474-.19 5.21h3.59zm7.75-7.02h-3.78l-.65 1.296-3.13 4.455v.243a59.609 59.609 0 004.1 6.669l.38.162c1.14-.135 2.22-.243 3.35-.486v-.378c-1.51-2.08-3.02-4.158-4.37-6.291zm6.9-.243c-3.94 0-6.08 2.403-6.08 6.777 0 4.05 2 6.29 5.67 6.29 3.94 0 6.08-2.402 6.08-6.776 0-4.077-2-6.291-5.67-6.291zm-.25 2.43c1.76 0 2.54 1.296 2.54 4.59 0 2.619-.75 3.645-2.45 3.645-1.79 0-2.54-1.242-2.54-4.59 0-2.565.73-3.645 2.45-3.645zm23.39 10.368h3.56l-.13-5.508.08-3.591c.03-2.322-1.4-3.618-4.16-3.618a9.543 9.543 0 00-3.51 2.025h-.13c-.54-1.323-1.84-2.025-3.89-2.025a9.18 9.18 0 00-3.27 1.944h-.16v-1.836l-3.4.297.16 7.128-.19 5.184h3.57l-.17-5.535v-3.16a4.226 4.226 0 012.6-1.133c1.16 0 1.72.702 1.72 1.998l-.21 7.83h3.56l-.13-5.508.05-3.213a4.126 4.126 0 012.57-1.107c1.13 0 1.7.702 1.67 1.998zm16.3-5.832l.51-.513c.07-.492.106-.989.11-1.485 0-3.078-1.73-4.941-4.89-4.941-3.78 0-6.21 2.457-6.21 6.56 0 4.024 2.33 6.48 6.32 6.48a9.849 9.849 0 003.78-.81l.49-2.645-.3-.19a8.16 8.16 0 01-3.62.973c-2.18 0-3.21-1.188-3.34-3.402zm-2.54-2.08l-4.53.136c.32-1.701 1.27-2.646 2.67-2.646 1.19 0 1.92.702 1.92 2.187zm13.12 7.912h3.59l-.14-5.508.08-3.591c.03-2.322-1.4-3.618-4.15-3.618a9.015 9.015 0 00-3.27 1.944h-.16v-1.836l-3.43.297.16 7.128-.19 5.184h3.59l-.16-5.535v-3.132a4.06 4.06 0 012.59-1.161c1.14 0 1.7.729 1.7 1.998zm12.76-18.711a1.84 1.84 0 00-1.97 1.97 1.671 1.671 0 001.83 1.864 1.825 1.825 0 001.92-1.998 1.65 1.65 0 00-1.78-1.836zm1.46 13.176l.21-7.074-3.59.297.16 7.128-.18 5.184h3.59zm10.96 5.535h3.59l-.14-5.508.08-3.591c.03-2.322-1.4-3.618-4.15-3.618a9.01 9.01 0 00-3.27 1.944h-.16v-1.836l-3.43.297.16 7.128-.19 5.184h3.59l-.16-5.535v-3.132a4.061 4.061 0 012.59-1.161c1.14 0 1.7.729 1.7 1.998zm11.3-17.388l.19 12.204-.19 5.184h3.67l-.16-5.508v-.054h1.73c4.35 0 7.1-2.565 7.1-6.534 0-3.43-2.05-5.32-5.67-5.32zm3.57 9.045l.1-6.264 1.84-.108c2.03.08 3.02.972 3.02 2.943a3.258 3.258 0 01-2.48 3.537zm15.18-4.455a9.662 9.662 0 00-5.13 1.512l.4 2.376.27.162a6.859 6.859 0 013.86-1.566 1.527 1.527 0 011.73 1.755v1.107l-4.13.783c-1.83.35-2.78 1.35-2.78 3.159 0 2.295 1.57 3.726 4.16 3.753a7.902 7.902 0 002.78-1.998h.19a2.264 2.264 0 002.08 1.97 4.266 4.266 0 001.97-.674l.32-1.89-.27-.216a2.724 2.724 0 01-.7.108c-.46 0-.62-.216-.62-.81 0-.864.3-5.076.3-5.994 0-2.241-1.68-3.537-4.43-3.537zm1.11 7.155l-.06 1.998a3.19 3.19 0 01-2.21 1.242 1.336 1.336 0 01-1.43-1.485.982.982 0 01.83-1.134zm13.86-6.94c-1.19 0-2.38.703-3.32 2.43h-.19l.03-2.456-3.43.297.16 7.128-.19 5.184h3.59l-.19-5.535v-1.728c.89-1.404 1.86-1.998 2.84-1.998.342.003.68.067 1 .189l.35-.135v-3.321a5.797 5.797 0 00-.65-.054zm4.34-6.128a1.84 1.84 0 00-1.97 1.97 1.667 1.667 0 001.83 1.864 1.824 1.824 0 001.92-1.998 1.65 1.65 0 00-1.78-1.836zm1.46 13.176l.21-7.074-3.59.297.16 7.128-.19 5.184h3.59zm5.69-13.176a1.845 1.845 0 00-1.97 1.97 1.674 1.674 0 001.84 1.864 1.822 1.822 0 001.91-1.998 1.65 1.65 0 00-1.78-1.836zm2.08 6.156l-.11-.081-3.35.189h-2.29l-.16 1.944.21.216h2.16l.11 5.103-.03 4.563a3.96 3.96 0 01-2.26 3.969v.324l1.26 1.593c3.11-1.404 4.41-3.132 4.41-5.994l-.17-4.806zm7.62-.216c-3.11 0-4.92 1.728-4.92 3.996 0 3.996 5.59 3.51 5.59 5.508 0 .648-.54 1.242-1.54 1.242a6.426 6.426 0 01-3.67-1.54l-.35.217-.4 2.808c1.28.513 2.642.787 4.02.81 3.45 0 5.02-2.025 5.02-4.104 0-3.915-5.56-3.43-5.56-5.427a1.238 1.238 0 011.4-1.161 5.824 5.824 0 012.95 1.053l.43-.135.48-2.646a9.752 9.752 0 00-3.45-.621zm12.64 2.214l-.35-2.08-3.35.163 3.56 12.474h3.86l4.22-12.555h-3.14l-.46 2.187-2.26 6.993h-.19zm14.49-2.241c-3.95 0-6.08 2.403-6.08 6.777 0 4.05 2 6.29 5.67 6.29 3.94 0 6.08-2.402 6.08-6.776 0-4.077-2-6.291-5.67-6.291zm-.25 2.43c1.76 0 2.54 1.296 2.54 4.59 0 2.619-.75 3.645-2.46 3.645-1.78 0-2.53-1.242-2.53-4.59 0-2.565.73-3.645 2.45-3.645zm17.99 4.536l.51-.513c.07-.492.106-.989.11-1.485 0-3.078-1.73-4.941-4.89-4.941-3.78 0-6.21 2.457-6.21 6.56 0 4.024 2.33 6.48 6.32 6.48a9.846 9.846 0 003.78-.81l.49-2.645-.3-.19a8.159 8.159 0 01-3.62.973c-2.18 0-3.21-1.188-3.35-3.402zm-2.54-2.08l-4.53.136c.32-1.701 1.26-2.646 2.67-2.646 1.19 0 1.92.702 1.92 2.187zm17.44-5.183l-.27-.243a24.63 24.63 0 01-3.97 1.08 7.007 7.007 0 00-2.64-.486c-3.32 0-5.43 1.674-5.43 4.482a3.744 3.744 0 001.97 3.483v.135a9.246 9.246 0 00-1.84 1.647 2.471 2.471 0 001.95 2.457v.135a7.291 7.291 0 00-2.24 2.025c0 2.133 1.75 3.645 5.1 3.645 3.62 0 6.18-1.863 6.18-4.428 0-4.401-7.96-2.565-7.96-4.374 0-.243.11-.405.4-.702a9.461 9.461 0 001.57.135c3.37 0 5.45-1.728 5.45-4.428a3.96 3.96 0 00-.4-1.81l.05-.107a18.82 18.82 0 002.08-.405zm-7.07 6.83a1.93 1.93 0 01-2.14-2.186c0-1.377.76-2.08 2.27-2.08 1.43 0 2.11.676 2.11 2.053a1.99 1.99 0 01-2.24 2.214zm2.86 7.75c0 1.08-1.16 1.674-2.81 1.674-1.7 0-2.54-.648-2.54-1.566 0-.621.46-1.134 1.3-1.701 2 .297 4.05.324 4.05 1.593zm10.72-4.131c-.97 0-1.41-.405-1.41-1.593l.17-6.048h3.21l.16-1.971-.11-.19h-3.21l.08-2.915-.24-.216-3.27 1.053v2.079h-1.59l-.19 1.97.13.19h1.68l.03 4.644-.14 2.24q0 3.2 3.65 3.565a8.04 8.04 0 002.8-.864l.35-2.133-.29-.27a4.179 4.179 0 01-1.81.459zm15.75 2.646h3.61l-.16-5.508.08-3.591c.06-2.322-1.4-3.618-4.15-3.618a8.905 8.905 0 00-3.24 1.944h-.17l.14-8.181-3.59.27.16 13.473-.19 5.21h3.59l-.19-5.534.06-3.16c.692-.668 1.6-1.07 2.56-1.133 1.14 0 1.73.729 1.7 1.998zm8.64-18.711a1.844 1.844 0 00-1.97 1.97 1.674 1.674 0 001.84 1.864 1.824 1.824 0 001.92-1.998 1.652 1.652 0 00-1.79-1.836zm1.46 13.176l.22-7.074-3.59.297.16 7.128-.19 5.184h3.59zm5.7-13.176a1.847 1.847 0 00-1.98 1.97 1.674 1.674 0 001.84 1.864 1.824 1.824 0 001.92-1.998 1.65 1.65 0 00-1.78-1.836zm2.07 6.156l-.1-.081-3.35.189h-2.3l-.16 1.944.22.216h2.16l.11 5.103-.03 4.563a3.953 3.953 0 01-2.27 3.969v.324l1.27 1.593c3.1-1.404 4.4-3.132 4.4-5.994l-.16-4.806zm15.11 12.555h3.62l-.16-5.508.08-3.591c.05-2.322-1.41-3.618-4.16-3.618a9.07 9.07 0 00-3.24 1.944h-.16l.13-8.181-3.59.27.16 13.473-.18 5.21h3.59l-.19-5.534.05-3.16a4.112 4.112 0 012.57-1.133c1.13 0 1.72.729 1.7 1.998zm16.34-5.832l.52-.513c.06-.493.094-.989.1-1.485 0-3.078-1.72-4.941-4.88-4.941-3.78 0-6.21 2.457-6.21 6.56 0 4.024 2.32 6.48 6.32 6.48a9.924 9.924 0 003.78-.81l.48-2.645-.3-.19a8.154 8.154 0 01-3.61.973c-2.19 0-3.22-1.188-3.35-3.402zm-2.53-2.08l-4.54.136c.32-1.701 1.27-2.646 2.67-2.646 1.19 0 1.92.702 1.92 2.187zm10.71 5.266c-.98 0-1.41-.405-1.41-1.593l.16-6.048h3.22l.16-1.971-.11-.19h-3.21l.08-2.915-.24-.216-3.27 1.053v2.079h-1.59l-.19 1.97.13.19h1.68l.02 4.644-.13 2.24q0 3.2 3.64 3.565a8.028 8.028 0 002.81-.864l.35-2.133-.29-.27a4.179 4.179 0 01-1.81.459zm10.4-8.02l-.3-1.97-3.27.162 3.27 12.474h3.54l2.24-8.073h.24l1.92 8.073h3.37l3.92-12.555h-3.02l-.44 2.079-1.83 6.83h-.22l-1.59-7.02-.27-1.89h-3.48l-.44 2.08-1.89 6.858h-.21zm25.88 4.834l.51-.513c.07-.492.106-.989.11-1.485 0-3.078-1.73-4.941-4.89-4.941-3.78 0-6.21 2.457-6.21 6.56 0 4.024 2.32 6.48 6.32 6.48a9.845 9.845 0 003.78-.81l.49-2.645-.3-.19a8.19 8.19 0 01-3.62.973c-2.19 0-3.21-1.188-3.35-3.402zm-2.54-2.08l-4.54.136c.33-1.701 1.27-2.646 2.68-2.646 1.19 0 1.91.702 1.91 2.187zm12.55-4.67c-1.19 0-2.38.702-3.32 2.43h-.19l.02-2.457-3.42.297.16 7.128-.19 5.184h3.59l-.19-5.535v-1.728c.89-1.404 1.86-1.998 2.84-1.998.339.002.674.066.99.189l.36-.135v-3.321a5.809 5.809 0 00-.65-.054zm5.67 7.047l.21-13.42-3.59.27.16 13.474-.19 5.21h3.59zm7.74-7.02h-3.78l-.64 1.296-3.14 4.455v.243a59.69 59.69 0 004.11 6.669l.38.162c1.13-.135 2.21-.243 3.34-.486v-.378c-1.51-2.08-3.02-4.158-4.37-6.291zm11.28 9.909c-.97 0-1.41-.405-1.41-1.593l.17-6.048h3.21l.16-1.971-.11-.19h-3.21l.08-2.915-.24-.216-3.27 1.053v2.079h-1.59l-.19 1.97.13.19h1.68l.02 4.644-.13 2.24q0 3.2 3.64 3.565a8.028 8.028 0 002.81-.864l.35-2.133-.29-.27a4.18 4.18 0 01-1.81.459zm8.99-10.152c-3.94 0-6.07 2.403-6.07 6.777 0 4.05 1.99 6.29 5.67 6.29 3.94 0 6.07-2.402 6.07-6.776 0-4.077-2-6.291-5.67-6.291zm-.24 2.43c1.75 0 2.54 1.296 2.54 4.59 0 2.619-.76 3.645-2.46 3.645-1.78 0-2.54-1.242-2.54-4.59 0-2.565.73-3.645 2.46-3.645zm17.98 4.536l.52-.513c.064-.493.101-.989.11-1.485 0-3.078-1.73-4.941-4.89-4.941-3.78 0-6.21 2.457-6.21 6.56 0 4.024 2.32 6.48 6.32 6.48a9.927 9.927 0 003.78-.81l.48-2.645-.29-.19a8.225 8.225 0 01-3.62.973c-2.19 0-3.22-1.188-3.35-3.402zm-2.53-2.08l-4.54.136c.32-1.701 1.27-2.646 2.67-2.646 1.19 0 1.92.702 1.92 2.187zm14.66-4.886a9.686 9.686 0 00-5.13 1.512l.4 2.376.27.162a6.86 6.86 0 013.87-1.566c1.16 0 1.72.567 1.72 1.755v1.107l-4.13.783c-1.83.35-2.78 1.35-2.78 3.159 0 2.295 1.57 3.726 4.16 3.753a7.818 7.818 0 002.78-1.998h.19a2.263 2.263 0 002.08 1.97 4.264 4.264 0 001.97-.674l.32-1.89-.27-.216a2.73 2.73 0 01-.7.108c-.46 0-.62-.216-.62-.81 0-.864.3-5.076.3-5.994 0-2.241-1.68-3.537-4.43-3.537zm1.11 7.155l-.06 1.998a3.19 3.19 0 01-2.21 1.242 1.335 1.335 0 01-1.43-1.485.981.981 0 01.83-1.134zm11.89-7.155a9.66 9.66 0 00-5.13 1.512l.4 2.376.27.162a6.86 6.86 0 013.86-1.566 1.527 1.527 0 011.73 1.755v1.107l-4.13.783c-1.83.35-2.78 1.35-2.78 3.159 0 2.295 1.57 3.726 4.16 3.753a7.908 7.908 0 002.78-1.998h.19a2.263 2.263 0 002.08 1.97 4.264 4.264 0 001.97-.674l.32-1.89-.27-.216a2.73 2.73 0 01-.7.108c-.46 0-.62-.216-.62-.81 0-.864.3-5.076.3-5.994 0-2.241-1.68-3.537-4.43-3.537zm1.11 7.155l-.06 1.998a3.19 3.19 0 01-2.21 1.242 1.335 1.335 0 01-1.43-1.485.981.981 0 01.83-1.134zm14.43 5.643h3.59l-.14-5.508.08-3.591c.03-2.322-1.4-3.618-4.16-3.618a9.06 9.06 0 00-3.26 1.944h-.16v-1.836l-3.43.297.16 7.128-.19 5.184h3.59l-.16-5.535v-3.132a4.061 4.061 0 012.59-1.161c1.13 0 1.7.729 1.7 1.998zm-504.64 19.445l-2.67-.054-.27 2.322.21.243 2.24-.189h3.62l-6.13 8.208v2.106l1.73-.081h4.97l3.13.054.24-2.322-.19-.243-2.29.216h-3.81l6.08-8.154-.03-2.133-1.38.027zm11.28-6.156a1.845 1.845 0 00-1.97 1.971 1.674 1.674 0 001.84 1.863 1.822 1.822 0 001.91-1.998 1.65 1.65 0 00-1.78-1.836zm1.46 13.176l.21-7.074-3.59.297.17 7.128-.19 5.184h3.59zm5.69-13.176a1.845 1.845 0 00-1.97 1.971 1.675 1.675 0 001.84 1.863 1.816 1.816 0 001.91-1.998 1.645 1.645 0 00-1.78-1.836zm2.08 6.156l-.11-.081-3.34.189h-2.3l-.16 1.944.21.216h2.16l.11 5.103-.02 4.563a3.967 3.967 0 01-2.27 3.969v.324l1.27 1.593c3.1-1.404 4.4-3.132 4.4-5.994l-.16-4.806zm10.89 12.555h3.59l-.14-5.508.08-3.591c.03-2.322-1.4-3.618-4.15-3.618a9.015 9.015 0 00-3.27 1.944h-.16v-1.836l-3.43.297.16 7.128-.19 5.184h3.59l-.16-5.535v-3.132a4.06 4.06 0 012.59-1.161c1.14 0 1.7.729 1.7 1.998zm22.91-13.095l-.27-.243c-1.29.47-2.619.831-3.97 1.08a7.007 7.007 0 00-2.64-.486c-3.32 0-5.43 1.674-5.43 4.482a3.744 3.744 0 001.97 3.483v.135a8.914 8.914 0 00-1.83 1.647 2.473 2.473 0 001.94 2.457v.135a7.285 7.285 0 00-2.24 2.025c0 2.133 1.75 3.645 5.1 3.645 3.62 0 6.18-1.863 6.18-4.428 0-4.401-7.96-2.565-7.96-4.374 0-.243.11-.405.4-.702a9.462 9.462 0 001.57.135c3.38 0 5.45-1.728 5.45-4.428a3.958 3.958 0 00-.4-1.809l.05-.108c.7-.095 1.395-.23 2.08-.405zm-7.07 6.831a1.923 1.923 0 01-2.13-2.187c0-1.377.75-2.079 2.26-2.079 1.43 0 2.11.675 2.11 2.052a1.99 1.99 0 01-2.24 2.214zm2.86 7.749c0 1.08-1.16 1.674-2.81 1.674-1.7 0-2.54-.648-2.54-1.566 0-.621.46-1.134 1.3-1.701 2 .297 4.05.324 4.05 1.593zm12.56-14.067c-1.19 0-2.38.702-3.33 2.43h-.18l.02-2.457-3.43.297.17 7.128-.19 5.184h3.59l-.19-5.535v-1.728c.89-1.404 1.86-1.998 2.83-1.998.342.002.68.066 1 .189l.35-.135v-3.321a5.636 5.636 0 00-.64-.054zm7.44-.216c-3.94 0-6.07 2.403-6.07 6.777 0 4.05 2 6.291 5.67 6.291 3.94 0 6.07-2.403 6.07-6.777 0-4.077-1.99-6.291-5.67-6.291zm-.24 2.43c1.76 0 2.54 1.296 2.54 4.59 0 2.619-.76 3.645-2.46 3.645-1.78 0-2.54-1.242-2.54-4.59 0-2.565.73-3.645 2.46-3.645zm13.45 7.722c-.97 0-1.4-.405-1.4-1.593l.16-6.048h3.21l.16-1.971-.1-.189h-3.22l.08-2.916-.24-.216-3.27 1.053v2.079h-1.59l-.19 1.971.14.189h1.67l.03 4.644-.14 2.241q0 3.2 3.65 3.564a8.162 8.162 0 002.81-.864l.35-2.133-.3-.27a4.179 4.179 0 01-1.81.459zm13.4-3.186l.51-.513c.064-.493.101-.988.11-1.485 0-3.078-1.73-4.941-4.89-4.941-3.78 0-6.21 2.457-6.21 6.561 0 4.023 2.32 6.48 6.32 6.48a9.926 9.926 0 003.78-.81l.48-2.646-.29-.189a8.225 8.225 0 01-3.62.972c-2.19 0-3.21-1.188-3.35-3.402zm-2.54-2.079l-4.54.135c.33-1.701 1.27-2.646 2.67-2.646 1.19 0 1.92.702 1.92 2.187zm21.79-5.184l-.27-.243a24.63 24.63 0 01-3.97 1.08 7.022 7.022 0 00-2.65-.486c-3.32 0-5.42 1.674-5.42 4.482a3.744 3.744 0 001.97 3.483v.135a8.972 8.972 0 00-1.84 1.647 2.471 2.471 0 001.95 2.457v.135a7.328 7.328 0 00-2.25 2.025c0 2.133 1.76 3.645 5.11 3.645 3.62 0 6.18-1.863 6.18-4.428 0-4.401-7.96-2.565-7.96-4.374 0-.243.1-.405.4-.702a9.462 9.462 0 001.57.135c3.37 0 5.45-1.728 5.45-4.428a3.958 3.958 0 00-.4-1.809l.05-.108c.7-.096 1.395-.231 2.08-.405zm-7.08 6.831a1.927 1.927 0 01-2.13-2.187c0-1.377.76-2.079 2.27-2.079 1.43 0 2.11.675 2.11 2.052a1.997 1.997 0 01-2.25 2.214zm2.87 7.749c0 1.08-1.16 1.674-2.81 1.674-1.7 0-2.54-.648-2.54-1.566 0-.621.46-1.134 1.3-1.701 1.99.297 4.05.324 4.05 1.593zm15.12-7.317l.51-.513c.07-.492.106-.988.11-1.485 0-3.078-1.73-4.941-4.89-4.941-3.78 0-6.21 2.457-6.21 6.561 0 4.023 2.33 6.48 6.32 6.48a9.846 9.846 0 003.78-.81l.49-2.646-.3-.189a8.159 8.159 0 01-3.62.972c-2.18 0-3.21-1.188-3.35-3.402zm-2.54-2.079l-4.53.135c.32-1.701 1.26-2.646 2.67-2.646 1.19 0 1.92.702 1.92 2.187zm9.85-4.86c-3.11 0-4.92 1.728-4.92 3.996 0 3.996 5.59 3.51 5.59 5.508 0 .648-.54 1.242-1.54 1.242a6.451 6.451 0 01-3.67-1.539l-.35.216-.4 2.808c1.28.513 2.642.788 4.02.81 3.46 0 5.02-2.025 5.02-4.104 0-3.915-5.56-3.429-5.56-5.427a1.244 1.244 0 011.4-1.161 5.826 5.826 0 012.95 1.053l.43-.135.48-2.646a9.754 9.754 0 00-3.45-.621zm11.22 10.125c-.97 0-1.4-.405-1.4-1.593l.16-6.048h3.22l.16-1.971-.11-.189h-3.21l.08-2.916-.25-.216-3.26 1.053v2.079h-1.6l-.18 1.971.13.189h1.67l.03 4.644-.13 2.241q0 3.2 3.64 3.564a8.09 8.09 0 002.81-.864l.35-2.133-.3-.27c-.56.289-1.18.446-1.81.459zm9-10.152c-3.94 0-6.08 2.403-6.08 6.777 0 4.05 2 6.291 5.67 6.291 3.95 0 6.08-2.403 6.08-6.777 0-4.077-2-6.291-5.67-6.291zm-.24 2.43c1.75 0 2.53 1.296 2.53 4.59 0 2.619-.75 3.645-2.45 3.645-1.78 0-2.54-1.242-2.54-4.59 0-2.565.73-3.645 2.46-3.645zm11.88 4.833l.22-13.419-3.59.27.16 13.473-.19 5.211h3.59zm13.19-.297l.52-.513c.065-.493.101-.988.11-1.485 0-3.078-1.73-4.941-4.89-4.941-3.78 0-6.21 2.457-6.21 6.561 0 4.023 2.32 6.48 6.32 6.48a9.928 9.928 0 003.78-.81l.48-2.646-.29-.189a8.227 8.227 0 01-3.62.972c-2.19 0-3.22-1.188-3.35-3.402zm-2.53-2.079l-4.54.135c.32-1.701 1.27-2.646 2.67-2.646 1.19 0 1.92.702 1.92 2.187zm13.11 7.911h3.59l-.13-5.508.08-3.591c.02-2.322-1.41-3.618-4.16-3.618a9.187 9.187 0 00-3.27 1.944h-.16v-1.836l-3.43.297.16 7.128-.19 5.184h3.6l-.17-5.535v-3.132a4.063 4.063 0 012.6-1.161c1.13 0 1.7.729 1.7 1.998zm14.36-5.535l.21-13.419-3.59.27.16 13.473-.18 5.211h3.59zm7.75-7.02H4515l-.65 1.296-3.13 4.455v.243a58.125 58.125 0 004.1 6.669l.38.162c1.13-.135 2.21-.243 3.35-.486v-.378c-1.52-2.079-3.03-4.158-4.38-6.291zm12.74-.054l-3.4.297v8.532a3.62 3.62 0 01-2.35 1.053c-1.1 0-1.62-.675-1.62-1.917l.11-7.965-3.48.297.13 5.67-.08 3.186c0 2.322 1.46 3.618 4.19 3.618a7.672 7.672 0 003.16-1.971h.27a2.417 2.417 0 002.16 2.025 4.39 4.39 0 001.97-.675l.32-1.89-.27-.216a2.724 2.724 0 01-.7.108c-.46 0-.62-.216-.62-.81zm10.95 12.609h3.59l-.13-5.508.08-3.591c.02-2.322-1.41-3.618-4.16-3.618a9.178 9.178 0 00-3.27 1.944h-.16v-1.836l-3.43.297.16 7.128-.19 5.184h3.6l-.17-5.535v-3.132a4.062 4.062 0 012.6-1.161c1.13 0 1.7.729 1.7 1.998zm10.97-12.771c-3.1 0-4.91 1.728-4.91 3.996 0 3.996 5.59 3.51 5.59 5.508 0 .648-.54 1.242-1.54 1.242a6.423 6.423 0 01-3.67-1.539l-.35.216-.41 2.808c1.28.511 2.642.786 4.02.81 3.46 0 5.03-2.025 5.03-4.104 0-3.915-5.57-3.429-5.57-5.427a1.248 1.248 0 011.41-1.161 5.827 5.827 0 012.94 1.053l.43-.135.49-2.646a9.806 9.806 0 00-3.46-.621zm11.23 10.125c-.97 0-1.41-.405-1.41-1.593l.17-6.048h3.21l.16-1.971-.11-.189h-3.21l.08-2.916-.24-.216-3.27 1.053v2.079h-1.59l-.19 1.971.13.189h1.68l.03 4.644-.14 2.241q0 3.2 3.65 3.564a8.042 8.042 0 002.8-.864l.35-2.133-.29-.27a4.179 4.179 0 01-1.81.459zm8.94-10.152c-3.78 0-6.02 2.511-6.02 6.669 0 4.023 2.05 6.399 5.51 6.399a11.428 11.428 0 003.32-.513l.35-2.781-.27-.216a6.672 6.672 0 01-2.7.675c-1.81 0-2.81-1.377-2.81-3.888 0-2.214.94-3.429 2.59-3.429.87.042 1.716.302 2.46.756l.3-.135.59-2.862a8.203 8.203 0 00-3.32-.675zm10.39 0c-3.94 0-6.08 2.403-6.08 6.777 0 4.05 2 6.291 5.67 6.291 3.95 0 6.08-2.403 6.08-6.777 0-4.077-2-6.291-5.67-6.291zm-.24 2.43c1.75 0 2.53 1.296 2.53 4.59 0 2.619-.75 3.645-2.45 3.645-1.79 0-2.54-1.242-2.54-4.59 0-2.565.73-3.645 2.46-3.645zm11.88 4.833l.22-13.419-3.6.27.17 13.473-.19 5.211h3.59zm7.09 0l.22-13.419-3.59.27.16 13.473-.19 5.211h3.59zm13.2-.297l.51-.513c.065-.493.101-.988.11-1.485 0-3.078-1.73-4.941-4.89-4.941-3.78 0-6.21 2.457-6.21 6.561 0 4.023 2.32 6.48 6.32 6.48a9.924 9.924 0 003.78-.81l.48-2.646-.29-.189a8.193 8.193 0 01-3.62.972c-2.19 0-3.21-1.188-3.35-3.402zm-2.54-2.079l-4.54.135c.33-1.701 1.27-2.646 2.68-2.646 1.18 0 1.91.702 1.91 2.187zm10.74-4.887c-3.78 0-6.02 2.511-6.02 6.669 0 4.023 2.05 6.399 5.51 6.399a11.427 11.427 0 003.32-.513l.35-2.781-.27-.216a6.672 6.672 0 01-2.7.675c-1.81 0-2.81-1.377-2.81-3.888 0-2.214.94-3.429 2.59-3.429.87.042 1.716.302 2.46.756l.3-.135.59-2.862a8.203 8.203 0 00-3.32-.675zm10.31 10.152c-.98 0-1.41-.405-1.41-1.593l.16-6.048h3.22l.16-1.971-.11-.189h-3.21l.08-2.916-.24-.216-3.27 1.053v2.079h-1.59l-.19 1.971.13.189h1.68l.02 4.644-.13 2.241q0 3.2 3.64 3.564a8.09 8.09 0 002.81-.864l.35-2.133-.3-.27a4.109 4.109 0 01-1.8.459zm5.96-16.065a1.84 1.84 0 00-1.97 1.971 1.671 1.671 0 001.83 1.863 1.824 1.824 0 001.92-1.998 1.65 1.65 0 00-1.78-1.836zm1.46 13.176l.21-7.074-3.59.297.16 7.128-.18 5.184h3.59zm13.09-.297l.51-.513c.07-.492.106-.988.11-1.485 0-3.078-1.73-4.941-4.89-4.941-3.78 0-6.21 2.457-6.21 6.561 0 4.023 2.33 6.48 6.32 6.48a9.845 9.845 0 003.78-.81l.49-2.646-.3-.189a8.156 8.156 0 01-3.62.972c-2.18 0-3.21-1.188-3.34-3.402zm-2.54-2.079l-4.53.135c.32-1.701 1.27-2.646 2.67-2.646 1.19 0 1.92.702 1.92 2.187zm6.57 4.266a1.84 1.84 0 00-1.97 1.971 1.672 1.672 0 001.83 1.863 1.824 1.824 0 001.92-1.998 1.65 1.65 0 00-1.78-1.836z" fill="#2C1E25"/><path id="eqe0k4iirqvf41" d="M4338.02 46.828l7.43-.066" fill="#2C1E25"/><path id="eqe0k4iirqvf42" d="M4335.51 46.846l7.43-.064" fill="#5C404E"/><path id="eqe0k4iirqvf43" d="M4728.93 42.94l7.43-.067" fill="#2C1E25"/><path id="eqe0k4iirqvf44" d="M4726.42 42.957l7.43-.064" fill="#5C404E"/></g><g id="eqe0k4iirqvf45"><path id="eqe0k4iirqvf46" style="isolation:isolate" d="M4279.65 379.053c117.75-64.479-8.01-283.35-161.2-283.35-114.14 0-137.17 7.509-153.69 158.195-16.52 150.686 167.71 205.755 314.89 125.155z" opacity=".7" fill="url(#eqe0k4iirqvf46-fill)" stroke="none" stroke-width="1"/></g><g id="eqe0k4iirqvf47"><path id="eqe0k4iirqvf48" style="isolation:isolate" d="M5048.61 379.053c117.75-64.479-8.01-283.35-161.2-283.35-114.14 0-137.17 7.509-153.69 158.195-16.52 150.686 167.71 205.755 314.89 125.155z" fill="url(#eqe0k4iirqvf48-fill)" stroke="none" stroke-width="1"/></g><g id="eqe0k4iirqvf49" stroke="none" stroke-width="1"><path id="eqe0k4iirqvf50" fill="#613E4F" d="M2264.823 368.018l-286.684 29.184v416.914l286.684-29.184V368.018z"/><path id="eqe0k4iirqvf51" fill="#2B79DA" d="M2248.625 769.668l-254.288 25.886V412.466l254.288-25.886v383.088z"/><path id="eqe0k4iirqvf52" fill="#FFF0F0" d="M2219.177 557.12v-7.43l-2.674.273 3.35-38.572 28.772-2.929v64.686l-29.448-16.028z"/><path id="eqe0k4iirqvf53" fill="#FFC8B9" d="M2204.107 537.055l.252-3.057 2.04-.208-12.091-7.017-88.57-79.357-67.593 77.874-43.808 4.459V558.578l209.77-21.523z"/><path id="eqe0k4iirqvf54" fill="#FF6F7D" d="M2199.504 646.944l-205.167 20.885V558.578l205.167-20.885v109.251z"/><path id="eqe0k4iirqvf55" fill="#613E4F" d="M1994.337 638.913l4.979-2.261 10.197-9.374 9.112-3.779 6.291-6.782 3.689-4.543 3.471-5.399 3.037-5.135 2.603-4.652 1.008-1.625 1.095-1.48.516-3.441v-7.558l-.644-7.558-.065-1.753-5.22-6.44-4.318-4.317-2.964-4.846-.322-3.812-.774-3.7.967-5.442-.193-4.215.257-1.134.58-2.405 1.289-7.689 4.278-6.691 1.071-5.908 2.836-3.156 7.411-4.664 2.9-2.771 7.475-.761 3.996-1.645 5.027.792 5.993 1.344 4.833 3.287 6.316 7.828 1.547 4.86-.516 3.571 3.093 9.198-1.031 10.335-.129 3.792-2.513 6.251-.902 3.675-2.062 3.859-1.612 7.527-2.964 5.059-1.289 4.236-.451 1.61-.967 6.94.774 3.179.257 1.993 1.805.403 1.547 1.667 1.482 1.609 2.062 3.699 2.642 2.663-.193 1.388 5.413 4.141 3.029.538 3.093 2.618 1.032.155 2.577-10.687 1.676-5.579 2.642-7.046 1.031-2.19-.515-15.911.515-1.877.709 1.752.387 13.709 3.931-8.088 3.995-3.144 3.738-.706 7.862-4.71 2.192-1.591 8.184-2.723 4.849-2.591 7.596-2.47 3.975-2.549 3.004-4.146 2.65-1.163.971-1.349-.53-7.091-.618-1.366.088-1.349-2.146-6.502-2.315-6.533-.661-1.855-2.149.553-2.645-1.653-1.322-2.372-2.232-3.033-2.397-4.185-2.727-4.068v-3.51l1.322-2.14 1.488-.152 1.322-.218 1.488-.151.579-9.503 1.653-14.291.744-5.425 8.182-6.933 4.712-2.235 4.711-1.816 6.199-2.804 5.207-1.199 3.72 1.126 7.108.613 7.274 1.683 3.967 3.691 2.976 6.55 1.488 7.37v12.118l.661.685 3.719-.462 1.984 3.391v3.844l-1.736 3.269-1.405 5.826-2.066 4.222-2.976 1.64-.826 1.839-.91 3.185-.661 5.081-1.157 5.801-2.232 3.904-.578 2.733-.083 6.694.661 1.688 2.149.533 3.802 4.042 9.34 5.067 6.695 1.157 12.399 1.579 5.951 1.734 4.711 2.362 4.05 3.181 3.968.599 2.499 3.256 1.978 203.161-259.233 26.39 2.967-159.943z"/><path id="eqe0k4iirqvf56" fill="#FF6F7D" d="M2640.933 64.142l-296.239 18.786v416.914l296.239-18.786V64.142z"/><path id="eqe0k4iirqvf57" fill="#2B79DA" d="M2624.195 465.205l-262.763 16.662V98.78l262.763-16.663v383.088z"/><path id="eqe0k4iirqvf58" d="M2361.432 173.096s15.708-5.752 21.649-1.373c5.94 4.38 8.641 3.151 14.042 2.809 5.4-.343 6.211-2.408 9.452-3.456 3.24-1.048 8.1 5.778 9.181 5.71 1.08-.07 7.561 1.105 7.561 3.483s-6.21 10.435 0 10.04c6.211-.393 4.321-3.444 7.291-3.632 2.971-.189 12.893-4.173 12.157.4-.736 4.575 12.418 4.647 12.418 4.647l81.823-31.876s5.94-9.625 10.532-9.123c4.59.502 15.662-4.164 21.333 1.818 5.671 5.982 4.59 17.677 7.291 18.826 2.7 1.15 1.35 10.22 1.89 12.564.54 2.344-13.772 4.308-13.772 4.308l-24.034-.59-96.676 31.232s-8.371-1.583-13.502-.993c-5.13.59-11.072 7.836-8.101 7.648 2.97-.189 13.502-1.913 15.932-1.01 2.43.903 8.372 4.225-4.59 5.047-12.963.822-21.874-.462-17.283 1.096 4.59 1.559 18.363 1.742 10.262 3.049-8.102 1.306-4.321-1.047-13.773.873-9.451 1.92-3.24 6.811-8.371 7.137-5.131.325-16.203-1.351-17.823 1.13-1.62 2.48-9.452 11.168-11.342 11.288-1.89.12-8.596-.776-11.072.702a17.15 17.15 0 00-4.32 3.973z" fill="#FF6F7D"/><path id="eqe0k4iirqvf59" d="M2542.754 191.502s15.797.827 24.25.291a27.91 27.91 0 0114 2.472c4.375 2.019 9.245-3.965 11.886-3.348 2.642.618 5.812-3.757 11.623-3.331 5.811.426 4.49-.266 9.773-1.893a91.204 91.204 0 019.909-2.437v40.837a95.182 95.182 0 00-12.286 2.846c-6.34 1.953-15.32 3.815-15.32 3.815l-25.359-4.595-9.51 3.963-18.966.427" fill="#FF6F7D"/><path id="eqe0k4iirqvf60" fill="#FFC8B9" d="M2624.195 267.584l-7.879-6.576-12.555-2.438-8.471-4.113-6.199-8.098 7.645-6.347 9.907-6.289 2.828-6.071 3.174-9.269 5.991-5.636 5.559-12.127v66.964z"/><path id="eqe0k4iirqvf61" fill="#FFF0F0" d="M2558.501 248.973l10.306 1.485 4.257 4.856 7.858 4.628 10.805-.685 9.167 9.805 8.841 2.508 8.513 7.79 3.601 3.616 2.346 4.978v177.251l-60.954 4.42-4.74-220.652"/><path id="eqe0k4iirqvf62" fill="#FFC8B9" d="M2444.668 246.515l-4.478 3.635-4.215.267-7.639-1.191v6.831l-7.113-5.22-5.268-2.501-7.903.501-2.107 4.387-5.532-3.903-3.688 4.487-3.425 4.47-3.951 2.571v8.764l16.332 5.923 11.328 2.375 6.585 4.738 10.274 3.081 17.913-29.098-7.113-10.117z"/><path id="eqe0k4iirqvf63" fill="#FFC8B9" d="M2387.719 257.04l-3.193 8.781 1.596 4.585 3.227 4.483 8.748 3.35 11.975 5.49 6.387 4.542-5.855 2.715-21.255 1.348-4.823 7.076 6.12 6.554 19.958.836 9.961 1v12.498l-16.347 3.901-19.692-3.178-13.838 2.96-3.318 10.626-5.938 1.939v-79.537l5.938 1.321 6.778 3.722 5.056-.06 8.515-4.952z"/><path id="eqe0k4iirqvf64" fill="#FFC8B9" d="M2370.535 420.369l-3.469 8.382-5.937 1.458.303 51.658 47.55-2.988 12.152-60.763"/><path id="eqe0k4iirqvf65" fill="#613E4F" d="M2437.049 271.661l6.256-12.639 5.177-15.526-2.804-6.366-5.178-15.714 2.265-9.009-2.265-11.254 2.265-14.075 2.913-2.085-2.913-7.414 3.128-7.586 3.883-10.167 2.805-2.711 4.746-11.699 10.354-10.578 16.396-8.849 11.433.541 14.669 1.181 9.276 4.9 10.571 7.984 6.903 10.749 2.157 11.895 3.668 16.021v12.242l4.746 15.741-1.942 11.733 4.53 9-1.941 5.611 3.827 9.678 6.527 5.708 1.726 9.389 7.766 4.996 13.591 6.103 3.452 8.647 8.197 8.768 3.883 9.041 2.157 9.362 3.021 9.482 2.588 11.27 5.609 9.776v28.285l5.825 9.34v9.921l-3.452 6.974-.431 13.114-6.472 6.11-18.552 9.408-13.16 8.222 1.942 5.154v18.998l-.863 8.286-6.903 9.122-164.814 10.452-11.002-16.219 5.825-14.089 1.726-10.242-10.139-4.423-17.69-9.432-4.961-16.15v-17.097l6.04-17.692 5.393-13.218 14.238-12.934 5.609-10.065 7.766-8.092 5.824-8.179-4.314-7.537 8.413-22.063 11.433-8.957 9.277-11.143z"/><path id="eqe0k4iirqvf66" fill="#FF6F7D" d="M2640.933 64.142l-296.239 18.786v416.914l296.239-18.786V64.142z"/><path id="eqe0k4iirqvf67" fill="#2B79DA" d="M2624.195 465.205l-262.763 16.662V98.78l262.763-16.663v383.088z"/><path id="eqe0k4iirqvf68" d="M2361.432 173.096s15.708-5.752 21.649-1.373c5.94 4.38 8.641 3.151 14.042 2.809 5.4-.343 6.211-2.408 9.452-3.456 3.24-1.048 8.1 5.778 9.181 5.71 1.08-.07 7.561 1.105 7.561 3.483s-6.21 10.435 0 10.04c6.211-.393 4.321-3.444 7.291-3.632 2.971-.189 12.893-4.173 12.157.4-.736 4.575 12.418 4.647 12.418 4.647l81.823-31.876s5.94-9.625 10.532-9.123c4.59.502 15.662-4.164 21.333 1.818 5.671 5.982 4.59 17.677 7.291 18.826 2.7 1.15 1.35 10.22 1.89 12.564.54 2.344-13.772 4.308-13.772 4.308l-24.034-.59-96.676 31.232s-8.371-1.583-13.502-.993c-5.13.59-11.072 7.836-8.101 7.648 2.97-.189 13.502-1.913 15.932-1.01 2.43.903 8.372 4.225-4.59 5.047-12.963.822-21.874-.462-17.283 1.096 4.59 1.559 18.363 1.742 10.262 3.049-8.102 1.306-4.321-1.047-13.773.873-9.451 1.92-3.24 6.811-8.371 7.137-5.131.325-16.203-1.351-17.823 1.13-1.62 2.48-9.452 11.168-11.342 11.288-1.89.12-8.596-.776-11.072.702a17.15 17.15 0 00-4.32 3.973z" fill="#FF6F7D"/><path id="eqe0k4iirqvf69" d="M2542.754 191.502s15.797.827 24.25.291a27.91 27.91 0 0114 2.472c4.375 2.019 9.245-3.965 11.886-3.348 2.642.618 5.812-3.757 11.623-3.331 5.811.426 4.49-.266 9.773-1.893a91.204 91.204 0 019.909-2.437v40.837a95.182 95.182 0 00-12.286 2.846c-6.34 1.953-15.32 3.815-15.32 3.815l-25.359-4.595-9.51 3.963-18.966.427" fill="#FF6F7D"/><path id="eqe0k4iirqvf70" fill="#FFC8B9" d="M2624.195 267.584l-7.879-6.576-12.555-2.438-8.471-4.113-6.199-8.098 7.645-6.347 9.907-6.289 2.828-6.071 3.174-9.269 5.991-5.636 5.559-12.127v66.964z"/><path id="eqe0k4iirqvf71" fill="#FFF0F0" d="M2558.501 248.973l10.306 1.485 4.257 4.856 7.858 4.628 10.805-.685 9.167 9.805 8.841 2.508 8.513 7.79 3.601 3.616 2.346 4.978v177.251l-60.954 4.42-4.74-220.652"/><path id="eqe0k4iirqvf72" fill="#FFC8B9" d="M2444.668 246.515l-4.478 3.635-4.215.267-7.639-1.191v6.831l-7.113-5.22-5.268-2.501-7.903.501-2.107 4.387-5.532-3.903-3.688 4.487-3.425 4.47-3.951 2.571v8.764l16.332 5.923 11.328 2.375 6.585 4.738 10.274 3.081 17.913-29.098-7.113-10.117z"/><path id="eqe0k4iirqvf73" fill="#FFC8B9" d="M2387.719 257.04l-3.193 8.781 1.596 4.585 3.227 4.483 8.748 3.35 11.975 5.49 6.387 4.542-5.855 2.715-21.255 1.348-4.823 7.076 6.12 6.554 19.958.836 9.961 1v12.498l-16.347 3.901-19.692-3.178-13.838 2.96-3.318 10.626-5.938 1.939v-79.537l5.938 1.321 6.778 3.722 5.056-.06 8.515-4.952z"/><path id="eqe0k4iirqvf74" fill="#FFC8B9" d="M2370.535 420.369l-3.469 8.382-5.937 1.458.303 51.658 47.55-2.988 12.152-60.763"/><path id="eqe0k4iirqvf75" fill="#613E4F" d="M2437.049 271.661l6.256-12.639 5.177-15.526-2.804-6.366-5.178-15.714 2.265-9.009-2.265-11.254 2.265-14.075 2.913-2.085-2.913-7.414 3.128-7.586 3.883-10.167 2.805-2.711 4.746-11.699 10.354-10.578 16.396-8.849 11.433.541 14.669 1.181 9.276 4.9 10.571 7.984 6.903 10.749 2.157 11.895 3.668 16.021v12.242l4.746 15.741-1.942 11.733 4.53 9-1.941 5.611 3.827 9.678 6.527 5.708 1.726 9.389 7.766 4.996 13.591 6.103 3.452 8.647 8.197 8.768 3.883 9.041 2.157 9.362 3.021 9.482 2.588 11.27 5.609 9.776v28.285l5.825 9.34v9.921l-3.452 6.974-.431 13.114-6.472 6.11-18.552 9.408-13.16 8.222 1.942 5.154v18.998l-.863 8.286-6.903 9.122-164.814 10.452-11.002-16.219 5.825-14.089 1.726-10.242-10.139-4.423-17.69-9.432-4.961-16.15v-17.097l6.04-17.692 5.393-13.218 14.238-12.934 5.609-10.065 7.766-8.092 5.824-8.179-4.314-7.537 8.413-22.063 11.433-8.957 9.277-11.143z"/><path id="eqe0k4iirqvf76" fill="#613E4F" d="M2640.933 64.142l-296.239 18.786v416.914l296.239-18.786V64.142z"/><path id="eqe0k4iirqvf77" fill="#2B79DA" d="M2624.195 465.205l-262.763 16.662V98.78l262.763-16.663v383.088z"/><path id="eqe0k4iirqvf78" d="M2361.432 173.096s15.708-5.752 21.649-1.373c5.94 4.38 8.641 3.151 14.042 2.809 5.4-.343 6.211-2.408 9.452-3.456 3.24-1.048 8.1 5.778 9.181 5.71 1.08-.07 7.561 1.105 7.561 3.483s-6.21 10.435 0 10.04c6.211-.393 4.321-3.444 7.291-3.632 2.971-.189 12.893-4.173 12.157.4-.736 4.575 12.418 4.647 12.418 4.647l81.823-31.876s5.94-9.625 10.532-9.123c4.59.502 15.662-4.164 21.333 1.818 5.671 5.982 4.59 17.677 7.291 18.826 2.7 1.15 1.35 10.22 1.89 12.564.54 2.344-13.772 4.308-13.772 4.308l-24.034-.59-96.676 31.232s-8.371-1.583-13.502-.993c-5.13.59-11.072 7.836-8.101 7.648 2.97-.189 13.502-1.913 15.932-1.01 2.43.903 8.372 4.225-4.59 5.047-12.963.822-21.874-.462-17.283 1.096 4.59 1.559 18.363 1.742 10.262 3.049-8.102 1.306-4.321-1.047-13.773.873-9.451 1.92-3.24 6.811-8.371 7.137-5.131.325-16.203-1.351-17.823 1.13-1.62 2.48-9.452 11.168-11.342 11.288-1.89.12-8.596-.776-11.072.702a17.15 17.15 0 00-4.32 3.973z" fill="#FF6F7D"/><path id="eqe0k4iirqvf79" d="M2542.754 191.502s15.797.827 24.25.291a27.91 27.91 0 0114 2.472c4.375 2.019 9.245-3.965 11.886-3.348 2.642.618 5.812-3.757 11.623-3.331 5.811.426 4.49-.266 9.773-1.893a91.204 91.204 0 019.909-2.437v40.837a95.182 95.182 0 00-12.286 2.846c-6.34 1.953-15.32 3.815-15.32 3.815l-25.359-4.595-9.51 3.963-18.966.427" fill="#FF6F7D"/><path id="eqe0k4iirqvf80" fill="#FFC8B9" d="M2624.195 267.584l-7.879-6.576-12.555-2.438-8.471-4.113-6.199-8.098 7.645-6.347 9.907-6.289 2.828-6.071 3.174-9.269 5.991-5.636 5.559-12.127v66.964z"/><path id="eqe0k4iirqvf81" fill="#FFF0F0" d="M2558.501 248.973l10.306 1.485 4.257 4.856 7.858 4.628 10.805-.685 9.167 9.805 8.841 2.508 8.513 7.79 3.601 3.616 2.346 4.978v177.251l-60.954 4.42-4.74-220.652"/><path id="eqe0k4iirqvf82" fill="#FFC8B9" d="M2444.668 246.515l-4.478 3.635-4.215.267-7.639-1.191v6.831l-7.113-5.22-5.268-2.501-7.903.501-2.107 4.387-5.532-3.903-3.688 4.487-3.425 4.47-3.951 2.571v8.764l16.332 5.923 11.328 2.375 6.585 4.738 10.274 3.081 17.913-29.098-7.113-10.117z"/><path id="eqe0k4iirqvf83" fill="#FFC8B9" d="M2387.719 257.04l-3.193 8.781 1.596 4.585 3.227 4.483 8.748 3.35 11.975 5.49 6.387 4.542-5.855 2.715-21.255 1.348-4.823 7.076 6.12 6.554 19.958.836 9.961 1v12.498l-16.347 3.901-19.692-3.178-13.838 2.96-3.318 10.626-5.938 1.939v-79.537l5.938 1.321 6.778 3.722 5.056-.06 8.515-4.952z"/><path id="eqe0k4iirqvf84" fill="#FFC8B9" d="M2370.535 420.369l-3.469 8.382-5.937 1.458.303 51.658 47.55-2.988 12.152-60.763"/><path id="eqe0k4iirqvf85" fill="#613E4F" d="M2437.049 271.661l6.256-12.639 5.177-15.526-2.804-6.366-5.178-15.714 2.265-9.009-2.265-11.254 2.265-14.075 2.913-2.085-2.913-7.414 3.128-7.586 3.883-10.167 2.805-2.711 4.746-11.699 10.354-10.578 16.396-8.849 11.433.541 14.669 1.181 9.276 4.9 10.571 7.984 6.903 10.749 2.157 11.895 3.668 16.021v12.242l4.746 15.741-1.942 11.733 4.53 9-1.941 5.611 3.827 9.678 6.527 5.708 1.726 9.389 7.766 4.996 13.591 6.103 3.452 8.647 8.197 8.768 3.883 9.041 2.157 9.362 3.021 9.482 2.588 11.27 5.609 9.776v28.285l5.825 9.34v9.921l-3.452 6.974-.431 13.114-6.472 6.11-18.552 9.408-13.16 8.222 1.942 5.154v18.998l-.863 8.286-6.903 13.122-164.814 10.452-11.002-20.219 5.825-14.089 1.726-10.242-10.139-4.423-17.69-9.432-4.961-16.15v-17.097l6.04-17.692 5.393-13.218 14.238-12.934 5.609-10.065 7.766-8.092 5.824-8.179-4.314-7.537 8.413-22.063 11.433-8.957 9.277-11.143z"/><path id="eqe0k4iirqvf86" fill="#613E4F" d="M2995.396 246.51l-292.547 19.39v416.914l292.547-19.39V246.51z"/><path id="eqe0k4iirqvf87" fill="#2B79DA" d="M2978.866 647.606l-259.487 17.199V281.717l259.487-17.198v383.087z"/><path id="eqe0k4iirqvf88" fill="#FF6F7D" d="M2978.866 442.659l-259.487 30.602v191.544l259.487-17.199V442.659z"/><path id="eqe0k4iirqvf89" fill="#613E4F" d="M2767.181 662.192l11.329-23.808 7.423-19.46 8.204-12.93 5.47-12.749v-9.678l7.032-16.336 3.762-11.696 2.695-14.03 8.084-10.883 4.211-3.95-7.916-12.493-10.274 3.518-10.915-2.113-9.128-4.402-6.906-14.562-1.011-7.275-4.547-7.209-2.527-22.028-.336-7.153 1.515-7.444 1.853-4.795 1.011-4.907-4.043-4.071.674-7.554 5.053-8.012-2.19-4.861 7.411-14.176 5.895-9.903 9.264-7.957 14.148-9.282 10.106-3.34 11.285-6.755 5.389-2.026 4.211-3.283 11.622-8.948 11.453-2.428 13.137 2.801 8.253 4.793 12.97 6.817 9.6 9.377 7.074 12.381 7.579 19.524 6.906 18.734 9.432 33.252 7.579 30.371 3.874 14.095 3.537 8.777 4.379 24.075 4.885 11.024-.842 12.572-.169 9.357-8.59 2.071-6.905 2.294 11.285 27.622-.843 18.246 2.527 25.866-4.885 12.331-90.834 14.02-99.256-1.421z"/><path id="eqe0k4iirqvf90" fill="#613E4F" d="M3366.166 125.705l-286.96 30.317v411.364l286.96-30.316V125.705z"/><path id="eqe0k4iirqvf91" fill="#2B79DA" d="M3349.952 522.095l-254.532 26.89V170.997l254.532-26.891v377.989z"/><path id="eqe0k4iirqvf92" fill="#613E4F" d="M3802.59 253.237l-286.003 39.81v411.365l286.003-39.811V253.237z"/><path id="eqe0k4iirqvf93" fill="#2B79DA" d="M3786.43 650.163l-253.683 35.311V307.486l253.683-35.312v377.989z"/><path id="eqe0k4iirqvf94" fill="#613E4F" d="M3246.282 306.688l5.739-3.986 3.652-6.366v-4.159l3.913-9.253 6.26-12.101 2.348-17.668-2.348-12.491 2.348-6.021v-11.977l-1.926-8.832-4.217-10.481.976-.76-9.013-9.819-12.737-7.97-16.402-3.29-19.151 2.023-20.984 9.067-10.812 21.325-3.207 24.084 1.649 14.529 7.605 17.919 5.04 9.057-3.311 15.464.485 4.982-.582 5.384.679 5.155 1.651 2.772-1.359 4.747 1.3 4.68 1.164 3.879-14.321 13.703-11.5 6.826-15.725 11.723-11.455 14.561-8.542 27.605-13.201 33.901-14.878 19.18v94.905l206.883-21.856 9.707-23.565 4.271-26.573 3.494-34.811-2.329-42.129-1.553-20.539-11.261-21.449-19.219-18.144-7.184-2.673-8.542-11.288-10.289-7.813-10.096-6.674-3.006-2.463.475-.997-.489-1.323z"/><path id="eqe0k4iirqvf95" fill="#FF6F7D" d="M3138.345 482.96l-6.548 9.258-8.8 13.575v9.178l13.711 8.749 18.418 9.476 22.714.863 14.734-3.392 17.395-8.568 15.961-20.756v-3.773l2.661 11.752 4.092 5.89 4.912 5.192 3.069 1.919 1.747-3.667 1.036-2.044 3.818-.597 2.394.134-1.294-3.669 2.136-.032 2.135-.677-2.265-3.695-1.812-.776 1.424-.796-.777-2.756-2.135-.419-3.236.406-2.783 1.713-1.617 1.139-.259-1.973 1.035-4.301 1.23-4.323 2.459-4.129.518-9.343 6.653-17.721 2.692-15.042 1.615-4.463 3.231-5.574 1.884 2.619v6.573l3.231-5.573 2.288 2.575v3.086l3.365-5.453 1.211 1.884 2.154-7.204-5.115-8.716-8.076-1.83-6.865 3.14-3.634 3.738-.673-7.844-2.288-9.283v-1.61l4.038.378 3.634 1.226 8.345-1.016 3.635-5.079.403-5.543-5.249-8.97-1.75-4.243v-5.768l-2.019-3.677-1.884-.606-5.519-7.869-9.288-6.8-13.46 1.422-8.345 6.382-7 7.447-3.365 13.101 3.634 15.178v5.902l-6.078 19.593-16.184 38.601-11.879 8.805-10.674 3.015-17.044-.773-11.697-3.566z"/><path id="eqe0k4iirqvf96" fill="#FFF0F0" d="M3139.827 477.934l-8.43.89-4.318-5.691-3.29-7.644-.792-8.728 2.129-5.86 3.906-5.024 5.243-3.832 6.271-5.171 5.346-.565 12.233-4.571 5.757-1.325 5.963-3.499 12.953-1.369 6.579-.695 9.15-3.528 10.999-4.851 4.113-1.971 2.57 1.061v4.303l-1.44 3.123-1.336 1.064 4.934 1.323 10.281 2.909 4.523 3.109-.72 3.149-1.645.891-8.635-.009-11.822-2.338-6.785-.205-4.009 1.756-4.215 1.367-4.421.672 1.028 3.068 3.907.407 11.205.763 9.869 1.057 13.364 2.226 9.047.683 2.262 2.648-1.337 4.017-2.673.077-9.457-.025-10.795-.499-4.934.521-6.991-.268-8.841-1.338-6.271.868-1.953 2.273 2.57 1.043 6.168 1.602 8.225.873 9.046-.341 9.664-.714 6.065-.128 1.439 1.897-.925 2.25-4.009 2.165-7.35 3.03v1.435l-2.725 1.312-8.919 3.709-9.728 2.462-11.577-.006-9.149-.673-10.795 1.243-9.663-.106-8.944-3.769-1.747-.839-6.168 8.336z"/><path id="eqe0k4iirqvf97" d="M3220.282 245.906a26.9 26.9 0 015.411-3.132c2.35-.848 7.489-2.753 9.074-1.504s.765 2.807 2.569 2.834c1.804.027.11 1.732-.71 1.655a3.99 3.99 0 00-3.116.82c-.766.843-3.608 2.832-6.177 2.34-2.569-.49-8.575-1.96-7.05-3.013z" fill="#FFF0F0"/><path id="eqe0k4iirqvf98" d="M3254.544 242.048a18.26 18.26 0 014.492-4.118 10.872 10.872 0 017.191-1.627c.404.092 1.008.497.404 1.532-.605 1.035-.975 4.223-4.201 4.731-3.227.508-8.655.414-7.886-.518z" fill="#FFF0F0"/><path id="eqe0k4iirqvf99" d="M3234.726 400.988s1.347-1.64 3.005-1.144a2.684 2.684 0 011.866 2.902 2.78 2.78 0 01-4.302 1.59c-2.642-1.528-.57-3.348-.57-3.348z" fill="#613E4F"/><path id="eqe0k4iirqvf100" d="M3255.765 385.46s-2.211 1.366-1.634 3.39c.578 2.024 1.276 2.924 1.933 2.835.658-.09 1.874-1.628 1.854-2.917-.02-1.29-1.078-4.296-2.153-3.308z" fill="#613E4F"/><path id="eqe0k4iirqvf101" d="M3236.503 401.22s1.552-.896 1.531.695c-.021 1.591-1.363 2.026-1.531 1.5-.168-.525-1.02-1.962 0-2.195z" fill="#FFF0F0"/><path id="eqe0k4iirqvf102" d="M3255.977 387.511s-.609.065-.609.54c0 .476.158.998.609.95.45-.047.678-.9.658-1.145-.021-.246-.215-.528-.659-.345z" fill="#FFF0F0"/><path id="eqe0k4iirqvf103" d="M2774.975 432.652s3.488-2.404 6.69-.995c3.203 1.409 7.272 4.006 6.405 6.87s-10.074 5.235-12.609.542c-2.535-4.693-.486-6.417-.486-6.417z" fill="#FFF0F0"/><path id="eqe0k4iirqvf104" d="M2805.482 438.204a9.4 9.4 0 018.606-5.417c6.471-.096 10.34 3.865 10.34 5.8 0 1.935-.6 4.292-9.472 4.679-8.874.386-10.166-3.825-9.474-5.062z" fill="#FFF0F0"/><path id="eqe0k4iirqvf105" d="M2484.044 186.926a9.934 9.934 0 0110.133-4.623c7.1.997 7.691 3.058 7.691 3.058s-.507 3.723-9.054 3.759c-8.548.035-8.77-2.194-8.77-2.194z" fill="#FFF0F0"/><path id="eqe0k4iirqvf106" d="M2468.827 187.177s-1.498-3.171-6.675-2.626c-5.177.545-7.47 3.007-7.47 3.007s1.202 2.818 7.073 2.012c5.87-.807 7.072-2.393 7.072-2.393z" fill="#FFF0F0"/><path id="eqe0k4iirqvf107" d="M2153.178 506.046s1.376-3.127 4.54-3.396a6.35 6.35 0 015.366 1.944c.285.416.052.912-.596 1.03-.648.119-6.279 3.678-9.31.422z" fill="#FFF0F0"/><path id="eqe0k4iirqvf108" d="M2177.033 503.252s1.089-2.837 3.448-3.26c2.36-.424 5.522.119 6.404.803.881.683-.674 1.602-1.167 1.757-.493.155-4.485 3.55-8.685.7z" fill="#FFF0F0"/><path id="eqe0k4iirqvf109" d="M2066.802 543.533a3.822 3.822 0 012.56-2.475c1.942-.447 4.502-.739 4.995.271.23.447.435.904.617 1.372a4.34 4.34 0 01-4.086 1.351c-2.76-.405-3.809.326-4.086-.52z" fill="#FFF0F0"/><path id="eqe0k4iirqvf110" d="M2057.365 542.966s-.246-2.283-3.361-1.467c-3.115.816-5.304 1.912-5.582 2.377-.277.465 3.824 2.26 6.6 1.137 2.775-1.125 2.343-2.048 2.343-2.048z" fill="#FFF0F0"/><path id="eqe0k4iirqvf111" fill="#613E4F" d="M3532.747 631.712l5.581-17.175 25.964-40.511 29.608-37.392-4.167-19.554-7.502 4.574-3.64 1.059.662-12.448 5.405-12.666-2.096-11.843-10.038-19.342-2.161-12.644 1.873-13.885-4.938-13.448 9.196-35.342 10.73-21.249 4.428-19.521 4.428-13.73 23.672-12.492 29.464-11.765 36.786 5.269 42.438 8.932 22.038 23.282 5.749 23.154-11.737 37.085-1.677 3.348.958 13.281-7.186 13.695-11.738 19.36-2.558 3.365-.148 3.576 11.884 13.925 20.485 22.991 17.649 11.411 15.758 3.479v141.51l-259.361 32.272 4.191-60.561z"/><path id="eqe0k4iirqvf112" d="M3634.818 430.789s6.8-6.645 15.088-5.662c8.289.983 10.62 2.472 11.008 3.325a2.484 2.484 0 01-1.813 3.166c-1.813.511-15.088 6.504-20.139 3.386-5.05-3.118-5.402-3.14-4.144-4.215z" fill="#FFF0F0"/><path id="eqe0k4iirqvf113" d="M3599.677 434.979a12.41 12.41 0 00-12.053-3.984c-7.944 1.471-10.957 6.639-11.505 7.628-.548.99 7.487 4.528 14.518 1.814 7.03-2.713 10.886-3.716 9.04-5.458z" fill="#FFF0F0"/><path id="eqe0k4iirqvf114" fill="#FF6F7D" d="M3598.279 481.807l6.11 4.701 6.637-.924 5.794-6.358 22.122 7.034 10.745 8.617 2.002 5.094.105 15.682-5.583-1.541-7.374-8.665-13.853-2.917-15.223.433-9.375 3.939-8.006 7.645-3.161 4.233-8.849 4.497-2.949.411 1.159-15.753 4.529-10.006 15.17-16.122z"/></g><g id="eqe0k4iirqvf115"><path id="eqe0k4iirqvf116" d="M3590.246 430.745s-3.758 2.89-2.132 5.65c1.626 2.76 3.803 3.638 6.54 1.95 2.737-1.687 4.764-2.875 4.03-4.404-.733-1.529-2.6-4.69-2.6-4.69z" fill="#613E4F" stroke="none" stroke-width="1"/></g><g id="eqe0k4iirqvf117"><path id="eqe0k4iirqvf118" d="M3647.977 425.031s-3.538 3.999-1.279 5.892c2.259 1.893 5.339 3.055 6.93 2.115 1.591-.94 6.622-3.745 5.698-6.748-.924-3.002-10.48-3.243-11.35-1.259z" fill="#613E4F" stroke="none" stroke-width="1"/></g><g id="eqe0k4iirqvf119"><path id="eqe0k4iirqvf120" d="M3229.371 241.54s-1.622 1.118-1.568 2.353c.055 1.234.163 2.947 1.785 2.992 1.623.044 3.868-.14 4.273-1.503.406-1.364.932-4.1-.637-4.524a5.842 5.842 0 00-3.853.682z" fill="#613E4F" stroke="none" stroke-width="1"/></g><g id="eqe0k4iirqvf121"><path id="eqe0k4iirqvf122" d="M3260.678 237.047s-.844 1.606-.457 2.396c.386.791.57 2.293 1.953 2.086a3.523 3.523 0 002.728-1.627c.223-.652.936-1.985.386-2.657-.55-.672-.368-1.048-.835-1.017-.218.014-.782-1.275-1.45-1.17-.764.121-1.665 1.655-2.325 1.989z" fill="#613E4F" stroke="none" stroke-width="1"/></g><g id="eqe0k4iirqvf123"><path id="eqe0k4iirqvf124" d="M2780.639 431.33s-2.142 4.166-.778 6.448c1.364 2.283 5.214.982 6.305.456.684-.336 4.027-1.544 3.859-4.31l-1.313-2.586z" fill="#613E4F" stroke="none" stroke-width="1"/></g><g id="eqe0k4iirqvf125"><path id="eqe0k4iirqvf126" d="M2815.604 432.842s-3.221 5.121 0 7.591c3.22 2.47 8.529-1.057 8.31-3.298-.22-2.242-4.727-5.88-8.31-4.293z" fill="#613E4F" stroke="none" stroke-width="1"/></g><g id="eqe0k4iirqvf127"><path id="eqe0k4iirqvf128" d="M2461.933 185.653s-1.857.444-1.52 1.522a1.657 1.657 0 002.173 1.101c.896-.232 1.715-1.01 1.229-1.857-.487-.846-1.203-.717-1.882-.766z" transform="translate(-.411 .085)" fill="#613E4F" stroke="none" stroke-width="1"/></g><g id="eqe0k4iirqvf129"><path id="eqe0k4iirqvf130" d="M2492.413 183.808s-2.364.468-1.435 1.964c.928 1.497 3.968 1.263 3.926-.015-.042-1.278-1.298-2.46-2.49-1.949z" fill="#613E4F" stroke="none" stroke-width="1"/></g><g id="eqe0k4iirqvf131"><path id="eqe0k4iirqvf132" d="M2156.986 503.271a1.999 1.999 0 00-.962 1.636c-.053 1.037.655 1.821 1.251 1.76 1.097-.112 2.945-.3 2.965-1.45.019-1.15-.284-1.756-.99-2.038a2.34 2.34 0 00-2.264.092z" fill="#613E4F" stroke="none" stroke-width="1"/></g><g id="eqe0k4iirqvf133"><path id="eqe0k4iirqvf134" d="M2180.09 500.677s-.87 1.583-.349 2.427c.594.755 1.68.902 2.452.33.8-.468 1.74-1.32 1.653-2.313-.087-.993-1.22-1.273-2.348-1.062-1.324.248-1.409.618-1.409.618z" fill="#613E4F" stroke="none" stroke-width="1"/></g><g id="eqe0k4iirqvf135"><path id="eqe0k4iirqvf136" d="M2052.314 541.996a1.886 1.886 0 00.464 1.972c.75.708 1.917.726 2.69.043.58-.692.832-2.153.3-2.641-.533-.489-3.177-.649-3.454.626z" transform="translate(-.337 -.205)" fill="#613E4F" stroke="none" stroke-width="1"/></g><g id="eqe0k4iirqvf137"><path id="eqe0k4iirqvf138" d="M2070.189 540.886s-1.095 1.461 0 2.336c1.094.874 2.076.862 2.673.332a1.995 1.995 0 00.615-2.801c-.864-1.335-3.008-1.09-3.288.133z" fill="#613E4F" stroke="none" stroke-width="1"/></g><g id="eqe0k4iirqvf139" stroke="none" stroke-width="1"><rect id="eqe0k4iirqvf140" width="392.414" height="522.645" rx="0" ry="0" transform="translate(4329.65 180.357)" fill="#FFC8B9"/><rect id="eqe0k4iirqvf141" width="338.986" height="469.607" rx="0" ry="0" transform="translate(4356.36 206.877)" fill="#2B79DA"/></g><g id="eqe0k4iirqvf142" transform="translate(761.67 11.427)" stroke="none" stroke-width="1"><circle id="eqe0k4iirqvf143" r="108.504" transform="translate(4113.438 257.386)" fill="url(#eqe0k4iirqvf143-fill)"/><circle id="eqe0k4iirqvf144" r="108.504" transform="translate(4176.424 262.571)" fill="url(#eqe0k4iirqvf144-fill)"/></g><g id="eqe0k4iirqvf145" opacity=".42" stroke="none" stroke-width="1"><circle id="eqe0k4iirqvf146" r="108.504" transform="translate(4113.438 257.386)" fill="url(#eqe0k4iirqvf146-fill)"/><circle id="eqe0k4iirqvf147" r="108.504" transform="translate(4176.424 262.571)" fill="url(#eqe0k4iirqvf147-fill)"/></g><script><![CDATA[!function(t,n){"object"==typeof exports&&"undefined"!=typeof module?module.exports=n():"function"==typeof define&&define.amd?define(n):(t=t||self).__SVGATOR_PLAYER__=n()}(this,(function(){"use strict";function t(n){return(t="function"==typeof Symbol&&"symbol"==typeof Symbol.iterator?function(t){return typeof t}:function(t){return t&&"function"==typeof Symbol&&t.constructor===Symbol&&t!==Symbol.prototype?"symbol":typeof t})(n)}function n(t,n){if(!(t instanceof n))throw new TypeError("Cannot call a class as a function")}function r(t,n){for(var r=0;r<n.length;r++){var e=n[r];e.enumerable=e.enumerable||!1,e.configurable=!0,"value"in e&&(e.writable=!0),Object.defineProperty(t,e.key,e)}}function e(t,n,e){return n&&r(t.prototype,n),e&&r(t,e),t}var i=Math.abs;function u(t){return t}function o(t,n,r){var e=1-r;return 3*r*e*(t*e+n*r)+r*r*r}function a(){var t=arguments.length>0&&void 0!==arguments[0]?arguments[0]:0,n=arguments.length>1&&void 0!==arguments[1]?arguments[1]:0,r=arguments.length>2&&void 0!==arguments[2]?arguments[2]:1,e=arguments.length>3&&void 0!==arguments[3]?arguments[3]:1;return t<0||t>1||r<0||r>1?null:i(t-n)<=1e-5&&i(r-e)<=1e-5?u:function(u){if(u<=0)return t>0?u*n/t:0===n&&r>0?u*e/r:0;if(u>=1)return r<1?1+(u-1)*(e-1)/(r-1):1===r&&t<1?1+(u-1)*(n-1)/(t-1):1;for(var a,l=0,f=1;l<f;){var s=o(t,r,a=(l+f)/2);if(i(u-s)<1e-5)break;s<u?l=a:f=a}return o(n,e,a)}}function l(){return 1}function f(t){return 1===t?1:0}function s(){var t=arguments.length>0&&void 0!==arguments[0]?arguments[0]:1,n=arguments.length>1&&void 0!==arguments[1]?arguments[1]:0;if(1===t){if(0===n)return f;if(1===n)return l}var r=1/t;return function(t){return t>=1?1:(t+=n*r)-t%r}}function c(t){var n=arguments.length>1&&void 0!==arguments[1]?arguments[1]:2;if(Number.isInteger(t))return t;var r=Math.pow(10,n);return Math.round(t*r)/r}var v=Math.PI/180;function h(t,n,r){return t>=.5?r:n}function y(t,n,r){return 0===t||n===r?n:t*(r-n)+n}function d(t,n,r){var e=y(t,n,r);return e<=0?0:e}function g(t,n,r){return 0===t?n:1===t?r:{x:y(t,n.x,r.x),y:y(t,n.y,r.y)}}function m(t,n,r){return 0===t?n:1===t?r:{x:d(t,n.x,r.x),y:d(t,n.y,r.y)}}function p(t,n,r){var e=function(t,n,r){return Math.round(y(t,n,r))}(t,n,r);return e<=0?0:e>=255?255:e}function b(t,n,r){return 0===t?n:1===t?r:{r:p(t,n.r,r.r),g:p(t,n.g,r.g),b:p(t,n.b,r.b),a:y(t,null==n.a?1:n.a,null==r.a?1:r.a)}}function w(t,n,r){if(0===t)return n;if(1===t)return r;var e=n.length;if(e!==r.length)return h(t,n,r);for(var i=[],u=0;u<e;u++)i.push(b(t,n[u],r[u]));return i}function A(t,n,r){var e=n.length;if(e!==r.length)return h(t,n,r);for(var i=new Array(e),u=0;u<e;u++)i[u]=y(t,n[u],r[u]);return i}function x(t,n){for(var r=[],e=0;e<t;e++)r.push(n);return r}function k(t,n){if(--n<=0)return t;var r=(t=Object.assign([],t)).length;do{for(var e=0;e<r;e++)t.push(t[e])}while(--n>0);return t}var S=/\.0+$/g;function _(t){return Number.isInteger(t)?t+"":t.toFixed(6).replace(S,"")}function M(t){var n=arguments.length>1&&void 0!==arguments[1]?arguments[1]:" ";return t&&t.length?t.map(_).join(n):""}function I(t){return _(t.x)+","+_(t.y)}function E(t){return t?null==t.a||t.a>=1?"rgb("+t.r+","+t.g+","+t.b+")":"rgba("+t.r+","+t.g+","+t.b+","+t.a+")":"transparent"}var F={f:null,i:m,u:function(t,n){return function(r){var e=n(r);t.setAttribute("rx",_(e.x)),t.setAttribute("ry",_(e.y))}}},B={f:null,i:function(t,n,r){return 0===t?n:1===t?r:{width:d(t,n.width,r.width),height:d(t,n.height,r.height)}},u:function(t,n){return function(r){var e=n(r);t.setAttribute("width",_(e.width)),t.setAttribute("height",_(e.height))}}},j=Math.sin,q=Math.cos,P=Math.acos,O=Math.asin,z=Math.tan,L=Math.atan2,C=Math.PI/180,R=180/Math.PI,T=Math.sqrt,V=function(){function t(){var r=arguments.length>0&&void 0!==arguments[0]?arguments[0]:1,e=arguments.length>1&&void 0!==arguments[1]?arguments[1]:0,i=arguments.length>2&&void 0!==arguments[2]?arguments[2]:0,u=arguments.length>3&&void 0!==arguments[3]?arguments[3]:1,o=arguments.length>4&&void 0!==arguments[4]?arguments[4]:0,a=arguments.length>5&&void 0!==arguments[5]?arguments[5]:0;n(this,t),this.m=[r,e,i,u,o,a],this.i=null,this.w=null,this.s=null}return e(t,[{key:"point",value:function(t,n){var r=this.m;return{x:r[0]*t+r[2]*n+r[4],y:r[1]*t+r[3]*n+r[5]}}},{key:"translateSelf",value:function(){var t=arguments.length>0&&void 0!==arguments[0]?arguments[0]:0,n=arguments.length>1&&void 0!==arguments[1]?arguments[1]:0;if(!t&&!n)return this;var r=this.m;return r[4]+=r[0]*t+r[2]*n,r[5]+=r[1]*t+r[3]*n,this.w=this.s=this.i=null,this}},{key:"rotateSelf",value:function(){var t=arguments.length>0&&void 0!==arguments[0]?arguments[0]:0;if(t%=360){var n=j(t*=C),r=q(t),e=this.m,i=e[0],u=e[1];e[0]=i*r+e[2]*n,e[1]=u*r+e[3]*n,e[2]=e[2]*r-i*n,e[3]=e[3]*r-u*n,this.w=this.s=this.i=null}return this}},{key:"scaleSelf",value:function(){var t=arguments.length>0&&void 0!==arguments[0]?arguments[0]:1,n=arguments.length>1&&void 0!==arguments[1]?arguments[1]:1;if(1!==t||1!==n){var r=this.m;r[0]*=t,r[1]*=t,r[2]*=n,r[3]*=n,this.w=this.s=this.i=null}return this}},{key:"skewSelf",value:function(t,n){if(n%=360,(t%=360)||n){var r=this.m,e=r[0],i=r[1],u=r[2],o=r[3];t&&(t=z(t*C),r[2]+=e*t,r[3]+=i*t),n&&(n=z(n*C),r[0]+=u*n,r[1]+=o*n),this.w=this.s=this.i=null}return this}},{key:"resetSelf",value:function(){var t=arguments.length>0&&void 0!==arguments[0]?arguments[0]:1,n=arguments.length>1&&void 0!==arguments[1]?arguments[1]:0,r=arguments.length>2&&void 0!==arguments[2]?arguments[2]:0,e=arguments.length>3&&void 0!==arguments[3]?arguments[3]:1,i=arguments.length>4&&void 0!==arguments[4]?arguments[4]:0,u=arguments.length>5&&void 0!==arguments[5]?arguments[5]:0,o=this.m;return o[0]=t,o[1]=n,o[2]=r,o[3]=e,o[4]=i,o[5]=u,this.w=this.s=this.i=null,this}},{key:"recomposeSelf",value:function(){var t=arguments.length>0&&void 0!==arguments[0]?arguments[0]:null,n=arguments.length>1&&void 0!==arguments[1]?arguments[1]:null,r=arguments.length>2&&void 0!==arguments[2]?arguments[2]:null,e=arguments.length>3&&void 0!==arguments[3]?arguments[3]:null,i=arguments.length>4&&void 0!==arguments[4]?arguments[4]:null;return this.isIdentity||this.resetSelf(),t&&(t.x||t.y)&&this.translateSelf(t.x,t.y),n&&this.rotateSelf(n),r&&(r.x&&this.skewSelf(r.x,0),r.y&&this.skewSelf(0,r.y)),!e||1===e.x&&1===e.y||this.scaleSelf(e.x,e.y),i&&(i.x||i.y)&&this.translateSelf(i.x,i.y),this}},{key:"decompose",value:function(){var t=arguments.length>0&&void 0!==arguments[0]?arguments[0]:0,n=arguments.length>1&&void 0!==arguments[1]?arguments[1]:0,r=this.m,e=r[0]*r[0]+r[1]*r[1],i=[[r[0],r[1]],[r[2],r[3]]],u=T(e);if(0===u)return{origin:{x:r[4],y:r[5]},translate:{x:t,y:n},scale:{x:0,y:0},skew:{x:0,y:0},rotate:0};i[0][0]/=u,i[0][1]/=u;var o=r[0]*r[3]-r[1]*r[2]<0;o&&(u=-u);var a=i[0][0]*i[1][0]+i[0][1]*i[1][1];i[1][0]-=i[0][0]*a,i[1][1]-=i[0][1]*a;var l=T(i[1][0]*i[1][0]+i[1][1]*i[1][1]);if(0===l)return{origin:{x:r[4],y:r[5]},translate:{x:t,y:n},scale:{x:u,y:0},skew:{x:0,y:0},rotate:0};i[1][0]/=l,i[1][1]/=l,a/=l;var f=0;return i[1][1]<0?(f=P(i[1][1])*R,i[0][1]<0&&(f=360-f)):f=O(i[0][1])*R,o&&(f=-f),a=L(a,T(i[0][0]*i[0][0]+i[0][1]*i[0][1]))*R,{origin:{x:r[4],y:r[5]},translate:{x:t,y:n},scale:{x:u,y:l},skew:{x:a,y:0},rotate:f}}},{key:"toString",value:function(){return null===this.s&&(this.s="matrix("+this.m.map(N).join(" ")+")"),this.s}},{key:"determinant",get:function(){var t=this.m;return t[0]*t[3]-t[1]*t[2]}},{key:"isIdentity",get:function(){if(null===this.i){var t=this.m;this.i=1===t[0]&&0===t[1]&&0===t[2]&&1===t[3]&&0===t[4]&&0===t[5]}return this.i}}]),t}(),D=/\.0+$/;function N(t){return Number.isInteger(t)?t:t.toFixed(14).replace(D,"")}Object.freeze({M:2,L:2,Z:0,H:1,V:1,C:6,Q:4,T:2,S:4,A:7});function G(t,n,r){return t+(n-t)*r}function $(t,n,r){var e=arguments.length>3&&void 0!==arguments[3]&&arguments[3],i={x:G(t.x,n.x,r),y:G(t.y,n.y,r)};return e&&(i.a=H(t,n)),i}function H(t,n){return Math.atan2(n.y-t.y,n.x-t.x)}function Q(t,n,r,e){var i=1-e;return i*i*t+2*i*e*n+e*e*r}function U(t,n,r,e){return 2*(1-e)*(n-t)+2*e*(r-n)}function Y(t,n,r,e){var i=arguments.length>4&&void 0!==arguments[4]&&arguments[4],u={x:Q(t.x,n.x,r.x,e),y:Q(t.y,n.y,r.y,e)};return i&&(u.a=Z(t,n,r,e)),u}function Z(t,n,r,e){return Math.atan2(U(t.y,n.y,r.y,e),U(t.x,n.x,r.x,e))}function J(t,n,r,e,i){var u=i*i;return i*u*(e-t+3*(n-r))+3*u*(t+r-2*n)+3*i*(n-t)+t}function K(t,n,r,e,i){var u=1-i;return 3*(u*u*(n-t)+2*u*i*(r-n)+i*i*(e-r))}function W(t,n,r,e,i){var u=arguments.length>5&&void 0!==arguments[5]&&arguments[5],o={x:J(t.x,n.x,r.x,e.x,i),y:J(t.y,n.y,r.y,e.y,i)};return u&&(o.a=X(t,n,r,e,i)),o}function X(t,n,r,e,i){return Math.atan2(K(t.y,n.y,r.y,e.y,i),K(t.x,n.x,r.x,e.x,i))}function tt(t,n,r){var e=arguments.length>3&&void 0!==arguments[3]&&arguments[3];if(rt(n)){if(et(r))return Y(n,r.start,r,t,e)}else if(rt(r)){if(n.end)return Y(n,n.end,r,t,e)}else{if(n.end)return r.start?W(n,n.end,r.start,r,t,e):Y(n,n.end,r,t,e);if(r.start)return Y(n,r.start,r,t,e)}return $(n,r,t,e)}function nt(t,n,r){var e=tt(t,n,r,!0);return e.a=function(t){var n=arguments.length>1&&void 0!==arguments[1]&&arguments[1];return n?t+Math.PI:t}(e.a)/v,e}function rt(t){return!t.type||"corner"===t.type}function et(t){return null!=t.start&&!rt(t)}var it=new V;var ut={f:function(t){return t?t.join(" "):""},i:function(n,r,e){if(0===n)return r;if(1===n)return e;var i=r.length;if(i!==e.length)return h(n,r,e);for(var u,o=new Array(i),a=0;a<i;a++){if((u=t(r[a]))!==t(e[a]))return h(n,r,e);if("number"===u)o[a]=y(n,r[a],e[a]);else{if(r[a]!==e[a])return h(n,r,e);o[a]=r[a]}}return o}},ot={f:null,i:A,u:function(t,n){return function(r){var e=n(r);t.setAttribute("x1",_(e[0])),t.setAttribute("y1",_(e[1])),t.setAttribute("x2",_(e[2])),t.setAttribute("y2",_(e[3]))}}},at={f:_,i:y},lt={f:_,i:function(t,n,r){var e=y(t,n,r);return e<=0?0:e>=1?1:e}},ft={f:M,i:function(t,n,r){var e,i,u,o=n.length,a=r.length;if(o!==a)if(0===o)n=x(o=a,0);else if(0===a)a=o,r=x(o,0);else{var l=(u=(e=o)*(i=a)/function(t,n){for(var r;n;)r=n,n=t%n,t=r;return t||1}(e,i))<0?-u:u;n=k(n,Math.floor(l/o)),r=k(r,Math.floor(l/a)),o=a=l}for(var f=[],s=0;s<o;s++)f.push(c(d(t,n[s],r[s]),6));return f}};function st(t,n,r,e,i,u,o,a){return n=function(t,n,r){for(var e,i,u,o=t.length-1,a={},l=0;l<=o;l++)(e=t[l]).e&&(e.e=n(e.e)),e.v&&"g"===(i=e.v).t&&i.r&&(u=r.getElementById(i.r))&&(a[i.r]=u.querySelectorAll("stop"));return a}(t,e,a),function(e){var i,u=r(e,t,ct);return u?"c"===u.t?E(u.v):"g"===u.t?(n[u.r]&&function(t,n){for(var r=0,e=t.length;r<e;r++)t[r].setAttribute("stop-color",E(n[r]))}(n[u.r],u.v),(i=u.r)?"url(#"+i+")":"none"):"none":"none"}}function ct(t,n,r){if(0===t)return n;if(1===t)return r;if(n&&r){var e=n.t;if(e===r.t)switch(n.t){case"c":return{t:e,v:b(t,n.v,r.v)};case"g":if(n.r===r.r)return{t:e,v:w(t,n.v,r.v),r:n.r}}}return h(t,n,r)}var vt={blur:m,brightness:d,contrast:d,"drop-shadow":function(t,n,r){return 0===t?n:1===t?r:{blur:m(t,n.blur,r.blur),offset:g(t,n.offset,r.offset),color:b(t,n.color,r.color)}},grayscale:d,"hue-rotate":y,invert:d,opacity:d,saturate:d,sepia:d};function ht(t,n,r){if(0===t)return n;if(1===t)return r;var e=n.length;if(e!==r.length)return h(t,n,r);for(var i,u=[],o=0;o<e;o++){if(n[o].type!==r[o].type)return n;if(!(i=vt[n[o].type]))return h(t,n,r);u.push({type:n.type,value:i(t,n[o].value,r[o].value)})}return u}var yt={blur:function(t){return t?function(n){t.setAttribute("stdDeviation",I(n))}:null},brightness:function(t,n,r){return(t=gt(r,n))?function(n){n=_(n),t.map((function(t){return t.setAttribute("slope",n)}))}:null},contrast:function(t,n,r){return(t=gt(r,n))?function(n){var r=_((1-n)/2);n=_(n),t.map((function(t){t.setAttribute("slope",n),t.setAttribute("intercept",r)}))}:null},"drop-shadow":function(t,n,r){var e=r.getElementById(n+"-blur");if(!e)return null;var i=r.getElementById(n+"-offset");if(!i)return null;var u=r.getElementById(n+"-flood");return u?function(t){e.setAttribute("stdDeviation",I(t.blur)),i.setAttribute("dx",_(t.offset.x)),i.setAttribute("dy",_(t.offset.y)),u.setAttribute("flood-color",E(t.color))}:null},grayscale:function(t){return t?function(n){t.setAttribute("values",M(function(t){return[.2126+.7874*(t=1-t),.7152-.7152*t,.0722-.0722*t,0,0,.2126-.2126*t,.7152+.2848*t,.0722-.0722*t,0,0,.2126-.2126*t,.7152-.7152*t,.0722+.9278*t,0,0,0,0,0,1,0]}(n)))}:null},"hue-rotate":function(t){return t?function(n){return t.setAttribute("values",_(n))}:null},invert:function(t,n,r){return(t=gt(r,n))?function(n){n=_(n)+" "+_(1-n),t.map((function(t){return t.setAttribute("tableValues",n)}))}:null},opacity:function(t,n,r){return(t=r.getElementById(n+"-A"))?function(n){return t.setAttribute("tableValues","0 "+_(n))}:null},saturate:function(t){return t?function(n){return t.setAttribute("values",_(n))}:null},sepia:function(t){return t?function(n){return t.setAttribute("values",M(function(t){return[.393+.607*(t=1-t),.769-.769*t,.189-.189*t,0,0,.349-.349*t,.686+.314*t,.168-.168*t,0,0,.272-.272*t,.534-.534*t,.131+.869*t,0,0,0,0,0,1,0]}(n)))}:null}};var dt=["R","G","B"];function gt(t,n){var r=dt.map((function(r){return t.getElementById(n+"-"+r)||null}));return-1!==r.indexOf(null)?null:r}var mt={fill:st,"fill-opacity":lt,stroke:st,"stroke-opacity":lt,"stroke-width":at,"stroke-dashoffset":{f:_,i:y},"stroke-dasharray":ft,opacity:lt,transform:function(n,r,e,i){if(!(n=function(n,r){if(!n||"object"!==t(n))return null;var e=!1;for(var i in n)n.hasOwnProperty(i)&&(n[i]&&n[i].length?(n[i].forEach((function(t){t.e&&(t.e=r(t.e))})),e=!0):delete n[i]);return e?n:null}(n,i)))return null;var u=function(t,i,u){var o=arguments.length>3&&void 0!==arguments[3]?arguments[3]:null;return n[t]?e(i,n[t],u):r&&r[t]?r[t]:o};return r&&r.a&&n.o?function(t){var r=e(t,n.o,nt);return it.recomposeSelf(r,u("r",t,y,0)+r.a,u("k",t,g),u("s",t,g),u("t",t,g)).toString()}:function(t){return it.recomposeSelf(u("o",t,tt,null),u("r",t,y,0),u("k",t,g),u("s",t,g),u("t",t,g)).toString()}},"#filter":function(t,n,r,e,i,u,o,a){if(!n.items||!t||!t.length)return null;var l=function(t,n){var r=(t=t.map((function(t){return t&&yt[t[0]]?(n.getElementById(t[1]),yt[t[0]](n.getElementById(t[1]),t[1],n)):null}))).length;return function(n){for(var e=0;e<r;e++)t[e]&&t[e](n[e].value)}}(n.items,a);return l?(t=function(t,n){return t.map((function(t){return t.e=n(t.e),t}))}(t,e),function(n){l(r(n,t,ht))}):null},"#line":ot,points:{f:M,i:A},d:ut,r:at,"#size":B,"#radius":F,_:function(t,n){if(Array.isArray(t))for(var r=0;r<t.length;r++)this[t[r]]=n;else this[t]=n}},pt=function(){function t(r){n(this,t),this.list=r,this.length=r.length}return e(t,[{key:"setAttribute",value:function(t,n){for(var r=this.list,e=0;e<this.length;e++)r[e].setAttribute(t,n)}},{key:"removeAttribute",value:function(t){for(var n=this.list,r=0;r<this.length;r++)n[r].removeAttribute(t)}},{key:"style",value:function(t,n){for(var r=this.list,e=0;e<this.length;e++)r[e].style[t]=n}}]),t}(),bt=/-./g,wt=function(t,n){return n.toUpperCase()};function At(t){return"function"==typeof t?t:h}function xt(t){return t?"function"==typeof t?t:Array.isArray(t)?function(t){var n=arguments.length>1&&void 0!==arguments[1]?arguments[1]:u;if(!Array.isArray(t))return n;switch(t.length){case 1:return s(t[0])||n;case 2:return s(t[0],t[1])||n;case 4:return a(t[0],t[1],t[2],t[3])||n}return n}(t,null):function(t,n){var r=arguments.length>2&&void 0!==arguments[2]?arguments[2]:u;switch(t){case"linear":return u;case"steps":return s(n.steps||1,n.jump||0)||r;case"bezier":case"cubic-bezier":return a(n.x1||0,n.y1||0,n.x2||0,n.y2||0)||r}return r}(t.type,t.value,null):null}function kt(t,n,r){var e=arguments.length>3&&void 0!==arguments[3]&&arguments[3],i=n.length-1;if(t<=n[0].t)return e?[0,0,n[0].v]:n[0].v;if(t>=n[i].t)return e?[i,1,n[i].v]:n[i].v;var u,o=n[0],a=null;for(u=1;u<=i;u++){if(!(t>n[u].t)){a=n[u];break}o=n[u]}return null==a?e?[i,1,n[i].v]:n[i].v:o.t===a.t?e?[u,1,a.v]:a.v:(t=(t-o.t)/(a.t-o.t),o.e&&(t=o.e(t)),e?[u,t,r(t,o.v,a.v)]:r(t,o.v,a.v))}function St(t,n){var r=arguments.length>2&&void 0!==arguments[2]?arguments[2]:null;return t&&t.length?"function"!=typeof n?null:("function"!=typeof r&&(r=null),function(e){var i=kt(e,t,n);return null!=i&&r&&(i=r(i)),i}):null}function _t(t,n){return t.t-n.t}function Mt(n,r,e,i,u){var o,a="@"===e[0],l="#"===e[0],f=mt[e],s=h;switch(a?(o=e.substr(1),e=o.replace(bt,wt)):l&&(e=e.substr(1)),t(f)){case"function":if(s=f(i,u,kt,xt,e,a,r,n),l)return s;break;case"string":s=St(i,At(f));break;case"object":if((s=St(i,At(f.i),f.f))&&"function"==typeof f.u)return f.u(r,s,e,a,n)}return s?function(t,n,r){var e=arguments.length>3&&void 0!==arguments[3]&&arguments[3];if(e)return t instanceof pt?function(e){return t.style(n,r(e))}:function(e){return t.style[n]=r(e)};if(Array.isArray(n)){var i=n.length;return function(e){var u=r(e);if(null==u)for(var o=0;o<i;o++)t[o].removeAttribute(n);else for(var a=0;a<i;a++)t[a].setAttribute(n,u)}}return function(e){var i=r(e);null==i?t.removeAttribute(n):t.setAttribute(n,i)}}(r,e,s,a):null}function It(n,r,e,i){if(!i||"object"!==t(i))return null;var u=null,o=null;return Array.isArray(i)?o=function(t){if(!t||!t.length)return null;for(var n=0;n<t.length;n++)t[n].e&&(t[n].e=xt(t[n].e));return t.sort(_t)}(i):(o=i.keys,u=i.data||null),o?Mt(n,r,e,o,u):null}function Et(t,n,r){if(!r)return null;var e=[];for(var i in r)if(r.hasOwnProperty(i)){var u=It(t,n,i,r[i]);u&&e.push(u)}return e.length?e:null}function Ft(t,n){if(!n.duration||n.duration<0)return null;var r=function(t,n){if(!n)return null;var r=[];if(Array.isArray(n))for(var e=n.length,i=0;i<e;i++){var u=n[i];if(2===u.length){var o=null;if("string"==typeof u[0])o=t.getElementById(u[0]);else if(Array.isArray(u[0])){o=[];for(var a=0;a<u[0].length;a++)if("string"==typeof u[0][a]){var l=t.getElementById(u[0][a]);l&&o.push(l)}o=o.length?1===o.length?o[0]:new pt(o):null}if(o){var f=Et(t,o,u[1]);f&&(r=r.concat(f))}}}else for(var s in n)if(n.hasOwnProperty(s)){var c=t.getElementById(s);if(c){var v=Et(t,c,n[s]);v&&(r=r.concat(v))}}return r.length?r:null}(t,n.elements);return r?function(t,n){var r=arguments.length>2&&void 0!==arguments[2]?arguments[2]:1/0,e=arguments.length>3&&void 0!==arguments[3]?arguments[3]:1,i=arguments.length>4&&void 0!==arguments[4]&&arguments[4],u=arguments.length>5&&void 0!==arguments[5]?arguments[5]:1,o=t.length,a=e>0?n:0;i&&r%2==0&&(a=n-a);var l=null;return function(f,s){var c=f%n,v=1+(f-c)/n;s*=e,i&&v%2==0&&(s=-s);var h=!1;if(v>r)c=a,h=!0,-1===u&&(c=e>0?0:n);else if(s<0&&(c=n-c),c===l)return!1;l=c;for(var y=0;y<o;y++)t[y](c);return h}}(r,n.duration,n.iterations||1/0,n.direction||1,!!n.alternate,n.fill||1):null}var Bt=function(){function t(r){var e=arguments.length>1&&void 0!==arguments[1]?arguments[1]:{};n(this,t),this._id=0,this._running=!1,this._animations=r,this.direction=e.direction||1,this.speed=e.speed||1,this.fps=e.fps||100,this.offset=e.offset||0}return e(t,[{key:"_start",value:function(){var t=this,n=arguments.length>0&&void 0!==arguments[0]?arguments[0]:0,r=-1/0,e=null,i={},u=function u(o){t._running=!0,null==e&&(e=o);var a=Math.round((o-e+n)*t.speed),l=t.fps?1e3/t.fps:0;if(a>r+l){t.offset=a,r=a;for(var f=t._animations,s=f.length,c=0,v=0;v<s;v++)i[v]?c++:(i[v]=f[v](a,t.direction),i[v]&&c++);if(c===s)return void t._stop()}t._id=window.requestAnimationFrame(u)};this._id=window.requestAnimationFrame(u)}},{key:"_stop",value:function(){this._id&&window.cancelAnimationFrame(this._id),this._running=!1}},{key:"play",value:function(){this._running||this._start(this.offset)}},{key:"stop",value:function(){this._stop(),this.offset=0;var t=this.direction,n=this._animations;requestAnimationFrame((function(){for(var r=0;r<n.length;r++)n[r](0,t)}))}},{key:"restart",value:function(){this._stop(),this.offset=0,this._start()}},{key:"pause",value:function(){this._stop()}},{key:"reverse",value:function(){this.direction=-this.direction}}],[{key:"build",value:function(n){if(!(n=function(t){if(!t||!t.root||!Array.isArray(t.animations))return null;var n=window.document.getElementById(t.root);if(!n)return null;var r=t.animations.map((function(t){return Ft(n,t)})).filter((function(t){return!!t}));return r.length?{element:n,animations:r,options:t.options||void 0}:null}(n)))return null;var r=n.element,e=n.options||{},i=new t(n.animations,n.options);return function(t,n,r){var e=arguments.length>3&&void 0!==arguments[3]?arguments[3]:null;if("click"===r){var i=function r(){n.removeEventListener("click",r),t.play()};return void n.addEventListener("click",i)}if("hover"===r)return n.addEventListener("mouseenter",(function(){return t.play()})),void n.addEventListener("mouseleave","freeze"===e?function(){return t.pause()}:function(){return t.stop()});t.play()}(i,r,e.start,e.hover),i}}]),t}();return function(){for(var t=0,n=["ms","moz","webkit","o"],r=0;r<n.length&&!window.requestAnimationFrame;++r)window.requestAnimationFrame=window[n[r]+"RequestAnimationFrame"],window.cancelAnimationFrame=window[n[r]+"CancelAnimationFrame"]||window[n[r]+"CancelRequestAnimationFrame"];window.requestAnimationFrame||(window.requestAnimationFrame=function(n){var r=Date.now(),e=Math.max(0,16-(r-t)),i=window.setTimeout((function(){n(r+e)}),e);return t=r+e,i},window.cancelAnimationFrame=window.clearTimeout)}(),Bt}));
__SVGATOR_PLAYER__.build({"root":"eqe0k4iirqvf1","animations":[{"duration":6000,"direction":1,"iterations":"Infinite","fill":1,"alternate":false,"elements":{"eqe0k4iirqvf101":{"transform":{"keys":{"o":[{"t":0,"v":{"x":0,"y":0,"type":"corner"}},{"t":3000,"v":{"x":-1.2487948100001631,"y":-0.4394530000000145,"type":"corner"}},{"t":6000,"v":{"x":0,"y":0,"type":"corner"}}]}}},"eqe0k4iirqvf102":{"transform":{"keys":{"o":[{"t":0,"v":{"x":0,"y":0,"type":"corner"}},{"t":3000,"v":{"x":1.2677920599999197,"y":1.0249408499997799,"type":"corner"}},{"t":6000,"v":{"x":0,"y":0,"type":"corner"}}]}}},"eqe0k4iirqvf116":{"transform":{"keys":{"o":[{"t":0,"v":{"x":0,"y":0,"type":"corner"}},{"t":3000,"v":{"x":-11.614032260001295,"y":-2.7310306699999387,"type":"corner"}},{"t":6000,"v":{"x":0,"y":0,"type":"corner"}}]}}},"eqe0k4iirqvf118":{"transform":{"keys":{"o":[{"t":0,"v":{"x":0,"y":0,"type":"corner"}},{"t":3000,"v":{"x":-11.822018229989226,"y":-0.5855021699999838,"type":"corner"}},{"t":6000,"v":{"x":0,"y":0,"type":"corner"}}]}}},"eqe0k4iirqvf120":{"transform":{"keys":{"o":[{"t":0,"v":{"x":0,"y":0,"type":"corner"}},{"t":3000,"v":{"x":-7.764080435000324,"y":-0.3753593000000137,"type":"corner"}},{"t":6000,"v":{"x":0,"y":0,"type":"corner"}}]}}},"eqe0k4iirqvf122":{"transform":{"keys":{"o":[{"t":0,"v":{"x":0,"y":0,"type":"corner"}},{"t":3000,"v":{"x":-3.483356069996262,"y":-1.146411459999996,"type":"corner"}},{"t":6000,"v":{"x":0,"y":0,"type":"corner"}}]}}},"eqe0k4iirqvf124":{"transform":{"keys":{"o":[{"t":0,"v":{"x":0,"y":0,"type":"corner"}},{"t":3000,"v":{"x":-5.2138214900001,"y":-1.0437533999999573,"type":"corner"}},{"t":6000,"v":{"x":0,"y":0,"type":"corner"}}]}}},"eqe0k4iirqvf126":{"transform":{"keys":{"o":[{"t":0,"v":{"x":0,"y":0,"type":"corner"}},{"t":3000,"v":{"x":-8.84874407999996,"y":-3.494263959999955,"type":"corner"}},{"t":6000,"v":{"x":0,"y":0,"type":"corner"}}]}}},"eqe0k4iirqvf128":{"transform":{"keys":{"o":[{"t":0,"v":{"x":-0.411440139997012,"y":0.0846002550001117,"type":"corner"}},{"t":3000,"v":{"x":-6.204466000000139,"y":0.08460025500008328,"type":"corner"}},{"t":6000,"v":{"x":-0.411440139997012,"y":0.0846002550001117,"type":"corner"}}]}}},"eqe0k4iirqvf130":{"transform":{"keys":{"o":[{"t":0,"v":{"x":0,"y":0,"type":"corner"}},{"t":3000,"v":{"x":8.461350000000039,"y":0.29430787000001146,"type":"corner"}},{"t":6000,"v":{"x":0,"y":0,"type":"corner"}}]}}},"eqe0k4iirqvf132":{"transform":{"keys":{"o":[{"t":0,"v":{"x":0,"y":0,"type":"corner"}},{"t":3000,"v":{"x":-4.952713929997117,"y":0.20904698999953553,"type":"corner"}},{"t":6000,"v":{"x":0,"y":0,"type":"corner"}}]}}},"eqe0k4iirqvf134":{"transform":{"keys":{"o":[{"t":0,"v":{"x":0,"y":0,"type":"corner"}},{"t":3000,"v":{"x":-4.6801050799986115,"y":0.41753131000098165,"type":"corner"}},{"t":6000,"v":{"x":0,"y":0,"type":"corner"}}]}}},"eqe0k4iirqvf136":{"transform":{"keys":{"o":[{"t":0,"v":{"x":-0.3374288200138835,"y":-0.20487561998857018,"type":"corner"}},{"t":3000,"v":{"x":2.2265210299924547,"y":-0.20487561998947967,"type":"corner"}},{"t":6000,"v":{"x":-0.3374288200138835,"y":-0.20487561998857018,"type":"corner"}}]}}},"eqe0k4iirqvf137":{"transform":{"keys":{"o":[{"t":0,"v":{"x":0,"y":0,"type":"corner"}},{"t":3000,"v":{"x":3.2180185500001244,"y":0.21682420000001912,"type":"corner"}},{"t":6000,"v":{"x":0,"y":0,"type":"corner"}}]}}},"eqe0k4iirqvf142":{"opacity":[{"t":0,"v":1},{"t":1600,"v":0.5},{"t":3800,"v":0.7},{"t":5000,"v":0.18},{"t":6000,"v":1}]},"eqe0k4iirqvf145":{"opacity":[{"t":0,"v":0.42},{"t":900,"v":1},{"t":3000,"v":0.2},{"t":4400,"v":0.74},{"t":6000,"v":0.42}]}}}],"options":{"start":"load","hover":"freeze"}})]]></script></svg>