<svg width="463" height="489" fill="none" xmlns="http://www.w3.org/2000/svg"><path d="M398.96 238.344h16.8l23.4 2.7 14 9.3 8.6 9.4-5.9 20-17.2 13.5-34-4.6-24.5-8.1 18.8-42.2zM114.859 489.745h231.3l-.4-31.5 13.8 3 6.5-8.1 1.6-19.5-1.6-16.5 12.7-.5 18.4-1.9 9.2-6.5 9.7-11.1-20.8-27.801-18.7-25.099-20.2-7.901-234.9-90.199-19.6 54.6-27.1 44-2.2 23.2 21.4 46.3 20.9 75.5z" fill="#FACABC"/><path d="M210.86 329.045L.66 134.145l61.2-55.5-4.7-8 31.2-15.3 37.2-34.5 15.3 14.2 76.6-34.5 11.1 20.8 19.6 3.3 80.5-7.2 2.3 18.1 62.1 8.4-2.4 26.5 72.1 24.3-113.1 254.6-104.3-43.8-34.5 23.5z" fill="#FFF1F0"/><path d="M228.758 316.845l-6.2-31.2-8.6-25.6-3.2-25.6 3.9-22.4 7.1-15 14.5-12.9 15.2-2.6 19.6 12.1 11.1 22.8 14.3 38.4 5.3 29.9 7.8 62.5-80.8-30.4z" fill="#FACABC"/><path d="M121.459 246.145l25 23.199-19.9 45.2-32.4 32.701-2.4 23.7 27.3 42.8 17.5 76h-21.7l-20.9-75.5-21.4-46.3 2.2-23.2 27.1-44 19.6-54.6z" fill="#BE988D"/><path d="M223.274 203.717l14.277-11.303h17.845l16.061 17.251 9.518 20.821-25.579 12.492-32.122 5.949-4.165-18.441 4.165-26.769z" fill="#FFF1F0"/></svg>