<svg width="509" height="786" fill="none" xmlns="http://www.w3.org/2000/svg"><mask id="a" maskUnits="userSpaceOnUse" x="0" y="0" width="509" height="1196" fill="#000"><path fill="#fff" d="M0 0h509v1196H0z"/><path fill-rule="evenodd" clip-rule="evenodd" d="M220.225 76.804l.007.006c-1.095 7.712-2.311 18.667-2.959 30.591-3.758.391-6.638 1.043-7.989 1.976-3.871 2.673-9.91 7.729-1.454 11.906 3.705 1.831 6.596 2.455 8.977 2.453a238.03 238.03 0 00.109 7.43l-.005.002c.133 4.325.393 8.588.81 12.686.152 1.497.298 3.01.436 4.538h.005c1.734 19.101 2.433 40.406 2.715 57.798l-.51-.027c.19 11.734.19 21.686.19 27.976 0 .628-.002 1.267-.004 1.915-.022 6.915-.047 14.875 2.368 22.213-11.114 3.45-28.747 10.969-40.806 23.029-1.668 1.667-3.267 3.581-4.802 5.699-10.746 14.826-18.372 39.645-24.579 59.845v.001l-.153.498-.805 2.618c-2.21 7.173-4.244 13.631-6.183 18.667v.001c-7.951 20.651-13.468 55.063-11.273 83.552.095 1.232.205 2.452.329 3.659 2.995 29.148-.116 69.125-7.258 101.614-1.698 7.721-3.564 14.648-5.308 21.118-3.779 14.022-6.979 25.899-6.628 39.061l-63.656 44.914-28.09-37.678v-.014l-.005.006-.005-.006v.012L10 640.634v17.397-.001c2.036 4.456 5.645 16.267 3.802 27.879 7.926 10.967 33.64 43.817 45.507 58.871l26.498-22.235-.01-.013v-14.386l-11.558-15.503 49.891-41.298c8.471 15.847 19.5 18.094 22.426 18.691l.235.048.067.014.118.026c2.535.576 9.217-4.839 7.834-12.212-.193-.803-1.201-2.475-2.544-4.704-2.778-4.608-6.989-11.595-8.398-18.202l.772-.639c2.33 7.167 6.94 18.498 11.322 22.508 5.415 4.954 6.222-7.949 3.802-8.871 5.761 2.189 9.793 1.843 10.599-2.074.02-.094.05-.248.09-.457.358 15.297 1.615 29.15 3.839 39.86 8.756 42.166 11.636 101.498 8.41 119.01-2.58 14.009 1.076 20.584 3.226 22.12 8.521 7.326 23.955 20.487 35.505 30.047-4.459 2.954-9.669 10.635-9.241 26.98.553 21.106-3.84 42.665-6.106 50.807 6.596 3.532 18.781 9.747 29.029 14.199 2.385 14.873 6.877 38.553 11.749 51.125 1.728 4.379 2.649 10.949-2.074 11.639-4.724.69-2.074 10.14 0 12.44 2.074 2.3 3.571 5.53.922 8.99-2.65 3.45-4.263 12.78-4.263 17.39 0 4.61-.922 8.87-13.479 22.12-4.889 5.16-11.908 10.21-18.97 15.3h-.001c-11.079 7.97-22.263 16.03-25.5 24.68-.099.26-.199.53-.299.8-.226.6-.456 1.2-.688 1.81-5.223 13.76-11.499 30.29 7.554 27.8 20.277-2.65 26.844-1.95 32.374 0 5.53 1.96 19.009 1.5 31.106-6.79 1.899-1.31 3.946-2.75 6.095-4.27l.013-.01c11.532-8.15 25.98-18.37 36.173-19.34 12.097-1.15 34.908-8.76 38.941-13.36 4.032-4.61.23-32.95-8.756-46.09-7.189-10.5-4.992-23.73-2.996-29.03 1.729-4.07 3.134-12.58-5.069-14.06 1.584-12.666 1.426-52.428-.828-69.005 4.935-3.286 9.488-7.276 13.392-12.099-5.486-11.065-12.022-38.188-14.34-53.027 3.53-.827 6.671-1.917 9.274-3.308a147.627 147.627 0 017.584-3.752l1.975 11.585c.039 1.075.737 3.571 3.226 4.953 2.488 1.383-1.114 5.339-3.226 7.143l3.226 19.471c1.075 3.917 2.581 14.17 0 23.848-3.226 12.097-6.452 27.419-3.226 30.645.048.048.103.101.166.159.849 4.972 3.201 11.726 8.586 16.779 1.24 1.164 2.47 2.252 3.686 3.328 7.929 7.015 15.229 13.474 20.623 36.65 6.221 26.73 13.133 46.54 18.548 55.41 5.415 8.88 5.3 39.17 0 50.35-5.299 11.18-15.553 34.45 6.106 48.04 21.659 13.6 43.088 8.53 51.038 4.26 7.949-4.26 20.967-13.59 20.852-31.79-.093-14.73-6.292-34.96-9.207-44.47-.689-2.24-1.194-3.89-1.392-4.73-1.037-4.37-2.074-12.44 0-17.05 2.074-4.61 1.613-14.28-3.226-19.01-3.091-3.01-1.809-5.19.091-8.4 1.073-1.82 2.345-3.98 3.135-6.8 1.143-4.09-.1-6.96-1.238-9.58-1.043-2.41-1.997-4.61-.951-7.36 2.085-5.49 8.561-37.736-.987-54.824 5.363-3.356 9.143-6.455 10.438-8.543 4.148-6.682 10.484-26.152 7.604-33.064-2.304-5.53-16.551-43.395-23.387-61.637-.96-2.803-3.825-8.848-7.604-10.599-4.723-2.189-10.138-4.723-7.949-10.599s1.843-16.014-3.917-28.111c-1.107-2.324-2.213-4.388-3.238-6.3-4.311-8.042-7.177-13.389-2.523-24 3.624-8.263 2.688-11.464 1.496-15.542-.704-2.404-1.496-5.113-1.496-9.343 0-11.061-1.734-37.945-18.97-56.267a63.249 63.249 0 003.641-2.949c8.986 11.751 21.659-3.571 23.502-6.567 4.803 5.354 8.152.378 12.145-5.552v-.001c1.851-2.748 3.839-5.701 6.174-7.926 26.382-25.807 18.433-70.277 13.825-88.365 21.751-26.267 34.024-84.294 37.442-110.024-1.491-.541-3.396-1.351-5.635-2.303l-.893-.38c9.43-38.66-21.212-124.164-38.402-168.4-16.157-41.576-28.89-45.692-45.73-51.135l-.001-.001a383.673 383.673 0 01-3.579-1.169c-11.986-3.995-25.665-12.812-34.171-19.035 3.061-11.488 4.114-23.297 4.342-30.504.461-14.516 9.678-95.853 11.636-104.724a1986.848 1986.848 0 014.263-18.78c2.151-4.531 5.807-18.732 3.226-39.285-3.226-25.692-30.761-36.982-45.738-41.13-.338-.093-.686-.188-1.045-.283-15.546-4.13-50.524-9.637-78.456 5.005-28.572 14.977-43.849 27.995-46.775 51.844a214.201 214.201 0 00-.834 5.417zm163.39 621.201c-.773.773-2.527 1.255-4.617 1.794l-.299-3.206c-.387-4.153-.772-8.285-1.15-12.387 6.844-1.701 16.676-14.5 20.698-20.533 1.316 18.651-10.322 30.094-14.122 33.829l-.51.503zm-6.221-43.203a34.72 34.72 0 00-2.113 3.672c-3.442-41.831-4.805-78.047 2.239-97.451 7.594-20.921 1.267-39.862-7.489-46.89 2.735-8.161 2.053-13.769-.063-17.508 6.929-16.775 19.158-44.684 24.132-49.658 1.375 7.649 12.204 35.321 18.519 50.857-4.678 3.793-8.74 7.493-11.864 10.339-1.318 1.201-2.469 2.25-3.43 3.09-6.528 5.071-3.417 11.62 2.752 24.607 1.538 3.238 3.266 6.876 5.082 10.992 12.901 31.585 4.331 50.179-1.357 62.519l-.01.021-.014.031c-.196.425-.389.843-.577 1.254-5.645 12.328-20.277 35.83-25.807 44.125zm-261.248-28.883l-.004-.022-58.45 44.552.002.001 58.452-44.531z"/></mask><path fill-rule="evenodd" clip-rule="evenodd" d="M220.225 76.804l.007.006c-1.095 7.712-2.311 18.667-2.959 30.591-3.758.391-6.638 1.043-7.989 1.976-3.871 2.673-9.91 7.729-1.454 11.906 3.705 1.831 6.596 2.455 8.977 2.453a238.03 238.03 0 00.109 7.43l-.005.002c.133 4.325.393 8.588.81 12.686.152 1.497.298 3.01.436 4.538h.005c1.734 19.101 2.433 40.406 2.715 57.798l-.51-.027c.19 11.734.19 21.686.19 27.976 0 .628-.002 1.267-.004 1.915-.022 6.915-.047 14.875 2.368 22.213-11.114 3.45-28.747 10.969-40.806 23.029-1.668 1.667-3.267 3.581-4.802 5.699-10.746 14.826-18.372 39.645-24.579 59.845v.001l-.153.498-.805 2.618c-2.21 7.173-4.244 13.631-6.183 18.667v.001c-7.951 20.651-13.468 55.063-11.273 83.552.095 1.232.205 2.452.329 3.659 2.995 29.148-.116 69.125-7.258 101.614-1.698 7.721-3.564 14.648-5.308 21.118-3.779 14.022-6.979 25.899-6.628 39.061l-63.656 44.914-28.09-37.678v-.014l-.005.006-.005-.006v.012L10 640.634v17.397-.001c2.036 4.456 5.645 16.267 3.802 27.879 7.926 10.967 33.64 43.817 45.507 58.871l26.498-22.235-.01-.013v-14.386l-11.558-15.503 49.891-41.298c8.471 15.847 19.5 18.094 22.426 18.691l.235.048.067.014.118.026c2.535.576 9.217-4.839 7.834-12.212-.193-.803-1.201-2.475-2.544-4.704-2.778-4.608-6.989-11.595-8.398-18.202l.772-.639c2.33 7.167 6.94 18.498 11.322 22.508 5.415 4.954 6.222-7.949 3.802-8.871 5.761 2.189 9.793 1.843 10.599-2.074.02-.094.05-.248.09-.457.358 15.297 1.615 29.15 3.839 39.86 8.756 42.166 11.636 101.498 8.41 119.01-2.58 14.009 1.076 20.584 3.226 22.12 8.521 7.326 23.955 20.487 35.505 30.047-4.459 2.954-9.669 10.635-9.241 26.98.553 21.106-3.84 42.665-6.106 50.807 6.596 3.532 18.781 9.747 29.029 14.199 2.385 14.873 6.877 38.553 11.749 51.125 1.728 4.379 2.649 10.949-2.074 11.639-4.724.69-2.074 10.14 0 12.44 2.074 2.3 3.571 5.53.922 8.99-2.65 3.45-4.263 12.78-4.263 17.39 0 4.61-.922 8.87-13.479 22.12-4.889 5.16-11.908 10.21-18.97 15.3h-.001c-11.079 7.97-22.263 16.03-25.5 24.68-.099.26-.199.53-.299.8-.226.6-.456 1.2-.688 1.81-5.223 13.76-11.499 30.29 7.554 27.8 20.277-2.65 26.844-1.95 32.374 0 5.53 1.96 19.009 1.5 31.106-6.79 1.899-1.31 3.946-2.75 6.095-4.27l.013-.01c11.532-8.15 25.98-18.37 36.173-19.34 12.097-1.15 34.908-8.76 38.941-13.36 4.032-4.61.23-32.95-8.756-46.09-7.189-10.5-4.992-23.73-2.996-29.03 1.729-4.07 3.134-12.58-5.069-14.06 1.584-12.666 1.426-52.428-.828-69.005 4.935-3.286 9.488-7.276 13.392-12.099-5.486-11.065-12.022-38.188-14.34-53.027 3.53-.827 6.671-1.917 9.274-3.308a147.627 147.627 0 017.584-3.752l1.975 11.585c.039 1.075.737 3.571 3.226 4.953 2.488 1.383-1.114 5.339-3.226 7.143l3.226 19.471c1.075 3.917 2.581 14.17 0 23.848-3.226 12.097-6.452 27.419-3.226 30.645.048.048.103.101.166.159.849 4.972 3.201 11.726 8.586 16.779 1.24 1.164 2.47 2.252 3.686 3.328 7.929 7.015 15.229 13.474 20.623 36.65 6.221 26.73 13.133 46.54 18.548 55.41 5.415 8.88 5.3 39.17 0 50.35-5.299 11.18-15.553 34.45 6.106 48.04 21.659 13.6 43.088 8.53 51.038 4.26 7.949-4.26 20.967-13.59 20.852-31.79-.093-14.73-6.292-34.96-9.207-44.47-.689-2.24-1.194-3.89-1.392-4.73-1.037-4.37-2.074-12.44 0-17.05 2.074-4.61 1.613-14.28-3.226-19.01-3.091-3.01-1.809-5.19.091-8.4 1.073-1.82 2.345-3.98 3.135-6.8 1.143-4.09-.1-6.96-1.238-9.58-1.043-2.41-1.997-4.61-.951-7.36 2.085-5.49 8.561-37.736-.987-54.824 5.363-3.356 9.143-6.455 10.438-8.543 4.148-6.682 10.484-26.152 7.604-33.064-2.304-5.53-16.551-43.395-23.387-61.637-.96-2.803-3.825-8.848-7.604-10.599-4.723-2.189-10.138-4.723-7.949-10.599s1.843-16.014-3.917-28.111c-1.107-2.324-2.213-4.388-3.238-6.3-4.311-8.042-7.177-13.389-2.523-24 3.624-8.263 2.688-11.464 1.496-15.542-.704-2.404-1.496-5.113-1.496-9.343 0-11.061-1.734-37.945-18.97-56.267a63.249 63.249 0 003.641-2.949c8.986 11.751 21.659-3.571 23.502-6.567 4.803 5.354 8.152.378 12.145-5.552v-.001c1.851-2.748 3.839-5.701 6.174-7.926 26.382-25.807 18.433-70.277 13.825-88.365 21.751-26.267 34.024-84.294 37.442-110.024-1.491-.541-3.396-1.351-5.635-2.303l-.893-.38c9.43-38.66-21.212-124.164-38.402-168.4-16.157-41.576-28.89-45.692-45.73-51.135l-.001-.001a383.673 383.673 0 01-3.579-1.169c-11.986-3.995-25.665-12.812-34.171-19.035 3.061-11.488 4.114-23.297 4.342-30.504.461-14.516 9.678-95.853 11.636-104.724a1986.848 1986.848 0 014.263-18.78c2.151-4.531 5.807-18.732 3.226-39.285-3.226-25.692-30.761-36.982-45.738-41.13-.338-.093-.686-.188-1.045-.283-15.546-4.13-50.524-9.637-78.456 5.005-28.572 14.977-43.849 27.995-46.775 51.844a214.201 214.201 0 00-.834 5.417zm163.39 621.201c-.773.773-2.527 1.255-4.617 1.794l-.299-3.206c-.387-4.153-.772-8.285-1.15-12.387 6.844-1.701 16.676-14.5 20.698-20.533 1.316 18.651-10.322 30.094-14.122 33.829l-.51.503zm-6.221-43.203a34.72 34.72 0 00-2.113 3.672c-3.442-41.831-4.805-78.047 2.239-97.451 7.594-20.921 1.267-39.862-7.489-46.89 2.735-8.161 2.053-13.769-.063-17.508 6.929-16.775 19.158-44.684 24.132-49.658 1.375 7.649 12.204 35.321 18.519 50.857-4.678 3.793-8.74 7.493-11.864 10.339-1.318 1.201-2.469 2.25-3.43 3.09-6.528 5.071-3.417 11.62 2.752 24.607 1.538 3.238 3.266 6.876 5.082 10.992 12.901 31.585 4.331 50.179-1.357 62.519l-.01.021-.014.031c-.196.425-.389.843-.577 1.254-5.645 12.328-20.277 35.83-25.807 44.125zm-261.248-28.883l-.004-.022-58.45 44.552.002.001 58.452-44.531z" fill="#FFC9BA"/><path d="M220.232 76.81l9.9 1.406a10 10 0 00-3.222-8.85l-6.678 7.444zm-.007-.006l-9.901-1.406a10 10 0 003.223 8.85l6.678-7.444zm-2.952 30.597l1.035 9.946a10 10 0 008.951-9.404l-9.986-.542zm-7.989 1.976l5.682 8.229-5.682-8.229zm-1.454 11.906l4.43-8.965-4.43 8.965zm8.977 2.453l10 .004a10.001 10.001 0 00-10.006-10.004l.006 10zm.109 7.43l3.61 9.326a10 10 0 006.385-9.633l-9.995.307zm-.005.002l-3.61-9.326a10.001 10.001 0 00-6.385 9.633l9.995-.307zm.81 12.686l9.949-1.012-9.949 1.012zm.436 4.538l-9.959.904a10 10 0 0010.183 9.093l-.224-9.997zm.005 0l9.959-.905a9.999 9.999 0 00-10.183-9.093l.224 9.998zm2.715 57.798l-.587 9.983a10 10 0 0010.585-10.144l-9.998.161zm-.51-.027l.486-9.988a9.996 9.996 0 00-10.484 10.15l9.998-.162zm.186 29.891l10 .031-10-.031zm2.368 22.213l2.964 9.551a9.997 9.997 0 006.534-12.677l-9.498 3.126zm-40.806 23.029l7.071 7.071-7.071-7.071zm-4.802 5.699l-8.097-5.868 8.097 5.868zm-24.579 59.845l8.893 4.574c.27-.525.493-1.073.666-1.637l-9.559-2.937zm0 .001l-8.893-4.573a9.866 9.866 0 00-.594 1.411l9.487 3.162zm0 0l-9.487-3.162a8.49 8.49 0 00-.072.226l9.559 2.936zm-.153.498l9.559 2.937-9.559-2.937zm-.805 2.618l9.556 2.944h.001l-9.557-2.944zm-6.183 18.667l8.662 4.997c.26-.45.484-.919.671-1.404l-9.333-3.593zm0 .001l-8.662-4.998c-.259.45-.484.92-.67 1.404l9.332 3.594zm-11.273 83.552l-9.971.768a10.001 10.001 0 005.91 8.37l4.061-9.138zm0 0l9.971-.768a9.998 9.998 0 00-5.909-8.37l-4.062 9.138zm.329 3.659l-9.948 1.023 9.948-1.023zm-7.258 101.614l9.766 2.147-9.766-2.147zm-5.308 21.118l-9.656-2.602c-.015.058-.031.117-.045.176l9.701 2.426zm0 0l9.655 2.602c.016-.059.032-.117.046-.176l-9.701-2.426zm-6.628 39.061l5.766 8.171a10.001 10.001 0 004.231-8.438l-9.997.267zm-63.656 44.914l-8.017 5.977a10 10 0 0013.782 2.194l-5.765-8.171zm-28.09-37.678h-10c0 2.153.696 4.25 1.984 5.976l8.017-5.976zm0-.014h10a9.999 9.999 0 00-17.548-6.559l7.549 6.559zm-.005.006l-8.016 5.979a10.003 10.003 0 0015.565.58l-7.549-6.559zm-.005-.006l8.016-5.979a9.999 9.999 0 00-18.016 5.979h10zm0 .012l7.55 6.557a10 10 0 002.45-6.557h-10zM10 640.634l-7.55-6.558A10.002 10.002 0 000 640.634h10zm0 17.397H0a10.001 10.001 0 0017.575 6.528L10 658.031zm0-.001l9.097-4.155a9.998 9.998 0 00-16.671-2.374l7.575 6.529zm3.802 27.879l-9.876-1.568a10 10 0 001.77 7.425l8.106-5.857zm45.507 58.871l-7.853 6.191a10.002 10.002 0 0014.281 1.469l-6.428-7.66zm26.498-22.235l6.428 7.66a10 10 0 001.467-13.798l-7.895 6.138zm-.01-.013h-10a10 10 0 002.105 6.138l7.895-6.138zm0-14.386h10a10 10 0 00-1.983-5.977l-8.017 5.977zm-11.558-15.503l-6.377-7.703a10 10 0 00-1.64 13.68l8.017-5.977zm49.891-41.298l8.819-4.715a9.998 9.998 0 00-15.196-2.989l6.377 7.704zm22.426 18.691l1.998-9.799h-.001l-1.997 9.799zm.235.048l2.067-9.784-.026-.006-2.041 9.79zm.067.014l2.08-9.781-.013-.003-2.067 9.784zm.118.026l2.216-9.752h-.003l-2.213 9.752zm7.834-12.212l9.829-1.843a10.198 10.198 0 00-.105-.491l-9.724 2.334zm-2.544-4.704l-8.564 5.162 8.564-5.162zm-8.398-18.202l-6.376-7.704a10 10 0 00-3.404 9.788l9.78-2.084zm.772-.639l9.509-3.092a9.997 9.997 0 00-15.886-4.611l6.377 7.703zm11.322 22.508l6.75-7.378-6.75 7.378zm3.802-8.871l3.552-9.348c-5.161-1.961-10.935.631-12.898 5.792-1.964 5.16.627 10.935 5.786 12.901l3.56-9.345zm10.599-2.074l-9.794-2.017v.001l9.794 2.016zm.09-.457l9.997-.234a10 10 0 00-19.818-1.649l9.821 1.883zm3.839 39.86l9.791-2.033-9.791 2.033zm8.41 119.01l9.835 1.812-9.835-1.812zm3.226 22.12l6.52-7.583a9.96 9.96 0 00-.707-.554l-5.813 8.137zm35.505 30.047l5.523 8.336a10 10 0 00.853-16.04l-6.376 7.704zm-9.241 26.98l9.997-.262-9.997.262zm-6.106 50.807l-9.634-2.682a10 10 0 004.914 11.497l4.72-8.815zm29.029 14.199l9.874-1.583a9.999 9.999 0 00-5.889-7.588l-3.985 9.171zm11.749 51.125l-9.325 3.609.023.06 9.302-3.669zm-2.074 11.639l1.448 9.89-1.448-9.89zm0 12.44l-7.433 6.69 7.433-6.69zm.922 8.99l-7.936-6.09 7.936 6.09zm-17.742 39.51l-7.258-6.88 7.258 6.88zM209 1087.5l-5.843-8.12c-.073.05-.146.11-.218.16l6.061 7.96zm-.001 0l5.843 8.11c.073-.05.145-.1.217-.16l-6.06-7.95zm-25.5 24.68l-9.366-3.5h-.001l9.367 3.5zm-.299.8l-9.358-3.53 9.358 3.53zm-.688 1.81l9.349 3.55-9.349-3.55zm7.554 27.8l-1.296-9.91 1.296 9.91zm32.374 0l3.338-9.42-3.338 9.42zm31.106-6.79l-5.655-8.25 5.655 8.25zm6.095-4.27l-5.704-8.22a.304.304 0 01-.07.05l5.774 8.17zm.013-.01l5.704 8.21c.023-.01.046-.03.069-.05l-5.773-8.16zm36.173-19.34l.948 9.95-.948-9.95zm38.941-13.36l-7.526-6.59 7.526 6.59zm-8.756-46.09l8.253-5.64-8.253 5.64zm-2.996-29.03l-9.204-3.91c-.054.13-.105.26-.153.38l9.357 3.53zm-5.069-14.06l-9.922-1.24c-.66 5.28 2.922 10.15 8.153 11.09l1.769-9.85zm-.828-69.005l-5.543-8.323a10 10 0 00-4.366 9.671l9.909-1.348zm13.392-12.099l7.772 6.292a9.998 9.998 0 001.187-10.734l-8.959 4.442zm-14.34-53.027l-2.281-9.737a10 10 0 00-7.6 11.28l9.881-1.543zm9.274-3.308l-4.713-8.82 4.713 8.82zm7.584-3.752l9.857-1.681a9.998 9.998 0 00-14.054-7.396l4.197 9.077zm1.975 11.585l9.994-.357a9.983 9.983 0 00-.136-1.325l-9.858 1.682zm0 12.096l-6.496-7.602a9.998 9.998 0 00-3.369 9.237l9.865-1.635zm3.226 19.471l-9.866 1.634c.057.341.131.679.223 1.013l9.643-2.647zm0 23.848l-9.662-2.577 9.662 2.577zm-3.06 30.804l9.857-1.684a9.998 9.998 0 00-3.052-5.643l-6.805 7.327zm8.586 16.779l-6.843 7.292 6.843-7.292zm3.686 3.328l-6.627 7.489c.124.109.251.216.38.319l6.247-7.808zm0 0l6.627-7.489c-.124-.11-.251-.216-.38-.32l-6.247 7.809zm20.623 36.65l9.739-2.27-9.739 2.27zm18.548 55.41l-8.535 5.21 8.535-5.21zm0 50.35l9.036 4.29-9.036-4.29zm6.106 48.04l5.316-8.47-5.316 8.47zm71.89-27.53l10-.07-10 .07zm-9.207-44.47l-9.561 2.94 9.561-2.94zm-1.392-4.73l9.731-2.3-9.731 2.3zm0-17.05l-9.119-4.1 9.119 4.1zm-3.226-19.01l-6.985 7.16 6.985-7.16zm.091-8.4l8.611 5.08-8.611-5.08zm3.135-6.8l9.631 2.69-9.631-2.69zm-1.238-9.58l9.174-3.98-9.174 3.98zm-.951-7.36l-9.348-3.55 9.348 3.55zm-.987-54.824l-5.305-8.477a10 10 0 00-3.424 13.355l8.729-4.878zm10.438-8.543l-8.496-5.273 8.496 5.273zm7.604-33.064l-9.231 3.846 9.231-3.846zm-23.387-61.637l-9.461 3.24c.031.09.063.18.097.269l9.364-3.509zm-7.604-10.599l-4.205 9.073h.001l4.204-9.073zm-7.949-10.599l9.371 3.491-9.371-3.491zm-3.917-28.111l-9.029 4.299 9.029-4.299zm-3.238-6.3l-8.814 4.724 8.814-4.724zm-2.523-24l9.158 4.017-9.158-4.017zm1.496-15.542l9.597-2.807v-.001l-9.597 2.808zm-20.466-65.61l-6.026-7.98a10.003 10.003 0 00-1.257 14.832l7.283-6.852zm3.641-2.949l7.944-6.074a10 10 0 00-14.56-1.424l6.616 7.498zm23.502-6.567l7.444-6.677a9.997 9.997 0 00-8.34-3.282 9.996 9.996 0 00-7.62 4.718l8.516 5.241zm12.145-5.552l-8-6c-.102.136-.2.274-.295.415l8.295 5.585zm0-.001l8 6c.102-.135.201-.274.296-.415l-8.296-5.585zm6.174-7.926l6.899 7.239.093-.09-6.992-7.149zm13.825-88.365l-7.703-6.378a10.002 10.002 0 00-1.988 8.847l9.691-2.469zm37.442-110.024l9.913 1.317a10 10 0 00-6.499-10.716l-3.414 9.399zm-5.635-2.303l3.913-9.203a11.828 11.828 0 00-.199-.082l-3.714 9.285zm0 0l-3.912 9.203.198.082 3.714-9.285zm-.893-.38l-9.715-2.369a10 10 0 005.808 11.575l3.907-9.206zm-38.402-168.4l-9.321 3.622 9.321-3.622zm-45.73-51.135l3.075-9.516a12.4 12.4 0 00-.328-.1l-2.747 9.616zm-.001-.001l-3.076 9.516c.109.035.219.068.329.1l2.747-9.616zm-3.579-1.169l-3.162 9.487 3.162-9.487zm-34.171-19.035l-9.663-2.574a10 10 0 003.759 10.645l5.904-8.071zm4.342-30.504l-9.995-.317 9.995.317zm11.636-104.724l9.765 2.155-9.765-2.155zm4.263-18.78l-9.034-4.287a9.99 9.99 0 00-.706 2.022l9.74 2.266zm3.226-39.285l-9.922 1.245 9.922-1.245zm-45.738-41.13l2.669-9.637-2.669 9.637zm-1.045-.283l-2.567 9.665h.001l2.566-9.665zm-78.456 5.005l-4.643-8.857 4.643 8.857zm-46.775 51.844l9.861 1.662c.025-.148.047-.296.065-.445l-9.926-1.218zm157.939 628.412l-9.957.928a10.001 10.001 0 0012.458 8.755l-2.501-9.683zm-.299-3.206l9.957-.928-9.957.928zm-1.15-12.387l-2.412-9.705a10 10 0 00-7.546 10.622l9.958-.917zm20.698-20.533l9.975-.704a10 10 0 00-18.296-4.843l8.321 5.547zm-14.122 33.829l-7.011-7.131 7.011 7.131zm-8.844-39.028l-9.967.82a10 10 0 0018.904 3.665l-8.937-4.485zm2.113-3.672l8.321 5.547-8.321-5.547zm.126-93.779l-9.4-3.412 9.4 3.412zm-7.489-46.89l-9.482-3.177a9.999 9.999 0 003.223 10.976l6.259-7.799zm-.063-17.508l-9.242-3.818a10 10 0 00.538 8.741l8.704-4.923zm24.132-49.658l9.842-1.769a10 10 0 00-16.913-5.302l7.071 7.071zm18.519 50.857l6.298 7.767a10 10 0 002.966-11.532l-9.264 3.765zm-11.864 10.339l6.735 7.392-6.735-7.392zm-3.43 3.09l6.136 7.896c.152-.118.301-.241.447-.368l-6.583-7.528zm2.752 24.607l9.032-4.291-9.032 4.291zm5.082 10.992l9.258-3.781a8.241 8.241 0 00-.109-.257l-9.149 4.038zm-1.357 62.519l-9.082-4.186v.001l9.082 4.185zm-.01.021l-9.082-4.185-.001.002 9.083 4.183zm-.014.031l9.082 4.185.001-.002-9.083-4.183zm-.577 1.254l9.092 4.164-9.092-4.164zm-287.059 15.22l9.904-1.383a10 10 0 00-15.966-6.57l6.062 7.953zm.004.022l6.06 7.955a10 10 0 003.843-9.338l-9.903 1.383zm-58.453 44.53l-6.062-7.954a10 10 0 00-2.011 13.855l8.073-5.901zm0 .001l-8.072 5.901a9.999 9.999 0 0014.133 2.053l-6.06-7.954zM226.91 69.367l-.007-.007-13.356 14.887.007.007 13.356-14.887zm.349 38.576c.63-11.603 1.814-22.268 2.873-29.727l-19.801-2.812c-1.131 7.965-2.378 19.21-3.043 31.454l19.971 1.085zm-12.293 9.663a5.099 5.099 0 01-.627.375c-.065.033-.114.055-.145.069l-.047.019.038-.013.115-.036c.102-.031.243-.07.426-.114.781-.189 1.967-.391 3.582-.559l-2.069-19.892c-2.144.222-4.277.542-6.214 1.01-1.712.415-4.213 1.156-6.424 2.683l11.365 16.458zm-2.706-5.288c-1.197-.591-.233-.447.595 1.176a6.55 6.55 0 01.697 3.055 5.846 5.846 0 01-.47 2.257c-.318.719-.569.792-.016.274.457-.427 1.103-.924 1.9-1.474l-11.364-16.458c-1.138.786-2.699 1.924-4.199 3.326-1.403 1.313-3.362 3.412-4.616 6.251-1.407 3.187-1.961 7.517.25 11.854 1.952 3.829 5.333 6.172 8.364 7.67l8.859-17.931zm4.541 1.418c-.524.001-1.899-.113-4.541-1.418l-8.859 17.931c4.768 2.356 9.175 3.49 13.411 3.487l-.011-20zm10.11 17.123c-.072-2.35-.105-4.729-.104-7.119l-20-.007c-.001 2.579.034 5.166.114 7.74l19.99-.614zm-6.39 9.635l.005-.002-7.22-18.651-.005.001 7.22 18.652zm7.149 2.348c-.39-3.826-.637-7.849-.764-11.981l-19.99.614c.139 4.519.412 9.02.856 13.392l19.898-2.025zm.446 4.645c-.141-1.561-.29-3.111-.446-4.645l-19.898 2.025c.149 1.458.291 2.935.426 4.429l19.918-1.809zm-10.178-9.093h-.004l.447 19.995h.005l-.448-19.995zm12.937 67.635c-.283-17.485-.987-39.076-2.754-58.542l-19.918 1.809c1.701 18.737 2.395 39.757 2.675 57.056l19.997-.323zm-10.994 10.122l.409.022 1.173-19.965a67.79 67.79 0 00-.61-.033l-.972 19.976zm10.676 17.988c0-6.295 0-16.317-.191-28.138l-19.997.324c.188 11.647.188 21.529.188 27.814h20zm-.004 1.946c.002-.644.004-1.299.004-1.946h-20c0 .609-.002 1.232-.004 1.883l20 .063zm1.866 19.056c-1.825-5.547-1.889-11.868-1.866-19.056l-20-.063c-.021 6.644-.135 16.243 2.869 25.371l18.997-6.252zm-43.233 33.226c10.389-10.39 26.228-17.299 36.699-20.549l-5.929-19.101c-11.756 3.649-31.183 11.778-44.913 25.508l14.143 14.142zm-3.776 4.497c1.285-1.773 2.547-3.268 3.776-4.497l-14.143-14.142c-2.106 2.106-4.042 4.439-5.827 6.902l16.194 11.737zm-23.117 56.913c3.12-10.153 6.485-21.093 10.375-31.319 3.924-10.316 8.145-19.252 12.742-25.594l-16.194-11.737c-6.15 8.484-11.114 19.37-15.242 30.22-4.161 10.94-7.712 22.509-10.799 32.556l19.118 5.874zm-.666 1.638v-.001l-17.786-9.147v.001l17.786 9.147zm.593-1.411l.001-.001-18.974-6.324 18.973 6.325zm-.08.272l.153-.498-19.118-5.873-.153.497 19.118 5.874zm-.807 2.625l.807-2.625-19.118-5.874-.803 2.61 19.114 5.889zm-6.407 19.316c2.083-5.41 4.213-12.198 6.406-19.316l-19.113-5.889c-2.227 7.228-4.163 13.357-5.958 18.019l18.665 7.186zm-.671 1.405v-.001l-17.323-9.995-.001.001 17.324 9.995zm-9.965 77.787c-2.084-27.06 3.238-59.978 10.635-79.191l-18.664-7.187c-8.505 22.09-14.216 57.996-11.912 87.914l19.941-1.536zm-5.908-8.37h-.001l-8.122 18.276 8.123-18.276zm6.214 11.775a131.75 131.75 0 01-.305-3.405l-19.941 1.536c.101 1.313.218 2.619.351 3.914l19.895-2.045zm-7.439 104.783c7.323-33.306 10.565-74.37 7.439-104.783l-19.895 2.045c2.866 27.883-.114 66.772-7.077 98.444l19.533 4.294zm-5.418 21.573c1.738-6.453 3.664-13.593 5.418-21.573l-19.533-4.294c-1.641 7.461-3.448 14.175-5.197 20.663l19.312 5.204zm.045-.176v-.001l-19.402-4.851-.001.001 19.403 4.851zm-6.332 36.368c-.306-11.462 2.444-21.931 6.286-36.192l-19.311-5.204c-3.714 13.783-7.365 27.068-6.968 41.93l19.993-.534zm-67.888 53.352l63.657-44.914-11.531-16.342-63.656 44.914 11.53 16.342zm-41.871-39.873l28.089 37.679 16.035-11.954-28.09-37.678-16.034 11.953zm-1.983-5.99v.014h20v-.014h-20zm17.543 6.565l.005-.006-15.097-13.118-.005.006 15.097 13.118zm-15.57-.587l.005.007 16.032-11.958-.005-.006-16.032 11.957zm18.016-5.966v-.012h-20v.012h20zm-16.15 22.329l13.7-15.772-15.1-13.115L2.45 634.076l15.1 13.116zM20 658.028v-17.394H0v17.394h20zm0 .003v-.003H0v.003h20zm-17.574-6.53v.001l15.149 13.057v-.001L2.427 651.501zm21.252 35.975c2.25-14.173-2.035-28.027-4.581-33.601l-18.192 8.31c1.525 3.338 4.457 13.107 3.02 22.156l19.753 3.135zm43.485 51.113c-11.93-15.133-37.483-47.782-45.256-58.538l-16.21 11.715c8.08 11.18 33.955 44.23 45.759 59.205l15.707-12.382zm12.216-23.704L52.881 737.12l12.856 15.32 26.498-22.235-12.856-15.32zm-1.477 13.785l.01.013 15.79-12.276-.01-.014-15.79 12.277zm-2.105-20.524v14.386h20v-14.386h-20zm-9.575-9.526l11.558 15.503 16.034-11.954-11.558-15.503-16.034 11.954zm51.531-54.979l-49.89 41.299 12.753 15.406 49.891-41.298-12.754-15.407zm30.8 16.596c-1.031-.21-3.146-.627-5.825-2.304-2.662-1.667-6.344-4.876-9.779-11.303l-17.638 9.429c5.036 9.421 11.105 15.259 16.806 18.827 5.685 3.558 10.547 4.562 12.442 4.948l3.994-19.597zm.279.057l-.278-.057-3.996 19.597.193.04 4.081-19.58zm.093.02l-.067-.014-4.133 19.568.066.014 4.134-19.568zm.264.058a15.668 15.668 0 00-.251-.055l-4.159 19.562.007.002-.023-.005 4.426-19.504zm-4.208-.617c.027.14.047.419-.338.887-.2.242-.301.261-.09.142a4.432 4.432 0 011.082-.409c.541-.138 1.846-.391 3.557-.003l-4.432 19.503c4.306.979 7.953-.732 9.614-1.668 2.134-1.203 4.093-2.89 5.707-4.851 3.244-3.939 5.914-10.054 4.558-17.287l-19.658 3.686zm-1.279-1.385c.703 1.168 1.19 1.977 1.532 2.591.078.14.135.246.176.325.043.081.058.114.054.106-.001-.003-.043-.09-.102-.244a7.28 7.28 0 01-.276-.903l19.448-4.667c-.466-1.943-1.477-3.72-1.829-4.351-.545-.979-1.235-2.12-1.875-3.182l-17.128 10.325zm-9.614-21.28c1.822 8.551 7.036 17.004 9.614 21.28l17.128-10.325c-2.977-4.939-6.187-10.459-7.181-15.124l-19.561 4.169zm4.175-10.426l-.771.638 12.753 15.407.771-.638-12.753-15.407zm24.449 22.833c-.609-.558-2.165-2.772-4.133-6.952-1.777-3.773-3.364-7.995-4.43-11.27l-19.019 6.185c1.265 3.891 3.148 8.919 5.354 13.605 2.015 4.279 4.955 9.736 8.728 13.188l13.5-14.756zm-6.508 7.852c-3.337-1.272-4.56-3.858-4.767-4.309a5.316 5.316 0 01-.325-.881c-.044-.163-.058-.258-.06-.271-.002-.015.013.096.006.294a2.594 2.594 0 01-.04.39c-.019.088.018-.157.247-.609.195-.384.863-1.582 2.408-2.601a8.246 8.246 0 016.284-1.168c1.778.397 2.696 1.249 2.755 1.303l-13.5 14.756c1.413 1.293 3.541 2.825 6.39 3.461 3.207.715 6.443.085 9.087-1.659 2.344-1.547 3.678-3.597 4.411-5.042.768-1.513 1.215-3.026 1.484-4.3.529-2.498.614-5.221.268-7.65-.171-1.198-.511-2.787-1.254-4.398-.605-1.313-2.332-4.504-6.274-6.006l-7.12 18.69zm4.365-13.435c.133-.649.57-1.864 1.742-2.97 1.155-1.09 2.361-1.451 2.979-1.553.541-.09.673.002.203-.081-.433-.078-1.151-.264-2.177-.654l-7.104 18.696c3.398 1.291 7.871 2.51 12.341 1.771 2.447-.405 5.172-1.45 7.49-3.638 2.335-2.205 3.578-4.932 4.115-7.538l-19.589-4.033zm.063-.324l-.045.231-.013.068-.005.024 19.589 4.034c.034-.167.075-.379.116-.592l-19.642-3.765zm23.451 39.71c-2.053-9.89-3.282-23.08-3.633-38.061l-19.994.467c.365 15.615 1.651 30.13 4.045 41.66l19.582-4.066zm8.454 122.855c1.864-10.119 1.841-30.477.433-52.704-1.43-22.601-4.385-48.47-8.887-70.151l-19.582 4.066c4.254 20.485 7.118 45.365 8.509 67.349 1.416 22.359 1.22 40.423-.142 47.816l19.669 3.624zm-.796 12.171c.96.686 1.207 1.234 1.081 1.016-.069-.121-.321-.611-.557-1.594-.469-1.958-.821-5.66.272-11.593l-19.669-3.624c-1.488 8.077-1.302 14.666-.051 19.882 1.165 4.856 3.52 9.488 7.299 12.187l11.625-16.274zm36.068 30.48c-11.478-9.501-26.857-22.614-35.361-29.926l-13.039 15.165c8.537 7.341 24.026 20.549 35.647 30.168l12.753-15.407zm-5.62 34.422c-.375-14.288 4.174-17.989 4.767-18.382l-11.047-16.673c-8.325 5.517-14.196 17.176-13.713 35.579l19.993-.524zm-6.469 53.75c2.449-8.801 7.055-31.382 6.469-53.75l-19.993.524c.519 19.844-3.661 40.381-5.744 47.863l19.268 5.363zm23.38 2.347c-9.898-4.301-21.817-10.377-28.294-13.844l-9.44 17.631c6.716 3.597 19.167 9.952 29.764 14.556l7.97-18.343zm17.088 56.683c-4.431-11.436-8.792-34.087-11.199-49.095l-19.748 3.167c2.364 14.738 6.986 39.446 12.298 53.15l18.649-7.222zm-9.95 25.142c3.745-.55 7.069-2.48 9.285-5.62 1.99-2.83 2.564-5.87 2.703-8.08.273-4.31-.915-8.598-2.061-11.501l-18.603 7.341c.241.61.448 1.29.576 1.91.137.67.128.99.128.99.002-.02.016-.24.121-.6.106-.36.33-.94.79-1.59a6.664 6.664 0 011.981-1.84c.83-.49 1.61-.71 2.184-.8l2.896 19.79zm5.985-4.14c.445.49.605.82.559.74-.015-.03-.089-.17-.19-.44a7.53 7.53 0 01-.424-1.64c-.078-.65.126-.12-.303 1.02-.258.69-.812 1.75-1.927 2.73a7.232 7.232 0 01-3.7 1.73l-2.896-19.79c-5.391.79-8.764 4.48-10.196 8.29-1.196 3.18-1.085 6.34-.833 8.43.276 2.27.877 4.49 1.596 6.37.632 1.65 1.715 4.01 3.448 5.94l14.866-13.38zm1.425 21.76c2.998-3.91 4.069-8.48 3.183-12.95-.789-3.99-2.947-6.96-4.608-8.81l-14.866 13.38c.157.17.187.24.152.18-.036-.06-.196-.36-.296-.87a4.501 4.501 0 01.045-1.91c.165-.68.433-1.08.518-1.19l15.872 12.17zm-2.199 11.31c0-1.41.284-4.16.904-6.98.301-1.37.637-2.55.967-3.45.375-1.03.557-1.18.328-.88l-15.872-12.17c-2.786 3.63-4.203 8.78-4.956 12.21-.849 3.86-1.371 8.08-1.371 11.27h20zm-16.222 29c6.428-6.78 10.53-11.92 12.969-16.39 2.778-5.09 3.253-9.04 3.253-12.61h-20c0 1.04.014 1.53-.808 3.03-1.161 2.13-3.8 5.75-9.929 12.21l14.515 13.76zm-20.385 16.53c6.821-4.91 14.711-10.54 20.385-16.53l-14.515-13.76c-4.103 4.33-10.251 8.8-17.555 14.06l11.685 16.23zm.217-.16h.001l-12.121-15.91h-.001l12.121 15.91zm-22.193 20.23c.745-1.99 2.846-4.84 7.1-8.63 4.12-3.68 9.231-7.37 14.876-11.44l-11.686-16.23c-5.434 3.91-11.455 8.24-16.506 12.74-4.917 4.39-10.026 9.9-12.517 16.56l18.733 7zm-.309.82c.103-.27.206-.54.309-.82l-18.734-7c-.095.25-.191.51-.29.77l18.715 7.05zm-.696 1.84c.232-.61.466-1.22.696-1.84l-18.715-7.05c-.22.59-.446 1.18-.679 1.79l18.698 7.1zm-3.091 14.34c-3.809.5-3.925-.34-2.9.38 1.516 1.07 1.34 2.43 1.311 1.44-.033-1.16.278-3.21 1.213-6.36.902-3.03 2.134-6.29 3.467-9.8l-18.698-7.1c-1.278 3.37-2.789 7.34-3.938 11.2-1.115 3.75-2.162 8.25-2.035 12.64.131 4.54 1.632 10.44 7.166 14.33 5.045 3.55 11.288 3.85 17.006 3.1l-2.592-19.83zm37.008.49c-7.937-2.81-16.574-3.16-37.008-.49l2.592 19.83c20.119-2.63 24.617-1.59 27.739-.49l6.677-18.85zm22.113-5.62a34.82 34.82 0 01-13.968 5.62c-4.555.74-7.482.23-8.145 0l-6.677 18.85c4.867 1.72 11.445 1.96 18.036.89 6.853-1.11 14.665-3.79 22.064-8.87l-11.31-16.49zm5.976-4.19c-2.162 1.53-4.148 2.94-5.976 4.19l11.31 16.49c1.97-1.35 4.079-2.84 6.213-4.35l-11.547-16.33zm.083-.05h-.013l11.408 16.43.013-.01-11.408-16.42zm40.929-21.09c-7.419.71-15.191 4.51-21.678 8.3-6.771 3.95-13.625 8.81-19.32 12.83l11.546 16.33c5.837-4.12 11.972-8.45 17.858-11.89 6.168-3.6 10.716-5.39 13.49-5.66l-1.896-19.91zm32.363-9.99c.498-.57.079.03-2.859 1.43-2.44 1.16-5.661 2.44-9.276 3.66-7.366 2.51-15.269 4.43-20.228 4.9l1.896 19.91c7.139-.68 16.69-3.13 24.762-5.87 4.104-1.39 8.097-2.95 11.447-4.55 2.851-1.35 6.795-3.44 9.31-6.31l-15.052-13.17zm-9.483-33.85c3.301 4.82 6.181 13.54 7.652 22.25.712 4.23 1.01 7.96.955 10.69-.027 1.37-.14 2.23-.229 2.65-.147.69-.083-.38 1.105-1.74l15.051 13.17c2.196-2.51 3.024-5.48 3.405-7.27.441-2.06.622-4.28.664-6.41.086-4.3-.372-9.33-1.23-14.41-1.668-9.89-5.182-21.92-10.867-30.22l-16.506 11.29zm-4.1-38.21c-1.437 3.82-2.712 9.71-2.588 16.28.126 6.64 1.699 14.64 6.688 21.93l16.506-11.29c-2.201-3.22-3.123-7.09-3.197-11.02-.076-3.99.746-7.36 1.306-8.84l-18.715-7.06zm2.519-.68c.175.03.088.04-.156-.09a3.278 3.278 0 01-.899-.7c-.656-.7-.78-1.35-.788-1.4-.003-.02.01.06.005.24-.006.18-.029.42-.08.71-.107.6-.293 1.18-.448 1.54l18.409 7.82c1.276-3.01 2.727-8.15 1.856-13.51-.466-2.87-1.669-6.18-4.314-9.02-2.699-2.9-6.226-4.59-10.046-5.278l-3.539 19.688zm-8.968-77.507c1.037 7.622 1.64 21.172 1.763 34.712.123 13.599-.248 26.105-.948 31.705l19.845 2.48c.884-7.06 1.225-20.772 1.102-34.366-.124-13.652-.727-28.272-1.944-37.226l-19.818 2.695zm15.529-19.739c-3.203 3.956-6.978 7.281-11.163 10.068l11.085 16.647c5.685-3.786 11.016-8.441 15.622-14.131l-15.544-12.584zm-16.449-45.192c1.221 7.815 3.511 18.637 6.186 28.906 2.618 10.052 5.834 20.482 9.076 27.02l17.918-8.884c-2.244-4.527-5.039-13.191-7.64-23.177-2.544-9.769-4.682-19.927-5.779-26.952l-19.761 3.087zm14.442-13.671c-1.617.864-3.877 1.697-6.842 2.391l4.561 19.473c4.096-.959 8.118-2.306 11.708-4.225l-9.427-17.639zm8.1-4.009a158.06 158.06 0 00-8.1 4.009l9.427 17.639a137.13 137.13 0 017.066-3.494l-8.393-18.154zm16.03 18.98l-1.976-11.584-19.715 3.362 1.975 11.585 19.716-3.363zm-1.776-2.106c.72.4 1.198.991 1.46 1.488.123.235.215.474.283.727.059.22.148.62.169 1.216l-19.987.713c.126 3.529 1.993 9.801 8.363 13.339l9.712-17.483zm-1.585 23.487c1.421-1.215 3.727-3.44 5.358-6.092.741-1.205 2.096-3.675 2.208-6.858a11.537 11.537 0 00-1.433-6.022c-1.176-2.118-2.864-3.58-4.548-4.515l-9.712 17.483a8.37 8.37 0 01-3.223-3.256 8.469 8.469 0 01-1.072-4.39 7.1 7.1 0 01.441-2.278c.151-.394.286-.614.305-.644.025-.04-.093.144-.428.508-.308.334-.64.646-.889.859l12.993 15.205zm6.594 10.233l-3.225-19.47-19.731 3.269 3.225 19.47 19.731-3.269zm-.203 28.059c3.171-11.889 1.367-24.025-.019-29.072l-19.286 5.295c.765 2.787 1.972 11.158-.019 18.624l19.324 5.153zm-5.817 20.998c1.24 1.24 1.581 2.424 1.626 2.582.066.231.009.139-.019-.443-.057-1.174.052-3.064.419-5.674.722-5.145 2.212-11.541 3.791-17.463l-19.324-5.153c-1.647 6.175-3.382 13.489-4.273 19.836-.44 3.136-.734 6.437-.59 9.422.073 1.497.268 3.226.763 4.959.473 1.661 1.419 4.03 3.465 6.076l14.142-14.142zm-.1-.097c.008.007.044.041.1.097l-14.142 14.142c.151.152.298.291.431.415l13.611-14.654zm8.623 16.813c-3.251-3.05-4.939-7.471-5.571-11.17l-19.715 3.368c1.067 6.245 4.083 15.333 11.601 22.387l13.685-14.585zm3.47 3.131a158.242 158.242 0 01-3.47-3.131l-13.685 14.585c1.364 1.28 2.702 2.463 3.902 3.525l13.253-14.979zm-.379-.319l-12.494 15.617v.001l12.494-15.618zm24.115 42.189c-2.873-12.34-6.41-20.918-10.707-27.552-4.311-6.655-9.07-10.815-13.028-14.317l-13.253 14.978c3.97 3.513 6.825 6.09 9.495 10.211 2.683 4.14 5.493 10.38 8.014 21.22l19.479-4.54zm17.345 52.47c-4.507-7.38-11.139-25.81-17.345-52.47l-19.479 4.54c6.237 26.79 13.43 48 19.753 58.35l17.071-10.42zm.5 59.85c3.65-7.7 4.967-19.96 4.982-30.31.008-5.44-.343-10.95-1.109-15.84-.717-4.58-1.96-9.74-4.373-13.7l-17.071 10.42c.294.49 1.067 2.43 1.685 6.38.57 3.64.875 8.07.868 12.71-.014 9.81-1.404 18.29-3.053 21.77l18.071 8.57zm2.386 35.28c-3.954-2.48-5.991-5.08-7.099-7.44-1.14-2.44-1.582-5.23-1.396-8.44.393-6.75 3.435-13.77 6.109-19.4l-18.071-8.57c-2.626 5.53-7.36 15.74-8.004 26.81-.333 5.71.391 11.98 3.255 18.09 2.895 6.17 7.699 11.58 14.574 15.89l10.632-16.94zm40.996 3.92c-5.423 2.91-22.947 7.41-40.996-3.92l-10.632 16.94c25.27 15.86 50.603 10.23 61.079 4.61l-9.451-17.63zm15.578-22.92c.079 12.43-8.543 19.15-15.578 22.92l9.451 17.63c8.864-4.76 26.279-16.7 26.127-40.68l-20 .13zm-8.768-41.59c3.043 9.93 8.686 28.63 8.768 41.59l20-.13c-.104-16.49-6.86-38.24-9.646-47.33l-19.122 5.87zm-1.562-5.36c.295 1.24.939 3.32 1.562 5.36l19.122-5.87a290.51 290.51 0 01-.856-2.81 47.86 47.86 0 01-.338-1.18c-.009-.04-.016-.06-.021-.08l-.005-.02-.002-.01-19.462 4.61zm.612-23.46c-2.011 4.47-2.187 9.54-2.039 13.13.16 3.88.787 7.63 1.427 10.33l19.462-4.61c-.397-1.68-.807-4.15-.906-6.55-.049-1.18-.015-2.2.082-3 .102-.85.239-1.15.212-1.09l-18.238-8.21zm-1.092-7.75c.216.21.972 1.33 1.272 3.67.133 1.03.135 2.04.046 2.88-.095.89-.258 1.27-.226 1.2l18.238 8.21c2.015-4.48 2.396-10.04 1.779-14.84-.622-4.84-2.516-10.92-7.138-15.43l-13.971 14.31zm-1.535-20.65c-.588 1-2.731 4.28-3.223 8.08-.69 5.32 1.681 9.56 4.758 12.57l13.971-14.31c-.129-.13.298.24.677 1.15.435 1.03.557 2.17.428 3.16-.107.82-.348 1.24-.243 1.03.121-.25.323-.61.854-1.51l-17.222-10.17zm2.115-4.41c-.4 1.44-1.035 2.58-2.115 4.41l17.222 10.17c1.067-1.81 2.974-4.97 4.155-9.19l-19.262-5.39zm-.781-2.9c.618 1.42.77 1.86.841 2.21.023.12.026.18.024.24-.002.05-.01.19-.084.45l19.262 5.39c2.159-7.73-.496-13.49-1.695-16.25l-18.348 7.96zm-1.125-14.89c-2.667 7.02.246 12.86 1.125 14.89l18.348-7.96a45.17 45.17 0 01-.334-.78c-.093-.22-.16-.39-.21-.52-.103-.28-.102-.32-.082-.22.025.12.064.4.04.77-.025.38-.107.7-.191.92l-18.696-7.1zm-.368-46.396c3.29 5.889 4.268 15.734 3.605 26.256-.315 4.99-.966 9.67-1.654 13.39a80.435 80.435 0 01-.992 4.66 35.025 35.025 0 01-.535 1.93c-.037.11-.056.16-.056.16l18.696 7.1c1.529-4.02 3.78-14.54 4.501-25.98.709-11.25.151-26.074-6.106-37.272l-17.459 9.756zm10.671-18.694c.193-.31.243-.302-.088.037-.296.304-.765.738-1.445 1.295-1.364 1.116-3.283 2.486-5.714 4.007l10.611 16.954c2.931-1.835 5.583-3.693 7.774-5.487 1.993-1.632 4.312-3.774 5.855-6.259l-16.993-10.547zm6.869-23.945c-.239-.574.097-.064-.121 2.425-.188 2.151-.701 4.848-1.48 7.783-1.611 6.073-3.919 11.563-5.268 13.737l16.993 10.547c2.798-4.508 5.733-12.094 7.606-19.155.964-3.632 1.754-7.516 2.073-11.169.29-3.314.338-7.83-1.341-11.86l-18.462 7.692zm-23.52-61.974c6.778 18.089 21.125 56.224 23.52 61.974l18.462-7.692c-2.213-5.311-16.361-42.905-23.254-61.3l-18.728 7.018zm-2.444-5.035c-.552-.255-.659-.458-.394-.18.236.248.583.686.992 1.336.843 1.34 1.484 2.836 1.749 3.61l18.921-6.48c-.694-2.029-1.966-4.957-3.74-7.778-1.583-2.516-4.527-6.526-9.119-8.654l-8.409 18.146zm-13.116-23.163c-1.121 3.01-1.523 6.346-.678 9.736.83 3.332 2.641 5.819 4.422 7.569 3.15 3.096 7.45 4.968 9.371 5.858l8.41-18.146c-1.235-.572-2.112-.985-2.861-1.405-.757-.424-.957-.626-.901-.571.11.108.682.723.965 1.859.298 1.194.04 2.01.014 2.082l-18.742-6.982zm-3.575-20.321c5.047 10.6 4.507 17.819 3.575 20.321l18.742 6.982c3.445-9.249 2.214-22.307-4.26-35.901l-18.057 8.598zm-3.023-5.875c1.034 1.928 2.033 3.796 3.023 5.875l18.057-8.598c-1.222-2.568-2.436-4.829-3.452-6.725l-17.628 9.448zm-2.867-32.74c-2.933 6.687-3.891 12.721-2.778 18.786 1.009 5.495 3.667 10.264 5.645 13.954l17.628-9.448c-2.333-4.352-3.263-6.277-3.602-8.118-.233-1.272-.298-3.217 1.423-7.141l-18.316-8.033zm1.056-8.719c.616 2.108.678 2.526.661 3.097-.018.609-.2 2.163-1.717 5.622l18.316 8.033c2.108-4.805 3.27-8.982 3.392-13.059.123-4.116-.881-7.338-1.457-9.307l-19.195 5.614zm-1.898-12.15c0 5.694 1.126 9.512 1.898 12.15l19.195-5.615c-.634-2.17-1.093-3.769-1.093-6.535h-20zm-16.253-49.415c14.404 15.312 16.253 38.671 16.253 49.415h20c0-11.379-1.618-41.787-21.686-63.119l-14.567 13.704zm4.308-17.299a53.556 53.556 0 01-3.051 2.467l12.053 15.961a73.783 73.783 0 004.23-3.431l-13.232-14.997zm21.602-4.31c.046-.075-.097.157-.494.658a24.91 24.91 0 01-1.432 1.644c-1.213 1.279-2.561 2.443-3.807 3.197-1.328.804-1.73.66-1.368.685.829.057.845.579.059-.45l-15.888 12.149c3.707 4.846 8.677 7.86 14.467 8.255 5.323.363 9.89-1.595 13.084-3.528 6.215-3.761 10.888-9.65 12.412-12.128l-17.033-10.482zm12.366-5.896c-1.049 1.557-1.801 2.667-2.492 3.551-.739.945-.922.988-.602.77.222-.15.745-.466 1.554-.683a6.554 6.554 0 012.864-.11c1.962.361 2.688 1.398 2.27.932l-14.887 13.355c1.983 2.211 4.929 4.633 8.994 5.382 4.362.803 7.998-.67 10.445-2.333 2.257-1.534 3.96-3.513 5.123-5.001 1.21-1.549 2.374-3.286 3.321-4.693l-16.59-11.17zm.295-.416v.001l16 12v-.001l-16-12zm7.274-9.165c-3.268 3.115-5.857 7.039-7.569 9.581l16.591 11.169c1.988-2.954 3.376-4.937 4.777-6.272l-13.799-14.478zm11.034-78.657c2.19 8.595 5.082 23.161 4.409 38.377-.675 15.271-4.866 29.933-15.536 40.37l13.985 14.298c15.713-15.37 20.738-35.846 21.532-53.784.796-17.993-2.59-34.706-5.009-44.199l-19.381 4.938zm37.22-113.81c-1.649 12.414-5.472 32.839-11.522 53.291-6.144 20.766-14.195 40.182-23.71 51.672l15.405 12.756c12.236-14.777 21.198-37.508 27.483-58.755 6.379-21.561 10.401-43.014 12.17-56.33l-19.826-2.634zm.366 8.217c2.141.91 4.332 1.845 6.133 2.499l6.828-18.798c-1.18-.429-2.8-1.114-5.136-2.107l-7.825 18.406zm.198.082l7.428-18.57-7.428 18.57zm-1.086-.459l.888.377 7.824-18.406-.898-.382-7.814 18.411zm-43.816-173.984c8.554 22.013 20.362 54.064 28.855 85.293 4.247 15.618 7.609 30.831 9.345 44.356 1.758 13.703 1.734 24.863-.192 32.76l19.43 4.739c2.789-11.433 2.471-25.46.599-40.044-1.895-14.762-5.499-30.939-9.883-47.059-8.769-32.247-20.876-65.066-29.512-87.289l-18.642 7.244zm-39.485-45.242c8.475 2.739 13.839 4.583 19.329 9.77 5.721 5.408 12.285 15.218 20.156 35.472l18.642-7.244c-8.286-21.322-16.167-34.358-25.061-42.763-9.127-8.625-18.549-11.562-26.915-14.266l-6.151 19.031zm.328.1l5.495-19.231h-.001l-5.494 19.231zm-3.994-1.298c1.265.422 2.499.821 3.665 1.198l6.152-19.031c-1.178-.381-2.328-.752-3.492-1.14l-6.325 18.973zm-36.913-20.451c8.703 6.368 23.404 15.948 36.913 20.451l6.325-18.973c-10.464-3.488-23.121-11.541-31.429-17.619l-11.809 16.141zm.251-38.892c-.213 6.724-1.206 17.725-4.01 28.247l19.326 5.149c3.318-12.454 4.43-25.072 4.674-32.762l-19.99-.634zM375.82 111.86c-1.127 5.1-3.987 28.39-6.553 51.287-2.585 23.068-5.067 47.518-5.314 55.276l19.99.634c.215-6.758 2.572-30.235 5.199-53.682 2.647-23.618 5.375-45.433 6.207-49.204l-19.529-4.311zm4.287-18.889c-.772 3.322-2.71 11.741-4.287 18.889l19.529 4.311a1970.088 1970.088 0 014.238-18.67l-19.48-4.53zm3.044-35.775c2.4 19.114-1.18 31.314-2.338 33.753l18.068 8.575c3.144-6.623 6.875-22.827 4.114-44.82l-19.844 2.492zM344.666 24.46c6.915 1.914 16.298 5.38 24.126 10.98 7.741 5.539 13.205 12.57 14.359 21.757l19.844-2.491c-2.072-16.504-11.988-27.964-22.566-35.531-10.49-7.505-22.362-11.757-30.425-13.99l-5.338 19.275zm-.942-.256c.325.086.639.172.943.256l5.337-19.275c-.372-.103-.755-.207-1.148-.311l-5.132 19.33zM272.477 28.4c24.466-12.825 56.28-8.172 71.246-4.197l5.134-19.33C332.731.59 294.589-5.772 263.191 10.686l9.286 17.714zm-41.492 44.204c1.197-9.759 4.786-16.984 11.07-23.553 6.594-6.892 16.364-13.283 30.422-20.651l-9.286-17.714c-14.514 7.608-26.668 15.216-35.588 24.54-9.228 9.646-14.741 20.853-16.469 34.943l19.851 2.435zm-.86 5.606c.281-1.976.55-3.71.795-5.16l-19.722-3.326a224.095 224.095 0 00-.874 5.674l19.801 2.812zm151.374 631.272c.979-.253 2.374-.614 3.664-1.075 1.041-.371 3.477-1.285 5.523-3.331l-14.142-14.142a7.576 7.576 0 011.004-.845c.267-.187.487-.313.627-.387.143-.076.241-.119.276-.134.036-.015.036-.013-.013.004a11.1 11.1 0 01-.668.206c-.351.099-.756.206-1.272.339l5.001 19.365zm-12.757-11.961l.299 3.206 19.914-1.856-.299-3.206-19.914 1.856zm-1.151-12.398c.379 4.109.764 8.246 1.151 12.398l19.914-1.856c-.387-4.154-.772-8.281-1.149-12.377l-19.916 1.835zm22.335-26.997c-1.802 2.704-4.955 6.983-8.344 10.683-1.695 1.851-3.289 3.38-4.665 4.463-1.53 1.206-2.103 1.309-1.78 1.229l4.824 19.409c3.744-.93 6.967-3.064 9.331-4.926 2.518-1.983 4.917-4.35 7.038-6.666 4.244-4.633 8.018-9.769 10.237-13.098l-16.641-11.094zm1.209 46.507c3.99-3.922 18.743-18.207 17.087-41.664l-19.95 1.408c.977 13.845-7.548 22.445-11.158 25.994l14.021 14.262zm-.449.443l.45-.443-14.022-14.262-.57.563 14.142 14.142zm-6.468-42.117a24.9 24.9 0 011.497-2.61l-16.641-11.094a44.566 44.566 0 00-2.731 4.734l17.875 8.97zM368.12 557.611c-4.136 11.393-5.541 26.739-5.652 43.662-.112 17.166 1.12 37.036 2.846 58.021l19.933-1.64c-1.715-20.846-2.886-39.999-2.779-56.25.108-16.494 1.544-28.958 4.451-36.969l-18.799-6.824zm-4.348-35.679c4.609 3.7 10.869 17.714 4.348 35.679l18.799 6.824c8.668-23.877 2.273-47.745-10.629-58.1l-12.518 15.597zm-2.508-20.384c.296.523 1.434 2.994-.715 9.408l18.964 6.354c3.32-9.908 3.094-18.652-.841-25.609l-17.408 9.847zm25.765-61.652c-2.411 2.411-4.73 6.352-6.6 9.776-2.094 3.835-4.404 8.521-6.716 13.454-4.635 9.887-9.49 21.213-12.987 29.681l18.485 7.635c3.431-8.306 8.155-19.322 12.611-28.827 2.232-4.762 4.346-9.034 6.16-12.356.908-1.663 1.69-2.992 2.33-3.981.714-1.102.994-1.374.859-1.239l-14.142-14.143zm34.854 54.163c-3.136-7.715-7.384-18.423-11.009-28.122-3.792-10.148-6.441-18.007-6.932-20.739l-19.684 3.539c.884 4.916 4.337 14.717 7.882 24.202 3.712 9.933 8.036 20.829 11.215 28.65l18.528-7.53zm-14.393 21.496c3.131-2.853 6.999-6.373 11.427-9.964l-12.597-15.535c-4.928 3.996-9.183 7.875-12.3 10.715l13.47 14.784zm-3.582 3.226c1.054-.922 2.29-2.048 3.582-3.226l-13.47-14.784a240.104 240.104 0 01-3.277 2.954l13.165 15.056zm5.201 12.788c-1.572-3.31-2.812-5.927-3.762-8.189-.961-2.291-1.408-3.725-1.58-4.641-.157-.837.027-.665-.184-.055-.238.687-.585.825-.122.465l-12.271-15.793c-2.801 2.176-5.208 5.035-6.506 8.782-1.271 3.669-1.147 7.241-.572 10.299 1.031 5.481 4.106 11.764 6.932 17.713l18.065-8.581zm5.199 11.245c-1.88-4.259-3.664-8.014-5.199-11.245l-18.065 8.581c1.541 3.245 3.214 6.767 4.967 10.74l18.297-8.076zm-1.425 70.743c2.855-6.193 7.045-15.178 8.494-27.014 1.466-11.976.08-26.236-6.96-43.472l-18.515 7.562c5.861 14.349 6.64 25.178 5.623 33.48-1.033 8.443-3.972 14.926-6.805 21.072l18.163 8.372zm-.009.021l.009-.021-18.163-8.371-.01.021 18.164 8.371zm-.013.028l.014-.03-18.166-8.367-.014.03 18.166 8.367zm-.568 1.235c.182-.398.369-.805.567-1.233l-18.164-8.371-.587 1.277 18.184 8.327zm-26.578 45.508c5.556-8.335 20.576-32.403 26.578-45.508l-18.184-8.327c-5.289 11.549-19.532 34.486-25.035 42.741l16.641 11.094zM106.239 627.28l.003.022 19.807-2.766-.003-.022-19.807 2.766zm-42.484 51.122l58.45-44.552-12.125-15.906-58.45 44.551 12.125 15.907zm2.012-13.853l-.001-.002L49.62 676.35v.001l16.147-11.802zm44.318-46.585l-58.451 44.531 12.12 15.909 58.452-44.53-12.121-15.91z" fill="#fff" mask="url(#a)"/><path fill="#BA87A0" d="M228.891 267.703h95.392v58.526h-95.392z"/><path d="M23.707 642.592l62.097 79.954v-14.401L23.707 624.85v17.742z" fill="#817F7F"/><path d="M13.802 685.91c1.843-11.613-1.767-23.426-3.802-27.881l13.71-15.438 62.097 79.955-26.498 22.235c-11.866-15.054-37.58-47.904-45.507-58.871z" fill="#5C5C5C"/><path d="M138.578 608.834L51.019 675.54l17.167 22.12 82.95-68.665-12.558-20.161z" fill="#A77676"/><path d="M51.02 663.097v12.443l87.212-66.475-2.304-5.876-84.909 59.908z" fill="#B67F7F"/><path d="M212.192 883.491c-.553-21.106 8.295-27.765 12.788-28.457 30.108 1.076 90.323 5.047 90.323 12.328 0 9.101 8.411 47.466 15.208 61.175-23.503 29.033-70.508 27.881-82.835 24.655-9.862-2.581-31.836-13.671-41.59-18.894 2.266-8.142 6.659-29.701 6.106-50.807zM335.004 880.035l-2.535-14.862 32.144-144.241c5.414-9.293 20-24.217 35.023-9.562 18.779 18.318 20.622 46.544 20.622 57.949 0 11.406 5.761 11.752 0 24.885-5.76 13.134 0 18.203 5.761 30.3 5.76 12.097 6.106 22.235 3.917 28.111-2.189 5.876 3.225 8.41 7.949 10.599 3.779 1.751 6.644 7.796 7.604 10.599 6.835 18.242 21.083 56.107 23.387 61.637 2.88 6.912-3.456 26.383-7.604 33.065-4.147 6.682-33.756 23.733-59.217 26.382-25.461 2.65-63.825-25.576-67.051-28.802-3.226-3.226 0-18.548 3.226-30.645 2.581-9.678 1.075-19.931 0-23.848l-3.226-19.47c2.112-1.805 5.714-5.761 3.226-7.143-2.489-1.383-3.188-3.879-3.226-4.954z" fill="#805A6D"/><path d="M324.63 309.177l1.497 39.632h-6.336l20.968 144.01 27.419 8.18c6.375-15.745 20.485-48.595 25.922-54.032 1.475 8.202 13.825 39.439 19.816 54.032 27.996-24.078 65.669-13.825 77.42-11.405 9.908-38.365-20.968-124.541-38.249-169.011-17.281-44.47-30.645-46.083-49.309-52.305-14.931-4.977-32.489-17.434-39.401-23.041l-6.682 12.673-13.134 20.622-19.931 30.645zM315.645 283.255c-2.95 3.779-12.596 12.02-17.051 15.669l-16.36 28.687 6.106 7.834 21.314 1.152 19.009-53.342c-3.11-1.574-10.069-3.778-13.018 0z" fill="#664857"/><path d="M265.884 312.405h-11.291l-2.534 23.733 28.226-2.304c10.983-12.865 31.336-38.549 24.885-38.365-6.452.185-18.203-1.305-23.272-2.073-1.498 2.188-5.277 7.88-8.411 13.133-3.133 5.254-6.375 6.106-7.603 5.876z" fill="#A5778D"/><path d="M243.642 296.273l-4.724-24.309-5.184-4.147-10.83 11.751-8.756 53.802c15.285-.844 45.853-3.663 45.853-8.179-3.11-28.342-8.179-26.613-11.751-25.692-2.857.738-4.263-1.843-4.608-3.226z" fill="#5C414E"/><path d="M182.115 281.297c14.563-14.562 37.251-22.504 46.775-24.654l-6.221 15.092-16.706 73.388-12.673 42.051-3.917 63.479 8.641 53.342-8.641 37.442c-6.067 33.526-18.364 101.361-19.009 104.494-.806 3.917-4.839 4.263-10.599 2.074 2.419.922 1.613 13.825-3.802 8.871-5.415-4.954-11.175-21.083-12.558-26.728-.461 10.829 10.715 24.885 11.406 27.765 1.382 7.373-5.3 12.788-7.834 12.212-2.535-.576-19.586-2.765-28.226-32.258-8.641-29.494 1.497-47.927 8.64-80.416 7.143-32.488 10.254-72.466 7.258-101.613-2.995-29.148 2.65-65.669 10.945-87.213 8.295-21.544 18.318-69.125 36.521-87.328z" fill="#6C4B5B"/><path fill-rule="evenodd" clip-rule="evenodd" d="M134.329 452.176c-2.195-28.488 3.322-62.901 11.273-83.552 2.216-5.755 4.555-13.368 7.14-21.783 7.094-23.086 16.041-52.205 29.381-65.545 14.562-14.562 37.25-22.504 46.774-24.654l-6.221 15.092-16.705 73.388-12.673 42.051-3.917 63.479 2.07 12.778c-26.73-1.198-45.364-6.17-57.122-11.254z" fill="#815A6D"/><path d="M200.434 325.769c3.41-28.756 18.548-58.68 25.691-70.047 9.14-2.265 23.963-2.696 10.138 13.71-13.825 16.406-18.586 64.824-19.239 86.982-2.12 1.014-11.944 6.567-16.59 9.217-1.421-1.306-3.41-11.106 0-39.862z" fill="#A5778D"/><path d="M299.984 362.518c4.424-31.614 19.663-68.242 26.729-82.605 2.688-4.992 11.889-12.742 27.189-3.802-15.392 14.01-27.381 67.282-31.452 92.167-3.034-.614-11.774-2.627-22.466-5.76z" fill="#B7859D"/><path d="M217.726 143.853c-2.673-26.267 1.114-59.255 3.341-72.466 2.925-23.848 18.203-36.866 46.775-51.843 28.571-14.977 64.516-8.871 79.493-4.724 14.977 4.148 42.512 15.438 45.738 41.13 2.581 20.553-1.075 34.754-3.226 39.285a1968.018 1968.018 0 00-4.262 18.779c-1.959 8.872-11.176 90.209-11.637 104.725-.46 14.516-4.262 47.696-21.083 59.332-16.82 11.636-67.742 8.871-100.461 2.419-32.719-6.451-31.337-29.954-31.337-46.313 0-16.36 0-57.489-3.341-90.324z" fill="#FFC9BA"/><path fill-rule="evenodd" clip-rule="evenodd" d="M220.225 76.805c5.426 4.868 12.66 8.894 21.696 9.559 19.237 1.414 28.826-6.356 35.716-11.94 1.528-1.238 2.923-2.369 4.261-3.268 7.373-4.954 18.779-9.908 29.148-9.908 10.368 0 1.267 9.563-3.687 14.056-4.954 4.493 4.147 9.908 20.622-2.074 15.453-11.239 20.466-10.415 25.402-9.604.326.053.652.107.981.157 5.3.806 6.682 3.341 2.074 11.52-4.609 8.18.345 36.522 13.133 41.13 6.2 2.234 11.783.632 15.886-1.832.042-.221.082-.417.12-.587a1968.018 1968.018 0 014.262-18.778c2.151-4.532 5.807-18.733 3.226-39.287-3.226-25.69-30.76-36.981-45.738-41.129-14.977-4.147-50.922-10.253-79.493 4.724-28.572 14.977-43.849 27.995-46.775 51.843a214.286 214.286 0 00-.834 5.418z" fill="#DC7D7D"/><path d="M207.83 121.283c-8.456-4.178-2.418-9.234 1.453-11.907 6.963-4.808 54.562-2.163 53.651 5.302-.777 6.361-7.791 12.38-13.763 9.062-5.972-3.319-18.105-3.649-22.467-2.743-4.361.906-8.305 5.508-18.874.286zM291.569 126.803c-6.913-.092 2.88-4.877 8.641-7.258 22.004-8.986 48.041 0 53.917 1.498 5.876 1.497 11.175 6.912 9.562 12.097-1.613 5.184-13.249 1.728-17.742 0s-21.198-10.369-30.876-11.176c-9.677-.806-14.861 4.954-23.502 4.839z" fill="#DC7D7D"/><path d="M251.661 203.85c-15.12 1.853 8.2-71.895 11.565-68.522 1.689 1.694 4.718-2.313 5.133 16.922.413 19.071.078 38.083-1.246 39.82-2.658 3.491-9.471 10.733-15.452 11.78z" fill="#F0BBAC"/><path fill-rule="evenodd" clip-rule="evenodd" d="M216.912 131.167c.133 4.325.393 8.588.81 12.687.152 1.496.298 3.009.436 4.537 12.334-.29 30.698-6.023 32.398-15.481-14.569-6.043-26.395-4.546-33.644-1.743z" fill="#FFF3F1"/><path d="M297.906 138.783c7.297-2.342 26.153-4.562 43.203 5.3-6.336 12.442-27.995 12.788-43.203-5.3z" fill="#FFF3F1"/><path fill-rule="evenodd" clip-rule="evenodd" d="M217.741 143.857c-.417-4.099-.676-8.362-.809-12.687 2.088-.807 4.557-1.507 7.362-1.948 3.364 1.058 4.619 3.945 4.619 8.573 0 4.582-1.231 8.497-4.522 10.06a53.642 53.642 0 01-5.646.522 11.355 11.355 0 01-.581-.131 387.658 387.658 0 00-.423-4.389zM321.617 152.807c1.922-1.959 2.681-5.147 2.681-8.748 0-2.768-.448-4.913-1.529-6.417a61.522 61.522 0 00-13.67-.705c-2.265 1.503-3.695 3.888-3.695 7.122 0 .702.068 1.387.196 2.052 5.271 3.898 10.837 6.064 16.017 6.696z" fill="#000"/><path d="M221.758 327.267c-26.913 7.649-41.091 53.802-44.816 75.922-4.839 28.226 3.226 95.623 11.981 113.134-17.166 35.945-23.387 126.845-14.631 169.011s11.636 101.498 8.41 119.01c-2.58 14.009 1.075 20.584 3.226 22.12 12.327 10.599 39.125 33.41 47.696 39.862 10.715 8.065 70.047 17.512 91.821 5.876 17.42-9.309 45.584-18.472 57.489-21.89 12.903-82.835-23.272-240.094-5.415-289.288 7.595-20.921 1.268-39.862-7.488-46.89 5.991-17.88-4.416-23.502-10.369-24.078 1.114-22.427-.899-77.996-17.857-120.854-21.199-53.572-86.406-51.498-120.047-41.935z" fill="#956A7F"/><path fill-rule="evenodd" clip-rule="evenodd" d="M370.424 514.464c-12.463 11.874-34.136 24.968-67.799 30.198-48.083 7.47-95.699-8.543-117.419-19.277-4.082 11.512-7.382 26.296-9.827 42.454 12.064 5.076 26.365 9.596 43.26 13.229 67.807 14.58 124.403-1.25 158.238-18.184.203-.637.414-1.257.634-1.862 7.477-20.6 1.458-39.28-7.087-46.558z" fill="#A0758A"/><path d="M251.599 541.236l.018-.001a710.08 710.08 0 0117.031-.389c2.971-.027 5.713-.021 7.854.036a54.94 54.94 0 012.627.12c.19.014.345.029.47.041l.021.151c.123 1.044-.049 2.581-.399 4.565-.384 2.175-1.173 9.439-1.735 16.794-.283 3.713-.515 7.53-.609 10.827-.091 3.179-.069 6.223.265 8.191.451 2.652.399 5.634-.263 7.76-.325 1.04-.719 1.63-1.031 1.927-.234.223-.508.381-1.057.391-1.958.036-5.763-.059-10.221-.17-2.396-.06-4.981-.124-7.57-.176-3.638-.072-7.243-.116-10.186-.076a79.253 79.253 0 00-3.937.137c-1.021.068-2.177.179-3.082.434-1.898.534-3.506.77-4.544.413-.348-.12-.663-.317-.972-.813-.356-.573-.807-1.729-.928-3.919-.038-.703-.083-1.463-.13-2.269-.309-5.311-.739-12.67-.471-19.769.154-4.082.535-7.932 1.256-11.149.742-3.31 1.743-5.479 2.802-6.642 3.212-3.528 5.55-4.93 7.491-5.591 1.95-.664 3.807-.719 6.728-.806l.572-.017z" stroke="#5C414E" stroke-width="8" stroke-linejoin="round"/><path d="M256.893 562.292c3.41-.461 16.167.576 22.12 1.152l-1.037 7.258c-6.106.423-19.447.83-23.963-.921-5.646-2.189-1.383-6.913 2.88-7.489z" fill="#4D3641"/><path d="M446.758 486.369c-20.46 3.226-41.474 17.934-49.424 24.885-8.155 6.336-1.267 14.977 7.834 35.599 13.364 32.719 3.687 51.498-1.958 63.825-5.645 12.328-20.277 35.83-25.807 44.125-5.53 8.295-9.908 24.655-3.571 28.917 6.336 4.263 19.585-12.788 24.424-20.046 1.382 19.586-11.521 31.222-14.632 34.332-3.11 3.111-22.12 1.498-14.862 17.973 7.259 16.475 30.3-.691 36.176-5.876 8.986 11.751 21.659-3.571 23.502-6.567 7.028 7.834 10.945-6.451 18.318-13.479 26.383-25.807 18.434-70.277 13.825-88.365 21.752-26.267 34.025-84.294 37.443-110.024-8.564-3.11-30.807-8.525-51.268-5.299z" fill="#553D48"/><path d="M10 658.03l13.71-15.438V624.85L10 640.633v17.397z" fill="#717070"/><path fill-rule="evenodd" clip-rule="evenodd" d="M379.688 155.476c-2.953 25.682-5.99 55.051-6.249 63.226-.461 14.516-4.263 47.696-21.084 59.332-16.82 11.636-67.742 8.871-100.461 2.42-31.463-6.204-31.393-28.175-31.341-44.399.002-.648.004-1.287.004-1.915 0-6.29 0-16.242-.19-27.976 7.526.367 17.836 2.561 31.293 8.272 35.258 14.965 106.549.032 128.028-58.96z" fill="#DC7D7D" fill-opacity=".5"/><path fill-rule="evenodd" clip-rule="evenodd" d="M306.521 247.168c.681 1.13-1.807 2.354-4.626 3.429-2.85 1.088-6.358 2.296-11.327 2.659-4.838.353-8.365-.694-12.976-.887-4.377-.182-9.903.429-13.2-.206-3.397-.654-3.255-1.927-3.635-3.033-.41-1.192-1.712-2.492 1.359-3.589 3.059-1.093 8.827-1.56 13.933-1.875 4.297-.266 8.199.05 12.214.26 3.688.193 7.247.393 10.157.91 3.485.619 7.448 1.251 8.101 2.332z" fill="#FFC9BA"/></svg>