<svg width="509" height="786" viewBox="0 0 509 786" fill="none" xmlns="http://www.w3.org/2000/svg">
<mask id="path-1-outside-1" maskUnits="userSpaceOnUse" x="0" y="0" width="509" height="1196" fill="black">
<rect fill="white" width="509" height="1196"/>
<path fill-rule="evenodd" clip-rule="evenodd" d="M220.225 76.8038L220.232 76.8101C219.137 84.5221 217.921 95.4768 217.273 107.401C213.515 107.792 210.635 108.444 209.284 109.377C205.413 112.05 199.374 117.106 207.83 121.283C211.535 123.114 214.426 123.738 216.807 123.736C216.806 126.221 216.84 128.704 216.916 131.166L216.911 131.168C217.044 135.493 217.304 139.756 217.721 143.854C217.873 145.351 218.019 146.864 218.157 148.392L218.162 148.392C219.896 167.493 220.595 188.798 220.877 206.19C220.706 206.18 220.536 206.171 220.367 206.163C220.557 217.897 220.557 227.849 220.557 234.139C220.557 234.767 220.555 235.406 220.553 236.054C220.531 242.969 220.506 250.929 222.921 258.267C211.807 261.717 194.174 269.236 182.115 281.296C180.447 282.963 178.848 284.877 177.313 286.995C166.567 301.821 158.941 326.64 152.734 346.84L152.734 346.841L152.734 346.841L152.581 347.339C152.31 348.221 152.042 349.094 151.776 349.957C149.566 357.13 147.532 363.588 145.593 368.624L145.593 368.625C137.642 389.276 132.125 423.688 134.32 452.177L134.32 452.177C134.415 453.409 134.525 454.629 134.649 455.836C137.644 484.984 134.533 524.961 127.391 557.45C125.693 565.171 123.827 572.098 122.083 578.568L122.083 578.568C118.304 592.59 115.104 604.467 115.455 617.629L51.7992 662.543L23.7098 624.865V624.851L23.7042 624.857L23.6994 624.851V624.863L10 640.634V658.028V658.031L10.0007 658.03C12.0362 662.486 15.645 674.297 13.8019 685.909C21.7282 696.876 47.4427 729.726 59.3092 744.78L85.8071 722.545L85.7967 722.532V708.146L74.2391 692.643L124.13 651.345C132.601 667.192 143.63 669.439 146.556 670.036C146.641 670.053 146.72 670.069 146.791 670.084L146.858 670.098C146.9 670.107 146.94 670.116 146.976 670.124C149.511 670.7 156.193 665.285 154.81 657.912C154.617 657.109 153.609 655.437 152.266 653.208C149.488 648.6 145.277 641.613 143.868 635.006L144.64 634.367C146.97 641.534 151.58 652.865 155.962 656.875C161.377 661.829 162.184 648.926 159.764 648.004C165.525 650.193 169.557 649.847 170.363 645.93C170.383 645.836 170.413 645.682 170.453 645.473C170.811 660.77 172.068 674.623 174.292 685.333C183.048 727.499 185.928 786.831 182.702 804.343C180.122 818.352 183.778 824.927 185.928 826.463C194.449 833.789 209.883 846.95 221.433 856.51C216.974 859.464 211.764 867.145 212.192 883.49C212.745 904.596 208.352 926.155 206.086 934.297C212.682 937.829 224.867 944.044 235.115 948.496C237.5 963.369 241.992 987.049 246.864 999.621C248.592 1004 249.513 1010.57 244.79 1011.26C240.066 1011.95 242.716 1021.4 244.79 1023.7C246.864 1026 248.361 1029.23 245.712 1032.69C243.062 1036.14 241.449 1045.47 241.449 1050.08C241.449 1054.69 240.527 1058.95 227.97 1072.2C223.081 1077.36 216.062 1082.41 209 1087.5L208.999 1087.5C197.92 1095.47 186.736 1103.53 183.499 1112.18C183.4 1112.44 183.3 1112.71 183.2 1112.98C182.974 1113.58 182.744 1114.18 182.512 1114.79C177.289 1128.55 171.013 1145.08 190.066 1142.59C210.343 1139.94 216.91 1140.64 222.44 1142.59C227.97 1144.55 241.449 1144.09 253.546 1135.8C255.445 1134.49 257.492 1133.05 259.641 1131.53L259.654 1131.52C271.186 1123.37 285.634 1113.15 295.827 1112.18C307.924 1111.03 330.735 1103.42 334.768 1098.82C338.8 1094.21 334.998 1065.87 326.012 1052.73C318.823 1042.23 321.02 1029 323.016 1023.7C324.745 1019.63 326.15 1011.12 317.947 1009.64C319.531 996.974 319.373 957.212 317.119 940.635C322.054 937.349 326.607 933.359 330.511 928.536C325.025 917.471 318.489 890.348 316.171 875.509C319.701 874.682 322.842 873.592 325.445 872.201C327.799 870.943 330.349 869.688 333.029 868.449L335.004 880.034C335.043 881.109 335.741 883.605 338.23 884.987C340.718 886.37 337.116 890.326 335.004 892.13L338.23 911.601C339.305 915.518 340.811 925.771 338.23 935.449C335.004 947.546 331.778 962.868 335.004 966.094C335.052 966.142 335.107 966.195 335.17 966.253C336.019 971.225 338.371 977.979 343.756 983.032C344.996 984.196 346.226 985.284 347.442 986.36L347.442 986.36C355.371 993.375 362.671 999.834 368.065 1023.01C374.286 1049.74 381.198 1069.55 386.613 1078.42C392.028 1087.3 391.913 1117.59 386.613 1128.77C381.314 1139.95 371.06 1163.22 392.719 1176.81C414.378 1190.41 435.807 1185.34 443.757 1181.07C451.706 1176.81 464.724 1167.48 464.609 1149.28C464.516 1134.55 458.317 1114.32 455.402 1104.81C454.713 1102.57 454.208 1100.92 454.01 1100.08C452.973 1095.71 451.936 1087.64 454.01 1083.03C456.084 1078.42 455.623 1068.75 450.784 1064.02C447.693 1061.01 448.975 1058.83 450.875 1055.62C451.948 1053.8 453.22 1051.64 454.01 1048.82C455.153 1044.73 453.91 1041.86 452.772 1039.24C451.729 1036.83 450.775 1034.63 451.821 1031.88C453.906 1026.39 460.382 994.144 450.834 977.056C456.197 973.7 459.977 970.601 461.272 968.513C465.42 961.831 471.756 942.361 468.876 935.449C466.572 929.919 452.325 892.054 445.489 873.812C444.529 871.009 441.664 864.964 437.885 863.213C433.162 861.024 427.747 858.49 429.936 852.614C432.125 846.738 431.779 836.6 426.019 824.503C424.912 822.179 423.806 820.115 422.781 818.203C418.47 810.161 415.604 804.814 420.258 794.203C423.882 785.94 422.946 782.739 421.754 778.661C421.05 776.257 420.258 773.548 420.258 769.318C420.258 758.257 418.524 731.373 401.288 713.051C402.808 711.904 404.057 710.871 404.929 710.102C413.915 721.853 426.588 706.531 428.431 703.535C433.234 708.889 436.583 703.913 440.576 697.983L440.576 697.982C442.427 695.234 444.415 692.281 446.75 690.056C473.132 664.249 465.183 619.779 460.575 601.691C482.326 575.424 494.599 517.397 498.017 491.667C496.526 491.126 494.621 490.316 492.382 489.364L492.382 489.364C492.09 489.24 491.792 489.113 491.489 488.984C500.919 450.324 470.277 364.82 453.087 320.584C436.93 279.008 424.197 274.892 407.357 269.449L407.356 269.448C406.184 269.07 404.992 268.684 403.777 268.279C391.791 264.284 378.112 255.467 369.606 249.244C372.667 237.756 373.72 225.947 373.948 218.74C374.409 204.224 383.626 122.887 385.584 114.016C387.151 106.919 389.079 98.5392 389.847 95.2366C391.998 90.705 395.654 76.5037 393.073 55.9506C389.847 30.2591 362.312 18.9687 347.335 14.8212C346.997 14.7276 346.649 14.6331 346.29 14.5378C330.744 10.4087 295.766 4.90109 267.834 19.5427C239.262 34.5198 223.985 47.5383 221.059 71.3865C220.798 72.9348 220.516 74.7548 220.225 76.8038ZM383.615 698.005C382.842 698.778 381.088 699.26 378.998 699.799L378.699 696.593C378.312 692.44 377.927 688.308 377.549 684.206C384.393 682.505 394.225 669.706 398.247 663.673C399.563 682.324 387.925 693.767 384.125 697.502C383.934 697.689 383.764 697.857 383.615 698.005ZM377.394 654.802C376.662 655.9 375.95 657.14 375.281 658.474C371.839 616.643 370.476 580.427 377.52 561.023C385.114 540.102 378.787 521.161 370.031 514.133C372.766 505.972 372.084 500.364 369.968 496.625C376.897 479.85 389.126 451.941 394.1 446.967C395.475 454.616 406.304 482.288 412.619 497.824C407.941 501.617 403.879 505.317 400.755 508.163C399.437 509.364 398.286 510.413 397.325 511.253C390.797 516.324 393.908 522.873 400.077 535.86C401.615 539.098 403.343 542.736 405.159 546.852C418.06 578.437 409.49 597.031 403.802 609.371L403.792 609.392L403.778 609.423C403.582 609.848 403.389 610.266 403.201 610.677C397.556 623.005 382.924 646.507 377.394 654.802ZM116.146 625.919L116.142 625.897L57.6929 670.449L57.6939 670.45L116.146 625.919Z"/>
</mask>
<path fill-rule="evenodd" clip-rule="evenodd" d="M220.225 76.8038L220.232 76.8101C219.137 84.5221 217.921 95.4768 217.273 107.401C213.515 107.792 210.635 108.444 209.284 109.377C205.413 112.05 199.374 117.106 207.83 121.283C211.535 123.114 214.426 123.738 216.807 123.736C216.806 126.221 216.84 128.704 216.916 131.166L216.911 131.168C217.044 135.493 217.304 139.756 217.721 143.854C217.873 145.351 218.019 146.864 218.157 148.392L218.162 148.392C219.896 167.493 220.595 188.798 220.877 206.19C220.706 206.18 220.536 206.171 220.367 206.163C220.557 217.897 220.557 227.849 220.557 234.139C220.557 234.767 220.555 235.406 220.553 236.054C220.531 242.969 220.506 250.929 222.921 258.267C211.807 261.717 194.174 269.236 182.115 281.296C180.447 282.963 178.848 284.877 177.313 286.995C166.567 301.821 158.941 326.64 152.734 346.84L152.734 346.841L152.734 346.841L152.581 347.339C152.31 348.221 152.042 349.094 151.776 349.957C149.566 357.13 147.532 363.588 145.593 368.624L145.593 368.625C137.642 389.276 132.125 423.688 134.32 452.177L134.32 452.177C134.415 453.409 134.525 454.629 134.649 455.836C137.644 484.984 134.533 524.961 127.391 557.45C125.693 565.171 123.827 572.098 122.083 578.568L122.083 578.568C118.304 592.59 115.104 604.467 115.455 617.629L51.7992 662.543L23.7098 624.865V624.851L23.7042 624.857L23.6994 624.851V624.863L10 640.634V658.028V658.031L10.0007 658.03C12.0362 662.486 15.645 674.297 13.8019 685.909C21.7282 696.876 47.4427 729.726 59.3092 744.78L85.8071 722.545L85.7967 722.532V708.146L74.2391 692.643L124.13 651.345C132.601 667.192 143.63 669.439 146.556 670.036C146.641 670.053 146.72 670.069 146.791 670.084L146.858 670.098C146.9 670.107 146.94 670.116 146.976 670.124C149.511 670.7 156.193 665.285 154.81 657.912C154.617 657.109 153.609 655.437 152.266 653.208C149.488 648.6 145.277 641.613 143.868 635.006L144.64 634.367C146.97 641.534 151.58 652.865 155.962 656.875C161.377 661.829 162.184 648.926 159.764 648.004C165.525 650.193 169.557 649.847 170.363 645.93C170.383 645.836 170.413 645.682 170.453 645.473C170.811 660.77 172.068 674.623 174.292 685.333C183.048 727.499 185.928 786.831 182.702 804.343C180.122 818.352 183.778 824.927 185.928 826.463C194.449 833.789 209.883 846.95 221.433 856.51C216.974 859.464 211.764 867.145 212.192 883.49C212.745 904.596 208.352 926.155 206.086 934.297C212.682 937.829 224.867 944.044 235.115 948.496C237.5 963.369 241.992 987.049 246.864 999.621C248.592 1004 249.513 1010.57 244.79 1011.26C240.066 1011.95 242.716 1021.4 244.79 1023.7C246.864 1026 248.361 1029.23 245.712 1032.69C243.062 1036.14 241.449 1045.47 241.449 1050.08C241.449 1054.69 240.527 1058.95 227.97 1072.2C223.081 1077.36 216.062 1082.41 209 1087.5L208.999 1087.5C197.92 1095.47 186.736 1103.53 183.499 1112.18C183.4 1112.44 183.3 1112.71 183.2 1112.98C182.974 1113.58 182.744 1114.18 182.512 1114.79C177.289 1128.55 171.013 1145.08 190.066 1142.59C210.343 1139.94 216.91 1140.64 222.44 1142.59C227.97 1144.55 241.449 1144.09 253.546 1135.8C255.445 1134.49 257.492 1133.05 259.641 1131.53L259.654 1131.52C271.186 1123.37 285.634 1113.15 295.827 1112.18C307.924 1111.03 330.735 1103.42 334.768 1098.82C338.8 1094.21 334.998 1065.87 326.012 1052.73C318.823 1042.23 321.02 1029 323.016 1023.7C324.745 1019.63 326.15 1011.12 317.947 1009.64C319.531 996.974 319.373 957.212 317.119 940.635C322.054 937.349 326.607 933.359 330.511 928.536C325.025 917.471 318.489 890.348 316.171 875.509C319.701 874.682 322.842 873.592 325.445 872.201C327.799 870.943 330.349 869.688 333.029 868.449L335.004 880.034C335.043 881.109 335.741 883.605 338.23 884.987C340.718 886.37 337.116 890.326 335.004 892.13L338.23 911.601C339.305 915.518 340.811 925.771 338.23 935.449C335.004 947.546 331.778 962.868 335.004 966.094C335.052 966.142 335.107 966.195 335.17 966.253C336.019 971.225 338.371 977.979 343.756 983.032C344.996 984.196 346.226 985.284 347.442 986.36L347.442 986.36C355.371 993.375 362.671 999.834 368.065 1023.01C374.286 1049.74 381.198 1069.55 386.613 1078.42C392.028 1087.3 391.913 1117.59 386.613 1128.77C381.314 1139.95 371.06 1163.22 392.719 1176.81C414.378 1190.41 435.807 1185.34 443.757 1181.07C451.706 1176.81 464.724 1167.48 464.609 1149.28C464.516 1134.55 458.317 1114.32 455.402 1104.81C454.713 1102.57 454.208 1100.92 454.01 1100.08C452.973 1095.71 451.936 1087.64 454.01 1083.03C456.084 1078.42 455.623 1068.75 450.784 1064.02C447.693 1061.01 448.975 1058.83 450.875 1055.62C451.948 1053.8 453.22 1051.64 454.01 1048.82C455.153 1044.73 453.91 1041.86 452.772 1039.24C451.729 1036.83 450.775 1034.63 451.821 1031.88C453.906 1026.39 460.382 994.144 450.834 977.056C456.197 973.7 459.977 970.601 461.272 968.513C465.42 961.831 471.756 942.361 468.876 935.449C466.572 929.919 452.325 892.054 445.489 873.812C444.529 871.009 441.664 864.964 437.885 863.213C433.162 861.024 427.747 858.49 429.936 852.614C432.125 846.738 431.779 836.6 426.019 824.503C424.912 822.179 423.806 820.115 422.781 818.203C418.47 810.161 415.604 804.814 420.258 794.203C423.882 785.94 422.946 782.739 421.754 778.661C421.05 776.257 420.258 773.548 420.258 769.318C420.258 758.257 418.524 731.373 401.288 713.051C402.808 711.904 404.057 710.871 404.929 710.102C413.915 721.853 426.588 706.531 428.431 703.535C433.234 708.889 436.583 703.913 440.576 697.983L440.576 697.982C442.427 695.234 444.415 692.281 446.75 690.056C473.132 664.249 465.183 619.779 460.575 601.691C482.326 575.424 494.599 517.397 498.017 491.667C496.526 491.126 494.621 490.316 492.382 489.364L492.382 489.364C492.09 489.24 491.792 489.113 491.489 488.984C500.919 450.324 470.277 364.82 453.087 320.584C436.93 279.008 424.197 274.892 407.357 269.449L407.356 269.448C406.184 269.07 404.992 268.684 403.777 268.279C391.791 264.284 378.112 255.467 369.606 249.244C372.667 237.756 373.72 225.947 373.948 218.74C374.409 204.224 383.626 122.887 385.584 114.016C387.151 106.919 389.079 98.5392 389.847 95.2366C391.998 90.705 395.654 76.5037 393.073 55.9506C389.847 30.2591 362.312 18.9687 347.335 14.8212C346.997 14.7276 346.649 14.6331 346.29 14.5378C330.744 10.4087 295.766 4.90109 267.834 19.5427C239.262 34.5198 223.985 47.5383 221.059 71.3865C220.798 72.9348 220.516 74.7548 220.225 76.8038ZM383.615 698.005C382.842 698.778 381.088 699.26 378.998 699.799L378.699 696.593C378.312 692.44 377.927 688.308 377.549 684.206C384.393 682.505 394.225 669.706 398.247 663.673C399.563 682.324 387.925 693.767 384.125 697.502C383.934 697.689 383.764 697.857 383.615 698.005ZM377.394 654.802C376.662 655.9 375.95 657.14 375.281 658.474C371.839 616.643 370.476 580.427 377.52 561.023C385.114 540.102 378.787 521.161 370.031 514.133C372.766 505.972 372.084 500.364 369.968 496.625C376.897 479.85 389.126 451.941 394.1 446.967C395.475 454.616 406.304 482.288 412.619 497.824C407.941 501.617 403.879 505.317 400.755 508.163C399.437 509.364 398.286 510.413 397.325 511.253C390.797 516.324 393.908 522.873 400.077 535.86C401.615 539.098 403.343 542.736 405.159 546.852C418.06 578.437 409.49 597.031 403.802 609.371L403.792 609.392L403.778 609.423C403.582 609.848 403.389 610.266 403.201 610.677C397.556 623.005 382.924 646.507 377.394 654.802ZM116.146 625.919L116.142 625.897L57.6929 670.449L57.6939 670.45L116.146 625.919Z" fill="#FFC9BA"/>
<path d="M220.232 76.8101L230.132 78.2159C230.601 74.9133 229.393 71.5942 226.91 69.3666L220.232 76.8101ZM220.225 76.8038L210.324 75.3978C209.855 78.7005 211.064 82.0196 213.547 84.2473L220.225 76.8038ZM217.273 107.401L218.308 117.347C223.198 116.838 226.992 112.852 227.259 107.943L217.273 107.401ZM209.284 109.377L214.966 117.606L214.966 117.606L209.284 109.377ZM207.83 121.283L212.26 112.318H212.26L207.83 121.283ZM216.807 123.736L226.807 123.74C226.807 121.086 225.754 118.541 223.877 116.665C222 114.788 219.455 113.735 216.801 113.736L216.807 123.736ZM216.916 131.166L220.526 140.492C224.482 138.96 227.042 135.099 226.911 130.859L216.916 131.166ZM216.911 131.168L213.301 121.842C209.345 123.374 206.786 127.235 206.916 131.475L216.911 131.168ZM217.721 143.854L227.67 142.842L227.67 142.842L217.721 143.854ZM218.157 148.392L208.198 149.296C208.674 154.533 213.124 158.507 218.381 158.389L218.157 148.392ZM218.162 148.392L228.121 147.487C227.646 142.25 223.196 138.276 217.938 138.394L218.162 148.392ZM220.877 206.19L220.29 216.173C223.068 216.336 225.787 215.335 227.796 213.41C229.805 211.485 230.92 208.81 230.875 206.029L220.877 206.19ZM220.367 206.163L220.853 196.175C218.092 196.04 215.398 197.055 213.412 198.978C211.426 200.901 210.324 203.561 210.369 206.325L220.367 206.163ZM220.553 236.054L230.553 236.085V236.085L220.553 236.054ZM222.921 258.267L225.885 267.818C228.446 267.023 230.581 265.233 231.809 262.849C233.038 260.465 233.258 257.688 232.419 255.141L222.921 258.267ZM182.115 281.296L189.186 288.367L189.186 288.367L182.115 281.296ZM177.313 286.995L169.216 281.127L177.313 286.995ZM152.734 346.84L161.627 351.414C161.897 350.889 162.12 350.341 162.293 349.777L152.734 346.84ZM152.734 346.841L143.841 342.268C143.607 342.722 143.408 343.194 143.247 343.679L152.734 346.841ZM152.734 346.841L143.247 343.679C143.222 343.754 143.198 343.829 143.175 343.905L152.734 346.841ZM152.581 347.339L162.14 350.276L162.14 350.276L152.581 347.339ZM151.776 349.957L161.332 352.901L161.333 352.901L151.776 349.957ZM145.593 368.624L154.255 373.621C154.515 373.171 154.739 372.702 154.926 372.217L145.593 368.624ZM145.593 368.625L136.931 363.627C136.672 364.077 136.447 364.547 136.261 365.031L145.593 368.625ZM134.32 452.177L124.349 452.945C124.632 456.609 126.901 459.823 130.259 461.315L134.32 452.177ZM134.32 452.177L144.291 451.409C144.009 447.745 141.74 444.531 138.382 443.039L134.32 452.177ZM134.649 455.836L124.701 456.859L134.649 455.836ZM127.391 557.45L137.157 559.597H137.157L127.391 557.45ZM122.083 578.568L112.427 575.966C112.412 576.024 112.396 576.083 112.382 576.142L122.083 578.568ZM122.083 578.568L131.738 581.17C131.754 581.111 131.77 581.053 131.784 580.994L122.083 578.568ZM115.455 617.629L121.221 625.8C123.953 623.872 125.541 620.706 125.452 617.362L115.455 617.629ZM51.7992 662.543L43.7819 668.52C47.022 672.866 53.1349 673.839 57.5643 670.714L51.7992 662.543ZM23.7098 624.865H13.7098C13.7098 627.018 14.4052 629.115 15.6925 630.841L23.7098 624.865ZM23.7098 624.851H33.7098C33.7098 620.678 31.1192 616.944 27.2108 615.484C23.3025 614.023 18.8979 615.142 16.1612 618.292L23.7098 624.851ZM23.7042 624.857L15.6882 630.836C17.4974 633.261 20.3077 634.737 23.3316 634.85C26.3556 634.963 29.268 633.7 31.2528 631.416L23.7042 624.857ZM23.6994 624.851L31.7154 618.872C29.1391 615.418 24.6397 614.002 20.5498 615.36C16.4599 616.717 13.6994 620.541 13.6994 624.851H23.6994ZM23.6994 624.863L31.2491 631.42C32.8293 629.601 33.6994 627.272 33.6994 624.863H23.6994ZM10 640.634L2.45039 634.076C0.870155 635.896 0 638.224 0 640.634H10ZM10 658.031H0C0 662.21 2.59958 665.949 6.51773 667.405C10.4359 668.86 14.8459 667.725 17.5748 664.559L10 658.031ZM10.0007 658.03L19.0967 653.875C17.6808 650.775 14.784 648.61 11.4103 648.13C8.03672 647.649 4.65071 648.92 2.42598 651.501L10.0007 658.03ZM13.8019 685.909L3.92552 684.341C3.51093 686.953 4.14784 689.623 5.69688 691.766L13.8019 685.909ZM59.3092 744.78L51.4557 750.971C53.1304 753.095 55.5944 754.451 58.2854 754.728C60.9765 755.004 63.6649 754.179 65.7372 752.44L59.3092 744.78ZM85.8071 722.545L92.2351 730.205C96.3547 726.748 97.0026 720.652 93.7016 716.407L85.8071 722.545ZM85.7967 722.532H75.7967C75.7967 724.755 76.5376 726.915 77.9022 728.67L85.7967 722.532ZM85.7967 708.146H95.7967C95.7967 705.992 95.1013 703.896 93.814 702.169L85.7967 708.146ZM74.2391 692.643L67.8625 684.94C63.7603 688.336 63.0389 694.351 66.2218 698.62L74.2391 692.643ZM124.13 651.345L132.949 646.63C131.534 643.983 129.005 642.112 126.06 641.533C123.115 640.953 120.066 641.728 117.753 643.641L124.13 651.345ZM146.556 670.036L148.554 660.237L148.553 660.237L146.556 670.036ZM146.791 670.084L148.858 660.3C148.849 660.298 148.841 660.296 148.832 660.294L146.791 670.084ZM146.858 670.098L148.938 660.317L148.925 660.314L146.858 670.098ZM146.976 670.124L149.192 660.372L149.189 660.372L146.976 670.124ZM154.81 657.912L164.639 656.069C164.608 655.904 164.573 655.741 164.534 655.578L154.81 657.912ZM152.266 653.208L143.702 658.37L143.702 658.37L152.266 653.208ZM143.868 635.006L137.492 627.302C134.623 629.677 133.312 633.449 134.088 637.09L143.868 635.006ZM144.64 634.367L154.149 631.275C153.125 628.125 150.608 625.687 147.427 624.764C144.246 623.84 140.814 624.552 138.263 626.664L144.64 634.367ZM155.962 656.875L162.712 649.497H162.712L155.962 656.875ZM159.764 648.004L163.316 638.656C158.155 636.695 152.381 639.287 150.418 644.448C148.454 649.608 151.045 655.383 156.204 657.349L159.764 648.004ZM170.363 645.93L160.569 643.913L160.569 643.914L170.363 645.93ZM170.453 645.473L180.45 645.239C180.331 640.128 176.376 635.931 171.282 635.507C166.188 635.083 161.594 638.57 160.632 643.59L170.453 645.473ZM174.292 685.333L184.083 683.3L174.292 685.333ZM182.702 804.343L192.537 806.155L182.702 804.343ZM185.928 826.463L192.448 818.88C192.221 818.685 191.985 818.5 191.741 818.326L185.928 826.463ZM221.433 856.51L226.956 864.846C229.595 863.097 231.25 860.202 231.419 857.04C231.587 853.879 230.248 850.825 227.809 848.806L221.433 856.51ZM212.192 883.49L222.189 883.228L212.192 883.49ZM206.086 934.297L196.452 931.615C195.197 936.125 197.239 940.903 201.366 943.112L206.086 934.297ZM235.115 948.496L244.989 946.913C244.449 943.545 242.229 940.684 239.1 939.325L235.115 948.496ZM246.864 999.621L237.539 1003.23C237.547 1003.25 237.554 1003.27 237.562 1003.29L246.864 999.621ZM244.79 1011.26L246.238 1021.15H246.238L244.79 1011.26ZM244.79 1023.7L237.357 1030.39L237.357 1030.39L244.79 1023.7ZM245.712 1032.69L237.776 1026.6H237.776L245.712 1032.69ZM227.97 1072.2L220.712 1065.32H220.712L227.97 1072.2ZM209 1087.5L203.157 1079.38C203.084 1079.43 203.011 1079.49 202.939 1079.54L209 1087.5ZM208.999 1087.5L214.842 1095.61C214.915 1095.56 214.987 1095.51 215.059 1095.45L208.999 1087.5ZM183.499 1112.18L174.133 1108.68L174.132 1108.68L183.499 1112.18ZM183.2 1112.98L173.842 1109.45L173.842 1109.45L183.2 1112.98ZM182.512 1114.79L191.861 1118.34L182.512 1114.79ZM190.066 1142.59L188.77 1132.68H188.77L190.066 1142.59ZM222.44 1142.59L225.778 1133.17L222.44 1142.59ZM253.546 1135.8L247.891 1127.55H247.891L253.546 1135.8ZM259.641 1131.53L253.937 1123.31C253.914 1123.33 253.89 1123.35 253.867 1123.36L259.641 1131.53ZM259.654 1131.52L265.358 1139.73C265.381 1139.72 265.404 1139.7 265.427 1139.68L259.654 1131.52ZM295.827 1112.18L296.775 1122.13L295.827 1112.18ZM334.768 1098.82L327.242 1092.23L327.242 1092.23L334.768 1098.82ZM326.012 1052.73L334.265 1047.09L334.265 1047.09L326.012 1052.73ZM323.016 1023.7L313.812 1019.79C313.758 1019.92 313.707 1020.05 313.659 1020.17L323.016 1023.7ZM317.947 1009.64L308.025 1008.4C307.365 1013.68 310.947 1018.55 316.178 1019.49L317.947 1009.64ZM317.119 940.635L311.576 932.312C308.39 934.434 306.694 938.189 307.21 941.983L317.119 940.635ZM330.511 928.536L338.283 934.828C340.743 931.79 341.207 927.597 339.47 924.094L330.511 928.536ZM316.171 875.509L313.89 865.772C308.796 866.965 305.483 871.883 306.29 877.052L316.171 875.509ZM325.445 872.201L320.732 863.381L320.732 863.381L325.445 872.201ZM333.029 868.449L342.886 866.768C342.363 863.699 340.44 861.049 337.686 859.6C334.931 858.15 331.658 858.066 328.832 859.372L333.029 868.449ZM335.004 880.034L344.998 879.677C344.982 879.233 344.937 878.79 344.862 878.352L335.004 880.034ZM335.004 892.13L328.508 884.528C325.844 886.804 324.566 890.308 325.139 893.765L335.004 892.13ZM338.23 911.601L328.364 913.235C328.421 913.576 328.495 913.914 328.587 914.248L338.23 911.601ZM338.23 935.449L328.568 932.872L338.23 935.449ZM335.17 966.253L345.027 964.569C344.657 962.404 343.585 960.421 341.975 958.926L335.17 966.253ZM343.756 983.032L336.913 990.324L343.756 983.032ZM347.442 986.36L340.815 993.849C340.939 993.958 341.066 994.065 341.195 994.168L347.442 986.36ZM347.442 986.36L354.069 978.871C353.945 978.761 353.818 978.655 353.689 978.551L347.442 986.36ZM368.065 1023.01L377.804 1020.74L368.065 1023.01ZM386.613 1078.42L378.078 1083.63H378.078L386.613 1078.42ZM386.613 1128.77L395.649 1133.06H395.649L386.613 1128.77ZM392.719 1176.81L398.035 1168.34H398.035L392.719 1176.81ZM464.609 1149.28L474.609 1149.21L464.609 1149.28ZM455.402 1104.81L445.841 1107.75L455.402 1104.81ZM454.01 1100.08L463.741 1097.78H463.741L454.01 1100.08ZM454.01 1083.03L444.891 1078.93L444.891 1078.93L454.01 1083.03ZM450.784 1064.02L443.799 1071.18H443.799L450.784 1064.02ZM450.875 1055.62L459.486 1060.7L459.486 1060.7L450.875 1055.62ZM454.01 1048.82L463.641 1051.51V1051.51L454.01 1048.82ZM452.772 1039.24L461.946 1035.26L461.946 1035.26L452.772 1039.24ZM451.821 1031.88L442.473 1028.33L442.473 1028.33L451.821 1031.88ZM450.834 977.056L445.529 968.579C441.011 971.407 439.505 977.281 442.105 981.934L450.834 977.056ZM461.272 968.513L452.776 963.24L452.776 963.24L461.272 968.513ZM468.876 935.449L459.645 939.295L468.876 935.449ZM445.489 873.812L436.028 877.052C436.059 877.142 436.091 877.232 436.125 877.321L445.489 873.812ZM437.885 863.213L433.68 872.286H433.681L437.885 863.213ZM429.936 852.614L439.307 856.105V856.105L429.936 852.614ZM426.019 824.503L416.99 828.802L426.019 824.503ZM422.781 818.203L413.967 822.927H413.967L422.781 818.203ZM420.258 794.203L429.416 798.22V798.22L420.258 794.203ZM421.754 778.661L431.351 775.854L431.351 775.853L421.754 778.661ZM401.288 713.051L395.262 705.071C392.996 706.783 391.564 709.377 391.324 712.207C391.084 715.037 392.059 717.835 394.005 719.903L401.288 713.051ZM404.929 710.102L412.873 704.028C411.188 701.824 408.663 700.42 405.902 700.15C403.142 699.88 400.393 700.768 398.313 702.604L404.929 710.102ZM428.431 703.535L435.875 696.858C433.769 694.509 430.677 693.293 427.535 693.576C424.393 693.858 421.568 695.607 419.915 698.294L428.431 703.535ZM440.576 697.983L432.576 691.983C432.474 692.119 432.376 692.257 432.281 692.398L440.576 697.983ZM440.576 697.982L448.576 703.982C448.678 703.847 448.777 703.708 448.872 703.567L440.576 697.982ZM446.75 690.056L453.649 697.295C453.68 697.265 453.711 697.235 453.742 697.205L446.75 690.056ZM460.575 601.691L452.872 595.313C450.834 597.775 450.095 601.063 450.884 604.16L460.575 601.691ZM498.017 491.667L507.93 492.984C508.548 488.329 505.845 483.871 501.431 482.268L498.017 491.667ZM492.382 489.364L496.295 480.161C496.229 480.133 496.163 480.106 496.096 480.079L492.382 489.364ZM492.382 489.364L488.47 498.567C488.536 498.595 488.602 498.622 488.668 498.649L492.382 489.364ZM491.489 488.984L481.774 486.615C480.613 491.375 483.072 496.275 487.582 498.19L491.489 488.984ZM453.087 320.584L443.766 324.206L453.087 320.584ZM407.357 269.449L410.432 259.933C410.323 259.898 410.214 259.865 410.104 259.833L407.357 269.449ZM407.356 269.448L404.28 278.964C404.389 278.999 404.499 279.032 404.609 279.064L407.356 269.448ZM403.777 268.279L400.615 277.766L400.615 277.766L403.777 268.279ZM369.606 249.244L359.943 246.67C358.882 250.654 360.374 254.881 363.702 257.315L369.606 249.244ZM373.948 218.74L363.953 218.423V218.423L373.948 218.74ZM385.584 114.016L395.349 116.171V116.171L385.584 114.016ZM389.847 95.2366L380.813 90.9491C380.506 91.596 380.269 92.274 380.107 92.9714L389.847 95.2366ZM393.073 55.9506L383.151 57.1964V57.1964L393.073 55.9506ZM347.335 14.8212L350.004 5.18389L350.004 5.18387L347.335 14.8212ZM346.29 14.5378L343.723 24.2027L343.724 24.2029L346.29 14.5378ZM267.834 19.5427L263.191 10.6858L267.834 19.5427ZM221.059 71.3865L230.92 73.0491C230.945 72.9012 230.967 72.7529 230.985 72.6041L221.059 71.3865ZM378.998 699.799L369.041 700.727C369.313 703.645 370.851 706.296 373.248 707.981C375.646 709.666 378.661 710.214 381.499 709.482L378.998 699.799ZM378.699 696.593L388.656 695.665L388.656 695.665L378.699 696.593ZM377.549 684.206L375.137 674.501C370.343 675.693 367.138 680.205 367.591 685.123L377.549 684.206ZM398.247 663.673L408.222 662.969C407.921 658.703 404.94 655.1 400.806 654.006C396.671 652.912 392.299 654.568 389.926 658.126L398.247 663.673ZM384.125 697.502L377.114 690.371L377.114 690.371L384.125 697.502ZM375.281 658.474L365.314 659.294C365.682 663.761 368.977 667.438 373.377 668.291C377.777 669.144 382.208 666.966 384.218 662.959L375.281 658.474ZM377.394 654.802L385.715 660.349H385.715L377.394 654.802ZM377.52 561.023L368.12 557.611L377.52 561.023ZM370.031 514.133L360.549 510.956C359.218 514.929 360.504 519.31 363.772 521.932L370.031 514.133ZM369.968 496.625L360.726 492.807C359.552 495.649 359.751 498.872 361.264 501.548L369.968 496.625ZM394.1 446.967L403.942 445.198C403.283 441.534 400.644 438.539 397.091 437.425C393.539 436.312 389.661 437.264 387.029 439.896L394.1 446.967ZM412.619 497.824L418.917 505.591C422.336 502.819 423.54 498.137 421.883 494.059L412.619 497.824ZM400.755 508.163L407.49 515.555L407.49 515.555L400.755 508.163ZM397.325 511.253L403.461 519.149C403.613 519.031 403.762 518.908 403.908 518.781L397.325 511.253ZM400.077 535.86L409.109 531.569L400.077 535.86ZM405.159 546.852L414.417 543.071C414.382 542.985 414.346 542.899 414.308 542.814L405.159 546.852ZM403.802 609.371L394.72 605.185L394.72 605.186L403.802 609.371ZM403.792 609.392L394.71 605.207L394.709 605.209L403.792 609.392ZM403.778 609.423L412.86 613.608L412.861 613.606L403.778 609.423ZM403.201 610.677L412.293 614.841L412.293 614.841L403.201 610.677ZM116.142 625.897L126.046 624.514C125.555 620.995 123.233 618.001 119.948 616.649C116.662 615.297 112.906 615.79 110.08 617.944L116.142 625.897ZM116.146 625.919L122.206 633.874C125.08 631.684 126.549 628.114 126.049 624.536L116.146 625.919ZM57.6929 670.449L51.6309 662.495C47.3006 665.796 46.4067 671.954 49.6198 676.35L57.6929 670.449ZM57.6939 670.45L49.6208 676.351C51.2062 678.52 53.5976 679.96 56.2562 680.346C58.9148 680.732 61.617 680.033 63.754 678.404L57.6939 670.45ZM226.91 69.3666L226.903 69.3604L213.547 84.2473L213.554 84.2535L226.91 69.3666ZM227.259 107.943C227.889 96.34 229.073 85.6749 230.132 78.2159L210.331 75.4043C209.2 83.3692 207.953 94.6136 207.288 106.858L227.259 107.943ZM214.966 117.606C214.684 117.801 214.462 117.92 214.339 117.981C214.274 118.014 214.225 118.036 214.194 118.05C214.163 118.063 214.147 118.069 214.147 118.069C214.146 118.07 214.158 118.065 214.185 118.056C214.211 118.047 214.249 118.035 214.3 118.02C214.402 117.989 214.543 117.95 214.726 117.906C215.507 117.717 216.693 117.515 218.308 117.347L216.239 97.4545C214.095 97.6775 211.962 97.9974 210.025 98.4658C208.313 98.8799 205.812 99.6215 203.601 101.148L214.966 117.606ZM212.26 112.318C211.063 111.727 212.027 111.871 212.855 113.494C213.311 114.39 213.57 115.452 213.552 116.549C213.535 117.59 213.276 118.368 213.082 118.806C212.764 119.525 212.513 119.598 213.066 119.08C213.523 118.653 214.169 118.156 214.966 117.606L203.602 101.148C202.464 101.934 200.903 103.072 199.403 104.474C198 105.787 196.041 107.886 194.787 110.725C193.38 113.912 192.826 118.242 195.037 122.579C196.989 126.408 200.37 128.751 203.401 130.249L212.26 112.318ZM216.801 113.736C216.277 113.737 214.902 113.623 212.26 112.318L203.401 130.249C208.169 132.605 212.576 133.739 216.812 133.736L216.801 113.736ZM226.911 130.859C226.839 128.509 226.806 126.13 226.807 123.74L206.807 123.733C206.806 126.312 206.841 128.899 206.921 131.473L226.911 130.859ZM220.521 140.494L220.526 140.492L213.306 121.841L213.301 121.842L220.521 140.494ZM227.67 142.842C227.28 139.016 227.033 134.993 226.906 130.861L206.916 131.475C207.055 135.994 207.328 140.495 207.772 144.867L227.67 142.842ZM228.116 147.487C227.975 145.926 227.826 144.376 227.67 142.842L207.772 144.867C207.921 146.325 208.063 147.802 208.198 149.296L228.116 147.487ZM217.938 138.394L217.934 138.394L218.381 158.389L218.386 158.389L217.938 138.394ZM230.875 206.029C230.592 188.544 229.888 166.953 228.121 147.487L208.203 149.296C209.904 168.033 210.598 189.053 210.878 206.352L230.875 206.029ZM219.881 216.151C220.016 216.158 220.153 216.165 220.29 216.173L221.463 196.208C221.258 196.196 221.055 196.185 220.853 196.175L219.881 216.151ZM230.557 234.139C230.557 227.844 230.557 217.822 230.366 206.001L210.369 206.325C210.557 217.972 210.557 227.854 210.557 234.139H230.557ZM230.553 236.085C230.555 235.441 230.557 234.786 230.557 234.139H210.557C210.557 234.748 210.555 235.371 210.553 236.022L230.553 236.085ZM232.419 255.141C230.594 249.594 230.53 243.273 230.553 236.085L210.553 236.022C210.532 242.666 210.418 252.265 213.422 261.393L232.419 255.141ZM189.186 288.367C199.575 277.977 215.414 271.068 225.885 267.818L219.956 248.717C208.2 252.366 188.773 260.495 175.043 274.225L189.186 288.367ZM185.41 292.864C186.695 291.091 187.957 289.596 189.186 288.367L175.043 274.225C172.937 276.331 171.001 278.664 169.216 281.127L185.41 292.864ZM162.293 349.777C165.413 339.624 168.778 328.684 172.668 318.458C176.592 308.142 180.813 299.206 185.41 292.864L169.216 281.127C163.066 289.611 158.102 300.497 153.974 311.347C149.813 322.287 146.262 333.856 143.175 343.903L162.293 349.777ZM161.627 351.415L161.627 351.414L143.841 342.267L143.841 342.268L161.627 351.415ZM162.22 350.004L162.221 350.003L143.247 343.679L143.247 343.679L162.22 350.004ZM162.14 350.276L162.293 349.778L143.175 343.905L143.022 344.402L162.14 350.276ZM161.333 352.901C161.6 352.034 161.869 351.157 162.14 350.276L143.022 344.402C142.751 345.285 142.484 346.154 142.219 347.012L161.333 352.901ZM154.926 372.217C157.009 366.807 159.139 360.019 161.332 352.901L142.219 347.012C139.992 354.24 138.056 360.369 136.261 365.031L154.926 372.217ZM154.255 373.622L154.255 373.621L136.932 363.626L136.931 363.627L154.255 373.622ZM144.29 451.409C142.206 424.349 147.528 391.431 154.925 372.218L136.261 365.031C127.756 387.121 122.045 423.027 124.349 452.945L144.29 451.409ZM138.382 443.039L138.381 443.039L130.259 461.315L130.259 461.315L138.382 443.039ZM144.596 454.814C144.481 453.694 144.379 452.559 144.291 451.409L124.35 452.945C124.451 454.258 124.568 455.564 124.701 456.859L144.596 454.814ZM137.157 559.597C144.48 526.291 147.722 485.227 144.596 454.814L124.701 456.859C127.567 484.742 124.587 523.631 117.624 555.303L137.157 559.597ZM131.739 581.17C133.477 574.717 135.403 567.577 137.157 559.597L117.624 555.303C115.983 562.764 114.176 569.478 112.427 575.966L131.739 581.17ZM131.784 580.994L131.784 580.993L112.382 576.142L112.381 576.143L131.784 580.994ZM125.452 617.362C125.146 605.9 127.896 595.431 131.738 581.17L112.427 575.966C108.713 589.749 105.062 603.034 105.459 617.896L125.452 617.362ZM57.5643 670.714L121.221 625.8L109.69 609.458L46.0341 654.372L57.5643 670.714ZM15.6925 630.841L43.7819 668.52L59.8165 656.566L31.7271 618.888L15.6925 630.841ZM13.7098 624.851V624.865H33.7098V624.851H13.7098ZM31.2528 631.416L31.2583 631.41L16.1612 618.292L16.1557 618.298L31.2528 631.416ZM15.6834 630.829L15.6882 630.836L31.7202 618.878L31.7154 618.872L15.6834 630.829ZM33.6994 624.863V624.851H13.6994V624.863H33.6994ZM17.5496 647.192L31.2491 631.42L16.1498 618.305L2.45039 634.076L17.5496 647.192ZM20 658.028V640.634H0V658.028H20ZM20 658.031V658.028H0V658.031H20ZM2.42598 651.501L2.42525 651.502L17.5748 664.559L17.5755 664.558L2.42598 651.501ZM23.6782 687.476C25.928 673.303 21.6428 659.449 19.0967 653.875L0.904821 662.185C2.42961 665.523 5.36194 675.292 3.92552 684.341L23.6782 687.476ZM67.1626 738.589C55.2337 723.456 29.6801 690.807 21.9069 680.051L5.69688 691.766C13.7763 702.946 39.6517 735.996 51.4557 750.971L67.1626 738.589ZM79.379 714.885L52.8811 737.12L65.7372 752.44L92.2351 730.205L79.379 714.885ZM77.9022 728.67L77.9126 728.683L93.7016 716.407L93.6912 716.393L77.9022 728.67ZM75.7967 708.146V722.532H95.7967V708.146H75.7967ZM66.2218 698.62L77.7795 714.123L93.814 702.169L82.2563 686.666L66.2218 698.62ZM117.753 643.641L67.8625 684.94L80.6156 700.346L130.507 659.048L117.753 643.641ZM148.553 660.237C147.522 660.027 145.407 659.61 142.728 657.933C140.066 656.266 136.384 653.057 132.949 646.63L115.311 656.059C120.347 665.48 126.416 671.318 132.117 674.886C137.802 678.444 142.664 679.448 144.559 679.834L148.553 660.237ZM148.832 660.294C148.735 660.274 148.635 660.254 148.554 660.237L144.558 679.834C144.648 679.852 144.705 679.864 144.751 679.874L148.832 660.294ZM148.925 660.314L148.858 660.3L144.725 679.868L144.791 679.882L148.925 660.314ZM149.189 660.372C149.092 660.35 149.005 660.331 148.938 660.317L144.779 679.879C144.786 679.881 144.788 679.881 144.786 679.881C144.784 679.881 144.776 679.879 144.763 679.876L149.189 660.372ZM144.981 659.755C145.008 659.895 145.028 660.174 144.643 660.642C144.443 660.884 144.342 660.903 144.553 660.784C144.662 660.723 145.022 660.53 145.635 660.375C146.176 660.237 147.481 659.984 149.192 660.372L144.76 679.875C149.066 680.854 152.713 679.143 154.374 678.207C156.508 677.004 158.467 675.317 160.081 673.356C163.325 669.417 165.995 663.302 164.639 656.069L144.981 659.755ZM143.702 658.37C144.405 659.538 144.892 660.347 145.234 660.961C145.312 661.101 145.369 661.207 145.41 661.286C145.453 661.367 145.468 661.4 145.464 661.392C145.463 661.389 145.421 661.302 145.362 661.148C145.309 661.009 145.193 660.692 145.086 660.245L164.534 655.578C164.068 653.635 163.057 651.858 162.705 651.227C162.16 650.248 161.47 649.107 160.83 648.045L143.702 658.37ZM134.088 637.09C135.91 645.641 141.124 654.094 143.702 658.37L160.83 648.045C157.853 643.106 154.643 637.586 153.649 632.921L134.088 637.09ZM138.263 626.664L137.492 627.302L150.245 642.709L151.016 642.071L138.263 626.664ZM162.712 649.497C162.103 648.939 160.547 646.725 158.579 642.545C156.802 638.772 155.215 634.55 154.149 631.275L135.13 637.46C136.395 641.351 138.278 646.379 140.484 651.065C142.499 655.344 145.439 660.801 149.212 664.253L162.712 649.497ZM156.204 657.349C152.867 656.077 151.644 653.491 151.437 653.04C151.245 652.626 151.152 652.312 151.112 652.159C151.068 651.996 151.054 651.901 151.052 651.888C151.05 651.873 151.065 651.984 151.058 652.182C151.051 652.376 151.029 652.519 151.018 652.572C150.999 652.66 151.036 652.415 151.265 651.963C151.46 651.579 152.128 650.381 153.673 649.362C155.517 648.145 157.822 647.717 159.957 648.194C161.735 648.591 162.653 649.443 162.712 649.497L149.212 664.253C150.625 665.546 152.753 667.078 155.602 667.714C158.809 668.429 162.045 667.799 164.689 666.055C167.033 664.508 168.367 662.458 169.1 661.013C169.868 659.5 170.315 657.987 170.584 656.713C171.113 654.215 171.198 651.492 170.852 649.063C170.681 647.865 170.341 646.276 169.598 644.665C168.993 643.352 167.266 640.161 163.324 638.659L156.204 657.349ZM160.569 643.914C160.702 643.265 161.139 642.05 162.311 640.944C163.466 639.854 164.672 639.493 165.29 639.391C165.831 639.301 165.963 639.393 165.493 639.31C165.06 639.232 164.342 639.046 163.316 638.656L156.212 657.352C159.61 658.643 164.083 659.862 168.553 659.123C171 658.718 173.725 657.673 176.043 655.485C178.378 653.28 179.621 650.553 180.158 647.947L160.569 643.914ZM160.632 643.59C160.613 643.686 160.599 643.762 160.587 643.821C160.582 643.85 160.577 643.872 160.574 643.889C160.57 643.906 160.569 643.914 160.569 643.913L180.158 647.947C180.192 647.78 180.233 647.568 180.274 647.355L160.632 643.59ZM184.083 683.3C182.03 673.41 180.801 660.22 180.45 645.239L160.456 645.706C160.821 661.321 162.107 675.836 164.501 687.366L184.083 683.3ZM192.537 806.155C194.401 796.036 194.378 775.678 192.97 753.451C191.54 730.85 188.585 704.981 184.083 683.3L164.501 687.366C168.755 707.851 171.619 732.731 173.01 754.715C174.426 777.074 174.23 795.138 172.868 802.531L192.537 806.155ZM191.741 818.326C192.701 819.012 192.948 819.56 192.822 819.342C192.753 819.221 192.501 818.731 192.265 817.748C191.796 815.79 191.444 812.088 192.537 806.155L172.868 802.531C171.38 810.608 171.566 817.197 172.817 822.413C173.982 827.269 176.337 831.901 180.116 834.6L191.741 818.326ZM227.809 848.806C216.331 839.305 200.952 826.192 192.448 818.88L179.409 834.045C187.946 841.386 203.435 854.594 215.056 864.213L227.809 848.806ZM222.189 883.228C221.814 868.94 226.363 865.239 226.956 864.846L215.909 848.173C207.584 853.69 201.713 865.349 202.196 883.752L222.189 883.228ZM215.72 936.978C218.169 928.177 222.775 905.596 222.189 883.228L202.196 883.752C202.715 903.596 198.535 924.133 196.452 931.615L215.72 936.978ZM239.1 939.325C229.202 935.024 217.283 928.948 210.806 925.481L201.366 943.112C208.082 946.709 220.533 953.064 231.13 957.668L239.1 939.325ZM256.188 996.008C251.757 984.572 247.396 961.921 244.989 946.913L225.241 950.08C227.605 964.818 232.227 989.526 237.539 1003.23L256.188 996.008ZM246.238 1021.15C249.983 1020.6 253.307 1018.67 255.523 1015.53C257.513 1012.7 258.087 1009.66 258.226 1007.45C258.499 1003.14 257.311 998.852 256.165 995.949L237.562 1003.29C237.803 1003.9 238.01 1004.58 238.138 1005.2C238.275 1005.87 238.266 1006.19 238.266 1006.19C238.268 1006.17 238.282 1005.95 238.387 1005.59C238.493 1005.23 238.717 1004.65 239.177 1004C239.656 1003.32 240.32 1002.67 241.158 1002.16C241.988 1001.67 242.768 1001.45 243.342 1001.36L246.238 1021.15ZM252.223 1017.01C252.668 1017.5 252.828 1017.83 252.782 1017.75C252.767 1017.72 252.693 1017.58 252.592 1017.31C252.379 1016.75 252.224 1016.13 252.168 1015.67C252.09 1015.02 252.294 1015.55 251.865 1016.69C251.607 1017.38 251.053 1018.44 249.938 1019.42C248.764 1020.45 247.418 1020.98 246.238 1021.15L243.342 1001.36C237.951 1002.15 234.578 1005.84 233.146 1009.65C231.95 1012.83 232.061 1015.99 232.313 1018.08C232.589 1020.35 233.19 1022.57 233.909 1024.45C234.541 1026.1 235.624 1028.46 237.357 1030.39L252.223 1017.01ZM253.648 1038.77C256.646 1034.86 257.717 1030.29 256.831 1025.82C256.042 1021.83 253.884 1018.86 252.223 1017.01L237.357 1030.39C237.514 1030.56 237.544 1030.63 237.509 1030.57C237.473 1030.51 237.313 1030.21 237.213 1029.7C237.104 1029.16 237.091 1028.48 237.258 1027.79C237.423 1027.11 237.691 1026.71 237.776 1026.6L253.648 1038.77ZM251.449 1050.08C251.449 1048.67 251.733 1045.92 252.353 1043.1C252.654 1041.73 252.99 1040.55 253.32 1039.65C253.695 1038.62 253.877 1038.47 253.648 1038.77L237.776 1026.6C234.99 1030.23 233.573 1035.38 232.82 1038.81C231.971 1042.67 231.449 1046.89 231.449 1050.08H251.449ZM235.227 1079.08C241.655 1072.3 245.757 1067.16 248.196 1062.69C250.974 1057.6 251.449 1053.65 251.449 1050.08H231.449C231.449 1051.12 231.463 1051.61 230.641 1053.11C229.48 1055.24 226.841 1058.86 220.712 1065.32L235.227 1079.08ZM214.842 1095.61C221.663 1090.7 229.553 1085.07 235.227 1079.08L220.712 1065.32C216.609 1069.65 210.461 1074.12 203.157 1079.38L214.842 1095.61ZM215.059 1095.45L215.06 1095.45L202.939 1079.54L202.938 1079.54L215.059 1095.45ZM192.866 1115.68C193.611 1113.69 195.712 1110.84 199.966 1107.05C204.086 1103.37 209.197 1099.68 214.842 1095.61L203.156 1079.38C197.722 1083.29 191.701 1087.62 186.65 1092.12C181.733 1096.51 176.624 1102.02 174.133 1108.68L192.866 1115.68ZM192.557 1116.5C192.66 1116.23 192.763 1115.96 192.866 1115.68L174.132 1108.68C174.037 1108.93 173.941 1109.19 173.842 1109.45L192.557 1116.5ZM191.861 1118.34C192.093 1117.73 192.327 1117.12 192.557 1116.5L173.842 1109.45C173.622 1110.04 173.396 1110.63 173.163 1111.24L191.861 1118.34ZM188.77 1132.68C184.961 1133.18 184.845 1132.34 185.87 1133.06C187.386 1134.13 187.21 1135.49 187.181 1134.5C187.148 1133.34 187.459 1131.29 188.394 1128.14C189.296 1125.11 190.528 1121.85 191.861 1118.34L173.163 1111.24C171.885 1114.61 170.374 1118.58 169.225 1122.44C168.11 1126.19 167.063 1130.69 167.19 1135.08C167.321 1139.62 168.822 1145.52 174.356 1149.41C179.401 1152.96 185.644 1153.26 191.362 1152.51L188.77 1132.68ZM225.778 1133.17C217.841 1130.36 209.204 1130.01 188.77 1132.68L191.362 1152.51C211.481 1149.88 215.979 1150.92 219.101 1152.02L225.778 1133.17ZM247.891 1127.55C243.192 1130.77 238.217 1132.47 233.923 1133.17C229.368 1133.91 226.441 1133.4 225.778 1133.17L219.101 1152.02C223.968 1153.74 230.546 1153.98 237.137 1152.91C243.99 1151.8 251.802 1149.12 259.201 1144.04L247.891 1127.55ZM253.867 1123.36C251.705 1124.89 249.719 1126.3 247.891 1127.55L259.201 1144.04C261.171 1142.69 263.28 1141.2 265.414 1139.69L253.867 1123.36ZM253.95 1123.31L253.937 1123.31L265.345 1139.74L265.358 1139.73L253.95 1123.31ZM294.879 1102.22C287.46 1102.93 279.688 1106.73 273.201 1110.52C266.43 1114.47 259.576 1119.33 253.881 1123.35L265.427 1139.68C271.264 1135.56 277.399 1131.23 283.285 1127.79C289.453 1124.19 294.001 1122.4 296.775 1122.13L294.879 1102.22ZM327.242 1092.23C327.74 1091.66 327.321 1092.26 324.383 1093.66C321.943 1094.82 318.722 1096.1 315.107 1097.32C307.741 1099.83 299.838 1101.75 294.879 1102.22L296.775 1122.13C303.914 1121.45 313.465 1119 321.537 1116.26C325.641 1114.87 329.634 1113.31 332.984 1111.71C335.835 1110.36 339.779 1108.27 342.294 1105.4L327.242 1092.23ZM317.759 1058.38C321.06 1063.2 323.94 1071.92 325.411 1080.63C326.123 1084.86 326.421 1088.59 326.366 1091.32C326.339 1092.69 326.226 1093.55 326.137 1093.97C325.99 1094.66 326.054 1093.59 327.242 1092.23L342.293 1105.4C344.489 1102.89 345.317 1099.92 345.698 1098.13C346.139 1096.07 346.32 1093.85 346.362 1091.72C346.448 1087.42 345.99 1082.39 345.132 1077.31C343.464 1067.42 339.95 1055.39 334.265 1047.09L317.759 1058.38ZM313.659 1020.17C312.222 1023.99 310.947 1029.88 311.071 1036.45C311.197 1043.09 312.77 1051.09 317.759 1058.38L334.265 1047.09C332.064 1043.87 331.142 1040 331.068 1036.07C330.992 1032.08 331.814 1028.71 332.374 1027.23L313.659 1020.17ZM316.178 1019.49C316.353 1019.52 316.266 1019.53 316.022 1019.4C315.764 1019.27 315.437 1019.04 315.123 1018.7C314.467 1018 314.343 1017.35 314.335 1017.3C314.332 1017.28 314.345 1017.36 314.34 1017.54C314.334 1017.72 314.311 1017.96 314.26 1018.25C314.153 1018.85 313.967 1019.43 313.812 1019.79L332.221 1027.61C333.497 1024.6 334.948 1019.46 334.077 1014.1C333.611 1011.23 332.408 1007.92 329.763 1005.08C327.064 1002.18 323.537 1000.49 319.717 999.802L316.178 1019.49ZM307.21 941.983C308.247 949.605 308.85 963.155 308.973 976.695C309.096 990.294 308.725 1002.8 308.025 1008.4L327.87 1010.88C328.754 1003.82 329.095 990.108 328.972 976.514C328.848 962.862 328.245 948.242 327.028 939.288L307.21 941.983ZM322.739 922.244C319.536 926.2 315.761 929.525 311.576 932.312L322.661 948.959C328.346 945.173 333.677 940.518 338.283 934.828L322.739 922.244ZM306.29 877.052C307.511 884.867 309.801 895.689 312.476 905.958C315.094 916.01 318.31 926.44 321.552 932.978L339.47 924.094C337.226 919.567 334.431 910.903 331.83 900.917C329.286 891.148 327.148 880.99 326.051 873.965L306.29 877.052ZM320.732 863.381C319.115 864.245 316.855 865.078 313.89 865.772L318.451 885.245C322.547 884.286 326.569 882.939 330.159 881.02L320.732 863.381ZM328.832 859.372C326.016 860.674 323.289 862.015 320.732 863.381L330.159 881.02C332.309 879.871 334.682 878.701 337.225 877.526L328.832 859.372ZM344.862 878.352L342.886 866.768L323.171 870.13L325.146 881.715L344.862 878.352ZM343.086 876.246C343.806 876.646 344.284 877.237 344.546 877.734C344.669 877.969 344.761 878.208 344.829 878.461C344.888 878.681 344.977 879.081 344.998 879.677L325.011 880.39C325.137 883.919 327.004 890.191 333.374 893.729L343.086 876.246ZM341.501 899.733C342.922 898.518 345.228 896.293 346.859 893.641C347.6 892.436 348.955 889.966 349.067 886.783C349.129 885.006 348.803 882.865 347.634 880.761C346.458 878.643 344.77 877.181 343.086 876.246L333.374 893.729C332.312 893.139 331.056 892.103 330.151 890.473C329.253 888.857 329.038 887.266 329.079 886.083C329.118 884.971 329.379 884.175 329.52 883.805C329.671 883.411 329.806 883.191 329.825 883.161C329.85 883.121 329.732 883.305 329.397 883.669C329.089 884.003 328.757 884.315 328.508 884.528L341.501 899.733ZM348.095 909.966L344.87 890.496L325.139 893.765L328.364 913.235L348.095 909.966ZM347.892 938.025C351.063 926.136 349.259 914 347.873 908.953L328.587 914.248C329.352 917.035 330.559 925.406 328.568 932.872L347.892 938.025ZM342.075 959.023C343.315 960.263 343.656 961.447 343.701 961.605C343.767 961.836 343.71 961.744 343.682 961.162C343.625 959.988 343.734 958.098 344.101 955.488C344.823 950.343 346.313 943.947 347.892 938.025L328.568 932.872C326.921 939.047 325.186 946.361 324.295 952.708C323.855 955.844 323.561 959.145 323.705 962.13C323.778 963.627 323.973 965.356 324.468 967.089C324.941 968.75 325.887 971.119 327.933 973.165L342.075 959.023ZM341.975 958.926C341.983 958.933 342.019 958.967 342.075 959.023L327.933 973.165C328.084 973.317 328.231 973.456 328.364 973.58L341.975 958.926ZM350.598 975.739C347.347 972.689 345.659 968.268 345.027 964.569L325.312 967.937C326.379 974.182 329.395 983.27 336.913 990.324L350.598 975.739ZM354.068 978.87C352.838 977.782 351.715 976.787 350.598 975.739L336.913 990.324C338.277 991.604 339.615 992.787 340.815 993.849L354.068 978.87ZM353.689 978.551L353.689 978.551L341.195 994.168L341.195 994.169L353.689 978.551ZM377.804 1020.74C374.931 1008.4 371.394 999.822 367.097 993.188C362.786 986.533 358.027 982.373 354.069 978.871L340.816 993.849C344.786 997.362 347.641 999.939 350.311 1004.06C352.994 1008.2 355.804 1014.44 358.325 1025.28L377.804 1020.74ZM395.149 1073.21C390.642 1065.83 384.01 1047.4 377.804 1020.74L358.325 1025.28C364.562 1052.07 371.755 1073.28 378.078 1083.63L395.149 1073.21ZM395.649 1133.06C399.299 1125.36 400.616 1113.1 400.631 1102.75C400.639 1097.31 400.288 1091.8 399.522 1086.91C398.805 1082.33 397.562 1077.17 395.149 1073.21L378.078 1083.63C378.372 1084.12 379.145 1086.06 379.763 1090.01C380.333 1093.65 380.638 1098.08 380.631 1102.72C380.617 1112.53 379.227 1121.01 377.578 1124.49L395.649 1133.06ZM398.035 1168.34C394.081 1165.86 392.044 1163.26 390.936 1160.9C389.796 1158.46 389.354 1155.67 389.54 1152.46C389.933 1145.71 392.975 1138.69 395.649 1133.06L377.578 1124.49C374.952 1130.02 370.218 1140.23 369.574 1151.3C369.241 1157.01 369.965 1163.28 372.829 1169.39C375.724 1175.56 380.528 1180.97 387.403 1185.28L398.035 1168.34ZM439.031 1172.26C433.608 1175.17 416.084 1179.67 398.035 1168.34L387.403 1185.28C412.673 1201.14 438.006 1195.51 448.482 1189.89L439.031 1172.26ZM454.609 1149.34C454.688 1161.77 446.066 1168.49 439.031 1172.26L448.482 1189.89C457.346 1185.13 474.761 1173.19 474.609 1149.21L454.609 1149.34ZM445.841 1107.75C448.884 1117.68 454.527 1136.38 454.609 1149.34L474.609 1149.21C474.505 1132.72 467.749 1110.97 464.963 1101.88L445.841 1107.75ZM444.279 1102.39C444.574 1103.63 445.218 1105.71 445.841 1107.75L464.963 1101.88C464.614 1100.75 464.33 1099.82 464.107 1099.07C463.997 1098.7 463.91 1098.4 463.844 1098.16C463.812 1098.05 463.787 1097.96 463.769 1097.89C463.76 1097.85 463.753 1097.83 463.748 1097.81C463.746 1097.8 463.744 1097.79 463.743 1097.79C463.741 1097.78 463.741 1097.78 463.741 1097.78L444.279 1102.39ZM444.891 1078.93C442.88 1083.4 442.704 1088.47 442.852 1092.06C443.012 1095.94 443.639 1099.69 444.279 1102.39L463.741 1097.78C463.344 1096.1 462.934 1093.63 462.835 1091.23C462.786 1090.05 462.82 1089.03 462.917 1088.23C463.019 1087.38 463.156 1087.08 463.129 1087.14L444.891 1078.93ZM443.799 1071.18C444.015 1071.39 444.771 1072.51 445.071 1074.85C445.204 1075.88 445.206 1076.89 445.117 1077.73C445.022 1078.62 444.859 1079 444.891 1078.93L463.129 1087.14C465.144 1082.66 465.525 1077.1 464.908 1072.3C464.286 1067.46 462.392 1061.38 457.77 1056.87L443.799 1071.18ZM442.264 1050.53C441.676 1051.53 439.533 1054.81 439.041 1058.61C438.351 1063.93 440.722 1068.17 443.799 1071.18L457.77 1056.87C457.641 1056.74 458.068 1057.11 458.447 1058.02C458.882 1059.05 459.004 1060.19 458.875 1061.18C458.768 1062 458.527 1062.42 458.632 1062.21C458.753 1061.96 458.955 1061.6 459.486 1060.7L442.264 1050.53ZM444.379 1046.12C443.979 1047.56 443.344 1048.7 442.264 1050.53L459.486 1060.7C460.553 1058.89 462.46 1055.73 463.641 1051.51L444.379 1046.12ZM443.598 1043.22C444.216 1044.64 444.368 1045.08 444.439 1045.43C444.462 1045.55 444.465 1045.61 444.463 1045.67C444.461 1045.72 444.453 1045.86 444.379 1046.12L463.641 1051.51C465.8 1043.78 463.145 1038.02 461.946 1035.26L443.598 1043.22ZM442.473 1028.33C439.806 1035.35 442.719 1041.19 443.598 1043.22L461.946 1035.26C461.811 1034.95 461.707 1034.71 461.612 1034.48C461.519 1034.26 461.452 1034.09 461.402 1033.96C461.299 1033.68 461.3 1033.64 461.32 1033.74C461.345 1033.86 461.384 1034.14 461.36 1034.51C461.335 1034.89 461.253 1035.21 461.169 1035.43L442.473 1028.33ZM442.105 981.934C445.395 987.823 446.373 997.668 445.71 1008.19C445.395 1013.18 444.744 1017.86 444.056 1021.58C443.712 1023.44 443.367 1025.02 443.064 1026.24C442.913 1026.85 442.778 1027.34 442.666 1027.72C442.611 1027.91 442.565 1028.06 442.529 1028.17C442.492 1028.28 442.473 1028.33 442.473 1028.33L461.169 1035.43C462.698 1031.41 464.949 1020.89 465.67 1009.45C466.379 998.2 465.821 983.376 459.564 972.178L442.105 981.934ZM452.776 963.24C452.969 962.93 453.019 962.938 452.688 963.277C452.392 963.581 451.923 964.015 451.243 964.572C449.879 965.688 447.96 967.058 445.529 968.579L456.14 985.533C459.071 983.698 461.723 981.84 463.914 980.046C465.907 978.414 468.226 976.272 469.769 973.787L452.776 963.24ZM459.645 939.295C459.406 938.721 459.742 939.231 459.524 941.72C459.336 943.871 458.823 946.568 458.044 949.503C456.433 955.576 454.125 961.066 452.776 963.24L469.769 973.787C472.567 969.279 475.502 961.693 477.375 954.632C478.339 951 479.129 947.116 479.448 943.463C479.738 940.149 479.786 935.633 478.107 931.603L459.645 939.295ZM436.125 877.321C442.903 895.41 457.25 933.545 459.645 939.295L478.107 931.603C475.894 926.292 461.746 888.698 454.853 870.303L436.125 877.321ZM433.681 872.286C433.129 872.031 433.022 871.828 433.287 872.106C433.523 872.354 433.87 872.792 434.279 873.442C435.122 874.782 435.763 876.278 436.028 877.052L454.949 870.572C454.255 868.543 452.983 865.615 451.209 862.794C449.626 860.278 446.682 856.268 442.09 854.14L433.681 872.286ZM420.565 849.123C419.444 852.133 419.042 855.469 419.887 858.859C420.717 862.191 422.528 864.678 424.309 866.428C427.459 869.524 431.759 871.396 433.68 872.286L442.09 854.14C440.855 853.568 439.978 853.155 439.229 852.735C438.472 852.311 438.272 852.109 438.328 852.164C438.438 852.272 439.01 852.887 439.293 854.023C439.591 855.217 439.333 856.033 439.307 856.105L420.565 849.123ZM416.99 828.802C422.037 839.402 421.497 846.621 420.565 849.123L439.307 856.105C442.752 846.856 441.521 833.798 435.047 820.204L416.99 828.802ZM413.967 822.927C415.001 824.855 416 826.723 416.99 828.802L435.047 820.204C433.825 817.636 432.611 815.375 431.595 813.479L413.967 822.927ZM411.1 790.187C408.167 796.874 407.209 802.908 408.322 808.973C409.331 814.468 411.989 819.237 413.967 822.927L431.595 813.479C429.262 809.127 428.332 807.202 427.993 805.361C427.76 804.089 427.695 802.144 429.416 798.22L411.1 790.187ZM412.156 781.468C412.772 783.576 412.834 783.994 412.817 784.565C412.799 785.174 412.617 786.728 411.1 790.187L429.416 798.22C431.524 793.415 432.686 789.238 432.808 785.161C432.931 781.045 431.927 777.823 431.351 775.854L412.156 781.468ZM410.258 769.318C410.258 775.012 411.384 778.83 412.156 781.468L431.351 775.853C430.717 773.683 430.258 772.084 430.258 769.318H410.258ZM394.005 719.903C408.409 735.215 410.258 758.574 410.258 769.318H430.258C430.258 757.939 428.64 727.531 408.572 706.199L394.005 719.903ZM398.313 702.604C397.646 703.192 396.595 704.065 395.262 705.071L407.315 721.032C409.021 719.743 410.469 718.55 411.545 717.601L398.313 702.604ZM419.915 698.294C419.961 698.219 419.818 698.451 419.421 698.952C419.057 699.411 418.57 699.984 417.989 700.596C416.776 701.875 415.428 703.039 414.182 703.793C412.854 704.597 412.452 704.453 412.814 704.478C413.643 704.535 413.659 705.057 412.873 704.028L396.985 716.177C400.692 721.023 405.662 724.037 411.452 724.432C416.775 724.795 421.342 722.837 424.536 720.904C430.751 717.143 435.424 711.254 436.948 708.776L419.915 698.294ZM432.281 692.398C431.232 693.955 430.48 695.065 429.789 695.949C429.05 696.894 428.867 696.937 429.187 696.719C429.409 696.569 429.932 696.253 430.741 696.036C431.602 695.805 432.595 695.74 433.605 695.926C435.567 696.287 436.293 697.324 435.875 696.858L420.988 710.213C422.971 712.424 425.917 714.846 429.982 715.595C434.344 716.398 437.98 714.925 440.427 713.262C442.684 711.728 444.387 709.749 445.55 708.261C446.76 706.712 447.924 704.975 448.871 703.568L432.281 692.398ZM432.576 691.982L432.576 691.983L448.576 703.983L448.576 703.982L432.576 691.982ZM439.85 682.817C436.582 685.932 433.993 689.856 432.281 692.398L448.872 703.567C450.86 700.613 452.248 698.63 453.649 697.295L439.85 682.817ZM450.884 604.16C453.074 612.755 455.966 627.321 455.293 642.537C454.618 657.808 450.427 672.47 439.757 682.907L453.742 697.205C469.455 681.835 474.48 661.359 475.274 643.421C476.07 625.428 472.684 608.715 470.265 599.222L450.884 604.16ZM488.104 490.35C486.455 502.764 482.632 523.189 476.582 543.641C470.438 564.407 462.387 583.823 452.872 595.313L468.277 608.069C480.513 593.292 489.475 570.561 495.76 549.314C502.139 527.753 506.161 506.3 507.93 492.984L488.104 490.35ZM488.47 498.567C490.611 499.477 492.802 500.412 494.603 501.066L501.431 482.268C500.251 481.839 498.631 481.154 496.295 480.161L488.47 498.567ZM488.668 498.649L488.668 498.649L496.096 480.079L496.096 480.079L488.668 498.649ZM487.582 498.19C487.882 498.317 488.177 498.443 488.47 498.567L496.294 480.161C496.002 480.037 495.702 479.909 495.396 479.779L487.582 498.19ZM443.766 324.206C452.32 346.219 464.128 378.27 472.621 409.499C476.868 425.117 480.23 440.33 481.966 453.855C483.724 467.558 483.7 478.718 481.774 486.615L501.204 491.354C503.993 479.921 503.675 465.894 501.803 451.31C499.908 436.548 496.304 420.371 491.92 404.251C483.151 372.004 471.044 339.185 462.408 316.962L443.766 324.206ZM404.281 278.964C412.756 281.703 418.12 283.547 423.61 288.734C429.331 294.142 435.895 303.952 443.766 324.206L462.408 316.962C454.122 295.64 446.241 282.604 437.347 274.199C428.22 265.574 418.798 262.637 410.432 259.933L404.281 278.964ZM404.609 279.064L404.609 279.064L410.104 259.833L410.103 259.833L404.609 279.064ZM400.615 277.766C401.88 278.188 403.114 278.587 404.28 278.964L410.432 259.933C409.254 259.552 408.104 259.181 406.94 258.793L400.615 277.766ZM363.702 257.315C372.405 263.683 387.106 273.263 400.615 277.766L406.94 258.793C396.476 255.305 383.819 247.252 375.511 241.174L363.702 257.315ZM363.953 218.423C363.74 225.147 362.747 236.148 359.943 246.67L379.269 251.819C382.587 239.365 383.699 226.747 383.943 219.057L363.953 218.423ZM375.82 111.86C374.693 116.96 371.833 140.25 369.267 163.147C366.682 186.215 364.2 210.665 363.953 218.423L383.943 219.057C384.158 212.299 386.515 188.822 389.142 165.375C391.789 141.757 394.517 119.942 395.349 116.171L375.82 111.86ZM380.107 92.9714C379.335 96.293 377.397 104.712 375.82 111.86L395.349 116.171C396.905 109.125 398.823 100.785 399.587 97.5017L380.107 92.9714ZM383.151 57.1964C385.551 76.3102 381.971 88.5095 380.813 90.9491L398.881 99.524C402.025 92.9006 405.756 76.6972 402.995 54.7047L383.151 57.1964ZM344.666 24.4585C351.581 26.3733 360.964 29.8396 368.792 35.4399C376.533 40.9777 381.997 48.0083 383.151 57.1964L402.995 54.7047C400.923 38.2013 391.007 26.741 380.429 19.1739C369.939 11.6693 358.067 7.41662 350.004 5.18389L344.666 24.4585ZM343.724 24.2029C344.049 24.2892 344.363 24.3745 344.667 24.4585L350.004 5.18387C349.632 5.08078 349.249 4.97698 348.856 4.87274L343.724 24.2029ZM272.477 28.3996C296.943 15.5747 328.757 20.2276 343.723 24.2027L348.857 4.87292C332.731 0.589843 294.589 -5.77247 263.191 10.6858L272.477 28.3996ZM230.985 72.6041C232.182 62.8454 235.771 55.6195 242.055 49.0508C248.649 42.1586 258.419 35.7684 272.477 28.3996L263.191 10.6858C248.677 18.2941 236.523 25.9018 227.603 35.2251C218.375 44.8719 212.862 56.0794 211.134 70.1689L230.985 72.6041ZM230.125 78.2098C230.406 76.2339 230.675 74.5003 230.92 73.0491L211.198 69.7238C210.921 71.3693 210.625 73.2757 210.324 75.3978L230.125 78.2098ZM381.499 709.482C382.478 709.229 383.873 708.868 385.163 708.407C386.204 708.036 388.64 707.122 390.686 705.076L376.544 690.934C376.928 690.551 377.282 690.275 377.548 690.089C377.815 689.902 378.035 689.776 378.175 689.702C378.318 689.626 378.416 689.583 378.451 689.568C378.487 689.553 378.487 689.555 378.438 689.572C378.329 689.611 378.123 689.678 377.77 689.778C377.419 689.877 377.014 689.984 376.498 690.117L381.499 709.482ZM368.742 697.521L369.041 700.727L388.955 698.871L388.656 695.665L368.742 697.521ZM367.591 685.123C367.97 689.232 368.355 693.369 368.742 697.521L388.656 695.665C388.269 691.511 387.884 687.384 387.507 683.288L367.591 685.123ZM389.926 658.126C388.124 660.83 384.971 665.109 381.582 668.809C379.887 670.66 378.293 672.189 376.917 673.272C375.387 674.478 374.814 674.581 375.137 674.501L379.961 693.91C383.705 692.98 386.928 690.846 389.292 688.984C391.81 687.001 394.209 684.634 396.33 682.318C400.574 677.685 404.348 672.549 406.567 669.22L389.926 658.126ZM391.135 704.633C395.125 700.711 409.878 686.426 408.222 662.969L388.272 664.377C389.249 678.222 380.724 686.822 377.114 690.371L391.135 704.633ZM390.686 705.076C390.799 704.964 390.937 704.828 391.136 704.633L377.114 690.371C376.932 690.55 376.729 690.75 376.544 690.934L390.686 705.076ZM384.218 662.959C384.732 661.936 385.242 661.058 385.715 660.349L369.074 649.255C368.082 650.742 367.168 652.344 366.343 653.989L384.218 662.959ZM368.12 557.611C363.984 569.004 362.579 584.35 362.468 601.273C362.356 618.439 363.588 638.309 365.314 659.294L385.247 657.654C383.532 636.808 382.361 617.655 382.468 601.404C382.576 584.91 384.012 572.446 386.919 564.435L368.12 557.611ZM363.772 521.932C368.381 525.632 374.641 539.646 368.12 557.611L386.919 564.435C395.587 540.558 389.192 516.69 376.29 506.335L363.772 521.932ZM361.264 501.548C361.56 502.071 362.698 504.542 360.549 510.956L379.513 517.31C382.833 507.402 382.607 498.658 378.672 491.701L361.264 501.548ZM387.029 439.896C384.618 442.307 382.299 446.248 380.429 449.672C378.335 453.507 376.025 458.193 373.713 463.126C369.078 473.013 364.223 484.339 360.726 492.807L379.211 500.442C382.642 492.136 387.366 481.12 391.822 471.615C394.054 466.853 396.168 462.581 397.982 459.259C398.89 457.596 399.672 456.267 400.312 455.278C401.026 454.176 401.306 453.904 401.171 454.039L387.029 439.896ZM421.883 494.059C418.747 486.344 414.499 475.636 410.874 465.937C407.082 455.789 404.433 447.93 403.942 445.198L384.258 448.737C385.142 453.653 388.595 463.454 392.14 472.939C395.852 482.872 400.176 493.768 403.355 501.589L421.883 494.059ZM407.49 515.555C410.621 512.702 414.489 509.182 418.917 505.591L406.32 490.056C401.392 494.052 397.137 497.931 394.02 500.771L407.49 515.555ZM403.908 518.781C404.962 517.859 406.198 516.733 407.49 515.555L394.02 500.771C392.677 501.995 391.61 502.966 390.743 503.725L403.908 518.781ZM409.109 531.569C407.537 528.259 406.297 525.642 405.347 523.38C404.386 521.089 403.939 519.655 403.767 518.739C403.61 517.902 403.794 518.074 403.583 518.684C403.345 519.371 402.998 519.509 403.461 519.149L391.19 503.356C388.389 505.532 385.982 508.391 384.684 512.138C383.413 515.807 383.537 519.379 384.112 522.437C385.143 527.918 388.218 534.201 391.044 540.15L409.109 531.569ZM414.308 542.814C412.428 538.555 410.644 534.8 409.109 531.569L391.044 540.15C392.585 543.395 394.258 546.917 396.011 550.89L414.308 542.814ZM412.883 613.557C415.738 607.364 419.928 598.379 421.377 586.543C422.843 574.567 421.457 560.307 414.417 543.071L395.902 550.633C401.763 564.982 402.542 575.811 401.525 584.113C400.492 592.556 397.553 599.039 394.72 605.185L412.883 613.557ZM412.874 613.578L412.883 613.557L394.72 605.186L394.71 605.207L412.874 613.578ZM412.861 613.606L412.875 613.576L394.709 605.209L394.695 605.239L412.861 613.606ZM412.293 614.841C412.475 614.443 412.662 614.036 412.86 613.608L394.696 605.237C394.501 605.66 394.303 606.09 394.109 606.514L412.293 614.841ZM385.715 660.349C391.271 652.014 406.291 627.946 412.293 614.841L394.109 606.514C388.82 618.063 374.577 641 369.074 649.255L385.715 660.349ZM106.239 627.28L106.242 627.302L126.049 624.536L126.046 624.514L106.239 627.28ZM63.7549 678.402L122.205 633.85L110.08 617.944L51.6309 662.495L63.7549 678.402ZM65.767 664.549L65.766 664.547L49.6198 676.35L49.6208 676.351L65.767 664.549ZM110.085 617.964L51.6338 662.495L63.754 678.404L122.206 633.874L110.085 617.964Z" fill="white" mask="url(#path-1-outside-1)"/>
<rect x="228.891" y="267.703" width="95.3925" height="58.5258" fill="#BA87A0"/>
<path d="M23.707 642.592L85.8043 722.546V708.145L23.707 624.85V642.592Z" fill="#817F7F"/>
<path d="M13.8019 685.91C15.6452 674.297 12.0353 662.484 10 658.029L23.7098 642.591L85.8071 722.546L59.3092 744.781C47.4427 729.727 21.7282 696.877 13.8019 685.91Z" fill="#5C5C5C"/>
<path d="M138.578 608.834L51.0195 675.54L68.1856 697.66L151.136 628.995L138.578 608.834Z" fill="#A77676"/>
<path d="M51.0195 663.097V675.54L138.232 609.065L135.928 603.189L51.0195 663.097Z" fill="#B67F7F"/>
<path d="M212.192 883.491C211.639 862.385 220.487 855.726 224.98 855.034C255.088 856.11 315.303 860.081 315.303 867.362C315.303 876.463 323.714 914.828 330.511 928.537C307.008 957.57 260.003 956.418 247.676 953.192C237.814 950.611 215.84 939.521 206.086 934.298C208.352 926.156 212.745 904.597 212.192 883.491Z" fill="#805A6D"/>
<path d="M335.004 880.035L332.469 865.173L364.613 720.932C370.027 711.639 384.613 696.715 399.636 711.37C418.415 729.688 420.258 757.914 420.258 769.319C420.258 780.725 426.019 781.071 420.258 794.204C414.498 807.338 420.258 812.407 426.019 824.504C431.779 836.601 432.125 846.739 429.936 852.615C427.747 858.491 433.161 861.025 437.885 863.214C441.664 864.965 444.529 871.01 445.489 873.813C452.324 892.055 466.572 929.92 468.876 935.45C471.756 942.362 465.42 961.833 461.272 968.515C457.125 975.197 427.516 992.248 402.055 994.897C376.594 997.547 338.23 969.321 335.004 966.095C331.778 962.869 335.004 947.547 338.23 935.45C340.811 925.772 339.305 915.519 338.23 911.602L335.004 892.132C337.116 890.327 340.718 886.371 338.23 884.989C335.741 883.606 335.042 881.11 335.004 880.035Z" fill="#805A6D"/>
<path d="M324.63 309.177L326.127 348.809H319.791L340.759 492.819L368.178 500.999C374.553 485.254 388.663 452.404 394.1 446.967C395.575 455.169 407.925 486.406 413.916 500.999C441.912 476.921 479.585 487.174 491.336 489.594C501.244 451.229 470.368 365.053 453.087 320.583C435.806 276.113 422.442 274.5 403.778 268.278C388.847 263.301 371.289 250.844 364.377 245.237L357.695 257.91L344.561 278.532L324.63 309.177Z" fill="#664857"/>
<path d="M315.645 283.255C312.695 287.034 303.049 295.275 298.594 298.924L282.234 327.611L288.34 335.445L309.654 336.597L328.663 283.255C325.553 281.681 318.594 279.477 315.645 283.255Z" fill="#664857"/>
<path d="M265.884 312.405H254.593L252.059 336.138L280.285 333.834C291.268 320.969 311.621 295.285 305.17 295.469C298.718 295.654 286.967 294.164 281.898 293.396C280.4 295.584 276.621 301.276 273.487 306.529C270.354 311.783 267.112 312.635 265.884 312.405Z" fill="#A5778D"/>
<path d="M243.642 296.273L238.918 271.964L233.734 267.817L222.904 279.568L214.148 333.37C229.433 332.526 260.001 329.707 260.001 325.191C256.891 296.849 251.822 298.578 248.25 299.499C245.393 300.237 243.987 297.656 243.642 296.273Z" fill="#5C414E"/>
<path d="M182.115 281.297C196.678 266.735 219.366 258.793 228.89 256.643L222.669 271.735L205.963 345.123L193.29 387.174L189.373 450.653L198.014 503.995L189.373 541.437C183.306 574.963 171.009 642.798 170.364 645.931C169.558 649.848 165.525 650.194 159.765 648.005C162.184 648.927 161.378 661.83 155.963 656.876C150.548 651.922 144.788 635.793 143.405 630.148C142.944 640.977 154.12 655.033 154.811 657.913C156.193 665.286 149.511 670.701 146.977 670.125C144.442 669.549 127.391 667.36 118.751 637.867C110.11 608.373 120.248 589.94 127.391 557.451C134.534 524.963 137.645 484.985 134.649 455.838C131.654 426.69 137.299 390.169 145.594 368.625C153.889 347.081 163.912 299.5 182.115 281.297Z" fill="#6C4B5B"/>
<path fill-rule="evenodd" clip-rule="evenodd" d="M134.329 452.176C132.134 423.688 137.651 389.275 145.602 368.624C147.818 362.869 150.157 355.256 152.742 346.841C159.836 323.755 168.783 294.636 182.123 281.296C196.685 266.734 219.373 258.792 228.897 256.642L222.676 271.734L205.971 345.122L193.298 387.173L189.381 450.652L191.451 463.43C164.721 462.232 146.087 457.26 134.329 452.176Z" fill="#815A6D"/>
<path d="M200.434 325.769C203.844 297.013 218.982 267.089 226.125 255.722C235.265 253.457 250.088 253.026 236.263 269.432C222.438 285.838 217.677 334.256 217.024 356.414C214.904 357.428 205.08 362.981 200.434 365.631C199.013 364.325 197.024 354.525 200.434 325.769Z" fill="#A5778D"/>
<path d="M299.984 362.518C304.408 330.904 319.647 294.276 326.713 279.913C329.401 274.921 338.602 267.171 353.902 276.111C338.51 290.121 326.521 343.393 322.45 368.278C319.416 367.664 310.676 365.651 299.984 362.518Z" fill="#B7859D"/>
<path d="M217.726 143.853C215.053 117.586 218.84 84.598 221.067 71.3874C223.992 47.5393 239.27 34.5208 267.842 19.5437C296.413 4.56662 332.358 10.6727 347.335 14.8202C362.312 18.9677 389.847 30.2581 393.073 55.9495C395.654 76.5027 391.998 90.704 389.847 95.2355C389.079 98.5382 387.151 106.918 385.585 114.014C383.626 122.886 374.409 204.223 373.948 218.739C373.488 233.255 369.686 266.435 352.865 278.071C336.045 289.707 285.123 286.942 252.404 280.49C219.685 274.039 221.067 250.536 221.067 234.177C221.067 217.817 221.067 176.688 217.726 143.853Z" fill="#FFC9BA"/>
<path fill-rule="evenodd" clip-rule="evenodd" d="M220.225 76.8048C225.651 81.6733 232.885 85.6993 241.921 86.3637C261.158 87.7782 270.747 80.0076 277.637 74.4238C279.165 73.1858 280.56 72.0553 281.898 71.1562C289.271 66.2023 300.677 61.2483 311.046 61.2483C321.414 61.2483 312.313 70.8106 307.359 75.3037C302.405 79.7969 311.506 85.2117 327.981 73.23C343.434 61.9913 348.447 62.8149 353.383 63.6257C353.709 63.6794 354.035 63.7329 354.364 63.7829C359.664 64.5894 361.046 67.124 356.438 75.3037C351.829 83.4835 356.783 111.825 369.571 116.433C375.771 118.667 381.354 117.065 385.457 114.601C385.499 114.38 385.539 114.184 385.577 114.014C387.143 106.918 389.071 98.5382 389.839 95.2355C391.99 90.704 395.646 76.5027 393.065 55.9495C389.839 30.2581 362.305 18.9677 347.327 14.8202C332.35 10.6727 296.405 4.56662 267.834 19.5437C239.262 34.5208 223.985 47.5393 221.059 71.3874C220.798 72.9358 220.516 74.7558 220.225 76.8048Z" fill="#DC7D7D"/>
<path d="M207.83 121.283C199.374 117.105 205.412 112.049 209.283 109.376C216.246 104.568 263.845 107.213 262.934 114.678C262.157 121.039 255.143 127.058 249.171 123.74C243.199 120.421 231.066 120.091 226.704 120.997C222.343 121.903 218.399 126.505 207.83 121.283Z" fill="#DC7D7D"/>
<path d="M291.569 126.803C284.656 126.711 294.449 121.926 300.21 119.545C322.214 110.559 348.251 119.545 354.127 121.043C360.003 122.54 365.302 127.955 363.689 133.14C362.076 138.324 350.44 134.868 345.947 133.14C341.454 131.412 324.749 122.771 315.071 121.964C305.394 121.158 300.21 126.918 291.569 126.803Z" fill="#DC7D7D"/>
<path d="M251.661 203.85C236.541 205.703 259.861 131.955 263.226 135.328C264.915 137.022 267.944 133.015 268.359 152.25C268.772 171.321 268.437 190.333 267.113 192.07C264.455 195.561 257.642 202.803 251.661 203.85Z" fill="#F0BBAC"/>
<path fill-rule="evenodd" clip-rule="evenodd" d="M216.912 131.167C217.045 135.492 217.305 139.755 217.722 143.854C217.874 145.35 218.02 146.863 218.158 148.391C230.492 148.101 248.856 142.368 250.556 132.91C235.987 126.867 224.161 128.364 216.912 131.167Z" fill="#FFF3F1"/>
<path d="M297.906 138.783C305.203 136.441 324.059 134.221 341.109 144.083C334.773 156.525 313.114 156.871 297.906 138.783Z" fill="#FFF3F1"/>
<path fill-rule="evenodd" clip-rule="evenodd" d="M217.741 143.857C217.324 139.758 217.065 135.495 216.932 131.17C219.02 130.363 221.489 129.663 224.294 129.222C227.658 130.28 228.913 133.167 228.913 137.795C228.913 142.377 227.682 146.292 224.391 147.855C222.437 148.136 220.533 148.312 218.745 148.377C218.55 148.338 218.356 148.295 218.164 148.246C218.03 146.769 217.889 145.305 217.741 143.857Z" fill="black"/>
<path fill-rule="evenodd" clip-rule="evenodd" d="M321.617 152.807C323.539 150.848 324.298 147.66 324.298 144.059C324.298 141.291 323.85 139.146 322.769 137.642C317.835 136.824 313.162 136.693 309.099 136.937C306.834 138.44 305.404 140.825 305.404 144.059C305.404 144.761 305.472 145.446 305.6 146.111C310.871 150.009 316.437 152.175 321.617 152.807Z" fill="black"/>
<path d="M221.758 327.267C194.845 334.916 180.667 381.069 176.942 403.189C172.103 431.415 180.168 498.812 188.923 516.323C171.757 552.268 165.536 643.168 174.292 685.334C183.048 727.5 185.928 786.832 182.702 804.344C180.122 818.353 183.777 824.928 185.928 826.464C198.255 837.063 225.053 859.874 233.624 866.326C244.339 874.391 303.671 883.838 325.445 872.202C342.865 862.893 371.029 853.73 382.934 850.312C395.837 767.477 359.662 610.218 377.519 561.024C385.114 540.103 378.787 521.162 370.031 514.134C376.022 496.254 365.615 490.632 359.662 490.056C360.776 467.629 358.763 412.06 341.805 369.202C320.606 315.63 255.399 317.704 221.758 327.267Z" fill="#956A7F"/>
<path fill-rule="evenodd" clip-rule="evenodd" d="M370.424 514.464C357.961 526.338 336.288 539.432 302.625 544.662C254.542 552.132 206.926 536.119 185.206 525.385C181.124 536.897 177.824 551.681 175.379 567.839C187.443 572.915 201.744 577.435 218.639 581.068C286.446 595.648 343.042 579.818 376.877 562.884C377.08 562.247 377.291 561.627 377.511 561.022C384.988 540.422 378.969 521.742 370.424 514.464Z" fill="#A0758A"/>
<path d="M251.599 541.236L251.617 541.235C255.992 541.082 262.713 540.899 268.648 540.846C271.619 540.819 274.361 540.825 276.502 540.882C277.575 540.91 278.46 540.951 279.129 541.002C279.319 541.016 279.474 541.031 279.599 541.043C279.606 541.088 279.613 541.139 279.62 541.194C279.743 542.238 279.571 543.775 279.221 545.759C278.837 547.934 278.048 555.198 277.486 562.553C277.203 566.266 276.971 570.083 276.877 573.38C276.786 576.559 276.808 579.603 277.142 581.571C277.593 584.223 277.541 587.205 276.879 589.331C276.554 590.371 276.16 590.961 275.848 591.258C275.614 591.481 275.34 591.639 274.791 591.649C272.833 591.685 269.028 591.59 264.57 591.479C262.174 591.419 259.589 591.355 257 591.303C253.362 591.231 249.757 591.187 246.814 591.227C245.345 591.248 244 591.29 242.877 591.364C241.856 591.432 240.7 591.543 239.795 591.798C237.897 592.332 236.289 592.568 235.251 592.211C234.903 592.091 234.588 591.894 234.279 591.398C233.923 590.825 233.472 589.669 233.351 587.479C233.313 586.776 233.268 586.016 233.221 585.21C232.912 579.899 232.482 572.54 232.75 565.441C232.904 561.359 233.285 557.509 234.006 554.292C234.748 550.982 235.749 548.813 236.808 547.65C240.02 544.122 242.358 542.72 244.299 542.059C246.249 541.395 248.106 541.34 251.027 541.253C251.213 541.247 251.404 541.242 251.599 541.236Z" stroke="#5C414E" stroke-width="8" stroke-linejoin="round"/>
<path d="M256.893 562.292C260.303 561.831 273.06 562.868 279.013 563.444L277.976 570.702C271.87 571.125 258.529 571.532 254.013 569.781C248.367 567.592 252.63 562.868 256.893 562.292Z" fill="#4D3641"/>
<path d="M446.758 486.369C426.298 489.595 405.284 504.303 397.334 511.254C389.179 517.59 396.067 526.231 405.168 546.853C418.532 579.572 408.855 598.351 403.21 610.678C397.565 623.006 382.933 646.508 377.403 654.803C371.873 663.098 367.495 679.458 373.832 683.72C380.168 687.983 393.417 670.932 398.256 663.674C399.638 683.26 386.735 694.896 383.624 698.006C380.514 701.117 361.504 699.504 368.762 715.979C376.021 732.454 399.062 715.288 404.938 710.103C413.924 721.854 426.597 706.532 428.44 703.536C435.468 711.37 439.385 697.085 446.758 690.057C473.141 664.25 465.192 619.78 460.583 601.692C482.335 575.425 494.608 517.398 498.026 491.668C489.462 488.558 467.219 483.143 446.758 486.369Z" fill="#553D48"/>
<path d="M10 658.03L23.7098 642.592V624.85L10 640.633V658.03Z" fill="#717070"/>
<path fill-rule="evenodd" clip-rule="evenodd" d="M379.688 155.476C376.735 181.158 373.698 210.527 373.439 218.702C372.978 233.218 369.176 266.398 352.355 278.034C335.535 289.67 284.613 286.905 251.894 280.454C220.431 274.25 220.501 252.279 220.553 236.055C220.555 235.407 220.557 234.768 220.557 234.14C220.557 227.85 220.557 217.898 220.367 206.164C227.893 206.531 238.203 208.725 251.66 214.436C286.918 229.401 358.209 214.468 379.688 155.476Z" fill="#DC7D7D" fill-opacity="0.5"/>
<path fill-rule="evenodd" clip-rule="evenodd" d="M306.521 247.168C307.202 248.298 304.714 249.522 301.895 250.597C299.045 251.685 295.537 252.893 290.568 253.256C285.73 253.609 282.203 252.562 277.592 252.369C273.215 252.187 267.689 252.798 264.392 252.163C260.995 251.509 261.137 250.236 260.757 249.13C260.347 247.938 259.045 246.638 262.116 245.541C265.175 244.448 270.943 243.981 276.049 243.666C280.346 243.4 284.248 243.716 288.263 243.926C291.951 244.119 295.51 244.319 298.42 244.836C301.905 245.455 305.868 246.087 306.521 247.168Z" fill="#FFC9BA"/>
</svg>
