<svg width="60" height="60" viewBox="0 0 60 60" fill="none" xmlns="http://www.w3.org/2000/svg">
<g clip-path="url(#clip0)">
<path d="M30.6734 57.4964C27.185 53.312 19.1069 48.3001 15.5039 46.3171L19.7601 57.8084L26.1842 71.1536L29.9445 74.8241C31.641 70.7917 34.1619 61.6808 30.6734 57.4964Z" fill="#0B6AC2"/>
<path d="M27.6705 53.1453C27.1129 58.5645 29.1689 67.8461 30.2666 71.8095L35.5169 60.737L40.5795 46.8182V41.5635C36.5089 43.1661 28.2282 47.7262 27.6705 53.1453Z" fill="#117CDF"/>
<path d="M3.06764 54.1374C3.85919 52.4746 6.63973 50.4568 7.93105 49.6558C17.6684 59.0327 36.499 78.0736 33.9234 79.2212C30.7038 80.6558 3.5388 81.2369 2.53366 77.7238C1.52851 74.2107 2.0782 56.216 3.06764 54.1374Z" fill="#117CDF"/>
<path d="M6.14214 50.12C7.10015 48.9975 12.1654 45.8334 14.5783 44.3916C15.8145 47.6058 18.9027 54.2925 21.3657 55.3256C24.4443 56.6169 29.4712 70.6742 30.0744 71.2462C30.0065 72.2149 30.3529 74.0627 30.5347 74.8655C30.4736 74.9638 30.0494 75.2435 28.8412 75.576C26.7053 75.7323 19.833 70.8887 15.4094 68.1809C10.9858 65.4731 7.2905 60.0084 6.14214 57.877C5.22346 56.1719 5.75936 55.4656 6.14214 55.3256L8.59078 53.2433C8.24374 52.862 7.26816 51.7035 6.14214 50.12Z" fill="#0B6AC2"/>
<path d="M25.7222 13.4576C25.2218 14.5693 24.1464 16.9414 23.6713 17.9885L34.0556 20.4684C36.546 20.3135 41.9502 19.9179 43.6446 19.5747C42.818 18.3191 43.1844 14.9455 43.6446 12.8633C44.1049 10.7811 43.0816 10.7453 41.5266 10.017C38.4167 8.62735 31.111 7.53709 28.9617 8.1984C26.8125 8.85971 26.3478 12.068 25.7222 13.4576Z" fill="#117CDF"/>
<path d="M19.2968 17.0901C16.7731 17.1616 17.2771 19.0859 17.8446 20.0392L29.909 22.3359C34.212 25.2701 43.7554 30.26 47.5052 26.7461C52.1925 22.3538 48.4748 20.4413 46.2362 19.5387C43.7072 18.519 36.893 19.0472 33.3764 19.3377C29.888 19.6258 26.0742 18.2254 25.5379 18.0285L25.5256 18.024C25.0385 17.8452 22.4514 17.0007 19.2968 17.0901Z" fill="#0B6AC2"/>
<path d="M18.0502 18.7394C16.0484 19.1183 20.3975 22.9873 22.8223 24.8744C25.2978 28.6457 42.0897 28.1452 43.2961 29.441C44.608 29.223 46.5833 27.6105 47.407 26.8315C48.3841 26.0585 50.0513 24.172 48.9039 22.81C47.4695 21.1076 42.8404 20.3525 38.2738 21.1031C34.6205 21.7037 29.5874 20.8529 27.5275 20.3525C25.2024 19.6569 20.052 18.3605 18.0502 18.7394Z" fill="#117CDF"/>
<path fill-rule="evenodd" clip-rule="evenodd" d="M12.7532 45.5044C14.6087 49.5792 17.6218 55.1375 20.8296 58.0345C22.4527 59.4266 26.5855 69.5417 28.8897 75.5635C30.061 75.237 30.4746 74.9634 30.5349 74.8665C30.3532 74.0637 30.0067 72.2159 30.0747 71.2471C29.9094 71.0905 29.4124 69.9222 28.7144 68.2816C26.8639 63.9324 23.6014 56.2642 21.3659 55.3265C18.903 54.2935 15.8148 47.6068 14.5786 44.3926C14.0676 44.6979 13.4378 45.0804 12.7532 45.5044Z" fill="#1485EE"/>
<path d="M55.8342 48.1097C54.104 46.0149 46.8588 44.2669 43.4525 43.6548L40.8296 54.4636C37.532 58.4166 30.792 66.8864 30.2129 69.142C29.6338 71.3976 31.1095 76.5907 31.9198 78.9053L56.491 79.6247C56.993 69.9925 57.5643 50.2044 55.8342 48.1097Z" fill="#0B6AC2"/>
<path d="M32.1388 63.257C29.272 67.4465 30.0268 73.3077 30.7626 75.7146C32.0048 73.5788 38.2336 70.1248 39.6903 69.1775C40.3471 66.3356 46.8887 55.6832 47.4205 54.7314C47.8458 53.97 47.5977 53.5026 47.4205 53.3641L45.1148 50.3167C45.8268 49.6048 47.374 48.0629 47.8673 47.5911C47.3168 47.1013 44.3433 43.5353 42.9253 41.8135L41.1559 39.2666C40.7954 39.4185 40.0746 40.0414 40.0746 41.3176C39.7439 46.7734 35.7224 58.0201 32.1388 63.257Z" fill="#0E79DC"/>
<path fill-rule="evenodd" clip-rule="evenodd" d="M43.2016 42.1484C43.3118 44.9833 42.7385 49.2487 40.3873 54.7671C38.8378 58.4038 37.3698 60.8656 36.1689 62.8797C34.0615 66.4137 32.7764 68.5689 33.3156 73.2736C32.1504 74.1393 31.1779 75.0006 30.7626 75.7146C30.0268 73.3077 29.272 67.4465 32.1388 63.257C35.7224 58.0201 39.7439 46.7734 40.0746 41.3176C40.0746 40.0414 40.7954 39.4185 41.1559 39.2666L42.9253 41.8135C43.0119 41.9187 43.1043 42.0307 43.2016 42.1484Z" fill="#0960B0"/>
<path d="M43.714 27.8113C43.3924 26.4505 42.3053 26.8985 41.802 27.2926L40.2125 29.3534C40.1579 30.1946 40.2012 32.3405 40.8109 34.1948C41.1989 32.6526 44.1161 29.5123 43.714 27.8113Z" fill="#FFC9BA"/>
<path d="M22.6035 25.0493C22.8072 25.5748 22.6884 27.5739 22.6035 28.5078L21.7858 33.6062L24.3238 35.8448L29.0021 35.2103L33.0593 35.8448L35.6509 34.044L39.726 28.5391C40.0612 27.1107 40.6331 23.8831 39.4445 23.4318C37.983 22.8768 33.533 21.993 31.0486 22.0109C28.5642 22.0288 25.1549 21.4657 23.7965 21.6087C22.4381 21.7517 22.3488 24.3925 22.6035 25.0493Z" fill="#FFC9BA"/>
<path d="M40.5972 29.9956C41.035 27.5112 42.4694 27.1672 42.4694 26.6757C42.4909 24.7751 41.0562 23.9796 39.3639 23.4023C39.0958 23.7221 39.0497 24.7047 39.0466 25.5541C39.0435 26.425 39.4711 27.1931 39.3639 27.7615C39.2298 28.4719 37.8849 30.639 36.8795 31.1127C36.0752 31.4916 35.0847 32.4919 34.69 32.9447C34.3624 33.3975 33.6159 34.3469 33.2512 34.522C32.5077 34.7794 30.6835 34.236 29.8643 33.9322C28.4642 34.6605 25.345 35.7544 24.0689 34.3031C22.4737 32.4889 22.6122 28.7266 22.6122 28.1368C20.2663 29.6918 20.8964 31.2467 20.3825 34.2003C19.8687 37.1538 16.3789 39.4237 15.1859 40.9564C11.9731 45.2728 15.445 48.9636 16.1242 49.5758C16.8034 50.1879 18.3405 51.6625 19.6765 53.767C21.0125 55.8716 23.1975 57.1451 27.6837 56.0637C32.1699 54.9824 33.85 51.9127 34.7437 49.5758C35.6373 47.2388 36.817 45.5632 38.0234 44.6115C39.2298 43.6597 40.2933 42.6052 41.2182 40.3129C41.9582 38.4791 41.2614 34.9197 40.8206 33.3692C40.6686 32.7392 40.4113 31.1824 40.5972 29.9956Z" fill="#543343"/>
<path d="M24.0467 33.816C25.0225 31.9715 26.3151 31.6772 26.8394 31.7606C27.0717 31.7382 27.649 31.7069 28.0994 31.7606C31.0262 32.0108 29.0422 35.2593 33.0012 36.2959C30.7357 37.5962 27.3443 35.7731 26.5847 35.5005C23.5775 38.2128 22.1878 36.2199 21.7231 35.5005C22.5185 35.4827 23.4479 34.9599 24.0467 33.816Z" fill="#603A4C"/>
<path d="M27.9878 23.9951C27.4561 27.9764 22.8134 36.434 28.6357 31.8405C28.305 30.4241 28.8422 26.0005 27.9878 23.9951Z" fill="#F0BBAC"/>
<path d="M30.8654 26.5238C31.5713 25.7642 33.3488 24.8187 34.8109 27.1136C34.2345 27.6006 32.1433 28.0653 30.8654 26.5238Z" fill="#FFF3F1"/>
<path d="M22.036 24.8307C22.1504 25.4027 22.745 25.3312 23.0279 25.2239C23.1665 25.1678 23.6008 24.9801 24.2299 24.6788C24.8591 24.3775 25.2561 24.427 25.9055 24.5269C26.3122 24.5894 26.5061 24.7181 27.3533 24.6788C28.4123 24.6296 28.2827 23.9615 28.1486 23.8745C27.8939 23.7092 27.389 23.4858 26.6249 22.9674C25.8609 22.4491 24.6053 22.7351 24.3908 22.9004C24.2192 23.0327 23.4107 23.4947 23.0279 23.7092C22.6496 23.8447 21.9216 24.2588 22.036 24.8307Z" fill="#543343"/>
<path d="M30.28 23.7C29.5401 23.7607 29.1865 24.2036 28.9619 24.8483C28.5218 26.1115 31.6116 25.4784 32.3712 25.179C33.1308 24.8796 34.3864 25.0092 35.1818 25.3175C35.9771 25.6258 37.0227 25.2639 36.2497 24.6428C35.4767 24.0217 33.7966 23.9234 32.5857 23.9368C31.3748 23.9502 31.205 23.624 30.28 23.7Z" fill="#543343"/>
<path d="M23.6221 25.4518C24.1821 24.9573 25.6426 24.3383 27.0046 25.8182C26.5354 26.2158 24.2655 27.6412 23.6221 25.4518Z" fill="#FFF3F1"/>
<mask id="mask0" mask-type="alpha" maskUnits="userSpaceOnUse" x="24" y="24" width="3" height="3">
<path d="M26.0811 25.9121C25.996 26.5442 25.3254 27.171 24.7611 26.8738C24.292 26.6268 24.2478 26.0531 24.4333 25.5564C24.6157 25.0682 25.015 24.6365 25.5169 24.7772C25.9935 24.9108 26.1472 25.4216 26.0811 25.9121Z" fill="#2C1E25"/>
</mask>
<g mask="url(#mask0)">
<path d="M23.6223 25.4513C24.1823 24.9568 25.6429 24.3378 27.0048 25.8177C26.5357 26.2154 24.2658 27.6407 23.6223 25.4513Z" fill="#2C1E25"/>
</g>
<mask id="mask1" mask-type="alpha" maskUnits="userSpaceOnUse" x="31" y="25" width="3" height="3">
<path d="M31.9815 26.6508C31.9635 26.0132 32.5243 25.2866 33.1291 25.4889C33.6319 25.657 33.7681 26.2161 33.665 26.7361C33.5638 27.2474 33.2393 27.7379 32.7213 27.6799C32.2294 27.6248 31.9954 27.1456 31.9815 26.6508Z" fill="#2C1E25"/>
</mask>
<g mask="url(#mask1)">
<path d="M30.8651 26.5238C31.5711 25.7642 33.3486 24.8187 34.8106 27.1136C34.2342 27.6006 32.143 28.0653 30.8651 26.5238Z" fill="#2C1E25"/>
</g>
<path d="M46.2362 19.5386L45.6753 20.9297L46.2362 19.5386ZM43.3897 19.0153L41.9596 19.4678L42.2664 20.4375L43.2809 20.5113L43.3897 19.0153ZM48.6573 25.516L47.4846 24.5807L47.457 24.6153L47.4316 24.6513L48.6573 25.516ZM47.4453 26.8009L46.5039 25.6331L46.4726 25.6584L46.4426 25.6852L47.4453 26.8009ZM47.3638 26.8721L46.3927 25.7289L46.3653 25.7522L46.3391 25.7767L47.3638 26.8721ZM43.4426 29.4116L43.1016 27.9509L42.3567 28.1248L42.0601 28.8298L43.4426 29.4116ZM42.0571 31.8648L43.3249 32.6665L42.0571 31.8648ZM40.9404 33.8172L39.5563 33.239L39.3637 33.7L39.486 34.1844L40.9404 33.8172ZM41.4148 39.6392L39.9447 39.3414L39.8175 39.969L40.1829 40.495L41.4148 39.6392ZM42.9254 41.8134L41.6935 42.6693L41.7285 42.7196L41.7675 42.767L42.9254 41.8134ZM44.645 43.8847L43.4945 44.8472L43.8306 45.2489L44.3438 45.3541L44.645 43.8847ZM55.8342 48.1094L54.6777 49.0646L55.8342 48.1094ZM56.4911 79.6244L56.4472 81.1238L57.9127 81.1667L57.989 79.7025L56.4911 79.6244ZM34.141 78.9701L34.1849 77.4707L33.02 77.4366L32.699 78.5569L34.141 78.9701ZM33.9234 79.2209L33.3129 77.8508L33.3129 77.8508L33.9234 79.2209ZM2.53366 77.7235L1.09152 78.1361H1.09152L2.53366 77.7235ZM3.06764 54.1371L4.42201 54.7818H4.42201L3.06764 54.1371ZM6.50805 50.6274L7.39929 51.8339L8.60036 50.9467L7.71859 49.7416L6.50805 50.6274ZM6.1421 50.1201L5.00117 49.1463L4.24178 50.036L4.91964 50.9893L6.1421 50.1201ZM13.8448 44.8338L14.6234 46.1158L15.3678 45.6638L15.3443 44.7932L13.8448 44.8338ZM15.1859 40.9565L14.0022 40.0351L13.9923 40.0479L13.9826 40.0609L15.1859 40.9565ZM16.6741 39.439L17.7011 40.5322H17.7011L16.6741 39.439ZM20.3826 34.2004L21.8604 34.4575V34.4575L20.3826 34.2004ZM20.6215 32.1824L22.1161 32.3096L22.1215 32.2461V32.1824H20.6215ZM20.6215 32.1824L19.1269 32.0552L19.1215 32.1187V32.1824H20.6215ZM22.6122 28.1369H24.1122V25.343L21.7835 26.8866L22.6122 28.1369ZM22.6112 28.27L21.1113 28.2544L21.1113 28.2555L22.6112 28.27ZM22.6112 28.2706L24.1111 28.2862L24.1111 28.2852L22.6112 28.2706ZM22.6097 28.437L21.1098 28.4273L24.104 28.5681L22.6097 28.437ZM22.6633 25.2967L24.1453 25.0648L23.9402 23.7545L22.6147 23.7975L22.6633 25.2967ZM22.0359 24.8304L23.5068 24.5363V24.5363L22.0359 24.8304ZM22.1449 24.3353L23.3983 25.1592L24.1431 24.0262L23.0908 23.1711L22.1449 24.3353ZM17.573 19.4769L19.0196 19.0802L19.0005 19.0104L18.9747 18.9429L17.573 19.4769ZM19.2967 17.0899L19.2542 15.5905H19.2542L19.2967 17.0899ZM23.8683 17.5543L23.5355 19.017L24.7288 19.2884L25.2343 18.1739L23.8683 17.5543ZM25.7223 13.4576L24.3545 12.8419L24.3545 12.8419L25.7223 13.4576ZM26.1517 12.2606L27.5781 12.7247V12.7247L26.1517 12.2606ZM28.9618 8.1984L28.5207 6.76473L28.9618 8.1984ZM41.5267 10.017L42.1629 8.65862L42.1508 8.65295L42.1386 8.6475L41.5267 10.017ZM42.182 10.305L41.5968 11.6861L41.5968 11.6861L42.182 10.305ZM43.6447 12.8633L42.18 12.5396V12.5396L43.6447 12.8633ZM46.7971 18.1474C45.8873 17.7806 44.6956 17.6063 43.4985 17.5192L43.2809 20.5113C44.4091 20.5934 45.2154 20.7444 45.6753 20.9297L46.7971 18.1474ZM49.83 26.4513C50.6465 25.4275 51.1449 24.3944 51.2438 23.3483C51.3463 22.2643 51.0031 21.3426 50.4643 20.6155C49.4775 19.2838 47.7806 18.544 46.7971 18.1474L45.6753 20.9297C46.7093 21.3467 47.6307 21.8304 48.0539 22.4016C48.2201 22.6258 48.2799 22.8253 48.2571 23.0659C48.2308 23.3445 48.0758 23.8394 47.4846 24.5807L49.83 26.4513ZM48.3867 27.9687C48.848 27.5969 49.4175 27.0405 49.883 26.3807L47.4316 24.6513C47.1563 25.0416 46.7925 25.4004 46.5039 25.6331L48.3867 27.9687ZM48.335 28.0152C48.373 27.983 48.4106 27.9501 48.4479 27.9166L46.4426 25.6852C46.4262 25.7 46.4095 25.7146 46.3927 25.7289L48.335 28.0152ZM43.7837 30.8723C44.7214 30.6534 45.6946 30.0653 46.4388 29.5448C47.2232 28.9962 47.9371 28.3899 48.3886 27.9675L46.3391 25.7767C45.9744 26.1178 45.3702 26.6312 44.7194 27.0865C44.0283 27.5698 43.449 27.8698 43.1016 27.9509L43.7837 30.8723ZM43.3249 32.6665C43.8174 31.8876 44.4374 30.915 44.8252 29.9934L42.0601 28.8298C41.7883 29.4755 41.3201 30.2238 40.7893 31.0631L43.3249 32.6665ZM42.3245 34.3954C42.4938 33.9901 42.8413 33.4314 43.3249 32.6665L40.7893 31.0631C40.3598 31.7424 39.8458 32.5461 39.5563 33.239L42.3245 34.3954ZM42.885 39.937C43.1067 38.8425 43.0646 37.5825 42.9429 36.474C42.8187 35.3427 42.5976 34.2535 42.3948 33.45L39.486 34.1844C39.6618 34.8807 39.8544 35.8321 39.9608 36.8015C40.0698 37.7938 40.0757 38.6948 39.9447 39.3414L42.885 39.937ZM44.1573 40.9576L42.6467 38.7833L40.1829 40.495L41.6935 42.6693L44.1573 40.9576ZM45.7955 42.9222C45.1522 42.1533 44.5373 41.4112 44.0833 40.8599L41.7675 42.767C42.2261 43.3238 42.846 44.0719 43.4945 44.8472L45.7955 42.9222ZM56.9908 47.1542C56.4047 46.4447 55.5193 45.8807 54.6311 45.4281C53.7095 44.9586 52.6307 44.5333 51.5205 44.1565C49.2978 43.4021 46.8224 42.7998 44.9462 42.4152L44.3438 45.3541C46.1458 45.7234 48.491 46.2964 50.5563 46.9973C51.5901 47.3482 52.5222 47.7206 53.2691 48.1011C54.0492 48.4986 54.4897 48.837 54.6777 49.0646L56.9908 47.1542ZM57.989 79.7025C58.2409 74.8699 58.5104 67.4863 58.4997 61.0379C58.4943 57.8175 58.4191 54.8019 58.2327 52.4446C58.1397 51.2692 58.0166 50.2225 57.8518 49.3815C57.7695 48.9613 57.6712 48.5634 57.5499 48.2125C57.4363 47.884 57.2664 47.4879 56.9908 47.1542L54.6777 49.0646C54.6183 48.9928 54.6467 48.9967 54.7146 49.193C54.7747 49.3667 54.8411 49.6181 54.9078 49.9583C55.0409 50.638 55.1531 51.5563 55.242 52.6811C55.4194 54.9242 55.4944 57.8504 55.4997 61.0429C55.5103 67.4202 55.2432 74.7468 54.9931 79.5464L57.989 79.7025ZM34.0971 80.4694L56.4472 81.1238L56.535 78.1251L34.1849 77.4707L34.0971 80.4694ZM34.5339 80.5911C35.0582 80.3575 35.4296 79.9186 35.583 79.3832L32.699 78.5569C32.7355 78.4295 32.8054 78.2803 32.9264 78.1402C33.0477 77.9996 33.1871 77.9068 33.3129 77.8508L34.5339 80.5911ZM1.09152 78.1361C1.27948 78.7931 1.72484 79.2458 2.1251 79.5415C2.53315 79.843 3.01833 80.0743 3.51149 80.2595C4.5002 80.6309 5.77514 80.9096 7.1837 81.1242C10.0191 81.5561 13.6864 81.7697 17.3746 81.8274C21.0723 81.8853 24.8425 81.7871 27.9017 81.5828C29.4301 81.4808 30.7975 81.3512 31.8979 81.1983C32.935 81.0541 33.9121 80.8681 34.5339 80.5911L33.3129 77.8508C33.1297 77.9324 32.5537 78.0783 31.485 78.2268C30.4797 78.3665 29.1887 78.4902 27.7019 78.5895C24.7308 78.7879 21.0432 78.8844 17.4216 78.8278C13.7904 78.771 10.2768 78.5608 7.63547 78.1584C6.30566 77.9558 5.26828 77.7148 4.56644 77.4511C4.21432 77.3189 4.00967 77.2039 3.9078 77.1286C3.79813 77.0476 3.91347 77.0931 3.97579 77.3109L1.09152 78.1361ZM1.71326 53.4924C1.48184 53.9786 1.34139 54.6981 1.23696 55.3744C1.12203 56.1186 1.01991 57.0426 0.930954 58.0768C0.752734 60.1488 0.621453 62.734 0.553189 65.3533C0.484915 67.973 0.479135 70.6476 0.554752 72.8987C0.628059 75.081 0.781004 77.0508 1.09152 78.1361L3.97579 77.3109C3.78374 76.6397 3.62846 75.0427 3.55306 72.798C3.47997 70.6221 3.48499 68.0094 3.55217 65.4314C3.61936 62.8531 3.7482 60.3303 3.91992 58.3339C4.00593 57.3339 4.10123 56.4836 4.20182 55.8322C4.25218 55.5061 4.30146 55.2457 4.3476 55.0498C4.39825 54.8347 4.42951 54.7661 4.42201 54.7818L1.71326 53.4924ZM5.61681 49.4209C4.92162 49.9344 4.1451 50.5614 3.45671 51.2314C2.79025 51.8801 2.10861 52.6619 1.71326 53.4924L4.42201 54.7818C4.58744 54.4343 4.96572 53.9491 5.54912 53.3812C6.1106 52.8348 6.7739 52.2959 7.39929 51.8339L5.61681 49.4209ZM4.91964 50.9893C5.04772 51.1695 5.17389 51.3442 5.29751 51.5132L7.71859 49.7416C7.60274 49.5833 7.48453 49.4196 7.36457 49.2509L4.91964 50.9893ZM13.0662 43.5517C11.7642 44.3424 10.0361 45.4215 8.51769 46.4359C7.75948 46.9424 7.04097 47.4412 6.44923 47.885C5.89327 48.3019 5.33921 48.7503 5.00117 49.1463L7.28304 51.0939C7.37963 50.9807 7.6829 50.7097 8.24915 50.285C8.77963 49.8872 9.44822 49.4221 10.1842 48.9304C11.6542 47.9484 13.3428 46.8936 14.6234 46.1158L13.0662 43.5517ZM13.9826 40.0609C12.7607 41.7025 12.3041 43.349 12.3454 44.8743L15.3443 44.7932C15.322 43.97 15.5514 42.9777 16.3892 41.8521L13.9826 40.0609ZM15.647 38.3458C15.0769 38.8814 14.4363 39.4775 14.0022 40.0351L16.3696 41.8779C16.6273 41.5468 17.0644 41.1305 17.7011 40.5322L15.647 38.3458ZM18.9048 33.9433C18.783 34.6433 18.3919 35.3739 17.7729 36.1503C17.1544 36.9262 16.3985 37.6397 15.647 38.3458L17.7011 40.5322C18.4277 39.8496 19.3437 38.9925 20.1186 38.0205C20.8931 37.0492 21.6173 35.8548 21.8604 34.4575L18.9048 33.9433ZM19.1269 32.0552C19.076 32.654 19.0238 33.2589 18.9048 33.9433L21.8604 34.4575C22.0046 33.6287 22.0655 32.9039 22.1161 32.3096L19.1269 32.0552ZM19.1215 32.1824V32.1824H22.1215V32.1824H19.1215ZM21.7835 26.8866C20.7078 27.5996 20.0209 28.4011 19.6259 29.3848C19.2652 30.2829 19.1959 31.2449 19.1269 32.0552L22.1161 32.3095C22.1946 31.3876 22.2482 30.9051 22.4098 30.5028C22.537 30.1859 22.7717 29.8308 23.441 29.3872L21.7835 26.8866ZM24.1111 28.2856C24.1117 28.2344 24.1122 28.1806 24.1122 28.1369H21.1122C21.1122 28.1614 21.1119 28.197 21.1113 28.2544L24.1111 28.2856ZM24.1111 28.2852L24.1111 28.2846L21.1113 28.2555L21.1113 28.2561L24.1111 28.2852ZM24.1097 28.4468C24.1101 28.3875 24.1106 28.3345 24.1111 28.2862L21.1113 28.2551C21.1108 28.3031 21.1102 28.3615 21.1098 28.4273L24.1097 28.4468ZM21.1813 25.5286C21.2137 25.7354 21.2255 26.1829 21.2072 26.7746C21.19 27.3303 21.1505 27.9065 21.1155 28.306L24.104 28.5681C24.1429 28.1248 24.1865 27.491 24.2058 26.8673C24.2239 26.2796 24.2256 25.5784 24.1453 25.0648L21.1813 25.5286ZM20.565 25.1246C20.6765 25.682 20.9891 26.1758 21.4902 26.485C21.9404 26.7629 22.4033 26.8059 22.7119 26.7959L22.6147 23.7975C22.6567 23.7961 22.8438 23.795 23.0658 23.9321C23.1842 24.0052 23.2924 24.1062 23.3752 24.23C23.4564 24.3515 23.4921 24.463 23.5068 24.5363L20.565 25.1246ZM20.8914 23.5114C20.6318 23.9064 20.4341 24.4698 20.565 25.1246L23.5068 24.5363C23.5327 24.6657 23.5282 24.798 23.4995 24.9182C23.4721 25.0329 23.4283 25.1137 23.3983 25.1592L20.8914 23.5114ZM16.1264 19.8736C16.2844 20.4498 16.6411 20.9919 16.9682 21.421C17.3204 21.8829 17.7569 22.3636 18.218 22.8301C19.1421 23.7652 20.2509 24.7291 21.199 25.4995L23.0908 23.1711C22.1916 22.4406 21.1726 21.5519 20.3517 20.7213C19.9402 20.305 19.5999 19.9246 19.3538 19.6019C19.2314 19.4414 19.1437 19.3099 19.0851 19.2079C19.0231 19.1 19.0142 19.0605 19.0196 19.0802L16.1264 19.8736ZM19.2542 15.5905C17.9126 15.6285 16.7029 16.1118 16.1494 17.297C15.6728 18.3172 15.9326 19.3845 16.1713 20.0109L18.9747 18.9429C18.9173 18.7921 18.8903 18.6672 18.8841 18.5817C18.8778 18.4961 18.8956 18.5063 18.8675 18.5666C18.8525 18.5986 18.8307 18.6307 18.8052 18.6568C18.7802 18.6824 18.7655 18.688 18.7776 18.6818C18.8092 18.6656 18.9641 18.6 19.3392 18.5893L19.2542 15.5905ZM24.201 16.0917C22.9694 15.8115 21.2195 15.5349 19.2542 15.5905L19.3392 18.5893C20.985 18.5427 22.4743 18.7756 23.5355 19.017L24.201 16.0917ZM24.3545 12.8419C23.9156 13.8167 23.0326 15.7653 22.5022 16.9347L25.2343 18.1739C25.7643 17.0053 26.6492 15.0527 27.0901 14.0733L24.3545 12.8419ZM24.7253 11.7965C24.5667 12.2838 24.4578 12.6123 24.3545 12.8419L27.0901 14.0733C27.275 13.6625 27.4373 13.1574 27.5781 12.7247L24.7253 11.7965ZM28.5207 6.76473C27.1805 7.17708 26.3488 8.1754 25.8208 9.10135C25.2986 10.0173 24.9663 11.0556 24.7253 11.7965L27.5781 12.7247C27.8368 11.9296 28.0826 11.1912 28.427 10.5873C28.7656 9.9934 29.0891 9.72863 29.4029 9.63206L28.5207 6.76473ZM42.1386 8.6475C40.396 7.86884 37.632 7.22488 35.1012 6.85441C33.8178 6.66653 32.5466 6.54188 31.4392 6.50881C30.3817 6.47723 29.31 6.52185 28.5207 6.76473L29.4029 9.63206C29.6882 9.54429 30.3357 9.4772 31.3497 9.50747C32.3137 9.53626 33.4663 9.64704 34.6667 9.82277C37.1036 10.1795 39.5474 10.7755 40.9147 11.3865L42.1386 8.6475ZM42.7672 8.92385C42.5601 8.8361 42.3652 8.75339 42.1629 8.65862L40.8904 11.3754C41.1506 11.4972 41.3947 11.6005 41.5968 11.6861L42.7672 8.92385ZM45.1093 13.187C45.3364 12.1595 45.366 11.0901 44.6974 10.2028C44.3912 9.79644 44.0135 9.53565 43.6924 9.35591C43.3836 9.18307 43.039 9.03902 42.7672 8.92385L41.5968 11.6861C41.9106 11.8191 42.0906 11.8973 42.2271 11.9737C42.3512 12.0432 42.3394 12.0586 42.3015 12.0082C42.2489 11.9384 42.2487 11.8848 42.253 11.9288C42.2598 11.9999 42.2591 12.1815 42.18 12.5396L45.1093 13.187ZM44.8198 18.5627C44.6679 18.0826 44.6126 17.2322 44.6831 16.1531C44.7508 15.1181 44.922 14.0347 45.1093 13.187L42.18 12.5396C41.9643 13.5155 41.7684 14.7509 41.6895 15.9574C41.6135 17.1197 41.6323 18.4335 41.9596 19.4678L44.8198 18.5627Z" fill="white"/>
</g>
<defs>
<clipPath id="clip0">
<rect width="60" height="60" fill="white"/>
</clipPath>
</defs>
</svg>
