<svg width="60" height="60" fill="none" xmlns="http://www.w3.org/2000/svg"><g clip-path="url(#clip0)"><path d="M30.673 57.496c-3.488-4.184-11.566-9.196-15.17-11.179l4.257 11.491 6.424 13.346 3.76 3.67c1.697-4.032 4.218-13.143.73-17.328z" fill="#0B6AC2"/><path d="M27.67 53.145c-.557 5.42 1.499 14.701 2.597 18.664l5.25-11.072 5.063-13.919v-5.255c-4.071 1.603-12.352 6.163-12.91 11.582zM3.068 54.137c.791-1.662 3.572-3.68 4.863-4.481C17.668 59.033 36.5 78.074 33.923 79.22c-3.22 1.435-30.384 2.016-31.39-1.497-1.004-3.513-.455-21.508.535-23.587z" fill="#117CDF"/><path d="M6.142 50.12c.958-1.122 6.023-4.287 8.436-5.728 1.237 3.214 4.325 9.9 6.788 10.934 3.078 1.29 8.105 15.348 8.708 15.92-.068.969.279 2.817.46 3.62-.06.098-.485.377-1.693.71-2.136.156-9.008-4.687-13.432-7.395-4.423-2.708-8.119-8.173-9.267-10.304-.919-1.705-.383-2.411 0-2.551l2.449-2.083c-.347-.381-1.323-1.54-2.449-3.123z" fill="#0B6AC2"/><path d="M25.722 13.458c-.5 1.111-1.576 3.483-2.05 4.53l10.384 2.48c2.49-.154 7.894-.55 9.589-.893-.827-1.256-.46-4.63 0-6.712s-.563-2.118-2.118-2.846c-3.11-1.39-10.416-2.48-12.565-1.819-2.15.662-2.614 3.87-3.24 5.26z" fill="#117CDF"/><path d="M19.297 17.09c-2.524.072-2.02 1.996-1.452 2.95l12.064 2.296c4.303 2.934 13.846 7.924 17.596 4.41 4.688-4.392.97-6.305-1.269-7.207-2.529-1.02-9.343-.492-12.86-.201-3.488.288-7.302-1.113-7.838-1.31l-.012-.004c-.488-.179-3.075-1.023-6.23-.934z" fill="#0B6AC2"/><path d="M18.05 18.74c-2.002.378 2.348 4.247 4.772 6.134 2.476 3.772 19.268 3.271 20.474 4.567 1.312-.218 3.287-1.83 4.111-2.61.977-.773 2.644-2.659 1.497-4.021-1.435-1.702-6.064-2.457-10.63-1.707-3.654.6-8.687-.25-10.747-.75-2.325-.696-7.475-1.993-9.477-1.614z" fill="#117CDF"/><path fill-rule="evenodd" clip-rule="evenodd" d="M12.753 45.504c1.856 4.075 4.869 9.634 8.077 12.53 1.623 1.393 5.756 11.508 8.06 17.53 1.171-.327 1.585-.6 1.645-.697-.182-.803-.528-2.651-.46-3.62-.166-.156-.663-1.325-1.36-2.965-1.851-4.35-5.114-12.018-7.35-12.955-2.462-1.033-5.55-7.72-6.786-10.934-.511.305-1.141.687-1.826 1.111z" fill="#1485EE"/><path d="M55.834 48.11c-1.73-2.095-8.975-3.843-12.382-4.455L40.83 54.464c-3.298 3.953-10.038 12.422-10.617 14.678-.58 2.256.896 7.449 1.707 9.763l24.571.72c.502-9.632 1.073-29.42-.657-31.515z" fill="#0B6AC2"/><path d="M32.139 63.257c-2.867 4.19-2.112 10.05-1.376 12.458 1.242-2.136 7.47-5.59 8.927-6.538.657-2.841 7.199-13.494 7.73-14.446.426-.761.178-1.228 0-1.367l-2.305-3.047c.712-.712 2.259-2.254 2.752-2.726-.55-.49-3.524-4.056-4.942-5.778l-1.77-2.546c-.36.151-1.08.774-1.08 2.05-.331 5.456-4.353 16.703-7.936 21.94z" fill="#0E79DC"/><path fill-rule="evenodd" clip-rule="evenodd" d="M43.202 42.148c.11 2.835-.463 7.1-2.815 12.62-1.55 3.636-3.017 6.098-4.218 8.112-2.107 3.534-3.393 5.689-2.853 10.394-1.166.865-2.138 1.727-2.553 2.44-.736-2.406-1.491-8.267 1.376-12.457 3.583-5.237 7.605-16.484 7.936-21.94 0-1.276.72-1.898 1.08-2.05l1.77 2.546.277.335z" fill="#0960B0"/><path d="M43.714 27.811c-.322-1.36-1.409-.913-1.912-.518l-1.59 2.06c-.054.842-.01 2.987.599 4.842.388-1.542 3.305-4.683 2.903-6.384zM22.604 25.05c.203.525.084 2.524 0 3.458l-.818 5.098 2.538 2.239 4.678-.635 4.057.635 2.592-1.801 4.075-5.505c.335-1.428.907-4.656-.282-5.107-1.461-.555-5.911-1.439-8.395-1.421-2.485.018-5.894-.545-7.252-.402-1.359.143-1.448 2.783-1.194 3.44z" fill="#FFC9BA"/><path d="M40.597 29.996c.438-2.485 1.872-2.829 1.872-3.32.022-1.9-1.413-2.696-3.105-3.274-.268.32-.314 1.303-.317 2.152-.003.871.424 1.64.317 2.208-.134.71-1.48 2.877-2.484 3.35-.805.38-1.795 1.38-2.19 1.833-.328.453-1.074 1.402-1.439 1.577-.743.257-2.567-.286-3.387-.59-1.4.728-4.519 1.822-5.795.371-1.595-1.814-1.457-5.576-1.457-6.166-2.346 1.555-1.716 3.11-2.23 6.063-.513 2.954-4.003 5.224-5.196 6.756-3.213 4.317.259 8.008.938 8.62.68.612 2.216 2.087 3.553 4.191 1.335 2.105 3.52 3.378 8.007 2.297 4.486-1.082 6.166-4.151 7.06-6.488.893-2.337 2.073-4.013 3.28-4.965 1.206-.951 2.27-2.006 3.194-4.298.74-1.834.043-5.393-.397-6.944-.152-.63-.41-2.187-.224-3.373z" fill="#543343"/><path d="M24.047 33.816c.976-1.845 2.268-2.139 2.792-2.055.233-.023.81-.054 1.26 0 2.927.25.943 3.498 4.902 4.535-2.265 1.3-5.657-.523-6.416-.795-3.008 2.712-4.397.719-4.862 0 .796-.018 1.725-.541 2.324-1.685z" fill="#603A4C"/><path d="M27.988 23.995c-.532 3.981-5.175 12.439.648 7.845-.331-1.416.206-5.84-.648-7.845z" fill="#F0BBAC"/><path d="M30.865 26.524c.706-.76 2.484-1.705 3.946.59-.577.487-2.668.951-3.946-.59z" fill="#FFF3F1"/><path d="M22.036 24.83c.114.573.709.501.992.394a25.3 25.3 0 001.202-.545c.63-.301 1.026-.252 1.675-.152.407.062.601.191 1.448.152 1.06-.05.93-.717.796-.804-.255-.166-.76-.39-1.524-.908s-2.02-.232-2.234-.067c-.172.133-.98.595-1.363.81-.378.135-1.106.549-.992 1.12zM30.28 23.7c-.74.06-1.094.504-1.318 1.148-.44 1.264 2.65.63 3.41.331.759-.3 2.014-.17 2.81.139.795.308 1.84-.054 1.068-.675-.773-.621-2.453-.72-3.664-.706-1.211.013-1.381-.313-2.306-.237z" fill="#543343"/><path d="M23.622 25.452c.56-.495 2.02-1.114 3.383.366-.47.398-2.74 1.823-3.383-.366z" fill="#FFF3F1"/><mask id="a" maskUnits="userSpaceOnUse" x="24" y="24" width="3" height="3"><path d="M26.081 25.912c-.085.632-.756 1.259-1.32.962-.469-.247-.513-.82-.328-1.318.183-.488.582-.92 1.084-.779.477.134.63.645.564 1.135z" fill="#2C1E25"/></mask><g mask="url(#a)"><path d="M23.622 25.451c.56-.494 2.02-1.113 3.383.367-.47.397-2.74 1.823-3.383-.367z" fill="#2C1E25"/></g><mask id="b" maskUnits="userSpaceOnUse" x="31" y="25" width="3" height="3"><path d="M31.982 26.65c-.018-.637.542-1.363 1.147-1.161.503.168.64.727.536 1.247-.101.511-.426 1.002-.944.944-.492-.055-.726-.534-.74-1.03z" fill="#2C1E25"/></mask><g mask="url(#b)"><path d="M30.865 26.524c.706-.76 2.484-1.705 3.946.59-.577.487-2.668.951-3.946-.59z" fill="#2C1E25"/></g><path d="M46.236 19.539l-.56 1.39.56-1.39zm-2.846-.524l-1.43.453.306.97 1.015.073.109-1.496zm5.267 6.501l-1.172-.935-.028.034-.025.036 1.225.865zm-1.212 1.285l-.941-1.168-.031.025-.03.027 1.002 1.116zm-.081.071l-.971-1.143-.028.023-.026.025 1.025 1.095zm-3.921 2.54l-.341-1.461-.745.174-.297.705 1.383.582zm-1.386 2.453l1.268.802-1.268-.802zm-1.117 1.952l-1.384-.578-.192.461.122.484 1.454-.367zm.475 5.822l-1.47-.298-.127.628.365.526 1.232-.856zm1.51 2.174l-1.231.856.034.05.04.048 1.157-.954zm1.72 2.072l-1.15.962.336.402.513.105.301-1.47zm11.19 4.224l-1.157.956 1.156-.956zm.656 31.515l-.044 1.5 1.466.043.076-1.465-1.498-.078zm-22.35-.654l.044-1.5-1.165-.033-.321 1.12 1.442.413zm-.218.25l-.61-1.37.61 1.37zm-31.39-1.496l-1.441.412 1.442-.412zm.535-23.587l1.354.645-1.354-.645zm3.44-3.51l.891 1.207 1.201-.887-.881-1.205-1.211.885zm-.366-.507l-1.14-.974-.76.89.678.953 1.222-.869zm7.703-5.286l.778 1.282.745-.452-.024-.87-1.5.04zm1.34-3.878l-1.183-.92-.01.012-.01.013 1.204.895zm1.49-1.517l1.026 1.093-1.027-1.093zm3.708-5.239l1.477.258-1.477-.258zm.239-2.018l1.494.128.006-.064v-.064h-1.5zm0 0l-1.495-.127-.005.064v.063h1.5zm1.99-4.045h1.5v-2.794l-2.328 1.544.828 1.25zm0 .133l-1.5-.016v.002l1.5.014zm0 0l1.5.016-1.5-.015zm-.002.167l-1.5-.01 2.994.141-1.494-.131zm.053-3.14l1.482-.232-.205-1.31-1.325.043.048 1.499zm-.627-.467l1.47-.294-1.47.294zm.109-.495l1.253.824.745-1.133-1.052-.855-.946 1.164zm-4.572-4.858l1.447-.397-.02-.07-.025-.067-1.402.534zm1.724-2.387l-.043-1.5.043 1.5zm4.571.464l-.332 1.463 1.193.271.505-1.114-1.366-.62zm1.854-4.096l-1.367-.616 1.367.616zm.43-1.197l1.426.464-1.426-.464zm2.81-4.063l-.441-1.433.44 1.433zm12.565 1.819l.636-1.358-.012-.006-.012-.005-.612 1.369zm.655.288l-.585 1.381.585-1.381zm1.463 2.558l-1.465-.323 1.465.323zm3.152 5.284c-.91-.366-2.101-.54-3.298-.628l-.218 2.992c1.128.082 1.934.233 2.394.419l1.122-2.783zm3.033 8.304c.817-1.024 1.315-2.057 1.414-3.103.102-1.084-.24-2.005-.78-2.732-.986-1.332-2.683-2.072-3.667-2.469l-1.122 2.783c1.034.417 1.956.9 2.379 1.472.166.224.226.423.203.664-.026.279-.181.773-.772 1.515l2.345 1.87zm-1.443 1.518a8.154 8.154 0 001.496-1.588l-2.451-1.73c-.276.39-.64.75-.928.982l1.883 2.336zm-.052.046l.113-.098-2.005-2.232-.05.044 1.942 2.286zm-4.551 2.857c.937-.219 1.91-.807 2.655-1.327a18.673 18.673 0 001.95-1.578l-2.05-2.19c-.365.34-.969.854-1.62 1.31-.69.483-1.27.783-1.617.864l.682 2.921zm-.46 1.794c.493-.778 1.113-1.751 1.501-2.673L42.06 28.83c-.272.646-.74 1.394-1.27 2.233l2.535 1.604zm-1 1.73c.17-.406.517-.965 1-1.73l-2.535-1.603c-.43.68-.943 1.483-1.233 2.176l2.769 1.156zm.561 5.541c.222-1.094.18-2.354.058-3.463a23.078 23.078 0 00-.548-3.024l-2.909.734c.176.697.368 1.648.475 2.617.109.993.115 1.894-.016 2.54l2.94.596zm1.272 1.02l-1.51-2.174-2.464 1.712 1.51 2.174 2.464-1.711zm1.639 1.965a357.917 357.917 0 01-1.713-2.062l-2.316 1.907c.46.557 1.079 1.305 1.727 2.08l2.301-1.925zm11.195 4.232c-.586-.71-1.472-1.273-2.36-1.726-.922-.47-2-.895-3.11-1.271-2.223-.755-4.699-1.357-6.575-1.742l-.602 2.94c1.802.368 4.147.941 6.212 1.642 1.034.351 1.966.724 2.713 1.104.78.398 1.22.736 1.409.964l2.313-1.91zm.998 32.548c.252-4.832.521-12.216.51-18.664-.005-3.22-.08-6.236-.266-8.593-.093-1.176-.216-2.223-.381-3.063a8.82 8.82 0 00-.302-1.17c-.114-.328-.284-.724-.56-1.058l-2.312 1.91c-.06-.071-.031-.067.037.129.06.174.126.425.193.765.133.68.245 1.598.334 2.723.177 2.243.252 5.17.258 8.362.01 6.377-.257 13.704-.507 18.503l2.996.156zm-23.892.767l22.35.655.088-2.999-22.35-.654-.088 2.998zm.437.122a1.875 1.875 0 001.049-1.208l-2.884-.826a1.111 1.111 0 01.614-.706l1.22 2.74zM1.092 78.136c.187.657.633 1.11 1.033 1.406.408.301.893.532 1.386.718.99.37 2.264.65 3.673.864 2.835.432 6.502.646 10.19.703 3.698.058 7.469-.04 10.528-.244a58.27 58.27 0 003.996-.385c1.037-.144 2.014-.33 2.636-.607l-1.221-2.74c-.183.081-.76.227-1.828.376-1.005.14-2.296.263-3.783.362-2.971.199-6.659.295-10.28.239-3.632-.057-7.145-.267-9.787-.67-1.33-.202-2.367-.443-3.069-.707-.352-.132-.556-.247-.658-.322-.11-.081.005-.036.068.182l-2.884.825zm.621-24.644c-.231.487-.372 1.206-.476 1.882a41.94 41.94 0 00-.306 2.703c-.178 2.072-.31 4.657-.378 7.276-.068 2.62-.074 5.295.002 7.546.073 2.182.226 4.152.537 5.237l2.884-.825c-.192-.671-.348-2.268-.423-4.513-.073-2.176-.068-4.789 0-7.367.066-2.578.195-5.1.367-7.097.086-1 .181-1.85.282-2.502.05-.326.1-.586.146-.782.05-.215.082-.284.074-.268l-2.709-1.29zm3.904-4.071a21.311 21.311 0 00-2.16 1.81c-.667.65-1.348 1.43-1.744 2.261l2.709 1.29c.165-.348.544-.833 1.127-1.4a18.357 18.357 0 011.85-1.548L5.617 49.42zm-.697 1.568c.128.18.254.355.378.524l2.42-1.771a44.342 44.342 0 01-.353-.491L4.92 50.989zm8.146-7.437c-1.302.79-3.03 1.87-4.548 2.884a48.024 48.024 0 00-2.069 1.449c-.556.417-1.11.865-1.448 1.261l2.282 1.948c.097-.113.4-.384.966-.809.53-.398 1.2-.863 1.935-1.355 1.47-.982 3.159-2.036 4.44-2.814l-1.558-2.564zm.917-3.491c-1.222 1.642-1.679 3.288-1.638 4.813l3-.08c-.023-.824.206-1.816 1.044-2.942l-2.406-1.791zm1.664-1.715c-.57.535-1.21 1.132-1.645 1.69l2.368 1.842c.257-.331.694-.748 1.331-1.346l-2.054-2.186zm3.258-4.403c-.122.7-.513 1.43-1.132 2.207-.619.776-1.375 1.49-2.126 2.196l2.054 2.186c.727-.682 1.643-1.54 2.418-2.511.774-.972 1.498-2.166 1.741-3.563l-2.955-.515zm.222-1.888c-.051.599-.103 1.204-.222 1.888l2.955.515c.145-.83.206-1.554.256-2.148l-2.99-.255zm-.005.127h3-3zm2.662-5.295c-1.076.713-1.763 1.514-2.158 2.498-.36.898-.43 1.86-.5 2.67l2.99.255c.079-.922.132-1.405.294-1.807.127-.317.362-.672 1.031-1.116l-1.657-2.5zm2.327 1.399l.001-.15h-3v.118l3 .032zm0 0v-.001l-3-.03v.001l3 .03zm-.001.16l.001-.16-3-.03-.001.171 3 .02zM21.18 25.53c.033.206.044.654.026 1.246a28.784 28.784 0 01-.091 1.531l2.988.262a31.7 31.7 0 00.102-1.7c.018-.588.02-1.29-.06-1.803l-2.965.464zm-.616-.404a2.04 2.04 0 00.925 1.36c.45.278.913.32 1.222.31l-.097-2.998a.824.824 0 01.45.135c.12.073.227.174.31.298a.867.867 0 01.132.306l-2.942.589zm.326-1.614c-.26.395-.457.959-.326 1.614l2.942-.589a.898.898 0 01-.008.382.76.76 0 01-.1.241l-2.508-1.648zm-4.765-3.637c.158.576.515 1.118.842 1.547.352.462.789.943 1.25 1.41.924.934 2.033 1.898 2.981 2.669l1.892-2.329c-.9-.73-1.918-1.62-2.74-2.45a12.165 12.165 0 01-.997-1.12 3.775 3.775 0 01-.269-.393c-.062-.108-.07-.147-.065-.128l-2.894.794zm3.128-4.283c-1.341.038-2.551.52-3.105 1.706-.476 1.02-.216 2.087.022 2.714l2.804-1.068a1.343 1.343 0 01-.09-.361c-.007-.086.01-.076-.018-.015a.336.336 0 01-.062.09c-.025.025-.04.031-.027.025.031-.016.186-.082.561-.093l-.085-2.998zm4.947.5a20.05 20.05 0 00-4.947-.5l.085 2.998a17.051 17.051 0 014.197.428l.665-2.925zm.154-3.25c-.44.976-1.322 2.924-1.853 4.094l2.732 1.239c.53-1.169 1.415-3.121 1.856-4.1l-2.735-1.232zm.37-1.044c-.158.487-.267.815-.37 1.045l2.735 1.231c.185-.41.347-.916.488-1.348l-2.853-.928zm3.796-5.032c-1.34.412-2.172 1.41-2.7 2.336-.522.916-.855 1.955-1.096 2.695l2.853.929c.259-.795.505-1.534.849-2.138.339-.594.662-.858.976-.955l-.882-2.867zm13.618 1.883c-1.743-.78-4.507-1.423-7.038-1.794a32.755 32.755 0 00-3.662-.345c-1.057-.032-2.129.013-2.918.256l.882 2.867c.285-.088.933-.155 1.947-.125.964.03 2.116.14 3.317.316 2.437.357 4.88.952 6.248 1.563l1.224-2.738zm.628.276c-.207-.088-.402-.17-.604-.265l-1.273 2.716c.26.122.505.226.707.311l1.17-2.762zm2.342 4.263c.227-1.027.257-2.097-.412-2.984a3.164 3.164 0 00-1.005-.847c-.308-.173-.653-.317-.925-.432l-1.17 2.762c.314.133.494.211.63.288.124.07.112.085.075.034-.053-.07-.053-.123-.049-.08.007.072.006.253-.073.612l2.93.647zm-.29 5.376c-.151-.48-.206-1.33-.136-2.41a20.63 20.63 0 01.426-2.966l-2.929-.647a23.614 23.614 0 00-.49 3.417c-.076 1.163-.058 2.476.27 3.51l2.86-.904z" fill="#fff"/></g><defs><clipPath id="clip0"><path fill="#fff" d="M0 0h60v60H0z"/></clipPath></defs></svg>