<svg width="252" height="351" viewBox="0 0 252 351" fill="none" xmlns="http://www.w3.org/2000/svg">
<path d="M243.465 342.89L16.5434 340.645L9.0625 8.99023L235.735 9.11492L243.465 342.89Z" fill="#A75256"/>
<g opacity="0.3">
<g opacity="0.3">
<path opacity="0.3" d="M139.858 24.0781L25.6484 137.29L25.8978 146.516L149.458 24.2028L139.858 24.0781Z" stroke="#FEF1F0" stroke-width="2" stroke-miterlimit="10"/>
<path opacity="0.3" d="M187.855 24.2012L26.7656 183.545L26.8903 192.772L197.456 24.2012H187.855Z" stroke="#FEF1F0" stroke-width="2" stroke-miterlimit="10"/>
<path opacity="0.3" d="M178.258 24.2012L26.5195 174.319L26.7689 183.545L187.859 24.2012H178.258Z" stroke="#FEF1F0" stroke-width="2" stroke-miterlimit="10"/>
<path opacity="0.3" d="M149.455 24.2012L25.8945 146.515L26.0193 155.741L159.055 24.2012H149.455Z" stroke="#FEF1F0" stroke-width="2" stroke-miterlimit="10"/>
<path opacity="0.3" d="M168.657 24.2012L26.2695 164.968L26.5189 174.319L178.257 24.2012H168.657Z" stroke="#FEF1F0" stroke-width="2" stroke-miterlimit="10"/>
<path opacity="0.3" d="M159.059 24.2012L26.0234 155.741L26.2727 164.968L168.66 24.2012H159.059Z" stroke="#FEF1F0" stroke-width="2" stroke-miterlimit="10"/>
<path opacity="0.3" d="M197.46 24.2012L26.8945 192.772L27.1439 201.998L207.061 24.2012H197.46Z" stroke="#FEF1F0" stroke-width="2" stroke-miterlimit="10"/>
<path opacity="0.3" d="M207.057 24.2012L27.1406 201.998L27.39 211.349L216.658 24.2012H207.057Z" stroke="#FEF1F0" stroke-width="2" stroke-miterlimit="10"/>
<path opacity="0.3" d="M224.515 45.0254L28.0156 239.031L28.1403 248.258L224.64 54.2519L224.515 45.0254Z" stroke="#FEF1F0" stroke-width="2" stroke-miterlimit="10"/>
<path opacity="0.3" d="M224.64 54.252L28.1406 248.258L28.39 257.609L224.89 63.6031L224.64 54.252Z" stroke="#FEF1F0" stroke-width="2" stroke-miterlimit="10"/>
<path opacity="0.3" d="M224.265 35.6738L27.7656 229.804L28.015 239.031L224.514 45.025L224.265 35.6738Z" stroke="#FEF1F0" stroke-width="2" stroke-miterlimit="10"/>
<path opacity="0.3" d="M224.015 24.2012H216.658L27.3906 211.349L27.5153 220.576L224.015 26.4454V24.2012Z" stroke="#FEF1F0" stroke-width="2" stroke-miterlimit="10"/>
<path opacity="0.3" d="M224.015 26.4473L27.5156 220.578L27.765 229.804L224.265 35.6738L224.015 26.4473Z" stroke="#FEF1F0" stroke-width="2" stroke-miterlimit="10"/>
<path opacity="0.3" d="M82.6251 24.0781L24.3984 81.8061L24.6478 91.0326L92.101 24.0781H82.6251Z" stroke="#FEF1F0" stroke-width="2" stroke-miterlimit="10"/>
<path opacity="0.3" d="M63.5478 24.0781L24.0234 63.2284L24.1482 72.4549L73.0236 24.0781H63.5478Z" stroke="#FEF1F0" stroke-width="2" stroke-miterlimit="10"/>
<path opacity="0.3" d="M44.474 24.0781L23.5273 44.7754L23.7766 54.0019L53.9498 24.0781H44.474Z" stroke="#FEF1F0" stroke-width="2" stroke-miterlimit="10"/>
<path opacity="0.3" d="M53.9505 24.0781L23.7773 54.0019L24.0267 63.2284L63.5511 24.0781H53.9505Z" stroke="#FEF1F0" stroke-width="2" stroke-miterlimit="10"/>
<path opacity="0.3" d="M34.8731 24.0781L23.4023 35.5489L23.5271 44.7754L44.4737 24.0781H34.8731Z" stroke="#FEF1F0" stroke-width="2" stroke-miterlimit="10"/>
<path opacity="0.3" d="M25.3967 24.0781L23.1523 26.1977L23.4017 35.5489L34.8725 24.0781H25.3967Z" stroke="#FEF1F0" stroke-width="2" stroke-miterlimit="10"/>
<path opacity="0.3" d="M23.1523 23.9531V26.1974L25.3967 24.0778L23.1523 23.9531Z" stroke="#FEF1F0" stroke-width="2" stroke-miterlimit="10"/>
<path opacity="0.3" d="M120.78 24.0781L25.2734 118.712L25.3982 128.063L130.381 24.0781H120.78Z" stroke="#FEF1F0" stroke-width="2" stroke-miterlimit="10"/>
<path opacity="0.3" d="M101.702 24.0781L24.7734 100.259L25.0227 109.486L111.178 24.0781H101.702Z" stroke="#FEF1F0" stroke-width="2" stroke-miterlimit="10"/>
<path opacity="0.3" d="M111.179 24.0781L25.0234 109.486L25.2728 118.712L120.78 24.0781H111.179Z" stroke="#FEF1F0" stroke-width="2" stroke-miterlimit="10"/>
<path opacity="0.3" d="M130.381 24.0781L25.3984 128.063L25.6477 137.29L139.857 24.0781H130.381Z" stroke="#FEF1F0" stroke-width="2" stroke-miterlimit="10"/>
<path opacity="0.3" d="M92.1017 24.0781L24.6484 91.0326L24.7732 100.259L101.702 24.0781H92.1017Z" stroke="#FEF1F0" stroke-width="2" stroke-miterlimit="10"/>
<path opacity="0.3" d="M73.0278 24.0781L24.1523 72.4549L24.4016 81.8061L82.6283 24.0781H73.0278Z" stroke="#FEF1F0" stroke-width="2" stroke-miterlimit="10"/>
<path opacity="0.3" d="M224.89 63.6035L28.3906 257.609L28.64 266.836L225.139 72.9547L224.89 63.6035Z" stroke="#FEF1F0" stroke-width="2" stroke-miterlimit="10"/>
<path opacity="0.3" d="M230.25 296.26L193.344 332.418L202.944 332.542L230.499 305.486L230.25 296.26Z" stroke="#FEF1F0" stroke-width="2" stroke-miterlimit="10"/>
<path opacity="0.3" d="M229.001 240.4L135.863 331.793L145.464 331.917L229.126 249.752L229.001 240.4Z" stroke="#FEF1F0" stroke-width="2" stroke-miterlimit="10"/>
<path opacity="0.3" d="M228.755 231.051L126.266 331.794H135.866L229.004 240.402L228.755 231.051Z" stroke="#FEF1F0" stroke-width="2" stroke-miterlimit="10"/>
<path opacity="0.3" d="M229.377 258.979L154.941 332.042L164.542 332.167L229.626 268.33L229.377 258.979Z" stroke="#FEF1F0" stroke-width="2" stroke-miterlimit="10"/>
<path opacity="0.3" d="M228.128 203.121L97.5859 331.544H107.186L228.378 212.472L228.128 203.121Z" stroke="#FEF1F0" stroke-width="2" stroke-miterlimit="10"/>
<path opacity="0.3" d="M228.504 221.822L116.664 331.667L126.265 331.792L228.754 231.049L228.504 221.822Z" stroke="#FEF1F0" stroke-width="2" stroke-miterlimit="10"/>
<path opacity="0.3" d="M228.379 212.473L107.188 331.544L116.663 331.669L228.503 221.824L228.379 212.473Z" stroke="#FEF1F0" stroke-width="2" stroke-miterlimit="10"/>
<path opacity="0.3" d="M229.131 249.752L145.469 331.918L154.945 332.042L229.38 258.978L229.131 249.752Z" stroke="#FEF1F0" stroke-width="2" stroke-miterlimit="10"/>
<path opacity="0.3" d="M229.623 268.33L164.539 332.167H174.14L229.873 277.681L229.623 268.33Z" stroke="#FEF1F0" stroke-width="2" stroke-miterlimit="10"/>
<path opacity="0.3" d="M231.126 332.793L230.876 324.189L222.148 332.668L231.126 332.793Z" stroke="#FEF1F0" stroke-width="2" stroke-miterlimit="10"/>
<path opacity="0.3" d="M230.871 324.189L230.622 314.838L212.543 332.543L222.144 332.668L230.871 324.189Z" stroke="#FEF1F0" stroke-width="2" stroke-miterlimit="10"/>
<path opacity="0.3" d="M230.5 305.486L202.945 332.542H212.546L230.625 314.838L230.5 305.486Z" stroke="#FEF1F0" stroke-width="2" stroke-miterlimit="10"/>
<path opacity="0.3" d="M230.003 286.908L183.746 332.293L193.347 332.417L230.253 296.259L230.003 286.908Z" stroke="#FEF1F0" stroke-width="2" stroke-miterlimit="10"/>
<path opacity="0.3" d="M229.878 277.682L174.145 332.168L183.745 332.293L230.002 286.908L229.878 277.682Z" stroke="#FEF1F0" stroke-width="2" stroke-miterlimit="10"/>
<path opacity="0.3" d="M226.634 138.037L30.8828 330.796L40.3587 330.921L226.884 147.388L226.634 138.037Z" stroke="#FEF1F0" stroke-width="2" stroke-miterlimit="10"/>
<path opacity="0.3" d="M225.761 100.881L29.2617 294.637L29.3864 303.864L226.011 110.107L225.761 100.881Z" stroke="#FEF1F0" stroke-width="2" stroke-miterlimit="10"/>
<path opacity="0.3" d="M226.011 110.107L29.3867 303.864L29.6361 313.09L226.136 119.459L226.011 110.107Z" stroke="#FEF1F0" stroke-width="2" stroke-miterlimit="10"/>
<path opacity="0.3" d="M226.382 128.686L29.8828 322.317L30.0075 330.796H30.8803L226.632 138.037L226.382 128.686Z" stroke="#FEF1F0" stroke-width="2" stroke-miterlimit="10"/>
<path opacity="0.3" d="M226.136 119.459L29.6367 313.091L29.8861 322.317L226.386 128.685L226.136 119.459Z" stroke="#FEF1F0" stroke-width="2" stroke-miterlimit="10"/>
<path opacity="0.3" d="M225.511 91.5293L29.0117 285.286L29.2611 294.637L225.761 100.88L225.511 91.5293Z" stroke="#FEF1F0" stroke-width="2" stroke-miterlimit="10"/>
<path opacity="0.3" d="M225.39 82.1797L28.7656 276.061L29.015 285.287L225.515 91.5309L225.39 82.1797Z" stroke="#FEF1F0" stroke-width="2" stroke-miterlimit="10"/>
<path opacity="0.3" d="M225.136 72.9551L28.6367 266.836L28.7614 276.063L225.386 82.1816L225.136 72.9551Z" stroke="#FEF1F0" stroke-width="2" stroke-miterlimit="10"/>
<path opacity="0.3" d="M227.506 175.193L68.9102 331.171L78.5107 331.296L227.631 184.545L227.506 175.193Z" stroke="#FEF1F0" stroke-width="2" stroke-miterlimit="10"/>
<path opacity="0.3" d="M227.632 184.545L78.5117 331.296L87.9876 331.421L227.881 193.896L227.632 184.545Z" stroke="#FEF1F0" stroke-width="2" stroke-miterlimit="10"/>
<path opacity="0.3" d="M227.26 165.967L59.4375 331.171H68.9133L227.509 175.193L227.26 165.967Z" stroke="#FEF1F0" stroke-width="2" stroke-miterlimit="10"/>
<path opacity="0.3" d="M226.884 147.389L40.3594 330.921L49.8352 331.046L227.009 156.615L226.884 147.389Z" stroke="#FEF1F0" stroke-width="2" stroke-miterlimit="10"/>
<path opacity="0.3" d="M227.006 156.615L49.832 331.046L59.4326 331.171L227.255 165.966L227.006 156.615Z" stroke="#FEF1F0" stroke-width="2" stroke-miterlimit="10"/>
<path opacity="0.3" d="M227.882 193.896L87.9883 331.421L97.5888 331.546L228.131 203.123L227.882 193.896Z" stroke="#FEF1F0" stroke-width="2" stroke-miterlimit="10"/>
</g>
<g opacity="0.3">
<path opacity="0.3" d="M106.69 24.0781L226.635 138.163L226.884 147.389L97.0898 24.0781H106.69Z" stroke="#FEF1F0" stroke-width="2" stroke-miterlimit="10"/>
<path opacity="0.3" d="M58.9407 24.0781L227.636 184.669L227.885 193.896L49.4648 24.0781H58.9407Z" stroke="#FEF1F0" stroke-width="2" stroke-miterlimit="10"/>
<path opacity="0.3" d="M68.4134 24.0781L227.508 175.318L227.633 184.669L58.9375 24.0781H68.4134Z" stroke="#FEF1F0" stroke-width="2" stroke-miterlimit="10"/>
<path opacity="0.3" d="M97.0927 24.0781L226.887 147.389L227.012 156.74L87.4922 24.0781H97.0927Z" stroke="#FEF1F0" stroke-width="2" stroke-miterlimit="10"/>
<path opacity="0.3" d="M78.0145 24.0781L227.259 165.967L227.509 175.318L68.4141 24.0781H78.0145Z" stroke="#FEF1F0" stroke-width="2" stroke-miterlimit="10"/>
<path opacity="0.3" d="M87.4876 24.0781L227.007 156.74L227.257 165.967L78.0117 24.0781H87.4876Z" stroke="#FEF1F0" stroke-width="2" stroke-miterlimit="10"/>
<path opacity="0.3" d="M49.4599 24.0781L227.88 193.896L228.13 203.247L39.8594 24.0781H49.4599Z" stroke="#FEF1F0" stroke-width="2" stroke-miterlimit="10"/>
<path opacity="0.3" d="M39.8626 24.0781L228.133 203.247L228.382 212.598L30.3867 24.0781H39.8626Z" stroke="#FEF1F0" stroke-width="2" stroke-miterlimit="10"/>
<path opacity="0.3" d="M23.5273 44.6504L229.004 240.526L229.129 249.753L23.7766 53.8769L23.5273 44.6504Z" stroke="#FEF1F0" stroke-width="2" stroke-miterlimit="10"/>
<path opacity="0.3" d="M23.7773 53.877L229.129 249.753L229.379 259.104L24.0267 63.2281L23.7773 53.877Z" stroke="#FEF1F0" stroke-width="2" stroke-miterlimit="10"/>
<path opacity="0.3" d="M23.4023 35.4238L228.754 231.175L229.004 240.526L23.5271 44.6503L23.4023 35.4238Z" stroke="#FEF1F0" stroke-width="2" stroke-miterlimit="10"/>
<path opacity="0.3" d="M23.1523 23.9531L30.384 24.0778L228.38 212.598L228.504 221.824L23.1523 26.1974V23.9531Z" stroke="#FEF1F0" stroke-width="2" stroke-miterlimit="10"/>
<path opacity="0.3" d="M23.1523 26.1992L228.504 221.826L228.754 231.177L23.4017 35.4257L23.1523 26.1992Z" stroke="#FEF1F0" stroke-width="2" stroke-miterlimit="10"/>
<path opacity="0.3" d="M164.046 24.2012L225.39 82.3032L225.514 91.5297L154.445 24.2012H164.046Z" stroke="#FEF1F0" stroke-width="2" stroke-miterlimit="10"/>
<path opacity="0.3" d="M183.245 24.2012L224.889 63.7255L225.138 72.952L173.645 24.2012H183.245Z" stroke="#FEF1F0" stroke-width="2" stroke-miterlimit="10"/>
<path opacity="0.3" d="M202.448 24.2012L224.517 45.0231L224.642 54.3743L192.848 24.2012H202.448Z" stroke="#FEF1F0" stroke-width="2" stroke-miterlimit="10"/>
<path opacity="0.3" d="M192.843 24.2012L224.637 54.3743L224.886 63.7255L183.242 24.2012H192.843Z" stroke="#FEF1F0" stroke-width="2" stroke-miterlimit="10"/>
<path opacity="0.3" d="M212.05 24.2012L224.269 35.7966L224.518 45.0231L202.449 24.2012H212.05Z" stroke="#FEF1F0" stroke-width="2" stroke-miterlimit="10"/>
<path opacity="0.3" d="M221.647 24.2012L224.016 26.4454L224.266 35.7966L212.047 24.2012H221.647Z" stroke="#FEF1F0" stroke-width="2" stroke-miterlimit="10"/>
<path opacity="0.3" d="M224.017 24.2012V26.4454L221.648 24.2012H224.017Z" stroke="#FEF1F0" stroke-width="2" stroke-miterlimit="10"/>
<path opacity="0.3" d="M125.769 24.0781L226.138 119.46L226.387 128.811L116.168 24.0781H125.769Z" stroke="#FEF1F0" stroke-width="2" stroke-miterlimit="10"/>
<path opacity="0.3" d="M144.968 24.0781L225.762 100.882L226.011 110.234L135.367 24.0781H144.968Z" stroke="#FEF1F0" stroke-width="2" stroke-miterlimit="10"/>
<path opacity="0.3" d="M135.37 24.0781L226.014 110.234L226.139 119.46L125.77 24.0781H135.37Z" stroke="#FEF1F0" stroke-width="2" stroke-miterlimit="10"/>
<path opacity="0.3" d="M116.167 24.0781L226.387 128.811L226.636 138.163L106.691 24.0781H116.167Z" stroke="#FEF1F0" stroke-width="2" stroke-miterlimit="10"/>
<path opacity="0.3" d="M154.445 24.2028L225.514 91.5313L225.763 100.882L144.969 24.0781L154.445 24.2028Z" stroke="#FEF1F0" stroke-width="2" stroke-miterlimit="10"/>
<path opacity="0.3" d="M173.644 24.2012L225.137 72.952L225.387 82.3032L164.043 24.2012H173.644Z" stroke="#FEF1F0" stroke-width="2" stroke-miterlimit="10"/>
<path opacity="0.3" d="M24.0234 63.2285L229.375 259.105L229.625 268.331L24.1482 72.455L24.0234 63.2285Z" stroke="#FEF1F0" stroke-width="2" stroke-miterlimit="10"/>
<path opacity="0.3" d="M29.2617 294.514L67.4145 331.17H57.9387L29.3864 303.74L29.2617 294.514Z" stroke="#FEF1F0" stroke-width="2" stroke-miterlimit="10"/>
<path opacity="0.3" d="M28.0156 239.029L124.769 331.793L115.169 331.668L28.1403 248.256L28.0156 239.029Z" stroke="#FEF1F0" stroke-width="2" stroke-miterlimit="10"/>
<path opacity="0.3" d="M27.7656 229.68L134.244 331.795H124.769L28.015 239.031L27.7656 229.68Z" stroke="#FEF1F0" stroke-width="2" stroke-miterlimit="10"/>
<path opacity="0.3" d="M28.3906 257.484L105.569 331.546L96.0932 331.421L28.64 266.711L28.3906 257.484Z" stroke="#FEF1F0" stroke-width="2" stroke-miterlimit="10"/>
<path opacity="0.3" d="M27.1406 202L163.044 332.168L153.444 332.044L27.39 211.226L27.1406 202Z" stroke="#FEF1F0" stroke-width="2" stroke-miterlimit="10"/>
<path opacity="0.3" d="M27.5156 220.451L143.844 331.917L134.244 331.793L27.765 229.678L27.5156 220.451Z" stroke="#FEF1F0" stroke-width="2" stroke-miterlimit="10"/>
<path opacity="0.3" d="M27.3906 211.225L153.445 332.042L143.844 331.917L27.5153 220.451L27.3906 211.225Z" stroke="#FEF1F0" stroke-width="2" stroke-miterlimit="10"/>
<path opacity="0.3" d="M28.1406 248.258L115.169 331.67L105.568 331.546L28.39 257.484L28.1406 248.258Z" stroke="#FEF1F0" stroke-width="2" stroke-miterlimit="10"/>
<path opacity="0.3" d="M28.6367 266.709L96.0899 331.419H86.4894L28.7614 276.06L28.6367 266.709Z" stroke="#FEF1F0" stroke-width="2" stroke-miterlimit="10"/>
<path opacity="0.3" d="M30.0075 330.797L29.8828 322.318L38.86 330.921L30.0075 330.797Z" stroke="#FEF1F0" stroke-width="2" stroke-miterlimit="10"/>
<path opacity="0.3" d="M29.8861 322.318L29.6367 313.092L48.3391 331.046L38.8632 330.921L29.8861 322.318Z" stroke="#FEF1F0" stroke-width="2" stroke-miterlimit="10"/>
<path opacity="0.3" d="M29.3867 303.74L57.939 331.17L48.3385 331.046L29.6361 313.091L29.3867 303.74Z" stroke="#FEF1F0" stroke-width="2" stroke-miterlimit="10"/>
<path opacity="0.3" d="M29.0117 285.287L77.0144 331.295L67.4139 331.17L29.2611 294.514L29.0117 285.287Z" stroke="#FEF1F0" stroke-width="2" stroke-miterlimit="10"/>
<path opacity="0.3" d="M28.7656 276.061L86.4936 331.42L77.0177 331.295L29.015 285.287L28.7656 276.061Z" stroke="#FEF1F0" stroke-width="2" stroke-miterlimit="10"/>
<path opacity="0.3" d="M25.6484 137.166L230.252 332.793L220.652 332.668L25.8978 146.393L25.6484 137.166Z" stroke="#FEF1F0" stroke-width="2" stroke-miterlimit="10"/>
<path opacity="0.3" d="M24.7734 100.133L230.25 296.258L230.499 305.609L25.0227 109.484L24.7734 100.133Z" stroke="#FEF1F0" stroke-width="2" stroke-miterlimit="10"/>
<path opacity="0.3" d="M25.0234 109.484L230.5 305.61L230.625 314.961L25.2728 118.711L25.0234 109.484Z" stroke="#FEF1F0" stroke-width="2" stroke-miterlimit="10"/>
<path opacity="0.3" d="M25.3984 127.939L230.875 324.19L231.124 332.793H230.252L25.6477 137.166L25.3984 127.939Z" stroke="#FEF1F0" stroke-width="2" stroke-miterlimit="10"/>
<path opacity="0.3" d="M25.2734 118.711L230.625 314.961L230.875 324.188L25.3982 127.937L25.2734 118.711Z" stroke="#FEF1F0" stroke-width="2" stroke-miterlimit="10"/>
<path opacity="0.3" d="M24.6484 90.9062L230 287.032L230.25 296.258L24.7732 100.133L24.6484 90.9062Z" stroke="#FEF1F0" stroke-width="2" stroke-miterlimit="10"/>
<path opacity="0.3" d="M24.3984 81.6816L229.875 277.682L230 287.034L24.6478 90.9081L24.3984 81.6816Z" stroke="#FEF1F0" stroke-width="2" stroke-miterlimit="10"/>
<path opacity="0.3" d="M24.1523 72.4551L229.629 268.331L229.878 277.682L24.4016 81.6816L24.1523 72.4551Z" stroke="#FEF1F0" stroke-width="2" stroke-miterlimit="10"/>
<path opacity="0.3" d="M26.5195 174.195L191.848 332.417L182.248 332.293L26.7689 183.422L26.5195 174.195Z" stroke="#FEF1F0" stroke-width="2" stroke-miterlimit="10"/>
<path opacity="0.3" d="M26.7656 183.422L182.245 332.293L172.644 332.168L26.8903 192.773L26.7656 183.422Z" stroke="#FEF1F0" stroke-width="2" stroke-miterlimit="10"/>
<path opacity="0.3" d="M26.2695 164.969L201.448 332.542L191.848 332.417L26.5189 174.195L26.2695 164.969Z" stroke="#FEF1F0" stroke-width="2" stroke-miterlimit="10"/>
<path opacity="0.3" d="M25.8945 146.391L220.648 332.666L211.048 332.541L26.0193 155.742L25.8945 146.391Z" stroke="#FEF1F0" stroke-width="2" stroke-miterlimit="10"/>
<path opacity="0.3" d="M26.0234 155.742L211.052 332.542H201.452L26.2727 164.969L26.0234 155.742Z" stroke="#FEF1F0" stroke-width="2" stroke-miterlimit="10"/>
<path opacity="0.3" d="M26.8945 192.773L172.648 332.168H163.048L27.1439 202L26.8945 192.773Z" stroke="#FEF1F0" stroke-width="2" stroke-miterlimit="10"/>
</g>
</g>
<path d="M167.286 192.649C164.045 192.774 151.701 198.384 140.604 204.369C139.856 204.868 139.108 205.242 138.36 205.616C130.505 210.728 122.151 216.463 121.403 217.835C120.905 218.708 120.531 219.456 120.032 220.204C119.159 221.575 117.912 222.698 116.541 223.57C115.917 225.815 116.042 227.809 115.419 229.929C114.172 234.293 114.92 252.247 107.688 259.603C103.948 263.469 99.4593 261.848 95.8435 259.354C94.2226 259.354 92.8511 258.107 92.477 256.611C90.9809 255.115 89.9834 253.993 89.9834 253.993C89.9834 253.993 89.8587 253.868 89.734 253.868C88.9859 253.494 86.991 252.372 86.7416 252.123C86.3676 251.873 86.2429 251.624 85.7442 250.876C85.4948 250.626 85.3701 250.377 85.3701 250.128C84.9961 249.878 84.7467 249.629 85.1208 249.255C85.7442 248.631 88.2378 249.255 88.7366 249.13C89.2353 249.13 90.7315 248.631 91.2302 249.255C93.1005 249.005 93.4745 248.382 94.5967 243.519C95.2201 241.151 84.4973 220.578 82.6271 208.11C80.7569 195.641 101.329 187.412 107.564 184.295C108.062 184.046 108.81 183.797 109.808 183.672C110.057 182.924 110.307 182.3 110.307 181.552C110.431 177.812 109.808 170.954 108.561 167.588C81.3803 174.819 61.8051 199.008 62.4285 227.934C63.1766 262.596 92.8511 291.023 128.635 291.398C164.543 291.647 193.096 263.718 192.223 228.807C191.849 213.845 186.114 200.005 176.887 189.158C176.887 190.903 172.523 192.4 167.286 192.649Z" fill="#974B52"/>
<path d="M176.013 188.284C175.265 187.412 174.392 186.539 173.644 185.666C172.646 186.165 171.524 186.788 170.277 187.536C172.896 187.661 174.891 187.786 176.013 188.284Z" fill="#974B52"/>
<path d="M117.036 166.215C116.911 167.461 114.168 167.087 113.296 167.835C113.046 168.085 112.922 168.334 112.797 168.584C114.293 171.202 117.535 177.311 120.777 179.93C123.644 182.299 136.487 183.296 143.095 183.67C149.578 182.548 163.293 181.301 166.286 181.052C166.784 181.052 167.408 180.927 168.156 180.802C156.56 171.202 141.598 165.466 125.39 165.342C121.649 165.342 118.034 165.591 114.542 166.215C115.415 166.464 116.288 166.464 117.036 166.215Z" fill="#974B52"/>
<path d="M110.054 181.675C110.054 182.423 109.805 183.047 109.556 183.795C115.042 182.922 127.51 183.546 139.23 184.543C140.352 184.294 141.1 184.169 141.599 184.044C142.098 183.92 142.597 183.795 143.22 183.67C136.612 183.296 123.77 182.299 120.902 179.93C117.66 177.312 114.418 171.202 112.922 168.584C112.673 169.082 112.922 169.581 112.922 169.581L111.177 168.459C111.177 168.459 111.8 167.586 110.803 166.963C110.054 167.088 109.182 167.337 108.434 167.586C109.556 171.077 110.054 177.935 110.054 181.675Z" fill="#974B52"/>
<path d="M176.764 189.156C176.639 188.782 176.39 188.533 176.016 188.408C176.265 188.658 176.514 189.032 176.764 189.281C176.764 189.156 176.764 189.156 176.764 189.156Z" fill="#A75256"/>
<path d="M162.923 191.65C163.547 191.65 163.921 191.775 163.796 192.273C163.547 193.645 160.18 194.268 157.188 194.892C151.452 198.133 145.468 201.5 140.48 204.368C151.577 198.508 164.045 192.897 167.162 192.647C172.399 192.398 176.763 190.902 176.638 189.281C176.389 189.032 176.14 188.658 175.89 188.408C174.893 187.91 172.773 187.785 170.155 187.66C168.16 188.658 165.666 190.029 162.923 191.65Z" fill="#A75256"/>
<path d="M89.2347 217.209C88.1126 206.362 88.736 195.016 96.7156 191.899C98.2118 191.4 100.581 190.777 103.573 190.278C105.319 188.907 108.311 186.413 109.433 183.67C108.436 183.795 107.688 184.044 107.189 184.293C100.955 187.535 80.3823 195.639 82.2525 208.108C84.1227 220.576 94.8454 241.149 94.222 243.517C92.9752 248.255 92.6012 249.004 90.8556 249.253C90.8556 249.253 90.8556 249.253 90.9803 249.378C91.2296 250.001 91.7284 250.998 91.2297 251.123C90.8556 252.245 89.8581 253.866 89.8581 253.866C89.8581 253.866 89.7335 253.741 89.6088 253.741C89.8582 253.866 89.8581 253.866 89.8581 253.866C89.8581 253.866 90.8556 255.113 92.3518 256.484C92.3518 256.235 92.2271 256.11 92.2271 255.861C92.1024 253.991 93.5986 252.495 95.5935 252.495C97.4638 252.495 99.0846 253.991 99.2093 255.861C99.334 257.731 97.8378 259.227 95.8429 259.227H95.7182C99.334 261.721 103.823 263.217 107.563 259.477C114.795 252.121 114.047 234.166 115.293 229.802C115.917 227.683 115.792 225.688 116.416 223.444C114.919 224.316 113.174 224.815 111.428 224.94C104.072 225.439 90.1075 225.189 89.2347 217.209Z" fill="#A75256"/>
<path d="M103.574 190.278C107.938 189.53 113.549 188.907 119.16 188.284C127.389 186.413 135.119 185.166 139.109 184.418C127.389 183.421 115.045 182.673 109.434 183.67C108.312 186.413 105.32 189.032 103.574 190.278Z" fill="#A75256"/>
<path d="M173.518 185.79C174.889 185.042 175.887 184.543 176.386 184.419C180.375 182.922 184.365 180.928 183.368 179.681C182.495 178.559 173.019 180.304 168.281 181.052C170.151 182.424 171.897 184.045 173.518 185.79Z" fill="#994F55"/>
<path d="M143.098 183.67C145.467 183.795 146.963 183.795 146.963 183.795L143.098 184.793C152.698 185.665 161.301 186.663 164.044 187.037C166.289 187.286 168.408 187.411 170.278 187.536C171.525 186.787 172.647 186.289 173.645 185.665C172.024 183.92 170.154 182.299 168.408 180.803C167.66 180.927 166.912 180.927 166.538 181.052C163.296 181.301 149.581 182.548 143.098 183.67Z" fill="#994F55"/>
<path d="M138.359 205.616C139.107 205.242 139.856 204.743 140.604 204.369C140.105 204.619 139.482 204.993 138.983 205.242C138.733 205.242 138.484 205.491 138.359 205.616Z" fill="#994F55"/>
<path d="M139.109 184.418C140.481 184.543 141.852 184.667 143.099 184.792L146.964 183.795C146.964 183.795 145.468 183.795 143.099 183.67C142.476 183.795 141.852 183.919 141.478 184.044C140.98 184.169 140.232 184.293 139.109 184.418Z" fill="#994F55"/>
<path d="M138.98 205.114C139.479 204.865 140.103 204.491 140.601 204.241C145.589 201.374 151.573 198.007 157.309 194.766C155.439 195.14 153.693 195.514 152.945 196.012C151.947 196.761 145.713 200.75 138.98 205.114Z" fill="#994F55"/>
<path d="M146.34 187.908C150.205 189.903 166.663 189.778 157.312 191.773C147.961 193.768 128.635 198.631 141.851 196.511C152.449 194.766 160.429 191.773 163.047 191.649C165.79 190.152 168.284 188.781 170.404 187.534C168.534 187.409 166.539 187.285 164.17 187.035C161.427 186.661 152.948 185.664 143.223 184.791L132.625 187.409C139.483 187.16 144.969 187.285 146.34 187.908Z" fill="#994F55"/>
<path d="M119.16 188.408C123.773 188.034 128.387 187.66 132.501 187.535L143.099 184.917C141.728 184.792 140.481 184.668 139.109 184.543C135.12 185.166 127.389 186.538 119.16 188.408Z" fill="#994F55"/>
<path d="M127.386 211.849C125.017 213.844 122.025 217.211 117.786 220.577C117.162 221.699 116.788 222.697 116.539 223.569C117.911 222.697 119.157 221.575 120.03 220.203C120.529 219.455 120.903 218.707 121.402 217.834C122.15 216.338 130.503 210.727 138.358 205.615C134.743 207.61 131.875 209.231 130.504 209.979C129.381 210.603 128.259 211.226 127.386 211.849Z" fill="#A75256"/>
<path d="M115.296 222.321C108.065 227.433 96.0952 221.448 96.0952 221.448C96.0952 221.448 92.6042 212.721 89.9859 202.497C88.9884 198.756 95.0978 195.39 103.452 192.647L102.205 191.4C102.205 191.4 102.703 191.026 103.576 190.402C100.584 190.901 98.2148 191.525 96.7187 192.023C88.739 195.14 88.1156 206.486 89.2377 217.334C89.9858 225.189 103.95 225.563 111.431 225.064C113.177 224.939 114.922 224.441 116.419 223.568C116.668 222.57 117.042 221.573 117.665 220.576C116.917 221.074 116.169 221.698 115.296 222.321Z" fill="#A75256"/>
<path d="M129.635 210.353C128.887 210.602 128.139 211.225 127.391 211.849C128.388 211.225 129.385 210.602 130.383 209.979C130.009 210.103 129.76 210.228 129.635 210.353Z" fill="#A75256"/>
<path d="M163.796 192.149C163.92 191.65 163.546 191.525 162.923 191.525C161.053 192.523 159.182 193.645 157.188 194.767C160.18 194.144 163.546 193.52 163.796 192.149Z" fill="#A75256"/>
<path d="M102.199 191.276L103.446 192.522C108.309 190.902 113.795 189.53 119.156 188.283C113.421 188.782 107.935 189.53 103.571 190.278C102.823 190.902 102.199 191.276 102.199 191.276Z" fill="#A75256"/>
<path d="M122.772 214.964C120.279 216.959 118.783 218.83 117.785 220.45C122.024 217.084 125.017 213.718 127.386 211.723C125.515 212.969 123.895 214.092 122.772 214.964Z" fill="#A75256"/>
<path d="M130.379 209.978C131.75 209.23 134.618 207.609 138.234 205.614C138.483 205.49 138.608 205.365 138.857 205.24C135.865 206.736 132.997 208.357 130.379 209.978Z" fill="#A75256"/>
<path d="M157.185 191.775C166.536 189.78 150.078 189.905 146.213 187.91C144.842 187.161 139.356 187.161 132.498 187.411L104.943 194.144L103.322 192.523C94.9688 195.266 88.8593 198.632 89.8567 202.373C92.4751 212.472 95.9662 221.324 95.9662 221.324C95.9662 221.324 107.936 227.309 115.167 222.197C116.04 221.574 116.788 220.95 117.536 220.327C118.534 218.706 120.03 216.836 122.524 214.841C123.646 213.968 125.267 212.846 127.137 211.599C127.885 210.976 128.633 210.477 129.381 210.103C129.506 209.978 129.88 209.854 130.254 209.729C132.872 208.233 135.74 206.612 138.732 204.991C145.465 200.503 151.824 196.513 152.697 196.014C153.445 195.515 155.19 195.141 157.061 194.767C159.056 193.645 160.926 192.523 162.796 191.525C160.178 191.525 152.198 194.642 141.6 196.388C128.508 198.632 147.834 193.77 157.185 191.775Z" fill="#A75256"/>
<path d="M105.07 194.27L132.625 187.537C128.511 187.662 123.773 188.036 119.284 188.41C113.923 189.657 108.312 191.028 103.574 192.649L105.07 194.27Z" fill="#A75256"/>
<path d="M95.718 259.35C94.4712 258.478 93.349 257.48 92.3516 256.607C92.7256 258.228 94.0971 259.35 95.718 259.35Z" fill="#F37880"/>
<path d="M99.2087 255.986C99.0841 254.115 97.4632 252.619 95.593 252.619C93.7228 252.619 92.2266 254.115 92.2266 255.986C92.2266 256.235 92.2265 256.36 92.3512 256.609C93.224 257.482 94.4708 258.479 95.7177 259.352H95.8424C97.8373 259.352 99.3334 257.856 99.2087 255.986ZM93.0994 255.861C93.0994 254.614 94.0968 253.617 95.3436 253.617C96.5904 253.617 97.7126 254.614 97.7126 255.861C97.7126 257.108 96.7151 258.105 95.4683 258.105C94.2215 258.105 93.224 257.108 93.0994 255.861Z" fill="#F37880"/>
<path d="M97.8359 255.861C97.8359 254.615 96.7137 253.617 95.4669 253.617C94.2201 253.617 93.2227 254.615 93.2227 255.861C93.2227 257.108 94.3448 258.106 95.5917 258.106C96.8385 258.106 97.8359 257.108 97.8359 255.861ZM96.0903 257.108C95.7163 257.233 95.0929 257.358 94.5942 256.984C93.7214 256.36 93.9708 255.737 93.9708 255.612C94.2202 255.238 94.3448 254.739 96.0903 255.113C96.3397 255.113 96.8385 255.487 96.8385 256.111C96.8385 256.485 96.5891 256.859 96.0903 257.108Z" fill="#A75256"/>
<path d="M85.1211 250.125C85.2458 250.374 85.3704 250.624 85.4951 250.873C85.9939 251.621 86.1186 251.871 86.4926 252.12C86.742 252.245 88.7369 253.367 89.485 253.865C88.6122 253.367 86.3679 252.12 86.2433 251.995C86.2433 251.746 85.4951 250.873 85.1211 250.125Z" fill="#F37880"/>
<path d="M91.2306 251.247C91.1059 251.247 87.116 250.375 86.3679 250.499C85.9939 250.499 85.4951 250.375 85.1211 250.25C85.4951 250.998 86.1186 251.871 86.2433 251.996C86.3679 252.12 88.6122 253.367 89.485 253.866C89.6097 253.991 89.7344 253.99 89.7344 253.99C89.7344 253.99 90.8565 252.245 91.2306 251.247Z" fill="#F37880"/>
<path d="M112.174 167.584C112.299 167.834 112.548 168.208 112.798 168.582C112.922 168.332 113.047 168.083 113.296 167.834C114.169 167.086 116.787 167.46 117.037 166.213C116.289 166.462 115.416 166.338 114.668 166.213C113.67 166.338 112.548 166.587 111.551 166.836C111.8 167.086 112.05 167.335 112.174 167.584Z" fill="#5C424E"/>
<path d="M111.054 168.584L112.799 169.706C112.799 169.706 112.675 169.207 112.799 168.709C112.55 168.21 112.301 167.836 112.176 167.711C112.051 167.587 111.802 167.337 111.552 167.088C111.303 167.213 110.929 167.213 110.68 167.337C111.677 167.711 111.054 168.584 111.054 168.584Z" fill="#5C424E"/>
<path d="M96.2156 254.988C94.47 254.614 94.3453 255.113 94.096 255.487C93.9713 255.611 93.8466 256.235 94.7194 256.858C95.2181 257.232 95.7169 257.108 96.2156 256.983C96.7143 256.858 96.9637 256.484 96.9637 255.985C96.9637 255.362 96.465 255.113 96.2156 254.988Z" fill="#5C414E"/>
<path d="M84.996 249.502C84.996 249.502 84.996 249.378 84.996 249.502C84.996 249.378 84.996 249.378 84.996 249.378C85.1207 249.128 85.744 249.253 86.7415 249.378C87.8636 249.502 90.6067 249.502 90.6067 249.502H90.7313C90.2326 248.879 88.7364 249.253 88.2377 249.378C87.739 249.502 85.2454 248.879 84.6219 249.502C84.3726 249.876 84.4972 250.126 84.8712 250.375C84.8712 250.25 84.7466 250.251 84.7466 250.126C84.996 249.752 84.996 249.627 84.996 249.502Z" fill="#E5737E"/>
<path d="M91.4789 250.501C91.4789 250.625 91.4788 250.875 91.3542 251.124C91.8529 250.875 91.3541 250.002 91.1048 249.379C91.1048 249.379 91.1048 249.254 90.9801 249.254H90.8555C90.8555 249.503 91.3542 249.877 91.4789 250.501Z" fill="#E5737E"/>
<path d="M85 249.378C85.1247 249.253 85 249.378 85 249.378V249.378Z" fill="#E5737E"/>
<path d="M85.1211 249.877C85.1211 250.002 85.1211 250.002 85.2458 250.126C85.1211 250.126 85.1211 250.002 85.1211 249.877Z" fill="#E5737E"/>
<path d="M90.2334 249.378C90.4828 249.378 90.6074 249.378 90.8568 249.253C90.8568 249.253 87.9891 249.378 86.9916 249.129C85.9941 249.004 85.3708 249.004 85.2461 249.129C85.6201 248.879 87.9891 249.627 90.2334 249.378Z" fill="#E5737E"/>
<path d="M90.8565 249.378C90.6072 249.378 90.4825 249.378 90.2331 249.503C87.9888 249.752 85.7445 249.004 85.1211 249.378V249.503C85.1211 249.628 85.1211 249.752 85.1211 250.002C85.1211 250.126 85.1211 250.126 85.2458 250.251C85.6199 250.376 86.1186 250.5 86.4926 250.5C87.2407 250.5 91.2306 251.373 91.2306 251.373H91.3552C91.4799 251.124 91.4799 250.875 91.4799 250.75C91.3553 249.877 90.8565 249.503 90.8565 249.378Z" fill="#E5737E"/>
<path d="M84.3705 155.118C87.6122 154.993 99.9557 149.383 111.052 143.398C111.801 142.899 112.549 142.525 113.297 142.151C121.152 136.914 129.381 131.304 130.254 129.808C130.752 128.935 131.126 128.062 131.625 127.439C132.498 126.067 133.745 124.945 135.241 124.072C135.864 121.828 135.74 119.833 136.363 117.713C137.61 113.349 136.862 95.3952 144.093 88.0389C147.834 84.1738 152.322 85.7946 155.938 88.1636C157.559 88.1636 158.931 89.4104 159.305 90.9066C160.801 92.4028 161.798 93.5249 161.798 93.5249C161.798 93.5249 161.923 93.6496 162.048 93.6496C162.796 94.0237 164.791 95.1458 165.04 95.3952C165.414 95.6445 165.539 95.8939 166.037 96.642C166.287 96.8914 166.411 97.1407 166.411 97.3901C166.786 97.6395 167.035 97.8888 166.661 98.2628C166.037 98.8863 163.544 98.3875 163.045 98.3875C162.546 98.3875 160.925 98.8863 160.551 98.2628C158.681 98.5122 158.307 99.2603 157.185 103.998C156.562 106.367 167.409 126.94 169.154 139.533C171.025 152.001 150.327 160.23 144.093 163.472C143.595 163.721 142.846 163.97 141.849 164.095C141.6 164.843 141.35 165.467 141.35 166.215C141.226 169.955 141.849 176.813 143.096 180.179C170.401 172.948 190.101 148.635 189.353 119.584C188.605 84.7972 158.806 56.4942 122.897 56.3696C87.1134 56.2449 58.6859 84.4231 59.5586 119.085C59.9327 134.047 65.5434 147.762 74.7699 158.484C74.7699 156.864 79.1338 155.492 84.3705 155.118Z" fill="#974B52"/>
<path d="M75.7656 159.482C76.5137 160.355 77.3865 161.228 78.1346 162.101C79.1321 161.602 80.2542 160.979 81.5011 160.355C78.758 160.106 76.7631 159.981 75.7656 159.482Z" fill="#974B52"/>
<path d="M134.495 181.426C134.619 180.179 137.362 180.553 138.235 179.805C138.485 179.556 138.609 179.307 138.734 179.057C137.238 176.439 133.996 170.33 130.754 167.711C127.887 165.342 115.044 164.345 108.436 163.971C101.953 165.093 88.3623 166.34 85.2452 166.589C84.7465 166.589 84.1231 166.714 83.375 166.838C94.9705 176.439 109.808 182.174 126.016 182.299C129.757 182.299 133.373 182.05 136.864 181.426C136.116 181.302 135.368 181.302 134.495 181.426Z" fill="#974B52"/>
<path d="M141.599 166.09C141.599 165.342 141.848 164.719 142.098 163.971C136.612 164.844 124.144 164.22 112.423 163.223C111.301 163.472 110.553 163.597 110.054 163.721C109.556 163.846 109.057 163.971 108.434 164.095C114.917 164.469 127.884 165.467 130.752 167.836C133.994 170.454 137.235 176.564 138.731 179.182C138.981 178.683 138.731 178.185 138.731 178.185L140.477 179.307C140.477 179.307 139.854 180.179 140.851 180.803C141.724 180.678 142.472 180.429 143.22 180.179C141.973 176.688 141.474 169.831 141.599 166.09Z" fill="#A75256"/>
<path d="M74.8945 158.732C75.0192 159.106 75.2686 159.356 75.6427 159.48C75.3933 159.231 75.1439 158.857 74.8945 158.607C74.8945 158.607 74.8945 158.607 74.8945 158.732Z" fill="#A75256"/>
<path d="M88.7333 156.239C88.1099 156.239 87.7358 156.114 87.8605 155.616C88.1099 154.244 91.4763 153.621 94.4687 152.997C100.204 149.756 106.189 146.389 111.176 143.521C100.079 149.382 87.7358 154.992 84.4941 155.242C79.2574 155.491 74.8935 156.987 75.0182 158.608C75.2676 158.857 75.5169 159.231 75.7663 159.481C76.7638 159.98 78.8834 160.104 81.5017 160.229C83.4967 159.107 85.9903 157.735 88.7333 156.239Z" fill="#A75256"/>
<path d="M162.294 130.43C163.417 141.278 162.793 152.748 154.813 155.741C153.317 156.239 150.948 156.863 147.956 157.362C146.21 158.733 143.218 161.351 142.096 163.97C143.093 163.845 143.841 163.596 144.34 163.346C150.574 160.105 171.147 152 169.401 139.407C167.531 126.939 156.808 106.366 157.432 103.873C158.679 99.0102 159.053 98.3868 160.798 98.1374C160.798 98.1374 160.798 98.1375 160.674 98.0128C160.424 97.3894 159.925 96.3919 160.424 96.2672C160.798 95.1451 161.796 93.3995 161.796 93.3995C161.796 93.3995 161.92 93.5242 162.045 93.5242C161.796 93.3995 161.796 93.3995 161.796 93.3995C161.796 93.3995 160.798 92.1527 159.302 90.7812C159.302 91.0306 159.427 91.1552 159.427 91.4046C159.551 93.2748 158.055 94.7711 156.06 94.8957C154.19 94.8957 152.569 93.3995 152.444 91.5293C152.32 89.6591 153.816 88.1629 155.811 88.0382H155.936C152.32 85.6692 147.706 84.0484 144.091 87.9135C136.859 95.3945 137.607 113.349 136.36 117.588C135.737 119.708 135.862 121.702 135.238 123.947C136.734 123.074 138.48 122.575 140.226 122.451C147.582 122.326 161.546 122.451 162.294 130.43Z" fill="#A75256"/>
<path d="M147.956 157.361C143.592 158.109 137.982 158.858 132.371 159.356C124.142 161.226 116.412 162.473 112.422 163.221C124.142 164.219 136.486 164.842 142.096 163.97C143.218 161.351 146.211 158.733 147.956 157.361Z" fill="#A75256"/>
<path d="M78.1345 162.1C76.763 162.848 75.7656 163.346 75.2669 163.471C71.277 164.967 67.4118 166.962 68.2846 168.209C69.1574 169.331 78.5086 167.586 83.3712 166.838C81.501 165.341 79.7554 163.72 78.1345 162.1Z" fill="#994F55"/>
<path d="M108.431 164.096C106.062 163.971 104.565 163.971 104.565 163.971L108.431 162.973C98.8301 162.101 90.3517 161.103 87.6086 160.729C85.3644 160.48 83.2448 160.355 81.4993 160.23C80.2524 160.979 79.1303 161.477 78.1328 161.976C79.7537 163.722 81.4993 165.218 83.3695 166.839C84.1176 166.714 84.8657 166.714 85.2397 166.589C88.2321 166.465 101.947 165.218 108.431 164.096Z" fill="#994F55"/>
<path d="M113.295 142.15C112.547 142.524 111.799 143.023 111.051 143.397C111.55 143.148 112.173 142.774 112.672 142.524C112.796 142.524 113.046 142.4 113.295 142.15Z" fill="#994F55"/>
<path d="M112.425 163.347C111.054 163.222 109.682 163.097 108.435 162.973L104.57 163.97C104.57 163.97 106.066 163.97 108.435 164.095C109.059 163.97 109.682 163.845 110.056 163.721C110.555 163.596 111.428 163.471 112.425 163.347Z" fill="#994F55"/>
<path d="M112.672 142.65C112.173 142.9 111.55 143.274 111.051 143.523C106.064 146.391 100.079 149.757 94.3438 152.999C96.214 152.625 97.9595 152.251 98.7076 151.752C99.5804 151.004 105.939 147.014 112.672 142.65Z" fill="#994F55"/>
<path d="M105.318 159.856C101.453 157.861 84.995 158.11 94.3462 155.991C103.697 153.996 122.898 149.133 109.807 151.253C99.3334 152.998 91.2291 156.115 88.7355 156.115C85.9925 157.611 83.6235 158.983 81.5039 160.23C83.2495 160.355 85.369 160.479 87.6133 160.729C90.3563 161.103 98.8347 162.1 108.435 162.973L119.033 160.355C112.051 160.604 106.69 160.479 105.318 159.856Z" fill="#994F55"/>
<path d="M132.373 159.355C127.759 159.73 123.146 160.104 119.032 160.353L108.434 162.971C109.805 163.096 111.052 163.221 112.423 163.345C116.413 162.597 124.144 161.226 132.373 159.355Z" fill="#994F55"/>
<path d="M124.14 135.917C126.509 133.922 129.501 130.556 133.74 127.19C134.364 126.067 134.738 125.07 134.987 124.197C133.616 125.07 132.369 126.192 131.371 127.564C130.873 128.312 130.498 129.06 130 129.933C129.252 131.429 120.898 137.04 113.043 142.276C116.659 140.281 119.526 138.66 120.898 137.912C122.269 137.164 123.267 136.541 124.14 135.917Z" fill="#A75256"/>
<path d="M136.24 125.443C143.472 120.331 155.441 126.315 155.441 126.315C155.441 126.315 158.932 135.043 161.551 145.267C162.548 149.008 156.439 152.374 148.085 155.242L149.332 156.489C149.332 156.489 148.833 156.863 147.96 157.486C150.953 156.987 153.322 156.364 154.818 155.865C162.922 152.748 163.421 141.277 162.299 130.555C161.551 122.575 147.461 122.45 140.105 122.824C138.36 122.949 136.614 123.448 135.118 124.32C134.869 125.318 134.495 126.315 133.871 127.313C134.619 126.565 135.367 126.066 136.24 125.443Z" fill="#A75256"/>
<path d="M121.897 137.414C122.645 137.165 123.393 136.541 124.141 135.918C123.143 136.541 122.146 137.165 121.148 137.788C121.522 137.664 121.772 137.539 121.897 137.414Z" fill="#A75256"/>
<path d="M87.8598 155.616C87.7351 155.99 88.1092 156.24 88.7326 156.24C90.6029 155.242 92.4731 154.12 94.468 152.998C91.3509 153.621 88.1092 154.245 87.8598 155.616Z" fill="#A75256"/>
<path d="M149.328 156.366L148.081 155.119C143.218 156.74 137.732 158.112 132.371 159.358C138.106 158.86 143.717 158.112 147.956 157.363C148.829 156.74 149.328 156.366 149.328 156.366Z" fill="#A75256"/>
<path d="M128.758 132.675C131.251 130.681 132.748 128.81 133.745 127.189C129.506 130.556 126.513 133.922 124.145 135.917C126.139 134.795 127.636 133.673 128.758 132.675Z" fill="#A75256"/>
<path d="M121.154 137.787C119.783 138.535 116.915 140.156 113.299 142.151C113.05 142.276 112.925 142.4 112.676 142.525C115.668 141.029 118.536 139.408 121.154 137.787Z" fill="#A75256"/>
<path d="M94.3454 155.99C84.9943 157.985 101.328 157.86 105.317 159.855C106.689 160.603 112.175 160.603 119.033 160.354L146.587 153.496L148.208 155.117C156.562 152.374 162.671 149.007 161.674 145.142C159.056 134.918 155.564 126.191 155.564 126.191C155.564 126.191 143.595 120.206 136.363 125.318C135.491 125.941 134.743 126.565 133.994 127.188C132.997 128.809 131.501 130.679 129.007 132.674C127.885 133.547 126.264 134.669 124.394 135.916C123.646 136.539 122.898 137.038 122.15 137.412C122.025 137.537 121.651 137.661 121.277 137.786C118.658 139.282 115.791 140.903 112.798 142.524C106.066 147.013 99.7068 151.002 98.9587 151.626C98.2106 152.125 96.465 152.499 94.5948 152.873C92.5999 153.995 90.7296 155.117 88.8594 156.114C91.4777 156.114 99.4574 152.997 109.931 151.252C123.022 149.132 103.697 153.995 94.3454 155.99Z" fill="#A75256"/>
<path d="M146.465 153.496L118.91 160.354C123.025 160.229 127.638 159.855 132.251 159.356C137.612 158.109 143.223 156.738 147.961 155.117L146.465 153.496Z" fill="#A75256"/>
<path d="M155.938 88.2871C157.184 89.1599 158.306 90.1574 159.304 91.0301C158.93 89.4093 157.558 88.2871 155.938 88.2871Z" fill="#F37880"/>
<path d="M152.32 91.6532C152.445 93.5235 154.066 95.0196 155.936 95.0196C157.806 95.0196 159.302 93.3988 159.302 91.5285C159.302 91.2792 159.303 91.1545 159.178 90.9051C158.18 90.0324 157.058 89.0349 155.811 88.1621H155.687C153.817 88.2868 152.32 89.783 152.32 91.6532ZM158.43 91.7779C158.43 93.0248 157.432 94.0222 156.185 94.0222C154.939 94.0222 153.816 93.0248 153.692 91.7779C153.692 90.5311 154.689 89.5336 155.936 89.5336C157.308 89.5336 158.43 90.5311 158.43 91.7779Z" fill="#F37880"/>
<path d="M153.815 91.7775C153.815 93.0243 154.937 94.0218 156.309 94.0218C157.556 94.0218 158.553 93.0243 158.553 91.7775C158.553 90.5307 157.431 89.5332 156.059 89.5332C154.688 89.5332 153.691 90.5307 153.815 91.7775ZM155.436 90.5307C155.81 90.406 156.434 90.2813 156.932 90.6553C157.805 91.2787 157.556 91.9022 157.556 92.0269C157.306 92.4009 157.182 92.8996 155.436 92.5256C155.187 92.5256 154.688 92.1515 154.688 91.5281C154.688 91.1541 155.062 90.78 155.436 90.5307Z" fill="#A75256"/>
<path d="M166.411 97.3889C166.286 97.1395 166.161 96.8902 166.037 96.6408C165.538 95.8927 165.413 95.6433 165.039 95.394C164.79 95.2693 162.795 94.1472 162.047 93.6484C162.92 94.1472 165.164 95.394 165.289 95.5187C165.413 95.768 166.161 96.6408 166.411 97.3889Z" fill="#F37880"/>
<path d="M160.301 96.3914C160.301 96.3914 160.425 96.3914 160.301 96.3914C160.425 96.3914 164.415 97.2642 165.288 97.1395C165.662 97.1395 166.161 97.2642 166.535 97.3889C166.161 96.6408 165.537 95.768 165.413 95.6433C165.288 95.5186 163.044 94.2718 162.171 93.7731C162.046 93.6484 161.922 93.6484 161.922 93.6484C161.922 93.6484 160.675 95.2693 160.301 96.3914Z" fill="#F37880"/>
<path d="M139.355 180.179C139.23 179.93 138.981 179.556 138.731 179.182C138.607 179.431 138.482 179.68 138.233 179.93C137.36 180.678 134.742 180.304 134.492 181.551C135.24 181.301 136.113 181.426 136.861 181.551C137.859 181.426 138.981 181.177 139.978 180.927C139.729 180.678 139.479 180.428 139.355 180.179Z" fill="#A75256"/>
<path d="M140.476 179.181L138.73 178.059C138.73 178.059 138.855 178.557 138.73 179.056C138.98 179.555 139.229 179.929 139.354 180.054C139.479 180.178 139.728 180.428 139.977 180.802C140.227 180.802 140.601 180.677 140.85 180.552C139.853 180.054 140.476 179.181 140.476 179.181Z" fill="#A75256"/>
<path d="M155.314 92.5278C157.06 92.9018 157.185 92.4031 157.434 92.0291C157.559 91.9044 157.683 91.281 156.811 90.6576C156.312 90.2835 155.813 90.4082 155.314 90.5329C154.816 90.6576 154.566 91.0316 154.566 91.5303C154.691 92.2784 155.19 92.5278 155.314 92.5278Z" fill="#5C414E"/>
<path d="M166.661 98.1387C166.661 98.2634 166.661 98.2634 166.661 98.2634C166.536 98.5127 165.913 98.3881 164.915 98.2634C163.793 98.1387 160.925 98.2634 160.925 98.2634H160.801C161.3 98.8868 162.796 98.5128 163.294 98.3881C163.793 98.2634 166.287 98.8868 166.91 98.2634C167.16 97.8893 167.035 97.64 166.661 97.3906C166.661 97.5153 166.786 97.5153 166.786 97.64C166.661 97.8893 166.661 98.014 166.661 98.1387Z" fill="#E5737E"/>
<path d="M160.179 97.141C160.179 97.0163 160.179 96.7669 160.303 96.5176C159.805 96.7669 160.303 97.6397 160.553 98.2631C160.553 98.2631 160.553 98.3878 160.677 98.3878H160.802C160.677 98.1384 160.303 97.7644 160.179 97.141Z" fill="#E5737E"/>
<path d="M166.535 97.64C166.535 97.5153 166.535 97.5153 166.41 97.3906C166.535 97.5153 166.535 97.64 166.535 97.64Z" fill="#E5737E"/>
<path d="M161.424 98.1379C161.175 98.1379 161.05 98.1379 160.801 98.2626C160.801 98.2626 163.668 98.1379 164.791 98.2626C165.788 98.3872 166.411 98.3872 166.536 98.2626C166.037 98.6366 163.668 98.0132 161.424 98.1379Z" fill="#E5737E"/>
<path d="M160.803 98.2625C161.052 98.2625 161.177 98.2625 161.426 98.1378C163.67 97.8884 166.039 98.6366 166.538 98.2625V98.1378C166.538 98.0131 166.538 97.8885 166.538 97.6391C166.538 97.5144 166.538 97.5144 166.413 97.3898C166.039 97.2651 165.541 97.1404 165.167 97.1404C164.294 97.1404 160.304 96.2676 160.304 96.2676H160.179C160.055 96.5169 160.055 96.7663 160.055 96.891C160.304 97.7638 160.678 98.1378 160.803 98.2625Z" fill="#E5737E"/>
<path d="M243.426 346.889L247.56 346.93L247.464 342.797L239.734 9.02231L239.644 5.11707L235.737 5.11492L9.0647 4.99024L4.97121 4.98798L5.06352 9.08044L12.5445 340.736L12.6318 344.607L16.5039 344.645L243.426 346.889Z" stroke="#FFF1F0" stroke-width="8"/>
</svg>
