<svg width="245" height="349" viewBox="0 0 245 349" fill="none" xmlns="http://www.w3.org/2000/svg">
<path d="M236.735 340.145L8.31641 340.644L17.0442 8.36523L227.508 9.11334L236.735 340.145Z" fill="#A75256"/>
<g opacity="0.3">
<g opacity="0.3">
<path opacity="0.3" d="M138.735 22.7031L27.1439 130.429L26.8945 139.531L147.712 22.7031H138.735Z" stroke="#FEF1F0" stroke-width="2" stroke-miterlimit="10"/>
<path opacity="0.3" d="M183.247 22.8281L26.0228 176.312L25.7734 185.663L192.1 22.8281H183.247Z" stroke="#FEF1F0" stroke-width="2" stroke-miterlimit="10"/>
<path opacity="0.3" d="M174.395 22.8281L26.2728 167.086L26.0234 176.312L183.248 22.8281H174.395Z" stroke="#FEF1F0" stroke-width="2" stroke-miterlimit="10"/>
<path opacity="0.3" d="M147.715 22.7031L26.8978 139.531L26.6484 148.632L156.567 22.7031H147.715Z" stroke="#FEF1F0" stroke-width="2" stroke-miterlimit="10"/>
<path opacity="0.3" d="M165.419 22.8281L26.5228 157.859L26.2734 167.086L174.396 22.8281H165.419Z" stroke="#FEF1F0" stroke-width="2" stroke-miterlimit="10"/>
<path opacity="0.3" d="M156.563 22.7031L26.6442 148.632L26.5195 157.859L165.416 22.8278L156.563 22.7031Z" stroke="#FEF1F0" stroke-width="2" stroke-miterlimit="10"/>
<path opacity="0.3" d="M192.099 22.8281L25.7731 185.663L25.6484 195.015L201.077 22.8281H192.099Z" stroke="#FEF1F0" stroke-width="2" stroke-miterlimit="10"/>
<path opacity="0.3" d="M201.076 22.8281L25.6478 195.015L25.3984 204.366L209.928 22.9528L201.076 22.8281Z" stroke="#FEF1F0" stroke-width="2" stroke-miterlimit="10"/>
<path opacity="0.3" d="M217.162 42.1523L24.7767 232.792L24.5273 242.392L217.411 50.8801L217.162 42.1523Z" stroke="#FEF1F0" stroke-width="2" stroke-miterlimit="10"/>
<path opacity="0.3" d="M217.406 50.8809L24.5228 242.393L24.2734 251.994L217.656 59.6086L217.406 50.8809Z" stroke="#FEF1F0" stroke-width="2" stroke-miterlimit="10"/>
<path opacity="0.3" d="M216.913 33.5488L24.902 223.315L24.7773 232.791L217.162 42.1519L216.913 33.5488Z" stroke="#FEF1F0" stroke-width="2" stroke-miterlimit="10"/>
<path opacity="0.3" d="M216.665 22.9512H209.932L25.4017 204.364L25.1523 213.84L216.789 24.9461L216.665 22.9512Z" stroke="#FEF1F0" stroke-width="2" stroke-miterlimit="10"/>
<path opacity="0.3" d="M216.785 24.9453L25.1478 213.839L24.8984 223.315L216.909 33.5484L216.785 24.9453Z" stroke="#FEF1F0" stroke-width="2" stroke-miterlimit="10"/>
<path opacity="0.3" d="M85.3699 22.4531L28.39 76.69L28.1406 85.5424L94.2223 22.5778L85.3699 22.4531Z" stroke="#FEF1F0" stroke-width="2" stroke-miterlimit="10"/>
<path opacity="0.3" d="M67.5412 22.4531L28.765 59.1097L28.5156 67.8375L76.3937 22.4531H67.5412Z" stroke="#FEF1F0" stroke-width="2" stroke-miterlimit="10"/>
<path opacity="0.3" d="M49.5879 22.3281L29.14 41.6539L28.8906 50.3817L58.5651 22.4528L49.5879 22.3281Z" stroke="#FEF1F0" stroke-width="2" stroke-miterlimit="10"/>
<path opacity="0.3" d="M58.5647 22.4531L28.8903 50.382L28.7656 59.1097L67.5418 22.4531H58.5647Z" stroke="#FEF1F0" stroke-width="2" stroke-miterlimit="10"/>
<path opacity="0.3" d="M40.7361 22.3281L29.39 33.0508L29.1406 41.6539L49.5885 22.3281H40.7361Z" stroke="#FEF1F0" stroke-width="2" stroke-miterlimit="10"/>
<path opacity="0.3" d="M31.7596 22.3281L29.5153 24.4477L29.3906 33.0508L40.7367 22.3281H31.7596Z" stroke="#FEF1F0" stroke-width="2" stroke-miterlimit="10"/>
<path opacity="0.3" d="M29.6403 22.3281L29.5156 24.4477L31.7599 22.3281H29.6403Z" stroke="#FEF1F0" stroke-width="2" stroke-miterlimit="10"/>
<path opacity="0.3" d="M121.031 22.5762L27.5189 112.348L27.2695 121.325L129.883 22.7008L121.031 22.5762Z" stroke="#FEF1F0" stroke-width="2" stroke-miterlimit="10"/>
<path opacity="0.3" d="M103.198 22.5762L27.8903 94.3932L27.7656 103.37L112.051 22.5762H103.198Z" stroke="#FEF1F0" stroke-width="2" stroke-miterlimit="10"/>
<path opacity="0.3" d="M112.054 22.5762L27.7689 103.37L27.5195 112.347L121.031 22.5762H112.054Z" stroke="#FEF1F0" stroke-width="2" stroke-miterlimit="10"/>
<path opacity="0.3" d="M129.883 22.7031L27.2692 121.327L27.1445 130.429L138.735 22.7031H129.883Z" stroke="#FEF1F0" stroke-width="2" stroke-miterlimit="10"/>
<path opacity="0.3" d="M94.2255 22.5762L28.1439 85.5408L27.8945 94.3932L103.203 22.5762H94.2255Z" stroke="#FEF1F0" stroke-width="2" stroke-miterlimit="10"/>
<path opacity="0.3" d="M76.3933 22.4531L28.5153 67.8375L28.3906 76.69L85.3705 22.4531H76.3933Z" stroke="#FEF1F0" stroke-width="2" stroke-miterlimit="10"/>
<path opacity="0.3" d="M217.659 59.6094L24.2767 251.994L24.0273 261.72L217.908 68.3371L217.659 59.6094Z" stroke="#FEF1F0" stroke-width="2" stroke-miterlimit="10"/>
<path opacity="0.3" d="M223.52 290.645L186.863 329.545H196.464L223.769 300.494L223.52 290.645Z" stroke="#FEF1F0" stroke-width="2" stroke-miterlimit="10"/>
<path opacity="0.3" d="M222.025 232.666L129.262 329.669L138.862 329.544L222.275 242.267L222.025 232.666Z" stroke="#FEF1F0" stroke-width="2" stroke-miterlimit="10"/>
<path opacity="0.3" d="M221.771 223.191L119.656 329.67H129.257L222.02 232.667L221.771 223.191Z" stroke="#FEF1F0" stroke-width="2" stroke-miterlimit="10"/>
<path opacity="0.3" d="M222.522 251.867L148.461 329.544H158.061L222.772 261.468L222.522 251.867Z" stroke="#FEF1F0" stroke-width="2" stroke-miterlimit="10"/>
<path opacity="0.3" d="M221.024 195.014L90.7305 329.671H100.331L221.273 204.365L221.024 195.014Z" stroke="#FEF1F0" stroke-width="2" stroke-miterlimit="10"/>
<path opacity="0.3" d="M221.528 213.715L109.938 329.669H119.663L221.778 223.191L221.528 213.715Z" stroke="#FEF1F0" stroke-width="2" stroke-miterlimit="10"/>
<path opacity="0.3" d="M221.274 204.365L100.332 329.671H109.933L221.523 213.716L221.274 204.365Z" stroke="#FEF1F0" stroke-width="2" stroke-miterlimit="10"/>
<path opacity="0.3" d="M222.272 242.268L138.859 329.545H148.46L222.521 251.868L222.272 242.268Z" stroke="#FEF1F0" stroke-width="2" stroke-miterlimit="10"/>
<path opacity="0.3" d="M222.769 261.471L158.059 329.547H167.659L223.018 271.196L222.769 261.471Z" stroke="#FEF1F0" stroke-width="2" stroke-miterlimit="10"/>
<path opacity="0.3" d="M224.516 329.422L224.267 320.195L215.664 329.422H224.516Z" stroke="#FEF1F0" stroke-width="2" stroke-miterlimit="10"/>
<path opacity="0.3" d="M224.266 320.194L224.017 310.344L206.062 329.42H215.663L224.266 320.194Z" stroke="#FEF1F0" stroke-width="2" stroke-miterlimit="10"/>
<path opacity="0.3" d="M223.77 300.494L196.465 329.545L206.065 329.42L224.02 310.344L223.77 300.494Z" stroke="#FEF1F0" stroke-width="2" stroke-miterlimit="10"/>
<path opacity="0.3" d="M223.273 280.92L177.266 329.546H186.866L223.523 290.645L223.273 280.92Z" stroke="#FEF1F0" stroke-width="2" stroke-miterlimit="10"/>
<path opacity="0.3" d="M223.019 271.193L167.66 329.545H177.261L223.268 280.919L223.019 271.193Z" stroke="#FEF1F0" stroke-width="2" stroke-miterlimit="10"/>
<path opacity="0.3" d="M219.407 130.678L23.2812 329.796H32.8818L219.656 139.655L219.407 130.678Z" stroke="#FEF1F0" stroke-width="2" stroke-miterlimit="10"/>
<path opacity="0.3" d="M218.534 94.7676L23.4056 291.018L23.1562 300.868L218.783 103.62L218.534 94.7676Z" stroke="#FEF1F0" stroke-width="2" stroke-miterlimit="10"/>
<path opacity="0.3" d="M218.782 103.619L23.1556 300.867L22.9062 310.717L219.032 112.596L218.782 103.619Z" stroke="#FEF1F0" stroke-width="2" stroke-miterlimit="10"/>
<path opacity="0.3" d="M219.155 121.574L22.6559 320.692L22.5312 329.794H23.2793L219.405 130.676L219.155 121.574Z" stroke="#FEF1F0" stroke-width="2" stroke-miterlimit="10"/>
<path opacity="0.3" d="M219.031 112.6L22.9056 310.72L22.6562 320.695L219.156 121.577L219.031 112.6Z" stroke="#FEF1F0" stroke-width="2" stroke-miterlimit="10"/>
<path opacity="0.3" d="M218.281 85.916L23.6517 281.169L23.4023 291.019L218.53 94.7685L218.281 85.916Z" stroke="#FEF1F0" stroke-width="2" stroke-miterlimit="10"/>
<path opacity="0.3" d="M218.032 77.0645L23.777 271.444L23.6523 281.17L218.282 85.9169L218.032 77.0645Z" stroke="#FEF1F0" stroke-width="2" stroke-miterlimit="10"/>
<path opacity="0.3" d="M217.908 68.3359L24.0267 261.718L23.7773 271.444L218.033 77.0637L217.908 68.3359Z" stroke="#FEF1F0" stroke-width="2" stroke-miterlimit="10"/>
<path opacity="0.3" d="M220.401 167.209L61.8047 329.795H71.5299L220.525 176.435L220.401 167.209Z" stroke="#FEF1F0" stroke-width="2" stroke-miterlimit="10"/>
<path opacity="0.3" d="M220.527 176.436L71.5312 329.795L81.1318 329.67L220.776 185.662L220.527 176.436Z" stroke="#FEF1F0" stroke-width="2" stroke-miterlimit="10"/>
<path opacity="0.3" d="M220.154 157.984L52.207 329.797H61.8076L220.404 167.211L220.154 157.984Z" stroke="#FEF1F0" stroke-width="2" stroke-miterlimit="10"/>
<path opacity="0.3" d="M219.657 139.654L32.8828 329.795H42.608L219.906 148.756L219.657 139.654Z" stroke="#FEF1F0" stroke-width="2" stroke-miterlimit="10"/>
<path opacity="0.3" d="M219.904 148.756L42.6055 329.795H52.206L220.153 157.982L219.904 148.756Z" stroke="#FEF1F0" stroke-width="2" stroke-miterlimit="10"/>
<path opacity="0.3" d="M220.777 185.662L81.1328 329.67H90.7334L221.026 195.013L220.777 185.662Z" stroke="#FEF1F0" stroke-width="2" stroke-miterlimit="10"/>
</g>
<g opacity="0.3">
<path opacity="0.3" d="M107.813 22.5762L219.404 130.676L219.653 139.778L98.9609 22.5762H107.813Z" stroke="#FEF1F0" stroke-width="2" stroke-miterlimit="10"/>
<path opacity="0.3" d="M63.1767 22.4531L220.526 176.436L220.775 185.787L54.3242 22.4531H63.1767Z" stroke="#FEF1F0" stroke-width="2" stroke-miterlimit="10"/>
<path opacity="0.3" d="M72.1568 22.4531L220.404 167.209L220.529 176.436L63.1797 22.4531H72.1568Z" stroke="#FEF1F0" stroke-width="2" stroke-miterlimit="10"/>
<path opacity="0.3" d="M98.9654 22.5778L219.658 139.779L219.907 148.881L89.9883 22.4531L98.9654 22.5778Z" stroke="#FEF1F0" stroke-width="2" stroke-miterlimit="10"/>
<path opacity="0.3" d="M81.0087 22.4531L220.154 157.983L220.404 167.209L72.1562 22.4531H81.0087Z" stroke="#FEF1F0" stroke-width="2" stroke-miterlimit="10"/>
<path opacity="0.3" d="M89.981 22.4531L219.9 148.881L220.149 157.983L81.0039 22.4531H89.981Z" stroke="#FEF1F0" stroke-width="2" stroke-miterlimit="10"/>
<path opacity="0.3" d="M54.3248 22.4528L220.776 185.787L221.025 195.013L45.3477 22.3281L54.3248 22.4528Z" stroke="#FEF1F0" stroke-width="2" stroke-miterlimit="10"/>
<path opacity="0.3" d="M45.3486 22.3281L221.026 195.013L221.275 204.489L36.4961 22.3281H45.3486Z" stroke="#FEF1F0" stroke-width="2" stroke-miterlimit="10"/>
<path opacity="0.3" d="M29.1403 41.6543L222.024 232.792L222.273 242.393L29.0156 50.2574L29.1403 41.6543Z" stroke="#FEF1F0" stroke-width="2" stroke-miterlimit="10"/>
<path opacity="0.3" d="M29.015 50.2578L222.273 242.393L222.522 251.869L28.7656 58.9856L29.015 50.2578Z" stroke="#FEF1F0" stroke-width="2" stroke-miterlimit="10"/>
<path opacity="0.3" d="M29.39 32.9258L221.775 223.316L222.024 232.792L29.1406 41.6535L29.39 32.9258Z" stroke="#FEF1F0" stroke-width="2" stroke-miterlimit="10"/>
<path opacity="0.3" d="M29.6403 22.3281H36.4978L221.277 204.489L221.527 213.84L29.5156 24.3231L29.6403 22.3281Z" stroke="#FEF1F0" stroke-width="2" stroke-miterlimit="10"/>
<path opacity="0.3" d="M29.5153 24.3223L221.526 213.84L221.776 223.315L29.3906 32.9253L29.5153 24.3223Z" stroke="#FEF1F0" stroke-width="2" stroke-miterlimit="10"/>
<path opacity="0.3" d="M161.181 22.7031L218.036 77.1894L218.285 85.9171L152.328 22.7031H161.181Z" stroke="#FEF1F0" stroke-width="2" stroke-miterlimit="10"/>
<path opacity="0.3" d="M179.005 22.8281L217.656 59.6094L217.906 68.3372L170.152 22.8281H179.005Z" stroke="#FEF1F0" stroke-width="2" stroke-miterlimit="10"/>
<path opacity="0.3" d="M196.84 22.8281L217.164 42.2786L217.413 50.8817L187.863 22.8281H196.84Z" stroke="#FEF1F0" stroke-width="2" stroke-miterlimit="10"/>
<path opacity="0.3" d="M187.86 22.8281L217.41 50.8817L217.659 59.6094L179.008 22.8281H187.86Z" stroke="#FEF1F0" stroke-width="2" stroke-miterlimit="10"/>
<path opacity="0.3" d="M205.692 22.9528L216.914 33.5508L217.163 42.2786L196.84 22.8281L205.692 22.9528Z" stroke="#FEF1F0" stroke-width="2" stroke-miterlimit="10"/>
<path opacity="0.3" d="M214.54 22.9512L216.784 25.0708L216.909 33.5492L205.688 22.9512H214.54Z" stroke="#FEF1F0" stroke-width="2" stroke-miterlimit="10"/>
<path opacity="0.3" d="M216.663 22.9512L216.787 25.0708L214.543 22.9512H216.663Z" stroke="#FEF1F0" stroke-width="2" stroke-miterlimit="10"/>
<path opacity="0.3" d="M125.645 22.5762L219.032 112.722L219.157 121.699L116.668 22.5762H125.645Z" stroke="#FEF1F0" stroke-width="2" stroke-miterlimit="10"/>
<path opacity="0.3" d="M143.473 22.7031L218.532 94.8943L218.781 103.747L134.496 22.7031H143.473Z" stroke="#FEF1F0" stroke-width="2" stroke-miterlimit="10"/>
<path opacity="0.3" d="M134.497 22.7008L218.782 103.744L219.032 112.722L125.645 22.5762L134.497 22.7008Z" stroke="#FEF1F0" stroke-width="2" stroke-miterlimit="10"/>
<path opacity="0.3" d="M116.665 22.5762L219.154 121.699L219.403 130.676L107.812 22.5762H116.665Z" stroke="#FEF1F0" stroke-width="2" stroke-miterlimit="10"/>
<path opacity="0.3" d="M152.325 22.7031L218.282 85.9171L218.531 94.8943L143.473 22.7031H152.325Z" stroke="#FEF1F0" stroke-width="2" stroke-miterlimit="10"/>
<path opacity="0.3" d="M170.153 22.8278L217.906 68.3369L218.031 77.1894L161.176 22.7031L170.153 22.8278Z" stroke="#FEF1F0" stroke-width="2" stroke-miterlimit="10"/>
<path opacity="0.3" d="M28.765 58.9844L222.521 251.868L222.771 261.593L28.5156 67.8368L28.765 58.9844Z" stroke="#FEF1F0" stroke-width="2" stroke-miterlimit="10"/>
<path opacity="0.3" d="M23.4056 290.895L60.3116 329.795H50.711L23.1562 300.744L23.4056 290.895Z" stroke="#FEF1F0" stroke-width="2" stroke-miterlimit="10"/>
<path opacity="0.3" d="M24.7767 232.793L118.039 329.671H108.439L24.5273 242.394L24.7767 232.793Z" stroke="#FEF1F0" stroke-width="2" stroke-miterlimit="10"/>
<path opacity="0.3" d="M24.902 223.191L127.64 329.67H118.04L24.7773 232.792L24.902 223.191Z" stroke="#FEF1F0" stroke-width="2" stroke-miterlimit="10"/>
<path opacity="0.3" d="M24.2767 251.992L98.8368 329.669H89.2362L24.0273 261.593L24.2767 251.992Z" stroke="#FEF1F0" stroke-width="2" stroke-miterlimit="10"/>
<path opacity="0.3" d="M25.6478 194.889L156.564 329.546H146.964L25.3984 204.365L25.6478 194.889Z" stroke="#FEF1F0" stroke-width="2" stroke-miterlimit="10"/>
<path opacity="0.3" d="M25.1478 213.715L137.237 329.545L127.637 329.669L24.8984 223.191L25.1478 213.715Z" stroke="#FEF1F0" stroke-width="2" stroke-miterlimit="10"/>
<path opacity="0.3" d="M25.4017 204.365L146.967 329.546H137.242L25.1523 213.716L25.4017 204.365Z" stroke="#FEF1F0" stroke-width="2" stroke-miterlimit="10"/>
<path opacity="0.3" d="M24.5228 242.393L108.434 329.67H98.8335L24.2734 251.993L24.5228 242.393Z" stroke="#FEF1F0" stroke-width="2" stroke-miterlimit="10"/>
<path opacity="0.3" d="M24.0267 261.594L89.2356 329.67H79.6351L23.7773 271.319L24.0267 261.594Z" stroke="#FEF1F0" stroke-width="2" stroke-miterlimit="10"/>
<path opacity="0.3" d="M22.5312 329.795L22.6559 320.568L31.3837 329.795H22.5312Z" stroke="#FEF1F0" stroke-width="2" stroke-miterlimit="10"/>
<path opacity="0.3" d="M22.6562 320.569L22.9056 310.719L40.9846 329.795H31.384L22.6562 320.569Z" stroke="#FEF1F0" stroke-width="2" stroke-miterlimit="10"/>
<path opacity="0.3" d="M23.1556 300.744L50.7104 329.795H40.9852L22.9062 310.719L23.1556 300.744Z" stroke="#FEF1F0" stroke-width="2" stroke-miterlimit="10"/>
<path opacity="0.3" d="M23.6517 281.045L69.9089 329.796H60.3083L23.4023 290.895L23.6517 281.045Z" stroke="#FEF1F0" stroke-width="2" stroke-miterlimit="10"/>
<path opacity="0.3" d="M23.777 271.318L79.6348 329.67L69.9095 329.794L23.6523 281.044L23.777 271.318Z" stroke="#FEF1F0" stroke-width="2" stroke-miterlimit="10"/>
<path opacity="0.3" d="M27.1439 130.303L223.643 329.421H214.043L26.8945 139.405L27.1439 130.303Z" stroke="#FEF1F0" stroke-width="2" stroke-miterlimit="10"/>
<path opacity="0.3" d="M27.8903 94.3965L223.517 290.771L223.766 300.496L27.7656 103.249L27.8903 94.3965Z" stroke="#FEF1F0" stroke-width="2" stroke-miterlimit="10"/>
<path opacity="0.3" d="M27.7689 103.248L223.77 300.496L224.019 310.346L27.5195 112.225L27.7689 103.248Z" stroke="#FEF1F0" stroke-width="2" stroke-miterlimit="10"/>
<path opacity="0.3" d="M27.2692 121.326L224.267 320.319L224.517 329.421H223.644L27.1445 130.303L27.2692 121.326Z" stroke="#FEF1F0" stroke-width="2" stroke-miterlimit="10"/>
<path opacity="0.3" d="M27.5189 112.225L224.018 310.345L224.268 320.32L27.2695 121.326L27.5189 112.225Z" stroke="#FEF1F0" stroke-width="2" stroke-miterlimit="10"/>
<path opacity="0.3" d="M28.1439 85.416L223.272 280.918L223.521 290.768L27.8945 94.3931L28.1439 85.416Z" stroke="#FEF1F0" stroke-width="2" stroke-miterlimit="10"/>
<path opacity="0.3" d="M28.39 76.5645L223.019 271.194L223.269 280.919L28.1406 85.4169L28.39 76.5645Z" stroke="#FEF1F0" stroke-width="2" stroke-miterlimit="10"/>
<path opacity="0.3" d="M28.5153 67.8379L222.77 261.594L223.02 271.195L28.3906 76.5657L28.5153 67.8379Z" stroke="#FEF1F0" stroke-width="2" stroke-miterlimit="10"/>
<path opacity="0.3" d="M26.2728 166.959L185.368 329.545H175.767L26.0234 176.31L26.2728 166.959Z" stroke="#FEF1F0" stroke-width="2" stroke-miterlimit="10"/>
<path opacity="0.3" d="M26.0228 176.311L175.766 329.545H166.166L25.7734 185.537L26.0228 176.311Z" stroke="#FEF1F0" stroke-width="2" stroke-miterlimit="10"/>
<path opacity="0.3" d="M26.5228 157.732L194.844 329.545H185.368L26.2734 166.959L26.5228 157.732Z" stroke="#FEF1F0" stroke-width="2" stroke-miterlimit="10"/>
<path opacity="0.3" d="M26.8978 139.406L214.046 329.422H204.446L26.6484 148.633L26.8978 139.406Z" stroke="#FEF1F0" stroke-width="2" stroke-miterlimit="10"/>
<path opacity="0.3" d="M26.6442 148.633L204.441 329.422L194.841 329.547L26.5195 157.735L26.6442 148.633Z" stroke="#FEF1F0" stroke-width="2" stroke-miterlimit="10"/>
<path opacity="0.3" d="M25.7731 185.537L166.166 329.545H156.565L25.6484 194.888L25.7731 185.537Z" stroke="#FEF1F0" stroke-width="2" stroke-miterlimit="10"/>
</g>
</g>
<path d="M162.423 184.792C159.306 184.917 147.212 190.652 136.365 196.637C135.616 197.136 134.868 197.51 134.12 197.884C126.39 203.12 118.161 208.98 117.413 210.477C116.914 211.349 116.415 212.222 116.041 212.845C115.168 214.217 113.922 215.464 112.55 216.212C111.927 218.581 111.927 220.576 111.303 222.695C109.932 227.184 110.181 245.637 102.95 253.367C99.2091 257.357 94.7206 255.736 91.2295 253.243C89.6086 253.243 88.2371 251.996 87.9877 250.5C86.4915 249.003 85.6188 247.757 85.6188 247.757C85.6188 247.757 85.4941 247.632 85.3694 247.632C84.6213 247.133 82.7511 246.011 82.5017 245.886C82.1277 245.637 82.003 245.388 81.5043 244.64C81.3796 244.39 81.2549 244.016 81.1302 243.767C80.7561 243.517 80.5068 243.268 80.8809 242.894C81.5043 242.271 83.8732 242.769 84.3719 242.769C84.8707 242.645 86.3669 242.271 86.8656 242.894C88.6111 242.645 89.1099 241.897 90.3567 236.909C90.9801 234.416 81.1302 213.469 79.7587 200.751C78.3872 188.158 98.5858 179.805 104.695 176.563C105.194 176.314 105.942 176.064 106.815 175.94C107.064 175.191 107.313 174.568 107.313 173.82C107.438 170.079 107.189 163.347 106.067 159.855C79.5093 167.087 59.6849 191.525 59.1861 220.95C58.6874 256.858 87.2396 286.408 122.899 286.283C158.558 286.283 186.861 256.734 186.362 220.95C186.113 205.739 180.627 191.899 171.774 181.051C171.65 183.046 167.41 184.418 162.423 184.792Z" fill="#974B52"/>
<path d="M170.779 180.427C170.031 179.554 169.283 178.681 168.535 177.809C167.662 178.307 166.54 178.931 165.293 179.679C167.787 179.804 169.782 179.928 170.779 180.427Z" fill="#974B52"/>
<path d="M114.298 158.732C114.049 159.979 111.555 159.605 110.682 160.353C110.433 160.603 110.308 160.852 110.184 161.101C111.555 163.72 114.547 169.829 117.665 172.448C120.408 174.692 132.751 175.689 139.11 176.063C145.344 174.941 158.685 173.57 161.553 173.445C162.051 173.445 162.675 173.32 163.423 173.196C152.326 163.72 138.112 157.984 122.527 157.984C118.911 157.984 115.42 158.234 112.054 158.857C112.802 158.857 113.55 158.982 114.298 158.732Z" fill="#974B52"/>
<path d="M107.189 174.068C107.189 174.816 106.939 175.439 106.69 176.188C112.051 175.19 124.021 175.938 135.367 176.811C136.364 176.562 137.237 176.437 137.611 176.312C138.11 176.188 138.609 176.063 139.232 175.938C132.873 175.564 120.53 174.691 117.787 172.322C114.67 169.704 111.677 163.595 110.306 160.976C110.056 161.475 110.306 161.974 110.306 161.974L108.685 160.852C108.685 160.852 109.308 159.979 108.435 159.355C107.687 159.48 106.815 159.73 106.066 159.979C106.939 163.47 107.313 170.328 107.189 174.068Z" fill="#974B52"/>
<path d="M171.522 181.176C171.397 180.802 171.147 180.552 170.773 180.428C171.023 180.677 171.272 181.051 171.522 181.301C171.522 181.301 171.522 181.176 171.522 181.176Z" fill="#A75256"/>
<path d="M158.187 183.794C158.81 183.794 159.059 183.919 159.059 184.418C158.81 185.789 155.568 186.413 152.701 187.036C147.09 190.278 141.23 193.769 136.367 196.636C147.339 190.652 159.309 184.916 162.426 184.792C167.538 184.542 171.777 183.046 171.652 181.301C171.403 181.051 171.154 180.677 170.904 180.428C169.907 179.929 167.912 179.804 165.418 179.68C163.299 180.802 160.805 182.173 158.187 183.794Z" fill="#A75256"/>
<path d="M85.9918 210.101C85.2437 199.129 86.1165 187.658 94.0962 184.416C95.4677 183.793 97.8366 183.294 100.829 182.795C102.575 181.424 105.567 178.806 106.689 176.062C105.816 176.187 105.068 176.437 104.569 176.686C98.46 179.928 78.2615 188.281 79.633 200.874C81.0045 213.592 90.9791 234.539 90.231 237.032C88.8595 242.02 88.4854 242.643 86.7399 243.017C86.7399 243.017 86.7399 243.017 86.8646 243.142C87.1139 243.765 87.488 244.763 87.1139 245.012C86.7399 246.134 85.6177 247.88 85.6177 247.88C85.6177 247.88 85.4931 247.755 85.3684 247.755C85.4931 247.88 85.6177 247.88 85.6177 247.88C85.6177 247.88 86.4905 249.126 87.9867 250.623C87.9867 250.373 87.8621 250.249 87.8621 249.999C87.8621 248.129 89.3582 246.508 91.2285 246.383C93.0987 246.383 94.7196 247.88 94.7196 249.75C94.7196 251.62 93.2234 253.241 91.3531 253.366H91.2285C94.7196 255.859 99.2081 257.48 102.949 253.49C110.18 245.76 109.931 227.307 111.302 222.818C111.926 220.699 111.926 218.579 112.549 216.335C111.053 217.208 109.432 217.706 107.687 217.831C100.206 218.33 86.4905 218.08 85.9918 210.101Z" fill="#A75256"/>
<path d="M100.703 182.797C104.942 182.049 110.428 181.301 115.914 180.802C123.894 178.932 131.375 177.56 135.24 176.812C123.894 175.815 111.925 175.191 106.563 176.189C105.316 178.807 102.449 181.426 100.703 182.797Z" fill="#A75256"/>
<path d="M168.534 177.809C169.905 177.061 170.778 176.562 171.277 176.438C175.142 174.817 179.007 172.947 178.01 171.7C177.262 170.702 168.035 172.448 163.422 173.071C165.292 174.568 166.913 176.188 168.534 177.809Z" fill="#994F55"/>
<path d="M139.109 175.938C141.354 176.063 142.85 176.063 142.85 176.063L139.109 177.06C148.461 177.933 156.69 178.806 159.308 179.18C161.552 179.429 163.547 179.554 165.293 179.679C166.54 178.93 167.662 178.307 168.534 177.808C166.914 176.063 165.293 174.567 163.547 173.07C162.799 173.195 162.176 173.195 161.677 173.32C158.685 173.444 145.468 174.691 139.109 175.938Z" fill="#994F55"/>
<path d="M134.121 197.884C134.869 197.509 135.617 197.011 136.365 196.637C135.867 196.886 135.368 197.26 134.745 197.51C134.495 197.634 134.246 197.759 134.121 197.884Z" fill="#994F55"/>
<path d="M135.242 176.688C136.489 176.812 137.86 176.937 139.107 177.062L142.848 176.064C142.848 176.064 141.352 176.064 139.107 175.939C138.484 176.064 137.985 176.189 137.486 176.313C137.112 176.313 136.24 176.563 135.242 176.688Z" fill="#994F55"/>
<path d="M134.742 197.51C135.241 197.261 135.74 196.887 136.363 196.638C141.226 193.77 147.086 190.279 152.696 187.037C150.826 187.411 149.205 187.785 148.457 188.409C147.584 188.907 141.35 193.022 134.742 197.51Z" fill="#994F55"/>
<path d="M142.099 180.18C145.839 182.174 161.799 181.925 152.572 184.045C143.47 186.164 124.643 191.027 137.486 188.783C147.71 187.037 155.565 183.92 158.058 183.795C160.677 182.299 163.17 180.803 165.165 179.681C163.42 179.556 161.425 179.431 159.18 179.182C156.562 178.808 148.333 177.935 138.982 177.062L128.758 179.681C135.491 179.431 140.852 179.431 142.099 180.18Z" fill="#994F55"/>
<path d="M115.914 180.677C120.403 180.179 124.891 179.929 128.881 179.68L139.105 177.062C137.858 176.937 136.487 176.812 135.24 176.688C131.375 177.436 123.894 178.807 115.914 180.677Z" fill="#994F55"/>
<path d="M123.273 204.242C120.904 206.237 117.911 209.603 113.672 213.094C113.049 214.216 112.675 215.214 112.301 216.211C113.672 215.338 114.919 214.216 115.792 212.845C116.291 212.097 116.789 211.349 117.163 210.476C117.912 208.98 126.141 203.244 133.871 197.883C130.255 200.002 127.512 201.623 126.141 202.371C125.268 202.995 124.27 203.743 123.273 204.242Z" fill="#A75256"/>
<path d="M111.3 215.09C104.069 220.326 92.5978 214.342 92.5978 214.342C92.5978 214.342 89.4808 205.364 87.1118 195.14C86.239 191.4 92.3485 187.909 100.453 185.041L99.3307 183.794C99.3307 183.794 99.8294 183.42 100.702 182.797C97.8345 183.296 95.4655 183.919 93.9693 184.418C86.1144 187.535 85.2416 199.13 85.865 210.102C86.3637 218.207 100.079 218.331 107.31 217.833C109.056 217.708 110.801 217.209 112.173 216.336C112.422 215.339 112.921 214.342 113.544 213.219C112.921 213.843 112.173 214.466 111.3 215.09Z" fill="#A75256"/>
<path d="M125.518 202.868C124.77 203.242 124.146 203.741 123.273 204.364C124.146 203.741 125.144 203.118 126.266 202.494C126.016 202.619 125.642 202.743 125.518 202.868Z" fill="#A75256"/>
<path d="M159.058 184.291C159.182 183.793 158.808 183.668 158.185 183.668C156.439 184.665 154.569 185.788 152.574 186.91C155.567 186.411 158.808 185.663 159.058 184.291Z" fill="#A75256"/>
<path d="M99.3359 183.793L100.458 185.04C105.196 183.419 110.557 181.923 115.794 180.676C110.308 181.175 104.822 181.923 100.583 182.671C99.8347 183.419 99.3359 183.793 99.3359 183.793Z" fill="#A75256"/>
<path d="M118.784 207.607C116.291 209.727 114.794 211.472 113.797 213.218C118.036 209.727 121.028 206.36 123.397 204.365C121.403 205.487 119.906 206.61 118.784 207.607Z" fill="#A75256"/>
<path d="M126.266 202.37C127.637 201.622 130.505 200.001 133.996 197.882C134.245 197.757 134.37 197.632 134.619 197.508C131.752 199.129 128.884 200.874 126.266 202.37Z" fill="#A75256"/>
<path d="M152.699 183.916C161.801 181.797 145.967 182.046 142.226 180.051C140.979 179.428 135.618 179.303 129.01 179.677L102.203 186.659L100.707 185.039C92.4778 187.906 86.493 191.273 87.3658 195.138C89.6101 205.362 92.8518 214.339 92.8518 214.339C92.8518 214.339 104.447 220.324 111.554 215.087C112.427 214.464 113.175 213.84 113.923 213.217C114.921 211.596 116.417 209.726 118.91 207.606C120.033 206.609 121.653 205.486 123.524 204.364C124.272 203.741 125.02 203.242 125.768 202.868C125.893 202.743 126.267 202.619 126.516 202.494C129.01 200.998 131.877 199.252 134.87 197.631C141.478 193.143 147.712 189.028 148.585 188.405C149.333 187.906 150.954 187.532 152.824 187.033C154.694 185.911 156.565 184.789 158.435 183.792C155.941 183.916 148.086 187.033 137.862 188.779C124.771 190.899 143.598 186.036 152.699 183.916Z" fill="#A75256"/>
<path d="M102.078 186.662L128.885 179.68C124.895 179.929 120.407 180.178 115.918 180.677C110.681 181.924 105.195 183.42 100.582 185.041L102.078 186.662Z" fill="#A75256"/>
<path d="M90.98 253.368C89.7332 252.495 88.6111 251.498 87.7383 250.625C88.1123 252.121 89.3592 253.368 90.98 253.368Z" fill="#F37880"/>
<path d="M94.5958 249.75C94.5958 247.88 92.9749 246.259 91.1047 246.384C89.2344 246.384 87.7383 248.005 87.7383 249.999C87.7383 250.249 87.7383 250.374 87.863 250.623C88.7357 251.496 89.8579 252.493 91.1047 253.366H91.2294C93.0996 253.366 94.5958 251.745 94.5958 249.75ZM88.611 249.75C88.611 248.503 89.6085 247.381 90.8553 247.381C92.1022 247.381 93.2243 248.379 93.2243 249.625C93.2243 250.872 92.2269 251.994 90.98 251.994C89.6085 252.119 88.611 250.997 88.611 249.75Z" fill="#F37880"/>
<path d="M93.2265 249.627C93.2265 248.38 92.1044 247.258 90.8576 247.383C89.6108 247.383 88.6133 248.505 88.6133 249.752C88.6133 250.998 89.7355 252.12 90.9823 251.996C92.2291 251.996 93.2265 250.998 93.2265 249.627ZM91.481 250.998C91.107 251.123 90.4835 251.248 90.1095 250.874C89.3614 250.25 89.4861 249.627 89.6108 249.377C89.8601 249.003 89.9848 248.505 91.7303 248.879C91.9797 248.879 92.4784 249.253 92.3538 250.001C92.2291 250.375 91.9797 250.749 91.481 250.998Z" fill="#A75256"/>
<path d="M80.8828 243.891C81.0075 244.14 81.1322 244.389 81.2568 244.763C81.7556 245.511 81.8803 245.761 82.2543 246.01C82.5037 246.135 84.3739 247.257 85.122 247.756C84.3739 247.257 82.1296 245.886 82.0049 245.761C81.8803 245.511 81.2569 244.639 80.8828 243.891Z" fill="#F37880"/>
<path d="M86.8676 244.888C86.8676 244.888 86.8676 245.013 86.8676 244.888C86.7429 244.888 82.8777 244.015 82.0049 244.14C81.6309 244.14 81.1322 244.015 80.8828 243.891C81.1322 244.639 81.8803 245.636 82.0049 245.761C82.1296 245.886 84.3739 247.257 85.122 247.756C85.2467 247.88 85.3714 247.88 85.3714 247.88C85.3714 247.88 86.4935 246.01 86.8676 244.888Z" fill="#F37880"/>
<path d="M109.682 159.979C109.807 160.228 110.056 160.602 110.306 160.976C110.43 160.727 110.555 160.478 110.804 160.228C111.677 159.48 114.171 159.854 114.42 158.607C113.672 158.857 112.924 158.732 112.176 158.607C111.179 158.732 110.181 158.981 109.184 159.231C109.308 159.605 109.433 159.854 109.682 159.979Z" fill="#5C424E"/>
<path d="M108.437 160.977L110.057 162.099C110.057 162.099 109.933 161.6 110.057 161.101C109.808 160.603 109.559 160.229 109.434 160.104C109.309 159.979 109.06 159.73 108.935 159.48C108.686 159.605 108.312 159.605 108.062 159.73C109.185 160.104 108.437 160.977 108.437 160.977Z" fill="#5C424E"/>
<path d="M91.6045 248.877C89.8589 248.503 89.7342 249.001 89.4849 249.375C89.3602 249.5 89.2355 250.123 89.9836 250.872C90.4823 251.246 90.9811 251.121 91.3551 250.996C91.8538 250.872 92.1032 250.497 92.1032 249.999C92.3526 249.251 91.8539 248.877 91.6045 248.877Z" fill="#5C414E"/>
<path d="M80.7541 243.143C80.7541 243.018 80.7541 243.018 80.7541 243.018C80.8788 242.769 81.5022 242.893 82.4997 243.018C83.4971 243.143 86.3648 243.018 86.3648 243.018H86.4895C86.1155 242.395 84.4946 242.769 83.9959 242.893C83.4971 243.018 81.0035 242.395 80.5047 243.018C80.2554 243.392 80.3801 243.641 80.7541 243.891C80.7541 243.766 80.7541 243.766 80.6294 243.641C80.7541 243.517 80.7541 243.267 80.7541 243.143Z" fill="#E5737E"/>
<path d="M87.1156 244.264C87.1156 244.389 87.1156 244.638 86.9909 245.013C87.4896 244.763 87.1156 243.89 86.7415 243.142C86.7415 243.142 86.7416 243.018 86.6169 243.018H86.4922C86.6169 243.142 86.9909 243.641 87.1156 244.264Z" fill="#E5737E"/>
<path d="M80.7539 243.018C80.7539 243.018 80.7539 243.142 80.7539 243.018C80.8786 243.018 80.7539 243.018 80.7539 243.018Z" fill="#E5737E"/>
<path d="M80.7539 243.641C80.7539 243.765 80.7539 243.765 80.8786 243.89C80.8786 243.765 80.8786 243.765 80.7539 243.641Z" fill="#E5737E"/>
<path d="M85.8701 243.019C86.1195 243.019 86.2442 243.019 86.4935 242.894C86.4935 242.894 83.7505 243.019 82.6284 242.894C81.6309 242.77 81.1322 242.77 80.8828 242.894C81.3815 242.645 83.7505 243.268 85.8701 243.019Z" fill="#E5737E"/>
<path d="M86.4935 243.019C86.2442 243.019 86.1195 243.019 85.8701 243.144C83.7505 243.393 81.3815 242.645 80.8828 243.019V243.144C80.8828 243.268 80.8828 243.518 80.8828 243.642C80.8828 243.767 80.8828 243.767 81.0075 243.892C81.3815 244.016 81.7556 244.141 82.1296 244.141C82.8777 244.141 86.8676 245.014 86.8676 245.014H86.9922C87.1169 244.765 87.1169 244.515 87.1169 244.266C86.9923 243.642 86.6182 243.144 86.4935 243.019Z" fill="#E5737E"/>
<path d="M83.1233 147.884C86.2404 147.759 98.2099 142.149 109.057 136.289C109.805 135.915 110.553 135.416 111.177 135.042C118.782 129.93 126.887 124.444 127.635 122.948C128.134 122.075 128.508 121.327 129.006 120.579C129.879 119.207 131.126 118.085 132.498 117.337C133.121 115.093 133.121 113.222 133.744 111.103C134.991 106.864 134.617 89.6574 141.599 82.5505C145.09 78.9347 149.454 80.4309 152.821 82.6752C154.317 82.6752 155.688 83.7973 155.938 85.2935C157.434 86.665 158.307 87.7872 158.307 87.7872C158.307 87.7872 158.432 87.9119 158.556 87.9119C159.304 88.2859 161.05 89.408 161.299 89.5327C161.673 89.7821 161.798 90.0315 162.172 90.6549C162.297 90.9042 162.421 91.1536 162.546 91.403C162.92 91.5276 163.045 91.9017 162.795 92.1511C162.297 92.7745 159.928 92.2758 159.429 92.2758C159.055 92.2758 157.434 92.7745 157.06 92.1511C155.314 92.4004 154.94 93.0238 153.818 97.6371C153.195 99.8814 163.169 119.831 164.79 131.925C166.411 144.144 146.587 152.373 140.477 155.49C139.979 155.739 139.23 155.988 138.358 156.113C138.108 156.737 137.859 157.485 137.859 158.108C137.734 161.849 138.108 168.581 139.23 171.948C165.663 164.592 184.739 140.653 184.241 112.474C183.742 79.1841 156.063 52.3774 122.398 52.3774C88.734 52.2527 61.0545 78.9347 60.5558 112.35C60.3064 126.937 65.2937 140.278 73.7721 151.001C73.7721 149.63 78.0113 148.133 83.1233 147.884Z" fill="#974B52"/>
<path d="M74.6484 152.123C75.3965 152.996 76.1446 153.869 76.8927 154.617C77.7655 154.118 78.8876 153.495 80.1345 152.871C77.5161 152.746 75.6459 152.622 74.6484 152.123Z" fill="#974B52"/>
<path d="M130.879 173.817C131.128 172.57 133.622 172.944 134.495 172.196C134.744 171.947 134.869 171.698 134.993 171.448C133.622 168.83 130.629 162.72 127.512 160.102C124.769 157.858 112.426 156.86 106.067 156.486C99.8329 157.608 86.4918 158.98 83.6241 159.105C83.1254 159.105 82.502 159.229 81.7539 159.354C92.726 168.83 106.94 174.565 122.65 174.565C126.266 174.565 129.757 174.191 133.123 173.692C132.375 173.568 131.627 173.568 130.879 173.817Z" fill="#974B52"/>
<path d="M137.985 158.482C137.985 157.858 138.234 157.11 138.484 156.487C133.122 157.359 121.278 156.736 109.932 155.863C108.934 156.113 108.061 156.237 107.687 156.362C107.189 156.487 106.69 156.611 106.066 156.736C112.425 157.11 124.769 157.983 127.512 160.352C130.629 162.97 133.621 169.08 134.993 171.698C135.242 171.199 134.993 170.7 134.993 170.7L136.738 171.823C136.738 171.823 136.115 172.695 136.988 173.319C137.736 173.194 138.609 172.945 139.357 172.695C138.234 168.955 137.736 162.222 137.985 158.482Z" fill="#A75256"/>
<path d="M73.8984 151.377C74.0231 151.751 74.2725 152 74.6465 152.125C74.3972 151.875 74.1478 151.501 73.8984 151.252C73.8984 151.252 73.8984 151.377 73.8984 151.377Z" fill="#A75256"/>
<path d="M87.2379 148.882C86.6145 148.882 86.3651 148.757 86.3651 148.259C86.6145 146.887 89.8563 146.264 92.724 145.64C98.3347 142.399 104.195 139.032 108.933 136.289C98.0853 142.149 85.9911 147.635 82.9987 147.885C77.8867 148.134 73.6475 149.63 73.7722 151.251C74.0216 151.5 74.271 151.874 74.5203 152.124C75.5178 152.622 77.5127 152.747 80.0063 152.872C82.1259 151.75 84.6196 150.378 87.2379 148.882Z" fill="#A75256"/>
<path d="M158.309 123.446C159.181 134.044 158.558 145.141 150.828 148.258C149.456 148.757 147.087 149.38 144.22 149.879C142.474 151.25 139.606 153.744 138.359 156.487C139.232 156.362 139.98 156.113 140.479 155.864C146.464 152.747 166.413 144.518 164.792 132.299C163.171 120.08 153.197 100.255 153.82 98.011C155.067 93.3978 155.316 92.7743 157.062 92.525C157.062 92.525 157.062 92.525 156.937 92.4003C156.688 91.7769 156.314 90.9041 156.688 90.6547C157.062 89.6573 158.059 87.9117 158.059 87.9117C158.059 87.9117 158.184 88.0364 158.309 88.0364C158.184 87.9118 158.059 87.9117 158.059 87.9117C158.059 87.9117 157.187 86.7896 155.69 85.4181C155.69 85.5428 155.815 85.7921 155.815 85.9168C155.815 87.6624 154.443 89.1586 152.573 89.1586C150.703 89.1586 149.207 87.7871 149.207 86.0415C149.207 84.296 150.578 82.7998 152.449 82.7998H152.573C149.207 80.4308 144.968 79.0593 141.352 82.6751C134.494 89.782 134.744 106.988 133.497 111.227C132.873 113.222 132.873 115.217 132.25 117.461C133.746 116.589 135.367 116.09 136.988 115.965C144.344 115.467 157.685 115.716 158.309 123.446Z" fill="#A75256"/>
<path d="M144.217 149.881C139.978 150.629 134.617 151.377 129.131 151.876C121.276 153.746 113.795 155.118 109.93 155.866C121.151 156.863 133.121 157.487 138.482 156.489C139.604 153.746 142.596 151.128 144.217 149.881Z" fill="#A75256"/>
<path d="M76.7635 154.74C75.392 155.488 74.3945 155.987 74.0205 156.112C70.0307 157.608 66.2902 159.603 67.163 160.85C67.9111 161.847 77.1375 160.102 81.7508 159.478C80.0052 157.982 78.3844 156.361 76.7635 154.74Z" fill="#994F55"/>
<path d="M106.066 156.612C103.822 156.487 102.326 156.487 102.326 156.487L106.066 155.489C96.8395 154.617 88.6105 153.744 85.9922 153.37C83.8726 153.12 81.7529 152.996 80.0074 152.871C78.7606 153.619 77.6384 154.118 76.7656 154.617C78.2618 156.238 80.0074 157.858 81.6283 159.355C82.3764 159.23 82.9998 159.23 83.4985 159.105C86.4909 159.105 99.8319 157.734 106.066 156.612Z" fill="#994F55"/>
<path d="M111.303 135.043C110.555 135.417 109.932 135.916 109.184 136.29C109.682 136.04 110.181 135.666 110.804 135.417C110.804 135.292 111.054 135.168 111.303 135.043Z" fill="#994F55"/>
<path d="M109.93 155.737C108.683 155.613 107.312 155.488 106.065 155.363L102.324 156.361C102.324 156.361 103.82 156.361 106.065 156.485C106.688 156.361 107.187 156.236 107.686 156.111C108.184 156.111 108.932 155.987 109.93 155.737Z" fill="#994F55"/>
<path d="M110.677 135.414C110.178 135.663 109.68 136.037 109.056 136.287C104.194 139.03 98.3337 142.521 92.8477 145.638C94.7179 145.264 96.3388 144.89 97.0868 144.391C97.8349 143.768 104.069 139.778 110.677 135.414Z" fill="#994F55"/>
<path d="M103.195 152.374C99.4547 150.379 83.62 150.628 92.7218 148.633C101.824 146.638 120.401 141.776 107.684 143.895C97.4598 145.641 89.7295 148.758 87.2358 148.758C84.6175 150.254 82.1238 151.626 80.1289 152.748C81.8745 152.872 83.8694 152.997 86.1136 153.246C88.732 153.496 96.961 154.493 106.188 155.366L116.411 152.748C109.679 153.122 104.442 153.122 103.195 152.374Z" fill="#994F55"/>
<path d="M129.254 151.875C124.89 152.374 120.401 152.623 116.411 152.872L106.188 155.491C107.434 155.615 108.806 155.74 110.053 155.865C113.793 154.992 121.274 153.745 129.254 151.875Z" fill="#994F55"/>
<path d="M121.898 128.934C124.267 126.939 127.135 123.697 131.25 120.455C131.873 119.458 132.247 118.46 132.496 117.463C131.125 118.211 129.878 119.333 129.005 120.705C128.507 121.328 128.133 122.201 127.634 123.074C126.886 124.57 118.781 130.056 111.176 135.168C114.667 133.173 117.41 131.552 118.781 130.804C119.904 130.056 120.901 129.432 121.898 128.934Z" fill="#A75256"/>
<path d="M133.619 118.584C140.601 113.597 151.947 119.333 151.947 119.333C151.947 119.333 155.189 127.811 157.558 137.786C158.431 141.526 152.571 144.768 144.466 147.635L145.588 148.882C145.588 148.882 145.09 149.256 144.217 149.88C147.085 149.381 149.454 148.758 150.825 148.259C158.555 145.142 159.179 134.045 158.306 123.447C157.683 115.717 144.342 115.592 137.235 115.966C135.489 116.091 133.868 116.59 132.497 117.462C132.247 118.335 131.873 119.333 131.25 120.455C131.998 119.831 132.746 119.208 133.619 118.584Z" fill="#A75256"/>
<path d="M119.654 130.303C120.277 130.054 121.026 129.555 121.774 128.932C120.901 129.555 119.903 130.178 118.781 130.802C119.28 130.553 119.529 130.428 119.654 130.303Z" fill="#A75256"/>
<path d="M86.3637 148.259C86.2391 148.633 86.6131 148.882 87.2365 148.882C88.9821 147.885 90.8523 146.763 92.8472 145.641C89.9795 146.264 86.7378 147.012 86.3637 148.259Z" fill="#A75256"/>
<path d="M145.587 148.882L144.465 147.635C139.852 149.256 134.491 150.627 129.254 151.874C134.74 151.375 140.101 150.627 144.34 149.879C145.089 149.256 145.587 148.882 145.587 148.882Z" fill="#A75256"/>
<path d="M126.387 125.689C128.756 123.695 130.377 121.949 131.25 120.328C127.135 123.695 124.267 126.936 121.898 128.807C123.644 127.684 125.265 126.562 126.387 125.689Z" fill="#A75256"/>
<path d="M118.909 130.678C117.537 131.426 114.794 132.922 111.303 135.042C111.054 135.166 110.929 135.291 110.68 135.416C113.547 133.795 116.415 132.174 118.909 130.678Z" fill="#A75256"/>
<path d="M92.7246 148.631C83.6228 150.626 99.4575 150.501 103.198 152.371C104.445 152.995 109.806 153.12 116.414 152.746L142.972 145.888L144.468 147.509C152.572 144.766 158.432 141.399 157.559 137.659C155.191 127.684 151.949 119.206 151.949 119.206C151.949 119.206 140.603 113.471 133.62 118.458C132.748 119.081 132 119.58 131.252 120.203C130.254 121.824 128.758 123.57 126.389 125.565C125.267 126.438 123.771 127.56 121.9 128.682C121.152 129.305 120.404 129.804 119.781 130.053C119.656 130.178 119.282 130.303 119.033 130.427C116.539 131.924 113.671 133.544 110.804 135.165C104.195 139.529 98.086 143.519 97.2132 144.142C96.4651 144.641 94.8442 145.015 92.974 145.389C91.1038 146.511 89.2335 147.509 87.3633 148.631C89.8569 148.506 97.712 145.514 107.811 143.768C120.404 141.773 101.826 146.636 92.7246 148.631Z" fill="#A75256"/>
<path d="M142.971 146.014L116.414 152.871C120.404 152.622 124.892 152.372 129.256 151.874C134.493 150.627 139.854 149.255 144.468 147.635L142.971 146.014Z" fill="#A75256"/>
<path d="M152.82 82.8008C154.067 83.6736 155.065 84.5463 155.937 85.4191C155.563 83.9229 154.317 82.9255 152.82 82.8008Z" fill="#F37880"/>
<path d="M149.453 86.0425C149.453 87.7881 151.073 89.2843 152.819 89.1596C154.689 89.1596 156.061 87.6634 156.061 85.9178C156.061 85.6685 156.061 85.5438 155.936 85.4191C155.063 84.5463 153.941 83.6736 152.819 82.8008H152.694C150.824 82.8008 149.328 84.297 149.453 86.0425ZM155.188 86.1672C155.188 87.414 154.315 88.2868 153.068 88.4115C151.822 88.4115 150.824 87.5387 150.824 86.2919C150.824 85.045 151.697 84.1723 152.944 84.0476C154.066 84.0476 155.188 84.9204 155.188 86.1672Z" fill="#F37880"/>
<path d="M150.827 86.2911C150.827 87.538 151.824 88.4108 153.071 88.4108C154.318 88.4108 155.191 87.4133 155.191 86.1665C155.191 84.9197 154.193 84.0469 152.947 84.0469C151.7 84.0469 150.702 85.0443 150.827 86.2911ZM152.323 85.0443C152.697 84.9196 153.321 84.795 153.695 85.169C154.443 85.7924 154.318 86.4158 154.193 86.5405C153.944 86.9146 153.819 87.4133 152.198 87.0392C151.949 87.0392 151.575 86.6652 151.575 86.0418C151.575 85.5431 151.949 85.169 152.323 85.0443Z" fill="#A75256"/>
<path d="M162.67 91.5262C162.67 91.5262 162.67 91.6509 162.67 91.5262C162.545 91.2769 162.42 91.0275 162.295 90.7781C161.797 90.1547 161.672 89.9054 161.423 89.656C161.173 89.5313 159.303 88.4092 158.68 88.0352C159.428 88.5339 161.547 89.7807 161.672 89.9054C161.672 90.0301 162.295 90.9028 162.67 91.5262Z" fill="#F37880"/>
<path d="M156.938 90.6551C156.938 90.6551 156.938 90.5304 156.938 90.6551C157.062 90.6551 160.803 91.4032 161.551 91.4032C161.925 91.4032 162.299 91.5279 162.673 91.6526C162.424 90.9045 161.675 90.0317 161.551 89.907C161.426 89.7824 159.306 88.5355 158.558 88.0368C158.434 87.9121 158.309 87.9121 158.309 87.9121C158.309 87.9121 157.312 89.533 156.938 90.6551Z" fill="#F37880"/>
<path d="M135.613 172.447C135.488 172.197 135.239 171.823 134.99 171.449C134.865 171.699 134.74 171.948 134.491 172.197C133.618 172.945 131.124 172.571 130.875 173.818C131.623 173.569 132.371 173.693 133.119 173.818C134.117 173.693 135.114 173.444 136.112 173.195C135.862 172.945 135.738 172.696 135.613 172.447Z" fill="#A75256"/>
<path d="M136.738 171.448L134.992 170.326C134.992 170.326 135.117 170.825 134.992 171.324C135.242 171.822 135.491 172.196 135.616 172.321C135.74 172.446 135.99 172.695 136.114 172.944C136.364 172.82 136.738 172.82 136.987 172.695C135.99 172.321 136.738 171.448 136.738 171.448Z" fill="#A75256"/>
<path d="M152.198 86.9145C153.819 87.2886 153.943 86.7898 154.193 86.4158C154.317 86.2911 154.442 85.6677 153.694 85.0443C153.32 84.6702 152.696 84.7949 152.322 84.9196C151.948 85.0443 151.574 85.4183 151.574 85.9171C151.574 86.6652 152.073 86.9145 152.198 86.9145Z" fill="#5C414E"/>
<path d="M162.795 92.2758C162.795 92.4004 162.795 92.4004 162.795 92.4004C162.67 92.6498 162.047 92.5251 161.174 92.4004C160.176 92.2758 157.433 92.4004 157.433 92.4004H157.309C157.683 93.0239 159.304 92.6498 159.678 92.5251C160.176 92.4004 162.545 93.0239 163.044 92.4004C163.293 92.0264 163.169 91.777 162.795 91.6523C162.795 91.777 162.795 91.777 162.919 91.9017C162.795 92.0264 162.795 92.1511 162.795 92.2758Z" fill="#E5737E"/>
<path d="M156.69 91.2797C156.69 91.155 156.69 90.9056 156.814 90.6562C156.44 90.9056 156.815 91.7784 157.064 92.4018C157.064 92.4018 157.064 92.4018 157.189 92.5265H157.313C157.189 92.2771 156.814 91.9031 156.69 91.2797Z" fill="#E5737E"/>
<path d="M162.793 91.7767C162.793 91.652 162.793 91.652 162.668 91.5273C162.668 91.652 162.668 91.7767 162.793 91.7767Z" fill="#E5737E"/>
<path d="M157.932 92.2746C157.683 92.2746 157.558 92.2746 157.309 92.3993C157.309 92.3993 160.052 92.2746 161.049 92.3993C161.922 92.524 162.545 92.524 162.67 92.3993C162.171 92.7733 159.927 92.1499 157.932 92.2746Z" fill="#E5737E"/>
<path d="M157.307 92.3995C157.432 92.3995 157.681 92.3995 157.931 92.2748C160.05 92.0255 162.17 92.6489 162.793 92.3995V92.2748C162.793 92.1502 162.793 92.0255 162.793 91.7761C162.793 91.6514 162.793 91.6514 162.669 91.5267C162.295 91.4021 161.921 91.2774 161.547 91.2774C160.798 91.2774 157.058 90.5293 157.058 90.5293H156.933C156.809 90.7787 156.809 91.028 156.809 91.1527C156.809 91.9008 157.183 92.2749 157.307 92.3995Z" fill="#E5737E"/>
<path d="M236.743 344.145L240.847 344.136L240.733 340.034L231.507 9.00189L231.399 5.12714L227.522 5.11336L17.0584 4.36526L13.1482 4.35136L13.0456 8.2602L4.31779 340.539L4.20973 344.653L8.32514 344.644L236.743 344.145Z" stroke="#FFF1F0" stroke-width="8"/>
</svg>
