<svg width="252" height="351" fill="none" xmlns="http://www.w3.org/2000/svg"><path d="M243.465 342.89l-226.922-2.245L9.063 8.99l226.672.125 7.73 333.775z" fill="#A75256"/><g opacity=".3" stroke="#FEF1F0" stroke-width="2" stroke-miterlimit="10"><g opacity=".3"><path opacity=".3" d="M139.858 24.078L25.648 137.29l.25 9.226 123.56-122.313-9.6-.125zM187.855 24.201L26.765 183.545l.125 9.227 170.566-168.57h-9.601z"/><path opacity=".3" d="M178.258 24.201L26.519 174.32l.25 9.226 161.09-159.344h-9.601zM149.455 24.201L25.895 146.515l.124 9.226 133.036-131.54h-9.6zM168.657 24.201L26.269 164.968l.25 9.351L178.257 24.201h-9.6z"/><path opacity=".3" d="M159.059 24.201L26.023 155.741l.25 9.227L168.66 24.201h-9.601zM197.46 24.201L26.894 192.772l.25 9.226L207.06 24.201h-9.601z"/><path opacity=".3" d="M207.057 24.201L27.141 201.998l.249 9.351L216.658 24.201h-9.601zM224.515 45.025l-196.5 194.006.125 9.227 196.5-194.006-.125-9.227zM224.64 54.252L28.14 248.258l.25 9.351 196.5-194.006-.25-9.351zM224.265 35.674l-196.5 194.13.25 9.227L224.514 45.025l-.249-9.351zM224.015 24.201h-7.357L27.391 211.35l.124 9.227 196.5-194.13V24.2z"/><path opacity=".3" d="M224.015 26.447l-196.5 194.131.25 9.226 196.5-194.13-.25-9.227zM82.625 24.078L24.398 81.806l.25 9.227L92.1 24.078h-9.476zM63.548 24.078l-39.525 39.15.125 9.227 48.876-48.377h-9.476zM44.474 24.078L23.527 44.775l.25 9.227L53.95 24.078h-9.476z"/><path opacity=".3" d="M53.95 24.078L23.777 54.002l.25 9.226 39.524-39.15h-9.6zM34.873 24.078l-11.47 11.47.124 9.227 20.947-20.697h-9.6zM25.397 24.078l-2.245 2.12.25 9.35 11.47-11.47h-9.475zM23.152 23.953v2.244l2.245-2.12-2.245-.124zM120.78 24.078l-95.507 94.634.125 9.351L130.381 24.078h-9.601zM101.702 24.078L24.773 100.26l.25 9.227 86.155-85.408h-9.476z"/><path opacity=".3" d="M111.179 24.078l-86.156 85.408.25 9.226 95.507-94.634h-9.601zM130.381 24.078L25.398 128.063l.25 9.227L139.857 24.078h-9.476zM92.102 24.078L24.648 91.033l.125 9.226 76.929-76.18h-9.6zM73.028 24.078L24.152 72.455l.25 9.351 58.226-57.728h-9.6zM224.89 63.603L28.39 257.61l.25 9.227L225.139 72.955l-.249-9.352zM230.25 296.26l-36.906 36.158 9.6.124 27.555-27.056-.249-9.226zM229.001 240.4l-93.138 91.393 9.601.124 83.662-82.165-.125-9.352z"/><path opacity=".3" d="M228.755 231.051L126.266 331.794h9.6l93.138-91.392-.249-9.351zM229.377 258.979l-74.436 73.063 9.601.125 65.084-63.837-.249-9.351zM228.128 203.121L97.586 331.544h9.6l121.192-119.072-.25-9.351zM228.504 221.822l-111.84 109.845 9.601.125 102.489-100.743-.25-9.227z"/><path opacity=".3" d="M228.379 212.473L107.188 331.544l9.475.125 111.84-109.845-.124-9.351zM229.131 249.752l-83.662 82.166 9.476.124 74.435-73.064-.249-9.226zM229.623 268.33l-65.084 63.837h9.601l55.733-54.486-.25-9.351zM231.126 332.793l-.25-8.604-8.728 8.479 8.978.125zM230.871 324.189l-.249-9.351-18.079 17.705 9.601.125 8.727-8.479z"/><path opacity=".3" d="M230.5 305.486l-27.555 27.056h9.601l18.079-17.704-.125-9.352zM230.003 286.908l-46.257 45.385 9.601.124 36.906-36.158-.25-9.351zM229.878 277.682l-55.733 54.486 9.6.125 46.257-45.385-.124-9.226zM226.634 138.037L30.883 330.796l9.476.125 186.525-183.533-.25-9.351zM225.761 100.881l-196.5 193.756.125 9.227 196.625-193.757-.25-9.226zM226.011 110.107L29.387 303.864l.25 9.226 196.499-193.631-.125-9.352zM226.382 128.686l-196.5 193.631.125 8.479h.873l195.752-192.759-.25-9.351z"/><path opacity=".3" d="M226.136 119.459l-196.5 193.632.25 9.226 196.5-193.632-.25-9.226zM225.511 91.53l-196.5 193.756.25 9.351 196.5-193.757-.25-9.35z"/><path opacity=".3" d="M225.39 82.18L28.766 276.06l.249 9.226 196.5-193.756-.125-9.351zM225.136 72.955l-196.5 193.881.125 9.227L225.386 82.182l-.25-9.227zM227.506 175.193L68.91 331.171l9.6.125 149.121-146.751-.125-9.352zM227.632 184.545L78.512 331.296l9.476.125L227.88 193.896l-.249-9.351z"/><path opacity=".3" d="M227.26 165.967L59.438 331.171h9.475L227.51 175.193l-.249-9.226zM226.884 147.389L40.359 330.921l9.476.125L227.01 156.615l-.125-9.226z"/><path opacity=".3" d="M227.006 156.615L49.832 331.046l9.6.125 167.823-165.205-.249-9.351zM227.882 193.896L87.988 331.421l9.6.125 130.543-128.423-.249-9.227z"/></g><g opacity=".3"><path opacity=".3" d="M106.69 24.078l119.945 114.085.249 9.226L97.09 24.079h9.6zM58.94 24.078L227.637 184.67l.249 9.227L49.465 24.078h9.476z"/><path opacity=".3" d="M68.413 24.078l159.095 151.24.125 9.351L58.937 24.079h9.476zM97.093 24.078L226.887 147.39l.125 9.351L87.492 24.078h9.6zM78.014 24.078L227.26 165.967l.25 9.351L68.414 24.078h9.6z"/><path opacity=".3" d="M87.488 24.078L227.007 156.74l.25 9.227L78.012 24.078h9.476zM49.46 24.078l178.42 169.818.25 9.351L39.86 24.078h9.6z"/><path opacity=".3" d="M39.863 24.078l188.27 179.169.249 9.351L30.387 24.078h9.476zM23.527 44.65l205.477 195.876.125 9.227L23.777 53.877l-.25-9.227z"/><path opacity=".3" d="M23.777 53.877L229.13 249.753l.25 9.351L24.027 63.228l-.25-9.351zM23.402 35.424l205.352 195.751.25 9.351L23.527 44.65l-.125-9.226zM23.152 23.953l7.232.125 197.996 188.52.124 9.226L23.152 26.197v-2.244z"/><path opacity=".3" d="M23.152 26.2l205.352 195.626.25 9.351L23.402 35.426l-.25-9.227zM164.046 24.201l61.344 58.102.124 9.227L154.445 24.2h9.601zM183.245 24.201l41.644 39.524.249 9.227-51.493-48.75h9.6zM202.448 24.201l22.069 20.822.125 9.351-31.794-30.173h9.6z"/><path opacity=".3" d="M192.843 24.201l31.794 30.173.249 9.351-41.644-39.524h9.601zM212.05 24.201l12.219 11.596.249 9.226-22.069-20.822h9.601z"/><path opacity=".3" d="M221.647 24.201l2.369 2.244.25 9.352L212.047 24.2h9.6z"/><path opacity=".3" d="M224.017 24.201v2.244l-2.369-2.244h2.369zM125.769 24.078l100.369 95.382.249 9.351L116.168 24.078h9.601zM144.968 24.078l80.794 76.804.249 9.352-90.644-86.156h9.601z"/><path opacity=".3" d="M135.37 24.078l90.644 86.156.125 9.226L125.77 24.078h9.6zM116.167 24.078l110.22 104.733.249 9.352L106.691 24.078h9.476zM154.445 24.203l71.069 67.328.249 9.351-80.794-76.804 9.476.125zM173.644 24.201l51.493 48.751.25 9.351-61.344-58.102h9.601zM24.023 63.228l205.352 195.877.25 9.226L24.148 72.455l-.125-9.227zM29.262 294.514l38.153 36.656h-9.476l-28.553-27.43-.124-9.226zM28.016 239.029l96.753 92.764-9.6-.125-87.029-83.412-.124-9.227z"/><path opacity=".3" d="M27.766 229.68l106.478 102.115h-9.475l-96.754-92.764-.25-9.351zM28.39 257.484l77.179 74.062-9.476-.125-67.453-64.71-.25-9.227zM27.14 202l135.904 130.168-9.6-.124L27.39 211.226 27.14 202zM27.516 220.451l116.328 111.466-9.6-.124L27.765 229.678l-.25-9.227z"/><path opacity=".3" d="M27.39 211.225l126.055 120.817-9.601-.125L27.515 220.451l-.124-9.226zM28.14 248.258l87.029 83.412-9.601-.124-77.178-74.062-.25-9.226zM28.637 266.709l67.453 64.71h-9.6L28.76 276.06l-.124-9.351zM30.008 330.797l-.125-8.479 8.977 8.603-8.852-.124zM29.886 322.318l-.25-9.226 18.703 17.954-9.476-.125-8.977-8.603zM29.387 303.74l28.552 27.43-9.6-.124-18.703-17.955-.25-9.351zM29.012 285.287l48.002 46.008-9.6-.125-38.153-36.656-.25-9.227z"/><path opacity=".3" d="M28.766 276.061l57.728 55.359-9.476-.125-48.003-46.008-.25-9.226zM25.648 137.166l204.604 195.627-9.6-.125L25.898 146.393l-.25-9.227zM24.773 100.133L230.25 296.258l.249 9.351L25.023 109.484l-.25-9.351zM25.023 109.484L230.5 305.61l.125 9.351-205.352-196.25-.25-9.227z"/><path opacity=".3" d="M25.398 127.939L230.875 324.19l.249 8.603h-.872L25.648 137.166l-.25-9.227zM25.273 118.711l205.352 196.25.25 9.227L25.398 127.937l-.125-9.226zM24.648 90.906L230 287.032l.25 9.226L24.773 100.133l-.125-9.227z"/><path opacity=".3" d="M24.398 81.682l205.477 196 .125 9.352L24.648 90.908l-.25-9.226zM24.152 72.455L229.63 268.331l.249 9.351-205.476-196-.25-9.227zM26.52 174.195l165.328 158.222-9.6-.124-155.48-148.871-.248-9.227zM26.766 183.422l155.479 148.871-9.601-.125L26.89 192.773l-.124-9.351z"/><path opacity=".3" d="M26.27 164.969l175.178 167.573-9.6-.125-165.33-158.222-.248-9.226zM25.895 146.391l194.753 186.275-9.6-.125L26.019 155.742l-.124-9.351z"/><path opacity=".3" d="M26.023 155.742l185.029 176.8h-9.6L26.272 164.969l-.249-9.227zM26.895 192.773l145.753 139.395h-9.6L27.144 202l-.25-9.227z"/></g></g><path d="M167.286 192.649c-3.241.125-15.585 5.735-26.682 11.72-.748.499-1.496.873-2.244 1.247-7.855 5.112-16.209 10.847-16.957 12.219-.498.873-.872 1.621-1.371 2.369-.873 1.371-2.12 2.494-3.491 3.366-.624 2.245-.499 4.239-1.122 6.359-1.247 4.364-.499 22.318-7.731 29.674-3.74 3.866-8.229 2.245-11.844-.249-1.621 0-2.993-1.247-3.367-2.743a68.274 68.274 0 01-2.494-2.618s-.124-.125-.249-.125c-.748-.374-2.743-1.496-2.992-1.745-.374-.25-.5-.499-.998-1.247-.25-.25-.374-.499-.374-.748-.374-.25-.623-.499-.25-.873.624-.624 3.118 0 3.617-.125.498 0 1.995-.499 2.493.125 1.87-.25 2.245-.873 3.367-5.736.623-2.368-10.1-22.941-11.97-35.409-1.87-12.469 18.702-20.698 24.937-23.815.498-.249 1.246-.498 2.244-.623.249-.748.499-1.372.499-2.12.124-3.74-.499-10.598-1.746-13.964-27.18 7.231-46.756 31.42-46.133 60.346.749 34.662 30.423 63.089 66.207 63.464 35.908.249 64.461-27.68 63.588-62.591-.374-14.962-6.109-28.802-15.336-39.649 0 1.745-4.364 3.242-9.601 3.491z" fill="#974B52"/><path d="M176.013 188.284c-.748-.872-1.621-1.745-2.369-2.618a50.885 50.885 0 00-3.367 1.87c2.619.125 4.614.25 5.736.748zM117.036 166.215c-.125 1.246-2.868.872-3.74 1.62-.25.25-.374.499-.499.749 1.496 2.618 4.738 8.727 7.98 11.346 2.867 2.369 15.71 3.366 22.318 3.74 6.483-1.122 20.198-2.369 23.191-2.618.498 0 1.122-.125 1.87-.25-11.596-9.6-26.558-15.336-42.766-15.46-3.741 0-7.356.249-10.848.873.873.249 1.746.249 2.494 0z" fill="#974B52"/><path d="M110.054 181.675c0 .748-.249 1.372-.498 2.12 5.486-.873 17.954-.249 29.674.748 1.122-.249 1.87-.374 2.369-.499.499-.124.998-.249 1.621-.374-6.608-.374-19.45-1.371-22.318-3.74-3.242-2.618-6.484-8.728-7.98-11.346-.249.498 0 .997 0 .997l-1.745-1.122s.623-.873-.374-1.496c-.749.125-1.621.374-2.369.623 1.122 3.491 1.62 10.349 1.62 14.089z" fill="#974B52"/><path d="M176.764 189.156a1.125 1.125 0 00-.748-.748c.249.25.498.624.748.873v-.125zM162.923 191.65c.624 0 .998.125.873.623-.249 1.372-3.616 1.995-6.608 2.619-5.736 3.241-11.72 6.608-16.708 9.476 11.097-5.86 23.565-11.471 26.682-11.721 5.237-.249 9.601-1.745 9.476-3.366-.249-.249-.498-.623-.748-.873-.997-.498-3.117-.623-5.735-.748-1.995.998-4.489 2.369-7.232 3.99zM89.235 217.209c-1.122-10.847-.499-22.193 7.48-25.31 1.497-.499 3.866-1.122 6.858-1.621 1.746-1.371 4.738-3.865 5.86-6.608-.997.125-1.745.374-2.244.623-6.234 3.242-26.807 11.346-24.936 23.815 1.87 12.468 12.592 33.041 11.969 35.409-1.247 4.738-1.62 5.487-3.366 5.736l.124.125c.25.623.748 1.62.25 1.745-.374 1.122-1.372 2.743-1.372 2.743s-.124-.125-.25-.125l.25.125s.998 1.247 2.494 2.618c0-.249-.125-.374-.125-.623-.125-1.87 1.372-3.366 3.367-3.366 1.87 0 3.49 1.496 3.615 3.366s-1.371 3.366-3.366 3.366h-.125c3.616 2.494 8.105 3.99 11.845.25 7.232-7.356 6.484-25.311 7.73-29.675.624-2.119.499-4.114 1.123-6.358-1.497.872-3.242 1.371-4.988 1.496-7.356.499-21.32.249-22.193-7.731z" fill="#A75256"/><path d="M103.574 190.278c4.364-.748 9.975-1.371 15.586-1.994 8.229-1.871 15.959-3.118 19.949-3.866-11.72-.997-24.064-1.745-29.675-.748-1.122 2.743-4.114 5.362-5.86 6.608z" fill="#A75256"/><path d="M173.518 185.79c1.371-.748 2.369-1.247 2.868-1.371 3.989-1.497 7.979-3.491 6.982-4.738-.873-1.122-10.349.623-15.087 1.371 1.87 1.372 3.616 2.993 5.237 4.738z" fill="#994F55"/><path d="M143.098 183.67a81.28 81.28 0 003.865.125l-3.865.998c9.6.872 18.203 1.87 20.946 2.244 2.245.249 4.364.374 6.234.499 1.247-.749 2.369-1.247 3.367-1.871-1.621-1.745-3.491-3.366-5.237-4.862-.748.124-1.496.124-1.87.249-3.242.249-16.957 1.496-23.44 2.618zM138.359 205.616c.748-.374 1.497-.873 2.245-1.247-.499.25-1.122.624-1.621.873-.25 0-.499.249-.624.374z" fill="#994F55"/><path d="M139.109 184.418c1.372.125 2.743.249 3.99.374l3.865-.997s-1.496 0-3.865-.125c-.623.125-1.247.249-1.621.374-.498.125-1.246.249-2.369.374zM138.98 205.114c.499-.249 1.123-.623 1.621-.873 4.988-2.867 10.972-6.234 16.708-9.475-1.87.374-3.616.748-4.364 1.246-.998.749-7.232 4.738-13.965 9.102zM146.34 187.908c3.865 1.995 20.323 1.87 10.972 3.865s-28.677 6.858-15.461 4.738c10.598-1.745 18.578-4.738 21.196-4.862 2.743-1.497 5.237-2.868 7.357-4.115-1.87-.125-3.865-.249-6.234-.499-2.743-.374-11.222-1.371-20.947-2.244l-10.598 2.618c6.858-.249 12.344-.124 13.715.499z" fill="#994F55"/><path d="M119.16 188.408c4.613-.374 9.227-.748 13.341-.873l10.598-2.618c-1.371-.125-2.618-.249-3.99-.374-3.989.623-11.72 1.995-19.949 3.865z" fill="#994F55"/><path d="M127.386 211.849c-2.369 1.995-5.361 5.362-9.6 8.728a13.954 13.954 0 00-1.247 2.992c1.372-.872 2.618-1.994 3.491-3.366.499-.748.873-1.496 1.372-2.369.748-1.496 9.101-7.107 16.956-12.219-3.615 1.995-6.483 3.616-7.854 4.364-1.123.624-2.245 1.247-3.118 1.87z" fill="#A75256"/><path d="M115.296 222.321c-7.231 5.112-19.2-.873-19.2-.873s-3.492-8.727-6.11-18.951c-.998-3.741 5.112-7.107 13.466-9.85l-1.247-1.247s.498-.374 1.371-.998c-2.992.499-5.361 1.123-6.857 1.621-7.98 3.117-8.603 14.463-7.481 25.311.748 7.855 14.712 8.229 22.193 7.73 1.746-.125 3.491-.623 4.988-1.496.249-.998.623-1.995 1.246-2.992-.748.498-1.496 1.122-2.369 1.745zM129.635 210.353c-.748.249-1.496.872-2.244 1.496l2.992-1.87c-.374.124-.623.249-.748.374zM163.796 192.149c.124-.499-.25-.624-.873-.624-1.87.998-3.741 2.12-5.735 3.242 2.992-.623 6.358-1.247 6.608-2.618z" fill="#A75256"/><path d="M102.199 191.276l1.247 1.246c4.863-1.62 10.349-2.992 15.71-4.239a194.73 194.73 0 00-15.585 1.995c-.748.624-1.372.998-1.372.998zM122.772 214.964c-2.493 1.995-3.989 3.866-4.987 5.486 4.239-3.366 7.232-6.732 9.601-8.727-1.871 1.246-3.491 2.369-4.614 3.241zM130.379 209.978c1.371-.748 4.239-2.369 7.855-4.364.249-.124.374-.249.623-.374a107.845 107.845 0 00-8.478 4.738z" fill="#A75256"/><path d="M157.185 191.775c9.351-1.995-7.107-1.87-10.972-3.865-1.371-.749-6.857-.749-13.715-.499l-27.555 6.733-1.621-1.621c-8.353 2.743-14.463 6.109-13.465 9.85 2.618 10.099 6.11 18.951 6.11 18.951s11.969 5.985 19.2.873c.873-.623 1.621-1.247 2.369-1.87.998-1.621 2.494-3.491 4.988-5.486 1.122-.873 2.743-1.995 4.613-3.242a11.724 11.724 0 012.244-1.496c.125-.125.499-.249.873-.374a428.356 428.356 0 018.478-4.738c6.733-4.488 13.092-8.478 13.965-8.977.748-.499 2.493-.873 4.364-1.247 1.995-1.122 3.865-2.244 5.735-3.242-2.618 0-10.598 3.117-21.196 4.863-13.092 2.244 6.234-2.618 15.585-4.613z" fill="#A75256"/><path d="M105.07 194.27l27.555-6.733c-4.114.125-8.852.499-13.341.873-5.361 1.247-10.972 2.618-15.71 4.239l1.496 1.621z" fill="#A75256"/><path d="M95.718 259.35c-1.247-.872-2.369-1.87-3.366-2.743.374 1.621 1.745 2.743 3.366 2.743z" fill="#F37880"/><path d="M99.209 255.986c-.125-1.871-1.746-3.367-3.616-3.367a3.352 3.352 0 00-3.366 3.367c0 .249 0 .374.124.623.873.873 2.12 1.87 3.367 2.743h.124c1.995 0 3.491-1.496 3.367-3.366zm-6.11-.125c0-1.247.998-2.244 2.245-2.244 1.246 0 2.369.997 2.369 2.244a2.235 2.235 0 01-2.245 2.244c-1.246 0-2.244-.997-2.369-2.244z" fill="#F37880"/><path d="M97.836 255.861c0-1.246-1.122-2.244-2.37-2.244a2.235 2.235 0 00-2.243 2.244c0 1.247 1.122 2.245 2.369 2.245a2.235 2.235 0 002.244-2.245zm-1.746 1.247c-.374.125-.997.25-1.496-.124-.873-.624-.623-1.247-.623-1.372.25-.374.374-.873 2.12-.499.249 0 .748.374.748.998 0 .374-.25.748-.749.997z" fill="#A75256"/><path d="M85.121 250.125l.374.748c.499.748.624.998.998 1.247.249.125 2.244 1.247 2.992 1.745-.873-.498-3.117-1.745-3.242-1.87 0-.249-.748-1.122-1.122-1.87z" fill="#F37880"/><path d="M91.23 251.247c-.124 0-4.114-.872-4.862-.748-.374 0-.873-.124-1.247-.249.374.748.998 1.621 1.122 1.746.125.124 2.37 1.371 3.242 1.87.125.125.25.124.25.124s1.121-1.745 1.496-2.743z" fill="#F37880"/><path d="M112.174 167.584c.125.25.374.624.624.998.124-.25.249-.499.498-.748.873-.748 3.491-.374 3.741-1.621-.748.249-1.621.125-2.369 0-.998.125-2.12.374-3.117.623.249.25.499.499.623.748z" fill="#5C424E"/><path d="M111.054 168.584l1.745 1.122s-.124-.499 0-.997c-.249-.499-.498-.873-.623-.998l-.624-.623c-.249.125-.623.125-.872.249.997.374.374 1.247.374 1.247z" fill="#5C424E"/><path d="M96.216 254.988c-1.746-.374-1.87.125-2.12.499-.125.124-.25.748.623 1.371.5.374.998.25 1.497.125.498-.125.748-.499.748-.998 0-.623-.499-.872-.748-.997z" fill="#5C414E"/><path d="M84.996 249.502s0-.124 0 0v-.124c.125-.25.748-.125 1.746 0 1.122.124 3.865.124 3.865.124h.124c-.498-.623-1.995-.249-2.493-.124-.499.124-2.993-.499-3.616.124-.25.374-.125.624.25.873 0-.125-.125-.124-.125-.249.249-.374.249-.499.249-.624zM91.479 250.501c0 .124 0 .374-.125.623.499-.249 0-1.122-.25-1.745 0 0 0-.125-.124-.125h-.124c0 .249.498.623.623 1.247zM85 249.378c.125-.125 0 0 0 0z" fill="#E5737E"/><path d="M85.121 249.877c0 .125 0 .125.125.249-.125 0-.125-.124-.125-.249zM90.233 249.378c.25 0 .374 0 .624-.125 0 0-2.868.125-3.865-.124-.998-.125-1.621-.125-1.746 0 .374-.25 2.743.498 4.987.249z" fill="#E5737E"/><path d="M90.856 249.378c-.249 0-.373 0-.623.125-2.244.249-4.489-.499-5.112-.125v.624c0 .124 0 .124.125.249.374.125.873.249 1.247.249.748 0 4.738.873 4.738.873h.124c.125-.249.125-.498.125-.623-.125-.873-.624-1.247-.624-1.372z" fill="#E5737E"/><path d="M84.37 155.118c3.242-.125 15.586-5.735 26.682-11.72.749-.499 1.497-.873 2.245-1.247 7.855-5.237 16.084-10.847 16.957-12.343.498-.873.872-1.746 1.371-2.369.873-1.372 2.12-2.494 3.616-3.367.623-2.244.499-4.239 1.122-6.359 1.247-4.364.499-22.318 7.73-29.674 3.741-3.865 8.229-2.244 11.845.125 1.621 0 2.993 1.246 3.367 2.743a68.047 68.047 0 012.493 2.618s.125.125.25.125c.748.374 2.743 1.496 2.992 1.745.374.25.499.499.997 1.247.25.25.374.499.374.748.375.25.624.499.25.873-.624.623-3.117.124-3.616.124-.499 0-2.12.5-2.494-.124-1.87.25-2.244.997-3.366 5.735-.623 2.369 10.224 22.942 11.969 35.535 1.871 12.468-18.827 20.697-25.061 23.939-.498.249-1.247.498-2.244.623-.249.748-.499 1.372-.499 2.12-.124 3.74.499 10.598 1.746 13.964 27.305-7.231 47.005-31.544 46.257-60.595-.748-34.787-30.547-63.09-66.456-63.214-35.784-.125-64.211 28.053-63.338 62.715.374 14.962 5.984 28.677 15.21 39.399 0-1.62 4.365-2.992 9.602-3.366z" fill="#974B52"/><path d="M75.766 159.482c.748.873 1.62 1.746 2.369 2.619.997-.499 2.12-1.122 3.366-1.746-2.743-.249-4.738-.374-5.735-.873zM134.495 181.426c.124-1.247 2.867-.873 3.74-1.621.25-.249.374-.498.499-.748-1.496-2.618-4.738-8.727-7.98-11.346-2.867-2.369-15.71-3.366-22.318-3.74-6.483 1.122-20.074 2.369-23.19 2.618-.5 0-1.123.125-1.871.249 11.596 9.601 26.433 15.336 42.641 15.461 3.741 0 7.357-.249 10.848-.873-.748-.124-1.496-.124-2.369 0z" fill="#974B52"/><path d="M141.599 166.09c0-.748.249-1.371.499-2.119-5.486.873-17.954.249-29.675-.748-1.122.249-1.87.374-2.369.498-.498.125-.997.25-1.62.374 6.483.374 19.45 1.372 22.318 3.741 3.242 2.618 6.483 8.728 7.979 11.346.25-.499 0-.997 0-.997l1.746 1.122s-.623.872.374 1.496c.873-.125 1.621-.374 2.369-.624-1.247-3.491-1.746-10.348-1.621-14.089zM74.894 158.732c.125.374.375.624.749.748-.25-.249-.5-.623-.749-.873v.125zM88.733 156.239c-.623 0-.997-.125-.873-.623.25-1.372 3.616-1.995 6.609-2.619 5.735-3.241 11.72-6.608 16.707-9.476-11.097 5.861-23.44 11.471-26.682 11.721-5.237.249-9.6 1.745-9.476 3.366.25.249.499.623.748.873.998.499 3.117.623 5.736.748a667.115 667.115 0 017.231-3.99zM162.294 130.43c1.123 10.848.499 22.318-7.481 25.311-1.496.498-3.865 1.122-6.857 1.621-1.746 1.371-4.738 3.989-5.86 6.608.997-.125 1.745-.374 2.244-.624 6.234-3.241 26.807-11.346 25.061-23.939-1.87-12.468-12.593-33.041-11.969-35.534 1.247-4.863 1.621-5.486 3.366-5.736l-.124-.124c-.25-.624-.749-1.621-.25-1.746.374-1.122 1.372-2.867 1.372-2.867s.124.124.249.124l-.249-.124s-.998-1.247-2.494-2.619c0 .25.125.374.125.624.124 1.87-1.372 3.366-3.367 3.49-1.87 0-3.491-1.495-3.616-3.366-.124-1.87 1.372-3.366 3.367-3.49h.125c-3.616-2.37-8.23-3.99-11.845-.126-7.232 7.481-6.484 25.436-7.731 29.675-.623 2.12-.498 4.114-1.122 6.359 1.496-.873 3.242-1.372 4.988-1.496 7.356-.125 21.32 0 22.068 7.979z" fill="#A75256"/><path d="M147.956 157.361c-4.364.748-9.974 1.497-15.585 1.995-8.229 1.87-15.959 3.117-19.949 3.865 11.72.998 24.064 1.621 29.674.749 1.122-2.619 4.115-5.237 5.86-6.609z" fill="#A75256"/><path d="M78.135 162.1c-1.372.748-2.37 1.246-2.868 1.371-3.99 1.496-7.855 3.491-6.982 4.738.872 1.122 10.224-.623 15.086-1.371-1.87-1.497-3.616-3.118-5.236-4.738z" fill="#994F55"/><path d="M108.431 164.096c-2.369-.125-3.866-.125-3.866-.125l3.866-.998c-9.6-.872-18.08-1.87-20.822-2.244-2.245-.249-4.364-.374-6.11-.499-1.247.749-2.369 1.247-3.366 1.746 1.62 1.746 3.366 3.242 5.237 4.863.748-.125 1.496-.125 1.87-.25 2.992-.124 16.707-1.371 23.191-2.493zM113.295 142.15c-.748.374-1.496.873-2.244 1.247.499-.249 1.122-.623 1.621-.873.124 0 .374-.124.623-.374z" fill="#994F55"/><path d="M112.425 163.347c-1.371-.125-2.743-.25-3.99-.374l-3.865.997s1.496 0 3.865.125c.624-.125 1.247-.25 1.621-.374.499-.125 1.372-.25 2.369-.374zM112.672 142.65c-.499.25-1.122.624-1.621.873-4.987 2.868-10.972 6.234-16.707 9.476 1.87-.374 3.616-.748 4.364-1.247.872-.748 7.231-4.738 13.964-9.102zM105.318 159.856c-3.865-1.995-20.323-1.746-10.972-3.865 9.351-1.995 28.552-6.858 15.461-4.738-10.474 1.745-18.578 4.862-21.072 4.862a250.226 250.226 0 00-7.231 4.115c1.745.125 3.865.249 6.11.499 2.742.374 11.22 1.371 20.821 2.244l10.598-2.618c-6.982.249-12.343.124-13.715-.499z" fill="#994F55"/><path d="M132.373 159.355c-4.614.375-9.227.749-13.341.998l-10.598 2.618c1.371.125 2.618.25 3.989.374 3.99-.748 11.721-2.119 19.95-3.99z" fill="#994F55"/><path d="M124.14 135.917c2.369-1.995 5.361-5.361 9.6-8.727.624-1.123.998-2.12 1.247-2.993a13.253 13.253 0 00-3.616 3.367c-.498.748-.873 1.496-1.371 2.369-.748 1.496-9.102 7.107-16.957 12.343 3.616-1.995 6.483-3.616 7.855-4.364 1.371-.748 2.369-1.371 3.242-1.995zM136.24 125.443c7.232-5.112 19.201.872 19.201.872s3.491 8.728 6.11 18.952c.997 3.741-5.112 7.107-13.466 9.975l1.247 1.247s-.499.374-1.372.997c2.993-.499 5.362-1.122 6.858-1.621 8.104-3.117 8.603-14.588 7.481-25.31-.748-7.98-14.838-8.105-22.194-7.731-1.745.125-3.491.624-4.987 1.496-.249.998-.623 1.995-1.247 2.993.748-.748 1.496-1.247 2.369-1.87z" fill="#A75256"/><path d="M121.897 137.414c.748-.249 1.496-.873 2.244-1.496l-2.993 1.87c.374-.124.624-.249.749-.374zM87.86 155.616c-.125.374.25.624.873.624 1.87-.998 3.74-2.12 5.735-3.242-3.117.623-6.359 1.247-6.608 2.618zM149.328 156.366l-1.247-1.247c-4.863 1.621-10.349 2.993-15.71 4.239 5.735-.498 11.346-1.246 15.585-1.995.873-.623 1.372-.997 1.372-.997zM128.758 132.675c2.493-1.994 3.99-3.865 4.987-5.486-4.239 3.367-7.232 6.733-9.6 8.728 1.994-1.122 3.491-2.244 4.613-3.242zM121.154 137.787c-1.371.748-4.239 2.369-7.855 4.364-.249.125-.374.249-.623.374a107.845 107.845 0 008.478-4.738z" fill="#A75256"/><path d="M94.345 155.99c-9.35 1.995 6.983 1.87 10.972 3.865 1.372.748 6.858.748 13.716.499l27.554-6.858 1.621 1.621c8.354-2.743 14.463-6.11 13.466-9.975-2.618-10.224-6.11-18.951-6.11-18.951s-11.969-5.985-19.201-.873c-.872.623-1.62 1.247-2.369 1.87-.997 1.621-2.493 3.491-4.987 5.486-1.122.873-2.743 1.995-4.613 3.242a11.724 11.724 0 01-2.244 1.496c-.125.125-.499.249-.873.374a428.547 428.547 0 01-8.479 4.738c-6.732 4.489-13.091 8.478-13.84 9.102-.747.499-2.493.873-4.363 1.247-1.995 1.122-3.865 2.244-5.736 3.241 2.619 0 10.598-3.117 21.072-4.862 13.091-2.12-6.234 2.743-15.586 4.738z" fill="#A75256"/><path d="M146.465 153.496l-27.555 6.858c4.115-.125 8.728-.499 13.341-.998 5.361-1.247 10.972-2.618 15.71-4.239l-1.496-1.621z" fill="#A75256"/><path d="M155.938 88.287c1.246.873 2.368 1.87 3.366 2.743-.374-1.62-1.746-2.743-3.366-2.743z" fill="#F37880"/><path d="M152.32 91.653c.125 1.87 1.746 3.367 3.616 3.367s3.366-1.621 3.366-3.492c0-.249.001-.374-.124-.623-.998-.873-2.12-1.87-3.367-2.743h-.124c-1.87.125-3.367 1.621-3.367 3.491zm6.11.125a2.235 2.235 0 01-2.245 2.244c-1.246 0-2.369-.997-2.493-2.244 0-1.247.997-2.244 2.244-2.244 1.372 0 2.494.997 2.494 2.244z" fill="#F37880"/><path d="M153.815 91.778c0 1.246 1.122 2.244 2.494 2.244a2.235 2.235 0 002.244-2.245c0-1.246-1.122-2.244-2.494-2.244-1.371 0-2.368.998-2.244 2.245zm1.621-1.247c.374-.125.998-.25 1.496.124.873.624.624 1.247.624 1.372-.25.374-.374.873-2.12.499-.249 0-.748-.374-.748-.998 0-.374.374-.748.748-.997z" fill="#A75256"/><path d="M166.411 97.389l-.374-.748c-.499-.748-.624-.998-.998-1.247-.249-.125-2.244-1.247-2.992-1.746.873.5 3.117 1.746 3.242 1.87.124.25.872 1.123 1.122 1.87z" fill="#F37880"/><path d="M160.301 96.391s.124 0 0 0c.124 0 4.114.873 4.987.748.374 0 .873.125 1.247.25-.374-.748-.998-1.621-1.122-1.746-.125-.124-2.369-1.371-3.242-1.87-.125-.125-.249-.125-.249-.125s-1.247 1.621-1.621 2.743z" fill="#F37880"/><path d="M139.355 180.179c-.125-.249-.374-.623-.624-.997-.124.249-.249.498-.498.748-.873.748-3.491.374-3.741 1.621.748-.25 1.621-.125 2.369 0 .998-.125 2.12-.374 3.117-.624-.249-.249-.499-.499-.623-.748z" fill="#A75256"/><path d="M140.476 179.181l-1.746-1.122s.125.498 0 .997c.25.499.499.873.624.998.125.124.374.374.623.748.25 0 .624-.125.873-.25-.997-.498-.374-1.371-.374-1.371z" fill="#A75256"/><path d="M155.314 92.528c1.746.374 1.871-.125 2.12-.499.125-.125.249-.748-.623-1.371-.499-.374-.998-.25-1.497-.125-.498.125-.748.499-.748.997.125.748.624.998.748.998z" fill="#5C414E"/><path d="M166.661 98.139v.124c-.125.25-.748.125-1.746 0-1.122-.124-3.99 0-3.99 0h-.124c.499.624 1.995.25 2.493.125.499-.125 2.993.499 3.616-.125.25-.374.125-.623-.249-.872 0 .124.125.124.125.249-.125.25-.125.374-.125.499zM160.179 97.141c0-.125 0-.374.124-.623-.498.249 0 1.122.25 1.745 0 0 0 .125.124.125h.125c-.125-.25-.499-.624-.623-1.247z" fill="#E5737E"/><path d="M166.535 97.64c0-.125 0-.125-.125-.25.125.125.125.25.125.25zM161.424 98.138c-.249 0-.374 0-.623.125 0 0 2.867-.125 3.99 0 .997.124 1.62.124 1.745 0-.499.374-2.868-.25-5.112-.125z" fill="#E5737E"/><path d="M160.803 98.263c.249 0 .374 0 .623-.125 2.244-.25 4.613.499 5.112.124v-.124-.499c0-.125 0-.125-.125-.25-.374-.124-.872-.249-1.246-.249-.873 0-4.863-.872-4.863-.872h-.125c-.124.249-.124.498-.124.623.249.873.623 1.247.748 1.371z" fill="#E5737E"/><path d="M243.426 346.889l4.134.041-.096-4.133-7.73-333.775-.09-3.905-3.907-.002L9.065 4.99 4.97 4.988l.093 4.092 7.48 331.656.088 3.871 3.872.038 226.922 2.244z" stroke="#FFF1F0" stroke-width="8"/></svg>