<svg width="245" height="348" viewBox="0 0 245 348" fill="none" xmlns="http://www.w3.org/2000/svg">
<path d="M227.895 339.644H8.70312V8.11328L235.999 8.73669L227.895 339.644Z" fill="#A75256"/>
<g opacity="0.3">
<g opacity="0.3">
<path opacity="0.3" d="M139.873 23.9453L22.4219 139.277V148.503L149.349 23.9453H139.873Z" stroke="#FFF1F0" stroke-width="2" stroke-miterlimit="10"/>
<path opacity="0.3" d="M187.626 24.0723L22.2969 185.536V194.762L197.226 24.0723H187.626Z" stroke="#FFF1F0" stroke-width="2" stroke-miterlimit="10"/>
<path opacity="0.3" d="M178.025 24.0723L22.2969 176.309V185.536L187.626 24.0723H178.025Z" stroke="#FFF1F0" stroke-width="2" stroke-miterlimit="10"/>
<path opacity="0.3" d="M149.349 23.9453L22.4219 148.503V157.854L158.949 24.07L149.349 23.9453Z" stroke="#FFF1F0" stroke-width="2" stroke-miterlimit="10"/>
<path opacity="0.3" d="M168.549 24.0723L22.2969 167.083V176.309L178.025 24.0723H168.549Z" stroke="#FFF1F0" stroke-width="2" stroke-miterlimit="10"/>
<path opacity="0.3" d="M158.949 24.0723L22.4215 157.856L22.2969 167.083L168.549 24.0723H158.949Z" stroke="#FFF1F0" stroke-width="2" stroke-miterlimit="10"/>
<path opacity="0.3" d="M197.226 24.0723L22.2969 194.762V203.989L206.827 24.1969L197.226 24.0723Z" stroke="#FFF1F0" stroke-width="2" stroke-miterlimit="10"/>
<path opacity="0.3" d="M206.827 24.1973L22.2969 203.989V213.216L216.303 24.1973H206.827Z" stroke="#FFF1F0" stroke-width="2" stroke-miterlimit="10"/>
<path opacity="0.3" d="M223.16 45.5176L22.2966 240.646L22.1719 249.747L222.911 54.9934L223.16 45.5176Z" stroke="#FFF1F0" stroke-width="2" stroke-miterlimit="10"/>
<path opacity="0.3" d="M222.911 54.9922L22.1719 249.746V258.723L222.661 64.4681L222.911 54.9922Z" stroke="#FFF1F0" stroke-width="2" stroke-miterlimit="10"/>
<path opacity="0.3" d="M223.41 35.918L22.2969 231.42V240.646L223.16 45.5185L223.41 35.918Z" stroke="#FFF1F0" stroke-width="2" stroke-miterlimit="10"/>
<path opacity="0.3" d="M223.659 24.1973H216.303L22.2969 213.216V222.318L223.534 26.4416L223.659 24.1973Z" stroke="#FFF1F0" stroke-width="2" stroke-miterlimit="10"/>
<path opacity="0.3" d="M223.534 26.4395L22.2969 222.316V231.417L223.41 35.9153L223.534 26.4395Z" stroke="#FFF1F0" stroke-width="2" stroke-miterlimit="10"/>
<path opacity="0.3" d="M82.3942 23.8223L22.4219 82.9217V92.3976L91.9946 23.8223H82.3942Z" stroke="#FFF1F0" stroke-width="2" stroke-miterlimit="10"/>
<path opacity="0.3" d="M63.1894 23.8223L22.543 64.0947V73.5705L72.7899 23.8223H63.1894Z" stroke="#FFF1F0" stroke-width="2" stroke-miterlimit="10"/>
<path opacity="0.3" d="M44.113 23.6973L22.543 45.018V54.6185L53.5888 23.822L44.113 23.6973Z" stroke="#FFF1F0" stroke-width="2" stroke-miterlimit="10"/>
<path opacity="0.3" d="M53.5888 23.8223L22.543 54.6188V64.0947L63.1894 23.8223H53.5888Z" stroke="#FFF1F0" stroke-width="2" stroke-miterlimit="10"/>
<path opacity="0.3" d="M34.5124 23.6973L22.543 35.5421V45.018L44.113 23.6973H34.5124Z" stroke="#FFF1F0" stroke-width="2" stroke-miterlimit="10"/>
<path opacity="0.3" d="M24.9119 23.6973L22.543 26.0662V35.5421L34.5124 23.6973H24.9119Z" stroke="#FFF1F0" stroke-width="2" stroke-miterlimit="10"/>
<path opacity="0.3" d="M22.543 23.6973V26.0662L24.9119 23.6973H22.543Z" stroke="#FFF1F0" stroke-width="2" stroke-miterlimit="10"/>
<path opacity="0.3" d="M120.672 23.9453L22.4219 120.574V129.925L130.272 23.9453H120.672Z" stroke="#FFF1F0" stroke-width="2" stroke-miterlimit="10"/>
<path opacity="0.3" d="M101.595 23.9453L22.4219 101.747V111.223L111.071 23.9453H101.595Z" stroke="#FFF1F0" stroke-width="2" stroke-miterlimit="10"/>
<path opacity="0.3" d="M111.071 23.9453L22.4219 111.223V120.574L120.672 23.9453H111.071Z" stroke="#FFF1F0" stroke-width="2" stroke-miterlimit="10"/>
<path opacity="0.3" d="M130.272 23.9453L22.4219 129.925V139.277L139.873 23.9453H130.272Z" stroke="#FFF1F0" stroke-width="2" stroke-miterlimit="10"/>
<path opacity="0.3" d="M91.9946 23.8223L22.4219 92.3976V101.749L101.595 23.947L91.9946 23.8223Z" stroke="#FFF1F0" stroke-width="2" stroke-miterlimit="10"/>
<path opacity="0.3" d="M72.7935 23.8223L22.5466 73.5705L22.4219 82.9217L82.3942 23.8223H72.7935Z" stroke="#FFF1F0" stroke-width="2" stroke-miterlimit="10"/>
<path opacity="0.3" d="M222.661 64.4668L22.1719 258.722V267.824L222.537 73.818L222.661 64.4668Z" stroke="#FFF1F0" stroke-width="2" stroke-miterlimit="10"/>
<path opacity="0.3" d="M217.421 294.881L180.266 330.041H189.492L217.172 303.858L217.421 294.881Z" stroke="#FFF1F0" stroke-width="2" stroke-miterlimit="10"/>
<path opacity="0.3" d="M218.671 240.645L124.785 330.042H134.012L218.422 249.746L218.671 240.645Z" stroke="#FFF1F0" stroke-width="2" stroke-miterlimit="10"/>
<path opacity="0.3" d="M218.796 231.541L115.559 330.04H124.785L218.671 240.643L218.796 231.541Z" stroke="#FFF1F0" stroke-width="2" stroke-miterlimit="10"/>
<path opacity="0.3" d="M218.173 258.848L143.238 330.041H152.589L218.048 267.825L218.173 258.848Z" stroke="#FFF1F0" stroke-width="2" stroke-miterlimit="10"/>
<path opacity="0.3" d="M219.419 204.111L87.7539 330.041H96.9804L219.294 213.338L219.419 204.111Z" stroke="#FFF1F0" stroke-width="2" stroke-miterlimit="10"/>
<path opacity="0.3" d="M219.045 222.441L106.207 330.042H115.558L218.795 231.543L219.045 222.441Z" stroke="#FFF1F0" stroke-width="2" stroke-miterlimit="10"/>
<path opacity="0.3" d="M219.298 213.338L96.9844 330.041H106.211L219.048 222.44L219.298 213.338Z" stroke="#FFF1F0" stroke-width="2" stroke-miterlimit="10"/>
<path opacity="0.3" d="M218.422 249.748L134.012 330.043H143.238L218.172 258.85L218.422 249.748Z" stroke="#FFF1F0" stroke-width="2" stroke-miterlimit="10"/>
<path opacity="0.3" d="M218.048 267.826L152.59 330.043H161.816L217.799 276.928L218.048 267.826Z" stroke="#FFF1F0" stroke-width="2" stroke-miterlimit="10"/>
<path opacity="0.3" d="M216.552 330.042L216.802 321.812L207.949 330.042H216.552Z" stroke="#FFF1F0" stroke-width="2" stroke-miterlimit="10"/>
<path opacity="0.3" d="M216.802 321.813L216.926 312.836L198.723 330.042H207.949L216.802 321.813Z" stroke="#FFF1F0" stroke-width="2" stroke-miterlimit="10"/>
<path opacity="0.3" d="M217.176 303.857L189.496 330.041H198.722L216.926 312.835L217.176 303.857Z" stroke="#FFF1F0" stroke-width="2" stroke-miterlimit="10"/>
<path opacity="0.3" d="M217.55 285.906L171.043 330.044H180.269L217.425 294.883L217.55 285.906Z" stroke="#FFF1F0" stroke-width="2" stroke-miterlimit="10"/>
<path opacity="0.3" d="M217.799 276.926L161.816 330.04H171.043L217.55 285.903L217.799 276.926Z" stroke="#FFF1F0" stroke-width="2" stroke-miterlimit="10"/>
<path opacity="0.3" d="M220.914 139.404L22.918 330.044H32.1444L220.789 148.755L220.914 139.404Z" stroke="#FFF1F0" stroke-width="2" stroke-miterlimit="10"/>
<path opacity="0.3" d="M221.788 102.123L22.1719 294.882V303.984L221.664 111.474L221.788 102.123Z" stroke="#FFF1F0" stroke-width="2" stroke-miterlimit="10"/>
<path opacity="0.3" d="M221.664 111.475L22.1719 303.984V312.961L221.414 120.826L221.664 111.475Z" stroke="#FFF1F0" stroke-width="2" stroke-miterlimit="10"/>
<path opacity="0.3" d="M221.165 130.176L22.1715 321.813L22.0469 330.042H22.9197L220.915 139.402L221.165 130.176Z" stroke="#FFF1F0" stroke-width="2" stroke-miterlimit="10"/>
<path opacity="0.3" d="M221.414 120.826L22.1719 312.962V321.814L221.165 130.177L221.414 120.826Z" stroke="#FFF1F0" stroke-width="2" stroke-miterlimit="10"/>
<path opacity="0.3" d="M222.038 92.6484L22.1719 285.906V294.883L221.788 102.124L222.038 92.6484Z" stroke="#FFF1F0" stroke-width="2" stroke-miterlimit="10"/>
<path opacity="0.3" d="M222.287 83.2969L22.1719 276.929V285.906L222.038 92.6481L222.287 83.2969Z" stroke="#FFF1F0" stroke-width="2" stroke-miterlimit="10"/>
<path opacity="0.3" d="M222.537 73.8184L22.1719 267.824V276.926L222.287 83.2942L222.537 73.8184Z" stroke="#FFF1F0" stroke-width="2" stroke-miterlimit="10"/>
<path opacity="0.3" d="M220.166 176.557L59.9492 330.041H69.1757L219.917 185.783L220.166 176.557Z" stroke="#FFF1F0" stroke-width="2" stroke-miterlimit="10"/>
<path opacity="0.3" d="M219.921 185.785L69.1797 330.043H78.5309L219.671 194.887L219.921 185.785Z" stroke="#FFF1F0" stroke-width="2" stroke-miterlimit="10"/>
<path opacity="0.3" d="M220.291 167.33L50.7227 330.041H59.9492L220.166 176.557L220.291 167.33Z" stroke="#FFF1F0" stroke-width="2" stroke-miterlimit="10"/>
<path opacity="0.3" d="M220.793 148.754L32.1484 330.042H41.375L220.544 157.98L220.793 148.754Z" stroke="#FFF1F0" stroke-width="2" stroke-miterlimit="10"/>
<path opacity="0.3" d="M220.54 157.979L41.3711 330.04H50.7223L220.29 167.33L220.54 157.979Z" stroke="#FFF1F0" stroke-width="2" stroke-miterlimit="10"/>
<path opacity="0.3" d="M219.668 194.887L78.5273 330.042H87.7537L219.418 204.113L219.668 194.887Z" stroke="#FFF1F0" stroke-width="2" stroke-miterlimit="10"/>
</g>
<g opacity="0.3">
<path opacity="0.3" d="M106.585 23.947L220.919 139.528L220.794 148.879L96.9844 23.8223L106.585 23.947Z" stroke="#FFF1F0" stroke-width="2" stroke-miterlimit="10"/>
<path opacity="0.3" d="M58.7021 23.8223L219.916 185.785L219.667 195.011L49.1016 23.8223H58.7021Z" stroke="#FFF1F0" stroke-width="2" stroke-miterlimit="10"/>
<path opacity="0.3" d="M68.179 23.8223L220.042 176.558L219.917 185.785L58.7031 23.8223H68.179Z" stroke="#FFF1F0" stroke-width="2" stroke-miterlimit="10"/>
<path opacity="0.3" d="M96.9794 23.8223L220.789 148.879L220.54 158.105L87.3789 23.8223H96.9794Z" stroke="#FFF1F0" stroke-width="2" stroke-miterlimit="10"/>
<path opacity="0.3" d="M77.7802 23.8223L220.292 167.332L220.043 176.558L68.1797 23.8223H77.7802Z" stroke="#FFF1F0" stroke-width="2" stroke-miterlimit="10"/>
<path opacity="0.3" d="M87.378 23.8223L220.539 158.105L220.289 167.332L77.7773 23.8223H87.378Z" stroke="#FFF1F0" stroke-width="2" stroke-miterlimit="10"/>
<path opacity="0.3" d="M49.1045 23.822L219.67 195.011L219.421 204.237L39.5039 23.6973L49.1045 23.822Z" stroke="#FFF1F0" stroke-width="2" stroke-miterlimit="10"/>
<path opacity="0.3" d="M39.5029 23.6973L219.42 204.237L219.295 213.339L29.9023 23.6973H39.5029Z" stroke="#FFF1F0" stroke-width="2" stroke-miterlimit="10"/>
<path opacity="0.3" d="M22.543 45.0176L218.668 240.769L218.419 249.871L22.543 54.4934V45.0176Z" stroke="#FFF1F0" stroke-width="2" stroke-miterlimit="10"/>
<path opacity="0.3" d="M22.543 54.4922L218.419 249.869L218.17 258.847L22.543 63.9681V54.4922Z" stroke="#FFF1F0" stroke-width="2" stroke-miterlimit="10"/>
<path opacity="0.3" d="M22.543 35.543L218.793 231.668L218.668 240.77L22.543 45.0188V35.543Z" stroke="#FFF1F0" stroke-width="2" stroke-miterlimit="10"/>
<path opacity="0.3" d="M22.543 23.6973H29.8992L219.292 213.339L219.042 222.441L22.543 25.9416V23.6973Z" stroke="#FFF1F0" stroke-width="2" stroke-miterlimit="10"/>
<path opacity="0.3" d="M22.543 25.9434L219.042 222.443L218.793 231.669L22.543 35.5439V25.9434Z" stroke="#FFF1F0" stroke-width="2" stroke-miterlimit="10"/>
<path opacity="0.3" d="M163.937 24.0723L222.288 83.4211L222.039 92.7722L154.336 24.0723H163.937Z" stroke="#FFF1F0" stroke-width="2" stroke-miterlimit="10"/>
<path opacity="0.3" d="M183.136 24.0723L222.66 64.4694L222.535 73.9452L173.535 24.0723H183.136Z" stroke="#FFF1F0" stroke-width="2" stroke-miterlimit="10"/>
<path opacity="0.3" d="M202.214 24.1969L223.16 45.5176L222.911 54.9935L192.613 24.0723L202.214 24.1969Z" stroke="#FFF1F0" stroke-width="2" stroke-miterlimit="10"/>
<path opacity="0.3" d="M192.613 24.0723L222.91 54.9935L222.661 64.4694L183.137 24.0723H192.613Z" stroke="#FFF1F0" stroke-width="2" stroke-miterlimit="10"/>
<path opacity="0.3" d="M211.815 24.1973L223.411 36.0421L223.162 45.518L202.215 24.1973H211.815Z" stroke="#FFF1F0" stroke-width="2" stroke-miterlimit="10"/>
<path opacity="0.3" d="M221.288 24.1973L223.533 26.5663L223.408 36.0421L211.812 24.1973H221.288Z" stroke="#FFF1F0" stroke-width="2" stroke-miterlimit="10"/>
<path opacity="0.3" d="M223.658 24.1973L223.533 26.5663L221.289 24.1973H223.658Z" stroke="#FFF1F0" stroke-width="2" stroke-miterlimit="10"/>
<path opacity="0.3" d="M125.655 23.9453L221.411 120.824L221.162 130.175L116.055 23.9453H125.655Z" stroke="#FFF1F0" stroke-width="2" stroke-miterlimit="10"/>
<path opacity="0.3" d="M144.858 23.9453L221.787 102.121L221.663 111.472L135.258 23.9453H144.858Z" stroke="#FFF1F0" stroke-width="2" stroke-miterlimit="10"/>
<path opacity="0.3" d="M135.261 23.9453L221.666 111.472L221.416 120.824L125.66 23.9453H135.261Z" stroke="#FFF1F0" stroke-width="2" stroke-miterlimit="10"/>
<path opacity="0.3" d="M116.058 23.9453L221.165 130.175L220.916 139.526L106.582 23.9453H116.058Z" stroke="#FFF1F0" stroke-width="2" stroke-miterlimit="10"/>
<path opacity="0.3" d="M154.335 24.07L222.038 92.77L221.788 102.121L144.859 23.9453L154.335 24.07Z" stroke="#FFF1F0" stroke-width="2" stroke-miterlimit="10"/>
<path opacity="0.3" d="M173.538 24.0723L222.538 73.9452L222.289 83.4211L163.938 24.0723H173.538Z" stroke="#FFF1F0" stroke-width="2" stroke-miterlimit="10"/>
<path opacity="0.3" d="M22.543 63.9707L218.17 258.849L218.045 267.951L22.543 73.4465V63.9707Z" stroke="#FFF1F0" stroke-width="2" stroke-miterlimit="10"/>
<path opacity="0.3" d="M22.1719 294.881L58.4545 330.041H49.228L22.1719 303.858V294.881Z" stroke="#FFF1F0" stroke-width="2" stroke-miterlimit="10"/>
<path opacity="0.3" d="M22.2966 240.52L114.063 330.041H104.836L22.1719 249.621L22.2966 240.52Z" stroke="#FFF1F0" stroke-width="2" stroke-miterlimit="10"/>
<path opacity="0.3" d="M22.2969 231.418L123.29 330.042H114.063L22.2969 240.52V231.418Z" stroke="#FFF1F0" stroke-width="2" stroke-miterlimit="10"/>
<path opacity="0.3" d="M22.1719 258.723L95.4852 330.041H86.2587L22.1719 267.824V258.723Z" stroke="#FFF1F0" stroke-width="2" stroke-miterlimit="10"/>
<path opacity="0.3" d="M22.2969 203.863L151.094 330.042H141.743L22.2969 213.09V203.863Z" stroke="#FFF1F0" stroke-width="2" stroke-miterlimit="10"/>
<path opacity="0.3" d="M22.2969 222.191L132.516 330.042H123.29L22.2969 231.418V222.191Z" stroke="#FFF1F0" stroke-width="2" stroke-miterlimit="10"/>
<path opacity="0.3" d="M22.2969 213.09L141.743 330.042H132.516L22.2969 222.192V213.09Z" stroke="#FFF1F0" stroke-width="2" stroke-miterlimit="10"/>
<path opacity="0.3" d="M22.1719 249.621L104.836 330.041H95.4852L22.1719 258.723V249.621Z" stroke="#FFF1F0" stroke-width="2" stroke-miterlimit="10"/>
<path opacity="0.3" d="M22.1719 267.826L86.2587 330.043H77.0321L22.1719 276.803V267.826Z" stroke="#FFF1F0" stroke-width="2" stroke-miterlimit="10"/>
<path opacity="0.3" d="M22.0469 330.042L22.1715 321.812L30.65 330.042H22.0469Z" stroke="#FFF1F0" stroke-width="2" stroke-miterlimit="10"/>
<path opacity="0.3" d="M22.1719 321.813V312.836L40.0015 330.042H30.6503L22.1719 321.813Z" stroke="#FFF1F0" stroke-width="2" stroke-miterlimit="10"/>
<path opacity="0.3" d="M22.1719 303.857L49.228 330.041H40.0015L22.1719 312.835V303.857Z" stroke="#FFF1F0" stroke-width="2" stroke-miterlimit="10"/>
<path opacity="0.3" d="M22.1719 285.906L67.681 330.044H58.4545L22.1719 294.883V285.906Z" stroke="#FFF1F0" stroke-width="2" stroke-miterlimit="10"/>
<path opacity="0.3" d="M22.1719 276.803L77.0321 330.042H67.681L22.1719 285.905V276.803Z" stroke="#FFF1F0" stroke-width="2" stroke-miterlimit="10"/>
<path opacity="0.3" d="M22.4219 139.152L215.804 330.041H206.578L22.4219 148.504V139.152Z" stroke="#FFF1F0" stroke-width="2" stroke-miterlimit="10"/>
<path opacity="0.3" d="M22.4219 101.748L217.3 295.006L217.176 303.983L22.4219 111.099V101.748Z" stroke="#FFF1F0" stroke-width="2" stroke-miterlimit="10"/>
<path opacity="0.3" d="M22.4219 111.1L217.176 303.983L216.926 312.96L22.4219 120.451V111.1Z" stroke="#FFF1F0" stroke-width="2" stroke-miterlimit="10"/>
<path opacity="0.3" d="M22.4219 129.801L216.677 321.936L216.552 330.041H215.804L22.4219 139.152V129.801Z" stroke="#FFF1F0" stroke-width="2" stroke-miterlimit="10"/>
<path opacity="0.3" d="M22.4219 120.451L216.926 312.961L216.677 321.938L22.4219 129.802V120.451Z" stroke="#FFF1F0" stroke-width="2" stroke-miterlimit="10"/>
<path opacity="0.3" d="M22.4219 92.2734L217.55 286.03L217.3 295.007L22.4219 101.749V92.2734Z" stroke="#FFF1F0" stroke-width="2" stroke-miterlimit="10"/>
<path opacity="0.3" d="M22.4219 82.9219L217.799 277.052L217.55 286.03L22.4219 92.2731V82.9219Z" stroke="#FFF1F0" stroke-width="2" stroke-miterlimit="10"/>
<path opacity="0.3" d="M22.5466 73.4453L218.049 267.95L217.799 277.052L22.4219 82.9212L22.5466 73.4453Z" stroke="#FFF1F0" stroke-width="2" stroke-miterlimit="10"/>
<path opacity="0.3" d="M22.2969 176.309L178.773 330.042H169.547L22.2969 185.535V176.309Z" stroke="#FFF1F0" stroke-width="2" stroke-miterlimit="10"/>
<path opacity="0.3" d="M22.2969 185.535L169.547 330.042H160.32L22.2969 194.762V185.535Z" stroke="#FFF1F0" stroke-width="2" stroke-miterlimit="10"/>
<path opacity="0.3" d="M22.2969 166.957L188 330.042H178.773L22.2969 176.308V166.957Z" stroke="#FFF1F0" stroke-width="2" stroke-miterlimit="10"/>
<path opacity="0.3" d="M22.4219 148.504L206.578 330.041H197.351L22.4219 157.73V148.504Z" stroke="#FFF1F0" stroke-width="2" stroke-miterlimit="10"/>
<path opacity="0.3" d="M22.4215 157.73L197.351 330.042H188L22.2969 166.957L22.4215 157.73Z" stroke="#FFF1F0" stroke-width="2" stroke-miterlimit="10"/>
<path opacity="0.3" d="M22.2969 194.76L160.32 330.04H151.094L22.2969 203.862V194.76Z" stroke="#FFF1F0" stroke-width="2" stroke-miterlimit="10"/>
</g>
</g>
<path d="M160.441 194.017C157.324 194.142 144.981 199.753 133.759 205.737C133.011 206.111 132.263 206.61 131.515 206.984C123.66 212.096 115.306 217.707 114.558 219.203C114.059 220.076 113.561 220.824 113.062 221.572C112.065 222.944 110.942 224.066 109.446 224.814C108.698 227.058 108.823 229.053 108.075 231.048C106.703 235.287 106.828 252.867 99.5962 260.224C95.8557 263.964 91.4919 262.468 88.0008 260.099C86.38 260.099 85.1332 258.977 84.7591 257.481C83.2629 256.109 82.3901 254.862 82.3901 254.862C82.3901 254.862 82.2654 254.738 82.1407 254.738C81.3926 254.363 79.5224 253.241 79.2731 253.117C78.899 252.867 78.7743 252.618 78.2755 251.994C78.1509 251.745 78.0263 251.496 77.9016 251.246C77.5275 250.997 77.2781 250.748 77.6521 250.374C78.2755 249.75 80.6446 250.249 81.1433 250.249C81.642 250.249 83.1382 249.75 83.637 250.374C85.3825 250.124 85.8811 249.501 87.128 244.763C87.7514 242.394 77.9015 222.195 76.4053 209.852C75.0338 197.508 95.4818 189.279 101.716 186.038C102.215 185.788 102.963 185.539 103.835 185.414C104.209 184.666 104.334 184.043 104.459 183.294C104.708 179.554 104.334 172.821 103.212 169.33C76.1559 176.562 56.0821 200.75 55.9574 229.427C55.8328 263.59 83.8863 291.02 118.797 291.02C153.584 291.02 182.385 263.59 183.009 229.552C183.258 214.839 178.271 201.249 169.668 190.526C169.917 192.272 165.678 193.768 160.441 194.017Z" fill="#974B52"/>
<path d="M169.169 189.654C168.421 188.781 167.673 187.908 166.925 187.16C165.927 187.659 164.805 188.282 163.559 188.906C166.177 189.155 168.172 189.155 169.169 189.654Z" fill="#974B52"/>
<path d="M112.067 167.959C111.818 169.206 109.324 168.832 108.327 169.58C108.077 169.829 107.953 170.079 107.828 170.328C109.2 172.946 112.192 179.056 115.309 181.674C118.052 183.918 130.645 184.916 137.128 185.29C143.487 184.168 157.078 182.796 160.07 182.672C160.569 182.672 161.192 182.547 161.94 182.422C150.968 172.946 136.505 167.211 120.546 167.211C116.93 167.211 113.314 167.46 109.823 168.084C110.446 168.208 111.319 168.208 112.067 167.959Z" fill="#974B52"/>
<path d="M104.582 183.295C104.582 183.918 104.333 184.666 103.959 185.414C109.445 184.541 121.539 185.165 133.01 186.038C134.132 185.788 134.88 185.664 135.379 185.539C135.878 185.414 136.376 185.289 137 185.165C130.516 184.791 117.923 183.918 115.18 181.549C112.063 178.931 109.071 172.821 107.699 170.203C107.45 170.702 107.575 171.2 107.575 171.2L105.829 170.078C105.829 170.078 106.577 169.205 105.58 168.582C104.832 168.707 103.959 168.956 103.211 169.205C104.582 172.821 104.832 179.679 104.582 183.295Z" fill="#974B52"/>
<path d="M169.916 190.402C169.916 190.028 169.542 189.779 169.168 189.654C169.417 189.904 169.667 190.278 169.916 190.527C169.916 190.527 169.916 190.527 169.916 190.402Z" fill="#A75256"/>
<path d="M156.201 193.021C156.824 193.021 157.199 193.146 157.074 193.645C156.7 195.016 153.458 195.639 150.59 196.263C144.855 199.505 138.87 202.871 133.883 205.739C144.98 199.879 157.323 194.268 160.565 194.019C165.677 193.769 170.041 192.273 170.041 190.652C169.791 190.403 169.542 190.029 169.293 189.779C168.295 189.281 166.3 189.156 163.682 189.031C161.438 190.153 158.944 191.525 156.201 193.021Z" fill="#A75256"/>
<path d="M83.1389 218.704C82.3908 207.982 83.2636 196.76 91.2432 193.643C92.7394 193.144 95.1084 192.521 97.9761 192.022C99.7217 190.651 102.714 188.157 103.961 185.414C103.088 185.539 102.34 185.788 101.841 186.037C95.6071 189.279 75.1592 197.384 76.5307 209.852C78.0269 222.195 87.8769 242.394 87.2535 244.763C86.0066 249.501 85.5079 250.124 83.7623 250.374C83.7623 250.374 83.7623 250.374 83.887 250.498C84.1363 251.122 84.5105 251.994 84.1364 252.244C83.7624 253.241 82.6401 254.987 82.6401 254.987C82.6401 254.987 82.5155 254.862 82.3908 254.862C82.5155 254.987 82.6401 254.987 82.6401 254.987C82.6401 254.987 83.5129 256.109 85.0091 257.605C85.0091 257.48 84.8845 257.231 84.8845 256.982C84.8845 255.112 86.3806 253.615 88.2508 253.615C90.1211 253.615 91.6173 254.987 91.742 256.857C91.742 258.727 90.2457 260.224 88.3755 260.224H88.2508C91.6173 262.592 96.1059 264.089 99.8464 260.348C107.078 253.117 106.953 235.412 108.325 231.172C108.948 229.178 108.948 227.183 109.696 224.938C108.2 225.811 106.579 226.31 104.709 226.435C97.3527 226.684 83.6376 226.559 83.1389 218.704Z" fill="#A75256"/>
<path d="M97.9727 192.024C102.212 191.275 107.823 190.527 113.433 190.029C121.538 188.158 129.143 186.787 133.133 186.039C121.662 185.041 109.443 184.418 104.082 185.415C102.835 188.034 99.8429 190.652 97.9727 192.024Z" fill="#A75256"/>
<path d="M166.925 187.159C168.296 186.411 169.294 185.912 169.793 185.787C173.782 184.166 177.772 182.296 176.775 181.049C176.027 180.052 166.675 181.798 161.938 182.421C163.683 183.917 165.304 185.413 166.925 187.159Z" fill="#994F55"/>
<path d="M137.125 185.29C139.369 185.415 140.865 185.415 140.865 185.415L137 186.412C146.476 187.285 154.83 188.158 157.448 188.532C159.692 188.781 161.687 188.906 163.433 189.03C164.68 188.282 165.802 187.784 166.799 187.285C165.178 185.664 163.557 184.043 161.812 182.547C161.064 182.672 160.316 182.672 159.942 182.796C157.074 182.796 143.484 184.043 137.125 185.29Z" fill="#994F55"/>
<path d="M131.637 206.985C132.385 206.611 133.133 206.112 133.881 205.738C133.382 205.988 132.759 206.362 132.26 206.611C132.011 206.611 131.761 206.86 131.637 206.985Z" fill="#994F55"/>
<path d="M133.133 186.037C134.504 186.162 135.751 186.287 137.123 186.411L140.988 185.414C140.988 185.414 139.492 185.414 137.247 185.289C136.624 185.414 136.125 185.538 135.626 185.663C135.003 185.663 134.255 185.788 133.133 186.037Z" fill="#994F55"/>
<path d="M132.262 206.485C132.76 206.236 133.384 205.862 133.882 205.613C138.87 202.745 144.855 199.378 150.59 196.137C148.72 196.511 146.974 196.885 146.226 197.384C145.353 198.132 138.995 202.121 132.262 206.485Z" fill="#994F55"/>
<path d="M140.118 189.406C143.859 191.401 160.067 191.152 150.716 193.147C141.365 195.266 122.413 200.004 135.38 197.885C145.729 196.139 153.833 193.022 156.327 193.022C159.07 191.526 161.564 190.154 163.683 188.907C161.938 188.783 159.818 188.658 157.699 188.409C155.08 188.159 146.727 187.162 137.251 186.289L126.777 188.907C133.386 188.658 138.747 188.783 140.118 189.406Z" fill="#994F55"/>
<path d="M113.438 190.027C117.926 189.528 122.539 189.279 126.654 189.029L137.127 186.411C135.88 186.286 134.509 186.162 133.137 186.037C129.147 186.785 121.542 188.157 113.438 190.027Z" fill="#994F55"/>
<path d="M120.667 213.095C118.173 215.09 115.181 218.332 110.942 221.699C110.319 222.696 109.82 223.693 109.57 224.691C110.942 223.943 112.189 222.821 113.186 221.449C113.685 220.826 114.184 219.953 114.682 219.08C115.431 217.584 123.784 211.973 131.639 206.861C128.023 208.856 125.156 210.477 123.784 211.225C122.662 211.973 121.665 212.597 120.667 213.095Z" fill="#A75256"/>
<path d="M108.447 223.568C101.215 228.555 89.6194 222.82 89.6194 222.82C89.6194 222.82 86.5025 214.217 84.1335 204.118C83.2607 200.377 89.3701 197.011 97.7238 194.268L96.477 193.021C96.477 193.021 97.1005 192.647 97.8486 192.023C94.8562 192.522 92.4872 193.146 91.1157 193.644C83.136 196.761 82.2633 208.107 83.0114 218.705C83.5101 226.56 97.2251 226.685 104.457 226.186C106.202 226.062 107.948 225.563 109.444 224.69C109.693 223.693 110.192 222.695 110.815 221.698C110.192 222.446 109.319 222.945 108.447 223.568Z" fill="#A75256"/>
<path d="M122.908 211.724C122.16 211.973 121.412 212.596 120.664 213.22C121.662 212.596 122.659 211.973 123.656 211.35C123.407 211.474 123.033 211.599 122.908 211.724Z" fill="#A75256"/>
<path d="M157.077 193.643C157.202 193.269 156.828 193.02 156.204 193.02C154.334 194.017 152.464 195.139 150.469 196.261C153.461 195.638 156.828 194.89 157.077 193.643Z" fill="#A75256"/>
<path d="M96.6055 193.022L97.8523 194.269C102.59 192.648 108.201 191.276 113.438 190.029C107.827 190.528 102.341 191.276 97.9769 192.024C97.2289 192.648 96.6055 193.022 96.6055 193.022Z" fill="#A75256"/>
<path d="M116.057 216.336C113.564 218.331 111.943 220.201 110.945 221.822C115.309 218.455 118.301 215.089 120.67 213.219C118.8 214.341 117.179 215.463 116.057 216.336Z" fill="#A75256"/>
<path d="M123.66 211.347C125.032 210.599 127.899 208.978 131.515 206.983C131.765 206.859 131.889 206.734 132.139 206.609C129.146 208.106 126.278 209.726 123.66 211.347Z" fill="#A75256"/>
<path d="M150.717 193.145C160.068 191.026 143.859 191.275 140.119 189.405C138.747 188.781 133.386 188.657 126.653 189.031L99.3478 195.888L97.8516 194.267C89.6226 197.01 83.5131 200.377 84.2612 204.117C86.5055 214.217 89.7473 222.82 89.7473 222.82C89.7473 222.82 101.343 228.555 108.574 223.568C109.447 222.944 110.195 222.321 110.943 221.822C111.941 220.201 113.562 218.456 116.055 216.336C117.177 215.463 118.798 214.341 120.668 213.094C121.417 212.471 122.165 211.972 122.913 211.598C123.037 211.474 123.411 211.349 123.785 211.224C126.404 209.728 129.272 208.107 132.264 206.486C138.997 202.122 145.356 198.133 146.228 197.509C146.976 197.01 148.722 196.636 150.592 196.262C152.587 195.14 154.457 194.018 156.328 193.021C153.834 193.145 145.73 196.138 135.381 197.883C122.289 200.127 141.366 195.265 150.717 193.145Z" fill="#A75256"/>
<path d="M99.3477 195.889L126.653 189.031C122.539 189.281 118.05 189.53 113.437 190.029C108.076 191.276 102.589 192.647 97.8516 194.268L99.3477 195.889Z" fill="#A75256"/>
<path d="M88.1245 260.101C86.8777 259.228 85.7556 258.355 84.8828 257.482C85.2569 258.979 86.5037 260.101 88.1245 260.101Z" fill="#F37880"/>
<path d="M91.6193 256.732C91.6193 254.862 89.9983 253.49 88.1281 253.49C86.2578 253.49 84.7617 254.986 84.7617 256.857C84.7617 257.106 84.7617 257.231 84.8864 257.48C85.7591 258.353 86.8813 259.226 88.1281 260.098H88.2527C90.123 260.098 91.6193 258.602 91.6193 256.732ZM85.7591 256.732C85.7591 255.485 86.7566 254.488 88.0034 254.488C89.2503 254.488 90.2476 255.485 90.2476 256.607C90.2476 257.854 89.2503 258.852 88.0034 258.852C86.7566 258.852 85.7591 257.854 85.7591 256.732Z" fill="#F37880"/>
<path d="M90.2424 256.609C90.2424 255.362 89.2451 254.364 87.9983 254.489C86.7514 254.489 85.7539 255.487 85.7539 256.733C85.7539 257.98 86.7514 258.978 87.9983 258.853C89.2451 258.853 90.2424 257.856 90.2424 256.609ZM88.6217 257.856C88.2476 257.98 87.6242 258.105 87.2502 257.731C86.5021 257.107 86.6267 256.484 86.7514 256.359C87.0008 255.985 87.1254 255.487 88.871 255.861C89.1203 255.861 89.6191 256.235 89.4944 256.858C89.3697 257.357 88.9957 257.731 88.6217 257.856Z" fill="#A75256"/>
<path d="M78.1492 251.123C78.1492 251.123 78.0245 251.123 78.1492 251.123C78.2738 251.372 78.3986 251.622 78.5233 251.871C79.022 252.495 79.1466 252.869 79.5206 252.993C79.77 253.118 81.6403 254.24 82.3884 254.614C81.6403 254.115 79.396 252.869 79.2713 252.744C79.022 252.744 78.3985 251.871 78.1492 251.123Z" fill="#F37880"/>
<path d="M84.0124 252.121C83.8877 252.121 80.0226 251.372 79.2745 251.372C78.9005 251.372 78.4017 251.248 78.1523 251.123C78.4017 251.871 79.1498 252.744 79.2745 252.869C79.3992 252.993 81.5188 254.24 82.3916 254.739C82.5163 254.864 82.6409 254.864 82.6409 254.864C82.6409 254.864 83.6383 253.118 84.0124 252.121Z" fill="#F37880"/>
<path d="M107.202 169.33C107.327 169.58 107.576 169.954 107.825 170.328C107.95 170.079 108.075 169.829 108.324 169.58C109.197 168.832 111.815 169.206 112.064 167.959C111.316 168.208 110.444 168.084 109.82 167.959C108.823 168.084 107.701 168.333 106.703 168.582C106.952 168.832 107.077 169.081 107.202 169.33Z" fill="#5C424E"/>
<path d="M106.082 170.328L107.827 171.45C107.827 171.45 107.703 170.952 107.952 170.453C107.703 169.954 107.453 169.58 107.329 169.455C107.204 169.331 106.954 169.081 106.83 168.832C106.58 168.957 106.206 168.957 105.957 169.081C106.83 169.455 106.082 170.328 106.082 170.328Z" fill="#5C424E"/>
<path d="M88.749 255.861C87.0034 255.487 86.8788 255.986 86.6294 256.36C86.5048 256.484 86.38 257.108 87.1281 257.731C87.6268 258.105 88.1256 257.981 88.4997 257.856C88.9984 257.731 89.2477 257.357 89.2477 256.858C89.4971 256.235 88.9984 255.861 88.749 255.861Z" fill="#5C414E"/>
<path d="M77.9026 250.5C77.9026 250.5 77.9026 250.375 77.9026 250.5C77.9026 250.375 77.9026 250.375 77.9026 250.375C78.0273 250.126 78.6506 250.251 79.648 250.375C80.6455 250.5 83.5133 250.375 83.5133 250.375H83.638C83.2639 249.752 81.643 250.126 81.1443 250.251C80.6456 250.375 78.1519 249.752 77.6531 250.375C77.4038 250.75 77.5286 250.999 77.9026 251.248C77.9026 251.124 77.9025 251.124 77.7778 250.999C77.9025 250.75 77.9026 250.625 77.9026 250.5Z" fill="#E5737E"/>
<path d="M84.2601 251.495C84.2601 251.62 84.2602 251.869 84.1355 252.118C84.6342 251.869 84.2601 250.996 83.886 250.373C83.886 250.373 83.8861 250.373 83.7614 250.248H83.6367C83.7614 250.373 84.1354 250.871 84.2601 251.495Z" fill="#E5737E"/>
<path d="M78.0271 250.373C77.9024 250.373 77.9024 250.498 78.0271 250.373C78.0271 250.622 78.0271 250.747 78.0271 250.872C77.9024 250.747 77.9024 250.498 78.0271 250.373Z" fill="#E5737E"/>
<path d="M78.0234 250.873C78.0234 250.998 78.0234 250.998 78.1481 251.122C78.0234 250.998 78.0234 250.998 78.0234 250.873Z" fill="#E5737E"/>
<path d="M83.0107 250.374C83.2601 250.374 83.3848 250.374 83.6341 250.25C83.6341 250.25 80.8912 250.374 79.769 250.25C78.7716 250.125 78.2728 250.125 78.0234 250.25C78.6468 250 80.8911 250.624 83.0107 250.374Z" fill="#E5737E"/>
<path d="M83.6341 250.252C83.3848 250.252 83.2601 250.252 83.0107 250.376C80.8911 250.626 78.6468 250.002 78.0234 250.252V250.376C78.0234 250.501 78.0234 250.626 78.0234 250.875C78.0234 251 78.0234 251 78.1481 251.124C78.5221 251.249 78.8962 251.374 79.2703 251.374C80.0184 251.374 83.8834 252.122 83.8834 252.122H84.0081C84.1328 251.872 84.1329 251.623 84.1329 251.498C84.1329 250.875 83.7588 250.376 83.6341 250.252Z" fill="#E5737E"/>
<path d="M80.145 156.985C83.262 156.86 95.7303 151.125 106.827 145.264C107.575 144.766 108.323 144.392 109.071 144.018C117.051 138.781 125.405 133.046 126.277 131.674C126.776 130.801 127.275 129.929 127.774 129.305C128.771 127.934 130.018 126.811 131.389 125.939C132.137 123.694 132.138 121.575 132.761 119.455C134.133 115.091 134.133 96.8877 141.489 89.4068C145.354 85.5416 149.842 87.1625 153.209 89.5315C154.83 89.5315 156.201 90.7783 156.451 92.2744C157.947 93.7706 158.82 94.8928 158.82 94.8928C158.82 94.8928 158.944 95.0175 159.069 95.0175C159.817 95.3915 161.687 96.6383 161.937 96.763C162.311 97.0124 162.435 97.2618 162.934 98.0098C163.059 98.2592 163.184 98.6333 163.308 98.7579C163.682 99.0073 163.932 99.2567 163.558 99.6307C162.934 100.254 160.565 99.7554 159.942 99.7554C159.443 99.7554 157.947 100.254 157.448 99.6307C155.578 99.8801 155.204 100.628 153.832 105.491C153.209 107.86 162.934 128.557 164.306 141.15C165.677 153.618 144.98 161.972 138.746 165.089C138.247 165.338 137.499 165.588 136.501 165.712C136.127 166.46 136.003 167.084 135.878 167.832C135.629 171.572 135.878 178.305 137 181.796C164.056 174.565 184.379 150.252 185.003 121.201C185.626 86.0403 157.323 57.2387 121.54 57.2387C85.7558 57.114 56.58 85.791 56.4553 121.076C56.3306 136.163 61.5674 149.878 70.4198 160.725C70.6692 158.73 75.033 157.359 80.145 156.985Z" fill="#974B52"/>
<path d="M71.4141 161.35C72.1622 162.222 72.9103 163.095 73.6584 163.968C74.6559 163.469 75.7779 162.846 77.0248 162.098C74.5311 161.973 72.5362 161.848 71.4141 161.35Z" fill="#974B52"/>
<path d="M128.767 183.044C129.017 181.797 131.511 182.171 132.508 181.423C132.757 181.174 132.882 180.924 133.007 180.675C131.635 178.056 128.643 171.947 125.526 169.329C122.783 167.084 110.19 166.087 103.706 165.713C97.3476 166.835 83.7571 168.207 80.7648 168.331C80.266 168.331 79.6426 168.456 78.8945 168.581C89.9913 178.056 104.454 183.792 120.414 183.792C124.03 183.792 127.645 183.542 131.136 182.919C130.264 182.919 129.516 182.919 128.767 183.044Z" fill="#974B52"/>
<path d="M136.253 167.833C136.253 167.085 136.502 166.461 136.876 165.713C131.39 166.586 119.171 165.963 107.701 165.09C106.579 165.339 105.831 165.464 105.332 165.589C104.833 165.713 104.334 165.838 103.711 165.963C110.194 166.337 122.787 167.209 125.53 169.578C128.647 172.197 131.64 178.306 133.011 180.925C133.261 180.426 133.136 179.927 133.136 179.927L134.882 181.049C134.882 181.049 134.133 181.922 135.131 182.545C135.879 182.421 136.752 182.171 137.5 181.922C136.253 178.306 136.004 171.449 136.253 167.833Z" fill="#A75256"/>
<path d="M70.6719 160.601C70.7966 160.975 71.0459 161.225 71.4199 161.349C71.1706 161.1 70.9212 160.726 70.6719 160.477V160.601Z" fill="#A75256"/>
<path d="M84.386 157.983C83.7626 157.983 83.3886 157.858 83.5133 157.36C83.7626 155.988 87.129 155.365 90.1213 154.741C95.8567 151.499 101.841 148.008 106.953 145.141C95.7321 151.125 83.3885 156.736 80.2714 156.861C75.0347 157.11 70.6709 158.606 70.7956 160.352C71.0449 160.601 71.2943 160.975 71.5436 161.225C72.5411 161.723 74.536 161.848 77.1543 161.973C79.1493 160.975 81.643 159.604 84.386 157.983Z" fill="#A75256"/>
<path d="M158.073 132.05C158.696 142.897 157.699 154.368 149.719 157.485C148.223 157.984 145.854 158.607 142.862 159.106C141.116 160.478 137.999 163.096 136.752 165.714C137.625 165.59 138.498 165.34 138.997 165.091C145.231 161.849 165.803 153.62 164.556 141.152C163.185 128.559 153.335 107.862 154.083 105.493C155.455 100.63 155.829 100.007 157.699 99.6326C157.699 99.6326 157.699 99.6327 157.574 99.508C157.325 98.8846 156.951 97.8871 157.449 97.7624C157.824 96.6403 158.946 94.8947 158.946 94.8947C158.946 94.8947 159.07 95.0194 159.195 95.0194C159.07 94.8947 158.946 94.8947 158.946 94.8947C158.946 94.8947 158.073 93.6479 156.577 92.2764C156.577 92.5258 156.701 92.6504 156.701 92.8998C156.701 94.77 155.205 96.3909 153.335 96.3909C151.465 96.3909 149.844 94.8947 149.844 93.0245C149.844 91.1543 151.34 89.5334 153.21 89.5334H153.335C149.844 87.0397 145.355 85.5436 141.615 89.4087C134.259 97.0143 134.259 115.093 132.887 119.457C132.139 121.577 132.264 123.572 131.516 125.941C133.012 125.068 134.757 124.569 136.503 124.444C143.735 123.821 157.574 124.07 158.073 132.05Z" fill="#A75256"/>
<path d="M142.86 159.105C138.496 159.854 133.01 160.602 127.399 161.1C119.295 162.971 111.564 164.342 107.699 165.09C119.17 166.088 131.389 166.711 136.875 165.714C138.122 162.971 141.114 160.352 142.86 159.105Z" fill="#A75256"/>
<path d="M73.7869 163.967C72.4154 164.715 71.4179 165.214 70.9191 165.338C66.9293 166.959 63.0642 168.829 63.937 170.076C64.685 171.074 74.1609 169.328 78.7742 168.705C77.0286 167.209 75.2831 165.588 73.7869 163.967Z" fill="#994F55"/>
<path d="M103.587 165.836C101.343 165.711 99.7224 165.711 99.7224 165.711L103.587 164.714C94.1116 163.841 85.7579 162.844 83.0149 162.594C80.7706 162.345 78.7757 162.22 76.9054 162.096C75.6586 162.844 74.5365 163.467 73.5391 163.966C75.1599 165.711 76.7808 167.208 78.5264 168.704C79.2745 168.579 80.0225 168.579 80.3966 168.455C83.6383 168.33 97.2287 166.958 103.587 165.836Z" fill="#994F55"/>
<path d="M109.194 143.893C108.445 144.267 107.697 144.765 106.949 145.139C107.448 144.89 108.071 144.516 108.57 144.267C108.695 144.267 108.944 144.142 109.194 143.893Z" fill="#994F55"/>
<path d="M107.699 165.091C106.327 164.966 105.08 164.841 103.709 164.717L99.8438 165.714C99.8438 165.714 101.34 165.714 103.709 165.839C104.332 165.714 104.831 165.59 105.33 165.465C105.829 165.465 106.577 165.216 107.699 165.091Z" fill="#994F55"/>
<path d="M108.449 144.393C107.95 144.642 107.327 145.016 106.828 145.265C101.841 148.133 95.7315 151.624 89.9961 154.866C91.8663 154.492 93.6119 154.118 94.36 153.494C95.3574 152.871 101.716 148.881 108.449 144.393Z" fill="#994F55"/>
<path d="M100.717 161.598C96.9765 159.603 80.7678 159.852 89.9943 157.733C99.3455 155.613 118.422 150.75 105.455 152.995C94.9817 154.74 87.002 157.857 84.3836 157.982C81.6406 159.478 79.1469 160.85 77.0273 162.096C78.7729 162.221 80.8925 162.346 83.1368 162.595C85.8798 162.969 94.2335 163.842 103.709 164.715L114.183 162.096C107.45 162.346 101.964 162.346 100.717 161.598Z" fill="#994F55"/>
<path d="M127.401 161.1C122.912 161.598 118.299 161.848 114.184 162.097L103.711 164.715C104.958 164.84 106.329 164.965 107.701 165.089C111.566 164.341 119.296 162.97 127.401 161.1Z" fill="#994F55"/>
<path d="M120.171 137.659C122.664 135.664 125.657 132.298 130.021 128.807C130.644 127.684 131.143 126.687 131.392 125.689C130.021 126.562 128.649 127.684 127.777 129.056C127.278 129.804 126.779 130.552 126.28 131.425C125.408 132.921 117.054 138.656 109.074 143.768C112.69 141.649 115.558 140.153 117.054 139.405C118.176 138.906 119.173 138.282 120.171 137.659Z" fill="#A75256"/>
<path d="M132.389 127.061C139.745 121.949 151.341 127.809 151.341 127.809C151.341 127.809 154.458 136.662 156.702 146.761C157.575 150.501 151.341 153.868 143.112 156.736L144.358 157.982C144.358 157.982 143.735 158.356 142.987 158.98C145.979 158.481 148.348 157.858 149.844 157.359C157.949 154.242 158.821 142.771 158.198 131.924C157.699 123.944 143.86 123.819 136.503 124.193C134.758 124.318 133.012 124.817 131.516 125.69C131.267 126.687 130.768 127.685 130.145 128.807C130.768 128.183 131.516 127.685 132.389 127.061Z" fill="#A75256"/>
<path d="M117.924 139.154C118.672 138.78 119.42 138.282 120.168 137.658C119.17 138.282 118.173 138.905 117.051 139.528C117.425 139.279 117.674 139.154 117.924 139.154Z" fill="#A75256"/>
<path d="M83.5122 157.486C83.3875 157.86 83.7615 158.109 84.3849 158.109C86.2551 157.111 88.1253 155.989 90.1202 154.867C87.1279 155.366 83.8862 156.114 83.5122 157.486Z" fill="#A75256"/>
<path d="M144.23 158.108L142.983 156.861C138.121 158.482 132.635 159.978 127.273 161.101C132.884 160.602 138.495 159.854 142.734 159.106C143.732 158.482 144.23 158.108 144.23 158.108Z" fill="#A75256"/>
<path d="M124.781 134.418C127.275 132.298 128.895 130.553 129.893 128.932C125.529 132.423 122.537 135.789 120.043 137.784C122.038 136.413 123.659 135.29 124.781 134.418Z" fill="#A75256"/>
<path d="M117.052 139.529C115.556 140.277 112.813 141.898 109.073 143.893C108.823 144.018 108.699 144.143 108.449 144.267C111.566 142.771 114.559 141.025 117.052 139.529Z" fill="#A75256"/>
<path d="M89.9967 157.857C80.6456 159.977 96.8542 159.727 100.719 161.722C102.091 162.346 107.452 162.47 114.185 162.096L141.615 155.239L143.111 156.86C151.465 153.992 157.575 150.626 156.702 146.885C154.458 136.661 151.34 127.933 151.34 127.933C151.34 127.933 139.745 121.949 132.389 127.185C131.516 127.809 130.768 128.432 129.895 129.055C128.898 130.676 127.277 132.547 124.783 134.541C123.661 135.414 122.04 136.536 120.045 137.783C119.297 138.407 118.549 138.905 117.801 139.279C117.676 139.404 117.302 139.529 116.928 139.653C114.31 141.15 111.442 142.895 108.325 144.516C101.467 149.005 95.1087 152.994 94.236 153.618C93.4879 154.117 91.7423 154.491 89.8721 154.989C87.8772 156.112 86.007 157.234 84.1367 158.231C86.6304 158.106 94.7346 154.989 105.208 153.244C118.549 150.875 99.3479 155.738 89.9967 157.857Z" fill="#A75256"/>
<path d="M141.614 155.115L114.184 161.973C118.298 161.723 122.911 161.474 127.4 160.975C132.761 159.728 138.247 158.357 143.11 156.736L141.614 155.115Z" fill="#A75256"/>
<path d="M153.336 89.4082C154.583 90.281 155.705 91.2784 156.578 92.1512C156.204 90.655 154.957 89.5329 153.336 89.4082Z" fill="#F37880"/>
<path d="M149.719 92.8993C149.719 94.7695 151.34 96.2657 153.21 96.2657C155.08 96.2657 156.701 94.6448 156.576 92.7746C156.576 92.5252 156.576 92.4006 156.452 92.1512C155.579 91.2784 154.457 90.281 153.21 89.4082H153.085C151.215 89.5329 149.719 91.0291 149.719 92.8993ZM155.703 93.024C155.703 94.2708 154.706 95.3929 153.459 95.3929C152.212 95.3929 151.09 94.3955 151.09 93.1487C151.09 91.9019 152.088 90.7797 153.335 90.7797C154.706 90.7797 155.703 91.7772 155.703 93.024Z" fill="#F37880"/>
<path d="M151.09 93.0233C151.09 94.2701 152.087 95.2675 153.459 95.2675C154.706 95.2675 155.703 94.1454 155.703 92.8986C155.703 91.6517 154.706 90.6543 153.334 90.6543C152.087 90.779 151.09 91.7764 151.09 93.0233ZM152.835 91.7764C153.209 91.6517 153.833 91.5271 154.207 91.9011C154.955 92.5245 154.83 93.148 154.706 93.2726C154.456 93.6467 154.332 94.1454 152.586 93.7714C152.337 93.7714 151.838 93.3973 151.963 92.7739C151.963 92.3998 152.337 92.0258 152.835 91.7764Z" fill="#A75256"/>
<path d="M163.435 98.76C163.31 98.5106 163.185 98.2613 163.06 98.0119C162.562 97.2638 162.437 97.0144 162.063 96.7651C161.814 96.6404 159.943 95.5183 159.195 95.0195C159.943 95.5183 162.188 96.7651 162.312 96.8898C162.437 97.1391 163.06 98.0119 163.435 98.76Z" fill="#F37880"/>
<path d="M157.324 97.7625C157.449 97.7625 157.449 97.6378 157.324 97.7625C157.449 97.7625 161.314 98.6353 162.187 98.5106C162.561 98.5106 163.06 98.6353 163.309 98.76C163.06 98.0119 162.312 97.1391 162.187 97.0145C162.062 96.8898 159.818 95.5183 159.07 95.1442C158.945 95.0195 158.82 95.0195 158.82 95.0195C158.82 95.0195 157.823 96.6404 157.324 97.7625Z" fill="#F37880"/>
<path d="M133.511 181.796C133.386 181.547 133.137 181.173 132.888 180.799C132.763 181.048 132.638 181.298 132.389 181.547C131.516 182.295 128.898 181.921 128.648 183.168C129.397 182.918 130.145 183.043 130.893 183.168C131.89 183.043 133.012 182.794 134.01 182.544C133.885 182.17 133.636 182.046 133.511 181.796Z" fill="#A75256"/>
<path d="M134.753 180.8L133.007 179.678C133.007 179.678 133.132 180.176 132.883 180.675C133.132 181.174 133.382 181.548 133.506 181.673C133.631 181.797 133.88 182.047 134.005 182.296C134.254 182.171 134.628 182.171 134.878 182.047C134.005 181.673 134.753 180.8 134.753 180.8Z" fill="#A75256"/>
<path d="M152.584 93.8969C154.33 94.271 154.455 93.7722 154.704 93.3982C154.829 93.2735 154.953 92.6501 154.205 92.0267C153.707 91.6527 153.208 91.7773 152.834 91.902C152.335 92.0267 152.086 92.4007 151.961 92.8995C151.961 93.5229 152.46 93.7723 152.584 93.8969Z" fill="#5C414E"/>
<path d="M163.556 99.3829C163.556 99.5075 163.556 99.5075 163.556 99.3829C163.556 99.5075 163.556 99.5076 163.556 99.5076C163.431 99.7569 162.808 99.6322 161.81 99.5076C160.688 99.3829 157.945 99.5076 157.945 99.5076H157.82C158.194 100.131 159.815 99.7569 160.314 99.6322C160.813 99.5075 163.306 100.131 163.93 99.5076C164.179 99.1335 164.054 98.8841 163.68 98.6348C163.68 98.7594 163.68 98.7595 163.805 98.8841C163.556 99.1335 163.556 99.2582 163.556 99.3829Z" fill="#E5737E"/>
<path d="M157.195 98.3848C157.195 98.2601 157.195 98.0108 157.32 97.6367C156.821 97.8861 157.195 98.7589 157.445 99.3823C157.445 99.3823 157.445 99.507 157.569 99.507H157.694C157.694 99.507 157.32 99.0082 157.195 98.3848Z" fill="#E5737E"/>
<path d="M163.555 99.5078C163.555 99.5078 163.431 99.6325 163.555 99.5078C163.431 99.6325 163.555 99.6325 163.555 99.5078Z" fill="#E5737E"/>
<path d="M163.433 99.0091C163.433 98.8844 163.433 98.8844 163.309 98.7598C163.433 98.8844 163.433 98.8844 163.433 99.0091Z" fill="#E5737E"/>
<path d="M158.444 99.5071C158.194 99.5071 158.07 99.5071 157.82 99.6318C157.82 99.6318 160.688 99.5071 161.685 99.6318C162.683 99.7565 163.182 99.7565 163.431 99.6318C162.932 100.006 160.563 99.2578 158.444 99.5071Z" fill="#E5737E"/>
<path d="M157.824 99.6316C158.073 99.6316 158.198 99.6316 158.447 99.507C160.691 99.2576 162.935 100.006 163.434 99.6316V99.507C163.434 99.3823 163.434 99.1329 163.434 99.0082C163.434 98.8835 163.434 98.8835 163.31 98.7589C162.936 98.6342 162.561 98.5095 162.187 98.5095C161.439 98.5095 157.449 97.6367 157.449 97.6367H157.325C157.2 97.8861 157.075 98.1354 157.2 98.3848C157.325 99.0082 157.699 99.5069 157.824 99.6316Z" fill="#E5737E"/>
<g opacity="0.8">
<path d="M227.895 343.644H231.798L231.894 339.742L239.998 8.83463L240.098 4.74792L236.01 4.73671L8.7141 4.1133L4.70312 4.1023V8.11328V339.644V343.644H8.70312H227.895Z" stroke="#FFF1F0" stroke-width="8"/>
</g>
</svg>
