<svg width="231" height="347" fill="none" xmlns="http://www.w3.org/2000/svg"><path d="M230.952 346.95L0 336.642 1.566 0 225.34.522l5.611 346.428z" fill="#FEF1F0"/><path d="M100.731 75.81L81.42 105.039 61.848 75.68l19.31-29.489 19.573 29.62zM100.731 142.096L81.42 171.324l-19.572-29.358 19.31-29.359 19.573 29.489zM100.731 208.379L81.42 237.607l-19.572-29.358 19.31-29.358 19.573 29.488zM100.731 274.793L81.42 304.021l-19.572-29.358 19.31-29.489 19.573 29.619zM170.799 72.418l-19.442 29.228-19.572-29.358 19.442-29.358 19.572 29.488zM170.799 138.704l-19.442 29.227-19.572-29.358 19.442-29.358 19.572 29.489zM134.782 108.04l-19.442 29.227-19.442-29.358 19.312-29.358 19.572 29.489zM170.799 205.117l-19.442 29.098-19.572-29.228 19.442-29.489 19.572 29.619zM137.912 237.086l-19.441 29.097-19.573-29.227 19.442-29.489 19.572 29.619zM170.799 271.403l-19.442 29.228-19.572-29.359 19.442-29.358 19.572 29.489zM21.142 18.14l-.13 5.872 6.263-1.566-.653 17.615 6.916-.13-.783-24.661-11.613 2.87zM51.02 14.876c-12.004.392-11.222 12.005-10.96 15.006.26 3 1.696 10.7 10.177 10.7 8.22-.131 11.09-6.264 11.221-13.962.653-12.266-10.438-11.744-10.438-11.744zM49.063 34.58c-1.044-.261-3.915 0-3.915-6.785s5.22-6.655 5.22-6.655 6.002-1.565 6.393 6.785c.392 8.351-6.655 6.785-7.698 6.655zM211.379 328.687l.26-5.741-6.393 1.435.652-17.485h-6.785l.653 24.661 11.613-2.87zM181.496 331.949c12.004-.391 11.221-12.004 10.96-15.005-.261-3.001-1.696-10.7-10.177-10.7-8.221.131-11.091 6.263-11.222 13.962-.522 12.265 10.439 11.743 10.439 11.743zm2.087-19.572c1.044.261 3.915 0 3.915 6.785s-5.219 6.654-5.219 6.654-6.003 1.566-6.394-6.785c-.522-8.35 6.524-6.915 7.698-6.654zM200.545 286.667l-8.611 13.048-8.743-13.048 8.612-13.048 8.742 13.048zM47.358 57.154l-8.612 13.048-8.742-13.048 8.612-13.049 8.742 13.049z" fill="#F37880"/></svg>