<svg width="245" height="348" fill="none" xmlns="http://www.w3.org/2000/svg"><path d="M227.895 339.644H8.703V8.114L236 8.736l-8.104 330.907z" fill="#A75256"/><g opacity=".3" stroke="#FFF1F0" stroke-width="2" stroke-miterlimit="10"><g opacity=".3"><path opacity=".3" d="M139.873 23.945L22.422 139.277v9.226L149.349 23.945h-9.476zM187.626 24.072L22.296 185.536v9.226l174.93-170.69h-9.6z"/><path opacity=".3" d="M178.025 24.072L22.297 176.31v9.227L187.626 24.072h-9.601zM149.349 23.945L22.422 148.503v9.351L158.949 24.07l-9.6-.125zM168.549 24.072L22.297 167.083v9.226L178.025 24.072h-9.476z"/><path opacity=".3" d="M158.949 24.072L22.421 157.856l-.124 9.227 146.252-143.01h-9.6zM197.226 24.072l-174.93 170.69v9.227L206.828 24.197l-9.601-.125z"/><path opacity=".3" d="M206.827 24.197L22.297 203.99v9.227L216.303 24.197h-9.476zM223.16 45.518L22.297 240.646l-.125 9.101L222.91 54.993l.249-9.475z"/><path opacity=".3" d="M222.911 54.992L22.171 249.746v8.977l200.49-194.255.25-9.476zM223.41 35.918L22.297 231.42v9.226L223.16 45.519l.25-9.601zM223.659 24.197h-7.356L22.297 213.216v9.102L223.534 26.442l.125-2.245z"/><path opacity=".3" d="M223.534 26.44L22.297 222.316v9.101L223.41 35.915l.124-9.476zM82.394 23.822l-59.972 59.1v9.476l69.573-68.576h-9.6zM63.19 23.822L22.542 64.095v9.475L72.79 23.822h-9.6zM44.113 23.697l-21.57 21.321v9.6l31.046-30.796-9.476-.125z"/><path opacity=".3" d="M53.589 23.822L22.543 54.62v9.476l40.646-40.273h-9.6zM34.512 23.697L22.543 35.542v9.476l21.57-21.32h-9.6z"/><path opacity=".3" d="M24.912 23.697l-2.369 2.37v9.475l11.97-11.845h-9.601z"/><path opacity=".3" d="M22.543 23.697v2.37l2.369-2.37h-2.369zM120.672 23.945l-98.25 96.629v9.351l107.85-105.98h-9.6zM101.595 23.945l-79.173 77.802v9.476l88.649-87.278h-9.476z"/><path opacity=".3" d="M111.071 23.945l-88.65 87.278v9.351l98.251-96.629h-9.601zM130.272 23.945l-107.85 105.98v9.352L139.873 23.945h-9.601zM91.995 23.822L22.422 92.398v9.351l79.173-77.802-9.6-.125zM72.793 23.822L22.547 73.57l-.125 9.352 59.972-59.1h-9.6zM222.661 64.467L22.171 258.722v9.102L222.538 73.818l.124-9.351zM217.421 294.881l-37.155 35.16h9.226l27.68-26.183.249-8.977zM218.671 240.645l-93.886 89.397h9.227l84.41-80.296.249-9.101zM218.796 231.541L115.559 330.04h9.226l93.886-89.397.125-9.102zM218.173 258.848l-74.935 71.193h9.351l65.459-62.216.125-8.977zM219.419 204.111L87.754 330.041h9.226l122.314-116.703.125-9.227z"/><path opacity=".3" d="M219.045 222.441L106.207 330.042h9.351l103.237-98.499.25-9.102z"/><path opacity=".3" d="M219.298 213.338L96.984 330.041h9.227L219.048 222.44l.25-9.102zM218.422 249.748l-84.41 80.295h9.226l74.934-71.193.25-9.102zM218.048 267.826l-65.458 62.217h9.226l55.983-53.115.249-9.102zM216.552 330.042l.25-8.23-8.853 8.23h8.603z"/><path opacity=".3" d="M216.802 321.813l.124-8.977-18.203 17.206h9.226l8.853-8.229zM217.176 303.857l-27.68 26.184h9.226l18.204-17.206.25-8.978zM217.55 285.906l-46.507 44.138h9.226l37.156-35.161.125-8.977zM217.799 276.926l-55.983 53.114h9.227l46.507-44.137.249-8.977zM220.914 139.404L22.918 330.044h9.226L220.79 148.755l.125-9.351zM221.788 102.123L22.172 294.882v9.102l199.492-192.51.124-9.351zM221.664 111.475L22.172 303.984v8.977l199.242-192.135.25-9.351zM221.165 130.176L22.172 321.813l-.125 8.229h.873l197.995-190.64.25-9.226z"/><path opacity=".3" d="M221.414 120.826L22.172 312.962v8.852l198.993-191.637.249-9.351zM222.038 92.648L22.172 285.906v8.977l199.616-192.759.25-9.476zM222.287 83.297L22.172 276.929v8.977L222.038 92.648l.249-9.351zM222.537 73.818L22.172 267.824v9.102L222.287 83.294l.25-9.476zM220.166 176.557L59.949 330.041h9.227l150.741-144.258.249-9.226zM219.921 185.785L69.18 330.043h9.35l141.141-135.156.25-9.102z"/><path opacity=".3" d="M220.291 167.33L50.723 330.041h9.226l160.217-153.484.125-9.227zM220.793 148.754L32.148 330.042h9.227L220.544 157.98l.249-9.226z"/><path opacity=".3" d="M220.54 157.979L41.371 330.04h9.351L220.29 167.33l.25-9.351zM219.668 194.887L78.528 330.042h9.226l131.664-125.929.25-9.226z"/></g><g opacity=".3"><path opacity=".3" d="M106.585 23.947l114.334 115.581-.125 9.351L96.984 23.822l9.601.125zM58.702 23.822l161.214 161.963-.249 9.226L49.102 23.822h9.6zM68.179 23.822l151.863 152.736-.125 9.227L58.703 23.822h9.476zM96.98 23.822L220.788 148.88l-.249 9.226L87.379 23.822h9.6zM77.78 23.822l142.512 143.51-.249 9.226L68.18 23.822h9.6z"/><path opacity=".3" d="M87.378 23.822l133.161 134.283-.25 9.227L77.777 23.822h9.601zM49.105 23.822L219.67 195.011l-.249 9.226L39.504 23.697l9.6.125zM39.503 23.697l179.917 180.54-.125 9.102L29.902 23.697h9.6zM22.543 45.018l196.125 195.751-.249 9.102L22.543 54.493v-9.475z"/><path opacity=".3" d="M22.543 54.492L218.419 249.87l-.249 8.978L22.543 63.968v-9.476zM22.543 35.543l196.25 196.125-.125 9.102L22.543 45.019v-9.476zM22.543 23.697h7.356L219.292 213.34l-.25 9.102-196.499-196.5v-2.244z"/><path opacity=".3" d="M22.543 25.943l196.499 196.5-.249 9.226L22.543 35.544v-9.6zM163.937 24.072l58.351 59.35-.249 9.35-67.703-68.7h9.601zM183.136 24.072L222.66 64.47l-.125 9.476-49-49.873h9.601zM202.214 24.197l20.946 21.32-.249 9.476-30.298-30.92 9.601.124z"/><path opacity=".3" d="M192.613 24.072l30.297 30.921-.249 9.476-39.524-40.397h9.476zM211.815 24.197l11.596 11.845-.249 9.476-20.947-21.32h9.6z"/><path opacity=".3" d="M221.288 24.197l2.245 2.37-.125 9.475-11.596-11.845h9.476z"/><path opacity=".3" d="M223.658 24.197l-.125 2.37-2.244-2.37h2.369zM125.655 23.945l95.756 96.879-.249 9.351-105.107-106.23h9.6zM144.858 23.945l76.929 78.176-.124 9.351-86.405-87.527h9.6z"/><path opacity=".3" d="M135.261 23.945l86.405 87.527-.25 9.352-95.756-96.879h9.601zM116.058 23.945l105.107 106.23-.249 9.351-114.334-115.58h9.476zM154.335 24.07l67.703 68.7-.25 9.351-76.929-78.176 9.476.125zM173.538 24.072l49 49.873-.249 9.476-58.351-59.349h9.6zM22.543 63.97L218.17 258.85l-.125 9.102L22.543 73.446v-9.475zM22.172 294.881l36.282 35.16h-9.226l-27.056-26.183v-8.977zM22.297 240.52l91.766 89.521h-9.227l-82.664-80.42.125-9.101z"/><path opacity=".3" d="M22.297 231.418l100.993 98.624h-9.227L22.297 240.52v-9.102zM22.172 258.723l73.313 71.318H86.26l-64.087-62.217v-9.101zM22.297 203.863l128.797 126.179h-9.351L22.297 213.09v-9.227z"/><path opacity=".3" d="M22.297 222.191l110.219 107.851h-9.226L22.297 231.418v-9.227z"/><path opacity=".3" d="M22.297 213.09l119.446 116.952h-9.227l-110.22-107.85v-9.102zM22.172 249.621l82.664 80.42h-9.35l-73.314-71.318v-9.102zM22.172 267.826l64.087 62.217h-9.227l-54.86-53.24v-8.977zM22.047 330.042l.125-8.23 8.478 8.23h-8.603z"/><path opacity=".3" d="M22.172 321.813v-8.977l17.83 17.206H30.65l-8.478-8.229zM22.172 303.857l27.056 26.184h-9.227l-17.83-17.206v-8.978zM22.172 285.906l45.509 44.138h-9.226l-36.283-35.161v-8.977zM22.172 276.803l54.86 53.239h-9.351l-45.51-44.137v-9.102zM22.422 139.152l193.382 190.889h-9.226L22.422 148.504v-9.352zM22.422 101.748L217.3 295.006l-.124 8.977L22.422 111.099v-9.351zM22.422 111.1l194.754 192.883-.25 8.977L22.422 120.451V111.1z"/><path opacity=".3" d="M22.422 129.801l194.255 192.135-.125 8.105h-.748L22.422 139.152v-9.351z"/><path opacity=".3" d="M22.422 120.451l194.504 192.51-.249 8.977L22.422 129.802v-9.351zM22.422 92.273L217.55 286.03l-.25 8.977L22.422 101.749v-9.476z"/><path opacity=".3" d="M22.422 82.922l195.377 194.13-.249 8.978L22.422 92.273v-9.351zM22.547 73.445L218.049 267.95l-.25 9.102L22.422 82.922l.125-9.477zM22.297 176.309l156.476 153.733h-9.226L22.297 185.535v-9.226z"/><path opacity=".3" d="M22.297 185.535l147.25 144.507h-9.227L22.297 194.762v-9.227zM22.297 166.957L188 330.042h-9.227L22.297 176.308v-9.351zM22.422 148.504l184.156 181.537h-9.227L22.421 157.73v-9.226z"/><path opacity=".3" d="M22.422 157.73L197.35 330.042H188L22.297 166.957l.125-9.227zM22.297 194.76L160.32 330.04h-9.226L22.297 203.862v-9.102z"/></g></g><path d="M160.441 194.017c-3.117.125-15.46 5.736-26.682 11.72-.748.374-1.496.873-2.244 1.247-7.855 5.112-16.209 10.723-16.957 12.219-.499.873-.997 1.621-1.496 2.369-.997 1.372-2.12 2.494-3.616 3.242-.748 2.244-.623 4.239-1.371 6.234-1.372 4.239-1.247 21.819-8.479 29.176-3.74 3.74-8.104 2.244-11.595-.125-1.621 0-2.868-1.122-3.242-2.618-1.496-1.372-2.369-2.619-2.369-2.619s-.125-.124-.25-.124c-.747-.375-2.618-1.497-2.867-1.621-.374-.25-.499-.499-.998-1.123l-.373-.748c-.374-.249-.624-.498-.25-.872.623-.624 2.993-.125 3.491-.125.499 0 1.995-.499 2.494.125 1.745-.25 2.244-.873 3.491-5.611.623-2.369-9.227-22.568-10.723-34.911-1.371-12.344 19.077-20.573 25.311-23.814.499-.25 1.247-.499 2.119-.624.374-.748.499-1.371.624-2.12.249-3.74-.125-10.473-1.247-13.964-27.056 7.232-47.13 31.42-47.255 60.097-.124 34.163 27.93 61.593 62.84 61.593 34.787 0 63.588-27.43 64.212-61.468.249-14.713-4.738-28.303-13.341-39.026.249 1.746-3.99 3.242-9.227 3.491z" fill="#974B52"/><path d="M169.169 189.654c-.748-.873-1.496-1.746-2.244-2.494-.998.499-2.12 1.122-3.366 1.746 2.618.249 4.613.249 5.61.748zM112.067 167.959c-.249 1.247-2.743.873-3.74 1.621-.25.249-.374.499-.499.748 1.372 2.618 4.364 8.728 7.481 11.346 2.743 2.244 15.336 3.242 21.819 3.616 6.359-1.122 19.95-2.494 22.942-2.618.499 0 1.122-.125 1.87-.25-10.972-9.476-25.435-15.211-41.394-15.211-3.616 0-7.232.249-10.723.873.623.124 1.496.124 2.244-.125z" fill="#974B52"/><path d="M104.582 183.295c0 .623-.249 1.371-.623 2.119 5.486-.873 17.58-.249 29.051.624 1.122-.25 1.87-.374 2.369-.499.499-.125.997-.25 1.621-.374-6.484-.374-19.077-1.247-21.82-3.616-3.117-2.618-6.109-8.728-7.481-11.346-.249.499-.124.997-.124.997l-1.746-1.122s.748-.873-.249-1.496c-.748.125-1.621.374-2.369.623 1.371 3.616 1.621 10.474 1.371 14.09z" fill="#974B52"/><path d="M169.916 190.402c0-.374-.374-.623-.748-.748.249.25.499.624.748.873v-.125z" fill="#A75256"/><path d="M156.201 193.021c.623 0 .998.125.873.624-.374 1.371-3.616 1.994-6.484 2.618-5.735 3.242-11.72 6.608-16.707 9.476 11.097-5.86 23.44-11.471 26.682-11.72 5.112-.25 9.476-1.746 9.476-3.367-.25-.249-.499-.623-.748-.873-.998-.498-2.993-.623-5.611-.748-2.244 1.122-4.738 2.494-7.481 3.99zM83.139 218.704c-.748-10.722.125-21.944 8.104-25.061 1.496-.499 3.865-1.122 6.733-1.621 1.746-1.371 4.738-3.865 5.985-6.608-.873.125-1.621.374-2.12.623-6.234 3.242-26.682 11.347-25.31 23.815 1.496 12.343 11.346 32.542 10.722 34.911-1.246 4.738-1.745 5.361-3.49 5.611l.124.124c.25.624.623 1.496.25 1.746-.375.997-1.497 2.743-1.497 2.743s-.124-.125-.25-.125c.126.125.25.125.25.125s.873 1.122 2.37 2.618c0-.125-.126-.374-.126-.623a3.353 3.353 0 013.367-3.367c1.87 0 3.366 1.372 3.491 3.242a3.353 3.353 0 01-3.367 3.367h-.124c3.366 2.368 7.855 3.865 11.595.124 7.232-7.231 7.107-24.936 8.479-29.176.623-1.994.623-3.989 1.371-6.234-1.496.873-3.117 1.372-4.987 1.497-7.356.249-21.071.124-21.57-7.731z" fill="#A75256"/><path d="M97.973 192.024c4.239-.749 9.85-1.497 15.46-1.995 8.105-1.871 15.71-3.242 19.7-3.99-11.471-.998-23.69-1.621-29.051-.624-1.247 2.619-4.24 5.237-6.11 6.609z" fill="#A75256"/><path d="M166.925 187.159c1.371-.748 2.369-1.247 2.868-1.372 3.989-1.621 7.979-3.491 6.982-4.738-.748-.997-10.1.749-14.837 1.372 1.745 1.496 3.366 2.992 4.987 4.738zM137.125 185.29c2.244.125 3.74.125 3.74.125l-3.865.997c9.476.873 17.83 1.746 20.448 2.12 2.244.249 4.239.374 5.985.498 1.247-.748 2.369-1.246 3.366-1.745-1.621-1.621-3.242-3.242-4.987-4.738-.748.125-1.496.125-1.87.249-2.868 0-16.458 1.247-22.817 2.494zM131.637 206.985c.748-.374 1.496-.873 2.244-1.247-.499.25-1.122.624-1.621.873-.249 0-.499.249-.623.374z" fill="#994F55"/><path d="M133.133 186.037c1.371.125 2.618.25 3.99.374l3.865-.997s-1.496 0-3.741-.125c-.623.125-1.122.249-1.621.374-.623 0-1.371.125-2.493.374zM132.262 206.485c.498-.249 1.122-.623 1.62-.872 4.988-2.868 10.973-6.235 16.708-9.476-1.87.374-3.616.748-4.364 1.247-.873.748-7.231 4.737-13.964 9.101z" fill="#994F55"/><path d="M140.118 189.406c3.741 1.995 19.949 1.746 10.598 3.741-9.351 2.119-28.303 6.857-15.336 4.738 10.349-1.746 18.453-4.863 20.947-4.863 2.743-1.496 5.237-2.868 7.356-4.115-1.745-.124-3.865-.249-5.984-.498-2.619-.25-10.972-1.247-20.448-2.12l-10.474 2.618c6.609-.249 11.97-.124 13.341.499z" fill="#994F55"/><path d="M113.438 190.027c4.488-.499 9.101-.748 13.216-.998l10.473-2.618c-1.247-.125-2.618-.249-3.99-.374-3.99.748-11.595 2.12-19.699 3.99z" fill="#994F55"/><path d="M120.667 213.095c-2.494 1.995-5.486 5.237-9.725 8.604-.623.997-1.122 1.994-1.372 2.992 1.372-.748 2.619-1.87 3.616-3.242.499-.623.998-1.496 1.496-2.369.749-1.496 9.102-7.107 16.957-12.219-3.616 1.995-6.483 3.616-7.855 4.364-1.122.748-2.119 1.372-3.117 1.87z" fill="#A75256"/><path d="M108.447 223.568c-7.232 4.987-18.828-.748-18.828-.748s-3.117-8.603-5.486-18.702c-.872-3.741 5.237-7.107 13.59-9.85l-1.246-1.247s.623-.374 1.372-.998c-2.993.499-5.362 1.123-6.733 1.621-7.98 3.117-8.853 14.463-8.105 25.061.5 7.855 14.214 7.98 21.446 7.481 1.745-.124 3.491-.623 4.987-1.496.249-.997.748-1.995 1.371-2.992-.623.748-1.496 1.247-2.368 1.87zM122.908 211.724c-.748.249-1.496.872-2.244 1.496l2.992-1.87c-.249.124-.623.249-.748.374zM157.077 193.643c.125-.374-.249-.623-.873-.623-1.87.997-3.74 2.119-5.735 3.241 2.992-.623 6.359-1.371 6.608-2.618z" fill="#A75256"/><path d="M96.606 193.022l1.246 1.247c4.738-1.621 10.349-2.993 15.586-4.24a198.68 198.68 0 00-15.461 1.995c-.748.624-1.371.998-1.371.998zM116.057 216.336c-2.493 1.995-4.114 3.865-5.112 5.486 4.364-3.367 7.356-6.733 9.725-8.603-1.87 1.122-3.491 2.244-4.613 3.117zM123.66 211.347c1.372-.748 4.239-2.369 7.855-4.364.25-.124.374-.249.624-.374a108.012 108.012 0 00-8.479 4.738z" fill="#A75256"/><path d="M150.717 193.145c9.351-2.119-6.858-1.87-10.598-3.74-1.372-.624-6.733-.748-13.466-.374l-27.305 6.857-1.496-1.621c-8.23 2.743-14.339 6.11-13.59 9.85 2.243 10.1 5.485 18.703 5.485 18.703s11.596 5.735 18.827.748c.873-.624 1.621-1.247 2.369-1.746.998-1.621 2.619-3.366 5.112-5.486 1.122-.873 2.743-1.995 4.613-3.242a11.76 11.76 0 012.245-1.496c.124-.124.498-.249.872-.374a431.419 431.419 0 018.479-4.738c6.733-4.364 13.092-8.353 13.964-8.977.748-.499 2.494-.873 4.364-1.247 1.995-1.122 3.865-2.244 5.736-3.241-2.494.124-10.598 3.117-20.947 4.862-13.092 2.244 5.985-2.618 15.336-4.738z" fill="#A75256"/><path d="M99.348 195.889l27.305-6.858c-4.114.25-8.603.499-13.216.998-5.361 1.247-10.848 2.618-15.585 4.239l1.496 1.621z" fill="#A75256"/><path d="M88.124 260.101c-1.246-.873-2.368-1.746-3.241-2.619.374 1.497 1.62 2.619 3.242 2.619z" fill="#F37880"/><path d="M91.62 256.732c0-1.87-1.622-3.242-3.492-3.242a3.352 3.352 0 00-3.366 3.367c0 .249 0 .374.124.623.873.873 1.995 1.746 3.242 2.618h.125a3.352 3.352 0 003.366-3.366zm-5.86 0c0-1.247.997-2.244 2.243-2.244 1.247 0 2.245.997 2.245 2.119a2.235 2.235 0 01-2.245 2.245c-1.246 0-2.244-.998-2.244-2.12z" fill="#F37880"/><path d="M90.242 256.609c0-1.247-.997-2.245-2.244-2.12a2.235 2.235 0 00-2.244 2.244c0 1.247.997 2.245 2.244 2.12a2.234 2.234 0 002.244-2.244zm-1.62 1.247c-.374.124-.998.249-1.372-.125-.748-.624-.623-1.247-.499-1.372.25-.374.374-.872 2.12-.498.25 0 .748.374.623.997-.124.499-.498.873-.872.998z" fill="#A75256"/><path d="M78.15 251.123s-.126 0 0 0l.373.748c.499.624.624.998.998 1.122.249.125 2.12 1.247 2.867 1.621-.748-.499-2.992-1.745-3.117-1.87-.249 0-.873-.873-1.122-1.621z" fill="#F37880"/><path d="M84.012 252.121c-.124 0-3.99-.749-4.737-.749-.375 0-.873-.124-1.123-.249.25.748.998 1.621 1.123 1.746.124.124 2.244 1.371 3.117 1.87.124.125.249.125.249.125s.997-1.746 1.371-2.743z" fill="#F37880"/><path d="M107.202 169.33c.125.25.374.624.623.998.125-.249.25-.499.499-.748.873-.748 3.491-.374 3.74-1.621-.748.249-1.62.125-2.244 0-.997.125-2.119.374-3.117.623.249.25.374.499.499.748z" fill="#5C424E"/><path d="M106.082 170.328l1.745 1.122s-.124-.498.125-.997c-.249-.499-.499-.873-.623-.998-.125-.124-.375-.374-.499-.623-.25.125-.624.125-.873.249.873.374.125 1.247.125 1.247z" fill="#5C424E"/><path d="M88.749 255.861c-1.746-.374-1.87.125-2.12.499-.124.124-.249.748.5 1.371.498.374.997.25 1.37.125.5-.125.749-.499.749-.998.25-.623-.25-.997-.499-.997z" fill="#5C414E"/><path d="M77.903 250.5s0-.125 0 0v-.125c.124-.249.748-.124 1.745 0 .998.125 3.865 0 3.865 0h.125c-.374-.623-1.995-.249-2.494-.124-.498.124-2.992-.499-3.49.124-.25.375-.125.624.249.873 0-.124 0-.124-.125-.249.124-.249.125-.374.125-.499zM84.26 251.495c0 .125 0 .374-.125.623.5-.249.125-1.122-.249-1.745l-.125-.125h-.124c.124.125.498.623.623 1.247z" fill="#E5737E"/><path d="M78.027 250.373c-.125 0-.125.125 0 0v.499a.38.38 0 010-.499zM78.023 250.873c0 .125 0 .125.125.249-.125-.124-.125-.124-.125-.249zM83.01 250.374c.25 0 .375 0 .624-.124 0 0-2.743.124-3.865 0-.997-.125-1.496-.125-1.746 0 .624-.25 2.868.374 4.988.124z" fill="#E5737E"/><path d="M83.634 250.252c-.25 0-.374 0-.623.124-2.12.25-4.364-.374-4.988-.124v.623c0 .125 0 .125.125.249.374.125.748.25 1.122.25.748 0 4.613.748 4.613.748h.125c.125-.25.125-.499.125-.624 0-.623-.374-1.122-.499-1.246z" fill="#E5737E"/><path d="M80.145 156.985c3.117-.125 15.585-5.86 26.682-11.721.748-.498 1.496-.872 2.244-1.246 7.98-5.237 16.334-10.972 17.206-12.344.499-.873.998-1.745 1.497-2.369a13.23 13.23 0 013.615-3.366c.748-2.245.749-4.364 1.372-6.484 1.372-4.364 1.372-22.567 8.728-30.048 3.865-3.865 8.353-2.245 11.72.124 1.621 0 2.992 1.247 3.242 2.743 1.496 1.497 2.369 2.619 2.369 2.619s.124.124.249.124c.748.374 2.618 1.621 2.868 1.746.374.25.498.499.997 1.247.125.25.25.623.374.748.374.25.624.499.25.873-.624.623-2.993.124-3.616.124-.499 0-1.995.499-2.494-.124-1.87.25-2.244.997-3.616 5.86-.623 2.369 9.102 23.066 10.474 35.659 1.371 12.468-19.326 20.822-25.56 23.939-.499.249-1.247.499-2.245.623-.374.748-.498 1.372-.623 2.12-.249 3.74 0 10.473 1.122 13.964 27.056-7.231 47.379-31.544 48.003-60.595.623-35.16-27.68-63.962-63.463-63.962-35.784-.125-64.96 28.552-65.085 63.837-.124 15.087 5.112 28.802 13.965 39.649.25-1.995 4.613-3.366 9.725-3.74z" fill="#974B52"/><path d="M71.414 161.35l2.244 2.618a50.987 50.987 0 003.367-1.87c-2.494-.125-4.489-.25-5.61-.748zM128.767 183.044c.25-1.247 2.744-.873 3.741-1.621.249-.249.374-.499.499-.748-1.372-2.619-4.364-8.728-7.481-11.346-2.743-2.245-15.336-3.242-21.82-3.616-6.358 1.122-19.949 2.494-22.941 2.618-.499 0-1.122.125-1.87.25 11.096 9.475 25.559 15.211 41.519 15.211 3.616 0 7.231-.25 10.722-.873-.872 0-1.62 0-2.369.125z" fill="#974B52"/><path d="M136.253 167.833c0-.748.249-1.372.623-2.12-5.486.873-17.705.25-29.175-.623-1.122.249-1.87.374-2.369.499-.499.124-.998.249-1.621.374 6.483.374 19.076 1.246 21.819 3.615 3.117 2.619 6.11 8.728 7.481 11.347.25-.499.125-.998.125-.998l1.746 1.122s-.749.873.249 1.496c.748-.124 1.621-.374 2.369-.623-1.247-3.616-1.496-10.473-1.247-14.089zM70.672 160.601c.125.374.374.624.748.748-.25-.249-.499-.623-.748-.872v.124zM84.386 157.983c-.623 0-.997-.125-.873-.623.25-1.372 3.616-1.995 6.608-2.619 5.736-3.242 11.72-6.733 16.832-9.6-11.22 5.984-23.565 11.595-26.682 11.72-5.236.249-9.6 1.745-9.475 3.491.249.249.498.623.748.873.997.498 2.992.623 5.61.748 1.995-.998 4.489-2.369 7.232-3.99z" fill="#A75256"/><path d="M158.073 132.05c.623 10.847-.374 22.318-8.354 25.435-1.496.499-3.865 1.122-6.857 1.621-1.746 1.372-4.863 3.99-6.11 6.608.873-.124 1.746-.374 2.245-.623 6.234-3.242 26.806-11.471 25.559-23.939-1.371-12.593-11.221-33.29-10.473-35.659 1.372-4.863 1.746-5.486 3.616-5.86l-.125-.125c-.249-.623-.623-1.62-.125-1.746.375-1.122 1.497-2.867 1.497-2.867s.124.124.249.124c-.125-.124-.249-.124-.249-.124s-.873-1.247-2.369-2.619c0 .25.124.374.124.624 0 1.87-1.496 3.49-3.366 3.49s-3.491-1.495-3.491-3.365 1.496-3.492 3.366-3.492h.125c-3.491-2.493-7.98-3.99-11.72-.124-7.356 7.605-7.356 25.684-8.728 30.048-.748 2.12-.623 4.115-1.371 6.484 1.496-.873 3.241-1.372 4.987-1.497 7.232-.623 21.071-.374 21.57 7.606z" fill="#A75256"/><path d="M142.86 159.105c-4.364.749-9.85 1.497-15.461 1.995-8.104 1.871-15.835 3.242-19.7 3.99 11.471.998 23.69 1.621 29.176.624 1.247-2.743 4.239-5.362 5.985-6.609z" fill="#A75256"/><path d="M73.787 163.967c-1.372.748-2.37 1.247-2.868 1.371-3.99 1.621-7.855 3.491-6.982 4.738.748.998 10.224-.748 14.837-1.371-1.745-1.496-3.49-3.117-4.987-4.738z" fill="#994F55"/><path d="M103.587 165.836c-2.244-.125-3.865-.125-3.865-.125l3.865-.997c-9.475-.873-17.83-1.87-20.572-2.12-2.244-.249-4.24-.374-6.11-.498a50.986 50.986 0 01-3.366 1.87c1.62 1.745 3.242 3.242 4.987 4.738.749-.125 1.496-.125 1.87-.249 3.242-.125 16.833-1.497 23.191-2.619zM109.194 143.893c-.749.374-1.497.872-2.245 1.246.499-.249 1.122-.623 1.621-.872.125 0 .374-.125.624-.374z" fill="#994F55"/><path d="M107.699 165.091c-1.372-.125-2.619-.25-3.99-.374l-3.865.997s1.496 0 3.865.125a32.999 32.999 0 001.621-.374c.499 0 1.247-.249 2.369-.374zM108.449 144.393c-.499.249-1.122.623-1.621.872a2721.518 2721.518 0 01-16.832 9.601c1.87-.374 3.616-.748 4.364-1.372.997-.623 7.356-4.613 14.089-9.101zM100.717 161.598c-3.74-1.995-19.95-1.746-10.723-3.865 9.352-2.12 28.428-6.983 15.461-4.738-10.473 1.745-18.453 4.862-21.071 4.987-2.743 1.496-5.237 2.868-7.357 4.114 1.746.125 3.865.25 6.11.499 2.743.374 11.097 1.247 20.572 2.12l10.474-2.619c-6.733.25-12.219.25-13.466-.498z" fill="#994F55"/><path d="M127.401 161.1c-4.489.498-9.102.748-13.217.997l-10.473 2.618c1.247.125 2.618.25 3.99.374 3.865-.748 11.595-2.119 19.7-3.989z" fill="#994F55"/><path d="M120.171 137.659c2.493-1.995 5.486-5.361 9.85-8.852.623-1.123 1.122-2.12 1.371-3.118-1.371.873-2.743 1.995-3.615 3.367-.499.748-.998 1.496-1.497 2.369-.872 1.496-9.226 7.231-17.206 12.343 3.616-2.119 6.484-3.615 7.98-4.363 1.122-.499 2.119-1.123 3.117-1.746z" fill="#A75256"/><path d="M132.389 127.061c7.356-5.112 18.952.748 18.952.748s3.117 8.853 5.361 18.952c.873 3.74-5.361 7.107-13.59 9.975l1.246 1.246s-.623.374-1.371.998c2.992-.499 5.361-1.122 6.857-1.621 8.105-3.117 8.977-14.588 8.354-25.435-.499-7.98-14.338-8.105-21.695-7.731-1.745.125-3.491.624-4.987 1.497-.249.997-.748 1.995-1.371 3.117.623-.624 1.371-1.122 2.244-1.746zM117.924 139.154a11.677 11.677 0 002.244-1.496c-.998.624-1.995 1.247-3.117 1.87.374-.249.623-.374.873-.374zM83.512 157.486c-.124.374.25.623.873.623 1.87-.998 3.74-2.12 5.735-3.242-2.992.499-6.234 1.247-6.608 2.619z" fill="#A75256"/><path d="M144.23 158.108l-1.247-1.247a144.51 144.51 0 01-15.71 4.24c5.611-.499 11.222-1.247 15.461-1.995.998-.624 1.496-.998 1.496-.998zM124.781 134.418c2.494-2.12 4.114-3.865 5.112-5.486-4.364 3.491-7.356 6.857-9.85 8.852 1.995-1.371 3.616-2.494 4.738-3.366zM117.052 139.529c-1.496.748-4.239 2.369-7.979 4.364-.25.125-.374.25-.624.374 3.117-1.496 6.11-3.242 8.603-4.738z" fill="#A75256"/><path d="M89.997 157.857c-9.351 2.12 6.857 1.87 10.722 3.865 1.372.624 6.733.748 13.466.374l27.43-6.857 1.496 1.621c8.354-2.868 14.464-6.234 13.591-9.975-2.244-10.224-5.362-18.952-5.362-18.952s-11.595-5.984-18.951-.748c-.873.624-1.621 1.247-2.494 1.87-.997 1.621-2.618 3.492-5.112 5.486-1.122.873-2.743 1.995-4.738 3.242a11.677 11.677 0 01-2.244 1.496c-.125.125-.499.25-.873.374-2.618 1.497-5.486 3.242-8.603 4.863-6.858 4.489-13.216 8.478-14.089 9.102-.748.499-2.494.873-4.364 1.371-1.995 1.123-3.865 2.245-5.735 3.242 2.493-.125 10.598-3.242 21.071-4.987 13.341-2.369-5.86 2.494-15.211 4.613z" fill="#A75256"/><path d="M141.614 155.115l-27.43 6.858c4.114-.25 8.727-.499 13.216-.998 5.361-1.247 10.847-2.618 15.71-4.239l-1.496-1.621z" fill="#A75256"/><path d="M153.336 89.408a24.867 24.867 0 013.242 2.743c-.374-1.496-1.621-2.618-3.242-2.743z" fill="#F37880"/><path d="M149.719 92.9c0 1.87 1.621 3.366 3.491 3.366s3.491-1.621 3.366-3.491c0-.25 0-.374-.124-.624a24.867 24.867 0 00-3.242-2.743h-.125c-1.87.125-3.366 1.621-3.366 3.491zm5.984.124c0 1.247-.997 2.369-2.244 2.369-1.247 0-2.369-.998-2.369-2.244 0-1.247.998-2.37 2.245-2.37 1.371 0 2.368.998 2.368 2.245z" fill="#F37880"/><path d="M151.09 93.023c0 1.247.997 2.245 2.369 2.245 1.247 0 2.244-1.123 2.244-2.37 0-1.246-.997-2.244-2.369-2.244-1.247.125-2.244 1.122-2.244 2.37zm1.745-1.247c.374-.124.998-.249 1.372.125.748.624.623 1.247.499 1.372-.25.374-.374.872-2.12.498-.249 0-.748-.374-.623-.997 0-.374.374-.748.872-.998z" fill="#A75256"/><path d="M163.435 98.76l-.375-.748c-.498-.748-.623-.998-.997-1.247-.249-.125-2.12-1.247-2.868-1.746.748.5 2.993 1.746 3.117 1.87.125.25.748 1.123 1.123 1.871z" fill="#F37880"/><path d="M157.324 97.763c.125 0 .125-.125 0 0 .125 0 3.99.872 4.863.748.374 0 .873.124 1.122.249-.249-.748-.997-1.62-1.122-1.746-.125-.124-2.369-1.496-3.117-1.87-.125-.125-.25-.125-.25-.125s-.997 1.621-1.496 2.743z" fill="#F37880"/><path d="M133.511 181.796c-.125-.249-.374-.623-.623-.997-.125.249-.25.499-.499.748-.873.748-3.491.374-3.741 1.621.749-.25 1.497-.125 2.245 0 .997-.125 2.119-.374 3.117-.624-.125-.374-.374-.498-.499-.748z" fill="#A75256"/><path d="M134.753 180.8l-1.746-1.122s.125.498-.124.997c.249.499.499.873.623.998.125.124.374.374.499.623.249-.125.623-.125.873-.249-.873-.374-.125-1.247-.125-1.247z" fill="#A75256"/><path d="M152.584 93.897c1.746.374 1.871-.125 2.12-.499.125-.124.249-.748-.499-1.371-.498-.374-.997-.25-1.371-.125-.499.125-.748.499-.873.998 0 .623.499.872.623.997z" fill="#5C414E"/><path d="M163.556 99.383c0 .124 0 .124 0 0v.125c-.125.249-.748.124-1.746 0-1.122-.125-3.865 0-3.865 0h-.125c.374.623 1.995.249 2.494.124.499-.125 2.992.499 3.616-.124.249-.374.124-.624-.25-.873 0 .124 0 .124.125.25-.249.248-.249.373-.249.498zM157.195 98.385c0-.125 0-.374.125-.748-.499.25-.125 1.122.125 1.745 0 0 0 .125.124.125h.125s-.374-.499-.499-1.122z" fill="#E5737E"/><path d="M163.555 99.508s-.124.124 0 0c-.124.124 0 .124 0 0zM163.433 99.01c0-.126 0-.126-.124-.25.124.124.124.124.124.25zM158.444 99.507c-.25 0-.374 0-.624.125 0 0 2.868-.125 3.865 0 .998.124 1.497.124 1.746 0-.499.374-2.868-.374-4.987-.125z" fill="#E5737E"/><path d="M157.824 99.632c.249 0 .374 0 .623-.125 2.244-.25 4.488.499 4.987.125v-.125-.499c0-.124 0-.124-.124-.25-.374-.124-.749-.248-1.123-.248-.748 0-4.738-.873-4.738-.873h-.124c-.125.25-.25.498-.125.748.125.623.499 1.122.624 1.247z" fill="#E5737E"/><path d="M227.895 343.644h3.903l.096-3.902 8.104-330.907.1-4.087-4.088-.011L8.714 4.113l-4.01-.01v339.541h223.191z" stroke="#FFF1F0" stroke-width="8" opacity=".8"/></svg>