<svg width="245" height="349" fill="none" xmlns="http://www.w3.org/2000/svg"><path d="M245 347.345l-236.362.916L0 0l238.718.262L245 347.345z" fill="#FEF1F0"/><path d="M106.27 56.93c-5.759-12.302-15.967-2.355-16.883 5.367-.131.785-.131 1.57-.262 2.225-.13-.655-.13-1.44-.262-2.225-.916-7.722-11.255-17.8-16.883-5.366-5.627 12.433 17.145 40.048 17.145 40.048v-.262.262c0-.131 22.903-27.746 17.145-40.048zM106.27 123.808c-5.759-12.303-15.967-2.356-16.883 5.366-.131.785-.131 1.57-.262 2.224-.13-.654-.13-1.439-.262-2.224-.916-7.722-11.255-17.8-16.883-5.366-5.627 12.433 17.145 39.917 17.145 39.917v-.262.262s22.903-27.615 17.145-39.917zM106.269 190.554c-5.759-12.303-15.967-2.356-16.883 5.366-.13.785-.13 1.57-.262 2.225-.13-.655-.13-1.44-.261-2.225-.917-7.722-11.256-17.8-16.883-5.366-5.759 12.302 17.144 39.917 17.144 39.917v-.262.262s22.904-27.615 17.145-39.917zM106.269 257.302c-5.759-12.303-15.967-2.356-16.883 5.366-.13.785-.13 1.57-.262 2.225-.13-.655-.13-1.44-.261-2.225-.917-7.722-11.256-17.799-16.883-5.366-5.759 12.302 17.144 39.917 17.144 39.917v-.262.262c0 .131 22.904-27.484 17.145-39.917zM175.504 56.93c-5.758-12.302-15.967-2.355-16.883 5.367-.131.785-.131 1.57-.262 2.225-.13-.655-.13-1.44-.261-2.225-.916-7.722-11.256-17.8-16.883-5.366-5.628 12.433 17.144 39.917 17.144 39.917v-.262.262s22.773-27.615 17.145-39.917zM175.504 123.808c-5.758-12.303-15.967-2.356-16.883 5.366-.131.785-.131 1.57-.262 2.224-.13-.654-.13-1.439-.261-2.224-.916-7.722-11.256-17.8-16.883-5.366-5.628 12.433 17.144 39.917 17.144 39.917v-.262.262s22.773-27.615 17.145-39.917zM175.503 190.554c-5.758-12.303-15.966-2.356-16.883 5.366-.13.785-.13 1.57-.261 2.225-.131-.655-.131-1.44-.262-2.225-.916-7.722-11.255-17.8-16.883-5.366-5.759 12.302 17.145 39.917 17.145 39.917v-.262.262s22.772-27.615 17.144-39.917zM175.503 257.302c-5.758-12.303-15.966-2.356-16.883 5.366-.13.785-.13 1.57-.261 2.225-.131-.655-.131-1.44-.262-2.225-.916-7.722-11.255-17.799-16.883-5.366-5.759 12.302 17.145 39.917 17.145 39.917v-.262.262c0 .131 22.772-27.484 17.144-39.917zM142.257 221.05c-5.758-12.303-15.967-2.356-16.883 5.366-.131.785-.131 1.57-.261 2.225-.131-.655-.131-1.44-.262-2.225-.916-7.722-11.256-17.799-16.883-5.366-5.759 12.302 17.145 39.917 17.145 39.917v-.262.262c-.131 0 22.772-27.615 17.144-39.917zM139.507 93.315c-5.758-12.302-15.967-2.355-16.883 5.366-.131.786-.131 1.571-.261 2.225-.131-.654-.131-1.44-.262-2.225-.916-7.721-11.256-17.799-16.883-5.366-5.759 12.303 17.145 39.918 17.145 39.918v-.262.262s22.903-27.615 17.144-39.918zM28.271 18.586l-.13 5.759 6.282-1.57-.655 17.668 6.937-.131-.785-24.736-11.649 3.01zM58.24 15.314c-12.04.392-11.254 12.04-10.993 15.05.262 3.01 1.702 10.732 10.209 10.732 8.245-.13 11.124-6.282 11.255-14.003.654-12.303-10.47-11.78-10.47-11.78zm-1.962 19.631c-1.047-.262-3.926 0-3.926-6.805 0-6.806 5.235-6.675 5.235-6.675s6.02-1.57 6.412 6.805c.393 8.377-6.674 6.937-7.721 6.675zM219.087 329.94l.262-5.758-6.413 1.57.655-17.668h-6.806l.655 24.866 11.647-3.01zM189.113 333.212c12.041-.392 11.256-12.04 10.994-15.05-.262-3.011-1.702-10.732-10.209-10.732-8.245.131-11.124 6.282-11.255 14.003-.523 12.303 10.47 11.779 10.47 11.779zm2.094-19.631c1.047.262 3.926 0 3.926 6.805 0 6.806-5.235 6.675-5.235 6.675s-6.02 1.571-6.413-6.805c-.523-8.377 6.544-6.937 7.722-6.675zM54.97 49.602c-2.225-4.712-6.151-.916-6.413 2.094 0 .261-.131.654-.131.916 0-.262 0-.524-.131-.785-.393-3.01-4.319-6.806-6.413-2.094-2.094 4.711 6.544 15.312 6.544 15.312v-.13.13c0-.262 8.638-10.732 6.544-15.443zM196.835 298.266c2.225 4.711 6.151.916 6.413-2.094 0-.262.131-.655.131-.917 0 .262 0 .524.131.786.393 3.01 4.319 6.805 6.413 2.094 2.225-4.712-6.544-15.313-6.544-15.313v.131-.131c0 .131-8.638 10.732-6.544 15.444z" fill="#F37880"/></svg>