<svg width="237" height="350" fill="none" xmlns="http://www.w3.org/2000/svg"><path d="M228.173 334.792l3.832-.173-.012-3.836-.997-321.805-.013-3.99-3.99.002-214.08.125-3.95.002-.047 3.951L5.051 340.6l-.05 4.233 4.23-.191 218.942-9.849z" fill="#A75155" stroke="#FFF1F0" stroke-width="8"/><path d="M227.993 330.796L9.051 340.645l3.865-331.53 214.08-.125.997 321.806z" fill="#A75256"/><g opacity=".3" stroke="#FEF1F0" stroke-width="2" stroke-miterlimit="10"><g opacity=".3"><path opacity=".3" d="M137.973 23.453L24.886 135.293l-.124 9.227L146.95 23.453h-8.977zM182.608 23.328L24.386 181.301l-.124 9.226L191.585 23.328h-8.977z"/><path opacity=".3" d="M173.756 23.453L24.511 172.074l-.124 9.227L182.609 23.328l-8.853.125zM146.95 23.453L24.761 144.52l-.124 9.102 131.29-130.169h-8.977zM164.776 23.453L24.632 162.848l-.124 9.227L173.753 23.453h-8.977z"/><path opacity=".3" d="M155.927 23.453L24.637 153.622v9.226L164.78 23.453h-8.853zM191.589 23.328L24.265 190.527l-.124 9.351 176.301-176.55h-8.853zM200.442 23.328L24.141 199.878v9.227L209.169 23.328h-8.727zM216.022 43.03L23.762 237.034l-.125 9.227 192.385-194.38v-8.853z"/><path opacity=".3" d="M216.022 51.88L23.637 246.262v9.351L216.022 60.733v-8.852zM216.026 34.174L23.89 227.68l-.124 9.351 192.26-194.006v-8.852zM215.898 23.328h-6.733L24.136 209.105l-.124 9.351L215.898 25.323v-1.995z"/><path opacity=".3" d="M215.898 25.322L24.011 218.455l-.124 9.227L216.022 34.175l-.124-8.853zM83.613 23.576L25.511 80.431l-.124 9.102 67.328-65.957h-9.102zM65.282 23.7l-39.65 38.528v9.101l48.752-47.753-9.102.125zM46.83 23.703L25.882 44.026l-.125 9.102 30.298-29.425h-9.227z"/><path opacity=".3" d="M56.055 23.703L25.758 53.128l-.125 9.102 39.649-38.527h-9.227zM37.603 23.703L26.007 35.05l-.124 8.977L46.83 23.703h-9.227z"/><path opacity=".3" d="M28.377 23.703l-2.244 2.244-.125 9.102 11.595-11.346h-9.226z"/><path opacity=".3" d="M26.133 23.703v2.244l2.244-2.244h-2.244zM119.895 23.578l-94.759 93.387-.124 9.102L128.997 23.453l-9.102.125zM101.812 23.576L25.258 98.635l-.125 9.226 85.657-84.285h-8.978zM110.79 23.576l-85.657 84.285v9.102l94.758-93.387h-9.101z"/><path opacity=".3" d="M128.993 23.453L25.007 126.067l-.124 9.226L137.97 23.453h-8.977zM92.711 23.576L25.383 89.533l-.125 9.102 76.555-75.059h-9.102zM74.383 23.576L25.633 71.33l-.125 9.102L83.61 23.576h-9.227zM216.025 60.732L23.64 255.611l-.124 9.351L216.025 69.585v-8.853zM216.523 285.41l-35.285 37.53 9.102-.375 26.308-28.053-.125-9.102zM216.4 230.801l-90.021 94.509 9.226-.374 80.919-85.033-.124-9.102zM216.396 221.822l-99.248 103.861 9.227-.374 90.021-94.51v-8.977zM216.524 249.004l-71.817 75.557 9.227-.498 62.59-65.957v-9.102zM216.395 194.643L89.344 326.931l9.226-.374 117.825-122.813v-9.101z"/><path opacity=".3" d="M216.399 212.721L107.926 326.182l9.226-.499 99.247-103.86v-9.102zM216.399 203.742L98.574 326.554l9.351-.374 108.474-113.461v-8.977zM216.52 239.9l-80.918 85.034 9.101-.374 71.817-75.558V239.9zM216.52 258.105l-62.59 65.957 9.102-.374 53.488-56.481v-9.102zM216.647 321.318v-8.478l-8.354 8.852 8.354-.374z"/><path opacity=".3" d="M216.647 312.842v-9.102l-17.331 18.329 8.978-.375 8.353-8.852zM216.644 294.512l-26.308 28.053 8.977-.498 17.331-18.329v-9.226zM216.524 276.309l-44.387 47.005 9.102-.374 35.285-37.53v-9.101zM216.524 267.207l-53.489 56.481 9.102-.374 44.387-47.005v-9.102zM216.271 131.803L23.637 329.798l9.35-.374L216.272 140.78v-8.977zM216.149 96.143L23.141 293.016v9.476L216.149 105.12v-8.977z"/><path opacity=".3" d="M216.149 105.119L23.14 302.491l-.124 9.352 193.133-197.871v-8.853zM216.148 122.949L22.89 321.319l-.124 8.603.872-.125 192.635-197.995-.125-8.853z"/><path opacity=".3" d="M216.148 113.971L23.015 311.842l-.124 9.476 193.257-198.37v-8.977zM216.149 87.291L23.265 283.666l-.124 9.351L216.149 96.144V87.29zM216.021 78.438L23.386 274.313l-.124 9.351L216.145 87.29l-.124-8.853z"/><path opacity=".3" d="M216.025 69.584L23.515 264.961l-.124 9.352L216.025 78.436v-8.852zM216.269 167.711L61.289 328.177l9.351-.374L216.27 176.688v-8.977z"/><path opacity=".3" d="M216.27 176.688L70.64 327.803l9.352-.374 136.402-141.764-.124-8.977zM216.269 158.732L51.937 328.55l9.352-.374 154.98-160.466v-8.978zM216.271 140.777L32.988 329.422l9.476-.374 173.807-179.294v-8.977z"/><path opacity=".3" d="M216.272 149.756L42.465 329.049l9.476-.499 164.331-169.817v-8.977zM216.395 185.664L79.992 327.428l9.351-.499 127.052-132.288v-8.977z"/></g><g opacity=".3"><path opacity=".3" d="M106.551 23.576l109.721 108.349v8.977L97.449 23.576h9.102zM60.918 23.703l155.354 153.11.125 8.977L51.691 23.703h9.227zM70.024 23.703l146.252 144.008v9.102L60.922 23.703h9.102z"/><path opacity=".3" d="M97.453 23.576l118.823 117.326v8.977L88.352 23.576h9.101zM79.246 23.576l137.026 135.156v8.977L70.02 23.701l9.226-.125z"/><path opacity=".3" d="M88.348 23.576L216.272 149.88v8.853L79.246 23.576h9.102zM51.691 23.703L216.397 185.79v8.977L42.465 23.703h9.226z"/><path opacity=".3" d="M42.465 23.703l173.932 171.064v8.978L33.238 23.703h9.227zM25.883 44.025l190.514 186.899.125 9.102L25.758 53.002l.125-8.977zM25.758 53.004l190.764 187.024v9.101L25.632 62.106l.125-9.102z"/><path opacity=".3" d="M26.008 34.924l190.39 186.899v9.102L25.883 44.025l.125-9.101zM26.133 23.703h7.107l183.158 180.042v9.101L26.133 25.823v-2.12z"/><path opacity=".3" d="M26.133 25.822l190.265 187.024v8.977L26.008 34.924l.125-9.102zM160.54 23.453l55.483 54.985.125 8.977-64.586-63.962h8.978zM178.368 23.328l37.654 37.405v8.852l-46.506-46.132 8.852-.125zM196.2 23.328l19.825 19.7v8.852l-28.677-28.552h8.852z"/><path opacity=".3" d="M187.348 23.328l28.677 28.552v8.853l-37.654-37.405h8.977zM205.052 23.328L216.024 34.3v8.728l-19.825-19.7h8.853z"/><path opacity=".3" d="M213.779 23.328l2.119 2.12.125 8.852-10.972-10.972h8.728z"/><path opacity=".3" d="M215.897 23.328v2.12l-2.12-2.12h2.12zM124.629 23.576l91.517 90.52v8.852L115.527 23.576h9.102zM142.583 23.453l73.562 72.815v8.852l-82.54-81.667h8.978z"/><path opacity=".3" d="M133.606 23.453l82.54 81.667v8.977l-91.517-90.52 8.977-.124zM115.528 23.576l100.619 99.372.124 8.977-109.72-108.349h8.977zM151.563 23.453l64.586 63.962v8.853l-73.563-72.815h8.977zM169.516 23.453l46.507 46.133v8.852l-55.484-54.985h8.977zM25.633 62.103l190.889 187.024v9.102L25.632 71.205v-9.102zM23.14 293.018l36.657 35.285-9.35.374-27.306-26.308v-9.351zM23.761 236.91l91.891 88.899-9.226.374-82.79-79.922.125-9.351zM23.89 227.559l100.993 97.875-9.226.374-91.891-88.898.124-9.351zM23.64 255.613l73.438 70.945-9.226.498-64.336-62.092.124-9.351zM24.14 199.754L152.44 324.187l-9.102.374L24.141 209.105v-9.351z"/><path opacity=".3" d="M24.011 218.332l110.095 106.603-9.227.499-100.992-97.875.124-9.227zM24.136 209.105l119.197 115.456-9.227.374L24.012 218.332l.124-9.227zM23.637 246.262l82.789 79.921-9.351.374-73.438-70.944v-9.351zM23.515 264.963l64.336 62.092-9.35.374-55.11-53.115.124-9.351zM22.766 329.923l.124-8.728 8.603 8.354-8.727.374zM22.89 321.195l.125-9.476L40.97 329.05l-9.476.498-8.603-8.353z"/><path opacity=".3" d="M23.14 302.369l27.306 26.308-9.476.374-17.954-17.331.124-9.351zM23.265 283.666l45.883 44.138-9.35.498-36.657-35.285.124-9.351z"/><path opacity=".3" d="M23.386 274.314l55.11 53.115-9.351.374-45.883-44.137.124-9.352zM24.886 135.168L215.9 321.444l-8.977.374L24.762 144.394l.124-9.226zM25.258 98.637L216.52 285.536l.125 9.101L25.133 107.739l.125-9.102z"/><path opacity=".3" d="M25.133 107.736l191.512 186.899v9.102L25.133 116.838v-9.102zM25.008 126.066l191.636 186.899v8.354l-.748.125L24.883 135.168l.125-9.102z"/><path opacity=".3" d="M25.136 116.84L216.65 303.739v9.226L25.012 126.066l.124-9.226zM25.383 89.41L216.52 276.434v9.102L25.258 98.636l.125-9.226zM25.511 80.307L216.525 267.33v9.102L25.387 89.408l.124-9.101z"/><path opacity=".3" d="M25.633 71.207L216.52 258.231v9.101L25.508 80.309l.125-9.102zM24.511 172.074l155.23 150.866-9.102.374L24.387 181.301l.124-9.227z"/><path opacity=".3" d="M24.386 181.299L170.64 323.312l-9.102.499L24.262 190.525l.124-9.226zM24.633 162.848l164.206 159.718-9.102.374-155.23-150.866.125-9.226zM24.761 144.395l182.161 177.423-8.977.374L24.637 153.621l.124-9.226z"/><path opacity=".3" d="M24.637 153.621l173.308 168.571-9.102.374L24.637 162.848v-9.227zM24.265 190.527l137.276 133.286-9.102.374L24.141 199.754l.124-9.227z"/></g></g><path d="M159.668 186.29c-2.992.249-14.837 6.109-25.684 12.218-.748.499-1.496.873-2.12 1.372-7.606 5.361-15.71 11.221-16.458 12.718-.499.872-.873 1.745-1.371 2.368-.873 1.372-2.12 2.494-3.492 3.367-.623 2.244-.623 4.239-1.246 6.359-1.372 4.364-1.123 22.193-8.229 29.799-3.616 3.99-8.105 2.493-11.471.249-1.621 0-2.868-1.122-3.117-2.618-1.496-1.372-2.37-2.494-2.37-2.494s-.124 0-.249-.124c-.748-.375-2.618-1.497-2.867-1.621-.374-.25-.5-.499-.873-1.123l-.374-.748c-.374-.124-.624-.498-.25-.872.624-.624 2.993-.125 3.492-.25.498-.124 1.995-.498 2.369 0 1.745-.374 2.12-.997 3.49-5.86.624-2.369-9.101-22.443-10.597-34.786-1.372-12.344 18.702-21.072 24.687-24.313.499-.25 1.247-.499 2.119-.624.25-.748.499-1.371.499-2.119.249-3.616-.125-10.349-1.247-13.715-26.432 7.855-46.132 32.417-46.382 61.219-.249 34.786 27.805 61.967 62.466 60.595 34.288-1.371 61.967-30.173 61.967-64.336 0-14.588-5.112-27.929-13.465-38.277-.125 1.621-4.239 3.117-9.227 3.616z" fill="#974B52"/><path d="M168.025 181.8c-.748-.872-1.496-1.621-2.244-2.493-.873.498-1.995 1.122-3.242 1.87 2.618.125 4.489.125 5.486.623zM112.661 161.852c-.249 1.247-2.743.873-3.615 1.621-.25.249-.374.498-.499.748 1.371 2.493 4.239 8.478 7.356 10.972 2.743 2.244 14.962 2.867 21.196 2.992 6.11-1.247 19.201-2.868 22.069-3.117.499 0 1.122-.125 1.87-.249-10.723-8.977-24.687-14.339-40.148-13.965a71.103 71.103 0 00-10.348 1.122c.623 0 1.371 0 2.119-.124z" fill="#974B52"/><path d="M105.559 177.065c0 .623-.249 1.372-.498 2.12 5.236-.998 17.206-.748 28.303-.125.997-.249 1.745-.374 2.244-.499.499-.124.997-.249 1.621-.374-6.234-.125-18.453-.873-21.196-2.992-3.117-2.494-5.985-8.479-7.357-10.972-.249.498-.124.997-.124.997l-1.621-.997s.623-.873-.25-1.496c-.748.249-1.496.374-2.369.623.998 3.366 1.372 10.099 1.247 13.715z" fill="#974B52"/><path d="M168.768 182.549a1.123 1.123 0 00-.748-.748c.249.249.498.623.748.873v-.125z" fill="#A75256"/><path d="M155.68 185.417c.623 0 .873.125.873.499-.25 1.371-3.492 2.119-6.235 2.743-5.486 3.366-11.221 6.857-16.084 9.85 10.723-6.11 22.568-11.97 25.685-12.219 4.987-.374 9.102-1.995 8.977-3.616-.249-.249-.499-.623-.748-.873-.997-.374-2.868-.499-5.361-.623-2.12 1.247-4.614 2.618-7.107 4.239zM84.485 212.973c-.748-10.723.125-22.069 7.98-25.311 1.371-.623 3.74-1.247 6.608-1.746 1.745-1.371 4.613-3.989 5.86-6.732-.873.124-1.621.374-2.12.623-6.11 3.366-26.183 11.97-24.687 24.313 1.372 12.344 11.222 32.418 10.598 34.786-1.247 4.863-1.62 5.486-3.49 5.861l.124.124c.25.624.623 1.496.25 1.746-.375 1.122-1.497 2.867-1.497 2.867s-.125-.124-.25-.124c.125.124.25.124.25.124s.873 1.123 2.369 2.494c0-.125-.125-.374-.125-.623 0-1.871 1.496-3.491 3.367-3.491a3.15 3.15 0 013.366 3.117c0 1.87-1.496 3.491-3.366 3.491h-.125c3.367 2.244 7.73 3.74 11.471-.25 7.107-7.605 6.857-25.435 8.229-29.799.623-2.119.623-4.114 1.247-6.358-1.497.872-3.117 1.496-4.863 1.62-7.107.873-20.572 1.123-21.196-6.732z" fill="#A75256"/><path d="M99.07 185.791c4.24-.873 9.601-1.745 15.087-2.369 7.855-1.995 15.336-3.615 19.076-4.364-11.096-.623-22.941-.997-28.303.125-1.246 2.618-4.114 5.237-5.86 6.608z" fill="#A75256"/><path d="M165.777 179.308c1.371-.748 2.244-1.247 2.743-1.496 3.865-1.621 7.481-3.616 6.608-4.863-.748-.997-9.725.998-14.214 1.746 1.746 1.496 3.366 2.992 4.863 4.613z" fill="#994F55"/><path d="M137.101 178.185c2.245.124 3.616.124 3.616.124l-3.74.998a791.727 791.727 0 0119.824 1.621c2.12.249 4.115.249 5.86.374 1.247-.748 2.244-1.372 3.242-1.87-1.496-1.621-3.117-3.117-4.863-4.614-.748.125-1.371.25-1.87.25-2.868.249-15.959 1.745-22.069 3.117zM131.988 199.756c.748-.374 1.372-.873 2.12-1.371-.499.249-.998.623-1.496.873-.25.249-.499.374-.624.498z" fill="#994F55"/><path d="M133.238 179.056c1.247.125 2.619.125 3.865.25l3.741-.998s-1.496 0-3.616-.124c-.623.124-1.122.249-1.621.374-.623.124-1.371.249-2.369.498zM132.488 199.381c.499-.249.998-.624 1.496-.873 4.863-2.868 10.598-6.483 16.084-9.85-1.745.499-3.491.873-4.114 1.372-.748.748-6.858 4.862-13.466 9.351z" fill="#994F55"/><path d="M139.97 182.301c3.616 1.87 19.201 1.247 10.224 3.491-8.977 2.244-27.43 7.481-14.837 4.987 10.099-1.995 17.705-5.237 20.199-5.361 2.618-1.621 4.987-2.993 6.982-4.239-1.746 0-3.741-.125-5.86-.375a747.68 747.68 0 00-19.825-1.62l-10.099 2.867c6.733-.374 11.969-.498 13.216.25z" fill="#994F55"/><path d="M114.16 183.422c4.364-.498 8.853-.997 12.842-1.246l10.1-2.868c-1.247-.125-2.494-.125-3.865-.249-3.866.872-11.222 2.369-19.077 4.363z" fill="#994F55"/><path d="M121.394 206.362c-2.369 1.995-5.236 5.362-9.476 8.978-.623 1.122-.997 2.119-1.371 2.992 1.371-.873 2.618-1.995 3.491-3.367.499-.748.873-1.496 1.371-2.368.749-1.497 8.853-7.357 16.459-12.718-3.492 2.12-6.235 3.74-7.606 4.613-.998.499-1.995 1.247-2.868 1.87z" fill="#A75256"/><path d="M109.546 217.086c-7.107 5.237-18.453-.249-18.453-.249s-3.117-8.603-5.361-18.578c-.873-3.74 5.112-7.231 13.216-10.224l-1.122-1.247s.499-.374 1.372-.997c-2.868.623-5.237 1.247-6.609 1.746-7.855 3.241-8.727 14.587-7.98 25.31.5 7.855 14.09 7.606 21.197 6.982 1.745-.124 3.366-.748 4.862-1.621.25-.997.624-1.994 1.372-2.992-.873.623-1.746 1.247-2.494 1.87zM123.51 204.741c-.623.374-1.371.873-2.119 1.496a31.48 31.48 0 012.992-1.87c-.374.25-.748.374-.873.374zM156.429 185.916c.125-.374-.249-.623-.873-.499a94.35 94.35 0 00-5.486 3.367c2.993-.748 6.11-1.497 6.359-2.868z" fill="#A75256"/><path d="M97.703 186.913l1.122 1.247c4.614-1.745 10.1-3.242 15.212-4.613-5.487.623-10.848 1.496-15.087 2.369-.624.623-1.247.997-1.247.997zM116.78 209.605c-2.493 2.119-3.99 3.865-4.987 5.61 4.239-3.491 7.107-6.857 9.476-8.977-1.746 1.372-3.367 2.494-4.489 3.367zM124.262 204.368c1.371-.748 4.114-2.494 7.605-4.613.25-.125.374-.249.624-.374-2.868 1.745-5.736 3.366-8.229 4.987z" fill="#A75256"/><path d="M150.193 185.667c8.978-2.244-6.608-1.621-10.223-3.491-1.247-.624-6.484-.624-13.092-.125l-26.557 7.481-1.497-1.621c-8.104 2.993-14.089 6.484-13.216 10.224 2.244 9.975 5.361 18.578 5.361 18.578s11.346 5.486 18.453.249c.873-.623 1.621-1.247 2.369-1.87.998-1.621 2.494-3.491 4.988-5.611 1.122-.997 2.618-2.119 4.488-3.366a16.843 16.843 0 012.12-1.496c.124-.125.499-.25.748-.374 2.494-1.621 5.361-3.242 8.229-4.988 6.483-4.613 12.593-8.727 13.466-9.351.748-.499 2.369-.997 4.114-1.371 1.87-1.123 3.741-2.245 5.486-3.367-2.493.125-10.099 3.367-20.198 5.362-12.344 2.743 6.109-2.494 14.961-4.863z" fill="#A75256"/><path d="M100.445 189.657l26.558-7.481c-3.99.249-8.354.748-12.843 1.247-5.236 1.371-10.598 2.867-15.21 4.613l1.495 1.621z" fill="#A75256"/><path d="M89.597 254.739a22.865 22.865 0 01-3.116-2.618c.249 1.496 1.496 2.618 3.117 2.618z" fill="#F37880"/><path d="M93.088 251.125c0-1.87-1.496-3.242-3.366-3.117s-3.366 1.745-3.366 3.491c0 .249 0 .374.124.623.873.873 1.995 1.746 3.117 2.619h.125c1.87-.125 3.366-1.746 3.366-3.616zm-5.984.125c0-1.247.997-2.245 2.244-2.369 1.247-.125 2.244.872 2.244 2.119 0 1.247-.997 2.245-2.244 2.369-1.122.125-2.12-.873-2.244-2.119z" fill="#F37880"/><path d="M91.715 250.999c0-1.247-.997-2.244-2.244-2.119-1.247.124-2.244 1.122-2.244 2.369 0 1.246.997 2.244 2.244 2.119 1.247 0 2.244-1.122 2.244-2.369zm-1.745 1.372c-.374.124-.998.249-1.372-.125-.748-.623-.623-1.247-.499-1.371.25-.374.374-.873 1.995-.499.25 0 .624.249.624.997 0 .374-.25.873-.748.998z" fill="#A75256"/><path d="M79.625 245.889l.374.748c.499.623.624.997.873 1.122.25.125 2.12 1.122 2.868 1.621-.749-.499-2.868-1.621-3.117-1.746-.125-.124-.749-.997-.998-1.745z" fill="#F37880"/><path d="M85.485 246.761c-.125 0-3.99-.748-4.738-.623-.374 0-.873 0-1.122-.249.25.748.873 1.621 1.122 1.745.125.125 2.244 1.372 3.117 1.746.125.124.25.124.25.124s.997-1.745 1.371-2.743z" fill="#F37880"/><path d="M107.928 163.098c.125.125.374.499.624.998.125-.25.249-.499.499-.749.872-.748 3.366-.374 3.615-1.62-.748.249-1.496.124-2.244.124-.997.25-1.995.374-2.992.624.249.249.374.498.498.623z" fill="#5C424E"/><path d="M106.8 164.22l1.621.998s-.125-.499.125-.998c-.25-.498-.499-.872-.624-.997-.124-.125-.374-.374-.498-.623-.25.124-.624.124-.873.249.997.499.249 1.371.249 1.371z" fill="#5C424E"/><path d="M90.222 250.376c-1.746-.374-1.87.25-1.995.499-.125.125-.25.748.499 1.372.374.374.997.249 1.371.124.499-.124.748-.498.748-.997 0-.748-.498-.998-.623-.998z" fill="#5C414E"/><path d="M79.375 245.263s.125-.125 0 0v-.125c.125-.249.748-.249 1.746-.124.997.124 3.74-.125 3.74-.125h.125c-.374-.623-1.995-.125-2.37 0-.498.125-2.867-.374-3.49.249-.25.374-.125.624.25.873 0-.125 0-.125-.126-.249.25-.25.125-.374.125-.499zM85.608 246.012c0 .125 0 .374-.125.624.499-.25.125-1.122-.25-1.746l-.124-.124h-.125c.25.249.624.623.624 1.246zM79.497 245.141s-.125.124 0 0v0z" fill="#E5737E"/><path d="M79.496 245.639c0 .124 0 .124.125.249-.125-.125-.125-.125-.125-.249zM84.488 245.013c.249 0 .374-.124.623-.124 0 0-2.743.249-3.74.124-.873-.124-1.497-.124-1.746.125.499-.499 2.743.125 4.863-.125z" fill="#E5737E"/><path d="M85.107 244.889c-.25 0-.374.124-.624.124-2.12.25-4.364-.249-4.987 0v.624c0 .124 0 .124.125.249.374.125.748.249 1.122.249.748-.124 4.613.624 4.613.624h.125c.125-.249.125-.499.125-.624 0-.748-.374-1.122-.5-1.246z" fill="#E5737E"/><path d="M81.487 151.628c3.117-.25 15.087-6.11 25.934-12.095.748-.498 1.496-.872 2.12-1.246 7.605-5.237 15.71-10.972 16.458-12.344.498-.873.872-1.621 1.371-2.369.873-1.371 2.12-2.493 3.491-3.366.624-2.245.624-4.239 1.247-6.234 1.372-4.24 1.122-21.695 8.104-28.927 3.616-3.74 7.855-2.244 11.222 0 1.496 0 2.868 1.122 3.117 2.619 1.371 1.371 2.244 2.493 2.244 2.493s.125 0 .25.125c.748.374 2.493 1.496 2.743 1.62.374.25.498.5.872 1.123l.374.748c.374.125.499.499.25.748-.499.624-2.868.125-3.367.25-.374.124-1.995.498-2.369-.125-1.745.25-2.119.997-3.366 5.611-.623 2.369 8.977 22.068 10.473 34.163 1.497 12.094-18.203 20.572-24.188 23.814-.499.249-1.247.499-2.12.623-.249.624-.498 1.372-.498 1.995-.125 3.616.124 10.349 1.246 13.715 26.059-7.73 45.011-31.918 45.011-59.847 0-33.54-27.181-60.347-60.97-60.097-34.163.25-62.216 27.929-62.466 61.967-.125 14.712 4.987 28.178 13.59 38.527 0-1.496 4.24-3.117 9.227-3.491z" fill="#974B52"/><path d="M73.008 156.117c.748.873 1.496 1.621 2.244 2.494.873-.499 1.995-1.122 3.242-1.87-2.494-.125-4.489-.125-5.486-.624zM128.993 176.316c.25-1.247 2.743-.873 3.616-1.621.249-.249.374-.499.499-.748-1.372-2.494-4.239-8.479-7.356-10.972-2.619-2.244-14.962-2.868-21.196-2.993-6.234 1.247-19.45 2.868-22.319 3.117-.498 0-1.122.125-1.87.25 10.848 9.102 25.061 14.463 40.522 14.089a71.131 71.131 0 0010.349-1.122 3.454 3.454 0 00-2.245 0z" fill="#974B52"/><path d="M135.974 160.979c0-.623.25-1.371.499-1.995-5.237.998-17.081.624-28.178 0-.998.25-1.87.374-2.244.499-.499.125-.998.249-1.621.374 6.234.249 18.453.873 21.196 2.993 3.117 2.493 5.984 8.478 7.356 10.972.249-.499 0-.998 0-.998l1.621.998s-.624.872.249 1.496c.748-.25 1.496-.374 2.369-.624-.997-3.366-1.371-9.974-1.247-13.715zM72.262 155.369c.124.374.374.623.748.748-.25-.249-.499-.623-.748-.873v.125z" fill="#A75256"/><path d="M85.726 152.625c-.623 0-.873-.125-.873-.499.25-1.371 3.492-1.994 6.36-2.743 5.61-3.366 11.345-6.857 16.208-9.725-10.847 5.985-22.817 11.845-25.934 12.094-5.112.374-9.351 1.995-9.227 3.616.25.25.5.624.749.873.997.499 2.992.499 5.486.623 2.12-1.246 4.613-2.743 7.231-4.239zM156.544 125.819c.748 10.473 0 21.57-7.605 24.812-1.372.623-3.616 1.122-6.484 1.745-1.745 1.372-4.613 3.99-5.735 6.609.873-.125 1.621-.375 2.119-.624 5.985-3.242 25.56-11.72 24.189-23.814-1.496-12.094-11.097-31.794-10.474-34.163 1.247-4.613 1.621-5.362 3.367-5.61l-.125-.126c-.249-.623-.623-1.496-.249-1.745.374-.998 1.371-2.743 1.371-2.743s.125.124.25.124c-.125-.124-.25-.124-.25-.124s-.872-1.122-2.244-2.494c0 .125.125.374.125.499 0 1.745-1.372 3.366-3.242 3.366-1.746 0-3.242-1.371-3.366-3.117 0-1.745 1.371-3.366 3.241-3.366h.125c-3.366-2.244-7.606-3.74-11.221 0-6.983 7.356-6.733 24.687-8.105 28.926-.623 1.995-.623 3.99-1.247 6.234a11.114 11.114 0 014.738-1.496c6.983-.623 20.199-.623 20.822 7.107z" fill="#A75256"/><path d="M142.332 152.377c-4.115.873-9.476 1.621-14.838 2.244-7.855 1.995-15.211 3.491-19.076 4.364 11.221.624 22.942.998 28.178 0 1.122-2.618 3.99-5.237 5.736-6.608z" fill="#A75256"/><path d="M75.256 158.611c-1.372.748-2.37 1.247-2.743 1.497-3.99 1.62-7.73 3.615-6.858 4.862.748.998 9.975-.997 14.588-1.745a87.608 87.608 0 01-4.987-4.614z" fill="#994F55"/><path d="M104.429 159.857c-2.244-.124-3.74-.124-3.74-.124l3.74-.998c-9.226-.623-17.33-1.371-20.074-1.621-2.12-.249-4.239-.249-5.984-.374-1.247.748-2.37 1.372-3.242 1.87 1.496 1.621 3.242 3.118 4.987 4.614.748-.125 1.372-.25 1.87-.25 2.993-.249 16.21-1.87 22.443-3.117zM109.666 138.287c-.748.374-1.371.873-2.119 1.247.499-.249.997-.623 1.496-.873.249-.125.374-.249.623-.374z" fill="#994F55"/><path d="M108.297 158.984c-1.247-.125-2.618-.125-3.865-.25l-3.741.998s1.497 0 3.741.125c.623-.125 1.122-.25 1.621-.375.498-.124 1.247-.249 2.244-.498zM109.045 138.662c-.499.249-.998.624-1.496.873a1117.61 1117.61 0 00-16.21 9.725c1.871-.499 3.492-.873 4.24-1.371.748-.624 6.858-4.738 13.466-9.227zM101.559 155.743c-3.74-1.87-19.45-1.247-10.349-3.491 9.102-2.244 27.555-7.356 14.962-4.987-10.1 1.87-17.954 5.112-20.448 5.236-2.618 1.621-5.112 2.993-7.107 4.24 1.746.124 3.74.124 5.985.374 2.618.249 10.723.997 20.074 1.621l10.224-2.868c-6.858.499-12.094.499-13.341-.125z" fill="#994F55"/><path d="M127.492 154.619c-4.364.499-8.852.998-12.717 1.247l-10.224 2.868c1.247.124 2.493.124 3.865.249 3.74-.873 11.221-2.369 19.076-4.364z" fill="#994F55"/><path d="M120.262 131.927c2.369-1.995 5.236-5.236 9.351-8.728.623-.997.997-1.995 1.247-2.992-1.372.873-2.619 1.995-3.491 3.366-.499.624-.873 1.497-1.372 2.369-.748 1.497-8.728 7.107-16.458 12.344 3.491-2.12 6.234-3.741 7.606-4.489a22.726 22.726 0 003.117-1.87z" fill="#A75256"/><path d="M131.982 121.455c6.982-5.112 18.079.499 18.079.499s3.117 8.478 5.361 18.328c.873 3.616-4.987 7.107-12.967 9.975l1.122 1.247s-.498.374-1.371.997c2.868-.623 5.112-1.122 6.483-1.745 7.731-3.242 8.479-14.339 7.606-24.812-.623-7.606-13.715-7.606-20.822-7.107-1.746.125-3.366.623-4.738 1.496-.249.998-.623 1.87-1.247 2.992.873-.748 1.621-1.246 2.494-1.87zM118.142 133.424a16.947 16.947 0 002.12-1.496 31.405 31.405 0 01-2.992 1.87c.374-.125.623-.374.872-.374zM84.856 152.003c-.125.374.25.623.873.499 1.745-.998 3.615-2.12 5.61-3.242-2.992.748-6.234 1.371-6.483 2.743z" fill="#A75256"/><path d="M143.705 151.378l-1.122-1.247c-4.614 1.745-9.975 3.242-15.087 4.488 5.486-.623 10.723-1.496 14.837-2.244a12.183 12.183 0 011.372-.997zM124.754 128.687c2.369-1.995 3.99-3.865 4.863-5.486-4.115 3.367-6.982 6.733-9.351 8.728a74.858 74.858 0 004.488-3.242zM117.272 133.799c-1.372.748-4.115 2.369-7.606 4.488-.249.125-.374.25-.623.374a119.714 119.714 0 008.229-4.862z" fill="#A75256"/><path d="M91.213 152.252c-9.102 2.244 6.732 1.62 10.348 3.491 1.247.623 6.484.623 13.092.124l26.308-7.356 1.496 1.496c7.98-2.867 13.84-6.359 12.967-9.974-2.244-9.85-5.361-18.329-5.361-18.329s-11.222-5.486-18.079-.498c-.873.623-1.621 1.246-2.369 1.87-.998 1.621-2.494 3.366-4.863 5.486a74.858 74.858 0 01-4.488 3.242 17.095 17.095 0 01-2.12 1.496c-.125.124-.499.249-.748.374-2.494 1.496-5.361 3.242-8.229 4.862-6.608 4.489-12.718 8.604-13.59 9.227-.749.499-2.37.997-4.24 1.371-1.87 1.123-3.74 2.245-5.61 3.242 2.493-.124 10.348-3.366 20.447-5.236 12.593-2.245-5.984 2.867-14.961 5.112z" fill="#A75256"/><path d="M140.96 148.637l-26.308 7.231c3.99-.249 8.354-.748 12.718-1.247 5.112-1.371 10.473-2.867 15.087-4.488l-1.497-1.496z" fill="#A75256"/><path d="M151.434 85.049c1.122.873 2.244 1.745 3.117 2.618-.374-1.496-1.621-2.618-3.117-2.618z" fill="#F37880"/><path d="M148.066 88.415a3.15 3.15 0 003.366 3.117c1.746 0 3.242-1.62 3.242-3.366 0-.25 0-.374-.125-.499a22.883 22.883 0 00-3.117-2.618h-.124c-1.871.124-3.367 1.62-3.242 3.366zm5.735 0c0 1.247-.997 2.244-2.119 2.244-1.247 0-2.245-.872-2.245-2.119 0-1.247.998-2.244 2.12-2.244s2.244.872 2.244 2.12z" fill="#F37880"/><path d="M149.44 88.54c0 1.246.998 2.119 2.245 2.119 1.246 0 2.119-.998 2.119-2.245 0-1.246-.997-2.12-2.244-2.12-1.247 0-2.244.998-2.12 2.245zm1.496-1.248c.374-.124.998-.249 1.372.125.748.623.623 1.247.499 1.372-.25.374-.374.872-1.995.498-.25 0-.624-.25-.624-.997 0-.499.374-.873.748-.998z" fill="#A75256"/><path d="M161.158 93.774l-.374-.748c-.374-.623-.624-.873-.873-1.122-.249-.125-2.12-1.247-2.743-1.62.748.498 2.868 1.62 2.992 1.745 0 .25.624.997.998 1.745z" fill="#F37880"/><path d="M155.422 92.903c.125 0 3.865.748 4.613.624.374 0 .748 0 1.122.249-.249-.748-.873-1.62-.997-1.746-.125-.124-2.244-1.371-2.993-1.745-.124-.125-.249-.125-.249-.125s-1.122 1.621-1.496 2.743z" fill="#F37880"/><path d="M133.601 174.943c-.124-.125-.374-.499-.623-.998-.125.25-.25.499-.499.748-.873.749-3.366.374-3.616 1.621.748-.249 1.496-.124 2.245-.124.997-.25 1.994-.374 2.992-.624-.249-.249-.374-.499-.499-.623zM134.726 173.82l-1.621-.998s.125.499 0 .998c.25.498.499.872.624.997s.374.374.499.624c.249-.125.623-.125.872-.25-1.122-.499-.374-1.371-.374-1.371z" fill="#A75256"/><path d="M150.811 89.288c1.621.374 1.745-.125 1.995-.5.125-.124.249-.747-.499-1.37-.374-.375-.997-.25-1.371-.125-.374.124-.748.498-.748.997 0 .623.498.873.623.998z" fill="#5C414E"/><path d="M161.283 94.399c0 .124 0 .124 0 0v.124c-.125.25-.748.125-1.621.125-.997-.124-3.74 0-3.74 0h-.125c.374.624 1.87.125 2.369.125.499-.125 2.868.499 3.366-.25.25-.374.125-.623-.249-.748 0 .125 0 .125.125.25-.125.124-.125.25-.125.374z" fill="#E5737E"/><path d="M155.299 93.526c0-.125 0-.374.124-.624-.374.25-.124 1.123.25 1.746l.124.125h.125c-.249-.25-.623-.624-.623-1.247zM161.286 94.523s0 .125 0 0c-.125.125 0 .125 0 0zM161.16 94.025c0-.125 0-.125-.125-.25.125.125.125.125.125.25z" fill="#E5737E"/><path d="M156.42 94.649c-.249 0-.374 0-.623.124 0 0 2.618-.124 3.74 0 .873.125 1.497.125 1.621-.124-.499.374-2.743-.25-4.738 0z" fill="#E5737E"/><path d="M155.799 94.65c.125 0 .374 0 .624-.126 2.119-.249 4.239.375 4.738 0V94.4 93.9c0-.125 0-.124-.125-.25-.374-.124-.748-.249-1.122-.249-.748 0-4.489-.748-4.489-.748h-.125c-.124.25-.124.499-.124.624.124.872.499 1.246.623 1.371z" fill="#E5737E"/></svg>