<svg width="237" height="350" viewBox="0 0 237 350" fill="none" xmlns="http://www.w3.org/2000/svg">
<path d="M228.173 334.792L232.005 334.619L231.993 330.783L230.996 8.97784L230.983 4.98791L226.993 4.99024L12.9136 5.11493L8.96227 5.11723L8.91621 9.06829L5.05105 340.599L5.0017 344.832L9.23055 344.641L228.173 334.792Z" fill="#A75155" stroke="#FFF1F0" stroke-width="8"/>
<path d="M227.993 330.796L9.05078 340.645L12.9159 9.11492L226.996 8.99023L227.993 330.796Z" fill="#A75256"/>
<g opacity="0.3">
<g opacity="0.3">
<path opacity="0.3" d="M137.973 23.4531L24.8864 135.293L24.7617 144.52L146.95 23.4531H137.973Z" stroke="#FEF1F0" stroke-width="2" stroke-miterlimit="10"/>
<path opacity="0.3" d="M182.608 23.3281L24.3864 181.301L24.2617 190.527L191.585 23.3281H182.608Z" stroke="#FEF1F0" stroke-width="2" stroke-miterlimit="10"/>
<path opacity="0.3" d="M173.756 23.4528L24.5114 172.074L24.3867 181.301L182.609 23.3281L173.756 23.4528Z" stroke="#FEF1F0" stroke-width="2" stroke-miterlimit="10"/>
<path opacity="0.3" d="M146.95 23.4531L24.7614 144.52L24.6367 153.622L155.927 23.4531H146.95Z" stroke="#FEF1F0" stroke-width="2" stroke-miterlimit="10"/>
<path opacity="0.3" d="M164.776 23.4531L24.6325 162.848L24.5078 172.075L173.753 23.4531H164.776Z" stroke="#FEF1F0" stroke-width="2" stroke-miterlimit="10"/>
<path opacity="0.3" d="M155.927 23.4531L24.6367 153.622V162.848L164.78 23.4531H155.927Z" stroke="#FEF1F0" stroke-width="2" stroke-miterlimit="10"/>
<path opacity="0.3" d="M191.589 23.3281L24.2653 190.527L24.1406 199.878L200.442 23.3281H191.589Z" stroke="#FEF1F0" stroke-width="2" stroke-miterlimit="10"/>
<path opacity="0.3" d="M200.442 23.3281L24.1406 199.878V209.105L209.169 23.3281H200.442Z" stroke="#FEF1F0" stroke-width="2" stroke-miterlimit="10"/>
<path opacity="0.3" d="M216.022 43.0293L23.7614 237.035L23.6367 246.262L216.022 51.8818V43.0293Z" stroke="#FEF1F0" stroke-width="2" stroke-miterlimit="10"/>
<path opacity="0.3" d="M216.022 51.8809L23.6367 246.261V255.612L216.022 60.7333V51.8809Z" stroke="#FEF1F0" stroke-width="2" stroke-miterlimit="10"/>
<path opacity="0.3" d="M216.026 34.1738L23.8903 227.681L23.7656 237.032L216.026 43.0263V34.1738Z" stroke="#FEF1F0" stroke-width="2" stroke-miterlimit="10"/>
<path opacity="0.3" d="M215.898 23.3281H209.165L24.1364 209.105L24.0117 218.456L215.898 25.3231V23.3281Z" stroke="#FEF1F0" stroke-width="2" stroke-miterlimit="10"/>
<path opacity="0.3" d="M215.898 25.3223L24.0114 218.455L23.8867 227.682L216.022 34.1747L215.898 25.3223Z" stroke="#FEF1F0" stroke-width="2" stroke-miterlimit="10"/>
<path opacity="0.3" d="M83.6134 23.5762L25.5114 80.4313L25.3867 89.5331L92.7152 23.5762H83.6134Z" stroke="#FEF1F0" stroke-width="2" stroke-miterlimit="10"/>
<path opacity="0.3" d="M65.2818 23.7009L25.6328 62.2277V71.3295L74.3836 23.5762L65.2818 23.7009Z" stroke="#FEF1F0" stroke-width="2" stroke-miterlimit="10"/>
<path opacity="0.3" d="M46.8291 23.7031L25.8825 44.0263L25.7578 53.1282L56.0556 23.7031H46.8291Z" stroke="#FEF1F0" stroke-width="2" stroke-miterlimit="10"/>
<path opacity="0.3" d="M56.0553 23.7031L25.7575 53.1282L25.6328 62.23L65.2818 23.7031H56.0553Z" stroke="#FEF1F0" stroke-width="2" stroke-miterlimit="10"/>
<path opacity="0.3" d="M37.603 23.7031L26.0075 35.0492L25.8828 44.0263L46.8295 23.7031H37.603Z" stroke="#FEF1F0" stroke-width="2" stroke-miterlimit="10"/>
<path opacity="0.3" d="M28.3768 23.7031L26.1325 25.9474L26.0078 35.0492L37.6033 23.7031H28.3768Z" stroke="#FEF1F0" stroke-width="2" stroke-miterlimit="10"/>
<path opacity="0.3" d="M26.1328 23.7031V25.9474L28.3771 23.7031H26.1328Z" stroke="#FEF1F0" stroke-width="2" stroke-miterlimit="10"/>
<path opacity="0.3" d="M119.895 23.5778L25.1364 116.965L25.0117 126.067L128.997 23.4531L119.895 23.5778Z" stroke="#FEF1F0" stroke-width="2" stroke-miterlimit="10"/>
<path opacity="0.3" d="M101.812 23.5762L25.2575 98.635L25.1328 107.861L110.79 23.5762H101.812Z" stroke="#FEF1F0" stroke-width="2" stroke-miterlimit="10"/>
<path opacity="0.3" d="M110.79 23.5762L25.1328 107.861V116.963L119.891 23.5762H110.79Z" stroke="#FEF1F0" stroke-width="2" stroke-miterlimit="10"/>
<path opacity="0.3" d="M128.993 23.4531L25.0075 126.067L24.8828 135.293L137.97 23.4531H128.993Z" stroke="#FEF1F0" stroke-width="2" stroke-miterlimit="10"/>
<path opacity="0.3" d="M92.711 23.5762L25.3825 89.5332L25.2578 98.635L101.813 23.5762H92.711Z" stroke="#FEF1F0" stroke-width="2" stroke-miterlimit="10"/>
<path opacity="0.3" d="M74.3833 23.5762L25.6325 71.3295L25.5078 80.4314L83.6098 23.5762H74.3833Z" stroke="#FEF1F0" stroke-width="2" stroke-miterlimit="10"/>
<path opacity="0.3" d="M216.025 60.7324L23.6403 255.611L23.5156 264.962L216.025 69.5849V60.7324Z" stroke="#FEF1F0" stroke-width="2" stroke-miterlimit="10"/>
<path opacity="0.3" d="M216.523 285.41L181.238 322.94L190.34 322.565L216.648 294.512L216.523 285.41Z" stroke="#FEF1F0" stroke-width="2" stroke-miterlimit="10"/>
<path opacity="0.3" d="M216.4 230.801L126.379 325.31L135.605 324.936L216.524 239.903L216.4 230.801Z" stroke="#FEF1F0" stroke-width="2" stroke-miterlimit="10"/>
<path opacity="0.3" d="M216.396 221.822L117.148 325.683L126.375 325.309L216.396 230.799V221.822Z" stroke="#FEF1F0" stroke-width="2" stroke-miterlimit="10"/>
<path opacity="0.3" d="M216.524 249.004L144.707 324.561L153.934 324.063L216.524 258.106V249.004Z" stroke="#FEF1F0" stroke-width="2" stroke-miterlimit="10"/>
<path opacity="0.3" d="M216.395 194.643L89.3438 326.931L98.5702 326.557L216.395 203.744V194.643Z" stroke="#FEF1F0" stroke-width="2" stroke-miterlimit="10"/>
<path opacity="0.3" d="M216.399 212.721L107.926 326.182L117.152 325.683L216.399 221.823V212.721Z" stroke="#FEF1F0" stroke-width="2" stroke-miterlimit="10"/>
<path opacity="0.3" d="M216.399 203.742L98.5742 326.554L107.925 326.18L216.399 212.719V203.742Z" stroke="#FEF1F0" stroke-width="2" stroke-miterlimit="10"/>
<path opacity="0.3" d="M216.52 239.9L135.602 324.934L144.703 324.56L216.52 249.002V239.9Z" stroke="#FEF1F0" stroke-width="2" stroke-miterlimit="10"/>
<path opacity="0.3" d="M216.52 258.105L153.93 324.062L163.032 323.688L216.52 267.207V258.105Z" stroke="#FEF1F0" stroke-width="2" stroke-miterlimit="10"/>
<path opacity="0.3" d="M216.647 321.318V312.84L208.293 321.692L216.647 321.318Z" stroke="#FEF1F0" stroke-width="2" stroke-miterlimit="10"/>
<path opacity="0.3" d="M216.647 312.842V303.74L199.316 322.069L208.294 321.694L216.647 312.842Z" stroke="#FEF1F0" stroke-width="2" stroke-miterlimit="10"/>
<path opacity="0.3" d="M216.644 294.512L190.336 322.565L199.313 322.067L216.644 303.738V294.512Z" stroke="#FEF1F0" stroke-width="2" stroke-miterlimit="10"/>
<path opacity="0.3" d="M216.524 276.309L172.137 323.314L181.239 322.94L216.524 285.41V276.309Z" stroke="#FEF1F0" stroke-width="2" stroke-miterlimit="10"/>
<path opacity="0.3" d="M216.524 267.207L163.035 323.688L172.137 323.314L216.524 276.309V267.207Z" stroke="#FEF1F0" stroke-width="2" stroke-miterlimit="10"/>
<path opacity="0.3" d="M216.271 131.803L23.6367 329.798L32.9879 329.424L216.271 140.78V131.803Z" stroke="#FEF1F0" stroke-width="2" stroke-miterlimit="10"/>
<path opacity="0.3" d="M216.149 96.1426L23.1406 293.016V302.492L216.149 105.12V96.1426Z" stroke="#FEF1F0" stroke-width="2" stroke-miterlimit="10"/>
<path opacity="0.3" d="M216.149 105.119L23.1403 302.491L23.0156 311.843L216.149 113.972V105.119Z" stroke="#FEF1F0" stroke-width="2" stroke-miterlimit="10"/>
<path opacity="0.3" d="M216.148 122.949L22.8903 321.319L22.7656 329.922L23.6384 329.797L216.273 131.802L216.148 122.949Z" stroke="#FEF1F0" stroke-width="2" stroke-miterlimit="10"/>
<path opacity="0.3" d="M216.148 113.971L23.0153 311.842L22.8906 321.318L216.148 122.948V113.971Z" stroke="#FEF1F0" stroke-width="2" stroke-miterlimit="10"/>
<path opacity="0.3" d="M216.149 87.291L23.2653 283.666L23.1406 293.017L216.149 96.1435V87.291Z" stroke="#FEF1F0" stroke-width="2" stroke-miterlimit="10"/>
<path opacity="0.3" d="M216.021 78.4375L23.3864 274.314L23.2617 283.665L216.145 87.29L216.021 78.4375Z" stroke="#FEF1F0" stroke-width="2" stroke-miterlimit="10"/>
<path opacity="0.3" d="M216.025 69.584L23.5153 264.961L23.3906 274.313L216.025 78.4364V69.584Z" stroke="#FEF1F0" stroke-width="2" stroke-miterlimit="10"/>
<path opacity="0.3" d="M216.269 167.711L61.2891 328.177L70.6402 327.803L216.269 176.688V167.711Z" stroke="#FEF1F0" stroke-width="2" stroke-miterlimit="10"/>
<path opacity="0.3" d="M216.27 176.688L70.6406 327.803L79.9918 327.429L216.394 185.665L216.27 176.688Z" stroke="#FEF1F0" stroke-width="2" stroke-miterlimit="10"/>
<path opacity="0.3" d="M216.269 158.732L51.9375 328.55L61.2887 328.176L216.269 167.71V158.732Z" stroke="#FEF1F0" stroke-width="2" stroke-miterlimit="10"/>
<path opacity="0.3" d="M216.271 140.777L32.9883 329.422L42.4641 329.048L216.271 149.754V140.777Z" stroke="#FEF1F0" stroke-width="2" stroke-miterlimit="10"/>
<path opacity="0.3" d="M216.272 149.756L42.4648 329.049L51.9407 328.55L216.272 158.733V149.756Z" stroke="#FEF1F0" stroke-width="2" stroke-miterlimit="10"/>
<path opacity="0.3" d="M216.395 185.664L79.9922 327.428L89.3434 326.929L216.395 194.641V185.664Z" stroke="#FEF1F0" stroke-width="2" stroke-miterlimit="10"/>
</g>
<g opacity="0.3">
<path opacity="0.3" d="M106.551 23.5762L216.272 131.925V140.902L97.4492 23.5762H106.551Z" stroke="#FEF1F0" stroke-width="2" stroke-miterlimit="10"/>
<path opacity="0.3" d="M60.9179 23.7031L216.272 176.813L216.397 185.79L51.6914 23.7031H60.9179Z" stroke="#FEF1F0" stroke-width="2" stroke-miterlimit="10"/>
<path opacity="0.3" d="M70.0237 23.7031L216.276 167.711V176.813L60.9219 23.7031H70.0237Z" stroke="#FEF1F0" stroke-width="2" stroke-miterlimit="10"/>
<path opacity="0.3" d="M97.4534 23.5762L216.276 140.902V149.879L88.3516 23.5762H97.4534Z" stroke="#FEF1F0" stroke-width="2" stroke-miterlimit="10"/>
<path opacity="0.3" d="M79.246 23.5762L216.272 158.732V167.709L70.0195 23.7009L79.246 23.5762Z" stroke="#FEF1F0" stroke-width="2" stroke-miterlimit="10"/>
<path opacity="0.3" d="M88.3479 23.5762L216.272 149.879V158.732L79.2461 23.5762H88.3479Z" stroke="#FEF1F0" stroke-width="2" stroke-miterlimit="10"/>
<path opacity="0.3" d="M51.6913 23.7031L216.397 185.79V194.767L42.4648 23.7031H51.6913Z" stroke="#FEF1F0" stroke-width="2" stroke-miterlimit="10"/>
<path opacity="0.3" d="M42.4648 23.7031L216.397 194.767V203.745L33.2383 23.7031H42.4648Z" stroke="#FEF1F0" stroke-width="2" stroke-miterlimit="10"/>
<path opacity="0.3" d="M25.8825 44.0254L216.397 230.924L216.522 240.026L25.7578 53.0025L25.8825 44.0254Z" stroke="#FEF1F0" stroke-width="2" stroke-miterlimit="10"/>
<path opacity="0.3" d="M25.7575 53.0039L216.522 240.028V249.129L25.6328 62.1057L25.7575 53.0039Z" stroke="#FEF1F0" stroke-width="2" stroke-miterlimit="10"/>
<path opacity="0.3" d="M26.0075 34.9238L216.398 221.823V230.925L25.8828 44.0256L26.0075 34.9238Z" stroke="#FEF1F0" stroke-width="2" stroke-miterlimit="10"/>
<path opacity="0.3" d="M26.1328 23.7031H33.2397L216.398 203.745V212.846L26.1328 25.8227V23.7031Z" stroke="#FEF1F0" stroke-width="2" stroke-miterlimit="10"/>
<path opacity="0.3" d="M26.1325 25.8223L216.398 212.846V221.823L26.0078 34.9241L26.1325 25.8223Z" stroke="#FEF1F0" stroke-width="2" stroke-miterlimit="10"/>
<path opacity="0.3" d="M160.54 23.4531L216.023 78.4381L216.148 87.4152L151.562 23.4531H160.54Z" stroke="#FEF1F0" stroke-width="2" stroke-miterlimit="10"/>
<path opacity="0.3" d="M178.368 23.3281L216.022 60.7328V69.5853L169.516 23.4528L178.368 23.3281Z" stroke="#FEF1F0" stroke-width="2" stroke-miterlimit="10"/>
<path opacity="0.3" d="M196.2 23.3281L216.025 43.028V51.8804L187.348 23.3281H196.2Z" stroke="#FEF1F0" stroke-width="2" stroke-miterlimit="10"/>
<path opacity="0.3" d="M187.348 23.3281L216.025 51.8804V60.7328L178.371 23.3281H187.348Z" stroke="#FEF1F0" stroke-width="2" stroke-miterlimit="10"/>
<path opacity="0.3" d="M205.052 23.3281L216.024 34.3002V43.028L196.199 23.3281H205.052Z" stroke="#FEF1F0" stroke-width="2" stroke-miterlimit="10"/>
<path opacity="0.3" d="M213.779 23.3281L215.898 25.4477L216.023 34.3002L205.051 23.3281H213.779Z" stroke="#FEF1F0" stroke-width="2" stroke-miterlimit="10"/>
<path opacity="0.3" d="M215.897 23.3281V25.4477L213.777 23.3281H215.897Z" stroke="#FEF1F0" stroke-width="2" stroke-miterlimit="10"/>
<path opacity="0.3" d="M124.629 23.5762L216.146 114.096V122.948L115.527 23.5762H124.629Z" stroke="#FEF1F0" stroke-width="2" stroke-miterlimit="10"/>
<path opacity="0.3" d="M142.583 23.4531L216.145 96.2676V105.12L133.605 23.4531H142.583Z" stroke="#FEF1F0" stroke-width="2" stroke-miterlimit="10"/>
<path opacity="0.3" d="M133.606 23.4531L216.146 105.12V114.097L124.629 23.5778L133.606 23.4531Z" stroke="#FEF1F0" stroke-width="2" stroke-miterlimit="10"/>
<path opacity="0.3" d="M115.528 23.5762L216.147 122.948L216.271 131.925L106.551 23.5762H115.528Z" stroke="#FEF1F0" stroke-width="2" stroke-miterlimit="10"/>
<path opacity="0.3" d="M151.563 23.4531L216.149 87.4152V96.2676L142.586 23.4531H151.563Z" stroke="#FEF1F0" stroke-width="2" stroke-miterlimit="10"/>
<path opacity="0.3" d="M169.516 23.4531L216.023 69.5856V78.4381L160.539 23.4531H169.516Z" stroke="#FEF1F0" stroke-width="2" stroke-miterlimit="10"/>
<path opacity="0.3" d="M25.6328 62.1035L216.522 249.127V258.229L25.6328 71.2054V62.1035Z" stroke="#FEF1F0" stroke-width="2" stroke-miterlimit="10"/>
<path opacity="0.3" d="M23.1406 293.018L59.7972 328.303L50.4461 328.677L23.1406 302.369V293.018Z" stroke="#FEF1F0" stroke-width="2" stroke-miterlimit="10"/>
<path opacity="0.3" d="M23.7614 236.91L115.652 325.809L106.426 326.183L23.6367 246.261L23.7614 236.91Z" stroke="#FEF1F0" stroke-width="2" stroke-miterlimit="10"/>
<path opacity="0.3" d="M23.8903 227.559L124.883 325.434L115.657 325.808L23.7656 236.91L23.8903 227.559Z" stroke="#FEF1F0" stroke-width="2" stroke-miterlimit="10"/>
<path opacity="0.3" d="M23.6403 255.613L97.0782 326.558L87.8517 327.056L23.5156 264.964L23.6403 255.613Z" stroke="#FEF1F0" stroke-width="2" stroke-miterlimit="10"/>
<path opacity="0.3" d="M24.1406 199.754L152.439 324.187L143.337 324.561L24.1406 209.105V199.754Z" stroke="#FEF1F0" stroke-width="2" stroke-miterlimit="10"/>
<path opacity="0.3" d="M24.0114 218.332L134.106 324.935L124.879 325.434L23.8867 227.559L24.0114 218.332Z" stroke="#FEF1F0" stroke-width="2" stroke-miterlimit="10"/>
<path opacity="0.3" d="M24.1364 209.105L143.333 324.561L134.106 324.935L24.0117 218.332L24.1364 209.105Z" stroke="#FEF1F0" stroke-width="2" stroke-miterlimit="10"/>
<path opacity="0.3" d="M23.6367 246.262L106.426 326.183L97.0747 326.557L23.6367 255.613V246.262Z" stroke="#FEF1F0" stroke-width="2" stroke-miterlimit="10"/>
<path opacity="0.3" d="M23.5153 264.963L87.8514 327.055L78.5002 327.429L23.3906 274.314L23.5153 264.963Z" stroke="#FEF1F0" stroke-width="2" stroke-miterlimit="10"/>
<path opacity="0.3" d="M22.7656 329.923L22.8903 321.195L31.4934 329.549L22.7656 329.923Z" stroke="#FEF1F0" stroke-width="2" stroke-miterlimit="10"/>
<path opacity="0.3" d="M22.8906 321.195L23.0153 311.719L40.9696 329.05L31.4937 329.548L22.8906 321.195Z" stroke="#FEF1F0" stroke-width="2" stroke-miterlimit="10"/>
<path opacity="0.3" d="M23.1403 302.369L50.4458 328.677L40.9699 329.051L23.0156 311.72L23.1403 302.369Z" stroke="#FEF1F0" stroke-width="2" stroke-miterlimit="10"/>
<path opacity="0.3" d="M23.2653 283.666L69.1484 327.804L59.7973 328.302L23.1406 293.017L23.2653 283.666Z" stroke="#FEF1F0" stroke-width="2" stroke-miterlimit="10"/>
<path opacity="0.3" d="M23.3864 274.314L78.496 327.429L69.1448 327.803L23.2617 283.666L23.3864 274.314Z" stroke="#FEF1F0" stroke-width="2" stroke-miterlimit="10"/>
<path opacity="0.3" d="M24.8864 135.168L215.9 321.444L206.923 321.818L24.7617 144.394L24.8864 135.168Z" stroke="#FEF1F0" stroke-width="2" stroke-miterlimit="10"/>
<path opacity="0.3" d="M25.2575 98.6367L216.52 285.536L216.645 294.637L25.1328 107.739L25.2575 98.6367Z" stroke="#FEF1F0" stroke-width="2" stroke-miterlimit="10"/>
<path opacity="0.3" d="M25.1328 107.736L216.645 294.635V303.737L25.1328 116.838V107.736Z" stroke="#FEF1F0" stroke-width="2" stroke-miterlimit="10"/>
<path opacity="0.3" d="M25.0075 126.066L216.644 312.965V321.319L215.896 321.444L24.8828 135.168L25.0075 126.066Z" stroke="#FEF1F0" stroke-width="2" stroke-miterlimit="10"/>
<path opacity="0.3" d="M25.1364 116.84L216.649 303.739V312.965L25.0117 126.066L25.1364 116.84Z" stroke="#FEF1F0" stroke-width="2" stroke-miterlimit="10"/>
<path opacity="0.3" d="M25.3825 89.4102L216.521 276.434V285.536L25.2578 98.6367L25.3825 89.4102Z" stroke="#FEF1F0" stroke-width="2" stroke-miterlimit="10"/>
<path opacity="0.3" d="M25.5114 80.3066L216.525 267.33V276.432L25.3867 89.4084L25.5114 80.3066Z" stroke="#FEF1F0" stroke-width="2" stroke-miterlimit="10"/>
<path opacity="0.3" d="M25.6325 71.207L216.521 258.231V267.332L25.5078 80.3088L25.6325 71.207Z" stroke="#FEF1F0" stroke-width="2" stroke-miterlimit="10"/>
<path opacity="0.3" d="M24.5114 172.074L179.741 322.94L170.639 323.314L24.3867 181.301L24.5114 172.074Z" stroke="#FEF1F0" stroke-width="2" stroke-miterlimit="10"/>
<path opacity="0.3" d="M24.3864 181.299L170.639 323.312L161.537 323.811L24.2617 190.525L24.3864 181.299Z" stroke="#FEF1F0" stroke-width="2" stroke-miterlimit="10"/>
<path opacity="0.3" d="M24.6325 162.848L188.839 322.566L179.737 322.94L24.5078 172.074L24.6325 162.848Z" stroke="#FEF1F0" stroke-width="2" stroke-miterlimit="10"/>
<path opacity="0.3" d="M24.7614 144.395L206.922 321.818L197.945 322.192L24.6367 153.621L24.7614 144.395Z" stroke="#FEF1F0" stroke-width="2" stroke-miterlimit="10"/>
<path opacity="0.3" d="M24.6367 153.621L197.945 322.192L188.843 322.566L24.6367 162.848V153.621Z" stroke="#FEF1F0" stroke-width="2" stroke-miterlimit="10"/>
<path opacity="0.3" d="M24.2653 190.527L161.541 323.813L152.439 324.187L24.1406 199.754L24.2653 190.527Z" stroke="#FEF1F0" stroke-width="2" stroke-miterlimit="10"/>
</g>
</g>
<path d="M159.668 186.29C156.676 186.539 144.831 192.399 133.984 198.508C133.236 199.007 132.488 199.381 131.864 199.88C124.258 205.241 116.154 211.101 115.406 212.598C114.907 213.47 114.533 214.343 114.035 214.966C113.162 216.338 111.915 217.46 110.543 218.333C109.92 220.577 109.92 222.572 109.297 224.692C107.925 229.056 108.174 246.885 101.068 254.491C97.4518 258.481 92.9632 256.984 89.5968 254.74C87.9759 254.74 86.7291 253.618 86.4797 252.122C84.9835 250.75 84.1107 249.628 84.1107 249.628C84.1107 249.628 83.9861 249.628 83.8614 249.504C83.1133 249.129 81.243 248.007 80.9937 247.883C80.6196 247.633 80.4949 247.384 80.1209 246.76C79.9962 246.511 79.8715 246.262 79.7469 246.012C79.3728 245.888 79.1234 245.514 79.4975 245.14C80.1209 244.516 82.4899 245.015 82.9886 244.89C83.4873 244.766 84.9835 244.392 85.3576 244.89C87.1031 244.516 87.4772 243.893 88.8487 239.03C89.4721 236.661 79.7469 216.587 78.2507 204.244C76.8792 191.9 96.953 183.172 102.938 179.931C103.437 179.681 104.185 179.432 105.057 179.307C105.307 178.559 105.556 177.936 105.556 177.188C105.805 173.572 105.431 166.839 104.309 163.473C77.8766 171.328 58.1768 195.89 57.9274 224.692C57.6781 259.478 85.7316 286.659 120.393 285.287C154.681 283.916 182.36 255.114 182.36 220.951C182.36 206.363 177.248 193.022 168.895 182.674C168.77 184.295 164.656 185.791 159.668 186.29Z" fill="#974B52"/>
<path d="M168.025 181.8C167.277 180.928 166.529 180.179 165.781 179.307C164.908 179.805 163.786 180.429 162.539 181.177C165.157 181.302 167.028 181.302 168.025 181.8Z" fill="#974B52"/>
<path d="M112.661 161.852C112.412 163.099 109.918 162.725 109.046 163.473C108.796 163.722 108.672 163.971 108.547 164.221C109.918 166.714 112.786 172.699 115.903 175.193C118.646 177.437 130.865 178.06 137.099 178.185C143.209 176.938 156.3 175.317 159.168 175.068C159.667 175.068 160.29 174.943 161.038 174.819C150.315 165.842 136.351 160.48 120.89 160.854C117.399 160.979 113.908 161.353 110.542 161.976C111.165 161.976 111.913 161.976 112.661 161.852Z" fill="#974B52"/>
<path d="M105.559 177.065C105.559 177.688 105.31 178.437 105.061 179.185C110.297 178.187 122.267 178.437 133.364 179.06C134.361 178.811 135.109 178.686 135.608 178.561C136.107 178.437 136.605 178.312 137.229 178.187C130.995 178.062 118.776 177.314 116.033 175.195C112.916 172.701 110.048 166.716 108.676 164.223C108.427 164.721 108.552 165.22 108.552 165.22L106.931 164.223C106.931 164.223 107.554 163.35 106.681 162.727C105.933 162.976 105.185 163.101 104.312 163.35C105.31 166.716 105.684 173.449 105.559 177.065Z" fill="#974B52"/>
<path d="M168.768 182.549C168.643 182.175 168.394 181.925 168.02 181.801C168.269 182.05 168.518 182.424 168.768 182.674C168.768 182.674 168.768 182.549 168.768 182.549Z" fill="#A75256"/>
<path d="M155.68 185.417C156.303 185.417 156.553 185.542 156.553 185.916C156.303 187.287 153.061 188.035 150.318 188.659C144.832 192.025 139.097 195.516 134.234 198.509C144.957 192.399 156.802 186.539 159.919 186.29C164.906 185.916 169.021 184.295 168.896 182.674C168.647 182.425 168.397 182.051 168.148 181.801C167.151 181.427 165.28 181.302 162.787 181.178C160.667 182.425 158.173 183.796 155.68 185.417Z" fill="#A75256"/>
<path d="M84.4851 212.973C83.737 202.25 84.6097 190.904 92.4647 187.662C93.8362 187.039 96.2052 186.415 99.0729 185.916C100.818 184.545 103.686 181.927 104.933 179.184C104.06 179.308 103.312 179.558 102.813 179.807C96.7039 183.173 76.6301 191.777 78.1263 204.12C79.4978 216.464 89.3477 236.538 88.7243 238.906C87.4774 243.769 87.1034 244.392 85.2332 244.767C85.2332 244.767 85.2332 244.767 85.3578 244.891C85.6072 245.515 85.9812 246.387 85.6072 246.637C85.2332 247.759 84.111 249.504 84.111 249.504C84.111 249.504 83.9863 249.38 83.8616 249.38C83.9863 249.504 84.111 249.504 84.111 249.504C84.111 249.504 84.9838 250.627 86.48 251.998C86.48 251.873 86.3553 251.624 86.3553 251.375C86.3553 249.504 87.8515 247.884 89.7217 247.884C91.592 247.759 93.0881 249.255 93.0881 251.001C93.0881 252.871 91.592 254.492 89.7217 254.492H89.597C92.9635 256.736 97.3273 258.232 101.068 254.242C108.175 246.637 107.925 228.807 109.297 224.443C109.92 222.324 109.92 220.329 110.544 218.085C109.047 218.957 107.427 219.581 105.681 219.705C98.5742 220.578 85.1085 220.828 84.4851 212.973Z" fill="#A75256"/>
<path d="M99.0703 185.791C103.31 184.918 108.671 184.046 114.157 183.422C122.012 181.427 129.493 179.807 133.233 179.058C122.137 178.435 110.292 178.061 104.93 179.183C103.684 181.801 100.816 184.42 99.0703 185.791Z" fill="#A75256"/>
<path d="M165.777 179.308C167.148 178.56 168.021 178.061 168.52 177.812C172.385 176.191 176.001 174.196 175.128 172.949C174.38 171.952 165.403 173.947 160.914 174.695C162.66 176.191 164.28 177.687 165.777 179.308Z" fill="#994F55"/>
<path d="M137.101 178.185C139.346 178.309 140.717 178.309 140.717 178.309L136.977 179.307C146.078 179.93 154.183 180.678 156.801 180.928C158.921 181.177 160.916 181.177 162.661 181.302C163.908 180.554 164.905 179.93 165.903 179.432C164.407 177.811 162.786 176.315 161.04 174.818C160.292 174.943 159.669 175.068 159.17 175.068C156.302 175.317 143.211 176.813 137.101 178.185Z" fill="#994F55"/>
<path d="M131.988 199.756C132.736 199.382 133.36 198.883 134.108 198.385C133.609 198.634 133.11 199.008 132.612 199.258C132.362 199.507 132.113 199.632 131.988 199.756Z" fill="#994F55"/>
<path d="M133.238 179.056C134.485 179.181 135.857 179.181 137.103 179.306L140.844 178.308C140.844 178.308 139.348 178.308 137.228 178.184C136.605 178.308 136.106 178.433 135.607 178.558C134.984 178.682 134.236 178.807 133.238 179.056Z" fill="#994F55"/>
<path d="M132.488 199.381C132.987 199.132 133.486 198.757 133.984 198.508C138.847 195.64 144.582 192.025 150.068 188.658C148.323 189.157 146.577 189.531 145.954 190.03C145.206 190.778 139.096 194.892 132.488 199.381Z" fill="#994F55"/>
<path d="M139.97 182.301C143.586 184.171 159.171 183.548 150.194 185.792C141.217 188.036 122.764 193.273 135.357 190.779C145.456 188.784 153.062 185.542 155.556 185.418C158.174 183.797 160.543 182.425 162.538 181.179C160.792 181.179 158.797 181.054 156.678 180.804C154.059 180.555 146.08 179.807 136.853 179.184L126.754 182.051C133.487 181.677 138.723 181.553 139.97 182.301Z" fill="#994F55"/>
<path d="M114.16 183.422C118.524 182.924 123.013 182.425 127.002 182.176L137.102 179.308C135.855 179.183 134.608 179.183 133.237 179.059C129.371 179.931 122.015 181.428 114.16 183.422Z" fill="#994F55"/>
<path d="M121.394 206.362C119.025 208.357 116.158 211.724 111.918 215.34C111.295 216.462 110.921 217.459 110.547 218.332C111.918 217.459 113.165 216.337 114.038 214.965C114.537 214.217 114.911 213.469 115.409 212.597C116.158 211.1 124.262 205.24 131.868 199.879C128.376 201.999 125.633 203.619 124.262 204.492C123.264 204.991 122.267 205.739 121.394 206.362Z" fill="#A75256"/>
<path d="M109.546 217.086C102.439 222.323 91.0932 216.837 91.0932 216.837C91.0932 216.837 87.9761 208.234 85.7319 198.259C84.8591 194.519 90.8438 191.028 98.9482 188.035L97.826 186.788C97.826 186.788 98.3248 186.414 99.1975 185.791C96.3299 186.414 93.9609 187.038 92.5894 187.537C84.7344 190.778 83.8616 202.124 84.6097 212.847C85.1084 220.702 98.6988 220.453 105.806 219.829C107.551 219.705 109.172 219.081 110.668 218.208C110.918 217.211 111.292 216.214 112.04 215.216C111.167 215.839 110.294 216.463 109.546 217.086Z" fill="#A75256"/>
<path d="M123.51 204.741C122.887 205.115 122.139 205.614 121.391 206.237C122.263 205.614 123.261 204.991 124.383 204.367C124.009 204.617 123.635 204.741 123.51 204.741Z" fill="#A75256"/>
<path d="M156.429 185.916C156.554 185.542 156.18 185.293 155.556 185.417C153.811 186.415 151.941 187.537 150.07 188.784C153.063 188.036 156.18 187.287 156.429 185.916Z" fill="#A75256"/>
<path d="M97.7031 186.913L98.8253 188.16C103.439 186.415 108.925 184.918 114.037 183.547C108.55 184.17 103.189 185.043 98.9499 185.916C98.3265 186.539 97.7031 186.913 97.7031 186.913Z" fill="#A75256"/>
<path d="M116.78 209.605C114.287 211.724 112.79 213.47 111.793 215.215C116.032 211.724 118.9 208.358 121.269 206.238C119.523 207.61 117.902 208.732 116.78 209.605Z" fill="#A75256"/>
<path d="M124.262 204.368C125.633 203.62 128.376 201.874 131.867 199.755C132.117 199.63 132.241 199.506 132.491 199.381C129.623 201.126 126.755 202.747 124.262 204.368Z" fill="#A75256"/>
<path d="M150.193 185.667C159.171 183.423 143.585 184.046 139.97 182.176C138.723 181.552 133.486 181.552 126.878 182.051L100.321 189.532L98.8244 187.911C90.72 190.904 84.7352 194.395 85.608 198.135C87.8523 208.11 90.9694 216.713 90.9694 216.713C90.9694 216.713 102.315 222.199 109.422 216.962C110.295 216.339 111.043 215.715 111.791 215.092C112.789 213.471 114.285 211.601 116.779 209.481C117.901 208.484 119.397 207.362 121.267 206.115C122.015 205.491 122.763 204.993 123.387 204.619C123.511 204.494 123.886 204.369 124.135 204.245C126.629 202.624 129.496 201.003 132.364 199.257C138.847 194.644 144.957 190.53 145.83 189.906C146.578 189.407 148.199 188.909 149.944 188.535C151.814 187.412 153.685 186.29 155.43 185.168C152.937 185.293 145.331 188.535 135.232 190.53C122.888 193.273 141.341 188.036 150.193 185.667Z" fill="#A75256"/>
<path d="M100.445 189.657L127.003 182.176C123.013 182.425 118.649 182.924 114.16 183.423C108.924 184.794 103.562 186.29 98.9492 188.036L100.445 189.657Z" fill="#A75256"/>
<path d="M89.5975 254.739C88.3507 253.867 87.3532 252.994 86.4805 252.121C86.7298 253.617 87.9767 254.739 89.5975 254.739Z" fill="#F37880"/>
<path d="M93.0883 251.125C93.0883 249.255 91.5921 247.883 89.7219 248.008C87.8517 248.133 86.3555 249.753 86.3555 251.499C86.3555 251.748 86.3555 251.873 86.4801 252.122C87.3529 252.995 88.4751 253.868 89.5972 254.741H89.7219C91.5921 254.616 93.0883 252.995 93.0883 251.125ZM87.1036 251.25C87.1036 250.003 88.101 249.005 89.3478 248.881C90.5947 248.756 91.5921 249.753 91.5921 251C91.5921 252.247 90.5947 253.245 89.3478 253.369C88.2257 253.494 87.2282 252.496 87.1036 251.25Z" fill="#F37880"/>
<path d="M91.7151 250.999C91.7151 249.752 90.7177 248.755 89.4708 248.88C88.224 249.004 87.2266 250.002 87.2266 251.249C87.2266 252.495 88.224 253.493 89.4708 253.368C90.7177 253.368 91.7151 252.246 91.7151 250.999ZM89.9696 252.371C89.5955 252.495 88.9721 252.62 88.5981 252.246C87.85 251.623 87.9747 250.999 88.0993 250.875C88.3487 250.501 88.4734 250.002 90.0943 250.376C90.3436 250.376 90.7177 250.625 90.7177 251.373C90.7177 251.747 90.4683 252.246 89.9696 252.371Z" fill="#A75256"/>
<path d="M79.625 245.889C79.7497 246.138 79.8744 246.387 79.999 246.637C80.4978 247.26 80.6225 247.634 80.8718 247.759C81.1212 247.884 82.9914 248.881 83.7395 249.38C82.9914 248.881 80.8718 247.759 80.6225 247.634C80.4978 247.51 79.8744 246.637 79.625 245.889Z" fill="#F37880"/>
<path d="M85.4851 246.761C85.3604 246.761 81.4952 246.013 80.7471 246.138C80.3731 246.138 79.8744 246.138 79.625 245.889C79.8744 246.637 80.4978 247.51 80.7471 247.634C80.8718 247.759 82.9914 249.006 83.8642 249.38C83.9889 249.504 84.1136 249.504 84.1136 249.504C84.1136 249.504 85.111 247.759 85.4851 246.761Z" fill="#F37880"/>
<path d="M107.928 163.098C108.053 163.223 108.302 163.597 108.552 164.096C108.677 163.846 108.801 163.597 109.051 163.347C109.923 162.599 112.417 162.973 112.666 161.727C111.918 161.976 111.17 161.851 110.422 161.851C109.425 162.101 108.427 162.225 107.43 162.475C107.679 162.724 107.804 162.973 107.928 163.098Z" fill="#5C424E"/>
<path d="M106.8 164.22L108.421 165.218C108.421 165.218 108.296 164.719 108.546 164.22C108.296 163.722 108.047 163.348 107.922 163.223C107.798 163.098 107.548 162.849 107.424 162.6C107.174 162.724 106.8 162.724 106.551 162.849C107.548 163.348 106.8 164.22 106.8 164.22Z" fill="#5C424E"/>
<path d="M90.222 250.376C88.4764 250.002 88.3517 250.626 88.2271 250.875C88.1024 251 87.9777 251.623 88.7258 252.247C89.0998 252.621 89.7233 252.496 90.0973 252.371C90.596 252.247 90.8454 251.873 90.8454 251.374C90.8454 250.626 90.3467 250.376 90.222 250.376Z" fill="#5C414E"/>
<path d="M79.3752 245.263C79.3752 245.263 79.4999 245.138 79.3752 245.263C79.3752 245.138 79.3752 245.138 79.3752 245.138C79.4999 244.889 80.1233 244.889 81.1207 245.014C82.1182 245.138 84.8612 244.889 84.8612 244.889H84.9859C84.6118 244.266 82.991 244.764 82.6169 244.889C82.1182 245.014 79.7492 244.515 79.1258 245.138C78.8765 245.512 79.0011 245.762 79.3752 246.011C79.3752 245.886 79.3752 245.886 79.2505 245.762C79.4999 245.512 79.3752 245.388 79.3752 245.263Z" fill="#E5737E"/>
<path d="M85.6078 246.012C85.6078 246.137 85.6078 246.386 85.4831 246.636C85.9818 246.386 85.6078 245.514 85.2337 244.89C85.2337 244.89 85.2337 244.89 85.1091 244.766H84.9844C85.2337 245.015 85.6078 245.389 85.6078 246.012Z" fill="#E5737E"/>
<path d="M79.4968 245.141C79.4968 245.141 79.3721 245.265 79.4968 245.141C79.4968 245.39 79.4968 245.515 79.4968 245.639C79.4968 245.515 79.4968 245.265 79.4968 245.141Z" fill="#E5737E"/>
<path d="M79.4961 245.639C79.4961 245.763 79.4961 245.763 79.6208 245.888C79.4961 245.763 79.4961 245.763 79.4961 245.639Z" fill="#E5737E"/>
<path d="M84.4876 245.013C84.737 245.013 84.8617 244.889 85.111 244.889C85.111 244.889 82.368 245.138 81.3706 245.013C80.4978 244.889 79.8744 244.889 79.625 245.138C80.1237 244.639 82.368 245.263 84.4876 245.013Z" fill="#E5737E"/>
<path d="M85.1068 244.889C84.8574 244.889 84.7328 245.013 84.4834 245.013C82.3638 245.263 80.1195 244.764 79.4961 245.013V245.138C79.4961 245.263 79.4961 245.387 79.4961 245.637C79.4961 245.761 79.4961 245.761 79.6208 245.886C79.9948 246.011 80.3689 246.135 80.7429 246.135C81.491 246.011 85.3562 246.759 85.3562 246.759H85.4808C85.6055 246.51 85.6055 246.26 85.6055 246.135C85.6055 245.387 85.2315 245.013 85.1068 244.889Z" fill="#E5737E"/>
<path d="M81.4871 151.628C84.6041 151.378 96.5736 145.518 107.421 139.533C108.169 139.035 108.917 138.661 109.541 138.287C117.146 133.05 125.251 127.315 125.999 125.943C126.497 125.07 126.871 124.322 127.37 123.574C128.243 122.203 129.49 121.081 130.861 120.208C131.485 117.963 131.485 115.969 132.108 113.974C133.48 109.734 133.23 92.2789 140.212 85.0473C143.828 81.3068 148.067 82.803 151.434 85.0473C152.93 85.0473 154.302 86.1694 154.551 87.6656C155.922 89.0371 156.795 90.1593 156.795 90.1593C156.795 90.1593 156.92 90.1593 157.045 90.2839C157.793 90.658 159.538 91.7801 159.788 91.9048C160.162 92.1542 160.286 92.4036 160.66 93.027C160.785 93.2763 160.91 93.5257 161.034 93.775C161.408 93.8997 161.533 94.2738 161.284 94.5231C160.785 95.1466 158.416 94.6478 157.917 94.7725C157.543 94.8972 155.922 95.2712 155.548 94.6478C153.803 94.8972 153.429 95.6453 152.182 100.259C151.559 102.628 161.159 122.327 162.655 134.422C164.152 146.516 144.452 154.994 138.467 158.236C137.968 158.485 137.22 158.735 136.347 158.859C136.098 159.483 135.849 160.231 135.849 160.854C135.724 164.47 135.973 171.203 137.095 174.569C163.154 166.839 182.106 142.651 182.106 114.722C182.106 81.1821 154.925 54.3754 121.136 54.6248C86.9731 54.8741 58.9196 82.5536 58.6702 116.592C58.5455 131.304 63.6575 144.77 72.2606 155.119C72.2606 153.623 76.4998 152.002 81.4871 151.628Z" fill="#974B52"/>
<path d="M73.0078 156.117C73.7559 156.99 74.504 157.738 75.2521 158.611C76.1249 158.112 77.247 157.489 78.4938 156.741C76.0002 156.616 74.0053 156.616 73.0078 156.117Z" fill="#974B52"/>
<path d="M128.993 176.316C129.243 175.069 131.736 175.443 132.609 174.695C132.858 174.446 132.983 174.196 133.108 173.947C131.736 171.453 128.869 165.468 125.752 162.975C123.133 160.731 110.79 160.107 104.556 159.982C98.3215 161.229 85.1051 162.85 82.2374 163.099C81.7387 163.099 81.1153 163.224 80.3672 163.349C91.2146 172.451 105.428 177.812 120.889 177.438C124.38 177.313 127.871 176.939 131.238 176.316C130.49 176.066 129.741 176.066 128.993 176.316Z" fill="#974B52"/>
<path d="M135.974 160.979C135.974 160.356 136.224 159.608 136.473 158.984C131.236 159.982 119.392 159.608 108.295 158.984C107.297 159.234 106.425 159.358 106.051 159.483C105.552 159.608 105.053 159.732 104.43 159.857C110.664 160.106 122.883 160.73 125.626 162.85C128.743 165.343 131.61 171.328 132.982 173.822C133.231 173.323 132.982 172.824 132.982 172.824L134.603 173.822C134.603 173.822 133.979 174.694 134.852 175.318C135.6 175.068 136.348 174.944 137.221 174.694C136.224 171.328 135.85 164.72 135.974 160.979Z" fill="#A75256"/>
<path d="M72.2617 155.369C72.3864 155.743 72.6358 155.992 73.0098 156.117C72.7604 155.868 72.5111 155.494 72.2617 155.244V155.369Z" fill="#A75256"/>
<path d="M85.7262 152.625C85.1028 152.625 84.8534 152.5 84.8534 152.126C85.1028 150.755 88.3445 150.132 91.2122 149.383C96.8229 146.017 102.558 142.526 107.421 139.658C96.5736 145.643 84.6041 151.503 81.487 151.752C76.375 152.126 72.1358 153.747 72.2605 155.368C72.5099 155.618 72.7592 155.992 73.0086 156.241C74.006 156.74 76.001 156.74 78.4946 156.864C80.6142 155.618 83.1079 154.121 85.7262 152.625Z" fill="#A75256"/>
<path d="M156.544 125.819C157.292 136.292 156.544 147.389 148.939 150.631C147.567 151.254 145.323 151.753 142.455 152.376C140.71 153.748 137.842 156.366 136.72 158.985C137.593 158.86 138.341 158.61 138.839 158.361C144.824 155.119 164.399 146.641 163.028 134.547C161.532 122.453 151.931 102.753 152.554 100.384C153.801 95.7706 154.175 95.0225 155.921 94.7731C155.921 94.7731 155.921 94.7731 155.796 94.6484C155.547 94.025 155.173 93.1522 155.547 92.9029C155.921 91.9054 156.918 90.1598 156.918 90.1598C156.918 90.1598 157.043 90.2845 157.168 90.2845C157.043 90.1598 156.918 90.1598 156.918 90.1598C156.918 90.1598 156.046 89.0377 154.674 87.6662C154.674 87.7909 154.799 88.0402 154.799 88.1649C154.799 89.9105 153.427 91.5314 151.557 91.5314C149.811 91.5314 148.315 90.1598 148.191 88.4143C148.191 86.6687 149.562 85.0479 151.432 85.0479H151.557C148.191 82.8036 143.951 81.3074 140.336 85.0479C133.353 92.4041 133.603 109.735 132.231 113.974C131.608 115.969 131.608 117.964 130.984 120.208C132.481 119.336 134.101 118.837 135.722 118.712C142.705 118.089 155.921 118.089 156.544 125.819Z" fill="#A75256"/>
<path d="M142.332 152.377C138.217 153.25 132.856 153.998 127.494 154.621C119.639 156.616 112.283 158.112 108.418 158.985C119.639 159.609 131.36 159.983 136.596 158.985C137.718 156.367 140.586 153.748 142.332 152.377Z" fill="#A75256"/>
<path d="M75.2557 158.611C73.8842 159.359 72.8867 159.858 72.5127 160.108C68.5228 161.728 64.7824 163.723 65.6552 164.97C66.4032 165.968 75.6297 163.973 80.243 163.225C78.4974 161.728 76.8766 160.232 75.2557 158.611Z" fill="#994F55"/>
<path d="M104.429 159.857C102.185 159.733 100.689 159.733 100.689 159.733L104.429 158.735C95.2028 158.112 87.0984 157.364 84.3554 157.114C82.2358 156.865 80.1162 156.865 78.3707 156.74C77.1238 157.488 76.0017 158.112 75.1289 158.61C76.6251 160.231 78.3706 161.728 80.1162 163.224C80.8643 163.099 81.4877 162.974 81.9864 162.974C84.9788 162.725 98.1952 161.104 104.429 159.857Z" fill="#994F55"/>
<path d="M109.666 138.287C108.918 138.661 108.295 139.16 107.547 139.534C108.046 139.285 108.544 138.911 109.043 138.661C109.292 138.536 109.417 138.412 109.666 138.287Z" fill="#994F55"/>
<path d="M108.297 158.984C107.05 158.859 105.679 158.859 104.432 158.734L100.691 159.732C100.691 159.732 102.188 159.732 104.432 159.857C105.055 159.732 105.554 159.607 106.053 159.482C106.551 159.358 107.3 159.233 108.297 158.984Z" fill="#994F55"/>
<path d="M109.045 138.662C108.546 138.911 108.047 139.286 107.549 139.535C102.686 142.403 96.8259 145.894 91.3398 149.26C93.2101 148.761 94.8309 148.387 95.579 147.889C96.3271 147.265 102.437 143.151 109.045 138.662Z" fill="#994F55"/>
<path d="M101.559 155.743C97.8183 153.873 82.1083 154.496 91.2101 152.252C100.312 150.008 118.765 144.896 106.172 147.265C96.0727 149.135 88.2177 152.377 85.7241 152.501C83.1058 154.122 80.6121 155.494 78.6172 156.741C80.3627 156.865 82.3577 156.865 84.6019 157.115C87.2203 157.364 95.3246 158.112 104.676 158.736L114.9 155.868C108.042 156.367 102.806 156.367 101.559 155.743Z" fill="#994F55"/>
<path d="M127.492 154.619C123.128 155.118 118.64 155.617 114.775 155.866L104.551 158.734C105.798 158.858 107.044 158.858 108.416 158.983C112.156 158.11 119.637 156.614 127.492 154.619Z" fill="#994F55"/>
<path d="M120.262 131.927C122.631 129.932 125.498 126.691 129.613 123.199C130.236 122.202 130.61 121.204 130.86 120.207C129.488 121.08 128.241 122.202 127.369 123.573C126.87 124.197 126.496 125.07 125.997 125.942C125.249 127.439 117.269 133.049 109.539 138.286C113.03 136.166 115.773 134.545 117.145 133.797C118.392 133.174 119.389 132.551 120.262 131.927Z" fill="#A75256"/>
<path d="M131.982 121.455C138.964 116.343 150.061 121.954 150.061 121.954C150.061 121.954 153.178 130.432 155.422 140.282C156.295 143.898 150.435 147.389 142.455 150.257L143.577 151.504C143.577 151.504 143.079 151.878 142.206 152.501C145.074 151.878 147.318 151.379 148.689 150.756C156.42 147.514 157.168 136.417 156.295 125.944C155.672 118.338 142.58 118.338 135.473 118.837C133.727 118.962 132.107 119.46 130.735 120.333C130.486 121.331 130.112 122.203 129.488 123.325C130.361 122.577 131.109 122.079 131.982 121.455Z" fill="#A75256"/>
<path d="M118.142 133.424C118.766 133.05 119.514 132.551 120.262 131.928C119.389 132.551 118.392 133.175 117.27 133.798C117.644 133.673 117.893 133.424 118.142 133.424Z" fill="#A75256"/>
<path d="M84.8559 152.003C84.7312 152.377 85.1053 152.626 85.7287 152.502C87.4743 151.504 89.3445 150.382 91.3394 149.26C88.347 150.008 85.1053 150.631 84.8559 152.003Z" fill="#A75256"/>
<path d="M143.705 151.378L142.583 150.131C137.969 151.876 132.608 153.373 127.496 154.619C132.982 153.996 138.219 153.123 142.333 152.375C143.081 151.752 143.705 151.378 143.705 151.378Z" fill="#A75256"/>
<path d="M124.754 128.687C127.123 126.692 128.744 124.822 129.617 123.201C125.502 126.568 122.635 129.934 120.266 131.929C122.136 130.682 123.632 129.56 124.754 128.687Z" fill="#A75256"/>
<path d="M117.272 133.799C115.9 134.547 113.157 136.168 109.666 138.287C109.417 138.412 109.292 138.537 109.043 138.661C112.035 137.041 114.778 135.42 117.272 133.799Z" fill="#A75256"/>
<path d="M91.2126 152.252C82.1108 154.496 97.9454 153.872 101.561 155.743C102.808 156.366 108.045 156.366 114.653 155.867L140.961 148.511L142.457 150.007C150.437 147.14 156.297 143.648 155.424 140.033C153.18 130.183 150.063 121.704 150.063 121.704C150.063 121.704 138.841 116.218 131.984 121.206C131.111 121.829 130.363 122.452 129.615 123.076C128.617 124.697 127.121 126.442 124.752 128.562C123.63 129.435 122.134 130.557 120.264 131.804C119.515 132.427 118.767 132.926 118.144 133.3C118.019 133.424 117.645 133.549 117.396 133.674C114.902 135.17 112.035 136.916 109.167 138.536C102.559 143.025 96.4492 147.14 95.5765 147.763C94.8284 148.262 93.2075 148.76 91.3373 149.134C89.467 150.257 87.5968 151.379 85.7266 152.376C88.2202 152.252 96.0752 149.01 106.174 147.14C118.767 144.895 100.19 150.007 91.2126 152.252Z" fill="#A75256"/>
<path d="M140.96 148.637L114.652 155.868C118.642 155.619 123.006 155.12 127.37 154.621C132.482 153.25 137.843 151.754 142.457 150.133L140.96 148.637Z" fill="#A75256"/>
<path d="M151.434 85.0488C152.556 85.9216 153.678 86.7944 154.551 87.6672C154.177 86.171 152.93 85.0488 151.434 85.0488Z" fill="#F37880"/>
<path d="M148.066 88.4153C148.066 90.1608 149.562 91.657 151.432 91.5323C153.178 91.5323 154.674 89.9114 154.674 88.1659C154.674 87.9165 154.674 87.7918 154.549 87.6672C153.677 86.7944 152.679 85.9216 151.432 85.0488H151.308C149.437 85.1735 147.941 86.6697 148.066 88.4153ZM153.801 88.4153C153.801 89.6621 152.804 90.6595 151.682 90.6595C150.435 90.6595 149.437 89.7868 149.437 88.54C149.437 87.2931 150.435 86.2957 151.557 86.2957C152.679 86.2957 153.801 87.1684 153.801 88.4153Z" fill="#F37880"/>
<path d="M149.44 88.5392C149.44 89.7861 150.438 90.6588 151.685 90.6588C152.931 90.6588 153.804 89.6614 153.804 88.4145C153.804 87.1677 152.807 86.2949 151.56 86.2949C150.313 86.2949 149.316 87.2924 149.44 88.5392ZM150.936 87.2924C151.31 87.1677 151.934 87.043 152.308 87.4171C153.056 88.0405 152.931 88.6639 152.807 88.7886C152.557 89.1626 152.433 89.6614 150.812 89.2873C150.562 89.2873 150.188 89.0379 150.188 88.2898C150.188 87.7911 150.562 87.4171 150.936 87.2924Z" fill="#A75256"/>
<path d="M161.158 93.7743C161.033 93.5249 160.908 93.2756 160.784 93.0262C160.41 92.4028 160.16 92.1534 159.911 91.9041C159.662 91.7794 157.791 90.6573 157.168 90.2832C157.916 90.7819 160.036 91.9041 160.16 92.0287C160.16 92.2781 160.784 93.0262 161.158 93.7743Z" fill="#F37880"/>
<path d="M155.422 92.9032C155.547 92.9032 159.287 93.6513 160.035 93.5266C160.409 93.5266 160.783 93.5266 161.157 93.7759C160.908 93.0278 160.284 92.1551 160.16 92.0304C160.035 91.9057 157.916 90.6589 157.167 90.2848C157.043 90.1602 156.918 90.1602 156.918 90.1602C156.918 90.1602 155.796 91.781 155.422 92.9032Z" fill="#F37880"/>
<path d="M133.601 174.943C133.477 174.818 133.227 174.444 132.978 173.945C132.853 174.195 132.728 174.444 132.479 174.693C131.606 175.442 129.113 175.067 128.863 176.314C129.611 176.065 130.359 176.19 131.108 176.19C132.105 175.94 133.102 175.816 134.1 175.566C133.851 175.317 133.726 175.067 133.601 174.943Z" fill="#A75256"/>
<path d="M134.726 173.82L133.105 172.822C133.105 172.822 133.23 173.321 133.105 173.82C133.355 174.318 133.604 174.692 133.729 174.817C133.854 174.942 134.103 175.191 134.228 175.441C134.477 175.316 134.851 175.316 135.1 175.191C133.978 174.692 134.726 173.82 134.726 173.82Z" fill="#A75256"/>
<path d="M150.811 89.2876C152.432 89.6616 152.556 89.1629 152.806 88.7888C152.931 88.6641 153.055 88.0407 152.307 87.4173C151.933 87.0433 151.31 87.168 150.936 87.2926C150.562 87.4173 150.188 87.7914 150.188 88.2901C150.188 88.9135 150.686 89.1629 150.811 89.2876Z" fill="#5C414E"/>
<path d="M161.283 94.3988C161.283 94.5235 161.283 94.5235 161.283 94.3988C161.283 94.5235 161.283 94.5235 161.283 94.5235C161.158 94.7729 160.535 94.6482 159.662 94.6482C158.665 94.5235 155.922 94.6482 155.922 94.6482H155.797C156.171 95.2716 157.667 94.7729 158.166 94.7729C158.665 94.6482 161.034 95.2716 161.532 94.5235C161.782 94.1494 161.657 93.9001 161.283 93.7754C161.283 93.9001 161.283 93.9001 161.408 94.0248C161.283 94.1495 161.283 94.2741 161.283 94.3988Z" fill="#E5737E"/>
<path d="M155.299 93.5258C155.299 93.4011 155.299 93.1517 155.423 92.9023C155.049 93.1517 155.299 94.0245 155.673 94.6479C155.673 94.6479 155.673 94.6479 155.797 94.7726H155.922C155.673 94.5232 155.299 94.1492 155.299 93.5258Z" fill="#E5737E"/>
<path d="M161.286 94.5234C161.286 94.5234 161.286 94.6481 161.286 94.5234C161.161 94.6481 161.286 94.6481 161.286 94.5234Z" fill="#E5737E"/>
<path d="M161.16 94.0248C161.16 93.9001 161.16 93.9001 161.035 93.7754C161.16 93.9001 161.16 93.9001 161.16 94.0248Z" fill="#E5737E"/>
<path d="M156.42 94.6486C156.171 94.6486 156.046 94.6487 155.797 94.7733C155.797 94.7733 158.415 94.6487 159.537 94.7733C160.41 94.898 161.034 94.898 161.158 94.6486C160.659 95.0227 158.415 94.3993 156.42 94.6486Z" fill="#E5737E"/>
<path d="M155.799 94.6492C155.924 94.6492 156.173 94.6492 156.423 94.5245C158.542 94.2752 160.662 94.8986 161.161 94.5245V94.3998C161.161 94.2752 161.161 94.1505 161.161 93.9011C161.161 93.7764 161.161 93.7765 161.036 93.6518C160.662 93.5271 160.288 93.4024 159.914 93.4024C159.166 93.4024 155.425 92.6543 155.425 92.6543H155.3C155.176 92.9037 155.176 93.153 155.176 93.2777C155.3 94.1505 155.675 94.5245 155.799 94.6492Z" fill="#E5737E"/>
</svg>
