<svg width="244" height="347" fill="none" xmlns="http://www.w3.org/2000/svg"><path d="M235.39 344.281L0 347 7.898 0 243.03.518 235.39 344.28z" fill="#FEF1F0"/><path d="M98.917 63.442v-.776c0-6.345-5.05-11.394-11.394-11.394a11.328 11.328 0 00-11.394 11.394v.776c-4.532 1.425-7.898 5.827-7.898 10.877 0 6.344 5.05 11.394 11.394 11.394 2.071 0 4.013-.518 5.697-1.554l-1.943 10.1 11.783-.26-5.438-9.71c1.683.906 3.496 1.424 5.567 1.424 6.345 0 11.394-5.05 11.394-11.394.13-5.05-3.237-9.323-7.768-10.877zM98.917 162.882v-.777c0-6.344-5.05-11.394-11.394-11.394a11.329 11.329 0 00-11.394 11.394v.777c-4.532 1.424-7.898 5.826-7.898 10.876 0 6.344 5.05 11.394 11.394 11.394 2.071 0 4.013-.518 5.697-1.554l-1.943 10.1 11.783-.259-5.438-9.711c1.683.906 3.496 1.424 5.567 1.424 6.345 0 11.394-5.05 11.394-11.394.13-5.05-3.237-9.452-7.768-10.876zM98.917 262.319v-.777c0-6.344-5.05-11.394-11.394-11.394a11.329 11.329 0 00-11.394 11.394v.777c-4.532 1.425-7.898 5.827-7.898 10.876 0 6.345 5.05 11.394 11.394 11.394 2.071 0 4.013-.517 5.697-1.553l-1.943 10.099 11.783-.259-5.438-9.711c1.683.907 3.496 1.424 5.567 1.424 6.345 0 11.394-5.049 11.394-11.394.13-5.179-3.237-9.451-7.768-10.876zM167.155 63.442v-.776c0-6.345-5.05-11.394-11.394-11.394a11.329 11.329 0 00-11.394 11.394v.776c-4.532 1.425-7.898 5.827-7.898 10.877a11.328 11.328 0 0011.394 11.394c2.071 0 4.014-.518 5.697-1.554l-1.942 10.1 11.782-.26-5.438-9.71c1.683.906 3.496 1.424 5.568 1.424 6.344 0 11.394-5.05 11.394-11.394.129-5.05-3.237-9.323-7.769-10.877zM167.155 162.88v-.777c0-6.344-5.05-11.394-11.394-11.394a11.329 11.329 0 00-11.394 11.394v.777c-4.532 1.424-7.898 5.826-7.898 10.876a11.328 11.328 0 0011.394 11.394c2.071 0 4.014-.518 5.697-1.554l-1.942 10.1 11.782-.259-5.438-9.711c1.683.906 3.496 1.424 5.568 1.424 6.344 0 11.394-5.05 11.394-11.394.129-5.05-3.237-9.452-7.769-10.876zM167.155 262.319v-.777c0-6.344-5.05-11.394-11.394-11.394a11.329 11.329 0 00-11.394 11.394v.777c-4.532 1.425-7.898 5.827-7.898 10.876 0 6.345 5.049 11.394 11.394 11.394 2.071 0 4.014-.517 5.697-1.553l-1.942 10.099 11.782-.259-5.438-9.711c1.683.907 3.496 1.424 5.568 1.424a11.328 11.328 0 0011.394-11.394c.129-5.179-3.237-9.451-7.769-10.876zM35.866 53.86v-.259c0-2.59-2.201-4.79-4.79-4.79-2.59 0-4.792 2.2-4.792 4.79v.26c-1.942.647-3.366 2.46-3.366 4.53 0 2.59 2.201 4.792 4.79 4.792.907 0 1.684-.26 2.46-.648l-.776 4.273 4.92-.13-2.33-4.013a4.472 4.472 0 002.33.647c2.59 0 4.79-2.201 4.79-4.79.13-2.331-1.294-4.144-3.236-4.662zM206.515 291.192v.259c0 2.589 2.201 4.791 4.79 4.791 2.59 0 4.791-2.202 4.791-4.791v-.259c1.942-.647 3.366-2.46 3.366-4.532 0-2.589-2.201-4.79-4.79-4.79-.907 0-1.684.258-2.46.647l.777-4.273-4.921.13 2.331 4.013a4.474 4.474 0 00-2.331-.647c-2.589 0-4.79 2.201-4.79 4.791-.13 2.201 1.294 4.014 3.237 4.661zM134.01 114.196v-.777a11.328 11.328 0 00-11.394-11.394 11.329 11.329 0 00-11.394 11.394v.777c-4.531 1.425-7.898 5.827-7.898 10.876 0 6.345 5.05 11.394 11.394 11.394 2.072 0 4.014-.517 5.697-1.553l-1.942 10.099 11.783-.259-5.439-9.711c1.684.907 3.496 1.424 5.568 1.424a11.328 11.328 0 0011.394-11.394c.13-5.049-3.107-9.451-7.769-10.876zM25.114 11.136l-.259 6.344 13.078-.777-9.84 23.436 5.567 1.554 11.006-26.025-.518-4.791-19.034.259zM218.164 333.278l.259-6.344-13.077.776 9.84-23.435-5.567-1.683-11.006 26.025.518 4.92 19.033-.259z" fill="#5C414E"/></svg>