<svg width="235" height="342" fill="none" xmlns="http://www.w3.org/2000/svg"><path d="M234.877 342L0 341.487 9.61 1.281 225.78 0l9.098 342z" fill="#FEF1F0"/><path d="M28.83 19.096l-.256 5.767 6.279-1.538-.769 17.299 6.791-.129-.64-24.218-11.404 2.82zM58.176 15.892c-11.788.384-11.02 11.788-10.763 14.736.256 2.947 1.666 10.507 9.995 10.507 8.072-.128 10.891-6.15 11.02-13.71.512-12.046-10.252-11.533-10.252-11.533zm-2.05 19.349c-1.025-.257-3.844 0-3.844-6.663 0-6.664 5.126-6.536 5.126-6.536s5.894-1.537 6.278 6.664c.385 8.2-6.407 6.663-7.56 6.535zM215.657 324.063l.129-5.638-6.151 1.41.641-17.171h-6.792l.769 24.218 11.404-2.819zM186.183 327.267c11.789-.385 11.02-11.789 10.763-14.736-.256-2.947-1.665-10.508-9.994-10.508-8.073.129-10.892 6.151-11.02 13.711-.513 12.045 10.251 11.533 10.251 11.533zm2.05-19.221c1.025.256 3.844 0 3.844 6.663s-5.125 6.535-5.125 6.535-5.895 1.538-6.279-6.663c-.384-8.201 6.535-6.791 7.56-6.535zM99.564 64.967v-.769a11.211 11.211 0 00-11.276-11.276 11.211 11.211 0 00-11.276 11.276v.769c-4.485 1.41-7.817 5.766-7.817 10.763a11.211 11.211 0 0011.276 11.277c2.05 0 3.973-.513 5.638-1.538l-1.922 9.995 11.661-.257-5.382-9.61c1.666.897 3.46 1.41 5.51 1.41a11.211 11.211 0 0011.276-11.277c.128-4.997-3.203-9.226-7.688-10.763zM99.564 130.572v-.769a11.212 11.212 0 00-11.276-11.276 11.212 11.212 0 00-11.276 11.276v.769c-4.485 1.41-7.817 5.767-7.817 10.764a11.211 11.211 0 0011.276 11.276c2.05 0 3.973-.513 5.638-1.538l-1.922 9.995 11.661-.256-5.382-9.61c1.666.896 3.46 1.409 5.51 1.409a11.21 11.21 0 0011.276-11.276c.128-5.126-3.203-9.354-7.688-10.764zM99.564 196.18v-.769a11.211 11.211 0 00-11.276-11.276 11.211 11.211 0 00-11.276 11.276v.769c-4.485 1.409-7.817 5.766-7.817 10.763a11.211 11.211 0 0011.276 11.276c2.05 0 3.973-.512 5.638-1.537l-1.922 9.995 11.661-.257-5.382-9.61c1.666.897 3.46 1.409 5.51 1.409a11.21 11.21 0 0011.276-11.276c.128-5.125-3.203-9.354-7.688-10.763zM99.564 261.658v-.769a11.212 11.212 0 00-11.276-11.276 11.212 11.212 0 00-11.276 11.276v.769c-4.485 1.41-7.817 5.766-7.817 10.764a11.211 11.211 0 0011.276 11.276c2.05 0 3.973-.513 5.638-1.538l-1.793 9.995 11.66-.256-5.382-9.611c1.666.897 3.46 1.41 5.51 1.41a11.21 11.21 0 0011.276-11.276c0-4.998-3.331-9.226-7.816-10.764zM134.291 99.309v-.77a11.212 11.212 0 00-11.277-11.275 11.212 11.212 0 00-11.276 11.276v.769c-4.485 1.409-7.816 5.766-7.816 10.763a11.21 11.21 0 0011.276 11.276c2.05 0 3.972-.512 5.638-1.537l-1.922 9.994 11.661-.256-5.382-9.61c1.666.897 3.46 1.409 5.51 1.409a11.211 11.211 0 0011.276-11.276c.128-5.125-3.075-9.354-7.688-10.763zM134.291 227.447v-.769a11.212 11.212 0 00-11.277-11.276 11.212 11.212 0 00-11.276 11.276v.769c-4.485 1.41-7.816 5.766-7.816 10.764a11.21 11.21 0 0011.276 11.276c2.05 0 3.972-.513 5.638-1.538l-1.922 9.995 11.661-.256-5.382-9.61c1.666.896 3.46 1.409 5.51 1.409a11.211 11.211 0 0011.276-11.276c.128-5.126-3.075-9.354-7.688-10.764zM169.013 64.967v-.769a11.211 11.211 0 00-11.276-11.276 11.211 11.211 0 00-11.276 11.276v.769c-4.485 1.41-7.816 5.766-7.816 10.763a11.211 11.211 0 0011.276 11.277c2.05 0 3.972-.513 5.638-1.538l-1.922 9.995 11.66-.257-5.382-9.61c1.666.897 3.46 1.41 5.51 1.41a11.211 11.211 0 0011.276-11.277c.129-4.997-3.075-9.226-7.688-10.763zM169.013 130.572v-.769a11.211 11.211 0 00-11.276-11.276 11.211 11.211 0 00-11.276 11.276v.769c-4.485 1.41-7.816 5.767-7.816 10.764a11.21 11.21 0 0011.276 11.276c2.05 0 3.972-.513 5.638-1.538l-1.922 9.995 11.66-.256-5.382-9.61c1.666.896 3.46 1.409 5.51 1.409a11.21 11.21 0 0011.276-11.276c.129-5.126-3.075-9.354-7.688-10.764zM169.013 196.18v-.769a11.21 11.21 0 00-11.276-11.276 11.21 11.21 0 00-11.276 11.276v.769c-4.485 1.409-7.816 5.766-7.816 10.763a11.21 11.21 0 0011.276 11.276c2.05 0 3.972-.512 5.638-1.537l-1.922 9.995 11.66-.257-5.382-9.61c1.666.897 3.46 1.409 5.51 1.409a11.21 11.21 0 0011.276-11.276c.129-5.125-3.075-9.354-7.688-10.763zM169.013 261.658v-.769a11.211 11.211 0 00-11.276-11.276 11.211 11.211 0 00-11.276 11.276v.769c-4.485 1.41-7.816 5.766-7.816 10.764a11.21 11.21 0 0011.276 11.276c2.05 0 3.972-.513 5.638-1.538l-1.922 9.995 11.66-.256-5.382-9.611c1.666.897 3.46 1.41 5.51 1.41a11.21 11.21 0 0011.276-11.276c.129-4.998-3.075-9.226-7.688-10.764z" fill="#5C414E"/></svg>