<svg width="254" height="371" fill="none" xmlns="http://www.w3.org/2000/svg"><path d="M254 370.888H8.787L0 .418 254 0v370.888z" fill="#FEF1F0"/><path d="M27.477 11.856l-.418 6.975 14.227-.977-10.74 25.247 6.137 1.813 11.856-28.036-.558-5.161-20.504.14zM235.309 359.032l.419-6.974-14.088.976 10.601-25.246-6.138-1.813-11.716 28.036.418 5.161 20.504-.14zM114.381 81.6l-20.783 31.244L72.676 81.46l20.783-31.384L114.38 81.6zM114.381 188.025L93.598 219.27l-20.922-31.384 20.783-31.384 20.922 31.523zM114.381 294.31l-20.783 31.245-20.922-31.384 20.783-31.384 20.922 31.523zM150.648 134.743l-20.643 31.105-20.923-31.384 20.783-31.384 20.783 31.663zM189.144 78.112l-20.783 31.105-20.783-31.244 20.644-31.524 20.922 31.663zM189.144 184.4l-20.783 31.245-20.783-31.384 20.644-31.384 20.922 31.523zM189.144 290.825l-20.783 31.105-20.783-31.245 20.644-31.523 20.922 31.663zM237.54 306.028l-9.206 13.949-9.346-13.949 9.206-13.948 9.346 13.948zM43.94 63.605l-9.207 13.948-9.206-13.948 9.206-13.949 9.206 13.949z" fill="#F37880"/></svg>