<svg width="251" height="349" viewBox="0 0 251 349" fill="none" xmlns="http://www.w3.org/2000/svg">
<path d="M233.361 340.519L8.43359 339.272L14.169 8.36523L242.088 9.11334L233.361 340.519Z" fill="#A75256"/>
<g opacity="0.3">
<g opacity="0.3">
<path opacity="0.3" d="M145.339 23.9512L25.7689 137.287L25.5195 146.639L154.94 23.9512H145.339Z" stroke="#FEF1F0" stroke-width="2" stroke-miterlimit="10"/>
<path opacity="0.3" d="M193.34 24.0762L24.8942 183.545L24.7695 192.771L202.941 24.2009L193.34 24.0762Z" stroke="#FEF1F0" stroke-width="2" stroke-miterlimit="10"/>
<path opacity="0.3" d="M183.744 24.0762L25.0231 174.318L24.8984 183.545L193.344 24.0762H183.744Z" stroke="#FEF1F0" stroke-width="2" stroke-miterlimit="10"/>
<path opacity="0.3" d="M154.94 23.9512L25.5192 146.639L25.3945 155.865L164.54 24.0759L154.94 23.9512Z" stroke="#FEF1F0" stroke-width="2" stroke-miterlimit="10"/>
<path opacity="0.3" d="M174.14 24.0762L25.2689 165.092L25.0195 174.318L183.74 24.0762H174.14Z" stroke="#FEF1F0" stroke-width="2" stroke-miterlimit="10"/>
<path opacity="0.3" d="M164.54 24.0762L25.3942 155.865L25.2695 165.092L174.14 24.0762H164.54Z" stroke="#FEF1F0" stroke-width="2" stroke-miterlimit="10"/>
<path opacity="0.3" d="M202.944 24.1992L24.7728 192.77L24.5234 201.996L212.545 24.1992H202.944Z" stroke="#FEF1F0" stroke-width="2" stroke-miterlimit="10"/>
<path opacity="0.3" d="M212.54 24.1992L24.5192 201.996L24.3945 211.223L222.266 24.1992H212.54Z" stroke="#FEF1F0" stroke-width="2" stroke-miterlimit="10"/>
<path opacity="0.3" d="M229.001 45.1465L23.8981 238.778L23.7734 247.88L228.751 54.4977L229.001 45.1465Z" stroke="#FEF1F0" stroke-width="2" stroke-miterlimit="10"/>
<path opacity="0.3" d="M228.751 54.498L23.7728 247.88L23.5234 257.107L228.501 63.8492L228.751 54.498Z" stroke="#FEF1F0" stroke-width="2" stroke-miterlimit="10"/>
<path opacity="0.3" d="M229.25 35.7969L24.0231 229.553L23.8984 238.78L229.001 45.1481L229.25 35.7969Z" stroke="#FEF1F0" stroke-width="2" stroke-miterlimit="10"/>
<path opacity="0.3" d="M229.625 24.3239L222.269 24.1992L24.3981 211.223L24.2734 220.325L229.501 26.4435L229.625 24.3239Z" stroke="#FEF1F0" stroke-width="2" stroke-miterlimit="10"/>
<path opacity="0.3" d="M229.496 26.4453L24.2689 220.326L24.0195 229.553L229.247 35.7965L229.496 26.4453Z" stroke="#FEF1F0" stroke-width="2" stroke-miterlimit="10"/>
<path opacity="0.3" d="M87.7347 23.7012L26.765 81.6785L26.5156 91.0297L97.3352 23.8259L87.7347 23.7012Z" stroke="#FEF1F0" stroke-width="2" stroke-miterlimit="10"/>
<path opacity="0.3" d="M68.5346 23.7012L27.0153 63.1008L26.8906 72.452L78.1351 23.7012H68.5346Z" stroke="#FEF1F0" stroke-width="2" stroke-miterlimit="10"/>
<path opacity="0.3" d="M49.3344 23.5762L27.3903 44.3981L27.2656 53.7493L58.9349 23.7009L49.3344 23.5762Z" stroke="#FEF1F0" stroke-width="2" stroke-miterlimit="10"/>
<path opacity="0.3" d="M58.9343 23.7012L27.265 53.7496L27.0156 63.1008L68.5349 23.7012H58.9343Z" stroke="#FEF1F0" stroke-width="2" stroke-miterlimit="10"/>
<path opacity="0.3" d="M39.7342 23.5762L27.5153 35.1716L27.3906 44.3981L49.3347 23.5762H39.7342Z" stroke="#FEF1F0" stroke-width="2" stroke-miterlimit="10"/>
<path opacity="0.3" d="M30.1301 23.5762L27.7611 25.8204L27.5117 35.1716L39.7306 23.5762H30.1301Z" stroke="#FEF1F0" stroke-width="2" stroke-miterlimit="10"/>
<path opacity="0.3" d="M27.7617 23.5762V25.8204L30.1307 23.5762H27.7617Z" stroke="#FEF1F0" stroke-width="2" stroke-miterlimit="10"/>
<path opacity="0.3" d="M126.135 23.9512L26.0153 118.834L25.8906 128.061L135.736 23.9512H126.135Z" stroke="#FEF1F0" stroke-width="2" stroke-miterlimit="10"/>
<path opacity="0.3" d="M106.935 23.8242L26.3903 100.255L26.2656 109.481L116.536 23.8242H106.935Z" stroke="#FEF1F0" stroke-width="2" stroke-miterlimit="10"/>
<path opacity="0.3" d="M116.539 23.8242L26.2689 109.481L26.0195 118.832L126.14 23.9489L116.539 23.8242Z" stroke="#FEF1F0" stroke-width="2" stroke-miterlimit="10"/>
<path opacity="0.3" d="M135.739 23.9512L25.8942 128.061L25.7695 137.288L145.34 23.9512H135.739Z" stroke="#FEF1F0" stroke-width="2" stroke-miterlimit="10"/>
<path opacity="0.3" d="M97.3388 23.8242L26.5192 91.028L26.3945 100.255L106.939 23.8242H97.3388Z" stroke="#FEF1F0" stroke-width="2" stroke-miterlimit="10"/>
<path opacity="0.3" d="M78.1387 23.7012L26.8942 72.452L26.7695 81.6785L87.7392 23.7012H78.1387Z" stroke="#FEF1F0" stroke-width="2" stroke-miterlimit="10"/>
<path opacity="0.3" d="M228.501 63.8496L23.5231 257.107L23.3984 266.209L228.376 73.0761L228.501 63.8496Z" stroke="#FEF1F0" stroke-width="2" stroke-miterlimit="10"/>
<path opacity="0.3" d="M222.641 294.76L184.363 330.419H193.964L222.391 303.862L222.641 294.76Z" stroke="#FEF1F0" stroke-width="2" stroke-miterlimit="10"/>
<path opacity="0.3" d="M224.016 239.652L127.387 330.047L136.987 330.172L223.766 248.879L224.016 239.652Z" stroke="#FEF1F0" stroke-width="2" stroke-miterlimit="10"/>
<path opacity="0.3" d="M224.26 230.424L117.906 330.045H127.382L224.011 239.65L224.26 230.424Z" stroke="#FEF1F0" stroke-width="2" stroke-miterlimit="10"/>
<path opacity="0.3" d="M223.519 257.979L146.465 330.17H155.941L223.394 267.205L223.519 257.979Z" stroke="#FEF1F0" stroke-width="2" stroke-miterlimit="10"/>
<path opacity="0.3" d="M225.01 202.871L89.4805 329.922H98.9563L224.761 212.098L225.01 202.871Z" stroke="#FEF1F0" stroke-width="2" stroke-miterlimit="10"/>
<path opacity="0.3" d="M224.513 221.197L108.434 329.92L117.909 330.045L224.264 230.424L224.513 221.197Z" stroke="#FEF1F0" stroke-width="2" stroke-miterlimit="10"/>
<path opacity="0.3" d="M224.762 212.096L98.957 329.921H108.433L224.512 221.198L224.762 212.096Z" stroke="#FEF1F0" stroke-width="2" stroke-miterlimit="10"/>
<path opacity="0.3" d="M223.763 248.877L136.984 330.17H146.46L223.514 257.979L223.763 248.877Z" stroke="#FEF1F0" stroke-width="2" stroke-miterlimit="10"/>
<path opacity="0.3" d="M223.391 267.207L155.938 330.172L165.413 330.296L223.141 276.434L223.391 267.207Z" stroke="#FEF1F0" stroke-width="2" stroke-miterlimit="10"/>
<path opacity="0.3" d="M221.766 330.545L221.891 322.191L212.914 330.545H221.766Z" stroke="#FEF1F0" stroke-width="2" stroke-miterlimit="10"/>
<path opacity="0.3" d="M221.894 322.189L222.144 312.963L203.441 330.418L212.917 330.543L221.894 322.189Z" stroke="#FEF1F0" stroke-width="2" stroke-miterlimit="10"/>
<path opacity="0.3" d="M222.392 303.863L193.965 330.421H203.441L222.143 312.965L222.392 303.863Z" stroke="#FEF1F0" stroke-width="2" stroke-miterlimit="10"/>
<path opacity="0.3" d="M222.889 285.533L174.887 330.294L184.363 330.419L222.64 294.76L222.889 285.533Z" stroke="#FEF1F0" stroke-width="2" stroke-miterlimit="10"/>
<path opacity="0.3" d="M223.142 276.434L165.414 330.296H174.89L222.893 285.535L223.142 276.434Z" stroke="#FEF1F0" stroke-width="2" stroke-miterlimit="10"/>
<path opacity="0.3" d="M226.634 138.16L23.0273 329.548H32.5032L226.384 147.387L226.634 138.16Z" stroke="#FEF1F0" stroke-width="2" stroke-miterlimit="10"/>
<path opacity="0.3" d="M227.627 101.004L22.8981 293.763L22.7734 302.865L227.377 110.355L227.627 101.004Z" stroke="#FEF1F0" stroke-width="2" stroke-miterlimit="10"/>
<path opacity="0.3" d="M227.381 110.355L22.777 302.865L22.6523 311.967L227.132 119.582L227.381 110.355Z" stroke="#FEF1F0" stroke-width="2" stroke-miterlimit="10"/>
<path opacity="0.3" d="M226.881 128.809L22.402 321.194L22.2773 329.547H23.0254L226.632 138.16L226.881 128.809Z" stroke="#FEF1F0" stroke-width="2" stroke-miterlimit="10"/>
<path opacity="0.3" d="M227.131 119.582L22.6517 311.967L22.4023 321.193L226.881 128.809L227.131 119.582Z" stroke="#FEF1F0" stroke-width="2" stroke-miterlimit="10"/>
<path opacity="0.3" d="M227.88 91.7773L23.027 284.536L22.9023 293.763L227.631 101.004L227.88 91.7773Z" stroke="#FEF1F0" stroke-width="2" stroke-miterlimit="10"/>
<path opacity="0.3" d="M228.13 82.4258L23.2767 275.434L23.0273 284.536L227.88 91.777L228.13 82.4258Z" stroke="#FEF1F0" stroke-width="2" stroke-miterlimit="10"/>
<path opacity="0.3" d="M228.38 73.0742L23.402 266.207L23.2773 275.434L228.131 82.4254L228.38 73.0742Z" stroke="#FEF1F0" stroke-width="2" stroke-miterlimit="10"/>
<path opacity="0.3" d="M225.76 175.189L61.0547 329.671L70.5305 329.796L225.511 184.416L225.76 175.189Z" stroke="#FEF1F0" stroke-width="2" stroke-miterlimit="10"/>
<path opacity="0.3" d="M225.508 184.416L70.5273 329.796H80.0033L225.258 193.643L225.508 184.416Z" stroke="#FEF1F0" stroke-width="2" stroke-miterlimit="10"/>
<path opacity="0.3" d="M225.884 165.838L51.5781 329.671H61.054L225.759 175.189L225.884 165.838Z" stroke="#FEF1F0" stroke-width="2" stroke-miterlimit="10"/>
<path opacity="0.3" d="M226.381 147.387L32.5 329.548H42.1006L226.132 156.613L226.381 147.387Z" stroke="#FEF1F0" stroke-width="2" stroke-miterlimit="10"/>
<path opacity="0.3" d="M226.133 156.611L42.1016 329.546L51.5774 329.67L225.883 165.838L226.133 156.611Z" stroke="#FEF1F0" stroke-width="2" stroke-miterlimit="10"/>
<path opacity="0.3" d="M225.263 193.643L80.0078 329.796L89.4836 329.92L225.013 202.869L225.263 193.643Z" stroke="#FEF1F0" stroke-width="2" stroke-miterlimit="10"/>
</g>
<g opacity="0.3">
<path opacity="0.3" d="M111.925 23.8242L226.633 138.158L226.383 147.509L102.324 23.8242H111.925Z" stroke="#FEF1F0" stroke-width="2" stroke-miterlimit="10"/>
<path opacity="0.3" d="M63.9209 23.7009L225.509 184.416L225.26 193.643L54.3203 23.5762L63.9209 23.7009Z" stroke="#FEF1F0" stroke-width="2" stroke-miterlimit="10"/>
<path opacity="0.3" d="M73.5185 23.7012L225.756 175.19L225.506 184.417L63.918 23.7012H73.5185Z" stroke="#FEF1F0" stroke-width="2" stroke-miterlimit="10"/>
<path opacity="0.3" d="M102.323 23.8242L226.382 147.509L226.133 156.736L92.7227 23.8242H102.323Z" stroke="#FEF1F0" stroke-width="2" stroke-miterlimit="10"/>
<path opacity="0.3" d="M83.124 23.7012L225.885 165.964L225.761 175.19L73.5234 23.7012H83.124Z" stroke="#FEF1F0" stroke-width="2" stroke-miterlimit="10"/>
<path opacity="0.3" d="M92.7255 23.8259L226.136 156.737L225.886 165.964L83.125 23.7012L92.7255 23.8259Z" stroke="#FEF1F0" stroke-width="2" stroke-miterlimit="10"/>
<path opacity="0.3" d="M54.3193 23.5762L225.259 193.643L225.009 202.869L44.7188 23.5762H54.3193Z" stroke="#FEF1F0" stroke-width="2" stroke-miterlimit="10"/>
<path opacity="0.3" d="M44.7217 23.5762L225.012 202.869L224.763 212.096L35.1211 23.5762H44.7217Z" stroke="#FEF1F0" stroke-width="2" stroke-miterlimit="10"/>
<path opacity="0.3" d="M27.3903 44.3965L224.014 239.774L223.765 248.876L27.2656 53.7477L27.3903 44.3965Z" stroke="#FEF1F0" stroke-width="2" stroke-miterlimit="10"/>
<path opacity="0.3" d="M27.265 53.748L223.764 248.876L223.515 258.102L27.0156 62.9745L27.265 53.748Z" stroke="#FEF1F0" stroke-width="2" stroke-miterlimit="10"/>
<path opacity="0.3" d="M27.5153 35.0469L224.264 230.549L224.015 239.775L27.3906 44.3981L27.5153 35.0469Z" stroke="#FEF1F0" stroke-width="2" stroke-miterlimit="10"/>
<path opacity="0.3" d="M27.7617 23.5762H35.118L224.76 212.096L224.511 221.322L27.7617 25.6958V23.5762Z" stroke="#FEF1F0" stroke-width="2" stroke-miterlimit="10"/>
<path opacity="0.3" d="M27.7611 25.6953L224.51 221.322L224.261 230.548L27.5117 35.0465L27.7611 25.6953Z" stroke="#FEF1F0" stroke-width="2" stroke-miterlimit="10"/>
<path opacity="0.3" d="M169.526 24.0762L228.127 82.4276L227.878 91.7787L159.926 24.0762H169.526Z" stroke="#FEF1F0" stroke-width="2" stroke-miterlimit="10"/>
<path opacity="0.3" d="M188.729 24.0762L228.503 63.8499L228.378 73.201L179.129 24.0762H188.729Z" stroke="#FEF1F0" stroke-width="2" stroke-miterlimit="10"/>
<path opacity="0.3" d="M208.053 24.1992L229 45.2705L228.751 54.497L198.328 24.1992H208.053Z" stroke="#FEF1F0" stroke-width="2" stroke-miterlimit="10"/>
<path opacity="0.3" d="M198.327 24.2009L228.75 54.4987L228.5 63.8499L188.727 24.0762L198.327 24.2009Z" stroke="#FEF1F0" stroke-width="2" stroke-miterlimit="10"/>
<path opacity="0.3" d="M217.655 24.1992L229.251 35.9194L229.001 45.2705L208.055 24.1992H217.655Z" stroke="#FEF1F0" stroke-width="2" stroke-miterlimit="10"/>
<path opacity="0.3" d="M227.253 24.1992L229.497 26.5682L229.248 35.9194L217.652 24.1992H227.253Z" stroke="#FEF1F0" stroke-width="2" stroke-miterlimit="10"/>
<path opacity="0.3" d="M229.623 24.3239L229.498 26.5682L227.254 24.1992L229.623 24.3239Z" stroke="#FEF1F0" stroke-width="2" stroke-miterlimit="10"/>
<path opacity="0.3" d="M131.128 23.9489L227.133 119.705L226.884 128.931L121.527 23.8242L131.128 23.9489Z" stroke="#FEF1F0" stroke-width="2" stroke-miterlimit="10"/>
<path opacity="0.3" d="M150.327 23.9512L227.63 101.13L227.381 110.356L140.727 23.9512H150.327Z" stroke="#FEF1F0" stroke-width="2" stroke-miterlimit="10"/>
<path opacity="0.3" d="M140.725 23.9512L227.38 110.356L227.13 119.707L131.125 23.9512H140.725Z" stroke="#FEF1F0" stroke-width="2" stroke-miterlimit="10"/>
<path opacity="0.3" d="M121.522 23.8242L226.879 128.931L226.63 138.158L111.922 23.8242H121.522Z" stroke="#FEF1F0" stroke-width="2" stroke-miterlimit="10"/>
<path opacity="0.3" d="M159.925 24.0759L227.877 91.7784L227.627 101.13L150.324 23.9512L159.925 24.0759Z" stroke="#FEF1F0" stroke-width="2" stroke-miterlimit="10"/>
<path opacity="0.3" d="M179.128 24.0762L228.377 73.201L228.128 82.4276L169.527 24.0762H179.128Z" stroke="#FEF1F0" stroke-width="2" stroke-miterlimit="10"/>
<path opacity="0.3" d="M27.0153 62.9746L223.515 258.103L223.39 267.329L26.8906 72.3258L27.0153 62.9746Z" stroke="#FEF1F0" stroke-width="2" stroke-miterlimit="10"/>
<path opacity="0.3" d="M22.8981 293.639L59.5547 329.672H49.9542L22.7734 302.865L22.8981 293.639Z" stroke="#FEF1F0" stroke-width="2" stroke-miterlimit="10"/>
<path opacity="0.3" d="M23.8981 238.652L116.412 330.045L106.937 329.92L23.7734 247.879L23.8981 238.652Z" stroke="#FEF1F0" stroke-width="2" stroke-miterlimit="10"/>
<path opacity="0.3" d="M24.0231 229.551L125.889 330.045H116.413L23.8984 238.653L24.0231 229.551Z" stroke="#FEF1F0" stroke-width="2" stroke-miterlimit="10"/>
<path opacity="0.3" d="M23.5231 256.98L97.4598 329.92L87.9839 329.795L23.3984 266.207L23.5231 256.98Z" stroke="#FEF1F0" stroke-width="2" stroke-miterlimit="10"/>
<path opacity="0.3" d="M24.5192 201.871L154.438 330.169H144.962L24.3945 211.098L24.5192 201.871Z" stroke="#FEF1F0" stroke-width="2" stroke-miterlimit="10"/>
<path opacity="0.3" d="M24.2689 220.326L135.361 330.171L125.885 330.047L24.0195 229.553L24.2689 220.326Z" stroke="#FEF1F0" stroke-width="2" stroke-miterlimit="10"/>
<path opacity="0.3" d="M24.3981 211.1L144.966 330.171H135.365L24.2734 220.326L24.3981 211.1Z" stroke="#FEF1F0" stroke-width="2" stroke-miterlimit="10"/>
<path opacity="0.3" d="M23.7728 247.881L106.936 329.922H97.4601L23.5234 256.983L23.7728 247.881Z" stroke="#FEF1F0" stroke-width="2" stroke-miterlimit="10"/>
<path opacity="0.3" d="M23.402 266.207L87.9875 329.795H78.5117L23.2773 275.309L23.402 266.207Z" stroke="#FEF1F0" stroke-width="2" stroke-miterlimit="10"/>
<path opacity="0.3" d="M22.2773 329.547L22.402 321.068L31.0051 329.547H22.2773Z" stroke="#FEF1F0" stroke-width="2" stroke-miterlimit="10"/>
<path opacity="0.3" d="M22.4023 321.069L22.6517 311.967L40.4813 329.547H31.0054L22.4023 321.069Z" stroke="#FEF1F0" stroke-width="2" stroke-miterlimit="10"/>
<path opacity="0.3" d="M22.777 302.865L49.9578 329.672L40.4819 329.547L22.6523 311.967L22.777 302.865Z" stroke="#FEF1F0" stroke-width="2" stroke-miterlimit="10"/>
<path opacity="0.3" d="M23.027 284.537L69.0348 329.797L59.559 329.672L22.9023 293.639L23.027 284.537Z" stroke="#FEF1F0" stroke-width="2" stroke-miterlimit="10"/>
<path opacity="0.3" d="M23.2767 275.311L78.511 329.797H69.0351L23.0273 284.537L23.2767 275.311Z" stroke="#FEF1F0" stroke-width="2" stroke-miterlimit="10"/>
<path opacity="0.3" d="M25.7689 137.285L220.897 330.543H211.421L25.5195 146.512L25.7689 137.285Z" stroke="#FEF1F0" stroke-width="2" stroke-miterlimit="10"/>
<path opacity="0.3" d="M26.3903 100.131L222.64 294.76L222.391 303.987L26.2656 109.482L26.3903 100.131Z" stroke="#FEF1F0" stroke-width="2" stroke-miterlimit="10"/>
<path opacity="0.3" d="M26.2689 109.482L222.394 303.987L222.145 313.089L26.0195 118.709L26.2689 109.482Z" stroke="#FEF1F0" stroke-width="2" stroke-miterlimit="10"/>
<path opacity="0.3" d="M25.8942 128.061L221.895 322.191L221.77 330.545H220.898L25.7695 137.287L25.8942 128.061Z" stroke="#FEF1F0" stroke-width="2" stroke-miterlimit="10"/>
<path opacity="0.3" d="M26.0153 118.709L222.141 313.089L221.891 322.191L25.8906 128.06L26.0153 118.709Z" stroke="#FEF1F0" stroke-width="2" stroke-miterlimit="10"/>
<path opacity="0.3" d="M26.5192 90.9043L222.894 285.658L222.645 294.76L26.3945 100.131L26.5192 90.9043Z" stroke="#FEF1F0" stroke-width="2" stroke-miterlimit="10"/>
<path opacity="0.3" d="M26.765 81.6777L223.14 276.432L222.89 285.658L26.5156 90.9042L26.765 81.6777Z" stroke="#FEF1F0" stroke-width="2" stroke-miterlimit="10"/>
<path opacity="0.3" d="M26.8942 72.3262L223.394 267.329L223.144 276.431L26.7695 81.6774L26.8942 72.3262Z" stroke="#FEF1F0" stroke-width="2" stroke-miterlimit="10"/>
<path opacity="0.3" d="M25.0231 174.193L182.871 330.42L173.395 330.296L24.8984 183.42L25.0231 174.193Z" stroke="#FEF1F0" stroke-width="2" stroke-miterlimit="10"/>
<path opacity="0.3" d="M24.8942 183.418L173.391 330.294H163.915L24.7695 192.644L24.8942 183.418Z" stroke="#FEF1F0" stroke-width="2" stroke-miterlimit="10"/>
<path opacity="0.3" d="M25.2689 164.967L192.468 330.42H182.867L25.0195 174.193L25.2689 164.967Z" stroke="#FEF1F0" stroke-width="2" stroke-miterlimit="10"/>
<path opacity="0.3" d="M25.5192 146.512L211.421 330.543L201.945 330.418L25.3945 155.738L25.5192 146.512Z" stroke="#FEF1F0" stroke-width="2" stroke-miterlimit="10"/>
<path opacity="0.3" d="M25.3942 155.74L201.945 330.42H192.469L25.2695 164.967L25.3942 155.74Z" stroke="#FEF1F0" stroke-width="2" stroke-miterlimit="10"/>
<path opacity="0.3" d="M24.7728 192.645L163.918 330.294L154.442 330.169L24.5234 201.871L24.7728 192.645Z" stroke="#FEF1F0" stroke-width="2" stroke-miterlimit="10"/>
</g>
</g>
<path d="M164.915 192.524C161.673 192.649 149.08 198.26 137.734 204.12C136.986 204.494 136.238 204.993 135.49 205.367C127.385 210.479 118.907 216.089 118.034 217.586C117.535 218.458 117.037 219.206 116.538 219.954C115.54 221.326 114.294 222.448 112.797 223.196C112.049 225.441 112.049 227.435 111.301 229.555C109.805 233.919 109.805 251.624 102.324 258.98C98.4589 262.721 93.9704 261.224 90.4793 258.731C88.8584 258.731 87.4869 257.609 87.2376 255.988C85.7414 254.492 84.8686 253.369 84.8686 253.369C84.8686 253.369 84.7439 253.245 84.6192 253.245C83.8711 252.871 82.0009 251.748 81.7515 251.624C81.3775 251.374 81.2528 251.125 80.7541 250.502C80.6294 250.252 80.5047 250.003 80.38 249.754C80.006 249.504 79.7566 249.255 80.1307 248.881C80.7541 248.257 83.1231 248.756 83.7465 248.756C84.2452 248.756 85.8661 248.257 86.2401 248.881C88.1104 248.631 88.4844 248.008 89.8559 243.145C90.604 240.776 80.7541 220.453 79.3826 207.985C78.1358 195.517 98.9577 187.412 105.317 184.295C105.815 184.046 106.563 183.797 107.561 183.672C107.935 183.048 108.06 182.3 108.184 181.552C108.434 177.812 108.184 171.079 107.062 167.588C79.5072 174.819 58.9346 198.883 58.4359 227.685C57.8125 262.097 86.1154 290.026 121.775 290.275C157.434 290.4 186.983 262.721 187.856 228.308C188.23 213.471 183.118 199.881 174.515 189.033C174.64 190.779 170.276 192.15 164.915 192.524Z" fill="#974B52"/>
<path d="M173.892 188.16C173.144 187.287 172.396 186.414 171.648 185.666C170.65 186.165 169.528 186.788 168.281 187.412C170.775 187.536 172.77 187.661 173.892 188.16Z" fill="#974B52"/>
<path d="M116.04 166.215C115.791 167.461 113.172 167.087 112.299 167.835C112.05 168.085 111.925 168.334 111.801 168.584C113.172 171.202 116.165 177.311 119.282 179.93C122.025 182.174 134.867 183.171 141.35 183.545C147.834 182.423 161.549 181.176 164.666 180.927C165.165 180.927 165.788 180.802 166.536 180.678C155.44 171.202 140.727 165.342 124.643 165.342C120.903 165.342 117.287 165.591 113.796 166.215C114.419 166.464 115.292 166.464 116.04 166.215Z" fill="#974B52"/>
<path d="M108.309 181.551C108.309 182.174 108.06 182.922 107.686 183.67C113.172 182.798 125.516 183.421 137.236 184.418C138.358 184.169 139.106 184.044 139.605 183.92C140.103 183.795 140.602 183.67 141.226 183.546C134.742 183.172 121.9 182.174 119.157 179.93C116.04 177.312 113.047 171.202 111.676 168.584C111.426 169.082 111.551 169.581 111.551 169.581L109.806 168.459C109.806 168.459 110.554 167.586 109.556 166.963C108.683 167.088 107.935 167.337 107.062 167.586C108.309 171.077 108.559 177.81 108.309 181.551Z" fill="#974B52"/>
<path d="M174.643 188.908C174.643 188.534 174.269 188.285 173.895 188.16C174.144 188.41 174.393 188.784 174.643 189.033C174.643 189.033 174.643 189.033 174.643 188.908Z" fill="#A75256"/>
<path d="M160.676 191.402C161.299 191.402 161.673 191.527 161.549 192.026C161.175 193.397 157.933 194.021 154.816 194.644C148.956 197.886 142.846 201.252 137.734 204.12C149.08 198.26 161.673 192.649 164.915 192.524C170.152 192.275 174.64 190.779 174.516 189.158C174.266 188.909 174.017 188.535 173.768 188.285C172.77 187.786 170.651 187.662 168.032 187.537C166.037 188.535 163.419 189.906 160.676 191.402Z" fill="#A75256"/>
<path d="M86.1153 216.96C85.4919 206.237 86.4894 194.891 94.7184 191.774C96.2146 191.275 98.5836 190.652 101.576 190.153C103.446 188.782 106.439 186.288 107.81 183.545C106.813 183.67 106.065 183.919 105.566 184.168C99.207 187.285 78.385 195.514 79.6318 207.858C80.8786 220.326 90.7286 240.649 90.1052 243.018C88.7337 247.756 88.3596 248.38 86.4893 248.754C86.4893 248.754 86.4894 248.754 86.6141 248.879C86.8634 249.502 87.2375 250.499 86.7387 250.624C86.3647 251.746 85.2425 253.367 85.2425 253.367C85.2425 253.367 85.1179 253.242 84.9932 253.242C85.1179 253.367 85.2425 253.367 85.2425 253.367C85.2425 253.367 86.1153 254.489 87.6115 255.985C87.6115 255.861 87.6115 255.611 87.6115 255.362C87.6115 253.492 89.1077 251.996 91.1026 251.996C92.9728 251.996 94.5937 253.492 94.5937 255.237C94.5937 257.108 93.0975 258.604 91.1026 258.604H90.978C94.4691 260.973 98.9576 262.594 102.823 258.853C110.304 251.497 110.304 233.792 111.8 229.428C112.548 227.308 112.548 225.314 113.296 223.069C111.8 223.942 110.054 224.441 108.309 224.565C100.454 225.064 86.614 224.815 86.1153 216.96Z" fill="#A75256"/>
<path d="M101.578 190.28C105.942 189.532 111.553 188.783 117.288 188.285C125.517 186.414 133.247 185.168 137.362 184.42C125.767 183.422 113.423 182.799 107.812 183.671C106.441 186.29 103.324 188.908 101.578 190.28Z" fill="#A75256"/>
<path d="M171.526 185.542C172.898 184.794 173.895 184.295 174.394 184.17C178.508 182.674 182.498 180.679 181.501 179.432C180.753 178.435 171.152 180.18 166.414 180.804C168.284 182.3 170.03 183.921 171.526 185.542Z" fill="#994F55"/>
<path d="M141.348 183.546C143.717 183.67 145.213 183.67 145.213 183.67L141.348 184.668C150.948 185.541 159.427 186.538 162.17 186.787C164.414 187.037 166.534 187.162 168.279 187.286C169.526 186.538 170.773 186.039 171.646 185.541C170.025 183.795 168.404 182.299 166.658 180.803C165.91 180.927 165.162 180.927 164.788 181.052C161.546 181.177 147.831 182.424 141.348 183.546Z" fill="#994F55"/>
<path d="M135.488 205.364C136.236 204.99 136.984 204.491 137.733 204.117C137.234 204.367 136.61 204.741 136.112 204.99C135.987 205.115 135.738 205.239 135.488 205.364Z" fill="#994F55"/>
<path d="M137.234 184.418C138.606 184.543 139.977 184.667 141.224 184.792L145.089 183.795C145.089 183.795 143.593 183.795 141.224 183.67C140.601 183.795 139.977 183.919 139.603 184.044C139.105 184.044 138.357 184.169 137.234 184.418Z" fill="#994F55"/>
<path d="M136.113 204.866C136.612 204.617 137.235 204.243 137.734 203.993C142.846 201.126 148.956 197.759 154.816 194.518C152.945 194.892 151.2 195.266 150.452 195.764C149.579 196.512 143.095 200.502 136.113 204.866Z" fill="#994F55"/>
<path d="M144.215 187.783C147.956 189.778 164.414 189.529 154.938 191.649C145.462 193.643 126.012 198.381 139.353 196.262C149.951 194.516 158.055 191.524 160.673 191.399C163.416 189.903 166.035 188.531 168.154 187.409C166.409 187.285 164.289 187.16 162.045 186.911C159.302 186.537 150.824 185.664 141.223 184.791L130.625 187.409C137.483 187.035 142.969 187.16 144.215 187.783Z" fill="#994F55"/>
<path d="M117.164 188.283C121.777 187.909 126.391 187.535 130.505 187.285L141.103 184.667C139.732 184.542 138.485 184.418 137.113 184.293C133.248 185.041 125.518 186.413 117.164 188.283Z" fill="#994F55"/>
<path d="M124.393 211.474C121.899 213.469 118.782 216.711 114.418 220.077C113.795 221.2 113.296 222.072 113.047 223.07C114.543 222.322 115.79 221.2 116.787 219.828C117.286 219.205 117.785 218.332 118.283 217.459C119.156 215.963 127.635 210.352 135.739 205.24C131.999 207.235 129.131 208.856 127.635 209.604C126.388 210.352 125.266 210.976 124.393 211.474Z" fill="#A75256"/>
<path d="M111.798 221.948C104.442 226.936 92.7214 221.076 92.7214 221.076C92.7214 221.076 89.6044 212.348 87.3601 202.248C86.4873 198.508 92.7215 195.142 101.2 192.399L99.9531 191.152C99.9531 191.152 100.576 190.778 101.325 190.154C98.3322 190.653 95.9632 191.276 94.467 191.775C86.3626 194.892 85.2405 206.238 85.8639 216.961C86.3626 224.816 100.202 225.065 107.683 224.691C109.429 224.567 111.174 224.068 112.671 223.195C112.92 222.198 113.419 221.2 114.042 220.203C113.543 220.826 112.795 221.325 111.798 221.948Z" fill="#A75256"/>
<path d="M126.635 210.103C125.887 210.352 125.139 210.851 124.391 211.599C125.388 210.975 126.386 210.352 127.508 209.729C127.134 209.853 126.76 209.978 126.635 210.103Z" fill="#A75256"/>
<path d="M161.549 192.024C161.674 191.65 161.3 191.4 160.676 191.4C158.806 192.398 156.811 193.52 154.816 194.642C157.809 194.019 161.175 193.395 161.549 192.024Z" fill="#A75256"/>
<path d="M100.078 191.153L101.325 192.399C106.188 190.778 111.798 189.407 117.16 188.16C111.424 188.659 105.813 189.407 101.45 190.155C100.702 190.903 100.078 191.153 100.078 191.153Z" fill="#A75256"/>
<path d="M119.53 214.715C116.911 216.71 115.29 218.58 114.293 220.201C118.657 216.834 121.774 213.468 124.268 211.598C122.397 212.72 120.776 213.842 119.53 214.715Z" fill="#A75256"/>
<path d="M127.508 209.73C129.004 208.982 131.872 207.361 135.612 205.366C135.862 205.242 135.986 205.117 136.236 204.992C132.994 206.488 130.126 208.109 127.508 209.73Z" fill="#A75256"/>
<path d="M155.066 191.65C164.541 189.655 148.083 189.78 144.343 187.785C142.971 187.037 137.61 187.036 130.628 187.286L102.824 194.019L101.328 192.398C92.8491 195.141 86.615 198.507 87.4878 202.248C89.7321 212.347 92.8491 221.075 92.8491 221.075C92.8491 221.075 104.569 226.935 111.926 221.948C112.798 221.324 113.671 220.701 114.419 220.202C115.417 218.581 117.038 216.836 119.656 214.716C120.778 213.843 122.399 212.721 124.394 211.474C125.142 210.851 126.015 210.352 126.638 209.978C126.763 209.853 127.137 209.729 127.511 209.604C130.129 208.108 133.122 206.487 136.239 204.866C143.221 200.502 149.704 196.512 150.577 195.889C151.325 195.39 153.071 195.016 154.941 194.642C156.936 193.52 158.931 192.523 160.801 191.4C158.183 191.4 150.078 194.517 139.48 196.263C126.139 198.383 145.59 193.645 155.066 191.65Z" fill="#A75256"/>
<path d="M102.821 194.143L130.625 187.41C126.51 187.535 121.772 187.909 117.284 188.408C111.923 189.654 106.312 191.026 101.449 192.647L102.821 194.143Z" fill="#A75256"/>
<path d="M90.73 258.727C89.4832 257.855 88.3611 256.857 87.4883 255.984C87.7376 257.605 89.1091 258.727 90.73 258.727Z" fill="#F37880"/>
<path d="M94.3416 255.362C94.3416 253.492 92.8454 251.996 90.8505 252.121C88.9802 252.121 87.3594 253.617 87.3594 255.487C87.3594 255.736 87.3594 255.861 87.3594 256.11C88.2322 256.983 89.3543 257.981 90.6012 258.853H90.7258C92.8454 258.729 94.3416 257.233 94.3416 255.362ZM88.2322 255.238C88.2322 253.991 89.2297 252.993 90.6012 252.993C91.848 252.993 92.9701 253.991 92.9701 255.238C92.9701 256.484 91.9727 257.482 90.6012 257.482C89.3543 257.482 88.2322 256.484 88.2322 255.238Z" fill="#F37880"/>
<path d="M92.9723 255.238C92.9723 253.992 91.9749 252.994 90.6034 252.994C89.3565 252.994 88.2344 253.992 88.2344 255.238C88.2344 256.485 89.2319 257.483 90.6034 257.483C91.8502 257.483 92.9723 256.485 92.9723 255.238ZM91.2268 256.485C90.8527 256.61 90.2293 256.735 89.7306 256.361C88.9825 255.737 89.1071 255.114 89.2318 254.989C89.4812 254.615 89.6059 254.116 91.3514 254.49C91.6008 254.49 92.0995 254.864 91.9748 255.488C91.9748 255.862 91.7255 256.236 91.2268 256.485Z" fill="#A75256"/>
<path d="M80.6289 249.627C80.7536 249.876 80.8783 250.126 81.0029 250.375C81.5017 250.998 81.6263 251.373 82.0004 251.497C82.2497 251.622 84.12 252.744 84.8681 253.118C84.12 252.619 81.8757 251.373 81.751 251.248C81.5016 251.248 80.8783 250.375 80.6289 249.627Z" fill="#F37880"/>
<path d="M86.6136 250.624C86.6136 250.624 86.6136 250.749 86.6136 250.624C86.489 250.624 82.4991 249.752 81.751 249.876C81.377 249.876 80.8783 249.752 80.6289 249.627C80.8783 250.375 81.6263 251.248 81.751 251.373C81.8757 251.497 84.12 252.744 84.8681 253.243C84.9927 253.367 85.1174 253.367 85.1174 253.367C85.1174 253.367 86.2396 251.747 86.6136 250.624Z" fill="#F37880"/>
<path d="M111.178 167.584C111.303 167.834 111.552 168.208 111.802 168.582C111.926 168.332 112.051 168.083 112.3 167.834C113.173 167.086 115.791 167.46 116.041 166.213C115.168 166.462 114.42 166.338 113.672 166.213C112.674 166.338 111.552 166.587 110.555 166.836C110.804 167.086 111.053 167.335 111.178 167.584Z" fill="#5C424E"/>
<path d="M109.929 168.584L111.675 169.706C111.675 169.706 111.55 169.207 111.8 168.709C111.55 168.21 111.301 167.836 111.176 167.711C111.052 167.587 110.802 167.337 110.677 167.088C110.428 167.088 110.054 167.213 109.805 167.337C110.677 167.711 109.929 168.584 109.929 168.584Z" fill="#5C424E"/>
<path d="M91.3506 254.49C89.605 254.116 89.4803 254.615 89.231 254.989C89.1063 255.113 88.9816 255.737 89.7297 256.36C90.2284 256.734 90.7272 256.609 91.2259 256.485C91.7247 256.36 91.974 255.986 92.0986 255.487C92.0986 254.739 91.5999 254.49 91.3506 254.49Z" fill="#5C414E"/>
<path d="M80.3788 249.004C80.3788 248.879 80.5035 248.879 80.3788 249.004C80.3788 248.879 80.3788 248.879 80.3788 248.879C80.5035 248.63 81.1268 248.755 82.1243 248.879C83.2464 249.004 85.9895 248.879 85.9895 248.879H86.1141C85.7401 248.256 84.1192 248.63 83.6205 248.755C83.1218 248.879 80.6282 248.256 80.0048 248.879C79.7554 249.253 79.88 249.503 80.2541 249.752C80.2541 249.627 80.2541 249.627 80.1294 249.503C80.5035 249.253 80.3788 249.129 80.3788 249.004Z" fill="#E5737E"/>
<path d="M86.862 250.001C86.862 250.125 86.862 250.375 86.7373 250.624C87.236 250.375 86.862 249.502 86.6127 248.879C86.6127 248.879 86.6126 248.754 86.4879 248.754H86.3633C86.3633 248.879 86.7374 249.377 86.862 250.001Z" fill="#E5737E"/>
<path d="M80.5046 248.879C80.5046 248.879 80.38 248.879 80.5046 248.879C80.5046 249.128 80.5046 249.253 80.5046 249.378C80.5046 249.128 80.5046 249.004 80.5046 248.879Z" fill="#E5737E"/>
<path d="M80.5039 249.379C80.5039 249.504 80.504 249.504 80.6286 249.628C80.504 249.504 80.5039 249.504 80.5039 249.379Z" fill="#E5737E"/>
<path d="M85.6162 248.88C85.8656 248.88 85.9902 248.88 86.2396 248.755C86.2396 248.755 83.3719 248.88 82.3744 248.755C81.377 248.631 80.7536 248.631 80.6289 248.755C81.1276 248.381 83.3719 249.129 85.6162 248.88Z" fill="#E5737E"/>
<path d="M86.2393 248.755C85.99 248.755 85.8653 248.755 85.6159 248.88C83.3716 249.129 81.1273 248.381 80.5039 248.755V248.88C80.5039 249.005 80.5039 249.129 80.5039 249.379C80.5039 249.503 80.504 249.503 80.6286 249.628C81.0027 249.753 81.3767 249.877 81.7507 249.877C82.4988 249.877 86.4886 250.75 86.4886 250.75H86.6134C86.7381 250.501 86.8627 250.251 86.738 250.127C86.738 249.379 86.364 248.88 86.2393 248.755Z" fill="#E5737E"/>
<path d="M83.8712 155.241C87.113 155.116 99.7059 149.505 111.052 143.645C111.8 143.147 112.548 142.773 113.296 142.398C121.401 137.286 129.879 131.551 130.752 130.055C131.251 129.182 131.749 128.434 132.248 127.686C133.245 126.314 134.492 125.192 135.988 124.32C136.737 122.075 136.737 120.08 137.485 117.961C138.981 113.597 138.981 95.6426 146.586 88.1616C150.452 84.2965 154.94 85.9173 158.431 88.2863C160.052 88.2863 161.424 89.5331 161.673 91.0293C163.169 92.5255 164.042 93.6477 164.042 93.6477C164.042 93.6477 164.167 93.7723 164.291 93.7723C165.039 94.1464 166.91 95.2685 167.159 95.5179C167.533 95.7673 167.658 96.0166 168.156 96.7647C168.281 97.0141 168.406 97.2634 168.531 97.5128C168.905 97.7622 169.154 98.0115 168.78 98.3856C168.156 99.009 165.663 98.5103 165.164 98.5103C164.665 98.5103 163.045 99.009 162.671 98.3856C160.8 98.635 160.426 99.2584 159.055 104.121C158.307 106.49 168.156 127.063 169.403 139.531C170.65 151.999 149.704 160.228 143.345 163.345C142.846 163.594 142.098 163.844 141.1 163.969C140.726 164.717 140.602 165.34 140.477 166.088C140.228 169.829 140.477 176.561 141.475 180.053C169.029 172.821 189.727 148.633 190.475 119.706C191.347 84.9199 162.795 56.4923 126.887 56.3676C90.9781 56.2429 61.3037 84.4212 60.5556 119.208C60.3062 134.169 65.4182 147.884 74.146 158.607C74.146 156.986 78.6346 155.49 83.8712 155.241Z" fill="#974B52"/>
<path d="M75.0156 159.48C75.7637 160.353 76.5118 161.226 77.2599 162.099C78.2574 161.6 79.3795 160.977 80.6263 160.353C78.008 160.104 76.0131 159.979 75.0156 159.48Z" fill="#974B52"/>
<path d="M132.871 181.425C133.121 180.178 135.739 180.552 136.612 179.804C136.861 179.554 136.986 179.305 137.111 179.056C135.739 176.437 132.747 170.328 129.63 167.71C126.887 165.465 114.044 164.468 107.561 164.094C101.077 165.216 87.3623 166.463 84.2452 166.712C83.7465 166.712 83.1231 166.837 82.375 166.961C93.4717 176.437 108.184 182.297 124.268 182.297C128.009 182.297 131.625 182.048 135.116 181.425C134.368 181.3 133.619 181.175 132.871 181.425Z" fill="#974B52"/>
<path d="M140.479 166.088C140.479 165.34 140.728 164.717 141.102 163.969C135.616 164.842 123.148 164.218 111.552 163.221C110.43 163.47 109.682 163.595 109.183 163.719C108.685 163.844 108.186 163.969 107.562 164.093C114.046 164.468 126.888 165.465 129.631 167.709C132.748 170.328 135.741 176.437 137.112 179.055C137.362 178.557 137.237 178.058 137.237 178.058L138.982 179.18C138.982 179.18 138.234 180.053 139.232 180.676C140.105 180.552 140.853 180.302 141.726 180.053C140.479 176.686 140.229 169.829 140.479 166.088Z" fill="#A75256"/>
<path d="M74.2734 158.732C74.3981 159.106 74.6475 159.356 75.0216 159.48C74.7722 159.231 74.5228 158.857 74.2734 158.607V158.732Z" fill="#A75256"/>
<path d="M88.108 156.239C87.4845 156.239 87.1105 156.114 87.2352 155.616C87.6092 154.244 90.8509 153.621 93.968 152.997C99.828 149.756 105.937 146.389 111.049 143.521C99.7034 149.382 87.1105 154.992 83.8687 155.117C78.6321 155.366 74.1435 156.863 74.2682 158.483C74.5175 158.733 74.7669 159.107 75.0163 159.356C76.0138 159.855 78.1333 159.98 80.7517 160.104C82.8713 159.107 85.3649 157.735 88.108 156.239Z" fill="#A75256"/>
<path d="M162.92 130.553C163.543 141.4 162.421 152.746 154.317 155.864C152.82 156.362 150.451 156.986 147.459 157.484C145.589 158.856 142.596 161.35 141.225 164.093C142.222 163.968 142.97 163.719 143.469 163.469C149.828 160.227 170.775 152.123 169.528 139.655C168.281 127.187 158.431 106.614 159.179 104.245C160.551 99.3824 161.049 98.759 162.795 98.5096C162.795 98.5096 162.795 98.5096 162.67 98.3849C162.421 97.7615 162.047 96.7641 162.546 96.6394C163.044 95.5173 164.167 93.7717 164.167 93.7717C164.167 93.7717 164.291 93.8964 164.416 93.8964C164.291 93.7717 164.167 93.7717 164.167 93.7717C164.167 93.7717 163.294 92.5249 161.798 91.1534C161.798 91.4027 161.798 91.5274 161.798 91.7768C161.798 93.647 160.177 95.1432 158.306 95.2679C156.436 95.2679 154.815 93.7717 154.815 91.9014C154.815 90.0312 156.436 88.535 158.306 88.4104H158.431C154.94 85.9167 150.451 84.4205 146.586 88.2857C139.105 95.7666 138.981 113.721 137.484 118.085C136.736 120.204 136.736 122.199 135.988 124.444C137.484 123.571 139.23 123.072 141.1 122.947C148.457 122.324 162.421 122.573 162.92 130.553Z" fill="#A75256"/>
<path d="M147.335 157.484C142.971 158.232 137.36 158.981 131.625 159.479C123.396 161.35 115.541 162.596 111.551 163.344C123.146 164.342 135.615 164.965 141.101 164.093C142.472 161.35 145.589 158.731 147.335 157.484Z" fill="#A75256"/>
<path d="M77.2623 162.1C75.8908 162.848 74.8933 163.346 74.3946 163.471C70.2801 164.967 66.2902 166.962 67.2877 168.209C68.0358 169.206 77.6363 167.461 82.3742 166.838C80.504 165.341 78.8832 163.72 77.2623 162.1Z" fill="#994F55"/>
<path d="M107.56 164.094C105.191 163.969 103.694 163.969 103.694 163.969L107.56 162.972C97.959 162.099 89.4806 161.102 86.7376 160.852C84.4933 160.603 82.3737 160.478 80.6282 160.354C79.3813 161.102 78.1345 161.6 77.2617 162.099C78.8826 163.845 80.5035 165.341 82.249 166.837C82.9971 166.712 83.7452 166.712 84.1193 166.588C87.2363 166.463 101.076 165.216 107.56 164.094Z" fill="#994F55"/>
<path d="M113.299 142.273C112.551 142.647 111.803 143.146 111.055 143.52C111.553 143.271 112.177 142.897 112.676 142.647C112.925 142.523 113.05 142.398 113.299 142.273Z" fill="#994F55"/>
<path d="M111.55 163.345C110.179 163.22 108.807 163.095 107.56 162.971L103.695 163.968C103.695 163.968 105.191 163.968 107.56 164.093C108.184 163.968 108.807 163.843 109.181 163.719C109.68 163.719 110.553 163.469 111.55 163.345Z" fill="#994F55"/>
<path d="M112.675 142.648C112.176 142.898 111.553 143.272 111.054 143.521C105.942 146.389 99.8327 149.755 93.9727 152.997C95.8429 152.623 97.5884 152.249 98.3365 151.75C99.2093 151.127 105.693 147.137 112.675 142.648Z" fill="#994F55"/>
<path d="M104.568 159.854C100.703 157.859 84.3697 158.108 93.8456 155.989C103.321 153.994 122.772 149.131 109.556 151.251C98.9575 152.996 90.8532 155.989 88.2349 156.113C85.4918 157.61 82.8735 158.981 80.7539 160.103C82.4995 160.228 84.6191 160.353 86.8634 160.602C89.6064 160.976 98.0847 161.849 107.685 162.722L118.283 160.103C111.426 160.602 105.94 160.602 104.568 159.854Z" fill="#994F55"/>
<path d="M131.626 159.354C127.013 159.728 122.4 160.102 118.161 160.351L107.562 162.969C108.934 163.094 110.181 163.219 111.552 163.343C115.667 162.595 123.397 161.224 131.626 159.354Z" fill="#994F55"/>
<path d="M124.518 136.039C127.012 134.044 130.129 130.677 134.618 127.311C135.241 126.189 135.74 125.191 135.989 124.318C134.493 125.191 133.246 126.313 132.249 127.685C131.75 128.433 131.251 129.181 130.752 130.054C129.88 131.55 121.401 137.161 113.297 142.397C117.037 140.402 119.905 138.782 121.401 138.033C122.523 137.285 123.521 136.662 124.518 136.039Z" fill="#A75256"/>
<path d="M137.111 125.565C144.592 120.453 156.312 126.438 156.312 126.438C156.312 126.438 159.429 135.165 161.549 145.389C162.297 149.13 156.063 152.496 147.584 155.239L148.831 156.486C148.831 156.486 148.208 156.86 147.459 157.484C150.452 156.985 152.945 156.361 154.317 155.863C162.546 152.746 163.544 141.399 162.92 130.552C162.421 122.697 148.457 122.448 141.101 122.822C139.355 122.947 137.61 123.445 135.989 124.318C135.739 125.315 135.241 126.313 134.617 127.31C135.365 126.687 136.113 126.064 137.111 125.565Z" fill="#A75256"/>
<path d="M122.275 137.535C123.023 137.286 123.771 136.662 124.519 136.039C123.522 136.662 122.524 137.286 121.402 137.909C121.776 137.66 122.026 137.535 122.275 137.535Z" fill="#A75256"/>
<path d="M87.2348 155.614C87.1101 155.988 87.4842 156.238 88.1076 156.238C89.9779 155.24 91.9727 154.118 93.9676 152.996C90.9753 153.62 87.6089 154.368 87.2348 155.614Z" fill="#A75256"/>
<path d="M148.831 156.489L147.584 155.242C142.722 156.863 137.111 158.235 131.625 159.481C137.36 158.983 142.971 158.235 147.335 157.486C148.208 156.863 148.831 156.489 148.831 156.489Z" fill="#A75256"/>
<path d="M129.257 132.799C131.876 130.804 133.496 128.933 134.494 127.312C130.005 130.679 127.013 134.045 124.395 136.04C126.514 134.793 128.135 133.796 129.257 132.799Z" fill="#A75256"/>
<path d="M121.404 137.91C119.907 138.658 117.04 140.279 113.299 142.274C113.05 142.399 112.925 142.523 112.676 142.648C115.793 141.027 118.785 139.406 121.404 137.91Z" fill="#A75256"/>
<path d="M93.8451 155.988C84.3692 157.983 100.827 157.858 104.568 159.853C105.939 160.601 111.301 160.601 118.283 160.352L146.087 153.494L147.583 155.115C156.062 152.372 162.296 149.006 161.548 145.265C159.428 135.166 156.311 126.313 156.311 126.313C156.311 126.313 144.591 120.453 137.11 125.441C136.237 126.064 135.364 126.687 134.616 127.311C133.619 128.932 131.998 130.802 129.38 132.797C128.257 133.67 126.512 134.792 124.642 136.039C123.769 136.662 123.021 137.161 122.397 137.535C122.273 137.659 121.899 137.784 121.525 137.909C118.906 139.405 115.914 141.026 112.797 142.647C105.815 147.011 99.3311 151 98.4583 151.624C97.7103 152.123 95.9647 152.497 94.0945 152.871C92.0995 153.993 90.1046 155.115 88.2344 156.112C90.8527 156.112 98.957 152.995 109.555 151.25C122.771 149.255 103.321 153.993 93.8451 155.988Z" fill="#A75256"/>
<path d="M146.089 153.496L118.285 160.354C122.4 160.229 127.138 159.855 131.751 159.356C137.112 158.109 142.848 156.738 147.71 155.117L146.089 153.496Z" fill="#A75256"/>
<path d="M158.434 88.4121C159.68 89.2849 160.803 90.2824 161.675 91.1551C161.301 89.5343 160.054 88.4121 158.434 88.4121Z" fill="#F37880"/>
<path d="M154.691 91.7763C154.691 93.6465 156.312 95.1427 158.182 95.1427C160.053 95.1427 161.674 93.5218 161.674 91.6516C161.674 91.4022 161.674 91.2775 161.674 91.0282C160.801 90.1554 159.679 89.1579 158.432 88.2852H158.307C156.312 88.4098 154.691 89.9061 154.691 91.7763ZM160.801 91.9009C160.801 93.1478 159.803 94.1452 158.432 94.1452C157.185 94.1452 156.063 93.1478 156.063 91.9009C156.063 90.6541 157.06 89.6567 158.432 89.6567C159.803 89.6567 160.801 90.6541 160.801 91.9009Z" fill="#F37880"/>
<path d="M156.188 91.9025C156.188 93.1493 157.185 94.1468 158.556 94.1468C159.803 94.1468 160.925 93.1493 160.925 91.9025C160.925 90.6556 159.928 89.6582 158.556 89.6582C157.185 89.6582 156.188 90.6556 156.188 91.9025ZM157.933 90.6556C158.307 90.531 158.93 90.4063 159.429 90.7803C160.177 91.4037 160.053 92.0272 159.928 92.1519C159.679 92.5259 159.554 93.0246 157.808 92.6506C157.559 92.6506 157.06 92.2765 157.185 91.6531C157.06 91.2791 157.434 90.7803 157.933 90.6556Z" fill="#A75256"/>
<path d="M168.532 97.512C168.408 97.2626 168.283 97.0133 168.158 96.7639C167.659 96.0158 167.535 95.7664 167.161 95.5171C166.911 95.3924 165.041 94.2702 164.293 93.7715C165.041 94.2702 167.285 95.517 167.41 95.6417C167.659 95.8911 168.283 96.7639 168.532 97.512Z" fill="#F37880"/>
<path d="M162.422 96.5145C162.547 96.5145 162.547 96.5145 162.422 96.5145C162.547 96.5145 166.536 97.3873 167.285 97.2626C167.659 97.2626 168.157 97.3873 168.531 97.512C168.282 96.7639 167.534 95.8911 167.409 95.7664C167.284 95.6417 165.04 94.3949 164.292 93.8962C164.167 93.7715 164.043 93.7715 164.043 93.7715C164.043 93.7715 162.921 95.5171 162.422 96.5145Z" fill="#F37880"/>
<path d="M137.734 180.177C137.609 179.928 137.36 179.554 137.11 179.18C136.986 179.429 136.861 179.678 136.612 179.928C135.739 180.676 133.12 180.302 132.871 181.549C133.744 181.299 134.492 181.424 135.24 181.549C136.238 181.424 137.36 181.175 138.357 180.925C137.983 180.551 137.858 180.302 137.734 180.177Z" fill="#A75256"/>
<path d="M138.859 179.179L137.113 178.057C137.113 178.057 137.238 178.555 136.988 179.054C137.238 179.553 137.487 179.927 137.612 180.052C137.736 180.176 137.986 180.426 138.11 180.675C138.36 180.675 138.734 180.55 138.983 180.426C138.235 180.052 138.859 179.179 138.859 179.179Z" fill="#A75256"/>
<path d="M157.686 92.6509C159.431 93.0249 159.556 92.5262 159.805 92.1521C159.93 92.0275 160.055 91.404 159.306 90.7806C158.808 90.4066 158.309 90.5312 157.81 90.6559C157.312 90.7806 157.062 91.1547 156.938 91.6534C156.938 92.4015 157.436 92.6509 157.686 92.6509Z" fill="#5C414E"/>
<path d="M168.653 98.2598C168.653 98.3845 168.653 98.3845 168.653 98.3845C168.404 98.6339 167.905 98.5092 166.908 98.3845C165.786 98.2598 163.043 98.3845 163.043 98.3845H162.918C163.292 99.0079 164.913 98.6339 165.412 98.5092C165.91 98.3845 168.404 99.0079 169.027 98.3845C169.401 98.0105 169.152 97.7611 168.778 97.5117C168.778 97.6364 168.778 97.6364 168.903 97.7611C168.653 98.0105 168.653 98.1351 168.653 98.2598Z" fill="#E5737E"/>
<path d="M162.297 97.264C162.297 97.1394 162.422 96.89 162.422 96.6406C161.923 96.89 162.297 97.7628 162.546 98.3862C162.546 98.3862 162.546 98.5109 162.671 98.5109H162.796C162.796 98.2615 162.297 97.8874 162.297 97.264Z" fill="#E5737E"/>
<path d="M168.657 98.3867C168.657 98.3867 168.532 98.5114 168.657 98.3867C168.657 98.5114 168.657 98.3867 168.657 98.3867Z" fill="#E5737E"/>
<path d="M168.652 97.7611C168.652 97.6364 168.652 97.6364 168.527 97.5117C168.527 97.6364 168.652 97.7611 168.652 97.7611Z" fill="#E5737E"/>
<path d="M163.541 98.3863C163.292 98.3863 163.043 98.3863 162.918 98.511C162.918 98.511 165.786 98.3863 166.783 98.511C167.781 98.6356 168.404 98.6356 168.529 98.511C168.03 98.7603 165.661 98.1369 163.541 98.3863Z" fill="#E5737E"/>
<path d="M162.796 98.3856C163.046 98.3856 163.17 98.3855 163.42 98.2609C165.664 98.0115 167.908 98.7596 168.532 98.3856V98.2609C168.532 98.1362 168.532 98.0115 168.532 97.7621C168.532 97.6375 168.532 97.6374 168.407 97.5128C168.033 97.3881 167.659 97.2634 167.16 97.2634C166.287 97.2634 162.422 96.3906 162.422 96.3906H162.297C162.173 96.64 162.048 96.8894 162.173 97.014C162.297 97.8868 162.796 98.2609 162.796 98.3856Z" fill="#E5737E"/>
<path d="M233.339 344.519L237.256 344.541L237.359 340.624L246.087 9.21864L246.195 5.12679L242.102 5.11336L14.1821 4.36526L10.2379 4.35231L10.1696 8.29592L4.43419 339.203L4.36405 343.25L8.41142 343.272L233.339 344.519Z" stroke="#FFF1F0" stroke-width="8"/>
</svg>
