<svg width="251" height="349" fill="none" xmlns="http://www.w3.org/2000/svg"><path d="M233.361 340.519L8.434 339.272 14.169 8.365l227.919.748-8.727 331.406z" fill="#A75256"/><g opacity=".3" stroke="#FEF1F0" stroke-width="2" stroke-miterlimit="10"><g opacity=".3"><path opacity=".3" d="M145.339 23.951L25.769 137.287l-.25 9.352L154.94 23.951h-9.601zM193.34 24.076L24.894 183.545l-.124 9.226L202.94 24.201l-9.601-.125z"/><path opacity=".3" d="M183.744 24.076L25.024 174.318l-.126 9.227L193.344 24.076h-9.6zM154.94 23.951L25.52 146.64l-.125 9.226L164.54 24.075l-9.6-.124zM174.14 24.076L25.269 165.092l-.25 9.226L183.74 24.076h-9.6z"/><path opacity=".3" d="M164.54 24.076L25.394 155.865l-.124 9.227L174.14 24.076h-9.6zM202.944 24.2L24.773 192.77l-.25 9.226L212.545 24.199h-9.601z"/><path opacity=".3" d="M212.54 24.2L24.52 201.995l-.125 9.227L222.266 24.199h-9.726zM229.001 45.147L23.898 238.778l-.125 9.102L228.751 54.498l.25-9.351z"/><path opacity=".3" d="M228.751 54.498L23.773 247.88l-.25 9.227L228.501 63.849l.25-9.351zM229.25 35.797L24.023 229.553l-.125 9.227L229.001 45.148l.249-9.351zM229.625 24.324l-7.356-.125-197.87 187.024-.126 9.102L229.501 26.444l.124-2.12z"/><path opacity=".3" d="M229.496 26.445L24.269 220.326l-.25 9.227L229.248 35.797l.249-9.352zM87.735 23.701l-60.97 57.977-.25 9.352 70.82-67.204-9.6-.125zM68.535 23.701l-41.52 39.4-.124 9.351 51.244-48.75h-9.6zM49.334 23.576L27.39 44.398l-.124 9.351 31.669-30.048-9.6-.125z"/><path opacity=".3" d="M58.934 23.701L27.265 53.75l-.25 9.35 41.52-39.399h-9.6zM39.734 23.576L27.515 35.172l-.124 9.226 21.944-20.822h-9.6zM30.13 23.576l-2.369 2.244-.25 9.352 12.22-11.596h-9.6z"/><path opacity=".3" d="M27.762 23.576v2.244l2.369-2.244h-2.37zM126.135 23.951l-100.12 94.883-.124 9.227 109.845-104.11h-9.601zM106.935 23.824L26.39 100.255l-.124 9.226 90.27-85.657h-9.601z"/><path opacity=".3" d="M116.539 23.824l-90.27 85.657-.25 9.351L126.14 23.949l-9.601-.125zM135.739 23.951L25.894 128.061l-.124 9.227L145.34 23.951h-9.601zM97.339 23.824l-70.82 67.204-.124 9.227 80.544-76.43h-9.6zM78.139 23.701L26.894 72.452l-.124 9.227L87.74 23.7h-9.601zM228.501 63.85L23.523 257.107l-.125 9.102L228.376 73.076l.125-9.226zM222.641 294.76l-38.278 35.659h9.601l28.427-26.557.25-9.102zM224.016 239.652l-96.629 90.395 9.6.125 86.779-81.293.25-9.227zM224.26 230.424l-106.354 99.621h9.476l96.629-90.395.249-9.226zM223.519 257.979l-77.054 72.191h9.476l67.453-62.965.125-9.226zM225.01 202.871L89.48 329.922h9.476l125.805-117.824.249-9.227z"/><path opacity=".3" d="M224.513 221.197L108.434 329.92l9.475.125 106.355-99.621.249-9.227z"/><path opacity=".3" d="M224.762 212.096L98.957 329.921h9.476l116.079-108.723.25-9.102zM223.763 248.877l-86.779 81.293h9.476l77.054-72.191.249-9.102zM223.391 267.207l-67.453 62.965 9.475.124 57.728-53.862.25-9.227zM221.766 330.545l.125-8.354-8.977 8.354h8.852z"/><path opacity=".3" d="M221.894 322.189l.25-9.226-18.703 17.455 9.476.125 8.977-8.354z"/><path opacity=".3" d="M222.392 303.863l-28.427 26.558h9.476l18.702-17.456.249-9.102zM222.889 285.533l-48.002 44.761 9.476.125 38.277-35.659.249-9.227z"/><path opacity=".3" d="M223.142 276.434l-57.728 53.862h9.476l48.003-44.761.249-9.101zM226.634 138.16L23.027 329.548h9.476l193.881-182.161.25-9.227zM227.627 101.004L22.898 293.763l-.125 9.102 204.604-192.51.25-9.351zM227.381 110.355L22.777 302.865l-.125 9.102 204.48-192.385.249-9.227zM226.881 128.809L22.402 321.194l-.125 8.353h.748L226.632 138.16l.249-9.351z"/><path opacity=".3" d="M227.131 119.582L22.651 311.967l-.249 9.226 204.479-192.384.25-9.227zM227.88 91.777L23.027 284.536l-.125 9.227 204.729-192.759.249-9.227z"/><path opacity=".3" d="M228.13 82.426L23.277 275.434l-.25 9.102L227.88 91.777l.25-9.351zM228.38 73.074L23.402 266.207l-.125 9.227L228.131 82.425l.249-9.35zM225.76 175.189L61.055 329.671l9.476.125 154.98-145.38.249-9.227z"/><path opacity=".3" d="M225.508 184.416l-154.98 145.38h9.475l145.255-136.153.25-9.227zM225.884 165.838L51.578 329.671h9.476l164.705-154.482.125-9.351zM226.381 147.387L32.5 329.548h9.6l184.032-172.935.249-9.226z"/><path opacity=".3" d="M226.133 156.611L42.102 329.546l9.475.124 174.306-163.832.25-9.227zM225.263 193.643L80.008 329.796l9.476.124 135.529-127.051.25-9.226z"/></g><g opacity=".3"><path opacity=".3" d="M111.925 23.824l114.708 114.334-.25 9.351L102.324 23.824h9.601zM63.92 23.7L225.51 184.417l-.249 9.227L54.32 23.576l9.6.125z"/><path opacity=".3" d="M73.519 23.701L225.755 175.19l-.25 9.227L63.918 23.701h9.6zM102.323 23.824L226.382 147.51l-.249 9.227L92.723 23.824h9.6zM83.124 23.701l142.761 142.263-.124 9.226L73.523 23.701h9.601z"/><path opacity=".3" d="M92.725 23.826l133.411 132.911-.25 9.227L83.125 23.701l9.6.125zM54.32 23.576l170.939 170.067-.25 9.226L44.719 23.576h9.6z"/><path opacity=".3" d="M44.722 23.576l180.29 179.293-.249 9.227L35.121 23.576h9.6zM27.39 44.397l196.624 195.377-.249 9.102-196.5-195.128.125-9.351z"/><path opacity=".3" d="M27.265 53.748l196.499 195.128-.249 9.226-196.5-195.127.25-9.227zM27.515 35.047l196.749 195.502-.249 9.226L27.391 44.398l.124-9.351zM27.762 23.576h7.356l189.642 188.52-.249 9.226L27.761 25.696v-2.12z"/><path opacity=".3" d="M27.761 25.695L224.51 221.322l-.249 9.226L27.511 35.047l.25-9.352zM169.526 24.076l58.601 58.352-.249 9.35-67.952-67.702h9.6zM188.729 24.076l39.774 39.774-.125 9.351-49.249-49.125h9.6zM208.053 24.2L229 45.27l-.249 9.227-30.423-30.298h9.725z"/><path opacity=".3" d="M198.327 24.2L228.75 54.5l-.25 9.35-39.773-39.773 9.6.125zM217.655 24.2l11.596 11.72-.25 9.35-20.946-21.07h9.6z"/><path opacity=".3" d="M227.253 24.2l2.244 2.368-.249 9.351-11.596-11.72h9.601zM229.623 24.324l-.125 2.244-2.244-2.369 2.369.125zM131.128 23.949l96.005 95.756-.249 9.226L121.527 23.824l9.601.125zM150.327 23.951l77.303 77.179-.249 9.226-86.654-86.405h9.6z"/><path opacity=".3" d="M140.725 23.951l86.655 86.405-.25 9.351-96.005-95.756h9.6zM121.522 23.824l105.357 105.107-.249 9.227L111.922 23.824h9.6zM159.925 24.076l67.952 67.702-.25 9.352-77.303-77.179 9.601.125zM179.128 24.076l49.249 49.125-.249 9.227-58.601-58.352h9.601zM27.015 62.975l196.5 195.128-.125 9.226L26.89 72.326l.125-9.351zM22.898 293.639l36.657 36.033h-9.6l-27.182-26.807.125-9.226zM23.898 238.652l92.514 91.393-9.475-.125-83.164-82.041.125-9.227z"/><path opacity=".3" d="M24.023 229.551L125.89 330.045h-9.476l-92.515-91.392.125-9.102zM23.523 256.98l73.937 72.94-9.476-.125-64.586-63.588.125-9.227zM24.52 201.871l129.918 128.298h-9.476L24.395 211.098l.124-9.227z"/><path opacity=".3" d="M24.269 220.326L135.36 330.171l-9.476-.124L24.02 229.553l.249-9.227zM24.398 211.1l120.568 119.071h-9.601L24.273 220.326l.125-9.226zM23.773 247.881l83.163 82.041H97.46l-73.937-72.939.25-9.102zM23.402 266.207l64.585 63.588h-9.475l-55.235-54.486.125-9.102zM22.277 329.547l.125-8.479 8.603 8.479h-8.728z"/><path opacity=".3" d="M22.402 321.069l.25-9.102 17.83 17.58h-9.477l-8.603-8.478z"/><path opacity=".3" d="M22.777 302.865l27.18 26.807-9.475-.125-17.83-17.58.125-9.102zM23.027 284.537l46.008 45.26-9.476-.125-36.657-36.033.125-9.102z"/><path opacity=".3" d="M23.277 275.311l55.234 54.486h-9.476l-46.008-45.26.25-9.226zM25.769 137.285l195.128 193.258h-9.476L25.52 146.512l.249-9.227zM26.39 100.131L222.64 294.76l-.249 9.227L26.266 109.482l.124-9.351z"/><path opacity=".3" d="M26.269 109.482l196.125 194.505-.249 9.102-196.126-194.38.25-9.227zM25.894 128.061l196.001 194.13-.125 8.354h-.872L25.769 137.287l.125-9.226z"/><path opacity=".3" d="M26.015 118.709l196.126 194.38-.25 9.102-196-194.131.124-9.351zM26.52 90.904l196.374 194.754-.249 9.102-196.25-194.629.124-9.227z"/><path opacity=".3" d="M26.765 81.678L223.14 276.432l-.25 9.226L26.516 90.904l.249-9.226zM26.894 72.326l196.5 195.003-.25 9.102L26.769 81.677l.125-9.35zM25.023 174.193L182.871 330.42l-9.476-.124L24.898 183.42l.125-9.227zM24.894 183.418l148.497 146.876h-9.476L24.77 192.644l.124-9.226z"/><path opacity=".3" d="M25.269 164.967L192.468 330.42h-9.601L25.02 174.193l.249-9.226zM25.52 146.512L211.42 330.543l-9.476-.125-176.55-174.68.124-9.226zM25.394 155.74l176.551 174.68h-9.476l-167.2-165.453.125-9.227zM24.773 192.645l139.145 137.649-9.476-.125L24.523 201.871l.25-9.226z"/></g></g><path d="M164.915 192.524c-3.242.125-15.835 5.736-27.181 11.596-.748.374-1.496.873-2.244 1.247-8.105 5.112-16.583 10.722-17.456 12.219-.499.872-.997 1.62-1.496 2.368-.998 1.372-2.244 2.494-3.741 3.242-.748 2.245-.748 4.239-1.496 6.359-1.496 4.364-1.496 22.069-8.977 29.425-3.865 3.741-8.354 2.244-11.845-.249-1.62 0-2.992-1.122-3.241-2.743-1.497-1.496-2.37-2.619-2.37-2.619s-.124-.124-.249-.124c-.748-.374-2.618-1.497-2.868-1.621-.374-.25-.498-.499-.997-1.122l-.374-.748c-.374-.25-.623-.499-.25-.873.624-.624 2.993-.125 3.617-.125.498 0 2.12-.499 2.493.125 1.87-.25 2.244-.873 3.616-5.736.748-2.369-9.102-22.692-10.473-35.16-1.247-12.468 19.575-20.573 25.934-23.69.498-.249 1.246-.498 2.244-.623.374-.624.499-1.372.623-2.12.25-3.74 0-10.473-1.122-13.964-27.555 7.231-48.127 31.295-48.626 60.097-.623 34.412 27.68 62.341 63.339 62.59 35.659.125 65.208-27.554 66.081-61.967.374-14.837-4.738-28.427-13.341-39.275.125 1.746-4.239 3.117-9.6 3.491z" fill="#974B52"/><path d="M173.892 188.16c-.748-.873-1.496-1.746-2.244-2.494-.998.499-2.12 1.122-3.367 1.746 2.494.124 4.489.249 5.611.748zM116.04 166.215c-.249 1.246-2.868.872-3.741 1.62-.249.25-.374.499-.498.749 1.371 2.618 4.364 8.727 7.481 11.346 2.743 2.244 15.585 3.241 22.068 3.615 6.484-1.122 20.199-2.369 23.316-2.618.499 0 1.122-.125 1.87-.249-11.096-9.476-25.809-15.336-41.893-15.336-3.74 0-7.356.249-10.847.873.623.249 1.496.249 2.244 0z" fill="#974B52"/><path d="M108.309 181.551c0 .623-.249 1.371-.623 2.119 5.486-.872 17.83-.249 29.55.748 1.122-.249 1.87-.374 2.369-.498.498-.125.997-.25 1.621-.374-6.484-.374-19.326-1.372-22.069-3.616-3.117-2.618-6.11-8.728-7.481-11.346-.25.498-.125.997-.125.997l-1.745-1.122s.748-.873-.25-1.496c-.873.125-1.621.374-2.494.623 1.247 3.491 1.497 10.224 1.247 13.965z" fill="#974B52"/><path d="M174.643 188.908c0-.374-.374-.623-.748-.748.249.25.498.624.748.873v-.125zM160.676 191.402c.623 0 .997.125.873.624-.374 1.371-3.616 1.995-6.733 2.618-5.86 3.242-11.97 6.608-17.082 9.476 11.346-5.86 23.939-11.471 27.181-11.596 5.237-.249 9.725-1.745 9.601-3.366-.25-.249-.499-.623-.748-.873-.998-.499-3.117-.623-5.736-.748a246.06 246.06 0 00-7.356 3.865zM86.115 216.96c-.623-10.723.374-22.069 8.603-25.186 1.497-.499 3.866-1.122 6.858-1.621 1.87-1.371 4.863-3.865 6.234-6.608-.997.125-1.745.374-2.244.623-6.359 3.117-27.181 11.346-25.934 23.69 1.247 12.468 11.097 32.791 10.473 35.16-1.371 4.738-1.745 5.362-3.616 5.736l.125.125c.25.623.623 1.62.125 1.745-.374 1.122-1.496 2.743-1.496 2.743s-.125-.125-.25-.125c.125.125.25.125.25.125s.872 1.122 2.369 2.618v-.623c0-1.87 1.496-3.366 3.49-3.366 1.87 0 3.492 1.496 3.492 3.241 0 1.871-1.496 3.367-3.491 3.367h-.125c3.491 2.369 7.98 3.99 11.845.249 7.481-7.356 7.481-25.061 8.977-29.425.748-2.12.748-4.114 1.496-6.359-1.496.873-3.242 1.372-4.987 1.496-7.855.499-21.695.25-22.194-7.605z" fill="#A75256"/><path d="M101.578 190.28c4.364-.748 9.975-1.497 15.71-1.995 8.229-1.871 15.959-3.117 20.074-3.865-11.595-.998-23.939-1.621-29.55-.749-1.371 2.619-4.488 5.237-6.234 6.609z" fill="#A75256"/><path d="M171.526 185.542c1.372-.748 2.369-1.247 2.868-1.372 4.114-1.496 8.104-3.491 7.107-4.738-.748-.997-10.349.748-15.087 1.372a46.86 46.86 0 015.112 4.738z" fill="#994F55"/><path d="M141.348 183.546c2.369.124 3.865.124 3.865.124l-3.865.998c9.6.873 18.079 1.87 20.822 2.119 2.244.25 4.364.375 6.109.499 1.247-.748 2.494-1.247 3.367-1.745-1.621-1.746-3.242-3.242-4.988-4.738-.748.124-1.496.124-1.87.249-3.242.125-16.957 1.372-23.44 2.494zM135.488 205.364c.748-.374 1.496-.873 2.245-1.247-.499.25-1.123.624-1.621.873-.125.125-.374.249-.624.374z" fill="#994F55"/><path d="M137.234 184.418c1.372.125 2.743.249 3.99.374l3.865-.997s-1.496 0-3.865-.125c-.623.125-1.247.249-1.621.374-.498 0-1.246.125-2.369.374zM136.113 204.866c.499-.249 1.122-.623 1.621-.873 5.112-2.867 11.222-6.234 17.082-9.475-1.871.374-3.616.748-4.364 1.246-.873.748-7.357 4.738-14.339 9.102z" fill="#994F55"/><path d="M144.215 187.783c3.741 1.995 20.199 1.746 10.723 3.866-9.476 1.994-28.926 6.732-15.585 4.613 10.598-1.746 18.702-4.738 21.32-4.863 2.743-1.496 5.362-2.868 7.481-3.99-1.745-.124-3.865-.249-6.109-.498-2.743-.374-11.221-1.247-20.822-2.12l-10.598 2.618c6.858-.374 12.344-.249 13.59.374zM117.164 188.283c4.613-.374 9.227-.748 13.341-.998l10.598-2.618c-1.371-.125-2.618-.249-3.99-.374-3.865.748-11.595 2.12-19.949 3.99z" fill="#994F55"/><path d="M124.393 211.474c-2.494 1.995-5.611 5.237-9.975 8.603-.623 1.123-1.122 1.995-1.371 2.993 1.496-.748 2.743-1.87 3.74-3.242.499-.623.998-1.496 1.496-2.369.873-1.496 9.352-7.107 17.456-12.219-3.74 1.995-6.608 3.616-8.104 4.364-1.247.748-2.369 1.372-3.242 1.87zM111.798 221.948c-7.356 4.988-19.077-.872-19.077-.872s-3.117-8.728-5.36-18.828c-.874-3.74 5.36-7.106 13.839-9.849l-1.247-1.247s.623-.374 1.372-.998c-2.993.499-5.362 1.122-6.858 1.621-8.104 3.117-9.227 14.463-8.603 25.186.499 7.855 14.338 8.104 21.819 7.73 1.746-.124 3.491-.623 4.988-1.496.249-.997.748-1.995 1.371-2.992-.499.623-1.247 1.122-2.244 1.745z" fill="#A75256"/><path d="M126.635 210.103c-.748.249-1.496.748-2.244 1.496.997-.624 1.995-1.247 3.117-1.87-.374.124-.748.249-.873.374zM161.549 192.024c.125-.374-.249-.624-.873-.624-1.87.998-3.865 2.12-5.86 3.242 2.993-.623 6.359-1.247 6.733-2.618zM100.078 191.153l1.247 1.246c4.863-1.621 10.473-2.992 15.835-4.239-5.736.499-11.347 1.247-15.71 1.995-.748.748-1.372.998-1.372.998zM119.53 214.715c-2.619 1.995-4.24 3.865-5.237 5.486 4.364-3.367 7.481-6.733 9.975-8.603-1.871 1.122-3.492 2.244-4.738 3.117zM127.508 209.73c1.496-.748 4.364-2.369 8.104-4.364.25-.124.374-.249.624-.374-3.242 1.496-6.11 3.117-8.728 4.738z" fill="#A75256"/><path d="M155.066 191.65c9.475-1.995-6.983-1.87-10.723-3.865-1.372-.748-6.733-.749-13.715-.499l-27.804 6.733-1.496-1.621c-8.479 2.743-14.713 6.109-13.84 9.85 2.244 10.099 5.361 18.827 5.361 18.827s11.72 5.86 19.077.873a98.629 98.629 0 012.493-1.746c.998-1.621 2.619-3.366 5.237-5.486 1.122-.873 2.743-1.995 4.738-3.242.748-.623 1.621-1.122 2.244-1.496.125-.125.499-.249.873-.374a256.081 256.081 0 018.728-4.738c6.982-4.364 13.465-8.354 14.338-8.977.748-.499 2.494-.873 4.364-1.247 1.995-1.122 3.99-2.119 5.86-3.242-2.618 0-10.723 3.117-21.321 4.863-13.341 2.12 6.11-2.618 15.586-4.613z" fill="#A75256"/><path d="M102.821 194.143l27.804-6.733c-4.115.125-8.853.499-13.341.998-5.361 1.246-10.972 2.618-15.835 4.239l1.372 1.496z" fill="#A75256"/><path d="M90.73 258.727a24.786 24.786 0 01-3.242-2.743c.25 1.621 1.621 2.743 3.242 2.743z" fill="#F37880"/><path d="M94.342 255.362c0-1.87-1.497-3.366-3.492-3.241-1.87 0-3.49 1.496-3.49 3.366v.623a24.78 24.78 0 003.241 2.743h.125c2.12-.124 3.616-1.62 3.616-3.491zm-6.11-.124c0-1.247.998-2.245 2.37-2.245 1.246 0 2.368.998 2.368 2.245 0 1.246-.997 2.244-2.369 2.244-1.247 0-2.369-.998-2.369-2.244z" fill="#F37880"/><path d="M92.972 255.238c0-1.246-.997-2.244-2.369-2.244-1.246 0-2.369.998-2.369 2.244 0 1.247.998 2.245 2.37 2.245 1.246 0 2.368-.998 2.368-2.245zm-1.745 1.247c-.374.125-.998.25-1.496-.124-.748-.624-.624-1.247-.5-1.372.25-.374.375-.873 2.12-.499.25 0 .749.374.624.998 0 .374-.25.748-.748.997z" fill="#A75256"/><path d="M80.629 249.627l.374.748c.499.623.623.998.997 1.122.25.125 2.12 1.247 2.868 1.621-.748-.499-2.992-1.745-3.117-1.87-.25 0-.873-.873-1.122-1.621z" fill="#F37880"/><path d="M86.614 250.624s0 .125 0 0c-.125 0-4.115-.872-4.863-.748-.374 0-.873-.124-1.122-.249.25.748.997 1.621 1.122 1.746.125.124 2.369 1.371 3.117 1.87.125.124.25.124.25.124s1.122-1.62 1.496-2.743z" fill="#F37880"/><path d="M111.178 167.584c.125.25.374.624.624.998.124-.25.249-.499.498-.748.873-.748 3.491-.374 3.741-1.621-.873.249-1.621.125-2.369 0-.998.125-2.12.374-3.117.623.249.25.498.499.623.748z" fill="#5C424E"/><path d="M109.929 168.584l1.746 1.122s-.125-.499.125-.997c-.25-.499-.499-.873-.624-.998-.124-.124-.374-.374-.499-.623-.249 0-.623.125-.872.249.872.374.124 1.247.124 1.247z" fill="#5C424E"/><path d="M91.35 254.49c-1.745-.374-1.87.125-2.119.499-.125.124-.25.748.499 1.371.498.374.997.249 1.496.125.499-.125.748-.499.873-.998 0-.748-.5-.997-.748-.997z" fill="#5C414E"/><path d="M80.379 249.004c0-.125.124-.125 0 0v-.125c.124-.249.748-.124 1.745 0 1.122.125 3.866 0 3.866 0h.124c-.374-.623-1.995-.249-2.493-.124-.5.124-2.993-.499-3.616.124-.25.374-.125.624.25.873 0-.125 0-.125-.126-.249.374-.25.25-.374.25-.499zM86.862 250.001c0 .124 0 .374-.125.623.499-.249.125-1.122-.124-1.745 0 0 0-.125-.125-.125h-.125c0 .125.374.623.499 1.247zM80.505 248.879s-.125 0 0 0v0z" fill="#E5737E"/><path d="M80.504 249.379c0 .125 0 .125.125.249-.125-.124-.125-.124-.125-.249zM85.616 248.88c.25 0 .374 0 .624-.125 0 0-2.868.125-3.866 0-.997-.124-1.62-.124-1.745 0 .499-.374 2.743.374 4.987.125z" fill="#E5737E"/><path d="M86.24 248.755c-.25 0-.375 0-.624.125-2.244.249-4.489-.499-5.112-.125v.624c0 .124 0 .124.125.249.374.125.748.249 1.122.249.748 0 4.738.873 4.738.873h.124c.125-.249.25-.499.125-.623 0-.748-.374-1.247-.499-1.372z" fill="#E5737E"/><path d="M83.871 155.241c3.242-.125 15.835-5.736 27.181-11.596.748-.498 1.496-.872 2.244-1.247 8.105-5.112 16.583-10.847 17.456-12.343.499-.873.997-1.621 1.496-2.369a12.095 12.095 0 013.74-3.366c.749-2.245.749-4.24 1.497-6.359 1.496-4.364 1.496-22.318 9.101-29.8 3.866-3.865 8.354-2.244 11.845.125 1.621 0 2.993 1.247 3.242 2.743 1.496 1.496 2.369 2.619 2.369 2.619s.125.124.249.124c.748.374 2.619 1.496 2.868 1.746.374.25.499.499.997 1.247l.375.748c.374.25.623.498.249.873-.624.623-3.117.124-3.616.124-.499 0-2.119.499-2.493-.124-1.871.249-2.245.872-3.616 5.735-.748 2.369 9.101 22.942 10.348 35.41 1.247 12.468-19.699 20.697-26.058 23.814-.499.249-1.247.499-2.245.624-.374.748-.498 1.371-.623 2.119-.249 3.741 0 10.473.998 13.965 27.554-7.232 48.252-31.42 49-60.347.872-34.786-27.68-63.214-63.588-63.338-35.909-.125-65.583 28.053-66.331 62.84-.25 14.961 4.862 28.676 13.59 39.399 0-1.621 4.489-3.117 9.725-3.366z" fill="#974B52"/><path d="M75.016 159.48l2.244 2.619c.997-.499 2.12-1.122 3.366-1.746-2.618-.249-4.613-.374-5.61-.873zM132.871 181.425c.25-1.247 2.868-.873 3.741-1.621.249-.25.374-.499.499-.748-1.372-2.619-4.364-8.728-7.481-11.346-2.743-2.245-15.586-3.242-22.069-3.616-6.484 1.122-20.199 2.369-23.316 2.618-.499 0-1.122.125-1.87.249 11.097 9.476 25.809 15.336 41.893 15.336 3.741 0 7.357-.249 10.848-.872-.748-.125-1.497-.25-2.245 0z" fill="#974B52"/><path d="M140.479 166.088c0-.748.249-1.371.623-2.119-5.486.873-17.954.249-29.55-.748-1.122.249-1.87.374-2.369.498-.498.125-.997.25-1.621.374 6.484.375 19.326 1.372 22.069 3.616 3.117 2.619 6.11 8.728 7.481 11.346.25-.498.125-.997.125-.997l1.745 1.122s-.748.873.25 1.496c.873-.124 1.621-.374 2.494-.623-1.247-3.367-1.497-10.224-1.247-13.965zM74.273 158.732c.125.374.374.624.749.748-.25-.249-.5-.623-.749-.873v.125zM88.108 156.239c-.624 0-.998-.125-.873-.623.374-1.372 3.616-1.995 6.733-2.619 5.86-3.241 11.969-6.608 17.081-9.476-11.346 5.861-23.939 11.471-27.18 11.596-5.237.249-9.725 1.746-9.6 3.366.248.25.498.624.747.873.998.499 3.117.624 5.736.748 2.12-.997 4.613-2.369 7.356-3.865zM162.92 130.553c.623 10.847-.499 22.193-8.603 25.311-1.497.498-3.866 1.122-6.858 1.62-1.87 1.372-4.863 3.866-6.234 6.609.997-.125 1.745-.374 2.244-.624 6.359-3.242 27.306-11.346 26.059-23.814-1.247-12.468-11.097-33.041-10.349-35.41 1.372-4.863 1.87-5.486 3.616-5.735l-.125-.125c-.249-.624-.623-1.62-.124-1.746.498-1.122 1.621-2.867 1.621-2.867s.124.124.249.124c-.125-.124-.249-.124-.249-.124s-.873-1.247-2.369-2.619v.624c0 1.87-1.621 3.366-3.492 3.49-1.87 0-3.491-1.495-3.491-3.366 0-1.87 1.621-3.366 3.491-3.49h.125c-3.491-2.494-7.98-3.99-11.845-.125-7.481 7.48-7.605 25.435-9.102 29.799-.748 2.119-.748 4.114-1.496 6.359 1.496-.873 3.242-1.372 5.112-1.497 7.357-.623 21.321-.374 21.82 7.606z" fill="#A75256"/><path d="M147.335 157.484c-4.364.748-9.975 1.497-15.71 1.995-8.229 1.871-16.084 3.117-20.074 3.865 11.595.998 24.064 1.621 29.55.749 1.371-2.743 4.488-5.362 6.234-6.609z" fill="#A75256"/><path d="M77.262 162.1c-1.371.748-2.369 1.246-2.867 1.371-4.115 1.496-8.105 3.491-7.107 4.738.748.997 10.348-.748 15.086-1.371-1.87-1.497-3.49-3.118-5.112-4.738z" fill="#994F55"/><path d="M107.56 164.094c-2.369-.125-3.866-.125-3.866-.125l3.866-.997c-9.601-.873-18.08-1.87-20.822-2.12-2.245-.249-4.364-.374-6.11-.498-1.247.748-2.493 1.246-3.366 1.745 1.62 1.746 3.242 3.242 4.987 4.738.748-.125 1.496-.125 1.87-.249 3.117-.125 16.957-1.372 23.441-2.494zM113.299 142.273c-.748.374-1.496.873-2.244 1.247.498-.249 1.122-.623 1.621-.873.249-.124.374-.249.623-.374z" fill="#994F55"/><path d="M111.55 163.345c-1.371-.125-2.743-.25-3.99-.374l-3.865.997s1.496 0 3.865.125c.624-.125 1.247-.25 1.621-.374.499 0 1.372-.25 2.369-.374zM112.675 142.648c-.499.25-1.122.624-1.621.873-5.112 2.868-11.221 6.234-17.081 9.476 1.87-.374 3.615-.748 4.364-1.247.872-.623 7.356-4.613 14.338-9.102zM104.568 159.854c-3.865-1.995-20.198-1.746-10.722-3.865 9.475-1.995 28.926-6.858 15.71-4.738-10.599 1.745-18.703 4.738-21.321 4.862-2.743 1.497-5.361 2.868-7.481 3.99 1.745.125 3.865.25 6.11.499 2.742.374 11.22 1.247 20.821 2.12l10.598-2.619c-6.857.499-12.343.499-13.715-.249z" fill="#994F55"/><path d="M131.626 159.354c-4.613.374-9.226.748-13.465.997l-10.599 2.618c1.372.125 2.619.25 3.99.374 4.115-.748 11.845-2.119 20.074-3.989z" fill="#994F55"/><path d="M124.518 136.039c2.494-1.995 5.611-5.362 10.1-8.728.623-1.122 1.122-2.12 1.371-2.993a12.11 12.11 0 00-3.74 3.367c-.499.748-.998 1.496-1.497 2.369-.872 1.496-9.351 7.107-17.455 12.343 3.74-1.995 6.608-3.615 8.104-4.364 1.122-.748 2.12-1.371 3.117-1.994z" fill="#A75256"/><path d="M137.111 125.565c7.481-5.112 19.201.873 19.201.873s3.117 8.727 5.237 18.951c.748 3.741-5.486 7.107-13.965 9.85l1.247 1.247s-.623.374-1.372.998c2.993-.499 5.486-1.123 6.858-1.621 8.229-3.117 9.227-14.464 8.603-25.311-.499-7.855-14.463-8.104-21.819-7.73a12.698 12.698 0 00-5.112 1.496c-.25.997-.748 1.995-1.372 2.992.748-.623 1.496-1.246 2.494-1.745zM122.275 137.535c.748-.249 1.496-.873 2.244-1.496-.997.623-1.995 1.247-3.117 1.87.374-.249.624-.374.873-.374zM87.235 155.614c-.125.374.25.624.873.624 1.87-.998 3.865-2.12 5.86-3.242-2.993.624-6.36 1.372-6.733 2.618z" fill="#A75256"/><path d="M148.831 156.489l-1.247-1.247c-4.862 1.621-10.473 2.993-15.959 4.239 5.735-.498 11.346-1.246 15.71-1.995.873-.623 1.496-.997 1.496-.997zM129.257 132.799c2.619-1.995 4.239-3.866 5.237-5.487-4.489 3.367-7.481 6.733-10.099 8.728 2.119-1.247 3.74-2.244 4.862-3.241zM121.404 137.91c-1.497.748-4.364 2.369-8.105 4.364-.249.125-.374.249-.623.374a257.039 257.039 0 008.728-4.738z" fill="#A75256"/><path d="M93.845 155.988c-9.476 1.995 6.982 1.87 10.723 3.865 1.371.748 6.733.748 13.715.499l27.804-6.858 1.496 1.621c8.479-2.743 14.713-6.109 13.965-9.85-2.12-10.099-5.237-18.952-5.237-18.952s-11.72-5.86-19.201-.872c-.873.623-1.746 1.246-2.494 1.87-.997 1.621-2.618 3.491-5.236 5.486-1.123.873-2.868 1.995-4.738 3.242a34.783 34.783 0 01-2.245 1.496c-.124.124-.498.249-.872.374a257.039 257.039 0 01-8.728 4.738c-6.982 4.364-13.466 8.353-14.339 8.977-.748.499-2.493.873-4.364 1.247-1.994 1.122-3.99 2.244-5.86 3.241 2.619 0 10.723-3.117 21.321-4.862 13.216-1.995-6.234 2.743-15.71 4.738z" fill="#A75256"/><path d="M146.089 153.496l-27.804 6.858c4.115-.125 8.853-.499 13.466-.998 5.361-1.247 11.097-2.618 15.959-4.239l-1.621-1.621z" fill="#A75256"/><path d="M158.434 88.412a24.862 24.862 0 013.241 2.743c-.374-1.62-1.621-2.743-3.241-2.743z" fill="#F37880"/><path d="M154.691 91.776c0 1.87 1.621 3.367 3.491 3.367 1.871 0 3.492-1.621 3.492-3.491v-.624a24.86 24.86 0 00-3.242-2.743h-.125c-1.995.125-3.616 1.621-3.616 3.491zm6.11.125c0 1.247-.998 2.244-2.369 2.244-1.247 0-2.369-.997-2.369-2.244 0-1.247.997-2.244 2.369-2.244 1.371 0 2.369.997 2.369 2.244z" fill="#F37880"/><path d="M156.188 91.903c0 1.246.997 2.244 2.368 2.244 1.247 0 2.369-.998 2.369-2.245 0-1.246-.997-2.244-2.369-2.244-1.371 0-2.368.998-2.368 2.245zm1.745-1.247c.374-.125.997-.25 1.496.124.748.624.624 1.247.499 1.372-.249.374-.374.873-2.12.499-.249 0-.748-.374-.623-.998-.125-.374.249-.873.748-.997z" fill="#A75256"/><path d="M168.532 97.512l-.374-.748c-.499-.748-.623-.998-.997-1.247-.25-.125-2.12-1.247-2.868-1.745.748.498 2.992 1.745 3.117 1.87.249.25.873 1.122 1.122 1.87z" fill="#F37880"/><path d="M162.422 96.514c.125 0 .125 0 0 0 .125 0 4.114.873 4.863.749.374 0 .872.124 1.246.249-.249-.748-.997-1.62-1.122-1.746-.125-.124-2.369-1.371-3.117-1.87-.125-.124-.249-.124-.249-.124s-1.122 1.745-1.621 2.742z" fill="#F37880"/><path d="M137.734 180.177c-.125-.249-.374-.623-.624-.997-.124.249-.249.498-.498.748-.873.748-3.492.374-3.741 1.621.873-.25 1.621-.125 2.369 0 .998-.125 2.12-.374 3.117-.624-.374-.374-.499-.623-.623-.748z" fill="#A75256"/><path d="M138.859 179.179l-1.746-1.122s.125.498-.125.997c.25.499.499.873.624.998.124.124.374.374.498.623.25 0 .624-.125.873-.249-.748-.374-.124-1.247-.124-1.247z" fill="#A75256"/><path d="M157.686 92.65c1.745.375 1.87-.124 2.119-.498.125-.124.25-.748-.499-1.371-.498-.374-.997-.25-1.496-.125-.498.125-.748.499-.872.997 0 .748.498.998.748.998z" fill="#5C414E"/><path d="M168.653 98.26v.124c-.249.25-.748.125-1.745 0-1.122-.124-3.865 0-3.865 0h-.125c.374.624 1.995.25 2.494.125.498-.124 2.992.499 3.615-.124.374-.375.125-.624-.249-.873 0 .124 0 .124.125.25-.25.248-.25.373-.25.498zM162.297 97.264c0-.125.125-.374.125-.623-.499.249-.125 1.122.124 1.745 0 0 0 .125.125.125h.125c0-.25-.499-.624-.499-1.247z" fill="#E5737E"/><path d="M168.657 98.387s-.125.124 0 0c0 .124 0 0 0 0zM168.652 97.761c0-.125 0-.125-.125-.25 0 .125.125.25.125.25zM163.541 98.386c-.249 0-.498 0-.623.125 0 0 2.868-.125 3.865 0 .998.125 1.621.125 1.746 0-.499.25-2.868-.374-4.988-.125z" fill="#E5737E"/><path d="M162.796 98.386c.25 0 .374 0 .624-.125 2.244-.25 4.488.499 5.112.125v-.125-.499c0-.124 0-.125-.125-.25-.374-.124-.748-.249-1.247-.249-.873 0-4.738-.872-4.738-.872h-.125c-.124.249-.249.498-.124.623.124.873.623 1.247.623 1.372z" fill="#E5737E"/><path d="M233.339 344.519l3.917.022.103-3.917 8.728-331.405.108-4.092-4.093-.014-227.92-.748-3.944-.013-.068 3.944-5.736 330.907-.07 4.047 4.047.022 224.928 1.247z" stroke="#FFF1F0" stroke-width="8"/></svg>