<svg width="245" height="349" fill="none" xmlns="http://www.w3.org/2000/svg"><path d="M236.735 340.145l-228.419.499L17.044 8.365l210.464.748 9.227 331.032z" fill="#A75256"/><g opacity=".3" stroke="#FEF1F0" stroke-width="2" stroke-miterlimit="10"><g opacity=".3"><path opacity=".3" d="M138.735 22.703L27.144 130.43l-.25 9.102L147.713 22.703h-8.977zM183.247 22.828L26.023 176.312l-.25 9.351L192.1 22.828h-8.853z"/><path opacity=".3" d="M174.395 22.828L26.273 167.086l-.25 9.226L183.248 22.828h-8.853zM147.715 22.703L26.898 139.531l-.25 9.101L156.567 22.703h-8.852z"/><path opacity=".3" d="M165.419 22.828L26.523 157.86l-.25 9.227L174.396 22.828h-8.977zM156.563 22.703L26.644 148.632l-.124 9.227L165.415 22.828l-8.853-.125zM192.099 22.828L25.773 185.663l-.125 9.352L201.077 22.828h-8.978z"/><path opacity=".3" d="M201.076 22.828L25.648 195.015l-.25 9.351 184.53-181.413-8.852-.125zM217.162 42.152L24.777 232.792l-.25 9.6L217.411 50.88l-.249-8.728z"/><path opacity=".3" d="M217.406 50.88L24.523 242.394l-.25 9.601L217.656 59.609l-.25-8.728zM216.913 33.549L24.902 223.315l-.125 9.476 192.385-190.64-.249-8.602zM216.665 22.951h-6.733L25.402 204.364l-.25 9.476L216.79 24.946l-.124-1.995z"/><path opacity=".3" d="M216.785 24.945L25.148 213.84l-.25 9.476L216.91 33.548l-.124-8.603zM85.37 22.453L28.39 76.69l-.25 8.852 66.082-62.964-8.852-.125zM67.541 22.453L28.765 59.11l-.25 8.728 47.879-45.385H67.54zM49.588 22.328L29.14 41.654l-.25 8.728 29.675-27.93-8.977-.124z"/><path opacity=".3" d="M58.565 22.453L28.89 50.382l-.124 8.728 38.776-36.657h-8.977zM40.736 22.328L29.39 33.051l-.25 8.603L49.59 22.328h-8.853z"/><path opacity=".3" d="M31.76 22.328l-2.245 2.12-.124 8.603 11.346-10.723H31.76z"/><path opacity=".3" d="M29.64 22.328l-.124 2.12 2.244-2.12h-2.12zM121.031 22.576l-93.512 89.772-.25 8.977 102.614-98.624-8.852-.125zM103.198 22.576L27.89 94.393l-.124 8.977 84.285-80.794h-8.853z"/><path opacity=".3" d="M112.054 22.576L27.769 103.37l-.25 8.977 93.512-89.77h-8.977zM129.883 22.703L27.269 121.327l-.124 9.102 111.59-107.726h-8.852zM94.225 22.576L28.144 85.541l-.25 8.852 75.309-71.817h-8.978zM76.393 22.453L28.515 67.838l-.124 8.852 56.98-54.237h-8.978zM217.659 59.61L24.277 251.993l-.25 9.726L217.908 68.337l-.249-8.728zM223.52 290.645l-36.657 38.9h9.601l27.305-29.051-.249-9.849zM222.025 232.666l-92.763 97.003 9.6-.125 83.413-87.277-.25-9.601zM221.771 223.191L119.656 329.67h9.601l92.763-97.003-.249-9.476zM222.522 251.867l-74.061 77.677h9.6l64.711-68.076-.25-9.601zM221.024 195.014L90.731 329.671h9.6l120.942-125.306-.249-9.351z"/><path opacity=".3" d="M221.528 213.715l-111.59 115.954h9.725l102.115-106.478-.25-9.476zM221.274 204.365L100.332 329.671h9.601l111.59-115.955-.249-9.351zM222.272 242.268l-83.413 87.277h9.601l74.061-77.677-.249-9.6zM222.769 261.471l-64.71 68.076h9.6l55.359-58.351-.249-9.725zM224.516 329.422l-.249-9.227-8.603 9.227h8.852zM224.266 320.194l-.249-9.85-17.955 19.076h9.601l8.603-9.226z"/><path opacity=".3" d="M223.77 300.494l-27.305 29.051 9.6-.125 17.955-19.076-.25-9.85zM223.273 280.92l-46.007 48.626h9.6l36.657-38.901-.25-9.725zM223.019 271.193l-55.359 58.352h9.601l46.007-48.626-.249-9.726zM219.407 130.678L23.281 329.796h9.6l186.775-190.141-.249-8.977zM218.534 94.768L23.406 291.018l-.25 9.85L218.783 103.62l-.249-8.852z"/><path opacity=".3" d="M218.782 103.619L23.156 300.867l-.25 9.85 196.126-198.121-.25-8.977zM219.155 121.574l-196.5 199.118-.124 9.102h.748l196.126-199.118-.25-9.102z"/><path opacity=".3" d="M219.031 112.6L22.906 310.72l-.25 9.975 196.5-199.118-.125-8.977zM218.281 85.916L23.651 281.169l-.249 9.85L218.53 94.769l-.249-8.853z"/><path opacity=".3" d="M218.032 77.064L23.777 271.445l-.125 9.726 194.63-195.253-.25-8.853z"/><path opacity=".3" d="M217.908 68.336L24.027 261.718l-.25 9.726 194.256-194.38-.125-8.728zM220.401 167.209L61.805 329.795h9.725l148.995-153.36-.124-9.226zM220.527 176.436L71.531 329.795l9.6-.125 139.645-144.008-.249-9.226z"/><path opacity=".3" d="M220.154 157.984L52.207 329.797h9.6l158.597-162.586-.25-9.227zM219.657 139.654L32.883 329.795h9.725l177.298-181.039-.249-9.102z"/><path opacity=".3" d="M219.904 148.756L42.606 329.795h9.6l167.947-171.813-.249-9.226zM220.777 185.662L81.133 329.67h9.6l130.293-134.657-.249-9.351z"/></g><g opacity=".3"><path opacity=".3" d="M107.813 22.576l111.591 108.1.249 9.102L98.961 22.576h8.852zM63.177 22.453l157.349 153.983.249 9.351L54.325 22.453h8.852zM72.157 22.453L220.404 167.21l.125 9.227L63.179 22.453h8.978z"/><path opacity=".3" d="M98.965 22.578l120.693 117.201.249 9.102L89.988 22.453l8.977.125zM81.009 22.453l139.145 135.53.25 9.226L72.156 22.453h8.853z"/><path opacity=".3" d="M89.981 22.453L219.9 148.881l.249 9.102L81.004 22.453h8.977zM54.325 22.453l166.451 163.334.249 9.226L45.348 22.328l8.977.125z"/><path opacity=".3" d="M45.349 22.328l175.677 172.685.249 9.476L36.496 22.329h8.853zM29.14 41.654l192.884 191.138.249 9.601L29.016 50.257l.124-8.603z"/><path opacity=".3" d="M29.015 50.258l193.258 192.135.249 9.476L28.766 58.986l.249-8.728zM29.39 32.926l192.385 190.39.249 9.476L29.141 41.654l.249-8.728zM29.64 22.328h6.858L221.277 204.49l.25 9.351L29.516 24.323l.124-1.995z"/><path opacity=".3" d="M29.515 24.322L221.526 213.84l.25 9.475L29.391 32.925l.124-8.603zM161.181 22.703l56.855 54.486.249 8.728-65.957-63.214h8.853zM179.005 22.828l38.651 36.781.25 8.728-47.754-45.509h8.853zM196.84 22.828l20.324 19.45.249 8.604-29.55-28.054h8.977zM187.86 22.828l29.55 28.054.249 8.727-38.651-36.78h8.852z"/><path opacity=".3" d="M205.692 22.953l11.222 10.598.249 8.728-20.323-19.45 8.852.124z"/><path opacity=".3" d="M214.54 22.951l2.244 2.12.125 8.478-11.221-10.598h8.852zM216.663 22.951l.124 2.12-2.244-2.12h2.12zM125.645 22.576l93.387 90.146.125 8.977-102.489-99.123h8.977zM143.473 22.703l75.059 72.191.249 8.853-84.285-81.044h8.977z"/><path opacity=".3" d="M134.497 22.7l84.285 81.044.25 8.978-93.387-90.146 8.852.125zM116.665 22.576L219.154 121.7l.249 8.977-111.591-108.1h8.853zM152.325 22.703l65.957 63.214.249 8.977-75.058-72.19h8.852zM170.153 22.828l47.753 45.509.125 8.852-56.855-54.486 8.977.125zM28.765 58.984l193.756 192.884.25 9.725L28.516 67.837l.249-8.853zM23.406 290.895l36.906 38.9H50.71l-27.555-29.051.25-9.849zM24.777 232.793l93.262 96.878h-9.6l-83.912-87.277.25-9.601zM24.902 223.191L127.64 329.67h-9.6l-93.263-96.878.125-9.601zM24.277 251.992l74.56 77.677h-9.6l-65.21-68.076.25-9.601zM25.648 194.889l130.916 134.657h-9.6L25.398 204.365l.25-9.476z"/><path opacity=".3" d="M25.148 213.715l112.089 115.83-9.6.124L24.898 223.191l.25-9.476zM25.402 204.365l121.565 125.181h-9.725l-112.09-115.83.25-9.351zM24.523 242.393l83.911 87.277h-9.6l-74.56-77.677.249-9.6zM24.027 261.594l65.209 68.076h-9.6l-55.859-58.351.25-9.725zM22.531 329.795l.125-9.227 8.728 9.227H22.53z"/><path opacity=".3" d="M22.656 320.569l.25-9.85 18.079 19.076h-9.601l-8.728-9.226z"/><path opacity=".3" d="M23.156 300.744l27.554 29.051h-9.725l-18.079-19.076.25-9.975zM23.652 281.045l46.257 48.751h-9.6l-36.907-38.901.25-9.85zM23.777 271.318l55.858 58.352-9.726.124-46.257-48.75.125-9.726zM27.144 130.303l196.499 199.118h-9.6L26.894 139.405l.25-9.102zM27.89 94.397L223.517 290.77l.249 9.725-196-197.247.124-8.852z"/><path opacity=".3" d="M27.769 103.248L223.77 300.496l.249 9.85-196.5-198.121.25-8.977zM27.27 121.326l196.997 198.993.25 9.102h-.873l-196.5-199.118.125-8.977z"/><path opacity=".3" d="M27.519 112.225l196.499 198.12.25 9.975L27.269 121.326l.25-9.101zM28.144 85.416l195.128 195.502.249 9.85L27.895 94.393l.249-8.977z"/><path opacity=".3" d="M28.39 76.564l194.629 194.63.25 9.725L28.141 85.417l.249-8.853z"/><path opacity=".3" d="M28.515 67.838L222.77 261.594l.25 9.601L28.39 76.565l.125-8.727zM26.273 166.959l159.095 162.586h-9.601L26.023 176.31l.25-9.351zM26.023 176.311l149.743 153.234h-9.6L25.773 185.537l.25-9.226zM26.523 157.732l168.321 171.813h-9.476L26.273 166.959l.25-9.227zM26.898 139.406l187.148 190.016h-9.6L26.648 148.633l.25-9.227z"/><path opacity=".3" d="M26.644 148.633l177.797 180.789-9.6.125L26.519 157.735l.125-9.102zM25.773 185.537l140.393 144.008h-9.601L25.648 194.888l.125-9.351z"/></g></g><path d="M162.423 184.792c-3.117.125-15.211 5.86-26.058 11.845-.749.499-1.497.873-2.245 1.247-7.73 5.236-15.959 11.096-16.707 12.593-.499.872-.998 1.745-1.372 2.368-.873 1.372-2.119 2.619-3.491 3.367-.623 2.369-.623 4.364-1.247 6.483-1.371 4.489-1.122 22.942-8.353 30.672-3.74 3.99-8.23 2.369-11.72-.124-1.621 0-2.993-1.247-3.242-2.743-1.496-1.497-2.37-2.743-2.37-2.743s-.124-.125-.249-.125c-.748-.499-2.618-1.621-2.867-1.746-.374-.249-.499-.498-.998-1.246-.124-.25-.25-.624-.374-.873-.374-.25-.623-.499-.25-.873.624-.623 2.993-.125 3.492-.125.499-.124 1.995-.498 2.494.125 1.745-.249 2.244-.997 3.49-5.985.624-2.493-9.226-23.44-10.597-36.158-1.372-12.593 18.827-20.946 24.936-24.188.499-.249 1.247-.499 2.12-.623.249-.749.498-1.372.498-2.12.125-3.741-.124-10.473-1.246-13.965-26.558 7.232-46.382 31.67-46.88 61.095-.5 35.908 28.053 65.458 63.712 65.333 35.659 0 63.962-29.549 63.463-65.333-.249-15.211-5.735-29.051-14.588-39.899-.124 1.995-4.364 3.367-9.351 3.741z" fill="#974B52"/><path d="M170.779 180.427l-2.244-2.618c-.873.498-1.995 1.122-3.242 1.87 2.494.125 4.489.249 5.486.748zM114.298 158.732c-.249 1.247-2.743.873-3.616 1.621-.249.25-.374.499-.498.748 1.371 2.619 4.363 8.728 7.481 11.347 2.743 2.244 15.086 3.241 21.445 3.615 6.234-1.122 19.575-2.493 22.443-2.618.498 0 1.122-.125 1.87-.249-11.097-9.476-25.311-15.212-40.896-15.212-3.616 0-7.107.25-10.473.873.748 0 1.496.125 2.244-.125z" fill="#974B52"/><path d="M107.189 174.068c0 .748-.25 1.371-.499 2.12 5.361-.998 17.331-.25 28.677.623.997-.249 1.87-.374 2.244-.499.499-.124.998-.249 1.621-.374-6.359-.374-18.702-1.247-21.445-3.616-3.117-2.618-6.11-8.727-7.481-11.346-.25.499 0 .998 0 .998l-1.621-1.122s.623-.873-.25-1.497c-.748.125-1.62.375-2.369.624.873 3.491 1.247 10.349 1.123 14.089z" fill="#974B52"/><path d="M171.522 181.176a1.125 1.125 0 00-.749-.748c.25.249.499.623.749.873v-.125z" fill="#A75256"/><path d="M158.187 183.794c.623 0 .872.125.872.624-.249 1.371-3.491 1.995-6.358 2.618-5.611 3.242-11.471 6.733-16.334 9.6 10.972-5.984 22.942-11.72 26.059-11.844 5.112-.25 9.351-1.746 9.226-3.491-.249-.25-.498-.624-.748-.873-.997-.499-2.992-.624-5.486-.748-2.119 1.122-4.613 2.493-7.231 4.114zM85.992 210.101c-.748-10.972.124-22.443 8.104-25.685 1.372-.623 3.74-1.122 6.733-1.621 1.746-1.371 4.738-3.989 5.86-6.733-.873.125-1.621.375-2.12.624-6.109 3.242-26.308 11.595-24.936 24.188 1.371 12.718 11.346 33.665 10.598 36.158-1.371 4.988-1.746 5.611-3.491 5.985l.125.125c.249.623.623 1.621.249 1.87-.374 1.122-1.496 2.868-1.496 2.868s-.125-.125-.25-.125c.125.125.25.125.25.125s.873 1.246 2.369 2.743c0-.25-.125-.374-.125-.624 0-1.87 1.496-3.491 3.367-3.616 1.87 0 3.49 1.497 3.49 3.367 0 1.87-1.496 3.491-3.366 3.616h-.124c3.49 2.493 7.98 4.114 11.72.124 7.231-7.73 6.982-26.183 8.353-30.672.624-2.119.624-4.239 1.247-6.483a11.092 11.092 0 01-4.862 1.496c-7.481.499-21.197.249-21.695-7.73z" fill="#A75256"/><path d="M100.703 182.797c4.239-.748 9.725-1.496 15.211-1.995 7.98-1.87 15.461-3.242 19.326-3.99-11.346-.997-23.315-1.621-28.677-.623-1.247 2.618-4.114 5.237-5.86 6.608z" fill="#A75256"/><path d="M168.534 177.809c1.371-.748 2.244-1.247 2.743-1.371 3.865-1.621 7.73-3.491 6.733-4.738-.748-.998-9.975.748-14.588 1.371 1.87 1.497 3.491 3.117 5.112 4.738z" fill="#994F55"/><path d="M139.109 175.938c2.245.125 3.741.125 3.741.125l-3.741.997c9.352.873 17.581 1.746 20.199 2.12 2.244.249 4.239.374 5.985.499 1.247-.749 2.369-1.372 3.241-1.871-1.62-1.745-3.241-3.241-4.987-4.738-.748.125-1.371.125-1.87.25-2.992.124-16.209 1.371-22.568 2.618zM134.121 197.884c.748-.375 1.496-.873 2.244-1.247-.498.249-.997.623-1.62.873-.25.124-.499.249-.624.374z" fill="#994F55"/><path d="M135.242 176.688c1.247.124 2.618.249 3.865.374l3.741-.998s-1.496 0-3.741-.125c-.623.125-1.122.25-1.621.374-.374 0-1.246.25-2.244.375zM134.742 197.51c.499-.249.998-.623 1.621-.872 4.863-2.868 10.723-6.359 16.333-9.601-1.87.374-3.491.748-4.239 1.372-.873.498-7.107 4.613-13.715 9.101zM142.099 180.18c3.74 1.994 19.7 1.745 10.473 3.865-9.102 2.119-27.929 6.982-15.086 4.738 10.224-1.746 18.079-4.863 20.572-4.988 2.619-1.496 5.112-2.992 7.107-4.114-1.745-.125-3.74-.25-5.985-.499-2.618-.374-10.847-1.247-20.198-2.12l-10.224 2.619c6.733-.25 12.094-.25 13.341.499z" fill="#994F55"/><path d="M115.914 180.677c4.489-.498 8.977-.748 12.967-.997l10.224-2.618c-1.247-.125-2.618-.25-3.865-.374-3.865.748-11.346 2.119-19.326 3.989z" fill="#994F55"/><path d="M123.273 204.242c-2.369 1.995-5.362 5.361-9.601 8.852-.623 1.122-.997 2.12-1.371 3.117 1.371-.873 2.618-1.995 3.491-3.366.499-.748.997-1.496 1.371-2.369.749-1.496 8.978-7.232 16.708-12.593-3.616 2.119-6.359 3.74-7.73 4.488-.873.624-1.871 1.372-2.868 1.871z" fill="#A75256"/><path d="M111.3 215.09c-7.231 5.236-18.702-.748-18.702-.748s-3.117-8.978-5.486-19.202c-.873-3.74 5.237-7.231 13.341-10.099l-1.122-1.247s.498-.374 1.371-.997c-2.867.499-5.236 1.122-6.733 1.621-7.855 3.117-8.727 14.712-8.104 25.684.499 8.105 14.214 8.229 21.445 7.731 1.746-.125 3.491-.624 4.863-1.497.249-.997.748-1.994 1.371-3.117a17.76 17.76 0 01-2.244 1.871zM125.518 202.868c-.748.374-1.372.873-2.245 1.496a31.63 31.63 0 012.993-1.87c-.25.125-.624.249-.748.374zM159.058 184.291c.124-.498-.25-.623-.873-.623-1.746.997-3.616 2.12-5.611 3.242 2.993-.499 6.234-1.247 6.484-2.619z" fill="#A75256"/><path d="M99.336 183.793l1.122 1.247c4.738-1.621 10.099-3.117 15.336-4.364-5.486.499-10.972 1.247-15.211 1.995-.748.748-1.247 1.122-1.247 1.122zM118.784 207.607c-2.493 2.12-3.99 3.865-4.987 5.611 4.239-3.491 7.231-6.858 9.6-8.853-1.994 1.122-3.491 2.245-4.613 3.242zM126.266 202.37a209.933 209.933 0 007.73-4.488c.249-.125.374-.25.623-.374-2.867 1.621-5.735 3.366-8.353 4.862z" fill="#A75256"/><path d="M152.699 183.916c9.102-2.119-6.732-1.87-10.473-3.865-1.247-.623-6.608-.748-13.216-.374l-26.807 6.982-1.496-1.62c-8.23 2.867-14.214 6.234-13.341 10.099 2.244 10.224 5.486 19.201 5.486 19.201s11.595 5.985 18.702.748c.873-.623 1.621-1.247 2.369-1.87.998-1.621 2.494-3.491 4.987-5.611 1.123-.997 2.743-2.12 4.614-3.242a11.724 11.724 0 012.244-1.496c.125-.125.499-.249.748-.374 2.494-1.496 5.361-3.242 8.354-4.863 6.608-4.488 12.842-8.603 13.715-9.226.748-.499 2.369-.873 4.239-1.372 1.87-1.122 3.741-2.244 5.611-3.241-2.494.124-10.349 3.241-20.573 4.987-13.091 2.12 5.736-2.743 14.837-4.863z" fill="#A75256"/><path d="M102.078 186.662l26.807-6.982c-3.99.249-8.478.498-12.967.997-5.237 1.247-10.723 2.743-15.336 4.364l1.496 1.621z" fill="#A75256"/><path d="M90.98 253.368a24.863 24.863 0 01-3.242-2.743c.374 1.496 1.621 2.743 3.242 2.743z" fill="#F37880"/><path d="M94.596 249.75c0-1.87-1.621-3.491-3.491-3.366-1.87 0-3.367 1.621-3.367 3.615 0 .25 0 .375.125.624.873.873 1.995 1.87 3.242 2.743h.124c1.87 0 3.367-1.621 3.367-3.616zm-5.985 0c0-1.247.998-2.369 2.244-2.369 1.247 0 2.37.998 2.37 2.244 0 1.247-.998 2.369-2.245 2.369-1.371.125-2.369-.997-2.369-2.244z" fill="#F37880"/><path d="M93.227 249.627c0-1.247-1.123-2.369-2.37-2.244-1.246 0-2.244 1.122-2.244 2.369 0 1.246 1.123 2.368 2.37 2.244 1.246 0 2.243-.998 2.243-2.369zm-1.746 1.371c-.374.125-.997.25-1.371-.124-.749-.624-.624-1.247-.5-1.497.25-.374.375-.872 2.12-.498.25 0 .748.374.624 1.122a1.666 1.666 0 01-.873.997z" fill="#A75256"/><path d="M80.883 243.891c.124.249.25.498.374.872.499.748.623.998.997 1.247.25.125 2.12 1.247 2.868 1.746-.748-.499-2.992-1.87-3.117-1.995-.125-.25-.748-1.122-1.122-1.87z" fill="#F37880"/><path d="M86.868 244.888s0 .125 0 0c-.125 0-3.99-.873-4.863-.748-.374 0-.873-.125-1.122-.249.25.748.997 1.745 1.122 1.87.125.125 2.369 1.496 3.117 1.995.125.124.25.124.25.124s1.121-1.87 1.496-2.992z" fill="#F37880"/><path d="M109.682 159.979c.125.249.374.623.624.997.124-.249.249-.498.498-.748.873-.748 3.367-.374 3.616-1.621-.748.25-1.496.125-2.244 0-.997.125-1.995.374-2.992.624.124.374.249.623.498.748zM108.437 160.977l1.62 1.122s-.124-.499 0-.998c-.249-.498-.498-.872-.623-.997s-.374-.374-.499-.624c-.249.125-.623.125-.873.25 1.123.374.375 1.247.375 1.247z" fill="#5C424E"/><path d="M91.605 248.877c-1.746-.374-1.87.124-2.12.498-.125.125-.25.748.499 1.497.498.374.997.249 1.371.124.499-.124.748-.499.748-.997.25-.748-.25-1.122-.498-1.122z" fill="#5C414E"/><path d="M80.754 243.143v-.125c.125-.249.748-.125 1.746 0 .997.125 3.865 0 3.865 0h.125c-.374-.623-1.995-.249-2.494-.125-.499.125-2.992-.498-3.491.125-.25.374-.125.623.25.873 0-.125 0-.125-.126-.25.125-.124.125-.374.125-.498zM87.116 244.264c0 .125 0 .374-.125.749.499-.25.125-1.123-.25-1.871 0 0 0-.124-.124-.124h-.125c.125.124.499.623.624 1.246z" fill="#E5737E"/><path d="M80.754 243.018s0 .124 0 0c.125 0 0 0 0 0zM80.754 243.641c0 .124 0 .124.125.249 0-.125 0-.125-.125-.249zM85.87 243.019c.25 0 .374 0 .623-.125 0 0-2.742.125-3.865 0-.997-.124-1.496-.124-1.745 0 .499-.249 2.868.374 4.987.125z" fill="#E5737E"/><path d="M86.493 243.019c-.249 0-.373 0-.623.125-2.12.249-4.489-.499-4.987-.125v.623c0 .125 0 .125.124.25.374.124.749.249 1.123.249.748 0 4.738.873 4.738.873h.124c.125-.249.125-.499.125-.748-.125-.624-.499-1.122-.624-1.247z" fill="#E5737E"/><path d="M83.123 147.884c3.117-.125 15.087-5.735 25.934-11.595.748-.374 1.496-.873 2.12-1.247 7.605-5.112 15.71-10.598 16.458-12.094.499-.873.873-1.621 1.371-2.369a9.647 9.647 0 013.492-3.242c.623-2.244.623-4.115 1.246-6.234 1.247-4.239.873-21.446 7.855-28.552 3.491-3.616 7.855-2.12 11.222.124 1.496 0 2.867 1.122 3.117 2.618 1.496 1.372 2.369 2.494 2.369 2.494s.125.125.249.125c.748.374 2.494 1.496 2.743 1.62.374.25.499.5.873 1.123l.374.748c.374.125.499.499.249.748-.498.624-2.867.125-3.366.125-.374 0-1.995.499-2.369-.125-1.746.25-2.12.873-3.242 5.486-.623 2.244 9.351 22.194 10.972 34.288 1.621 12.219-18.203 20.448-24.313 23.565-.498.249-1.247.498-2.119.623-.25.624-.499 1.372-.499 1.995-.125 3.741.249 10.473 1.371 13.84 26.433-7.356 45.509-31.295 45.011-59.474-.499-33.29-28.178-60.097-61.843-60.097-33.664-.124-61.343 26.558-61.842 59.973-.25 14.587 4.738 27.928 13.216 38.651 0-1.371 4.24-2.868 9.351-3.117zM74.648 152.123c.749.873 1.497 1.746 2.245 2.494a66.703 66.703 0 013.242-1.746c-2.619-.125-4.49-.249-5.487-.748z" fill="#974B52"/><path d="M130.879 173.817c.249-1.247 2.743-.873 3.616-1.621.249-.249.374-.498.498-.748-1.371-2.618-4.364-8.728-7.481-11.346-2.743-2.244-15.086-3.242-21.445-3.616-6.234 1.122-19.575 2.494-22.443 2.619-.499 0-1.122.124-1.87.249 10.972 9.476 25.186 15.211 40.896 15.211 3.616 0 7.107-.374 10.473-.873-.748-.124-1.496-.124-2.244.125z" fill="#974B52"/><path d="M137.985 158.482c0-.624.249-1.372.499-1.995-5.362.872-17.206.249-28.552-.624-.998.25-1.871.374-2.245.499-.498.125-.997.249-1.621.374 6.359.374 18.703 1.247 21.446 3.616 3.117 2.618 6.109 8.728 7.481 11.346.249-.499 0-.998 0-.998l1.745 1.123s-.623.872.25 1.496c.748-.125 1.621-.374 2.369-.624-1.123-3.74-1.621-10.473-1.372-14.213zM73.898 151.377c.125.374.374.623.749.748-.25-.25-.5-.624-.749-.873v.125z" fill="#A75256"/><path d="M87.238 148.882c-.623 0-.873-.125-.873-.623.25-1.372 3.491-1.995 6.359-2.619 5.61-3.241 11.471-6.608 16.209-9.351-10.848 5.86-22.942 11.346-25.934 11.596-5.112.249-9.352 1.745-9.227 3.366.25.249.499.623.748.873.998.498 2.993.623 5.486.748a261.928 261.928 0 007.232-3.99zM158.309 123.446c.872 10.598.249 21.695-7.481 24.812-1.372.499-3.741 1.122-6.608 1.621-1.746 1.371-4.614 3.865-5.861 6.608.873-.125 1.621-.374 2.12-.623 5.985-3.117 25.934-11.346 24.313-23.565-1.621-12.219-11.595-32.044-10.972-34.288 1.247-4.613 1.496-5.237 3.242-5.486l-.125-.125c-.249-.623-.623-1.496-.249-1.745.374-.998 1.371-2.743 1.371-2.743s.125.124.25.124c-.125-.124-.25-.124-.25-.124s-.872-1.122-2.369-2.494c0 .125.125.374.125.499 0 1.745-1.372 3.242-3.242 3.242-1.87 0-3.366-1.372-3.366-3.118 0-1.745 1.371-3.241 3.242-3.241h.124c-3.366-2.37-7.605-3.74-11.221-.125-6.858 7.107-6.608 24.313-7.855 28.552-.624 1.995-.624 3.99-1.247 6.234a11.11 11.11 0 014.738-1.496c7.356-.498 20.697-.249 21.321 7.481z" fill="#A75256"/><path d="M144.217 149.881c-4.239.748-9.6 1.496-15.086 1.995-7.855 1.87-15.336 3.242-19.201 3.99 11.221.997 23.191 1.621 28.552.623 1.122-2.743 4.114-5.361 5.735-6.608z" fill="#A75256"/><path d="M76.763 154.74c-1.371.748-2.369 1.247-2.743 1.372-3.99 1.496-7.73 3.491-6.857 4.738.748.997 9.975-.748 14.588-1.372-1.746-1.496-3.367-3.117-4.988-4.738z" fill="#994F55"/><path d="M106.066 156.612c-2.244-.125-3.74-.125-3.74-.125l3.74-.998c-9.227-.872-17.456-1.745-20.074-2.119-2.12-.25-4.24-.374-5.985-.499-1.246.748-2.369 1.247-3.241 1.746 1.496 1.621 3.241 3.241 4.862 4.738.748-.125 1.372-.125 1.87-.25 2.993 0 16.334-1.371 22.568-2.493zM111.303 135.043c-.748.374-1.371.873-2.119 1.247.498-.25.997-.624 1.62-.873 0-.125.25-.249.499-.374z" fill="#994F55"/><path d="M109.93 155.737c-1.247-.124-2.618-.249-3.865-.374l-3.741.998s1.496 0 3.741.124c.623-.124 1.122-.249 1.621-.374.498 0 1.246-.124 2.244-.374zM110.677 135.414c-.499.249-.997.623-1.621.873-4.862 2.743-10.722 6.234-16.208 9.351 1.87-.374 3.49-.748 4.239-1.247.748-.623 6.982-4.613 13.59-8.977zM103.195 152.374c-3.74-1.995-19.575-1.746-10.473-3.741 9.102-1.995 27.679-6.857 14.962-4.738-10.224 1.746-17.954 4.863-20.448 4.863-2.618 1.496-5.112 2.868-7.107 3.99 1.745.124 3.74.249 5.985.498 2.618.25 10.847 1.247 20.074 2.12l10.223-2.618c-6.732.374-11.969.374-13.216-.374z" fill="#994F55"/><path d="M129.254 151.875c-4.364.499-8.853.748-12.843.997l-10.223 2.619c1.246.124 2.618.249 3.865.374 3.74-.873 11.221-2.12 19.201-3.99z" fill="#994F55"/><path d="M121.898 128.934c2.369-1.995 5.237-5.237 9.352-8.479.623-.997.997-1.995 1.246-2.992a9.652 9.652 0 00-3.491 3.242c-.498.623-.872 1.496-1.371 2.369-.748 1.496-8.853 6.982-16.458 12.094 3.491-1.995 6.234-3.616 7.605-4.364 1.123-.748 2.12-1.372 3.117-1.87z" fill="#A75256"/><path d="M133.619 118.584c6.982-4.987 18.328.749 18.328.749s3.242 8.478 5.611 18.453c.873 3.74-4.987 6.982-13.092 9.849l1.122 1.247s-.498.374-1.371.998c2.868-.499 5.237-1.122 6.608-1.621 7.73-3.117 8.354-14.214 7.481-24.812-.623-7.73-13.964-7.855-21.071-7.481-1.746.125-3.367.624-4.738 1.496-.25.873-.624 1.871-1.247 2.993.748-.624 1.496-1.247 2.369-1.871zM119.654 130.303c.623-.249 1.372-.748 2.12-1.371a31.63 31.63 0 01-2.993 1.87c.499-.249.748-.374.873-.499zM86.364 148.259c-.125.374.25.623.873.623 1.745-.997 3.615-2.119 5.61-3.241-2.867.623-6.11 1.371-6.483 2.618z" fill="#A75256"/><path d="M145.587 148.882l-1.122-1.247c-4.613 1.621-9.974 2.992-15.211 4.239a187.529 187.529 0 0015.086-1.995c.749-.623 1.247-.997 1.247-.997zM126.387 125.689c2.369-1.994 3.99-3.74 4.863-5.361-4.115 3.367-6.983 6.608-9.352 8.479 1.746-1.123 3.367-2.245 4.489-3.118zM118.909 130.678a180.414 180.414 0 00-7.606 4.364c-.249.124-.374.249-.623.374 2.867-1.621 5.735-3.242 8.229-4.738z" fill="#A75256"/><path d="M92.725 148.631c-9.102 1.995 6.733 1.87 10.473 3.74 1.247.624 6.608.749 13.216.375l26.558-6.858 1.496 1.621c8.104-2.743 13.964-6.11 13.091-9.85-2.368-9.975-5.61-18.453-5.61-18.453s-11.346-5.735-18.329-.748c-.872.623-1.62 1.122-2.368 1.745-.998 1.621-2.494 3.367-4.863 5.362-1.122.873-2.618 1.995-4.489 3.117-.748.623-1.496 1.122-2.119 1.371-.125.125-.499.25-.748.374-2.494 1.497-5.362 3.117-8.229 4.738-6.609 4.364-12.718 8.354-13.59 8.977-.749.499-2.37.873-4.24 1.247-1.87 1.122-3.74 2.12-5.61 3.242 2.493-.125 10.348-3.117 20.447-4.863 12.593-1.995-5.985 2.868-15.086 4.863z" fill="#A75256"/><path d="M142.971 146.014l-26.557 6.857c3.99-.249 8.478-.499 12.842-.997 5.237-1.247 10.598-2.619 15.212-4.239l-1.497-1.621z" fill="#A75256"/><path d="M152.82 82.8a22.883 22.883 0 013.117 2.62c-.374-1.497-1.62-2.495-3.117-2.62z" fill="#F37880"/><path d="M149.453 86.043c0 1.745 1.62 3.241 3.366 3.117 1.87 0 3.242-1.497 3.242-3.242 0-.25 0-.374-.125-.499-.873-.873-1.995-1.745-3.117-2.618h-.125c-1.87 0-3.366 1.496-3.241 3.242zm5.735.124c0 1.247-.873 2.12-2.12 2.245-1.246 0-2.244-.873-2.244-2.12s.873-2.12 2.12-2.244c1.122 0 2.244.872 2.244 2.12z" fill="#F37880"/><path d="M150.827 86.291c0 1.247.997 2.12 2.244 2.12 1.247 0 2.12-.998 2.12-2.245 0-1.246-.998-2.12-2.244-2.12-1.247 0-2.245.998-2.12 2.245zm1.496-1.247c.374-.124.998-.249 1.372.125.748.623.623 1.247.498 1.371-.249.375-.374.873-1.995.5-.249 0-.623-.375-.623-.998 0-.499.374-.873.748-.998z" fill="#A75256"/><path d="M162.67 91.526s0 .125 0 0l-.375-.748c-.498-.623-.623-.873-.872-1.122-.25-.125-2.12-1.247-2.743-1.62.748.498 2.867 1.745 2.992 1.87 0 .124.623.997.998 1.62z" fill="#F37880"/><path d="M156.938 90.655s0-.125 0 0c.124 0 3.865.748 4.613.748.374 0 .748.125 1.122.25-.249-.749-.998-1.621-1.122-1.746-.125-.125-2.245-1.371-2.993-1.87-.124-.125-.249-.125-.249-.125s-.997 1.621-1.371 2.743z" fill="#F37880"/><path d="M135.613 172.447c-.125-.25-.374-.624-.623-.998-.125.25-.25.499-.499.748-.873.748-3.367.374-3.616 1.621.748-.249 1.496-.125 2.244 0 .998-.125 1.995-.374 2.993-.623-.25-.25-.374-.499-.499-.748zM136.738 171.448l-1.746-1.122s.125.499 0 .998c.25.498.499.872.624.997.124.125.374.374.498.623.25-.124.624-.124.873-.249-.997-.374-.249-1.247-.249-1.247z" fill="#A75256"/><path d="M152.198 86.915c1.621.374 1.745-.125 1.995-.5.124-.124.249-.747-.499-1.37-.374-.375-.998-.25-1.372-.125-.374.124-.748.498-.748.997 0 .748.499.998.624.998z" fill="#5C414E"/><path d="M162.795 92.276v.124c-.125.25-.748.125-1.621 0-.998-.124-3.741 0-3.741 0h-.124c.374.624 1.995.25 2.369.125.498-.125 2.867.499 3.366-.125.249-.374.125-.623-.249-.748 0 .125 0 .125.124.25-.124.124-.124.25-.124.374zM156.69 91.28c0-.125 0-.374.124-.624-.374.25.001 1.122.25 1.746l.125.124h.124c-.124-.249-.499-.623-.623-1.246z" fill="#E5737E"/><path d="M162.793 91.777c0-.125 0-.125-.125-.25 0 .125 0 .25.125.25zM157.932 92.275c-.249 0-.374 0-.623.124 0 0 2.743-.124 3.74 0 .873.125 1.496.125 1.621 0-.499.374-2.743-.25-4.738-.124z" fill="#E5737E"/><path d="M157.307 92.4c.125 0 .374 0 .624-.125 2.119-.25 4.239.374 4.862.124v-.124-.499c0-.125 0-.125-.124-.25-.374-.124-.748-.249-1.122-.249-.749 0-4.489-.748-4.489-.748h-.125c-.124.25-.124.499-.124.624 0 .748.374 1.122.498 1.246z" fill="#E5737E"/><path d="M236.743 344.145l4.104-.009-.114-4.102-9.226-331.032-.108-3.875-3.877-.014-210.464-.748-3.91-.014-.102 3.91-8.728 332.278-.108 4.114 4.115-.009 228.418-.499z" stroke="#FFF1F0" stroke-width="8"/></svg>