<svg id="eavb4yw2mi741" xmlns="http://www.w3.org/2000/svg" viewBox="0 0 2086 1024" shape-rendering="geometricPrecision" text-rendering="geometricPrecision"><defs><clipPath id="eavb4yw2mi742"><rect id="eavb4yw2mi743" width="2085.2" height="1024" rx="0" ry="0" transform="translate(0 -.46)" fill="none" stroke="none" stroke-width="1"/></clipPath></defs><g id="eavb4yw2mi744" stroke="none" stroke-width="1"><path id="eavb4yw2mi745" d="M1566.7 175.039c81.4 28.9 75.8 97.3 75.8 97.3l3 333.2h-170.86l11.26-334.2s-.6-67.4 80.8-96.3z" fill="#FACABC"/><path id="eavb4yw2mi746" d="M1494.4 605.563l11.3-314.424s-.6-67.4 80.8-96.3c15.2 5.4 27.3 12.1 37 19.6-11.2-14.8-28.9-29.4-56.8-39.3-81.4 28.9-80.8 96.3-80.8 96.3l-11.33 334.124z" fill="#BE988D"/><path id="eavb4yw2mi747" d="M518.499 175.039c-81.4 28.9-75.8 97.3-75.8 97.3l-5 331.2h161.6v-332.2s.6-67.4-80.8-96.3z" fill="#FACABC"/><path id="eavb4yw2mi748" d="M437.699 603.539l17 1 4.8-316.2s-5.6-68.4 75.8-97.3c16.4 5.8 29.5 13.2 39.9 21.3-12-14.1-29.9-27.8-56.7-37.3-81.4 28.9-75.8 97.3-75.8 97.3z" fill="#BE988D"/></g><g id="eavb4yw2mi749" stroke="none" stroke-width="1"><g id="eavb4yw2mi7410" transform="translate(.831 351.446)"><path id="eavb4yw2mi7411" fill="#2C1E25" d="M1625.258 546.226l-28.38-2.425-2.582-8.756 7.292-10.334-1.109-17.126 1.383-11.181 3.297-14.863 2.203-29.723 2.476-.426v-7.076l1.109-39.065 1.504-5.521 4.679-10.473-1.519-26.044-3.571-24.204-7.565-19.25-9.495-9.059-2.887-10.048-2.886-15.145-.972-8.635 6.471-20.099-3.57-3.68-9.495 9.624-6.882-5.944-6.061 2.69h-2.614l-6.183-.849-3.585 5.237-1.777-3.681-6.472-.707.273 4.812 2.887 6.37.835 8.492-3.312 5.521-3.57 23.07-7.975 14.579-12.245 17.41-10.179 48.832 3.297 11.181 4.679 6.227-11.972 56.901 4.68.849-1.793 17.834 5.089 6.653v9.341l4.269 6.37-.541 33.538-11.704-1.001-9.924 75.512 137.638-5.159v-3.21l-13.241-57.359z"/><path id="eavb4yw2mi7412" fill="#5C404E" d="M1614.966 556.316l-28.379-2.425-2.582-8.756 7.292-10.334-1.109-17.126 1.382-11.181 3.297-14.863 2.203-29.723 2.476-.425v-7.077l1.109-39.065 1.504-5.521 4.68-10.473-1.52-26.044-3.57-24.204-7.566-19.25-9.495-9.059-2.886-10.048-2.886-15.145-.973-8.635 6.472-20.099-3.57-3.68-9.495 9.625-6.882-5.945-6.062 2.69h-2.613l-6.183-.849-3.585 5.237-1.778-3.681-6.472-.707.274 4.812 2.886 6.37.836 8.492-3.312 5.521-3.57 23.071-7.976 14.578-12.245 17.41-10.178 48.832 3.296 11.181 4.679 6.228-11.971 56.9 4.679.849-1.793 17.834 5.09 6.653v9.342l4.269 6.37-.542 33.537-11.703-1-10.853 82.58 138.567-15.438-13.242-57.359z"/></g><g id="eavb4yw2mi7413" transform="translate(-3.72 336.132)"><path id="eavb4yw2mi7414" d="M591.399 467.712l-2.2-67.6c-.96-1.917-1.824-3.547-1.824-3.643-.097-.289-.765-9.3-.765-9.3l-2.883-5.37-5.652-21.959-4.51-10.26-7.867-18.218-4.79-5.85-7.865-1.63-12.558-4.6-6.433-2.302-.946-2.685 2.005-1.15 6.53-1.727.278-3.835-2.77.959-.488-2.013 3.063-3.453 3.077-5.56.474-12.083-.669-7.575-1.434-2.876-5.569-2.206-4.316-4.41-7.852-.96-6.237 1.343-3.258 2.685-1.35 2.206-3.536 2.684-1.546 5.37-.083 7.383-1.253 8.821 3.16 3.165-.96 4.41-2.2 1.343-.864-.958.097 3.355 5.082 2.397-12.46 6.424-16.401 4.315-9.496 19.368-4.692 30.3 5.555 2.302v13.52l13.324 11.219-4.316 15.82-4.497 32.889-4.51 13.808 9.007 8.63-2.965 14.67v24.163l-2.98 16.78 1.35 11.986-8.827.287-9.397 69.71 120.917 6.999-9.593-80.352-24.74.863-2.77-7.862-.39-9.685 2.395-13.04 1.35-3.261 1.337-6.712-.196-4.601-1.907-1.056-.195-6.137-1.92-9.78 1.155-4.219 13.226-2.493 9.495-2.684 4.608-2.686 1.24 9.972 2.297 2.494 7.67-3.74 3.746-3.547zm-99.142 57.915l.766-3.548.863-2.972 1.24-8.343 1.726-6.425 1.726-9.204-1.239-2.78 1.532-6.521v-5.274l2.687-5.753 2.297-2.397 6.613 1.055 7.295-1.055 3.258 1.151 2.297-.959 2.117-.671-1.156 17.739-1.253 24.834-1.044 21.478-30.49 1.056 1.531-8.343zm35.948 10.259l1.058-16.012.39 2.492.766 2.301.097 11.123z" fill="#2C1E25"/><path id="eavb4yw2mi7415" d="M589.867 415.933l-7.1-4.698s-4.886-9.685-4.984-9.973c-.098-.288-.766-9.3-.766-9.3l-2.882-5.37-5.652-21.957-4.51-10.26-7.867-18.218-4.79-5.85-7.865-1.63-12.559-4.602-6.418-2.301-.96-2.685 2.004-1.15 6.53-1.727.279-3.835-2.771.958-.487-2.013 3.076-3.451 3.063-5.562.474-12.082-.668-7.575-1.434-2.877-5.57-2.205-4.302-4.41-7.866-.96-6.237 1.344-3.258 2.684-1.337 2.205-3.55 2.685-1.531 5.37-.098 7.383-1.252 8.822 3.16 3.163-.947 4.411-2.214 1.344-.863-.96.097 3.356 5.082 2.397-12.46 6.425-16.401 4.315-9.495 19.369-4.692 30.299 5.555 2.301v13.52l13.324 11.219-4.302 15.821-4.511 32.89-4.511 13.806 9.022 8.63-2.98 14.67v24.164l-2.965 16.78 1.336 11.985-8.826.288-8.716 64.338 49.643 17.593 69.923-10.689-8.924-74.887-24.727.863-2.784-7.862-.39-9.684 2.394-13.041 1.35-3.26 1.337-6.711-.194-4.603-1.908-1.055-.194-6.137-1.921-9.78 1.155-4.22 13.226-2.492 9.495-2.685 4.609-2.685 1.239 9.972 2.31 2.493 7.672-3.74 3.731-3.547 12.85 6.423zM482.665 530.42l.765-3.547.864-2.973 1.239-8.342 1.726-6.424 1.726-9.205-1.238-2.78 1.53-6.52v-5.274l2.688-5.754 2.297-2.396 6.613 1.054 7.296-1.054 3.258 1.15 2.297-.96 2.116-.67-1.156 17.74-1.239 24.833-1.058 21.478-30.49 1.055 1.531-8.342zm35.961 10.26l1.045-16.013.39 2.494.765 2.301.098 11.123z" fill="#5C404E"/></g></g><g id="eavb4yw2mi7416" fill="#F87980" stroke="none" stroke-width="1"><path id="eavb4yw2mi7417" d="M1435.23-.46v1024h408.2V-.46zm59.17 606v.023h-19.83l10.805-318.628.525-15.596s-.6-67.4 80.8-96.3c81.4 28.9 75.8 97.3 75.8 97.3l3 333.2z"/><path id="eavb4yw2mi7418" d="M241.801-.46v1024h408.2V-.46zm357.498 604H454.714l-.015 1-17-1 5-331.2s-5.6-68.4 75.8-97.3c1.48.524 2.924 1.066 4.35 1.616.544.21 1.079.425 1.616.638q1.33.53 2.63 1.072c.586.245 1.17.49 1.747.738.879.38 1.74.767 2.597 1.156a153.147 153.147 0 014.97 2.357c.588.293 1.162.592 1.74.89q1.002.516 1.985 1.041c.575.308 1.147.617 1.711.93.692.383 1.37.771 2.045 1.16.478.276.965.548 1.435.827q1.577.935 3.09 1.892c.458.288.902.58 1.35.871q.978.633 1.932 1.273.658.444 1.305.89c.696.482 1.38.968 2.055 1.457.322.232.652.463.97.697q1.441 1.063 2.819 2.144c.27.213.532.427.8.64q1.035.827 2.037 1.66.45.377.893.754 1.015.865 1.992 1.738c.215.193.436.384.649.577q1.273 1.154 2.485 2.319c.168.162.329.325.496.487q.951.928 1.865 1.861c.264.27.523.538.78.808q.766.798 1.503 1.6c.259.281.521.561.775.843q.876.972 1.712 1.947c.12.14.248.278.366.417l-.023-.018c24.39 28.69 24.123 59.018 24.123 59.018z"/></g><g id="eavb4yw2mi7419"><g id="eavb4yw2mi7420" clip-path="url(#eavb4yw2mi742)" stroke="none" stroke-width="1"><path id="eavb4yw2mi7421" d="M359.7 568.439l9.9-438.3-41.1-1.3V-.461h-256v121.8l-41.1-1.2 9.7 440.2-41.1-1.1 10 464.001h381V569.239z" fill="#5C404E"/><path id="eavb4yw2mi7422" d="M1756.7-.46h256v130.6h42.1l-10.79 435.676 41.19-1.577-10 459.001h-381l-1-444 30.3-1.16-7.9-447.94h41.1z" fill="#5C404E" fill-rule="evenodd"/><path id="eavb4yw2mi7423" d="M328.5-.46v129.3l41.1 1.3-9.9 438.3 31.3.8v454h10V559.239l-31.3-.8 9.9-438.3-41.1-1.3V-.461z" fill="#A75155"/><path id="eavb4yw2mi7424" d="M200.501 643.139a46.69 46.69 0 00-46.7 46.7v259.6l103.3 4-10-263.6a46.54 46.54 0 00-46.6-46.7z" fill="#FFF1F0"/><path id="eavb4yw2mi7425" d="M123.302 191.539a46.69 46.69 0 00-46.7 46.7l4 247.6 89.3 12v-259.6a46.54 46.54 0 00-46.6-46.7z" fill="#FFF1F0"/><path id="eavb4yw2mi7426" d="M277.7 191.539a46.69 46.69 0 00-46.7 46.7v259.6l98.3 6-5-265.6a46.54 46.54 0 00-46.6-46.7z" fill="#FFF1F0"/><path id="eavb4yw2mi7427" d="M247.201-.46v58h-94.4l1-58z" fill="#FFF1F0"/><path id="eavb4yw2mi7428" d="M1884.7 643.139a46.69 46.69 0 0146.7 46.7l4 249.6-99.3 8 2-257.6a46.604 46.604 0 0146.6-46.7z" fill="#FFF1F0"/><path id="eavb4yw2mi7429" d="M1961.9 191.539a46.69 46.69 0 0146.7 46.7l-1 250.6-88.3-1-4-249.6a46.604 46.604 0 0146.6-46.7z" fill="#FFF1F0"/><path id="eavb4yw2mi7430" d="M1807.5 191.539a46.69 46.69 0 0146.7 46.7l-6 263.6-94.3-8 7-255.6a46.54 46.54 0 0146.6-46.7z" fill="#FFF1F0"/><path id="eavb4yw2mi7431" d="M1838.1-.46l-3 62 96.3-4v-58z" fill="#FFF1F0"/><path id="eavb4yw2mi7432" d="M1390.7-.46H690.602v453.4H1390.7z" fill="#5C404E"/><path id="eavb4yw2mi7433" d="M1435.3-.46h-62.8v1024h62.8z" fill="#FFF1F0"/><path id="eavb4yw2mi7434" d="M1372.5 45.54H708.801v159.6H1372.5z" fill="#FACABC"/><path id="eavb4yw2mi7435" d="M649.907 1023.54h62.8V-.46h-62.8z" fill="#FFF1F0"/><path id="eavb4yw2mi7436" d="M1372.5 45.54v-7.5l-659.801-5.1v9.9z" fill="#2C1E25"/><path id="eavb4yw2mi7437" d="M1372.5 38.04l62.8 1.2v6.2l-62.8.1z" fill="#CBBEBD"/><path id="eavb4yw2mi7438" d="M1435.3 39.24l33 1.2-4.5 17.1h-4.9l3.1-12-26.7-.1z" fill="#A75155"/><path id="eavb4yw2mi7439" d="M1435.3-.46v39.7l7.8 2V-.46z" fill="#A75155"/><path id="eavb4yw2mi7440" d="M1435.3 60.54h7.8v130.7l8.1 10.9h-9.7l-6.2-8z" fill="#A75155"/><path id="eavb4yw2mi7441" d="M1443.2 953.839v-751.7l-2.2-1.6-5.7 4.6V1024.5h7.9z" fill="#A75155"/><path id="eavb4yw2mi7442" d="M712.699 207.139v183.4s3.4-2.5 11.1-16.1v-167.3z" fill="#2C1E25"/><path id="eavb4yw2mi7443" d="M712.699 32.94V-.46h11.1v34.8z" fill="#2C1E25"/><path id="eavb4yw2mi7444" d="M712.699 56.139v139h8.5v-139z" fill="#BE988D"/><path id="eavb4yw2mi7445" d="M712.698 32.94h-62.8v9.9h62.8z" fill="#CBBEBD"/><path id="eavb4yw2mi7446" d="M1088.1 107.839c-20.9 9.7-18.7 19.6-18.7 19.6v67.7h18.7v-.7l.1.7h18.7v-67.7c-.1 0 2.1-9.9-18.8-19.6z" fill="#CBBEBD"/><path id="eavb4yw2mi7447" d="M1038.8 107.839c-20.9 9.7-18.7 19.6-18.7 19.6v67.7h18.7v-.7l.1.7h18.7v-67.7c-.1 0 2-9.9-18.8-19.6z" fill="#FFF1F0"/><path id="eavb4yw2mi7448" d="M1038.8 105.139a18.8 18.8 0 10-18.8-18.8c.001 10.383 8.417 18.799 18.8 18.8z" fill="#FFF1F0"/><path id="eavb4yw2mi7449" d="M641.398 195.139l792.302-3 10 13-809.302 2z" fill="#FFF1F0"/><path id="eavb4yw2mi7450" d="M619.199 42.54l842.801 3-4 15-834.801-5z" fill="#FFF1F0"/><path id="eavb4yw2mi7451" d="M649.898 32.94h-18l2.5 9.6 15.5.1z" fill="#A75155"/><path id="eavb4yw2mi7452" d="M1207.6 205.739s86.3 50.7 113.1 89.6c27.9 40.6 51.8 77.8 51.8 77.8v35l-206.5-202.3z" fill="#2C1E25"/><path id="eavb4yw2mi7453" d="M1372.6 373.139s42.7 77.5 42.7 145-11.5 505.101-11.5 505.101l-25.2.3z" fill="#CBBEBD"/><path id="eavb4yw2mi7454" d="M1075.1 35.74V-.46h-16.3v37.9z" fill="#2C1E25"/><path id="eavb4yw2mi7455" d="M921.698 194.039c-6.6 4.6-12.9 8.9-18.8 12.9l305.502-1.2c-6.6-4.4-13.6-9.2-20.9-14.4z" fill="#CBBEBD"/><path id="eavb4yw2mi7456" d="M1121.5 193.239l34.7-.1-.1-25.7a432.247 432.247 0 01-32.5-29.5z" fill="#CBBEBD"/><path id="eavb4yw2mi7457" d="M921.699 194.039c48-33.9 108.101-85.6 115.401-136l38.9.2c7.4 49.7 66.1 100.7 113.8 134.6z" fill="#BE988D"/><path id="eavb4yw2mi7458" d="M921.699 194.039c48-33.9 108.101-85.6 115.401-136l38.9.2c7.4 49.7 66.1 100.7 113.8 134.6z" fill="#BE988D"/><path id="eavb4yw2mi7459" d="M1075.9 58.24s-.8-9.9-.8-14.1h-16s-.1 11.2 0 14z" fill="#CBBEBD"/><path id="eavb4yw2mi7460" d="M1059.1 56.04V-.46h-37.3v56.5c0 88.2-177.101 184.6-177.101 184.6H1236.2s-177.1-96.401-177.1-184.6z" fill="#F87980"/><path id="eavb4yw2mi7461" d="M1040.7 183.639c-200.6 0-363.2 162.6-363.2 363.2l5 476.701H1391l13-476.701c-.1-200.6-162.7-363.2-363.3-363.2z" fill="#F87980"/><path id="eavb4yw2mi7462" d="M1030.1 368.539c-191.202 81.3-179.702 283-179.702 283v371.701H1229.8V651.439s-8.5-201.6-199.7-282.9z" fill="#FACABC"/><path id="eavb4yw2mi7463" d="M1040.7 171.139c17.728 0 32.1-14.372 32.1-32.1s-14.372-32.1-32.1-32.1-32.1 14.372-32.1 32.1a32.098 32.098 0 0032.1 32.1z" fill="#FACABC"/><path id="eavb4yw2mi7464" d="M1852.9 701.539a46.761 46.761 0 0167.8-41.7c-12.552-15.156-33.263-20.81-51.774-14.13-18.51 6.678-30.842 24.251-30.826 43.93l-2 257.6 14.9-1.2z" fill="#CBBEBD"/><path id="eavb4yw2mi7465" d="M1925.5 244.739a46.627 46.627 0 0166.4-42.3 46.636 46.636 0 00-76.6 35.8l4 249.6 10.1.1z" fill="#CBBEBD"/><path id="eavb4yw2mi7466" d="M1777.8 248.539a46.69 46.69 0 0146.7-46.7 45.364 45.364 0 0115.2 2.6 46.682 46.682 0 00-78.9 33.8l-7 255.6 17.2 1.5z" fill="#CBBEBD"/><path id="eavb4yw2mi7467" d="M1838.1-.46l-3 62 13.8-.5 3-61.5h-4.9" fill="#CBBEBD"/><path id="eavb4yw2mi7468" d="M850.398 1023.24h21.1V667.039s-11.5-201.7 179.702-283a329.558 329.558 0 0156.6 30.7 322.862 322.862 0 00-77.7-46.3c-191.202 81.3-179.702 283-179.702 283z" fill="#BE988D"/><path id="eavb4yw2mi7469" d="M169.998 707.039a46.645 46.645 0 0171.7-39.4c-10.12-18.854-31.766-28.412-52.518-23.188-20.752 5.223-35.293 23.889-35.282 45.288v259.6l16.1.6z" fill="#CBBEBD"/><path id="eavb4yw2mi7470" d="M246.6 246.239a46.69 46.69 0 0146.7-46.7c4.467.014 8.91.654 13.2 1.9a46.641 46.641 0 00-75.5 36.7v259.6l15.6 1z" fill="#CBBEBD"/><path id="eavb4yw2mi7471" d="M92.202 251.939a46.721 46.721 0 0168.9-41.1c-11.875-16.392-32.959-23.266-52.213-17.023-19.254 6.243-32.292 24.182-32.287 44.423l4 247.6 15.4 2.1z" fill="#CBBEBD"/><path id="eavb4yw2mi7472" d="M162.101 6.14v-6.6h-8.3l-1 58h8.4z" fill="#CBBEBD"/><path id="eavb4yw2mi7473" d="M1016.4 144.339a32.12 32.12 0 0146.3-28.8 31.708 31.708 0 00-21.9-8.7c-14.92.003-27.873 10.285-31.261 24.816-3.388 14.531 3.68 29.482 17.061 36.084a31.61 31.61 0 01-10.2-23.4z" fill="#BE988D"/><path id="eavb4yw2mi7474" d="M1360 18.514L740 34.528l15.072 181.811H1339.4z" fill="#CBBEBD"/><path id="eavb4yw2mi7475" d="M1350.62 28.514L727 44.528l15.072 181.811h588.058z" fill="#FFF1F0"/><path id="eavb4yw2mi7476" d="M1220.41-15.831l-4.04 47.807 5.27-.136L1227-16z" fill="#2C1E25"/><path id="eavb4yw2mi7477" d="M1217.81-15.764l-4.04 47.808 5.26-.136 5.36-47.841z" fill="#5C404E"/><path id="eavb4yw2mi7478" d="M867.447 40.835l-7.318.24-10.922-54.508h9.534z" fill="#2C1E25"/><path id="eavb4yw2mi7479" d="M865.447 40.835l-7.318.24-10.922-54.508h9.534z" fill="#5C404E"/><path id="eavb4yw2mi7480" d="M791.658 100.989l.135 5.373h-3.942L780.75 94.59h-.216l-.027 5.778.108 5.994h-3.321l.189-5.13-.162-12.258h3.915l7.101 11.772h.243l-.081-11.61 3.375-.216zm8.469-7.425a4.999 4.999 0 013.24.945 3.085 3.085 0 011.188 2.592q0 .486-.162 3.078-.027.756-.081 1.566-.054.783-.054 1.35c-.019.225.028.45.135.648.13.123.308.182.486.162.237-.008.473-.045.702-.108l.27.216-.324 1.89a4.293 4.293 0 01-1.971.675 2.3 2.3 0 01-1.35-.567 2.63 2.63 0 01-.729-1.404h-.189a7.89 7.89 0 01-2.781 1.998 4.486 4.486 0 01-3.051-1.026 3.488 3.488 0 01-1.107-2.727 3.052 3.052 0 01.675-2.106 3.66 3.66 0 012.106-1.053l4.131-.783v-1.107a1.54 1.54 0 00-1.728-1.755 4.808 4.808 0 00-1.782.378c-.733.32-1.43.72-2.079 1.188l-.27-.162-.405-2.376a9.615 9.615 0 012.484-1.107 8.998 8.998 0 012.646-.405zm-1.755 7.776c-.252.05-.48.184-.648.378-.143.225-.21.49-.189.756-.023.404.113.801.378 1.107.285.264.665.401 1.053.378a3.201 3.201 0 002.214-1.242l.054-1.998zm16.455-7.695a4.357 4.357 0 013.618 1.593 7.077 7.077 0 011.269 4.51 7.31 7.31 0 01-1.647 5.102 5.887 5.887 0 01-4.59 1.782 10.713 10.713 0 01-1.809-.162l.081 4.887h-3.564l.189-10.179-.162-7.128 3.429-.297-.027 1.836h.189a8.734 8.734 0 011.458-1.16 7.953 7.953 0 011.566-.784zm-1.323 10.638a2.475 2.475 0 002.133-.999c.544-.881.799-1.91.729-2.943a5.215 5.215 0 00-.621-2.835 1.953 1.953 0 00-1.782-.972 3.433 3.433 0 00-2.349 1.161l-.027 3.132.054 3.051a4.84 4.84 0 001.863.405zm13.867-10.719a5.374 5.374 0 014.212 1.62 6.756 6.756 0 011.458 4.671 7.342 7.342 0 01-1.566 5.049 5.774 5.774 0 01-4.509 1.728 5.374 5.374 0 01-4.212-1.62 6.756 6.756 0 01-1.458-4.671 7.237 7.237 0 011.566-5.022 5.727 5.727 0 014.509-1.755zm-.243 2.43a2.13 2.13 0 00-1.89.864 5.222 5.222 0 00-.567 2.781 7.664 7.664 0 00.594 3.537 2.06 2.06 0 001.944 1.053 2.086 2.086 0 001.863-.837 5.09 5.09 0 00.594-2.808 7.297 7.297 0 00-.621-3.51 2.025 2.025 0 00-1.917-1.08zm11.883 4.833l.189 5.535h-3.591l.189-5.211-.162-13.473 3.591-.27zm13.303-.297l-7.29.054q.243 3.375 3.429 3.375a9.026 9.026 0 003.726-.945l.297.189-.54 2.673c-1.232.478-2.54.734-3.861.756a6.256 6.256 0 01-4.671-1.728 6.58 6.58 0 01-1.674-4.779 6.703 6.703 0 011.647-4.779 5.77 5.77 0 014.455-1.782 4.945 4.945 0 013.699 1.323 4.87 4.87 0 011.323 3.645c-.01.525-.054 1.048-.135 1.566zm-2.592-2.403a2.355 2.355 0 00-.486-1.62 1.78 1.78 0 00-1.431-.567 2.381 2.381 0 00-1.755.702 3.564 3.564 0 00-.945 1.971l4.563-.108zm10.819-4.563a5.374 5.374 0 014.212 1.62 6.756 6.756 0 011.458 4.671 7.342 7.342 0 01-1.566 5.049 5.774 5.774 0 01-4.509 1.728 5.374 5.374 0 01-4.212-1.62 6.756 6.756 0 01-1.458-4.671 7.237 7.237 0 011.566-5.022 5.727 5.727 0 014.509-1.755zm-.243 2.43a2.13 2.13 0 00-1.89.864 5.222 5.222 0 00-.567 2.781 7.664 7.664 0 00.594 3.537 2.06 2.06 0 001.944 1.053 2.086 2.086 0 001.863-.837 5.09 5.09 0 00.594-2.808 7.297 7.297 0 00-.621-3.51 2.025 2.025 0 00-1.917-1.08zm15.937 2.538a2.022 2.022 0 00-.432-1.458 1.528 1.528 0 00-1.269-.54c-.974.07-1.892.48-2.592 1.161v3.132l.162 5.535h-3.591l.189-5.184-.135-7.128 3.402-.297v1.836h.189a9.163 9.163 0 013.24-1.944 4.62 4.62 0 013.132.945 3.175 3.175 0 011.026 2.673l-.081 3.591.162 5.508h-3.618zm18.486 0a2.15 2.15 0 00-.405-1.485 1.565 1.565 0 00-1.269-.513c-.974.07-1.892.48-2.592 1.161l-.054 3.132.189 5.535h-3.591l.189-5.211-.162-13.473 3.591-.27-.135 8.181h.162a9.113 9.113 0 013.267-1.944 4.512 4.512 0 013.105.945 3.243 3.243 0 011.053 2.673l-.081 3.591.135 5.508h-3.591zm16.287 1.998l-7.29.054q.243 3.375 3.429 3.375a9.026 9.026 0 003.726-.945l.297.189-.54 2.673c-1.232.478-2.54.734-3.861.756a6.256 6.256 0 01-4.671-1.728 6.58 6.58 0 01-1.674-4.779 6.703 6.703 0 011.647-4.779 5.77 5.77 0 014.455-1.782 4.945 4.945 0 013.699 1.323 4.87 4.87 0 011.323 3.645c-.01.525-.054 1.048-.135 1.566zm-2.592-2.403a2.355 2.355 0 00-.486-1.62 1.78 1.78 0 00-1.431-.567 2.381 2.381 0 00-1.755.702 3.564 3.564 0 00-.945 1.971l4.563-.108zm15.327 2.403l-7.29.054q.243 3.375 3.429 3.375a9.026 9.026 0 003.726-.945l.297.189-.54 2.673c-1.232.478-2.54.734-3.861.756a6.256 6.256 0 01-4.671-1.728 6.58 6.58 0 01-1.674-4.779 6.703 6.703 0 011.647-4.779 5.77 5.77 0 014.455-1.782 4.945 4.945 0 013.699 1.323 4.87 4.87 0 011.323 3.645c-.01.525-.054 1.048-.135 1.566zm-2.592-2.403a2.355 2.355 0 00-.486-1.62 1.78 1.78 0 00-1.431-.567 2.381 2.381 0 00-1.755.702 3.564 3.564 0 00-.945 1.971l4.563-.108zm10.008-2.052l-.081 4.752.189 5.535h-3.591l.216-5.211-.054-5.076h-1.89l-.135-.189.189-1.97h1.809l-.027-1.108a4.88 4.88 0 011.35-3.753 5.564 5.564 0 013.969-1.323c.671.007 1.34.079 1.998.216l-.216 2.565-.243.162a4.717 4.717 0 00-1.863-.432q-1.539 0-1.566 1.917l-.027 1.755h6.453l.108.19-.162 1.97zm9.535 7.641a4.14 4.14 0 001.809-.459l.297.27-.351 2.133a8.176 8.176 0 01-2.808.864q-3.645-.378-3.645-3.564l.135-2.241-.027-4.644h-1.674l-.135-.189.189-1.97h1.593v-2.08l3.267-1.053.243.216-.081 2.916h3.213l.108.19-.162 1.97h-3.213l-.162 6.048c-.04.439.075.878.324 1.242.295.263.687.39 1.08.351zm18.61-2.889l.081 2.268c-.016.222.021.444.108.648.12.12.29.18.459.162.246-.007.491-.043.729-.108l.243.216-.297 1.89a4.63 4.63 0 01-1.998.675 2.462 2.462 0 01-1.404-.567 2.514 2.514 0 01-.783-1.323h-.216c-.8.754-1.71 1.382-2.7 1.863a5.152 5.152 0 01-4.104-1.674 6.99 6.99 0 01-1.458-4.698 6.678 6.678 0 011.674-4.887 6.22 6.22 0 014.644-1.7c.58.005 1.158.059 1.728.161l-.054-6.075 3.564-.27zm-5.265-4.806q-2.7 0-2.7 3.43a6.357 6.357 0 00.648 3.212 2.076 2.076 0 001.89 1.08 2.922 2.922 0 002.187-1.107l.054-1.485-.081-4.644a4.775 4.775 0 00-1.998-.486zm18.721 4.509l-7.29.054q.243 3.375 3.429 3.375a9.026 9.026 0 003.726-.945l.297.189-.54 2.673c-1.232.478-2.54.734-3.861.756a6.256 6.256 0 01-4.671-1.728 6.58 6.58 0 01-1.674-4.779 6.703 6.703 0 011.647-4.779 5.77 5.77 0 014.455-1.782 4.945 4.945 0 013.699 1.323 4.87 4.87 0 011.323 3.645c-.01.525-.054 1.048-.135 1.566zm-2.592-2.403a2.355 2.355 0 00-.486-1.62 1.78 1.78 0 00-1.431-.567 2.381 2.381 0 00-1.755.702 3.564 3.564 0 00-.945 1.971l4.563-.108zm17.038-9.396a7.115 7.115 0 015.643 2.241 9.113 9.113 0 011.998 6.318q0 4.482-2.16 6.912a7.737 7.737 0 01-6.102 2.43 7.123 7.123 0 01-5.643-2.268 9.648 9.648 0 01-1.971-6.48q0-4.401 2.133-6.777a7.827 7.827 0 016.102-2.376zm-.324 2.943a3.595 3.595 0 00-3.132 1.35 7.691 7.691 0 00-.972 4.401 9.689 9.689 0 00.945 4.968 3.522 3.522 0 003.186 1.485 3.595 3.595 0 003.132-1.35 7.954 7.954 0 00.972-4.482 9.173 9.173 0 00-.972-4.887 3.454 3.454 0 00-3.159-1.485zm17.948 6.858a2.04 2.04 0 00-.43-1.458 1.543 1.543 0 00-1.27-.54c-.976.07-1.897.48-2.6 1.161v3.132l.17 5.535h-3.594l.189-5.184-.135-7.128 3.4-.297v1.836h.19a9.163 9.163 0 013.24-1.944 4.61 4.61 0 013.13.945 3.195 3.195 0 011.03 2.673l-.08 3.59.16 5.509h-3.62zm8.65-4.725h5.45l1.38-.027.02 2.133-6.07 8.154h3.81l2.29-.216.19.243-.24 2.322-3.13-.054h-4.97l-1.73.081v-2.106l6.13-8.208h-3.62l-2.24.19-.22-.244.27-2.322zm18.9 6.723l-7.29.054q.24 3.375 3.42 3.375a9.035 9.035 0 003.73-.945l.3.189-.54 2.673a11.223 11.223 0 01-3.86.756 6.247 6.247 0 01-4.67-1.728 6.566 6.566 0 01-1.68-4.779 6.696 6.696 0 011.65-4.779 5.765 5.765 0 014.45-1.782 4.596 4.596 0 015.03 4.968 11.576 11.576 0 01-.14 1.566zm-2.6-2.403a2.375 2.375 0 00-.48-1.62 1.787 1.787 0 00-1.43-.567 2.383 2.383 0 00-1.76.702 3.534 3.534 0 00-.94 1.971l4.56-.108zm11.42-.08v2.213l-6.43.999-.3-.297v-2.24l6.43-.973zm11.56 5.588l-.24 2.727h-9.4l.19-5.184-.19-12.204h3.73l-.22 11.88.09 2.484h5.83zm1.94-2.457l-.14-7.128 3.54-.297-.16 7.074.16 5.535h-3.59zm1.7-13.527c.48-.03.95.146 1.29.486.343.363.52.852.49 1.35a2.037 2.037 0 01-.51 1.458c-.787.7-1.966.722-2.78.054a1.91 1.91 0 01-.46-1.377 2 2 0 01.51-1.43c.392-.373.92-.568 1.46-.54zm14.81 12.879l-7.29.054q.255 3.375 3.43 3.375a9.035 9.035 0 003.73-.945l.3.189-.54 2.673a11.223 11.223 0 01-3.86.756 6.286 6.286 0 01-4.68-1.728 6.603 6.603 0 01-1.67-4.779 6.696 6.696 0 011.65-4.779 5.765 5.765 0 014.45-1.782 4.944 4.944 0 013.7 1.323c.925.98 1.403 2.3 1.32 3.645-.007.525-.05 1.048-.13 1.566zm-2.59-2.403a2.375 2.375 0 00-.48-1.62 1.787 1.787 0 00-1.43-.567 2.383 2.383 0 00-1.76.702 3.534 3.534 0 00-.94 1.971l4.56-.108zm7.96-2.322l1.89 7.182h.19l2.27-6.993.46-2.187h3.13l-4.21 12.555h-3.87l-3.56-12.474 3.35-.162zm19.08 4.725l-7.29.054q.24 3.375 3.43 3.375a9.03 9.03 0 003.72-.945l.3.189-.54 2.673a11.223 11.223 0 01-3.86.756 6.247 6.247 0 01-4.67-1.728 6.566 6.566 0 01-1.68-4.779 6.696 6.696 0 011.65-4.779 5.773 5.773 0 014.46-1.782 4.92 4.92 0 013.69 1.323 4.843 4.843 0 011.33 3.645 11.59 11.59 0 01-.14 1.566zm-2.59-2.403a2.376 2.376 0 00-.49-1.62 1.773 1.773 0 00-1.43-.567 2.399 2.399 0 00-1.76.702 3.601 3.601 0 00-.94 1.971l4.56-.108zm11.41-.08v2.213l-6.43.999-.3-.297v-2.24l6.43-.973zm8.78 8.315h-4.37l-5.32-17.388h3.73l.43 2.295 3.29 11.691h.25l3.78-11.502.45-2.484h3.62zm13.31-12.582c.228.005.455.023.68.054v3.321l-.38.135a2.618 2.618 0 00-1-.189c-1.04 0-1.99.675-2.83 2.025v1.7l.19 5.536h-3.6l.22-5.184-.16-7.128 3.4-.297-.03 2.457h.22c.88-1.62 1.98-2.43 3.29-2.43zm7.66-.216a5.361 5.361 0 014.21 1.62 6.717 6.717 0 011.46 4.671 7.361 7.361 0 01-1.56 5.049 5.788 5.788 0 01-4.51 1.728 5.361 5.361 0 01-4.21-1.62 6.718 6.718 0 01-1.46-4.671 7.256 7.256 0 011.56-5.022 5.741 5.741 0 014.51-1.755zm-.24 2.43a2.14 2.14 0 00-1.89.864 5.199 5.199 0 00-.57 2.781 7.597 7.597 0 00.6 3.537c.386.7 1.143 1.11 1.94 1.053a2.076 2.076 0 001.86-.837 5.049 5.049 0 00.6-2.808 7.35 7.35 0 00-.62-3.51 2.036 2.036 0 00-1.92-1.08zm20.36 8.019l-.32 1.89a3.931 3.931 0 01-2.06.675 2.416 2.416 0 01-1.29-.621 3.106 3.106 0 01-.78-1.404h-.25a7.455 7.455 0 01-3.18 1.97 4.732 4.732 0 01-3.14-.917 3.362 3.362 0 01-1.02-2.7l.05-3.186-.13-5.67 3.48-.297-.08 7.965a2.08 2.08 0 00.38 1.43c.306.341.753.52 1.21.487a3.509 3.509 0 002.35-1.053V94.05l3.43-.297-.24 9.342a1.1 1.1 0 00.13.62.611.611 0 00.49.19c.247-.007.492-.043.73-.108zm4.2-8.316l1.54 7.047h.22l1.89-6.858.43-2.079h3.48l.27 1.89 1.6 7.02h.21l1.84-6.83.43-2.08h3.02l-3.91 12.555h-3.38l-1.91-8.073h-.25l-2.24 8.073h-3.53l-3.27-12.474 3.27-.162zm25.99 4.833l-7.29.054c.16 2.25 1.31 3.375 3.43 3.375a9.035 9.035 0 003.73-.945l.29.189-.54 2.673a11.18 11.18 0 01-3.86.756 6.247 6.247 0 01-4.67-1.728 6.561 6.561 0 01-1.67-4.78 6.736 6.736 0 011.64-4.778 5.787 5.787 0 014.46-1.782 4.96 4.96 0 013.7 1.323c.925.98 1.403 2.3 1.32 3.645-.007.524-.05 1.047-.13 1.566zm-2.59-2.403a2.326 2.326 0 00-.49-1.62 1.773 1.773 0 00-1.43-.567 2.36 2.36 0 00-1.75.702c-.517.54-.85 1.23-.95 1.971l4.56-.108zm9.01 2.7l.19 5.535h-3.59l.19-5.211-.16-13.473 3.59-.27zm3.65-1.35q1.455 2.349 4.37 6.29l-.03.379c-.666.15-1.34.258-2.02.324-.7.09-1.14.144-1.3.162l-.38-.162a57.3 57.3 0 01-4.1-6.669v-.243l3.13-4.455.65-1.296h3.78zm15.51 1.053l-7.29.054q.24 3.375 3.43 3.375a9.03 9.03 0 003.72-.945l.3.189-.54 2.673a11.223 11.223 0 01-3.86.756 6.247 6.247 0 01-4.67-1.728 6.566 6.566 0 01-1.68-4.78 6.696 6.696 0 011.65-4.778 5.772 5.772 0 014.46-1.782 4.92 4.92 0 013.69 1.323 4.843 4.843 0 011.33 3.645 11.576 11.576 0 01-.14 1.566zm-2.59-2.403a2.376 2.376 0 00-.49-1.62 1.773 1.773 0 00-1.43-.567 2.399 2.399 0 00-1.76.702 3.6 3.6 0 00-.94 1.971l4.56-.108zm12.54-4.347c.228.005.455.023.68.054v3.321l-.38.135a2.618 2.618 0 00-1-.189c-1.04 0-1.99.675-2.84 2.025v1.7l.19 5.536h-3.59l.22-5.184-.16-7.128 3.4-.297-.03 2.457h.22c.88-1.62 1.98-2.43 3.29-2.43zm5.72 7.047l.19 5.535h-3.59l.19-5.211-.16-13.473 3.59-.27zm3.65-1.35q1.455 2.348 4.37 6.29l-.03.378c-.666.15-1.34.259-2.02.324-.7.09-1.14.144-1.3.162l-.38-.162a57.3 57.3 0 01-4.1-6.668v-.243l3.13-4.455.65-1.296h3.78zm-440.536 28.031q-.729.189-2.079.405l-.054.108a4.266 4.266 0 01-1.08 5.049 6.103 6.103 0 01-3.969 1.188 9.524 9.524 0 01-1.566-.135c-.122.114-.23.24-.324.378a.618.618 0 00-.081.324q0 .486.648.675c.675.172 1.36.299 2.052.378.891.096 1.775.25 2.646.459.68.16 1.31.484 1.836.945.538.487.826 1.192.783 1.917a3.504 3.504 0 01-.81 2.268 5.052 5.052 0 01-2.187 1.593 8.448 8.448 0 01-3.186.567 6.177 6.177 0 01-3.78-.999 3.155 3.155 0 01-1.323-2.646 7.66 7.66 0 012.241-2.025v-.135a3.42 3.42 0 01-1.431-.891 2.312 2.312 0 01-.513-1.566 8.669 8.669 0 011.835-1.647v-.135a3.862 3.862 0 01-1.484-1.404 4.275 4.275 0 01-.486-2.079 4.015 4.015 0 011.458-3.294 6.103 6.103 0 013.969-1.188 6.928 6.928 0 012.646.486c1.35-.249 2.678-.61 3.969-1.08l.27.243zm-7.074 4.59a2.27 2.27 0 001.674-.567 2.23 2.23 0 00.567-1.647 1.838 1.838 0 00-2.106-2.052q-2.268 0-2.268 2.079c-.042.598.152 1.19.54 1.647a2.16 2.16 0 001.593.54zm2.862 7.749a1.007 1.007 0 00-.783-.999 11.627 11.627 0 00-2.349-.459l-.918-.135c-.364.229-.692.51-.972.837a1.36 1.36 0 00-.324.864 1.31 1.31 0 00.648 1.134 3.414 3.414 0 001.89.432 3.878 3.878 0 002.025-.459c.477-.217.783-.692.783-1.215zm15.257-7.317l-7.29.054q.243 3.375 3.429 3.375a9.026 9.026 0 003.726-.945l.297.189-.54 2.673c-1.232.478-2.54.734-3.861.756a6.256 6.256 0 01-4.671-1.728 6.58 6.58 0 01-1.674-4.779 6.704 6.704 0 011.647-4.779 5.77 5.77 0 014.455-1.782 4.945 4.945 0 013.699 1.323 4.87 4.87 0 011.323 3.645c-.01.524-.054 1.048-.135 1.566zm-2.592-2.403a2.355 2.355 0 00-.486-1.62 1.78 1.78 0 00-1.431-.567 2.381 2.381 0 00-1.755.702 3.564 3.564 0 00-.945 1.971l4.563-.108zm7.956-2.322l1.89 7.182h.189l2.268-6.993.459-2.187h3.132l-4.212 12.555h-3.861l-3.564-12.474 3.348-.162zm14.569-2.241a5.374 5.374 0 014.212 1.62 6.756 6.756 0 011.458 4.671 7.343 7.343 0 01-1.566 5.049 5.774 5.774 0 01-4.509 1.728 5.374 5.374 0 01-4.212-1.62 6.756 6.756 0 01-1.458-4.671 7.237 7.237 0 011.566-5.022 5.727 5.727 0 014.509-1.755zm-.243 2.43a2.13 2.13 0 00-1.89.864 5.222 5.222 0 00-.567 2.781 7.665 7.665 0 00.594 3.537 2.06 2.06 0 001.944 1.053 2.086 2.086 0 001.863-.837 5.09 5.09 0 00.594-2.808 7.298 7.298 0 00-.621-3.51 2.025 2.025 0 00-1.917-1.08zm15.938 2.538a2.022 2.022 0 00-.432-1.458 1.528 1.528 0 00-1.269-.54c-.974.07-1.892.48-2.592 1.161v3.132l.162 5.535h-3.591l.189-5.184-.135-7.128 3.402-.297v1.836h.189a9.163 9.163 0 013.24-1.944 4.62 4.62 0 013.132.945 3.175 3.175 0 011.026 2.673l-.081 3.591.162 5.508h-3.618zm17.045 2.295l.081 2.268c-.016.222.021.444.108.648.12.12.29.18.459.162.246-.007.491-.043.729-.108l.243.216-.297 1.89a4.63 4.63 0 01-1.998.675 2.462 2.462 0 01-1.404-.567 2.514 2.514 0 01-.783-1.323h-.216c-.8.754-1.71 1.382-2.7 1.863a5.152 5.152 0 01-4.104-1.674 6.99 6.99 0 01-1.458-4.698 6.678 6.678 0 011.674-4.887 6.22 6.22 0 014.644-1.701c.58.005 1.158.06 1.728.162l-.054-6.075 3.564-.27zm-5.265-4.806q-2.7 0-2.7 3.429a6.357 6.357 0 00.648 3.213 2.076 2.076 0 001.89 1.08 2.922 2.922 0 002.187-1.107l.054-1.485-.081-4.644a4.775 4.775 0 00-1.998-.486zm18.721 4.509l-7.29.054q.243 3.375 3.429 3.375a9.026 9.026 0 003.726-.945l.297.189-.54 2.673c-1.232.478-2.54.734-3.861.756a6.256 6.256 0 01-4.671-1.728 6.58 6.58 0 01-1.674-4.779 6.704 6.704 0 011.647-4.779 5.77 5.77 0 014.455-1.782 4.945 4.945 0 013.699 1.323 4.87 4.87 0 011.323 3.645c-.01.524-.054 1.048-.135 1.566zm-2.592-2.403a2.355 2.355 0 00-.486-1.62 1.78 1.78 0 00-1.431-.567 2.381 2.381 0 00-1.755.702 3.564 3.564 0 00-.945 1.971l4.563-.108zm13.329.405a2.022 2.022 0 00-.432-1.458 1.528 1.528 0 00-1.269-.54c-.974.07-1.892.48-2.592 1.161v3.132l.162 5.535h-3.591l.189-5.184-.135-7.128 3.402-.297v1.836h.189a9.163 9.163 0 013.24-1.944 4.62 4.62 0 013.132.945 3.175 3.175 0 011.026 2.673l-.081 3.591.162 5.508h-3.618zm8.081 4.185c.481-.03.953.147 1.296.486.34.365.515.853.486 1.35a2.03 2.03 0 01-.513 1.458c-.788.7-1.967.722-2.781.054a1.928 1.928 0 01-.459-1.377c-.025-.526.16-1.04.513-1.431a1.97 1.97 0 011.458-.54zm23.703-1.863l.108 5.508h-3.645l.162-5.184-.027-2.025-3.915-.027-3.537.054-.027 1.674.135 5.508h-3.645l.189-5.184-.189-12.204h3.699l-.108 7.182 3.726.054 3.645-.054-.108-7.182h3.726zm13.035-.324l-7.29.054q.243 3.375 3.429 3.375a9.026 9.026 0 003.726-.945l.297.189-.54 2.673c-1.232.478-2.54.734-3.861.756a6.256 6.256 0 01-4.671-1.728 6.58 6.58 0 01-1.674-4.779 6.704 6.704 0 011.647-4.779 5.77 5.77 0 014.455-1.782 4.945 4.945 0 013.699 1.323 4.87 4.87 0 011.323 3.645c-.01.524-.054 1.048-.135 1.566zm-2.592-2.403a2.355 2.355 0 00-.486-1.62 1.78 1.78 0 00-1.431-.567 2.381 2.381 0 00-1.755.702 3.564 3.564 0 00-.945 1.971l4.563-.108zm10.683 5.589a4.14 4.14 0 001.809-.459l.297.27-.351 2.133a8.176 8.176 0 01-2.808.864q-3.645-.378-3.645-3.564l.135-2.241-.027-4.644h-1.674l-.135-.189.189-1.971h1.593v-2.079l3.267-1.053.243.216-.081 2.916h3.213l.108.189-.162 1.971h-3.213l-.162 6.048c-.04.439.075.878.324 1.242.295.263.687.39 1.08.351zm14.911-10.071a4.28 4.28 0 013.618 1.62 6.98 6.98 0 011.269 4.455 7.352 7.352 0 01-1.647 5.13 5.905 5.905 0 01-4.563 1.782 8.637 8.637 0 01-3.024-.621l-1.89.675-.432-.351.189-5.13-.162-13.527 3.564-.27-.108 8.181h.162a8.734 8.734 0 011.458-1.161 7.953 7.953 0 011.566-.783zm-1.323 10.638a2.517 2.517 0 002.106-.972c.57-.881.835-1.924.756-2.97a5.3 5.3 0 00-.621-2.835 1.976 1.976 0 00-1.809-.972c-.89.07-1.72.475-2.322 1.134l-.054 3.078.054 3.051c.585.304 1.231.47 1.89.486zm18.399-3.753l-7.29.054q.243 3.375 3.429 3.375a9.026 9.026 0 003.726-.945l.297.189-.54 2.673c-1.232.478-2.54.734-3.861.756a6.256 6.256 0 01-4.671-1.728 6.58 6.58 0 01-1.674-4.779 6.704 6.704 0 011.647-4.779 5.77 5.77 0 014.455-1.782 4.945 4.945 0 013.699 1.323 4.87 4.87 0 011.323 3.645c-.01.524-.054 1.048-.135 1.566zm-2.592-2.403a2.355 2.355 0 00-.486-1.62 1.78 1.78 0 00-1.431-.567 2.381 2.381 0 00-1.755.702 3.564 3.564 0 00-.945 1.971l4.563-.108zm12.546-4.347c.226.005.451.023.675.054v3.321l-.378.135a2.598 2.598 0 00-.999-.189q-1.566 0-2.835 2.025v1.701l.189 5.535h-3.591l.216-5.184-.162-7.128 3.402-.297-.027 2.457h.216q1.323-2.43 3.294-2.43zm7.659-.216a5.374 5.374 0 014.212 1.62 6.756 6.756 0 011.458 4.671 7.343 7.343 0 01-1.566 5.049 5.774 5.774 0 01-4.509 1.728 5.374 5.374 0 01-4.212-1.62 6.756 6.756 0 01-1.458-4.671 7.237 7.237 0 011.566-5.022 5.727 5.727 0 014.509-1.755zm-.243 2.43a2.13 2.13 0 00-1.89.864 5.222 5.222 0 00-.567 2.781 7.665 7.665 0 00.594 3.537 2.06 2.06 0 001.944 1.053 2.086 2.086 0 001.863-.837 5.09 5.09 0 00.594-2.808 7.298 7.298 0 00-.621-3.51 2.025 2.025 0 00-1.917-1.08zm18.094 4.536l-7.29.054q.243 3.375 3.429 3.375a9.026 9.026 0 003.726-.945l.297.189-.54 2.673c-1.232.478-2.54.734-3.861.756a6.256 6.256 0 01-4.671-1.728 6.58 6.58 0 01-1.674-4.779 6.704 6.704 0 011.647-4.779 5.77 5.77 0 014.455-1.782 4.945 4.945 0 013.699 1.323 4.87 4.87 0 011.323 3.645c-.01.524-.054 1.048-.135 1.566zm-2.592-2.403a2.355 2.355 0 00-.486-1.62 1.78 1.78 0 00-1.431-.567 2.381 2.381 0 00-1.755.702 3.564 3.564 0 00-.945 1.971l4.563-.108zm20.646 8.235l.22-7.83q0-1.998-1.71-1.998a4.06 4.06 0 00-2.53 1.08l-.08 3.24.16 5.508h-3.59l.21-7.83a2.04 2.04 0 00-.43-1.485 1.568 1.568 0 00-1.27-.513 4.396 4.396 0 00-2.62 1.134v3.159l.16 5.535h-3.56l.19-5.184-.14-7.128 3.38-.297v1.836h.19a9.107 9.107 0 013.27-1.944c2.01 0 3.3.675 3.86 2.025h.16a8.762 8.762 0 013.51-2.025 4.491 4.491 0 013.1.945 3.166 3.166 0 011.03 2.673l-.08 3.591.16 5.508zm17.22-5.535l.08 2.268c-.02.222.018.445.11.648.118.12.283.179.45.162.247-.006.492-.042.73-.108l.25.216-.3 1.89a4.63 4.63 0 01-2 .675 2.45 2.45 0 01-1.4-.567 2.549 2.549 0 01-.79-1.323h-.21c-.8.755-1.71 1.383-2.7 1.863a5.168 5.168 0 01-4.11-1.674 6.997 6.997 0 01-1.45-4.698 6.66 6.66 0 011.67-4.887 6.216 6.216 0 014.64-1.701c.58.005 1.159.06 1.73.162l-.05-6.075 3.56-.27zm-5.27-4.806q-2.7 0-2.7 3.429a6.376 6.376 0 00.65 3.213 2.072 2.072 0 001.89 1.08 2.937 2.937 0 002.19-1.107l.05-1.485-.08-4.644a4.777 4.777 0 00-2-.486zm18.72 4.509l-7.29.054c.16 2.25 1.31 3.375 3.43 3.375a9.035 9.035 0 003.73-.945l.29.189-.54 2.673a11.136 11.136 0 01-3.86.756 6.263 6.263 0 01-4.67-1.728 6.604 6.604 0 01-1.67-4.779 6.696 6.696 0 011.65-4.779 5.75 5.75 0 014.45-1.782 4.944 4.944 0 013.7 1.323c.925.98 1.403 2.3 1.32 3.645-.007.524-.05 1.048-.13 1.566zm-2.59-2.403a2.325 2.325 0 00-.49-1.62 1.773 1.773 0 00-1.43-.567 2.376 2.376 0 00-1.75.702 3.608 3.608 0 00-.95 1.971l4.57-.108zm13.91-4.536a9.556 9.556 0 013.45.621l-.48 2.646-.44.135a7.033 7.033 0 00-1.56-.783 4.29 4.29 0 00-1.38-.27 1.433 1.433 0 00-1.02.351 1.001 1.001 0 00-.38.81c-.006.367.175.713.48.918a9.081 9.081 0 001.6.783c.612.238 1.207.517 1.78.837.479.281.886.67 1.19 1.134.354.515.533 1.13.51 1.755a3.854 3.854 0 01-.57 2.025 4.08 4.08 0 01-1.67 1.512 6.176 6.176 0 01-2.78.567 11.09 11.09 0 01-4.03-.81l.41-2.808.35-.216c.56.468 1.187.85 1.86 1.134a5.067 5.067 0 001.81.405c.41.026.815-.099 1.14-.351.256-.225.402-.55.4-.891a1.07 1.07 0 00-.51-.918 7.979 7.979 0 00-1.57-.783c-.74-.324-1.34-.612-1.81-.864a3.867 3.867 0 01-1.21-1.134 3.146 3.146 0 01-.49-1.809 3.542 3.542 0 011.33-2.862 5.314 5.314 0 013.59-1.134zm11.3-.027c.592 0 1.182.063 1.76.189.54.092 1.064.255 1.56.486l-.59 2.862-.3.135a5.182 5.182 0 00-2.45-.756 2.266 2.266 0 00-1.92.891 4.135 4.135 0 00-.68 2.538 4.898 4.898 0 00.73 2.889 2.426 2.426 0 002.08.999 6.607 6.607 0 002.7-.675l.27.216-.35 2.781c-1.074.34-2.194.514-3.32.513a5.082 5.082 0 01-4.05-1.674 7.044 7.044 0 01-1.46-4.725 6.972 6.972 0 011.6-4.887 5.613 5.613 0 014.42-1.782zm12.96 4.968a2.13 2.13 0 00-.41-1.485 1.546 1.546 0 00-1.26-.513c-.976.07-1.897.48-2.6 1.161l-.05 3.132.19 5.535h-3.59l.19-5.211-.17-13.473 3.6-.27-.14 8.181h.16a9.107 9.107 0 013.27-1.944 4.491 4.491 0 013.1.945 3.24 3.24 0 011.06 2.673l-.08 3.591.13 5.508h-3.59zm6.81 2.646l-.14-7.128 3.54-.297-.16 7.074.16 5.535h-3.59zm1.7-13.527c.483-.03.955.147 1.3.486.336.367.51.854.48 1.35a2.037 2.037 0 01-.51 1.458c-.787.7-1.966.722-2.78.054a1.91 1.91 0 01-.46-1.377 1.998 1.998 0 01.51-1.431c.392-.372.92-.567 1.46-.54zm8.61 13.176l.19 5.535h-3.6l.19-5.211-.16-13.473 3.59-.27zm14.06 0l.08 2.268c-.017.22.018.442.1.648.122.12.29.178.46.162.247-.007.492-.043.73-.108l.25.216-.3 1.89a4.63 4.63 0 01-2 .675 2.422 2.422 0 01-1.4-.567 2.548 2.548 0 01-.79-1.323h-.21c-.8.755-1.71 1.383-2.7 1.863a5.168 5.168 0 01-4.11-1.674 6.997 6.997 0 01-1.45-4.698 6.66 6.66 0 011.67-4.887 6.216 6.216 0 014.64-1.701c.58.005 1.159.06 1.73.162l-.05-6.075 3.56-.27zm-5.27-4.806q-2.7 0-2.7 3.429a6.376 6.376 0 00.65 3.213 2.072 2.072 0 001.89 1.08 2.937 2.937 0 002.19-1.107l.05-1.485-.08-4.644a4.777 4.777 0 00-2-.486zm18.72 4.509l-7.29.054c.16 2.25 1.31 3.375 3.43 3.375a9.035 9.035 0 003.73-.945l.29.189-.54 2.673a11.136 11.136 0 01-3.86.756 6.263 6.263 0 01-4.67-1.728 6.603 6.603 0 01-1.67-4.779 6.736 6.736 0 011.64-4.779 5.787 5.787 0 014.46-1.782 4.96 4.96 0 013.7 1.323c.925.98 1.403 2.3 1.32 3.645-.007.524-.05 1.048-.13 1.566zm-2.59-2.403a2.326 2.326 0 00-.49-1.62 1.773 1.773 0 00-1.43-.567 2.376 2.376 0 00-1.75.702c-.517.54-.85 1.23-.95 1.971l4.57-.108zm12.55-4.347c.224.005.448.023.67.054v3.321l-.38.135a2.581 2.581 0 00-1-.189c-1.04 0-1.99.675-2.83 2.025v1.701l.19 5.535h-3.59l.21-5.184-.16-7.128 3.4-.297-.02 2.457h.21q1.32-2.43 3.3-2.43zm2.69 7.398l-.14-7.128 3.54-.297-.16 7.074.16 5.535h-3.59zm1.7-13.527c.48-.031.95.146 1.29.486.343.363.52.852.49 1.35a2.037 2.037 0 01-.51 1.458c-.787.7-1.966.722-2.78.054a1.91 1.91 0 01-.46-1.377 1.999 1.999 0 01.51-1.431c.392-.372.92-.567 1.46-.54zm9.39 6.156l-.22 7.02.16 4.806a5.862 5.862 0 01-1.02 3.537 8.284 8.284 0 01-3.38 2.457l-1.24-1.593v-.324a4.272 4.272 0 001.73-1.593 4.866 4.866 0 00.51-2.376l.05-4.563-.1-5.103h-2.19l-.22-.216.19-1.944h2.27l3.35-.189zm-2.08-6.156c.48-.031.95.146 1.29.486.343.363.52.852.49 1.35a2.037 2.037 0 01-.51 1.458c-.787.7-1.966.722-2.78.054a1.91 1.91 0 01-.46-1.377 1.998 1.998 0 01.51-1.431c.392-.372.92-.567 1.46-.54zm11.92 8.154l1.89 7.182h.19l2.27-6.993.45-2.187h3.14l-4.22 12.555h-3.86l-3.56-12.474 3.35-.162zm14.27-2.241a4.984 4.984 0 013.24.945 3.092 3.092 0 011.19 2.592c0 .324-.05 1.35-.16 3.078-.02.504-.05 1.026-.08 1.566q-.06.783-.06 1.35c-.018.225.03.45.14.648a.598.598 0 00.48.162c.24-.008.478-.045.71-.108l.27.216-.33 1.89a4.258 4.258 0 01-1.97.675 2.3 2.3 0 01-1.35-.567 2.657 2.657 0 01-.73-1.404h-.19a7.835 7.835 0 01-2.78 1.998 4.498 4.498 0 01-3.05-1.026 3.484 3.484 0 01-1.11-2.727 3.054 3.054 0 01.68-2.106 3.666 3.666 0 012.1-1.053l4.14-.783v-1.107a1.542 1.542 0 00-1.73-1.755 4.79 4.79 0 00-1.78.378 10.84 10.84 0 00-2.08 1.188l-.27-.162-.41-2.376a9.626 9.626 0 012.49-1.107 8.96 8.96 0 012.64-.405zm-1.75 7.776a1.142 1.142 0 00-.65.378c-.146.224-.212.49-.19.756-.02.404.115.8.38 1.107.283.265.663.401 1.05.378a3.19 3.19 0 002.21-1.242l.06-1.998zm17.37-2.808a1.995 1.995 0 00-.43-1.458 1.53 1.53 0 00-1.27-.54c-.973.07-1.89.48-2.59 1.161v3.132l.16 5.535h-3.59l.19-5.184-.14-7.128 3.41-.297v1.836h.19a9.163 9.163 0 013.24-1.944 4.628 4.628 0 013.13.945 3.16 3.16 0 011.02 2.673l-.08 3.591.16 5.508h-3.61zm13.01-2.727l1.89 7.182h.19l2.26-6.993.46-2.187h3.14l-4.22 12.555h-3.86l-3.56-12.474 3.35-.162zm14.27-2.241a4.984 4.984 0 013.24.945 3.092 3.092 0 011.19 2.592c0 .324-.06 1.35-.16 3.078-.02.504-.05 1.026-.08 1.566q-.06.783-.06 1.35c-.018.225.03.45.14.648a.598.598 0 00.48.162c.237-.008.472-.044.7-.108l.27.216-.32 1.89a4.297 4.297 0 01-1.97.675 2.301 2.301 0 01-1.35-.567 2.659 2.659 0 01-.73-1.404h-.19a7.924 7.924 0 01-2.78 1.998 4.48 4.48 0 01-3.05-1.026 3.484 3.484 0 01-1.11-2.727 3.054 3.054 0 01.68-2.106 3.667 3.667 0 012.1-1.053l4.13-.783v-1.107a1.535 1.535 0 00-1.72-1.755 4.839 4.839 0 00-1.79.378c-.73.32-1.425.719-2.07 1.188l-.27-.162-.41-2.376a9.559 9.559 0 012.48-1.107 9.074 9.074 0 012.65-.405zm-1.75 7.776a1.142 1.142 0 00-.65.378c-.146.224-.212.49-.19.756-.026.405.111.803.38 1.107.283.265.663.401 1.05.378a3.19 3.19 0 002.21-1.242l.06-1.998zm17.37-2.808a1.995 1.995 0 00-.43-1.458 1.53 1.53 0 00-1.27-.54c-.973.07-1.89.48-2.59 1.161v3.132l.16 5.535h-3.59l.19-5.184-.14-7.128 3.41-.297v1.836h.19a9.163 9.163 0 013.24-1.944 4.628 4.628 0 013.13.945 3.16 3.16 0 011.02 2.673l-.08 3.591.16 5.508h-3.61zm18.11-9.666a7.69 7.69 0 015.81 2.106 8.381 8.381 0 012.02 6.048q0 4.617-2.27 7.074a8.374 8.374 0 01-6.48 2.457c-.84 0-1.86-.018-3.05-.054a92.489 92.489 0 01-3.02-.135l.19-5.184-.19-12.204zm-.27 14.85q4.29 0 4.29-5.859a7.926 7.926 0 00-1.05-4.617 3.677 3.677 0 00-3.24-1.458c-.95 0-1.97.045-3.05.135l-.16 8.937.08 2.673c1.26.126 2.3.189 3.13.189zm12.91-7.992l2.24 7.02h.21l2.25-6.723.45-2.214h3.08l-4.1 11.718a11.41 11.41 0 01-1.46 2.943 6.367 6.367 0 01-2.02 1.836c-.985.556-2.041.974-3.14 1.242l-.27-.027a7.603 7.603 0 01-1.51-2.106l.11-.351a9.446 9.446 0 002.81-.891 6.563 6.563 0 002.1-1.809l-4.59-12.474 3.41-.162zm14.75-2.16c.592 0 1.182.063 1.76.189.542.092 1.07.256 1.57.486l-.6 2.862-.3.135a5.182 5.182 0 00-2.45-.756 2.266 2.266 0 00-1.92.891 4.136 4.136 0 00-.67 2.538 4.901 4.901 0 00.72 2.889 2.426 2.426 0 002.08.999 6.607 6.607 0 002.7-.675l.27.216-.35 2.781a10.901 10.901 0 01-3.32.513 5.082 5.082 0 01-4.05-1.674 7.044 7.044 0 01-1.46-4.725 6.972 6.972 0 011.6-4.887 5.613 5.613 0 014.42-1.782zm8.64 7.263l.19 5.535h-3.59l.19-5.211-.16-13.473 3.59-.27zm3.65-1.35q1.455 2.349 4.37 6.291l-.03.378c-.666.15-1.34.258-2.02.324-.7.09-1.14.144-1.3.162l-.38-.162a57.263 57.263 0 01-4.1-6.669v-.243l3.13-4.455.65-1.296h3.78zm-509.223 26.114a9.572 9.572 0 013.456.621l-.486 2.646-.432.135a7.072 7.072 0 00-1.566-.783 4.305 4.305 0 00-1.377-.27 1.448 1.448 0 00-1.026.351 1.023 1.023 0 00-.378.81c-.005.369.178.715.486.918a8.694 8.694 0 001.593.783c.613.237 1.208.517 1.782.837.479.28.886.669 1.188 1.134.356.514.536 1.13.513 1.755a3.87 3.87 0 01-.567 2.025 4.054 4.054 0 01-1.674 1.512 6.175 6.175 0 01-2.781.567 11.055 11.055 0 01-4.023-.81l.405-2.808.351-.216c.56.47 1.189.852 1.863 1.134a5.027 5.027 0 001.809.405c.408.025.811-.1 1.134-.351a1.18 1.18 0 00.405-.891 1.068 1.068 0 00-.513-.918 7.75 7.75 0 00-1.566-.783q-1.107-.486-1.809-.864a3.819 3.819 0 01-1.215-1.134 3.19 3.19 0 01-.486-1.809 3.559 3.559 0 011.323-2.862 5.335 5.335 0 013.591-1.134zm11.226 10.125a4.14 4.14 0 001.809-.459l.297.27-.351 2.133a8.176 8.176 0 01-2.808.864q-3.645-.378-3.645-3.564l.135-2.241-.027-4.644h-1.674l-.135-.189.189-1.971h1.593v-2.079l3.267-1.053.243.216-.081 2.916h3.213l.108.189-.162 1.971h-3.213l-.162 6.048c-.04.439.075.878.324 1.242.295.263.687.39 1.08.351zm8.988-10.152a4.999 4.999 0 013.24.945 3.085 3.085 0 011.188 2.592q0 .486-.162 3.078-.027.756-.081 1.566-.054.783-.054 1.35c-.019.225.028.45.135.648.13.123.308.182.486.162.237-.008.473-.045.702-.108l.27.216-.324 1.89a4.293 4.293 0 01-1.971.675 2.3 2.3 0 01-1.35-.567 2.63 2.63 0 01-.729-1.404h-.189a7.89 7.89 0 01-2.781 1.998 4.486 4.486 0 01-3.051-1.026 3.488 3.488 0 01-1.107-2.727 3.052 3.052 0 01.675-2.106 3.66 3.66 0 012.106-1.053l4.131-.783v-1.107a1.54 1.54 0 00-1.728-1.755 4.808 4.808 0 00-1.782.378c-.733.32-1.43.719-2.079 1.188l-.27-.162-.405-2.376a9.615 9.615 0 012.484-1.107 8.998 8.998 0 012.646-.405zm-1.755 7.776c-.252.05-.48.184-.648.378-.143.225-.21.49-.189.756-.023.404.113.801.378 1.107.285.264.665.401 1.053.378a3.201 3.201 0 002.214-1.242l.054-1.998zm14.754-7.776a4.999 4.999 0 013.24.945 3.085 3.085 0 011.188 2.592q0 .486-.162 3.078-.027.756-.081 1.566-.054.783-.054 1.35c-.019.225.028.45.135.648.13.123.308.182.486.162.237-.008.473-.045.702-.108l.27.216-.324 1.89a4.293 4.293 0 01-1.971.675 2.3 2.3 0 01-1.35-.567 2.63 2.63 0 01-.729-1.404h-.189a7.89 7.89 0 01-2.781 1.998 4.486 4.486 0 01-3.051-1.026 3.488 3.488 0 01-1.107-2.727 3.052 3.052 0 01.675-2.106 3.66 3.66 0 012.106-1.053l4.131-.783v-1.107a1.54 1.54 0 00-1.728-1.755 4.808 4.808 0 00-1.782.378c-.733.32-1.43.719-2.079 1.188l-.27-.162-.405-2.376a9.615 9.615 0 012.484-1.107 8.998 8.998 0 012.646-.405zm-1.755 7.776c-.252.05-.48.184-.648.378-.143.225-.21.49-.189.756-.023.404.113.801.378 1.107.285.264.665.401 1.053.378a3.201 3.201 0 002.214-1.242l.054-1.998zm14.889 2.376a4.14 4.14 0 001.809-.459l.297.27-.351 2.133a8.176 8.176 0 01-2.808.864q-3.645-.378-3.645-3.564l.135-2.241-.027-4.644h-1.674l-.135-.189.189-1.971h1.593v-2.079l3.267-1.053.243.216-.081 2.916h3.213l.108.189-.162 1.971h-3.213l-.162 6.048c-.04.439.075.878.324 1.242.295.263.687.39 1.08.351zm13.345-10.152a5.374 5.374 0 014.212 1.62 6.756 6.756 0 011.458 4.671 7.343 7.343 0 01-1.566 5.049 5.774 5.774 0 01-4.509 1.728 5.374 5.374 0 01-4.212-1.62 6.756 6.756 0 01-1.458-4.671 7.237 7.237 0 011.566-5.022 5.727 5.727 0 014.509-1.755zm-.243 2.43a2.13 2.13 0 00-1.89.864 5.222 5.222 0 00-.567 2.781 7.665 7.665 0 00.594 3.537 2.06 2.06 0 001.944 1.053 2.086 2.086 0 001.863-.837 5.09 5.09 0 00.594-2.808 7.298 7.298 0 00-.621-3.51 2.025 2.025 0 00-1.917-1.08zm15.016-2.349a4.357 4.357 0 013.618 1.593 7.077 7.077 0 011.269 4.509 7.31 7.31 0 01-1.647 5.103 5.887 5.887 0 01-4.59 1.782 10.713 10.713 0 01-1.809-.162l.081 4.887h-3.564l.189-10.179-.162-7.128 3.429-.297-.027 1.836h.189a8.734 8.734 0 011.458-1.161 7.953 7.953 0 011.566-.783zm-1.323 10.638a2.475 2.475 0 002.133-.999c.544-.881.799-1.91.729-2.943a5.215 5.215 0 00-.621-2.835 1.953 1.953 0 00-1.782-.972 3.433 3.433 0 00-2.349 1.161l-.027 3.132.054 3.051a4.84 4.84 0 001.863.405zm20.572-5.751a2.15 2.15 0 00-.405-1.485 1.565 1.565 0 00-1.269-.513c-.974.07-1.892.48-2.592 1.161l-.054 3.132.189 5.535h-3.591l.189-5.211-.162-13.473 3.591-.27-.135 8.181h.162a9.113 9.113 0 013.267-1.944 4.512 4.512 0 013.105.945 3.243 3.243 0 011.053 2.673l-.081 3.591.135 5.508h-3.591zm16.287 1.998l-7.29.054q.243 3.375 3.429 3.375a9.026 9.026 0 003.726-.945l.297.189-.54 2.673c-1.232.478-2.54.734-3.861.756a6.256 6.256 0 01-4.671-1.728 6.58 6.58 0 01-1.674-4.779 6.704 6.704 0 011.647-4.779 5.77 5.77 0 014.455-1.782 4.945 4.945 0 013.699 1.323 4.87 4.87 0 011.323 3.645c-.01.524-.054 1.048-.135 1.566zm-2.592-2.403a2.355 2.355 0 00-.486-1.62 1.78 1.78 0 00-1.431-.567 2.381 2.381 0 00-1.755.702 3.564 3.564 0 00-.945 1.971l4.563-.108zm10.683 5.589a4.14 4.14 0 001.809-.459l.297.27-.351 2.133a8.176 8.176 0 01-2.808.864q-3.645-.378-3.645-3.564l.135-2.241-.027-4.644h-1.674l-.135-.189.189-1.971h1.593v-2.079l3.267-1.053.243.216-.081 2.916h3.213l.108.189-.162 1.971h-3.213l-.162 6.048c-.04.439.075.878.324 1.242.295.263.687.39 1.08.351zm14.776-10.071a4.357 4.357 0 013.618 1.593 7.077 7.077 0 011.269 4.509 7.31 7.31 0 01-1.647 5.103 5.887 5.887 0 01-4.59 1.782 10.713 10.713 0 01-1.809-.162l.081 4.887h-3.564l.189-10.179-.162-7.128 3.429-.297-.027 1.836h.189a8.734 8.734 0 011.458-1.161 7.953 7.953 0 011.566-.783zm-1.323 10.638a2.475 2.475 0 002.133-.999c.544-.881.799-1.91.729-2.943a5.215 5.215 0 00-.621-2.835 1.953 1.953 0 00-1.782-.972 3.433 3.433 0 00-2.349 1.161l-.027 3.132.054 3.051a4.84 4.84 0 001.863.405zm20.644-.27l-.324 1.89a3.917 3.917 0 01-2.052.675 2.436 2.436 0 01-1.296-.621c-.38-.39-.65-.875-.783-1.404h-.243a7.461 7.461 0 01-3.186 1.971 4.712 4.712 0 01-3.132-.918 3.365 3.365 0 01-1.026-2.7l.054-3.186-.135-5.67 3.483-.297-.081 7.965a2.09 2.09 0 00.378 1.431c.308.34.757.52 1.215.486a3.51 3.51 0 002.349-1.053v-8.532l3.429-.297-.243 9.342c-.017.216.03.432.135.621a.605.605 0 00.486.189c.246-.007.491-.043.729-.108zm9.682-5.481a2.022 2.022 0 00-.432-1.458 1.528 1.528 0 00-1.269-.54c-.974.07-1.892.48-2.592 1.161v3.132l.162 5.535h-3.591l.189-5.184-.135-7.128 3.402-.297v1.836h.189a9.163 9.163 0 013.24-1.944 4.62 4.62 0 013.132.945 3.175 3.175 0 011.026 2.673l-.081 3.591.162 5.508h-3.618zm11.645 5.184a4.14 4.14 0 001.809-.459l.297.27-.351 2.133a8.176 8.176 0 01-2.808.864q-3.645-.378-3.645-3.564l.135-2.241-.027-4.644h-1.674l-.135-.189.189-1.971h1.593v-2.079l3.267-1.053.243.216-.081 2.916h3.213l.108.189-.162 1.971h-3.213l-.162 6.048c-.04.439.075.878.324 1.242.295.263.687.39 1.08.351zm20.203-8.208q-.729.189-2.079.405l-.054.108a4.266 4.266 0 01-1.08 5.049 6.103 6.103 0 01-3.969 1.188 9.524 9.524 0 01-1.566-.135c-.122.114-.23.24-.324.378a.618.618 0 00-.081.324q0 .486.648.675c.675.172 1.36.299 2.052.378.891.096 1.775.25 2.646.459.68.16 1.31.484 1.836.945.538.487.826 1.192.783 1.917a3.504 3.504 0 01-.81 2.268 5.052 5.052 0 01-2.187 1.593 8.448 8.448 0 01-3.186.567 6.177 6.177 0 01-3.78-.999 3.155 3.155 0 01-1.323-2.646 7.66 7.66 0 012.241-2.025v-.135a3.42 3.42 0 01-1.431-.891 2.312 2.312 0 01-.513-1.566 8.65 8.65 0 011.836-1.647v-.135a3.858 3.858 0 01-1.485-1.404 4.275 4.275 0 01-.486-2.079 4.015 4.015 0 011.458-3.294 6.103 6.103 0 013.969-1.188 6.928 6.928 0 012.646.486c1.35-.249 2.678-.61 3.969-1.08l.27.243zm-7.074 4.59a2.27 2.27 0 001.674-.567 2.23 2.23 0 00.567-1.647 1.838 1.838 0 00-2.106-2.052q-2.268 0-2.268 2.079c-.042.598.152 1.19.54 1.647a2.16 2.16 0 001.593.54zm2.862 7.749a1.007 1.007 0 00-.783-.999 11.627 11.627 0 00-2.349-.459l-.918-.135c-.364.229-.692.51-.972.837a1.36 1.36 0 00-.324.864 1.31 1.31 0 00.648 1.134 3.414 3.414 0 001.89.432 3.878 3.878 0 002.025-.459c.477-.217.783-.692.783-1.215zm15.257-7.317l-7.29.054q.243 3.375 3.429 3.375a9.026 9.026 0 003.726-.945l.297.189-.54 2.673c-1.232.478-2.54.734-3.861.756a6.256 6.256 0 01-4.671-1.728 6.58 6.58 0 01-1.674-4.779 6.704 6.704 0 011.647-4.779 5.77 5.77 0 014.455-1.782 4.945 4.945 0 013.699 1.323 4.87 4.87 0 011.323 3.645c-.01.524-.054 1.048-.135 1.566zm-2.592-2.403a2.355 2.355 0 00-.486-1.62 1.78 1.78 0 00-1.431-.567 2.381 2.381 0 00-1.755.702 3.564 3.564 0 00-.945 1.971l4.563-.108zm9.82-4.536a9.572 9.572 0 013.456.621l-.486 2.646-.432.135a7.072 7.072 0 00-1.566-.783 4.305 4.305 0 00-1.377-.27 1.448 1.448 0 00-1.026.351 1.023 1.023 0 00-.378.81c-.005.369.178.715.486.918a8.694 8.694 0 001.593.783c.613.237 1.208.517 1.782.837.479.28.886.669 1.188 1.134.356.514.536 1.13.513 1.755a3.87 3.87 0 01-.567 2.025 4.054 4.054 0 01-1.674 1.512 6.175 6.175 0 01-2.781.567 11.055 11.055 0 01-4.023-.81l.405-2.808.351-.216c.56.47 1.189.852 1.863 1.134a5.027 5.027 0 001.809.405c.408.025.811-.1 1.134-.351a1.18 1.18 0 00.405-.891 1.068 1.068 0 00-.513-.918 7.75 7.75 0 00-1.566-.783q-1.107-.486-1.809-.864a3.819 3.819 0 01-1.215-1.134 3.19 3.19 0 01-.486-1.809 3.559 3.559 0 011.323-2.862 5.335 5.335 0 013.591-1.134zm11.221 10.125c.63-.013 1.25-.17 1.81-.459l.3.27-.35 2.133a8.16 8.16 0 01-2.81.864q-3.645-.378-3.643-3.564l.135-2.241-.027-4.644h-1.674l-.135-.189.189-1.971h1.593v-2.079l3.262-1.053.25.216-.08 2.916h3.21l.11.189-.16 1.971h-3.22l-.16 6.048a1.94 1.94 0 00.32 1.242c.296.261.687.388 1.08.351zm9.08-10.152a5.376 5.376 0 014.21 1.62 6.767 6.767 0 011.46 4.671 7.314 7.314 0 01-1.57 5.049 5.76 5.76 0 01-4.51 1.728 5.376 5.376 0 01-4.21-1.62 6.767 6.767 0 01-1.46-4.671 7.258 7.258 0 011.57-5.022 5.727 5.727 0 014.51-1.755zm-.24 2.43a2.117 2.117 0 00-1.89.864 5.199 5.199 0 00-.57 2.781 7.756 7.756 0 00.59 3.537 2.402 2.402 0 003.81.216c.464-.86.668-1.835.59-2.808a7.228 7.228 0 00-.62-3.51 2.01 2.01 0 00-1.91-1.08zm11.88 4.833l.19 5.535h-3.59l.19-5.211-.17-13.473 3.6-.27zm13.3-.297l-7.29.054c.16 2.25 1.31 3.375 3.43 3.375a9.035 9.035 0 003.73-.945l.29.189-.54 2.673a11.136 11.136 0 01-3.86.756 6.263 6.263 0 01-4.67-1.728 6.603 6.603 0 01-1.67-4.779 6.696 6.696 0 011.65-4.779 5.75 5.75 0 014.45-1.782 4.944 4.944 0 013.7 1.323c.925.98 1.403 2.3 1.32 3.645-.007.524-.05 1.048-.13 1.566zm-2.59-2.403a2.326 2.326 0 00-.49-1.62 1.773 1.773 0 00-1.43-.567 2.376 2.376 0 00-1.75.702 3.608 3.608 0 00-.95 1.971l4.57-.108zm13.33.405a2.04 2.04 0 00-.43-1.458 1.53 1.53 0 00-1.27-.54 4.116 4.116 0 00-2.59 1.161v3.132l.16 5.535h-3.59l.19-5.184-.14-7.128 3.4-.297v1.836h.19a9.164 9.164 0 013.24-1.944 4.61 4.61 0 013.13.945 3.166 3.166 0 011.03 2.673l-.08 3.591.16 5.508h-3.62zm15.73 5.184c.63-.013 1.25-.17 1.81-.459l.3.27-.35 2.133a8.226 8.226 0 01-2.81.864q-3.645-.378-3.65-3.564l.14-2.241-.03-4.644h-1.67l-.14-.189.19-1.971h1.59v-2.079l3.27-1.053.24.216-.08 2.916h3.22l.1.189-.16 1.971h-3.21l-.16 6.048a1.94 1.94 0 00.32 1.242c.296.261.687.388 1.08.351zm13.58-3.186l-7.29.054q.255 3.375 3.43 3.375a9.035 9.035 0 003.73-.945l.3.189-.54 2.673a11.232 11.232 0 01-3.87.756 6.263 6.263 0 01-4.67-1.728 6.604 6.604 0 01-1.67-4.779 6.696 6.696 0 011.65-4.779 5.75 5.75 0 014.45-1.782 4.944 4.944 0 013.7 1.323c.925.98 1.403 2.3 1.32 3.645-.007.524-.05 1.048-.13 1.566zm-2.59-2.403a2.375 2.375 0 00-.48-1.62c-.37-.395-.9-.603-1.44-.567a2.376 2.376 0 00-1.75.702 3.608 3.608 0 00-.95 1.971l4.57-.108zm11.96-2.43l1.54 7.047h.22l1.89-6.858.43-2.079h3.48l.27 1.89 1.6 7.02h.21l1.84-6.831.43-2.079h3.03l-3.92 12.555h-3.37l-1.92-8.073h-.24l-2.25 8.073h-3.53l-3.27-12.474 3.27-.162zm21.48-2.133a5.398 5.398 0 014.22 1.62 6.765 6.765 0 011.45 4.671 7.362 7.362 0 01-1.56 5.049 5.788 5.788 0 01-4.51 1.728 5.362 5.362 0 01-4.21-1.62 6.718 6.718 0 01-1.46-4.671 7.256 7.256 0 011.56-5.022 5.741 5.741 0 014.51-1.755zm-.24 2.43a2.14 2.14 0 00-1.89.864 5.199 5.199 0 00-.57 2.781 7.599 7.599 0 00.6 3.537 2.392 2.392 0 003.8.216 5.048 5.048 0 00.6-2.808 7.348 7.348 0 00-.62-3.51 2.036 2.036 0 00-1.92-1.08zm15.15-2.214c.228.005.455.023.68.054v3.321l-.38.135a2.582 2.582 0 00-1-.189c-1.04 0-1.99.675-2.83 2.025v1.701l.19 5.535h-3.59l.21-5.184-.16-7.128 3.4-.297-.03 2.457h.22c.88-1.62 1.98-2.43 3.29-2.43zm12.93 7.047l.08 2.268a1.42 1.42 0 00.11.648c.12.12.29.18.46.162.247-.008.492-.044.73-.108l.24.216-.3 1.89a4.629 4.629 0 01-2 .675 2.373 2.373 0 01-2.18-1.89h-.22c-.8.755-1.71 1.383-2.7 1.863a5.146 5.146 0 01-4.1-1.674 6.948 6.948 0 01-1.46-4.698 6.702 6.702 0 011.67-4.887 6.24 6.24 0 014.65-1.701c.577.005 1.152.06 1.72.162l-.05-6.075 3.56-.27zm-5.27-4.806q-2.7 0-2.7 3.429a6.376 6.376 0 00.65 3.213 2.072 2.072 0 001.89 1.08 2.937 2.937 0 002.19-1.107l.05-1.485-.08-4.644a4.777 4.777 0 00-2-.486zm18.72 4.509l-7.29.054q.255 3.375 3.43 3.375a9.035 9.035 0 003.73-.945l.3.189-.54 2.673a11.223 11.223 0 01-3.86.756 6.286 6.286 0 01-4.68-1.728 6.603 6.603 0 01-1.67-4.779 6.696 6.696 0 011.65-4.779 5.765 5.765 0 014.45-1.782 4.944 4.944 0 013.7 1.323c.925.98 1.403 2.3 1.32 3.645-.007.524-.05 1.048-.13 1.566zm-2.59-2.403a2.375 2.375 0 00-.48-1.62 1.787 1.787 0 00-1.43-.567 2.383 2.383 0 00-1.76.702 3.534 3.534 0 00-.94 1.971l4.56-.108zm13.33.405a1.995 1.995 0 00-.43-1.458 1.53 1.53 0 00-1.27-.54c-.973.07-1.89.48-2.59 1.161v3.132l.16 5.535h-3.59l.19-5.184-.14-7.128 3.41-.297v1.836h.18a9.163 9.163 0 013.24-1.944 4.639 4.639 0 013.14.945 3.16 3.16 0 011.02 2.673l-.08 3.591.16 5.508H1161zm8.08 4.185c.483-.03.955.147 1.3.486.336.367.51.854.48 1.35a2.037 2.037 0 01-.51 1.458c-.787.7-1.966.722-2.78.054a1.91 1.91 0 01-.46-1.377 1.999 1.999 0 01.51-1.431c.392-.372.92-.567 1.46-.54z" fill="#2C1E25"/></g></g><script><![CDATA[!function(t,n){"object"==typeof exports&&"undefined"!=typeof module?module.exports=n():"function"==typeof define&&define.amd?define(n):(t=t||self).__SVGATOR_PLAYER__=n()}(this,(function(){"use strict";function t(n){return(t="function"==typeof Symbol&&"symbol"==typeof Symbol.iterator?function(t){return typeof t}:function(t){return t&&"function"==typeof Symbol&&t.constructor===Symbol&&t!==Symbol.prototype?"symbol":typeof t})(n)}function n(t,n){if(!(t instanceof n))throw new TypeError("Cannot call a class as a function")}function r(t,n){for(var r=0;r<n.length;r++){var e=n[r];e.enumerable=e.enumerable||!1,e.configurable=!0,"value"in e&&(e.writable=!0),Object.defineProperty(t,e.key,e)}}function e(t,n,e){return n&&r(t.prototype,n),e&&r(t,e),t}var i=Math.abs;function u(t){return t}function o(t,n,r){var e=1-r;return 3*r*e*(t*e+n*r)+r*r*r}function a(){var t=arguments.length>0&&void 0!==arguments[0]?arguments[0]:0,n=arguments.length>1&&void 0!==arguments[1]?arguments[1]:0,r=arguments.length>2&&void 0!==arguments[2]?arguments[2]:1,e=arguments.length>3&&void 0!==arguments[3]?arguments[3]:1;return t<0||t>1||r<0||r>1?null:i(t-n)<=1e-5&&i(r-e)<=1e-5?u:function(u){if(u<=0)return t>0?u*n/t:0===n&&r>0?u*e/r:0;if(u>=1)return r<1?1+(u-1)*(e-1)/(r-1):1===r&&t<1?1+(u-1)*(n-1)/(t-1):1;for(var a,l=0,f=1;l<f;){var s=o(t,r,a=(l+f)/2);if(i(u-s)<1e-5)break;s<u?l=a:f=a}return o(n,e,a)}}function l(){return 1}function f(t){return 1===t?1:0}function s(){var t=arguments.length>0&&void 0!==arguments[0]?arguments[0]:1,n=arguments.length>1&&void 0!==arguments[1]?arguments[1]:0;if(1===t){if(0===n)return f;if(1===n)return l}var r=1/t;return function(t){return t>=1?1:(t+=n*r)-t%r}}function c(t){var n=arguments.length>1&&void 0!==arguments[1]?arguments[1]:2;if(Number.isInteger(t))return t;var r=Math.pow(10,n);return Math.round(t*r)/r}var v=Math.PI/180;function h(t,n,r){return t>=.5?r:n}function y(t,n,r){return 0===t||n===r?n:t*(r-n)+n}function d(t,n,r){var e=y(t,n,r);return e<=0?0:e}function g(t,n,r){return 0===t?n:1===t?r:{x:y(t,n.x,r.x),y:y(t,n.y,r.y)}}function m(t,n,r){return 0===t?n:1===t?r:{x:d(t,n.x,r.x),y:d(t,n.y,r.y)}}function p(t,n,r){var e=function(t,n,r){return Math.round(y(t,n,r))}(t,n,r);return e<=0?0:e>=255?255:e}function b(t,n,r){return 0===t?n:1===t?r:{r:p(t,n.r,r.r),g:p(t,n.g,r.g),b:p(t,n.b,r.b),a:y(t,null==n.a?1:n.a,null==r.a?1:r.a)}}function w(t,n,r){if(0===t)return n;if(1===t)return r;var e=n.length;if(e!==r.length)return h(t,n,r);for(var i=[],u=0;u<e;u++)i.push(b(t,n[u],r[u]));return i}function A(t,n,r){var e=n.length;if(e!==r.length)return h(t,n,r);for(var i=new Array(e),u=0;u<e;u++)i[u]=y(t,n[u],r[u]);return i}function x(t,n){for(var r=[],e=0;e<t;e++)r.push(n);return r}function k(t,n){if(--n<=0)return t;var r=(t=Object.assign([],t)).length;do{for(var e=0;e<r;e++)t.push(t[e])}while(--n>0);return t}var S=/\.0+$/g;function _(t){return Number.isInteger(t)?t+"":t.toFixed(6).replace(S,"")}function M(t){var n=arguments.length>1&&void 0!==arguments[1]?arguments[1]:" ";return t&&t.length?t.map(_).join(n):""}function I(t){return _(t.x)+","+_(t.y)}function E(t){return t?null==t.a||t.a>=1?"rgb("+t.r+","+t.g+","+t.b+")":"rgba("+t.r+","+t.g+","+t.b+","+t.a+")":"transparent"}var F={f:null,i:m,u:function(t,n){return function(r){var e=n(r);t.setAttribute("rx",_(e.x)),t.setAttribute("ry",_(e.y))}}},B={f:null,i:function(t,n,r){return 0===t?n:1===t?r:{width:d(t,n.width,r.width),height:d(t,n.height,r.height)}},u:function(t,n){return function(r){var e=n(r);t.setAttribute("width",_(e.width)),t.setAttribute("height",_(e.height))}}},j=Math.sin,q=Math.cos,P=Math.acos,O=Math.asin,z=Math.tan,L=Math.atan2,C=Math.PI/180,R=180/Math.PI,T=Math.sqrt,V=function(){function t(){var r=arguments.length>0&&void 0!==arguments[0]?arguments[0]:1,e=arguments.length>1&&void 0!==arguments[1]?arguments[1]:0,i=arguments.length>2&&void 0!==arguments[2]?arguments[2]:0,u=arguments.length>3&&void 0!==arguments[3]?arguments[3]:1,o=arguments.length>4&&void 0!==arguments[4]?arguments[4]:0,a=arguments.length>5&&void 0!==arguments[5]?arguments[5]:0;n(this,t),this.m=[r,e,i,u,o,a],this.i=null,this.w=null,this.s=null}return e(t,[{key:"point",value:function(t,n){var r=this.m;return{x:r[0]*t+r[2]*n+r[4],y:r[1]*t+r[3]*n+r[5]}}},{key:"translateSelf",value:function(){var t=arguments.length>0&&void 0!==arguments[0]?arguments[0]:0,n=arguments.length>1&&void 0!==arguments[1]?arguments[1]:0;if(!t&&!n)return this;var r=this.m;return r[4]+=r[0]*t+r[2]*n,r[5]+=r[1]*t+r[3]*n,this.w=this.s=this.i=null,this}},{key:"rotateSelf",value:function(){var t=arguments.length>0&&void 0!==arguments[0]?arguments[0]:0;if(t%=360){var n=j(t*=C),r=q(t),e=this.m,i=e[0],u=e[1];e[0]=i*r+e[2]*n,e[1]=u*r+e[3]*n,e[2]=e[2]*r-i*n,e[3]=e[3]*r-u*n,this.w=this.s=this.i=null}return this}},{key:"scaleSelf",value:function(){var t=arguments.length>0&&void 0!==arguments[0]?arguments[0]:1,n=arguments.length>1&&void 0!==arguments[1]?arguments[1]:1;if(1!==t||1!==n){var r=this.m;r[0]*=t,r[1]*=t,r[2]*=n,r[3]*=n,this.w=this.s=this.i=null}return this}},{key:"skewSelf",value:function(t,n){if(n%=360,(t%=360)||n){var r=this.m,e=r[0],i=r[1],u=r[2],o=r[3];t&&(t=z(t*C),r[2]+=e*t,r[3]+=i*t),n&&(n=z(n*C),r[0]+=u*n,r[1]+=o*n),this.w=this.s=this.i=null}return this}},{key:"resetSelf",value:function(){var t=arguments.length>0&&void 0!==arguments[0]?arguments[0]:1,n=arguments.length>1&&void 0!==arguments[1]?arguments[1]:0,r=arguments.length>2&&void 0!==arguments[2]?arguments[2]:0,e=arguments.length>3&&void 0!==arguments[3]?arguments[3]:1,i=arguments.length>4&&void 0!==arguments[4]?arguments[4]:0,u=arguments.length>5&&void 0!==arguments[5]?arguments[5]:0,o=this.m;return o[0]=t,o[1]=n,o[2]=r,o[3]=e,o[4]=i,o[5]=u,this.w=this.s=this.i=null,this}},{key:"recomposeSelf",value:function(){var t=arguments.length>0&&void 0!==arguments[0]?arguments[0]:null,n=arguments.length>1&&void 0!==arguments[1]?arguments[1]:null,r=arguments.length>2&&void 0!==arguments[2]?arguments[2]:null,e=arguments.length>3&&void 0!==arguments[3]?arguments[3]:null,i=arguments.length>4&&void 0!==arguments[4]?arguments[4]:null;return this.isIdentity||this.resetSelf(),t&&(t.x||t.y)&&this.translateSelf(t.x,t.y),n&&this.rotateSelf(n),r&&(r.x&&this.skewSelf(r.x,0),r.y&&this.skewSelf(0,r.y)),!e||1===e.x&&1===e.y||this.scaleSelf(e.x,e.y),i&&(i.x||i.y)&&this.translateSelf(i.x,i.y),this}},{key:"decompose",value:function(){var t=arguments.length>0&&void 0!==arguments[0]?arguments[0]:0,n=arguments.length>1&&void 0!==arguments[1]?arguments[1]:0,r=this.m,e=r[0]*r[0]+r[1]*r[1],i=[[r[0],r[1]],[r[2],r[3]]],u=T(e);if(0===u)return{origin:{x:r[4],y:r[5]},translate:{x:t,y:n},scale:{x:0,y:0},skew:{x:0,y:0},rotate:0};i[0][0]/=u,i[0][1]/=u;var o=r[0]*r[3]-r[1]*r[2]<0;o&&(u=-u);var a=i[0][0]*i[1][0]+i[0][1]*i[1][1];i[1][0]-=i[0][0]*a,i[1][1]-=i[0][1]*a;var l=T(i[1][0]*i[1][0]+i[1][1]*i[1][1]);if(0===l)return{origin:{x:r[4],y:r[5]},translate:{x:t,y:n},scale:{x:u,y:0},skew:{x:0,y:0},rotate:0};i[1][0]/=l,i[1][1]/=l,a/=l;var f=0;return i[1][1]<0?(f=P(i[1][1])*R,i[0][1]<0&&(f=360-f)):f=O(i[0][1])*R,o&&(f=-f),a=L(a,T(i[0][0]*i[0][0]+i[0][1]*i[0][1]))*R,{origin:{x:r[4],y:r[5]},translate:{x:t,y:n},scale:{x:u,y:l},skew:{x:a,y:0},rotate:f}}},{key:"toString",value:function(){return null===this.s&&(this.s="matrix("+this.m.map(N).join(" ")+")"),this.s}},{key:"determinant",get:function(){var t=this.m;return t[0]*t[3]-t[1]*t[2]}},{key:"isIdentity",get:function(){if(null===this.i){var t=this.m;this.i=1===t[0]&&0===t[1]&&0===t[2]&&1===t[3]&&0===t[4]&&0===t[5]}return this.i}}]),t}(),D=/\.0+$/;function N(t){return Number.isInteger(t)?t:t.toFixed(14).replace(D,"")}Object.freeze({M:2,L:2,Z:0,H:1,V:1,C:6,Q:4,T:2,S:4,A:7});function G(t,n,r){return t+(n-t)*r}function $(t,n,r){var e=arguments.length>3&&void 0!==arguments[3]&&arguments[3],i={x:G(t.x,n.x,r),y:G(t.y,n.y,r)};return e&&(i.a=H(t,n)),i}function H(t,n){return Math.atan2(n.y-t.y,n.x-t.x)}function Q(t,n,r,e){var i=1-e;return i*i*t+2*i*e*n+e*e*r}function U(t,n,r,e){return 2*(1-e)*(n-t)+2*e*(r-n)}function Y(t,n,r,e){var i=arguments.length>4&&void 0!==arguments[4]&&arguments[4],u={x:Q(t.x,n.x,r.x,e),y:Q(t.y,n.y,r.y,e)};return i&&(u.a=Z(t,n,r,e)),u}function Z(t,n,r,e){return Math.atan2(U(t.y,n.y,r.y,e),U(t.x,n.x,r.x,e))}function J(t,n,r,e,i){var u=i*i;return i*u*(e-t+3*(n-r))+3*u*(t+r-2*n)+3*i*(n-t)+t}function K(t,n,r,e,i){var u=1-i;return 3*(u*u*(n-t)+2*u*i*(r-n)+i*i*(e-r))}function W(t,n,r,e,i){var u=arguments.length>5&&void 0!==arguments[5]&&arguments[5],o={x:J(t.x,n.x,r.x,e.x,i),y:J(t.y,n.y,r.y,e.y,i)};return u&&(o.a=X(t,n,r,e,i)),o}function X(t,n,r,e,i){return Math.atan2(K(t.y,n.y,r.y,e.y,i),K(t.x,n.x,r.x,e.x,i))}function tt(t,n,r){var e=arguments.length>3&&void 0!==arguments[3]&&arguments[3];if(rt(n)){if(et(r))return Y(n,r.start,r,t,e)}else if(rt(r)){if(n.end)return Y(n,n.end,r,t,e)}else{if(n.end)return r.start?W(n,n.end,r.start,r,t,e):Y(n,n.end,r,t,e);if(r.start)return Y(n,r.start,r,t,e)}return $(n,r,t,e)}function nt(t,n,r){var e=tt(t,n,r,!0);return e.a=function(t){var n=arguments.length>1&&void 0!==arguments[1]&&arguments[1];return n?t+Math.PI:t}(e.a)/v,e}function rt(t){return!t.type||"corner"===t.type}function et(t){return null!=t.start&&!rt(t)}var it=new V;var ut={f:function(t){return t?t.join(" "):""},i:function(n,r,e){if(0===n)return r;if(1===n)return e;var i=r.length;if(i!==e.length)return h(n,r,e);for(var u,o=new Array(i),a=0;a<i;a++){if((u=t(r[a]))!==t(e[a]))return h(n,r,e);if("number"===u)o[a]=y(n,r[a],e[a]);else{if(r[a]!==e[a])return h(n,r,e);o[a]=r[a]}}return o}},ot={f:null,i:A,u:function(t,n){return function(r){var e=n(r);t.setAttribute("x1",_(e[0])),t.setAttribute("y1",_(e[1])),t.setAttribute("x2",_(e[2])),t.setAttribute("y2",_(e[3]))}}},at={f:_,i:y},lt={f:_,i:function(t,n,r){var e=y(t,n,r);return e<=0?0:e>=1?1:e}},ft={f:M,i:function(t,n,r){var e,i,u,o=n.length,a=r.length;if(o!==a)if(0===o)n=x(o=a,0);else if(0===a)a=o,r=x(o,0);else{var l=(u=(e=o)*(i=a)/function(t,n){for(var r;n;)r=n,n=t%n,t=r;return t||1}(e,i))<0?-u:u;n=k(n,Math.floor(l/o)),r=k(r,Math.floor(l/a)),o=a=l}for(var f=[],s=0;s<o;s++)f.push(c(d(t,n[s],r[s]),6));return f}};function st(t,n,r,e,i,u,o,a){return n=function(t,n,r){for(var e,i,u,o=t.length-1,a={},l=0;l<=o;l++)(e=t[l]).e&&(e.e=n(e.e)),e.v&&"g"===(i=e.v).t&&i.r&&(u=r.getElementById(i.r))&&(a[i.r]=u.querySelectorAll("stop"));return a}(t,e,a),function(e){var i,u=r(e,t,ct);return u?"c"===u.t?E(u.v):"g"===u.t?(n[u.r]&&function(t,n){for(var r=0,e=t.length;r<e;r++)t[r].setAttribute("stop-color",E(n[r]))}(n[u.r],u.v),(i=u.r)?"url(#"+i+")":"none"):"none":"none"}}function ct(t,n,r){if(0===t)return n;if(1===t)return r;if(n&&r){var e=n.t;if(e===r.t)switch(n.t){case"c":return{t:e,v:b(t,n.v,r.v)};case"g":if(n.r===r.r)return{t:e,v:w(t,n.v,r.v),r:n.r}}}return h(t,n,r)}var vt={blur:m,brightness:d,contrast:d,"drop-shadow":function(t,n,r){return 0===t?n:1===t?r:{blur:m(t,n.blur,r.blur),offset:g(t,n.offset,r.offset),color:b(t,n.color,r.color)}},grayscale:d,"hue-rotate":y,invert:d,opacity:d,saturate:d,sepia:d};function ht(t,n,r){if(0===t)return n;if(1===t)return r;var e=n.length;if(e!==r.length)return h(t,n,r);for(var i,u=[],o=0;o<e;o++){if(n[o].type!==r[o].type)return n;if(!(i=vt[n[o].type]))return h(t,n,r);u.push({type:n.type,value:i(t,n[o].value,r[o].value)})}return u}var yt={blur:function(t){return t?function(n){t.setAttribute("stdDeviation",I(n))}:null},brightness:function(t,n,r){return(t=gt(r,n))?function(n){n=_(n),t.map((function(t){return t.setAttribute("slope",n)}))}:null},contrast:function(t,n,r){return(t=gt(r,n))?function(n){var r=_((1-n)/2);n=_(n),t.map((function(t){t.setAttribute("slope",n),t.setAttribute("intercept",r)}))}:null},"drop-shadow":function(t,n,r){var e=r.getElementById(n+"-blur");if(!e)return null;var i=r.getElementById(n+"-offset");if(!i)return null;var u=r.getElementById(n+"-flood");return u?function(t){e.setAttribute("stdDeviation",I(t.blur)),i.setAttribute("dx",_(t.offset.x)),i.setAttribute("dy",_(t.offset.y)),u.setAttribute("flood-color",E(t.color))}:null},grayscale:function(t){return t?function(n){t.setAttribute("values",M(function(t){return[.2126+.7874*(t=1-t),.7152-.7152*t,.0722-.0722*t,0,0,.2126-.2126*t,.7152+.2848*t,.0722-.0722*t,0,0,.2126-.2126*t,.7152-.7152*t,.0722+.9278*t,0,0,0,0,0,1,0]}(n)))}:null},"hue-rotate":function(t){return t?function(n){return t.setAttribute("values",_(n))}:null},invert:function(t,n,r){return(t=gt(r,n))?function(n){n=_(n)+" "+_(1-n),t.map((function(t){return t.setAttribute("tableValues",n)}))}:null},opacity:function(t,n,r){return(t=r.getElementById(n+"-A"))?function(n){return t.setAttribute("tableValues","0 "+_(n))}:null},saturate:function(t){return t?function(n){return t.setAttribute("values",_(n))}:null},sepia:function(t){return t?function(n){return t.setAttribute("values",M(function(t){return[.393+.607*(t=1-t),.769-.769*t,.189-.189*t,0,0,.349-.349*t,.686+.314*t,.168-.168*t,0,0,.272-.272*t,.534-.534*t,.131+.869*t,0,0,0,0,0,1,0]}(n)))}:null}};var dt=["R","G","B"];function gt(t,n){var r=dt.map((function(r){return t.getElementById(n+"-"+r)||null}));return-1!==r.indexOf(null)?null:r}var mt={fill:st,"fill-opacity":lt,stroke:st,"stroke-opacity":lt,"stroke-width":at,"stroke-dashoffset":{f:_,i:y},"stroke-dasharray":ft,opacity:lt,transform:function(n,r,e,i){if(!(n=function(n,r){if(!n||"object"!==t(n))return null;var e=!1;for(var i in n)n.hasOwnProperty(i)&&(n[i]&&n[i].length?(n[i].forEach((function(t){t.e&&(t.e=r(t.e))})),e=!0):delete n[i]);return e?n:null}(n,i)))return null;var u=function(t,i,u){var o=arguments.length>3&&void 0!==arguments[3]?arguments[3]:null;return n[t]?e(i,n[t],u):r&&r[t]?r[t]:o};return r&&r.a&&n.o?function(t){var r=e(t,n.o,nt);return it.recomposeSelf(r,u("r",t,y,0)+r.a,u("k",t,g),u("s",t,g),u("t",t,g)).toString()}:function(t){return it.recomposeSelf(u("o",t,tt,null),u("r",t,y,0),u("k",t,g),u("s",t,g),u("t",t,g)).toString()}},"#filter":function(t,n,r,e,i,u,o,a){if(!n.items||!t||!t.length)return null;var l=function(t,n){var r=(t=t.map((function(t){return t&&yt[t[0]]?(n.getElementById(t[1]),yt[t[0]](n.getElementById(t[1]),t[1],n)):null}))).length;return function(n){for(var e=0;e<r;e++)t[e]&&t[e](n[e].value)}}(n.items,a);return l?(t=function(t,n){return t.map((function(t){return t.e=n(t.e),t}))}(t,e),function(n){l(r(n,t,ht))}):null},"#line":ot,points:{f:M,i:A},d:ut,r:at,"#size":B,"#radius":F,_:function(t,n){if(Array.isArray(t))for(var r=0;r<t.length;r++)this[t[r]]=n;else this[t]=n}},pt=function(){function t(r){n(this,t),this.list=r,this.length=r.length}return e(t,[{key:"setAttribute",value:function(t,n){for(var r=this.list,e=0;e<this.length;e++)r[e].setAttribute(t,n)}},{key:"removeAttribute",value:function(t){for(var n=this.list,r=0;r<this.length;r++)n[r].removeAttribute(t)}},{key:"style",value:function(t,n){for(var r=this.list,e=0;e<this.length;e++)r[e].style[t]=n}}]),t}(),bt=/-./g,wt=function(t,n){return n.toUpperCase()};function At(t){return"function"==typeof t?t:h}function xt(t){return t?"function"==typeof t?t:Array.isArray(t)?function(t){var n=arguments.length>1&&void 0!==arguments[1]?arguments[1]:u;if(!Array.isArray(t))return n;switch(t.length){case 1:return s(t[0])||n;case 2:return s(t[0],t[1])||n;case 4:return a(t[0],t[1],t[2],t[3])||n}return n}(t,null):function(t,n){var r=arguments.length>2&&void 0!==arguments[2]?arguments[2]:u;switch(t){case"linear":return u;case"steps":return s(n.steps||1,n.jump||0)||r;case"bezier":case"cubic-bezier":return a(n.x1||0,n.y1||0,n.x2||0,n.y2||0)||r}return r}(t.type,t.value,null):null}function kt(t,n,r){var e=arguments.length>3&&void 0!==arguments[3]&&arguments[3],i=n.length-1;if(t<=n[0].t)return e?[0,0,n[0].v]:n[0].v;if(t>=n[i].t)return e?[i,1,n[i].v]:n[i].v;var u,o=n[0],a=null;for(u=1;u<=i;u++){if(!(t>n[u].t)){a=n[u];break}o=n[u]}return null==a?e?[i,1,n[i].v]:n[i].v:o.t===a.t?e?[u,1,a.v]:a.v:(t=(t-o.t)/(a.t-o.t),o.e&&(t=o.e(t)),e?[u,t,r(t,o.v,a.v)]:r(t,o.v,a.v))}function St(t,n){var r=arguments.length>2&&void 0!==arguments[2]?arguments[2]:null;return t&&t.length?"function"!=typeof n?null:("function"!=typeof r&&(r=null),function(e){var i=kt(e,t,n);return null!=i&&r&&(i=r(i)),i}):null}function _t(t,n){return t.t-n.t}function Mt(n,r,e,i,u){var o,a="@"===e[0],l="#"===e[0],f=mt[e],s=h;switch(a?(o=e.substr(1),e=o.replace(bt,wt)):l&&(e=e.substr(1)),t(f)){case"function":if(s=f(i,u,kt,xt,e,a,r,n),l)return s;break;case"string":s=St(i,At(f));break;case"object":if((s=St(i,At(f.i),f.f))&&"function"==typeof f.u)return f.u(r,s,e,a,n)}return s?function(t,n,r){var e=arguments.length>3&&void 0!==arguments[3]&&arguments[3];if(e)return t instanceof pt?function(e){return t.style(n,r(e))}:function(e){return t.style[n]=r(e)};if(Array.isArray(n)){var i=n.length;return function(e){var u=r(e);if(null==u)for(var o=0;o<i;o++)t[o].removeAttribute(n);else for(var a=0;a<i;a++)t[a].setAttribute(n,u)}}return function(e){var i=r(e);null==i?t.removeAttribute(n):t.setAttribute(n,i)}}(r,e,s,a):null}function It(n,r,e,i){if(!i||"object"!==t(i))return null;var u=null,o=null;return Array.isArray(i)?o=function(t){if(!t||!t.length)return null;for(var n=0;n<t.length;n++)t[n].e&&(t[n].e=xt(t[n].e));return t.sort(_t)}(i):(o=i.keys,u=i.data||null),o?Mt(n,r,e,o,u):null}function Et(t,n,r){if(!r)return null;var e=[];for(var i in r)if(r.hasOwnProperty(i)){var u=It(t,n,i,r[i]);u&&e.push(u)}return e.length?e:null}function Ft(t,n){if(!n.duration||n.duration<0)return null;var r=function(t,n){if(!n)return null;var r=[];if(Array.isArray(n))for(var e=n.length,i=0;i<e;i++){var u=n[i];if(2===u.length){var o=null;if("string"==typeof u[0])o=t.getElementById(u[0]);else if(Array.isArray(u[0])){o=[];for(var a=0;a<u[0].length;a++)if("string"==typeof u[0][a]){var l=t.getElementById(u[0][a]);l&&o.push(l)}o=o.length?1===o.length?o[0]:new pt(o):null}if(o){var f=Et(t,o,u[1]);f&&(r=r.concat(f))}}}else for(var s in n)if(n.hasOwnProperty(s)){var c=t.getElementById(s);if(c){var v=Et(t,c,n[s]);v&&(r=r.concat(v))}}return r.length?r:null}(t,n.elements);return r?function(t,n){var r=arguments.length>2&&void 0!==arguments[2]?arguments[2]:1/0,e=arguments.length>3&&void 0!==arguments[3]?arguments[3]:1,i=arguments.length>4&&void 0!==arguments[4]&&arguments[4],u=arguments.length>5&&void 0!==arguments[5]?arguments[5]:1,o=t.length,a=e>0?n:0;i&&r%2==0&&(a=n-a);var l=null;return function(f,s){var c=f%n,v=1+(f-c)/n;s*=e,i&&v%2==0&&(s=-s);var h=!1;if(v>r)c=a,h=!0,-1===u&&(c=e>0?0:n);else if(s<0&&(c=n-c),c===l)return!1;l=c;for(var y=0;y<o;y++)t[y](c);return h}}(r,n.duration,n.iterations||1/0,n.direction||1,!!n.alternate,n.fill||1):null}var Bt=function(){function t(r){var e=arguments.length>1&&void 0!==arguments[1]?arguments[1]:{};n(this,t),this._id=0,this._running=!1,this._animations=r,this.direction=e.direction||1,this.speed=e.speed||1,this.fps=e.fps||100,this.offset=e.offset||0}return e(t,[{key:"_start",value:function(){var t=this,n=arguments.length>0&&void 0!==arguments[0]?arguments[0]:0,r=-1/0,e=null,i={},u=function u(o){t._running=!0,null==e&&(e=o);var a=Math.round((o-e+n)*t.speed),l=t.fps?1e3/t.fps:0;if(a>r+l){t.offset=a,r=a;for(var f=t._animations,s=f.length,c=0,v=0;v<s;v++)i[v]?c++:(i[v]=f[v](a,t.direction),i[v]&&c++);if(c===s)return void t._stop()}t._id=window.requestAnimationFrame(u)};this._id=window.requestAnimationFrame(u)}},{key:"_stop",value:function(){this._id&&window.cancelAnimationFrame(this._id),this._running=!1}},{key:"play",value:function(){this._running||this._start(this.offset)}},{key:"stop",value:function(){this._stop(),this.offset=0;var t=this.direction,n=this._animations;requestAnimationFrame((function(){for(var r=0;r<n.length;r++)n[r](0,t)}))}},{key:"restart",value:function(){this._stop(),this.offset=0,this._start()}},{key:"pause",value:function(){this._stop()}},{key:"reverse",value:function(){this.direction=-this.direction}}],[{key:"build",value:function(n){if(!(n=function(t){if(!t||!t.root||!Array.isArray(t.animations))return null;var n=window.document.getElementById(t.root);if(!n)return null;var r=t.animations.map((function(t){return Ft(n,t)})).filter((function(t){return!!t}));return r.length?{element:n,animations:r,options:t.options||void 0}:null}(n)))return null;var r=n.element,e=n.options||{},i=new t(n.animations,n.options);return function(t,n,r){var e=arguments.length>3&&void 0!==arguments[3]?arguments[3]:null;if("click"===r){var i=function r(){n.removeEventListener("click",r),t.play()};return void n.addEventListener("click",i)}if("hover"===r)return n.addEventListener("mouseenter",(function(){return t.play()})),void n.addEventListener("mouseleave","freeze"===e?function(){return t.pause()}:function(){return t.stop()});t.play()}(i,r,e.start,e.hover),i}}]),t}();return function(){for(var t=0,n=["ms","moz","webkit","o"],r=0;r<n.length&&!window.requestAnimationFrame;++r)window.requestAnimationFrame=window[n[r]+"RequestAnimationFrame"],window.cancelAnimationFrame=window[n[r]+"CancelAnimationFrame"]||window[n[r]+"CancelRequestAnimationFrame"];window.requestAnimationFrame||(window.requestAnimationFrame=function(n){var r=Date.now(),e=Math.max(0,16-(r-t)),i=window.setTimeout((function(){n(r+e)}),e);return t=r+e,i},window.cancelAnimationFrame=window.clearTimeout)}(),Bt}));
__SVGATOR_PLAYER__.build({"root":"eavb4yw2mi741","animations":[{"duration":15000,"direction":1,"iterations":1,"fill":1,"alternate":false,"elements":{"eavb4yw2mi745":{"fill":[{"t":5000,"v":{"t":"c","v":{"r":250,"g":202,"b":188,"a":1}}},{"t":5300,"v":{"t":"c","v":{"r":250,"g":202,"b":188,"a":1}}},{"t":5400,"v":{"t":"c","v":{"r":244,"g":255,"b":0,"a":1}}},{"t":5700,"v":{"t":"c","v":{"r":255,"g":0,"b":0,"a":1}}},{"t":6000,"v":{"t":"c","v":{"r":0,"g":251,"b":255,"a":1}}},{"t":6300,"v":{"t":"c","v":{"r":0,"g":55,"b":255,"a":1}}},{"t":6600,"v":{"t":"c","v":{"r":7,"g":255,"b":0,"a":1}}},{"t":7000,"v":{"t":"c","v":{"r":245,"g":0,"b":255,"a":1}}},{"t":8000,"v":{"t":"c","v":{"r":255,"g":238,"b":0,"a":1}}},{"t":8200,"v":{"t":"c","v":{"r":0,"g":255,"b":21,"a":1}}},{"t":8400,"v":{"t":"c","v":{"r":246,"g":9,"b":54,"a":1}}},{"t":8600,"v":{"t":"c","v":{"r":246,"g":132,"b":9,"a":1}}},{"t":8800,"v":{"t":"c","v":{"r":174,"g":246,"b":18,"a":1}}},{"t":9000,"v":{"t":"c","v":{"r":27,"g":237,"b":229,"a":1}}},{"t":9200,"v":{"t":"c","v":{"r":36,"g":62,"b":230,"a":1}}},{"t":9400,"v":{"t":"c","v":{"r":0,"g":255,"b":203,"a":1}}},{"t":9600,"v":{"t":"c","v":{"r":0,"g":255,"b":21,"a":1}}},{"t":9800,"v":{"t":"c","v":{"r":246,"g":9,"b":54,"a":1}}},{"t":10000,"v":{"t":"c","v":{"r":246,"g":132,"b":9,"a":1}}},{"t":10200,"v":{"t":"c","v":{"r":174,"g":246,"b":18,"a":1}}},{"t":10400,"v":{"t":"c","v":{"r":27,"g":237,"b":229,"a":1}}},{"t":10600,"v":{"t":"c","v":{"r":36,"g":62,"b":230,"a":1}}},{"t":10800,"v":{"t":"c","v":{"r":0,"g":255,"b":203,"a":1}}},{"t":11000,"v":{"t":"c","v":{"r":0,"g":255,"b":21,"a":1}}},{"t":11200,"v":{"t":"c","v":{"r":246,"g":9,"b":54,"a":1}}},{"t":11400,"v":{"t":"c","v":{"r":246,"g":132,"b":9,"a":1}}},{"t":11600,"v":{"t":"c","v":{"r":174,"g":246,"b":18,"a":1}}},{"t":11800,"v":{"t":"c","v":{"r":27,"g":237,"b":229,"a":1}}},{"t":12000,"v":{"t":"c","v":{"r":36,"g":62,"b":230,"a":1}}},{"t":12200,"v":{"t":"c","v":{"r":0,"g":255,"b":203,"a":1}}},{"t":12400,"v":{"t":"c","v":{"r":0,"g":255,"b":21,"a":1}}},{"t":12600,"v":{"t":"c","v":{"r":246,"g":9,"b":54,"a":1}}},{"t":12800,"v":{"t":"c","v":{"r":246,"g":132,"b":9,"a":1}}},{"t":13000,"v":{"t":"c","v":{"r":174,"g":246,"b":18,"a":1}}},{"t":13200,"v":{"t":"c","v":{"r":27,"g":237,"b":229,"a":1}}},{"t":13400,"v":{"t":"c","v":{"r":36,"g":62,"b":230,"a":1}}},{"t":13600,"v":{"t":"c","v":{"r":0,"g":255,"b":203,"a":1}}},{"t":14000,"v":{"t":"c","v":{"r":252,"g":0,"b":255,"a":1}}},{"t":15000,"v":{"t":"c","v":{"r":250,"g":202,"b":188,"a":1}}}]},"eavb4yw2mi747":{"fill":[{"t":0,"v":{"t":"c","v":{"r":250,"g":202,"b":188,"a":1}}},{"t":300,"v":{"t":"c","v":{"r":250,"g":202,"b":188,"a":1}}},{"t":400,"v":{"t":"c","v":{"r":244,"g":255,"b":0,"a":1}}},{"t":700,"v":{"t":"c","v":{"r":255,"g":0,"b":0,"a":1}}},{"t":1000,"v":{"t":"c","v":{"r":0,"g":251,"b":255,"a":1}}},{"t":1300,"v":{"t":"c","v":{"r":0,"g":55,"b":255,"a":1}}},{"t":1600,"v":{"t":"c","v":{"r":7,"g":255,"b":0,"a":1}}},{"t":2000,"v":{"t":"c","v":{"r":245,"g":0,"b":255,"a":1}}},{"t":3000,"v":{"t":"c","v":{"r":255,"g":238,"b":0,"a":1}}},{"t":4000,"v":{"t":"c","v":{"r":252,"g":0,"b":255,"a":1}}},{"t":5000,"v":{"t":"c","v":{"r":250,"g":202,"b":188,"a":1}}},{"t":8000,"v":{"t":"c","v":{"r":250,"g":202,"b":188,"a":1}}},{"t":8200,"v":{"t":"c","v":{"r":0,"g":255,"b":21,"a":1}}},{"t":8400,"v":{"t":"c","v":{"r":246,"g":9,"b":54,"a":1}}},{"t":8600,"v":{"t":"c","v":{"r":246,"g":132,"b":9,"a":1}}},{"t":8800,"v":{"t":"c","v":{"r":174,"g":246,"b":18,"a":1}}},{"t":9000,"v":{"t":"c","v":{"r":27,"g":237,"b":229,"a":1}}},{"t":9200,"v":{"t":"c","v":{"r":36,"g":62,"b":230,"a":1}}},{"t":9400,"v":{"t":"c","v":{"r":0,"g":255,"b":203,"a":1}}},{"t":9600,"v":{"t":"c","v":{"r":0,"g":255,"b":21,"a":1}}},{"t":9800,"v":{"t":"c","v":{"r":246,"g":9,"b":54,"a":1}}},{"t":10000,"v":{"t":"c","v":{"r":246,"g":132,"b":9,"a":1}}},{"t":10200,"v":{"t":"c","v":{"r":174,"g":246,"b":18,"a":1}}},{"t":10400,"v":{"t":"c","v":{"r":27,"g":237,"b":229,"a":1}}},{"t":10600,"v":{"t":"c","v":{"r":36,"g":62,"b":230,"a":1}}},{"t":10800,"v":{"t":"c","v":{"r":0,"g":255,"b":203,"a":1}}},{"t":11000,"v":{"t":"c","v":{"r":0,"g":255,"b":21,"a":1}}},{"t":11200,"v":{"t":"c","v":{"r":246,"g":9,"b":54,"a":1}}},{"t":11400,"v":{"t":"c","v":{"r":246,"g":132,"b":9,"a":1}}},{"t":11600,"v":{"t":"c","v":{"r":174,"g":246,"b":18,"a":1}}},{"t":11800,"v":{"t":"c","v":{"r":27,"g":237,"b":229,"a":1}}},{"t":12000,"v":{"t":"c","v":{"r":36,"g":62,"b":230,"a":1}}},{"t":12200,"v":{"t":"c","v":{"r":0,"g":255,"b":203,"a":1}}},{"t":12400,"v":{"t":"c","v":{"r":0,"g":255,"b":21,"a":1}}},{"t":12600,"v":{"t":"c","v":{"r":246,"g":9,"b":54,"a":1}}},{"t":12800,"v":{"t":"c","v":{"r":246,"g":132,"b":9,"a":1}}},{"t":13000,"v":{"t":"c","v":{"r":174,"g":246,"b":18,"a":1}}},{"t":13200,"v":{"t":"c","v":{"r":27,"g":237,"b":229,"a":1}}},{"t":13400,"v":{"t":"c","v":{"r":36,"g":62,"b":230,"a":1}}},{"t":13600,"v":{"t":"c","v":{"r":0,"g":255,"b":203,"a":1}}},{"t":14000,"v":{"t":"c","v":{"r":252,"g":0,"b":255,"a":1}}},{"t":15000,"v":{"t":"c","v":{"r":250,"g":202,"b":188,"a":1}}}]},"eavb4yw2mi7410":{"transform":{"keys":{"o":[{"t":5700,"v":{"x":0.8309765599999537,"y":351.44599767999983,"type":"corner"}},{"t":8000,"v":{"x":0.8309765600017727,"y":0.03641469000001507,"type":"corner"},"e":[0,0,0.005,1.005]}]}}},"eavb4yw2mi7413":{"transform":{"keys":{"o":[{"t":700,"v":{"x":-3.71919840499595,"y":336.1322922399999,"type":"corner"}},{"t":3000,"v":{"x":-3.7191984049878783,"y":0.03604626000111466,"type":"corner"},"e":[0,0,0,1.01]}]}}}}}],"options":{"start":"click","hover":"freeze"}})]]></script></svg>