<svg width="1308" height="977" fill="none" xmlns="http://www.w3.org/2000/svg"><path d="M999.5 514.771c-.7-.5-1.5-.7-2.5-.4-5 1.5-6.1-11.4-32.8-11.8-26.7-.4-3.1 32.1-3.1 32.1l-.2 10.7h38.6v-30.6zM375.401 543.371c-4.6-8 7.2-5.7 8.8-26.3 8-31.7-33.2-8.8-33.2-8.8-3.9 6.4-10.2 10-15.7 12v25h40.4c.2-.6.1-1.2-.3-1.9z" fill="#A75155"/><path d="M972.503 298.67c-17.7 4.5-8.7-9.6-1.5-17.7 5.8-6.4.5-11.7-1.9-13.5H362.202c-.3 1.1-2.8 12.6 5.6 15.4 8.7 3 17.4 18.7 1.1 17.7-16.3-1-21.1-8.3-29.2-.9-1.6 1.5-3.1 1.7-4.3 1.2v219.3c5.5-2 11.8-5.6 15.7-12 0 0 41.2-22.9 33.2 8.8-1.5 20.6-13.4 18.3-8.8 26.3.4.7.4 1.3.2 1.9h585.201l.2-10.7s-23.7-32.4 3.1-32.1c26.7.4 27.9 13.4 32.8 11.8 1-.3 1.8-.1 2.5.4v-212.1c-.9.9-1.7 1.5-2.3 1.7-3.4 1.3-8.5-11.3-24.7-5.5z" fill="#F87980"/><path d="M339.601 299.67c8.1-7.4 12.8-.2 29.2.9s7.7-14.7-1.1-17.7c-8.3-2.8-5.8-14.3-5.5-15.4h-26.9v33.5c1.3.5 2.7.2 4.3-1.3zM969.099 267.47c2.4 1.9 7.7 7.1 1.9 13.5-7.2 8.1-16.2 22.1 1.5 17.7 16.2-5.7 21.3 6.8 24.7 5.5.6-.2 1.4-.9 2.3-1.7v-35h-30.4z" fill="#A75155"/><path d="M996.303 261.671c-20.9-7.6-10.4-22.5-18.5-28 0 0-5-2-8.8-4.1H361.802c-6.8 4.3-1 24.1-19.6 30.9-4.1 1.5-7.1 1.4-9.3.3v6.8H1003.8v-4.9c-2 .4-4.397.2-7.497-1z" fill="#A75155"/><path d="M364.999 229.071c-1.1 0-2.1.2-2.9.6h606.6c-3.2-1.8-5.4-3.7-2.3-4.2 4.9-.9 18.8-3.5 27.8-3.4l-47.6-38.9-548.5-.6-52.9 38.5c9 .1 22.1 2.6 26.9 3.4 6.8 1.2-7.1 4.6-7.1 4.6z" fill="#A75155"/><path d="M342.202 260.57c18.6-6.8 12.8-26.6 19.6-30.9h-28.9l.3-.2h-.3v31.5c2.2 1.1 5.2 1.1 9.3-.4z" fill="#F87980"/><path d="M362.401 229.771c.8-.4 1.6-.4 2.7-.4h.2c1.2-.3 13.5-3.8 7-4.9-4.8-.8-18.2-3.3-27.2-3.4l-12.3 8.5 29.6.2z" fill="#F87980"/><path d="M333.202 229.47l-.3.2h28.9c.1-.1.2-.1.3-.2h-28.9zM1003.5 229.47l.2.2H969c3.8 2.1 8.8 4.1 8.8 4.1 8.1 5.5-2.4 20.3 18.5 28 3.1 1.1 5.6 1.4 7.5 1v-33.3h-.3z" fill="#F87980"/><path d="M966.403 225.571c-3.1.5-1 2.4 2.3 4.2h34.797l-9.297-7.6c-8.9-.1-22.9 2.5-27.8 3.4z" fill="#F87980"/><path d="M968.699 229.47c.1.1.2.1.4.2h34.701l-.2-.2" fill="#F87980"/><path d="M679.101 328.17h-26.6l-4.7-56.7h36.3l-5 56.7z" fill="#5C404E"/><path d="M652.5 328.171h26.6s7.6-76.9 1.1-76.6c-6.5.4-5 1.2-5 1.2s4.4-7.2-6.9-7.4c-11.3-.2-8.2 7.4-8.2 7.4s-8.2-4.4-7.6.6v74.8z" fill="#5C404E"/><path d="M666.901 304.071c-32.8-1.2-23.6 36.8-23.6 36.8l.8-.3 8.9.3c-.9-6.8-2.2-27.9 15.9-27 20.7 1 15.2 26 14.8 27.9l4.7 1.8c-.1 0 11.3-38.2-21.5-39.5z" fill="#BE988D"/><path d="M665.601 302.571c-32.8-1.2-23.6 36.8-23.6 36.8l.8-.3 8.9.3c-.9-6.8-2.2-27.9 15.9-27 20.7 1 15.2 26 14.8 27.9l8.5.2c-.1-.1 7.5-36.7-25.3-37.9z" fill="#FFCBC8"/><path d="M486.399 182.671h28l-42.2 47h-18l32.2-47zM597.999 182.771l21 .1-20.6 47.2-16.2.2 15.8-47.5zM717.801 182.971h18.5l17.5 47-13.1.2-22.9-47.2zM820.102 182.97l24.2.1 32.4 46.9-19.8.1-36.8-47.1z" fill="#F87980"/><path d="M454.202 229.371l-2.1 38.3 18.7-.3 1.4-38h-18z" fill="#F87980"/><path d="M361.5 272.67l638-.6v-4.6H363.4" fill="#5C404E"/><path d="M582.199 229.971l16.2-.2.4 37.5-15.4.1-1.2-37.4zM740.699 229.871l13.1-.2 2.9 37.7h-8.8l-7.2-37.5zM856.898 229.771l19.8-.1 3 37.8-11.8.1-11-37.8z" fill="#F87980"/><path d="M1005.7 369.371H328v-18l678.3-2-.6 20zM1004.8 449.97H330.102v14.9H1004.8v-14.9zM672.501 286.671h-13.2v35.4h13.2v-35.4zM662.899 277.471l10.4.3s2.6-19-4.7-19c-7.3 0-5.7 18.7-5.7 18.7z" fill="#A75155"/><path d="M999.601 377.771v-8.4l-664.3.1v5.5l664.3 2.8zM999.601 469.571v-4.9l-664.3.1v2.2l664.3 2.6z" fill="#5C404E"/><path d="M640.902 340.17l53 .3 1.7 43.5-55 2 .3-45.8z" fill="#CBBEBD"/><path d="M639.8 338.771l53 .3 1.7 43.5-55 2 .3-45.8z" fill="#FFF1F0"/><path d="M363.401 267.47h-28.1v5.3l26.2-.1M972.702 272.07l-1.1-4.6h27.9v4.6h-26.8z" fill="#5C404E"/><g clip-path="url(#clip0)"><path d="M167.093 286.931l-15.522-.316-5.657-132.469h24.231l-3.052 132.785z" fill="#5C414E"/><path d="M140.31 200.668l40.307 2.155-1.816 31.015-38.649 2.628.158-35.798z" fill="#5C414E"/><path d="M177.229 232.55s3.578 8.384 11.787 4.284c8.208-4.1 8.945-7.675 8.392-11.775-.552-4.1-.184-6.071-.184-6.071l9.656.709s.526 4.81-2.5 10.698c-3.025 5.887-6.077 16.243-17.68 14.298-11.602-1.945-16.97-10.881-16.97-10.881l7.499-1.262z" fill="#5C414E"/><path d="M208.798 162.057H197.59v39.347h11.208v-39.347z" fill="#FEF1F0"/><path d="M171.935 147.812h-28.783v5.414h28.783v-5.414zM169.704 146.418l-24.047.132-4.762-16.979h32.203l-3.394 16.847zM167.23 287.824h-16.601v1.814h16.601v-1.814zM171.15 301.57h-23.705l3.605-9.54 16.364-.132 3.736 9.672zM143.315 230.473s-3.578 8.385-11.787 4.285c-8.208-4.101-8.945-7.675-8.393-11.775.527-4.101.185-6.072.185-6.072l-9.656.71s-.526 4.81 2.499 10.697c3.026 5.888 6.078 16.243 17.681 14.272 11.602-1.971 16.969-10.881 16.969-10.881" fill="#5C414E"/><path d="M111.745 199.317h11.208V159.97h-11.208v39.347z" fill="#FEF1F0"/><path d="M197.614 216.201l8.788.736s4.183-9.856 6.945-11.065c2.763-1.209 5.999-1.945 3.526-3.312-2.473-1.367-8.84-2.681-8.84-2.681l-17.838-.368s-4.552-.21-1.184 2.707c3.368 2.918 10.366 6.755 8.603 13.983zM122.92 214.125l-8.788.736s-4.183-9.857-6.946-11.066c-2.762-1.235-6.024-1.945-3.551-3.338s8.84-2.681 8.84-2.681l17.838-.368s4.551-.21 1.184 2.708c-3.368 2.917-10.34 6.781-8.577 14.009z" fill="#5C414E"/><path d="M116.873 146.97s-5.236 4.521.5 12.906c3.526-5.52-.5-12.906-.5-12.906zM203.561 148.547s-3.104 11.959-.342 13.3c2.684-2.681.342-13.3.342-13.3z" fill="#FD6"/></g><g clip-path="url(#clip1)"><path d="M1161.09 286.931l-15.52-.316-5.66-132.469h24.24l-3.06 132.785z" fill="#5C414E"/><path d="M1134.31 200.668l40.31 2.155-1.82 31.015-38.65 2.628.16-35.798z" fill="#5C414E"/><path d="M1171.23 232.55s3.58 8.384 11.79 4.284c8.2-4.1 8.94-7.675 8.39-11.775-.55-4.1-.19-6.071-.19-6.071l9.66.709s.53 4.81-2.5 10.698c-3.03 5.887-6.08 16.243-17.68 14.298-11.6-1.945-16.97-10.881-16.97-10.881l7.5-1.262z" fill="#5C414E"/><path d="M1202.8 162.057h-11.21v39.347h11.21v-39.347z" fill="#FEF1F0"/><path d="M1165.94 147.812h-28.79v5.414h28.79v-5.414zM1163.7 146.418l-24.04.132-4.77-16.979h32.21l-3.4 16.847zM1161.23 287.824h-16.6v1.814h16.6v-1.814zM1165.15 301.57h-23.7l3.6-9.54 16.36-.132 3.74 9.672zM1137.32 230.473s-3.58 8.385-11.79 4.285c-8.21-4.101-8.95-7.675-8.39-11.775.52-4.101.18-6.072.18-6.072l-9.66.71s-.52 4.81 2.5 10.697c3.03 5.888 6.08 16.243 17.68 14.272 11.61-1.971 16.97-10.881 16.97-10.881" fill="#5C414E"/><path d="M1105.75 199.317h11.2V159.97h-11.2v39.347z" fill="#FEF1F0"/><path d="M1191.61 216.201l8.79.736s4.18-9.856 6.95-11.065c2.76-1.209 6-1.945 3.52-3.312-2.47-1.367-8.84-2.681-8.84-2.681l-17.84-.368s-4.55-.21-1.18 2.707c3.37 2.918 10.37 6.755 8.6 13.983zM1116.92 214.125l-8.79.736s-4.18-9.857-6.94-11.066c-2.77-1.235-6.03-1.945-3.56-3.338 2.48-1.393 8.84-2.681 8.84-2.681l17.84-.368s4.55-.21 1.19 2.708c-3.37 2.917-10.34 6.781-8.58 14.009z" fill="#5C414E"/><path d="M1110.87 146.97s-5.23 4.521.5 12.906c3.53-5.52-.5-12.906-.5-12.906zM1197.56 148.547s-3.1 11.959-.34 13.3c2.68-2.681.34-13.3.34-13.3z" fill="#FD6"/></g><defs><clipPath id="clip0"><path fill="#fff" transform="translate(102.77 129.571)" d="M0 0h115v172H0z"/></clipPath><clipPath id="clip1"><path fill="#fff" transform="translate(1096.77 129.571)" d="M0 0h115v172H0z"/></clipPath></defs></svg>