<svg width="1194" height="834" viewBox="0 0 1194 834" fill="none" xmlns="http://www.w3.org/2000/svg">
<g clip-path="url(#clip0)">
<rect width="1194" height="834" fill="#25549B"/>
<path d="M0 0H688V85.8926L544 190.893L489.5 290.393L457 684.393L0 834V0Z" fill="#F6E9E8"/>
<path fill-rule="evenodd" clip-rule="evenodd" d="M673.398 661.752L657.526 660.172L663.372 618.628L642.066 606.373L670.456 554.766L649.15 538.519L638.187 550.269L623.965 573.655L594.282 611.207L577.397 610.087L581.124 602.944L568.981 563.705L561.223 528.345L549.643 517.832L591.074 492.928H609.907V454.252L603.841 434.369L603.893 434.349L611.875 422.6L618.453 425.636L624.636 413.605H638.578L641.558 419.62L662.02 416.023L668.429 406.128L678.492 400.113L682.183 401.832L680.236 409.671L691.648 421.814L693.841 435.755L691.648 441.827L708.345 445.874H713.966L717.227 452.733L715.99 459.029L727.065 463.695L728.47 468.979C729.52 471.134 731.742 475.534 732.237 475.894C732.489 476.078 733.738 476.882 735.169 477.803L735.17 477.803L735.17 477.803C737.238 479.135 739.685 480.71 740.051 481.009C740.545 481.414 747.453 482.527 750.844 483.033L754.105 478.705L760.176 483.033C760.589 487.624 761.413 496.964 761.413 497.593C761.413 498.223 758.415 506.326 756.916 510.298L740.051 520.08C736.191 520.998 728.47 523.183 728.47 524.577C728.47 525.971 725.247 530.967 723.636 533.291L732.237 544.084L734.373 561.062L713.966 567.527L695.415 565.053L679.393 586.022L682.935 596.028L700.643 604.292L704.41 612.275V623.799L682.935 637.01V652.02L673.398 661.752ZM603.833 434.35L603.833 434.35L592.315 431.434L592.315 431.433L603.833 434.35Z" fill="#CA6267"/>
<path fill-rule="evenodd" clip-rule="evenodd" d="M528.395 266.037L556.388 253.108L556.39 253.107V225.055L561.787 206.166L541.953 188.779L546.441 184.13L560.383 181.544L564.937 188.065L575.337 178.621L573.369 163.049L588.941 137.695L603.895 141.293V158.102L608.729 168.558L618.174 170.526L630.822 154.898L639.592 145.509L656.176 150.4L654.321 166.815L639.592 170.526L658.087 175.36L677.932 170.526L687.32 150.4L702.948 156.528L700.643 178.621L709.75 198.746L726.615 202.963L728.751 203.909V230.565L736.958 251.422L699.743 267.781L671.072 285.657H663.652L621.602 291.616L590.683 298.306L569.096 291.616L546.441 280.823L536.024 284.203L535.365 281.159L528.395 266.037Z" fill="#EB7379"/>
<path fill-rule="evenodd" clip-rule="evenodd" d="M873.411 368.334L867.559 348.369L873.411 336.32L885.46 328.747L889.591 320.141L885.46 307.404L873.411 295.012H854.823L849.659 286.406L845.184 267.817H854.823L864.461 276.423L876.854 256.457L889.591 247.851L903.016 243.721L906.802 230.295L889.591 233.393L885.46 221.345L892.344 204.133L903.016 190.708L911.622 176.939V137.007L896.131 118.074L885.46 95.01L876.854 85.0271L867.559 69.8807V54.39V37.5224L885.46 33.0473L906.802 37.5224L920.228 33.0473L941.57 40.6205L961.192 37.5224L978.404 27.1952L994.239 22.0317H1005.94L1026.09 0.000488281H496.816L493.718 3.44286L497.16 11.0161L503.7 14.1142L510.929 18.2451V25.8183V35.8012L522.978 43.0302L547.419 54.0458L548.107 59.2093L562.221 67.8153L581.842 76.4212L603.529 80.2078L621.085 75.7327L634.166 65.0614L640.018 59.2093L653.444 54.0458L646.215 63.3402L648.624 73.3231L656.542 75.7327L670.311 78.4866L674.786 82.2732L659.64 80.2078L625.216 76.4212L614.545 82.9617L600.087 87.4368L583.563 82.9617L578.4 80.2078H569.794L555.336 75.7327L545.353 65.0614L524.01 54.0458L509.208 43.0302L488.898 40.6205L477.883 48.8822L468.588 63.3402L473.752 69.5364L477.883 62.9959L481.325 54.0458L498.881 50.6034L506.454 57.1439V65.0614L514.716 78.4866L527.453 83.9944L536.059 88.8137L555.336 93.9773H566.696L568.073 86.0598L573.236 82.2732L575.99 87.4368L573.236 93.9773L558.09 100.174L548.107 102.583L540.534 104.304L537.78 100.174L529.518 96.387H522.978L520.224 102.583L527.453 107.403H534.338L533.305 109.468L527.453 111.878L513.339 108.435L500.602 111.878L498.881 116.697L506.454 120.484L513.339 133.565C516.896 133.679 524.148 133.84 524.699 133.565C525.25 133.289 530.436 135.286 532.961 136.319L537.78 138.728L547.419 140.449L545.353 143.892L550.517 145.957L554.992 153.186L555.336 156.629L550.517 161.104H536.059L520.224 158.694L514.716 150.088V143.203L506.454 137.007L497.16 133.22L493.718 127.024L484.079 129.434L477.883 127.024L483.735 122.893L481.325 120.484L477.883 111.878L469.965 109.468L460.327 111.878L449.999 112.91L434.853 114.287L427.624 112.91L417.297 116.697L409.724 122.205L401.462 128.057L398.02 133.22L401.462 136.319L406.97 141.138L424.526 158.694H434.853L436.23 155.252L443.803 152.498H447.59L443.803 155.252L447.59 158.694L452.409 166.611L456.54 165.579L460.327 169.71L466.523 174.529H471.686L484.079 171.431L485.456 168.677L488.898 163.169V156.629L491.308 155.252L498.881 152.498L503.7 156.973L510.929 162.136L513.339 165.579L524.01 171.431H533.305L541.911 169.71L547.419 174.529L548.107 179.348L550.517 183.479L568.073 201.379L589.416 174.529L630.036 191.052L674.786 194.495L723.324 222.722L768.075 219.28L794.581 264.719L772.206 332.534L805.597 382.448H874.444L879.232 372.806L873.411 368.334Z" fill="#3264AF"/>
<path fill-rule="evenodd" clip-rule="evenodd" d="M603.843 434.37L603.896 434.35L611.878 422.601L618.456 425.636L624.639 413.606H638.581L641.561 419.621L662.023 416.023L668.432 406.129L678.495 400.114L682.599 402.025L688.447 372.626L679.508 364.81L671.075 370.488H660.731L652.692 364.81L641.28 357.727L628.857 352.386L619.806 357.727L613.116 364.81L611.092 374.198H600.692H588.662L584.614 366.778L575.901 370.488L559.823 379.876H552.458L547.062 387.578L526.992 379.876L520.246 374.198L508.722 381.844L508.72 381.845L508.719 381.844L508.719 381.844L523.672 402.812L568.982 425.523L603.836 434.349L603.843 434.37Z" fill="#E16E74"/>
<path fill-rule="evenodd" clip-rule="evenodd" d="M390.923 361.519L398.283 368.851L417.678 374.81L429.033 368.851C430.289 366.864 433.34 362.791 435.498 362.386C437.657 361.981 463.007 366.527 475.412 368.851L485.643 374.81L504.499 354.393L504.999 331.893L524.489 310.105L538.487 296.613L536.499 281.393L528.999 266.393L556.499 253.393L556.999 224.893L561.999 205.893L534.499 182.393L379.506 200.732V207.509L382.429 214.648L384.836 215.859L379 225.78L382.148 250.234L379 268.335L385.69 279.804L390.805 295.938L385.69 306.169C387.395 309.598 390.805 316.929 390.805 318.818C390.805 320.707 396.09 329.836 398.732 334.165C399.388 337.575 400.306 344.869 398.732 346.757C397.188 348.61 392.959 357.211 390.923 361.519Z" fill="#E16E74"/>
<path fill-rule="evenodd" clip-rule="evenodd" d="M816.546 358.167L816.546 358.166L818.779 361.41L848.731 364.917H873.796L903.345 387.855L912.889 402.975L929.1 407.229L929.1 407.229L912.888 402.975L903.345 387.856L873.795 364.917H848.73L818.778 361.411L816.546 358.167ZM680.095 500.853L714.585 458.622L724.553 462.822L725.991 468.226C727.064 470.429 729.336 474.929 729.842 475.297C730.1 475.484 731.368 476.301 732.824 477.238L732.837 477.246L732.842 477.25L732.842 477.25C734.957 478.612 737.46 480.223 737.833 480.528C738.231 480.854 742.69 481.628 746.263 482.196C747.219 482.234 748.161 482.272 749.089 482.308L752.206 478.171L758.414 482.598L758.419 482.648L763.128 475.239V465.121L780.663 468.743C786.565 472.307 798.484 479.413 798.944 479.321C799.404 479.229 810.672 482.962 816.248 484.84L821.997 485.817L821.077 495.763L816.248 500.075L818.663 516.286H836.484L852.007 512.09L846.832 500.075L845.855 491.279L862.872 489.094L874.6 495.763L876.784 508.353L874.6 530.544L880.751 542.674L879.076 546.652L873.796 543.938L852.295 575.27L832.174 613.672L829.357 644.371L838.555 663.745L859.309 706.345L838.555 738.021L798.6 744L753.759 713.646L690.406 667.425L653.441 663.745L659.419 621.261L658.727 620.863L687.266 616.592L694.684 605.27L679.425 598.149L675.803 587.916L692.188 566.473L699.511 567.449L687.266 542.316L678.068 522.942L680.095 500.853ZM369.157 189.393L369.157 189.393V186.931L366.455 175.261L366.455 175.261L369.157 186.931V189.393ZM916.395 539.339L909.727 528.416L909.726 528.416L916.395 539.339L916.395 539.339ZM916.395 441.033L909.727 425.511L909.726 425.511L916.395 441.033H940.713L951.291 463.913L940.713 441.033H916.395ZM957.959 493.52L957.96 493.52L943.875 481.907L957.959 493.52Z" fill="#EB7379"/>
<path fill-rule="evenodd" clip-rule="evenodd" d="M954.636 766.134L959.703 728.364L968.673 704.758L981.42 693.428L993.695 666.045L997 634.885L978.588 629.692L947.428 627.331L936.569 614.112L942.235 607.03L926.183 585.785L905.41 579.648L892.662 554.626L895.023 534.797V514.024L886.997 493.723L865.541 490.385L865.372 492.098L873.622 508.366L871.376 513.701L864.294 510.061L835.459 552.081L808.474 603.584L804.696 644.755L817.032 670.738L844.865 727.869L817.063 770.304L817.032 770.351L796.137 773.478L817.032 770.351L817.063 770.304L817.125 770.383L830.816 754.331L853.005 760.468L869.057 771.799L889.83 764.245L903.05 750.082L925.711 748.193L944.596 766.134H954.636Z" fill="#E16E74"/>
<path d="M538.5 346.274L545.109 352.362L553.752 356.872L561.096 367.244L570.756 362.565C574.654 360.01 582.63 354.651 583.353 353.658C584.076 352.666 585.086 348.322 585.5 346.274C581.734 343.53 574.484 337.829 575.614 336.972C576.744 336.115 575.143 329.211 574.202 325.867L569.513 321.244L559.797 324.965L547.651 328.403L545.109 339.509L538.5 346.274Z" fill="#E16E74"/>
<path fill-rule="evenodd" clip-rule="evenodd" d="M536.032 284.202L546.448 280.822L569.103 291.615L590.69 298.305L621.609 291.615L663.659 285.656H671.074L671.076 285.657L686.873 287.344L696.261 289.367V282.678L701.602 278.967L714.026 285.657L706.661 293.078L696.261 304.096L690.246 314.496L701.602 320.905H711.665L717.736 324.222V331.586L709.36 346.034L711.665 357.727L706.661 361.437L703.963 370.488L706.661 379.876V387.578L693.9 384.598L690.246 374.198L679.509 364.81L671.076 370.488H660.733L652.694 364.81L641.282 357.727L628.858 352.386L619.807 357.727L613.117 364.81L611.093 374.198H600.693H588.663L584.616 366.777L575.902 370.488L559.824 379.876H552.46L547.063 387.578L526.994 379.876L520.248 374.198L508.723 381.843L508.723 381.844L508.722 381.843L485.786 374.423L485.786 374.422L475.555 368.463C473.579 368.093 471.275 367.667 468.789 367.213L468.789 367.213C471.276 367.667 473.58 368.093 475.556 368.463L485.787 374.422L504.114 353.96V331.81L524.633 309.717L538.631 296.225L535.37 281.159L535.073 280.515L535.075 280.513L535.373 281.159L536.032 284.202ZM545.094 352.104L538.517 346.033L545.094 339.287L547.624 328.212L559.71 324.783L569.379 321.073L574.045 325.682C574.982 329.018 576.575 335.903 575.451 336.757C574.326 337.612 581.541 343.297 585.289 346.033C584.876 348.075 583.872 352.408 583.152 353.397C582.433 354.387 574.495 359.731 570.616 362.279L561.003 366.945L553.695 356.602L545.094 352.104Z" fill="#EB7379"/>
<path fill-rule="evenodd" clip-rule="evenodd" d="M728.753 203.91L728.751 203.919L728.748 203.924V230.565L736.955 251.421L699.74 267.78L671.07 285.657H663.649L634.541 289.782L634.541 289.782L663.65 285.657H671.07L671.071 285.657L686.868 287.344L696.256 289.368V282.678L701.597 278.968L714.021 285.657L706.656 293.078L696.256 304.096L690.241 314.496L701.597 320.905H711.659L717.731 324.222V331.586L709.355 346.034L711.659 357.727L706.656 361.437L703.958 370.488L706.656 379.876V383.131L706.658 383.137L716.271 387.634L722.174 377.965H742.805L754.33 371.725L769.002 373.299L770.857 377.965L787.722 373.299L802.676 357.727L810.636 352.081L805.429 344.516L814.424 326.976L828.197 289.423L837.136 257.38L833.706 245.293L819.203 238.435L794.805 231.858L788.002 209.484L777.265 206.56L752.249 214.318L728.753 203.91Z" fill="#5C404E"/>
<path fill-rule="evenodd" clip-rule="evenodd" d="M528.395 266.037L556.388 253.108L556.39 253.107V225.055L561.787 206.166L541.953 188.779L546.441 184.13L560.383 181.544L564.937 188.065L575.337 178.621L573.369 163.049L588.941 137.695L603.895 141.293V158.102L608.729 168.558L618.174 170.526L630.822 154.898L639.592 145.509L656.176 150.4L654.321 166.815L639.592 170.526L658.087 175.36L677.932 170.526L687.32 150.4L702.948 156.528L700.643 178.621L709.75 198.746L726.615 202.963L728.751 203.909V230.565L736.958 251.422L699.743 267.781L671.072 285.657H663.652L621.602 291.616L590.683 298.306L569.096 291.616L546.441 280.823L536.024 284.203L535.365 281.159L528.395 266.037Z" fill="#CA6267"/>
<path fill-rule="evenodd" clip-rule="evenodd" d="M728.753 203.91L728.751 203.919L728.748 203.924V230.565L736.955 251.421L699.74 267.78L671.07 285.657H663.649L634.541 289.782L634.541 289.782L663.65 285.657H671.07L671.071 285.657L686.868 287.344L696.256 289.368V282.678L701.597 278.968L714.021 285.657L706.656 293.078L696.256 304.096L690.241 314.496L701.597 320.905H711.659L717.731 324.222V331.586L709.355 346.034L711.659 357.727L706.656 361.437L703.958 370.488L706.656 379.876V383.131L706.658 383.137L716.271 387.634L722.174 377.965H742.805L754.33 371.725L769.002 373.299L770.857 377.965L787.722 373.299L802.676 357.727L810.636 352.081L805.429 344.516L814.424 326.976L828.197 289.423L837.136 257.38L833.706 245.293L819.203 238.435L794.805 231.858L788.002 209.484L777.265 206.56L752.249 214.318L728.753 203.91Z" fill="#E16E74"/>
<path fill-rule="evenodd" clip-rule="evenodd" d="M810.638 352.082L819.204 364.529L848.493 367.958H873.003L901.898 390.388L911.23 405.173L927.083 409.333L908.138 427.21L914.66 442.388H938.439L948.783 464.763L941.531 482.358L955.304 493.714L929.501 514.064L908.138 527.837L914.66 538.519L887.114 550.268L878.166 545.669L879.804 541.779L873.789 529.918L875.925 508.218L873.789 495.907L862.321 489.386L845.68 491.522L846.636 500.123L851.696 511.872L836.517 515.976H819.09L816.729 500.123L821.451 495.907L822.351 486.181L816.729 485.226C811.276 483.389 800.258 479.739 799.808 479.829C799.358 479.919 787.703 472.971 781.931 469.485L764.785 465.943V475.838L760.178 483.085L760.173 483.032L754.102 478.703L751.054 482.75C750.15 482.715 749.233 482.678 748.302 482.64C744.807 482.085 740.437 481.327 740.048 481.008C739.682 480.709 737.235 479.133 735.167 477.802L735.167 477.802C733.736 476.881 732.486 476.076 732.234 475.892C731.739 475.533 729.516 471.133 728.467 468.978L727.062 463.693L715.987 459.027L717.224 452.731L713.963 445.873H708.342L691.645 441.825L693.838 435.754L691.645 421.812L680.233 409.669L682.179 401.831L678.491 400.113L668.429 406.128L668.429 406.128L678.492 400.113L682.596 402.024L688.444 372.627L681.458 366.519L681.458 366.519L690.24 374.198L693.894 384.598L706.656 387.577V379.876L703.957 370.487L706.656 361.437L707.519 360.796L707.529 360.794L706.661 361.438L703.963 370.489L706.661 379.877V383.138L716.273 387.635L722.176 377.966H742.808L754.332 371.726L769.004 373.3L770.86 377.966L787.724 373.3L802.678 357.728L810.638 352.082ZM652.123 417.763L652.123 417.762L662.02 416.022L662.02 416.023L652.123 417.763Z" fill="#FF1313"/>
<g filter="url(#filter0_d)">
<path fill-rule="evenodd" clip-rule="evenodd" d="M222.803 262.664L248.437 246.418L271.824 238.323L281.549 228.26L300.719 214.262L320.226 207.122L331.919 198.072L357.554 193.855L377.005 182.443L379.647 193.855V207.122L382.57 214.262L384.977 215.472L379.141 225.393L382.289 249.847L379.141 267.949L385.83 279.417L390.946 295.551L385.83 305.783C387.536 309.212 390.946 316.543 390.946 318.432C390.946 320.32 396.23 329.45 398.873 333.779C399.528 337.189 400.447 344.482 398.873 346.371C397.299 348.26 392.932 357.165 390.946 361.381L385.83 372.399L373.631 377.122L353.562 364.923L324.779 355.816L304.26 346.371H287.339L278.288 351.88L274.216 366.393L248.437 346.933L229.211 301.116L222.803 262.664Z" fill="#EB7379"/>
</g>
<path fill-rule="evenodd" clip-rule="evenodd" d="M248.326 346.99V346.989L274.106 366.45L274.137 366.337L274.213 366.394L278.286 351.882L287.245 346.428H304.15L324.669 355.872L353.452 364.979L373.521 377.178L385.72 372.456L385.728 372.439L385.828 372.401L390.943 361.382L391.061 361.134L398.42 368.464L417.814 374.423L417.815 374.423L417.817 374.423L429.173 368.464C430.428 366.478 433.479 362.404 435.637 362C435.705 361.987 435.795 361.979 435.907 361.976C436.018 361.973 436.151 361.974 436.305 361.98C440.92 362.156 463.921 366.286 475.549 368.464L485.78 374.423L485.781 374.422L485.782 374.423L485.782 374.424L508.718 381.844L523.672 402.813L568.982 425.525L603.836 434.351L609.908 454.251V492.928H591.075L549.644 517.832L561.224 528.344L568.982 563.705L581.125 602.944L577.398 610.087L521.426 606.373V585.067L531.713 570.226L521.426 543.017L512.993 505.689L462.68 488.937L435.583 501.81L423.946 488.937L420.124 449.585L380.098 437.948L355.587 423.782L344.625 370.207L307.859 361.156L288.465 377.291L248.326 346.99Z" fill="#CA6267"/>
<path fill-rule="evenodd" clip-rule="evenodd" d="M33.4727 543.092L34.1611 542.174L43.1113 521.176L53.4384 518.077L65.1425 525.651L69.2733 519.454L62.0444 500.521L50.3403 503.275L52.0615 491.227V482.965L53.4384 477.802L57.9135 482.965L68.2406 481.933L66.1752 473.327L57.9135 470.228L55.5038 458.869L56.5366 441.313L55.5038 426.166L57.9135 428.92L64.1098 430.297C64.5688 429.264 65.4179 426.992 65.1425 426.166C65.0199 425.798 64.5918 425.169 64.0912 424.432C63.1861 423.101 62.0444 421.422 62.0444 420.314C62.0444 418.937 58.3725 415.609 56.5366 414.118V394.152V373.154C57.5693 369.252 59.7036 361.243 59.9789 360.417C60.3232 359.384 63.0771 344.926 62.0444 343.549C61.2182 342.448 57.3398 337.582 55.5038 335.287L56.5366 326.337L63.0771 327.714C66.5194 325.993 73.5419 322.344 74.0927 321.518C74.6001 320.757 75.6684 317.004 76.333 314.669L76.3335 314.668L76.3338 314.667C76.5706 313.835 76.7561 313.183 76.8466 312.912C77.122 312.086 83.8461 307.978 87.1737 306.027L125.384 293.29L133.302 290.192L143.284 288.471L158.087 286.75L160.84 280.898L166.693 277.111L171.512 278.488L180.462 277.111L192.51 275.39L222.803 262.653L222.81 262.66L222.803 262.664L229.212 301.116L248.438 346.933L274.213 366.39L274.212 366.394L274.137 366.337L274.137 366.337L274.136 366.337L274.104 366.45L288.464 377.291H288.464L307.858 361.156H307.859L344.624 370.207L355.586 423.782H355.587L380.096 437.948H380.097L420.122 449.585L423.945 488.937L435.582 501.81H435.583L462.678 488.937H462.679L512.992 505.689L521.425 543.017L531.712 570.226L521.425 585.067V606.373H521.425L530.531 606.977L512.651 625.824V649.92L489.931 663.346L462.048 700.868L484.079 720.833L493.03 740.111H431.755L420.74 779.009L431.755 793.123L403.184 824.449L416.265 846.136L390.447 896.739L374.956 901.214L355.679 878.838L332.271 838.907L325.042 798.631L293.372 818.941L276.16 808.958L244.146 802.762L237.261 808.958H223.147L190.789 787.615L153.956 773.157L127.794 765.24L106.451 779.009H79.6005L73.4042 758.011L84.764 745.618L79.6005 728.062L87.8622 712.227L100.255 700.868V685.721L87.8622 678.148L73.4042 663.346V643.724L94.0584 625.824L106.451 608.956L87.8622 594.154L79.6005 569.025L63.7656 562.828H48.2749L33.4727 543.092Z" fill="#3264AF"/>
<path fill-rule="evenodd" clip-rule="evenodd" d="M374.955 901.214L355.678 878.838L332.269 838.907L325.04 798.631L293.371 818.941L276.159 808.958L244.145 802.762L237.26 808.958H223.146L190.788 787.616L153.955 773.158L127.792 765.24L106.45 779.01H79.5992L73.403 758.011L53.4374 783.485L43.1103 790.369L29.685 796.566L14.8828 807.237L20.0464 827.891L29.685 845.447L40.3564 869.544L50.6835 874.363L53.4374 889.165L43.1103 899.837L35.1928 913.951V926.687L58.9452 951.128L383.561 955.259L380.119 941.49L364.972 936.326L370.136 926.687V911.197L374.955 901.214Z" fill="#2A5AA3"/>
<path d="M444.5 81.8603L446.898 89.4159V94.5674L453.065 96.9714L460.602 89.4159L468.139 83.234L471.907 84.9512L478.417 91.8199L484.583 98.3451L498.63 106.244H513.019L516.444 98.3451L518.5 89.4159L510.963 88.0421L504.796 83.234C503.198 80.1431 499.726 73.8239 498.63 73.2744C497.259 72.5876 491.093 72.2441 489.722 72.2441C488.626 72.2441 484.698 74.9916 482.87 76.3654C480.472 76.9377 475.402 77.9452 474.306 77.3957C472.935 76.7088 460.259 72.2441 458.889 72.2441C457.793 72.2441 450.438 74.9916 446.898 76.3654L444.5 81.8603Z" fill="#25549B"/>
<path fill-rule="evenodd" clip-rule="evenodd" d="M810.639 352.08L819.205 364.527L848.494 367.956H873.004L901.9 390.387L911.232 405.172L927.085 409.332L908.14 427.209L914.661 442.387H938.44L948.784 464.761L941.532 482.357L955.305 493.713L929.502 514.063L908.14 527.836L914.661 538.517L887.115 550.266L878.167 545.668L879.805 541.777L873.79 529.916L875.926 508.216L873.79 495.905L862.322 489.384L845.682 491.52L846.637 500.121L851.697 511.87L836.518 515.974H819.091L816.73 500.121L821.452 495.905L822.352 486.179L816.73 485.224C811.277 483.387 800.259 479.737 799.809 479.827C799.359 479.917 787.704 472.968 781.932 469.483L764.786 465.941V475.835L760.182 483.078L760.178 483.03L754.107 478.701L751.058 482.748C750.155 482.713 749.236 482.676 748.305 482.638C744.81 482.083 740.442 481.325 740.052 481.006C739.687 480.707 737.239 479.131 735.171 477.8L735.17 477.799L735.16 477.793C733.734 476.875 732.491 476.074 732.238 475.891C731.744 475.531 729.521 471.131 728.472 468.976L727.066 463.692L715.992 459.026L717.229 452.729L713.968 445.871H708.346L691.65 441.823L693.842 435.752L691.65 421.81L680.238 409.668L682.184 401.83L682.597 402.023L688.445 372.626L681.458 366.517L681.459 366.517L690.242 374.195L693.896 384.596L706.657 387.575V379.873L703.959 370.485L706.657 361.434L707.52 360.794L707.532 360.792L706.664 361.435L703.966 370.486L706.664 379.874V383.135L716.276 387.632L722.178 377.963H742.81L754.334 371.723L769.007 373.297L770.862 377.963L787.727 373.297L802.68 357.725L810.639 352.08ZM662.026 416.02L662.021 416.021L668.43 406.127L678.493 400.111L678.495 400.112L668.434 406.126L662.026 416.02Z" fill="#FF1313"/>
<path fill-rule="evenodd" clip-rule="evenodd" d="M810.639 352.08L819.205 364.527L848.494 367.956H873.004L901.9 390.387L911.232 405.172L927.085 409.332L908.14 427.209L914.661 442.387H938.44L948.784 464.761L941.532 482.357L955.305 493.713L929.502 514.063L908.14 527.836L914.661 538.517L887.115 550.266L878.167 545.668L879.805 541.777L873.79 529.916L875.926 508.216L873.79 495.905L862.322 489.384L845.682 491.52L846.637 500.121L851.697 511.87L836.518 515.974H819.091L816.73 500.121L821.452 495.905L822.352 486.179L816.73 485.224C811.277 483.387 800.259 479.737 799.809 479.827C799.359 479.917 787.704 472.968 781.932 469.483L764.786 465.941V475.835L760.182 483.078L760.178 483.03L754.107 478.701L751.058 482.748C750.155 482.713 749.236 482.676 748.305 482.638C744.81 482.083 740.442 481.325 740.052 481.006C739.687 480.707 737.239 479.131 735.171 477.8L735.17 477.799L735.16 477.793C733.734 476.875 732.491 476.074 732.238 475.891C731.744 475.531 729.521 471.131 728.472 468.976L727.066 463.692L715.992 459.026L717.229 452.729L713.968 445.871H708.346L691.65 441.823L693.842 435.752L691.65 421.81L680.238 409.668L682.184 401.83L682.597 402.023L688.445 372.626L681.458 366.517L681.459 366.517L690.242 374.195L693.896 384.596L706.657 387.575V379.873L703.959 370.485L706.657 361.434L707.52 360.794L707.532 360.792L706.664 361.435L703.966 370.486L706.664 379.874V383.135L716.276 387.632L722.178 377.963H742.81L754.334 371.723L769.007 373.297L770.862 377.963L787.727 373.297L802.68 357.725L810.639 352.08ZM662.026 416.02L662.021 416.021L668.43 406.127L678.493 400.111L678.495 400.112L668.434 406.126L662.026 416.02Z" fill="#EB7379"/>
<path fill-rule="evenodd" clip-rule="evenodd" d="M930.065 496.379L931.77 493.959L952.381 483.897L967.51 494.488L994.365 486.167L1007.22 494.488L1025.76 490.327V470.281L1020.84 455.53L1025.76 447.965L1041.64 455.53L1056.77 447.965L1052.99 437.375L1074.93 417.329H1092.33L1103.67 409.386L1113.89 399.93L1125.23 405.982L1140.36 399.93L1145.28 382.153L1176.29 373.076L1197.85 361.729L1208.07 351.895L1209.96 340.17L1226.22 331.849V308.398L1243.62 304.994L1254.97 328.444L1271.99 340.17V358.325L1280.69 379.884L1299.6 385.936V405.982V427.163L1271.99 440.023L1266.31 466.499L1277.66 479.359L1295.06 506.97L1288.25 517.938L1255.34 546.306V570.134L1229.62 584.507L1251.56 608.714H1285.98L1308.3 593.584L1337.04 608.714L1347.63 640.485L1352.55 670.365L1370.7 679.065L1347.63 722.939L1362.38 746.39L1365.03 775.514L1376 793.29V806.907L1362.38 820.901L1352.55 852.673L1347.63 891.252L1315.1 926.806L1303 920.754L1293.17 918.863L1278.42 911.299C1275.77 909.029 1270.17 904.793 1268.96 906.003L1265.56 909.407L1259.5 903.356H1254.21C1253.3 903.356 1246.01 905.121 1242.48 906.003L1230.76 911.299L1210.71 906.003L1209.2 899.573H1182.72L1179.32 886.335L1170.62 873.854L1167.22 864.398L1158.9 860.616L1148.68 862.129L1133.93 876.123L1117.29 882.553L1096.11 873.854L1089.3 868.559L1082.87 878.393L1074.17 859.481L1061.31 849.647L1050.34 845.865L1039.75 847.756V864.398L1037.59 866.728L1014.58 855.741L1015.92 851.16L1014.03 845.865L1005.71 839.057L998.147 828.844L988.313 816.363L983.396 805.016L986.8 796.316L969.023 775.892L945.951 771.353L943.029 771.353L947.088 741.095L954.274 722.183L964.486 713.105L974.32 691.168L976.968 666.205L962.217 662.044L937.254 660.153L928.554 649.563L933.093 643.889L920.233 626.869L903.591 621.952L893.578 602.296L893.432 601.462L895.27 586.02V569.378L895.09 568.921L893.377 557.274L895.268 545.549L908.884 527.016L941.791 511.13L930.065 496.379Z" fill="#3264AF"/>
<path fill-rule="evenodd" clip-rule="evenodd" d="M1219.37 581.417L1219.37 581.417H1250.7L1270.86 567.75L1270.66 567.647L1250.35 581.417H1219.37ZM1316.84 701.324L1320.23 706.719L1322.64 733.226L1332.62 749.405V761.797L1320.23 774.534L1311.28 803.45L1306.81 838.562L1277.2 870.921L1266.19 865.413L1257.24 863.692L1243.81 856.807C1241.4 854.741 1236.31 850.886 1235.21 851.988L1232.11 855.086L1226.6 849.578H1221.78C1220.95 849.578 1214.32 851.184 1211.11 851.988L1200.44 856.807L1187.36 853.351V854.229L1199.91 857.546L1210.59 852.727C1213.8 851.924 1220.43 850.317 1221.26 850.317H1226.08L1231.58 855.825L1234.68 852.727C1235.78 851.625 1240.88 855.481 1243.29 857.546L1256.71 864.431L1265.66 866.152L1276.68 871.66L1265.66 899.543L1253.96 920.197L1233.31 926.738V940.852V947.737H1187.36V948.03H1465.5V497.768H1465.19L1465.5 535.634L1456.2 539.076L1452.07 548.715L1432.8 543.895L1419.03 554.911V575.565H1431.08V595.531L1426.6 608.956L1434.52 622.381L1450.01 649.232L1443.12 670.575L1436.93 686.065L1443.12 698.802L1436.93 708.097L1426.6 720.833L1409.39 737.701L1391.83 750.093L1385.64 730.472L1403.19 720.833L1385.64 715.67L1365.67 708.097V689.852L1348.11 698.802V708.097L1320.92 695.36L1316.84 701.324Z" fill="#FFF1F0"/>
<path fill-rule="evenodd" clip-rule="evenodd" d="M867.592 348.368L873.444 368.334L879.265 372.806L874.477 382.448H867.263L867.937 387.611L898.918 411.708L903.049 444.066L938.567 471.989L947.111 467.818L960.88 477.457L985.321 469.884L997.025 477.457L1013.89 473.67V455.426L1009.42 442.001L1013.89 435.116L1028.35 442.001L1042.12 435.116L1038.68 425.477L1058.64 407.233H1074.48L1084.81 400.004L1094.1 391.398L1104.43 396.905L1118.2 391.398L1122.67 375.219L1150.9 366.957L1170.52 356.63L1179.82 347.68L1181.54 337.008L1196.34 329.435V308.092L1212.17 304.994L1222.5 326.337L1237.99 337.008V353.532L1245.91 373.153L1262.84 378.57L1268.28 370.4L1270.01 362.826L1265.87 354.909L1263.46 350.434L1270.01 345.27L1276.2 334.943L1289.97 321.518L1293.41 322.551L1295.82 328.403L1305.12 327.37L1310.97 322.551L1319.23 312.223L1323.36 310.502V301.208L1335.75 284.34L1330.59 263.342L1369.15 252.326L1376.03 224.443L1372.24 207.92L1346.77 212.395L1350.56 194.839L1376.03 175.217L1411.49 170.742L1404.26 149.399L1418.72 138.384L1443.5 149.399L1462.43 151.465L1462.43 151.464L1462.09 0H1026.12L1005.98 22.031H994.272L978.437 27.1945L961.225 37.5217L941.603 40.6198L920.261 33.0466L906.835 37.5217L885.493 33.0466L867.592 37.5217V54.3893V69.88L876.887 85.0264L885.493 95.0093L896.164 118.073L911.655 137.006V176.938L903.049 190.707L892.377 204.133L885.493 221.344L889.623 233.393L906.835 230.295L903.049 243.72L889.623 247.851L876.887 256.457L864.494 276.422L854.855 267.816H845.217L849.692 286.405L854.855 295.011H873.444L885.493 307.404L889.623 320.141L885.493 328.746L873.444 336.32L867.592 348.368Z" fill="#25549B"/>
<path d="M338.653 218.054C342.461 216.192 344.661 216.424 347.346 215.946" stroke="#D26469"/>
<path fill-rule="evenodd" clip-rule="evenodd" d="M-188.625 120.368L-182.773 140.334L-176.952 144.806L-181.74 154.448H-188.954L-188.28 159.611L-157.299 183.708L-153.168 216.066L-117.65 243.989L-109.106 239.818L-95.3364 249.457L-70.8955 241.884L-59.1914 249.457L-42.3238 245.67V227.426L-46.7989 214.001L-42.3238 207.116L-27.8658 214.001L-14.0963 207.116L-17.5387 197.477L2.42703 179.233H18.262L28.5891 172.004L37.8835 163.398L48.2106 168.905L61.9801 163.398L66.4552 147.219L94.6826 138.957L114.304 128.63L123.599 119.68L125.32 109.008L140.122 101.435V80.0922L155.957 76.9941L166.284 98.3368L181.775 109.008V125.532L189.692 145.153L206.62 150.57L212.067 142.4L213.788 134.826L209.657 126.909L207.248 122.434L213.788 117.27L219.984 106.943L233.754 93.5179L237.196 94.5506L239.606 100.403L248.9 99.3699L254.753 94.5506L263.014 84.2234L267.145 82.5023V73.2078L279.538 56.3402L274.374 35.3417L312.929 24.3261L319.813 -3.5571L316.027 -20.0805L290.553 -15.6054L294.34 -33.1615L319.813 -52.783L355.27 -57.2581L348.041 -78.6008L362.499 -89.6164L387.284 -78.6008L406.217 -76.5354L406.218 -76.5356L405.874 -228H-30.0986L-50.2411 -205.969H-61.9452L-77.7802 -200.805L-94.992 -190.478L-114.614 -187.38L-135.956 -194.953L-149.382 -190.478L-170.724 -194.953L-188.625 -190.478V-173.611V-158.12L-179.33 -142.974L-170.724 -132.991L-160.053 -109.927L-144.562 -90.9937V-51.0622L-153.168 -37.2927L-163.839 -23.8674L-170.724 -6.65558L-166.593 5.39273L-149.382 2.29459L-153.168 15.7198L-166.593 19.8507L-179.33 28.4566L-191.723 48.4224L-201.361 39.8165H-211L-206.525 58.4053L-201.361 67.0112H-182.773L-170.724 79.4038L-166.593 92.1406L-170.724 100.746L-182.773 108.32L-188.625 120.368Z" fill="#EBDFDE"/>
<rect x="691" y="547" width="11" height="31" fill="#BF5A5F"/>
<g filter="url(#filter1_d)">
<circle cx="358" cy="321" r="21.5" stroke="white" stroke-width="5"/>
</g>
<g filter="url(#filter2_d)">
<circle cx="575" cy="489" r="21.5" stroke="white" stroke-width="5"/>
</g>
<g filter="url(#filter3_d)">
<circle cx="621" cy="220" r="21.5" stroke="white" stroke-width="5"/>
</g>
<rect x="206" y="110" width="148" height="207" rx="5" fill="#3F7AD3" fill-opacity="0.8"/>
<g filter="url(#filter4_d)">
<path d="M202 114.705C202 109.897 205.902 106 210.715 106H349.285C354.098 106 358 109.897 358 114.705V312.296C358 317.103 354.098 321 349.285 321H210.715C205.902 321 202 317.103 202 312.296V114.705Z"/>
<path d="M210.715 108H349.285C352.996 108 356 111.004 356 114.705V312.296C356 315.996 352.996 319 349.285 319H210.715C207.004 319 204 315.996 204 312.296V114.705C204 111.004 207.004 108 210.715 108Z" stroke="#F87980" stroke-width="4"/>
</g>
<path d="M229 271.359C229 268.952 230.947 267 233.348 267H324.652C327.053 267 329 268.952 329 271.359V296.641C329 299.049 327.053 301 324.652 301H233.348C230.947 301 229 299.049 229 296.641V271.359Z" fill="#333333" fill-opacity="0.2"/>
<path d="M230 270.231C230 267.894 231.944 266 234.342 266H324.658C327.056 266 329 267.894 329 270.231V294.769C329 297.106 327.056 299 324.658 299H234.342C231.944 299 230 297.106 230 294.769V270.231Z" fill="#2E5A9C"/>
<path d="M229 266.375C229 263.959 230.947 262 233.348 262H324.652C327.053 262 329 263.959 329 266.375V292.625C329 295.041 327.053 297 324.652 297H233.348C230.947 297 229 295.041 229 292.625V266.375Z" fill="#3F7AD3"/>
<path d="M246.736 272.266C248.104 272.266 249.228 272.779 250.108 273.805C251.001 274.831 251.447 276.137 251.447 277.721C251.447 279.728 250.92 281.347 249.865 282.579C248.811 283.81 247.426 284.426 245.711 284.426C244.378 284.426 243.26 283.901 242.356 282.852C241.452 281.792 241 280.486 241 278.936C241 276.997 241.539 275.401 242.617 274.147C243.694 272.893 245.068 272.266 246.736 272.266ZM249.083 278.679C249.083 275.795 248.121 274.352 246.197 274.352C245.317 274.352 244.621 274.677 244.111 275.327C243.613 275.966 243.364 276.929 243.364 278.217C243.364 279.494 243.631 280.549 244.164 281.381C244.708 282.202 245.421 282.613 246.302 282.613C247.194 282.613 247.878 282.265 248.353 281.57C248.84 280.863 249.083 279.899 249.083 278.679Z" fill="white"/>
<path d="M258.02 279.911C258.02 279.124 257.95 278.599 257.811 278.337C257.672 278.075 257.348 277.944 256.838 277.944C256.328 277.944 255.748 278.143 255.1 278.542V279.791L255.291 283.81L252.961 284.238L253.17 280.082C253.124 278.554 252.996 277.186 252.788 275.977L254.891 275.532C254.972 276.194 255.03 276.838 255.065 277.465C255.239 277.237 255.436 277.015 255.656 276.798C255.876 276.57 256.224 276.319 256.699 276.045C257.174 275.76 257.672 275.618 258.194 275.618C258.727 275.618 259.173 275.823 259.532 276.234C259.891 276.633 260.071 277.18 260.071 277.875L259.967 279.791L260.158 283.895L257.811 284.323L258.02 279.911Z" fill="white"/>
<path d="M262.755 275.96V274.096L265.102 273.651L264.876 275.96H266.979L266.788 277.362H264.807L264.72 280.937C264.72 281.473 264.772 281.832 264.876 282.014C264.98 282.185 265.172 282.271 265.45 282.271C265.728 282.271 266.099 282.208 266.562 282.083L266.667 283.297C265.902 283.924 265.23 284.238 264.65 284.238C264.071 284.238 263.596 284.032 263.225 283.622C262.854 283.2 262.669 282.653 262.669 281.98L262.773 280.065L262.755 277.362H261.556L261.747 275.96H262.755Z" fill="white"/>
<path d="M267.648 285.931C267.648 284.927 268.598 284.141 270.499 283.571C270.047 283.343 269.821 283.046 269.821 282.681C269.821 282.533 269.879 282.385 269.995 282.237C270.111 282.088 270.279 281.934 270.499 281.775V281.638C269.664 281.638 268.998 281.41 268.5 280.954C268.013 280.498 267.77 279.888 267.77 279.124C267.77 278.132 268.181 277.271 269.004 276.541C269.827 275.8 270.8 275.43 271.924 275.43C272.214 275.43 272.637 275.487 273.193 275.601C273.749 275.715 274.294 275.772 274.827 275.772H276.166L275.992 277.26L274.688 277.106C274.804 277.436 274.862 277.813 274.862 278.235C274.862 278.656 274.758 279.078 274.549 279.5C274.352 279.911 274.109 280.241 273.819 280.492C273.541 280.743 273.257 280.965 272.967 281.159C272.689 281.342 272.446 281.507 272.237 281.655C272.04 281.792 271.942 281.917 271.942 282.031C271.942 282.248 272.173 282.436 272.637 282.596C273.865 283.086 274.694 283.502 275.123 283.844C275.563 284.186 275.783 284.608 275.783 285.11C275.783 285.954 275.349 286.643 274.479 287.179C273.622 287.726 272.596 288 271.403 288C270.209 288 269.282 287.812 268.622 287.436C267.973 287.059 267.648 286.558 267.648 285.931ZM272.898 278.748C272.898 278.189 272.77 277.778 272.515 277.516C272.26 277.254 271.86 277.123 271.316 277.123C270.261 277.123 269.734 277.636 269.734 278.662C269.734 279.677 270.296 280.184 271.42 280.184C272.405 280.184 272.898 279.705 272.898 278.748ZM273.523 285.366C273.523 285.161 273.413 284.967 273.193 284.785C272.973 284.614 272.579 284.409 272.011 284.169C271.165 284.397 270.58 284.608 270.255 284.802C269.943 284.996 269.786 285.235 269.786 285.52C269.786 285.805 269.943 286.033 270.255 286.204C270.58 286.387 271.026 286.478 271.594 286.478C272.162 286.478 272.625 286.375 272.985 286.17C273.344 285.965 273.523 285.697 273.523 285.366Z" fill="white"/>
<path d="M276.892 275.977L278.996 275.532C279.1 276.41 279.169 277.243 279.204 278.029C280.259 276.422 281.25 275.618 282.177 275.618L281.985 278.286C281.313 278.286 280.78 278.349 280.386 278.474C280.004 278.588 279.61 278.822 279.204 279.175V279.791L279.395 283.81L277.066 284.238L277.275 280.082C277.228 278.554 277.101 277.186 276.892 275.977Z" fill="white"/>
<path d="M286.408 282.493C286.744 282.493 287.098 282.408 287.469 282.237C287.839 282.066 288.129 281.894 288.338 281.723L288.651 281.467L289.45 282.425C289.334 282.618 289.155 282.841 288.911 283.092C288.668 283.343 288.419 283.559 288.164 283.742C287.921 283.913 287.59 284.072 287.173 284.22C286.768 284.357 286.345 284.426 285.904 284.426C284.966 284.426 284.201 284.078 283.61 283.382C283.019 282.676 282.723 281.769 282.723 280.663C282.723 279.272 283.135 278.052 283.957 277.003C284.78 275.954 285.742 275.43 286.843 275.43C287.689 275.43 288.344 275.663 288.807 276.131C289.282 276.598 289.52 277.254 289.52 278.098C289.52 278.599 289.433 279.169 289.259 279.808L288.911 280.167L284.566 280.56C284.763 281.849 285.377 282.493 286.408 282.493ZM286.408 277.191C285.898 277.191 285.47 277.397 285.122 277.807C284.774 278.206 284.572 278.719 284.514 279.346L287.469 278.987C287.503 278.725 287.521 278.508 287.521 278.337C287.521 277.573 287.15 277.191 286.408 277.191Z" fill="white"/>
<path d="M296.078 279.911C296.078 279.124 296.008 278.599 295.869 278.337C295.73 278.075 295.406 277.944 294.896 277.944C294.386 277.944 293.807 278.143 293.158 278.542V279.791L293.349 283.81L291.02 284.238L291.228 280.082C291.182 278.554 291.054 277.186 290.846 275.977L292.949 275.532C293.03 276.194 293.088 276.838 293.123 277.465C293.297 277.237 293.494 277.015 293.714 276.798C293.934 276.57 294.282 276.319 294.757 276.045C295.232 275.76 295.73 275.618 296.252 275.618C296.785 275.618 297.231 275.823 297.59 276.234C297.95 276.633 298.129 277.18 298.129 277.875L298.025 279.791L298.216 283.895L295.869 284.323L296.078 279.911Z" fill="white"/>
<path d="M304.725 282.561C303.821 283.679 303.039 284.238 302.378 284.238C301.555 284.238 300.877 283.907 300.344 283.246C299.823 282.584 299.562 281.735 299.562 280.697C299.562 279.272 299.962 278.069 300.762 277.089C301.573 276.108 302.564 275.618 303.734 275.618L304.707 275.755V275.43L304.499 271.428L306.88 271L306.654 279.791V281.296C306.654 281.98 306.828 282.767 307.176 283.656L305.298 284.426C304.962 283.742 304.771 283.12 304.725 282.561ZM301.509 279.808C301.509 280.538 301.642 281.108 301.909 281.518C302.187 281.929 302.581 282.134 303.091 282.134C303.612 282.134 304.151 281.929 304.707 281.518V277.824C304.012 277.687 303.496 277.619 303.16 277.619C302.639 277.619 302.233 277.801 301.944 278.166C301.654 278.531 301.509 279.078 301.509 279.808Z" fill="white"/>
<path d="M311.99 282.493C312.326 282.493 312.679 282.408 313.05 282.237C313.421 282.066 313.711 281.894 313.919 281.723L314.232 281.467L315.032 282.425C314.916 282.618 314.736 282.841 314.493 283.092C314.25 283.343 314 283.559 313.745 283.742C313.502 283.913 313.172 284.072 312.755 284.22C312.349 284.357 311.926 284.426 311.486 284.426C310.547 284.426 309.782 284.078 309.191 283.382C308.6 282.676 308.305 281.769 308.305 280.663C308.305 279.272 308.716 278.052 309.539 277.003C310.362 275.954 311.323 275.43 312.424 275.43C313.27 275.43 313.925 275.663 314.389 276.131C314.864 276.598 315.101 277.254 315.101 278.098C315.101 278.599 315.014 279.169 314.841 279.808L314.493 280.167L310.147 280.56C310.344 281.849 310.958 282.493 311.99 282.493ZM311.99 277.191C311.48 277.191 311.051 277.397 310.704 277.807C310.356 278.206 310.153 278.719 310.095 279.346L313.05 278.987C313.085 278.725 313.102 278.508 313.102 278.337C313.102 277.573 312.731 277.191 311.99 277.191Z" fill="white"/>
<path d="M319 271L318.774 279.791L318.965 283.81L316.619 284.238L316.827 280.082L316.619 271.428L319 271Z" fill="white"/>
<path d="M229.371 102.503H278.48L279.042 121.213L224.899 120.415L229.371 102.503Z" fill="#A75155"/>
<path d="M228.221 100.469H276.824L277.381 119.18L228.221 118.381V100.469Z" fill="#F87980"/>
<g filter="url(#filter5_d)">
<path d="M234.763 109.347C235.456 121.074 226.338 131.152 214.398 131.858C202.458 132.563 192.217 123.628 191.525 111.901C190.832 100.175 199.95 90.0964 211.89 89.3911C223.83 88.6859 234.071 97.6206 234.763 109.347Z" fill="#E0C358"/>
<path d="M232.592 111.252C231.769 122.757 221.776 131.415 210.272 130.593C198.768 129.77 190.109 119.776 190.932 108.272C191.755 96.7679 201.748 88.109 213.252 88.932C224.756 89.7549 233.415 99.7481 232.592 111.252Z" fill="#C5AE39"/>
<path d="M231.01 111.696C230.291 121.755 220.188 129.751 210.23 129.039C200.272 128.326 191.752 118.489 192.438 108.903C193.198 98.2778 202.371 90.4798 213.07 91.2452C223.769 92.0105 231.77 101.071 231.01 111.696Z" fill="#FFDD66"/>
<path fill-rule="evenodd" clip-rule="evenodd" d="M210.369 129.231C221.122 130 230.462 121.907 231.231 111.155C232 100.403 223.907 91.0626 213.155 90.2934C202.402 89.5243 193.062 97.6172 192.293 108.37C191.524 119.122 199.617 128.462 210.369 129.231ZM210.272 130.593C221.776 131.415 231.769 122.757 232.592 111.252C233.415 99.7481 224.756 89.7549 213.252 88.932C201.748 88.109 191.755 96.7679 190.932 108.272C190.109 119.776 198.768 129.77 210.272 130.593Z" fill="#F3D35F"/>
<g filter="url(#filter6_d)">
<path d="M210.928 102.395L210.376 108.612L213.588 108.878L217.488 109.049L217.784 109.43L217.168 113.018L212.926 112.607L210.031 112.435L209.864 114.258L209.557 121.572L204.699 121.224L205.441 114.373L206.348 98.1831L220.026 99.1616L220.284 99.5756L219.666 103.199L214.217 102.594L210.928 102.395Z" fill="#F3D35F"/>
</g>
</g>
<path d="M245.027 105L244.81 110.31L244.983 113.85H242.963L243.136 110.542L243.021 107.151L241 107.165V106.28L245.027 105Z" fill="white"/>
<path d="M246.927 111.005C246.927 109.843 247.259 108.858 247.923 108.05C248.587 107.242 249.361 106.838 250.246 106.838C251.141 106.838 251.834 107.111 252.325 107.655C252.825 108.2 253.075 108.921 253.075 109.82C253.075 111.018 252.753 112.017 252.108 112.816C251.473 113.605 250.67 114 249.698 114C248.899 114 248.235 113.719 247.706 113.156C247.187 112.584 246.927 111.867 246.927 111.005ZM251.459 110.528C251.459 109.212 250.982 108.554 250.03 108.554C249.039 108.554 248.543 109.171 248.543 110.406C248.543 111.05 248.683 111.554 248.962 111.917C249.241 112.28 249.607 112.462 250.059 112.462C250.521 112.462 250.867 112.298 251.098 111.971C251.338 111.636 251.459 111.154 251.459 110.528Z" fill="white"/>
<path d="M253.889 111.005C253.889 109.843 254.221 108.858 254.885 108.05C255.549 107.242 256.324 106.838 257.209 106.838C258.104 106.838 258.796 107.111 259.287 107.655C259.787 108.2 260.038 108.921 260.038 109.82C260.038 111.018 259.715 112.017 259.071 112.816C258.436 113.605 257.632 114 256.66 114C255.862 114 255.198 113.719 254.669 113.156C254.149 112.584 253.889 111.867 253.889 111.005ZM258.421 110.528C258.421 109.212 257.945 108.554 256.992 108.554C256.001 108.554 255.506 109.171 255.506 110.406C255.506 111.05 255.645 111.554 255.924 111.917C256.203 112.28 256.569 112.462 257.021 112.462C257.483 112.462 257.829 112.298 258.06 111.971C258.301 111.636 258.421 111.154 258.421 110.528Z" fill="white"/>
<path d="M260.852 111.005C260.852 109.843 261.184 108.858 261.848 108.05C262.512 107.242 263.286 106.838 264.171 106.838C265.066 106.838 265.759 107.111 266.25 107.655C266.75 108.2 267 108.921 267 109.82C267 111.018 266.678 112.017 266.033 112.816C265.398 113.605 264.595 114 263.623 114C262.824 114 262.16 113.719 261.631 113.156C261.112 112.584 260.852 111.867 260.852 111.005ZM265.384 110.528C265.384 109.212 264.907 108.554 263.955 108.554C262.964 108.554 262.468 109.171 262.468 110.406C262.468 111.05 262.608 111.554 262.887 111.917C263.166 112.28 263.531 112.462 263.984 112.462C264.445 112.462 264.792 112.298 265.023 111.971C265.263 111.636 265.384 111.154 265.384 110.528Z" fill="white"/>
<path d="M765.653 247.054C769.461 245.192 771.661 245.424 774.346 244.946" stroke="#D26469"/>
<rect x="633" y="139" width="148" height="207" rx="5" fill="#3F7AD3" fill-opacity="0.8"/>
<g filter="url(#filter7_d)">
<path d="M629 143.704C629 138.897 632.902 135 637.715 135H776.285C781.098 135 785 138.897 785 143.704V341.295C785 346.103 781.098 350 776.285 350H637.715C632.902 350 629 346.103 629 341.295V143.704Z"/>
<path d="M637.715 137H776.285C779.996 137 783 140.004 783 143.704V341.295C783 344.996 779.996 348 776.285 348H637.715C634.004 348 631 344.996 631 341.295V143.704C631 140.004 634.004 137 637.715 137Z" stroke="#F87980" stroke-width="4"/>
</g>
<path d="M656 300.359C656 297.951 657.947 296 660.348 296H751.652C754.053 296 756 297.951 756 300.359V325.641C756 328.048 754.053 330 751.652 330H660.348C657.947 330 656 328.048 656 325.641V300.359Z" fill="#333333" fill-opacity="0.2"/>
<path d="M657 299.231C657 296.894 658.944 295 661.342 295H751.658C754.056 295 756 296.894 756 299.231V323.769C756 326.106 754.056 328 751.658 328H661.342C658.944 328 657 326.106 657 323.769V299.231Z" fill="#2E5A9C"/>
<path d="M656 295.375C656 292.959 657.947 291 660.348 291H751.652C754.053 291 756 292.959 756 295.375V321.625C756 324.041 754.053 326 751.652 326H660.348C657.947 326 656 324.041 656 321.625V295.375Z" fill="#3F7AD3"/>
<path d="M673.736 301.265C675.104 301.265 676.228 301.779 677.108 302.805C678.001 303.831 678.447 305.136 678.447 306.721C678.447 308.728 677.92 310.347 676.865 311.578C675.811 312.81 674.426 313.425 672.711 313.425C671.378 313.425 670.26 312.901 669.356 311.852C668.452 310.792 668 309.486 668 307.935C668 305.997 668.539 304.401 669.617 303.147C670.694 301.893 672.068 301.265 673.736 301.265ZM676.083 307.679C676.083 304.794 675.121 303.352 673.197 303.352C672.317 303.352 671.621 303.677 671.111 304.327C670.613 304.965 670.364 305.929 670.364 307.217C670.364 308.494 670.631 309.549 671.164 310.381C671.708 311.202 672.421 311.613 673.302 311.613C674.194 311.613 674.878 311.265 675.353 310.569C675.84 309.862 676.083 308.899 676.083 307.679Z" fill="white"/>
<path d="M685.02 308.91C685.02 308.124 684.95 307.599 684.811 307.337C684.672 307.075 684.348 306.944 683.838 306.944C683.328 306.944 682.748 307.143 682.1 307.542V308.791L682.291 312.81L679.961 313.237L680.17 309.081C680.124 307.554 679.996 306.185 679.788 304.977L681.891 304.532C681.972 305.193 682.03 305.838 682.065 306.465C682.239 306.237 682.436 306.014 682.656 305.798C682.876 305.57 683.224 305.319 683.699 305.045C684.174 304.76 684.672 304.618 685.194 304.618C685.727 304.618 686.173 304.823 686.532 305.233C686.891 305.632 687.071 306.18 687.071 306.875L686.967 308.791L687.158 312.895L684.811 313.323L685.02 308.91Z" fill="white"/>
<path d="M689.755 304.96V303.095L692.102 302.651L691.876 304.96H693.979L693.788 306.362H691.807L691.72 309.936C691.72 310.472 691.772 310.832 691.876 311.014C691.98 311.185 692.172 311.271 692.45 311.271C692.728 311.271 693.099 311.208 693.562 311.082L693.667 312.297C692.902 312.924 692.23 313.237 691.65 313.237C691.071 313.237 690.596 313.032 690.225 312.622C689.854 312.2 689.669 311.652 689.669 310.98L689.773 309.064L689.755 306.362H688.556L688.747 304.96H689.755Z" fill="white"/>
<path d="M694.648 314.93C694.648 313.927 695.598 313.14 697.499 312.57C697.047 312.342 696.821 312.046 696.821 311.681C696.821 311.533 696.879 311.385 696.995 311.236C697.111 311.088 697.279 310.934 697.499 310.775V310.638C696.664 310.638 695.998 310.41 695.5 309.954C695.013 309.498 694.77 308.888 694.77 308.124C694.77 307.132 695.181 306.271 696.004 305.541C696.827 304.8 697.8 304.429 698.924 304.429C699.214 304.429 699.637 304.486 700.193 304.6C700.749 304.714 701.294 304.772 701.827 304.772H703.166L702.992 306.259L701.688 306.106C701.804 306.436 701.862 306.812 701.862 307.234C701.862 307.656 701.758 308.078 701.549 308.5C701.352 308.91 701.109 309.241 700.819 309.492C700.541 309.743 700.257 309.965 699.967 310.159C699.689 310.341 699.446 310.507 699.237 310.655C699.04 310.792 698.942 310.917 698.942 311.031C698.942 311.248 699.173 311.436 699.637 311.595C700.865 312.086 701.694 312.502 702.123 312.844C702.563 313.186 702.783 313.608 702.783 314.11C702.783 314.953 702.349 315.643 701.479 316.179C700.622 316.726 699.596 317 698.403 317C697.209 317 696.282 316.812 695.622 316.435C694.973 316.059 694.648 315.558 694.648 314.93ZM699.898 307.747C699.898 307.189 699.77 306.778 699.515 306.516C699.26 306.254 698.86 306.123 698.316 306.123C697.261 306.123 696.734 306.636 696.734 307.662C696.734 308.677 697.296 309.184 698.42 309.184C699.405 309.184 699.898 308.705 699.898 307.747ZM700.523 314.366C700.523 314.161 700.413 313.967 700.193 313.785C699.973 313.614 699.579 313.408 699.011 313.169C698.165 313.397 697.58 313.608 697.255 313.802C696.943 313.996 696.786 314.235 696.786 314.52C696.786 314.805 696.943 315.033 697.255 315.204C697.58 315.387 698.026 315.478 698.594 315.478C699.162 315.478 699.625 315.375 699.985 315.17C700.344 314.965 700.523 314.697 700.523 314.366Z" fill="white"/>
<path d="M703.892 304.977L705.996 304.532C706.1 305.41 706.169 306.242 706.204 307.029C707.259 305.421 708.25 304.618 709.177 304.618L708.985 307.286C708.313 307.286 707.78 307.348 707.386 307.474C707.004 307.588 706.61 307.821 706.204 308.175V308.791L706.395 312.81L704.066 313.237L704.275 309.081C704.228 307.554 704.101 306.185 703.892 304.977Z" fill="white"/>
<path d="M713.408 311.493C713.744 311.493 714.098 311.407 714.469 311.236C714.839 311.065 715.129 310.894 715.338 310.723L715.651 310.467L716.45 311.424C716.334 311.618 716.155 311.841 715.911 312.091C715.668 312.342 715.419 312.559 715.164 312.741C714.921 312.912 714.59 313.072 714.173 313.22C713.768 313.357 713.345 313.425 712.904 313.425C711.966 313.425 711.201 313.078 710.61 312.382C710.019 311.675 709.723 310.769 709.723 309.663C709.723 308.272 710.135 307.052 710.957 306.003C711.78 304.954 712.742 304.429 713.843 304.429C714.689 304.429 715.344 304.663 715.807 305.131C716.282 305.598 716.52 306.254 716.52 307.097C716.52 307.599 716.433 308.169 716.259 308.808L715.911 309.167L711.566 309.56C711.763 310.849 712.377 311.493 713.408 311.493ZM713.408 306.191C712.898 306.191 712.47 306.396 712.122 306.807C711.774 307.206 711.572 307.719 711.514 308.346L714.469 307.987C714.503 307.725 714.521 307.508 714.521 307.337C714.521 306.573 714.15 306.191 713.408 306.191Z" fill="white"/>
<path d="M723.078 308.91C723.078 308.124 723.008 307.599 722.869 307.337C722.73 307.075 722.406 306.944 721.896 306.944C721.386 306.944 720.807 307.143 720.158 307.542V308.791L720.349 312.81L718.02 313.237L718.228 309.081C718.182 307.554 718.054 306.185 717.846 304.977L719.949 304.532C720.03 305.193 720.088 305.838 720.123 306.465C720.297 306.237 720.494 306.014 720.714 305.798C720.934 305.57 721.282 305.319 721.757 305.045C722.232 304.76 722.73 304.618 723.252 304.618C723.785 304.618 724.231 304.823 724.59 305.233C724.95 305.632 725.129 306.18 725.129 306.875L725.025 308.791L725.216 312.895L722.869 313.323L723.078 308.91Z" fill="white"/>
<path d="M731.725 311.561C730.821 312.679 730.039 313.237 729.378 313.237C728.555 313.237 727.877 312.907 727.344 312.245C726.823 311.584 726.562 310.735 726.562 309.697C726.562 308.272 726.962 307.069 727.762 306.088C728.573 305.108 729.564 304.618 730.734 304.618L731.707 304.754V304.429L731.499 300.427L733.88 300L733.654 308.791V310.296C733.654 310.98 733.828 311.766 734.176 312.656L732.298 313.425C731.962 312.741 731.771 312.12 731.725 311.561ZM728.509 308.808C728.509 309.537 728.642 310.108 728.909 310.518C729.187 310.928 729.581 311.134 730.091 311.134C730.612 311.134 731.151 310.928 731.707 310.518V306.824C731.012 306.687 730.496 306.619 730.16 306.619C729.639 306.619 729.233 306.801 728.944 307.166C728.654 307.531 728.509 308.078 728.509 308.808Z" fill="white"/>
<path d="M738.99 311.493C739.326 311.493 739.679 311.407 740.05 311.236C740.421 311.065 740.711 310.894 740.919 310.723L741.232 310.467L742.032 311.424C741.916 311.618 741.736 311.841 741.493 312.091C741.25 312.342 741 312.559 740.745 312.741C740.502 312.912 740.172 313.072 739.755 313.22C739.349 313.357 738.926 313.425 738.486 313.425C737.547 313.425 736.782 313.078 736.191 312.382C735.6 311.675 735.305 310.769 735.305 309.663C735.305 308.272 735.716 307.052 736.539 306.003C737.362 304.954 738.323 304.429 739.424 304.429C740.27 304.429 740.925 304.663 741.389 305.131C741.864 305.598 742.101 306.254 742.101 307.097C742.101 307.599 742.014 308.169 741.841 308.808L741.493 309.167L737.147 309.56C737.344 310.849 737.958 311.493 738.99 311.493ZM738.99 306.191C738.48 306.191 738.051 306.396 737.704 306.807C737.356 307.206 737.153 307.719 737.095 308.346L740.05 307.987C740.085 307.725 740.102 307.508 740.102 307.337C740.102 306.573 739.731 306.191 738.99 306.191Z" fill="white"/>
<path d="M746 300L745.774 308.791L745.965 312.81L743.619 313.237L743.827 309.081L743.619 300.427L746 300Z" fill="white"/>
<path d="M656.371 131.503H705.48L706.042 150.213L651.899 149.415L656.371 131.503Z" fill="#A75155"/>
<path d="M655.221 129.469H703.824L704.381 148.18L655.221 147.381V129.469Z" fill="#F87980"/>
<g filter="url(#filter8_d)">
<path d="M661.763 138.347C662.456 150.074 653.338 160.152 641.398 160.858C629.458 161.563 619.217 152.628 618.525 140.901C617.832 129.175 626.95 119.096 638.89 118.391C650.83 117.686 661.071 126.621 661.763 138.347Z" fill="#E0C358"/>
<path d="M659.592 140.252C658.769 151.757 648.776 160.415 637.272 159.593C625.768 158.77 617.109 148.776 617.932 137.272C618.755 125.768 628.748 117.109 640.252 117.932C651.756 118.755 660.415 128.748 659.592 140.252Z" fill="#C5AE39"/>
<path d="M658.01 140.696C657.291 150.755 647.188 158.751 637.23 158.039C627.272 157.326 618.752 147.489 619.438 137.903C620.198 127.278 629.371 119.48 640.07 120.245C650.769 121.011 658.77 130.071 658.01 140.696Z" fill="#FFDD66"/>
<path fill-rule="evenodd" clip-rule="evenodd" d="M637.369 158.231C648.122 159 657.462 150.907 658.231 140.155C659 129.403 650.907 120.063 640.155 119.293C629.402 118.524 620.062 126.617 619.293 137.37C618.524 148.122 626.617 157.462 637.369 158.231ZM637.272 159.593C648.776 160.415 658.769 151.757 659.592 140.252C660.415 128.748 651.756 118.755 640.252 117.932C628.748 117.109 618.755 125.768 617.932 137.272C617.109 148.776 625.768 158.77 637.272 159.593Z" fill="#F3D35F"/>
<g filter="url(#filter9_d)">
<path d="M637.928 131.395L637.376 137.612L640.588 137.878L644.488 138.049L644.784 138.43L644.168 142.018L639.926 141.607L637.031 141.435L636.864 143.258L636.557 150.572L631.699 150.224L632.441 143.373L633.348 127.183L647.026 128.162L647.284 128.576L646.666 132.199L641.217 131.594L637.928 131.395Z" fill="#F3D35F"/>
</g>
</g>
<path d="M672.027 134L671.81 139.31L671.983 142.85H669.963L670.136 139.541L670.021 136.151L668 136.165V135.28L672.027 134Z" fill="white"/>
<path d="M673.927 140.004C673.927 138.843 674.259 137.858 674.923 137.05C675.587 136.242 676.361 135.838 677.246 135.838C678.141 135.838 678.834 136.11 679.325 136.655C679.825 137.2 680.075 137.921 680.075 138.82C680.075 140.018 679.753 141.017 679.108 141.815C678.473 142.605 677.67 143 676.698 143C675.899 143 675.235 142.718 674.706 142.156C674.187 141.584 673.927 140.867 673.927 140.004ZM678.459 139.528C678.459 138.212 677.982 137.554 677.03 137.554C676.039 137.554 675.543 138.171 675.543 139.405C675.543 140.05 675.683 140.554 675.962 140.917C676.241 141.28 676.607 141.461 677.059 141.461C677.521 141.461 677.867 141.298 678.098 140.971C678.338 140.635 678.459 140.154 678.459 139.528Z" fill="white"/>
<path d="M680.889 140.004C680.889 138.843 681.221 137.858 681.885 137.05C682.549 136.242 683.324 135.838 684.209 135.838C685.104 135.838 685.796 136.11 686.287 136.655C686.787 137.2 687.038 137.921 687.038 138.82C687.038 140.018 686.715 141.017 686.071 141.815C685.436 142.605 684.632 143 683.66 143C682.862 143 682.198 142.718 681.669 142.156C681.149 141.584 680.889 140.867 680.889 140.004ZM685.421 139.528C685.421 138.212 684.945 137.554 683.992 137.554C683.001 137.554 682.506 138.171 682.506 139.405C682.506 140.05 682.645 140.554 682.924 140.917C683.203 141.28 683.569 141.461 684.021 141.461C684.483 141.461 684.829 141.298 685.06 140.971C685.301 140.635 685.421 140.154 685.421 139.528Z" fill="white"/>
<path d="M687.852 140.004C687.852 138.843 688.184 137.858 688.848 137.05C689.512 136.242 690.286 135.838 691.171 135.838C692.066 135.838 692.759 136.11 693.25 136.655C693.75 137.2 694 137.921 694 138.82C694 140.018 693.678 141.017 693.033 141.815C692.398 142.605 691.595 143 690.623 143C689.824 143 689.16 142.718 688.631 142.156C688.112 141.584 687.852 140.867 687.852 140.004ZM692.384 139.528C692.384 138.212 691.907 137.554 690.955 137.554C689.964 137.554 689.468 138.171 689.468 139.405C689.468 140.05 689.608 140.554 689.887 140.917C690.166 141.28 690.531 141.461 690.984 141.461C691.445 141.461 691.792 141.298 692.023 140.971C692.263 140.635 692.384 140.154 692.384 139.528Z" fill="white"/>
<path d="M555.653 593.054C559.461 591.192 561.661 591.424 564.346 590.946" stroke="#D26469"/>
<rect x="423" y="485" width="148" height="207" rx="5" fill="#3F7AD3" fill-opacity="0.8"/>
<g filter="url(#filter10_d)">
<path d="M419 489.704C419 484.897 422.902 481 427.715 481H566.285C571.098 481 575 484.897 575 489.704V687.295C575 692.103 571.098 696 566.285 696H427.715C422.902 696 419 692.103 419 687.295V489.704Z"/>
<path d="M427.715 483H566.285C569.996 483 573 486.004 573 489.704V687.295C573 690.996 569.996 694 566.285 694H427.715C424.004 694 421 690.996 421 687.295V489.704C421 486.004 424.004 483 427.715 483Z" stroke="#F87980" stroke-width="4"/>
</g>
<path d="M446 646.359C446 643.951 447.947 642 450.348 642H541.652C544.053 642 546 643.951 546 646.359V671.641C546 674.048 544.053 676 541.652 676H450.348C447.947 676 446 674.048 446 671.641V646.359Z" fill="#333333" fill-opacity="0.2"/>
<path d="M447 645.231C447 642.894 448.944 641 451.342 641H541.658C544.056 641 546 642.894 546 645.231V669.769C546 672.106 544.056 674 541.658 674H451.342C448.944 674 447 672.106 447 669.769V645.231Z" fill="#2E5A9C"/>
<path d="M446 641.375C446 638.959 447.947 637 450.348 637H541.652C544.053 637 546 638.959 546 641.375V667.625C546 670.041 544.053 672 541.652 672H450.348C447.947 672 446 670.041 446 667.625V641.375Z" fill="#3F7AD3"/>
<path d="M463.736 647.265C465.104 647.265 466.228 647.778 467.108 648.805C468.001 649.831 468.447 651.136 468.447 652.721C468.447 654.728 467.92 656.347 466.865 657.578C465.811 658.81 464.426 659.425 462.711 659.425C461.378 659.425 460.26 658.901 459.356 657.852C458.452 656.792 458 655.486 458 653.935C458 651.997 458.539 650.401 459.617 649.147C460.694 647.892 462.068 647.265 463.736 647.265ZM466.083 653.679C466.083 650.794 465.121 649.352 463.197 649.352C462.317 649.352 461.621 649.677 461.111 650.327C460.613 650.965 460.364 651.929 460.364 653.217C460.364 654.494 460.631 655.549 461.164 656.381C461.708 657.202 462.421 657.612 463.302 657.612C464.194 657.612 464.878 657.265 465.353 656.569C465.84 655.862 466.083 654.899 466.083 653.679Z" fill="white"/>
<path d="M475.02 654.91C475.02 654.123 474.95 653.599 474.811 653.337C474.672 653.075 474.348 652.943 473.838 652.943C473.328 652.943 472.748 653.143 472.1 653.542V654.791L472.291 658.81L469.961 659.237L470.17 655.081C470.124 653.553 469.996 652.185 469.788 650.977L471.891 650.532C471.972 651.193 472.03 651.837 472.065 652.465C472.239 652.237 472.436 652.014 472.656 651.798C472.876 651.57 473.224 651.319 473.699 651.045C474.174 650.76 474.672 650.617 475.194 650.617C475.727 650.617 476.173 650.823 476.532 651.233C476.891 651.632 477.071 652.18 477.071 652.875L476.967 654.791L477.158 658.895L474.811 659.323L475.02 654.91Z" fill="white"/>
<path d="M479.755 650.96V649.095L482.102 648.651L481.876 650.96H483.979L483.788 652.362H481.807L481.72 655.936C481.72 656.472 481.772 656.831 481.876 657.014C481.98 657.185 482.172 657.27 482.45 657.27C482.728 657.27 483.099 657.208 483.562 657.082L483.667 658.297C482.902 658.924 482.23 659.237 481.65 659.237C481.071 659.237 480.596 659.032 480.225 658.621C479.854 658.2 479.669 657.652 479.669 656.98L479.773 655.064L479.755 652.362H478.556L478.747 650.96H479.755Z" fill="white"/>
<path d="M484.648 660.93C484.648 659.927 485.598 659.14 487.499 658.57C487.047 658.342 486.821 658.046 486.821 657.681C486.821 657.533 486.879 657.384 486.995 657.236C487.111 657.088 487.279 656.934 487.499 656.774V656.638C486.664 656.638 485.998 656.41 485.5 655.953C485.013 655.497 484.77 654.887 484.77 654.123C484.77 653.132 485.181 652.271 486.004 651.541C486.827 650.8 487.8 650.429 488.924 650.429C489.214 650.429 489.637 650.486 490.193 650.6C490.749 650.714 491.294 650.771 491.827 650.771H493.166L492.992 652.259L491.688 652.105C491.804 652.436 491.862 652.812 491.862 653.234C491.862 653.656 491.758 654.078 491.549 654.5C491.352 654.91 491.109 655.241 490.819 655.492C490.541 655.743 490.257 655.965 489.967 656.159C489.689 656.341 489.446 656.506 489.237 656.655C489.04 656.792 488.942 656.917 488.942 657.031C488.942 657.248 489.173 657.436 489.637 657.595C490.865 658.086 491.694 658.502 492.123 658.844C492.563 659.186 492.783 659.608 492.783 660.109C492.783 660.953 492.349 661.643 491.479 662.179C490.622 662.726 489.596 663 488.403 663C487.209 663 486.282 662.812 485.622 662.435C484.973 662.059 484.648 661.557 484.648 660.93ZM489.898 653.747C489.898 653.189 489.77 652.778 489.515 652.516C489.26 652.254 488.86 652.122 488.316 652.122C487.261 652.122 486.734 652.636 486.734 653.662C486.734 654.676 487.296 655.184 488.42 655.184C489.405 655.184 489.898 654.705 489.898 653.747ZM490.523 660.366C490.523 660.161 490.413 659.967 490.193 659.784C489.973 659.613 489.579 659.408 489.011 659.169C488.165 659.397 487.58 659.608 487.255 659.802C486.943 659.995 486.786 660.235 486.786 660.52C486.786 660.805 486.943 661.033 487.255 661.204C487.58 661.386 488.026 661.478 488.594 661.478C489.162 661.478 489.625 661.375 489.985 661.17C490.344 660.965 490.523 660.697 490.523 660.366Z" fill="white"/>
<path d="M493.892 650.977L495.996 650.532C496.1 651.41 496.169 652.242 496.204 653.029C497.259 651.421 498.25 650.617 499.177 650.617L498.985 653.285C498.313 653.285 497.78 653.348 497.386 653.474C497.004 653.588 496.61 653.821 496.204 654.175V654.791L496.395 658.81L494.066 659.237L494.275 655.081C494.228 653.553 494.101 652.185 493.892 650.977Z" fill="white"/>
<path d="M503.408 657.493C503.744 657.493 504.098 657.407 504.469 657.236C504.839 657.065 505.129 656.894 505.338 656.723L505.651 656.467L506.45 657.424C506.334 657.618 506.155 657.84 505.911 658.091C505.668 658.342 505.419 658.559 505.164 658.741C504.921 658.912 504.59 659.072 504.173 659.22C503.768 659.357 503.345 659.425 502.904 659.425C501.966 659.425 501.201 659.078 500.61 658.382C500.019 657.675 499.723 656.769 499.723 655.663C499.723 654.272 500.135 653.052 500.957 652.003C501.78 650.954 502.742 650.429 503.843 650.429C504.689 650.429 505.344 650.663 505.807 651.131C506.282 651.598 506.52 652.254 506.52 653.097C506.52 653.599 506.433 654.169 506.259 654.808L505.911 655.167L501.566 655.56C501.763 656.849 502.377 657.493 503.408 657.493ZM503.408 652.191C502.898 652.191 502.47 652.396 502.122 652.807C501.774 653.206 501.572 653.719 501.514 654.346L504.469 653.987C504.503 653.724 504.521 653.508 504.521 653.337C504.521 652.573 504.15 652.191 503.408 652.191Z" fill="white"/>
<path d="M513.078 654.91C513.078 654.123 513.008 653.599 512.869 653.337C512.73 653.075 512.406 652.943 511.896 652.943C511.386 652.943 510.807 653.143 510.158 653.542V654.791L510.349 658.81L508.02 659.237L508.228 655.081C508.182 653.553 508.054 652.185 507.846 650.977L509.949 650.532C510.03 651.193 510.088 651.837 510.123 652.465C510.297 652.237 510.494 652.014 510.714 651.798C510.934 651.57 511.282 651.319 511.757 651.045C512.232 650.76 512.73 650.617 513.252 650.617C513.785 650.617 514.231 650.823 514.59 651.233C514.95 651.632 515.129 652.18 515.129 652.875L515.025 654.791L515.216 658.895L512.869 659.323L513.078 654.91Z" fill="white"/>
<path d="M521.725 657.561C520.821 658.678 520.039 659.237 519.378 659.237C518.555 659.237 517.877 658.907 517.344 658.245C516.823 657.584 516.562 656.734 516.562 655.697C516.562 654.272 516.962 653.069 517.762 652.088C518.573 651.108 519.564 650.617 520.734 650.617L521.707 650.754V650.429L521.499 646.427L523.88 646L523.654 654.791V656.296C523.654 656.98 523.828 657.766 524.176 658.656L522.298 659.425C521.962 658.741 521.771 658.12 521.725 657.561ZM518.509 654.808C518.509 655.537 518.642 656.107 518.909 656.518C519.187 656.928 519.581 657.134 520.091 657.134C520.612 657.134 521.151 656.928 521.707 656.518V652.824C521.012 652.687 520.496 652.618 520.16 652.618C519.639 652.618 519.233 652.801 518.944 653.166C518.654 653.531 518.509 654.078 518.509 654.808Z" fill="white"/>
<path d="M528.99 657.493C529.326 657.493 529.679 657.407 530.05 657.236C530.421 657.065 530.711 656.894 530.919 656.723L531.232 656.467L532.032 657.424C531.916 657.618 531.736 657.84 531.493 658.091C531.25 658.342 531 658.559 530.745 658.741C530.502 658.912 530.172 659.072 529.755 659.22C529.349 659.357 528.926 659.425 528.486 659.425C527.547 659.425 526.782 659.078 526.191 658.382C525.6 657.675 525.305 656.769 525.305 655.663C525.305 654.272 525.716 653.052 526.539 652.003C527.362 650.954 528.323 650.429 529.424 650.429C530.27 650.429 530.925 650.663 531.389 651.131C531.864 651.598 532.101 652.254 532.101 653.097C532.101 653.599 532.014 654.169 531.841 654.808L531.493 655.167L527.147 655.56C527.344 656.849 527.958 657.493 528.99 657.493ZM528.99 652.191C528.48 652.191 528.051 652.396 527.704 652.807C527.356 653.206 527.153 653.719 527.095 654.346L530.05 653.987C530.085 653.724 530.102 653.508 530.102 653.337C530.102 652.573 529.731 652.191 528.99 652.191Z" fill="white"/>
<path d="M536 646L535.774 654.791L535.965 658.81L533.619 659.237L533.827 655.081L533.619 646.427L536 646Z" fill="white"/>
<path d="M446.371 477.503H495.48L496.042 496.213L441.899 495.415L446.371 477.503Z" fill="#A75155"/>
<path d="M445.221 475.469H493.824L494.381 494.18L445.221 493.381V475.469Z" fill="#F87980"/>
<g filter="url(#filter11_d)">
<path d="M451.763 484.347C452.456 496.074 443.338 506.152 431.398 506.858C419.458 507.563 409.217 498.628 408.525 486.901C407.832 475.175 416.95 465.096 428.89 464.391C440.83 463.686 451.071 472.621 451.763 484.347Z" fill="#E0C358"/>
<path d="M449.592 486.252C448.769 497.757 438.776 506.415 427.272 505.593C415.768 504.77 407.109 494.776 407.932 483.272C408.755 471.768 418.748 463.109 430.252 463.932C441.756 464.755 450.415 474.748 449.592 486.252Z" fill="#C5AE39"/>
<path d="M448.01 486.696C447.291 496.755 437.188 504.751 427.23 504.039C417.272 503.326 408.752 493.489 409.438 483.903C410.198 473.278 419.371 465.48 430.07 466.245C440.769 467.011 448.77 476.071 448.01 486.696Z" fill="#FFDD66"/>
<path fill-rule="evenodd" clip-rule="evenodd" d="M427.369 504.231C438.122 505 447.462 496.907 448.231 486.155C449 475.403 440.907 466.063 430.155 465.293C419.402 464.524 410.062 472.617 409.293 483.37C408.524 494.122 416.617 503.462 427.369 504.231ZM427.272 505.593C438.776 506.415 448.769 497.757 449.592 486.252C450.415 474.748 441.756 464.755 430.252 463.932C418.748 463.109 408.755 471.768 407.932 483.272C407.109 494.776 415.768 504.77 427.272 505.593Z" fill="#F3D35F"/>
<g filter="url(#filter12_d)">
<path d="M427.928 477.395L427.376 483.612L430.588 483.878L434.488 484.049L434.784 484.43L434.168 488.018L429.926 487.607L427.031 487.435L426.864 489.258L426.557 496.572L421.699 496.224L422.441 489.373L423.348 473.183L437.026 474.162L437.284 474.576L436.666 478.199L431.217 477.594L427.928 477.395Z" fill="#F3D35F"/>
</g>
</g>
<path d="M462.027 480L461.81 485.31L461.983 488.85H459.963L460.136 485.541L460.021 482.151L458 482.165V481.28L462.027 480Z" fill="white"/>
<path d="M463.927 486.004C463.927 484.843 464.259 483.858 464.923 483.05C465.587 482.242 466.361 481.838 467.246 481.838C468.141 481.838 468.834 482.11 469.325 482.655C469.825 483.2 470.075 483.921 470.075 484.82C470.075 486.018 469.753 487.017 469.108 487.815C468.473 488.605 467.67 489 466.698 489C465.899 489 465.235 488.718 464.706 488.156C464.187 487.584 463.927 486.867 463.927 486.004ZM468.459 485.528C468.459 484.212 467.982 483.554 467.03 483.554C466.039 483.554 465.543 484.171 465.543 485.405C465.543 486.05 465.683 486.554 465.962 486.917C466.241 487.28 466.607 487.461 467.059 487.461C467.521 487.461 467.867 487.298 468.098 486.971C468.338 486.635 468.459 486.154 468.459 485.528Z" fill="white"/>
<path d="M470.889 486.004C470.889 484.843 471.221 483.858 471.885 483.05C472.549 482.242 473.324 481.838 474.209 481.838C475.104 481.838 475.796 482.11 476.287 482.655C476.787 483.2 477.038 483.921 477.038 484.82C477.038 486.018 476.715 487.017 476.071 487.815C475.436 488.605 474.632 489 473.66 489C472.862 489 472.198 488.718 471.669 488.156C471.149 487.584 470.889 486.867 470.889 486.004ZM475.421 485.528C475.421 484.212 474.945 483.554 473.992 483.554C473.001 483.554 472.506 484.171 472.506 485.405C472.506 486.05 472.645 486.554 472.924 486.917C473.203 487.28 473.569 487.461 474.021 487.461C474.483 487.461 474.829 487.298 475.06 486.971C475.301 486.635 475.421 486.154 475.421 485.528Z" fill="white"/>
<path d="M477.852 486.004C477.852 484.843 478.184 483.858 478.848 483.05C479.512 482.242 480.286 481.838 481.171 481.838C482.066 481.838 482.759 482.11 483.25 482.655C483.75 483.2 484 483.921 484 484.82C484 486.018 483.678 487.017 483.033 487.815C482.398 488.605 481.595 489 480.623 489C479.824 489 479.16 488.718 478.631 488.156C478.112 487.584 477.852 486.867 477.852 486.004ZM482.384 485.528C482.384 484.212 481.907 483.554 480.955 483.554C479.964 483.554 479.468 484.171 479.468 485.405C479.468 486.05 479.608 486.554 479.887 486.917C480.166 487.28 480.531 487.461 480.984 487.461C481.445 487.461 481.792 487.298 482.023 486.971C482.263 486.635 482.384 486.154 482.384 485.528Z" fill="white"/>
</g>
<defs>
<filter id="filter0_d" x="222.803" y="182.443" width="176.939" height="194.678" filterUnits="userSpaceOnUse" color-interpolation-filters="sRGB">
<feFlood flood-opacity="0" result="BackgroundImageFix"/>
<feColorMatrix in="SourceAlpha" type="matrix" values="0 0 0 0 0 0 0 0 0 0 0 0 0 0 0 0 0 0 127 0"/>
<feOffset/>
<feColorMatrix type="matrix" values="0 0 0 0 0 0 0 0 0 0 0 0 0 0 0 0 0 0 1 0"/>
<feBlend mode="normal" in2="BackgroundImageFix" result="effect1_dropShadow"/>
<feBlend mode="normal" in="SourceGraphic" in2="effect1_dropShadow" result="shape"/>
</filter>
<filter id="filter1_d" x="330" y="297" width="56" height="56" filterUnits="userSpaceOnUse" color-interpolation-filters="sRGB">
<feFlood flood-opacity="0" result="BackgroundImageFix"/>
<feColorMatrix in="SourceAlpha" type="matrix" values="0 0 0 0 0 0 0 0 0 0 0 0 0 0 0 0 0 0 127 0"/>
<feOffset dy="4"/>
<feGaussianBlur stdDeviation="2"/>
<feColorMatrix type="matrix" values="0 0 0 0 0 0 0 0 0 0 0 0 0 0 0 0 0 0 0.25 0"/>
<feBlend mode="normal" in2="BackgroundImageFix" result="effect1_dropShadow"/>
<feBlend mode="normal" in="SourceGraphic" in2="effect1_dropShadow" result="shape"/>
</filter>
<filter id="filter2_d" x="547" y="465" width="56" height="56" filterUnits="userSpaceOnUse" color-interpolation-filters="sRGB">
<feFlood flood-opacity="0" result="BackgroundImageFix"/>
<feColorMatrix in="SourceAlpha" type="matrix" values="0 0 0 0 0 0 0 0 0 0 0 0 0 0 0 0 0 0 127 0"/>
<feOffset dy="4"/>
<feGaussianBlur stdDeviation="2"/>
<feColorMatrix type="matrix" values="0 0 0 0 0 0 0 0 0 0 0 0 0 0 0 0 0 0 0.25 0"/>
<feBlend mode="normal" in2="BackgroundImageFix" result="effect1_dropShadow"/>
<feBlend mode="normal" in="SourceGraphic" in2="effect1_dropShadow" result="shape"/>
</filter>
<filter id="filter3_d" x="593" y="196" width="56" height="56" filterUnits="userSpaceOnUse" color-interpolation-filters="sRGB">
<feFlood flood-opacity="0" result="BackgroundImageFix"/>
<feColorMatrix in="SourceAlpha" type="matrix" values="0 0 0 0 0 0 0 0 0 0 0 0 0 0 0 0 0 0 127 0"/>
<feOffset dy="4"/>
<feGaussianBlur stdDeviation="2"/>
<feColorMatrix type="matrix" values="0 0 0 0 0 0 0 0 0 0 0 0 0 0 0 0 0 0 0.25 0"/>
<feBlend mode="normal" in2="BackgroundImageFix" result="effect1_dropShadow"/>
<feBlend mode="normal" in="SourceGraphic" in2="effect1_dropShadow" result="shape"/>
</filter>
<filter id="filter4_d" x="202" y="106" width="160" height="219" filterUnits="userSpaceOnUse" color-interpolation-filters="sRGB">
<feFlood flood-opacity="0" result="BackgroundImageFix"/>
<feColorMatrix in="SourceAlpha" type="matrix" values="0 0 0 0 0 0 0 0 0 0 0 0 0 0 0 0 0 0 127 0"/>
<feOffset dx="4" dy="4"/>
<feColorMatrix type="matrix" values="0 0 0 0 0.819608 0 0 0 0 0.419608 0 0 0 0 0.443137 0 0 0 1 0"/>
<feBlend mode="normal" in2="BackgroundImageFix" result="effect1_dropShadow"/>
<feBlend mode="normal" in="SourceGraphic" in2="effect1_dropShadow" result="shape"/>
</filter>
<filter id="filter5_d" x="186.878" y="88.8778" width="51.9219" height="51.0188" filterUnits="userSpaceOnUse" color-interpolation-filters="sRGB">
<feFlood flood-opacity="0" result="BackgroundImageFix"/>
<feColorMatrix in="SourceAlpha" type="matrix" values="0 0 0 0 0 0 0 0 0 0 0 0 0 0 0 0 0 0 127 0"/>
<feOffset dy="4"/>
<feGaussianBlur stdDeviation="2"/>
<feColorMatrix type="matrix" values="0 0 0 0 0 0 0 0 0 0 0 0 0 0 0 0 0 0 0.25 0"/>
<feBlend mode="normal" in2="BackgroundImageFix" result="effect1_dropShadow"/>
<feBlend mode="normal" in="SourceGraphic" in2="effect1_dropShadow" result="shape"/>
</filter>
<filter id="filter6_d" x="204.699" y="98.1831" width="16.5843" height="25.3885" filterUnits="userSpaceOnUse" color-interpolation-filters="sRGB">
<feFlood flood-opacity="0" result="BackgroundImageFix"/>
<feColorMatrix in="SourceAlpha" type="matrix" values="0 0 0 0 0 0 0 0 0 0 0 0 0 0 0 0 0 0 127 0"/>
<feOffset dx="1" dy="2"/>
<feColorMatrix type="matrix" values="0 0 0 0 0.879167 0 0 0 0 0.763529 0 0 0 0 0.34434 0 0 0 1 0"/>
<feBlend mode="normal" in2="BackgroundImageFix" result="effect1_dropShadow"/>
<feBlend mode="normal" in="SourceGraphic" in2="effect1_dropShadow" result="shape"/>
</filter>
<filter id="filter7_d" x="629" y="135" width="160" height="219" filterUnits="userSpaceOnUse" color-interpolation-filters="sRGB">
<feFlood flood-opacity="0" result="BackgroundImageFix"/>
<feColorMatrix in="SourceAlpha" type="matrix" values="0 0 0 0 0 0 0 0 0 0 0 0 0 0 0 0 0 0 127 0"/>
<feOffset dx="4" dy="4"/>
<feColorMatrix type="matrix" values="0 0 0 0 0.819608 0 0 0 0 0.419608 0 0 0 0 0.443137 0 0 0 1 0"/>
<feBlend mode="normal" in2="BackgroundImageFix" result="effect1_dropShadow"/>
<feBlend mode="normal" in="SourceGraphic" in2="effect1_dropShadow" result="shape"/>
</filter>
<filter id="filter8_d" x="613.878" y="117.878" width="51.9219" height="51.0188" filterUnits="userSpaceOnUse" color-interpolation-filters="sRGB">
<feFlood flood-opacity="0" result="BackgroundImageFix"/>
<feColorMatrix in="SourceAlpha" type="matrix" values="0 0 0 0 0 0 0 0 0 0 0 0 0 0 0 0 0 0 127 0"/>
<feOffset dy="4"/>
<feGaussianBlur stdDeviation="2"/>
<feColorMatrix type="matrix" values="0 0 0 0 0 0 0 0 0 0 0 0 0 0 0 0 0 0 0.25 0"/>
<feBlend mode="normal" in2="BackgroundImageFix" result="effect1_dropShadow"/>
<feBlend mode="normal" in="SourceGraphic" in2="effect1_dropShadow" result="shape"/>
</filter>
<filter id="filter9_d" x="631.699" y="127.183" width="16.5843" height="25.3885" filterUnits="userSpaceOnUse" color-interpolation-filters="sRGB">
<feFlood flood-opacity="0" result="BackgroundImageFix"/>
<feColorMatrix in="SourceAlpha" type="matrix" values="0 0 0 0 0 0 0 0 0 0 0 0 0 0 0 0 0 0 127 0"/>
<feOffset dx="1" dy="2"/>
<feColorMatrix type="matrix" values="0 0 0 0 0.879167 0 0 0 0 0.763529 0 0 0 0 0.34434 0 0 0 1 0"/>
<feBlend mode="normal" in2="BackgroundImageFix" result="effect1_dropShadow"/>
<feBlend mode="normal" in="SourceGraphic" in2="effect1_dropShadow" result="shape"/>
</filter>
<filter id="filter10_d" x="419" y="481" width="160" height="219" filterUnits="userSpaceOnUse" color-interpolation-filters="sRGB">
<feFlood flood-opacity="0" result="BackgroundImageFix"/>
<feColorMatrix in="SourceAlpha" type="matrix" values="0 0 0 0 0 0 0 0 0 0 0 0 0 0 0 0 0 0 127 0"/>
<feOffset dx="4" dy="4"/>
<feColorMatrix type="matrix" values="0 0 0 0 0.819608 0 0 0 0 0.419608 0 0 0 0 0.443137 0 0 0 1 0"/>
<feBlend mode="normal" in2="BackgroundImageFix" result="effect1_dropShadow"/>
<feBlend mode="normal" in="SourceGraphic" in2="effect1_dropShadow" result="shape"/>
</filter>
<filter id="filter11_d" x="403.878" y="463.878" width="51.9219" height="51.0188" filterUnits="userSpaceOnUse" color-interpolation-filters="sRGB">
<feFlood flood-opacity="0" result="BackgroundImageFix"/>
<feColorMatrix in="SourceAlpha" type="matrix" values="0 0 0 0 0 0 0 0 0 0 0 0 0 0 0 0 0 0 127 0"/>
<feOffset dy="4"/>
<feGaussianBlur stdDeviation="2"/>
<feColorMatrix type="matrix" values="0 0 0 0 0 0 0 0 0 0 0 0 0 0 0 0 0 0 0.25 0"/>
<feBlend mode="normal" in2="BackgroundImageFix" result="effect1_dropShadow"/>
<feBlend mode="normal" in="SourceGraphic" in2="effect1_dropShadow" result="shape"/>
</filter>
<filter id="filter12_d" x="421.699" y="473.183" width="16.5843" height="25.3885" filterUnits="userSpaceOnUse" color-interpolation-filters="sRGB">
<feFlood flood-opacity="0" result="BackgroundImageFix"/>
<feColorMatrix in="SourceAlpha" type="matrix" values="0 0 0 0 0 0 0 0 0 0 0 0 0 0 0 0 0 0 127 0"/>
<feOffset dx="1" dy="2"/>
<feColorMatrix type="matrix" values="0 0 0 0 0.879167 0 0 0 0 0.763529 0 0 0 0 0.34434 0 0 0 1 0"/>
<feBlend mode="normal" in2="BackgroundImageFix" result="effect1_dropShadow"/>
<feBlend mode="normal" in="SourceGraphic" in2="effect1_dropShadow" result="shape"/>
</filter>
<clipPath id="clip0">
<rect width="1194" height="834" fill="white"/>
</clipPath>
</defs>
</svg>
