<svg width="1891" height="1080" viewBox="0 0 1891 1080" fill="none" xmlns="http://www.w3.org/2000/svg">
<g clip-path="url(#clip0)">
<path d="M1859.13 769.04L1829.52 700.161L1834.48 684L1823.81 678.204L1828.77 642.093L1845.61 656.582L1833.28 518.935V431.889L1846.21 368.805L1841.25 309.511L1851.92 229.598L1865.3 158.712L1858.98 8.80495L1803.07 0L1702.97 3.67802L1694.55 42.5759L1681.47 26.9721L1674.41 35.1084L1664.79 10.5882L1590.99 28.644L1612.48 54.8359L1615.04 59.8514L1607.82 62.8607L1519.14 80.2477L1496.15 126.947L1487.73 121.375L1480.66 153.697L1465.63 134.749L1460.22 149.907L1425.35 111.121L1410.62 94.6254L1247.09 100.087L1233.11 100.533C1233.11 100.533 954.142 96.8545 952.94 96.8545L831.643 90.613L821.121 100.31L812.704 99.0836L799.327 107.443L788.354 98.0805L770.318 123.269L767.763 104.656L757.241 106.217L751.83 101.536L745.066 104.322V89.6099L506.531 75.9009L414.243 74.3406L410.034 90.5015L405.826 109.783L391.547 120.929L386.587 95.8514L374.412 106.997L370.203 102.65L363.89 107.666L358.93 97.969L339.691 76.2353L273.406 74.3406L106.266 96.6316L49.1495 126.502L40.582 164.842L67.4868 275.294L73.7997 333.139L91.3855 318.204L99.8026 343.059L112.879 340.83L83.1186 392.768L104.462 456.186L107.468 515.926L117.539 622.588L127.609 618.242L136.477 625.04L129.714 635.628L139.333 639.306L130.164 660.149L141.888 657.362L129.263 692.471L142.339 781.077L130.164 871.579L128.962 921.957L142.339 908.248L150.305 929.758L151.959 944.025L161.578 935.889L159.023 958.96L137.68 974.229L146.247 1011.23L149.855 1040.21L182.17 1059.16L240.038 1069.75L322.706 1052.02L386.887 1020.59L377.268 1002.76L551.472 998.526L609.19 997.412L642.107 968.991L654.131 978.91L662.699 974.229L668.711 980.025L689.453 963.975L699.674 993.845L710.797 995.071L712.149 1000.53L751.229 1003.43L803.235 1002.32C803.235 1002.32 881.093 1003.43 882.146 1003.43C883.198 1003.43 1010.06 1004.1 1010.06 1004.1L1023.88 982.588L1034.1 989.61L1039.82 986.378L1044.78 991.393L1056.35 983.034L1064.17 1002.76L1073.18 997.3L1079.95 1008.67L1191.17 1004.99L1274.9 1006.66L1306.91 956.619L1307.96 986.043L1320.29 976.681L1327.2 996.186L1331.41 990.947L1337.42 1010.34H1376.5L1525.3 1006.66L1547.4 1005.99L1610.23 1004.1L1727.62 990.836L1858.98 971.331L1890.85 943.133V860.991L1859.13 769.04Z" fill="#2E5A9C"/>
<path d="M1850.42 953.164L1818.55 981.362L1687.19 1000.87L1569.8 1014.13L1484.72 1016.58L1335.92 1020.26H1296.84L1290.83 1000.87L1286.62 1006.11L1279.71 986.601L1267.38 995.963L1266.33 966.539L1234.01 1016.81L1150.29 1015.13L1039.07 1018.81L1032.3 1007.44L1023.28 1012.9L1015.47 993.177L1003.89 1001.54L998.934 996.52L993.222 999.753L983.001 992.731L969.173 1014.24C969.173 1014.24 842.315 1013.57 841.263 1013.57C840.211 1013.57 762.352 1012.46 762.352 1012.46L710.346 1013.57L671.267 1010.68L669.914 1005.21L658.791 1003.99L648.571 974.118L627.828 990.167L621.816 984.372L613.249 989.053L601.224 979.133L568.307 1007.55L510.59 1008.67L460.688 1007.55L412.44 1010.68L332.176 1013.13L237.484 838.366L204.416 711.084L201.109 560.174L221.25 402.13L219.597 241.635L16.5337 201.734L0 174.873L8.56744 136.421L65.6837 106.551L135.275 97.6349L232.824 84.3717L299.109 86.2665L318.348 108L323.308 117.697L329.621 112.681L333.83 117.028L346.004 105.883L350.965 131.071L365.244 119.926L369.452 100.644L373.661 84.4832L465.949 86.0436L611.896 94.7371L704.635 99.7526V114.353L711.398 111.567L716.809 116.248L727.331 114.688L729.886 133.301L747.923 108.112L758.895 117.474L772.272 109.115L780.69 110.341L791.211 100.644C791.211 100.644 911.155 106.886 912.508 106.886C913.861 106.886 1192.68 110.564 1192.68 110.564L1370.04 104.657L1384.77 121.152L1395.29 140.768L1418.74 162.502L1425.05 144.78L1440.08 163.728L1447.15 131.406L1455.56 136.979L1478.56 90.2789L1567.09 72.8919L1582.12 66.6504L1732.28 214.997L1754.07 580.793L1765.8 818.415L1850.42 953.164Z" fill="#FACABC"/>
<path d="M405.225 1011.01L332.176 1013.13L173.002 957.734L136.778 262.254L0 174.873L7.06438 135.306L64.1807 105.548L232.824 84.3714L299.109 86.2661L318.348 108L323.459 117.696L329.621 112.681L333.83 117.028L346.004 105.882L351.115 131.071L365.394 119.814L372.308 83.2568L465.949 85.9318L706.138 98.5262L704.785 113.127L711.398 111.455L716.809 116.136L727.331 114.576L729.886 133.189L747.923 108L758.745 117.362L772.272 107.777L780.539 110.229L791.061 99.4178L912.358 106.774" fill="#3F7AD3"/>
<path d="M912.357 106.774L1192.53 110.452L1206.51 110.006L1309.62 167.74L812.854 604.421L510.739 1008.78L332.176 1013.13" fill="#3F7AD3"/>
<path d="M64.3312 319.319L72.598 344.173L85.6747 342.056L55.9141 393.994L77.2575 457.412L80.2636 517.152L90.3341 623.814L100.405 619.467L109.122 626.266L102.509 636.855L112.129 640.644L102.81 661.486L114.684 658.7L102.058 693.808L114.984 782.415L102.81 872.917L101.607 923.294L114.984 909.697L122.951 931.096L124.754 945.474L134.374 937.338L131.819 960.297L110.475 975.567L119.043 1012.57L122.65 1041.55L154.815 1060.5L212.834 1071.08L295.352 1053.36L359.532 1021.93L307.526 925.189L275.661 847.17L255.971 738.279L242.143 610.774L243.045 493.746L243.797 366.576L242.143 282.316L247.554 202.625L244.247 165.957L224.557 143.554L203.965 131.071L151.96 125.164H116.788L95.4445 132.297L90.4844 138.539L103.411 191.926L144.745 182.786" fill="#2E5A9C"/>
<path d="M378.772 930.093L356.075 904.904L367.499 875.926L346.005 852.632V810.613L330.974 796.681L325.864 777.065V753.771L352.318 766.811L368.701 745.3L378.772 735.047L352.318 723.901L339.692 728.805L352.318 702.39L332.177 686.564L341.496 650.452H312.938L324.661 622.588L318.799 616.235L345.855 550.254H334.732L346.005 527.963L345.855 511.691L346.005 499.319L333.83 483.715L358.18 466.328H388.391L400.115 441.474L407.781 419.629L433.784 416.508H463.093L489.998 419.629L521.863 416.508L551.173 402.242L566.203 385.189L754.988 452.062L890.113 597.622L930.395 778.625L780.99 939.678L671.417 976.458L643.46 966.762L535.24 976.458L378.772 930.093Z" fill="#A75155"/>
<path d="M671.419 1010.9L670.066 1005.44L658.944 1004.21L648.723 974.34L627.981 990.39L621.969 984.594L613.401 989.275L601.377 979.356L568.46 1007.78L510.742 1008.89L460.841 1007.78L405.227 1011.12L425.819 974.34L399.816 958.736L378.773 930.093C378.773 930.093 392.602 922.625 396.359 922.625C400.117 922.625 441.301 936.668 441.301 936.668L490.751 946.365L527.727 945.696C527.727 945.696 552.527 956.842 553.73 957.176C554.932 957.51 603.18 957.176 603.18 957.176L645.567 944.47L660.597 955.393L683.293 968.433L679.536 981.473L671.419 1010.9Z" fill="#5C404E"/>
<path d="M832.997 742.514L814.209 782.638L787.755 794.787L753.786 829.338V854.527L728.534 872.248V901.115L694.565 915.158L700.878 953.164L679.534 964.644V981.362L671.418 1010.9L710.498 1013.8L762.503 1012.68L969.324 1014.35L983.153 992.954L993.524 999.864L999.085 996.632L1004.2 1001.65L1015.77 993.177L1023.43 1013.02L1032.45 1007.55L1039.22 1018.92L1150.29 1015.13L1234.01 1016.81L1266.18 966.762L1267.23 996.186L1279.56 986.824L1286.47 1006.33L1290.68 1000.98L1296.69 1020.37L1506.67 1016.02L1550.26 923.517L1205.46 777.4L1098.59 698.935L944.073 650.452L832.997 742.514Z" fill="#F87980"/>
<path d="M874.176 341.275L857.042 332.916L833.143 341.275L797.971 363.678H730.033L694.861 387.975C694.861 387.975 641.954 392.656 636.994 392.656C632.033 392.656 566.5 385.189 566.5 385.189L574.015 414.167L575.218 443.145L602.724 462.539L609.037 489.622L645.561 525.734L687.045 534.427L741.156 515.814L758.741 525.734L772.57 568.087L812.852 604.532L817.812 635.294L839.155 638.972L844.115 692.136L831.49 720.111L832.692 742.514L859.146 747.195H905.741L924.83 735.046L954.74 719.22L962.256 728.805L955.943 747.195L957.145 770.823L950.832 797.573L997.427 809.721L1028.84 838.7H1067.17L1114.97 821.87L1175.39 799.467L1185.46 838.7L1213.12 873.251L1220.63 906.799L1253.4 916.161L1301.2 932.99L1332.61 921.845L1371.69 936.78H1391.83L1533.57 875.145L1544.09 745.412L1420.84 488.842L1231.9 336.594C1231.9 336.594 1136.31 309.511 1123.68 308.619C1111.06 307.727 874.176 341.275 874.176 341.275Z" fill="#2C1E25"/>
<path d="M1384.62 121.04L1369.89 104.545L1206.51 110.006L1210.57 135.975L1206.51 152.805L1187.87 161.498H1158.56L1144.28 171.418H1107.31L1091.37 180.223L1076.34 187.579L1029.3 182.675L1008.4 168.297L961.358 162.724L925.134 146.118H889.211L863.208 166.514L894.321 184.57L895.975 201.957L925.134 211.876L960.606 228.706L998.333 248.545H1025.09L1021.78 277.858L1006.75 286.551L981.499 294.019L959.704 290.229L944.073 294.019L928.741 263.48L869.07 254.786L822.926 234.947L786.853 238.625L776.782 207.529V195.715L753.334 191.368L724.025 185.127L687.951 201.957L673.672 211.319V226.254L663.602 238.625L684.494 251.666L681.187 267.827L698.022 277.189L723.123 288.446L755.889 287.777L758.445 300.26H818.717L835.552 292.793L861.555 307.728H890.113L930.395 316.978L925.134 328.793H896.726L874.18 341.276L911.005 354.316L1024.04 369.251L1093.18 377.387L1121.58 410.378L1084.76 454.514L1078.9 474.464L1134.21 481.598L1153.45 461.981L1194.63 459.529L1229.05 475.022L1231.46 486.279L1281.81 504.557L1533.57 421.523L1473.15 219.344L1384.62 121.04Z" fill="#5C404E"/>
<path d="M1315.33 728.805L1352.76 736.941L1390.48 757.449L1467.29 763.022V789.214L1482.32 814.403L1501.86 822.762L1496.15 840.483L1469.84 858.204L1455.86 889.969L1429.56 906.799L1395.59 924.52L1391.83 936.557L1430.76 953.164L1445.94 971.108L1484.87 991.616L1501.86 1010.34L1506.67 1016.02L1569.65 1014.13L1687.04 1000.87L1818.55 981.362L1850.42 953.164L1819.61 892.421L1721.76 538.44L1579.27 525.734L1395.89 616.904L1309.62 697.375" fill="#FFCBC8"/>
<path d="M1384.62 121.04L1379.21 146.898L1402.65 178.105L1394.84 212.768L1360.57 235.839L1373.8 257.239L1365.98 280.31L1368.38 301.152L1375.45 322.551L1344.19 339.938L1354.26 362.452L1362.07 381.511C1362.07 381.511 1348.09 397.115 1344.19 400.013C1340.28 402.91 1334.87 428.879 1334.87 428.879L1330.21 448.496L1310.67 458.304L1299.7 499.319L1281.81 504.558L1297.44 518.378L1334.87 543.455L1356.66 553.04L1360.57 574.997L1352.75 592.941L1328.55 598.737L1348.09 613.784L1327.05 629.945L1306.76 655.356L1288.87 680.768L1315.33 728.694L1342.23 688.793L1380.86 682.997L1402.65 654.688L1422.8 652.681L1463.83 625.932L1480.06 621.808L1508.62 603.195L1542.14 587.369L1575.21 566.192L1600.31 563.74L1619.4 555.715L1721.75 538.44L1700.41 121.04L1582.27 66.6504L1567.24 72.8919L1478.56 90.2789L1455.56 136.979L1447.15 131.406L1440.08 163.728L1425.05 144.78L1418.74 162.502L1384.62 121.04Z" fill="#F87980"/>
<path d="M1550.25 38.6747L1624.2 20.619L1633.82 45.1391L1640.89 37.1144L1653.97 52.6066L1662.38 13.7088L1762.49 10.0308L1818.4 18.7243L1824.71 168.631L1811.19 239.628L1800.66 319.542L1805.62 378.836L1792.7 441.808V528.966L1805.02 666.613L1788.34 652.124L1783.23 688.235L1793.9 694.031L1788.79 710.192L1818.55 779.071L1850.42 871.133V953.164L1797.81 920.062L1782.63 916.718L1771.5 893.424L1761.43 899.331L1756.47 897.994L1749.11 906.799L1742.5 891.418L1723.41 912.594L1680.87 915.492L1652.91 925.412L1656.82 890.192L1689.29 735.492L1688.23 555.715L1661.93 368.025L1650.66 292.124L1661.33 249.882L1654.12 229.486L1641.19 247.319L1637.28 215.888L1599.85 121.263L1571.9 64.8667L1550.25 38.6747Z" fill="#CBBEBD"/>
<path d="M211.03 152.471L188.333 170.861L131.217 191.703L78.0088 203.517L12.6257 184.793L0 174.873L26.9048 285.325L33.0673 343.17L50.8034 328.235L59.0703 353.09L72.1469 350.972L42.3863 402.91L63.7298 466.328L66.7359 526.068L76.8064 632.731L86.8769 628.384L95.5946 635.183L88.9812 645.771L98.6007 649.56L89.2818 670.403L101.156 667.616L88.5303 702.725L101.457 791.331L89.2818 881.833L88.0793 932.211L101.457 918.613L109.423 940.013L111.226 954.39L120.846 946.254L118.291 969.214L96.9474 984.483L105.515 1021.49L109.122 1050.46L141.288 1069.41L199.306 1080L281.824 1062.28L346.004 1030.85L293.999 934.105L262.134 856.087L242.444 747.195L228.615 619.691L229.517 502.663L230.269 375.492L228.615 291.232L234.026 211.542L230.72 174.873L211.03 152.471Z" fill="#CBBEBD"/>
<path d="M1652.91 925.412L1660.58 940.681L1725.21 955.616H1786.09L1791.05 943.468L1796.46 919.728L1782.63 916.718L1771.51 893.424L1761.44 899.331L1756.47 897.994L1749.11 906.799L1742.5 891.418L1723.41 912.594L1680.87 915.492L1652.91 925.412Z" fill="#FFF1F0"/>
<path d="M211.03 152.471L190.438 139.988L138.432 134.081H103.261L81.9171 141.214L76.957 147.455L89.8833 200.842L131.218 191.703L188.334 170.861L211.03 152.471Z" fill="#FFF1F0"/>
<path d="M466.097 359.666C521.964 359.666 567.253 326.083 567.253 284.656C567.253 243.23 521.964 209.647 466.097 209.647C410.23 209.647 364.941 243.23 364.941 284.656C364.941 326.083 410.23 359.666 466.097 359.666Z" fill="#3F7AD3"/>
<path d="M466.095 342.279C509.012 342.279 543.803 316.48 543.803 284.656C543.803 252.833 509.012 227.034 466.095 227.034C423.178 227.034 388.387 252.833 388.387 284.656C388.387 316.48 423.178 342.279 466.095 342.279Z" fill="#F87980"/>
<path d="M494.657 321.214L508.636 458.861L452.722 323.22L365.544 389.982L428.673 308.619L229.367 326.564V319.096L432.581 276.743L324.661 214.997L431.98 255.232L425.366 126.279L476.771 252.335L566.203 181.003L508.636 270.613L658.04 260.582L511.492 298.366L612.648 367.579L494.657 321.214Z" fill="#FACABC"/>
<path d="M617.605 193.263L630.682 181.672L639.7 168.632L651.424 172.533L659.391 172.421L669.311 168.632L674.872 161.387L688.7 164.285L703.28 161.387L716.206 150.576L723.421 155.592L752.58 158.712L743.562 161.164L719.964 158.267L716.657 155.48L706.587 165.288L690.805 167.517L678.93 165.065L671.565 171.976L655.032 177.102L643.458 175.208L633.237 184.681L617.605 193.263Z" fill="#2E5A9C"/>
<path d="M656.684 198.947L669.911 188.693L680.582 177.659L695.913 179.108L721.616 179.442L714.702 183.12L695.312 183.455L685.091 181.449L674.871 191.257L662.095 198.947H656.684Z" fill="#2E5A9C"/>
<path d="M257.773 195.269L270.399 187.022L277.163 172.31L290.54 174.316L305.12 171.307L312.034 159.604L322.405 164.842L332.175 161.944L343.748 150.353L355.472 154.923L388.389 155.034L385.383 158.378L360.733 159.604L346.003 157.598L336.383 166.068L326.313 168.966L315.641 166.068L310.982 174.985L295.049 180.223L282.724 177.437L277.464 188.025L267.092 195.269H257.773Z" fill="#2E5A9C"/>
<path d="M304.215 206.526L308.423 198.167L318.193 181.226L321.35 175.765L332.172 180.78H355.169L370.199 179.777L364.939 183.901L349.607 185.35L332.172 185.127L325.258 182.675L321.801 191.145L312.933 199.839L304.215 206.526Z" fill="#2E5A9C"/>
<path d="M637.297 356.657L645.714 349.189L655.484 336.483L665.254 339.381L680.886 342.279L689.603 339.604L694.864 330.242L703.882 337.932L714.705 339.158L724.324 330.242L733.493 336.706L743.263 338.601L759.496 339.047L756.49 342.279H742.211L729.585 339.381L725.978 336.26L720.566 342.279L712.45 344.397L702.981 342.279L698.472 338.378L694.113 343.505L685.695 346.068H674.423L666.156 343.505H660.444L650.674 350.638L637.297 356.657Z" fill="#2E5A9C"/>
<path d="M666.906 369.251L675.023 362.786L681.185 356.545L686.747 348.854L695.164 351.307L706.587 351.975L719.213 352.421V356.545H709.744L700.425 355.542L691.256 353.647L689.001 357.548L682.538 362.563C682.538 362.563 675.774 369.808 675.023 369.251C674.271 368.693 666.906 369.251 666.906 369.251Z" fill="#2E5A9C"/>
<path d="M275.512 431.443L321.656 419.851L324.061 410.155L357.729 402.464L360.435 411.158L351.266 424.198L295.803 440.025L275.512 431.443Z" fill="#2C1E25"/>
<path d="M332.175 408.26L312.936 356.21L300.911 363.678L295.801 382.291L303.617 411.158L326.313 406.365L327.365 409.375L332.175 408.26Z" fill="#2C1E25"/>
<path d="M285.735 387.307L301.518 424.867L295.806 426.316L293.702 420.297L281.827 422.972L288.591 411.158L273.711 413.61L285.735 387.307Z" fill="#2C1E25"/>
<path d="M373.358 421.189L360.432 424.198L344.199 421.189L335.18 428.768L326.913 427.765L317.895 435.678L305.871 433.115L287.684 448.05H291.892L307.073 437.127L317.895 440.025L330.521 431.443H340.591L346.002 426.316L357.125 427.765L373.358 425.424V421.189Z" fill="#2E5A9C"/>
<path d="M327.518 441.474L317.898 449.944L322.708 452.619L327.518 446.043H344.202L348.11 442.923L327.518 441.474Z" fill="#2E5A9C"/>
<path d="M275.512 431.443L244.398 425.312V429.213L287.687 435.566L275.512 431.443Z" fill="#2C1E25"/>
<path d="M993 437L1005.75 454L1018.5 471" stroke="#FFF1F0" stroke-width="7"/>
<path d="M1018.5 442L1005.75 459L993 476" stroke="#FFF1F0" stroke-width="7"/>
<path d="M685 464L697.75 481L710.5 498" stroke="#5C404E" stroke-width="7"/>
<path d="M710.5 469L697.75 486L685 503" stroke="#5C404E" stroke-width="7"/>
<path d="M759 464L912.187 435L990 450.159" stroke="#FFF1F0" stroke-width="7" stroke-dasharray="18 18"/>
<path d="M741 454L723.5 482L768.5 491.5" stroke="#FFF1F0" stroke-width="6"/>
</g>
<defs>
<clipPath id="clip0">
<rect width="1891" height="1080" fill="white"/>
</clipPath>
</defs>
</svg>
