<svg width="55" height="47" fill="none" xmlns="http://www.w3.org/2000/svg"><g filter="url(#filter0_d)"><g clip-path="url(#clip0)"><path d="M53.106 32.4l-.83-2.81.14-.66-.3-.237.14-1.474.471.591-.345-5.618v-3.553l.362-2.575-.139-2.42.3-3.262.374-2.894-.177-6.118-1.567-.36-2.805.15-.236 1.588-.367-.637-.198.332-.27-1-2.068.736.603 1.07.071.204-.202.123-2.485.71-.645 1.906-.236-.228-.198 1.32-.421-.774-.152.619-.977-1.583-.413-.673-4.583.222-.392.019-7.852-.15-3.4-.255-.294.396-.236-.05-.375.34-.308-.381-.505 1.028-.072-.76-.295.064-.151-.191-.19.113v-.6l-6.685-.56-2.587-.063-.118.66-.118.786-.4.455-.139-1.023-.341.455-.118-.178-.177.205-.14-.396-.538-.887-1.858-.077-4.684.91-1.601 1.219-.24 1.565.754 4.508.177 2.361.493-.61.235 1.015.367-.09-.834 2.119.598 2.589.084 2.438.282 4.354.283-.178.248.278-.19.432.27.15-.257.85.329-.113-.354 1.433.367 3.617-.342 3.694-.033 2.056.375-.56.223.879.046.582.27-.332-.072.942-.598.623.24 1.51.101 1.183.906.774 1.622.432 2.317-.724 1.798-1.282-.27-.728 4.883-.173 1.618-.046.922-1.16.337.405.24-.191.169.236.581-.655.287 1.22.311.05.038.223 1.096.118 1.457-.046 2.212.046 3.585.027.387-.878.287.287.16-.132.139.205.324-.342.22.806.252-.223.19.464 3.117-.15 2.346.068.898-2.043.029 1.201.345-.382.194.796.118-.214.169.792h1.095l4.17-.15.62-.028 1.76-.077 3.29-.541 3.682-.796.893-1.151v-3.353l-.889-3.753z" fill="#DFC158"/><path d="M52.863 39.916l-.893 1.151-3.682.796-3.29.541-2.384.1-4.17.15h-1.096l-.169-.79-.117.213-.194-.796-.346.382-.03-1.201-.905 2.052-2.346-.069-3.118.15-.19-.463-.252.223-.219-.806-.324.341-.14-.204-.16.132-.286-.287-.387.878-3.585-.027-2.212-.046-1.457.046-1.096-.118-.038-.223-.311-.05-.287-1.22-.581.655-.169-.236-.24.19-.337-.404-.922 1.16-1.618.046-1.399-.046-1.352.127-2.25.1-2.653-7.133-.927-5.195-.093-6.16.565-6.45-.046-6.552-5.692-1.629-.463-1.096.24-1.57 1.6-1.219 1.951-.364 2.734-.541 1.858.077.54.887.138.396.177-.205.118.178.341-.455.14 1.028.4-.455.117-.787.118-.66 2.587.064 4.09.355 2.6.205v.596l.189-.114.152.191.295-.064.071.76.506-1.028.307.382.375-.341.236.05.295-.396s3.361.255 3.4.255l7.852.15 4.97-.241.413.673.295.8.657.888.177-.723.421.773.198-1.32.236.228.645-1.906 2.481-.71.421-.254 4.209 6.055.61 14.93.33 9.7 2.37 5.5z" fill="#FACABC"/><path d="M12.359 42.277l-2.047.086-4.461-2.26-1.016-28.389-3.833-3.566.198-1.615 1.6-1.215 4.727-.864 1.858.077.54.887.142.396.173-.205.118.178.341-.455.143 1.028.4-.46.194-1.492 2.625.11 6.732.513-.038.596.185-.068.152.191.295-.063.071.76.506-1.029.303.382.38-.39.23.1.296-.442 3.4.3" fill="#FD6"/><path d="M26.573 5.368l7.852.15.392-.018 2.89 2.357L23.784 25.68l-8.467 16.505-5.005.177" fill="#FD6"/><path d="M2.804 14.044l.232 1.014.366-.086-.834 2.12.599 2.589.084 2.438.282 4.354.282-.178.245.278-.186.432.27.155-.261.85.332-.113-.353 1.433.362 3.617-.341 3.694-.034 2.056.375-.555.223.873.05.587.27-.332-.071.937-.598.623.24 1.51.1 1.184.902.773 1.626.432 2.313-.723 1.799-1.283-1.458-3.949-.893-3.184-.552-4.445-.387-5.204.025-4.777.021-5.191-.046-3.44.151-3.252-.092-1.497-.552-.914-.577-.51L5.26 6.12h-.986l-.598.291-.139.255.363 2.18 1.158-.374" fill="#D5B751"/><path d="M11.618 38.975l-.636-1.029.32-1.182-.602-.951v-1.715l-.421-.569-.143-.8v-.951l.741.532.46-.878.281-.419-.74-.455-.355.2.354-1.078-.564-.646.26-1.474h-.8l.329-1.137-.164-.26.758-2.693h-.312l.316-.91-.004-.664.004-.505-.341-.636.682-.71h.847l.329-1.015.215-.891.728-.128h.822l.754.128.893-.128.821-.582.422-.696 5.29 2.73 3.788 5.94 1.129 7.389-4.188 6.574-3.07 1.501-.784-.396-3.033.396-4.386-1.892z" fill="#C6AA48"/><path d="M19.819 42.273l-.038-.223-.312-.05-.286-1.22-.581.655-.169-.236-.24.19-.337-.404-.923 1.16-1.617.046-1.399-.046-1.558.137.577-1.502-.73-.637-.589-1.169s.388-.305.493-.305c.105 0 1.26.574 1.26.574l1.386.395 1.036-.027s.695.455.729.469c.033.013 1.386 0 1.386 0l1.188-.519.42.446.637.532-.105.532-.228 1.202z" fill="#EBCC5E"/><path d="M24.349 31.318l-.527 1.637-.741.496-.952 1.41v1.029l-.708.723v1.178l-.952.574.177 1.551-.598.469v.682l-.228 1.206 1.096.118 1.457-.046 5.797.069.387-.874.29.282.157-.132.143.205.324-.346.215.81.253-.223.19.464 3.113-.154 2.346.068.901-2.043.03 1.201.345-.382.194.796.118-.218.169.791 5.885-.177 1.221-3.776-9.663-5.964-2.996-3.203-4.33-1.979-3.113 3.758z" fill="#EBCC5E"/><path d="M25.502 14.94l-.48-.341-.67.341-.986.914h-1.904l-.986.992s-1.482.191-1.621.191c-.14 0-1.976-.305-1.976-.305l.21 1.183.034 1.183.771.792.177 1.105 1.024 1.474 1.162.355 1.517-.76.493.405.387 1.729 1.13 1.488.138 1.255.598.15.14 2.17-.354 1.142.033.915.742.19h1.306l.535-.495.838-.646.21.391-.176.75.033.965-.177 1.092 1.306.496.88 1.183h1.075l1.34-.687 1.693-.915.282 1.602.775 1.41.211 1.37.918.382 1.34.686.88-.454 1.096.61h.564l3.973-2.517.294-5.295-3.454-10.473-5.295-6.214s-2.68-1.106-3.033-1.142c-.354-.036-6.993 1.333-6.993 1.333z" fill="#D4B751"/><path d="M39.807 5.95l-.413-.673-4.579.223.114 1.06-.114.687-.522.355h-.821l-.4.405h-1.037l-.446.36-.422.3-1.318-.2-.586-.588-1.318-.227-1.015-.678h-1.007l-.73.833.873.737.046.71.818.404.994.687 1.057.81h.75l-.093 1.197-.421.354-.708.305-.61-.154-.439.154-.43-1.246-1.672-.355-1.293-.81-1.011.15-.282-1.27V9l-.657-.178-.822-.255-1.011.687-.4.383v.61l-.282.504.585.532-.092.66.471.382.704.46.918-.028.072.51h1.689l.472-.305.729.61h.8l1.129.377-.148.482h-.796l-.632.51 1.032.532 3.168.61 1.938.332.796 1.347-1.032 1.801-.164.814 1.55.292.54-.801 1.154-.1.964.632.068.46 1.41.746 7.057-3.39-1.694-8.252-2.48-4.012z" fill="#EBCC5E"/><path d="M37.865 30.758l1.05.332 1.056.837 2.153.228v1.069l.421 1.028.548.341-.16.723-.737.724-.392 1.296-.737.687-.952.724-.106.491 1.091.678.426.732 1.09.837.477.765.135.232 1.765-.078 3.29-.541 3.686-.796.893-1.151-.864-2.48-2.742-14.448-3.994-.519-5.139 3.721-2.418 3.285" fill="#FD6"/><path d="M39.807 5.95l-.151 1.056.657 1.274-.22 1.415-.96.941.37.874-.218.942.067.85.198.874-.876.71.282.919.22.777s-.393.637-.502.756c-.11.118-.261 1.178-.261 1.178l-.13.8-.548.4-.308 1.675-.501.214.438.564 1.049 1.024.61.39.11.897-.219.732-.678.237.547.614-.59.66-.568 1.037-.501 1.037.741 1.957.754-1.63 1.083-.236.61-1.155.565-.082 1.15-1.092.455-.168.8-.76.94-.646.927-.864.703-.1.535-.328 2.869-.705-.598-17.037-3.311-2.22-.422.254-2.485.71-.645 1.906-.235-.227-.198 1.319-.422-.773-.177.723-.956-1.692z" fill="#C6AA48"/><path d="M44.45 2.589l2.072-.737.27 1 .197-.327.367.632.236-1.587 2.805-.15 1.567.354.177 6.12-.379 2.897-.295 3.262.14 2.42-.363 2.57v3.558l.346 5.619-.468-.592-.143 1.474.299.237-.143.66.834 2.81.893 3.759v3.348l-1.475-1.351-.425-.137-.312-.95-.282.24-.14-.054-.206.36-.185-.628-.535.864-1.192.118-.784.405.11-1.437.91-6.315-.03-7.338-.737-7.661-.316-3.098.3-1.724-.203-.833-.362.728-.11-1.283L45.84 5.96l-.783-2.302-.607-1.07z" fill="#D4B751"/><path d="M6.916 7.234l-.636.75-1.6.85-1.492.483-1.832-.764-.354-.405.754 4.508.173 2.361.497-.61.231 1.015.367-.086-.834 2.12.598 2.588.084 2.439.283 4.354.282-.178.244.278-.185.432.27.155-.262.85.333-.113-.354 1.433.362 3.616-.34 3.694-.034 2.057.374-.555.224.873.05.587.27-.332-.072.937-.598.623.24 1.51.101 1.184.902.773 1.626.432L8.9 44.37l1.8-1.283-1.458-3.949-.893-3.184-.552-4.445-.388-5.205.026-4.776.02-5.191-.046-3.44.152-3.252-.093-1.497-.552-.914z" fill="#DFC158"/><path d="M47.328 38.783l.215.623 1.811.61h1.706l.14-.496.151-.969-.387-.123-.312-.95-.282.24-.14-.054-.206.36-.185-.629-.535.865-1.192.118-.784.405zM6.916 7.234l-.577-.51-1.458-.24h-.986l-.598.29-.139.255.362 2.18 1.159-.374 1.6-.85.637-.751z" fill="#EBCC5E"/></g></g><defs><clipPath id="clip0"><path fill="#fff" transform="translate(1.002 1.01)" d="M0 0h52.998v44.083H0z"/></clipPath><filter id="filter0_d" x=".002" y=".01" width="54.998" height="46.083" filterUnits="userSpaceOnUse" color-interpolation-filters="sRGB"><feFlood flood-opacity="0" result="BackgroundImageFix"/><feColorMatrix in="SourceAlpha" values="0 0 0 0 0 0 0 0 0 0 0 0 0 0 0 0 0 0 127 0"/><feOffset/><feGaussianBlur stdDeviation=".5"/><feColorMatrix values="0 0 0 0 0 0 0 0 0 0 0 0 0 0 0 0 0 0 0.25 0"/><feBlend in2="BackgroundImageFix" result="effect1_dropShadow"/><feBlend in="SourceGraphic" in2="effect1_dropShadow" result="shape"/></filter></defs></svg>