<svg id="eyklw97s3d8a1" xmlns="http://www.w3.org/2000/svg" viewBox="0 0 514 654" shape-rendering="geometricPrecision" text-rendering="geometricPrecision"><g id="eyklw97s3d8a2" stroke="none" stroke-width="1"><path id="eyklw97s3d8a3" d="M509.9 654l-82.3-495.4-364.1-11.5L147.9 654h241.5l84.1-17 5.8 17h30.6z" fill="#5C404E"/><path id="eyklw97s3d8a4" d="M63.5 147.1l-12.1-.1L0 638.5l19.3-3.2 5.7-48.8 109.4-17.1-70.9-422.3z" fill="#2C1E25"/><path id="eyklw97s3d8a5" d="M98.1 173.9l312 5.5 66.2 416.3-297.8 54.6-80.4-476.4z" fill="#F87980"/><path id="eyklw97s3d8a6" d="M68.2 206.3l55.7 348.1-102 15.5 46.3-363.6z" fill="#A75155"/><path id="eyklw97s3d8a7" d="M160.8 314.1c2.5-.3 4.5.2 6 1.4s2.4 3.2 2.7 5.8c.4 3.1-.1 5.5-1.4 7.3-1.3 1.8-3.4 2.9-6.1 3.2-.8.1-1.9.2-3 .3-1.2.1-2.2.2-3 .2l-.4-5.2L154 315l6.8-.9zm1.5 14.7c2.8-.3 4-2.4 3.6-6.3-.3-2.1-.8-3.6-1.6-4.5-.8-.9-1.9-1.2-3.4-1.1-.9.1-2 .3-3 .5l.9 8.9.4 2.6c1.2.1 2.3 0 3.1-.1zm19.6-5.5l-7.2.9c.4 2.2 1.7 3.2 3.8 2.9 1.1-.1 2.3-.6 3.6-1.4l.3.2-.2 2.7c-1.3.7-2.5 1.1-3.7 1.2-2 .2-3.6-.2-4.8-1.2-1.2-1-2-2.5-2.2-4.5-.2-2 .1-3.6 1.1-4.9.9-1.3 2.4-2.1 4.2-2.3 1.6-.2 2.9.1 3.8.9 1 .8 1.6 1.9 1.7 3.5 0 .4.1.9.1 1.6l-.5.4zm-2.9-2.1c-.1-.7-.3-1.2-.7-1.6-.4-.3-.9-.5-1.5-.4-.7.1-1.2.4-1.7.9-.4.5-.6 1.2-.7 2.1l4.5-.6.1-.4zm11.6-3.8l2.4 6.8h.2l1.1-7 .2-2.1 3.5-.4.5 1.8 2.4 6.8h.2l1-7 .2-2.1 3-.4-2.4 12.9-3.4.4-2.9-7.8h-.2l-1.3 8.3-3.5.4-4.7-12 3.2-.5.5 1.9zm17.4 3.4l-1-7.1 3.5-.7.7 7 .8 5.5-3.6.4-.4-5.1zm.1-13.6c.6-.1 1 0 1.3.3.4.3.6.7.6 1.3.1.6 0 1.1-.3 1.5-.3.4-.7.6-1.3.7-.6.1-1.1 0-1.4-.3-.3-.3-.5-.7-.6-1.3-.1-.6 0-1.1.3-1.5.3-.4.8-.6 1.4-.7zm14 9.3c-.1-.6-.3-1.1-.6-1.4-.3-.3-.8-.5-1.3-.4-.8.1-1.6.6-2.4 1.5l.4 3.1.8 5.5-3.6.4-.4-5.2-1-7.1 3.3-.7.2 1.8h.2c.9-1 1.9-1.8 3-2.3 1.4-.2 2.4 0 3.2.6.8.5 1.2 1.4 1.3 2.5l.3 3.6.8 5.5-3.6.4-.6-7.8zm14-1.7c-.1-.6-.3-1.1-.6-1.4-.3-.3-.8-.5-1.3-.4-.8.1-1.6.6-2.4 1.5l.4 3.1.8 5.5-3.6.4-.4-5.2-1-7.1 3.3-.7.2 1.8h.2c.9-1 1.9-1.8 3-2.3 1.4-.2 2.4 0 3.2.6.8.5 1.2 1.4 1.3 2.5l.3 3.6.8 5.4-3.6.4-.6-7.7zm10.9-6.3c1.4-.2 2.5 0 3.3.6.9.5 1.4 1.3 1.5 2.4 0 .3.1 1.3.2 3.1 0 .5.1 1 .1 1.6 0 .5.1 1 .1 1.3 0 .3.1.5.2.6.1.1.3.1.5.1s.4-.1.7-.2l.3.2-.1 1.9c-.5.4-1.2.7-1.9.9-.5 0-1-.1-1.4-.4-.4-.3-.7-.7-.9-1.3h-.2c-.8 1.1-1.6 1.8-2.5 2.3-1.3.1-2.3-.1-3.2-.7-.8-.6-1.3-1.4-1.4-2.6-.1-.9 0-1.6.4-2.2.4-.6 1.1-1 2-1.3l4-1.3-.1-1.1c-.1-1.2-.8-1.7-1.9-1.5-.6.1-1.1.3-1.7.6-.6.3-1.2.8-1.9 1.4l-.3-.1-.7-2.3c.7-.6 1.5-1 2.3-1.4.8-.2 1.7-.5 2.6-.6zm-.9 7.9c-.3.1-.5.3-.6.5-.1.2-.1.4-.1.8.1.5.2.8.5 1.1.3.2.6.3 1.1.2.7-.1 1.4-.6 2.1-1.5l-.2-2-2.8.9zm13.8-9.4c1.4-.2 2.5 0 3.3.6.9.5 1.4 1.3 1.5 2.4 0 .3.1 1.3.2 3.1 0 .5.1 1 .1 1.6 0 .5.1 1 .1 1.3 0 .3.1.5.2.6.1.1.3.1.5.1s.4-.1.7-.2l.3.2-.1 1.9c-.5.4-1.2.7-1.9.9-.5 0-1-.1-1.4-.4-.4-.3-.7-.7-.9-1.3h-.2c-.8 1.1-1.6 1.8-2.5 2.3-1.3.1-2.3-.1-3.2-.7-.8-.6-1.3-1.4-1.4-2.6-.1-.9 0-1.6.4-2.2.4-.6 1.1-1 2-1.3l4-1.3-.1-1.1c-.1-1.2-.8-1.7-1.9-1.5-.6.1-1.1.3-1.7.6-.6.3-1.2.8-1.9 1.4l-.3-.1-.7-2.3c.7-.6 1.5-1 2.3-1.4.8-.3 1.7-.5 2.6-.6zm-.9 7.9c-.3.1-.5.3-.6.5-.1.2-.1.4-.1.8.1.5.2.8.5 1.1.3.2.6.3 1.1.3.7-.1 1.4-.6 2.1-1.5l-.2-2-2.8.8zm15.6-9.5h.7l.4 3.3-.4.2c-.3-.1-.7-.1-1-.1-1 .1-1.9.9-2.6 2.3l.2 1.7.8 5.5-3.6.4-.4-5.2-1-7.1 3.3-.7.3 2.4h.2c.8-1.6 1.8-2.5 3.1-2.7zm13.2-1.7c1.6-.2 2.8.2 3.8 1.2s1.6 2.4 1.8 4.3c.3 2.2-.1 4-1 5.3-1 1.3-2.4 2.1-4.3 2.3-.9.1-1.9 0-3.1-.3l-1.8.9-.5-.3-.4-5.1-1.8-13.4 3.5-.7.9 8.1h.2c.4-.5.9-1 1.3-1.3.4-.4.9-.7 1.4-1zm0 10.7c.9-.1 1.6-.5 2-1.2.4-.7.6-1.7.4-3-.1-1.2-.5-2.1-1-2.7-.5-.6-1.1-.8-1.9-.8-.7.1-1.5.6-2.2 1.4l.3 3.1.4 3c.7.2 1.4.3 2 .2zm11.7-4.8l.8 5.5-3.6.4-.4-5.2-1.8-13.4 3.5-.7 1.5 13.4zm13.1-1.9l-7.2.9c.4 2.2 1.7 3.2 3.8 2.9 1.1-.1 2.3-.6 3.6-1.4l.3.2-.2 2.7c-1.3.7-2.5 1.1-3.7 1.2-2 .2-3.6-.2-4.8-1.2-1.2-1-2-2.5-2.2-4.5-.2-2 .1-3.6 1.1-4.9.9-1.3 2.4-2.1 4.2-2.3 1.6-.2 2.9.1 3.8.9 1 .8 1.6 1.9 1.7 3.5 0 .4.1.9.1 1.6l-.5.4zm-2.8-2.1c-.1-.7-.3-1.2-.7-1.6-.4-.3-.9-.5-1.5-.4-.7.1-1.2.4-1.7.9-.4.5-.6 1.2-.7 2.1l4.5-.6.1-.4zm15.5.6l-7.2.9c.4 2.2 1.7 3.2 3.8 2.9 1.1-.1 2.3-.6 3.6-1.4l.3.2-.2 2.7c-1.3.7-2.5 1.1-3.7 1.2-2 .2-3.6-.2-4.8-1.2-1.2-1-2-2.5-2.2-4.5-.2-2 .1-3.6 1.1-4.9 1-1.3 2.4-2.1 4.2-2.3 1.6-.2 2.9.1 3.8.9 1 .8 1.6 1.9 1.7 3.5 0 .4.1.9.1 1.6l-.5.4zm-2.9-2.1c-.1-.7-.3-1.2-.7-1.6-.4-.3-.9-.5-1.5-.4-.7.1-1.2.4-1.7.9-.4.5-.6 1.2-.7 2.1l4.5-.6.1-.4zm9.3 1.6l.8 5.5-3.6.4-.4-5.2-1.8-13.4 3.5-.7 1.5 13.4zm3.5-1.8c1.1 1.4 2.8 3.3 5.1 5.7v.4c-.6.2-1.3.4-2 .6-.7.2-1.1.3-1.3.3l-.4-.1c-1.8-2-3.5-4.1-4.9-6.1v-.2l2.6-4.8.5-1.4 3.8-.4-3.4 6zM166 355.4c-.1-.6-.3-1.1-.6-1.4-.3-.3-.8-.5-1.3-.4-.8.1-1.6.6-2.4 1.5l.4 3.1.8 5.5-3.6.4-.4-5.2-1-7.1 3.3-.7.2 1.8h.2c.9-1 1.9-1.8 3-2.3 1.4-.2 2.4 0 3.2.6.8.5 1.2 1.4 1.3 2.5l.3 3.6.8 5.4-3.6.4-.6-7.7zm7.1 1.8l-1-7.1 3.5-.7.7 7 .8 5.5-3.6.4-.4-5.1zm.1-13.6c.6-.1 1 0 1.3.3.4.3.6.7.6 1.3.1.6 0 1.1-.3 1.5-.3.4-.7.6-1.3.7-.6.1-1.1 0-1.4-.3-.3-.3-.5-.7-.6-1.3-.1-.6 0-1.1.3-1.5.3-.4.8-.6 1.4-.7zm16.2 11l-7.2.9c.4 2.2 1.7 3.2 3.8 2.9 1.1-.1 2.3-.6 3.6-1.4l.3.2-.2 2.7c-1.3.7-2.5 1.1-3.7 1.2-2 .2-3.6-.2-4.8-1.2-1.2-1-2-2.5-2.2-4.5-.2-2 .1-3.6 1.1-4.9.9-1.3 2.4-2.1 4.2-2.3 1.6-.2 2.9.1 3.8.9 1 .8 1.6 1.9 1.7 3.5 0 .4.1.9.1 1.6l-.5.4zm-2.9-2.1c-.1-.7-.3-1.2-.7-1.6-.4-.3-.9-.5-1.5-.4-.7.1-1.2.4-1.7.9-.4.5-.6 1.2-.7 2.1l4.5-.6.1-.4zm21.5 5.8l-.7-7.8c-.2-1.3-.8-1.9-1.9-1.8-.8.1-1.6.6-2.4 1.4l.3 3.2.8 5.5-3.6.4-.7-7.8c-.1-.6-.3-1.1-.6-1.4-.3-.3-.8-.4-1.3-.4-.8.1-1.6.6-2.5 1.4l.4 3.1.8 5.5-3.5.4-.4-5.2-1-7.1 3.3-.7.2 1.8h.2c.9-1 1.9-1.8 3-2.3 2-.2 3.4.3 4.1 1.6h.2c.9-1.1 2-1.9 3.2-2.4 1.4-.2 2.4 0 3.2.6.8.5 1.2 1.4 1.3 2.5l.3 3.6.8 5.5-3.5.4zm10.1-14.1c1.4-.2 2.5 0 3.3.6.9.5 1.4 1.3 1.5 2.4 0 .3.1 1.3.2 3.1 0 .5.1 1 .1 1.6 0 .5.1 1 .1 1.3 0 .3.1.5.2.6.1.1.3.1.5.1s.4-.1.7-.2l.3.2-.1 1.9c-.5.4-1.2.7-1.9.9-.5 0-1-.1-1.4-.4-.4-.3-.7-.7-.9-1.3h-.2c-.8 1.1-1.6 1.8-2.5 2.3-1.3.1-2.3-.1-3.2-.7-.8-.6-1.3-1.4-1.4-2.6-.1-.9 0-1.6.4-2.2.4-.6 1.1-1 2-1.3l4-1.3-.1-1.1c-.1-1.2-.8-1.7-1.9-1.5-.6.1-1.1.3-1.7.6-.6.3-1.2.8-1.9 1.4l-.3-.1-.7-2.3c.7-.6 1.5-1 2.3-1.4.9-.3 1.7-.5 2.6-.6zm-.8 7.9c-.3.1-.5.3-.6.5-.1.2-.1.4-.1.8.1.5.2.8.5 1.1.3.2.6.3 1.1.2.7-.1 1.4-.6 2.1-1.5l-.2-2-2.8.9zm16.9-4.8c-.1-.6-.3-1.1-.6-1.4-.3-.3-.8-.5-1.3-.4-.8.1-1.6.6-2.4 1.5l.4 3.1.8 5.5-3.6.4-.4-5.2-1-7.1 3.3-.7.2 1.8h.2c.9-1 1.9-1.8 3-2.3 1.4-.2 2.4 0 3.2.6.8.5 1.2 1.4 1.3 2.5l.3 3.6.8 5.5-3.6.4-.6-7.8zm17.2.2l.3 2.2c0 .3.1.5.2.6.1.1.3.1.5.1s.4-.1.7-.2l.3.2-.1 1.9c-.6.4-1.2.8-1.9.9-.6 0-1-.1-1.5-.4-.4-.3-.7-.7-.9-1.2h-.2c-.8.9-1.6 1.6-2.5 2.2-1.8.2-3.2-.2-4.3-1.2-1.1-1-1.8-2.5-2-4.5-.3-2.1.1-3.8 1.1-5.1 1-1.3 2.4-2 4.4-2.2.5-.1 1.1-.1 1.7 0l-.8-6 3.5-.7 1.5 13.4zm-5.8-4.1c-1.8.2-2.5 1.5-2.3 3.7.2 1.4.5 2.5 1 3.1.5.7 1.2.9 2 .8.8-.1 1.5-.5 2-1.4l-.1-1.5-.6-4.6c-.7-.1-1.4-.2-2-.1zm29.2 6.9l-.7-7.8c-.2-1.3-.8-1.9-1.9-1.8-.8.1-1.6.6-2.4 1.4l.3 3.2.8 5.5-3.6.4-.7-7.8c-.1-.6-.3-1.1-.6-1.4-.3-.3-.8-.4-1.3-.4-.8.1-1.6.6-2.5 1.4l.4 3.1.8 5.5-3.5.4-.4-5.2-1-7.1 3.3-.7.2 1.8h.2c.9-1 1.9-1.8 3-2.3 2-.2 3.4.3 4.1 1.6h.2c.9-1.1 2-1.9 3.2-2.4 1.4-.2 2.4 0 3.2.6.8.5 1.2 1.4 1.3 2.5l.3 3.6.8 5.5-3.5.4zm6.3-6l-1-7.1 3.5-.7.7 7 .8 5.5-3.6.4-.4-5.1zm.1-13.6c.6-.1 1 0 1.3.3.4.3.6.7.6 1.3.1.6 0 1.1-.3 1.5-.3.4-.7.6-1.3.7-.6.1-1.1 0-1.4-.3-.3-.3-.5-.7-.6-1.3-.1-.6 0-1.1.3-1.5.3-.4.8-.6 1.4-.7zm14 9.3c-.1-.6-.3-1.1-.6-1.4-.3-.3-.8-.5-1.3-.4-.8.1-1.6.6-2.4 1.5l.4 3.1.8 5.5-3.6.4-.4-5.2-1-7.1 3.3-.7.2 1.8h.2c.9-1 1.9-1.8 3-2.3 1.4-.2 2.4 0 3.2.6.8.5 1.2 1.4 1.3 2.5l.3 3.6.8 5.4-3.6.4-.6-7.7zm17.2.2l.3 2.2c0 .3.1.5.2.6.1.1.3.1.5.1s.4-.1.7-.2l.3.2-.1 1.9c-.6.4-1.2.8-1.9.9-.6 0-1-.1-1.5-.4-.4-.3-.7-.7-.9-1.2h-.2c-.8.9-1.6 1.6-2.5 2.2-1.8.2-3.2-.2-4.3-1.2-1.1-1-1.8-2.5-2-4.5-.3-2.1.1-3.8 1.1-5.1 1-1.3 2.4-2 4.4-2.2.5-.1 1.1-.1 1.7 0l-.8-6 3.5-.7 1.5 13.4zm-5.8-4.1c-1.8.2-2.5 1.5-2.3 3.7.2 1.4.5 2.5 1 3.1.5.6 1.2.9 2 .8.8-.1 1.5-.5 2-1.4l-.1-1.5-.6-4.6c-.7-.1-1.4-.2-2-.1zm19.1 2.3l-7.2.9c.4 2.2 1.7 3.2 3.8 2.9 1.1-.1 2.3-.6 3.6-1.4l.3.2-.2 2.7c-1.3.7-2.5 1.1-3.7 1.2-2 .2-3.6-.2-4.8-1.2-1.2-1-2-2.5-2.2-4.5-.2-2 .1-3.6 1.1-4.9.9-1.3 2.4-2.1 4.2-2.3 1.6-.2 2.9.1 3.8.9 1 .8 1.6 1.9 1.7 3.5 0 .4.1.9.1 1.6l-.5.4zm-2.9-2.1c-.1-.7-.3-1.2-.7-1.6-.4-.3-.9-.5-1.5-.4-.7.1-1.2.4-1.7.9-.4.5-.6 1.2-.7 2.1l4.5-.6.1-.4zm12-5.8h.7l.4 3.3-.4.2c-.3-.1-.7-.1-1-.1-1 .1-1.9.9-2.6 2.3l.2 1.7.8 5.5-3.6.4-.4-5.2-1-7.1 3.3-.7.3 2.4h.2c.8-1.6 1.8-2.6 3.1-2.7zm17.7 5l.3 2.2c0 .3.1.5.2.6.1.1.3.1.5.1s.4-.1.7-.2l.3.2-.1 1.9c-.6.4-1.2.8-1.9.9-.6 0-1-.1-1.5-.4-.4-.3-.7-.7-.9-1.2h-.2c-.8.9-1.6 1.6-2.5 2.2-1.8.2-3.2-.2-4.3-1.2-1.1-1-1.8-2.5-2-4.5-.3-2.1.1-3.8 1.1-5.1 1-1.3 2.4-2 4.4-2.2.5-.1 1.1-.1 1.7 0l-.8-6 3.5-.7 1.5 13.4zm-5.8-4.2c-1.8.2-2.5 1.5-2.3 3.7.2 1.4.5 2.4 1 3.1.5.7 1.2.9 2 .8.8-.1 1.5-.5 2-1.4l-.1-1.5-.6-4.6c-.7-.1-1.4-.2-2-.1zm13.6-4.1c1.4-.2 2.5 0 3.3.6.9.5 1.4 1.3 1.5 2.4 0 .3.1 1.3.2 3.1 0 .5.1 1 .1 1.6 0 .5.1 1 .1 1.3 0 .3.1.5.2.6.1.1.3.1.5.1s.4-.1.7-.2l.3.2-.1 1.9c-.5.4-1.2.7-1.9.9-.5 0-1-.1-1.4-.4-.4-.3-.7-.7-.9-1.3h-.2c-.8 1.1-1.6 1.8-2.5 2.3-1.3.1-2.3-.1-3.2-.7-.8-.6-1.3-1.4-1.4-2.6-.1-.9 0-1.6.4-2.2.4-.6 1.1-1 2-1.3l4-1.3-.1-1.1c-.1-1.2-.8-1.7-1.9-1.5-.6.1-1.1.3-1.7.6-.6.3-1.2.8-1.9 1.4l-.3-.1-.7-2.3c.7-.6 1.5-1 2.3-1.4.8-.2 1.7-.5 2.6-.6zm-.8 7.9c-.3.1-.5.3-.6.5-.1.2-.1.4-.1.8.1.5.2.8.5 1.1.3.2.6.3 1.1.2.7-.1 1.4-.6 2.1-1.5l-.2-2-2.8.9zm16.9-4.8c-.1-.6-.3-1.1-.6-1.4-.3-.3-.8-.5-1.3-.4-.8.1-1.6.6-2.4 1.5l.4 3.1.8 5.5-3.6.4-.4-5.2-1-7.1 3.3-.7.2 1.8h.2c.9-1 1.9-1.8 3-2.3 1.4-.2 2.4 0 3.2.6.8.5 1.2 1.4 1.3 2.5l.3 3.6.8 5.4-3.6.4-.6-7.7zM165.9 390l.8 5.5-3.6.4-.4-5.2-1.8-13.4 3.5-.7 1.5 13.4zm3.4-1.8c1.2 1.4 2.8 3.3 5.1 5.7v.4c-.6.2-1.3.4-2 .6-.7.2-1.1.3-1.3.3l-.4-.1c-1.8-2-3.5-4.1-4.9-6.1v-.2l2.6-4.8.5-1.4 3.8-.4-3.4 6zm10.3-7.2c1.8-.2 3.3.2 4.4 1.1 1.1 1 1.8 2.4 2 4.5.3 2.2-.1 3.9-1 5.2-.9 1.3-2.3 2-4.3 2.3-1.8.2-3.3-.2-4.4-1.1-1.1-1-1.8-2.4-2-4.5-.3-2.2.1-3.9 1-5.2.9-1.3 2.3-2.1 4.3-2.3zm0 2.4c-.9.1-1.4.5-1.8 1.1-.3.6-.4 1.6-.2 2.8.2 1.6.5 2.8 1 3.4.5.7 1.2.9 2.1.8.9-.1 1.4-.5 1.8-1.1.3-.6.4-1.6.3-2.9-.2-1.6-.5-2.8-1-3.4-.6-.5-1.3-.8-2.2-.7zm16.1.7c-.1-.6-.3-1.1-.6-1.4-.3-.3-.8-.5-1.3-.4-.8.1-1.6.6-2.4 1.5l.4 3.1.8 5.5-3.6.4-.4-5.2-1-7.1 3.3-.7.2 1.8h.2c.9-1 1.9-1.8 3-2.3 1.4-.2 2.4 0 3.2.6.8.5 1.2 1.4 1.3 2.5l.3 3.6.8 5.5-3.6.4-.6-7.8zm7.1 1.8l-1-7.1 3.5-.7.7 7 .8 5.5-3.6.4-.4-5.1zm.1-13.6c.6-.1 1 0 1.3.3.4.3.6.7.6 1.3.1.6 0 1.1-.3 1.5-.3.4-.7.6-1.3.7-.6.1-1.1 0-1.4-.3-.3-.3-.5-.7-.6-1.3-.1-.6 0-1.1.3-1.5.3-.4.8-.7 1.4-.7zm14 9.2c-.1-.6-.3-1.1-.6-1.4-.3-.3-.8-.5-1.3-.4-.8.1-1.6.6-2.4 1.5l.4 3.1.8 5.5-3.6.4-.4-5.2-1-7.1 3.3-.7.2 1.8h.2c.9-1 1.9-1.8 3-2.3 1.4-.2 2.4 0 3.2.6.8.5 1.2 1.4 1.3 2.5l.3 3.6.8 5.4-3.6.4-.6-7.7zm18.2-5.2c-.5.2-1.1.4-2 .6v.1c.3.5.5 1.1.6 1.7.2 1.3-.2 2.5-1.1 3.4-.9.9-2.1 1.5-3.8 1.6-.5.1-1 .1-1.6.1-.1.2-.2.3-.3.4-.1.1-.1.2 0 .3 0 .3.3.5.7.6.4.1 1.1.1 2.1.1 1.1 0 2 0 2.7.1.7.1 1.4.3 1.9.7.6.4.9 1 1 1.8.1.8-.1 1.6-.5 2.3-.4.7-1.1 1.4-2 1.8-.9.5-1.9.8-3.1.9-1.6.2-2.9 0-3.9-.5-1-.6-1.5-1.4-1.6-2.5.5-.8 1.1-1.6 2-2.3v-.1c-.6-.1-1.1-.4-1.5-.7-.4-.4-.6-.9-.7-1.5.4-.6 1-1.3 1.6-1.9v-.1c-.7-.3-1.2-.7-1.6-1.2-.4-.6-.6-1.2-.7-2-.2-1.4.2-2.5 1.1-3.4.9-.9 2.1-1.5 3.8-1.6 1-.1 1.9-.1 2.7.2 1.3-.4 2.5-.9 3.8-1.5l.3.2.1 2.4zm-6.5 5.4c.7-.1 1.3-.3 1.6-.8.3-.4.5-1 .4-1.7-.2-1.4-.9-2-2.3-1.8-1.5.2-2.2 1-2 2.3.1.7.3 1.2.7 1.6.3.4.9.5 1.6.4zm3.8 7.4c-.1-.5-.4-.8-.9-.9-.5-.1-1.3-.2-2.4-.2h-.9c-.4.3-.7.7-.9.9-.2.3-.3.6-.2.9.1.5.3.8.8 1 .5.2 1.1.3 1.9.2.8-.1 1.5-.3 2-.7.4-.3.6-.7.6-1.2zm26.2-4.6l-3.8.5-3.6-7.9h-.2l-1.6 8.6-3.8.5-6.9-16.7 3.6-.4.5 2.1 4.4 11h.2l1.8-9.7-1.7-4.1 3.7-.4.7 2.4 4.4 10.6h.2l2.2-11.6.1-2.4 3.4-.4-3.6 17.9zm7.1-6.1l-1-7.1 3.5-.7.7 7 .8 5.5-3.6.4-.4-5.1zm.1-13.6c.6-.1 1 0 1.3.3.4.3.6.7.6 1.3.1.6 0 1.1-.3 1.5-.3.4-.7.6-1.3.7-.6.1-1.1 0-1.4-.3-.3-.3-.5-.7-.6-1.3-.1-.6 0-1.1.3-1.5.3-.4.8-.7 1.4-.7zm10.1 12l.8 5.5-3.6.4-.4-5.2-1.8-13.4 3.5-.7 1.5 13.4zm7-.8l.8 5.5-3.6.4-.4-5.2-1.8-13.4 3.5-.7 1.5 13.4zm13.2-1.9l-7.2.9c.4 2.2 1.7 3.2 3.8 2.9 1.1-.1 2.3-.6 3.6-1.4l.3.2-.2 2.7c-1.3.7-2.5 1.1-3.7 1.2-2 .2-3.6-.2-4.8-1.2-1.2-1-2-2.5-2.2-4.5-.2-2 .1-3.6 1.1-4.9 1-1.3 2.4-2.1 4.2-2.3 1.6-.2 2.9.1 3.8.9 1 .8 1.6 1.9 1.7 3.5 0 .4.1.9.1 1.6l-.5.4zm-2.9-2.1c-.1-.7-.3-1.2-.7-1.6-.4-.3-.9-.5-1.5-.4-.7.1-1.2.4-1.7.9-.4.5-.6 1.2-.7 2.1l4.5-.6.1-.4zm21.5 5.8l-.7-7.8c-.2-1.3-.8-1.9-1.9-1.8-.8.1-1.6.6-2.4 1.4l.3 3.2.8 5.4-3.6.4-.7-7.8c-.1-.6-.3-1.1-.6-1.4-.3-.3-.8-.4-1.3-.4-.8.1-1.6.6-2.5 1.4l.4 3.1.8 5.5-3.5.4-.4-5.2-1-7.1 3.3-.7.2 1.8h.2c.9-1 1.9-1.8 3-2.3 2-.2 3.4.3 4.1 1.6h.2c.9-1.1 2-1.9 3.2-2.4 1.4-.2 2.4 0 3.2.6.8.5 1.2 1.4 1.3 2.5l.3 3.6.8 5.5-3.5.5zm14-7.3l.8 5.5-3.6.4-.4-5.2-1.6-12.1 3.7-.4 1.1 11.8zm13.5 1.3c.6-.1 1.2-.3 1.7-.7l.3.2-.1 2.2c-.9.6-1.8 1-2.7 1.2-2.4 0-3.8-1-4-3.1l-.1-2.2-.6-4.6-1.7.2-.2-.2v-2l1.6-.2-.2-2.1 3.1-1.4.3.2.3 2.9 3.2-.4.1.2.1 2-3.2.4.6 6c.1.6.2 1 .5 1.2.1.2.5.3 1 .2zm13.1-4.7l-7.3.9c.4 2.2 1.7 3.2 3.8 2.9 1.1-.1 2.3-.6 3.6-1.4l.3.2-.2 2.7c-1.3.7-2.5 1.1-3.7 1.2-2 .2-3.6-.2-4.8-1.2-1.2-1-2-2.5-2.2-4.5-.2-2 .1-3.6 1.1-4.9.9-1.3 2.4-2.1 4.2-2.3 1.6-.2 2.9.1 3.8.9 1 .8 1.6 1.9 1.7 3.5 0 .4.1.9.1 1.6l-.4.4zm-2.9-2.1c-.1-.7-.3-1.2-.7-1.6-.4-.3-.9-.5-1.5-.4-.7.1-1.2.4-1.7.9-.4.5-.6 1.2-.7 2.1l4.5-.6.1-.4zm11.2-5.7l5.4-.6 1.4-.2.3 2.1-5.1 8.8 3.8-.5 2.3-.5.2.2v2.3l-3.1.3-4.9.6-1.7.3-.2-2.1 5.1-8.9-3.6.4-2.2.5-.2-.2v-2.3l2.5-.2zm10.4 6.2l-1-7.1 3.5-.7.7 7 .8 5.5-3.6.4-.4-5.1zm.1-13.7c.6-.1 1 0 1.3.3.4.3.6.7.6 1.3.1.6 0 1.1-.3 1.5-.3.4-.7.6-1.3.7-.6.1-1.1 0-1.4-.3-.3-.3-.5-.7-.6-1.3-.1-.6 0-1.1.3-1.5.3-.4.8-.6 1.4-.7zm10 5l.6 7 .7 4.8c.2 1.4 0 2.6-.6 3.6s-1.6 2-3.1 2.8l-1.4-1.4v-.3c.8-.5 1.3-1.1 1.5-1.8.3-.6.3-1.5.2-2.4l-.5-4.5-.7-5.1-2.2.3-.2-.2v-2l2.3-.3 3.3-.6.1.1zm-2.8-5.8c.6-.1 1 0 1.3.3.4.3.6.7.6 1.3.1.6 0 1.1-.3 1.5-.3.4-.7.6-1.3.7-.6.1-1.1 0-1.4-.3-.3-.3-.5-.7-.6-1.3-.1-.6 0-1.1.3-1.5.4-.4.8-.7 1.4-.7zm14.4 9.2c-.1-.6-.3-1.1-.6-1.4-.3-.3-.8-.5-1.3-.4-.8.1-1.6.6-2.4 1.5l.4 3.1.8 5.5-3.6.4-.4-5.2-1-7.1 3.3-.7.2 1.8h.2c.9-1 1.9-1.8 3-2.3 1.4-.2 2.4 0 3.2.6.8.5 1.2 1.4 1.3 2.5l.3 3.6.8 5.5-3.6.4-.6-7.8zm8.6 3.2c.6-.1 1 0 1.3.3.4.3.6.7.6 1.3.1.6 0 1.1-.3 1.5-.3.4-.7.6-1.3.7-.6.1-1.1 0-1.4-.3-.3-.3-.5-.7-.6-1.3-.1-.6 0-1.1.3-1.5.3-.4.8-.6 1.4-.7zm-223.3 57l.8 5.5-3.6.4-.5-5.2-.3-2-3.9.4-3.5.5.2 1.7.8 5.5-3.6.4-.4-5.2-1.6-12.1 3.7-.4.7 7.1 3.7-.4 3.6-.5-1-7.1 3.7-.4 1.2 11.8zm4.1-.2l-1-7.1 3.5-.7.7 7 .8 5.5-3.6.4-.4-5.1zm.1-13.6c.6-.1 1 0 1.3.3.4.3.6.7.6 1.3.1.6 0 1.1-.3 1.5-.3.4-.7.6-1.3.7-.6.1-1.1 0-1.4-.3-.3-.3-.5-.7-.6-1.3-.1-.6 0-1.1.3-1.5.4-.4.8-.6 1.4-.7zm10.1 5l.6 7 .7 4.8c.2 1.4 0 2.6-.6 3.6s-1.6 2-3.1 2.8l-1.4-1.4v-.3c.8-.5 1.3-1.1 1.5-1.8.3-.6.3-1.5.2-2.4l-.5-4.5-.7-5.1-2.2.3-.2-.2v-2l2.3-.3 3.3-.6.1.1zm-2.8-5.9c.6-.1 1 0 1.3.3.4.3.6.7.6 1.3.1.6 0 1.1-.3 1.5-.3.4-.7.6-1.3.7-.6.1-1.1 0-1.4-.3-.3-.3-.5-.7-.6-1.3-.1-.6 0-1.1.3-1.5.3-.4.8-.6 1.4-.7zm12.7 6.6l2.4 6.8h.2l1.1-7 .2-2.1 3.5-.4.5 1.8 2.4 6.8h.2l1-7 .2-2.1 3-.4-2.4 12.9-3.5.4-2.9-7.8h-.2l-1.3 8.3-3.5.4-4.7-12 3.2-.5.6 1.9zm17.4 3.5l-1-7.1 3.5-.7.7 7 .8 5.5-3.6.4-.4-5.1zm0-13.7c.6-.1 1 0 1.3.3.4.3.6.7.6 1.3.1.6 0 1.1-.3 1.5-.3.4-.7.6-1.3.7-.6.1-1.1 0-1.4-.3-.3-.3-.5-.7-.6-1.3-.1-.6 0-1.1.3-1.5.4-.4.8-.6 1.4-.7zm14.1 9.3c-.1-.6-.3-1.1-.6-1.4-.3-.3-.8-.5-1.3-.4-.8.1-1.6.6-2.4 1.5l.4 3.1.8 5.5-3.6.4-.4-5.2-1-7.1 3.3-.7.2 1.8h.2c.9-1 1.9-1.8 3-2.3 1.4-.2 2.4 0 3.2.6.8.5 1.2 1.4 1.3 2.5l.3 3.6.8 5.5-3.6.4-.6-7.8zm12.1 3.8c.6-.1 1.2-.3 1.7-.7l.3.2-.1 2.2c-.9.6-1.8 1-2.7 1.2-2.4 0-3.8-1-4-3.1l-.1-2.2-.6-4.6-1.7.2-.2-.2v-2l1.6-.2-.2-2.1 3.1-1.4.3.2.3 2.9 3.2-.4.1.2.1 2-3.2.4.6 6c.1.6.2 1 .5 1.2.2.2.5.2 1 .2zm15.2-7c-.1-.6-.3-1.1-.6-1.4-.3-.3-.8-.5-1.3-.4-.8.1-1.6.6-2.4 1.5l.4 3.1.8 5.5-3.6.4-.4-5.2-1-7.1 3.3-.7.2 1.8h.2c.9-1 1.9-1.8 3-2.3 1.4-.2 2.4 0 3.2.6.8.5 1.2 1.4 1.3 2.5l.3 3.6.8 5.4-3.6.4-.6-7.7zm10.8-6.3c1.4-.2 2.5 0 3.3.6.9.5 1.4 1.3 1.5 2.4 0 .3.1 1.3.2 3.1 0 .5.1 1 .1 1.6 0 .5.1 1 .1 1.3 0 .3.1.5.2.6.1.1.3.1.5.1s.4-.1.7-.2l.3.2-.1 1.9c-.5.4-1.2.7-1.9.9-.5 0-1-.1-1.4-.4-.4-.3-.7-.7-.9-1.3h-.2c-.8 1.1-1.6 1.8-2.5 2.3-1.3.1-2.3-.1-3.2-.7-.8-.6-1.3-1.4-1.4-2.6-.1-.9 0-1.6.4-2.2.4-.6 1.1-1 2-1.3l4-1.3-.1-1.1c-.1-1.2-.8-1.7-1.9-1.5-.6.1-1.1.3-1.7.6-.6.3-1.2.8-1.9 1.4l-.3-.1-.7-2.3c.7-.6 1.5-1 2.3-1.4.9-.3 1.7-.5 2.6-.6zm-.8 7.9c-.3.1-.5.3-.6.5-.1.2-.1.4-.1.8.1.5.2.8.5 1.1.3.2.6.3 1.1.2.7-.1 1.4-.6 2.1-1.5l-.2-2-2.8.9zm13.7-9.5c1.4-.2 2.5 0 3.3.6.9.5 1.4 1.3 1.5 2.4 0 .3.1 1.3.2 3.1 0 .5.1 1 .1 1.6 0 .5.1 1 .1 1.3 0 .3.1.5.2.6.1.1.3.1.5.1s.4-.1.7-.2l.3.2-.1 1.9c-.5.4-1.2.7-1.9.9-.5 0-1-.1-1.4-.4-.4-.3-.7-.7-.9-1.3h-.2c-.8 1.1-1.6 1.8-2.5 2.3-1.3.1-2.3-.1-3.2-.7-.8-.6-1.3-1.4-1.4-2.6-.1-.9 0-1.6.4-2.2.4-.6 1.1-1 2-1.3l4-1.3-.1-1.1c-.1-1.2-.8-1.7-1.9-1.5-.6.1-1.1.3-1.7.6-.6.3-1.2.8-1.9 1.4l-.3-.1-.7-2.3c.7-.6 1.5-1 2.3-1.4.9-.2 1.7-.5 2.6-.6zm-.8 8c-.3.1-.5.3-.6.5-.1.2-.1.4-.1.8.1.5.2.8.5 1.1.3.2.6.3 1.1.3.7-.1 1.4-.6 2.1-1.5l-.2-2-2.8.8zm13-9.4c1.2-.1 2.4-.1 3.5.2l-.2 2.7-.4.2c-.6-.3-1.1-.5-1.6-.6-.5-.1-1-.2-1.4-.1-.4.1-.8.2-1 .5-.2.2-.3.5-.3.8 0 .4.2.7.6.9.4.2.9.4 1.7.6.7.2 1.4.4 1.9.6.5.2.9.5 1.3 1 .4.4.6 1 .7 1.7.1.7 0 1.4-.3 2.1-.3.6-.8 1.2-1.5 1.7s-1.6.8-2.7.9c-1.3.2-2.7 0-4.1-.3l.1-2.8.3-.3c.6.4 1.3.7 2 .9.7.2 1.3.2 1.8.2.5-.1.8-.2 1.1-.5.2-.3.3-.6.3-.9 0-.4-.3-.7-.6-.9-.3-.2-.9-.4-1.6-.6-.8-.2-1.4-.4-1.9-.6-.5-.2-.9-.5-1.3-1-.4-.4-.6-1-.7-1.7-.1-1.2.2-2.2 1-3 .7-1 1.8-1.5 3.3-1.7zm12.3 8.7c.6-.1 1.2-.3 1.7-.7l.3.2-.1 2.2c-.9.6-1.8 1-2.7 1.2-2.4 0-3.8-1-4-3.1l-.1-2.2-.6-4.6-1.7.2-.2-.2v-2l1.6-.2-.2-2.1 3.1-1.4.3.2.3 2.9 3.2-.4.1.2.1 2-3.2.4.6 6c.1.6.2 1 .5 1.2.2.2.5.3 1 .2zm17.4-5.3l-7.2.9c.4 2.2 1.7 3.2 3.8 2.9 1.1-.1 2.3-.6 3.6-1.4l.3.2-.2 2.7c-1.3.7-2.5 1.1-3.7 1.2-2 .2-3.6-.2-4.8-1.2-1.2-1-2-2.5-2.2-4.5-.2-2 .1-3.6 1.1-4.9 1-1.3 2.4-2.1 4.2-2.3 1.6-.2 2.9.1 3.8.9 1 .8 1.6 1.9 1.7 3.5 0 .4.1.9.1 1.6l-.5.4zm-2.9-2c-.1-.7-.3-1.2-.7-1.6-.4-.3-.9-.5-1.5-.4-.7.1-1.3.4-1.7.9-.4.5-.6 1.2-.7 2.1l4.5-.6.1-.4zm15.5.5l-7.2.9c.4 2.2 1.7 3.2 3.8 2.9 1.1-.1 2.3-.6 3.6-1.4l.3.2-.2 2.7c-1.3.7-2.5 1.1-3.7 1.2-2 .2-3.6-.2-4.8-1.2-1.2-1-2-2.5-2.2-4.5-.2-2 .1-3.6 1.1-4.9.9-1.3 2.4-2.1 4.2-2.3 1.6-.2 2.9.1 3.8.9 1 .8 1.6 1.9 1.7 3.5 0 .4.1.9.1 1.6l-.5.4zm-2.8-2c-.1-.7-.3-1.2-.7-1.6-.4-.3-.9-.5-1.5-.4-.7.1-1.2.4-1.7.9-.4.5-.6 1.2-.7 2.1l4.5-.6.1-.4zm13.3-1.2c-.1-.6-.3-1.1-.6-1.4-.3-.3-.8-.5-1.3-.4-.8.1-1.6.6-2.4 1.5l.4 3.1.8 5.5-3.6.4-.4-5.2-1-7.1 3.3-.7.2 1.8h.2c.9-1 1.9-1.8 3-2.3 1.4-.2 2.4 0 3.2.6.8.5 1.2 1.4 1.3 2.5l.3 3.6.8 5.5-3.6.4-.6-7.8zm22.2-5.7c-.5.2-1.1.4-2 .6v.1c.3.5.5 1.1.6 1.7.2 1.3-.2 2.5-1.1 3.4-.9.9-2.1 1.5-3.8 1.7-.5.1-1 .1-1.6.1-.1.2-.2.3-.3.4 0 .1-.1.2 0 .3 0 .3.3.5.7.6.4.1 1.1.1 2.1.1 1.1 0 2 0 2.7.1.7.1 1.4.3 1.9.7.6.4.9 1 1 1.8.1.8-.1 1.6-.5 2.3-.4.7-1.1 1.4-2 1.8-.9.5-1.9.8-3.1.9-1.6.2-2.9 0-3.9-.5-1-.6-1.5-1.4-1.6-2.5.5-.8 1.1-1.6 2-2.3v-.1c-.6-.1-1.1-.4-1.5-.7-.4-.4-.6-.9-.7-1.5.4-.6 1-1.3 1.6-1.9v-.1c-.7-.3-1.2-.7-1.6-1.2-.4-.6-.6-1.2-.7-2-.2-1.4.2-2.5 1.1-3.4.9-.9 2.1-1.5 3.8-1.6 1-.1 1.9-.1 2.7.2 1.3-.4 2.5-.9 3.8-1.5l.3.2.1 2.3zm-6.5 5.4c.7-.1 1.3-.3 1.6-.8.3-.4.5-1 .4-1.7-.2-1.4-.9-2-2.3-1.8-1.5.2-2.2 1-2 2.3.1.7.3 1.2.7 1.6.3.3.9.5 1.6.4zm3.8 7.3c-.1-.5-.4-.8-.9-.9-.5-.1-1.3-.2-2.4-.2h-.9c-.4.3-.7.7-.9.9-.2.3-.3.6-.2.9.1.5.3.8.8 1 .5.2 1.1.3 1.9.2.8-.1 1.5-.3 2-.7.4-.2.6-.7.6-1.2zm10.8-15.4h.7l.4 3.3-.4.2c-.3-.1-.7-.1-1-.1-1 .1-1.9.9-2.6 2.3l.2 1.7.8 5.5-3.6.4-.4-5.2-1-7.1 3.3-.7.3 2.4h.2c.8-1.6 1.8-2.6 3.1-2.7zm7.6-1.2c1.8-.2 3.3.2 4.4 1.1 1.1 1 1.8 2.4 2 4.5.3 2.2-.1 3.9-1 5.2-.9 1.3-2.3 2-4.3 2.2-1.8.2-3.3-.2-4.4-1.1-1.1-1-1.8-2.4-2-4.5-.3-2.2.1-3.9 1-5.2.9-1.2 2.3-1.9 4.3-2.2zm0 2.5c-.9.1-1.5.5-1.8 1.1-.3.6-.4 1.6-.2 2.8.2 1.6.5 2.8 1 3.4.5.7 1.2.9 2.1.8.9-.1 1.4-.5 1.8-1.1.3-.6.4-1.6.3-2.9-.2-1.6-.5-2.8-1-3.4-.6-.5-1.3-.8-2.2-.7zm14.3 6.1c.6-.1 1.2-.3 1.7-.7l.3.2-.1 2.2c-.9.6-1.8 1-2.7 1.2-2.4 0-3.8-1-4-3.1l-.1-2.2-.6-4.6-1.7.2-.2-.2v-2l1.6-.2-.2-2.1 3.1-1.4.3.2.3 2.9 3.2-.4.1.2.1 2-3.2.4.6 6c.1.6.2 1 .5 1.2.1.1.5.2 1 .2zm13.1-4.8l-7.2.9c.4 2.2 1.7 3.2 3.8 2.9 1.1-.1 2.3-.6 3.6-1.4l.3.2-.2 2.7c-1.3.7-2.5 1.1-3.7 1.2-2 .2-3.6-.2-4.8-1.2-1.2-1-2-2.5-2.2-4.5-.2-2 .1-3.6 1.1-4.9.9-1.3 2.4-2.1 4.2-2.3 1.6-.2 2.9.1 3.8.9 1 .8 1.6 1.9 1.7 3.5 0 .4.1.9.1 1.6l-.5.4zm-2.9-2.1c-.1-.7-.3-1.2-.7-1.6-.4-.3-.9-.5-1.5-.4-.7.1-1.2.4-1.7.9-.4.5-.6 1.2-.7 2.1l4.5-.6.1-.4zm-241.8 56.5c1.2-.1 2.4-.1 3.5.2l-.2 2.7-.4.2c-.6-.3-1.1-.5-1.6-.6-.5-.1-1-.2-1.4-.1-.4.1-.8.2-1 .5-.2.2-.3.5-.3.8 0 .4.2.7.6.9.4.2.9.4 1.7.6.7.2 1.4.4 1.9.6.5.2.9.5 1.3 1 .4.4.6 1 .7 1.7.1.7 0 1.4-.3 2.1-.3.7-.8 1.2-1.5 1.7s-1.6.8-2.7.9c-1.3.2-2.7 0-4.1-.3l.1-2.8.3-.3c.6.4 1.3.7 2 .9.7.2 1.3.2 1.8.2.5-.1.8-.2 1.1-.5.2-.3.3-.6.3-.9 0-.4-.3-.7-.6-.9-.3-.2-.9-.4-1.6-.6-.8-.2-1.4-.4-1.9-.6-.5-.2-.9-.5-1.3-1-.4-.4-.6-1-.7-1.7-.1-1.2.2-2.2 1-3 .7-1 1.8-1.5 3.3-1.7zm11.3-1.3c1.8-.2 3.3.2 4.4 1.1 1.1.9 1.8 2.4 2 4.5.3 2.2-.1 3.9-1 5.2-.9 1.3-2.3 2-4.3 2.2-1.8.2-3.3-.2-4.4-1.1-1.1-1-1.8-2.4-2-4.5-.3-2.2.1-3.9 1-5.2.9-1.2 2.3-2 4.3-2.2zm0 2.4c-.9.1-1.4.5-1.8 1.1-.3.6-.4 1.6-.2 2.8.2 1.6.5 2.8 1 3.4.5.6 1.2.9 2.1.8.9-.1 1.4-.5 1.8-1.1.3-.6.4-1.6.3-2.9-.2-1.6-.5-2.8-1-3.4-.6-.5-1.3-.8-2.2-.7zm24.4 7.5l-.7-7.8c-.2-1.3-.8-1.9-1.9-1.8-.8.1-1.6.6-2.4 1.4l.3 3.2.8 5.5-3.6.4-.7-7.8c-.1-.6-.3-1.1-.6-1.4-.3-.3-.8-.4-1.3-.4-.8.1-1.6.6-2.5 1.4l.4 3.1.8 5.5-3.5.4-.4-5.2-1-7.1 3.3-.7.2 1.8h.2c.9-1 1.9-1.8 3-2.3 2-.2 3.4.3 4.1 1.6h.2c.9-1.1 2-1.9 3.2-2.4 1.4-.2 2.4 0 3.2.6.8.5 1.2 1.4 1.3 2.5l.3 3.6.8 5.5-3.5.4zm21.4-13.5c-.5.2-1.1.4-2 .6v.1c.3.5.5 1.1.6 1.7.2 1.3-.2 2.5-1.1 3.4-.9.9-2.1 1.5-3.8 1.7-.5.1-1 .1-1.6.1-.1.2-.2.3-.3.4 0 .1-.1.2 0 .3 0 .3.3.5.7.6.4.1 1.1.1 2.1.1 1.1 0 2 0 2.7.1.7.1 1.4.3 1.9.7.6.4.9 1 1 1.8.1.8-.1 1.6-.5 2.3-.4.7-1.1 1.4-2 1.8-.9.5-1.9.8-3.1.9-1.6.2-2.9 0-3.9-.5-1-.6-1.5-1.4-1.6-2.5.5-.8 1.1-1.6 2-2.3v-.1c-.6-.1-1.1-.4-1.5-.7-.4-.4-.6-.9-.7-1.5.4-.6 1-1.3 1.6-1.9v-.1c-.7-.3-1.2-.7-1.6-1.2-.4-.6-.6-1.2-.7-2-.2-1.4.2-2.5 1.1-3.4.9-.9 2.1-1.5 3.8-1.6 1-.1 1.9-.1 2.7.2 1.3-.4 2.5-.9 3.8-1.5l.3.2.1 2.3zm-6.5 5.4c.7-.1 1.3-.3 1.6-.8.3-.4.5-1 .4-1.7-.2-1.4-.9-2-2.3-1.8-1.5.2-2.2 1-2 2.3.1.7.3 1.2.7 1.6.4.4.9.5 1.6.4zm3.8 7.4c-.1-.5-.4-.8-.9-.9-.5-.1-1.3-.2-2.4-.2h-.9c-.4.3-.7.7-.9.9-.2.3-.3.6-.2.9.1.5.3.8.8 1 .5.2 1.1.3 1.9.2.8-.1 1.5-.3 2-.7.4-.2.6-.7.6-1.2zM242 445l-7.2.9c.4 2.2 1.7 3.2 3.8 2.9 1.1-.1 2.3-.6 3.6-1.4l.3.2-.2 2.7c-1.3.7-2.5 1.1-3.7 1.2-2 .2-3.6-.2-4.8-1.2-1.2-1-2-2.5-2.2-4.5-.2-2 .1-3.6 1.1-4.9.9-1.3 2.4-2.1 4.2-2.3 1.6-.2 2.9.1 3.8.9 1 .8 1.6 1.9 1.7 3.5 0 .4.1.9.1 1.6l-.5.4zm-2.9-2.1c-.1-.7-.3-1.2-.7-1.6-.4-.3-.9-.5-1.5-.4-.7.1-1.2.4-1.7.9-.4.5-.6 1.2-.7 2.1l4.5-.6.1-.4zm9.3 1.7l.8 5.5-3.6.4-.4-5.2-1.8-13.4 3.5-.7 1.5 13.4zm13.9-1.7l.4 2.2c0 .3.1.5.2.6.1.1.3.1.5.1s.4-.1.7-.2l.3.2-.1 1.9c-.6.4-1.2.8-1.9.9-.6 0-1-.1-1.5-.4-.4-.3-.7-.7-.9-1.2h-.2c-.8.9-1.6 1.6-2.5 2.2-1.8.2-3.2-.2-4.3-1.2-1.1-1-1.8-2.5-2-4.5-.3-2.1.1-3.8 1.1-5.1 1-1.3 2.4-2 4.4-2.2.5-.1 1.1-.1 1.7 0l-.8-6 3.5-.7 1.4 13.4zm-5.8-4.2c-1.8.2-2.5 1.5-2.3 3.7.2 1.4.5 2.4 1 3.1.5.7 1.2.9 2 .8.8-.1 1.5-.5 2-1.4l-.1-1.5-.6-4.6c-.7 0-1.3-.1-2-.1zm17.9-4.6c1.8-.2 3.3.2 4.4 1.1 1.1 1 1.8 2.4 2 4.5.3 2.2-.1 3.9-1 5.2-.9 1.3-2.3 2-4.3 2.2-1.8.2-3.3-.2-4.4-1.1-1.1-1-1.8-2.4-2-4.5-.3-2.2.1-3.9 1-5.2.9-1.2 2.4-1.9 4.3-2.2zm.1 2.5c-.9.1-1.4.5-1.8 1.1-.3.6-.4 1.6-.2 2.8.2 1.6.5 2.8 1 3.4.5.6 1.2.9 2.1.8.9-.1 1.4-.5 1.8-1.1.3-.6.4-1.6.3-2.9-.2-1.6-.5-2.8-1-3.4-.7-.5-1.4-.8-2.2-.7zm13.2-4c1.8-.2 3.3.2 4.4 1.1 1.1 1 1.8 2.4 2 4.5.3 2.2-.1 3.9-1 5.2-.9 1.3-2.3 2-4.3 2.2-1.8.2-3.3-.2-4.4-1.1-1.1-1-1.8-2.4-2-4.5-.3-2.2.1-3.9 1-5.2.9-1.3 2.3-2 4.3-2.2zm0 2.4c-.9.1-1.4.5-1.8 1.1-.3.6-.4 1.6-.2 2.8.2 1.6.5 2.8 1 3.4.5.6 1.2.9 2.1.8.9-.1 1.4-.5 1.8-1.1.3-.6.4-1.6.3-2.9-.2-1.6-.5-2.8-1-3.4-.6-.5-1.3-.8-2.2-.7zm12.4 3.4l.8 5.5-3.6.4-.4-5.2-1.8-13.4 3.5-.7 1.5 13.4zm3.4-1.8c1.2 1.4 2.8 3.3 5.1 5.7v.4c-.6.2-1.3.4-2 .6-.7.2-1.1.3-1.3.3l-.4-.1c-1.8-2-3.5-4.1-4.9-6.1v-.2l2.6-4.8.5-1.4 3.8-.4-3.4 6zm20-1.3l-7.2.9c.4 2.2 1.7 3.2 3.8 2.9 1.1-.1 2.3-.6 3.6-1.4l.3.2-.2 2.7c-1.3.7-2.5 1.1-3.7 1.2-2 .2-3.6-.2-4.8-1.2-1.2-1-2-2.5-2.2-4.5-.2-2 .1-3.6 1.1-4.9.9-1.3 2.4-2.1 4.2-2.3 1.6-.2 2.9.1 3.8.9 1 .8 1.6 1.9 1.7 3.5 0 .4.1.9.1 1.6l-.5.4zm-2.8-2.1c-.1-.7-.3-1.2-.7-1.6-.4-.3-.9-.5-1.5-.4-.7.1-1.2.4-1.7.9-.4.5-.6 1.2-.7 2.1l4.5-.6.1-.4zm15.5.6l-7.2.9c.4 2.2 1.7 3.2 3.8 2.9 1.1-.1 2.3-.6 3.6-1.4l.3.2-.2 2.7c-1.3.7-2.5 1.1-3.7 1.2-2 .2-3.6-.2-4.8-1.2-1.2-1-2-2.5-2.2-4.5-.2-2 .1-3.6 1.1-4.9.9-1.3 2.4-2.1 4.2-2.3 1.6-.2 2.9.1 3.8.9 1 .8 1.6 1.9 1.7 3.5 0 .4.1.9.1 1.6l-.5.4zm-2.9-2.1c-.1-.7-.3-1.2-.7-1.6-.4-.3-.9-.5-1.5-.4-.7.1-1.2.4-1.7.9-.4.5-.6 1.2-.7 2.1l4.5-.6.1-.4zm13.3-1.2c-.1-.6-.3-1.1-.6-1.4-.3-.3-.8-.5-1.3-.4-.8.1-1.6.6-2.4 1.5l.4 3.1.8 5.5-3.6.4-.4-5.2-1-7.1 3.3-.7.2 1.8h.2c.9-1 1.9-1.8 3-2.3 1.4-.2 2.4 0 3.2.6.8.5 1.2 1.4 1.3 2.5l.3 3.6.8 5.4-3.6.4-.6-7.7zm-167.1 47.3c1.6-.2 2.8.2 3.8 1.2s1.6 2.4 1.8 4.3c.3 2.2-.1 3.9-1 5.3-.9 1.3-2.4 2.1-4.3 2.3-.6.1-1.2.1-1.8.1l.7 4.8-3.5.4-1-10.1-1-7.1 3.4-.7.2 1.8h.2c.4-.5.9-1 1.3-1.3.2-.4.7-.7 1.2-1zm0 10.7c.9-.1 1.6-.5 2-1.2.4-.7.5-1.7.4-3-.1-1.3-.5-2.2-1-2.7-.5-.6-1.1-.8-1.9-.8-.8.1-1.5.6-2.2 1.4l.3 3.1.4 3c.7.2 1.4.3 2 .2zm14.1-12.3h.7l.4 3.3-.4.2c-.3-.1-.7-.1-1-.1-1 .1-1.9.9-2.6 2.3l.2 1.7.8 5.5-3.6.4-.4-5.2-1-7.1 3.3-.7.3 2.4h.2c.8-1.6 1.7-2.5 3.1-2.7zm7-1c1.4-.2 2.5 0 3.3.6.9.5 1.4 1.3 1.5 2.4 0 .3.1 1.3.2 3.1 0 .5.1 1 .1 1.6 0 .5.1 1 .1 1.3 0 .3.1.5.2.6.1.1.3.1.5.1s.4-.1.7-.2l.3.2-.1 1.9c-.5.4-1.2.7-1.9.9-.5 0-1-.1-1.4-.4-.4-.3-.7-.7-.9-1.3h-.2c-.8 1.1-1.6 1.8-2.5 2.3-1.3.1-2.3-.1-3.2-.7-.8-.6-1.3-1.4-1.4-2.6-.1-.9 0-1.6.4-2.2.4-.6 1.1-1 2-1.3l4-1.3-.1-1.1c-.1-1.2-.8-1.7-1.9-1.5-.6.1-1.1.3-1.7.6-.6.3-1.2.8-1.9 1.4l-.3-.1-.7-2.3c.7-.6 1.5-1 2.3-1.4.9-.3 1.7-.5 2.6-.6zm-.8 7.9c-.3.1-.5.3-.6.5-.1.2-.1.4-.1.8.1.5.2.8.5 1.1.3.2.6.3 1.1.2.7-.1 1.4-.6 2.1-1.5l-.2-2-2.8.9zm13.9-9.5c.6-.1 1.2-.1 1.8 0 .6 0 1.1.1 1.6.3l-.3 2.9-.3.2c-1-.4-1.8-.5-2.5-.5-.8.1-1.4.5-1.8 1.1-.4.6-.5 1.5-.4 2.6.1 1.3.5 2.2 1.1 2.8.6.6 1.3.9 2.2.7.8-.1 1.7-.4 2.6-1l.3.2v2.8c-1 .5-2.1.8-3.2.9-1.7.2-3.1-.2-4.2-1.2s-1.8-2.5-2-4.5c-.2-2.1.1-3.8 1-5 .9-1.3 2.2-2.1 4.1-2.3zm13.5 3.4c-.1-.6-.3-1.1-.6-1.4-.3-.3-.8-.4-1.3-.4-.8.1-1.6.6-2.4 1.5l.3 3.1.8 5.5-3.6.4-.4-5.2-1.8-13.4 3.5-.7.8 8.1h.2c.9-1 1.9-1.8 3-2.3 1.4-.2 2.4 0 3.2.6.8.5 1.2 1.4 1.4 2.5l.3 3.6.8 5.5-3.6.4-.6-7.8zm12.2 3.8c.6-.1 1.2-.3 1.7-.7l.3.2-.1 2.2c-.9.6-1.8 1-2.7 1.2-2.4 0-3.8-1-4-3.1l-.1-2.2-.6-4.6-1.7.2-.2-.2v-2l1.6-.2-.2-2.1 3.1-1.4.3.2.3 2.9 3.2-.4.1.2.1 2-3.2.4.6 6c.1.6.2 1 .5 1.2.1.2.5.2 1 .2zm3.9-3.1l-1-7.1 3.5-.7.7 7 .8 5.5-3.6.4-.4-5.1zm.1-13.6c.6-.1 1 0 1.3.3.4.3.6.7.6 1.3.1.6 0 1.1-.3 1.5-.3.4-.7.6-1.3.7-.6.1-1.1 0-1.4-.3-.3-.3-.5-.7-.6-1.3-.1-.6 0-1.1.3-1.5.3-.4.8-.6 1.4-.7zm18 5.8c-.5.2-1.1.4-2 .6v.1c.3.5.5 1.1.6 1.7.2 1.3-.2 2.5-1.1 3.4-.9.9-2.1 1.5-3.8 1.6-.5.1-1 .1-1.6.1-.1.2-.2.3-.3.4 0 .1-.1.2 0 .3 0 .3.3.5.7.6.4.1 1.1.1 2.1.1 1.1 0 2 0 2.7.1.7.1 1.4.3 1.9.7.6.4.9 1 1 1.8.1.8-.1 1.6-.5 2.3-.4.7-1.1 1.4-2 1.8-.9.5-1.9.8-3.1.9-1.6.2-2.9 0-3.9-.5-1-.6-1.5-1.4-1.6-2.5.5-.8 1.1-1.6 2-2.3v-.1c-.6-.1-1.1-.4-1.5-.7-.4-.4-.6-.8-.7-1.5.4-.6 1-1.3 1.6-1.9v-.1c-.7-.3-1.2-.7-1.6-1.2-.4-.6-.6-1.2-.7-2-.2-1.4.2-2.5 1.1-3.4.9-.9 2.1-1.5 3.8-1.6 1-.1 1.9-.1 2.7.2 1.3-.4 2.5-.9 3.8-1.5l.3.2.1 2.4zm-6.5 5.4c.7-.1 1.3-.3 1.6-.8.3-.4.5-1 .4-1.7-.2-1.4-.9-2-2.3-1.8-1.5.2-2.2 1-2 2.3.1.7.3 1.2.7 1.6.3.3.9.5 1.6.4zm3.8 7.3c-.1-.5-.4-.8-.9-.9-.5-.1-1.3-.2-2.4-.2h-.9c-.4.3-.7.7-.9.9-.2.3-.3.6-.2.9.1.5.3.8.8 1 .5.2 1.1.3 1.9.2.8-.1 1.5-.3 2-.7.4-.2.6-.7.6-1.2zm12.1-15.8c1.2-.1 2.4-.1 3.5.2l-.2 2.7-.4.2c-.6-.3-1.1-.5-1.6-.6-.5-.1-1-.2-1.4-.1-.4.1-.8.2-1 .5-.2.2-.3.5-.3.8 0 .4.2.7.6.9.4.2.9.4 1.7.6.7.2 1.4.4 1.9.6.5.2.9.5 1.3 1 .4.4.6 1 .7 1.7.1.7 0 1.4-.3 2.1-.3.6-.8 1.2-1.5 1.7s-1.6.8-2.7.9c-1.3.2-2.6 0-4.1-.3l.1-2.8.3-.3c.6.4 1.3.7 2 .9.7.2 1.3.2 1.8.2.5-.1.8-.2 1.1-.5.2-.3.3-.6.3-.9 0-.4-.2-.7-.6-.9-.3-.2-.9-.4-1.6-.6-.8-.2-1.4-.4-1.9-.6-.5-.2-.9-.5-1.3-1-.4-.4-.6-1-.7-1.7-.1-1.2.2-2.2 1-3 .7-1 1.8-1.5 3.3-1.7zm11.2-1.3c.6-.1 1.2-.1 1.8 0 .6 0 1.1.1 1.6.3l-.3 2.9-.3.2c-1-.4-1.8-.5-2.5-.5-.8.1-1.4.5-1.8 1.1-.4.6-.5 1.5-.4 2.6.1 1.3.5 2.2 1.1 2.8.6.6 1.3.9 2.2.7.8-.1 1.7-.4 2.6-1l.3.2v2.8c-1 .5-2.1.8-3.2.9-1.7.2-3.1-.2-4.2-1.2s-1.8-2.5-2-4.5c-.2-2.1.1-3.8 1-5 .9-1.4 2.3-2.1 4.1-2.3zm13.5 3.4c-.1-.6-.3-1.1-.6-1.4-.3-.3-.8-.4-1.3-.4-.8.1-1.6.6-2.4 1.5l.3 3.1.8 5.5-3.6.4-.4-5.2-1.8-13.4 3.5-.7.8 8.1h.2c.9-1 1.9-1.8 3-2.3 1.4-.2 2.4 0 3.2.6.8.5 1.2 1.4 1.4 2.5l.3 3.6.8 5.5-3.6.4-.6-7.8zm7.1 1.8l-1-7.1 3.5-.7.7 7 .8 5.5-3.6.4-.4-5.1zm0-13.7c.6-.1 1 0 1.3.3.4.3.6.7.6 1.3.1.6 0 1.1-.3 1.5-.3.4-.7.6-1.3.7-.6.1-1.1 0-1.4-.3-.3-.3-.5-.7-.6-1.3-.1-.6 0-1.1.3-1.5.4-.3.8-.6 1.4-.7zm10.2 12.1l.8 5.5-3.6.4-.4-5.2-1.8-13.4 3.5-.7 1.5 13.4zm13.9-1.7l.3 2.2c0 .3.1.5.2.6.1.1.3.1.5.1s.4-.1.7-.2l.3.2-.1 1.9c-.6.4-1.2.8-1.9.9-.6 0-1-.1-1.5-.4-.4-.3-.7-.7-.9-1.2h-.2c-.8.9-1.6 1.6-2.5 2.2-1.8.2-3.2-.2-4.3-1.2-1.1-1-1.8-2.5-2-4.5-.3-2.1.1-3.8 1.1-5.1 1-1.3 2.4-2 4.4-2.2.5-.1 1.1-.1 1.7 0l-.8-6 3.5-.7 1.5 13.4zm-5.8-4.1c-1.8.2-2.5 1.5-2.3 3.7.2 1.4.5 2.4 1 3.1.5.7 1.2.9 2 .8.8-.1 1.5-.5 2-1.4l-.1-1.5-.6-4.6c-.7-.1-1.4-.2-2-.1zm19.1 2.2l-7.2.9c.4 2.2 1.7 3.2 3.8 2.9 1.1-.1 2.3-.6 3.6-1.4l.3.2-.2 2.7c-1.3.7-2.5 1.1-3.7 1.2-2 .2-3.6-.2-4.8-1.2-1.2-1-2-2.5-2.2-4.5-.2-2 .1-3.6 1.1-4.9.9-1.3 2.4-2.1 4.2-2.3 1.6-.2 2.9.1 3.8.9 1 .8 1.6 1.9 1.7 3.5 0 .4.1.9.1 1.6l-.5.4zm-2.8-2c-.1-.7-.3-1.2-.7-1.6-.4-.3-.9-.5-1.5-.4-.7.1-1.2.4-1.7.9-.4.5-.6 1.2-.7 2.1l4.5-.6.1-.4zm11.9-5.8h.7l.4 3.3-.4.2c-.3-.1-.7-.1-1-.1-1 .1-1.9.9-2.6 2.3l.2 1.7.8 5.5-3.6.4-.4-5.2-1-7.1 3.3-.7.3 2.4h.2c.8-1.6 1.8-2.6 3.1-2.7zm3.6 7l-1-7.1 3.5-.7.7 7 .8 5.5-3.6.4-.4-5.1zm.1-13.6c.6-.1 1 0 1.3.3.4.3.6.7.6 1.3.1.6 0 1.1-.3 1.5-.3.4-.7.6-1.3.7-.6.1-1.1 0-1.4-.3-.3-.3-.5-.7-.6-1.3-.1-.6 0-1.1.3-1.5.3-.4.7-.7 1.4-.7zm10 5l.6 7 .7 4.8c.2 1.4 0 2.6-.6 3.6s-1.6 2-3.1 2.8l-1.4-1.4v-.3c.8-.5 1.3-1.1 1.5-1.8.3-.6.3-1.5.2-2.4l-.5-4.5-.7-5.1-2.2.3-.2-.2v-2l2.3-.3 3.3-.6.1.1zm-2.8-5.9c.6-.1 1 0 1.3.3.4.3.6.7.6 1.3.1.6 0 1.1-.3 1.5-.3.4-.7.6-1.3.7-.6.1-1.1 0-1.4-.3-.3-.3-.5-.7-.6-1.3-.1-.6 0-1.1.3-1.5.3-.4.8-.6 1.4-.7zm7.9 14.2c.6-.1 1 0 1.3.3.4.3.6.7.6 1.3.1.6 0 1.1-.3 1.5-.3.4-.7.6-1.3.7-.6.1-1.1 0-1.4-.3-.3-.3-.5-.7-.6-1.3-.1-.6 0-1.1.3-1.5.3-.4.8-.6 1.4-.7zm-171.2 56.4l-3.2.4-.9-5.2-1.4-6.6h-.3l-2.7 10.5-2.8.3-4.7-9.6h-.2l.1 6.4.3 5.6-3.1.4-.3-17.5 4.2-.5 1 2.5 3.7 7.8h.2l1.9-8.5.5-2.6 4.1-.5 3.6 17.1zm11.4-7.3l-7.2.9c.4 2.2 1.7 3.2 3.8 2.9 1.1-.1 2.3-.6 3.6-1.4l.3.2-.2 2.7c-1.3.7-2.5 1.1-3.7 1.2-2 .2-3.6-.2-4.8-1.2-1.2-1-2-2.5-2.2-4.5-.2-2 .1-3.6 1.1-4.9.9-1.3 2.4-2.1 4.2-2.3 1.6-.2 2.9.1 3.8.9 1 .8 1.6 1.9 1.7 3.5 0 .4.1.9.1 1.6l-.5.4zm-2.8-2.1c-.1-.7-.3-1.2-.7-1.6-.4-.3-.9-.5-1.5-.4-.7.1-1.3.4-1.7.9-.4.5-.6 1.2-.7 2.1l4.5-.6.1-.4zm11.2 4.3c.6-.1 1.2-.3 1.7-.7l.3.2-.1 2.2c-.9.6-1.8 1-2.7 1.2-2.4 0-3.8-1-4-3.1l-.1-2.2-.6-4.6-1.7.2-.2-.2v-2l1.6-.2-.2-2.1 3.1-1.4.3.2.3 2.9 3.2-.4.1.2.1 2-3.2.4.6 6c.1.6.2 1 .5 1.2.2.2.5.3 1 .2zm18.2-5.1l.3 2.2c0 .3.1.5.2.6.1.1.3.1.5.1s.4-.1.7-.2l.3.2-.1 1.9c-.6.4-1.2.8-1.9.9-.6 0-1-.1-1.5-.4-.5-.3-.7-.7-.9-1.2h-.2c-.8.9-1.6 1.6-2.5 2.2-1.8.2-3.2-.2-4.3-1.2-1.1-1-1.8-2.5-2-4.5-.3-2.1.1-3.8 1.1-5.1 1-1.3 2.4-2 4.4-2.2.5-.1 1.1-.1 1.7 0l-.8-6 3.5-.7 1.5 13.4zm-5.8-4.1c-1.8.2-2.5 1.5-2.3 3.7.2 1.4.5 2.4 1 3.1.5.7 1.2.9 2 .8.8-.1 1.5-.5 2-1.4l-.1-1.5-.6-4.6c-.7-.1-1.4-.2-2-.1zm19.1 2.3l-7.2.9c.4 2.2 1.7 3.2 3.8 2.9 1.1-.1 2.3-.6 3.6-1.4l.3.2-.2 2.7c-1.3.7-2.5 1.1-3.7 1.2-2 .2-3.6-.2-4.8-1.2-1.2-1-2-2.5-2.2-4.5-.2-2 .1-3.6 1.1-4.9.9-1.3 2.4-2.1 4.2-2.3 1.6-.2 2.9.1 3.8.9 1 .8 1.6 1.9 1.7 3.5.1.4.1.9.1 1.6l-.5.4zm-2.9-2.1c-.1-.7-.3-1.2-.7-1.6-.4-.3-.9-.5-1.5-.4-.7.1-1.2.4-1.7.9-.4.5-.6 1.2-.7 2.1l4.5-.6.1-.4zm14.3-6.3c1.8-.2 3.3.2 4.4 1.1 1.1 1 1.8 2.4 2 4.5.3 2.2-.1 3.9-1 5.2-.9 1.3-2.3 2-4.3 2.3-1.8.2-3.3-.2-4.4-1.1-1.1-1-1.8-2.4-2-4.5-.3-2.2.1-3.9 1-5.2.9-1.3 2.4-2.1 4.3-2.3zm.1 2.4c-.9.1-1.5.5-1.8 1.1-.3.6-.4 1.6-.2 2.8.2 1.6.5 2.8 1 3.4.5.6 1.2.9 2.1.8.9-.1 1.4-.5 1.8-1.1.3-.6.4-1.6.3-2.9-.2-1.6-.5-2.8-1-3.4-.7-.5-1.4-.8-2.2-.7zm10.3-1.4l2.7 6.9h.2l1.4-7.2.2-2.2 3.1-.4-2.7 13-3.8.5-5-12 3.3-.6.6 2zm19.5 2.4l-7.2.9c.4 2.2 1.7 3.2 3.8 2.9 1.1-.1 2.3-.6 3.6-1.4l.3.2-.2 2.7c-1.3.7-2.5 1.1-3.7 1.2-2 .2-3.6-.2-4.8-1.2-1.2-1-2-2.5-2.2-4.5-.2-2 .1-3.6 1.1-4.9 1-1.3 2.4-2.1 4.2-2.3 1.6-.2 2.9.1 3.8.9 1 .8 1.6 1.9 1.7 3.5 0 .4.1.9.1 1.6l-.5.4zm-2.9-2c-.1-.7-.3-1.2-.7-1.6-.4-.3-.9-.5-1.5-.4-.7.1-1.3.4-1.7.9-.4.5-.6 1.2-.7 2.1l4.5-.6.1-.4zm12-5.8h.7l.4 3.3-.4.2c-.3-.1-.7-.1-1-.1-1 .1-1.9.9-2.6 2.3l.2 1.7.8 5.5-3.6.4-.4-5.2-1-7.1 3.3-.7.3 2.4h.2c.8-1.7 1.7-2.6 3.1-2.7zm5 1.3l2.4 6.8h.2l1.1-7 .2-2.1 3.5-.4.5 1.8 2.4 6.8h.2l1-7 .2-2.1 3-.4-2.4 12.9-3.4.4-2.9-7.8h-.2l-1.3 8.3-3.5.4-4.7-12 3.2-.5.5 1.9zm17.4 3.4l-1-7.1 3.5-.7.7 7 .8 5.5-3.6.4-.4-5.1zm.1-13.6c.6-.1 1 0 1.3.3.4.3.6.7.6 1.3.1.6 0 1.1-.3 1.5-.3.4-.7.6-1.3.7-.6.1-1.1 0-1.4-.3-.3-.3-.5-.7-.6-1.3-.1-.6 0-1.1.3-1.5.3-.4.8-.6 1.4-.7zm14 9.3c-.1-.6-.3-1.1-.6-1.4-.3-.3-.8-.5-1.3-.4-.8.1-1.6.6-2.4 1.5l.4 3.1.8 5.5-3.6.4-.4-5.2-1-7.1 3.3-.7.2 1.8h.2c.9-1 1.9-1.8 3-2.3 1.4-.2 2.4 0 3.2.6.8.5 1.2 1.4 1.3 2.5l.3 3.6.8 5.5-3.6.4-.6-7.8zm14-1.7c-.1-.6-.3-1.1-.6-1.4-.3-.3-.8-.5-1.3-.4-.8.1-1.6.6-2.4 1.5l.4 3.1.8 5.5-3.6.4-.4-5.2-1-7.1 3.3-.7.2 1.8h.2c.9-1 1.9-1.8 3-2.3 1.4-.2 2.4 0 3.2.6.8.5 1.2 1.4 1.3 2.5l.3 3.6.8 5.4-3.6.4-.6-7.7zm7.1 1.8l-1-7.1 3.5-.7.7 7 .8 5.5-3.6.4-.4-5.1zm.1-13.6c.6-.1 1 0 1.3.3.4.3.6.7.6 1.3.1.6 0 1.1-.3 1.5-.3.4-.7.6-1.3.7-.6.1-1.1 0-1.4-.3-.3-.3-.5-.7-.6-1.3-.1-.6 0-1.1.3-1.5.3-.4.8-.6 1.4-.7zm14 9.3c-.1-.6-.3-1.1-.6-1.4-.3-.3-.8-.5-1.3-.4-.8.1-1.6.6-2.4 1.5l.4 3.1.8 5.5-3.6.4-.4-5.2-1-7.1 3.3-.7.2 1.8h.2c.9-1 1.9-1.8 3-2.3 1.4-.2 2.4 0 3.2.6.8.5 1.2 1.4 1.3 2.5l.3 3.6.8 5.5-3.6.4-.6-7.8zm18.1-5.2c-.5.2-1.1.4-2 .6v.1c.3.5.5 1.1.6 1.7.2 1.3-.2 2.5-1.1 3.4-.9.9-2.1 1.5-3.8 1.6-.5.1-1 .1-1.6.1-.1.2-.2.3-.3.4 0 .1-.1.2 0 .3 0 .3.3.5.7.6.4.1 1.1.1 2.1.1 1.1 0 2 0 2.7.1.7.1 1.4.3 1.9.7.6.4.9 1 1 1.8.1.8-.1 1.6-.5 2.3-.4.7-1.1 1.4-2 1.8-.9.5-1.9.8-3.1.9-1.6.2-2.9 0-3.9-.5-1-.6-1.5-1.4-1.6-2.5.5-.8 1.1-1.6 2-2.3v-.1c-.6-.1-1.1-.4-1.5-.7-.4-.4-.6-.9-.7-1.5.4-.6 1-1.3 1.6-1.9v-.1c-.7-.3-1.2-.7-1.6-1.2-.4-.6-.6-1.2-.7-2-.2-1.4.2-2.5 1.1-3.4.9-.9 2.1-1.5 3.8-1.6 1-.1 1.9-.1 2.7.2 1.3-.4 2.5-.9 3.8-1.5l.3.2.1 2.4zm-6.4 5.4c.7-.1 1.3-.3 1.6-.8.3-.4.5-1 .4-1.7-.2-1.4-.9-2-2.3-1.8-1.5.2-2.2 1-2 2.3.1.7.3 1.2.7 1.6.3.3.9.4 1.6.4zm3.7 7.3c-.1-.5-.4-.8-.9-.9-.5-.1-1.3-.2-2.4-.2h-.9c-.4.3-.7.7-.9.9-.2.3-.3.6-.2.9.1.5.3.8.8 1 .5.2 1.1.3 1.9.2.8-.1 1.5-.3 2-.7.5-.2.7-.7.6-1.2zm9.1-7.8l-1-7.1 3.5-.7.7 7 .8 5.5-3.6.4-.4-5.1zm.1-13.6c.6-.1 1 0 1.3.3.4.3.6.7.6 1.3.1.6 0 1.1-.3 1.5-.3.4-.7.6-1.3.7-.6.1-1.1 0-1.4-.3-.3-.3-.5-.7-.6-1.3-.1-.6 0-1.1.3-1.5.4-.4.8-.6 1.4-.7zm14 9.3c-.1-.6-.3-1.1-.6-1.4-.3-.3-.8-.5-1.3-.4-.8.1-1.6.6-2.4 1.5l.4 3.1.8 5.5-3.6.4-.4-5.2-1-7.1 3.3-.7.2 1.8h.2c.9-1 1.9-1.8 3-2.3 1.4-.2 2.4 0 3.2.6.8.5 1.2 1.4 1.3 2.5l.3 3.6.8 5.5-3.6.4-.6-7.8zM182.6 542l5.4-.6 1.4-.2.3 2.1-5.1 8.8 3.8-.5 2.3-.5.2.2v2.3l-3.1.3-4.9.6-1.7.3-.2-2.1 5.1-8.9-3.6.4-2.2.5-.2-.2v-2.3l2.5-.2zm10.4 6.2l-1-7.1 3.5-.7.7 7 .8 5.5-3.6.4-.4-5.1zm.1-13.6c.6-.1 1 0 1.3.3.4.3.6.7.6 1.3.1.6 0 1.1-.3 1.5-.3.4-.7.6-1.3.7-.6.1-1.1 0-1.4-.3-.3-.3-.5-.7-.6-1.3-.1-.6 0-1.1.3-1.5.3-.4.8-.7 1.4-.7zm10 5l.6 7 .7 4.8c.2 1.4 0 2.6-.6 3.6s-1.6 2-3.1 2.8l-1.4-1.4v-.3c.8-.5 1.3-1.1 1.5-1.8.3-.6.3-1.5.2-2.4l-.5-4.5-.7-5.1-2.2.3-.2-.2v-2l2.3-.3 3.3-.6.1.1zm-2.7-5.9c.6-.1 1 0 1.3.3.4.3.6.7.6 1.3.1.6 0 1.1-.3 1.5-.3.4-.7.6-1.3.7-.6.1-1.1 0-1.4-.3-.3-.3-.5-.7-.6-1.3-.1-.6 0-1.1.3-1.5.3-.4.7-.6 1.4-.7zm14.4 9.2c-.1-.6-.3-1.1-.6-1.4-.3-.3-.8-.5-1.3-.4-.8.1-1.6.6-2.4 1.5l.4 3.1.8 5.5-3.6.4-.4-5.2-1-7.1 3.3-.7.2 1.8h.2c.9-1 1.9-1.8 3-2.3 1.4-.2 2.4 0 3.2.6.8.5 1.2 1.4 1.3 2.5l.3 3.6.8 5.5-3.6.4-.6-7.8zm14.9-6.7c1.4-.2 2.5 0 3.3.6.9.5 1.4 1.3 1.5 2.4 0 .3.1 1.3.2 3.1 0 .5.1 1 .1 1.6 0 .5.1 1 .1 1.3 0 .3.1.5.2.6.1.1.3.1.5.1s.4-.1.7-.2l.3.2-.1 1.9c-.5.4-1.2.7-1.9.9-.5 0-1-.1-1.4-.4-.4-.3-.7-.7-.9-1.3h-.2c-.8 1.1-1.6 1.8-2.5 2.3-1.3.1-2.3-.1-3.2-.7-.8-.6-1.3-1.4-1.4-2.6-.1-.9 0-1.6.4-2.2.4-.6 1.1-1 2-1.3l4-1.3-.1-1.1c-.1-1.2-.8-1.7-1.9-1.5-.6.1-1.1.3-1.7.6-.6.3-1.2.8-1.9 1.4l-.3-.1-.7-2.3c.7-.6 1.5-1 2.3-1.4.8-.3 1.7-.5 2.6-.6zm-.9 7.9c-.3.1-.5.3-.6.5-.1.2-.1.4-.1.8.1.5.2.8.5 1.1.3.2.6.3 1.1.3.7-.1 1.4-.6 2.1-1.5l-.2-2-2.8.8zm14-9.5c.6-.1 1.2-.1 1.8 0 .6 0 1.1.1 1.6.3l-.2 2.9-.3.2c-1-.4-1.8-.5-2.5-.5-.8.1-1.4.5-1.8 1.1-.4.6-.5 1.5-.4 2.6.1 1.3.5 2.2 1.1 2.8.6.6 1.3.9 2.2.7.8-.1 1.7-.4 2.6-1l.3.2v2.8c-1 .5-2.1.8-3.2.9-1.7.2-3.1-.2-4.2-1.2s-1.8-2.5-2-4.5c-.2-2.1.1-3.8 1-5 .7-1.3 2.1-2.1 4-2.3zm13.4 3.4c-.1-.6-.3-1.1-.6-1.4-.3-.3-.8-.4-1.3-.4-.8.1-1.6.6-2.4 1.5l.3 3.1.8 5.5-3.6.4-.4-5.2-1.8-13.4 3.5-.7.8 8.1h.2c.9-1 1.9-1.8 3-2.3 1.4-.2 2.4 0 3.2.6.8.5 1.2 1.4 1.4 2.5l.3 3.6.8 5.5-3.6.4-.6-7.8zm12.2 3.8c.6-.1 1.2-.3 1.7-.7l.3.2-.1 2.2c-.9.6-1.8 1-2.7 1.2-2.4 0-3.8-1-4-3.1l-.1-2.2-.6-4.6-1.7.2-.2-.2v-2l1.6-.2-.2-2.1 3.1-1.4.3.2.3 2.9 3.2-.4.1.2.1 2-3.2.4.6 6c.1.6.2 1 .5 1.2.1.1.5.2 1 .2zm13.1-4.8l-7.2.9c.4 2.2 1.7 3.2 3.8 2.9 1.1-.1 2.3-.6 3.6-1.4l.3.2-.2 2.7c-1.3.7-2.5 1.1-3.7 1.2-2 .2-3.6-.2-4.8-1.2-1.2-1-2-2.5-2.2-4.5-.2-2 .1-3.6 1.1-4.9.9-1.3 2.4-2.1 4.2-2.3 1.6-.2 2.9.1 3.8.9 1 .8 1.6 1.9 1.7 3.5 0 .4.1.9.1 1.6l-.5.4zm-2.8-2.1c-.1-.7-.3-1.2-.7-1.6-.4-.3-.9-.5-1.5-.4-.7.1-1.2.4-1.7.9-.4.5-.6 1.2-.7 2.1l4.5-.6.1-.4zm11.9-5.8h.7l.4 3.3-.4.2c-.3-.1-.7-.1-1-.1-1 .1-1.9.9-2.6 2.3l.2 1.7.8 5.5-3.6.4-.4-5.2-1-7.1 3.3-.7.3 2.4h.2c.8-1.6 1.8-2.5 3.1-2.7zm10.5 3.5c-.1-.6-.3-1.1-.6-1.4-.3-.3-.8-.4-1.3-.4-.8.1-1.6.6-2.4 1.5l.3 3.1.8 5.5-3.6.4-.4-5.2-1.8-13.4 3.5-.7.8 8.1h.2c.9-1 1.9-1.8 3-2.3 1.4-.2 2.4 0 3.2.6.8.5 1.2 1.4 1.4 2.5l.3 3.6.8 5.5-3.6.4-.6-7.8zm11.1-6.3c1.8-.2 3.3.2 4.4 1.1 1.1 1 1.8 2.4 2 4.5.3 2.2-.1 3.9-1 5.2-.9 1.3-2.3 2-4.3 2.3-1.8.2-3.3-.2-4.4-1.1-1.1-1-1.8-2.4-2-4.5-.3-2.2.1-3.9 1-5.2 1-1.3 2.4-2.1 4.3-2.3zm.1 2.4c-.9.1-1.4.5-1.8 1.1-.3.6-.4 1.6-.2 2.8.2 1.6.5 2.8 1 3.4.5.7 1.2.9 2.1.8.9-.1 1.4-.5 1.8-1.1.3-.6.4-1.6.3-2.9-.2-1.6-.5-2.8-1-3.4-.7-.5-1.3-.8-2.2-.7zm13.2-4c1.8-.2 3.3.2 4.4 1.1 1.1 1 1.8 2.4 2 4.5.3 2.2-.1 3.9-1 5.2-.9 1.3-2.3 2-4.3 2.3-1.8.2-3.3-.2-4.4-1.1-1.1-1-1.8-2.4-2-4.5-.3-2.2.1-3.9 1-5.2.9-1.3 2.3-2 4.3-2.3zm0 2.5c-.9.1-1.5.5-1.8 1.1-.3.6-.4 1.6-.2 2.8.2 1.6.5 2.8 1 3.4.5.7 1.2.9 2.1.8.9-.1 1.4-.5 1.8-1.1.3-.6.4-1.6.3-2.9-.2-1.6-.5-2.8-1-3.4-.6-.6-1.3-.8-2.2-.7zm13.3-10.3c.7-.1 1.5-.1 2.4 0l.1 2.7-.2.2c-.9-.3-1.6-.3-2.3-.3-1.1.1-1.6.8-1.5 2.1l.2 2.1 3-.4.1.2.1 2-3 .4.5 4.7.8 5.5-3.6.4-.4-5.2-.7-5-1.9.2-.2-.2v-2l1.8-.2-.2-1.5c-.2-1.6.1-2.9 1-3.9 1-1 2.3-1.6 4-1.8zm14.1 11.9l.3 2.2c0 .3.1.5.2.6.1.1.3.1.5.1s.4-.1.7-.2l.3.2-.1 1.9c-.6.4-1.2.8-1.9.9-.6 0-1-.1-1.5-.4-.4-.3-.7-.7-.9-1.2h-.2c-.8.9-1.6 1.6-2.5 2.2-1.8.2-3.2-.2-4.3-1.2-1.1-1-1.8-2.5-2-4.5-.3-2.1.1-3.8 1.1-5.1 1-1.3 2.4-2 4.4-2.2.5-.1 1.1-.1 1.7 0l-.8-6 3.5-.7 1.5 13.4zm-5.8-4.2c-1.8.2-2.5 1.5-2.3 3.7.2 1.4.5 2.4 1 3.1.5.7 1.2.9 2 .8.8-.1 1.5-.5 2-1.4l-.1-1.5-.6-4.6c-.7-.1-1.4-.2-2-.1zm15.3-2l2.7 6.9h.2l1.4-7.2.2-2.2 3.1-.4-2.7 13-3.8.5-5-12 3.3-.6.6 2zm19.5 2.4l-7.2.9c.4 2.2 1.7 3.2 3.8 2.9 1.1-.1 2.3-.6 3.6-1.4l.3.2-.2 2.7c-1.3.7-2.5 1.1-3.7 1.2-2 .2-3.6-.2-4.8-1.2-1.2-1-2-2.5-2.2-4.5-.2-2 .1-3.6 1.1-4.9 1-1.3 2.4-2.1 4.2-2.3 1.6-.2 2.9.1 3.8.9 1 .8 1.6 1.9 1.7 3.5 0 .4.1.9.1 1.6l-.5.4zm-2.9-2.1c-.1-.7-.3-1.2-.7-1.6-.4-.3-.9-.5-1.5-.4-.7.1-1.2.4-1.7.9-.4.5-.6 1.2-.7 2.1l4.5-.6.1-.4zm12-5.8h.7l.4 3.3-.4.2c-.3-.1-.7-.1-1-.1-1 .1-1.9.9-2.6 2.3l.2 1.7.8 5.5-3.6.4-.4-5.2-1-7.1 3.3-.7.3 2.4h.2c.8-1.6 1.7-2.5 3.1-2.7zm6.5 6.3l.8 5.5-3.6.4-.4-5.2-1.8-13.4 3.5-.7 1.5 13.4zm7.6-8.2c1.4-.2 2.5 0 3.3.6.9.5 1.4 1.3 1.5 2.4 0 .3.1 1.3.2 3.1 0 .5.1 1 .1 1.6 0 .5.1 1 .1 1.3 0 .3.1.5.2.6.1.1.3.1.5.1s.4-.1.7-.2l.3.2-.1 1.9c-.5.4-1.2.7-1.9.9-.5 0-1-.1-1.4-.4-.4-.3-.7-.7-.9-1.3h-.2c-.8 1.1-1.6 1.8-2.5 2.3-1.3.1-2.3-.1-3.2-.7-.8-.6-1.3-1.4-1.4-2.6-.1-.9 0-1.6.4-2.2.4-.6 1.1-1 2-1.3l4-1.3-.1-1.1c-.1-1.2-.8-1.7-1.9-1.5-.6.1-1.1.3-1.7.6-.6.3-1.2.8-1.9 1.4l-.3-.1-.7-2.3c.7-.6 1.5-1 2.3-1.4.8-.2 1.7-.5 2.6-.6zm-.9 8c-.3.1-.5.3-.6.5-.1.2-.1.4-.1.8.1.5.2.8.5 1.1.3.2.6.3 1.1.2.7-.1 1.4-.6 2.1-1.5l-.2-2-2.8.9zm13.8-9.5c1.4-.2 2.5 0 3.3.6.9.5 1.4 1.3 1.5 2.4 0 .3.1 1.3.2 3.1 0 .5.1 1 .1 1.6 0 .5.1 1 .1 1.3 0 .3.1.5.2.6.1.1.3.1.5.1s.4-.1.7-.2l.3.2-.1 1.9c-.5.4-1.2.7-1.9.9-.5 0-1-.1-1.4-.4-.4-.3-.7-.7-.9-1.3h-.2c-.8 1.1-1.6 1.8-2.5 2.3-1.3.1-2.3-.1-3.2-.7-.8-.6-1.3-1.4-1.4-2.6-.1-.9 0-1.6.4-2.2.4-.6 1.1-1 2-1.3l4-1.3-.1-1.1c-.1-1.2-.8-1.7-1.9-1.5-.6.1-1.1.3-1.7.6-.6.3-1.2.8-1.9 1.4l-.3-.1-.7-2.3c.7-.6 1.5-1 2.3-1.4.8-.3 1.7-.5 2.6-.6zm-.8 7.9c-.3.1-.5.3-.6.5-.1.2-.1.4-.1.8.1.5.2.8.5 1.1.3.2.6.3 1.1.3.7-.1 1.4-.6 2.1-1.5l-.2-2-2.8.8zm15 .6c.6-.1 1.2-.3 1.7-.7l.3.2-.1 2.2c-.9.6-1.8 1-2.7 1.2-2.4 0-3.8-1-4-3.1l-.1-2.2-.6-4.6-1.7.2-.2-.2v-2l1.6-.2-.2-2.1 3.1-1.4.3.2.3 2.9 3.2-.4.1.2.1 2-3.2.4.6 6c.1.6.2 1 .5 1.2.2.2.5.3 1 .2zm-229.6 62.3l-3.8.5-3.6-8h-.2l-1.6 8.6-3.8.5-6.9-16.7 3.6-.4.5 2.1 4.4 11h.2l1.8-9.7-1.7-4.1 3.7-.4.7 2.4 4.4 10.6h.2l2.2-11.6.1-2.4 3.4-.4-3.6 18zm7.1-6.1l-1-7.1 3.5-.7.7 7 .8 5.5-3.6.4-.4-5.1zm0-13.6c.6-.1 1 0 1.3.3.4.3.6.7.6 1.3.1.6 0 1.1-.3 1.5-.3.4-.7.6-1.3.7-.6.1-1.1 0-1.4-.3-.3-.3-.5-.7-.6-1.3-.1-.6 0-1.1.3-1.5.4-.4.8-.6 1.4-.7zm10.1 12.1l.8 5.5-3.6.4-.4-5.2-1.8-13.4 3.5-.7 1.5 13.4zm7.1-.9l.8 5.5-3.6.4-.4-5.2-1.8-13.4 3.5-.7 1.5 13.4zm13.2-1.8l-7.2.9c.4 2.2 1.7 3.2 3.8 2.9 1.1-.1 2.3-.6 3.6-1.4l.3.2-.2 2.7c-1.3.7-2.5 1.1-3.7 1.2-2 .2-3.6-.2-4.8-1.2-1.2-1-2-2.5-2.2-4.5-.2-2 .1-3.6 1.1-4.9.9-1.3 2.4-2.1 4.2-2.3 1.6-.2 2.9.1 3.8.9 1 .8 1.6 1.9 1.7 3.5 0 .4.1.9.1 1.6l-.5.4zm-2.9-2.1c-.1-.7-.3-1.2-.7-1.6-.4-.3-.9-.5-1.5-.4-.7.1-1.2.4-1.7.9-.4.5-.6 1.2-.7 2.1l4.5-.6.1-.4zm21.5 5.7l-.7-7.8c-.2-1.3-.8-1.9-1.9-1.8-.8.1-1.6.6-2.4 1.4l.3 3.2.8 5.5-3.6.4-.7-7.8c-.1-.6-.3-1.1-.6-1.4-.3-.3-.8-.4-1.3-.4-.8.1-1.6.6-2.5 1.4l.4 3.1.8 5.5-3.5.4-.4-5.2-1-7.1 3.3-.7.2 1.8h.2c.9-1 1.9-1.8 3-2.3 2-.2 3.4.3 4.1 1.6h.2c.9-1.1 2-1.9 3.2-2.4 1.4-.2 2.4 0 3.2.6.8.5 1.2 1.4 1.3 2.5l.3 3.6.8 5.5-3.5.4zm14.5-15.2l.7 7.8.9 5.6-3.6.4-.5-5.2-.5-4.4-2.9 1.2-.3-.2-.3-2.9 6.1-2.5.4.2zm16.8 3.6c-.1-.6-.3-1.1-.6-1.4-.3-.3-.8-.4-1.3-.4-.8.1-1.6.6-2.4 1.5l.3 3.1.8 5.5-3.6.4-.4-5.2-1.8-13.4 3.5-.7.8 8.1h.2c.9-1 1.9-1.8 3-2.3 1.4-.2 2.4 0 3.2.6.8.5 1.2 1.4 1.4 2.5l.3 3.6.8 5.5-3.6.4-.6-7.8zm16.4 0l-7.2.9c.4 2.2 1.7 3.2 3.8 2.9 1.1-.1 2.3-.6 3.6-1.4l.3.2-.2 2.7c-1.3.7-2.5 1.1-3.7 1.2-2 .2-3.6-.2-4.8-1.2-1.2-1-2-2.5-2.2-4.5-.2-2 .1-3.6 1.1-4.9.9-1.3 2.4-2.1 4.2-2.3 1.6-.2 2.9.1 3.8.9 1 .8 1.6 1.9 1.7 3.5 0 .4.1.9.1 1.6l-.5.4zm-2.9-2c-.1-.7-.3-1.2-.7-1.6-.4-.3-.9-.5-1.5-.4-.7.1-1.2.4-1.7.9-.4.5-.6 1.2-.7 2.1l4.5-.6.1-.4zm11.3 4.2c.6-.1 1.2-.3 1.7-.7l.3.2-.1 2.2c-.9.6-1.8 1-2.7 1.2-2.4 0-3.8-1-4-3.1l-.1-2.2-.6-4.6-1.7.2-.2-.2v-2l1.6-.2-.2-2.1 3.1-1.4.3.2.3 2.9 3.2-.4.1.2.1 2-3.2.4.6 6c.1.6.2 1 .5 1.2.1.2.5.3 1 .2zm12-11.6c.6-.1 1.2-.1 1.8 0 .6 0 1.1.1 1.6.3l-.3 2.9-.3.2c-1-.4-1.8-.5-2.5-.5-.8.1-1.4.5-1.8 1.1-.4.6-.5 1.5-.4 2.6.1 1.3.5 2.2 1.1 2.8.6.6 1.3.9 2.2.7.8-.1 1.7-.4 2.6-1l.3.2v2.8c-1 .5-2.1.8-3.2.9-1.7.2-3.1-.2-4.2-1.2s-1.8-2.5-2-4.5c-.2-2.1.1-3.8 1-5 .8-1.3 2.2-2.1 4.1-2.3zm9.9-1.2c1.4-.2 2.5 0 3.3.6.9.5 1.4 1.3 1.5 2.4 0 .3.1 1.3.2 3.1 0 .5.1 1 .1 1.6 0 .5.1 1 .1 1.3 0 .3.1.5.2.6.1.1.3.1.5.1s.4-.1.7-.2l.3.2-.1 1.9c-.5.4-1.2.7-1.9.9-.5 0-1-.1-1.4-.4-.4-.3-.7-.7-.9-1.3h-.2c-.8 1.1-1.6 1.8-2.5 2.3-1.3.1-2.3-.1-3.2-.7-.8-.6-1.3-1.4-1.4-2.6-.1-.9 0-1.6.4-2.2.4-.6 1.1-1 2-1.3l4-1.3-.1-1.1c-.1-1.2-.8-1.7-1.9-1.5-.6.1-1.1.3-1.7.6-.6.3-1.2.8-1.9 1.4l-.3-.1-.7-2.3c.7-.6 1.5-1 2.3-1.4.8-.2 1.7-.5 2.6-.6zm-.9 7.9c-.3.1-.5.3-.6.5-.1.2-.1.4-.1.8.1.5.2.8.5 1.1.3.2.6.3 1.1.3.7-.1 1.4-.6 2.1-1.5l-.2-2-2.8.8zm13-9.3c1.2-.1 2.4-.1 3.5.2l-.2 2.7-.4.2c-.6-.3-1.1-.5-1.6-.6-.5-.1-1-.2-1.4-.1-.4.1-.8.2-1 .5-.2.2-.3.5-.3.8 0 .4.2.7.6.9.4.2.9.4 1.7.6.7.2 1.4.4 1.9.6.5.2.9.5 1.3 1 .4.4.6 1 .7 1.7.1.7 0 1.4-.3 2.1-.3.7-.8 1.2-1.5 1.7s-1.6.8-2.7.9c-1.3.2-2.6 0-4.1-.3l.1-2.8.3-.3c.6.4 1.3.7 2 .9.7.2 1.3.2 1.8.2.5-.1.8-.2 1.1-.5.2-.3.3-.6.3-.9 0-.4-.2-.7-.6-.8-.3-.2-.9-.4-1.6-.6-.8-.2-1.4-.4-1.9-.6-.5-.2-.9-.5-1.3-1-.4-.4-.6-1-.7-1.7-.1-1.2.2-2.2 1-3 .7-1.1 1.8-1.6 3.3-1.8zm7.3 6.8l-1-7.1 3.5-.7.7 7 .8 5.5-3.6.4-.4-5.1zm.1-13.7c.6-.1 1 0 1.3.3.4.3.6.7.6 1.3.1.6 0 1.1-.3 1.5-.3.4-.7.6-1.3.7-.6.1-1.1 0-1.4-.3-.3-.3-.5-.7-.6-1.3-.1-.6 0-1.1.3-1.5.3-.4.8-.6 1.4-.7zm14 9.3c-.1-.6-.3-1.1-.6-1.4-.3-.3-.8-.5-1.3-.4-.8.1-1.6.6-2.4 1.5l.4 3.1.8 5.5-3.6.4-.4-5.2-1-7.1 3.3-.7.2 1.8h.2c.9-1 1.9-1.8 3-2.3 1.4-.2 2.4 0 3.2.6.8.5 1.2 1.4 1.3 2.5l.3 3.6.8 5.5-3.6.4-.6-7.8zm11.1-6.3c1.8-.2 3.3.2 4.4 1.1 1.1 1 1.8 2.4 2 4.5.3 2.2-.1 3.9-1 5.2-.9 1.3-2.3 2-4.3 2.2-1.8.2-3.3-.2-4.4-1.1-1.1-1-1.8-2.4-2-4.5-.3-2.2.1-3.9 1-5.2.9-1.2 2.4-2 4.3-2.2zm0 2.4c-.9.1-1.4.5-1.8 1.1-.3.6-.4 1.6-.2 2.8.2 1.6.5 2.8 1 3.4.5.7 1.2.9 2.1.8.9-.1 1.4-.5 1.8-1.1.3-.6.4-1.6.3-2.9-.2-1.6-.5-2.8-1-3.4-.6-.5-1.3-.8-2.2-.7zm10.4 5.6c.9.5 1.4 1.3 1.5 2.2.2 1.6-.7 3.2-2.7 5l-1.3-.9-.1-.3c.9-.9 1.3-1.9 1.2-2.8-.1-.6-.4-1.1-1.1-1.5v-.3c.8-.5 1.7-1 2.5-1.4zm9.4-8.2l2.4 6.8h.2l1.1-7 .2-2.1 3.5-.4.5 1.8 2.4 6.8h.2l1-7 .2-2.1 3-.4-2.4 12.9-3.4.4-2.9-7.8h-.2l-1.3 8.3-3.5.4-4.7-12 3.2-.5.5 1.9zm20.8-4.7c1.4-.2 2.5 0 3.3.6.9.5 1.4 1.3 1.5 2.4 0 .3.1 1.3.2 3.1 0 .5.1 1 .1 1.6 0 .5.1 1 .1 1.3 0 .3.1.5.2.6.1.1.3.1.5.1s.4-.1.7-.2l.3.2-.1 1.9c-.5.4-1.2.7-1.9.9-.5 0-1-.1-1.4-.4-.4-.3-.7-.7-.9-1.3h-.2c-.8 1.1-1.6 1.8-2.5 2.3-1.3.1-2.3-.1-3.2-.7-.8-.6-1.3-1.4-1.4-2.6-.1-.9 0-1.6.4-2.2.4-.6 1.1-1 2-1.3l4-1.3-.1-1.1c-.1-1.2-.8-1.7-1.9-1.5-.6.1-1.1.3-1.7.6-.6.3-1.2.8-1.9 1.4l-.3-.1-.7-2.3c.7-.6 1.5-1 2.3-1.4.9-.2 1.7-.5 2.6-.6zm-.8 8c-.3.1-.5.3-.6.5-.1.2-.1.4-.1.8.1.5.2.8.5 1.1.3.2.6.3 1.1.2.7-.1 1.4-.6 2.1-1.5l-.2-2-2.8.9zm15 .6c.6-.1 1.2-.3 1.7-.7l.3.2-.1 2.2c-.9.6-1.8 1-2.7 1.2-2.4 0-3.8-1-4-3.1l-.1-2.2-.6-4.6-1.7.2-.2-.2v-2l1.6-.2-.2-2.1 3.1-1.4.3.2.3 2.9 3.2-.4.1.2.1 2-3.2.4.6 6c.1.6.2 1 .5 1.2.2.2.5.2 1 .2zm-237.5 57.3l-7.2.9c.4 2.2 1.7 3.2 3.8 2.9 1.1-.1 2.3-.6 3.6-1.4l.3.2-.2 2.7c-1.3.7-2.5 1.1-3.7 1.2-2 .2-3.6-.2-4.8-1.2-1.2-1-2-2.5-2.2-4.5-.2-2 .1-3.6 1.1-4.9.9-1.3 2.4-2.1 4.2-2.3 1.6-.2 2.9.1 3.8.9 1 .8 1.6 1.9 1.7 3.5 0 .4.1.9.1 1.6l-.5.4zm-2.9-2c-.1-.7-.3-1.2-.7-1.6-.4-.3-.9-.5-1.5-.4-.7.1-1.2.4-1.7.9-.4.5-.6 1.2-.7 2.1l4.5-.6.1-.4zm15.5.5l-7.2.9c.4 2.2 1.7 3.2 3.8 2.9 1.1-.1 2.3-.6 3.6-1.4l.3.2-.2 2.7c-1.3.7-2.5 1.1-3.7 1.2-2 .2-3.6-.2-4.8-1.2-1.2-1-2-2.5-2.2-4.5-.2-2 .1-3.6 1.1-4.9 1-1.3 2.4-2.1 4.2-2.3 1.6-.2 2.9.1 3.8.9 1 .8 1.6 1.9 1.7 3.5 0 .4.1.9.1 1.6l-.5.4zm-2.8-2c-.1-.7-.3-1.2-.7-1.6-.4-.3-.9-.5-1.5-.4-.7.1-1.2.4-1.7.9-.4.5-.6 1.2-.7 2.1l4.5-.6.1-.4zm13.2-1.2c-.1-.6-.3-1.1-.6-1.4-.3-.3-.8-.5-1.3-.4-.8.1-1.6.6-2.4 1.5l.4 3.1.8 5.5-3.6.4-.4-5.2-1-7.1 3.3-.7.2 1.8h.2c.9-1 1.9-1.8 3-2.3 1.4-.2 2.4 0 3.2.6.8.5 1.2 1.4 1.3 2.5l.3 3.6.8 5.4-3.6.4-.6-7.7zm14.9-6.8c1.4-.2 2.5 0 3.3.6.9.5 1.4 1.3 1.5 2.4 0 .3.1 1.3.2 3.1 0 .5.1 1 .1 1.6 0 .5.1 1 .1 1.3 0 .3.1.5.2.6.1.1.3.1.5.1s.4-.1.7-.2l.3.2-.1 1.9c-.5.4-1.2.7-1.9.9-.5 0-1-.1-1.4-.4-.4-.3-.7-.7-.9-1.3h-.2c-.8 1.1-1.6 1.8-2.5 2.3-1.3.1-2.3-.1-3.2-.7-.8-.6-1.3-1.4-1.4-2.6-.1-.9 0-1.6.4-2.2.4-.6 1.1-1 2-1.3l4-1.3-.1-1.1c-.1-1.2-.8-1.7-1.9-1.5-.6.1-1.1.3-1.7.6-.6.3-1.2.8-1.9 1.4l-.3-.1-.7-2.3c.7-.6 1.5-1 2.3-1.4.9-.3 1.8-.5 2.6-.6zm-.8 7.9c-.3.1-.5.3-.6.5-.1.2-.1.4-.1.8.1.5.2.8.5 1.1.3.2.6.3 1.1.3.7-.1 1.4-.6 2.1-1.5l-.2-2-2.8.8zm11.2-6.9l2.7 6.9h.2l1.4-7.2.2-2.2 3.1-.4-2.7 13-3.8.5-5-12 3.3-.6.6 2zm14.2-3.9c1.8-.2 3.3.2 4.4 1.1 1.1 1 1.8 2.4 2 4.5.3 2.2-.1 3.9-1 5.2-.9 1.3-2.3 2-4.3 2.2-1.8.2-3.3-.2-4.4-1.1-1.1-1-1.8-2.4-2-4.5-.3-2.2.1-3.9 1-5.2 1-1.3 2.4-2 4.3-2.2zm.1 2.4c-.9.1-1.4.5-1.8 1.1-.3.6-.4 1.6-.2 2.8.2 1.6.5 2.8 1 3.4.5.7 1.2.9 2.1.8.9-.1 1.4-.5 1.8-1.1.3-.6.4-1.6.3-2.9-.2-1.6-.5-2.8-1-3.4-.7-.5-1.3-.8-2.2-.7zm16.1.6c-.1-.6-.3-1.1-.6-1.4-.3-.3-.8-.5-1.3-.4-.8.1-1.6.6-2.4 1.5l.4 3.1.8 5.5-3.6.4-.4-5.2-1-7.1 3.3-.7.2 1.8h.2c.9-1 1.9-1.8 3-2.3 1.4-.2 2.4 0 3.2.6.8.5 1.2 1.4 1.3 2.5l.3 3.6.8 5.5-3.6.4-.6-7.8zm17.2.3l.3 2.2c0 .3.1.5.2.6.1.1.3.1.5.1s.4-.1.7-.2l.3.2-.1 1.9c-.6.4-1.2.8-1.9.9-.6 0-1-.1-1.5-.4-.5-.3-.7-.7-.9-1.2h-.2c-.8.9-1.6 1.6-2.5 2.2-1.8.2-3.2-.2-4.3-1.2-1.1-1-1.8-2.5-2-4.5-.3-2.1.1-3.8 1.1-5.1 1-1.3 2.4-2 4.4-2.2.5-.1 1.1-.1 1.7 0l-.8-6 3.5-.7 1.5 13.4zm-5.8-4.2c-1.8.2-2.5 1.5-2.3 3.7.2 1.4.5 2.5 1 3.1.5.7 1.2.9 2 .8.8-.1 1.5-.5 2-1.4l-.1-1.5-.6-4.6c-.7-.1-1.4-.1-2-.1zm12.1-8.7l.3 11.2-2 .5-.4-.3-1.5-10.8.3-.4 2.8-.5.5.3zm-.7 14.1c.6-.1 1 0 1.3.3.4.3.6.7.6 1.3.1.6 0 1.1-.3 1.5-.3.4-.7.6-1.3.7-.6.1-1.1 0-1.4-.3-.3-.3-.5-.7-.6-1.3-.1-.6 0-1.1.3-1.5.4-.4.8-.6 1.4-.7z" fill="#FFF1F0"/><path id="eyklw97s3d8a8" d="M199 260.1l-16.1 1.9c1.1-.9 3.8-3 5.4-4.3 2-1.7-5.7-36.5-7.2-43-3.7.4-7.4.1-5.7-4.5 4.7-5.9 19.7 9.9 26.7 18.5 3-6.3 9.7-19.4 12.4-21.5 3.4-2.6 9.1-4.8 10.8-2.7 1.7 2.1-4 4.2-5.3 5.8-1.3 1.6 3.3 41.3 4.3 43.4.8 1.7 5.1 3.1 7.1 3.6-2.8.6-9.8 1.7-16.5 2-.3.1-.7.1-1.1 0h1.1c1.9-.4 3.2-2.4 3.7-3.5l-4.1-41.9-10 16.8c1.1.9 2.8 2.2 3.9 2.9.5 0 .8.1.9.3.3.5-.2.2-.9-.3-2.4 0-8.7 2-12.1 3.3l4.5-6.5-11.8-12c1.4 11.7 4.4 35.9 6 38.7 1.4 2.6 3.3 3.1 4 3z" fill="#A75155"/><path id="eyklw97s3d8a9" d="M240 267.3l-4.5-51.5c-3 6.3-5.3 5.8-6.6.8-1.1-4 19.5-8.9 30-10.9 1.1 1.4 2.9 4.7.8 7.3-2.6 3.3-6.6.8-2.5-1.9s-9.6.4-14 .9-1.4 13.5-.5 21.6c1.6 7.3 9.6-7.1 11.5-9.5 1.9-2.5 3.9 14.4.6 18.5-4.4-7.2-9.5-5.1-11.5-3.1 1.2 5.8 3.7 19.2 4.5 26.2 20.4 2.9 24.3 4.6 38.4 4.5 14.1-.1 9.8-11.5 8-14.3-1.8-2.8-9.5 1.1-11.9 6.6-2.3 5.5-8.6 3.2-7.8-2.8.3-10.4 16.3-7.1 18.5-7.3 2.2-.3 10 2.6 9.7 13-.3 10.4-20.5 9.1-24.3 8.7-3.8-.3-27.4-5.8-30.4-5.4-2.9.3-6.6.8-9.2 4-2.6 3.3-4.1 2.7-8.1.9-2.8-1.5 5-4.8 9.3-6.3z" fill="#A75155"/><path id="eyklw97s3d8a10" d="M281.9 250.6c1.7-.8-1-2.1-2.5-2.7l-4.1-29.3c6.6 7.4 19.9 23 20.8 25.9.9 2.9-1.3 3.9-2.5 4l.3 2.2c4.2-.2 12.5-1 12.4-2.2-2.5-.9-3.7-2.1-4-2.5l-5-43.3c-.3-.2-.1-1 2.7-2.5 8-2.7 5.5-3.9 3.2-4.1-.5.1-1.6.3-2.1 1-.6.8-7.8-3.6-16.3-5.6-6.7-1.6 1.3 4.8 6.2 8.2l4 34.5c-6.4-7.9-20.7-24.5-27-27.4-7.8-3.6-3.1 5.6-1.4 6.9 1.3 1 2.3-1.3 2.7-2.5 1.4 9.8 4.3 30.4 4.8 35.1.7 5.9-4.7 4.3-6.7 6.7-2 2.5 12.4-1.4 14.5-2.4z" fill="#A75155"/><path id="eyklw97s3d8a11" d="M316.9 198.9c-1.6 2-8.9 2.8-12.3 2.9-4.3 1.2 4.8 3.2 6.5 4.5 1.3 1 2.5 17.1 2.9 25 .5 3.9 2.5 12.4 6.9 14.8 5.6 3.1 14-.9 20.5-3.1 5.1-1.8 4.1-9.9 2.9-13.7l-2.8-24.2c-.1-1.2.6-3.5 1-4.6 3.1-1.3 7.8-4.2 2.4-4.7-7.6 4.6-11.2-.2-14.8.2-3.7.4 2.6 3.4 5.1 5.4 2.5 1.9 1.2 10.3 2.4 20.5s.1 7.4.4 16.3c-2.8 7.8-12.8 5.2-15.2 4-1.9-1-4.7-25.7-5.9-38 1.1-.9 3.8-3.6 5.1-7.3 1.6-4.7-3.2-.4-5.1 2z" fill="#A75155"/><path id="eyklw97s3d8a12" d="M178.9 154.3s-2.4 3.1 4.2 3.8c6.6.7 13.4.5 16.2 1.6 2.7 1.1 1.7 1 1.7 1s-7.9 2-12 .8-6.7-.9-6.7-.9 1.1 1.8 1.8 2.7c.7.9-3.8-1.4-3.8-1.4s-2.1-2.7-4.4-2.7c-2.3-.1-4.9-1.4-7.8-.6.4-2.3 5-1.5 6.7-3 1.6-1.4 1-3.3 1-3.3l3.1 2z" fill="#5C414E"/></g><g id="eyklw97s3d8a13"><path id="eyklw97s3d8a14" d="M129.7 104s-5.78 1.19-5.8 3c.453 9.646-.044 9.24 0 8.9.632-.194-5.18-6.484-5.1-4.2-.713 1.094-3.3-2.5 5.1 4.2.778 1.485 10.614 12.5 9.714 0 2.009-18.002 5.5 15.1 0-5.7 1.245-.565.969-.814 0-6.2 1.326-1.218 5.451 8.347 6.186 6.2 2.367-4.971-.8-4.2-10.1-6.2z" fill="#FFF" stroke="none" stroke-width="1"/></g><g id="eyklw97s3d8a15" stroke="none" stroke-width="1"><path id="eyklw97s3d8a16" d="M186.3 111.7s-11.9 8-12.2 15.3c-.3 7.3.7 22.4 3.6 24.8 3 2.5-.3 5-.3 5s-5.8-5.8-7.1-7.7c-1.4-1.9-6.9-14.6-12.8-19.5s-39.8-5.9-39.8-5.9l64.4-16.7 4.2 4.7z" fill="#5C414E"/><path id="eyklw97s3d8a17" d="M207.4 12.9s-15.6-20.3-26.9-8.6c-11.2 11.7-10.7 40-12.8 46.8-2.1 6.8.5 13.2-11.9 23.5s-60.5 35.1-68.7 35.6c-8.2.5-15.1 2.9-14.6 5.7.5 2.7 8.8 1.9 19.3 3.1 10.5 1.2 76.9 8.9 86.5 3.8 9.6-5.1 41.3-18.1 38.9-37.8-2.4-19.7-18.1-52-17.1-55.7 2.2-8.5 2.7-8.8 6.6-9.2 3.9-.4-.6-2.283-.6-3.483 0-1.2 5.4.3 5.1 0-.354-1.545-3.8-3.717-3.8-3.717z" fill="#FEF1F0"/><path id="eyklw97s3d8a18" d="M196.6 64.2S178.5 55 167.3 63c-11.2 8.1-17.2 16.7-22.2 19-5 2.3-66.1 38.9-72.3 41.3-6.2 2.5-12.2 5.5-10.8 7.5 1.4 1.9 20.9-2.2 26-2.5 5.1-.3 29.9-2.8 38.1-4.8 8.2-2 82.9-13.5 79.2-29.5-3.7-16-8.7-29.8-8.7-29.8z" fill="#CBBEBD"/><path id="eyklw97s3d8a19" d="M160.1 66.4c2.9-4.5 7.9-7.3 13.2-7.6 11.4-.7 32.7-.4 33.6 12 1.3 17 .1 35-12.3 39.9-12.4 4.9-69.9 9.9-75.8 6.8-5.9-3.1-31-2.7-16.6-6 14.4-3.3 44-11 23.8-7.5s-34.5 10.3-33.8 6.9c.7-3.4 13.9-4.1 16.8-6.3 2.9-2.1 46.5-30.1 48.8-34.5.9-1.4 1.6-2.6 2.3-3.7z" transform="translate(2.257 -1.454)" fill="#BD988D"/><path id="eyklw97s3d8a20" d="M207.346 12.9s-2.4 3.2-2.2 4.3c-.08.72 1.6.5 1.6.5 1.34.22 3.3.5 5 .8 1.42.18 2.6.997 2.7.497-.04-.14.1-.197-.6-1.297-.7-1.1-1-1.5-1.5-1.9-.6-.3-5-2.9-5-2.9z" fill="#F37880"/><path id="eyklw97s3d8a21" d="M172 147.7s-2.1 2.6 3.6 3.2c5.7.6 11.5.4 13.8 1.4 2.3 1 1.5.9 1.5.9s-6.7 1.7-10.3.7c-3.6-1-5.8-.8-5.8-.8s1 1.6 1.5 2.3c.6.7-3.3-1.2-3.3-1.2s-1.8-2.3-3.7-2.3c-1.9 0-4.2-1.2-6.7-.5.3-2 4.3-1.3 5.7-2.5 1.4-1.2.9-2.8.9-2.8l2.8 1.6z" fill="#5C414E"/><path id="eyklw97s3d8a22" d="M205.3 17.2s6.1 1.4 7.3 1.3c1.2-.1 3.1.6 2.3 1.7-.9 1-4.7.1-5.5.3-.7.1-3.5.8-3.9-.4-.6-1.1-1.2-2.7-.2-2.9z" fill="#E5737E"/><path id="eyklw97s3d8a23" d="M198.6 15.1c2.9-.1 5.2-2.5 5.2-5.4-.1-2.9-2.5-5.3-5.4-5.2-2.9.1-5.2 2.5-5.2 5.4 0 2.9 2.4 5.2 5.4 5.2z" fill="#CBBEBD"/><path id="eyklw97s3d8a24" d="M199 13.6c2 0 3.5-1.7 3.5-3.6 0-2-1.7-3.5-3.6-3.5-2 0-3.5 1.7-3.5 3.6 0 2 1.6 3.5 3.6 3.5z" fill="#FEF1F0"/><path id="eyklw97s3d8a25" d="M196.7 9.7c0-.7.5-1.3 1.2-1.6.6-.2 1.5-.3 2.2.2 1.2 1 .9 2 .8 2.2-.3.5-.5 1.4-3.2.7-.3 0-1.1-.4-1-1.5z" fill="#2C1E24"/></g><script><![CDATA[!function(t,n){"object"==typeof exports&&"undefined"!=typeof module?module.exports=n():"function"==typeof define&&define.amd?define(n):(t=t||self).__SVGATOR_PLAYER__=n()}(this,(function(){"use strict";function t(n){return(t="function"==typeof Symbol&&"symbol"==typeof Symbol.iterator?function(t){return typeof t}:function(t){return t&&"function"==typeof Symbol&&t.constructor===Symbol&&t!==Symbol.prototype?"symbol":typeof t})(n)}function n(t,n){if(!(t instanceof n))throw new TypeError("Cannot call a class as a function")}function r(t,n){for(var r=0;r<n.length;r++){var e=n[r];e.enumerable=e.enumerable||!1,e.configurable=!0,"value"in e&&(e.writable=!0),Object.defineProperty(t,e.key,e)}}function e(t,n,e){return n&&r(t.prototype,n),e&&r(t,e),t}var i=Math.abs;function u(t){return t}function o(t,n,r){var e=1-r;return 3*r*e*(t*e+n*r)+r*r*r}function a(){var t=arguments.length>0&&void 0!==arguments[0]?arguments[0]:0,n=arguments.length>1&&void 0!==arguments[1]?arguments[1]:0,r=arguments.length>2&&void 0!==arguments[2]?arguments[2]:1,e=arguments.length>3&&void 0!==arguments[3]?arguments[3]:1;return t<0||t>1||r<0||r>1?null:i(t-n)<=1e-5&&i(r-e)<=1e-5?u:function(u){if(u<=0)return t>0?u*n/t:0===n&&r>0?u*e/r:0;if(u>=1)return r<1?1+(u-1)*(e-1)/(r-1):1===r&&t<1?1+(u-1)*(n-1)/(t-1):1;for(var a,l=0,f=1;l<f;){var s=o(t,r,a=(l+f)/2);if(i(u-s)<1e-5)break;s<u?l=a:f=a}return o(n,e,a)}}function l(){return 1}function f(t){return 1===t?1:0}function s(){var t=arguments.length>0&&void 0!==arguments[0]?arguments[0]:1,n=arguments.length>1&&void 0!==arguments[1]?arguments[1]:0;if(1===t){if(0===n)return f;if(1===n)return l}var r=1/t;return function(t){return t>=1?1:(t+=n*r)-t%r}}function c(t){var n=arguments.length>1&&void 0!==arguments[1]?arguments[1]:2;if(Number.isInteger(t))return t;var r=Math.pow(10,n);return Math.round(t*r)/r}var v=Math.PI/180;function h(t,n,r){return t>=.5?r:n}function y(t,n,r){return 0===t||n===r?n:t*(r-n)+n}function d(t,n,r){var e=y(t,n,r);return e<=0?0:e}function g(t,n,r){return 0===t?n:1===t?r:{x:y(t,n.x,r.x),y:y(t,n.y,r.y)}}function m(t,n,r){return 0===t?n:1===t?r:{x:d(t,n.x,r.x),y:d(t,n.y,r.y)}}function p(t,n,r){var e=function(t,n,r){return Math.round(y(t,n,r))}(t,n,r);return e<=0?0:e>=255?255:e}function b(t,n,r){return 0===t?n:1===t?r:{r:p(t,n.r,r.r),g:p(t,n.g,r.g),b:p(t,n.b,r.b),a:y(t,null==n.a?1:n.a,null==r.a?1:r.a)}}function w(t,n,r){if(0===t)return n;if(1===t)return r;var e=n.length;if(e!==r.length)return h(t,n,r);for(var i=[],u=0;u<e;u++)i.push(b(t,n[u],r[u]));return i}function A(t,n,r){var e=n.length;if(e!==r.length)return h(t,n,r);for(var i=new Array(e),u=0;u<e;u++)i[u]=y(t,n[u],r[u]);return i}function x(t,n){for(var r=[],e=0;e<t;e++)r.push(n);return r}function k(t,n){if(--n<=0)return t;var r=(t=Object.assign([],t)).length;do{for(var e=0;e<r;e++)t.push(t[e])}while(--n>0);return t}var S=/\.0+$/g;function _(t){return Number.isInteger(t)?t+"":t.toFixed(6).replace(S,"")}function M(t){var n=arguments.length>1&&void 0!==arguments[1]?arguments[1]:" ";return t&&t.length?t.map(_).join(n):""}function I(t){return _(t.x)+","+_(t.y)}function E(t){return t?null==t.a||t.a>=1?"rgb("+t.r+","+t.g+","+t.b+")":"rgba("+t.r+","+t.g+","+t.b+","+t.a+")":"transparent"}var F={f:null,i:m,u:function(t,n){return function(r){var e=n(r);t.setAttribute("rx",_(e.x)),t.setAttribute("ry",_(e.y))}}},B={f:null,i:function(t,n,r){return 0===t?n:1===t?r:{width:d(t,n.width,r.width),height:d(t,n.height,r.height)}},u:function(t,n){return function(r){var e=n(r);t.setAttribute("width",_(e.width)),t.setAttribute("height",_(e.height))}}},j=Math.sin,q=Math.cos,P=Math.acos,O=Math.asin,z=Math.tan,L=Math.atan2,C=Math.PI/180,R=180/Math.PI,T=Math.sqrt,V=function(){function t(){var r=arguments.length>0&&void 0!==arguments[0]?arguments[0]:1,e=arguments.length>1&&void 0!==arguments[1]?arguments[1]:0,i=arguments.length>2&&void 0!==arguments[2]?arguments[2]:0,u=arguments.length>3&&void 0!==arguments[3]?arguments[3]:1,o=arguments.length>4&&void 0!==arguments[4]?arguments[4]:0,a=arguments.length>5&&void 0!==arguments[5]?arguments[5]:0;n(this,t),this.m=[r,e,i,u,o,a],this.i=null,this.w=null,this.s=null}return e(t,[{key:"point",value:function(t,n){var r=this.m;return{x:r[0]*t+r[2]*n+r[4],y:r[1]*t+r[3]*n+r[5]}}},{key:"translateSelf",value:function(){var t=arguments.length>0&&void 0!==arguments[0]?arguments[0]:0,n=arguments.length>1&&void 0!==arguments[1]?arguments[1]:0;if(!t&&!n)return this;var r=this.m;return r[4]+=r[0]*t+r[2]*n,r[5]+=r[1]*t+r[3]*n,this.w=this.s=this.i=null,this}},{key:"rotateSelf",value:function(){var t=arguments.length>0&&void 0!==arguments[0]?arguments[0]:0;if(t%=360){var n=j(t*=C),r=q(t),e=this.m,i=e[0],u=e[1];e[0]=i*r+e[2]*n,e[1]=u*r+e[3]*n,e[2]=e[2]*r-i*n,e[3]=e[3]*r-u*n,this.w=this.s=this.i=null}return this}},{key:"scaleSelf",value:function(){var t=arguments.length>0&&void 0!==arguments[0]?arguments[0]:1,n=arguments.length>1&&void 0!==arguments[1]?arguments[1]:1;if(1!==t||1!==n){var r=this.m;r[0]*=t,r[1]*=t,r[2]*=n,r[3]*=n,this.w=this.s=this.i=null}return this}},{key:"skewSelf",value:function(t,n){if(n%=360,(t%=360)||n){var r=this.m,e=r[0],i=r[1],u=r[2],o=r[3];t&&(t=z(t*C),r[2]+=e*t,r[3]+=i*t),n&&(n=z(n*C),r[0]+=u*n,r[1]+=o*n),this.w=this.s=this.i=null}return this}},{key:"resetSelf",value:function(){var t=arguments.length>0&&void 0!==arguments[0]?arguments[0]:1,n=arguments.length>1&&void 0!==arguments[1]?arguments[1]:0,r=arguments.length>2&&void 0!==arguments[2]?arguments[2]:0,e=arguments.length>3&&void 0!==arguments[3]?arguments[3]:1,i=arguments.length>4&&void 0!==arguments[4]?arguments[4]:0,u=arguments.length>5&&void 0!==arguments[5]?arguments[5]:0,o=this.m;return o[0]=t,o[1]=n,o[2]=r,o[3]=e,o[4]=i,o[5]=u,this.w=this.s=this.i=null,this}},{key:"recomposeSelf",value:function(){var t=arguments.length>0&&void 0!==arguments[0]?arguments[0]:null,n=arguments.length>1&&void 0!==arguments[1]?arguments[1]:null,r=arguments.length>2&&void 0!==arguments[2]?arguments[2]:null,e=arguments.length>3&&void 0!==arguments[3]?arguments[3]:null,i=arguments.length>4&&void 0!==arguments[4]?arguments[4]:null;return this.isIdentity||this.resetSelf(),t&&(t.x||t.y)&&this.translateSelf(t.x,t.y),n&&this.rotateSelf(n),r&&(r.x&&this.skewSelf(r.x,0),r.y&&this.skewSelf(0,r.y)),!e||1===e.x&&1===e.y||this.scaleSelf(e.x,e.y),i&&(i.x||i.y)&&this.translateSelf(i.x,i.y),this}},{key:"decompose",value:function(){var t=arguments.length>0&&void 0!==arguments[0]?arguments[0]:0,n=arguments.length>1&&void 0!==arguments[1]?arguments[1]:0,r=this.m,e=r[0]*r[0]+r[1]*r[1],i=[[r[0],r[1]],[r[2],r[3]]],u=T(e);if(0===u)return{origin:{x:r[4],y:r[5]},translate:{x:t,y:n},scale:{x:0,y:0},skew:{x:0,y:0},rotate:0};i[0][0]/=u,i[0][1]/=u;var o=r[0]*r[3]-r[1]*r[2]<0;o&&(u=-u);var a=i[0][0]*i[1][0]+i[0][1]*i[1][1];i[1][0]-=i[0][0]*a,i[1][1]-=i[0][1]*a;var l=T(i[1][0]*i[1][0]+i[1][1]*i[1][1]);if(0===l)return{origin:{x:r[4],y:r[5]},translate:{x:t,y:n},scale:{x:u,y:0},skew:{x:0,y:0},rotate:0};i[1][0]/=l,i[1][1]/=l,a/=l;var f=0;return i[1][1]<0?(f=P(i[1][1])*R,i[0][1]<0&&(f=360-f)):f=O(i[0][1])*R,o&&(f=-f),a=L(a,T(i[0][0]*i[0][0]+i[0][1]*i[0][1]))*R,{origin:{x:r[4],y:r[5]},translate:{x:t,y:n},scale:{x:u,y:l},skew:{x:a,y:0},rotate:f}}},{key:"toString",value:function(){return null===this.s&&(this.s="matrix("+this.m.map(N).join(" ")+")"),this.s}},{key:"determinant",get:function(){var t=this.m;return t[0]*t[3]-t[1]*t[2]}},{key:"isIdentity",get:function(){if(null===this.i){var t=this.m;this.i=1===t[0]&&0===t[1]&&0===t[2]&&1===t[3]&&0===t[4]&&0===t[5]}return this.i}}]),t}(),D=/\.0+$/;function N(t){return Number.isInteger(t)?t:t.toFixed(14).replace(D,"")}Object.freeze({M:2,L:2,Z:0,H:1,V:1,C:6,Q:4,T:2,S:4,A:7});function G(t,n,r){return t+(n-t)*r}function $(t,n,r){var e=arguments.length>3&&void 0!==arguments[3]&&arguments[3],i={x:G(t.x,n.x,r),y:G(t.y,n.y,r)};return e&&(i.a=H(t,n)),i}function H(t,n){return Math.atan2(n.y-t.y,n.x-t.x)}function Q(t,n,r,e){var i=1-e;return i*i*t+2*i*e*n+e*e*r}function U(t,n,r,e){return 2*(1-e)*(n-t)+2*e*(r-n)}function Y(t,n,r,e){var i=arguments.length>4&&void 0!==arguments[4]&&arguments[4],u={x:Q(t.x,n.x,r.x,e),y:Q(t.y,n.y,r.y,e)};return i&&(u.a=Z(t,n,r,e)),u}function Z(t,n,r,e){return Math.atan2(U(t.y,n.y,r.y,e),U(t.x,n.x,r.x,e))}function J(t,n,r,e,i){var u=i*i;return i*u*(e-t+3*(n-r))+3*u*(t+r-2*n)+3*i*(n-t)+t}function K(t,n,r,e,i){var u=1-i;return 3*(u*u*(n-t)+2*u*i*(r-n)+i*i*(e-r))}function W(t,n,r,e,i){var u=arguments.length>5&&void 0!==arguments[5]&&arguments[5],o={x:J(t.x,n.x,r.x,e.x,i),y:J(t.y,n.y,r.y,e.y,i)};return u&&(o.a=X(t,n,r,e,i)),o}function X(t,n,r,e,i){return Math.atan2(K(t.y,n.y,r.y,e.y,i),K(t.x,n.x,r.x,e.x,i))}function tt(t,n,r){var e=arguments.length>3&&void 0!==arguments[3]&&arguments[3];if(rt(n)){if(et(r))return Y(n,r.start,r,t,e)}else if(rt(r)){if(n.end)return Y(n,n.end,r,t,e)}else{if(n.end)return r.start?W(n,n.end,r.start,r,t,e):Y(n,n.end,r,t,e);if(r.start)return Y(n,r.start,r,t,e)}return $(n,r,t,e)}function nt(t,n,r){var e=tt(t,n,r,!0);return e.a=function(t){var n=arguments.length>1&&void 0!==arguments[1]&&arguments[1];return n?t+Math.PI:t}(e.a)/v,e}function rt(t){return!t.type||"corner"===t.type}function et(t){return null!=t.start&&!rt(t)}var it=new V;var ut={f:function(t){return t?t.join(" "):""},i:function(n,r,e){if(0===n)return r;if(1===n)return e;var i=r.length;if(i!==e.length)return h(n,r,e);for(var u,o=new Array(i),a=0;a<i;a++){if((u=t(r[a]))!==t(e[a]))return h(n,r,e);if("number"===u)o[a]=y(n,r[a],e[a]);else{if(r[a]!==e[a])return h(n,r,e);o[a]=r[a]}}return o}},ot={f:null,i:A,u:function(t,n){return function(r){var e=n(r);t.setAttribute("x1",_(e[0])),t.setAttribute("y1",_(e[1])),t.setAttribute("x2",_(e[2])),t.setAttribute("y2",_(e[3]))}}},at={f:_,i:y},lt={f:_,i:function(t,n,r){var e=y(t,n,r);return e<=0?0:e>=1?1:e}},ft={f:M,i:function(t,n,r){var e,i,u,o=n.length,a=r.length;if(o!==a)if(0===o)n=x(o=a,0);else if(0===a)a=o,r=x(o,0);else{var l=(u=(e=o)*(i=a)/function(t,n){for(var r;n;)r=n,n=t%n,t=r;return t||1}(e,i))<0?-u:u;n=k(n,Math.floor(l/o)),r=k(r,Math.floor(l/a)),o=a=l}for(var f=[],s=0;s<o;s++)f.push(c(d(t,n[s],r[s]),6));return f}};function st(t,n,r,e,i,u,o,a){return n=function(t,n,r){for(var e,i,u,o=t.length-1,a={},l=0;l<=o;l++)(e=t[l]).e&&(e.e=n(e.e)),e.v&&"g"===(i=e.v).t&&i.r&&(u=r.getElementById(i.r))&&(a[i.r]=u.querySelectorAll("stop"));return a}(t,e,a),function(e){var i,u=r(e,t,ct);return u?"c"===u.t?E(u.v):"g"===u.t?(n[u.r]&&function(t,n){for(var r=0,e=t.length;r<e;r++)t[r].setAttribute("stop-color",E(n[r]))}(n[u.r],u.v),(i=u.r)?"url(#"+i+")":"none"):"none":"none"}}function ct(t,n,r){if(0===t)return n;if(1===t)return r;if(n&&r){var e=n.t;if(e===r.t)switch(n.t){case"c":return{t:e,v:b(t,n.v,r.v)};case"g":if(n.r===r.r)return{t:e,v:w(t,n.v,r.v),r:n.r}}}return h(t,n,r)}var vt={blur:m,brightness:d,contrast:d,"drop-shadow":function(t,n,r){return 0===t?n:1===t?r:{blur:m(t,n.blur,r.blur),offset:g(t,n.offset,r.offset),color:b(t,n.color,r.color)}},grayscale:d,"hue-rotate":y,invert:d,opacity:d,saturate:d,sepia:d};function ht(t,n,r){if(0===t)return n;if(1===t)return r;var e=n.length;if(e!==r.length)return h(t,n,r);for(var i,u=[],o=0;o<e;o++){if(n[o].type!==r[o].type)return n;if(!(i=vt[n[o].type]))return h(t,n,r);u.push({type:n.type,value:i(t,n[o].value,r[o].value)})}return u}var yt={blur:function(t){return t?function(n){t.setAttribute("stdDeviation",I(n))}:null},brightness:function(t,n,r){return(t=gt(r,n))?function(n){n=_(n),t.map((function(t){return t.setAttribute("slope",n)}))}:null},contrast:function(t,n,r){return(t=gt(r,n))?function(n){var r=_((1-n)/2);n=_(n),t.map((function(t){t.setAttribute("slope",n),t.setAttribute("intercept",r)}))}:null},"drop-shadow":function(t,n,r){var e=r.getElementById(n+"-blur");if(!e)return null;var i=r.getElementById(n+"-offset");if(!i)return null;var u=r.getElementById(n+"-flood");return u?function(t){e.setAttribute("stdDeviation",I(t.blur)),i.setAttribute("dx",_(t.offset.x)),i.setAttribute("dy",_(t.offset.y)),u.setAttribute("flood-color",E(t.color))}:null},grayscale:function(t){return t?function(n){t.setAttribute("values",M(function(t){return[.2126+.7874*(t=1-t),.7152-.7152*t,.0722-.0722*t,0,0,.2126-.2126*t,.7152+.2848*t,.0722-.0722*t,0,0,.2126-.2126*t,.7152-.7152*t,.0722+.9278*t,0,0,0,0,0,1,0]}(n)))}:null},"hue-rotate":function(t){return t?function(n){return t.setAttribute("values",_(n))}:null},invert:function(t,n,r){return(t=gt(r,n))?function(n){n=_(n)+" "+_(1-n),t.map((function(t){return t.setAttribute("tableValues",n)}))}:null},opacity:function(t,n,r){return(t=r.getElementById(n+"-A"))?function(n){return t.setAttribute("tableValues","0 "+_(n))}:null},saturate:function(t){return t?function(n){return t.setAttribute("values",_(n))}:null},sepia:function(t){return t?function(n){return t.setAttribute("values",M(function(t){return[.393+.607*(t=1-t),.769-.769*t,.189-.189*t,0,0,.349-.349*t,.686+.314*t,.168-.168*t,0,0,.272-.272*t,.534-.534*t,.131+.869*t,0,0,0,0,0,1,0]}(n)))}:null}};var dt=["R","G","B"];function gt(t,n){var r=dt.map((function(r){return t.getElementById(n+"-"+r)||null}));return-1!==r.indexOf(null)?null:r}var mt={fill:st,"fill-opacity":lt,stroke:st,"stroke-opacity":lt,"stroke-width":at,"stroke-dashoffset":{f:_,i:y},"stroke-dasharray":ft,opacity:lt,transform:function(n,r,e,i){if(!(n=function(n,r){if(!n||"object"!==t(n))return null;var e=!1;for(var i in n)n.hasOwnProperty(i)&&(n[i]&&n[i].length?(n[i].forEach((function(t){t.e&&(t.e=r(t.e))})),e=!0):delete n[i]);return e?n:null}(n,i)))return null;var u=function(t,i,u){var o=arguments.length>3&&void 0!==arguments[3]?arguments[3]:null;return n[t]?e(i,n[t],u):r&&r[t]?r[t]:o};return r&&r.a&&n.o?function(t){var r=e(t,n.o,nt);return it.recomposeSelf(r,u("r",t,y,0)+r.a,u("k",t,g),u("s",t,g),u("t",t,g)).toString()}:function(t){return it.recomposeSelf(u("o",t,tt,null),u("r",t,y,0),u("k",t,g),u("s",t,g),u("t",t,g)).toString()}},"#filter":function(t,n,r,e,i,u,o,a){if(!n.items||!t||!t.length)return null;var l=function(t,n){var r=(t=t.map((function(t){return t&&yt[t[0]]?(n.getElementById(t[1]),yt[t[0]](n.getElementById(t[1]),t[1],n)):null}))).length;return function(n){for(var e=0;e<r;e++)t[e]&&t[e](n[e].value)}}(n.items,a);return l?(t=function(t,n){return t.map((function(t){return t.e=n(t.e),t}))}(t,e),function(n){l(r(n,t,ht))}):null},"#line":ot,points:{f:M,i:A},d:ut,r:at,"#size":B,"#radius":F,_:function(t,n){if(Array.isArray(t))for(var r=0;r<t.length;r++)this[t[r]]=n;else this[t]=n}},pt=function(){function t(r){n(this,t),this.list=r,this.length=r.length}return e(t,[{key:"setAttribute",value:function(t,n){for(var r=this.list,e=0;e<this.length;e++)r[e].setAttribute(t,n)}},{key:"removeAttribute",value:function(t){for(var n=this.list,r=0;r<this.length;r++)n[r].removeAttribute(t)}},{key:"style",value:function(t,n){for(var r=this.list,e=0;e<this.length;e++)r[e].style[t]=n}}]),t}(),bt=/-./g,wt=function(t,n){return n.toUpperCase()};function At(t){return"function"==typeof t?t:h}function xt(t){return t?"function"==typeof t?t:Array.isArray(t)?function(t){var n=arguments.length>1&&void 0!==arguments[1]?arguments[1]:u;if(!Array.isArray(t))return n;switch(t.length){case 1:return s(t[0])||n;case 2:return s(t[0],t[1])||n;case 4:return a(t[0],t[1],t[2],t[3])||n}return n}(t,null):function(t,n){var r=arguments.length>2&&void 0!==arguments[2]?arguments[2]:u;switch(t){case"linear":return u;case"steps":return s(n.steps||1,n.jump||0)||r;case"bezier":case"cubic-bezier":return a(n.x1||0,n.y1||0,n.x2||0,n.y2||0)||r}return r}(t.type,t.value,null):null}function kt(t,n,r){var e=arguments.length>3&&void 0!==arguments[3]&&arguments[3],i=n.length-1;if(t<=n[0].t)return e?[0,0,n[0].v]:n[0].v;if(t>=n[i].t)return e?[i,1,n[i].v]:n[i].v;var u,o=n[0],a=null;for(u=1;u<=i;u++){if(!(t>n[u].t)){a=n[u];break}o=n[u]}return null==a?e?[i,1,n[i].v]:n[i].v:o.t===a.t?e?[u,1,a.v]:a.v:(t=(t-o.t)/(a.t-o.t),o.e&&(t=o.e(t)),e?[u,t,r(t,o.v,a.v)]:r(t,o.v,a.v))}function St(t,n){var r=arguments.length>2&&void 0!==arguments[2]?arguments[2]:null;return t&&t.length?"function"!=typeof n?null:("function"!=typeof r&&(r=null),function(e){var i=kt(e,t,n);return null!=i&&r&&(i=r(i)),i}):null}function _t(t,n){return t.t-n.t}function Mt(n,r,e,i,u){var o,a="@"===e[0],l="#"===e[0],f=mt[e],s=h;switch(a?(o=e.substr(1),e=o.replace(bt,wt)):l&&(e=e.substr(1)),t(f)){case"function":if(s=f(i,u,kt,xt,e,a,r,n),l)return s;break;case"string":s=St(i,At(f));break;case"object":if((s=St(i,At(f.i),f.f))&&"function"==typeof f.u)return f.u(r,s,e,a,n)}return s?function(t,n,r){var e=arguments.length>3&&void 0!==arguments[3]&&arguments[3];if(e)return t instanceof pt?function(e){return t.style(n,r(e))}:function(e){return t.style[n]=r(e)};if(Array.isArray(n)){var i=n.length;return function(e){var u=r(e);if(null==u)for(var o=0;o<i;o++)t[o].removeAttribute(n);else for(var a=0;a<i;a++)t[a].setAttribute(n,u)}}return function(e){var i=r(e);null==i?t.removeAttribute(n):t.setAttribute(n,i)}}(r,e,s,a):null}function It(n,r,e,i){if(!i||"object"!==t(i))return null;var u=null,o=null;return Array.isArray(i)?o=function(t){if(!t||!t.length)return null;for(var n=0;n<t.length;n++)t[n].e&&(t[n].e=xt(t[n].e));return t.sort(_t)}(i):(o=i.keys,u=i.data||null),o?Mt(n,r,e,o,u):null}function Et(t,n,r){if(!r)return null;var e=[];for(var i in r)if(r.hasOwnProperty(i)){var u=It(t,n,i,r[i]);u&&e.push(u)}return e.length?e:null}function Ft(t,n){if(!n.duration||n.duration<0)return null;var r=function(t,n){if(!n)return null;var r=[];if(Array.isArray(n))for(var e=n.length,i=0;i<e;i++){var u=n[i];if(2===u.length){var o=null;if("string"==typeof u[0])o=t.getElementById(u[0]);else if(Array.isArray(u[0])){o=[];for(var a=0;a<u[0].length;a++)if("string"==typeof u[0][a]){var l=t.getElementById(u[0][a]);l&&o.push(l)}o=o.length?1===o.length?o[0]:new pt(o):null}if(o){var f=Et(t,o,u[1]);f&&(r=r.concat(f))}}}else for(var s in n)if(n.hasOwnProperty(s)){var c=t.getElementById(s);if(c){var v=Et(t,c,n[s]);v&&(r=r.concat(v))}}return r.length?r:null}(t,n.elements);return r?function(t,n){var r=arguments.length>2&&void 0!==arguments[2]?arguments[2]:1/0,e=arguments.length>3&&void 0!==arguments[3]?arguments[3]:1,i=arguments.length>4&&void 0!==arguments[4]&&arguments[4],u=arguments.length>5&&void 0!==arguments[5]?arguments[5]:1,o=t.length,a=e>0?n:0;i&&r%2==0&&(a=n-a);var l=null;return function(f,s){var c=f%n,v=1+(f-c)/n;s*=e,i&&v%2==0&&(s=-s);var h=!1;if(v>r)c=a,h=!0,-1===u&&(c=e>0?0:n);else if(s<0&&(c=n-c),c===l)return!1;l=c;for(var y=0;y<o;y++)t[y](c);return h}}(r,n.duration,n.iterations||1/0,n.direction||1,!!n.alternate,n.fill||1):null}var Bt=function(){function t(r){var e=arguments.length>1&&void 0!==arguments[1]?arguments[1]:{};n(this,t),this._id=0,this._running=!1,this._animations=r,this.direction=e.direction||1,this.speed=e.speed||1,this.fps=e.fps||100,this.offset=e.offset||0}return e(t,[{key:"_start",value:function(){var t=this,n=arguments.length>0&&void 0!==arguments[0]?arguments[0]:0,r=-1/0,e=null,i={},u=function u(o){t._running=!0,null==e&&(e=o);var a=Math.round((o-e+n)*t.speed),l=t.fps?1e3/t.fps:0;if(a>r+l){t.offset=a,r=a;for(var f=t._animations,s=f.length,c=0,v=0;v<s;v++)i[v]?c++:(i[v]=f[v](a,t.direction),i[v]&&c++);if(c===s)return void t._stop()}t._id=window.requestAnimationFrame(u)};this._id=window.requestAnimationFrame(u)}},{key:"_stop",value:function(){this._id&&window.cancelAnimationFrame(this._id),this._running=!1}},{key:"play",value:function(){this._running||this._start(this.offset)}},{key:"stop",value:function(){this._stop(),this.offset=0;var t=this.direction,n=this._animations;requestAnimationFrame((function(){for(var r=0;r<n.length;r++)n[r](0,t)}))}},{key:"restart",value:function(){this._stop(),this.offset=0,this._start()}},{key:"pause",value:function(){this._stop()}},{key:"reverse",value:function(){this.direction=-this.direction}}],[{key:"build",value:function(n){if(!(n=function(t){if(!t||!t.root||!Array.isArray(t.animations))return null;var n=window.document.getElementById(t.root);if(!n)return null;var r=t.animations.map((function(t){return Ft(n,t)})).filter((function(t){return!!t}));return r.length?{element:n,animations:r,options:t.options||void 0}:null}(n)))return null;var r=n.element,e=n.options||{},i=new t(n.animations,n.options);return function(t,n,r){var e=arguments.length>3&&void 0!==arguments[3]?arguments[3]:null;if("click"===r){var i=function r(){n.removeEventListener("click",r),t.play()};return void n.addEventListener("click",i)}if("hover"===r)return n.addEventListener("mouseenter",(function(){return t.play()})),void n.addEventListener("mouseleave","freeze"===e?function(){return t.pause()}:function(){return t.stop()});t.play()}(i,r,e.start,e.hover),i}}]),t}();return function(){for(var t=0,n=["ms","moz","webkit","o"],r=0;r<n.length&&!window.requestAnimationFrame;++r)window.requestAnimationFrame=window[n[r]+"RequestAnimationFrame"],window.cancelAnimationFrame=window[n[r]+"CancelAnimationFrame"]||window[n[r]+"CancelRequestAnimationFrame"];window.requestAnimationFrame||(window.requestAnimationFrame=function(n){var r=Date.now(),e=Math.max(0,16-(r-t)),i=window.setTimeout((function(){n(r+e)}),e);return t=r+e,i},window.cancelAnimationFrame=window.clearTimeout)}(),Bt}));
__SVGATOR_PLAYER__.build({"root":"eyklw97s3d8a1","animations":[{"duration":3000,"direction":1,"iterations":1,"fill":1,"alternate":false,"elements":{"eyklw97s3d8a14":{"d":[{"t":0,"v":["M",129.70000000000002,104.00000000000001,"C",129.70000000000002,104.00000000000001,123.9203,105.18963600000002,123.9,107.00000000000001,"C",124.353086,116.64564999999997,123.85555000000001,116.24076299999999,123.9,115.89999999999999,"C",124.53210500000002,115.70615099999998,118.71939999999995,109.41569900000003,118.79999999999997,111.7,"C",118.087066,112.79399999999993,115.5,109.19999999999995,123.9,115.89999999999999,"C",124.67790400000001,117.38488199999992,134.513862415,128.39999999999992,133.613862415,115.89999999999999,"C",135.622672415,97.89813000000002,139.11386241499997,130.99999999999991,133.613862415,110.19999999999999,"C",134.858895415,109.63509999999998,134.58267941499997,109.38554200000004,133.613862415,104.00000000000001,"C",134.93979441500002,102.78150400000001,139.06543100000002,112.346872,139.8,110.19999999999999,"C",142.166927,105.22895899999997,139,106.00000000000001,129.70000000000002,104.00000000000001,"Z"]},{"t":2000,"v":["M",123.9,150.7,"C",123.9,150.7,112.9,180.2,113.5,206.29999999999998,"C",114.1,232.39999999999998,126.5,287.7,123.9,299.7,"C",121.30000000000001,311.7,142.1,374.9,139.8,399.79999999999995,"C",137.50000000000003,424.69999999999993,121.30000000000001,448.19999999999993,129.70000000000002,454.9,"C",138.10000000000002,461.59999999999997,170.70000000000002,460.29999999999995,169.8,447.79999999999995,"C",168.9,435.29999999999995,155.3,366.49999999999994,149.8,345.69999999999993,"C",144.3,324.8999999999999,135.8,286.79999999999995,133.60000000000002,272.69999999999993,"C",131.40000000000003,258.69999999999993,129.10000000000002,220.59999999999994,129.10000000000002,194.79999999999993,"C",129.10000000000002,168.99999999999991,133.2,152.7,123.9,150.7,"Z"]}]},"eyklw97s3d8a17":{"d":[{"t":0,"v":["M",207.4,12.9,"C",207.4,12.9,191.8,-7.4,180.5,4.300000000000001,"C",169.3,16,169.8,44.3,167.7,51.099999999999994,"C",165.6,57.89999999999999,168.2,64.3,155.79999999999998,74.6,"C",143.39999999999998,84.89999999999999,95.29999999999998,109.69999999999999,87.09999999999998,110.19999999999999,"C",78.89999999999998,110.69999999999999,71.99999999999999,113.1,72.49999999999999,115.89999999999999,"C",72.99999999999999,118.6,81.29999999999998,117.8,91.79999999999998,118.99999999999999,"C",102.29999999999998,120.19999999999999,168.7,127.89999999999999,178.29999999999998,122.79999999999998,"C",187.89999999999998,117.69999999999999,219.59999999999997,104.69999999999999,217.2,84.99999999999999,"C",214.79999999999998,65.29999999999998,199.1,32.999999999999986,200.1,29.299999999999983,"C",202.29999999999998,20.799999999999983,202.79999999999998,20.499999999999982,206.7,20.099999999999984,"C",210.6,19.699999999999985,206.1,17.81742691047,206.1,16.61742691047,"C",206.1,15.417426910470002,211.5,16.917426910470002,211.2,16.61742691047,"C",210.845851,15.072000910470019,207.4,12.9,207.4,12.9,"Z"]},{"t":300,"v":["M",207.4,12.9,"C",207.4,12.9,191.8,-7.4,180.5,4.300000000000001,"C",169.3,16,169.8,44.3,167.7,51.099999999999994,"C",165.6,57.89999999999999,168.2,64.3,155.79999999999998,74.6,"C",143.39999999999998,84.89999999999999,95.29999999999998,109.69999999999999,87.09999999999998,110.19999999999999,"C",78.89999999999998,110.69999999999999,71.99999999999999,113.1,72.49999999999999,115.89999999999999,"C",72.99999999999999,118.6,81.29999999999998,117.8,91.79999999999998,118.99999999999999,"C",102.29999999999998,120.19999999999999,168.7,127.89999999999999,178.29999999999998,122.79999999999998,"C",187.89999999999998,117.69999999999999,219.59999999999997,104.69999999999999,217.2,84.99999999999999,"C",214.79999999999998,65.29999999999998,199.1,32.999999999999986,200.1,29.299999999999983,"C",202.29999999999998,20.799999999999983,202.79999999999998,20.499999999999982,206.7,20.099999999999984,"C",210.6,19.699999999999985,206.1,17.81742691047,206.1,16.61742691047,"C",206.1,15.417426910470002,210.89999999999998,14.76034785,210.59999999999997,14.46034785,"C",210.245851,12.914921850000017,207.4,12.9,207.4,12.9,"Z"]},{"t":2000,"v":["M",207.4,12.9,"C",207.4,12.9,191.8,-7.4,180.5,4.300000000000001,"C",169.3,16,169.8,44.3,167.7,51.099999999999994,"C",165.6,57.89999999999999,168.2,64.3,155.79999999999998,74.6,"C",143.39999999999998,84.89999999999999,95.29999999999998,109.69999999999999,87.09999999999998,110.19999999999999,"C",78.89999999999998,110.69999999999999,71.99999999999999,113.1,72.49999999999999,115.89999999999999,"C",72.99999999999999,118.6,81.29999999999998,117.8,91.79999999999998,118.99999999999999,"C",102.29999999999998,120.19999999999999,168.7,127.89999999999999,178.29999999999998,122.79999999999998,"C",187.89999999999998,117.69999999999999,219.59999999999997,104.69999999999999,217.2,84.99999999999999,"C",214.79999999999998,65.29999999999998,199.1,32.999999999999986,200.1,29.299999999999983,"C",202.29999999999998,20.799999999999983,202.79999999999998,20.499999999999982,206.7,20.099999999999984,"C",210.6,19.699999999999985,206.1,17.81742691047,206.1,16.61742691047,"C",206.1,15.417426910470002,210.89999999999998,14.76034785,210.59999999999997,14.46034785,"C",210.245851,12.914921850000017,207.4,12.9,207.4,12.9,"Z"]},{"t":3000,"v":["M",207.4,12.9,"C",207.4,12.9,191.8,-7.4,180.5,4.300000000000001,"C",169.3,16,169.8,44.3,167.7,51.099999999999994,"C",165.6,57.89999999999999,168.2,64.3,155.79999999999998,74.6,"C",143.39999999999998,84.89999999999999,95.29999999999998,109.69999999999999,87.09999999999998,110.19999999999999,"C",78.89999999999998,110.69999999999999,71.99999999999999,113.1,72.49999999999999,115.89999999999999,"C",72.99999999999999,118.6,81.29999999999998,117.8,91.79999999999998,118.99999999999999,"C",102.29999999999998,120.19999999999999,168.7,127.89999999999999,178.29999999999998,122.79999999999998,"C",187.89999999999998,117.69999999999999,219.59999999999997,104.69999999999999,217.2,84.99999999999999,"C",214.79999999999998,65.29999999999998,199.1,32.999999999999986,200.1,29.299999999999983,"C",202.29999999999998,20.799999999999983,202.79999999999998,20.499999999999982,206.7,20.099999999999984,"C",210.6,19.699999999999985,206.1,17.81742691047,206.1,16.61742691047,"C",206.1,15.417426910470002,211.5,16.917426910470002,211.2,16.61742691047,"C",210.845851,15.072000910470019,207.4,12.9,207.4,12.9,"Z"]}]},"eyklw97s3d8a19":{"transform":{"data":{"o":{"x":182.2569038549999,"y":78.54649599999999,"type":"corner"},"t":{"x":-180,"y":-80}},"keys":{"r":[{"t":0,"v":0},{"t":300,"v":50},{"t":500,"v":-55},{"t":700,"v":50},{"t":900,"v":-55},{"t":1100,"v":50},{"t":1300,"v":-55},{"t":1500,"v":50},{"t":1700,"v":-55},{"t":1900,"v":50},{"t":2100,"v":-55},{"t":3000,"v":0}]}}},"eyklw97s3d8a20":{"transform":{"data":{"t":{"x":-209.789931,"y":-16.02829391}},"keys":{"o":[{"t":0,"v":{"x":209.789931,"y":16.02829391,"type":"corner"}},{"t":300,"v":{"x":209.18237293999996,"y":13.592827539999995,"type":"corner"}},{"t":2000,"v":{"x":209.18237293999996,"y":13.592827539999995,"type":"corner"}},{"t":3000,"v":{"x":209.789931,"y":16.02829391,"type":"corner"}}],"r":[{"t":0,"v":0},{"t":300,"v":-25},{"t":2000,"v":-25},{"t":3000,"v":0}]}}},"eyklw97s3d8a22":{"transform":{"data":{"t":{"x":-209.92795232999998,"y":-18.996788035}},"keys":{"o":[{"t":0,"v":{"x":209.92795232999998,"y":18.996788035,"type":"corner"}},{"t":2000,"v":{"x":209.27687228999991,"y":20.037149035000002,"type":"corner"}},{"t":3000,"v":{"x":209.92795232999998,"y":18.996788035,"type":"corner"}}],"r":[{"t":0,"v":0},{"t":2000,"v":24},{"t":3000,"v":0}]}}},"eyklw97s3d8a23":{"transform":{"data":{"o":{"x":198.5,"y":9.7984919,"type":"corner"},"t":{"x":-198.5,"y":-9.7984919}},"keys":{"s":[{"t":0,"v":{"x":1,"y":1}},{"t":300,"v":{"x":2,"y":2}},{"t":2000,"v":{"x":2,"y":2}},{"t":3000,"v":{"x":1,"y":1}}]}}},"eyklw97s3d8a24":{"transform":{"data":{"o":{"x":198.95,"y":10.05,"type":"corner"},"t":{"x":-198.95,"y":-10.05}},"keys":{"s":[{"t":0,"v":{"x":1,"y":1}},{"t":300,"v":{"x":2,"y":2}},{"t":2000,"v":{"x":2,"y":2}},{"t":3000,"v":{"x":1,"y":1}}]}}},"eyklw97s3d8a25":{"transform":{"data":{"o":{"x":198.849419,"y":9.69640807,"type":"corner"},"t":{"x":-198.849419,"y":-9.69640807}},"keys":{"s":[{"t":0,"v":{"x":1,"y":1}},{"t":300,"v":{"x":2,"y":2}},{"t":3000,"v":{"x":1,"y":1}}]}}}}}],"options":{"start":"click","hover":"freeze"}})]]></script></svg>