<svg width="327" height="344" viewBox="0 0 327 344" fill="none" xmlns="http://www.w3.org/2000/svg">
<g clip-path="url(#clip0)">
<path d="M33.9688 55.2739L70.336 271.637L272.966 340.391H324.372L323.624 323.166L93.4399 255.798L59.5542 54.332L33.9688 55.2739Z" fill="#F87980"/>
<path d="M27.5488 55.5304L66.2264 54.0748L65.114 0.390625L23.4414 3.38735L27.5488 55.5304Z" fill="#FACABC"/>
<path d="M26.0961 37.5508L0.253906 45.2566V47.2259L26.4383 42.3455L26.0961 37.5508Z" fill="#BE988D"/>
<path d="M285.374 336.368L82.7437 267.615L46.9754 54.7617L33.9688 55.2754L70.336 271.639L272.939 342.802L324.439 341.95L324.155 335.932L285.374 336.368Z" fill="#A75155"/>
<path d="M38.0739 48.5955L34.3944 2.61719L23.4414 3.38777L27.5488 55.5308L66.2264 54.0753L66.1409 47.5681L38.0739 48.5955Z" fill="#BE988D"/>
</g>
<defs>
<clipPath id="clip0">
<rect width="326" height="343" fill="white" transform="translate(0.253906 0.390625)"/>
</clipPath>
</defs>
</svg>
