<svg width="484" height="660" fill="none" xmlns="http://www.w3.org/2000/svg"><g clip-path="url(#clip0)"><path d="M96.185 609.153c-3.737 9.283-3.255 19.771 1.567 28.571 2.651 4.943 5.062 11.694 5.544 20.856 1.206 22.905 7.233 42.194 3.617 50.633-3.617 8.439-14.465 32.55-14.465 40.988 0 8.439-19.287 61.483-19.287 92.827C59.901 882.811 6.864 880.4 8.07 891.25c1.205 10.85 27.724 15.672 55.448 2.411 2.41 10.85 19.287 13.261 34.957 3.617 9.643-13.261-2.411-25.317 19.286-45.811 21.698-20.494 22.903-44.605 22.903-56.66 0-12.056 2.411-39.783 8.438-50.633 3.616-6.39 51.832-94.033 55.448-86.799 3.617 7.233 21.698 50.632 28.93 61.482 7.233 10.85 26.519 38.578 25.314 42.194-1.206 3.617-13.26 32.55-4.822 57.867 8.438 25.316 12.054 55.455 10.849 67.51-1.206 12.055-2.411 22.905 4.821 22.905 7.233 0 14.465 7.234 13.26-8.438 10.848 14.466 37.367 8.438 37.367 8.438l8.438-27.727-15.67-2.411s-10.849-7.234-6.027-18.083c4.821-10.85 15.67-65.1 9.643-89.211-6.027-24.111-19.286-42.194-19.286-47.016 0-4.822 4.821-28.933 4.821-28.933l-26.519-88.005-19.286-19.288-7.233-90.898-37.367-59.795-43.395-12.056-53.038 59.072v81.977l-19.165 42.194z" fill="#4B78BC"/><path d="M315.083 285.223c8.318 5.546 37.609 25.919 37.729 38.819 0 2.652-2.049 4.942-4.58 5.063-8.317.241-3.978-20.735-16.996-13.984-14.465 7.474-15.671 8.197-29.653 27.245-.121.241-.241.362-.362.603-.964 1.808-7.112 10.85-20.13-14.467-12.175-23.749 20.01-39.662 29.412-43.641 1.446-.723 3.134-.602 4.58.362z" fill="#2D5A9D"/><path d="M202.138 272.806s19.889 69.319 24.711 68.113c4.821-1.206 53.64-6.631 53.64-6.631l18.081-54.249-96.432-7.233z" fill="#FACBBD"/><path opacity=".14" d="M200.933 269.189s21.094 74.141 25.916 72.936c4.821-1.206 54.846-15.069 54.846-15.069l16.875-45.811-97.637-12.056z" fill="#F37880"/><path d="M329.19 211.806l-13.501 57.625-.361 2.17c-2.411 16.877-32.667 15.792-44.48 14.587-12.054-1.206-50.627-9.645-65.092-10.85-14.465-1.206-28.929-4.581-28.929-20.494 0-15.672-3.617-22.906-7.233-42.194-2.652-14.226-9.643-37.372-4.822-42.194 4.822-4.823 103.665-48.222 133.8-20.495 23.988 22.182 29.653 46.534 30.979 55.576.241 1.929.121 4.099-.361 6.269z" fill="#FACBBD"/><path opacity=".22" d="M223.834 188.418s1.206 32.43 1.206 38.578c0 6.028-1.206 20.494 4.821 14.466 6.027-6.027 11.572-12.537 9.644-14.466-1.206-1.206-10.849-30.139-10.849-34.961 0-4.822-4.822-6.028-4.822-3.617z" fill="#F37880"/><path d="M211.785 210.118s-7.233-8.439-18.081-8.439c-10.849 0-20.492 1.205-15.67 6.027 4.821 4.823 15.67 8.439 21.697 7.234 6.027-1.206 14.465-2.411 12.054-4.822zM309.421 220.968s-9.643-12.055-21.697-13.261c-12.054-1.205-27.724 1.206-22.903 4.822 4.822 3.617 13.26 13.261 25.314 13.261s21.697-3.616 19.286-4.822z" fill="#FEF1F0"/><path d="M244.327 258.34s21.697 2.411 15.67 4.822c-6.027 2.411-8.438 0-14.465 0-6.027 0-22.903-2.411-16.876-3.617 6.027-1.205 13.26-1.205 15.671-1.205z" fill="#F37880"/><path d="M208.164 188.418s-14.465-15.672-20.492-13.261c-6.027 2.412-14.465 3.617-19.286 4.823-4.822 1.205-15.671 6.027-4.822 7.233 10.849 1.205 19.287 4.822 25.314 3.617 6.027-1.206 19.286 2.411 19.286-2.412z" fill="#5C414E"/><path d="M189.602 201.679s-.724 12.658-3.134 11.211c-2.411-1.567-10.729-4.701-9.644-7.956 1.206-3.255 12.778-3.255 12.778-3.255zM278.078 207.465s7.956 10.729.964 15.792c-6.388-3.616-12.777-7.836-14.826-10.367-.603-.724-.482-1.688.12-2.411 1.085-1.085 3.376-2.291 13.742-3.014z" fill="#2C1E24"/><path d="M332.324 211.324s-1.205 31.344-6.027 32.549c-4.821 1.206-10.848 2.411-10.848 0s2.41-9.644 3.616-16.877c1.205-7.234 8.438-24.111 8.438-24.111l4.821 8.439z" fill="#5C414E"/><path d="M404.524 221.329c-1.446-.12-3.013 0-4.339.603-8.559 3.617-42.792 14.467-82.329-17.842-45.806-37.372-68.949-58.469-155.618-22.061-83.052 23.628-97.517.361-86.669-18.927 10.849-19.289 12.054 15.672 57.86-51.839 45.805-67.51 60.27-101.265 135.005-102.471 74.735-1.205 100.049 98.855 113.308 165.16 0 0 15.55 29.897 32.667 37.733 1.808.844 3.134 2.652 3.013 4.581-.241 5.666-8.799 5.425-12.898 5.063z" fill="#2D5A9D"/><path d="M350.403 429.527s-4.821 51.838-4.821 72.332c0 30.139 44.6 98.855 44.6 98.855s28.929 56.66 26.518 114.526c13.26 69.922 19.287 108.499 45.806 156.721 26.519 48.222 7.232 147.079-4.822 162.749-12.054 15.67-3.616 21.7-19.286 19.29-15.671-2.41-36.162-26.52-118.13-7.24-24.108-13.26 10.849-38.57-3.616-75.944-14.465-38.578 45.805-200.121-3.616-265.22-49.422-65.099-67.503-189.15-61.476-219.288 6.027-30.139 14.465-145.992 33.751-149.006 19.287-3.013 21.698-4.219 21.698-4.219l56.654 39.783-13.26 56.661zM92.446 368.044c8.438-18.084 53.038-10.971 68.708-57.867 0 0 1.205-19.288 15.67-6.027 0 0-.12.844-.482 2.411h5.304l24.108 9.644-10.849 24.111-43.394 55.455-3.014 11.453c-10.125 50.03-22.059 129.716-33.148 162.145-4.822 7.234 6.027-42.194-4.822-65.099-21.697-53.044-27.724-127.788-18.081-136.226z" fill="#4B78BC"/><path d="M193.218 544.416s-3.857-3.376 21.457 14.707c25.313 18.083 60.27 53.044 57.859 39.783-2.411-13.261-4.098-112.477-12.898-112.959-8.799-.483-53.399-48.584-59.426-60.639-6.027-12.056-8.438-9.283-9.643-3.496-1.206 5.786-26.519 77.034-15.671 91.5 10.849 14.467 16.153 32.189 18.322 31.104z" fill="#2D5A9D"/><path d="M194.061 413.734c-.241 3.255.482 6.51 2.049 9.283 11.09 19.409 56.533 96.564 55.448 68.113-1.205-32.549 43.515-165.4 47.614-182.157-3.737-19.168-71.722 19.288-71.722 19.288s-27.603 18.445-33.389 85.473z" fill="#E2D9D9"/><path d="M123.789 504.271s1.206 10.85 12.054-8.439c10.849-19.289 34.957-57.866 65.092-84.388 3.617-7.233 36.162-79.566 28.93-84.388-7.232-4.822-30.135-9.645-38.573 1.205-9.643 8.439-56.654 50.633-67.503 176.01z" fill="#FEF1F0"/><path d="M237.939 320.064c-.723-.603-1.446-1.085-1.928-1.808-5.786-8.077-32.426-44.967-39.899-40.627-7.956 4.581-33.872 19.65-41.948 20.494-1.206.121-2.291.724-3.134 1.567-4.943 5.064-1.929 8.078 10.125 8.078 13.259 0 36.162 12.055 39.778 18.083 3.617 6.027 28.93 6.027 31.341 3.616 2.049-2.17 7.112-8.197 5.665-9.403z" fill="#F37880"/><path d="M245.175 330.31c-7.112-.361-11.211-8.439-7.112-14.346 5.062-7.113 13.018-14.707 25.675-17.962 21.456-5.546 26.278-1.085 35.68-7.234 7.112-4.701 15.911 2.773 12.416 10.489-2.291 4.942-6.751 11.211-14.706 18.927-13.26 12.899-36.404 10.85-51.953 10.126z" fill="#F37880"/><path d="M293.026 340.316c-.241-4.099 2.893-7.595 6.871-7.836 17.117-.844 59.306-1.447 74.615 10.971 19.286 15.792 32.545 56.901 42.189 89.572 9.643 32.549 23.987 77.516-16.273 103.917-.362.242-.724.483-1.206.603-51.712 22.664-146.818 1.929-182.136-13.743l-1.085-.362c-19.407-5.063-30.738-7.112-37.006-7.836-3.857-.482-6.75-3.978-6.389-7.836l2.291-26.642c.361-4.581 4.942-7.716 9.281-6.39 10.246 3.014 27.604 7.475 39.658 6.751 18.081-1.085 80.762 3.135 91.611 3.135 10.848 0 30.135 4.219 30.135-2.05 0-6.268-3.616-11.573-3.616-23.146 0-10.85-20.251-50.633-22.662-55.335-.121-.361-.362-.602-.603-.964L296.16 371.54c-.844-1.085-1.205-2.411-1.326-3.737l-1.808-27.487z" fill="#2D5A9D"/><path d="M289.65 186.369c1.326.483 2.773.603 4.219.362 3.375-.603 8.317.482 10.728.482 3.375 0 6.027 2.411 8.438 7.234 2.411 4.822 10.849 7.233-1.205 7.233s-54.244-9.645-48.217-13.261c6.027-3.617 6.027-1.206 15.671-2.411 5.545-.724 8.799-.121 10.366.361z" fill="#5C414E"/><path d="M208.77 120.908c-12.316 0-22.3-9.985-22.3-22.303 0-12.317 9.984-22.302 22.3-22.302s22.3 9.985 22.3 22.302c0 12.318-9.984 22.303-22.3 22.303z" fill="#F37880"/><path d="M196.836 82.09l-29.532-20.977-10.246 15.19 33.028 13.261 6.75-7.474z" fill="#F37880"/><path d="M291.822 333.445s.723 6.39 1.326 9.042c.602 2.652 4.219 2.652 4.219 2.652l1.567-9.885-7.112-1.809z" fill="#2D5A9D"/><path d="M194.909 419.882s-16.876 36.166-9.644 73.538c7.233 37.372 13.26 57.866 7.233 59.072-6.027 1.205-71.119 0-112.103 57.866-13.26 6.028 21.697-33.755 24.108-50.633 2.411-16.878 39.779-96.443 73.53-125.376 12.054-16.878 16.876-20.495 16.876-14.467zM261.806 481.968c21.456-32.068 65.935-103.556 70.516-109.102 6.027-7.233-40.984-39.783-40.984-39.783-15.911-3.978-33.51 106.57-39.176 148.403l9.644.482z" fill="#4B78BC"/></g><mask id="a" maskUnits="userSpaceOnUse" x="-.184" y="-.22" width="485" height="1063" fill="#000"><path fill="#fff" d="M-.184-.22h485v1063h-485z"/><path fill-rule="evenodd" clip-rule="evenodd" d="M400.184 221.931c1.326-.603 2.893-.723 4.34-.603 4.098.362 12.656.603 12.898-5.063.12-1.929-1.206-3.737-3.014-4.581-17.117-7.836-32.666-37.733-32.666-37.733-13.26-66.305-38.573-166.365-113.308-165.16-53.169.858-75.833 18.19-100.979 52.43l-.152-.109-3.251 4.82c-5.683 7.99-11.564 16.825-18.011 26.51l-.001.001c-3.962 5.952-8.137 12.225-12.612 18.819-29.82 43.951-40.737 44.472-47.72 44.804-3.742.179-6.353.303-10.14 7.035-10.848 19.288 3.617 42.555 86.669 18.927l.73-.306.439-.183.021.188c-4.289 1.916-7.615 4.624.137 5.485l.352.04.334.04c.8 4.568 1.918 9.544 2.99 14.315v.001c.884 3.935 1.736 7.729 2.354 11.041 1.22 6.511 2.441 11.648 3.523 16.2 2.122 8.933 3.709 15.612 3.709 25.994 0 14.762 12.448 18.734 25.796 20.194.473 1.621 1.032 3.526 1.661 5.649-3.463-2.757-6.373-4.102-8.172-3.057l-.854.492c-8.81 5.078-33.287 19.186-41.094 20.002-1.205.121-2.29.724-3.134 1.567-4.942 5.064-1.929 8.078 10.125 8.078.111 0 .222 0 .334.002a20.856 20.856 0 00-.334 2.407c-9.78 29.27-30.83 37.5-47.324 43.949-9.932 3.883-18.212 7.12-21.384 13.917-9.643 8.439-3.616 83.182 18.081 136.226 3.021 6.379 4.36 14.814 4.823 23.51v2.267c-6.133 13.575-10.113 24.536-10.847 29.678-1.182 8.273-10.184 22.05-17.494 33.238-7.602 11.634-13.374 20.468-6.614 17.395 8.725-12.319 18.542-21.961 28.65-29.519l-12.861 28.314c-3.737 9.283-3.255 19.771 1.567 28.571 2.652 4.943 5.063 11.694 5.545 20.856.481 9.136 1.728 17.697 2.825 25.223 1.654 11.343 2.965 20.337.791 25.41l-.52 1.208a858.16 858.16 0 01-.713 1.645l-.01.023-.003.008c-4.381 10.104-13.219 30.488-13.219 38.105 0 2.882-2.25 10.97-5.214 21.621v.001c-2.097 7.535-4.551 16.352-6.817 25.516l-.024-.002a438.52 438.52 0 00-2.618 11.323c-2.363 10.856-4.166 21.664-4.541 30.93a84.093 84.093 0 00-.073 3.437c-8.48 25.441-33.227 33.627-49.652 39.06-9.26 3.062-15.875 5.25-15.44 9.162.132 1.187.567 2.301 1.273 3.328 2.521 3.667 8.503 6.213 16.508 6.919 10.245.905 23.806-1.205 37.668-7.835a10.771 10.771 0 001.702 3.884c2.196 3.128 6.055 5.057 10.805 5.609 6.479.753 14.615-1.055 22.45-5.877 3.811-5.241 4.233-10.294 4.69-15.754.697-8.355 1.475-17.662 14.597-30.057 4.604-4.349 8.286-8.862 11.229-13.387a68.21 68.21 0 001.503-2.417c7.095-11.944 9.261-23.775 9.928-32.78l-.021-.002c.22-3.055.263-5.783.263-8.074 0-12.056 2.411-39.783 8.438-50.633a1370.133 1370.133 0 001.599-2.861l.008-.014.001-.001v-.002l.001-.001c9.231-16.558 50.505-90.592 53.84-83.92 1.068 2.136 3.397 7.427 6.337 14.102 7.013 15.926 17.496 39.735 22.592 47.38a1139.06 1139.06 0 003.519 5.232l.004.005.001.002.01.016.001.001c8.561 12.685 22.821 33.813 21.779 36.938-.061.182-.148.427-.259.731l-.187.512-.002.006c-2.469 6.739-12.17 33.219-4.375 56.612l.001.006a193.676 193.676 0 012.938 9.674c6.329 22.894 8.966 47.288 7.911 57.836l-.058.583c-.074.739-.148 1.473-.219 2.199-.758 7.752-1.233 14.663.96 18.003.889 1.354 2.215 2.121 4.139 2.121 1.871 0 3.742.485 5.468.931 3.707.959 6.738 1.744 7.646-2.826.302-1.522.368-3.64.145-6.543 9.269 12.359 29.975 9.76 35.81 8.74-4.058 27.41-6.356 49.72-2.059 61.18 7.088 18.312 2.309 33.725-1.572 46.255-4.039 13.03-7.107 22.93 5.188 29.69 63.968-15.05 90.496-3.67 106.509 3.2 4.506 1.93 8.18 3.51 11.621 4.04 9.574 1.47 10.149-.21 11.896-5.31 1.113-3.25 2.701-7.88 7.39-13.98 12.054-15.67 31.341-114.528 4.822-162.75-24.758-45.02-31.656-81.634-43.252-143.196-.825-4.378-1.673-8.882-2.554-13.524 2.411-57.866-26.518-114.527-26.518-114.527s-17.28-26.623-30.328-53.994c14.492-1.3 27.982-4.186 39.368-9.176.482-.121.844-.362 1.205-.603 39.446-25.867 26.475-69.555 16.864-101.926l-.591-1.992c-9.643-32.67-22.902-73.779-42.189-89.572-12.982-10.53-45.293-11.697-65.254-11.294 7.487-9.487 10.708-11.213 21.978-17.036 7.475-3.876 9.227 1.388 10.939 6.529 1.269 3.813 2.516 7.558 6.057 7.455 2.532-.121 4.581-2.411 4.581-5.063-.121-12.9-29.412-33.273-37.729-38.819-1.447-.964-3.134-1.085-4.581-.361-3.12 1.32-8.748 3.954-14.432 7.753-.654.291-1.297.535-1.939.742l.219-.655 2.612-7.091c9.195-1.722 17.175-5.677 18.365-14.01l.362-2.17 5.739-24.5c1.583-.268 3.291-.662 4.869-1.057 3.929-.982 5.456-21.976 5.887-29.716 33.252 19.678 60.496 10.945 68 7.774zM308.632 874.82c2.032 2.792 4.404 4.374 4.404 4.374l10.139 1.56c9.545-61.341 19.71-135.84-10.139-175.159-5.285-6.961-10.212-14.596-14.788-22.719l3.939 13.075s-4.821 24.111-4.821 28.933c0 1.853 1.958 5.665 4.711 11.024 4.412 8.587 10.864 21.147 14.575 35.992 3.119 12.475 1.719 33.018-1.025 51.444-2.529 17.186-6.239 32.492-8.618 37.768a15.214 15.214 0 00-.727 1.99c-1.394 4.879.307 8.911 2.35 11.718z"/></mask><path d="M404.524 221.328l.664-7.972.02.002.019.001-.703 7.969zm-4.34.603l3.311 7.283-.098.044-.099.042-3.114-7.369zm17.238-5.666l-7.993-.34.003-.079.005-.08 7.985.499zm-3.014-4.581l3.33-7.274.027.012.026.013-3.383 7.249zm-32.666-37.733l-7.098 3.691-.524-1.008-.223-1.115 7.845-1.568zM268.434 8.791l.129 7.999-.129-7.999zm-100.979 52.43l6.448 4.735-4.661 6.346-6.42-4.56 4.633-6.522zm-.152-.109l-6.632-4.473 4.583-6.795 6.682 4.746-4.633 6.522zm-3.251 4.82l6.632 4.474-.055.082-.058.081-6.519-4.637zm-18.011 26.51l6.659 4.433-.021.031-.021.031-6.617-4.495zm-.001.001l-6.66-4.433.021-.03.021-.032 6.618 4.495zm-12.612 18.819l6.62 4.492-6.62-4.492zm-47.72 44.804l-.38-7.991.38 7.991zm-10.14 7.035l-6.972-3.922 6.973 3.922zm86.669 18.927l3.099 7.375-.445.187-.464.132-2.19-7.694zm.73-.306l-3.086-7.381.004-.001 3.082 7.382zm.439-.183l-3.082-7.383 9.849-4.112 1.184 10.607-7.951.888zm.021.188l7.951-.887.648 5.808-5.336 2.384-3.263-7.305zm.137 5.485l.883-7.951-.883 7.951zm.352.04l-.924 7.946h-.001l.925-7.946zm.334.04l.963-7.942 5.892.715 1.024 5.846-7.879 1.381zm2.99 14.315l7.805-1.753.026.116.023.117-7.854 1.52zm0 .001l-7.805 1.754-.027-.116-.022-.117 7.854-1.521zm2.354 11.041l-7.863 1.474-.002-.008 7.865-1.466zm3.523 16.2l-7.693 2.198-.049-.173-.042-.176 7.784-1.849zm0 0l7.692-2.197.049.173.042.175-7.783 1.849zm29.505 46.188l.87-7.952 5.313.581 1.497 5.131-7.68 2.24zm1.661 5.649l7.671-2.271 7.209 24.346-19.863-15.817 4.983-6.258zm-8.172-3.057l4.018 6.918-.012.007-.012.007-3.994-6.932zm-.854.492l-3.995-6.931h.001l3.994 6.931zm-41.094 20.002l.831 7.957-.017.002-.018.001-.796-7.96zm-3.134 1.567l-5.725-5.588.034-.034.034-.034 5.657 5.656zm10.459 8.08l.118-7.999 9.55.141-1.814 9.377-7.854-1.519zm-.334 2.407l7.985.499-.065 1.044-.332.992-7.588-2.535zm-47.324 43.949l2.913 7.45-2.913-7.45zm-21.384 13.917l7.25 3.383-.713 1.527-1.268 1.11-5.269-6.02zm18.081 136.226l-7.23 3.425-.092-.196-.082-.2 7.404-3.029zm4.823 23.51l7.989-.425.011.212v.213h-8zm0 2.267h8v1.723l-.71 1.57-7.29-3.293zm-10.847 29.678l7.919 1.131-7.919-1.131zm-17.494 33.238l6.697 4.376-6.697-4.376zm-6.614 17.395l6.528 4.624-1.25 1.764-1.968.895-3.31-7.283zm28.65-29.519l-4.791-6.407 12.075 9.716-7.284-3.309zm-12.861 28.314l-7.421-2.988.065-.162.072-.159 7.284 3.309zm1.567 28.571l7.016-3.844.017.031.016.031-7.05 3.782zm5.545 20.856l7.989-.42-7.989.42zm2.825 25.223l-7.916 1.154 7.916-1.154zm.791 25.41l7.353 3.151-7.353-3.151zm-.52 1.208l-7.344-3.174v-.001l7.344 3.175zm-.713 1.645l-7.345-3.169.002-.007.003-.006 7.34 3.182zm-.01.023l7.346 3.169-.012.028-.012.028-7.322-3.225zm-.003.008l-7.34-3.183.01-.021.009-.021 7.321 3.225zm-18.433 59.726l-7.761-1.941.025-.102.029-.102 7.707 2.145zm0 .001l7.76 1.94-.025.103-.028.102-7.708-2.145zm-6.817 25.516l7.766 1.92-1.651 6.679-6.85-.633.735-7.966zm-.024-.002l-7.771-1.898 1.637-6.702 6.87.634-.736 7.966zm-2.618 11.323l7.82 1.691-.003.01-7.817-1.701zm-4.541 30.93l7.993.324v.003l-7.993-.327zm-.073 3.437h8v1.298l-.41 1.232-7.59-2.53zm-49.652 39.06l-2.512-7.596 2.512 7.596zm-15.44 9.162l-7.951.883 7.951-.883zm1.273 3.328l6.592-4.533v.001l-6.592 4.532zm16.508 6.919l.703-7.969-.703 7.969zm37.668-7.835l-3.452-7.217 9.078-4.342 2.183 9.823-7.81 1.736zm1.702 3.884l6.546-4.598-6.546 4.598zm10.805 5.609l.924-7.947-.924 7.947zm22.45-5.877l6.47 4.705-.93 1.279-1.347.829-4.193-6.813zm4.69-15.754l-7.973-.666 7.973.666zm14.597-30.057l-5.494-5.816 5.494 5.816zm11.229-13.387l6.707 4.362-6.707-4.362zm1.503-2.417l-6.88-4.083.002-.002 6.878 4.085zm9.928-32.78l.733-7.966 7.826.72-.58 7.837-7.979-.591zm-.021-.002l-.732 7.967-7.81-.718.563-7.822 7.979.573zm8.701-58.707l-6.993-3.885.015-.028.016-.028 6.962 3.941zm.471-.839l-6.982-3.905 6.982 3.905zm1.128-2.022l-6.988-3.895.004-.007.004-.007 6.98 3.909zm.008-.014l7.075 3.734-.046.088-.049.087-6.98-3.909zm.001-.001l7.155 3.577-.039.079-.041.078-7.075-3.734zm0-.002l-7.155-3.577.115-.231.13-.223 6.91 4.031zm.001-.001l6.988 3.896-.038.068-.04.067-6.91-4.031zm53.84-83.92l-7.156 3.577 7.156-3.577zm6.337 14.102l-7.322 3.223 7.322-3.223zm22.592 47.38l6.657-4.437-6.657 4.437zm3.519 5.232l-6.62 4.492-.005-.008-.006-.009 6.631-4.475zm.004.005l-6.593 4.532-.014-.02-.013-.02 6.62-4.492zm.001.002l6.592-4.533.023.034.023.035-6.638 4.464zm.01.016l-6.554 4.587-.043-.061-.042-.062 6.639-4.464zm.001.001l6.554-4.588.039.056.038.056-6.631 4.476zm21.779 36.938l-7.59-2.529 7.59 2.529zm-.259.731l-7.517-2.736v-.001l7.517 2.737zm-.187.512l7.512 2.752-.002.006-7.51-2.758zm-.002.006l-7.512-2.752.002-.006 7.51 2.758zm-4.375 56.612l7.589-2.528.031.093.029.094-7.649 2.341zm.001.006l-7.589 2.53-.031-.093-.029-.095 7.649-2.342zm2.938 9.674l7.711-2.131-7.711 2.131zm7.911 57.836l7.96.796v.001l-7.96-.797zm-.058.583l7.96.797v.001l-7.96-.798zm-.219 2.199l7.962.778-7.962-.778zm.96 18.003l6.687-4.391.001.001-6.688 4.39zm9.607 3.052l2.004-7.745-2.004 7.745zm7.646-2.826l-7.847-1.557v-.001l7.847 1.558zm.145-6.543l-7.976.613-2.107-27.393 16.483 21.98-6.4 4.8zm35.81 8.74l-1.377-7.881 10.914-1.906-1.623 10.959-7.914-1.172zm-2.059 61.18l-7.461 2.888-.015-.04-.015-.039 7.491-2.809zm-1.572 46.255l7.642 2.37-7.642-2.37zm5.188 29.69l1.833 7.79-2.994.71-2.695-1.49 3.856-7.01zm106.509 3.2l3.154-7.35-3.154 7.35zm11.621 4.04l1.216-7.91-1.216 7.91zm11.896-5.31l7.569 2.59-7.569-2.59zm7.39-13.98l-6.341-4.88 6.341 4.88zm4.822-162.75l7.01-3.855-7.01 3.855zm-43.252-143.196l-7.862 1.481 7.862-1.481zM416.7 715.24l-7.86 1.49-.171-.904.038-.919 7.993.333zm-26.518-114.527l6.71-4.355.226.348.189.369-7.125 3.638zm-30.328-53.994l-7.222 3.442-4.949-10.383 11.456-1.027.715 7.968zm39.368-9.176l-3.211-7.327.617-.271.654-.163 1.94 7.761zm1.205-.603l-4.437-6.656.025-.017.025-.017 4.387 6.69zm16.864-101.926l7.67-2.277-7.67 2.277zm-.591-1.992l-7.67 2.272-.002-.007 7.672-2.265zm-42.189-89.572l5.04-6.213.014.012.015.011-5.069 6.19zm-65.254-11.294l.162 7.999-16.934.342 10.492-13.296 6.28 4.955zm21.978-17.036l3.683 7.102-.01.005-3.673-7.107zm10.939 6.529l-7.591 2.527 7.591-2.527zm6.057 7.455l.381 7.991-.074.004-.075.002-.232-7.997zm4.581-5.063l8-.075v.075h-8zm-37.729-38.819l-4.438 6.656 4.438-6.656zm-4.581-.361l3.578 7.155-.227.113-.233.099-3.118-7.367zm-14.432 7.753l4.445 6.651-.568.38-.625.278-3.252-7.309zm-1.939.742l2.457 7.614-15.045 4.855 4.999-14.998 7.589 2.529zm.219-.655l-7.59-2.53.04-.118.043-.118 7.507 2.766zm2.612-7.091l-7.507-2.765 1.57-4.262 4.464-.836 1.473 7.863zm18.365-14.01l-7.92-1.132.014-.092.015-.091 7.891 1.315zm.362-2.17l-7.891-1.315.042-.257.06-.253 7.789 1.825zm5.739-24.5l-7.789-1.825 1.213-5.176 5.242-.887 1.334 7.888zm4.869-1.057l1.94 7.761-1.94-7.761zm5.887-29.716l-7.987-.445.732-13.145 11.33 6.705-4.075 6.885zm-19.148 665.037l-1.217 7.907-1.748-.269-1.473-.982 4.438-6.656zm-4.404-4.374l6.468-4.708-6.468 4.708zm14.543 5.934l7.905 1.23-1.228 7.891-7.894-1.214 1.217-7.907zm-10.139-175.159l6.371-4.837-6.371 4.837zm-14.788-22.719l-7.66 2.309 14.629-6.236-6.969 3.927zm3.939 13.075l7.66-2.308.577 1.915-.392 1.962-7.845-1.569zm-.11 39.957l7.116-3.656-7.116 3.656zm14.575 35.992l-7.761 1.94 7.761-1.94zm-1.025 51.444l-7.915-1.165.001-.007.001-.007 7.913 1.179zm-8.618 37.768l-7.31-3.249.008-.02.009-.02 7.293 3.289zm-.727 1.99l-7.692-2.198 7.692 2.198zm97.577-633.801a3.926 3.926 0 00-.356-.014 2.246 2.246 0 00-.222.012c-.045.006-.049.009-.016.001.033-.009.114-.033.23-.086l-6.621-14.566c3.022-1.374 6.106-1.476 8.314-1.292l-1.329 15.945zm21.555-12.696c-.158 3.715-1.808 6.817-4.339 8.977-2.274 1.941-4.897 2.83-6.902 3.281-3.968.891-8.185.626-10.352.434l1.406-15.938c.872.077 1.893.139 2.92.128 1.059-.011 1.915-.1 2.518-.235.678-.152.495-.243.022.161a3.694 3.694 0 00-.889 1.159 3.462 3.462 0 00-.369 1.353l15.985.68zm-7.623-12.17c4.048 1.889 7.987 6.37 7.615 12.329l-15.969-.998c-.066 1.058.281 1.852.583 2.296.291.429.64.701 1.005.871l6.766-14.498zm-36.049-30.484c7.097-3.692 7.096-3.693 7.096-3.694l-.001-.001v-.001l.003.007.024.044.112.211a127.893 127.893 0 002.354 4.164 147.666 147.666 0 006.84 10.554c5.975 8.381 13.098 16.213 19.568 19.175l-6.66 14.548c-10.647-4.874-19.857-15.909-25.936-24.435a163.634 163.634 0 01-9.707-15.413 104.628 104.628 0 01-.769-1.427l-.014-.026-.005-.009-.001-.003c-.001-.002-.002-.003 7.096-3.694zM268.305.792c41.822-.675 69.013 27.284 86.926 61.557 17.91 34.266 27.724 76.871 34.355 110.033l-15.689 3.137c-6.628-33.143-16.1-73.72-32.846-105.759-16.742-32.032-39.575-53.5-72.488-52.97L268.305.792zM161.007 56.485c12.829-17.468 25.586-31.423 42.498-40.965 16.975-9.578 37.364-14.285 64.8-14.728l.258 15.998c-25.733.415-43.26 4.802-57.196 12.665-13.999 7.898-25.146 19.729-37.464 36.5l-12.896-9.47zm10.929-1.895l.152.108-9.266 13.045-.152-.109 9.266-13.044zm-14.516 6.868l3.251-4.82 13.264 8.948-3.251 4.82-13.264-8.948zM139.381 88.01c6.43-9.66 12.383-18.604 18.152-26.714l13.038 9.274c-5.598 7.87-11.407 16.595-17.871 26.306l-13.319-8.866zm.041-.06l.001-.002 13.235 8.99v.001l-13.236-8.99zm-12.614 18.822c4.452-6.561 8.608-12.806 12.572-18.76l13.319 8.865c-3.959 5.949-8.153 12.25-12.651 18.878l-13.24-8.983zm-41.48 41.304c1.681-.08 2.77-.152 4.174-.596 1.415-.448 3.542-1.417 6.61-3.787 6.314-4.882 15.931-15.159 30.696-36.921l13.24 8.983c-15.054 22.188-25.807 34.147-34.151 40.597-4.263 3.294-8.038 5.265-11.566 6.382-3.538 1.12-6.432 1.238-8.241 1.324l-.762-15.982zm-16.732 11.104c2.185-3.885 4.678-7.083 8.143-9.029 3.483-1.955 6.963-1.997 8.589-2.075l.762 15.982c-2.117.101-1.814.211-1.519.045.278-.156-.428.074-2.03 2.92l-13.945-7.843zm95.831 30.543c-21.115 6.008-38.173 9.124-51.774 10.012-13.503.882-24.14-.395-32.043-3.693-8.138-3.395-13.654-9.112-15.517-16.587-1.779-7.131.158-14.327 3.503-20.275l13.946 7.843c-2.08 3.697-2.403 6.642-1.925 8.561.393 1.574 1.65 3.813 6.154 5.692 4.738 1.977 12.612 3.292 24.84 2.493 12.131-.792 28.026-3.628 48.437-9.435l4.379 15.389zm1.625-.619l-.716.3-6.197-14.751.742-.311 6.171 14.762zm.436-.182l-.439.184-6.164-14.765.439-.184 6.164 14.765zm-11.011-6.307l-.021-.188 15.901-1.775.021.189-15.901 1.774zm7.203 12.549c-2.138-.238-4.764-.694-6.969-1.95-1.182-.673-2.933-1.965-3.991-4.257-1.175-2.544-.937-5.087-.195-6.994 1.164-2.988 3.635-4.704 4.543-5.319 1.322-.893 2.791-1.638 4.097-2.221l6.525 14.61c-.839.374-1.394.686-1.661.867-.131.089-.04.043.162-.157.147-.147.785-.797 1.244-1.975a7.092 7.092 0 00-.189-5.517c-.842-1.824-2.149-2.674-2.619-2.941-.783-.446-.917-.241.82-.048l-1.767 15.902zm.311.035l-.311-.035 1.767-15.902.395.045-1.851 15.892zm.295.035l-.294-.035 1.849-15.892.372.044-1.927 15.883zm-3.852 8.127c-1.062-4.728-2.225-9.897-3.064-14.687l15.759-2.762c.762 4.347 1.835 9.13 2.916 13.943l-15.611 3.506zm-.048-.231v-.002l15.708-3.04v.001l-15.708 3.041zm2.343 10.986c-.585-3.138-1.402-6.779-2.294-10.753l15.611-3.507c.874 3.894 1.762 7.843 2.412 11.327l-15.729 2.933zm3.604 16.583c-1.083-4.559-2.343-9.859-3.602-16.575l15.726-2.949c1.182 6.306 2.363 11.281 3.443 15.826l-15.567 3.698zm.091.349l15.385-4.396v.001l-15.385 4.395zm3.402 23.796c0-9.375-1.384-15.27-3.493-24.144L180.9 227c2.136 8.992 3.926 16.454 3.926 27.843h-16zm32.927 28.147c-6.913-.756-14.907-2.254-21.308-6.299-7.056-4.459-11.619-11.671-11.619-21.848h16c0 4.584 1.661 6.739 4.166 8.322 3.16 1.997 8.064 3.216 14.5 3.92l-1.739 15.905zm-5.141-.033c-.632-2.133-1.194-4.049-1.669-5.679l15.359-4.481c.47 1.611 1.026 3.506 1.652 5.618l-15.342 4.542zm-4.518-12.246c4.037-2.345 8.146-1.323 10.433-.414 2.447.972 4.754 2.55 6.739 4.131l-9.966 12.516a20.334 20.334 0 00-1.773-1.281c-.498-.315-.795-.452-.907-.496-.132-.053.144.083.734.105.659.026 1.695-.098 2.775-.725l-8.035-13.836zm-.831.479l.854-.493 7.988 13.864-.854.492-7.988-13.863zm-37.931 18.977c.607-.064 2.589-.62 6.149-2.15 3.272-1.405 7.143-3.304 11.161-5.394 8.023-4.173 16.205-8.888 20.62-11.433l7.99 13.862c-4.395 2.533-12.856 7.412-21.226 11.766-4.178 2.173-8.441 4.273-12.229 5.9-3.501 1.504-7.506 3.017-10.803 3.362l-1.662-15.913zm-7.96 3.867c1.878-1.878 4.602-3.532 7.995-3.871l1.592 15.92c.982-.098 1.537-.546 1.727-.736l-11.314-11.313zm15.782 21.734c-3.292 0-6.285-.202-8.858-.692-2.374-.451-5.347-1.317-7.738-3.335-1.304-1.101-2.534-2.633-3.233-4.646-.704-2.029-.689-4.029-.298-5.765.711-3.158 2.685-5.596 4.277-7.228l11.45 11.176a6.538 6.538 0 00-.375.414c-.083.101-.115.15-.113.147.002-.003.053-.082.123-.235.069-.154.168-.409.246-.757a5.533 5.533 0 00-.195-3c-.405-1.165-1.078-1.925-1.561-2.332-.749-.633-1.018-.428.409-.156 1.228.233 3.132.409 5.866.409v16zm.216.001l-.216-.001v-16c.152 0 .303.001.452.003l-.236 15.998zm-.216-5.592l-7.984-.5v-.002-.003l.001-.006.001-.014.002-.032.006-.082a25.609 25.609 0 01.093-.963c.068-.587.18-1.392.36-2.324l15.709 3.038a15.485 15.485 0 00-.204 1.402l-.002.032.001-.013.001-.014v-.01-.005l.001-.002v-.002l-7.985-.5zm-50.237 36.498c16.311-6.377 34.111-13.48 42.65-39.034l15.175 5.071c-11.022 32.986-35.323 42.344-51.999 48.864l-5.826-14.901zm-25.72 17.985c2.554-5.475 6.97-9.031 11.4-11.594 4.342-2.51 9.517-4.513 14.32-6.391l5.826 14.901c-5.129 2.006-9.06 3.563-12.135 5.341-2.985 1.726-4.296 3.187-4.912 4.509l-14.5-6.766zm17.926 142.638c-11.195-27.368-18.264-60.065-21.337-86.961-1.538-13.456-2.105-25.71-1.624-35.308.24-4.777.75-9.143 1.627-12.769.779-3.213 2.198-7.445 5.389-10.237l10.537 12.04c.78-.682.278-.732-.375 1.964-.553 2.284-.985 5.557-1.198 9.802-.423 8.448.065 19.777 1.54 32.692 2.954 25.847 9.747 57.043 20.25 82.72l-14.809 6.057zm4.238 20.906c-.445-8.367-1.716-15.553-4.064-20.51l14.46-6.849c3.695 7.8 5.101 17.485 5.582 26.509l-15.978.85zm-.011 1.842v-2.267h16v2.267h-16zm-10.767 28.547c.493-3.449 1.924-8.136 3.803-13.288 1.938-5.312 4.548-11.635 7.673-18.553l14.581 6.587c-3.007 6.657-5.454 12.603-7.223 17.45-1.827 5.008-2.753 8.373-2.995 10.066l-15.839-2.262zm-16.271 29.993c3.686-5.641 7.613-11.657 10.772-17.264 3.315-5.881 5.142-10.229 5.5-12.729l15.838 2.262c-.824 5.774-4.089 12.45-7.399 18.323-3.464 6.147-7.693 12.613-11.317 18.16l-13.394-8.752zm3.393 29.054c-1.101.501-2.822 1.19-4.777 1.313-2.207.139-6.42-.518-8.567-4.786-1.515-3.011-.836-5.922-.614-6.82.326-1.317.854-2.569 1.335-3.588 1.846-3.91 5.596-9.612 9.23-15.173l13.394 8.752c-3.968 6.073-6.906 10.605-8.156 13.253-.293.62-.315.777-.273.604.024-.096.12-.498.125-1.104a6.842 6.842 0 00-.748-3.115c-1.857-3.69-5.472-4.07-6.73-3.991-1.006.063-1.428.357-.84.089l6.621 14.566zm30.131-30.395c-9.474 7.084-18.695 16.133-26.913 27.736l-13.057-9.248c9.232-13.035 19.647-23.27 30.388-31.302l9.582 12.814zM88.9 605.843l12.861-28.313 14.568 6.617-12.861 28.313-14.568-6.617zm1.835 35.724c-6.012-10.972-6.574-23.972-1.972-35.403l14.842 5.975c-2.872 7.136-2.47 15.112 1.162 21.74l-14.032 7.688zM95.307 659c-.416-7.9-2.468-13.51-4.606-17.494l14.099-7.565c3.167 5.901 5.936 13.793 6.485 24.218L95.307 659zm2.898 25.956c-1.092-7.492-2.395-16.4-2.898-25.956l15.978-.841c.458 8.715 1.651 16.928 2.753 24.489l-15.833 2.308zm1.354 21.105c.304-.709.658-2.614.408-6.715-.238-3.894-.92-8.611-1.762-14.39l15.833-2.308c.811 5.564 1.612 11.016 1.899 15.723.275 4.5.198 9.628-1.672 13.992l-14.706-6.302zm-.51 1.184l.51-1.184 14.706 6.302c-.164.384-.342.796-.53 1.231l-14.686-6.349zm-.71 1.638l.71-1.637 14.686 6.348-.716 1.654-14.68-6.365zm-.015.036l.01-.023 14.691 6.338-.01.023-14.691-6.338zm.02-.048l.004-.008 14.643 6.45-.004.007-14.642-6.449zm-13.897 41.33c0-3.091.831-6.702 1.757-9.944.982-3.436 2.307-7.241 3.724-10.999 2.836-7.52 6.217-15.315 8.398-20.345l14.68 6.365c-2.2 5.074-5.429 12.524-8.107 19.626-1.34 3.553-2.498 6.904-3.31 9.748-.868 3.037-1.142 4.831-1.142 5.549h-16zm-4.921 19.476c1.492-5.361 2.764-9.935 3.666-13.528.452-1.795.786-3.248 1.003-4.371.241-1.247.252-1.665.252-1.577h16c0 2.628-.87 6.399-1.737 9.847-.963 3.833-2.298 8.629-3.77 13.918l-15.414-4.289zm-.054.205v-.001l15.522 3.881v.001l-15.522-3.881zm0 .001v-.001l15.522 3.881-15.523-3.88zm-6.822 25.536c2.298-9.293 4.782-18.218 6.875-25.741l15.415 4.29c-2.1 7.546-4.524 16.257-6.758 25.291l-15.532-3.84zm8.478-6.048l.023.002-1.47 15.932-.024-.002 1.47-15.932zm-11.173 17.597c.838-3.874 1.74-7.741 2.666-11.529l15.543 3.796c-.9 3.682-1.768 7.408-2.57 11.116l-15.639-3.383zm-4.716 32.299c.403-9.947 2.317-21.278 4.718-32.309l15.634 3.403c-2.325 10.682-4.017 20.968-4.365 29.553l-15.987-.647zm-.08 3.76c0-1.236.028-2.492.08-3.764l15.987.654a76.17 76.17 0 00-.066 3.11h-16zm-44.164 31.464c17.022-5.63 37.533-12.865 44.575-33.994l15.18 5.06c-9.917 29.753-38.9 38.889-54.73 44.125l-5.024-15.191zM.117 892.132c-.405-3.641.99-6.671 2.861-8.807 1.673-1.909 3.778-3.195 5.514-4.089 3.444-1.772 8.123-3.296 12.503-4.745l5.025 15.191c-4.879 1.614-8.137 2.716-10.207 3.781-1.02.525-1.067.71-.801.407.464-.53 1.194-1.819 1.007-3.505L.117 892.132zm2.632 6.978c-1.385-2.015-2.342-4.368-2.632-6.978l15.902-1.767a1.083 1.083 0 00-.063-.263c-.026-.069-.044-.088-.023-.058L2.749 899.11zm22.396 10.355c-4.623-.408-8.966-1.369-12.71-2.945-3.676-1.547-7.275-3.904-9.686-7.411l13.184-9.064c.11.159.763.909 2.709 1.728 1.878.791 4.528 1.456 7.91 1.754l-1.407 15.938zm41.824-8.587c-15.025 7.186-30.014 9.63-41.824 8.587l1.407-15.938c8.682.766 20.814-1.009 33.513-7.083l6.904 14.434zm-8.297 1.265a18.765 18.765 0 01-2.965-6.747l15.62-3.471c.094.428.248.751.438 1.022l-13.093 9.196zM75.1 911.1c-6.243-.725-12.531-3.408-16.428-8.957l13.093-9.196c.496.707 1.926 1.882 5.183 2.26L75.1 911.1zm27.567-7.01c-9.083 5.59-19 8.007-27.568 7.01l1.849-15.893c4.39.511 10.746-.689 17.333-4.743l8.386 13.626zm8.469-21.901c-.45 5.389-.925 12.551-6.192 19.793l-12.94-9.41c2.356-3.241 2.725-6.184 3.187-11.715l15.945 1.332zm12.118-24.907c-5.861 5.536-8.581 10.006-9.999 13.638-1.451 3.714-1.768 7.06-2.119 11.269l-15.945-1.332c.346-4.145.767-9.631 3.16-15.758 2.425-6.209 6.655-12.59 13.916-19.449l10.987 11.632zm12.443-14.841c-3.285 5.05-7.372 10.052-12.443 14.841l-10.987-11.632c4.139-3.909 7.415-7.932 10.017-11.933l13.413 8.724zm1.675-2.695a77.488 77.488 0 01-1.675 2.695l-13.413-8.723c.464-.714.907-1.427 1.329-2.139l13.759 8.167zm11.028-36.273c-.724 9.763-3.096 22.92-11.029 36.275l-13.756-8.171c6.257-10.534 8.217-21.038 8.828-29.285l15.957 1.181zm-7.267-8.559l.021.002-1.465 15.933-.021-.002 1.465-15.933zm7.53-.108c0 2.395-.045 5.33-.283 8.648l-15.959-1.147c.2-2.793.242-5.313.242-7.501h16zm7.432-46.748c-2.208 3.974-4.187 12.242-5.548 22.076-1.31 9.462-1.884 19.04-1.884 24.672h-16c0-6.425.633-16.738 2.035-26.866 1.35-9.755 3.59-20.776 7.41-27.652l13.987 7.77zm.46-.82c-.201.359-.367.655-.492.875l-13.924-7.881c.103-.182.253-.448.451-.803l13.965 7.809zm1.133-2.03l-1.133 2.03-13.965-7.809 1.122-2.012 13.976 7.791zm0-.001l-.008.015-13.96-7.819.009-.015 13.959 7.819zm.096-.176l-.001.001-14.15-7.468.001-.001 14.15 7.468zm.081-.158l-.001.001-14.311-7.155.001-.001 14.311 7.155zm-.245.452v.001l-13.821-8.062.001-.001 13.82 8.062zm39.774-84.374a7.297 7.297 0 004.348 3.665c2.117.662 3.829.181 4.522-.075 1.18-.435 1.571-1.001.956-.407-.911.882-2.481 2.786-4.687 5.866-4.287 5.989-9.912 14.907-15.839 24.75-11.811 19.614-24.376 42.152-28.996 50.44l-13.975-7.791c4.61-8.27 17.297-31.029 29.264-50.903 5.963-9.901 11.859-19.276 16.537-25.81 2.277-3.18 4.55-6.095 6.571-8.05.851-.824 2.479-2.313 4.635-3.107 1.181-.436 3.314-.956 5.785-.184 2.707.846 4.35 2.771 5.19 4.451l-14.311 7.155zm6.171 13.748c-3-6.812-5.216-11.839-6.171-13.748l14.311-7.155c1.182 2.364 3.624 7.918 6.503 14.456l-14.643 6.447zm23.258 48.595c-2.953-4.429-7.103-12.884-11.176-21.652-4.175-8.984-8.582-18.993-12.082-26.943l14.643-6.447c3.513 7.977 7.854 17.836 11.949 26.649 4.195 9.03 7.835 16.302 9.979 19.518l-13.313 8.875zm3.544 5.269c-1.336-1.979-2.55-3.778-3.544-5.269l13.313-8.875c.964 1.446 2.149 3.202 3.493 5.194l-13.262 8.95zm.015.022l-.004-.005 13.24-8.984.003.005-13.239 8.984zm.028.042l-.001-.002 13.185-9.064.001.001-13.185 9.065zm-.036-.052l-.01-.016 13.277-8.928.011.016-13.278 8.928zm.086.124l-.001-.001 13.108-9.175.001.001-13.108 9.175zm20.743 29.822c-.519 1.557-.325 2.759-.301 2.923.047.316.099.418.032.22-.131-.386-.446-1.136-1.04-2.31-1.164-2.302-2.97-5.397-5.187-8.969-4.409-7.104-10.024-15.426-14.324-21.798l13.262-8.951c4.261 6.313 10.056 14.899 14.657 22.311 2.288 3.687 4.386 7.253 5.87 10.187.731 1.445 1.426 2.957 1.908 4.374.24.704.5 1.593.646 2.568.123.822.306 2.556-.344 4.504l-15.179-5.059zm-.186.523c.112-.309.165-.458.186-.523l15.18 5.058c-.1.299-.222.639-.332.94l-15.034-5.475zm-.182.497l.182-.496 15.034 5.473-.192.527-15.024-5.504zm0 0l.002-.005 15.02 5.515-.003.005-15.019-5.515zm-4.455 61.899c-4.473-13.424-3.833-27.355-1.959-38.416 1.887-11.142 5.143-20.013 6.412-23.477l15.023 5.504c-1.199 3.275-4.028 11.013-5.66 20.645-1.645 9.712-1.958 20.718 1.363 30.687l-15.179 5.057zm-.058-.181l-.002-.006 15.299-4.683.002.006-15.299 4.683zm2.877 9.464a187.242 187.242 0 00-2.817-9.276l15.179-5.059a202.323 202.323 0 013.059 10.072l-15.421 4.263zm7.661 54.908c.915-9.159-1.459-32.471-7.661-54.908l15.421-4.263c6.455 23.35 9.354 48.825 8.16 60.763l-15.92-1.592zm-.059.583l.059-.584 15.92 1.594-.058.583-15.921-1.593zm-.22 2.217c.072-.738.147-1.481.22-2.218l15.921 1.595c-.074.74-.147 1.464-.217 2.179l-15.924-1.556zm2.235 23.172c-2.425-3.693-2.833-8.254-2.898-11.582-.071-3.643.287-7.745.663-11.59l15.924 1.556c-.382 3.907-.64 7.137-.59 9.723.056 2.9.507 3.464.275 3.111l-13.374 8.782zm10.826 5.73c-4.514 0-8.402-2.038-10.827-5.731l13.376-8.78a3.485 3.485 0 00-1.268-1.114c-.647-.343-1.158-.375-1.281-.375v16zm3.464.676c-1.902-.492-2.783-.676-3.464-.676v-16c3.061 0 5.923.785 7.472 1.186l-4.008 15.49zm17.496-9.013c-.385 1.94-1.155 4.179-2.8 6.12-1.787 2.108-4.072 3.237-6.317 3.666-2.017.386-3.849.181-5.064-.022-1.232-.206-2.473-.533-3.316-.751l4.009-15.49c1.011.262 1.538.392 1.946.46.425.071.102-.043-.58.088-.391.075-.908.23-1.465.541a5.162 5.162 0 00-1.418 1.161c-.706.833-.757 1.457-.688 1.112l15.693 3.115zm.276-8.715c.246 3.204.233 6.155-.276 8.716l-15.693-3.117c.096-.484.216-1.769.016-4.372l15.953-1.227zm29.21 17.235c-3.25.567-10.725 1.603-18.859.719-7.971-.866-18.145-3.763-24.728-12.541l12.8-9.599c2.686 3.581 7.499 5.565 13.657 6.234 5.995.651 11.791-.123 14.376-.575l2.754 15.762zm-10.927 56.108c-2.769-7.385-3.154-17.258-2.602-27.835.566-10.839 2.204-23.586 4.239-37.326l15.827 2.344c-2.024 13.67-3.564 25.783-4.088 35.816-.537 10.296.077 17.308 1.606 21.383l-14.982 5.618zm-1.722 41.076c3.894-12.56 7.742-25.522 1.752-40.997l14.922-5.776c8.185 21.149 2.477 39.023-1.391 51.513l-15.283-4.74zm8.973 39.07c-3.915-2.15-7.124-4.84-9.381-8.25-2.29-3.46-3.275-7.17-3.471-10.82-.358-6.7 2.008-13.97 3.879-20l15.283 4.74c-2.17 7-3.357 11.19-3.185 14.4.07 1.3.37 2.14.837 2.85.499.75 1.517 1.84 3.75 3.06l-7.712 14.02zm107.212 3.54c-7.812-3.35-17.566-7.53-32.99-9.22-15.53-1.7-37.221-.91-68.533 6.46l-3.665-15.57c32.656-7.69 56.212-8.73 73.941-6.79 17.836 1.95 29.351 6.9 37.554 10.42l-6.307 14.7zm13.557 4.59c-4.659-.71-9.358-2.79-13.558-4.59l6.308-14.7c4.812 2.06 7.46 3.14 9.683 3.48l-2.433 15.81zm20.682-10.62c-.371 1.09-.94 2.81-1.742 4.33-.927 1.76-2.413 3.77-4.931 5.18-2.363 1.32-4.85 1.67-6.973 1.72-2.119.04-4.486-.21-7.036-.61l2.433-15.81c2.237.34 3.533.43 4.269.42.732-.02.293-.13-.511.32-.42.24-.778.53-1.051.84-.252.28-.357.49-.353.48.012-.02.083-.17.227-.54.146-.39.302-.84.531-1.51l15.137 5.18zm6.162-11.69c-3.909 5.08-5.159 8.76-6.162 11.69l-15.137-5.18c1.222-3.57 3.149-9.16 8.617-16.27l12.682 9.76zm5.491-171.485c14.476 26.324 16.052 65.161 13.01 98.17-1.543 16.74-4.322 32.484-7.518 45.135-1.597 6.32-3.322 11.96-5.088 16.62-1.703 4.49-3.655 8.64-5.895 11.56l-12.682-9.76c.773-1 2.061-3.37 3.616-7.47 1.493-3.94 3.045-8.97 4.537-14.87 2.981-11.802 5.627-26.724 7.098-42.683 2.985-32.393.944-67.094-11.098-88.992l14.02-7.71zm-42.4-140.822c11.617 61.674 18.341 97.073 42.4 140.822l-14.02 7.71c-25.457-46.291-32.528-84.12-44.104-145.57l15.724-2.962zm-2.556-13.534c.882 4.648 1.731 9.157 2.556 13.534l-15.724 2.962c-.825-4.379-1.672-8.878-2.552-13.515l15.72-2.981zm-34.378-113.036c7.125-3.638 7.125-3.636 7.126-3.634a.022.022 0 01.003.005l.007.014.022.044.075.148.268.539c.229.466.557 1.14.969 2.011a233.465 233.465 0 013.361 7.469 307.62 307.62 0 019.943 26.502c7.079 21.858 13.998 51.506 12.737 81.762l-15.986-.666c1.151-27.61-5.19-55.226-11.973-76.165-3.375-10.422-6.823-19.078-9.419-25.11a215.264 215.264 0 00-3.127-6.95 134.075 134.075 0 00-1.074-2.218l-.049-.097-.01-.018v-.002.001c.001.002.002.003 7.127-3.635zm-23.107-57.437c6.384 13.391 13.837 26.666 19.724 36.636a586.52 586.52 0 007.266 11.979 418.95 418.95 0 002.647 4.188l.139.215.033.051.007.011a.003.003 0 01.001.002l-6.71 4.355c-6.711 4.355-6.711 4.355-6.712 4.354l-.001-.001-.003-.006a4.3 4.3 0 01-.054-.082l-.156-.242c-.135-.211-.334-.52-.589-.921-.511-.802-1.25-1.97-2.177-3.455a600.816 600.816 0 01-7.468-12.312c-6.014-10.184-13.725-23.906-20.39-37.887l14.443-6.885zm35.358 1.594c-12.422 5.444-26.824 8.468-41.865 9.817l-1.429-15.936c13.944-1.251 26.522-3.999 36.872-8.535l6.422 14.654zm2.432-1.274c-.271.181-1.7 1.207-3.703 1.708l-3.88-15.522a5.195 5.195 0 00-1.205.461c-.115.062-.188.108-.2.115l.113-.074 8.875 13.312zm20.096-110.859c4.731 15.936 10.818 36.196 10.292 55.893-.544 20.335-8.147 40.382-30.439 55l-8.774-13.38c17.154-11.249 22.789-25.979 23.218-42.048.447-16.706-4.756-34.476-9.636-50.911l15.339-4.554zm-.59-1.988l.59 1.988-15.339 4.554-.592-1.997 15.341-4.545zM379.58 337.26c11.245 9.208 19.999 25.007 27.006 41.522 7.125 16.792 12.959 35.619 17.787 51.975l-15.345 4.53c-4.816-16.314-10.433-34.377-17.171-50.255-6.854-16.156-14.373-28.808-22.414-35.392l10.137-12.38zm-70.484-13.102c10.164-.205 23.67-.018 36.419 1.61 12.279 1.568 25.644 4.662 34.036 11.469l-10.079 12.426c-4.59-3.723-13.872-6.477-25.984-8.024-11.643-1.487-24.273-1.682-34.069-1.484l-.323-15.997zm25.812-1.931c-5.8 2.997-8.783 4.578-11.303 6.454-2.344 1.745-4.52 3.935-8.068 8.431l-12.56-9.911c3.939-4.992 7.118-8.409 11.073-11.354 3.78-2.814 8.042-5.008 13.513-7.835l7.345 14.215zm-.325 1.949a73.075 73.075 0 00-.591-1.732 17.074 17.074 0 00-.49-1.238 4.473 4.473 0 00-.289-.561c-.043-.066.015.04.207.218.206.192.541.441 1.005.637.473.199.914.272 1.247.28.582.013.436-.176-.754.442l-7.366-14.204c2.547-1.321 5.424-2.305 8.49-2.234 3.339.077 6.15 1.389 8.27 3.359 1.917 1.781 3.06 3.9 3.773 5.481.722 1.599 1.28 3.299 1.679 4.498l-15.181 5.054zm13.88 12.925c-5.421.157-8.921-2.984-10.814-5.886-1.593-2.443-2.531-5.431-3.066-7.039l15.181-5.054c.332.996.578 1.728.832 2.369.254.643.411.916.455.984.038.058-.203-.342-.846-.743a4.239 4.239 0 00-1.14-.493 3.756 3.756 0 00-1.065-.132l.463 15.994zm12.349-13.06c0 6.504-4.998 12.711-12.2 13.054l-.761-15.982c-1.09.052-1.88.562-2.322 1.052a2.785 2.785 0 00-.717 1.876h16zm-41.291-45.475c4.256 2.838 14.011 9.553 22.796 17.312 4.377 3.866 8.745 8.192 12.09 12.598 3.139 4.134 6.349 9.579 6.405 15.49l-16 .149c-.005-.538-.501-2.478-3.148-5.964-2.441-3.216-5.938-6.748-9.939-10.281-7.97-7.04-17.019-13.284-21.08-15.992l8.876-13.312zm-12.597-.861c4.174-2.087 8.913-1.595 12.597.861l-8.876 13.312c.353.236.876.456 1.534.507a3.653 3.653 0 001.901-.369l-7.156-14.311zm-15.299 8.257c6.24-4.17 12.358-7.03 15.76-8.469l6.235 14.735c-2.838 1.201-7.977 3.61-13.105 7.037l-8.89-13.303zm.049-.219a11.48 11.48 0 001.144-.439l6.504 14.619c-.916.407-1.825.753-2.734 1.047l-4.914-15.227zm10.265 9.487l-.218.656-15.179-5.059.218-.656 15.179 5.059zm2.53-6.854l-2.612 7.09-15.014-5.531 2.612-7.09 15.014 5.531zm18.778-15.645c-2.004 14.024-15.308 18.962-24.812 20.743l-2.946-15.727c4.051-.759 7.137-1.899 9.15-3.272 1.803-1.23 2.549-2.468 2.768-4.007l15.84 2.263zm.333-1.986l-.362 2.17-15.782-2.63.362-2.17 15.782 2.63zm5.638-23.99l-5.74 24.5-15.578-3.65 5.739-24.5 15.579 3.65zm-.981 4.879c-1.649.413-3.589.865-5.474 1.184l-2.669-15.776c1.28-.216 2.755-.553 4.262-.93l3.881 15.522zm11.935-37.032c-.219 3.932-.724 11.403-1.704 18.105-.483 3.303-1.129 6.761-2.025 9.604-.439 1.392-1.055 3.021-1.962 4.501-.746 1.217-2.639 3.921-6.244 4.822l-3.881-15.522a6.371 6.371 0 00-2.776 1.472 4.215 4.215 0 00-.741.868c-.07.113.082-.119.345-.954.509-1.612 1.009-4.07 1.452-7.106.874-5.976 1.349-12.871 1.561-16.68l15.975.89zm63.126 14.698c-8.926 3.772-39.02 13.146-75.188-8.258l8.149-13.77c30.334 17.952 54.729 9.86 60.811 7.29l6.228 14.738zm-90.262 649.894c-4.438 6.656-4.439 6.655-4.441 6.654l-.002-.002-.006-.004-.012-.008-.028-.018-.065-.045a19.093 19.093 0 01-.669-.484 28.128 28.128 0 01-5.649-5.76l12.936-9.415a12.197 12.197 0 002.355 2.407l.096.071-.015-.011-.025-.017-.017-.011a.088.088 0 00-.01-.006l-.005-.004-.002-.002c-.002-.001-.003-.001-4.441 6.655zm8.922 9.467l-10.139-1.56 2.434-15.814 10.139 1.56-2.434 15.814zm-2.551-187.903c16.554 21.805 21.475 52.477 21.471 84.159-.003 31.909-5.033 66.444-9.798 97.067l-15.81-2.46c4.78-30.718 9.605-64.102 9.608-94.608.003-30.733-4.919-56.97-18.214-74.483l12.743-9.675zm-14.19-21.809c4.427 7.857 9.158 15.18 14.19 21.809l-12.743 9.675c-5.537-7.294-10.659-15.241-15.386-23.629l13.939-7.855zm-10.689 19.31l-3.94-13.074 15.319-4.617 3.94 13.075-15.319 4.616zm-5.162 26.625c0-1.932.416-4.976.846-7.771.468-3.043 1.086-6.59 1.694-9.935a789.756 789.756 0 012.225-11.729l.156-.785.041-.208.011-.054a.106.106 0 01.003-.014v-.004l.001-.001 7.844 1.568 7.845 1.569v.003l-.003.012a1.094 1.094 0 01-.01.049l-.039.198-.151.762a799.03 799.03 0 00-2.181 11.496c-.598 3.286-1.186 6.671-1.622 9.505-.218 1.42-.391 2.655-.508 3.646-.058.495-.098.897-.123 1.211-.013.156-.02.276-.025.365l-.004.117h-16zm5.595 14.68c-1.34-2.61-2.63-5.115-3.568-7.203-.475-1.054-.937-2.171-1.291-3.268-.321-.995-.736-2.511-.736-4.209h16c0-.771-.17-1.116-.038-.708.099.306.298.825.658 1.625.728 1.621 1.795 3.702 3.207 6.451l-14.232 7.312zm13.93 34.276c-3.462-13.849-9.507-25.669-13.93-34.276l14.232-7.312c4.401 8.566 11.261 21.867 15.221 37.708l-15.523 3.88zm-1.177 48.325c2.749-18.452 3.869-37.557 1.177-48.325l15.523-3.88c3.545 14.182 1.866 36.163-.875 54.562l-15.825-2.357zm-7.998 35.658c.838-1.858 2.218-6.326 3.753-12.939 1.489-6.41 3.009-14.317 4.243-22.705l15.83 2.329c-1.295 8.798-2.894 17.137-4.487 23.996-1.546 6.656-3.212 12.479-4.753 15.896l-14.586-6.577zm-1.126 3.081a23.14 23.14 0 011.109-3.041l14.621 6.498a7.023 7.023 0 00-.346.939l-15.384-4.396zm3.574 18.623c-2.919-4.009-5.873-10.574-3.574-18.623l15.384 4.395c-.279.979-.236 1.756-.058 2.446.195.758.596 1.559 1.184 2.367l-12.936 9.415z" fill="#fff" mask="url(#a)"/><defs><clipPath id="clip0"><path fill="#fff" transform="matrix(-1 0 0 1 475.766 8.792)" d="M0 0h467.817v1045.69H0z"/></clipPath></defs></svg>