<svg width="484" height="660" viewBox="0 0 484 660" fill="none" xmlns="http://www.w3.org/2000/svg">
<g clip-path="url(#clip0)">
<path d="M96.1846 609.153C92.4478 618.436 92.93 628.924 97.7516 637.724C100.403 642.667 102.814 649.418 103.296 658.58C104.502 681.485 110.529 700.774 106.913 709.213C103.296 717.652 92.4478 741.763 92.4478 750.201C92.4478 758.64 73.1613 811.684 73.1613 843.028C59.9019 882.811 6.86411 880.4 8.06952 891.25C9.27493 902.1 35.7938 906.922 63.5181 893.661C65.9289 904.511 82.8046 906.922 98.4748 897.278C108.118 884.017 96.064 871.961 117.761 851.467C139.459 830.973 140.664 806.862 140.664 794.807C140.664 782.751 143.075 755.024 149.102 744.174C152.718 737.784 200.934 650.141 204.55 657.375C208.167 664.608 226.248 708.007 233.48 718.857C240.713 729.707 259.999 757.435 258.794 761.051C257.588 764.668 245.534 793.601 253.972 818.918C262.41 844.234 266.026 874.373 264.821 886.428C263.615 898.483 262.41 909.333 269.642 909.333C276.875 909.333 284.107 916.567 282.902 900.895C293.75 915.361 320.269 909.333 320.269 909.333L328.707 881.606L313.037 879.195C313.037 879.195 302.188 871.961 307.01 861.112C311.831 850.262 322.68 796.012 316.653 771.901C310.626 747.79 297.367 729.707 297.367 724.885C297.367 720.063 302.188 695.952 302.188 695.952L275.669 607.947L256.383 588.659L249.15 497.761L211.783 437.966L168.388 425.91L115.35 484.982V566.959L96.1846 609.153Z" fill="#4B78BC"/>
<path d="M315.083 285.223C323.401 290.769 352.692 311.142 352.812 324.042C352.812 326.694 350.763 328.984 348.232 329.105C339.915 329.346 344.254 308.37 331.236 315.121C316.771 322.595 315.565 323.318 301.583 342.366C301.462 342.607 301.342 342.728 301.221 342.969C300.257 344.777 294.109 353.819 281.091 328.502C268.916 304.753 301.101 288.84 310.503 284.861C311.949 284.138 313.637 284.259 315.083 285.223Z" fill="#2D5A9D"/>
<path d="M202.138 272.806C202.138 272.806 222.027 342.125 226.849 340.919C231.67 339.713 280.489 334.288 280.489 334.288L298.57 280.039L202.138 272.806Z" fill="#FACBBD"/>
<path opacity="0.14" d="M200.933 269.189C200.933 269.189 222.027 343.33 226.849 342.125C231.67 340.919 281.695 327.056 281.695 327.056L298.57 281.245L200.933 269.189Z" fill="#F37880"/>
<path d="M329.19 211.806L315.689 269.431C315.569 270.154 315.448 270.877 315.328 271.601C312.917 288.478 282.661 287.393 270.848 286.188C258.794 284.982 220.221 276.543 205.756 275.338C191.291 274.132 176.827 270.757 176.827 254.844C176.827 239.172 173.21 231.938 169.594 212.65C166.942 198.424 159.951 175.278 164.772 170.456C169.594 165.633 268.437 122.234 298.572 149.961C322.56 172.143 328.225 196.495 329.551 205.537C329.792 207.466 329.672 209.636 329.19 211.806Z" fill="#FACBBD"/>
<path opacity="0.22" d="M223.834 188.418C223.834 188.418 225.04 220.848 225.04 226.996C225.04 233.024 223.834 247.49 229.861 241.462C235.888 235.435 241.433 228.925 239.505 226.996C238.299 225.79 228.656 196.857 228.656 192.035C228.656 187.213 223.834 186.007 223.834 188.418Z" fill="#F37880"/>
<path d="M211.785 210.118C211.785 210.118 204.552 201.679 193.704 201.679C182.855 201.679 173.212 202.884 178.034 207.706C182.855 212.529 193.704 216.145 199.731 214.94C205.758 213.734 214.196 212.529 211.785 210.118Z" fill="#FEF1F0"/>
<path d="M309.421 220.968C309.421 220.968 299.778 208.913 287.724 207.707C275.67 206.502 260 208.913 264.821 212.529C269.643 216.146 278.081 225.79 290.135 225.79C302.189 225.79 311.832 222.174 309.421 220.968Z" fill="#FEF1F0"/>
<path d="M244.327 258.34C244.327 258.34 266.024 260.751 259.997 263.162C253.97 265.573 251.559 263.162 245.532 263.162C239.505 263.162 222.629 260.751 228.656 259.545C234.683 258.34 241.916 258.34 244.327 258.34Z" fill="#F37880"/>
<path d="M208.164 188.418C208.164 188.418 193.699 172.746 187.672 175.157C181.645 177.569 173.207 178.774 168.386 179.98C163.564 181.185 152.715 186.007 163.564 187.213C174.413 188.418 182.851 192.035 188.878 190.83C194.905 189.624 208.164 193.241 208.164 188.418Z" fill="#5C414E"/>
<path d="M189.602 201.679C189.602 201.679 188.878 214.337 186.468 212.89C184.057 211.323 175.739 208.189 176.824 204.934C178.03 201.679 189.602 201.679 189.602 201.679Z" fill="#2C1E24"/>
<path d="M278.078 207.465C278.078 207.465 286.034 218.194 279.042 223.257C272.654 219.641 266.265 215.421 264.216 212.89C263.613 212.166 263.734 211.202 264.336 210.479C265.421 209.394 267.712 208.188 278.078 207.465Z" fill="#2C1E24"/>
<path d="M332.324 211.324C332.324 211.324 331.119 242.668 326.297 243.873C321.476 245.079 315.449 246.284 315.449 243.873C315.449 241.462 317.859 234.229 319.065 226.996C320.27 219.762 327.503 202.885 327.503 202.885L332.324 211.324Z" fill="#5C414E"/>
<path d="M404.524 221.329C403.078 221.209 401.511 221.329 400.185 221.932C391.626 225.549 357.393 236.399 317.856 204.09C272.05 166.718 248.907 145.621 162.238 182.029C79.1856 205.657 64.7207 182.39 75.5694 163.102C86.418 143.813 87.6234 178.774 133.429 111.263C179.234 43.7528 193.699 9.99759 268.434 8.79204C343.169 7.5865 368.483 107.647 381.742 173.952C381.742 173.952 397.292 203.849 414.409 211.685C416.217 212.529 417.543 214.337 417.422 216.266C417.181 221.932 408.623 221.691 404.524 221.329Z" fill="#2D5A9D"/>
<path d="M350.403 429.527C350.403 429.527 345.582 481.365 345.582 501.859C345.582 531.998 390.182 600.714 390.182 600.714C390.182 600.714 419.111 657.374 416.7 715.24C429.96 785.162 435.987 823.739 462.506 871.961C489.025 920.183 469.738 1019.04 457.684 1034.71C445.63 1050.38 454.068 1056.41 438.398 1054C422.727 1051.59 402.236 1027.48 320.268 1046.76C296.16 1033.5 331.117 1008.19 316.652 970.816C302.187 932.238 362.457 770.695 313.036 705.596C263.614 640.497 245.533 516.446 251.56 486.308C257.587 456.169 266.025 340.316 285.311 337.302C304.598 334.289 307.009 333.083 307.009 333.083L363.663 372.866L350.403 429.527Z" fill="#4B78BC"/>
<path d="M92.4459 368.044C100.884 349.96 145.484 357.073 161.154 310.177C161.154 310.177 162.359 290.889 176.824 304.15C176.824 304.15 176.704 304.994 176.342 306.561H181.646L205.754 316.205L194.905 340.316L151.511 395.771L148.497 407.224C138.372 457.254 126.438 536.94 115.349 569.369C110.527 576.603 121.376 527.175 110.527 504.27C88.8297 451.226 82.8027 376.482 92.4459 368.044Z" fill="#4B78BC"/>
<path d="M193.218 544.416C193.218 544.416 189.361 541.04 214.675 559.123C239.988 577.206 274.945 612.167 272.534 598.906C270.123 585.645 268.436 486.429 259.636 485.947C250.837 485.464 206.237 437.363 200.21 425.308C194.183 413.252 191.772 416.025 190.567 421.812C189.361 427.598 164.048 498.846 174.896 513.312C185.745 527.779 191.049 545.501 193.218 544.416Z" fill="#2D5A9D"/>
<path d="M194.061 413.734C193.82 416.989 194.543 420.244 196.11 423.017C207.2 442.426 252.643 519.581 251.558 491.13C250.353 458.581 295.073 325.73 299.172 308.973C295.435 289.805 227.45 328.261 227.45 328.261C227.45 328.261 199.847 346.706 194.061 413.734Z" fill="#E2D9D9"/>
<path d="M123.789 504.271C123.789 504.271 124.995 515.121 135.843 495.832C146.692 476.543 170.8 437.966 200.935 411.444C204.552 404.211 237.097 331.878 229.865 327.056C222.633 322.234 199.73 317.411 191.292 328.261C181.649 336.7 134.638 378.894 123.789 504.271Z" fill="#FEF1F0"/>
<path d="M237.939 320.064C237.216 319.461 236.493 318.979 236.011 318.256C230.225 310.179 203.585 273.289 196.112 277.629C188.156 282.21 162.24 297.279 154.164 298.123C152.958 298.244 151.873 298.847 151.03 299.69C146.087 304.754 149.101 307.768 161.155 307.768C174.414 307.768 197.317 319.823 200.933 325.851C204.55 331.878 229.863 331.878 232.274 329.467C234.323 327.297 239.386 321.27 237.939 320.064Z" fill="#F37880"/>
<path d="M245.175 330.31C238.063 329.949 233.964 321.871 238.063 315.964C243.125 308.851 251.081 301.257 263.738 298.002C285.194 292.456 290.016 296.917 299.418 290.768C306.53 286.067 315.329 293.541 311.834 301.257C309.543 306.199 305.083 312.468 297.128 320.184C283.868 333.083 260.724 331.034 245.175 330.31Z" fill="#F37880"/>
<path d="M293.026 340.316C292.785 336.217 295.919 332.721 299.897 332.48C317.014 331.636 359.203 331.033 374.512 343.451C393.798 359.243 407.057 400.352 416.701 433.023C426.344 465.572 440.688 510.539 400.428 536.94C400.066 537.182 399.704 537.423 399.222 537.543C347.51 560.207 252.404 539.472 217.086 523.8C216.724 523.68 216.362 523.559 216.001 523.438C196.594 518.375 185.263 516.326 178.995 515.602C175.138 515.12 172.245 511.624 172.606 507.766L174.897 481.124C175.258 476.543 179.839 473.408 184.178 474.734C194.424 477.748 211.782 482.209 223.836 481.485C241.917 480.4 304.598 484.62 315.447 484.62C326.295 484.62 345.582 488.839 345.582 482.57C345.582 476.302 341.966 470.997 341.966 459.424C341.966 448.574 321.715 408.791 319.304 404.089C319.183 403.728 318.942 403.487 318.701 403.125L296.16 371.54C295.316 370.455 294.955 369.129 294.834 367.803L293.026 340.316Z" fill="#2D5A9D"/>
<path d="M289.65 186.369C290.976 186.852 292.423 186.972 293.869 186.731C297.244 186.128 302.186 187.213 304.597 187.213C307.972 187.213 310.624 189.624 313.035 194.447C315.446 199.269 323.884 201.68 311.83 201.68C299.776 201.68 257.586 192.035 263.613 188.419C269.64 184.802 269.64 187.213 279.284 186.008C284.829 185.284 288.083 185.887 289.65 186.369Z" fill="#5C414E"/>
<path d="M208.77 120.908C196.454 120.908 186.47 110.923 186.47 98.6053C186.47 86.2879 196.454 76.3027 208.77 76.3027C221.086 76.3027 231.07 86.2879 231.07 98.6053C231.07 110.923 221.086 120.908 208.77 120.908Z" fill="#F37880"/>
<path d="M196.836 82.0897L167.304 61.1133L157.058 76.3031L190.086 89.5641L196.836 82.0897Z" fill="#F37880"/>
<path d="M291.822 333.445C291.822 333.445 292.545 339.835 293.148 342.487C293.75 345.139 297.367 345.139 297.367 345.139L298.934 335.254L291.822 333.445Z" fill="#2D5A9D"/>
<path d="M194.909 419.882C194.909 419.882 178.033 456.048 185.265 493.42C192.498 530.792 198.525 551.286 192.498 552.492C186.471 553.697 121.379 552.492 80.3951 610.358C67.1356 616.386 102.092 576.603 104.503 559.725C106.914 542.847 144.282 463.282 178.033 434.349C190.087 417.471 194.909 413.854 194.909 419.882Z" fill="#4B78BC"/>
<path d="M261.806 481.968C283.262 449.9 327.741 378.412 332.322 372.866C338.349 365.633 291.338 333.083 291.338 333.083C275.427 329.105 257.828 439.653 252.162 481.486L261.806 481.968Z" fill="#4B78BC"/>
</g>
<mask id="path-29-outside-1" maskUnits="userSpaceOnUse" x="-0.183594" y="-0.219727" width="485" height="1063" fill="black">
<rect fill="white" x="-0.183594" y="-0.219727" width="485" height="1063"/>
<path fill-rule="evenodd" clip-rule="evenodd" d="M400.184 221.931C401.51 221.328 403.077 221.208 404.524 221.328C408.622 221.69 417.18 221.931 417.422 216.265C417.542 214.336 416.216 212.528 414.408 211.684C397.291 203.848 381.742 173.951 381.742 173.951C368.482 107.646 343.169 7.58552 268.434 8.79107C215.265 9.64872 192.601 26.9805 167.455 61.2204L167.303 61.1123L164.052 65.9321C158.369 73.922 152.488 82.7571 146.041 92.4421L146.04 92.4433C142.078 98.395 137.903 104.668 133.428 111.262C103.608 155.213 92.6905 155.734 85.7089 156.066C81.9664 156.245 79.3548 156.369 75.5689 163.101C64.7202 182.389 79.1851 205.656 162.237 182.028C162.481 181.925 162.724 181.824 162.967 181.722L163.406 181.539L163.427 181.727C159.138 183.643 155.812 186.351 163.564 187.212C163.681 187.225 163.799 187.238 163.916 187.252C164.028 187.265 164.139 187.278 164.25 187.292C165.05 191.86 166.168 196.836 167.24 201.607L167.24 201.608C168.124 205.543 168.976 209.337 169.594 212.649C170.814 219.16 172.035 224.297 173.117 228.849L173.117 228.849C175.239 237.782 176.826 244.461 176.826 254.843C176.826 269.605 189.274 273.577 202.622 275.037C203.095 276.658 203.654 278.563 204.283 280.686C200.82 277.929 197.91 276.584 196.111 277.629L195.257 278.121C186.447 283.199 161.97 297.307 154.163 298.123C152.958 298.244 151.873 298.847 151.029 299.69C146.087 304.754 149.1 307.768 161.154 307.768C161.265 307.768 161.376 307.768 161.488 307.77C161.217 309.168 161.154 310.177 161.154 310.177C151.374 339.447 130.324 347.677 113.83 354.126C103.898 358.009 95.6177 361.246 92.4463 368.043C82.8031 376.482 88.8301 451.225 110.527 504.269C113.548 510.648 114.887 519.083 115.35 527.779V530.046C109.217 543.621 105.237 554.582 104.503 559.724C103.321 567.997 94.3188 581.774 87.009 592.962C79.4066 604.596 73.6347 613.43 80.3946 610.357C89.1196 598.038 98.9372 588.396 109.045 580.838L96.1839 609.152C92.4472 618.435 92.9293 628.923 97.7509 637.723C100.403 642.666 102.814 649.417 103.296 658.579C103.777 667.715 105.024 676.276 106.121 683.802C107.775 695.145 109.086 704.139 106.912 709.212C106.752 709.585 106.578 709.988 106.392 710.42C106.171 710.931 105.933 711.481 105.679 712.065L105.669 712.088L105.666 712.096C101.285 722.2 92.4471 742.584 92.4471 750.201C92.4471 753.083 90.1965 761.171 87.2328 771.822L87.2326 771.822L87.2324 771.823C85.1356 779.358 82.682 788.175 80.416 797.339L80.3922 797.337C79.4799 801.072 78.5945 804.868 77.7744 808.66C75.4113 819.516 73.6077 830.324 73.2327 839.59C73.1847 840.762 73.1598 841.909 73.1598 843.027C64.6804 868.468 39.9333 876.654 23.5078 882.087C14.2484 885.149 7.63345 887.337 8.06799 891.249C8.19986 892.436 8.63498 893.55 9.34103 894.577C11.8621 898.244 17.8436 900.79 25.8486 901.496C36.0943 902.401 49.6549 900.291 63.5168 893.661C63.8387 895.109 64.4186 896.406 65.2185 897.545C67.4151 900.673 71.274 902.602 76.0235 903.154C82.5026 903.907 90.639 902.099 98.4742 897.277C102.285 892.036 102.707 886.983 103.164 881.523C103.861 873.168 104.639 863.861 117.761 851.466C122.365 847.117 126.047 842.604 128.99 838.079C129.514 837.274 130.015 836.468 130.493 835.662C137.588 823.718 139.754 811.887 140.421 802.882L140.4 802.88C140.62 799.825 140.663 797.097 140.663 794.806C140.663 782.75 143.074 755.023 149.101 744.173C149.215 743.972 149.373 743.69 149.572 743.334C149.863 742.814 150.242 742.134 150.7 741.312L150.708 741.298L150.709 741.297L150.709 741.295L150.71 741.294C159.941 724.736 201.215 650.702 204.55 657.374C205.618 659.51 207.947 664.801 210.887 671.476C217.9 687.402 228.383 711.211 233.479 718.856C234.458 720.325 235.658 722.103 236.998 724.088L237.002 724.093L237.003 724.095L237.013 724.111L237.014 724.112C245.575 736.797 259.835 757.925 258.793 761.05C258.732 761.232 258.645 761.477 258.534 761.781C258.477 761.937 258.415 762.107 258.347 762.293L258.345 762.299C255.876 769.038 246.175 795.518 253.97 818.911L253.971 818.917C255.026 822.082 256.006 825.321 256.909 828.591C263.238 851.485 265.875 875.879 264.82 886.427L264.762 887.01C264.688 887.749 264.614 888.483 264.543 889.209C263.785 896.961 263.31 903.872 265.503 907.212C266.392 908.566 267.718 909.333 269.642 909.333C271.513 909.333 273.384 909.818 275.11 910.264C278.817 911.223 281.848 912.008 282.756 907.438C283.058 905.916 283.124 903.798 282.901 900.895C292.17 913.254 312.876 910.655 318.711 909.635C314.653 937.045 312.355 959.355 316.652 970.815C323.74 989.127 318.961 1004.54 315.08 1017.07C311.041 1030.1 307.973 1040 320.268 1046.76C384.236 1031.71 410.764 1043.09 426.777 1049.96C431.283 1051.89 434.957 1053.47 438.398 1054C447.972 1055.47 448.547 1053.79 450.294 1048.69C451.407 1045.44 452.995 1040.81 457.684 1034.71C469.738 1019.04 489.025 920.182 462.506 871.96C437.748 826.94 430.85 790.326 419.254 728.764C418.429 724.386 417.581 719.882 416.7 715.24C419.111 657.374 390.182 600.713 390.182 600.713C390.182 600.713 372.902 574.09 359.854 546.719C374.346 545.419 387.836 542.533 399.222 537.543C399.704 537.422 400.066 537.181 400.427 536.94C439.873 511.073 426.902 467.385 417.291 435.014C417.093 434.345 416.896 433.681 416.7 433.022C407.057 400.352 393.798 359.243 374.511 343.45C361.529 332.92 329.218 331.753 309.257 332.156C316.744 322.669 319.965 320.943 331.235 315.12C338.71 311.244 340.462 316.508 342.174 321.649C343.443 325.462 344.69 329.207 348.231 329.104C350.763 328.983 352.812 326.693 352.812 324.041C352.691 311.141 323.4 290.768 315.083 285.222C313.636 284.258 311.949 284.137 310.502 284.861C307.382 286.181 301.754 288.815 296.07 292.614C295.416 292.905 294.773 293.149 294.131 293.356L294.35 292.701L296.962 285.61C306.157 283.888 314.137 279.933 315.327 271.6L315.689 269.43L321.428 244.93C323.011 244.662 324.719 244.268 326.297 243.873C330.226 242.891 331.753 221.897 332.184 214.157C365.436 233.835 392.68 225.102 400.184 221.931ZM308.632 874.82C310.664 877.612 313.036 879.194 313.036 879.194L323.175 880.754C332.72 819.413 342.885 744.914 313.036 705.595C307.751 698.634 302.824 690.999 298.248 682.876L302.187 695.951C302.187 695.951 297.366 720.062 297.366 724.884C297.366 726.737 299.324 730.549 302.077 735.908C306.489 744.495 312.941 757.055 316.652 771.9C319.771 784.375 318.371 804.918 315.627 823.344C313.098 840.53 309.388 855.836 307.009 861.112C306.708 861.789 306.468 862.453 306.282 863.102C304.888 867.981 306.589 872.013 308.632 874.82Z"/>
</mask>
<path d="M404.524 221.328L405.188 213.356L405.208 213.358L405.227 213.359L404.524 221.328ZM400.184 221.931L403.495 229.214L403.397 229.258L403.298 229.3L400.184 221.931ZM417.422 216.265L409.429 215.925L409.432 215.846L409.437 215.766L417.422 216.265ZM414.408 211.684L417.738 204.41L417.765 204.422L417.791 204.435L414.408 211.684ZM381.742 173.951L374.644 177.642L374.12 176.634L373.897 175.519L381.742 173.951ZM268.434 8.79107L268.563 16.79L268.434 8.79107ZM167.455 61.2204L173.903 65.9558L169.242 72.3025L162.822 67.7425L167.455 61.2204ZM167.303 61.1123L160.671 56.6387L165.254 49.844L171.936 54.5902L167.303 61.1123ZM164.052 65.9321L170.684 70.4058L170.629 70.4882L170.571 70.5692L164.052 65.9321ZM146.041 92.4421L152.7 96.8751L152.679 96.9062L152.658 96.9372L146.041 92.4421ZM146.04 92.4433L139.38 88.0104L139.401 87.9792L139.422 87.9483L146.04 92.4433ZM133.428 111.262L140.048 115.754V115.754L133.428 111.262ZM85.7089 156.066L85.3279 148.075L85.7089 156.066ZM75.5689 163.101L68.5961 159.179V159.179L75.5689 163.101ZM162.237 182.028L165.336 189.403L164.891 189.59L164.427 189.722L162.237 182.028ZM162.967 181.722L159.881 174.341L159.885 174.34L162.967 181.722ZM163.406 181.539L160.324 174.156L170.173 170.044L171.357 180.651L163.406 181.539ZM163.427 181.727L171.378 180.84L172.026 186.648L166.69 189.032L163.427 181.727ZM163.564 187.212L164.447 179.261L164.447 179.261L163.564 187.212ZM163.916 187.252L162.992 195.198L162.991 195.198L163.916 187.252ZM164.25 187.292L165.213 179.35L171.105 180.065L172.129 185.911L164.25 187.292ZM167.24 201.607L175.045 199.854L175.071 199.97L175.094 200.087L167.24 201.607ZM167.24 201.608L159.435 203.362L159.408 203.246L159.386 203.129L167.24 201.608ZM169.594 212.649L161.731 214.123L161.729 214.115L169.594 212.649ZM173.117 228.849L165.424 231.047L165.375 230.874L165.333 230.698L173.117 228.849ZM173.117 228.849L180.809 226.652L180.858 226.825L180.9 227L173.117 228.849ZM202.622 275.037L203.492 267.085L208.805 267.666L210.302 272.797L202.622 275.037ZM204.283 280.686L211.954 278.415L219.163 302.761L199.3 286.944L204.283 280.686ZM196.111 277.629L200.129 284.547L200.117 284.554L200.105 284.561L196.111 277.629ZM195.257 278.121L191.262 271.19L191.263 271.19L195.257 278.121ZM154.163 298.123L154.994 306.08L154.977 306.082L154.959 306.083L154.163 298.123ZM151.029 299.69L145.304 294.102L145.338 294.068L145.372 294.034L151.029 299.69ZM161.488 307.77L161.606 299.771L171.156 299.912L169.342 309.289L161.488 307.77ZM161.154 310.177L169.139 310.676L169.074 311.72L168.742 312.712L161.154 310.177ZM113.83 354.126L116.743 361.576H116.743L113.83 354.126ZM92.4463 368.043L99.6959 371.426L98.9832 372.953L97.7147 374.063L92.4463 368.043ZM110.527 504.269L103.297 507.694L103.205 507.498L103.123 507.298L110.527 504.269ZM115.35 527.779L123.339 527.354L123.35 527.566V527.779H115.35ZM115.35 530.046H123.35V531.769L122.64 533.339L115.35 530.046ZM104.503 559.724L112.422 560.855L104.503 559.724ZM87.009 592.962L93.7061 597.338L87.009 592.962ZM80.3946 610.357L86.923 614.981L85.6734 616.745L83.7053 617.64L80.3946 610.357ZM109.045 580.838L104.254 574.431L116.329 584.147L109.045 580.838ZM96.1839 609.152L88.7627 606.164L88.8279 606.002L88.9001 605.843L96.1839 609.152ZM97.7509 637.723L104.767 633.879L104.784 633.91L104.8 633.941L97.7509 637.723ZM103.296 658.579L111.285 658.159L103.296 658.579ZM106.121 683.802L98.2051 684.956L106.121 683.802ZM106.912 709.212L114.265 712.363L114.265 712.363L106.912 709.212ZM106.392 710.42L99.0484 707.246L99.0486 707.245L106.392 710.42ZM105.679 712.065L98.3336 708.896L98.3365 708.889L98.3394 708.883L105.679 712.065ZM105.669 712.088L113.015 715.257L113.003 715.285L112.991 715.313L105.669 712.088ZM105.666 712.096L98.3261 708.913L98.3354 708.892L98.3447 708.871L105.666 712.096ZM87.2328 771.822L79.4716 769.881L79.4973 769.779L79.5256 769.677L87.2328 771.822ZM87.2324 771.823L94.9936 773.763L94.9679 773.866L94.9396 773.968L87.2324 771.823ZM80.416 797.339L88.1821 799.259L86.5308 805.938L79.6807 805.305L80.416 797.339ZM80.3922 797.337L72.6207 795.439L74.2577 788.737L81.1276 789.371L80.3922 797.337ZM77.7744 808.66L85.5936 810.351L85.5914 810.361L77.7744 808.66ZM73.2327 839.59L81.2261 839.914L81.226 839.917L73.2327 839.59ZM73.1598 843.027H81.1598V844.325L80.7494 845.557L73.1598 843.027ZM23.5078 882.087L20.9955 874.491H20.9955L23.5078 882.087ZM8.06799 891.249L0.116913 892.132V892.132L8.06799 891.249ZM9.34103 894.577L15.933 890.044L15.9334 890.045L9.34103 894.577ZM25.8486 901.496L26.5518 893.527L25.8486 901.496ZM63.5168 893.661L60.0649 886.444L69.1428 882.102L71.3262 891.925L63.5168 893.661ZM65.2185 897.545L71.7649 892.947L71.7652 892.947L65.2185 897.545ZM76.0235 903.154L76.9476 895.207H76.9477L76.0235 903.154ZM98.4742 897.277L104.944 901.982L104.014 903.261L102.667 904.09L98.4742 897.277ZM103.164 881.523L95.1913 880.857V880.857L103.164 881.523ZM117.761 851.466L112.267 845.65L117.761 851.466ZM128.99 838.079L135.697 842.441L135.697 842.441L128.99 838.079ZM130.493 835.662L123.613 831.579L123.615 831.577L130.493 835.662ZM140.421 802.882L141.154 794.916L148.98 795.636L148.4 803.473L140.421 802.882ZM140.4 802.88L139.668 810.847L131.858 810.129L132.421 802.307L140.4 802.88ZM149.101 744.173L142.108 740.288L142.123 740.26L142.139 740.232L149.101 744.173ZM149.572 743.334L142.59 739.429L142.59 739.429L149.572 743.334ZM150.7 741.312L143.712 737.417L143.716 737.41L143.72 737.403L150.7 741.312ZM150.708 741.298L157.783 745.032L157.737 745.12L157.688 745.207L150.708 741.298ZM150.709 741.297L157.864 744.874L157.825 744.953L157.784 745.031L150.709 741.297ZM150.709 741.295L143.554 737.718L143.669 737.487L143.799 737.264L150.709 741.295ZM150.71 741.294L157.698 745.19L157.66 745.258L157.62 745.325L150.71 741.294ZM204.55 657.374L197.394 660.951L204.55 657.374ZM210.887 671.476L203.565 674.699L210.887 671.476ZM233.479 718.856L240.136 714.419H240.136L233.479 718.856ZM236.998 724.088L230.378 728.58L230.373 728.572L230.367 728.563L236.998 724.088ZM237.002 724.093L230.409 728.625L230.395 728.605L230.382 728.585L237.002 724.093ZM237.003 724.095L243.595 719.562L243.618 719.596L243.641 719.631L237.003 724.095ZM237.013 724.111L230.459 728.698L230.416 728.637L230.374 728.575L237.013 724.111ZM237.014 724.112L243.568 719.524L243.607 719.58L243.645 719.636L237.014 724.112ZM258.793 761.05L251.203 758.521L251.203 758.521L258.793 761.05ZM258.534 761.781L251.017 759.045L251.017 759.044L258.534 761.781ZM258.347 762.293L265.859 765.045L265.857 765.051L258.347 762.293ZM258.345 762.299L250.833 759.547L250.835 759.541L258.345 762.299ZM253.97 818.911L261.559 816.383L261.59 816.476L261.619 816.57L253.97 818.911ZM253.971 818.917L246.382 821.447L246.351 821.354L246.322 821.259L253.971 818.917ZM256.909 828.591L264.62 826.46H264.62L256.909 828.591ZM264.82 886.427L272.78 887.223L272.78 887.224L264.82 886.427ZM264.762 887.01L272.722 887.807L272.722 887.808L264.762 887.01ZM264.543 889.209L272.505 889.987V889.987L264.543 889.209ZM265.503 907.212L272.19 902.821L272.191 902.822L265.503 907.212ZM275.11 910.264L277.114 902.519L277.114 902.519L275.11 910.264ZM282.756 907.438L274.909 905.881L274.909 905.88L282.756 907.438ZM282.901 900.895L274.925 901.508L272.818 874.115L289.301 896.095L282.901 900.895ZM318.711 909.635L317.334 901.754L328.248 899.848L326.625 910.807L318.711 909.635ZM316.652 970.815L309.191 973.703L309.176 973.663L309.161 973.624L316.652 970.815ZM315.08 1017.07L322.722 1019.44L315.08 1017.07ZM320.268 1046.76L322.101 1054.55L319.107 1055.26L316.412 1053.77L320.268 1046.76ZM426.777 1049.96L429.931 1042.61H429.931L426.777 1049.96ZM438.398 1054L439.614 1046.09H439.614L438.398 1054ZM450.294 1048.69L457.863 1051.28H457.863L450.294 1048.69ZM457.684 1034.71L451.343 1029.83H451.343L457.684 1034.71ZM462.506 871.96L469.516 868.105H469.516L462.506 871.96ZM419.254 728.764L411.392 730.245V730.245L419.254 728.764ZM416.7 715.24L408.84 716.73L408.669 715.826L408.707 714.907L416.7 715.24ZM390.182 600.713L396.892 596.358L397.118 596.706L397.307 597.075L390.182 600.713ZM359.854 546.719L352.632 550.161L347.683 539.778L359.139 538.751L359.854 546.719ZM399.222 537.543L396.011 530.216L396.628 529.945L397.282 529.782L399.222 537.543ZM400.427 536.94L395.99 530.284L396.015 530.267L396.04 530.25L400.427 536.94ZM417.291 435.014L424.961 432.737L424.961 432.737L417.291 435.014ZM416.7 433.022L409.03 435.294L409.028 435.287L416.7 433.022ZM374.511 343.45L379.551 337.237L379.565 337.249L379.58 337.26L374.511 343.45ZM309.257 332.156L309.419 340.155L292.485 340.497L302.977 327.201L309.257 332.156ZM331.235 315.12L334.918 322.222L334.908 322.227L331.235 315.12ZM342.174 321.649L334.583 324.176L342.174 321.649ZM348.231 329.104L348.612 337.095L348.538 337.099L348.463 337.101L348.231 329.104ZM352.812 324.041L360.812 323.966L360.812 324.003V324.041H352.812ZM315.083 285.222L310.645 291.878L310.645 291.878L315.083 285.222ZM310.502 284.861L314.08 292.016L313.853 292.129L313.62 292.228L310.502 284.861ZM296.07 292.614L300.515 299.265L299.947 299.645L299.322 299.923L296.07 292.614ZM294.131 293.356L296.588 300.97L281.543 305.825L286.542 290.827L294.131 293.356ZM294.35 292.701L286.76 290.171L286.8 290.053L286.843 289.935L294.35 292.701ZM296.962 285.61L289.455 282.845L291.025 278.583L295.489 277.747L296.962 285.61ZM315.327 271.6L307.407 270.468L307.421 270.376L307.436 270.285L315.327 271.6ZM315.689 269.43L307.798 268.115L307.84 267.858L307.9 267.605L315.689 269.43ZM321.428 244.93L313.639 243.105L314.852 237.929L320.094 237.042L321.428 244.93ZM326.297 243.873L328.237 251.634H328.237L326.297 243.873ZM332.184 214.157L324.197 213.712L324.929 200.567L336.259 207.272L332.184 214.157ZM313.036 879.194L311.819 887.101L310.071 886.832L308.598 885.85L313.036 879.194ZM308.632 874.82L315.1 870.112L315.1 870.112L308.632 874.82ZM323.175 880.754L331.08 881.984L329.852 889.875L321.958 888.661L323.175 880.754ZM313.036 705.595L319.407 700.758H319.407L313.036 705.595ZM298.248 682.876L290.588 685.185L305.217 678.949L298.248 682.876ZM302.187 695.951L309.847 693.643L310.424 695.558L310.032 697.52L302.187 695.951ZM302.077 735.908L309.193 732.252V732.252L302.077 735.908ZM316.652 771.9L308.891 773.84L316.652 771.9ZM315.627 823.344L307.712 822.179L307.713 822.172L307.714 822.165L315.627 823.344ZM307.009 861.112L299.699 857.863L299.707 857.843L299.716 857.823L307.009 861.112ZM306.282 863.102L298.59 860.904L298.59 860.904L306.282 863.102ZM403.859 229.301C403.725 229.29 403.605 229.286 403.503 229.287C403.4 229.288 403.327 229.294 403.281 229.299C403.236 229.305 403.232 229.308 403.265 229.3C403.298 229.291 403.379 229.267 403.495 229.214L396.874 214.648C399.896 213.274 402.98 213.172 405.188 213.356L403.859 229.301ZM425.414 216.605C425.256 220.32 423.606 223.422 421.075 225.582C418.801 227.523 416.178 228.412 414.173 228.863C410.205 229.754 405.988 229.489 403.821 229.297L405.227 213.359C406.099 213.436 407.12 213.498 408.147 213.487C409.206 213.476 410.062 213.387 410.665 213.252C411.343 213.1 411.16 213.009 410.687 213.413C410.404 213.655 410.063 214.038 409.798 214.572C409.531 215.112 409.443 215.601 409.429 215.925L425.414 216.605ZM417.791 204.435C421.839 206.324 425.778 210.805 425.406 216.764L409.437 215.766C409.371 216.824 409.718 217.618 410.02 218.062C410.311 218.491 410.66 218.763 411.025 218.933L417.791 204.435ZM381.742 173.951C388.839 170.259 388.838 170.258 388.838 170.257C388.838 170.257 388.837 170.256 388.837 170.256C388.837 170.255 388.837 170.255 388.837 170.255C388.837 170.255 388.838 170.258 388.84 170.262C388.844 170.27 388.852 170.284 388.864 170.306C388.887 170.35 388.924 170.421 388.976 170.517C389.079 170.71 389.238 171.006 389.451 171.391C389.876 172.163 390.511 173.293 391.33 174.681C392.971 177.464 395.324 181.243 398.17 185.235C404.145 193.616 411.268 201.448 417.738 204.41L411.078 218.958C400.431 214.084 391.221 203.049 385.142 194.523C381.961 190.061 379.357 185.876 377.548 182.808C376.641 181.271 375.928 180.003 375.435 179.11C375.189 178.662 374.998 178.308 374.865 178.059C374.799 177.935 374.747 177.837 374.71 177.767C374.691 177.732 374.676 177.704 374.666 177.683C374.66 177.672 374.656 177.664 374.652 177.657C374.65 177.654 374.649 177.651 374.647 177.648C374.647 177.647 374.646 177.645 374.646 177.645C374.645 177.643 374.644 177.642 381.742 173.951ZM268.305 0.792107C310.127 0.11748 337.318 28.076 355.231 62.3487C373.141 96.6148 382.955 139.22 389.586 172.382L373.897 175.519C367.269 142.376 357.797 101.799 341.051 69.7601C324.309 37.7279 301.476 16.2591 268.563 16.79L268.305 0.792107ZM161.007 56.485C173.836 39.0174 186.593 25.0618 203.505 15.5199C220.48 5.9425 240.869 1.23467 268.305 0.792107L268.563 16.79C242.83 17.2051 225.303 21.592 211.367 29.4549C197.368 37.3532 186.221 49.1835 173.903 65.9558L161.007 56.485ZM171.936 54.5902L172.088 54.6983L162.822 67.7425L162.67 67.6344L171.936 54.5902ZM157.42 61.4585L160.671 56.6387L173.935 65.5859L170.684 70.4058L157.42 61.4585ZM139.381 88.0092C145.811 78.3498 151.764 69.4054 157.533 61.2951L170.571 70.5692C164.973 78.4387 159.164 87.1644 152.7 96.8751L139.381 88.0092ZM139.422 87.9483L139.423 87.9471L152.658 96.9372L152.658 96.9384L139.422 87.9483ZM126.808 106.771C131.26 100.21 135.416 93.9653 139.38 88.0104L152.699 96.8762C148.74 102.825 144.546 109.126 140.048 115.754L126.808 106.771ZM85.3279 148.075C87.0094 147.995 88.0988 147.923 89.5024 147.479C90.9174 147.031 93.0442 146.062 96.1115 143.692C102.426 138.81 112.043 128.533 126.808 106.771L140.048 115.754C124.994 137.942 114.241 149.901 105.897 156.351C101.634 159.645 97.8589 161.616 94.3314 162.733C90.7925 163.853 87.8992 163.971 86.0898 164.057L85.3279 148.075ZM68.5961 159.179C70.7809 155.294 73.2737 152.096 76.7389 150.15C80.2224 148.195 83.7018 148.153 85.3279 148.075L86.0898 164.057C83.9735 164.158 84.2758 164.268 84.5715 164.102C84.8488 163.946 84.1428 164.176 82.5417 167.022L68.5961 159.179ZM164.427 189.722C143.312 195.73 126.254 198.846 112.653 199.734C99.15 200.616 88.5135 199.339 80.6099 196.041C72.4717 192.646 66.9564 186.929 65.0925 179.454C63.3145 172.323 65.2506 165.127 68.5961 159.179L82.5417 167.022C80.4629 170.719 80.1389 173.664 80.6172 175.583C81.0096 177.157 82.2672 179.396 86.7706 181.275C91.5088 183.252 99.3828 184.567 111.611 183.768C123.742 182.976 139.637 180.14 160.048 174.333L164.427 189.722ZM166.052 189.103C165.814 189.203 165.575 189.303 165.336 189.403L159.139 174.652C159.387 174.548 159.634 174.444 159.881 174.341L166.052 189.103ZM166.488 188.921L166.049 189.105L159.885 174.34L160.324 174.156L166.488 188.921ZM155.477 182.614L155.456 182.426L171.357 180.651L171.378 180.84L155.477 182.614ZM162.68 195.163C160.542 194.925 157.916 194.469 155.711 193.213C154.529 192.54 152.778 191.248 151.72 188.956C150.545 186.412 150.783 183.869 151.525 181.962C152.689 178.974 155.16 177.258 156.068 176.643C157.39 175.75 158.859 175.005 160.165 174.422L166.69 189.032C165.851 189.406 165.296 189.718 165.029 189.899C164.898 189.988 164.989 189.942 165.191 189.742C165.338 189.595 165.976 188.945 166.435 187.767C166.978 186.373 167.204 184.325 166.246 182.25C165.404 180.426 164.097 179.576 163.627 179.309C162.844 178.863 162.71 179.068 164.447 179.261L162.68 195.163ZM162.991 195.198C162.887 195.186 162.783 195.174 162.68 195.163L164.447 179.261C164.58 179.276 164.711 179.291 164.842 179.306L162.991 195.198ZM163.286 195.233C163.188 195.222 163.09 195.21 162.992 195.198L164.841 179.306C164.965 179.32 165.089 179.335 165.213 179.35L163.286 195.233ZM159.434 203.36C158.372 198.632 157.209 193.463 156.37 188.673L172.129 185.911C172.891 190.258 173.964 195.041 175.045 199.854L159.434 203.36ZM159.386 203.129L159.386 203.127L175.094 200.087L175.094 200.088L159.386 203.129ZM161.729 214.115C161.144 210.977 160.327 207.336 159.435 203.362L175.046 199.855C175.92 203.749 176.808 207.698 177.458 211.182L161.729 214.115ZM165.333 230.698C164.25 226.139 162.99 220.839 161.731 214.123L177.457 211.174C178.639 217.48 179.82 222.455 180.9 227L165.333 230.698ZM165.424 231.047L165.424 231.047L180.809 226.651L180.809 226.652L165.424 231.047ZM168.826 254.843C168.826 245.468 167.442 239.573 165.333 230.699L180.9 227C183.036 235.992 184.826 243.454 184.826 254.843H168.826ZM201.753 282.99C194.84 282.234 186.846 280.736 180.445 276.691C173.389 272.232 168.826 265.02 168.826 254.843H184.826C184.826 259.427 186.487 261.582 188.992 263.165C192.152 265.162 197.056 266.381 203.492 267.085L201.753 282.99ZM196.612 282.957C195.98 280.824 195.418 278.908 194.943 277.278L210.302 272.797C210.772 274.408 211.328 276.303 211.954 278.415L196.612 282.957ZM192.094 270.711C196.131 268.366 200.24 269.388 202.527 270.297C204.974 271.269 207.281 272.847 209.266 274.428L199.3 286.944C198.605 286.391 198.014 285.97 197.527 285.663C197.029 285.348 196.732 285.211 196.62 285.167C196.488 285.114 196.764 285.25 197.354 285.272C198.013 285.298 199.049 285.174 200.129 284.547L192.094 270.711ZM191.263 271.19L192.117 270.697L200.105 284.561L199.251 285.053L191.263 271.19ZM153.332 290.167C153.939 290.103 155.921 289.547 159.481 288.017C162.753 286.612 166.624 284.713 170.642 282.623C178.665 278.45 186.847 273.735 191.262 271.19L199.252 285.052C194.857 287.585 186.396 292.464 178.026 296.818C173.848 298.991 169.585 301.091 165.797 302.718C162.296 304.222 158.291 305.735 154.994 306.08L153.332 290.167ZM145.372 294.034C147.25 292.156 149.974 290.502 153.367 290.163L154.959 306.083C155.941 305.985 156.496 305.537 156.686 305.347L145.372 294.034ZM161.154 315.768C157.862 315.768 154.869 315.566 152.296 315.076C149.922 314.625 146.949 313.759 144.558 311.741C143.254 310.64 142.024 309.108 141.325 307.095C140.621 305.066 140.636 303.066 141.027 301.33C141.738 298.172 143.712 295.734 145.304 294.102L156.754 305.278C156.583 305.453 156.462 305.591 156.379 305.692C156.296 305.793 156.264 305.842 156.266 305.839C156.268 305.836 156.319 305.757 156.389 305.604C156.458 305.45 156.557 305.195 156.635 304.847C156.802 304.106 156.85 303.029 156.44 301.847C156.035 300.682 155.362 299.922 154.879 299.515C154.13 298.882 153.861 299.087 155.288 299.359C156.516 299.592 158.42 299.768 161.154 299.768V315.768ZM161.37 315.769C161.295 315.768 161.224 315.768 161.154 315.768V299.768C161.306 299.768 161.457 299.769 161.606 299.771L161.37 315.769ZM161.154 310.177C153.17 309.678 153.17 309.677 153.17 309.677C153.17 309.676 153.17 309.676 153.17 309.675C153.17 309.674 153.17 309.673 153.17 309.672C153.17 309.67 153.171 309.668 153.171 309.666C153.171 309.662 153.171 309.657 153.172 309.652C153.172 309.643 153.173 309.632 153.174 309.62C153.175 309.597 153.177 309.57 153.18 309.538C153.184 309.475 153.19 309.397 153.199 309.304C153.215 309.117 153.239 308.871 153.273 308.575C153.341 307.988 153.453 307.183 153.633 306.251L169.342 309.289C169.252 309.755 169.197 310.153 169.166 310.42C169.151 310.551 169.142 310.644 169.138 310.691C169.136 310.714 169.135 310.725 169.136 310.723C169.136 310.722 169.136 310.718 169.137 310.71C169.137 310.706 169.137 310.701 169.138 310.696C169.138 310.693 169.138 310.69 169.138 310.686C169.138 310.685 169.138 310.683 169.138 310.681C169.138 310.68 169.139 310.679 169.139 310.679C169.139 310.678 169.139 310.677 169.139 310.677C169.139 310.676 169.139 310.676 161.154 310.177ZM110.917 346.675C127.228 340.298 145.028 333.195 153.567 307.641L168.742 312.712C157.72 345.698 133.419 355.056 116.743 361.576L110.917 346.675ZM85.1967 364.66C87.7515 359.185 92.1666 355.629 96.5978 353.066C100.939 350.556 106.114 348.553 110.917 346.675L116.743 361.576C111.614 363.582 107.683 365.139 104.608 366.917C101.623 368.643 100.312 370.104 99.6959 371.426L85.1967 364.66ZM103.123 507.298C91.9283 479.93 84.8593 447.233 81.7859 420.337C80.2482 406.881 79.6813 394.627 80.1621 385.029C80.4014 380.252 80.9113 375.886 81.7895 372.26C82.5678 369.047 83.987 364.815 87.1779 362.023L97.7147 374.063C98.4948 373.381 97.9929 373.331 97.3398 376.027C96.7866 378.311 96.3547 381.584 96.1421 385.829C95.7188 394.277 96.2066 405.606 97.6824 418.521C100.636 444.368 107.429 475.564 117.932 501.241L103.123 507.298ZM107.361 528.204C106.916 519.837 105.645 512.651 103.297 507.694L117.757 500.845C121.452 508.645 122.858 518.33 123.339 527.354L107.361 528.204ZM107.35 530.046V527.779H123.35V530.046H107.35ZM96.5831 558.593C97.0757 555.144 98.5068 550.457 100.386 545.305C102.324 539.993 104.934 533.67 108.059 526.752L122.64 533.339C119.633 539.996 117.186 545.942 115.417 550.789C113.59 555.797 112.664 559.162 112.422 560.855L96.5831 558.593ZM80.312 588.586C83.9978 582.945 87.9248 576.929 91.0844 571.322C94.3989 565.441 96.226 561.093 96.5831 558.593L112.422 560.855C111.598 566.629 108.333 573.305 105.023 579.178C101.559 585.325 97.3301 591.791 93.7061 597.338L80.312 588.586ZM83.7053 617.64C82.6036 618.141 80.8828 618.83 78.9283 618.953C76.7214 619.092 72.5079 618.435 70.3607 614.167C68.8456 611.156 69.5246 608.245 69.7471 607.347C70.0735 606.03 70.6006 604.778 71.082 603.759C72.9283 599.849 76.678 594.147 80.312 588.586L93.7061 597.338C89.7377 603.411 86.8002 607.943 85.5499 610.591C85.2572 611.211 85.2346 611.368 85.2774 611.195C85.3013 611.099 85.397 610.697 85.4018 610.091C85.4064 609.508 85.3309 608.322 84.6537 606.976C82.7971 603.286 79.1823 602.906 77.924 602.985C76.9181 603.048 76.4955 603.342 77.0838 603.074L83.7053 617.64ZM113.836 587.245C104.362 594.329 95.1408 603.378 86.923 614.981L73.8661 605.733C83.0983 592.698 93.5126 582.463 104.254 574.431L113.836 587.245ZM88.9001 605.843L101.761 577.53L116.329 584.147L103.468 612.46L88.9001 605.843ZM90.7349 641.567C84.7234 630.595 84.1614 617.595 88.7627 606.164L103.605 612.139C100.733 619.275 101.135 627.251 104.767 633.879L90.7349 641.567ZM95.3069 659C94.8911 651.1 92.839 645.49 90.7015 641.506L104.8 633.941C107.967 639.842 110.736 647.734 111.285 658.159L95.3069 659ZM98.2051 684.956C97.113 677.464 95.8098 668.556 95.3069 659L111.285 658.159C111.743 666.874 112.936 675.087 114.038 682.648L98.2051 684.956ZM99.5587 706.061C99.8626 705.352 100.217 703.447 99.9669 699.346C99.729 695.452 99.0475 690.735 98.2051 684.956L114.038 682.648C114.849 688.212 115.65 693.664 115.937 698.371C116.212 702.871 116.135 707.999 114.265 712.363L99.5587 706.061ZM99.0486 707.245C99.2332 706.818 99.4035 706.423 99.5588 706.061L114.265 712.363C114.101 712.747 113.923 713.159 113.735 713.594L99.0486 707.245ZM98.3394 708.883C98.593 708.298 98.8297 707.752 99.0484 707.246L113.735 713.594C113.512 714.11 113.272 714.664 113.019 715.248L98.3394 708.883ZM98.3239 708.919L98.3336 708.896L113.025 715.234L113.015 715.257L98.3239 708.919ZM98.3447 708.871L98.3481 708.863L112.991 715.313L112.987 715.32L98.3447 708.871ZM84.4471 750.201C84.4471 747.11 85.278 743.499 86.2042 740.257C87.1858 736.821 88.5112 733.016 89.9283 729.258C92.7642 721.738 96.1452 713.943 98.3261 708.913L113.006 715.278C110.806 720.352 107.577 727.802 104.899 734.904C103.559 738.457 102.401 741.808 101.589 744.652C100.721 747.689 100.447 749.483 100.447 750.201H84.4471ZM79.5256 769.677C81.0175 764.316 82.2896 759.742 83.1925 756.149C83.6435 754.354 83.9776 752.901 84.1948 751.778C84.436 750.531 84.4471 750.113 84.4471 750.201H100.447C100.447 752.829 99.5765 756.6 98.7102 760.048C97.7469 763.881 96.4118 768.677 94.9399 773.966L79.5256 769.677ZM79.4715 769.882L79.4716 769.881L94.9939 773.762L94.9937 773.763L79.4715 769.882ZM79.4713 769.883L79.4715 769.882L94.9937 773.763L94.9936 773.763L79.4713 769.883ZM72.6499 795.419C74.9478 786.126 77.4317 777.201 79.5253 769.678L94.9396 773.968C92.8395 781.514 90.4162 790.225 88.1821 799.259L72.6499 795.419ZM81.1276 789.371L81.1514 789.373L79.6807 805.305L79.6569 805.303L81.1276 789.371ZM69.9553 806.968C70.7933 803.094 71.6953 799.227 72.6207 795.439L88.1638 799.235C87.2645 802.917 86.3957 806.643 85.5936 810.351L69.9553 806.968ZM65.2392 839.267C65.6418 829.32 67.5563 817.989 69.9575 806.958L85.5914 810.361C83.2662 821.043 81.5736 831.329 81.2261 839.914L65.2392 839.267ZM65.1598 843.027C65.1598 841.791 65.1873 840.535 65.2393 839.263L81.226 839.917C81.1821 840.99 81.1598 842.027 81.1598 843.027H65.1598ZM20.9955 874.491C38.0167 868.861 58.5281 861.626 65.5703 840.497L80.7494 845.557C70.8327 875.31 41.8498 884.446 26.0201 889.682L20.9955 874.491ZM0.116913 892.132C-0.287628 888.491 1.10632 885.461 2.97842 883.325C4.65118 881.416 6.75568 880.13 8.49191 879.236C11.9361 877.464 16.6149 875.94 20.9955 874.491L26.0201 889.682C21.1412 891.296 17.8829 892.398 15.8134 893.463C14.7928 893.988 14.7463 894.173 15.0116 893.87C15.4763 893.34 16.2063 892.051 16.0191 890.365L0.116913 892.132ZM2.74908 899.11C1.36359 897.095 0.406891 894.742 0.116913 892.132L16.0191 890.365C16.0079 890.265 15.9836 890.173 15.9562 890.102C15.9297 890.033 15.9121 890.014 15.933 890.044L2.74908 899.11ZM25.1453 909.465C20.5218 909.057 16.1794 908.096 12.4348 906.52C8.75854 904.973 5.15985 902.616 2.74866 899.109L15.9334 890.045C16.0433 890.204 16.6959 890.954 18.6418 891.773C20.5196 892.564 23.1704 893.229 26.5518 893.527L25.1453 909.465ZM66.9687 900.878C51.9436 908.064 36.955 910.508 25.1453 909.465L26.5518 893.527C35.2336 894.293 47.3661 892.518 60.0649 886.444L66.9687 900.878ZM58.6721 902.143C57.2621 900.136 56.2559 897.864 55.7074 895.396L71.3262 891.925C71.4214 892.353 71.575 892.676 71.7649 892.947L58.6721 902.143ZM75.0995 911.1C68.8574 910.375 62.5688 907.692 58.6718 902.143L71.7652 892.947C72.2614 893.654 73.6906 894.829 76.9476 895.207L75.0995 911.1ZM102.667 904.09C93.5842 909.68 83.6664 912.097 75.0994 911.1L76.9477 895.207C81.3387 895.718 87.6939 894.518 94.281 890.464L102.667 904.09ZM111.136 882.189C110.686 887.578 110.211 894.74 104.944 901.982L92.004 892.572C94.3604 889.331 94.7293 886.388 95.1913 880.857L111.136 882.189ZM123.254 857.282C117.393 862.818 114.673 867.288 113.255 870.92C111.804 874.634 111.487 877.98 111.136 882.189L95.1913 880.857C95.5375 876.712 95.9583 871.226 98.3513 865.099C100.776 858.89 105.006 852.509 112.267 845.65L123.254 857.282ZM135.697 842.441C132.412 847.491 128.325 852.493 123.254 857.282L112.267 845.65C116.406 841.741 119.682 837.718 122.284 833.717L135.697 842.441ZM137.372 839.746C136.839 840.644 136.281 841.543 135.697 842.441L122.284 833.718C122.748 833.004 123.191 832.291 123.613 831.579L137.372 839.746ZM148.4 803.473C147.676 813.236 145.304 826.393 137.371 839.748L123.615 831.577C129.872 821.043 131.832 810.539 132.443 802.292L148.4 803.473ZM141.133 794.914L141.154 794.916L139.689 810.849L139.668 810.847L141.133 794.914ZM148.663 794.806C148.663 797.201 148.618 800.136 148.38 803.454L132.421 802.307C132.621 799.514 132.663 796.994 132.663 794.806H148.663ZM156.095 748.058C153.887 752.032 151.908 760.3 150.547 770.134C149.237 779.596 148.663 789.174 148.663 794.806H132.663C132.663 788.381 133.296 778.068 134.698 767.94C136.048 758.185 138.288 747.164 142.108 740.288L156.095 748.058ZM156.555 747.238C156.354 747.597 156.188 747.893 156.063 748.113L142.139 740.232C142.242 740.05 142.392 739.784 142.59 739.429L156.555 747.238ZM157.688 745.208C157.23 746.028 156.849 746.712 156.555 747.238L142.59 739.429C142.877 738.915 143.253 738.241 143.712 737.417L157.688 745.208ZM157.688 745.207L157.68 745.222L143.72 737.403L143.729 737.388L157.688 745.207ZM157.784 745.031L157.783 745.032L143.633 737.564L143.634 737.563L157.784 745.031ZM157.865 744.873L157.864 744.874L143.553 737.719L143.554 737.718L157.865 744.873ZM157.62 745.325L157.62 745.326L143.799 737.264L143.8 737.263L157.62 745.325ZM197.394 660.951C198.026 662.214 199.387 663.88 201.742 664.616C203.859 665.278 205.571 664.797 206.264 664.541C207.444 664.106 207.835 663.54 207.22 664.134C206.309 665.016 204.739 666.92 202.533 670C198.246 675.989 192.621 684.907 186.694 694.75C174.883 714.364 162.318 736.902 157.698 745.19L143.723 737.399C148.333 729.129 161.02 706.37 172.987 686.496C178.95 676.595 184.846 667.22 189.524 660.686C191.801 657.506 194.074 654.591 196.095 652.636C196.946 651.812 198.574 650.323 200.73 649.529C201.911 649.093 204.044 648.573 206.515 649.345C209.222 650.191 210.865 652.116 211.705 653.796L197.394 660.951ZM203.565 674.699C200.565 667.887 198.349 662.86 197.394 660.951L211.705 653.796C212.887 656.16 215.329 661.714 218.208 668.252L203.565 674.699ZM226.823 723.294C223.87 718.865 219.72 710.41 215.647 701.642C211.472 692.658 207.065 682.649 203.565 674.699L218.208 668.252C221.721 676.229 226.062 686.088 230.157 694.901C234.352 703.931 237.992 711.203 240.136 714.419L226.823 723.294ZM230.367 728.563C229.031 726.584 227.817 724.785 226.823 723.294L240.136 714.419C241.1 715.865 242.285 717.621 243.629 719.613L230.367 728.563ZM230.382 728.585L230.378 728.58L243.618 719.596L243.621 719.601L230.382 728.585ZM230.41 728.627L230.409 728.625L243.594 719.561L243.595 719.562L230.41 728.627ZM230.374 728.575L230.364 728.559L243.641 719.631L243.652 719.647L230.374 728.575ZM230.46 728.699L230.459 728.698L243.567 719.523L243.568 719.524L230.46 728.699ZM251.203 758.521C250.684 760.078 250.878 761.28 250.902 761.444C250.949 761.76 251.001 761.862 250.934 761.664C250.803 761.278 250.488 760.528 249.894 759.354C248.73 757.052 246.924 753.957 244.707 750.385C240.298 743.281 234.683 734.959 230.383 728.587L243.645 719.636C247.906 725.949 253.701 734.535 258.302 741.947C260.59 745.634 262.688 749.2 264.172 752.134C264.903 753.579 265.598 755.091 266.08 756.508C266.32 757.212 266.58 758.101 266.726 759.076C266.849 759.898 267.032 761.632 266.382 763.58L251.203 758.521ZM251.017 759.044C251.129 758.735 251.182 758.586 251.203 758.521L266.383 763.579C266.283 763.878 266.161 764.218 266.051 764.519L251.017 759.044ZM250.835 759.541C250.903 759.354 250.963 759.191 251.017 759.045L266.051 764.518C265.991 764.682 265.926 764.86 265.859 765.045L250.835 759.541ZM250.835 759.541L250.837 759.536L265.857 765.051L265.854 765.056L250.835 759.541ZM246.38 821.44C241.907 808.016 242.547 794.085 244.421 783.024C246.308 771.882 249.564 763.011 250.833 759.547L265.856 765.051C264.657 768.326 261.828 776.064 260.196 785.696C258.551 795.408 258.238 806.414 261.559 816.383L246.38 821.44ZM246.322 821.259L246.32 821.253L261.619 816.57L261.621 816.576L246.322 821.259ZM249.199 830.723C248.328 827.574 247.389 824.468 246.382 821.447L261.561 816.388C262.663 819.695 263.683 823.068 264.62 826.46L249.199 830.723ZM256.86 885.631C257.775 876.472 255.401 853.16 249.199 830.723L264.62 826.46C271.075 849.81 273.974 875.285 272.78 887.223L256.86 885.631ZM256.801 886.214L256.86 885.63L272.78 887.224L272.722 887.807L256.801 886.214ZM256.581 888.431C256.653 887.693 256.728 886.95 256.801 886.213L272.722 887.808C272.648 888.548 272.575 889.272 272.505 889.987L256.581 888.431ZM258.816 911.603C256.391 907.91 255.983 903.349 255.918 900.021C255.847 896.378 256.205 892.276 256.581 888.431L272.505 889.987C272.123 893.894 271.865 897.124 271.915 899.71C271.971 902.61 272.422 903.174 272.19 902.821L258.816 911.603ZM269.642 917.333C265.128 917.333 261.24 915.295 258.815 911.602L272.191 902.822C271.993 902.521 271.583 902.057 270.923 901.708C270.276 901.365 269.765 901.333 269.642 901.333V917.333ZM273.106 918.009C271.204 917.517 270.323 917.333 269.642 917.333V901.333C272.703 901.333 275.565 902.118 277.114 902.519L273.106 918.009ZM290.602 908.996C290.217 910.936 289.447 913.175 287.802 915.116C286.015 917.224 283.73 918.353 281.485 918.782C279.468 919.168 277.636 918.963 276.421 918.76C275.189 918.554 273.948 918.227 273.105 918.009L277.114 902.519C278.125 902.781 278.652 902.911 279.06 902.979C279.485 903.05 279.162 902.936 278.48 903.067C278.089 903.142 277.572 903.297 277.015 903.608C276.447 903.925 275.968 904.331 275.597 904.769C274.891 905.602 274.84 906.226 274.909 905.881L290.602 908.996ZM290.878 900.281C291.124 903.485 291.111 906.436 290.602 908.997L274.909 905.88C275.005 905.396 275.125 904.111 274.925 901.508L290.878 900.281ZM320.088 917.516C316.838 918.083 309.363 919.119 301.229 918.235C293.258 917.369 283.084 914.472 276.501 905.694L289.301 896.095C291.987 899.676 296.8 901.66 302.958 902.329C308.953 902.98 314.749 902.206 317.334 901.754L320.088 917.516ZM309.161 973.624C306.392 966.239 306.007 956.366 306.559 945.789C307.125 934.95 308.763 922.203 310.798 908.463L326.625 910.807C324.601 924.477 323.061 936.59 322.537 946.623C322 956.919 322.614 963.931 324.143 968.006L309.161 973.624ZM307.439 1014.7C311.333 1002.14 315.181 989.178 309.191 973.703L324.113 967.927C332.298 989.076 326.59 1006.95 322.722 1019.44L307.439 1014.7ZM316.412 1053.77C312.497 1051.62 309.288 1048.93 307.031 1045.52C304.741 1042.06 303.756 1038.35 303.56 1034.7C303.202 1028 305.568 1020.73 307.439 1014.7L322.722 1019.44C320.552 1026.44 319.365 1030.63 319.537 1033.84C319.607 1035.14 319.907 1035.98 320.374 1036.69C320.873 1037.44 321.891 1038.53 324.124 1039.75L316.412 1053.77ZM423.624 1057.31C415.812 1053.96 406.058 1049.78 390.634 1048.09C375.104 1046.39 353.413 1047.18 322.101 1054.55L318.436 1038.98C351.092 1031.29 374.648 1030.25 392.377 1032.19C410.213 1034.14 421.728 1039.09 429.931 1042.61L423.624 1057.31ZM437.181 1061.9C432.522 1061.19 427.823 1059.11 423.623 1057.31L429.931 1042.61C434.743 1044.67 437.391 1045.75 439.614 1046.09L437.181 1061.9ZM457.863 1051.28C457.492 1052.37 456.923 1054.09 456.121 1055.61C455.194 1057.37 453.708 1059.38 451.19 1060.79C448.827 1062.11 446.34 1062.46 444.217 1062.51C442.098 1062.55 439.731 1062.3 437.181 1061.9L439.614 1046.09C441.851 1046.43 443.147 1046.52 443.883 1046.51C444.615 1046.49 444.176 1046.38 443.372 1046.83C442.952 1047.07 442.594 1047.36 442.321 1047.67C442.069 1047.95 441.964 1048.16 441.968 1048.15C441.98 1048.13 442.051 1047.98 442.195 1047.61C442.341 1047.22 442.497 1046.77 442.726 1046.1L457.863 1051.28ZM464.025 1039.59C460.116 1044.67 458.866 1048.35 457.863 1051.28L442.726 1046.1C443.948 1042.53 445.875 1036.94 451.343 1029.83L464.025 1039.59ZM469.516 868.105C483.992 894.429 485.568 933.266 482.526 966.275C480.983 983.015 478.204 998.759 475.008 1011.41C473.411 1017.73 471.686 1023.37 469.92 1028.03C468.217 1032.52 466.265 1036.67 464.025 1039.59L451.343 1029.83C452.116 1028.83 453.404 1026.46 454.959 1022.36C456.452 1018.42 458.004 1013.39 459.496 1007.49C462.477 995.688 465.123 980.766 466.594 964.807C469.579 932.414 467.538 897.713 455.496 875.815L469.516 868.105ZM427.116 727.283C438.733 788.957 445.457 824.356 469.516 868.105L455.496 875.815C430.039 829.524 422.968 791.695 411.392 730.245L427.116 727.283ZM424.56 713.749C425.442 718.397 426.291 722.906 427.116 727.283L411.392 730.245C410.567 725.866 409.72 721.367 408.84 716.73L424.56 713.749ZM390.182 600.713C397.307 597.075 397.307 597.077 397.308 597.079C397.309 597.08 397.31 597.082 397.311 597.084C397.313 597.088 397.315 597.092 397.318 597.098C397.324 597.109 397.331 597.124 397.34 597.142C397.358 597.177 397.384 597.227 397.415 597.29C397.479 597.417 397.568 597.597 397.683 597.829C397.912 598.295 398.24 598.969 398.652 599.84C399.475 601.581 400.635 604.106 402.013 607.309C404.766 613.709 408.4 622.834 411.956 633.811C419.035 655.669 425.954 685.317 424.693 715.573L408.707 714.907C409.858 687.297 403.517 659.681 396.734 638.742C393.359 628.32 389.911 619.664 387.315 613.632C386.019 610.618 384.937 608.266 384.188 606.682C383.814 605.89 383.522 605.291 383.329 604.897C383.232 604.701 383.16 604.556 383.114 604.464C383.091 604.419 383.074 604.386 383.065 604.367C383.06 604.358 383.057 604.351 383.055 604.349C383.055 604.347 383.054 604.347 383.055 604.347C383.055 604.347 383.055 604.348 383.055 604.348C383.056 604.35 383.057 604.351 390.182 600.713ZM367.075 543.276C373.459 556.667 380.912 569.942 386.799 579.912C389.737 584.886 392.27 589.013 394.065 591.891C394.963 593.33 395.675 594.455 396.16 595.216C396.403 595.597 396.588 595.887 396.712 596.079C396.774 596.175 396.82 596.247 396.851 596.294C396.866 596.317 396.877 596.334 396.884 596.345C396.887 596.35 396.89 596.354 396.891 596.356C396.892 596.357 396.892 596.358 396.892 596.358C396.892 596.358 396.892 596.358 396.892 596.358C396.892 596.358 396.892 596.358 390.182 600.713C383.471 605.068 383.471 605.068 383.47 605.067C383.47 605.067 383.47 605.066 383.469 605.066C383.468 605.064 383.467 605.062 383.466 605.06C383.463 605.056 383.459 605.05 383.454 605.042C383.444 605.027 383.43 605.006 383.412 604.978C383.376 604.922 383.324 604.841 383.256 604.736C383.121 604.525 382.922 604.216 382.667 603.815C382.156 603.013 381.417 601.845 380.49 600.36C378.638 597.391 376.036 593.151 373.022 588.048C367.008 577.864 359.297 564.142 352.632 550.161L367.075 543.276ZM402.433 544.87C390.011 550.314 375.609 553.338 360.568 554.687L359.139 538.751C373.083 537.5 385.661 534.752 396.011 530.216L402.433 544.87ZM404.865 543.596C404.594 543.777 403.165 544.803 401.162 545.304L397.282 529.782C396.739 529.917 396.325 530.109 396.077 530.243C395.962 530.305 395.889 530.351 395.877 530.358C395.875 530.36 395.886 530.353 395.99 530.284L404.865 543.596ZM424.961 432.737C429.692 448.673 435.779 468.933 435.253 488.63C434.709 508.965 427.106 529.012 404.814 543.63L396.04 530.25C413.194 519.001 418.829 504.271 419.258 488.202C419.705 471.496 414.502 453.726 409.622 437.291L424.961 432.737ZM424.371 430.749C424.565 431.406 424.762 432.068 424.961 432.737L409.622 437.291C409.424 436.622 409.226 435.956 409.03 435.294L424.371 430.749ZM379.58 337.26C390.825 346.468 399.579 362.267 406.586 378.782C413.711 395.574 419.545 414.401 424.373 430.757L409.028 435.287C404.212 418.973 398.595 400.91 391.857 385.032C385.003 368.876 377.484 356.224 369.443 349.64L379.58 337.26ZM309.096 324.158C319.26 323.953 332.766 324.14 345.515 325.768C357.794 327.336 371.159 330.43 379.551 337.237L369.472 349.663C364.882 345.94 355.6 343.186 343.488 341.639C331.845 340.152 319.215 339.957 309.419 340.155L309.096 324.158ZM334.908 322.227C329.108 325.224 326.125 326.805 323.605 328.681C321.261 330.426 319.085 332.616 315.537 337.112L302.977 327.201C306.916 322.209 310.095 318.792 314.05 315.847C317.83 313.033 322.092 310.839 327.563 308.012L334.908 322.227ZM334.583 324.176C334.364 323.517 334.18 322.965 333.992 322.444C333.807 321.929 333.647 321.527 333.502 321.206C333.356 320.883 333.257 320.712 333.213 320.645C333.17 320.579 333.228 320.685 333.42 320.863C333.626 321.055 333.961 321.304 334.425 321.5C334.898 321.699 335.339 321.772 335.672 321.78C336.254 321.793 336.108 321.604 334.918 322.222L327.552 308.018C330.099 306.697 332.976 305.713 336.042 305.784C339.381 305.861 342.192 307.173 344.312 309.143C346.229 310.924 347.372 313.043 348.085 314.624C348.807 316.223 349.365 317.923 349.764 319.122L334.583 324.176ZM348.463 337.101C343.042 337.258 339.542 334.117 337.649 331.215C336.056 328.772 335.118 325.784 334.583 324.176L349.764 319.122C350.096 320.118 350.342 320.85 350.596 321.491C350.85 322.134 351.007 322.407 351.051 322.475C351.089 322.533 350.848 322.133 350.205 321.732C349.874 321.526 349.488 321.352 349.065 321.239C348.645 321.127 348.277 321.099 348 321.107L348.463 337.101ZM360.812 324.041C360.812 330.545 355.814 336.752 348.612 337.095L347.851 321.113C346.761 321.165 345.971 321.675 345.529 322.165C345.091 322.651 344.812 323.303 344.812 324.041H360.812ZM319.521 278.566C323.777 281.404 333.532 288.119 342.317 295.878C346.694 299.744 351.062 304.07 354.407 308.476C357.546 312.61 360.756 318.055 360.812 323.966L344.812 324.115C344.807 323.577 344.311 321.637 341.664 318.151C339.223 314.935 335.726 311.403 331.725 307.87C323.755 300.83 314.706 294.586 310.645 291.878L319.521 278.566ZM306.924 277.705C311.098 275.618 315.837 276.11 319.521 278.566L310.645 291.878C310.998 292.114 311.521 292.334 312.179 292.385C312.843 292.436 313.508 292.302 314.08 292.016L306.924 277.705ZM291.625 285.962C297.865 281.792 303.983 278.932 307.385 277.493L313.62 292.228C310.782 293.429 305.643 295.838 300.515 299.265L291.625 285.962ZM291.674 285.743C292.048 285.622 292.425 285.479 292.818 285.304L299.322 299.923C298.406 300.33 297.497 300.676 296.588 300.97L291.674 285.743ZM301.939 295.23L301.721 295.886L286.542 290.827L286.76 290.171L301.939 295.23ZM304.469 288.376L301.857 295.466L286.843 289.935L289.455 282.845L304.469 288.376ZM323.247 272.731C321.243 286.755 307.939 291.693 298.435 293.474L295.489 277.747C299.54 276.988 302.626 275.848 304.639 274.475C306.442 273.245 307.188 272.007 307.407 270.468L323.247 272.731ZM323.58 270.745L323.218 272.915L307.436 270.285L307.798 268.115L323.58 270.745ZM329.218 246.755L323.478 271.255L307.9 267.605L313.639 243.105L329.218 246.755ZM328.237 251.634C326.588 252.047 324.648 252.499 322.763 252.818L320.094 237.042C321.374 236.826 322.849 236.489 324.356 236.112L328.237 251.634ZM340.172 214.602C339.953 218.534 339.448 226.005 338.468 232.707C337.985 236.01 337.339 239.468 336.443 242.311C336.004 243.703 335.388 245.332 334.481 246.812C333.735 248.029 331.842 250.733 328.237 251.634L324.356 236.112C322.98 236.456 322.063 237.138 321.58 237.584C321.108 238.019 320.883 238.38 320.839 238.452C320.769 238.565 320.921 238.333 321.184 237.498C321.693 235.886 322.193 233.428 322.636 230.392C323.51 224.416 323.985 217.521 324.197 213.712L340.172 214.602ZM403.298 229.3C394.372 233.072 364.278 242.446 328.11 221.042L336.259 207.272C366.593 225.224 390.988 217.132 397.07 214.562L403.298 229.3ZM313.036 879.194C308.598 885.85 308.597 885.849 308.595 885.848C308.595 885.848 308.594 885.847 308.593 885.846C308.591 885.845 308.589 885.844 308.587 885.842C308.583 885.84 308.579 885.837 308.575 885.834C308.566 885.828 308.557 885.822 308.547 885.816C308.528 885.803 308.506 885.788 308.482 885.771C308.434 885.738 308.376 885.698 308.31 885.651C308.177 885.557 308.01 885.436 307.813 885.287C307.421 884.991 306.905 884.581 306.315 884.063C305.152 883.041 303.613 881.519 302.164 879.527L315.1 870.112C315.683 870.913 316.347 871.578 316.878 872.045C317.135 872.271 317.339 872.431 317.455 872.519C317.512 872.562 317.546 872.586 317.551 872.59C317.553 872.591 317.549 872.588 317.536 872.579C317.53 872.575 317.522 872.57 317.511 872.562C317.506 872.559 317.5 872.555 317.494 872.551C317.491 872.549 317.488 872.547 317.484 872.545C317.483 872.543 317.481 872.542 317.479 872.541C317.478 872.54 317.477 872.54 317.477 872.539C317.475 872.538 317.474 872.538 313.036 879.194ZM321.958 888.661L311.819 887.101L314.253 871.287L324.392 872.847L321.958 888.661ZM319.407 700.758C335.961 722.563 340.882 753.235 340.878 784.917C340.875 816.826 335.845 851.361 331.08 881.984L315.27 879.524C320.05 848.806 324.875 815.422 324.878 784.916C324.881 754.183 319.959 727.946 306.664 710.433L319.407 700.758ZM305.217 678.949C309.644 686.806 314.375 694.129 319.407 700.758L306.664 710.433C301.127 703.139 296.005 695.192 291.278 686.804L305.217 678.949ZM294.528 698.259L290.588 685.185L305.907 680.568L309.847 693.643L294.528 698.259ZM289.366 724.884C289.366 722.952 289.782 719.908 290.212 717.113C290.68 714.07 291.298 710.523 291.906 707.178C292.515 703.824 293.124 700.628 293.58 698.274C293.808 697.095 293.998 696.126 294.131 695.449C294.198 695.111 294.251 694.846 294.287 694.664C294.305 694.574 294.319 694.504 294.328 694.456C294.333 694.433 294.336 694.415 294.339 694.402C294.34 694.396 294.341 694.391 294.342 694.388C294.342 694.386 294.342 694.385 294.342 694.384C294.343 694.384 294.343 694.383 294.343 694.383C294.343 694.383 294.343 694.382 302.187 695.951C310.032 697.52 310.032 697.52 310.032 697.52C310.032 697.52 310.032 697.52 310.032 697.52C310.032 697.521 310.032 697.522 310.032 697.523C310.031 697.526 310.03 697.529 310.029 697.535C310.027 697.546 310.024 697.562 310.019 697.584C310.011 697.628 309.997 697.695 309.98 697.782C309.945 697.956 309.894 698.214 309.829 698.544C309.699 699.205 309.512 700.156 309.288 701.314C308.84 703.631 308.243 706.764 307.648 710.04C307.05 713.326 306.462 716.711 306.026 719.545C305.808 720.965 305.635 722.2 305.518 723.191C305.46 723.686 305.42 724.088 305.395 724.402C305.382 724.558 305.375 724.678 305.37 724.767C305.366 724.858 305.366 724.894 305.366 724.884H289.366ZM294.961 739.564C293.621 736.954 292.331 734.449 291.393 732.361C290.918 731.307 290.456 730.19 290.102 729.093C289.781 728.098 289.366 726.582 289.366 724.884H305.366C305.366 724.113 305.196 723.768 305.328 724.176C305.427 724.482 305.626 725.001 305.986 725.801C306.714 727.422 307.781 729.503 309.193 732.252L294.961 739.564ZM308.891 773.84C305.429 759.991 299.384 748.171 294.961 739.564L309.193 732.252C313.594 740.818 320.454 754.119 324.414 769.96L308.891 773.84ZM307.714 822.165C310.463 803.713 311.583 784.608 308.891 773.84L324.414 769.96C327.959 784.142 326.28 806.123 323.539 824.522L307.714 822.165ZM299.716 857.823C300.554 855.965 301.934 851.497 303.469 844.884C304.958 838.474 306.478 830.567 307.712 822.179L323.542 824.508C322.247 833.306 320.648 841.645 319.055 848.504C317.509 855.16 315.843 860.983 314.302 864.4L299.716 857.823ZM298.59 860.904C298.882 859.883 299.252 858.868 299.699 857.863L314.32 864.361C314.164 864.71 314.053 865.023 313.974 865.3L298.59 860.904ZM302.164 879.527C299.245 875.518 296.291 868.953 298.59 860.904L313.974 865.299C313.695 866.278 313.738 867.055 313.916 867.745C314.111 868.503 314.512 869.304 315.1 870.112L302.164 879.527Z" fill="white" mask="url(#path-29-outside-1)"/>
<defs>
<clipPath id="clip0">
<rect width="467.817" height="1045.69" fill="white" transform="matrix(-1 0 0 1 475.766 8.79199)"/>
</clipPath>
</defs>
</svg>
