<svg width="287" height="364" fill="none" xmlns="http://www.w3.org/2000/svg"><path d="M101.126 142.801c-.217 14.565 6.31 14.341 9.601 12.409l77.531 10.506c13.405-2.391 11.503-32.515 11.503-56.517l-30.886-10.597h-27.806l-30.342 5.887-6.974 8.423c-.785 3.895-2.409 15.325-2.627 29.889z" fill="#FACBBD"/><path d="M123.45 141.297c-7.993 4.481-15.435 13.603-18.157 17.604h18.733c18.253 1.601 57.161 5.422 66.768 7.902-2.978-8.002-18.829-26.706-34.296-31.307-15.467-4.601-23.057.2-33.048 5.801z" fill="#F37880"/><path d="M38.45 220.785c4.057-29.998 23.307-40.819 32.425-42.479 3.26 12.68 2.083 30.795 0 46.826-1.666 12.825-.694 39.943 0 51.899 3.367 17.488-.857 37.9-5.32 51.808-1.492 4.647-3.01 8.569-4.28 11.412-1.027-1.57-5.145-4.71-13.406-4.71-19.382-1.358-23.82-13.133-31.79-40.486 15.125-20.832 17.299-36.773 22.37-74.27zM251.57 207.108c-6.884-16.013-17.934-14.189-23.64-10.596-2.234 19.956-8.785 68.165-8.785 95.916 0 34.69 14.31 93.019 23.186 117.927 27.716-28.621 27.082-88.581 25.814-94.649-1.268-6.069-5.706-27.353-5.344-33.422.362-6.068.634-21.013-4.166-33.15-4.801-12.137-7.065-19.745-7.065-42.026z" fill="#2D5A9D"/><path d="M49.463 353.565c15.016-27.674 21.584-58.629 22.99-70.647.955 7.576 2.114 17.156 4.037 25.542 2.779 12.125 8.228 21.161 25.96 13.068 23.997-10.954 89.809-.061 119.716 6.754 3.203 13.326 10.022 41.585 11.675 48.011 2.065 8.032 15.088 52.301 15.537 87.533.359 28.186 20.147 97.239 29.996 128.243l-15.088 5.202c-.748 1.065-3.107 4.126-6.556 7.85-7.903 1.095-9.789 6.481-25.416 6.755-12.501.219-11.615-6.664-9.61-10.132-.239-1.978-4.059-4.29-17.423 2.282-16.704 8.215-37.45 6.024-53.975 3.468-16.525-2.555-25.236-7.576-36.642-11.318-27.302-2.829-42.75 10.223-48.946 10.223-3.772 0-9.16 2.464-17.962-7.393-8.709-9.755 14.502-12.896 21.516-13.845l.218-.029C65 577.556 50.36 569.98 46.41 568.52c.269 14.33-8.353 13.6-18.86 11.774-10.509-1.825-19.04-13.691-16.795-20.811 2.245-7.119 5.03-10.223-1.168-13.874-6.197-3.651-3.053-33.68 0-45.729 3.054-12.048 8.263-22.088 9.88-49.471 1.616-27.383 11.226-62.25 29.996-96.844z" fill="#4B78BC"/><path fill-rule="evenodd" clip-rule="evenodd" d="M105.112 161.165l29.641-2.514 40.939 5.254 18.04 4.491c.52.975.905 1.783 1.16 2.392 9.45 3.381 29.346 13.459 33.331 26.719 4.027 13.4-1.417 42.311-4.321 57.728-.688 3.653-1.233 6.548-1.476 8.3-1.268 9.148-4.529 36.773 0 65.213-6.702 0-51.627-2.898-63.22-4.348-11.594-1.449-50.631-5.434-63.31 2.084a3445.544 3445.544 0 01-18.025 4.981c-1.6-16.273-5.996-51.971-10.778-64.579-4.783-12.608.06-65.334 3.08-90.12 6.897-.531 22.385-4.437 34.939-15.601z" fill="#4B78BC"/><path d="M144.32 154.429c-23.132-.849-36.874 2.831-40.854 4.778-9.234 4.516-6.865 9.704 11.939 6.051 23.505-4.565 60.721 3.716 74.711 7.326 13.991 3.61 9.794-4.353 5.037-7.326-4.757-2.972-21.919-9.767-50.833-10.829z" fill="#FEF1F0"/><path d="M92.99 125.139c-7.156 1.087-9.783-6.974-5.073-10.144 4.71-3.17 8.152-9.42 8.152-9.42 4.83.091 15.814.779 21.104 2.808 6.611 2.536 7.155 7.518 5.253 9.872-1.902 2.355-4.529 1.631-7.699 4.801-3.081 3.081-9.601 4.166-13.677 2.083-3.26-1.666-6.215-.28-8.06 0zM188.983 127.046c-5.579-5.507-2.325-10.628 0-12.499 4.015-1.721 13.785-3.66 20.741 2.354 8.695 7.518-.905 16.575-4.076 14.039-3.17-2.536-5.162-1.811-5.977-1.177-.816.634-3.714 4.166-10.688-2.717z" fill="#5C414E"/><path d="M116.431 21.523c15.071-20.143 41.21-13.767 41.21-13.767s28.243 3.442 39.038 25.451c10.795 22.01 14.22 39.943 53.528 65.394 10.497 6.797 9.33 15.217-28.258 18.84-37.588 3.623-49.997-12.952-77.984-12.59-27.987.362-59.235 13.677-83.056 18.205-23.82 4.529-23.277-8.423-2.536-21.647 20.741-13.224 39.218-54.706 58.058-79.886z" fill="#2D5A9D"/><mask id="a" maskUnits="userSpaceOnUse" x=".023" y=".798" width="287" height="618" fill="#000"><path fill="#fff" d="M.023.798h287v618h-287z"/><path fill-rule="evenodd" clip-rule="evenodd" d="M157.641 7.756s-26.139-6.376-41.21 13.767c-6.513 8.704-12.982 19.357-19.517 30.117-12.368 20.366-24.97 41.117-38.541 49.769-20.741 13.224-21.285 26.176 2.536 21.647 7.821-1.487 16.443-3.921 25.487-6.532-2.39 3.664.41 9.554 6.593 8.615.388-.059.825-.167 1.304-.285 1.798-.443 4.182-1.031 6.757.285.322.164.658.309 1.007.434a220.568 220.568 0 00-.931 17.228c-.155 10.374 3.112 13.245 6.195 13.34a60.247 60.247 0 00-1.615 2.165 20.28 20.28 0 00-2.239.901c-5.404 2.643-6.834 5.516-3.322 6.712-11.472 7.981-23.846 10.969-29.852 11.435l-.132 1.096c-9.372 2.078-27.757 13.098-31.711 42.335-5.072 37.497-7.246 53.438-22.372 74.27 7.97 27.353 12.409 39.127 31.791 40.486 4.111 0 7.196.778 9.385 1.753-2.297 5.439-4.886 10.917-7.791 16.271-18.77 34.594-28.38 69.461-29.997 96.844-1.233 20.895-4.559 31.692-7.422 40.988-.889 2.887-1.733 5.629-2.457 8.483-3.053 12.049-6.197 42.078 0 45.729 5.085 2.996 4.123 5.623 2.374 10.402v.001a78.861 78.861 0 00-1.206 3.471c-2.245 7.12 6.286 18.986 16.794 20.811 10.508 1.826 19.13 2.556 18.86-11.774 3.952 1.46 18.59 9.036 23.081 16.612l-.218.029c-7.014.949-30.225 4.09-21.516 13.845 7.441 8.334 12.443 7.86 16.09 7.515.668-.063 1.29-.122 1.872-.122 1.858 0 4.548-1.174 8.14-2.741 8.386-3.659 21.69-9.463 40.806-7.482 3.388 1.112 6.539 2.336 9.727 3.576h.001c7.544 2.932 15.299 5.946 26.914 7.742 16.525 2.556 37.271 4.747 53.975-3.468 13.364-6.572 17.184-4.26 17.423-2.282-2.005 3.468-2.891 10.351 9.61 10.131 9.693-.169 14.099-2.306 17.934-4.165 2.348-1.139 4.481-2.173 7.482-2.589 3.449-3.724 5.808-6.785 6.556-7.85l15.088-5.202c-9.849-31.004-29.637-100.057-29.996-128.243-.223-17.463-3.534-37.146-7.069-53.536l.022.064c27.716-28.621 27.082-88.581 25.814-94.649-1.268-6.069-5.706-27.353-5.344-33.422.362-6.068.634-21.013-4.166-33.15-4.801-12.137-7.065-19.745-7.065-42.026-5.925-13.782-14.935-14.351-20.969-11.951-5.818-11.194-21.799-19.738-30.999-23.353.502-1.91-1.892-4.947-4.448-6.545-.677-.423-1.606-.923-2.783-1.474 6.113-5.128 7.31-19.047 7.463-34.139.901-.593 2.839-1.085 5.814 1.295 3.023 2.419 11.894-5.706 5.171-12.984 3.46.025 7.154-.132 11.13-.515 37.588-3.623 38.755-12.043 28.258-18.84-33.597-21.753-40.981-38.015-49.157-56.023-1.39-3.061-2.803-6.173-4.371-9.37-10.795-22.01-39.038-25.452-39.038-25.452z"/></mask><path d="M116.431 21.523l-4.805-3.594 4.805 3.594zm41.21-13.767l-1.421 5.83.344.083.352.043.725-5.956zM96.914 51.64l5.129 3.114-5.129-3.114zm-38.541 49.769l3.226 5.059-3.226-5.059zm2.536 21.647l1.12 5.895-1.12-5.895zm25.487-6.532l5.025 3.278 8.824-13.523-15.514 4.48 1.665 5.765zm6.593 8.615l.901 5.932-.9-5.932zm1.304-.285l1.437 5.826-1.437-5.826zm6.757.285l-2.73 5.343 2.73-5.343zm1.007.434l5.974.563.436-4.634-4.38-1.575-2.03 5.646zm-.931 17.228l-6-.09 6 .09zm6.195 13.34l4.731 3.691 7.272-9.324-11.819-.364-.184 5.997zm-1.615 2.165l1.955 5.673 1.827-.63 1.116-1.578-4.898-3.465zm-2.239.901l2.636 5.389-2.636-5.389zm-3.322 6.712l3.426 4.926 9.744-6.778-11.235-3.827-1.935 5.679zm-29.852 11.435l-.465-5.982-4.903.381-.59 4.882 5.958.719zm-.132 1.096l1.3 5.858 4.155-.922.503-4.227-5.958-.709zM38.45 220.785l-5.946-.805 5.946.805zm-22.372 74.27l-4.855-3.525-1.728 2.38.823 2.823 5.76-1.678zm31.791 40.486l-.42 5.985.21.015h.21v-6zm9.385 1.753l5.527 2.334 2.29-5.421-5.376-2.394-2.441 5.481zm-7.791 16.271l5.273 2.862-5.273-2.862zm-29.997 96.844l-5.99-.354 5.99.354zm-7.422 40.988l5.735 1.766-5.735-1.766zm-2.457 8.483l5.816 1.474-5.816-1.474zm0 45.729l-3.045 5.17 3.045-5.17zm2.374 10.402l-5.634-2.062-.016.042-.015.043 5.665 1.977zm0 .001l5.634 2.062.016-.042.015-.043-5.665-1.977zm-1.206 3.471l5.722 1.805-5.722-1.805zm16.794 20.811l1.027-5.911-1.027 5.911zm18.86-11.774l2.08-5.628-8.244-3.047.165 8.787 6-.112zm23.081 16.612l.806 5.945 8.972-1.216-4.617-7.789-5.161 3.06zm-.218.029l.805 5.946h.001l-.806-5.946zm-21.516 13.845l4.476-3.996-4.476 3.996zm16.09 7.515l.566 5.973-.565-5.973zm10.012-2.863l-2.4-5.499 2.4 5.499zm40.806-7.482l1.871-5.701-.612-.201-.64-.066-.619 5.968zm9.727 3.576l-2.174 5.592.331.129.344.088 1.499-5.809zm.001 0l1.828-5.715-.163-.052-.166-.043-1.499 5.81zm0 0l2.174-5.593-.171-.066-.174-.056-1.829 5.715zm26.914 7.742l.917-5.929-.917 5.929zm53.975-3.468l-2.647-5.384 2.647 5.384zm17.423-2.282l5.195 3.003 1.003-1.735-.241-1.989-5.957.721zm9.61 10.131l-.105-5.999.105 5.999zm17.934-4.165l2.618 5.399-2.618-5.399zm7.482-2.589l.824 5.943 2.122-.294 1.456-1.572-4.402-4.077zm6.556-7.85l-1.956-5.672-1.836.633-1.117 1.589 4.909 3.45zm15.088-5.202l1.956 5.672 5.535-1.909-1.773-5.58-5.718 1.817zm-29.996-128.243l5.999-.076-5.999.076zm-7.069-53.536l5.652-2.013-11.518 3.278 5.866-1.265zm.022.064l-5.652 2.013 3.241 9.102 6.722-6.941-4.311-4.174zm20.47-128.071l-5.989-.357 5.989.357zm-4.166-33.15l-5.58 2.207 5.58-2.207zm-7.065-42.026h6v-1.235l-.488-1.134-5.512 2.369zm-20.969-11.951l-5.324 2.767 2.501 4.812 5.04-2.004-2.217-5.575zm-30.999-23.353l-5.803-1.524-1.354 5.157 4.963 1.951 2.194-5.584zm-4.448-6.545l3.18-5.088-3.18 5.088zm-2.783-1.474l-3.857-4.596-7.209 6.048 8.525 3.984 2.541-5.436zm7.463-34.139l-3.301-5.01-2.666 1.757-.032 3.192 5.999.061zm5.814 1.295l-3.748 4.685 3.748-4.685zm5.171-12.984l.043-5.999-13.846-.1 9.396 10.171 4.407-4.072zm11.13-.515l.575 5.972-.575-5.972zm28.258-18.84l-3.26 5.037 3.26-5.037zM201.05 42.578l5.463-2.48-5.463 2.48zm-4.371-9.37l-5.387 2.642 5.387-2.643zm-75.444-8.09c6.23-8.328 14.744-11.26 22.107-12.068a44.271 44.271 0 019.351-.009c1.178.125 2.11.273 2.725.384a22.082 22.082 0 01.806.161c-.002 0-.004 0 1.417-5.83 1.422-5.829 1.42-5.83 1.417-5.83l-.006-.002-.013-.003-.034-.008a34.6 34.6 0 00-1.445-.295 49.317 49.317 0 00-3.61-.51 56.262 56.262 0 00-11.917.014c-9.474 1.04-21.566 4.99-30.407 16.807l9.609 7.189zm-19.192 29.637c6.575-10.828 12.887-21.211 19.192-29.637l-9.609-7.19c-6.72 8.983-13.346 19.905-19.84 30.598l10.257 6.228zm-40.445 51.713c7.764-4.949 14.845-13.053 21.354-22.028 6.564-9.051 12.937-19.552 19.091-29.685l-10.257-6.23c-6.215 10.234-12.327 20.29-18.548 28.87-6.277 8.654-12.283 15.252-18.09 18.955l6.45 10.118zm-1.81 10.694c-5.612 1.067-9.01.929-10.712.48-.8-.211-.856-.394-.654-.191.296.297.479.749.498 1.094.014.235-.017-.947 2.289-3.614 2.102-2.432 5.524-5.361 10.39-8.463L55.148 96.35c-5.506 3.51-9.93 7.16-13.018 10.734-2.885 3.338-5.453 7.591-5.19 12.151.145 2.507 1.148 4.844 2.977 6.682 1.736 1.743 3.926 2.756 6.1 3.329 4.247 1.119 9.715.902 16.013-.295l-2.242-11.789zm24.944-6.403c-9.081 2.622-17.44 4.976-24.944 6.403l2.242 11.789c8.139-1.548 17.023-4.062 26.03-6.663l-3.329-11.529zm-3.36 2.486c-5.257 8.054 1.27 19.535 12.519 17.826l-1.803-11.864c-.534.081-.712-.019-.675-.002a.266.266 0 01.1.091c.018.027.032.06.034.12a.71.71 0 01-.126.386l-10.05-6.557zm12.519 17.826c.713-.108 1.437-.292 1.839-.391l-2.874-11.651c-.252.062-.42.103-.569.137-.145.033-.2.041-.199.041l1.803 11.864zm1.839-.391c1.867-.461 2.201-.397 2.59-.198l5.461-10.686c-4.762-2.433-9.196-1.193-10.925-.767l2.874 11.651zm2.59-.198c.562.287 1.134.531 1.707.737l4.06-11.292a2.588 2.588 0 01-.306-.131l-5.461 10.686zm-2.236-5.471a226.273 226.273 0 00-.958 17.7l11.999.179c.095-6.321.461-12.035.906-16.754l-11.947-1.125zm-.958 17.7c-.084 5.661.722 10.248 2.701 13.639 2.198 3.765 5.647 5.676 9.309 5.789l.369-11.995c.149.005.391.053.624.194.232.14.215.226.062-.037-.386-.661-1.136-2.697-1.066-7.411l-11.999-.179zm7.464 9.74a65.367 65.367 0 00-1.782 2.389l9.796 6.931c.392-.553.878-1.209 1.448-1.939l-9.462-7.381zm1.162.182a26.117 26.117 0 00-2.921 1.184l5.272 10.779c.272-.133.777-.348 1.558-.617l-3.909-11.346zm-2.921 1.184c-1.62.791-3.108 1.68-4.365 2.669-1.189.934-2.526 2.234-3.38 3.955-.943 1.903-1.385 4.644.135 7.288 1.318 2.29 3.48 3.356 4.99 3.87l3.869-11.359c-.247-.084.777.174 1.544 1.506.417.725.623 1.559.602 2.38a3.957 3.957 0 01-.388 1.644c-.259.523-.446.534.044.149.421-.331 1.138-.793 2.221-1.323l-5.272-10.779zm-4.112 7.177c-10.508 7.309-21.834 9.986-26.89 10.378l.928 11.964c6.956-.539 20.377-3.839 32.814-12.491l-6.852-9.851zm-32.383 15.641l-.133 1.106 11.916 1.418.13-1.085-11.913-1.439zm4.526-4.043c-11.727 2.601-32.053 15.561-36.358 47.388l11.892 1.609C48 194.944 64.443 185.864 71.46 184.308l-2.598-11.716zM32.504 219.98c-5.096 37.674-7.169 52.114-21.281 71.55l9.71 7.05c16.14-22.228 18.414-39.67 23.463-76.991l-11.892-1.609zm-22.186 76.753c3.904 13.4 7.247 24.233 12.445 31.731 2.725 3.931 6.039 7.093 10.284 9.332 4.2 2.214 8.98 3.35 14.403 3.73l.839-11.97c-4.268-.299-7.312-1.145-9.645-2.375-2.287-1.206-4.215-2.952-6.019-5.553-3.859-5.567-6.72-14.298-10.786-28.252l-11.521 3.357zm37.551 44.808c3.348 0 5.592.631 6.944 1.234l4.882-10.962c-3.025-1.348-6.952-2.272-11.826-2.272v12zm3.857-6.581c-2.23 5.282-4.736 10.581-7.537 15.744l10.547 5.723c3.01-5.547 5.682-11.203 8.045-16.799l-11.055-4.668zm-7.537 15.744c-19.133 35.262-29.037 70.979-30.712 99.351l11.979.707c1.558-26.393 10.873-60.411 29.28-94.335l-10.547-5.723zm-30.712 99.351c-1.195 20.231-4.377 30.519-7.167 39.576l11.469 3.532c2.936-9.536 6.404-20.841 7.677-42.401l-11.98-.707zM6.31 489.631c-.882 2.863-1.772 5.749-2.539 8.775l11.632 2.948c.68-2.683 1.48-5.281 2.376-8.191L6.31 489.631zm-2.539 8.775c-1.644 6.488-3.24 17.425-3.647 27.239-.204 4.902-.124 9.805.486 13.866.304 2.02.774 4.076 1.54 5.901.727 1.731 2.016 3.967 4.392 5.367l6.091-10.339c.827.487.858.986.582.328-.236-.562-.513-1.546-.738-3.042-.447-2.974-.553-7.015-.364-11.583.379-9.126 1.881-19.228 3.29-24.789l-11.632-2.948zm2.77 52.373c.916.539 1.151.83 1.135.81a1.71 1.71 0 01-.304-.801c-.025-.224.039-.164-.127.461-.173.647-.454 1.431-.918 2.7l11.269 4.124c.41-1.121.904-2.457 1.245-3.74.348-1.306.662-2.986.46-4.838-.47-4.345-3.383-7.119-6.668-9.055l-6.091 10.339zm-.245 3.255v.001l11.33 3.954v-.001l-11.33-3.954zm.03-.084c-.379 1.036-.844 2.304-1.293 3.729l11.444 3.609a73.057 73.057 0 011.118-3.214L6.326 553.95zm-1.293 3.729c-1.996 6.329.94 13.157 4.594 17.871 3.851 4.968 9.834 9.429 16.895 10.656l2.054-11.823c-3.446-.599-6.983-2.984-9.464-6.185-2.678-3.455-2.884-6.12-2.635-6.91l-11.444-3.609zm21.49 28.527c2.638.458 5.478.908 8.178 1.028 2.67.118 5.703-.055 8.557-1.201 3.064-1.232 5.588-3.456 7.19-6.743 1.505-3.091 2.037-6.785 1.96-10.883l-11.998.225c.058 3.068-.387 4.655-.75 5.402-.268.548-.506.715-.877.864-.581.234-1.657.432-3.55.348-1.864-.083-4.042-.409-6.657-.863l-2.054 11.823zm17.806-12.059c1.462.541 5.717 2.575 10.18 5.436 4.635 2.973 8.348 6.125 9.82 8.608l10.322-6.119c-3.018-5.092-8.87-9.516-13.665-12.59-4.967-3.186-10.007-5.67-12.497-6.59l-4.16 11.255zm24.355 5.039l-.218.03 1.612 11.891.218-.03-1.612-11.891zm-.216.029c-3.366.456-11.631 1.546-17.98 3.957-2.939 1.116-6.918 3.023-9.104 6.487-1.256 1.989-1.873 4.426-1.395 7.06.447 2.467 1.752 4.559 3.292 6.283l8.95-7.992c-.637-.715-.511-.855-.435-.431.108.592-.07 1.176-.264 1.484-.065.102.564-.665 3.216-1.672 4.833-1.836 11.68-2.79 15.329-3.284l-1.61-11.892zM43.28 603.002c4.194 4.697 8.14 7.404 12.044 8.707 3.932 1.313 7.206.964 9.088.785l-1.13-11.946c-1.766.167-2.817.227-4.158-.221-1.37-.457-3.645-1.68-6.892-5.317l-8.951 7.992zm21.133 9.492c.733-.069 1.06-.095 1.305-.095v-12c-.92 0-1.837.092-2.437.149l1.132 11.946zm1.305-.095c2.02 0 3.972-.603 5.46-1.14 1.574-.569 3.341-1.343 5.079-2.101l-4.799-10.999c-1.854.809-3.227 1.405-4.36 1.815-1.22.441-1.542.425-1.38.425v12zm10.539-3.241c8.203-3.579 20.298-8.827 37.789-7.014l1.237-11.936c-20.74-2.149-35.254 4.212-43.825 7.951l4.799 10.999zm36.537-7.281c3.211 1.054 6.216 2.22 9.423 3.467l4.348-11.185c-3.169-1.232-6.466-2.514-10.03-3.684l-3.741 11.402zm10.098 3.684l2.999-11.619h-.001l-2.998 11.619zm-.329-.095h.001l3.657-11.429h-.001l-3.657 11.429zm-.344-.122c7.606 2.957 15.872 6.178 28.17 8.08l1.834-11.859c-10.932-1.691-18.176-4.498-25.657-7.406l-4.347 11.185zm28.17 8.08c16.39 2.535 38.937 5.134 57.54-4.014l-5.295-10.768c-14.806 7.281-33.751 5.499-50.411 2.923l-1.834 11.859zm57.54-4.014c6.404-3.149 9.704-3.733 10.977-3.731.59.001.249.128-.426-.313-.784-.512-1.565-1.523-1.732-2.901l11.913-1.442c-.287-2.367-1.635-4.408-3.62-5.705-1.877-1.225-4.052-1.636-6.118-1.639-4.038-.006-9.33 1.54-16.289 4.963l5.295 10.768zm9.581-10.67c-1.395 2.413-3.256 7.361-.78 12.19 2.711 5.287 8.768 7.066 15.689 6.945l-.21-11.999c-2.64.047-4.051-.3-4.692-.561-.538-.219-.322-.276-.109.14.172.335.091.498.127.258a2.99 2.99 0 01.364-.966l-10.389-6.007zm14.909 19.135c10.865-.191 16.154-2.685 20.447-4.766l-5.236-10.798c-3.376 1.637-6.9 3.416-15.421 3.565l.21 11.999zm20.447-4.766c2.36-1.145 3.727-1.773 5.688-2.045l-1.648-11.886c-4.041.56-6.941 2.001-9.276 3.133l5.236 10.798zm9.266-3.911c3.602-3.889 6.137-7.158 7.063-8.477l-9.818-6.9c-.57.812-2.753 3.664-6.049 7.223l8.804 8.154zm4.11-6.254l15.088-5.203-3.912-11.345-15.088 5.203 3.912 11.345zm18.85-12.692c-4.895-15.41-12.269-40.306-18.457-64.829-6.246-24.753-11.088-48.395-11.258-61.673l-11.999.153c.19 14.908 5.421 39.885 11.622 64.456 6.258 24.801 13.702 49.933 18.656 65.526l11.436-3.633zM255.377 463.75c-.23-18.058-3.639-38.197-7.203-54.725l-11.731 2.53c3.506 16.253 6.72 35.479 6.935 52.348l11.999-.153zm-18.721-51.447l.023.064 11.305-4.026-.023-.064-11.305 4.026zm9.986 2.225c15.166-15.662 22.184-39.326 25.387-58.991a202.084 202.084 0 002.512-26.339c.195-6.882-.044-12.426-.523-14.72l-11.746 2.454c-.004-.018.012.058.038.261.024.192.052.45.081.778.057.658.11 1.526.15 2.592.079 2.129.1 4.949.005 8.297a190.343 190.343 0 01-2.361 24.748c-3.092 18.986-9.615 39.613-22.164 52.572l8.621 8.348zm27.376-100.05c-.634-3.034-2.044-9.796-3.25-16.54-.604-3.376-1.146-6.692-1.514-9.504-.387-2.959-.516-4.911-.464-5.793l-11.978-.715c-.129 2.152.16 5.136.543 8.064.403 3.075.981 6.597 1.6 10.06 1.24 6.933 2.682 13.847 3.317 16.882l11.746-2.454zm-5.228-31.837c.37-6.197.739-22.275-4.576-35.714l-11.159 4.413c4.285 10.835 4.111 24.645 3.757 30.586l11.978.715zm-4.576-35.714c-2.358-5.963-3.956-10.476-5.015-16.111-1.069-5.687-1.629-12.744-1.629-23.709h-12c0 11.317.572 19.204 1.835 25.926 1.273 6.774 3.208 12.133 5.65 18.307l11.159-4.413zm-7.132-42.189c-3.381-7.866-8.058-12.879-13.643-15.211-5.548-2.317-10.981-1.567-15.056.053l4.435 11.151c1.959-.779 4.048-.945 5.996-.131 1.909.797 4.7 2.961 7.244 8.877l11.024-4.739zm-21.157-12.349c-3.582-6.891-9.985-12.506-16.185-16.716-6.304-4.279-13.008-7.515-17.943-9.455l-4.389 11.169c4.264 1.676 10.15 4.52 15.591 8.214 5.545 3.765 10.042 8.019 12.278 12.322l10.648-5.534zm-30.519-19.062c.519-1.978.183-3.778-.239-5.035-.433-1.292-1.092-2.431-1.76-3.365-1.323-1.853-3.144-3.551-5.073-4.757l-6.36 10.177c.283.176.606.423.923.72.318.297.572.591.745.833.188.264.193.342.148.207-.034-.101-.26-.805.009-1.828l11.607 3.048zm-7.072-13.157c-.94-.587-2.095-1.201-3.423-1.821l-5.081 10.871c1.028.48 1.729.867 2.144 1.127l6.36-10.177zm-2.107 8.211c4.777-4.008 6.892-10.633 8.015-16.866 1.177-6.527 1.515-14.198 1.592-21.809l-11.999-.122c-.076 7.482-.414 14.316-1.403 19.803-1.042 5.782-2.582 8.68-3.918 9.801l7.713 9.193zm6.908-33.725c-.281.185-.59.328-.919.413a2.49 2.49 0 01-.871.077c-.469-.049-.296-.202.555.479l7.497-9.37c-2.124-1.699-4.408-2.796-6.815-3.045-2.471-.256-4.55.438-6.049 1.425l6.602 10.021zm-1.235.969c3.384 2.707 7.304 1.702 9.306.771 2.262-1.051 4.259-2.855 5.678-4.988 1.449-2.178 2.507-5.023 2.384-8.241-.126-3.31-1.485-6.514-4.042-9.282l-8.814 8.143c.804.871.858 1.411.865 1.596.01.276-.078.676-.384 1.137-.149.223-.32.415-.483.559-.17.15-.273.2-.262.194.01-.005.076-.034.198-.065.12-.031.328-.071.611-.074.596-.005 1.546.166 2.44.88l-7.497 9.37zm19.473-24.157c-3.777.364-7.264.512-10.511.489l-.086 11.999c3.674.027 7.574-.141 11.748-.543l-1.151-11.945zm25.574-7.83c1.072.694 1.855 1.321 2.386 1.845.55.543.676.824.666.802-.043-.099-.179-.536-.039-1.112.129-.526.358-.629.072-.364-.743.689-2.922 1.986-7.891 3.321-4.791 1.286-11.552 2.45-20.768 3.338l1.151 11.945c9.578-.923 17.058-2.171 22.73-3.694 5.494-1.476 9.998-3.388 12.933-6.106 1.553-1.439 2.871-3.295 3.432-5.599.574-2.353.216-4.593-.606-6.493-1.503-3.474-4.647-6.08-7.545-7.956l-6.521 10.073zm-51.36-58.58c4.078 8.982 8.223 18.159 15.783 27.824 7.575 9.684 18.367 19.613 35.577 30.756l6.521-10.073c-16.388-10.611-26.086-19.69-32.646-28.076-6.575-8.406-10.211-16.365-14.309-25.392l-10.926 4.962zm-4.295-9.208c1.523 3.105 2.9 6.137 4.295 9.209l10.926-4.962c-1.385-3.05-2.834-6.241-4.447-9.532l-10.774 5.285zM157.641 7.756c-.725 5.956-.727 5.956-.729 5.956h-.004l-.004-.001h-.002c.002 0 .011 0 .026.003l.166.023c.161.024.418.063.76.122.686.119 1.71.315 2.987.618a61.024 61.024 0 019.903 3.264c7.722 3.317 16.029 8.895 20.548 18.109l10.774-5.285c-6.277-12.796-17.489-19.943-26.586-23.85A73.053 73.053 0 00163.605 2.8a62.25 62.25 0 00-3.707-.764 41.562 41.562 0 00-1.476-.228l-.033-.004a.447.447 0 00-.012-.002h-.005c-.002 0-.005 0-.731 5.955z" fill="#fff" mask="url(#a)"/></svg>