<svg width="287" height="364" viewBox="0 0 287 364" fill="none" xmlns="http://www.w3.org/2000/svg">
<path d="M101.126 142.801C100.909 157.366 107.436 157.142 110.727 155.21L188.258 165.716C201.663 163.325 199.761 133.201 199.761 109.199L168.875 98.6016H141.069L110.727 104.489L103.753 112.912C102.968 116.807 101.344 128.237 101.126 142.801Z" fill="#FACBBD"/>
<path d="M123.45 141.297C115.457 145.778 108.015 154.9 105.293 158.901H124.026C142.279 160.502 181.187 164.323 190.794 166.803C187.816 158.801 171.965 140.097 156.498 135.496C141.031 130.895 133.441 135.696 123.45 141.297Z" fill="#F37880"/>
<path d="M38.4498 220.785C42.5075 190.787 61.7573 179.966 70.875 178.306C74.1357 190.986 72.9582 209.101 70.875 225.132C69.2085 237.957 70.1806 265.075 70.875 277.031C74.2423 294.519 70.0176 314.931 65.5543 328.839C64.0628 333.486 62.5447 337.408 61.2743 340.251C60.2478 338.681 56.1297 335.541 47.8694 335.541C28.4867 334.183 24.0486 322.408 16.0781 295.055C31.2039 274.223 33.3776 258.282 38.4498 220.785Z" fill="#2D5A9D"/>
<path d="M251.57 207.108C244.686 191.095 233.636 192.919 227.93 196.512C225.696 216.468 219.145 264.677 219.145 292.428C219.145 327.118 233.455 385.447 242.331 410.355C270.047 381.734 269.413 321.774 268.145 315.706C266.877 309.637 262.439 288.353 262.801 282.284C263.163 276.216 263.435 261.271 258.635 249.134C253.834 236.997 251.57 229.389 251.57 207.108Z" fill="#2D5A9D"/>
<path d="M49.4626 353.565C64.4787 325.891 71.0467 294.936 72.4537 282.918C73.4084 290.494 74.5674 300.074 76.4896 308.46C79.2688 320.585 84.7177 329.621 102.45 321.528C126.447 310.574 192.259 321.467 222.166 328.282C225.369 341.608 232.188 369.867 233.841 376.293C235.906 384.325 248.929 428.594 249.378 463.826C249.737 492.012 269.525 561.065 279.374 592.069L264.286 597.271C263.538 598.336 261.179 601.397 257.73 605.121C249.827 606.216 247.941 611.602 232.314 611.876C219.813 612.095 220.699 605.212 222.704 601.744C222.465 599.766 218.645 597.454 205.281 604.026C188.577 612.241 167.831 610.05 151.306 607.494C134.781 604.939 126.07 599.918 114.664 596.176C87.362 593.347 71.9149 606.399 65.718 606.399C61.946 606.399 56.5575 608.863 47.7562 599.006C39.0473 589.251 62.2579 586.11 69.2722 585.161L69.49 585.132C64.9996 577.556 50.3607 569.98 46.4091 568.52C46.6785 582.85 38.0568 582.12 27.5491 580.294C17.0415 578.469 8.50959 566.603 10.7548 559.483C13 552.364 15.7841 549.26 9.58731 545.609C3.39048 541.958 6.5338 511.929 9.58731 499.88C12.6408 487.832 17.8498 477.792 19.4663 450.409C21.0829 423.026 30.6925 388.159 49.4626 353.565Z" fill="#4B78BC"/>
<path fill-rule="evenodd" clip-rule="evenodd" d="M105.112 161.165L134.753 158.651L175.692 163.905L193.732 168.396C194.252 169.371 194.637 170.179 194.892 170.788C204.342 174.169 224.238 184.247 228.223 197.507C232.25 210.907 226.806 239.818 223.902 255.235C223.214 258.888 222.669 261.783 222.426 263.535C221.158 272.683 217.897 300.308 222.426 328.748C215.724 328.748 170.799 325.85 159.206 324.4C147.612 322.951 108.575 318.966 95.8951 326.484C85.7508 329.309 79.6522 330.982 77.871 331.465C76.2708 315.192 71.875 279.494 67.0927 266.886C62.3104 254.278 67.1531 201.552 70.1722 176.766C77.0695 176.235 92.5584 172.329 105.112 161.165Z" fill="#4B78BC"/>
<path d="M144.32 154.429C121.188 153.58 107.446 157.26 103.466 159.207C94.2321 163.723 96.6013 168.911 115.405 165.258C138.91 160.693 176.126 168.974 190.116 172.584C204.107 176.194 199.91 168.231 195.153 165.258C190.396 162.286 173.234 155.491 144.32 154.429Z" fill="#FEF1F0"/>
<path d="M92.9894 125.139C85.834 126.226 83.2074 118.165 87.9172 114.995C92.6269 111.825 96.0689 105.575 96.0689 105.575C100.899 105.666 111.883 106.354 117.173 108.383C123.784 110.919 124.328 115.901 122.426 118.255C120.524 120.61 117.897 119.886 114.727 123.056C111.646 126.137 105.126 127.222 101.05 125.139C97.7898 123.473 94.8354 124.859 92.9894 125.139Z" fill="#5C414E"/>
<path d="M188.983 127.046C183.404 121.539 186.658 116.418 188.983 114.547C192.998 112.826 202.768 110.887 209.724 116.901C218.419 124.419 208.819 133.476 205.648 130.94C202.478 128.404 200.486 129.129 199.671 129.763C198.855 130.397 195.957 133.929 188.983 127.046Z" fill="#5C414E"/>
<path d="M116.431 21.5233C131.502 1.37974 157.641 7.75612 157.641 7.75612C157.641 7.75612 185.884 11.1984 196.679 33.2074C207.474 55.2164 210.899 73.15 250.207 98.6014C260.704 105.398 259.537 113.818 221.949 117.441C184.361 121.064 171.952 104.489 143.965 104.851C115.978 105.213 84.7299 118.528 60.9091 123.056C37.0882 127.585 37.6317 114.633 58.373 101.409C79.1143 88.1855 97.5913 46.7027 116.431 21.5233Z" fill="#2D5A9D"/>
<mask id="path-11-outside-1" maskUnits="userSpaceOnUse" x="0.0234375" y="0.797852" width="287" height="618" fill="black">
<rect fill="white" x="0.0234375" y="0.797852" width="287" height="618"/>
<path fill-rule="evenodd" clip-rule="evenodd" d="M157.641 7.75612C157.641 7.75612 131.502 1.37974 116.431 21.5233C109.918 30.2275 103.449 40.8801 96.9143 51.64C84.5461 72.0061 71.9443 92.7568 58.373 101.409C37.6317 114.633 37.0882 127.585 60.9091 123.056C68.7302 121.569 77.352 119.135 86.3961 116.524C84.0053 120.188 86.8067 126.078 92.9894 125.139C93.3774 125.08 93.8143 124.972 94.2927 124.854C96.0907 124.411 98.4751 123.823 101.05 125.139C101.372 125.303 101.708 125.448 102.057 125.573C101.6 130.432 101.223 136.305 101.126 142.801C100.971 153.175 104.238 156.046 107.321 156.141C106.699 156.939 106.157 157.67 105.706 158.306C104.77 158.629 104.023 158.935 103.467 159.207C98.0627 161.85 96.6327 164.723 100.145 165.919C88.6726 173.9 76.2995 176.888 70.2926 177.354C70.2492 177.714 70.2054 178.079 70.1613 178.45C60.7895 180.528 42.4044 191.548 38.4498 220.785C33.3776 258.282 31.2039 274.223 16.0781 295.055C24.0486 322.408 28.4867 334.182 47.8694 335.541C51.9803 335.541 55.0653 336.319 57.2539 337.294C54.9572 342.733 52.368 348.211 49.4626 353.565C30.6925 388.159 21.0829 423.026 19.4663 450.409C18.2328 471.304 14.9075 482.101 12.0443 491.397C11.1553 494.284 10.3108 497.026 9.58731 499.88C6.5338 511.929 3.39048 541.958 9.58731 545.609C14.6717 548.605 13.7102 551.232 11.961 556.011L11.9606 556.012C11.578 557.057 11.1577 558.206 10.7548 559.483C8.50959 566.603 17.0415 578.469 27.5491 580.294C38.0568 582.12 46.6785 582.85 46.4091 568.52C50.3607 569.98 64.9996 577.556 69.49 585.132L69.2722 585.161C62.2579 586.11 39.0473 589.251 47.7562 599.006C55.1974 607.34 60.1991 606.866 63.8468 606.521C64.5136 606.458 65.1351 606.399 65.718 606.399C67.5761 606.399 70.2659 605.225 73.8576 603.658C82.2443 599.999 95.5485 594.195 114.664 596.176C118.052 597.288 121.203 598.512 124.391 599.752L124.392 599.752L124.392 599.752C131.936 602.684 139.691 605.698 151.306 607.494C167.831 610.05 188.577 612.241 205.281 604.026C218.645 597.454 222.465 599.766 222.704 601.744C220.699 605.212 219.813 612.095 232.314 611.875C242.007 611.706 246.413 609.569 250.248 607.71C252.596 606.571 254.729 605.537 257.73 605.121C261.179 601.397 263.538 598.336 264.286 597.271L279.374 592.069C269.525 561.065 249.737 492.012 249.378 463.826C249.155 446.363 245.844 426.68 242.309 410.29L242.331 410.354C270.047 381.733 269.413 321.773 268.145 315.705C266.877 309.636 262.439 288.352 262.801 282.283C263.163 276.215 263.435 261.27 258.635 249.133C253.834 236.996 251.57 229.388 251.57 207.107C245.645 193.325 236.635 192.756 230.601 195.156C224.783 183.962 208.802 175.418 199.602 171.803C200.104 169.893 197.71 166.856 195.154 165.258C194.477 164.835 193.548 164.335 192.371 163.784C198.484 158.656 199.681 144.737 199.834 129.645C200.735 129.052 202.673 128.56 205.648 130.94C208.671 133.359 217.542 125.234 210.819 117.956C214.279 117.981 217.973 117.824 221.949 117.441C259.537 113.818 260.704 105.398 250.207 98.6014C216.61 76.8479 209.226 60.5863 201.05 42.5781C199.66 39.5168 198.247 36.4051 196.679 33.2074C185.884 11.1984 157.641 7.75612 157.641 7.75612Z"/>
</mask>
<path d="M116.431 21.5233L111.626 17.9288V17.9288L116.431 21.5233ZM157.641 7.75612L156.22 13.5852L156.564 13.6692L156.916 13.712L157.641 7.75612ZM96.9143 51.64L102.043 54.7545V54.7545L96.9143 51.64ZM58.373 101.409L61.5985 106.468L58.373 101.409ZM60.9091 123.056L62.0297 128.951L60.9091 123.056ZM86.3961 116.524L91.421 119.802L100.245 106.279L84.7315 110.759L86.3961 116.524ZM92.9894 125.139L93.8905 131.071L93.8905 131.071L92.9894 125.139ZM94.2927 124.854L95.7296 130.68H95.7296L94.2927 124.854ZM101.05 125.139L98.3198 130.482L98.3198 130.482L101.05 125.139ZM102.057 125.573L108.031 126.136L108.467 121.502L104.087 119.927L102.057 125.573ZM101.126 142.801L95.1265 142.711L101.126 142.801ZM107.321 156.141L112.052 159.832L119.324 150.508L107.505 150.144L107.321 156.141ZM105.706 158.306L107.661 163.979L109.488 163.349L110.604 161.771L105.706 158.306ZM103.467 159.207L106.103 164.596L106.103 164.596L103.467 159.207ZM100.145 165.919L103.571 170.845L113.315 164.067L102.08 160.24L100.145 165.919ZM70.2926 177.354L69.8285 171.372L64.9254 171.753L64.3359 176.635L70.2926 177.354ZM70.1613 178.45L71.4601 184.308L75.6161 183.386L76.1192 179.159L70.1613 178.45ZM38.4498 220.785L32.5039 219.98L38.4498 220.785ZM16.0781 295.055L11.223 291.53L9.49487 293.91L10.3177 296.733L16.0781 295.055ZM47.8694 335.541L47.4499 341.526L47.6594 341.541H47.8694V335.541ZM57.2539 337.294L62.7814 339.628L65.0702 334.207L59.6952 331.813L57.2539 337.294ZM49.4626 353.565L54.7363 356.427L54.7363 356.427L49.4626 353.565ZM19.4663 450.409L13.4768 450.055L19.4663 450.409ZM12.0443 491.397L17.7785 493.163H17.7785L12.0443 491.397ZM9.58731 499.88L15.4034 501.354H15.4034L9.58731 499.88ZM9.58731 545.609L6.54156 550.779H6.54158L9.58731 545.609ZM11.961 556.011L6.32657 553.949L6.31097 553.991L6.29602 554.034L11.961 556.011ZM11.9606 556.012L17.595 558.074L17.6106 558.032L17.6256 557.989L11.9606 556.012ZM10.7548 559.483L16.477 561.288H16.477L10.7548 559.483ZM27.5491 580.294L28.5761 574.383L27.5491 580.294ZM46.4091 568.52L48.4891 562.892L40.2449 559.845L40.4101 568.632L46.4091 568.52ZM69.49 585.132L70.2963 591.077L79.2678 589.861L74.6514 582.072L69.49 585.132ZM69.2722 585.161L70.0768 591.107L70.0784 591.107L69.2722 585.161ZM47.7562 599.006L52.2319 595.01H52.2319L47.7562 599.006ZM63.8468 606.521L64.4125 612.494H64.4128L63.8468 606.521ZM73.8576 603.658L71.4583 598.159H71.4583L73.8576 603.658ZM114.664 596.176L116.535 590.475L115.923 590.274L115.283 590.208L114.664 596.176ZM124.391 599.752L122.217 605.344L122.548 605.473L122.892 605.561L124.391 599.752ZM124.392 599.752L126.22 594.037L126.057 593.985L125.891 593.942L124.392 599.752ZM124.392 599.752L126.566 594.159L126.395 594.093L126.221 594.037L124.392 599.752ZM151.306 607.494L152.223 601.565H152.223L151.306 607.494ZM205.281 604.026L202.634 598.642H202.634L205.281 604.026ZM222.704 601.744L227.899 604.747L228.902 603.012L228.661 601.023L222.704 601.744ZM232.314 611.875L232.209 605.876H232.209L232.314 611.875ZM250.248 607.71L252.866 613.109H252.866L250.248 607.71ZM257.73 605.121L258.554 611.064L260.676 610.77L262.132 609.198L257.73 605.121ZM264.286 597.271L262.33 591.599L260.494 592.232L259.377 593.821L264.286 597.271ZM279.374 592.069L281.33 597.741L286.865 595.832L285.092 590.252L279.374 592.069ZM249.378 463.826L255.377 463.75L249.378 463.826ZM242.309 410.29L247.961 408.277L236.443 411.555L242.309 410.29ZM242.331 410.354L236.679 412.367L239.92 421.469L246.642 414.528L242.331 410.354ZM262.801 282.283L256.812 281.926V281.926L262.801 282.283ZM258.635 249.133L253.055 251.34L258.635 249.133ZM251.57 207.107H257.57V205.872L257.082 204.738L251.57 207.107ZM230.601 195.156L225.277 197.923L227.778 202.735L232.818 200.731L230.601 195.156ZM199.602 171.803L193.799 170.279L192.445 175.436L197.408 177.387L199.602 171.803ZM195.154 165.258L198.334 160.17L198.334 160.17L195.154 165.258ZM192.371 163.784L188.514 159.188L181.305 165.236L189.83 169.22L192.371 163.784ZM199.834 129.645L196.533 124.635L193.867 126.392L193.835 129.584L199.834 129.645ZM205.648 130.94L201.9 135.625L205.648 130.94ZM210.819 117.956L210.862 111.957L197.016 111.857L206.412 122.028L210.819 117.956ZM221.949 117.441L222.524 123.413L221.949 117.441ZM250.207 98.6014L246.947 103.638L250.207 98.6014ZM201.05 42.5781L206.513 40.0975V40.0975L201.05 42.5781ZM196.679 33.2074L191.292 35.8496V35.8496L196.679 33.2074ZM121.235 25.1177C127.465 16.7903 135.979 13.858 143.342 13.0501C147.027 12.6457 150.323 12.7918 152.693 13.0415C153.871 13.1657 154.803 13.3136 155.418 13.4251C155.725 13.4808 155.951 13.5271 156.088 13.5564C156.156 13.5711 156.202 13.5814 156.225 13.5866C156.236 13.5891 156.241 13.5904 156.24 13.5902C156.24 13.5901 156.238 13.5896 156.234 13.5888C156.233 13.5884 156.231 13.5879 156.228 13.5873C156.227 13.587 156.225 13.5865 156.224 13.5863C156.222 13.5858 156.22 13.5852 157.641 7.75612C159.063 1.92705 159.061 1.92642 159.058 1.92578C159.057 1.92553 159.054 1.92486 159.052 1.92437C159.048 1.92338 159.044 1.9223 159.039 1.92112C159.029 1.91877 159.018 1.91604 159.005 1.91296C158.979 1.9068 158.946 1.8992 158.907 1.89032C158.83 1.87254 158.727 1.84957 158.601 1.82243C158.347 1.76819 157.997 1.69719 157.56 1.61785C156.686 1.45935 155.458 1.26645 153.95 1.10759C150.948 0.791244 146.767 0.60222 142.033 1.12168C132.559 2.16141 120.467 6.11274 111.626 17.9288L121.235 25.1177ZM102.043 54.7545C108.618 43.9274 114.93 33.5437 121.235 25.1177L111.626 17.9288C104.906 26.9114 98.2796 37.8328 91.7859 48.5256L102.043 54.7545ZM61.5985 106.468C69.3622 101.519 76.4427 93.4151 82.9519 84.4398C89.516 75.3887 95.889 64.8875 102.043 54.7545L91.7859 48.5256C85.5714 58.7586 79.4593 68.8158 73.2377 77.3947C66.961 86.0493 60.955 92.6473 55.1475 96.35L61.5985 106.468ZM59.7884 117.162C54.176 118.229 50.7789 118.091 49.0758 117.642C48.2751 117.431 48.2197 117.248 48.422 117.451C48.7176 117.748 48.9005 118.2 48.9203 118.545C48.9339 118.78 48.9029 117.598 51.2087 114.931C53.3106 112.499 56.7331 109.57 61.5985 106.468L55.1475 96.35C49.6422 99.8599 45.2188 103.51 42.1297 107.084C39.2446 110.422 36.6775 114.675 36.9402 119.235C37.0846 121.742 38.0882 124.079 39.9172 125.917C41.6528 127.66 43.8434 128.673 46.0175 129.246C50.2639 130.365 55.7317 130.148 62.0297 128.951L59.7884 117.162ZM84.7315 110.759C75.6509 113.381 67.2917 115.735 59.7884 117.162L62.0297 128.951C70.1687 127.403 79.053 124.889 88.0607 122.288L84.7315 110.759ZM81.3712 113.245C76.1155 121.299 82.6416 132.78 93.8905 131.071L92.0884 119.207C91.5542 119.288 91.3758 119.188 91.4132 119.205C91.4388 119.216 91.4849 119.251 91.5138 119.296C91.5312 119.323 91.5455 119.356 91.5468 119.416C91.5484 119.488 91.5287 119.637 91.421 119.802L81.3712 113.245ZM93.8905 131.071C94.6041 130.963 95.3284 130.779 95.7296 130.68L92.8559 119.029C92.6039 119.091 92.4353 119.132 92.2871 119.166C92.1416 119.199 92.0874 119.207 92.0884 119.207L93.8905 131.071ZM95.7296 130.68C97.5968 130.219 97.931 130.283 98.3198 130.482L103.781 119.796C99.0192 117.363 94.5847 118.603 92.8558 119.029L95.7296 130.68ZM98.3198 130.482C98.8821 130.769 99.4539 131.013 100.027 131.219L104.087 119.927C103.963 119.882 103.862 119.838 103.781 119.796L98.3198 130.482ZM96.0836 125.011C95.613 130.009 95.2261 136.04 95.1265 142.711L107.125 142.89C107.22 136.569 107.586 130.855 108.031 126.136L96.0836 125.011ZM95.1265 142.711C95.042 148.372 95.8482 152.959 97.8275 156.35C100.025 160.115 103.474 162.026 107.136 162.139L107.505 150.144C107.654 150.149 107.896 150.197 108.129 150.338C108.361 150.478 108.344 150.564 108.191 150.301C107.805 149.64 107.055 147.604 107.125 142.89L95.1265 142.711ZM102.59 152.451C101.915 153.316 101.317 154.122 100.808 154.84L110.604 161.771C110.996 161.218 111.482 160.562 112.052 159.832L102.59 152.451ZM103.752 152.633C102.659 153.01 101.671 153.406 100.831 153.817L106.103 164.596C106.375 164.463 106.88 164.248 107.661 163.979L103.752 152.633ZM100.831 153.817C99.2119 154.608 97.7232 155.497 96.4656 156.486C95.2773 157.42 93.9396 158.72 93.0865 160.441C92.1431 162.344 91.7005 165.085 93.2214 167.729C94.5386 170.019 96.7012 171.085 98.2106 171.599L102.08 160.24C101.833 160.156 102.857 160.414 103.624 161.746C104.041 162.471 104.247 163.305 104.226 164.126C104.205 164.9 103.989 165.466 103.838 165.77C103.579 166.293 103.392 166.304 103.882 165.919C104.303 165.588 105.02 165.126 106.103 164.596L100.831 153.817ZM96.719 160.994C86.2114 168.303 74.8855 170.98 69.8285 171.372L70.7567 183.336C77.7135 182.797 91.1337 179.497 103.571 170.845L96.719 160.994ZM64.3359 176.635C64.292 176.998 64.2478 177.367 64.2033 177.741L76.1192 179.159C76.1629 178.792 76.2063 178.43 76.2493 178.074L64.3359 176.635ZM68.8624 172.592C57.1354 175.193 36.8091 188.153 32.5039 219.98L44.3956 221.589C47.9997 194.944 64.4435 185.864 71.4601 184.308L68.8624 172.592ZM32.5039 219.98C27.408 257.654 25.3352 272.094 11.223 291.53L20.9333 298.58C37.0726 276.352 39.3473 258.91 44.3956 221.589L32.5039 219.98ZM10.3177 296.733C14.2221 310.133 17.565 320.966 22.7632 328.464C25.4883 332.395 28.8017 335.557 33.0472 337.796C37.2469 340.01 42.0266 341.146 47.4499 341.526L48.2889 329.556C44.0208 329.257 40.9773 328.411 38.6443 327.181C36.3572 325.975 34.4287 324.229 32.6252 321.628C28.766 316.061 25.9046 307.33 21.8386 293.376L10.3177 296.733ZM47.8694 341.541C51.2171 341.541 53.4606 342.172 54.8126 342.775L59.6952 331.813C56.6701 330.465 52.7435 329.541 47.8694 329.541V341.541ZM51.7264 334.96C49.496 340.242 46.99 345.541 44.1889 350.704L54.7363 356.427C57.7461 350.88 60.4184 345.224 62.7814 339.628L51.7264 334.96ZM44.1889 350.704C25.0558 385.966 15.1517 421.683 13.4768 450.055L25.4559 450.762C27.014 424.369 36.3291 390.351 54.7363 356.427L44.1889 350.704ZM13.4768 450.055C12.2824 470.286 9.09959 480.574 6.31009 489.631L17.7785 493.163C20.7154 483.627 24.1831 472.322 25.4559 450.762L13.4768 450.055ZM6.31009 489.631C5.42823 492.494 4.53807 495.38 3.77119 498.406L15.4034 501.354C16.0835 498.671 16.8823 496.073 17.7785 493.163L6.31009 489.631ZM3.77119 498.406C2.12696 504.894 0.530773 515.831 0.123593 525.645C-0.0797725 530.547 -0.000378609 535.45 0.610375 539.511C0.914347 541.531 1.38435 543.587 2.1504 545.412C2.87671 547.143 4.1657 549.379 6.54156 550.779L12.6331 540.44C13.4597 540.927 13.4914 541.426 13.2154 540.768C12.9792 540.206 12.7019 539.222 12.4769 537.726C12.0296 534.752 11.9237 530.711 12.1133 526.143C12.4919 517.017 13.9942 506.915 15.4034 501.354L3.77119 498.406ZM6.54158 550.779C7.45705 551.318 7.69207 551.609 7.67553 551.589C7.57621 551.466 7.41094 551.15 7.3717 550.788C7.34744 550.564 7.41068 550.624 7.24462 551.249C7.0724 551.896 6.79089 552.68 6.32657 553.949L17.5955 558.073C18.0057 556.952 18.5004 555.616 18.8415 554.333C19.1888 553.027 19.5026 551.347 19.3018 549.495C18.8308 545.15 15.9184 542.376 12.633 540.44L6.54158 550.779ZM6.29602 554.034L6.29564 554.035L17.6256 557.989L17.626 557.988L6.29602 554.034ZM6.32622 553.95C5.94702 554.986 5.48197 556.254 5.03262 557.679L16.477 561.288C16.8335 560.157 17.209 559.129 17.595 558.074L6.32622 553.95ZM5.03262 557.679C3.03661 564.008 5.97364 570.836 9.62727 575.55C13.4782 580.518 19.4606 584.979 26.5221 586.206L28.5761 574.383C25.13 573.784 21.5926 571.399 19.112 568.198C16.4341 564.743 16.2278 562.078 16.477 561.288L5.03262 557.679ZM26.5221 586.206C29.1608 586.664 32.0012 587.114 34.7008 587.234C37.3713 587.352 40.4039 587.179 43.2579 586.033C46.3219 584.801 48.8456 582.577 50.4474 579.29C51.9529 576.199 52.485 572.505 52.408 568.407L40.4101 568.632C40.4678 571.7 40.0232 573.287 39.6596 574.034C39.3923 574.582 39.1544 574.749 38.7831 574.898C38.2019 575.132 37.1257 575.33 35.2328 575.246C33.369 575.163 31.1913 574.837 28.5761 574.383L26.5221 586.206ZM44.3291 574.147C45.7909 574.688 50.0463 576.722 54.5086 579.583C59.1444 582.556 62.8566 585.708 64.3286 588.191L74.6514 582.072C71.633 576.98 65.7805 572.556 60.9863 569.482C56.0187 566.296 50.9788 563.812 48.4891 562.892L44.3291 574.147ZM68.6838 579.186L68.4659 579.216L70.0784 591.107L70.2963 591.077L68.6838 579.186ZM68.4675 579.215C65.1018 579.671 56.8369 580.761 50.4879 583.172C47.5491 584.288 43.5699 586.195 41.3837 589.659C40.128 591.648 39.5114 594.085 39.9888 596.719C40.4358 599.186 41.7414 601.278 43.2805 603.002L52.2319 595.01C51.5938 594.295 51.7196 594.155 51.7964 594.579C51.9037 595.171 51.7264 595.755 51.5316 596.063C51.4672 596.165 52.0961 595.398 54.7481 594.391C59.5808 592.555 66.4283 591.601 70.0768 591.107L68.4675 579.215ZM43.2805 603.002C47.4742 607.699 51.4203 610.406 55.324 611.709C59.2563 613.022 62.5297 612.673 64.4125 612.494L63.2811 600.548C61.5162 600.715 60.4649 600.775 59.1241 600.327C57.7547 599.87 55.4794 598.647 52.2319 595.01L43.2805 603.002ZM64.4128 612.494C65.1458 612.425 65.4721 612.399 65.718 612.399V600.399C64.7982 600.399 63.8814 600.491 63.2809 600.548L64.4128 612.494ZM65.718 612.399C67.7379 612.399 69.6905 611.796 71.1772 611.259C72.7522 610.69 74.5193 609.916 76.2569 609.158L71.4583 598.159C69.6042 598.968 68.2305 599.564 67.0983 599.974C65.8776 600.415 65.5562 600.399 65.718 600.399V612.399ZM76.2569 609.158C84.4599 605.579 96.5547 600.331 114.046 602.144L115.283 590.208C94.5423 588.059 80.0287 594.42 71.4583 598.159L76.2569 609.158ZM112.794 601.877C116.005 602.931 119.01 604.097 122.217 605.344L126.565 594.159C123.396 592.927 120.099 591.645 116.535 590.475L112.794 601.877ZM122.892 605.561L122.892 605.561L125.891 593.942L125.89 593.942L122.892 605.561ZM122.563 605.466L122.564 605.466L126.221 594.037L126.22 594.037L122.563 605.466ZM122.219 605.344C129.825 608.301 138.091 611.522 150.389 613.424L152.223 601.565C141.291 599.874 134.047 597.067 126.566 594.159L122.219 605.344ZM150.389 613.424C166.779 615.959 189.326 618.558 207.929 609.41L202.634 598.642C187.828 605.923 168.883 604.141 152.223 601.565L150.389 613.424ZM207.929 609.41C214.333 606.261 217.633 605.677 218.906 605.679C219.496 605.68 219.155 605.807 218.48 605.366C217.696 604.854 216.915 603.843 216.748 602.465L228.661 601.023C228.374 598.656 227.026 596.615 225.041 595.318C223.164 594.093 220.989 593.682 218.923 593.679C214.885 593.673 209.593 595.219 202.634 598.642L207.929 609.41ZM217.51 598.74C216.115 601.153 214.254 606.101 216.73 610.93C219.441 616.217 225.498 617.996 232.419 617.875L232.209 605.876C229.569 605.923 228.158 605.576 227.517 605.315C226.979 605.096 227.195 605.039 227.408 605.455C227.58 605.79 227.499 605.953 227.535 605.713C227.574 605.456 227.702 605.087 227.899 604.747L217.51 598.74ZM232.419 617.875C243.284 617.684 248.573 615.19 252.866 613.109L247.63 602.311C244.254 603.948 240.73 605.727 232.209 605.876L232.419 617.875ZM252.866 613.109C255.226 611.964 256.593 611.336 258.554 611.064L256.906 599.178C252.865 599.738 249.965 601.179 247.63 602.311L252.866 613.109ZM262.132 609.198C265.734 605.309 268.269 602.04 269.195 600.721L259.377 593.821C258.807 594.633 256.624 597.485 253.328 601.044L262.132 609.198ZM266.242 602.944L281.33 597.741L277.418 586.396L262.33 591.599L266.242 602.944ZM285.092 590.252C280.197 574.842 272.823 549.946 266.635 525.423C260.389 500.67 255.547 477.028 255.377 463.75L243.378 463.903C243.568 478.811 248.799 503.788 255 528.359C261.258 553.16 268.702 578.292 273.656 593.885L285.092 590.252ZM255.377 463.75C255.147 445.692 251.738 425.553 248.174 409.025L236.443 411.555C239.949 427.808 243.163 447.034 243.378 463.903L255.377 463.75ZM236.656 412.303L236.679 412.367L247.984 408.341L247.961 408.277L236.656 412.303ZM246.642 414.528C261.808 398.866 268.826 375.202 272.029 355.537C273.652 345.572 274.34 336.344 274.541 329.198C274.736 322.316 274.497 316.772 274.018 314.478L262.272 316.932C262.268 316.914 262.284 316.99 262.31 317.193C262.334 317.385 262.362 317.643 262.391 317.971C262.448 318.629 262.501 319.497 262.541 320.563C262.62 322.692 262.641 325.512 262.546 328.86C262.357 335.557 261.709 344.246 260.185 353.608C257.093 372.594 250.57 393.221 238.021 406.18L246.642 414.528ZM274.018 314.478C273.384 311.444 271.974 304.682 270.768 297.938C270.164 294.562 269.622 291.246 269.254 288.434C268.867 285.475 268.738 283.523 268.79 282.641L256.812 281.926C256.683 284.078 256.972 287.062 257.355 289.99C257.758 293.065 258.336 296.587 258.955 300.05C260.195 306.983 261.637 313.897 262.272 316.932L274.018 314.478ZM268.79 282.641C269.16 276.444 269.529 260.366 264.214 246.927L253.055 251.34C257.34 262.175 257.166 275.985 256.812 281.926L268.79 282.641ZM264.214 246.927C261.856 240.964 260.258 236.451 259.199 230.816C258.13 225.129 257.57 218.072 257.57 207.107H245.57C245.57 218.424 246.142 226.311 247.405 233.033C248.678 239.807 250.613 245.166 253.055 251.34L264.214 246.927ZM257.082 204.738C253.701 196.872 249.024 191.859 243.439 189.527C237.891 187.21 232.458 187.96 228.383 189.58L232.818 200.731C234.777 199.952 236.866 199.786 238.814 200.6C240.723 201.397 243.514 203.561 246.058 209.477L257.082 204.738ZM235.925 192.389C232.343 185.498 225.94 179.883 219.74 175.673C213.436 171.394 206.732 168.158 201.797 166.218L197.408 177.387C201.672 179.063 207.558 181.907 212.999 185.601C218.544 189.366 223.041 193.62 225.277 197.923L235.925 192.389ZM205.406 173.327C205.925 171.349 205.589 169.549 205.167 168.292C204.734 167 204.075 165.861 203.407 164.927C202.084 163.074 200.263 161.376 198.334 160.17L191.974 170.347C192.257 170.523 192.58 170.77 192.897 171.067C193.215 171.364 193.469 171.658 193.642 171.9C193.83 172.164 193.835 172.242 193.79 172.107C193.756 172.006 193.53 171.302 193.799 170.279L205.406 173.327ZM198.334 160.17C197.394 159.583 196.239 158.969 194.911 158.349L189.83 169.22C190.858 169.7 191.559 170.087 191.974 170.347L198.334 160.17ZM196.227 168.381C201.004 164.373 203.119 157.748 204.242 151.515C205.419 144.988 205.757 137.317 205.834 129.706L193.835 129.584C193.759 137.066 193.421 143.9 192.432 149.387C191.39 155.169 189.85 158.067 188.514 159.188L196.227 168.381ZM203.135 134.656C202.854 134.841 202.545 134.984 202.216 135.069C201.878 135.157 201.576 135.17 201.345 135.146C200.876 135.097 201.049 134.944 201.9 135.625L209.397 126.255C207.273 124.556 204.989 123.459 202.582 123.21C200.111 122.954 198.032 123.648 196.533 124.635L203.135 134.656ZM201.9 135.625C205.284 138.332 209.204 137.327 211.206 136.396C213.468 135.345 215.465 133.541 216.884 131.408C218.333 129.23 219.391 126.385 219.268 123.167C219.142 119.857 217.783 116.653 215.226 113.885L206.412 122.028C207.216 122.899 207.27 123.439 207.277 123.624C207.287 123.9 207.199 124.3 206.893 124.761C206.744 124.984 206.573 125.176 206.41 125.32C206.24 125.47 206.137 125.52 206.148 125.514C206.158 125.509 206.224 125.48 206.346 125.449C206.466 125.418 206.674 125.378 206.957 125.375C207.553 125.37 208.503 125.541 209.397 126.255L201.9 135.625ZM221.373 111.468C217.596 111.832 214.109 111.98 210.862 111.957L210.776 123.956C214.45 123.983 218.35 123.815 222.524 123.413L221.373 111.468ZM246.947 103.638C248.019 104.332 248.802 104.959 249.333 105.483C249.883 106.026 250.009 106.307 249.999 106.285C249.956 106.186 249.82 105.749 249.96 105.173C250.089 104.647 250.318 104.544 250.032 104.809C249.289 105.498 247.11 106.795 242.141 108.13C237.35 109.416 230.589 110.58 221.373 111.468L222.524 123.413C232.102 122.49 239.582 121.242 245.254 119.719C250.748 118.243 255.252 116.331 258.187 113.613C259.74 112.174 261.058 110.318 261.619 108.014C262.193 105.661 261.835 103.421 261.013 101.521C259.51 98.0471 256.366 95.441 253.468 93.565L246.947 103.638ZM195.587 45.0586C199.665 54.0404 203.81 63.2166 211.37 72.8819C218.945 82.5659 229.737 92.4953 246.947 103.638L253.468 93.565C237.08 82.9539 227.382 73.8758 220.822 65.4886C214.247 57.0826 210.611 49.124 206.513 40.0975L195.587 45.0586ZM191.292 35.8496C192.815 38.9547 194.192 41.9867 195.587 45.0586L206.513 40.0975C205.128 37.047 203.679 33.8556 202.066 30.5652L191.292 35.8496ZM157.641 7.75612C156.916 13.712 156.914 13.7118 156.912 13.7116C156.911 13.7115 156.909 13.7113 156.908 13.7112C156.906 13.7109 156.905 13.7107 156.904 13.7106C156.902 13.7103 156.901 13.7102 156.902 13.7104C156.904 13.7107 156.913 13.7118 156.928 13.7138C156.958 13.7179 157.014 13.7255 157.094 13.7372C157.255 13.7606 157.512 13.8002 157.854 13.8594C158.54 13.9779 159.564 14.1744 160.841 14.4766C163.404 15.0832 166.928 16.1027 170.744 17.7415C178.466 21.0579 186.773 26.6364 191.292 35.8496L202.066 30.5652C195.789 17.7695 184.577 10.6223 175.48 6.7153C170.885 4.74236 166.675 3.52577 163.605 2.79919C162.065 2.43473 160.799 2.19037 159.898 2.03467C159.447 1.95676 159.087 1.90086 158.828 1.8631C158.699 1.84422 158.595 1.82985 158.518 1.81953C158.479 1.81437 158.447 1.81022 158.422 1.80702C158.409 1.80542 158.399 1.80406 158.389 1.80292C158.385 1.80235 158.381 1.80185 158.377 1.80139C158.375 1.80117 158.373 1.80087 158.372 1.80075C158.37 1.80047 158.367 1.8002 157.641 7.75612Z" fill="white" mask="url(#path-11-outside-1)"/>
</svg>
