<svg width="566" height="789" fill="none" xmlns="http://www.w3.org/2000/svg"><g filter="url(#filter0_d)"><path d="M232.722 926.049s.47 2.978 1.254 8.308c5.174 35.269 26.339 172.433 42.644 206.443 18.813 39.19 23.517 147.35 37.627 192.81 14.11 45.46 58.008 18.81 50.169-17.24-7.839-36.06-18.813-126.98-1.568-189.68 17.246-62.7-3.135-137.94 6.272-142.642 9.406-4.703 17.402 153.932 18.813 177.132 1.881 28.68 18.97 199.08 54.873 197.51 36.059-1.57 17.245-97.19 4.703-239.83-5.644-64.43 51.737-159.893 50.169-199.081-1.567-39.189 15.678-70.54 14.11-97.188-1.567-26.648-5.173-72.42-31.669-91.857-26.339-19.438-104.728-49.221-104.728-49.221l-82.623 49.221-67.885 62.074M230.05 379.45c-10.817 7.211-48.915 33.702-49.071 50.475 0 3.448 2.665 6.426 5.957 6.583 10.818.314 5.174-26.961 22.106-18.183 18.813 9.718 20.381 10.659 38.568 35.426.156.314.313.47.47.784 1.254 2.351 9.25 14.108 26.182-18.811 15.835-30.88-26.025-51.572-38.254-56.744-1.881-.941-4.076-.784-5.958.47z" fill="#2D5A9D"/><path d="M376.951 363.304s-25.869 90.133-32.14 88.566c-6.271-1.568-69.767-8.621-69.767-8.621l-23.517-70.54 125.424-9.405z" fill="#FACBBD"/><path opacity=".14" d="M378.518 358.602s-27.436 96.403-33.707 94.835c-6.271-1.567-71.335-19.594-71.335-19.594l-21.949-59.566 126.991-15.675z" fill="#F37880"/><path d="M211.709 283.987l17.559 74.928.471 2.822c3.135 21.946 42.487 20.535 57.851 18.967 15.678-1.567 65.847-12.54 84.661-14.108 18.813-1.567 37.627-5.956 37.627-26.648 0-20.378 4.703-29.783 9.407-54.863 3.449-18.497 12.542-48.594 6.271-54.864-6.271-6.27-134.83-62.702-174.025-26.648-31.199 28.842-38.568 60.507-40.292 72.263-.314 2.508-.157 5.33.47 8.151z" fill="#FACBBD"/><path opacity=".22" d="M348.738 253.576s-1.568 42.167-1.568 50.161c0 7.838 1.568 26.649-6.271 18.811-7.839-7.838-15.051-16.302-12.542-18.811 1.567-1.567 14.11-39.188 14.11-45.458 0-6.27 6.271-7.838 6.271-4.703z" fill="#F37880"/><path d="M364.41 281.792s9.407-10.973 23.517-10.973 26.653 1.568 20.381 7.838c-6.271 6.27-20.381 10.973-28.22 9.405-7.839-1.567-18.813-3.135-15.678-6.27zM237.423 295.9s12.542-15.675 28.22-17.243c15.678-1.567 36.06 1.568 29.788 6.27-6.271 4.703-17.245 17.243-32.923 17.243s-28.22-4.702-25.085-6.27z" fill="#FEF1F0"/><path d="M322.077 344.493s-28.22 3.135-20.381 6.27c7.839 3.135 10.975 0 18.813 0 7.839 0 29.788-3.135 21.95-4.702-7.839-1.568-17.246-1.568-20.382-1.568z" fill="#F37880"/><path d="M369.115 253.577s18.814-20.378 26.653-17.243c7.839 3.135 18.813 4.702 25.084 6.27 6.271 1.567 20.382 7.838 6.271 9.405-14.11 1.568-25.084 6.27-32.923 4.703-7.839-1.568-25.085 3.135-25.085-3.135z" fill="#5C414E"/><path d="M393.26 270.819s.94 16.459 4.076 14.578c3.136-2.037 13.953-6.113 12.542-10.345-1.567-4.233-16.618-4.233-16.618-4.233zM278.182 278.343s-10.348 13.951-1.254 20.535c8.309-4.703 16.618-10.189 19.283-13.481.784-.94.627-2.194-.156-3.135-1.411-1.411-4.39-2.978-17.873-3.919z" fill="#2C1E24"/><path d="M207.635 283.359s1.568 40.756 7.839 42.324c6.271 1.567 14.11 3.135 14.11 0s-3.136-12.54-4.704-21.946c-1.567-9.405-10.974-31.35-10.974-31.35l-6.271 10.972z" fill="#5C414E"/><path d="M113.721 296.371c1.881-.157 3.919 0 5.644.783 11.131 4.703 55.656 18.811 107.08-23.199 59.576-48.594 89.677-76.026 202.402-28.686 108.02 30.724 126.834.47 112.724-24.61-14.111-25.081-15.678 20.378-75.254-67.404-59.576-87.782-78.39-131.673-175.593-133.241-97.203-1.567-130.126 128.538-147.372 214.752 0 0-20.224 38.875-42.487 49.064-2.352 1.098-4.076 3.449-3.92 5.957.314 7.367 11.445 7.054 16.776 6.584z" fill="#2D5A9D"/><path d="M184.117 567.084s6.271 67.404 6.271 94.052c0 39.188-58.008 128.538-58.008 128.538s-37.627 73.674-34.492 148.915c-17.245 90.921-25.084 141.081-59.576 203.781-34.491 62.7-9.406 191.24 6.271 211.62 15.678 20.37 4.704 28.21 25.085 25.08 20.381-3.14 47.034-34.49 153.643-9.41 31.356-17.24-14.11-50.16 4.704-98.75 18.813-50.16-59.576-260.21 4.703-344.861 64.28-84.647 87.796-245.946 79.957-285.135-7.838-39.188-18.813-189.828-43.898-193.747-25.084-3.919-28.22-5.486-28.22-5.486l-73.686 51.728 17.246 73.675zM519.624 487.139c-10.974-23.513-68.983-14.265-89.364-75.242 0 0-1.568-25.08-20.381-7.837 0 0 .157 1.097.627 3.135h-6.898l-31.356 12.54 14.11 31.351 56.441 72.106 3.919 14.892c13.169 65.053 28.691 168.667 43.114 210.833 6.271 9.406-7.839-54.863 6.271-84.647 28.221-68.971 36.06-166.158 23.517-177.131z" fill="#4B78BC"/><path d="M388.555 716.47s5.017-4.389-27.907 19.124c-32.924 23.513-78.39 68.972-75.254 51.729 3.136-17.243 5.331-146.251 16.775-146.878 11.445-.627 69.454-63.172 77.292-78.847 7.839-15.675 10.975-12.07 12.543-4.546 1.568 7.524 34.491 100.166 20.381 118.976-14.11 18.81-21.008 41.853-23.83 40.442z" fill="#2D5A9D"/><path d="M387.461 546.549c.314 4.233-.627 8.465-2.665 12.07-14.424 25.238-73.529 125.56-72.118 88.566 1.568-42.323-56.598-215.066-61.928-236.854 4.86-24.924 93.284 25.08 93.284 25.08s35.902 23.983 43.427 111.138z" fill="#E2D9D9"/><path d="M478.862 664.271s-1.568 14.108-15.678-10.973c-14.11-25.08-45.466-75.241-84.661-109.727-4.703-9.405-47.033-103.458-37.627-109.728 9.407-6.27 39.195-12.54 50.17 1.568 12.542 10.973 73.686 65.836 87.796 228.86z" fill="#FEF1F0"/><path d="M330.392 424.752c.94-.784 1.881-1.411 2.508-2.352 7.525-10.502 42.174-58.469 51.894-52.825 10.347 5.956 44.055 25.55 54.559 26.648 1.568.156 2.979.94 4.076 2.037 6.428 6.584 2.509 10.503-13.169 10.503-17.246 0-47.034 15.675-51.737 23.513-4.704 7.838-37.627 7.838-40.763 4.703-2.665-2.822-9.25-10.66-7.368-12.227z" fill="#F37880"/><path d="M320.986 438.075c9.25-.47 14.58-10.973 9.25-18.654-6.585-9.248-16.932-19.124-33.394-23.356-27.907-7.211-34.178-1.411-46.407-9.405-9.25-6.114-20.694 3.605-16.148 13.637 2.979 6.427 8.78 14.578 19.127 24.611 17.246 16.772 47.347 14.107 67.572 13.167z" fill="#F37880"/><path d="M260.94 441.682s-61.143 42.323-53.304 51.728c7.838 9.405 106.609 169.294 106.609 161.456 0-7.837-28.22-219.455-53.305-213.184z" fill="#4B78BC"/><path d="M258.741 451.087c.313-5.33-3.763-9.876-8.937-10.189-22.262-1.097-77.135-1.881-97.046 14.264-25.084 20.535-42.33 73.988-54.872 116.468-12.543 42.324-31.2 100.793 21.165 135.122.47.313.94.627 1.568.783 67.258 29.47 190.956 2.509 236.893-17.869l1.411-.471c25.241-6.583 39.978-9.248 48.131-10.189 5.017-.627 8.779-5.173 8.309-10.189l-2.979-34.642c-.47-5.957-6.428-10.032-12.072-8.308-13.326 3.919-35.902 9.719-51.58 8.778-23.517-1.411-105.042 4.076-119.152 4.076s-39.195 5.486-39.195-2.665 4.704-15.048 4.704-30.097c0-14.108 26.339-65.836 29.474-71.95.157-.47.47-.783.784-1.254l29.318-41.069c1.097-1.411 1.567-3.135 1.724-4.859l2.352-35.74z" fill="#2D5A9D"/><path d="M263.135 250.913c-1.725.627-3.606.783-5.488.47-4.389-.784-10.817.627-13.953.627-4.39 0-7.839 3.135-10.975 9.405-3.135 6.27-14.11 9.405 1.568 9.405 15.678 0 70.551-12.54 62.712-17.243-7.839-4.702-7.839-1.567-20.381-3.135-7.212-.94-11.445-.156-13.483.471z" fill="#5C414E"/><path d="M368.332 165.794c16.019 0 29.004-12.983 29.004-28.999s-12.985-29-29.004-29c-16.018 0-29.004 12.984-29.004 29s12.986 28.999 29.004 28.999z" fill="#F37880"/><path d="M383.852 115.32l38.41-27.275 13.327 19.751-42.958 17.243-8.779-9.719z" fill="#F37880"/><path d="M260.311 442.151s-.941 8.308-1.725 11.757c-.784 3.448-5.487 3.448-5.487 3.448l-2.038-12.853 9.25-2.352z" fill="#2D5A9D"/><path d="M386.36 554.544s21.949 47.026 12.543 95.62c-9.407 48.593-17.246 75.242-9.407 76.809 7.839 1.568 92.499 0 145.804 75.242 17.246 7.837-28.22-43.891-31.355-65.837-3.136-21.945-51.738-125.403-95.636-163.023-15.678-21.946-21.949-26.649-21.949-18.811z" fill="#4B78BC"/><mask id="a" maskUnits="userSpaceOnUse" x="10" y="9" width="546" height="1381" fill="#000"><path fill="#fff" d="M10 9h546v1381H10z"/><path fill-rule="evenodd" clip-rule="evenodd" d="M119.366 297.154c-1.725-.783-3.763-.94-5.645-.783-5.33.47-16.461.783-16.775-6.584-.157-2.508 1.568-4.859 3.92-5.957 22.262-10.189 42.487-49.064 42.487-49.064 17.245-86.214 50.169-216.32 147.372-214.752 69.153 1.115 98.631 23.652 131.337 68.174l.201-.143 4.321 6.404c7.362 10.354 14.981 21.796 23.329 34.334l.001.002.007.009c5.15 7.736 10.579 15.889 16.396 24.461 38.786 57.147 52.985 57.824 62.066 58.257 4.867.232 8.264.394 13.188 9.147 14.11 25.08-4.703 55.334-112.724 24.61l-1.516-.634-.027.244c5.578 2.49 9.9 6.01-.18 7.13-.298.033-.594.068-.889.104-1.041 5.94-2.495 12.411-3.889 18.614v.001c-1.15 5.116-2.259 10.051-3.062 14.357-1.587 8.466-3.175 15.146-4.582 21.065-2.76 11.615-4.824 20.299-4.824 33.798 0 19.198-16.195 24.362-33.559 26.26-.615 2.108-1.343 4.586-2.16 7.347 4.506-3.589 8.294-5.34 10.636-3.981l1.11.64h.001c11.458 6.603 43.294 24.948 53.448 26.008 1.567.157 2.978.941 4.076 2.038 6.428 6.584 2.508 10.503-13.17 10.503l-.435.003c.352 1.818.434 3.131.434 3.131 12.721 38.059 40.1 48.761 61.552 57.146 12.918 5.049 23.688 9.259 27.812 18.096 12.543 10.973 4.704 108.16-23.516 177.131-4.239 8.947-5.931 21.006-6.394 33.244 8.047 17.778 13.272 32.143 14.232 38.864 1.537 10.758 13.245 28.672 22.753 43.218 9.888 15.128 17.395 26.614 8.603 22.619-9.707-13.702-20.454-24.857-31.588-33.947 5.704 18.814 7.204 39.52 8.075 54.323.721 12.255-2.536 25.503-6.113 40.051-4.202 17.088-8.844 35.969-7.997 57.137.666 16.646-9.304 43.445-20.562 73.706v.001c-15.246 40.984-32.854 88.314-29.607 125.374 2.48 28.21 5.206 54.58 7.704 78.75 10.133 98.04 16.52 159.82-12.408 161.08-35.902 1.57-52.991-168.83-54.872-197.51-.13-2.13-.315-5.4-.551-9.58-2.34-41.36-9.719-171.823-18.263-167.552-3.76 1.88-2.76 15.033-1.307 34.152 2.183 28.7 5.387 70.86-4.964 108.49-17.246 62.7-6.271 153.62 1.568 189.68 7.839 36.05-36.059 62.7-50.17 17.24-6.113-19.7-10.46-51.16-14.954-83.68-5.879-42.55-12.01-86.92-22.673-109.13-16.305-34.01-37.47-171.174-42.643-206.443-.784-5.33-1.255-8.308-1.255-8.308v-.004l-.003.004c-40.516 53.355-24.35 156.531-11.572 238.091 7.495 47.83 13.824 88.22 6.869 106.77-9.219 23.81-3.004 43.85 2.044 60.14 5.254 16.95 9.244 29.82-6.748 38.61-83.199-19.57-117.701-4.78-138.53 4.16-5.86 2.51-10.638 4.56-15.113 5.25-12.453 1.91-13.2-.27-15.473-6.9-1.447-4.23-3.513-10.26-9.612-18.18-15.677-20.38-40.762-148.92-6.27-211.62 32.2-58.54 41.171-106.15 56.254-186.195l.003-.016.011-.059c1.068-5.669 2.167-11.501 3.307-17.511-3.135-75.241 34.492-148.916 34.492-148.916s22.474-34.616 39.444-70.206c-18.85-1.69-36.396-5.443-51.205-11.932-.627-.156-1.098-.47-1.568-.783-51.304-33.634-34.434-90.441-21.934-132.531l.769-2.591c12.542-42.48 29.788-95.933 54.872-116.468 16.885-13.691 58.909-15.209 84.87-14.685-9.738-12.337-13.926-14.58-28.585-22.152-9.722-5.04-12.001 1.805-14.227 8.489-1.651 4.958-3.272 9.828-7.879 9.694-3.292-.157-5.958-3.135-5.958-6.584.157-16.772 38.254-43.264 49.072-50.474 1.881-1.254 4.076-1.411 5.958-.47 4.054 1.715 11.365 5.135 18.751 10.067.857.383 1.7.704 2.54.975l-.284-.85-3.397-9.218c-11.957-2.241-22.332-7.382-23.88-18.217l-.471-2.821-7.466-31.86c-2.057-.348-4.276-.861-6.328-1.373-5.11-1.278-7.097-28.579-7.658-38.642-43.251 25.593-78.69 14.237-88.45 10.113zM312 634.963l-.079.06h-.002c-.442-3.298-.942-6.931-1.497-10.846.662 3.881 1.194 7.491 1.578 10.786z"/></mask><path d="M113.721 296.371l-.83-9.966-.048.004.878 9.962zm5.645.783l-4.138 9.104c.082.037.163.073.246.108l3.892-9.212zm-22.42-7.367l9.991-.425a12.616 12.616 0 00-.01-.199l-9.98.624zm3.92-5.957l-4.162-9.093-.067.031 4.229 9.062zm42.487-49.064l8.871 4.616c.435-.837.75-1.73.934-2.654l-9.805-1.962zM290.725 20.014l.161-9.999-.161 9.999zm131.337 68.174l-8.059 5.92a10 10 0 0013.848 2.233l-5.789-8.153zm.201-.143l8.29-5.593a10.003 10.003 0 00-14.08-2.56l5.79 8.153zm4.321 6.404l-8.289 5.594c.045.067.092.135.139.201l8.15-5.795zm23.329 34.334l8.359-5.489-.035-.053-8.324 5.542zm.001.002l-8.358 5.489.05.076 8.308-5.565zm.007.009l8.323-5.542-.015-.023-8.308 5.565zm16.396 24.461l-8.274 5.615 8.274-5.615zm62.066 58.257l-.476 9.989.476-9.989zm13.188 9.147l8.716-4.904-8.716 4.904zm-112.724 24.61l-3.872 9.22c.371.155.75.288 1.136.398l2.736-9.618zm-1.516-.634l3.847-9.231a10 10 0 00-13.786 8.135l9.939 1.096zm-.027.244l-9.936-1.124a10 10 0 005.859 10.255l4.077-9.131zm-.18 7.13l-1.104-9.939 1.104 9.939zm-.889.104l-1.204-9.928a10 10 0 00-8.646 8.201l9.85 1.727zm-3.889 18.614l-9.757-2.193a.155.155 0 01-.005.023l9.762 2.17zm0 .001l9.757 2.192.005-.023-9.762-2.169zm-3.062 14.357l9.829 1.843.002-.01-9.831-1.833zm-4.582 21.065l-9.729-2.312 9.729 2.312zm-38.383 60.058l-1.086-9.941a10 10 0 00-8.513 7.139l9.599 2.802zm-2.16 7.347l-9.589-2.84a10 10 0 0015.818 10.663l-6.229-7.823zm10.636-3.981l-5.021 8.649.031.018 4.99-8.667zm1.11.64l5.145-8.575-.152-.089-4.993 8.664zm.001 0l-5.145 8.575c.05.031.101.061.152.09l4.993-8.665zm53.448 26.008l-1.039 9.946.044.005.995-9.951zm4.076 2.038l7.155-6.986-.085-.086-7.07 7.072zm-13.605 10.506l-.148-9.999a10 10 0 00-9.67 11.899l9.818-1.9zm.434 3.131l-9.98.624c.054.867.221 1.723.496 2.546l9.484-3.17zm61.552 57.146l3.641-9.314-3.641 9.314zm27.812 18.096l-9.061 4.229a9.98 9.98 0 002.477 3.297l6.584-7.526zM496.107 664.27l9.037 4.282c.077-.163.15-.328.218-.495l-9.255-3.787zm-6.394 33.244l-9.993-.378a9.997 9.997 0 00.883 4.502l9.11-4.124zm14.232 38.864l9.899-1.414-9.899 1.414zm22.753 43.218l8.37-5.471-8.37 5.471zm8.603 22.619l-8.16 5.78a10.001 10.001 0 004.022 3.324l4.138-9.104zm-31.588-33.947l6.325-7.746a10 10 0 00-15.895 10.647l9.57-2.901zm8.075 54.323l9.983-.587-9.983.587zm-6.113 40.051l9.711 2.388-9.711-2.388zm-7.997 57.137l-9.992.399 9.992-.399zm-20.562 73.706l-9.373-3.487c-.04.108-.078.216-.114.325l9.487 3.162zm0 .001l9.372 3.486c.04-.107.078-.215.115-.324l-9.487-3.162zm-29.607 125.374l-9.962.87 9.962-.87zm7.704 78.75l9.947-1.03-9.947 1.03zm-12.408 161.08l-.434-9.99h-.002l.436 9.99zm-54.872-197.51l-9.982.61.003.04 9.979-.65zm-.551-9.58l-9.984.57 9.984-.57zm-18.263-167.552l-4.471-8.945 4.471 8.945zm-1.307 34.152l9.971-.76-9.971.76zm-4.964 108.49l9.642 2.66-9.642-2.66zm-48.602 206.92l-9.55 2.96 9.55-2.96zm-14.954-83.68l-9.906 1.37 9.906-1.37zm-22.673-109.13l-9.017 4.32.003.01 9.014-4.33zm-42.643-206.443l9.894-1.452-.001-.003-9.893 1.455zm-1.255-8.308l-9.983.582c.019.328.055.654.106.978l9.877-1.56zm0-.004l9.983-.582a9.999 9.999 0 00-17.938-5.477l7.955 6.059zm-.003.004l-7.955-6.059-.009.011 7.964 6.048zm-11.572 238.091l-9.879 1.54 9.879-1.54zm6.869 106.77l9.325 3.61c.013-.04.026-.07.038-.1l-9.363-3.51zm2.044 60.14l9.551-2.96-9.551 2.96zm-6.748 38.61l-2.29 9.74c2.409.56 4.941.22 7.109-.98l-4.819-8.76zm-138.53 4.16l3.942 9.19-3.941-9.19zm-15.113 5.25l1.52 9.88-1.52-9.88zm-15.473-6.9l9.46-3.24-9.46 3.24zm-9.612-18.18l-7.925 6.09 7.925-6.09zm-6.27-211.62l-8.763-4.82 8.762 4.82zm56.254-186.195l9.827 1.851.002-.008-9.829-1.843zm.003-.016l-9.827-1.852-.002.009 9.83 1.843zm.011-.059l9.827 1.852v-.001l-9.827-1.851zm3.307-17.511l9.825 1.864c.143-.751.198-1.516.167-2.28l-9.992.416zm34.492-148.916l-8.388-5.445c-.188.29-.361.589-.518.897l8.906 4.548zm39.444-70.206l9.027 4.304a9.999 9.999 0 00-8.134-14.264l-.893 9.96zm-51.205-11.932l4.013-9.159a9.976 9.976 0 00-1.588-.542l-2.425 9.701zm-1.568-.783l5.547-8.321-.064-.042-5.483 8.363zM97.117 574.221l9.586 2.846-9.586-2.846zm.769-2.591l9.588 2.841.003-.009-9.591-2.832zm54.872-116.468l-6.298-7.767-.036.029 6.334 7.738zm84.87-14.685l-.201 9.998a9.999 9.999 0 008.051-16.193l-7.85 6.195zm-28.585-22.152l-4.603 8.878.013.006 4.59-8.884zm-14.227 8.489l-9.488-3.159 9.488 3.159zm-7.879 9.694l-.476 9.989.186.007.29-9.996zm-5.958-6.584l-9.999-.093-.001.093h10zm55.03-50.944l-4.472 8.944c.189.095.381.183.576.265l3.896-9.209zm18.751 10.067l-5.553 8.317c.469.313.963.586 1.478.816l4.075-9.133zm2.54.975l-3.075 9.516a9.998 9.998 0 0012.561-12.678l-9.486 3.162zm-.284-.85l9.487-3.163a10.315 10.315 0 00-.104-.295l-9.383 3.458zm-3.397-9.218l9.384-3.458a10.001 10.001 0 00-7.542-6.371l-1.842 9.829zm-23.88-18.217l9.899-1.414a8.48 8.48 0 00-.036-.23l-9.863 1.644zm-.471-2.821l9.864-1.645a9.969 9.969 0 00-.128-.637l-9.736 2.282zm-7.466-31.86l9.736-2.281a10 10 0 00-8.068-7.579l-1.668 9.86zm-6.328-1.373l-2.425 9.701 2.425-9.701zm-7.658-38.642l9.985-.556a10 10 0 00-15.077-8.05l5.092 8.606zm104.105 347.982l.267 9.996a9.995 9.995 0 005.814-2.058l-6.081-7.938zm.079-.06l6.081 7.938a10 10 0 003.852-9.095L312 634.963zm-.081.06l-9.912 1.328a10 10 0 0010.178 8.668l-.266-9.996zm-1.497-10.846l9.858-1.682c-.92-5.39-5.998-9.042-11.4-8.198a9.999 9.999 0 00-8.359 11.282l9.901-1.402zm-195.87-317.841c.387-.032.67-.021.835 0 .17.02.087.034-.159-.078l8.275-18.208c-3.845-1.747-7.779-1.881-10.612-1.645l1.661 19.931zm-27.597-16.124c.2 4.715 2.294 8.646 5.503 11.384 2.888 2.465 6.23 3.601 8.802 4.179 5.097 1.145 10.528.805 13.34.557l-1.757-19.923a39.294 39.294 0 01-3.838.168c-1.394-.015-2.539-.131-3.36-.316-.916-.206-.75-.344-.203.122.331.283.739.74 1.056 1.38.321.648.423 1.229.439 1.599l-19.982.85zm9.682-15.444c-5.15 2.403-10.143 8.095-9.671 15.643l19.961-1.248c.079 1.274-.34 2.22-.69 2.736a2.792 2.792 0 01-1.143.993l-8.457-18.124zm46.716-40.002c-8.872-4.615-8.871-4.616-8.87-4.617l.001-.002v-.001l-.005.009-.031.059-.147.276c-.134.253-.343.639-.62 1.142a168.388 168.388 0 01-2.449 4.287 192.455 192.455 0 01-8.916 13.752c-7.774 10.902-17.091 21.167-25.612 25.066l8.323 18.186c13.742-6.289 25.669-20.556 33.572-31.639a212.76 212.76 0 009.859-15.203 190.693 190.693 0 002.741-4.799 114.088 114.088 0 00.998-1.848l.017-.033.006-.012a.008.008 0 00.002-.004c.001-.002.002-.003-8.869-4.619zm147.533-224.75c-54.168-.874-89.424 35.314-112.693 79.823-23.265 44.499-36.021 99.847-44.646 142.966l19.611 3.923c8.621-43.096 20.95-95.908 42.759-137.623 21.804-41.706 51.612-69.786 94.647-69.092l.322-19.998zm139.235 72.252c-16.672-22.696-33.225-40.789-55.147-53.155-22.001-12.41-48.447-18.523-84.088-19.098l-.322 19.998c33.512.54 56.381 6.253 74.584 16.52 18.281 10.312 32.821 25.749 48.855 47.575l16.118-11.84zm-13.648-2.377l-.201.143 11.579 16.307.202-.142-11.58-16.308zm18.401 8.965l-4.321-6.404-16.58 11.186 4.322 6.405 16.579-11.187zm23.363 34.385c-8.327-12.506-16.035-24.084-23.503-34.587l-16.3 11.59c7.256 10.204 14.786 21.512 23.156 34.081l16.647-11.084zm.036.054l-.001-.001-16.717 10.978.001.002 16.717-10.979zm-.044-.066l-.007-.01-16.616 11.131.006.01 16.617-11.131zm16.363 24.41c-5.789-8.53-11.194-16.647-16.348-24.387l-16.647 11.084c5.148 7.732 10.6 15.921 16.446 24.534l16.549-11.231zm54.267 53.884c-2.19-.104-3.653-.199-5.533-.794-1.894-.599-4.702-1.884-8.722-4.99-8.265-6.387-20.8-19.792-40.012-48.1l-16.549 11.231c19.573 28.84 33.53 44.347 44.332 52.694 5.513 4.261 10.382 6.798 14.916 8.233 4.549 1.44 8.266 1.592 10.616 1.704l.952-19.978zm21.428 14.232c-2.827-5.025-6.025-9.109-10.437-11.585-4.435-2.489-8.864-2.545-10.991-2.647l-.952 19.978c2.74.13 2.443.271 2.155.11-.266-.15.697.223 2.794 3.951l17.431-9.807zm-124.176 39.132c27.445 7.806 49.602 11.851 67.253 13.004 17.531 1.144 31.295-.517 41.494-4.771 10.492-4.377 17.559-11.723 19.946-21.295 2.28-9.142-.198-18.392-4.517-26.07l-17.431 9.807c2.735 4.862 3.197 8.799 2.543 11.423-.548 2.194-2.29 5.194-8.24 7.676-6.243 2.604-16.555 4.313-32.492 3.272-15.816-1.032-36.518-4.727-63.084-12.283l-5.472 19.237zm-2.626-1.022c.495.207.992.414 1.49.624l7.744-18.44c-.515-.217-1.029-.431-1.541-.645l-7.693 18.461zm13.756-7.863l.03-.272-19.879-2.191a71.28 71.28 0 00-.024.216l19.873 2.247zm-9.013 15.946c2.771-.308 6.115-.895 8.907-2.483 1.494-.851 3.694-2.475 5.023-5.351 1.476-3.191 1.181-6.383.248-8.781-1.464-3.763-4.583-5.937-5.759-6.731-1.691-1.144-3.579-2.101-5.265-2.854l-8.155 18.262c1.102.492 1.846.909 2.219 1.161.185.124.087.081-.152-.157-.171-.17-.96-.97-1.528-2.431a8.82 8.82 0 01.239-6.862c1.047-2.266 2.67-3.316 3.239-3.64.942-.535 1.046-.263-1.224-.011l2.208 19.878zm-.788.092c.262-.032.524-.063.788-.092l-2.208-19.878c-.332.037-.661.076-.989.115l2.409 19.855zm4.663 10.879c1.382-6.151 2.892-12.862 3.982-19.08l-19.7-3.453c-.992 5.663-2.39 11.893-3.796 18.148l19.514 4.385zm.005-.022v-.001l-19.524-4.339v.001l19.524 4.339zm-2.993 14.021c.762-4.09 1.827-8.831 2.988-13.998l-19.514-4.385c-1.138 5.066-2.292 10.194-3.135 14.717l19.661 3.666zm-4.684 21.544c1.409-5.927 3.046-12.811 4.682-21.534l-19.657-3.686c-1.54 8.209-3.078 14.685-4.483 20.596l19.458 4.624zm-4.553 31.486c0-12.24 1.81-19.944 4.553-31.486l-19.458-4.624c-2.778 11.689-5.095 21.352-5.095 36.11h20zm-42.472 36.201c8.979-.982 19.299-2.921 27.544-8.129 9.063-5.724 14.928-14.975 14.928-28.072h-20c0 6.102-2.233 9.031-5.608 11.163-4.194 2.648-10.653 4.24-19.037 5.156l2.173 19.882zm6.341.246c.822-2.775 1.553-5.266 2.172-7.385l-19.199-5.604c-.612 2.097-1.336 4.562-2.15 7.309l19.177 5.68zm6.068-15.469c-5.094-2.957-10.291-1.674-13.22-.51-3.13 1.244-6.095 3.269-8.666 5.317l12.459 15.645a27.115 27.115 0 012.344-1.695c.663-.419 1.074-.611 1.25-.681.202-.08-.111.081-.818.109-.794.03-2.063-.118-3.39-.888l10.041-17.297zm1.083.624l-1.114-.642-9.979 17.333 1.107.637 9.986-17.328zm.153.09l-.001-.001-10.29 17.15h.001l10.29-17.149zm49.342 24.637c-.858-.09-3.488-.837-8.116-2.826-4.27-1.833-9.314-4.306-14.544-7.026-10.444-5.432-21.093-11.567-26.835-14.875l-9.985 17.329c5.717 3.294 16.715 9.633 27.592 15.29 5.43 2.824 10.965 5.548 15.878 7.659 4.555 1.956 9.713 3.9 13.932 4.34l2.078-19.891zm10.107 4.911c-2.39-2.389-5.851-4.486-10.152-4.916l-1.989 19.901c-1.166-.117-1.804-.646-1.999-.841l14.14-14.144zm-20.24 27.575c4.269 0 8.134-.262 11.445-.892 3.064-.583 6.849-1.691 9.879-4.248 1.651-1.394 3.203-3.328 4.084-5.866.889-2.558.871-5.082.376-7.277-.901-3.998-3.406-7.103-5.459-9.206l-14.31 13.972c.475.487.658.752.684.791.036.057-.242-.343-.426-1.159-.203-.902-.264-2.226.242-3.682.499-1.436 1.327-2.366 1.911-2.858.894-.755 1.161-.472-.719-.114-1.632.31-4.136.539-7.707.539v20zm-.286.002c.098-.002.193-.002.286-.002v-20c-.194 0-.389.001-.583.004l.297 19.998zm.285-6.868l9.981-.625v-.002l-.001-.004v-.008l-.001-.017a2.383 2.383 0 01-.003-.04l-.007-.105-.025-.3c-.02-.238-.051-.555-.095-.936a40.289 40.289 0 00-.465-2.994l-19.636 3.8a20.047 20.047 0 01.276 1.912l-.001-.015-.002-.017v-.012l-.001-.006v-.003-.002c0-.001 0-.002 9.98-.626zm65.193 47.832c-21.225-8.296-44.54-17.588-55.708-51.002l-18.969 6.34c14.274 42.704 45.716 54.815 67.396 63.29l7.281-18.628zm33.233 23.181c-3.274-7.015-8.939-11.586-14.665-14.897-5.614-3.246-12.313-5.839-18.568-8.284l-7.281 18.628c6.663 2.604 11.807 4.64 15.839 6.971 3.918 2.265 5.701 4.218 6.552 6.04l18.123-8.458zm-23.323 185.147c14.543-35.543 23.73-78.021 27.724-112.966 1.999-17.483 2.734-33.395 2.11-45.846-.311-6.198-.972-11.847-2.106-16.528-1.009-4.166-2.832-9.561-6.882-13.104l-13.169 15.052c-.915-.8-.239-.757.614 2.761.727 3.004 1.291 7.287 1.568 12.82.552 11.013-.084 25.767-2.005 42.574-3.845 33.634-12.687 74.235-26.365 107.664l18.511 7.573zm-5.656 29.835c.449-11.883 2.091-22.276 5.438-29.34l-18.075-8.563c-5.13 10.829-6.873 24.553-7.349 37.147l19.986.756zm14.138 37.072c-.637-4.462-2.501-10.563-4.965-17.304-2.539-6.945-5.958-15.217-10.056-24.27l-18.22 8.248c3.949 8.725 7.165 16.525 9.491 22.888 2.4 6.565 3.629 11.008 3.951 13.267l19.799-2.829zm21.224 39.161c-4.792-7.332-9.907-15.166-14.024-22.469-4.311-7.648-6.724-13.36-7.2-16.692l-19.799 2.829c1.061 7.425 5.272 16.048 9.576 23.684 4.498 7.979 9.991 16.376 14.706 23.59l16.741-10.942zm-3.905 37.194c1.42.645 3.604 1.517 6.07 1.672 2.782.175 8.064-.653 10.756-6.002 1.902-3.78 1.052-7.441.767-8.592-.416-1.675-1.088-3.276-1.71-4.591-2.386-5.052-7.243-12.437-11.978-19.681l-16.741 10.942c5.153 7.884 8.994 13.807 10.635 17.281.386.816.428 1.048.381.861a5.892 5.892 0 01-.15-1.344c-.006-.718.087-2.191.93-3.867 2.314-4.598 6.818-5.065 8.365-4.968 1.233.078 1.728.434.95.081l-8.275 18.208zm-33.774-35.305c10.462 8.542 20.585 19.042 29.752 31.981l16.319-11.561c-10.247-14.464-21.618-26.274-33.422-35.912l-12.649 15.492zm24.382 45.99c-.87-14.784-2.403-36.567-8.488-56.638l-19.14 5.803c5.323 17.558 6.79 37.186 7.662 52.01l19.966-1.175zm-6.385 43.026c3.476-14.139 7.212-28.964 6.385-43.026l-19.966 1.175c.615 10.446-2.164 22.119-5.841 37.076l19.422 4.775zm-7.716 54.349c-.783-19.563 3.485-37.143 7.716-54.349l-19.422-4.775c-4.172 16.97-9.189 37.151-8.278 59.923l19.984-.799zm-21.182 77.593c5.598-15.047 11.025-29.623 14.949-42.539 3.857-12.699 6.638-24.936 6.233-35.054l-19.984.799c.261 6.529-1.611 16.014-5.386 28.441-3.709 12.211-8.897 26.165-14.557 41.379l18.745 6.974zm.115-.324v-.001l-18.974-6.324 18.974 6.325zM457.47 1117.98c-1.47-16.78 1.767-36.54 7.553-57.7 5.764-21.08 13.813-42.74 21.465-63.308l-18.745-6.973c-7.593 20.411-15.971 42.911-22.012 65.001-6.017 22.01-9.961 44.45-8.184 64.73l19.923-1.75zm7.69 78.6c-2.499-24.17-5.217-50.47-7.69-78.6l-19.923 1.75c2.488 28.3 5.222 54.75 7.719 78.91l19.894-2.06zm-21.92 172.1c5.522-.24 10.619-1.99 14.957-5.36 4.228-3.28 7.203-7.7 9.324-12.51 4.128-9.35 5.748-21.87 6.132-36.1.775-28.67-3.458-69.42-8.493-118.13l-19.894 2.06c5.099 49.32 9.125 88.49 8.395 115.53-.369 13.63-1.943 22.92-4.437 28.57-1.189 2.69-2.382 4.08-3.303 4.79-.809.63-1.841 1.09-3.55 1.17l.869 19.98zm-65.286-206.85c.961 14.65 5.746 64.86 14.843 111.37 4.534 23.18 10.244 46 17.308 63.13 3.51 8.52 7.611 16.27 12.514 22 4.86 5.68 11.751 10.74 20.622 10.35l-.872-19.98c-.104 0-1.6.08-4.555-3.37-2.91-3.4-6.05-8.93-9.219-16.62-6.297-15.27-11.709-36.54-16.17-59.35-8.893-45.47-13.593-94.8-14.514-108.84l-19.957 1.31zm-.556-9.66c.235 4.16.422 7.46.553 9.62l19.963-1.22c-.128-2.1-.311-5.34-.548-9.53l-19.968 1.13zm-3.807-159.178a9.127 9.127 0 01-7.886.113c-1.957-.909-2.915-2.213-3.127-2.509-.437-.61-.298-.667.148.743.785 2.484 1.692 6.772 2.643 12.821 1.873 11.92 3.646 28.83 5.245 47.41 3.191 37.08 5.613 79.9 6.784 100.6l19.968-1.13c-1.169-20.66-3.606-63.76-6.826-101.18-1.606-18.67-3.426-36.16-5.413-48.8-.979-6.228-2.069-11.756-3.331-15.75-.579-1.829-1.476-4.292-2.962-6.364-.735-1.027-2.22-2.826-4.706-3.981a10.873 10.873 0 00-9.48.138l8.943 17.889zm4.192 24.448c-.74-9.74-1.308-17.31-1.273-22.716.018-2.739.197-4.284.361-4.998.303-1.322.083 1.585-3.28 3.266l-8.943-17.889c-5.244 2.622-6.749 7.878-7.27 10.148-.661 2.878-.847 6.169-.867 9.343-.042 6.426.617 14.986 1.33 24.366l19.942-1.52zm-5.293 111.91c10.886-39.58 7.455-83.47 5.293-111.91l-19.942 1.52c2.203 28.97 5.182 69.39-4.635 105.08l19.284 5.31zm1.697 184.89c-3.792-17.44-8.428-48.62-9.972-83.16-1.549-34.66.057-71.85 8.275-101.73l-19.284-5.31c-9.027 32.82-10.558 72.43-8.971 107.93 1.592 35.61 6.363 67.91 10.409 86.52l19.543-4.25zm-69.491 22.33c4.006 12.91 10.642 22.35 19.576 27.33 9.139 5.09 19.122 4.63 27.518.72 16.291-7.61 27.238-28.12 22.397-50.38l-19.543 4.25c2.998 13.79-4.084 24.63-11.31 28-3.362 1.57-6.509 1.51-9.326-.06-3.019-1.69-7.162-5.96-10.211-15.79l-19.101 5.93zm-15.31-85.27c4.44 32.13 8.893 64.6 15.31 85.27l19.101-5.93c-5.809-18.71-10.051-49.17-14.599-82.08l-19.812 2.74zm-21.781-106.17c4.715 9.82 8.728 25.33 12.316 44.45 3.547 18.91 6.517 40.38 9.465 61.72l19.812-2.74c-2.932-21.22-5.967-43.2-9.62-62.67-3.613-19.25-7.996-37.03-13.944-49.42l-18.029 8.66zm-43.524-209.322c2.596 17.696 9.202 60.942 17.21 104.072 4.003 21.55 8.375 43.17 12.789 61.6 4.348 18.15 8.931 34.07 13.522 43.64l18.035-8.64c-3.561-7.43-7.738-21.42-12.107-39.66-4.301-17.95-8.602-39.2-12.575-60.6-7.943-42.772-14.507-85.741-17.085-103.315l-19.789 2.903zm8.64-9.759l-9.877 1.56.001.006.003.023.016.097.062.398a1089.319 1089.319 0 011.156 7.679l19.787-2.91a1168.432 1168.432 0 00-1.246-8.263l-.018-.109-.004-.029-.001-.008-.001-.003v-.001l-9.878 1.56zm-9.983.579v.003l19.966-1.165v-.003l-19.966 1.165zm17.935 5.481l.003-.004-15.91-12.119-.003.004 15.91 12.119zm-9.647 230.481c-6.412-40.92-13.517-86.39-14.08-128.21-.568-42.136 5.587-78.383 23.736-102.283l-15.928-12.096c-22.367 29.454-28.388 71.474-27.807 114.649.586 43.5 7.953 90.4 14.32 131.03l19.759-3.09zm6.352 111.83c4.371-11.66 4.221-28.52 2.581-46.81-1.685-18.79-5.203-41.21-8.933-65.02l-19.759 3.09c3.764 24.03 7.158 45.72 8.772 63.72 1.66 18.5 1.197 31.11-1.387 38l18.726 7.02zm2.232 53.67c-5.064-16.34-10.115-33.31-2.27-53.57l-18.651-7.22c-10.591 27.35-3.214 50.48 1.818 66.71l19.103-5.92zm-11.48 50.33c5.049-2.77 9.168-6.23 12.06-10.6 2.932-4.43 4.197-9.18 4.448-13.87.461-8.62-2.587-17.99-5.028-25.86l-19.103 5.92c2.814 9.08 4.388 14.61 4.16 18.87-.094 1.74-.501 2.92-1.155 3.9-.693 1.05-2.073 2.5-5.019 4.12l9.637 17.52zm-139.407 4.59c10.17-4.36 22.901-9.82 43.023-12.02 20.256-2.22 48.515-1.18 89.275 8.41l4.58-19.47c-42.439-9.99-73.03-11.34-96.032-8.82-23.137 2.53-38.07 8.94-48.728 13.52l7.882 18.38zm-17.534 5.94c5.997-.92 12.056-3.59 17.534-5.94l-7.882-18.38c-6.243 2.67-9.74 4.1-12.693 4.55l3.04 19.77zm-26.454-13.54c.485 1.41 1.215 3.63 2.24 5.57 1.182 2.24 3.067 4.78 6.254 6.57 2.992 1.67 6.152 2.12 8.879 2.18 2.72.05 5.771-.27 9.08-.78l-3.04-19.77c-2.918.45-4.63.57-5.623.55-.987-.02-.49-.17.474.37.505.28.936.64 1.263 1.01.3.33.42.57.403.54a7.648 7.648 0 01-.315-.75c-.192-.51-.397-1.11-.695-1.97l-18.92 6.48zm-8.077-15.33c5.124 6.66 6.767 11.5 8.077 15.33l18.92-6.48c-1.584-4.63-4.073-11.85-11.146-21.04l-15.851 12.19zm-7.108-222.53c-18.767 34.12-20.828 84.51-16.873 127.42 2.004 21.74 5.615 42.2 9.767 58.62 2.075 8.21 4.314 15.53 6.604 21.57 2.212 5.83 4.733 11.19 7.61 14.92l15.851-12.19c-1.043-1.36-2.735-4.48-4.76-9.82-1.949-5.14-3.972-11.69-5.915-19.38-3.883-15.36-7.327-34.79-9.242-55.56-3.884-42.13-1.241-87.36 14.482-115.94l-17.524-9.64zm55.19-183.227C69.63 1034.51 60.878 1080.6 29.55 1137.55l17.524 9.64c33.076-60.13 42.264-109.26 57.32-189.164l-19.654-3.703zm.001-.007l-.003.016 19.658 3.686.003-.016-19.658-3.686zm.013-.068l-.01.059 19.653 3.704.011-.059-19.654-3.704zm3.31-17.522c-1.142 6.016-2.242 11.854-3.31 17.522l19.654 3.703c1.069-5.669 2.166-11.495 3.305-17.498l-19.65-3.727zm44.316-147.053c-8.906-4.548-8.907-4.546-8.909-4.543l-.003.006a.15.15 0 01-.009.018l-.028.056-.097.192c-.082.164-.199.397-.347.699a178.33 178.33 0 00-1.257 2.608 302.714 302.714 0 00-4.366 9.699c-3.578 8.312-8.299 20.166-12.919 34.426-9.2 28.397-18.185 66.897-16.548 106.172l19.983-.833c-1.499-35.967 6.762-71.925 15.591-99.175 4.395-13.565 8.884-24.831 12.264-32.684a281.562 281.562 0 014.073-9.051 162.542 162.542 0 011.402-2.891l.064-.128a.182.182 0 01.013-.024l.001-.003-.001.002c-.001.001-.002.003-8.907-4.546zm30.418-74.51c-8.31 17.426-18.009 34.698-25.67 47.668a761.784 761.784 0 01-9.455 15.584 537.607 537.607 0 01-2.727 4.326c-.316.496-.558.873-.719 1.124l-.181.279-.043.067a.287.287 0 01-.011.018l8.388 5.444c8.387 5.446 8.387 5.445 8.388 5.444l.001-.002.005-.007a773.487 773.487 0 0013.574-22.106c7.819-13.236 17.842-31.067 26.503-49.231l-18.053-8.608zm-46.192 1.532c16.104 7.056 34.791 10.981 54.326 12.732l1.785-19.92c-18.165-1.628-34.571-5.209-48.085-11.131l-8.026 18.319zm-3.102-1.623c.359.24 2.162 1.533 4.689 2.165l4.851-19.403a6.4 6.4 0 011.473.563c.138.075.225.13.235.136l-.028-.018-.126-.084-11.094 16.641zM87.531 571.374c-6.158 20.734-14.053 47.014-13.37 72.551.704 26.335 10.544 52.267 39.407 71.19l10.966-16.726c-22.441-14.712-29.818-34-30.38-54.999-.583-21.798 6.207-44.966 12.549-66.323l-19.172-5.693zm.767-2.585l-.767 2.585 19.172 5.693.771-2.596-19.176-5.682zm58.126-121.365c-14.545 11.907-25.9 32.371-35.01 53.836-9.257 21.81-16.84 46.272-23.119 67.538l19.182 5.664c6.263-21.214 13.574-44.719 22.347-65.388 8.919-21.016 18.729-37.546 29.269-46.174l-12.669-15.476zm91.406-16.945c-13.21-.266-30.754-.023-47.307 2.091-15.966 2.038-33.244 6.052-44.063 14.825l12.597 15.535c6.065-4.919 18.241-8.509 33.999-10.521 15.171-1.937 31.62-2.191 44.371-1.934l.403-19.996zm-33.377-3.27c7.536 3.893 11.448 5.964 14.757 8.427 3.09 2.3 5.944 5.178 10.569 11.037l15.699-12.391c-5.114-6.478-9.222-10.89-14.326-14.689-4.885-3.636-10.396-6.473-17.52-10.153l-9.179 17.769zm-.149 2.765c.285-.857.526-1.578.772-2.261.243-.675.454-1.208.649-1.639.195-.433.334-.673.404-.782.07-.108.015.003-.204.207a4.093 4.093 0 01-1.19.751 4.113 4.113 0 01-1.472.332c-.665.016-.405-.2 1.177.621l9.205-17.756c-3.278-1.7-6.949-2.95-10.845-2.859-4.236.098-7.798 1.759-10.488 4.259-2.437 2.263-3.897 4.964-4.815 6.997-.929 2.057-1.648 4.247-2.169 5.811l18.976 6.319zm-17.657 16.53c6.865.199 11.3-3.771 13.713-7.47 2.039-3.124 3.242-6.955 3.944-9.06l-18.976-6.319c-.431 1.294-.754 2.255-1.089 3.102-.336.848-.551 1.23-.63 1.35-.07.107.205-.363.976-.844a5.077 5.077 0 011.372-.593 4.491 4.491 0 011.27-.158l-.58 19.992zm-15.668-16.58c0 8.267 6.354 16.138 15.482 16.573l.951-19.978c1.298.062 2.227.669 2.738 1.235a3.22 3.22 0 01.829 2.17h-20zm53.526-58.795c-5.531 3.686-18.202 12.406-29.606 22.476-5.684 5.019-11.343 10.624-15.671 16.323-4.07 5.36-8.178 12.351-8.248 19.903l19.999.187c.008-.835.721-3.444 4.177-7.994 3.197-4.211 7.768-8.824 12.98-13.426 10.387-9.172 22.174-17.303 27.461-20.827l-11.092-16.642zm15.975-1.094c-5.289-2.644-11.298-2.024-15.975 1.094l11.092 16.642c-.404.27-1.018.531-1.8.591a4.344 4.344 0 01-2.26-.438l8.943-17.889zm19.834 10.696c-8.081-5.396-16.003-9.097-20.409-10.961l-7.792 18.419c3.702 1.566 10.402 4.706 17.094 9.175l11.107-16.633zm.061-.224a15.19 15.19 0 01-1.54-.592l-8.15 18.265a35.19 35.19 0 003.54 1.358l6.15-19.031zm-12.846 11.827l.284.851 18.973-6.325-.283-.851-18.974 6.325zm-3.293-8.923l3.397 9.218 18.766-6.915-3.396-9.218-18.767 6.915zm-24.397-20.259c2.564 17.947 19.596 24.318 31.939 26.631l3.683-19.658c-5.296-.993-9.369-2.49-12.052-4.319-2.42-1.65-3.466-3.352-3.771-5.483l-19.799 2.829zm-.435-2.592l.471 2.821 19.727-3.288-.47-2.822-19.728 3.289zm-7.338-31.222l7.466 31.859 19.472-4.563-7.466-31.859-19.472 4.563zm.983 6.046c2.14.535 4.649 1.12 7.085 1.532l3.336-19.72c-1.679-.284-3.608-.724-5.571-1.215l-4.85 19.403zm-15.217-47.787c.284 5.109.94 14.809 2.212 23.507.628 4.288 1.464 8.76 2.62 12.426.567 1.796 1.356 3.88 2.511 5.764.954 1.556 3.344 4.958 7.874 6.09l4.85-19.403c1.708.427 2.842 1.272 3.435 1.819.578.533.848.97.893 1.043.066.107-.143-.23-.49-1.33-.671-2.128-1.325-5.35-1.903-9.304-1.139-7.789-1.757-16.77-2.033-21.724l-19.969 1.112zm-82.358 18.769c11.538 4.874 50.538 17.031 97.435-10.719l-10.185-17.212c-39.605 23.435-71.483 12.88-79.467 9.508l-7.783 18.423zm202.528 336.595l.079-.06-12.162-15.877-.079.06 12.162 15.877zm-5.817 2.058h.003l-.534-19.993-.002.001.533 19.992zm-11.664-19.44c.551 3.892 1.048 7.5 1.486 10.772l19.823-2.656c-.445-3.324-.949-6.982-1.507-10.92l-19.802 2.804zm21.412 8.227c-.409-3.508-.968-7.297-1.653-11.311l-19.715 3.364c.639 3.749 1.143 7.179 1.502 10.26l19.866-2.313z" fill="#fff" mask="url(#a)"/></g><defs><filter id="filter0_d" x=".998" y="0" width="564.67" height="1399.73" filterUnits="userSpaceOnUse" color-interpolation-filters="sRGB"><feFlood flood-opacity="0" result="BackgroundImageFix"/><feColorMatrix in="SourceAlpha" values="0 0 0 0 0 0 0 0 0 0 0 0 0 0 0 0 0 0 127 0"/><feOffset/><feGaussianBlur stdDeviation="5"/><feColorMatrix values="0 0 0 0 0 0 0 0 0 0 0 0 0 0 0 0 0 0 0.25 0"/><feBlend in2="BackgroundImageFix" result="effect1_dropShadow"/><feBlend in="SourceGraphic" in2="effect1_dropShadow" result="shape"/></filter></defs></svg>