<svg width="566" height="789" viewBox="0 0 566 789" fill="none" xmlns="http://www.w3.org/2000/svg">
<g filter="url(#filter0_d)">
<path d="M232.722 926.049C232.722 926.049 233.192 929.027 233.976 934.357C239.15 969.626 260.315 1106.79 276.62 1140.8C295.433 1179.99 300.137 1288.15 314.247 1333.61C328.357 1379.07 372.255 1352.42 364.416 1316.37C356.577 1280.31 345.603 1189.39 362.848 1126.69C380.094 1063.99 359.713 988.75 369.12 984.048C378.526 979.345 386.522 1137.98 387.933 1161.18C389.814 1189.86 406.903 1360.26 442.806 1358.69C478.865 1357.12 460.051 1261.5 447.509 1118.86C441.865 1054.43 499.246 958.967 497.678 919.779C496.111 880.59 513.356 849.239 511.788 822.591C510.221 795.943 506.615 750.171 480.119 730.734C453.78 711.296 375.391 681.513 375.391 681.513L292.768 730.734L224.883 792.808" fill="#2D5A9D"/>
<path d="M230.05 379.45C219.233 386.661 181.135 413.152 180.979 429.925C180.979 433.373 183.644 436.351 186.936 436.508C197.754 436.822 192.11 409.547 209.042 418.325C227.855 428.043 229.423 428.984 247.61 453.751C247.766 454.065 247.923 454.221 248.08 454.535C249.334 456.886 257.33 468.643 274.262 435.724C290.097 404.844 248.237 384.152 236.008 378.98C234.127 378.039 231.932 378.196 230.05 379.45Z" fill="#2D5A9D"/>
<path d="M376.951 363.304C376.951 363.304 351.082 453.437 344.811 451.87C338.54 450.302 275.044 443.249 275.044 443.249L251.527 372.709L376.951 363.304Z" fill="#FACBBD"/>
<path opacity="0.14" d="M378.518 358.602C378.518 358.602 351.082 455.005 344.811 453.437C338.54 451.87 273.476 433.843 273.476 433.843L251.527 374.277L378.518 358.602Z" fill="#F37880"/>
<path d="M211.709 283.987L229.268 358.915C229.425 359.856 229.582 360.797 229.739 361.737C232.874 383.683 272.226 382.272 287.59 380.704C303.268 379.137 353.437 368.164 372.251 366.596C391.064 365.029 409.878 360.64 409.878 339.948C409.878 319.57 414.581 310.165 419.285 285.085C422.734 266.588 431.827 236.491 425.556 230.221C419.285 223.951 290.726 167.519 251.531 203.573C220.332 232.415 212.963 264.08 211.239 275.836C210.925 278.344 211.082 281.166 211.709 283.987Z" fill="#FACBBD"/>
<path opacity="0.22" d="M348.738 253.576C348.738 253.576 347.17 295.743 347.17 303.737C347.17 311.575 348.738 330.386 340.899 322.548C333.06 314.71 325.848 306.246 328.357 303.737C329.924 302.17 342.467 264.549 342.467 258.279C342.467 252.009 348.738 250.441 348.738 253.576Z" fill="#F37880"/>
<path d="M364.41 281.792C364.41 281.792 373.817 270.819 387.927 270.819C402.037 270.819 414.58 272.387 408.308 278.657C402.037 284.927 387.927 289.63 380.088 288.062C372.249 286.495 361.275 284.927 364.41 281.792Z" fill="#FEF1F0"/>
<path d="M237.423 295.9C237.423 295.9 249.965 280.225 265.643 278.657C281.321 277.09 301.703 280.225 295.431 284.927C289.16 289.63 278.186 302.17 262.508 302.17C246.83 302.17 234.288 297.468 237.423 295.9Z" fill="#FEF1F0"/>
<path d="M322.077 344.493C322.077 344.493 293.857 347.628 301.696 350.763C309.535 353.898 312.671 350.763 320.509 350.763C328.348 350.763 350.297 347.628 342.459 346.061C334.62 344.493 325.213 344.493 322.077 344.493Z" fill="#F37880"/>
<path d="M369.115 253.577C369.115 253.577 387.929 233.199 395.768 236.334C403.607 239.469 414.581 241.036 420.852 242.604C427.123 244.171 441.234 250.442 427.123 252.009C413.013 253.577 402.039 258.279 394.2 256.712C386.361 255.144 369.115 259.847 369.115 253.577Z" fill="#5C414E"/>
<path d="M393.26 270.819C393.26 270.819 394.2 287.278 397.336 285.397C400.472 283.36 411.289 279.284 409.878 275.052C408.311 270.819 393.26 270.819 393.26 270.819Z" fill="#2C1E24"/>
<path d="M278.182 278.343C278.182 278.343 267.834 292.294 276.928 298.878C285.237 294.175 293.546 288.689 296.211 285.397C296.995 284.457 296.838 283.203 296.055 282.262C294.644 280.851 291.665 279.284 278.182 278.343Z" fill="#2C1E24"/>
<path d="M207.635 283.359C207.635 283.359 209.203 324.115 215.474 325.683C221.745 327.25 229.584 328.818 229.584 325.683C229.584 322.548 226.448 313.143 224.88 303.737C223.313 294.332 213.906 272.387 213.906 272.387L207.635 283.359Z" fill="#5C414E"/>
<path d="M113.721 296.371C115.602 296.214 117.64 296.371 119.365 297.154C130.496 301.857 175.021 315.965 226.445 273.955C286.021 225.361 316.122 197.929 428.847 245.269C536.867 275.993 555.681 245.739 541.571 220.659C527.46 195.578 525.893 241.037 466.317 153.255C406.741 65.4726 387.927 21.5816 290.724 20.014C193.521 18.4465 160.598 148.552 143.352 234.766C143.352 234.766 123.128 273.641 100.865 283.83C98.5132 284.928 96.7887 287.279 96.9454 289.787C97.259 297.154 108.39 296.841 113.721 296.371Z" fill="#2D5A9D"/>
<path d="M184.117 567.084C184.117 567.084 190.388 634.488 190.388 661.136C190.388 700.324 132.38 789.674 132.38 789.674C132.38 789.674 94.7527 863.348 97.8883 938.589C80.6426 1029.51 72.8036 1079.67 38.3122 1142.37C3.82087 1205.07 28.9055 1333.61 44.5834 1353.99C60.2613 1374.36 49.2868 1382.2 69.668 1379.07C90.0493 1375.93 116.702 1344.58 223.311 1369.66C254.667 1352.42 209.201 1319.5 228.015 1270.91C246.828 1220.75 168.439 1010.7 232.718 926.049C296.998 841.402 320.514 680.103 312.675 640.914C304.837 601.726 293.862 451.086 268.777 447.167C243.693 443.248 240.557 441.681 240.557 441.681L166.871 493.409L184.117 567.084Z" fill="#4B78BC"/>
<path d="M519.624 487.139C508.65 463.626 450.641 472.874 430.26 411.897C430.26 411.897 428.692 386.817 409.879 404.06C409.879 404.06 410.036 405.157 410.506 407.195H403.608L372.252 419.735L386.362 451.086L442.803 523.192L446.722 538.084C459.891 603.137 475.413 706.751 489.836 748.917C496.107 758.323 481.997 694.054 496.107 664.27C524.328 595.299 532.167 498.112 519.624 487.139Z" fill="#4B78BC"/>
<path d="M388.555 716.47C388.555 716.47 393.572 712.081 360.648 735.594C327.724 759.107 282.258 804.566 285.394 787.323C288.53 770.08 290.725 641.072 302.169 640.445C313.614 639.818 371.623 577.273 379.461 561.598C387.3 545.923 390.436 549.528 392.004 557.052C393.572 564.576 426.495 657.218 412.385 676.028C398.275 694.838 391.377 717.881 388.555 716.47Z" fill="#2D5A9D"/>
<path d="M387.461 546.549C387.775 550.782 386.834 555.014 384.796 558.619C370.372 583.857 311.267 684.179 312.678 647.185C314.246 604.862 256.08 432.119 250.75 410.331C255.61 385.407 344.034 435.411 344.034 435.411C344.034 435.411 379.936 459.394 387.461 546.549Z" fill="#E2D9D9"/>
<path d="M478.862 664.271C478.862 664.271 477.294 678.379 463.184 653.298C449.074 628.218 417.718 578.057 378.523 543.571C373.82 534.166 331.49 440.113 340.896 433.843C350.303 427.573 380.091 421.303 391.066 435.411C403.608 446.384 464.752 501.247 478.862 664.271Z" fill="#FEF1F0"/>
<path d="M330.392 424.752C331.332 423.968 332.273 423.341 332.9 422.4C340.425 411.898 375.074 363.931 384.794 369.575C395.141 375.531 428.849 395.125 439.353 396.223C440.921 396.379 442.332 397.163 443.429 398.26C449.857 404.844 445.938 408.763 430.26 408.763C413.014 408.763 383.226 424.438 378.523 432.276C373.819 440.114 340.896 440.114 337.76 436.979C335.095 434.157 328.51 426.319 330.392 424.752Z" fill="#F37880"/>
<path d="M320.986 438.075C330.236 437.605 335.566 427.102 330.236 419.421C323.651 410.173 313.304 400.297 296.842 396.065C268.935 388.854 262.664 394.654 250.435 386.66C241.185 380.546 229.741 390.265 234.287 400.297C237.266 406.724 243.067 414.875 253.414 424.908C270.66 441.68 300.761 439.015 320.986 438.075Z" fill="#F37880"/>
<path d="M260.94 441.682C260.94 441.682 199.797 484.005 207.636 493.41C215.474 502.815 314.245 662.704 314.245 654.866C314.245 647.029 286.025 435.411 260.94 441.682Z" fill="#4B78BC"/>
<path d="M258.741 451.087C259.054 445.757 254.978 441.211 249.804 440.898C227.542 439.801 172.669 439.017 152.758 455.162C127.674 475.697 110.428 529.15 97.8857 571.63C85.3433 613.954 66.6866 672.423 119.051 706.752C119.521 707.065 119.991 707.379 120.619 707.535C187.877 737.005 311.575 710.044 357.512 689.666C357.982 689.509 358.452 689.352 358.923 689.195C384.164 682.612 398.901 679.947 407.054 679.006C412.071 678.379 415.833 673.833 415.363 668.817L412.384 634.175C411.914 628.218 405.956 624.143 400.312 625.867C386.986 629.786 364.41 635.586 348.732 634.645C325.215 633.234 243.69 638.721 229.58 638.721C215.47 638.721 190.385 644.207 190.385 636.056C190.385 627.905 195.089 621.008 195.089 605.959C195.089 591.851 221.428 540.123 224.563 534.009C224.72 533.539 225.033 533.226 225.347 532.755L254.665 491.686C255.762 490.275 256.232 488.551 256.389 486.827L258.741 451.087Z" fill="#2D5A9D"/>
<path d="M263.135 250.913C261.41 251.54 259.529 251.696 257.647 251.383C253.258 250.599 246.83 252.01 243.694 252.01C239.304 252.01 235.855 255.145 232.719 261.415C229.584 267.685 218.609 270.82 234.287 270.82C249.965 270.82 304.838 258.28 296.999 253.577C289.16 248.875 289.16 252.01 276.618 250.442C269.406 249.502 265.173 250.286 263.135 250.913Z" fill="#5C414E"/>
<path d="M368.332 165.794C384.351 165.794 397.336 152.811 397.336 136.795C397.336 120.779 384.351 107.795 368.332 107.795C352.314 107.795 339.328 120.779 339.328 136.795C339.328 152.811 352.314 165.794 368.332 165.794Z" fill="#F37880"/>
<path d="M383.852 115.32L422.262 88.0449L435.589 107.796L392.631 125.039L383.852 115.32Z" fill="#F37880"/>
<path d="M260.311 442.151C260.311 442.151 259.37 450.459 258.586 453.908C257.802 457.356 253.099 457.356 253.099 457.356L251.061 444.503L260.311 442.151Z" fill="#2D5A9D"/>
<path d="M386.36 554.544C386.36 554.544 408.309 601.57 398.903 650.164C389.496 698.757 381.657 725.406 389.496 726.973C397.335 728.541 481.995 726.973 535.3 802.215C552.546 810.052 507.08 758.324 503.945 736.378C500.809 714.433 452.207 610.975 408.309 573.355C392.631 551.409 386.36 546.706 386.36 554.544Z" fill="#4B78BC"/>
<mask id="path-29-outside-1" maskUnits="userSpaceOnUse" x="10" y="9" width="546" height="1381" fill="black">
<rect fill="white" x="10" y="9" width="546" height="1381"/>
<path fill-rule="evenodd" clip-rule="evenodd" d="M119.366 297.154C117.641 296.371 115.603 296.214 113.721 296.371C108.391 296.841 97.2597 297.154 96.9461 289.787C96.7893 287.279 98.5139 284.928 100.866 283.83C123.128 273.641 143.353 234.766 143.353 234.766C160.598 148.552 193.522 18.4465 290.725 20.014C359.878 21.1292 389.356 43.6657 422.062 88.1879L422.263 88.045L426.584 94.4494C433.946 104.803 441.565 116.245 449.913 128.783L449.914 128.785L449.921 128.794C455.071 136.53 460.5 144.683 466.317 153.255C505.103 210.402 519.302 211.079 528.383 211.512C533.25 211.744 536.647 211.906 541.571 220.659C555.681 245.739 536.868 275.993 428.847 245.269C428.34 245.056 427.835 244.845 427.331 244.635C427.323 244.716 427.313 244.797 427.304 244.879C432.882 247.369 437.204 250.889 427.124 252.009C426.826 252.042 426.53 252.077 426.235 252.113C425.194 258.053 423.74 264.524 422.346 270.727L422.346 270.728C421.196 275.844 420.087 280.779 419.284 285.085C417.697 293.551 416.109 300.231 414.702 306.15C411.942 317.765 409.878 326.449 409.878 339.948C409.878 359.146 393.683 364.31 376.319 366.208C375.704 368.316 374.976 370.794 374.159 373.555C378.665 369.966 382.453 368.215 384.795 369.574C385.139 369.773 385.51 369.987 385.905 370.214L385.906 370.214C397.364 376.817 429.2 395.162 439.354 396.222C440.921 396.379 442.332 397.163 443.43 398.26C449.858 404.844 445.938 408.763 430.26 408.763C430.116 408.763 429.971 408.764 429.825 408.766C430.177 410.584 430.259 411.897 430.259 411.897C442.98 449.956 470.359 460.658 491.811 469.043C504.729 474.092 515.499 478.302 519.623 487.139C532.166 498.112 524.327 595.299 496.107 664.27C491.868 673.217 490.176 685.276 489.713 697.514C497.76 715.292 502.985 729.657 503.945 736.378C505.482 747.136 517.19 765.05 526.698 779.596C536.586 794.724 544.093 806.21 535.301 802.215C525.594 788.513 514.847 777.358 503.713 768.268C509.417 787.082 510.917 807.788 511.788 822.591C512.509 834.846 509.252 848.094 505.675 862.642C501.473 879.73 496.831 898.611 497.678 919.779C498.344 936.425 488.374 963.224 477.116 993.485L477.116 993.486C461.87 1034.47 444.262 1081.8 447.509 1118.86C449.989 1147.07 452.715 1173.44 455.213 1197.61C465.346 1295.65 471.733 1357.43 442.805 1358.69C406.903 1360.26 389.814 1189.86 387.933 1161.18C387.803 1159.05 387.618 1155.78 387.382 1151.6C385.042 1110.24 377.663 979.777 369.119 984.048C365.359 985.928 366.359 999.081 367.812 1018.2C369.995 1046.9 373.199 1089.06 362.848 1126.69C345.602 1189.39 356.577 1280.31 364.416 1316.37C372.255 1352.42 328.357 1379.07 314.246 1333.61C308.133 1313.91 303.786 1282.45 299.292 1249.93C293.413 1207.38 287.282 1163.01 276.619 1140.8C260.314 1106.79 239.149 969.626 233.976 934.357C233.192 929.027 232.721 926.049 232.721 926.049L232.721 926.045L232.718 926.049C192.202 979.404 208.368 1082.58 221.146 1164.14C228.641 1211.97 234.97 1252.36 228.015 1270.91C218.796 1294.72 225.011 1314.76 230.059 1331.05C235.313 1348 239.303 1360.87 223.311 1369.66C140.112 1350.09 105.61 1364.88 84.7818 1373.82C78.9213 1376.33 74.1435 1378.38 69.668 1379.07C57.215 1380.98 56.4679 1378.8 54.1949 1372.17C52.7477 1367.94 50.6821 1361.91 44.5834 1353.99C28.9055 1333.61 3.82087 1205.07 38.3122 1142.37C70.5136 1083.83 79.4842 1036.22 94.5671 956.175L94.5701 956.159L94.5812 956.1C95.6494 950.431 96.7483 944.599 97.8883 938.589C94.7527 863.348 132.38 789.673 132.38 789.673C132.38 789.673 154.854 755.057 171.824 719.467C152.974 717.777 135.428 714.024 120.619 707.535C119.992 707.379 119.521 707.065 119.051 706.752C67.7471 673.118 84.6171 616.311 97.1171 574.221C97.3754 573.351 97.6319 572.487 97.8858 571.63C110.428 529.15 127.674 475.697 152.758 455.162C169.643 441.471 211.667 439.953 237.628 440.477C227.89 428.14 223.702 425.897 209.043 418.325C199.321 413.285 197.042 420.13 194.816 426.814C193.165 431.772 191.544 436.642 186.937 436.508C183.645 436.351 180.979 433.373 180.979 429.924C181.136 413.152 219.233 386.66 230.051 379.45C231.932 378.196 234.127 378.039 236.009 378.98C240.063 380.695 247.374 384.115 254.76 389.047C255.617 389.43 256.46 389.751 257.3 390.022L257.016 389.172L253.619 379.954C241.662 377.713 231.287 372.572 229.739 361.737L229.268 358.916L221.802 327.056C219.745 326.708 217.526 326.195 215.474 325.683C210.364 324.405 208.377 297.104 207.816 287.041C164.565 312.634 129.126 301.278 119.366 297.154ZM312 634.963L311.921 635.023L311.919 635.023C311.477 631.725 310.977 628.092 310.422 624.177C311.084 628.058 311.616 631.668 312 634.963Z"/>
</mask>
<path d="M113.721 296.371L112.891 286.405C112.875 286.406 112.859 286.408 112.843 286.409L113.721 296.371ZM119.366 297.154L115.228 306.258C115.31 306.295 115.391 306.331 115.474 306.366L119.366 297.154ZM96.9461 289.787L106.937 289.362C106.934 289.295 106.931 289.229 106.927 289.163L96.9461 289.787ZM100.866 283.83L96.704 274.737C96.6818 274.748 96.6595 274.758 96.6373 274.768L100.866 283.83ZM143.353 234.766L152.224 239.382C152.659 238.545 152.974 237.652 153.158 236.728L143.353 234.766ZM290.725 20.014L290.886 10.0153L290.725 20.014ZM422.062 88.1879L414.003 94.1082C417.235 98.5085 423.4 99.5026 427.851 96.3415L422.062 88.1879ZM422.263 88.045L430.553 82.452C429.046 80.2191 426.702 78.6884 424.052 78.2064C421.402 77.7245 418.67 78.332 416.473 79.8915L422.263 88.045ZM426.584 94.4494L418.295 100.043C418.34 100.11 418.387 100.178 418.434 100.244L426.584 94.4494ZM449.913 128.783L458.272 123.294C458.26 123.276 458.249 123.259 458.237 123.241L449.913 128.783ZM449.914 128.785L441.556 134.274C441.572 134.3 441.589 134.325 441.606 134.35L449.914 128.785ZM449.921 128.794L458.244 123.252C458.239 123.244 458.234 123.236 458.229 123.229L449.921 128.794ZM466.317 153.255L458.043 158.87L458.043 158.87L466.317 153.255ZM528.383 211.512L527.907 221.501L527.907 221.501L528.383 211.512ZM541.571 220.659L550.287 215.755L550.287 215.755L541.571 220.659ZM428.847 245.269L424.975 254.489C425.346 254.644 425.725 254.777 426.111 254.887L428.847 245.269ZM427.331 244.635L431.178 235.404C428.271 234.193 424.963 234.422 422.25 236.022C419.537 237.623 417.737 240.408 417.392 243.539L427.331 244.635ZM427.304 244.879L417.368 243.755C416.878 248.085 419.248 252.233 423.227 254.01L427.304 244.879ZM427.124 252.009L426.02 242.07L426.02 242.07L427.124 252.009ZM426.235 252.113L425.031 242.185C420.657 242.716 417.146 246.046 416.385 250.386L426.235 252.113ZM422.346 270.727L412.589 268.534C412.588 268.542 412.586 268.55 412.584 268.557L422.346 270.727ZM422.346 270.728L432.103 272.92C432.104 272.912 432.106 272.905 432.108 272.897L422.346 270.728ZM419.284 285.085L429.113 286.928L429.115 286.918L419.284 285.085ZM414.702 306.15L404.973 303.838L404.973 303.838L414.702 306.15ZM376.319 366.208L375.233 356.267C371.213 356.706 367.853 359.524 366.72 363.406L376.319 366.208ZM374.159 373.555L364.57 370.715C363.331 374.901 364.949 379.407 368.569 381.847C372.189 384.287 376.973 384.097 380.388 381.378L374.159 373.555ZM384.795 369.574L379.774 378.223C379.784 378.229 379.795 378.235 379.805 378.241L384.795 369.574ZM385.905 370.214L391.05 361.639C391 361.609 390.949 361.579 390.898 361.55L385.905 370.214ZM385.906 370.214L380.761 378.789C380.811 378.82 380.862 378.85 380.913 378.879L385.906 370.214ZM439.354 396.222L438.315 406.168C438.329 406.17 438.344 406.171 438.359 406.173L439.354 396.222ZM443.43 398.26L450.585 391.274C450.557 391.245 450.529 391.217 450.5 391.188L443.43 398.26ZM429.825 408.766L429.677 398.767C426.718 398.811 423.931 400.163 422.065 402.459C420.199 404.756 419.445 407.761 420.007 410.666L429.825 408.766ZM430.259 411.897L420.279 412.521C420.333 413.388 420.5 414.244 420.775 415.067L430.259 411.897ZM491.811 469.043L495.452 459.729L495.452 459.729L491.811 469.043ZM519.623 487.139L510.562 491.368C511.149 492.628 511.993 493.75 513.039 494.665L519.623 487.139ZM496.107 664.27L505.144 668.552C505.221 668.389 505.294 668.224 505.362 668.057L496.107 664.27ZM489.713 697.514L479.72 697.136C479.661 698.685 479.964 700.226 480.603 701.638L489.713 697.514ZM503.945 736.378L513.844 734.964L513.844 734.964L503.945 736.378ZM526.698 779.596L535.068 774.125L535.068 774.125L526.698 779.596ZM535.301 802.215L527.141 807.995C528.164 809.44 529.552 810.586 531.163 811.319L535.301 802.215ZM503.713 768.268L510.038 760.522C506.63 757.739 501.803 757.511 498.148 759.96C494.492 762.408 492.867 766.958 494.143 771.169L503.713 768.268ZM511.788 822.591L521.771 822.004L521.771 822.004L511.788 822.591ZM505.675 862.642L515.386 865.03L515.386 865.03L505.675 862.642ZM497.678 919.779L487.686 920.178L487.686 920.178L497.678 919.779ZM477.116 993.485L467.743 989.998C467.703 990.106 467.665 990.214 467.629 990.323L477.116 993.485ZM477.116 993.486L486.488 996.972C486.528 996.865 486.566 996.757 486.603 996.648L477.116 993.486ZM447.509 1118.86L437.547 1119.73L437.547 1119.73L447.509 1118.86ZM455.213 1197.61L465.16 1196.58L465.16 1196.58L455.213 1197.61ZM442.805 1358.69L442.371 1348.7L442.369 1348.7L442.805 1358.69ZM387.933 1161.18L377.951 1161.79C377.952 1161.8 377.953 1161.82 377.954 1161.83L387.933 1161.18ZM387.382 1151.6L377.398 1152.17L377.398 1152.17L387.382 1151.6ZM369.119 984.048L364.648 975.103L364.648 975.103L369.119 984.048ZM367.812 1018.2L377.783 1017.44L377.783 1017.44L367.812 1018.2ZM362.848 1126.69L372.49 1129.35L372.49 1129.35L362.848 1126.69ZM314.246 1333.61L304.696 1336.57L304.696 1336.57L314.246 1333.61ZM299.292 1249.93L289.386 1251.3L289.386 1251.3L299.292 1249.93ZM276.619 1140.8L267.602 1145.12L267.605 1145.13L276.619 1140.8ZM233.976 934.357L243.87 932.905L243.869 932.902L233.976 934.357ZM232.721 926.049L222.738 926.631C222.757 926.959 222.793 927.285 222.844 927.609L232.721 926.049ZM232.721 926.045L242.704 925.463C242.461 921.286 239.643 917.703 235.641 916.481C231.64 915.259 227.301 916.658 224.766 919.986L232.721 926.045ZM232.718 926.049L224.763 919.99C224.76 919.994 224.757 919.997 224.754 920.001L232.718 926.049ZM221.146 1164.14L211.267 1165.68L211.267 1165.68L221.146 1164.14ZM228.015 1270.91L237.34 1274.52C237.353 1274.48 237.366 1274.45 237.378 1274.42L228.015 1270.91ZM230.059 1331.05L239.61 1328.09L239.61 1328.09L230.059 1331.05ZM223.311 1369.66L221.021 1379.4C223.43 1379.96 225.962 1379.62 228.13 1378.42L223.311 1369.66ZM84.7818 1373.82L88.723 1383.01L88.7231 1383.01L84.7818 1373.82ZM69.668 1379.07L71.1884 1388.95L71.1885 1388.95L69.668 1379.07ZM54.1949 1372.17L63.6551 1368.93L63.6551 1368.93L54.1949 1372.17ZM44.5834 1353.99L36.6576 1360.08L36.6576 1360.08L44.5834 1353.99ZM38.3122 1142.37L29.5504 1137.55L29.5504 1137.55L38.3122 1142.37ZM94.5671 956.175L104.394 958.026L104.396 958.018L94.5671 956.175ZM94.5701 956.159L84.7431 954.307L84.7414 954.316L94.5701 956.159ZM94.5812 956.1L104.408 957.952L104.408 957.951L94.5812 956.1ZM97.8883 938.589L107.713 940.453C107.856 939.702 107.911 938.937 107.88 938.173L97.8883 938.589ZM132.38 789.673L123.992 784.228C123.804 784.518 123.631 784.817 123.474 785.125L132.38 789.673ZM171.824 719.467L180.851 723.771C182.26 720.816 182.133 717.358 180.511 714.514C178.889 711.669 175.978 709.799 172.717 709.507L171.824 719.467ZM120.619 707.535L124.632 698.376C124.119 698.151 123.588 697.97 123.044 697.834L120.619 707.535ZM119.051 706.752L124.598 698.431C124.576 698.417 124.555 698.403 124.534 698.389L119.051 706.752ZM97.1171 574.221L106.703 577.067L106.703 577.067L97.1171 574.221ZM97.8858 571.63L107.474 574.471L107.477 574.462L97.8858 571.63ZM152.758 455.162L146.46 447.395C146.448 447.405 146.436 447.415 146.424 447.424L152.758 455.162ZM237.628 440.477L237.427 450.475C241.295 450.553 244.86 448.394 246.583 444.929C248.305 441.465 247.875 437.318 245.478 434.282L237.628 440.477ZM209.043 418.325L204.44 427.203C204.444 427.205 204.449 427.207 204.453 427.209L209.043 418.325ZM194.816 426.814L185.328 423.655L185.328 423.655L194.816 426.814ZM186.937 436.508L186.461 446.497C186.523 446.5 186.585 446.502 186.647 446.504L186.937 436.508ZM180.979 429.924L170.98 429.831C170.979 429.862 170.979 429.893 170.979 429.924L180.979 429.924ZM236.009 378.98L231.537 387.924C231.726 388.019 231.918 388.107 232.113 388.189L236.009 378.98ZM254.76 389.047L249.207 397.364C249.676 397.677 250.17 397.95 250.685 398.18L254.76 389.047ZM257.3 390.022L254.225 399.538C257.813 400.698 261.749 399.74 264.403 397.061C267.058 394.382 267.979 390.437 266.786 386.86L257.3 390.022ZM257.016 389.172L266.503 386.009C266.47 385.91 266.435 385.812 266.399 385.714L257.016 389.172ZM253.619 379.954L263.003 376.496C261.785 373.193 258.921 370.773 255.461 370.125L253.619 379.954ZM229.739 361.737L239.638 360.323C239.627 360.246 239.615 360.169 239.602 360.093L229.739 361.737ZM229.268 358.916L239.132 357.271C239.096 357.058 239.054 356.845 239.004 356.634L229.268 358.916ZM221.802 327.056L231.538 324.775C230.62 320.855 227.44 317.868 223.47 317.196L221.802 327.056ZM215.474 325.683L213.049 335.384L213.049 335.384L215.474 325.683ZM207.816 287.041L217.801 286.485C217.607 282.998 215.607 279.865 212.526 278.22C209.446 276.575 205.73 276.656 202.724 278.435L207.816 287.041ZM311.921 635.023L312.188 645.019C314.294 644.963 316.329 644.243 318.002 642.961L311.921 635.023ZM312 634.963L318.081 642.901C320.877 640.759 322.34 637.305 321.933 633.806L312 634.963ZM311.919 635.023L302.007 636.351C302.686 641.417 307.076 645.156 312.185 645.019L311.919 635.023ZM310.422 624.177L320.28 622.495C319.36 617.105 314.282 613.453 308.88 614.297C303.477 615.14 299.754 620.166 300.521 625.579L310.422 624.177ZM114.552 306.336C114.939 306.304 115.222 306.315 115.387 306.336C115.557 306.356 115.474 306.37 115.228 306.258L123.503 288.05C119.658 286.303 115.724 286.169 112.891 286.405L114.552 306.336ZM86.9552 290.212C87.1558 294.927 89.2493 298.858 92.4584 301.596C95.3463 304.061 98.6873 305.197 101.26 305.775C106.357 306.92 111.788 306.58 114.6 306.332L112.843 286.409C111.7 286.51 110.358 286.592 109.005 286.577C107.611 286.562 106.466 286.446 105.645 286.261C104.729 286.055 104.895 285.917 105.442 286.383C105.773 286.666 106.181 287.123 106.498 287.763C106.819 288.411 106.921 288.992 106.937 289.362L86.9552 290.212ZM96.6373 274.768C91.4877 277.171 86.4938 282.863 86.9656 290.411L106.927 289.163C107.006 290.437 106.587 291.383 106.237 291.899C105.9 292.395 105.503 292.701 105.094 292.892L96.6373 274.768ZM143.353 234.766C134.481 230.151 134.482 230.15 134.483 230.149C134.483 230.148 134.483 230.147 134.484 230.147C134.484 230.146 134.484 230.146 134.484 230.146C134.484 230.147 134.482 230.15 134.479 230.155C134.474 230.166 134.463 230.186 134.448 230.214C134.418 230.272 134.369 230.364 134.301 230.49C134.167 230.743 133.958 231.129 133.681 231.632C133.127 232.639 132.298 234.111 131.232 235.919C129.093 239.545 126.026 244.469 122.316 249.671C114.542 260.573 105.225 270.838 96.704 274.737L105.027 292.923C118.769 286.634 130.696 272.367 138.599 261.284C142.728 255.494 146.109 250.062 148.458 246.081C149.635 244.085 150.561 242.44 151.199 241.282C151.519 240.702 151.767 240.242 151.939 239.92C152.025 239.759 152.092 239.633 152.14 239.542C152.164 239.497 152.183 239.461 152.197 239.434C152.204 239.42 152.209 239.409 152.214 239.401C152.216 239.396 152.218 239.393 152.22 239.389C152.221 239.388 152.222 239.386 152.222 239.385C152.223 239.383 152.224 239.382 143.353 234.766ZM290.886 10.0153C236.718 9.1418 201.462 45.3303 178.193 89.8388C154.928 134.338 142.172 189.686 133.547 232.805L153.158 236.728C161.779 193.632 174.108 140.82 195.917 99.1051C217.721 57.3991 247.529 29.3187 290.564 30.0127L290.886 10.0153ZM430.121 82.2676C413.449 59.5719 396.896 41.4792 374.974 29.1134C352.973 16.7035 326.527 10.5901 290.886 10.0153L290.564 30.0127C324.076 30.5532 346.945 36.2656 365.148 46.5333C383.429 56.8451 397.969 72.2817 414.003 94.1082L430.121 82.2676ZM416.473 79.8915L416.272 80.0344L427.851 96.3415L428.053 96.1986L416.473 79.8915ZM434.874 88.8563L430.553 82.452L413.973 93.6381L418.295 100.043L434.874 88.8563ZM458.237 123.241C449.91 110.735 442.202 99.1567 434.734 88.6544L418.434 100.244C425.69 110.448 433.22 121.756 441.59 134.325L458.237 123.241ZM458.273 123.295L458.272 123.294L441.555 134.272L441.556 134.274L458.273 123.295ZM458.229 123.229L458.222 123.219L441.606 134.35L441.612 134.36L458.229 123.229ZM474.592 147.639C468.803 139.109 463.398 130.992 458.244 123.252L441.597 134.336C446.745 142.068 452.197 150.257 458.043 158.87L474.592 147.639ZM528.859 201.523C526.669 201.419 525.206 201.324 523.326 200.729C521.432 200.13 518.624 198.845 514.604 195.739C506.339 189.352 493.804 175.947 474.592 147.639L458.043 158.87C477.616 187.71 491.573 203.217 502.375 211.564C507.888 215.825 512.757 218.362 517.291 219.797C521.84 221.237 525.557 221.389 527.907 221.501L528.859 201.523ZM550.287 215.755C547.46 210.73 544.262 206.646 539.85 204.17C535.415 201.681 530.986 201.625 528.859 201.523L527.907 221.501C530.647 221.631 530.35 221.772 530.062 221.611C529.796 221.461 530.759 221.834 532.856 225.562L550.287 215.755ZM426.111 254.887C453.556 262.693 475.713 266.738 493.364 267.891C510.895 269.035 524.659 267.374 534.858 263.12C545.35 258.743 552.417 251.397 554.804 241.825C557.084 232.683 554.606 223.433 550.287 215.755L532.856 225.562C535.591 230.424 536.053 234.361 535.399 236.985C534.851 239.179 533.109 242.179 527.159 244.661C520.916 247.265 510.604 248.974 494.667 247.933C478.851 246.901 458.149 243.206 431.583 235.65L426.111 254.887ZM423.485 253.865C423.98 254.072 424.477 254.279 424.975 254.489L432.719 236.049C432.204 235.832 431.69 235.618 431.178 235.404L423.485 253.865ZM437.241 246.002C437.251 245.913 437.261 245.822 437.271 245.73L417.392 243.539C417.384 243.61 417.376 243.682 417.368 243.755L437.241 246.002ZM428.228 261.948C430.999 261.64 434.343 261.053 437.135 259.465C438.629 258.614 440.829 256.99 442.158 254.114C443.634 250.923 443.339 247.731 442.406 245.333C440.942 241.57 437.823 239.396 436.647 238.602C434.956 237.458 433.068 236.501 431.382 235.748L423.227 254.01C424.329 254.502 425.073 254.919 425.446 255.171C425.631 255.295 425.533 255.252 425.294 255.014C425.123 254.844 424.334 254.044 423.766 252.583C423.092 250.851 422.811 248.303 424.005 245.721C425.052 243.455 426.675 242.405 427.244 242.081C428.186 241.546 428.29 241.818 426.02 242.07L428.228 261.948ZM427.44 262.04C427.702 262.008 427.964 261.977 428.228 261.948L426.02 242.07C425.688 242.107 425.359 242.146 425.031 242.185L427.44 262.04ZM432.103 272.919C433.485 266.768 434.995 260.057 436.085 253.839L416.385 250.386C415.393 256.049 413.995 262.279 412.589 268.534L432.103 272.919ZM432.108 272.897L432.108 272.896L412.584 268.557L412.584 268.558L432.108 272.897ZM429.115 286.918C429.877 282.828 430.942 278.087 432.103 272.92L412.589 268.535C411.451 273.601 410.297 278.729 409.454 283.252L429.115 286.918ZM424.431 308.462C425.84 302.535 427.477 295.651 429.113 286.928L409.456 283.242C407.916 291.451 406.378 297.927 404.973 303.838L424.431 308.462ZM419.878 339.948C419.878 327.708 421.688 320.004 424.431 308.462L404.973 303.838C402.195 315.527 399.878 325.19 399.878 339.948H419.878ZM377.406 376.149C386.385 375.167 396.705 373.228 404.95 368.02C414.013 362.296 419.878 353.045 419.878 339.948H399.878C399.878 346.05 397.645 348.979 394.27 351.111C390.076 353.759 383.617 355.351 375.233 356.267L377.406 376.149ZM383.747 376.395C384.569 373.62 385.3 371.129 385.919 369.01L366.72 363.406C366.108 365.503 365.384 367.968 364.57 370.715L383.747 376.395ZM389.815 360.926C384.721 357.969 379.524 359.252 376.595 360.416C373.465 361.66 370.5 363.685 367.929 365.733L380.388 381.378C381.302 380.65 382.084 380.093 382.732 379.683C383.395 379.264 383.806 379.072 383.982 379.002C384.184 378.922 383.871 379.083 383.164 379.111C382.37 379.141 381.101 378.993 379.774 378.223L389.815 360.926ZM390.898 361.55C390.503 361.322 390.131 361.108 389.784 360.908L379.805 378.241C380.148 378.438 380.517 378.651 380.912 378.878L390.898 361.55ZM391.051 361.64L391.05 361.639L380.76 378.789L380.761 378.789L391.051 361.64ZM440.393 386.277C439.535 386.187 436.905 385.44 432.277 383.451C428.007 381.618 422.963 379.145 417.733 376.425C407.289 370.993 396.64 364.858 390.898 361.55L380.913 378.879C386.63 382.173 397.628 388.512 408.505 394.169C413.935 396.993 419.47 399.717 424.383 401.828C428.938 403.784 434.096 405.728 438.315 406.168L440.393 386.277ZM450.5 391.188C448.11 388.799 444.649 386.702 440.348 386.272L438.359 406.173C437.193 406.056 436.555 405.527 436.36 405.332L450.5 391.188ZM430.26 418.763C434.529 418.763 438.394 418.501 441.705 417.871C444.769 417.288 448.554 416.18 451.584 413.623C453.235 412.229 454.787 410.295 455.668 407.757C456.557 405.199 456.539 402.675 456.044 400.48C455.143 396.482 452.638 393.377 450.585 391.274L436.275 405.246C436.75 405.733 436.933 405.998 436.959 406.037C436.995 406.094 436.717 405.694 436.533 404.878C436.33 403.976 436.269 402.652 436.775 401.196C437.274 399.76 438.102 398.83 438.686 398.338C439.58 397.583 439.847 397.866 437.967 398.224C436.335 398.534 433.831 398.763 430.26 398.763V418.763ZM429.974 418.765C430.072 418.763 430.167 418.763 430.26 418.763V398.763C430.066 398.763 429.871 398.764 429.677 398.767L429.974 418.765ZM430.259 411.897C440.24 411.273 440.24 411.273 440.24 411.272C440.24 411.271 440.24 411.271 440.24 411.27C440.24 411.269 440.239 411.267 440.239 411.266C440.239 411.264 440.239 411.261 440.239 411.258C440.239 411.253 440.238 411.247 440.238 411.241C440.237 411.229 440.236 411.216 440.235 411.201C440.233 411.171 440.231 411.136 440.228 411.096C440.222 411.016 440.214 410.916 440.203 410.796C440.183 410.558 440.152 410.241 440.108 409.86C440.02 409.104 439.876 408.067 439.643 406.866L420.007 410.666C420.127 411.283 420.2 411.812 420.241 412.167C420.261 412.342 420.273 412.467 420.279 412.531C420.281 412.563 420.283 412.579 420.283 412.578C420.283 412.578 420.282 412.573 420.282 412.563C420.281 412.559 420.281 412.553 420.28 412.546C420.28 412.542 420.28 412.538 420.28 412.534C420.279 412.532 420.279 412.53 420.279 412.528C420.279 412.527 420.279 412.526 420.279 412.525C420.279 412.524 420.279 412.523 420.279 412.523C420.279 412.522 420.279 412.521 430.259 411.897ZM495.452 459.729C474.227 451.433 450.912 442.141 439.744 408.727L420.775 415.067C435.049 457.771 466.491 469.882 488.171 478.357L495.452 459.729ZM528.685 482.91C525.411 475.895 519.746 471.324 514.02 468.013C508.406 464.767 501.707 462.174 495.452 459.729L488.171 478.357C494.834 480.961 499.978 482.997 504.01 485.328C507.928 487.593 509.711 489.546 510.562 491.368L528.685 482.91ZM505.362 668.057C519.905 632.514 529.092 590.036 533.086 555.091C535.085 537.608 535.82 521.696 535.196 509.245C534.885 503.047 534.224 497.398 533.09 492.717C532.081 488.551 530.258 483.156 526.208 479.613L513.039 494.665C512.124 493.865 512.8 493.908 513.653 497.426C514.38 500.43 514.944 504.713 515.221 510.246C515.773 521.259 515.137 536.013 513.216 552.82C509.371 586.454 500.529 627.055 486.851 660.484L505.362 668.057ZM499.706 697.892C500.155 686.009 501.797 675.616 505.144 668.552L487.069 659.989C481.939 670.818 480.196 684.542 479.72 697.136L499.706 697.892ZM513.844 734.964C513.207 730.502 511.343 724.401 508.879 717.66C506.34 710.715 502.921 702.443 498.823 693.39L480.603 701.638C484.552 710.363 487.768 718.163 490.094 724.526C492.494 731.091 493.723 735.534 494.045 737.793L513.844 734.964ZM535.068 774.125C530.276 766.793 525.161 758.959 521.044 751.656C516.733 744.008 514.32 738.296 513.844 734.964L494.045 737.793C495.106 745.218 499.317 753.841 503.621 761.477C508.119 769.456 513.612 777.853 518.327 785.067L535.068 774.125ZM531.163 811.319C532.583 811.964 534.767 812.836 537.233 812.991C540.015 813.166 545.297 812.338 547.989 806.989C549.891 803.209 549.041 799.548 548.756 798.397C548.34 796.722 547.668 795.121 547.046 793.806C544.66 788.754 539.803 781.369 535.068 774.125L518.327 785.067C523.48 792.951 527.321 798.874 528.962 802.348C529.348 803.164 529.39 803.396 529.343 803.209C529.317 803.102 529.199 802.613 529.193 801.865C529.187 801.147 529.28 799.674 530.123 797.998C532.437 793.4 536.941 792.933 538.488 793.03C539.721 793.108 540.216 793.464 539.438 793.111L531.163 811.319ZM497.389 776.014C507.851 784.556 517.974 795.056 527.141 807.995L543.46 796.434C533.213 781.97 521.842 770.16 510.038 760.522L497.389 776.014ZM521.771 822.004C520.901 807.22 519.368 785.437 513.283 765.366L494.143 771.169C499.466 788.727 500.933 808.355 501.805 823.179L521.771 822.004ZM515.386 865.03C518.862 850.891 522.598 836.066 521.771 822.004L501.805 823.179C502.42 833.625 499.641 845.298 495.964 860.255L515.386 865.03ZM507.67 919.379C506.887 899.816 511.155 882.236 515.386 865.03L495.964 860.255C491.792 877.225 486.775 897.406 487.686 920.178L507.67 919.379ZM486.488 996.972C492.086 981.925 497.513 967.349 501.437 954.433C505.294 941.734 508.075 929.497 507.67 919.379L487.686 920.178C487.947 926.707 486.075 936.192 482.3 948.619C478.591 960.83 473.403 974.784 467.743 989.998L486.488 996.972ZM486.603 996.648L486.603 996.647L467.629 990.323L467.629 990.323L486.603 996.648ZM457.47 1117.98C456 1101.2 459.237 1081.44 465.023 1060.28C470.787 1039.2 478.836 1017.54 486.488 996.972L467.743 989.999C460.15 1010.41 451.772 1032.91 445.731 1055C439.714 1077.01 435.77 1099.45 437.547 1119.73L457.47 1117.98ZM465.16 1196.58C462.661 1172.41 459.943 1146.11 457.47 1117.98L437.547 1119.73C440.035 1148.03 442.769 1174.48 445.266 1198.64L465.16 1196.58ZM443.24 1368.68C448.762 1368.44 453.859 1366.69 458.197 1363.32C462.425 1360.04 465.4 1355.62 467.521 1350.81C471.649 1341.46 473.269 1328.94 473.653 1314.71C474.428 1286.04 470.195 1245.29 465.16 1196.58L445.266 1198.64C450.365 1247.96 454.391 1287.13 453.661 1314.17C453.292 1327.8 451.718 1337.09 449.224 1342.74C448.035 1345.43 446.842 1346.82 445.921 1347.53C445.112 1348.16 444.08 1348.62 442.371 1348.7L443.24 1368.68ZM377.954 1161.83C378.915 1176.48 383.7 1226.69 392.797 1273.2C397.331 1296.38 403.041 1319.2 410.105 1336.33C413.615 1344.85 417.716 1352.6 422.619 1358.33C427.479 1364.01 434.37 1369.07 443.241 1368.68L442.369 1348.7C442.265 1348.7 440.769 1348.78 437.814 1345.33C434.904 1341.93 431.764 1336.4 428.595 1328.71C422.298 1313.44 416.886 1292.17 412.425 1269.36C403.532 1223.89 398.832 1174.56 397.911 1160.52L377.954 1161.83ZM377.398 1152.17C377.633 1156.33 377.82 1159.63 377.951 1161.79L397.914 1160.57C397.786 1158.47 397.603 1155.23 397.366 1151.04L377.398 1152.17ZM373.591 992.992C371.122 994.227 368.191 994.259 365.705 993.105C363.748 992.196 362.79 990.892 362.578 990.596C362.141 989.986 362.28 989.929 362.726 991.339C363.511 993.823 364.418 998.111 365.369 1004.16C367.242 1016.08 369.015 1032.99 370.614 1051.57C373.805 1088.65 376.227 1131.47 377.398 1152.17L397.366 1151.04C396.197 1130.38 393.76 1087.28 390.54 1049.86C388.934 1031.19 387.114 1013.7 385.127 1001.06C384.148 994.832 383.058 989.304 381.796 985.31C381.217 983.481 380.32 981.018 378.834 978.946C378.099 977.919 376.614 976.12 374.128 974.965C371.113 973.565 367.651 973.602 364.648 975.103L373.591 992.992ZM377.783 1017.44C377.043 1007.7 376.475 1000.13 376.51 994.724C376.528 991.985 376.707 990.44 376.871 989.726C377.174 988.404 376.954 991.311 373.591 992.992L364.648 975.103C359.404 977.725 357.899 982.981 357.378 985.251C356.717 988.129 356.531 991.42 356.511 994.594C356.469 1001.02 357.128 1009.58 357.841 1018.96L377.783 1017.44ZM372.49 1129.35C383.376 1089.77 379.945 1045.88 377.783 1017.44L357.841 1018.96C360.044 1047.93 363.023 1088.35 353.206 1124.04L372.49 1129.35ZM374.187 1314.24C370.395 1296.8 365.759 1265.62 364.215 1231.08C362.666 1196.42 364.272 1159.23 372.49 1129.35L353.206 1124.04C344.179 1156.86 342.648 1196.47 344.235 1231.97C345.827 1267.58 350.598 1299.88 354.644 1318.49L374.187 1314.24ZM304.696 1336.57C308.702 1349.48 315.338 1358.92 324.272 1363.9C333.411 1368.99 343.394 1368.53 351.79 1364.62C368.081 1357.01 379.028 1336.5 374.187 1314.24L354.644 1318.49C357.642 1332.28 350.56 1343.12 343.334 1346.49C339.972 1348.06 336.825 1348 334.008 1346.43C330.989 1344.74 326.846 1340.47 323.797 1330.64L304.696 1336.57ZM289.386 1251.3C293.826 1283.43 298.279 1315.9 304.696 1336.57L323.797 1330.64C317.988 1311.93 313.746 1281.47 309.198 1248.56L289.386 1251.3ZM267.605 1145.13C272.32 1154.95 276.333 1170.46 279.921 1189.58C283.468 1208.49 286.438 1229.96 289.386 1251.3L309.198 1248.56C306.266 1227.34 303.231 1205.36 299.578 1185.89C295.965 1166.64 291.582 1148.86 285.634 1136.47L267.605 1145.13ZM224.081 935.808C226.677 953.504 233.283 996.75 241.291 1039.88C245.294 1061.43 249.666 1083.05 254.08 1101.48C258.428 1119.63 263.011 1135.55 267.602 1145.12L285.637 1136.48C282.076 1129.05 277.899 1115.06 273.53 1096.82C269.229 1078.87 264.928 1057.62 260.955 1036.22C253.012 993.448 246.448 950.479 243.87 932.905L224.081 935.808ZM232.721 926.049C222.844 927.609 222.844 927.609 222.844 927.609C222.844 927.609 222.844 927.609 222.844 927.609C222.844 927.609 222.844 927.609 222.844 927.609C222.844 927.609 222.844 927.609 222.844 927.609C222.844 927.61 222.844 927.612 222.845 927.615C222.845 927.619 222.847 927.627 222.848 927.638C222.852 927.659 222.857 927.691 222.864 927.735C222.877 927.823 222.898 927.956 222.926 928.133C222.981 928.488 223.063 929.018 223.169 929.715C223.382 931.108 223.693 933.167 224.082 935.812L243.869 932.902C243.474 930.217 243.158 928.122 242.94 926.694C242.831 925.98 242.746 925.432 242.688 925.062C242.66 924.876 242.638 924.735 242.623 924.639C242.615 924.591 242.609 924.555 242.605 924.53C242.603 924.517 242.602 924.507 242.601 924.501C242.6 924.497 242.6 924.494 242.6 924.493C242.599 924.492 242.599 924.491 242.599 924.49C242.599 924.49 242.599 924.49 242.599 924.489C242.599 924.489 242.599 924.489 242.599 924.489C242.599 924.489 242.599 924.489 232.721 926.049ZM222.738 926.628L222.738 926.631L242.704 925.466L242.704 925.463L222.738 926.628ZM240.673 932.109L240.676 932.105L224.766 919.986L224.763 919.99L240.673 932.109ZM231.026 1162.59C224.614 1121.67 217.509 1076.2 216.946 1034.38C216.378 992.244 222.533 955.997 240.682 932.097L224.754 920.001C202.387 949.455 196.366 991.475 196.947 1034.65C197.533 1078.15 204.9 1125.05 211.267 1165.68L231.026 1162.59ZM237.378 1274.42C241.749 1262.76 241.599 1245.9 239.959 1227.61C238.274 1208.82 234.756 1186.4 231.026 1162.59L211.267 1165.68C215.031 1189.71 218.425 1211.4 220.039 1229.4C221.699 1247.9 221.236 1260.51 218.652 1267.4L237.378 1274.42ZM239.61 1328.09C234.546 1311.75 229.495 1294.78 237.34 1274.52L218.689 1267.3C208.098 1294.65 215.475 1317.78 220.507 1334.01L239.61 1328.09ZM228.13 1378.42C233.179 1375.65 237.298 1372.19 240.19 1367.82C243.122 1363.39 244.387 1358.64 244.638 1353.95C245.099 1345.33 242.051 1335.96 239.61 1328.09L220.507 1334.01C223.321 1343.09 224.895 1348.62 224.667 1352.88C224.573 1354.62 224.166 1355.8 223.512 1356.78C222.819 1357.83 221.439 1359.28 218.493 1360.9L228.13 1378.42ZM88.7231 1383.01C98.8925 1378.65 111.624 1373.19 131.746 1370.99C152.002 1368.77 180.261 1369.81 221.021 1379.4L225.601 1359.93C183.162 1349.94 152.571 1348.59 129.569 1351.11C106.432 1353.64 91.4991 1360.05 80.8405 1364.63L88.7231 1383.01ZM71.1885 1388.95C77.186 1388.03 83.245 1385.36 88.723 1383.01L80.8405 1364.63C74.5977 1367.3 71.101 1368.73 68.1476 1369.18L71.1885 1388.95ZM44.7346 1375.41C45.2202 1376.82 45.9502 1379.04 46.9756 1380.98C48.157 1383.22 50.0417 1385.76 53.2289 1387.55C56.2213 1389.22 59.3814 1389.67 62.1077 1389.73C64.8283 1389.78 67.8794 1389.46 71.1884 1388.95L68.1477 1369.18C65.2302 1369.63 63.518 1369.75 62.5251 1369.73C61.5378 1369.71 62.0342 1369.56 62.9991 1370.1C63.5041 1370.38 63.9353 1370.74 64.2621 1371.11C64.5624 1371.44 64.6819 1371.68 64.665 1371.65C64.6393 1371.6 64.5397 1371.4 64.3505 1370.9C64.1576 1370.39 63.9525 1369.79 63.6551 1368.93L44.7346 1375.41ZM36.6576 1360.08C41.7819 1366.74 43.4245 1371.58 44.7347 1375.41L63.6551 1368.93C62.071 1364.3 59.5823 1357.08 52.5092 1347.89L36.6576 1360.08ZM29.5504 1137.55C10.7827 1171.67 8.72158 1222.06 12.6766 1264.97C14.6813 1286.71 18.2924 1307.17 22.4439 1323.59C24.5186 1331.8 26.7578 1339.12 29.0478 1345.16C31.2595 1350.99 33.7812 1356.35 36.6576 1360.08L52.5092 1347.89C51.4662 1346.53 49.7743 1343.41 47.7482 1338.07C45.8003 1332.93 43.777 1326.38 41.8342 1318.69C37.9509 1303.33 34.5069 1283.9 32.5921 1263.13C28.7082 1221 31.3505 1175.77 47.0741 1147.19L29.5504 1137.55ZM84.7401 954.323C69.6307 1034.51 60.8776 1080.6 29.5504 1137.55L47.0741 1147.19C80.1497 1087.06 89.3377 1037.93 104.394 958.026L84.7401 954.323ZM84.7414 954.316L84.7384 954.332L104.396 958.018L104.399 958.002L84.7414 954.316ZM84.7542 954.248L84.7431 954.307L104.397 958.011L104.408 957.952L84.7542 954.248ZM88.0634 936.726C86.9222 942.742 85.8222 948.58 84.7542 954.248L104.408 957.951C105.477 952.282 106.574 946.456 107.713 940.453L88.0634 936.726ZM132.38 789.673C123.474 785.125 123.473 785.127 123.471 785.13C123.471 785.131 123.469 785.134 123.468 785.136C123.466 785.141 123.463 785.147 123.459 785.154C123.452 785.168 123.442 785.187 123.431 785.21C123.407 785.257 123.375 785.321 123.334 785.402C123.252 785.566 123.135 785.799 122.987 786.101C122.69 786.704 122.264 787.579 121.73 788.709C120.661 790.969 119.154 794.249 117.364 798.408C113.786 806.72 109.065 818.574 104.445 832.834C95.2443 861.231 86.2602 899.731 87.8969 939.006L107.88 938.173C106.381 902.206 114.642 866.248 123.471 838.998C127.866 825.433 132.355 814.167 135.735 806.314C137.423 802.39 138.832 799.327 139.808 797.263C140.296 796.232 140.676 795.451 140.929 794.938C141.055 794.681 141.149 794.492 141.21 794.372C141.24 794.312 141.261 794.269 141.274 794.244C141.28 794.231 141.285 794.223 141.287 794.22C141.287 794.218 141.288 794.217 141.288 794.217C141.288 794.218 141.287 794.219 141.287 794.219C141.286 794.22 141.285 794.222 132.38 789.673ZM162.798 715.163C154.488 732.589 144.789 749.861 137.128 762.831C133.306 769.301 130.009 774.67 127.673 778.415C126.505 780.286 125.578 781.75 124.946 782.741C124.63 783.237 124.388 783.614 124.227 783.865C124.146 783.99 124.086 784.083 124.046 784.144C124.027 784.175 124.012 784.197 124.003 784.211C123.999 784.218 123.996 784.223 123.994 784.226C123.993 784.227 123.992 784.228 123.992 784.229C123.992 784.229 123.992 784.229 123.992 784.229C123.992 784.229 123.992 784.228 132.38 789.673C140.767 795.119 140.767 795.118 140.768 795.117C140.768 795.117 140.769 795.116 140.769 795.115C140.771 795.113 140.772 795.111 140.774 795.108C140.777 795.103 140.782 795.095 140.789 795.085C140.801 795.066 140.819 795.038 140.843 795.002C140.889 794.93 140.957 794.824 141.045 794.688C141.222 794.414 141.479 794.012 141.811 793.492C142.475 792.451 143.436 790.932 144.64 789.002C147.048 785.144 150.43 779.635 154.348 773.002C162.167 759.766 172.19 741.935 180.851 723.771L162.798 715.163ZM116.606 716.695C132.71 723.751 151.397 727.676 170.932 729.427L172.717 709.507C154.552 707.879 138.146 704.298 124.632 698.376L116.606 716.695ZM113.504 715.072C113.863 715.312 115.666 716.605 118.193 717.237L123.044 697.834C123.71 698 124.216 698.235 124.517 698.397C124.655 698.472 124.742 698.527 124.752 698.533C124.758 698.537 124.751 698.533 124.724 698.515C124.694 698.495 124.661 698.473 124.598 698.431L113.504 715.072ZM87.5309 571.374C81.3734 592.108 73.4782 618.388 74.1612 643.925C74.8655 670.26 84.7049 696.192 113.568 715.115L124.534 698.389C102.093 683.677 94.7156 664.389 94.154 643.39C93.571 621.592 100.361 598.424 106.703 577.067L87.5309 571.374ZM88.298 568.789C88.045 569.643 87.7893 570.503 87.5309 571.374L106.703 577.067C106.962 576.198 107.219 575.332 107.474 574.471L88.298 568.789ZM146.424 447.424C131.879 459.331 120.524 479.795 111.414 501.26C102.157 523.07 94.5741 547.532 88.2951 568.798L107.477 574.462C113.74 553.248 121.051 529.743 129.824 509.074C138.743 488.058 148.553 471.528 159.093 462.9L146.424 447.424ZM237.83 430.479C224.62 430.213 207.076 430.456 190.523 432.57C174.557 434.608 157.279 438.622 146.46 447.395L159.057 462.93C165.122 458.011 177.298 454.421 193.056 452.409C208.227 450.472 224.676 450.218 237.427 450.475L237.83 430.479ZM204.453 427.209C211.989 431.102 215.901 433.173 219.21 435.636C222.3 437.936 225.154 440.814 229.779 446.673L245.478 434.282C240.364 427.804 236.256 423.392 231.152 419.593C226.267 415.957 220.756 413.12 213.632 409.44L204.453 427.209ZM204.304 429.974C204.589 429.117 204.83 428.396 205.076 427.713C205.319 427.038 205.53 426.505 205.725 426.074C205.92 425.641 206.059 425.401 206.129 425.292C206.199 425.184 206.144 425.295 205.925 425.499C205.687 425.72 205.29 426.017 204.735 426.25C204.171 426.488 203.647 426.573 203.263 426.582C202.598 426.598 202.858 426.382 204.44 427.203L213.645 409.447C210.367 407.747 206.696 406.497 202.8 406.588C198.564 406.686 195.002 408.347 192.312 410.847C189.875 413.11 188.415 415.811 187.497 417.844C186.568 419.901 185.849 422.091 185.328 423.655L204.304 429.974ZM186.647 446.504C193.512 446.703 197.947 442.733 200.36 439.034C202.399 435.91 203.602 432.079 204.304 429.974L185.328 423.655C184.897 424.949 184.574 425.91 184.239 426.757C183.903 427.605 183.688 427.987 183.609 428.107C183.539 428.214 183.814 427.744 184.585 427.263C184.983 427.015 185.449 426.805 185.957 426.67C186.463 426.535 186.902 426.503 187.227 426.512L186.647 446.504ZM170.979 429.924C170.979 438.191 177.333 446.062 186.461 446.497L187.412 426.519C188.71 426.581 189.639 427.188 190.15 427.754C190.655 428.314 190.979 429.068 190.979 429.924H170.979ZM224.505 371.129C218.974 374.815 206.303 383.535 194.899 393.605C189.215 398.624 183.556 404.229 179.228 409.928C175.158 415.288 171.05 422.279 170.98 429.831L190.979 430.018C190.987 429.183 191.7 426.574 195.156 422.024C198.353 417.813 202.924 413.2 208.136 408.598C218.523 399.426 230.31 391.295 235.597 387.771L224.505 371.129ZM240.48 370.035C235.191 367.391 229.182 368.011 224.505 371.129L235.597 387.771C235.193 388.041 234.579 388.302 233.797 388.362C233.007 388.423 232.215 388.263 231.537 387.924L240.48 370.035ZM260.314 380.731C252.233 375.335 244.311 371.634 239.905 369.77L232.113 388.189C235.815 389.755 242.515 392.895 249.207 397.364L260.314 380.731ZM260.375 380.507C259.872 380.345 259.364 380.151 258.835 379.915L250.685 398.18C251.871 398.709 253.047 399.158 254.225 399.538L260.375 380.507ZM247.529 392.334L247.813 393.185L266.786 386.86L266.503 386.009L247.529 392.334ZM244.236 383.411L247.633 392.629L266.399 385.714L263.003 376.496L244.236 383.411ZM219.839 363.152C222.403 381.099 239.435 387.47 251.778 389.783L255.461 370.125C250.165 369.132 246.092 367.635 243.409 365.806C240.989 364.156 239.943 362.454 239.638 360.323L219.839 363.152ZM219.404 360.56L219.875 363.381L239.602 360.093L239.132 357.271L219.404 360.56ZM212.066 329.338L219.532 361.197L239.004 356.634L231.538 324.775L212.066 329.338ZM213.049 335.384C215.189 335.919 217.698 336.504 220.134 336.916L223.47 317.196C221.791 316.912 219.862 316.472 217.899 315.981L213.049 335.384ZM197.832 287.597C198.116 292.706 198.772 302.406 200.044 311.104C200.672 315.392 201.508 319.864 202.664 323.53C203.231 325.326 204.02 327.41 205.175 329.294C206.129 330.85 208.519 334.252 213.049 335.384L217.899 315.981C219.607 316.408 220.741 317.253 221.334 317.8C221.912 318.333 222.182 318.77 222.227 318.843C222.293 318.95 222.084 318.613 221.737 317.513C221.066 315.385 220.412 312.163 219.834 308.209C218.695 300.42 218.077 291.439 217.801 286.485L197.832 287.597ZM115.474 306.366C127.012 311.24 166.012 323.397 212.909 295.647L202.724 278.435C163.119 301.87 131.241 291.315 123.257 287.943L115.474 306.366ZM318.002 642.961L318.081 642.901L305.919 627.024L305.84 627.084L318.002 642.961ZM312.185 645.019L312.188 645.019L311.654 625.026L311.652 625.027L312.185 645.019ZM300.521 625.579C301.072 629.471 301.569 633.079 302.007 636.351L321.83 633.695C321.385 630.371 320.881 626.713 320.323 622.775L300.521 625.579ZM321.933 633.806C321.524 630.298 320.965 626.509 320.28 622.495L300.565 625.859C301.204 629.608 301.708 633.038 302.067 636.119L321.933 633.806Z" fill="white" mask="url(#path-29-outside-1)"/>
</g>
<defs>
<filter id="filter0_d" x="0.998047" y="0" width="564.67" height="1399.73" filterUnits="userSpaceOnUse" color-interpolation-filters="sRGB">
<feFlood flood-opacity="0" result="BackgroundImageFix"/>
<feColorMatrix in="SourceAlpha" type="matrix" values="0 0 0 0 0 0 0 0 0 0 0 0 0 0 0 0 0 0 127 0"/>
<feOffset/>
<feGaussianBlur stdDeviation="5"/>
<feColorMatrix type="matrix" values="0 0 0 0 0 0 0 0 0 0 0 0 0 0 0 0 0 0 0.25 0"/>
<feBlend mode="normal" in2="BackgroundImageFix" result="effect1_dropShadow"/>
<feBlend mode="normal" in="SourceGraphic" in2="effect1_dropShadow" result="shape"/>
</filter>
</defs>
</svg>
