<svg width="492" height="779" viewBox="0 0 492 779" fill="none" xmlns="http://www.w3.org/2000/svg">
<mask id="path-1-outside-1" maskUnits="userSpaceOnUse" x="0" y="0" width="492" height="1246" fill="black">
<rect fill="white" width="492" height="1246"/>
<path fill-rule="evenodd" clip-rule="evenodd" d="M102.317 189.84C60.1849 238.152 48.9208 266.901 48.1707 278.529C46.7987 283.561 45.6719 288.225 44.8264 291.724C44.5422 292.901 44.2898 293.946 44.0705 294.829C16.495 405.878 6.22923 468.699 13.0311 540.547C13.1921 540.01 13.4794 539.501 13.9726 538.977C13.6337 539.503 13.3195 540.027 13.0319 540.546C27.2853 555.945 49.9843 577.336 77.1596 597.591C76.1569 599.912 75.1132 602.404 74.0409 605.049C64.072 626.601 52.4623 659.676 47.7308 696.521C43.9787 719.673 43.0053 742.585 47.4168 761.398L47.8506 761.296C47.9859 762.199 48.1275 763.103 48.2757 764.005C59.9495 835.136 65.6711 899.169 67.0727 922.294L67.088 922.273C69.3653 988.114 66.3058 1140.32 35.9084 1226.38C82.7767 1235.04 123.214 1241.1 157.964 1227.12L157.968 1227.12C161.199 1226.41 164.604 1225.58 168.183 1224.7L168.213 1224.69L168.223 1224.69C191.98 1218.85 223.41 1211.12 262.751 1226.74C263.059 1226.88 263.371 1227 263.687 1227.12C307.909 1243.94 382.197 1210.14 413.814 1191.14C409.609 1176.42 402.511 1141.35 407.754 1118.79C421.209 1061.81 406.518 1011.45 397.49 993.399L397.48 993.38L397.502 993.401C381.302 943.564 382.786 876.91 386.99 838.946C389.763 813.912 396.03 709.136 362.678 647.546C372.416 640.884 384.638 631.73 400.605 619.364C406.432 614.851 412.234 610.506 417.888 606.27C441.369 588.683 462.31 572.998 471.934 555.176L471.945 555.263C497.172 505.55 469.719 434.568 446.717 384.484C430.573 349.331 421.18 306.911 417.422 283.7C423.088 274.134 424.799 266.652 424.951 264.284C425.308 258.692 417.424 250.125 400.638 243.426L405.417 245.239C395.565 227.432 375.441 188.552 373.759 175.493C371.801 160.288 357.182 126.843 351.89 114.735C351.5 113.844 351.161 113.069 350.882 112.425C348.593 107.154 342.841 89.5885 337.752 74.0442L337.752 74.0436L337.751 74.0422C333.767 61.8736 330.188 50.9438 328.993 48.1203C326.273 41.6898 315.143 33.7754 304.014 30.4365C292.884 27.0976 263.576 15.7206 258.877 13C255.315 16.2647 243.13 18.3175 237.483 18.9358C226.93 20.09 202.907 24.006 191.233 30.4365C181.093 36.022 175.817 54.3898 173.849 66.2519C170.09 72.8534 167.425 79.2516 165.755 84.8503C161.551 98.9479 125.441 163.871 102.317 189.84ZM46.621 751.402C45.8531 743.684 45.5221 735.968 45.5603 728.316C45.3409 736.353 45.6528 744.11 46.621 751.402ZM334.147 217.587C331.179 216.42 328.432 215.339 325.997 214.379L325.997 214.377L334.147 217.587Z"/>
</mask>
<path fill-rule="evenodd" clip-rule="evenodd" d="M102.317 189.84C60.1849 238.152 48.9208 266.901 48.1707 278.529C46.7987 283.561 45.6719 288.225 44.8264 291.724C44.5422 292.901 44.2898 293.946 44.0705 294.829C16.495 405.878 6.22923 468.699 13.0311 540.547C13.1921 540.01 13.4794 539.501 13.9726 538.977C13.6337 539.503 13.3195 540.027 13.0319 540.546C27.2853 555.945 49.9843 577.336 77.1596 597.591C76.1569 599.912 75.1132 602.404 74.0409 605.049C64.072 626.601 52.4623 659.676 47.7308 696.521C43.9787 719.673 43.0053 742.585 47.4168 761.398L47.8506 761.296C47.9859 762.199 48.1275 763.103 48.2757 764.005C59.9495 835.136 65.6711 899.169 67.0727 922.294L67.088 922.273C69.3653 988.114 66.3058 1140.32 35.9084 1226.38C82.7767 1235.04 123.214 1241.1 157.964 1227.12L157.968 1227.12C161.199 1226.41 164.604 1225.58 168.183 1224.7L168.213 1224.69L168.223 1224.69C191.98 1218.85 223.41 1211.12 262.751 1226.74C263.059 1226.88 263.371 1227 263.687 1227.12C307.909 1243.94 382.197 1210.14 413.814 1191.14C409.609 1176.42 402.511 1141.35 407.754 1118.79C421.209 1061.81 406.518 1011.45 397.49 993.399L397.48 993.38L397.502 993.401C381.302 943.564 382.786 876.91 386.99 838.946C389.763 813.912 396.03 709.136 362.678 647.546C372.416 640.884 384.638 631.73 400.605 619.364C406.432 614.851 412.234 610.506 417.888 606.27C441.369 588.683 462.31 572.998 471.934 555.176L471.945 555.263C497.172 505.55 469.719 434.568 446.717 384.484C430.573 349.331 421.18 306.911 417.422 283.7C423.088 274.134 424.799 266.652 424.951 264.284C425.308 258.692 417.424 250.125 400.638 243.426L405.417 245.239C395.565 227.432 375.441 188.552 373.759 175.493C371.801 160.288 357.182 126.843 351.89 114.735C351.5 113.844 351.161 113.069 350.882 112.425C348.593 107.154 342.841 89.5885 337.752 74.0442L337.752 74.0436L337.751 74.0422C333.767 61.8736 330.188 50.9438 328.993 48.1203C326.273 41.6898 315.143 33.7754 304.014 30.4365C292.884 27.0976 263.576 15.7206 258.877 13C255.315 16.2647 243.13 18.3175 237.483 18.9358C226.93 20.09 202.907 24.006 191.233 30.4365C181.093 36.022 175.817 54.3898 173.849 66.2519C170.09 72.8534 167.425 79.2516 165.755 84.8503C161.551 98.9479 125.441 163.871 102.317 189.84ZM46.621 751.402C45.8531 743.684 45.5221 735.968 45.5603 728.316C45.3409 736.353 45.6528 744.11 46.621 751.402ZM334.147 217.587C331.179 216.42 328.432 215.339 325.997 214.379L325.997 214.377L334.147 217.587Z" fill="black"/>
<path d="M48.1707 278.529L57.8184 281.16L58.0848 280.183L58.15 279.173L48.1707 278.529ZM102.317 189.84L94.8483 183.19L94.8139 183.229L94.7799 183.268L102.317 189.84ZM44.8264 291.724L54.5468 294.073H54.5468L44.8264 291.724ZM44.0705 294.829L34.3653 292.419L44.0705 294.829ZM13.0311 540.547L3.07566 541.49L22.6097 543.419L13.0311 540.547ZM13.9726 538.977L22.3809 544.39L6.68791 532.126L13.9726 538.977ZM13.0319 540.546L4.2848 535.699L0.778034 542.029L5.69315 547.339L13.0319 540.546ZM77.1596 597.591L86.3397 601.557L89.4753 594.298L83.1357 589.573L77.1596 597.591ZM74.0409 605.049L83.117 609.247L83.2179 609.029L83.3082 608.806L74.0409 605.049ZM47.7308 696.521L57.602 698.121L57.6283 697.958L57.6493 697.795L47.7308 696.521ZM47.4168 761.398L37.6809 763.681L39.9639 773.417L49.7 771.133L47.4168 761.398ZM47.8506 761.296L57.7404 759.815L56.1337 749.082L45.5674 751.56L47.8506 761.296ZM48.2757 764.005L38.4077 765.625L38.4077 765.625L48.2757 764.005ZM67.0727 922.294L57.0911 922.899L58.804 951.16L75.2202 928.092L67.0727 922.294ZM67.088 922.273L77.082 921.927L76.0614 892.416L58.9405 916.474L67.088 922.273ZM35.9084 1226.38L26.4793 1223.05L22.5806 1234.09L34.0922 1236.21L35.9084 1226.38ZM157.964 1227.12L157.64 1217.13L155.873 1217.18L154.233 1217.84L157.964 1227.12ZM157.968 1227.12L158.291 1237.12L159.209 1237.09L160.106 1236.89L157.968 1227.12ZM168.183 1224.7L165.8 1214.99L165.796 1214.99L168.183 1224.7ZM168.213 1224.69L170.596 1234.4L170.659 1234.39L170.722 1234.37L168.213 1224.69ZM168.223 1224.69L165.835 1214.98L165.774 1214.99L165.713 1215.01L168.223 1224.69ZM262.751 1226.74L266.731 1217.57L266.588 1217.51L266.443 1217.45L262.751 1226.74ZM263.687 1227.12L267.242 1217.78L267.242 1217.78L263.687 1227.12ZM413.814 1191.14L418.965 1199.71L425.535 1195.76L423.429 1188.39L413.814 1191.14ZM407.754 1118.79L398.022 1116.5L398.018 1116.51L398.014 1116.53L407.754 1118.79ZM397.49 993.399L406.435 988.927L406.339 988.736L406.236 988.55L397.49 993.399ZM397.48 993.38L404.363 986.126L388.734 998.229L397.48 993.38ZM397.502 993.401L390.618 1000.65L407.012 990.309L397.502 993.401ZM386.99 838.946L396.93 840.046L386.99 838.946ZM362.678 647.546L357.031 639.293L349.592 644.383L353.884 652.308L362.678 647.546ZM400.605 619.364L406.728 627.27L406.728 627.27L400.605 619.364ZM417.888 606.27L423.883 614.274H423.883L417.888 606.27ZM471.934 555.176L481.868 554.026L478.22 522.493L463.136 550.424L471.934 555.176ZM471.945 555.263L462.011 556.412L465.829 589.412L480.862 559.788L471.945 555.263ZM446.717 384.484L455.805 380.311L446.717 384.484ZM417.422 283.7L408.818 278.604L406.971 281.722L407.55 285.299L417.422 283.7ZM424.951 264.284L434.93 264.921L434.93 264.921L424.951 264.284ZM400.638 243.426L404.185 234.076L396.932 252.714L400.638 243.426ZM405.417 245.239L401.871 254.589L427.369 264.261L414.167 240.398L405.417 245.239ZM373.759 175.493L383.678 174.216V174.216L373.759 175.493ZM351.89 114.735L361.052 110.73L361.052 110.73L351.89 114.735ZM350.882 112.425L360.054 108.442L360.054 108.442L350.882 112.425ZM337.752 74.0442L328.21 77.0376L328.229 77.0968L328.248 77.1559L337.752 74.0442ZM337.752 74.0436L347.293 71.0502L347.274 70.989L347.254 70.9281L337.752 74.0436ZM337.751 74.0422L328.248 77.1539L328.249 77.1577L337.751 74.0422ZM328.993 48.1203L338.203 44.2239V44.2238L328.993 48.1203ZM258.877 13L263.887 4.34573L257.532 0.666677L252.119 5.62846L258.877 13ZM237.483 18.9358L238.57 28.8765L238.571 28.8764L237.483 18.9358ZM191.233 30.4365L196.058 39.1955V39.1955L191.233 30.4365ZM173.849 66.2519L182.539 71.2009L183.422 69.6496L183.715 67.8884L173.849 66.2519ZM165.755 84.8503L175.338 87.7083V87.7083L165.755 84.8503ZM46.621 751.402L36.708 752.718L56.5719 750.412L46.621 751.402ZM45.5603 728.316L55.5601 728.365L35.564 728.043L45.5603 728.316ZM325.997 214.379L316.425 211.483L313.757 220.304L322.331 223.683L325.997 214.379ZM334.147 217.587L330.488 226.893L337.812 208.283L334.147 217.587ZM325.997 214.377L329.662 205.073L319.567 201.097L316.426 211.481L325.997 214.377ZM58.15 279.173C58.3854 275.524 60.5786 266.961 68.4618 252.807C76.2172 238.883 89.1205 220.187 109.853 196.413L94.7799 183.268C73.3809 207.806 59.5863 227.64 50.9892 243.075C42.52 258.281 38.7061 269.907 38.1915 277.886L58.15 279.173ZM54.5468 294.073C55.3935 290.568 56.4894 286.034 57.8184 281.16L38.5231 275.898C37.108 281.087 35.9502 285.882 35.106 289.376L54.5468 294.073ZM53.7758 297.239C54.0043 296.318 54.265 295.239 54.5468 294.073L35.1061 289.376C34.8195 290.563 34.5753 291.573 34.3653 292.419L53.7758 297.239ZM22.9866 539.604C16.3529 469.533 26.2486 408.093 53.7758 297.239L34.3653 292.419C6.74135 403.663 -3.89444 467.865 3.07566 541.49L22.9866 539.604ZM6.68791 532.126C5.2352 533.671 4.10061 535.514 3.45257 537.675L22.6097 543.419C22.4635 543.907 22.2542 544.392 21.986 544.845C21.7233 545.29 21.4569 545.615 21.2572 545.828L6.68791 532.126ZM21.779 545.392C21.9517 545.081 22.1516 544.746 22.3809 544.39L5.56426 533.564C5.11586 534.26 4.68728 534.973 4.2848 535.699L21.779 545.392ZM83.1357 589.573C56.4767 569.703 34.2306 548.727 20.3707 533.753L5.69315 547.339C20.3401 563.163 43.4919 584.969 71.1836 605.609L83.1357 589.573ZM83.3082 608.806C84.3536 606.228 85.3682 603.805 86.3397 601.557L67.9796 593.625C66.9455 596.019 65.8728 598.581 64.7737 601.292L83.3082 608.806ZM57.6493 697.795C62.2263 662.154 73.487 630.067 83.117 609.247L64.9648 600.851C54.657 623.136 42.6984 657.198 37.8122 695.247L57.6493 697.795ZM57.1527 759.115C53.174 742.148 53.9381 720.729 57.602 698.121L37.8595 694.921C34.0194 718.617 32.8365 743.022 37.6809 763.681L57.1527 759.115ZM45.5674 751.56L45.1335 751.662L49.7 771.133L50.1338 771.032L45.5674 751.56ZM58.1437 762.386C58.0032 761.53 57.8688 760.673 57.7404 759.815L37.9608 762.776C38.1029 763.726 38.2519 764.675 38.4077 765.625L58.1437 762.386ZM77.0544 921.689C75.6337 898.248 69.8763 833.876 58.1437 762.386L38.4077 765.625C50.0226 836.397 55.7086 900.09 57.0911 922.899L77.0544 921.689ZM58.9405 916.474L58.9252 916.496L75.2202 928.092L75.2355 928.071L58.9405 916.474ZM45.3375 1229.71C60.9934 1185.39 69.4281 1124.73 73.7232 1067.49C78.0327 1010.06 78.2322 955.18 77.082 921.927L57.094 922.618C58.2211 955.207 58.0295 1009.35 53.7792 1066C49.5145 1122.83 41.2208 1181.31 26.4793 1223.05L45.3375 1229.71ZM154.233 1217.84C122.617 1230.56 85.1279 1225.3 37.7247 1216.55L34.0922 1236.21C80.4255 1244.77 123.812 1251.63 161.695 1236.4L154.233 1217.84ZM157.644 1217.13L157.64 1217.13L158.287 1237.12L158.291 1237.12L157.644 1217.13ZM165.796 1214.99C162.189 1215.87 158.913 1216.68 155.829 1217.35L160.106 1236.89C163.485 1236.15 167.019 1235.28 170.57 1234.41L165.796 1214.99ZM165.829 1214.98L165.8 1214.99L170.566 1234.41L170.596 1234.4L165.829 1214.98ZM165.713 1215.01L165.703 1215.01L170.722 1234.37L170.732 1234.37L165.713 1215.01ZM266.443 1217.45C223.956 1200.57 189.799 1209.08 165.835 1214.98L170.611 1234.4C194.16 1228.61 222.864 1221.66 259.06 1236.04L266.443 1217.45ZM267.242 1217.78C267.067 1217.71 266.897 1217.64 266.731 1217.57L258.772 1235.92C259.221 1236.11 259.675 1236.3 260.133 1236.47L267.242 1217.78ZM408.662 1182.57C393.413 1191.73 367.666 1204.57 340.508 1213.01C312.855 1221.61 286.034 1224.92 267.242 1217.78L260.132 1236.47C285.562 1246.14 317.996 1240.96 346.447 1232.11C375.393 1223.11 402.599 1209.54 418.965 1199.71L408.662 1182.57ZM398.014 1116.53C394.991 1129.54 395.627 1145.34 397.315 1159.12C399.028 1173.1 401.964 1186.06 404.199 1193.88L423.429 1188.39C421.46 1181.5 418.744 1169.56 417.167 1156.69C415.566 1143.62 415.275 1130.61 417.495 1121.06L398.014 1116.53ZM388.546 997.871C396.691 1014.16 410.859 1062.13 398.022 1116.5L417.487 1121.09C431.559 1061.49 416.344 1008.75 406.435 988.927L388.546 997.871ZM388.734 998.229L388.745 998.249L406.236 988.55L406.225 988.53L388.734 998.229ZM404.385 986.147L404.363 986.126L390.596 1000.63L390.618 1000.65L404.385 986.147ZM377.051 837.845C372.795 876.275 371.131 944.624 387.992 996.492L407.012 990.309C391.472 942.505 392.777 877.546 396.93 840.046L377.051 837.845ZM353.884 652.308C369.498 681.141 376.169 720.949 378.399 757.562C380.615 793.923 378.385 825.796 377.051 837.845L396.93 840.046C398.368 827.061 400.658 794.029 398.362 756.346C396.082 718.916 389.21 675.541 371.471 642.784L353.884 652.308ZM394.482 611.458C378.54 623.804 366.512 632.806 357.031 639.293L368.325 655.799C378.319 648.961 390.735 639.656 406.728 627.27L394.482 611.458ZM411.893 598.267C406.248 602.495 400.383 606.888 394.482 611.458L406.728 627.27C412.481 622.815 418.219 618.517 423.883 614.274L411.893 598.267ZM463.136 550.424C459.127 557.847 452.471 565.315 443.457 573.343C434.461 581.354 423.72 589.408 411.893 598.267L423.883 614.274C435.537 605.545 447.007 596.963 456.758 588.279C466.49 579.612 475.117 570.327 480.733 559.928L463.136 550.424ZM481.878 554.113L481.868 554.026L462.001 556.325L462.011 556.412L481.878 554.113ZM437.63 388.658C449.06 413.547 461.299 443.014 467.646 472.142C474.027 501.425 474.12 528.878 463.027 550.738L480.862 559.788C494.996 531.935 493.976 499.04 487.187 467.884C480.364 436.571 467.376 405.506 455.805 380.311L437.63 388.658ZM407.55 285.299C411.377 308.929 420.952 352.343 437.63 388.658L455.805 380.311C440.193 346.318 430.984 304.892 427.293 282.101L407.55 285.299ZM414.971 263.647C414.973 263.614 414.792 265.145 413.797 268.044C412.857 270.779 411.296 274.42 408.818 278.604L426.025 288.796C432.259 278.272 434.653 269.268 434.93 264.921L414.971 263.647ZM396.932 252.714C404.546 255.753 409.578 259.003 412.477 261.652C415.847 264.732 414.852 265.511 414.971 263.647L434.93 264.921C435.406 257.465 430.647 251.164 425.969 246.889C420.819 242.181 413.516 237.799 404.345 234.139L396.932 252.714ZM408.964 235.889L404.185 234.076L397.092 252.776L401.871 254.589L408.964 235.889ZM363.841 176.77C364.436 181.385 366.44 187.28 368.73 193.073C371.124 199.126 374.21 205.993 377.498 212.888C384.078 226.691 391.669 241.047 396.667 250.08L414.167 240.398C409.313 231.624 401.917 217.636 395.551 204.282C392.366 197.6 389.491 191.185 387.33 185.719C385.065 179.992 383.924 176.131 383.678 174.216L363.841 176.77ZM342.727 118.74C345.375 124.799 350.274 136.01 354.75 147.564C359.366 159.481 363.041 170.552 363.841 176.77L383.678 174.216C382.52 165.229 377.906 151.974 373.4 140.341C368.753 128.344 363.697 116.779 361.052 110.73L342.727 118.74ZM341.709 116.408C341.995 117.065 342.339 117.853 342.727 118.74L361.052 110.73C360.661 109.835 360.328 109.073 360.054 108.442L341.709 116.408ZM328.248 77.1559C333.216 92.3277 339.177 110.577 341.709 116.408L360.054 108.442C358.008 103.73 352.467 86.8492 347.255 70.9324L328.248 77.1559ZM328.21 77.037L328.21 77.0376L347.293 71.0508L347.293 71.0502L328.21 77.037ZM328.249 77.1577L328.249 77.1591L347.254 70.9281L347.253 70.9267L328.249 77.1577ZM319.784 52.0167C320.763 54.3317 324.142 64.6148 328.248 77.1539L347.255 70.9304C343.392 59.1324 339.613 47.5559 338.203 44.2239L319.784 52.0167ZM301.14 40.0147C305.594 41.351 310.185 43.662 313.874 46.2771C317.879 49.1162 319.512 51.3742 319.784 52.0167L338.203 44.2238C335.754 38.4359 330.463 33.5214 325.44 29.961C320.102 26.1765 313.562 22.8608 306.887 20.8582L301.14 40.0147ZM253.866 21.6543C255.702 22.7171 259.047 24.186 262.481 25.6255C266.172 27.1722 270.713 28.989 275.424 30.8122C284.747 34.4207 295.171 38.2241 301.14 40.0147L306.887 20.8582C301.726 19.31 291.931 15.7554 282.643 12.1605C278.048 10.3821 273.686 8.63577 270.212 7.17986C268.472 6.45071 266.995 5.81125 265.843 5.28812C265.268 5.02673 264.803 4.80794 264.445 4.63197C264.267 4.5447 264.13 4.47488 264.028 4.42162C263.923 4.36647 263.881 4.34214 263.887 4.34573L253.866 21.6543ZM238.571 28.8764C241.71 28.5327 246.59 27.8037 251.276 26.6888C253.616 26.1321 256.107 25.4326 258.393 24.5598C260.449 23.7747 263.319 22.4932 265.634 20.3715L252.119 5.62846C252.653 5.13914 252.665 5.33853 251.258 5.87586C250.081 6.32542 248.505 6.78995 246.647 7.23183C242.939 8.11404 238.903 8.72059 236.394 8.99523L238.571 28.8764ZM196.058 39.1955C200.55 36.7211 208.266 34.3741 216.921 32.4753C225.318 30.6332 233.607 29.4194 238.57 28.8765L236.396 8.99511C230.806 9.60642 221.807 10.9278 212.635 12.9398C203.722 14.8952 193.59 17.7213 186.408 21.6775L196.058 39.1955ZM183.715 67.8884C184.617 62.4483 186.258 55.6924 188.702 49.8487C191.318 43.5946 194.064 40.2938 196.058 39.1955L186.408 21.6775C178.262 26.1647 173.3 34.8406 170.251 42.1323C167.03 49.8344 165.05 58.1933 163.984 64.6153L183.715 67.8884ZM175.338 87.7083C176.781 82.8721 179.138 77.1729 182.539 71.2009L165.16 61.3028C161.042 68.5339 158.07 75.6312 156.172 81.9922L175.338 87.7083ZM109.785 196.49C122.05 182.717 137.274 159.259 149.759 137.948C156.061 127.191 161.786 116.775 166.223 108.107C170.516 99.72 173.986 92.2408 175.338 87.7083L156.172 81.9922C155.422 84.5085 152.802 90.4314 148.419 98.9941C144.181 107.275 138.644 117.356 132.503 127.838C120.101 149.006 105.708 170.994 94.8483 183.19L109.785 196.49ZM56.5719 750.412C55.8409 743.065 55.5236 735.697 55.5601 728.365L35.5604 728.266C35.5206 736.239 35.8654 744.304 36.6702 752.392L56.5719 750.412ZM35.564 728.043C35.3332 736.5 35.6567 744.801 36.708 752.718L56.534 750.086C55.6489 743.42 55.3487 736.205 55.5565 728.588L35.564 728.043ZM322.331 223.683C324.769 224.643 327.517 225.725 330.488 226.893L337.807 208.281C334.84 207.114 332.096 206.034 329.663 205.075L322.331 223.683ZM316.426 211.481L316.425 211.483L335.568 217.274L335.569 217.273L316.426 211.481ZM337.812 208.283L329.662 205.073L322.333 223.681L330.482 226.891L337.812 208.283Z" fill="white" mask="url(#path-1-outside-1)"/>
<path d="M191.233 30.4365C179.559 36.867 174.332 60.2393 173.178 71.1216L188.017 51.3355H322.686L337.402 107.479L376.727 234.357L405.417 245.239C395.565 227.432 375.441 188.552 373.759 175.493C371.657 159.17 354.962 121.823 350.881 112.425C346.801 103.027 331.714 54.5508 328.993 48.1203C326.272 41.6898 315.143 33.7754 304.013 30.4365C292.883 27.0976 263.575 15.7206 258.876 13C255.315 16.2647 243.13 18.3175 237.482 18.9358C226.93 20.09 202.906 24.006 191.233 30.4365Z" fill="#222222"/>
<path d="M319.714 116.258L328.989 61.5986C331.833 78.6641 344.323 123.43 353.969 145.071C361.685 162.384 372.353 211.808 376.722 234.356L324.289 213.704L319.714 173.637V116.258Z" fill="#E4E3E3"/>
<path d="M48.276 764.005C36.6022 692.875 65.3415 619.031 81.1703 591.001L217.695 643.558C216.994 677.647 215.048 748.77 212.872 760.543C210.151 775.259 164.519 831.278 132.243 853.661C106.423 871.568 78.0378 906.877 67.073 922.294C65.6714 899.169 59.9498 835.136 48.276 764.005Z" fill="#141414"/>
<path d="M270.129 623.03L273.344 603.615C403.438 579.624 391.195 800.981 386.99 838.945C382.786 876.91 381.302 943.564 397.502 993.4C367.229 964.711 328.663 867.676 313.164 822.746L296.593 750.155L270.129 623.03Z" fill="#141414"/>
<path d="M241.065 458.434C262.731 564.784 234.016 635.065 218.064 657.284L203.719 551.304L223.01 412.678C226.473 415.976 234.931 429.744 241.065 458.434Z" fill="#151515"/>
<path d="M152.893 816.809L207.676 766.602L216.703 798.136V953.58V1133.88C208.707 1160.3 185.763 1215.94 157.964 1227.12C123.214 1241.1 82.7765 1235.04 35.9082 1226.38C66.3788 1140.11 69.3796 987.381 67.0713 921.799L152.893 816.809Z" fill="#191919"/>
<path d="M213.122 674.349C242.306 584.718 229.404 454.064 219.305 399.94L286.206 382.875C286.206 436.009 284.178 550.982 276.066 585.806C265.926 629.335 280.765 674.349 304.014 737.417C322.613 787.871 319.018 875.507 314.896 913.018C311.269 931.155 303.099 977.224 299.438 1016.4C294.863 1065.37 276.066 1155.52 263.7 1227.12C217.944 1208.57 182.824 1221.68 157.968 1227.12C176.072 1196.06 189.832 1073.7 194.448 1016.4C193.665 999.829 193.805 960.307 200.632 934.783C216.757 885.614 213.122 834.987 209.288 815.819C205.661 784.738 201.349 712.931 213.122 674.349Z" fill="#F3F1F1"/>
<path d="M442.15 566.267C452.439 569.928 466.306 560.373 471.953 555.138V543.637L460.823 529.045C450.312 539.927 431.861 562.607 442.15 566.267Z" fill="#1E1D1D"/>
<path d="M276.677 483.909C271.137 435.631 283.767 417.873 290.775 415.028C292.918 418.408 297.007 430.931 296.216 453.982C295.227 482.796 303.512 507.157 312.787 528.551C322.061 549.945 331.583 593.598 335.912 612.518C340.24 631.438 340.735 661.736 328.245 663.344C315.755 664.951 297.823 646.649 276.677 614.497C259.76 588.775 265.918 546.482 271.112 528.551C273.874 519.812 278.853 498.649 276.677 483.909Z" fill="#151515"/>
<path d="M137.432 236.955C151.9 203.112 181.208 135.131 182.692 133.943L189.865 216.921L137.432 236.955Z" fill="#141414"/>
<path d="M73.8733 271.951C58.8359 243.261 47.6066 280.589 44.0705 294.829C16.495 405.878 6.22923 468.699 13.0311 540.547C14.1437 536.837 21.2915 534.462 60.7647 519.029C110.106 499.738 195.187 425.664 208.913 418.739C222.64 411.814 276.31 401.797 290.778 415.029C320.334 406.744 372.148 450.397 385.875 468.699C399.602 487.001 426.931 515.196 440.905 522.121C454.879 529.046 470.09 538.939 471.945 555.263C497.172 505.55 469.719 434.568 446.717 384.484C428.316 344.418 418.687 294.911 416.173 275.166L372.643 315.851L233.646 342.686C186.654 331.062 88.9107 300.641 73.8733 271.951Z" fill="#141414"/>
<path d="M81.7859 286.914C69.3207 258.62 60.0213 258.472 56.9297 261.934C61.0848 255.207 139.619 226.979 178.367 213.706H324.289C343.003 221.084 384.068 237.202 398.61 242.643C416.789 249.444 425.322 258.472 424.951 264.284C424.58 270.096 414.81 306.7 360.275 329.33C305.74 351.961 222.391 349.982 185.786 347.633C149.182 345.283 97.3675 322.282 81.7859 286.914Z" fill="#F3F1F1"/>
<path d="M297.884 425.332C289.64 415.15 272.83 390.236 271.544 372.033C269.936 349.279 256.491 319.252 256.828 348.29C258.114 459.304 287.828 459.08 297.85 466.848C297.946 470.049 303.85 476.796 300.295 469.686C299.733 468.561 298.899 467.661 297.85 466.848C297.818 465.773 298.44 465.098 300.295 465.481L297.884 425.332Z" fill="#F0BCAE"/>
<path d="M175.777 146.555C174.689 113.018 182.743 93.8335 186.907 88.4336C228.128 83.9405 312.054 77.6502 317.99 88.4336C323.925 99.217 324.09 124.419 323.431 135.673C320.339 152.244 321.205 164.363 323.431 171.164C325.657 177.966 336.168 213.828 315.64 229.904C295.112 245.98 225.737 239.302 201.87 233.243C178.003 227.183 169.223 201.462 172.562 187.859C175.901 174.256 175.777 160.282 175.777 146.555Z" fill="#FFC9BA"/>
<path d="M185.417 127.016C183.735 142.845 173.916 149.111 169.217 150.265L177.008 88.4335C203.76 75.7787 257.982 56.7511 260.851 81.8794C264.437 113.29 227.833 102.037 214.972 100.553C202.111 99.0686 187.519 107.23 185.417 127.016Z" fill="#462937"/>
<path d="M102.317 189.84C54.4345 244.747 46.4211 274.384 48.3997 282.34L48.4363 282.232C56.0691 259.701 56.9651 257.057 155.244 221.745C155.45 217.252 157.445 205.62 163.777 195.034C170.109 184.449 182.409 127.226 187.768 99.9373C190.282 83.9435 196.028 48.9386 198.897 36.8691C180.471 51.585 169.96 70.7528 165.756 84.8504C161.551 98.9479 125.441 163.871 102.317 189.84Z" fill="#E4E3E3"/>
<path d="M232.78 112.179C224.965 110.497 221.939 114.858 221.403 117.249C221.403 120.019 225.031 120.629 226.844 120.588C227.957 120.464 231.593 121.281 237.232 125.535C244.281 130.852 248.856 126.524 252.195 123.556C254.867 121.182 253.721 118.857 252.814 117.991C251.907 117.579 249.648 117.076 247.867 118.362C246.086 119.648 242.261 117.826 240.571 116.755C238.716 115.394 234.561 112.575 232.78 112.179Z" fill="#462937"/>
<path d="M245.271 367.832C243.985 386.035 227.175 410.949 218.931 421.13L226.474 475.789C233.853 474.264 244.603 452.104 249.352 442.607C255.288 430.735 266.417 372.407 259.987 344.088C253.556 315.77 246.878 345.078 245.271 367.832Z" fill="#FFC9BA"/>
<path d="M277.673 134.065C274.602 136.573 272.108 140.619 271.984 142.474C271.984 142.762 272.108 143.512 272.603 144.205C275.818 139.629 284.578 138.901 292.76 138.269C298.211 137.848 301.787 140 306.734 139.135C311.68 138.269 315.637 132.704 313.535 127.634C311.433 122.564 304.26 124.666 301.787 126.768C299.314 128.871 293.254 130.107 289.916 130.107C284.891 130.107 281.564 130.886 277.673 134.065Z" fill="#462937"/>
<path d="M254.178 147.175C253.56 169.228 249.332 207.596 237.36 184.645C235.166 180.44 243.584 150.101 254.178 147.175Z" fill="#F0BBAC"/>
<path d="M202.98 205.171C195.363 206.458 198.487 211.478 201.002 213.828C261.053 219.863 258.175 216.342 249.23 213.828C236.988 210.407 210.598 203.885 202.98 205.171Z" fill="#3D3D3D"/>
<path d="M280.294 152.82C285.203 148.14 297.574 140.663 307.79 148.19C303.631 153.296 294.488 158.835 280.294 152.82Z" fill="#FFF3F1"/>
<mask id="mask0" mask-type="alpha" maskUnits="userSpaceOnUse" x="287" y="143" width="15" height="15">
<path d="M300.523 151.681C300.045 155.01 296.321 157.08 292.992 156.602C289.663 156.125 288.249 153.319 288.726 149.99C289.203 146.661 291.391 144.07 294.72 144.547C298.049 145.024 301 148.352 300.523 151.681Z" fill="#2C1E25"/>
</mask>
<g mask="url(#mask0)">
<path d="M280.184 152.842C285.095 148.151 297.469 140.655 307.683 148.194C303.522 153.312 294.377 158.866 280.184 152.842Z" fill="#2C1E25"/>
</g>
<path d="M209.148 130.103C213.586 127.853 224.779 126.243 234.043 137.796C228.293 141.992 214.128 142.673 209.148 130.103Z" fill="#FFF3F1"/>
<mask id="mask1" mask-type="alpha" maskUnits="userSpaceOnUse" x="213" y="126" width="16" height="17">
<path d="M225.84 136.56C224.481 139.944 221.716 142.019 218.332 140.66C214.948 139.301 214.18 135.981 215.539 132.598C216.898 129.214 219.869 127.047 223.253 128.406C226.636 129.765 227.198 133.176 225.84 136.56Z" fill="#2C1E25"/>
</mask>
<g mask="url(#mask1)">
<path d="M209.162 130.102C213.6 127.852 224.792 126.242 234.057 137.796C228.306 141.991 214.142 142.672 209.162 130.102Z" fill="#2C1E25"/>
</g>
<path d="M300.18 103.892C263.576 100.231 263.082 85.4661 267.41 78.541L322.811 81.8799L323.429 118.237C318.689 113.496 313.14 105.475 300.18 103.892Z" fill="#462937"/>
<path d="M186.899 88.6815C199.958 76.5131 201.574 51.0468 200.75 39.8347C214.6 38.4744 308.213 45.1522 315.014 45.1522C313.53 57.0238 315.756 83.2404 317.858 91.4021C299.062 85.4663 210.395 86.0846 186.899 88.6815Z" fill="#EFEFEF"/>
<path d="M198.903 36.8676C185.646 54.675 185.382 78.8305 186.908 88.6823C200.659 75.6236 201.871 50.6766 200.757 39.8354L315.022 45.1529C314.898 47.0491 314.527 51.534 314.033 54.304C311.658 70.4296 319.062 98.2043 323.06 110.076C328.007 90.2899 334.635 49.4564 321.576 44.411C305.253 38.1042 270.627 36.8676 246.018 35.6309C221.409 34.3943 202.241 33.034 198.903 36.8676Z" fill="#0A0A0A"/>
<path d="M218.065 657.036C138.426 656.146 48.9357 579.335 13.0322 540.546C18.1024 531.395 31.458 520.883 41.722 517.297C51.9861 513.711 136.943 473.768 157.347 453.116C173.67 436.595 207.925 419.274 223.012 412.678C226.433 432.877 231.149 485.689 222.641 535.352C212.006 597.431 214.974 631.809 218.065 657.036Z" fill="#1A1A1A"/>
<path fill-rule="evenodd" clip-rule="evenodd" d="M291.027 415.072C320.583 406.792 372.394 450.442 386.12 468.743C399.846 487.045 427.176 515.24 441.15 522.166C454.976 529.018 470.014 538.775 472.126 554.793C462.597 572.774 441.524 588.558 417.874 606.272C412.219 610.508 406.418 614.853 400.591 619.366C355.083 654.61 339.996 663.761 326.146 663.513C312.296 663.266 287.316 427.564 291.026 415.075L291.027 415.072Z" fill="#1A1A1A"/>
<path d="M79.19 594.215C63.7733 628.634 35.9327 710.235 47.9032 761.284" stroke="black" stroke-width="5"/>
</svg>
