<svg id="egf2byz5lvd1" xmlns="http://www.w3.org/2000/svg" viewBox="0 0 5817.06 1024" shape-rendering="geometricPrecision" text-rendering="geometricPrecision"><defs><clipPath id="egf2byz5lvd2"><path id="egf2byz5lvd3" fill="none" stroke="none" stroke-width="1" d="M832.122 874.361l394.284-70.457-54.71-441.621-385.309 46.611 8.335 227.831 37.4 237.636z"/></clipPath><clipPath id="egf2byz5lvd4"><rect id="egf2byz5lvd5" width="144" height="218" rx="0" ry="0" transform="translate(2276.62 57)" fill="none" stroke="none" stroke-width="1"/></clipPath></defs><g id="egf2byz5lvd6"><path id="egf2byz5lvd7" d="M1773.774 1024l136.468-277.791h1926.26L3259.912 0H823.302L0 1024" fill="#F87980" stroke="none" stroke-width="1"/><path id="egf2byz5lvd8" d="M2830.571 473.602l-1107.89-21 30-312.5 1057.89 10z" fill="#5C404E" stroke="none" stroke-width="1"/><path id="egf2byz5lvd9" d="M2482.242 932.02v-.06c-1.18-9.2-2.31-18.03-3.27-26.1-2.11-17.62-3.14-35.88-3.58-50.79 6.44 1.48 12.59 2.88 18.4 4.22 2.59.71 5.33 1.46 8.19 2.24 4.88 12.27 13.74 17.88 17.88 16.05 4.96-2.2 1.33-7.93-1.1-10.52-.19-.36-.38-.74-.56-1.13 3.868 1.04 7.88 2.12 11.988 3.22a4.811 4.811 0 01-.909 2.54c-2.28 2.36-4.16 8.95-3.14 9.97l.12.12a2.8 2.8 0 002.11 1.08c1.319 0 3.34-1.02 6.63-4.64-2.27 4.19-.431 8.09 2.34 8.4.242.03.487.03.73 0a5.31 5.31 0 003.53-2.37 54.079 54.079 0 005.62-10.57l1.15.3a23.43 23.43 0 00-.17 9.64 3.638 3.638 0 003.108 3.14c.163.022.327.029.49.02 2.82-.02 6.5-2.85 8.57-7.71.24-.577.443-1.168.61-1.77 43.67 11.44 88.45 22.56 99 23.2 16.58 1 6.91-5.71 0-9.19-20.28-4.99-54.65-14.39-87-23.43-.44-5.46-2.59-12.54-5.63-18.72-4.62-9.41-17.65-18.74-25.82-23.58.9-.3 1.66-.56 2.26-.76-.25-10.11-17.16-87.633-25.59-125.13-3.5-17.584-8.14-56.367-10.82-78.709v-.052l-.01-.025c-.61-5.153-1.13-9.425-1.49-12.354-1.57-12.497-8.19-58.85-11.31-80.464-.55-13.973-3.31-48.513-9.97-74.89-7.4-29.318-19.82-38.835-26.68-42.46l-.08-.189c-.45-.217-.87-.409-1.25-.579a253.05 253.05 0 01-5.84-2.692l-.1.052a191.518 191.518 0 01-19.22-10.382 149.691 149.691 0 01-9.39-6.315c-10.49-7.658-23.231-21.959-28.931-28.924-.25-4.436-.43-8.872-.39-11.922.55-.922 1.08-1.892 1.57-2.911 12.59 2.577 22.06 2.275 28.86.11 14.28-4.553 27.79-20.488 26.14-37.759-1.32-13.816-15.1-19.311-21.83-20.332-6.51-.392-19.35 1.821-18.6 13.816.75 11.995 9.84 11.907 14.29 10.363-18.69-7.929 16.64-17.192 8.95 4.396-3.16 5.704-13.82 14.438-32.55 8.183 4.84-29.813 4.84-50.232 4.84-66.661-.94-3.69-6.28-14.209-29.99-11.226-23.71 2.983-70.57 4.161-75.36 3.219l-.01.064c-.02-.005-.051-.009-.07-.014-.64 3.854-.94 17.962-.1 34.135l.04-.018.04-.015c.65 12.574 1.99 26.393 4.38 37.61q-1.935.393-3.9.929c-22.92 6.28-31.67.942-34.31-5.888-2.12-5.495 6.05-15.308 14.37-1.727-2.04-7.222-8.09-23.001-27.71-15.229-19.63 7.771-6.99 38.159 16.64 40.035a117.408 117.408 0 0039.5-3.298 51.12 51.12 0 005.55 9.415c.07 1.104.15 2.266.23 3.473-.9 1.276-4.1 6.861-8.16 14.29-12.73 12.488-50.77 37.807-102.7 40.569l-.01-.002v.003l-.03.001.03.004c-16.28 31.142-50.27 101.622-56.05 134.465-4.77 27.108-7.41 32.45-10.76 39.211a101.548 101.548 0 00-6.12 14.719c-7.3 21.745-7.22 62.801 12.88 94.986 15.77 25.268 45.18 69.599 64.61 92.539-.17.76-.33 1.51-.5 2.27-15.78-2.75-33.94-7.315-51.26-11.669-29.561-7.427-56.71-14.247-65.48-10.446-14.13 6.123-8.32 31.405-4.63 43.415 3.69 12.01 15.39 7.38 10.44-7.7-4.95-15.07 4.948-20.328 9.89-22.448 3.92-1.679 31.47 4.128 50.68 8.178 5.05 1.06 9.51 2 12.83 2.66 2.89.56 15.86 3.46 35.38 7.87-3.86 17.91-7.63 36.52-11.36 54.93-4.17 20.58-10.12 44-16.1 67.52m368.5-75.44c.38 1.81.88 3.65 1.39 5.54 1.28 4.7 2.63 9.69 2.54 15.43l.86.24c-.646-7.26-3.617-19.71-4.786-21.21zm15.45 22.35c.1.62.19 1.26.26 1.93l.19.06c-.156-.68-.307-1.34-.446-1.99zm-357.91-457.342c1.15.167 2.29.383 3.41.648a62.425 62.425 0 00-3.406-.648zm17.63 148.088c4.03 9.497 13.12 35.845 17.26 65.521.84 6.048 1.66 11.183 2.38 15.683v.002c3.7 23.126 4.72 29.525-7.56 57.321-.1.207-.19.415-.28.624l-.11.253-.15.344c-14.06-19.886-26.79-40.929-29.66-53.664-6.207-27.615 9.484-68.873 18.123-86.084zm254.19 288.624c-.05-5.11-.021-9.45.04-12.72 1.99 3.53 5.35 9.38 8.62 14.69q-4.241-.96-8.656-1.97zm13.43 3.06c2.38-1.14 5.91-2.61 10.06-4.22a58.356 58.356 0 00.17 6.55q-4.962-1.14-10.226-2.33zm33.46 8.34c.346.07.687.168 1.02.29z" fill="#DBA89A" fill-rule="evenodd" stroke="none" stroke-width="1"/><g id="egf2byz5lvd10"><path id="egf2byz5lvd11" d="M2374.401 247.764l.631 4.961zm29.99 11.226l4.84-1.237c.109.403.162.82.16 1.237zm-105.35-8.007l-4.93-.808a4.997 4.997 0 015.9-4.098zm-.01.064l4.93.807a4.992 4.992 0 01-5.8 4.116zm-.07-.014l-4.93-.822a4.99 4.99 0 015.89-4.084zm-.1 34.135l1.84 4.649a5.002 5.002 0 01-6.84-4.391zm.04-.018l1.87 4.64-.03.009zm.04-.015l-1.86-4.639a4.995 4.995 0 016.85 4.381zm4.38 37.61l4.89-1.042a5 5 0 01-3.9 5.941zm-3.9.929l-1.32-4.823zm-34.31-5.888l4.67-1.799zm14.37-1.727l4.81-1.36a4.997 4.997 0 01-9.07 3.972zm-27.71-15.229l1.84 4.648zm16.64 40.035l-.39 4.985zm39.5-3.298l-1.22-4.849a4.989 4.989 0 015.77 2.783zm5.55 9.415l4.01-2.994c.588.785.932 1.725.99 2.704zm.23 3.473l4.99-.369a4.98 4.98 0 01-.9 3.259zm-8.16 14.29l4.39 2.395c-.232.434-.528.83-.88 1.174zm-102.7 40.569l.27 4.993a4.986 4.986 0 01-.98-.044zm-.01-.002l-4.43-2.316a4.99 4.99 0 015.14-2.632zm0 .003l4.43 2.316a5.002 5.002 0 01-4.17 2.677zm-.03.001l-.65 4.957a5 5 0 01.391-9.95zm.03.004l.65-4.958a5.008 5.008 0 013.78 7.274zm-56.05 134.465l4.93.866zm-10.76 39.211l-4.75-1.581c.075-.22.165-.433.27-.639zm0 0l4.74 1.581a4.97 4.97 0 01-.26.639zm-6.12 14.719l-4.74-1.591zm12.88 94.986l4.24-2.648zm64.61 92.539l3.82-3.23a4.987 4.987 0 011.06 4.31zm-.5 2.27l4.88 1.08a5.006 5.006 0 01-5.74 3.85zm-51.26-11.669l1.21-4.849zm-65.48-10.446l1.99 4.588zm5.81 35.715l4.75-1.56zm9.89-22.448l-1.97-4.596zm50.68 8.178l-1.029 4.89zm0 0l-.979 4.9c-.02 0-.03-.01-.05-.01zm0 0l.981-4.91c.016.007.033.01.05.01zm12.83 2.66l-.97 4.9zm35.38 7.87l1.101-4.88a4.995 4.995 0 013.79 5.93zm-11.359 54.93l4.9.99zm-16.1 67.52l4.85 1.23zm304.97 16.2l4.96-.69v.06zm0 0l-4.95.69a.076.076 0 00-.01-.05zm0-.02l4.96-.64zm0-.01l-4.96.64v-.01zm0-.02l-4.96.64v-.01zm0-.01l4.95-.67a.07.07 0 00.01.04zm0 0l-4.96.66v-.03zm-3.27-26.1l4.96-.59zm-3.58-50.79l-5 .15a4.995 4.995 0 016.11-5.02zm18.4 4.22l1.12-4.88c.069.021.139.038.21.05zm8.19 2.24l1.32-4.83a5.034 5.034 0 013.33 2.98zm17.88 16.05l-2.03-4.57zm-1.1-10.52l-3.65 3.42a4.906 4.906 0 01-.79-1.11zm-.56-1.13l-4.53 2.12a5 5 0 015.83-6.95zm11.989 3.22l1.29-4.83a4.998 4.998 0 013.66 5.5zm-.91 2.54l3.59 3.48zm-3.14 9.97l-3.54 3.54zm.12.12l-3.57 3.5zm2.11 1.08l-.03-5zm6.63-4.64l-3.7-3.36a5 5 0 018.1 5.74zm2.34 8.4l-.57 4.97zm.73 0l-.55-4.96v-.01zm3.53-2.37l4.16 2.78c-.05.08-.11.16-.16.23zm5.62-10.57l-4.67-1.8a4.989 4.989 0 015.94-3.03zm1.15.3l1.27-4.83c2.54.67 4.129 3.19 3.64 5.77zm-.17 9.64l4.85-1.18zm3.109 3.14l.57-4.97zm.49.02l-.05-5h.01zm8.57-7.71l4.6 1.95zm.609-1.77l-4.81-1.35a4.997 4.997 0 016.08-3.48zm99 23.2l-.3 4.99zm0-9.19l1.2-4.85c.364.09.716.22 1.05.39zm-87-23.43l-1.34 4.82a5 5 0 01-3.64-4.42zm-5.63-18.72l-4.48 2.21zm-25.82-23.58l-2.55 4.3a5.004 5.004 0 01.95-9.04zm2.26-.76l5-.12a4.983 4.983 0 01-3.42 4.86zm-25.59-125.13l-4.88 1.096c-.01-.039-.01-.079-.02-.119zm-10.82-78.709l-4.96.594a1.1 1.1 0 01-.02-.179zm0 0l4.97-.58c0 .055.01.11.01.164zm0-.006l4.96-.598a.018.018 0 01.01.019zm0-.007l-4.96.598-.01-.008zm0-.017l-4.97.59zm0-.022l4.96-.591v.001zm-.01-.025l4.97-.595v.003zm-1.49-12.354l4.96-.623zm-11.31-80.464l-4.95.713a4.34 4.34 0 01-.04-.516zm-9.97-74.89l-4.85 1.224zm-26.68-42.46l-2.34 4.42a5.053 5.053 0 01-2.24-2.4zm-.08-.189l2.19-4.494a5.015 5.015 0 012.38 2.474zm-1.25-.579l-2.04 4.564zm-5.84-2.692l-2.4-4.389a5.002 5.002 0 014.55-.124zm-.1.052l2.4 4.389a5.008 5.008 0 01-4.53.134zm-19.22-10.382l-2.64 4.249v-.002zm-9.39-6.315l2.939-4.039zm-28.931-28.924l-3.86 3.167a5 5 0 01-1.13-2.882zm-.39-11.922l-5-.059a4.91 4.91 0 01.72-2.528zm1.57-2.911l-4.5-2.171a4.99 4.99 0 015.5-2.727zm28.86.11l1.52 4.764zm26.14-37.759l-4.98.475zm-21.83-20.332l.31-4.991c.147.009.294.025.44.048zm-18.6 13.816l4.99-.313zm14.29 10.363l1.95-4.603a5.003 5.003 0 01-.31 9.326zm8.95 4.396l4.71 1.678a6.31 6.31 0 01-.34.745zm-32.55 8.183l-1.58 4.742a5.005 5.005 0 01-3.35-5.543zm147.61 520.269l4.83-1.31v.01zm-1.391-5.54l-4.89 1.03a4.993 4.993 0 018.83-4.1zm1.39 5.54l-4.82 1.31c0-.01 0-.01-.01-.02zm2.54 15.43l-1.36 4.81a5.009 5.009 0 01-3.64-4.9zm.86.24l4.98-.45a4.988 4.988 0 01-6.33 5.26zm10.92 3.07l-1.35 4.82a4.994 4.994 0 01-3.61-4.24zm-.26-1.93l-4.94.75a5 5 0 019.83-1.81zm.45 1.99l4.87-1.14a4.998 4.998 0 01-6.221 5.95zm-358.36-459.332l-.79 4.936a5 5 0 011.51-9.885zm3.41.648l1.15-4.864a5 5 0 01-2.221 9.749zm31.48 212.961l4.95-.691zm-17.26-65.521l-4.47-2.243a5 5 0 019.07.288zm19.64 81.204l4.94-.789c0 .027.01.055.01.082zm0 .002l-4.94.789a.235.235 0 00-.01-.082zm-7.56 57.321l-4.58-2.022zm-.28.624l-4.58-1.996v-.004zm-.11.253l-4.58-1.993v-.003zm-.15.344l4.59 1.981a4.998 4.998 0 01-8.67.907zm-29.66-53.664l4.88-1.098zm272.355 189.82l-5-.09a4.998 4.998 0 019.35-2.36zm-.04 12.72l-1.11 4.88a4.991 4.991 0 01-3.89-4.83zm8.66 1.97l4.26-2.62a4.998 4.998 0 01-5.36 7.5zm14.83-3.13l-1.82-4.66a4.997 4.997 0 016.81 4.79zm-10.06 4.22l-1.11 4.87a4.997 4.997 0 01-1.05-9.38zm10.23 2.33l4.98-.41a4.983 4.983 0 01-6.09 5.28zm23.23 6.01l-1.37 4.8a4.999 4.999 0 012.44-9.69zm1.02.29l1.67-4.72a5 5 0 01-3.04 9.52zm-149.26-610.987c12.59-1.584 21.1.319 26.77 3.814a18.843 18.843 0 018.68 11.136l-9.68 2.474a8.965 8.965 0 00-4.24-5.094c-3.15-1.941-9.16-3.807-20.28-2.408zm-73.77 3.274c-.03-.005.17.03.75.069q.78.056 2.07.093c1.71.05 3.96.07 6.65.058 5.37-.025 12.37-.175 19.97-.448 15.24-.549 32.7-1.583 44.33-3.046l1.25 9.922c-12.09 1.52-29.91 2.566-45.22 3.117-7.68.276-14.78.43-20.28.455-2.75.012-5.13-.008-6.99-.062a31.444 31.444 0 01-4.46-.346zm-5.91 4.162l.01-.064 9.87 1.615-.02.064zm5.82-4.112l-.01-.003-1.75 9.846-.17-.03zm-6.06 39.299c-.42-8.185-.56-15.855-.51-21.986-.053-4.42.174-8.838.68-13.229l9.86 1.644a100.839 100.839 0 00-.54 11.668c-.05 5.929.09 13.4.5 21.387zm6.88 4.373l-.04.018-3.68-9.298.04-.018zm.06-.024l-.03.015-3.73-9.279.04-.015zm-2.37 34.012c-2.47-11.591-3.83-25.709-4.48-38.393l9.98-.517c.65 12.462 1.97 25.982 4.28 36.826zm-.33-4.936c1.42-.388 2.82-.722 4.22-1.006l1.99 9.799q-1.77.361-3.57.852zm-28.32-2.864c.72 1.862 2.26 3.81 6.14 4.821 4.17 1.087 11.11 1.076 22.18-1.957l2.641 9.645c-11.85 3.247-20.75 3.707-27.34 1.988-6.89-1.795-11.03-5.932-12.95-10.899zm5.44 2.684c-1.8-2.929-3.23-3.991-3.94-4.328a1.23 1.23 0 00-.51-.155.221.221 0 00-.11.031 1.884 1.884 0 00-.73.94c-.119.259-.17.544-.15.828l-9.33 3.598a11.225 11.225 0 01.21-8.168 11.805 11.805 0 015.44-6.098 10.505 10.505 0 019.47-.008c3.1 1.47 5.81 4.275 8.171 8.136zm-25.29-22.49c5.52-2.187 10.48-2.869 14.9-2.212a20.047 20.047 0 0110.77 5.17c5.31 4.879 7.63 11.813 8.69 15.56l-9.62 2.72c-.98-3.475-2.71-8.042-5.83-10.915a10.107 10.107 0 00-5.48-2.643c-2.3-.342-5.46-.082-9.75 1.617zm18.09 49.669a34.527 34.527 0 01-28.77-20.872 24.368 24.368 0 01-1.27-16.331 19.397 19.397 0 0111.95-12.466l3.68 9.297c-3.569 1.413-5.319 3.64-6.06 6.075-.79 3.209-.458 6.592.94 9.586a24.502 24.502 0 0020.32 14.742zm41.11-3.434a122.393 122.393 0 01-41.11 3.434l.79-9.969a112.403 112.403 0 0037.88-3.163zm.33 7.561a55.466 55.466 0 01-6.1-10.345l9.1-4.131a45.75 45.75 0 005.01 8.487zm-.75.848c-.09-1.233-.17-2.422-.24-3.552l9.99-.581c.06 1.077.13 2.213.22 3.394zm-7.56 11.525c3.98-7.3 7.35-13.21 8.46-14.785l8.17 5.78c-.7.976-3.73 6.237-7.86 13.795zm-98.58 37.971c50.55-2.688 87.48-27.39 99.46-39.146l7.01 7.139c-13.48 13.22-52.63 39.158-105.94 41.993zm.96.043l.02.001-1.43 9.898-.01-.002zm-5.14 2.635v-.003l8.86 4.632v.003zm4.14-2.676l.02-.001.53 9.986-.02.001zm-.37 9.954l-.02-.004 1.31-9.914.02.003zm-60.31 128.641c3-17.093 13.19-43.439 24.43-69.014 11.31-25.739 23.92-51.248 32.11-66.901l8.86 4.633c-8.1 15.489-20.61 40.792-31.82 66.29-11.27 25.661-20.96 50.976-23.73 66.725zm-10.32 37.858a62.743 62.743 0 004.54-11.196c1.59-5.288 3.4-13.174 5.78-26.662l9.85 1.733c-2.4 13.621-4.29 21.96-6.06 27.811a71.966 71.966 0 01-5.15 12.753zm-.27.639l9.49 3.162zm-6.11 14.709a105.95 105.95 0 016.382-15.348l8.96 4.44a96.84 96.84 0 00-5.86 14.09zm13.382 99.226c-20.98-33.589-21.101-76.224-13.381-99.226l9.48 3.182c-6.88 20.487-6.84 59.965 12.38 90.747zm65.039 93.12c-19.69-23.24-49.26-67.842-65.04-93.12l8.48-5.297c15.77 25.257 45.01 69.316 64.19 91.957zm-1.57-2.04c.16-.76.33-1.52.5-2.27l9.76 2.16c-.16.76-.33 1.51-.5 2.27zm-45.17-15.438c17.38 4.366 35.35 8.879 50.91 11.598l-1.72 9.85c-15.99-2.79-34.34-7.41-51.62-11.75zm-68.68-10.184c3.32-1.437 7.65-1.65 12.03-1.422a125.163 125.163 0 0115.82 2.106c11.76 2.193 26.1 5.799 40.83 9.5l-2.43 9.699c-14.83-3.727-28.84-7.245-40.23-9.368a115.758 115.758 0 00-14.51-1.951c-4.11-.213-6.46.147-7.53.611zm-7.42 49.462c-1.89-6.13-4.43-15.99-4.59-25.29-.15-8.906 1.91-19.795 12.01-24.172l3.98 9.175c-4.03 1.746-6.13 6.557-5.99 14.827.14 7.87 2.35 16.66 4.15 22.53zm19.97-10.72a23.649 23.649 0 011.13 11.76 11.542 11.542 0 01-5.43 8.17 9.256 9.256 0 01-9.77-.52 15.617 15.617 0 01-5.9-8.69l9.56-2.93c.7 2.28 1.58 3.1 1.87 3.28.12.08.09.03-.1.01a.93.93 0 00-.52.12c-.26.14.21.03.48-1.34.282-2.28 0-4.594-.82-6.74zm7.11-16.29a15.135 15.135 0 00-6.55 4.68c-1.4 1.96-2.62 5.33-.56 11.61l-9.5 3.12c-2.881-8.79-1.631-15.58 1.92-20.54 3.31-4.644 8.11-6.933 10.75-8.064zm47.68 8.47c-9.63-2.03-21.24-4.47-30.92-6.21-4.86-.86-9.14-1.53-12.4-1.89-1.64-.17-2.92-.26-3.84-.26-1.18-.01-1.08.13-.52-.11l-3.94-9.194a11.626 11.626 0 014.51-.701c1.41.008 3.07.132 4.87.326 3.6.39 8.15 1.109 13.07 1.989 9.87 1.764 21.64 4.244 31.23 6.26zm0 0l2.06-9.79zm.05.01l1.96-9.81zm12.84 2.66c-3.35-.66-7.86-1.61-12.89-2.67l2.06-9.79c5.06 1.07 9.49 2 12.77 2.65zm35.25 7.84c-19.58-4.42-32.45-7.29-35.25-7.84l1.94-9.81c2.97.59 16.04 3.5 35.51 7.9zm-15.16 49.07c3.731-18.4 7.51-37.04 11.37-55l9.78 2.11c-3.85 17.88-7.62 36.46-11.35 54.87zm-16.04 67.28c5.981-23.55 11.9-46.85 16.04-67.28l9.8 1.98c-4.2 20.72-10.18 44.28-16.149 67.76zm-15.89 66.33c4.26-20.59 10.11-43.57 15.89-66.33l9.69 2.46c-5.8 22.82-11.58 45.57-15.78 65.9m310.95-50.29l9.91-1.27m0-.06l-9.91 1.38zm0 .03v.03l-9.92 1.27v-.03zm0-.01v.01l-9.92 1.28v-.01zm0-.02v.02l-9.92 1.27v-.01zm0 0v.01l-9.92 1.26v-.01zm-.01-.04l-9.91 1.34v-.01zm-3.26-26.02c.96 8.04 2.09 16.85 3.27 26.05l-9.92 1.27c-1.18-9.19-2.31-18.04-3.28-26.14zm-3.54-50.35c.43 14.82 1.45 32.92 3.54 50.35l-9.93 1.18c-2.13-17.81-3.17-36.23-3.61-51.23zm12.29 9.24c-5.82-1.33-11.97-2.74-18.41-4.21l2.23-9.75c6.44 1.47 12.6 2.88 18.41 4.21zm7.99 2.19c-2.87-.78-5.61-1.53-8.2-2.24l2.65-9.65c2.58.71 5.319 1.46 8.18 2.24zm21.21 15.8a10.496 10.496 0 01-7.35.2 19.87 19.87 0 01-6.48-3.62 37.67 37.67 0 01-10.72-15.36l9.3-3.69a27.693 27.693 0 007.71 11.28 10.168 10.168 0 003.14 1.83c.79.25.79.02.35.22zm.52-18.51a19.558 19.558 0 014.48 7.43 9.602 9.602 0 01-.06 6 8.852 8.852 0 01-4.94 5.08l-4.05-9.14c.23-.1-.19.05-.41.67-.17.45-.02.61-.14.18a7.01 7.01 0 00-.83-1.66 12.202 12.202 0 00-1.341-1.72zm.33.17c.15.33.31.65.46.94l-8.87 4.62c-.21-.42-.43-.86-.65-1.32zm6.16 10.17c-4.1-1.1-8.11-2.18-12-3.23l2.61-9.65c3.87 1.04 7.88 2.12 11.98 3.22zm-3.21-5.76a2.908 2.908 0 00-.47.62 1.92 1.92 0 00-.09.18c.017-.049.03-.1.04-.15.034-.131.057-.265.07-.4l9.91 1.35c-.11.869-.311 1.724-.6 2.55a7.583 7.583 0 01-1.67 2.8zm-3.08 16.98a6.143 6.143 0 01-1.66-3.43 9.74 9.74 0 01-.05-2.2 21.975 21.975 0 014.79-11.35l7.19 6.95c-.011 0-.011.01-.02.02a2.704 2.704 0 00-.22.31c-.173.267-.33.544-.47.83-.365.74-.67 1.51-.91 2.3a9.596 9.596 0 00-.391 1.8c-.02.19.01.12-.03-.12a3.46 3.46 0 00-.21-.75 4.29 4.29 0 00-.95-1.44zm.09.08c-.05-.04-.07-.07-.09-.08l7.07-7.08.16.16zm5.72 2.58a7.726 7.726 0 01-5.72-2.58l7.14-7c.037.043.078.083.12.12.02.03.03.03.02.03a.952.952 0 00-.22-.17 2.715 2.715 0 00-1.41-.4zm10.29-6.28a27.545 27.545 0 01-5.01 4.5 9.8 9.8 0 01-5.29 1.78l-.06-10c-.63.01-.73.25-.13-.15a17.425 17.425 0 003.09-2.85zm-1.93 10.01a8.8 8.8 0 01-7.22-6.11 12.062 12.062 0 011.06-9.65l8.79 4.77a2.294 2.294 0 00-.39 1.66 1.398 1.398 0 00-1.1-.6zm1.86 0c-.618.07-1.242.07-1.86 0l1.14-9.93c-.13-.02-.26-.02-.39 0zm6.97-4.33a10.308 10.308 0 01-6.98 4.33l-1.1-9.94c-.143.018-.281.059-.41.12a2.17 2.17 0 00.5-.53zm6.28-11.78a58.962 58.962 0 01-6.12 11.55l-8.31-5.56a49.109 49.109 0 005.1-9.59zm-4.79 3.34l-1.15-.31 2.55-9.66 1.15.3zm-3.75 5.98a28.43 28.43 0 01.11-11.75l9.83 1.87a18.702 18.702 0 00-.23 7.52zm7.4 6.93a8.203 8.203 0 01-4.83-2.27 9.441 9.441 0 01-2.57-4.66l9.71-2.36c.07.27.09.1-.19-.17a1.986 1.986 0 00-.5-.34 1.717 1.717 0 00-.48-.14zm1.1.05a8.16 8.16 0 01-1.1-.05l1.14-9.94c-.06 0-.1-.01-.13-.01zm13.13-10.76a20.445 20.445 0 01-5.34 7.51 12.391 12.391 0 01-7.8 3.25l-.07-10a3.494 3.494 0 001.34-.83 10.318 10.318 0 002.66-3.83zm.82-2.36a18.96 18.96 0 01-.82 2.36l-9.21-3.9a9.75 9.75 0 00.41-1.17zm93.89 26.83c-4.874-.5-9.713-1.296-14.49-2.38-6.43-1.33-14.44-3.15-23.45-5.3-18.02-4.3-40.18-9.95-62.03-15.67l2.54-9.67c21.82 5.71 43.89 11.34 61.81 15.62 8.96 2.14 16.86 3.93 23.15 5.23 4.312.977 8.675 1.708 13.07 2.19zm2.55-18.64a53.547 53.547 0 015.81 3.38 17.112 17.112 0 015.02 4.76 6.395 6.395 0 01-3.21 9.61c-2.48 1.02-6.04 1.14-10.17.89l.6-9.98a34.53 34.53 0 004.39.04 6.239 6.239 0 001.37-.2 3.418 3.418 0 00-1.74 2.17c-.3.882-.22 1.85.22 2.67.06.1-.01-.05-.46-.44a15.004 15.004 0 00-1.65-1.26 43.097 43.097 0 00-4.68-2.71zm-87.9-23.78c32.35 9.03 66.65 18.41 86.85 23.39l-2.4 9.71c-20.36-5.02-54.8-14.44-87.14-23.47zm-2.49-16.11c3.24 6.58 5.63 14.28 6.12 20.52l-9.96.8a51.489 51.489 0 00-5.13-16.91zm-27.76-25.68a114.199 114.199 0 0114.93 10.56c5.03 4.27 10.06 9.49 12.83 15.12l-8.97 4.41c-1.86-3.78-5.65-7.93-10.33-11.9a103.087 103.087 0 00-13.56-9.59zm1.29 8.28c-.59.2-1.34.46-2.24.76l-3.2-9.48c.91-.3 1.67-.56 2.28-.76zm-22.29-130.966c4.22 18.763 10.56 47.543 15.88 72.905 2.65 12.681 5.06 24.521 6.83 33.851 1.71 9.09 2.93 16.31 3 19.35l-10 .25c-.05-2.03-1.04-8.28-2.83-17.74-1.74-9.23-4.14-21-6.79-33.658-5.31-25.3-11.64-54.032-15.85-72.766zm-10.73-78.207c2.68 22.455 7.3 60.984 10.75 78.326l-9.8 1.954c-3.56-17.826-8.22-56.864-10.88-79.092zm.01.178v.001l-9.96.83zm-.01-.169v.005l-9.94 1.159v-.005zm-.01-.027v.008l-9.92 1.196v-.007zm0-.009v.017l-9.93 1.181v-.017zm0-.021v.022l-9.93 1.18v-.022zm0-.027v.026l-9.93 1.183v-.026zm-1.5-12.385c.37 2.947.88 7.237 1.5 12.382l-9.93 1.189c-.62-5.159-1.13-9.414-1.49-12.325zm-11.32-80.554c3.11 21.587 9.74 67.999 11.32 80.554l-9.92 1.246c-1.57-12.44-8.18-58.732-11.3-80.374zm-10.07-75.4c6.78 26.867 9.56 61.805 10.12 75.917l-9.99.393c-.55-13.835-3.29-47.978-9.83-73.863zm-29.19-45.658c8.24 4.357 21.48 15.117 29.19 45.658l-9.7 2.447c-7.09-28.095-18.69-36.37-24.17-39.264zm2.15 2.212l.08.188-9.15 4.041-.08-.188zm-3.78-3.123c.42.187.89.402 1.4.649l-4.39 8.989c-.38-.189-.75-.356-1.09-.51zm-5.73-2.641c2.311 1.101 4.262 1.98 5.73 2.641l-4.08 9.128c-1.5-.673-3.54-1.59-5.96-2.743zm-4.64.176l.09-.052 4.79 8.778-.09.052zm-14.2-10.242a187.145 187.145 0 0018.722 10.108l-4.261 9.046a196.83 196.83 0 01-19.73-10.656zm-9.08-6.105c3.04 2.215 6.101 4.251 9.09 6.107l-5.278 8.494a157.5 157.5 0 01-9.7-6.523zm-28-28.051c5.67 6.919 18.061 20.794 28 28.051l-5.89 8.078c-11.04-8.059-24.11-22.787-29.84-29.796zm.73-8.698c-.03 2.866.14 7.155.4 11.58l-9.989.569c-.25-4.449-.44-9.031-.4-12.266zm1.08-.797q-.84 1.738-1.8 3.325l-8.55-5.173q.706-1.179 1.35-2.495zm25.88 2.702c-7.9 2.517-18.31 2.7-31.38.025l2-9.797c12.11 2.478 20.65 2.058 26.34.244zm29.6-42.998c.96 10.097-2.519 19.598-8.05 27.093a44.404 44.404 0 01-21.55 15.905l-3.04-9.528a34.36 34.36 0 0016.54-12.316c4.38-5.928 6.83-13.03 6.14-20.204zm-26.06-24.8a36.23 36.23 0 0115.13 6.263 25.568 25.568 0 0110.93 18.537l-9.96.95a15.57 15.57 0 00-6.84-11.392 26.256 26.256 0 00-10.76-4.471zm-24.34 19.073a16.805 16.805 0 012.44-10.27 17.254 17.254 0 016.86-6.052 29.74 29.74 0 0114.6-2.799l-.61 9.982a19.817 19.817 0 00-9.45 1.727 7.284 7.284 0 00-2.96 2.506 6.855 6.855 0 00-.9 4.279zm20.92 14.772a17.164 17.164 0 01-12.18-.25c-5.01-2.199-8.27-7.098-8.739-14.522l9.98-.627c.29 4.571 1.94 5.625 2.78 5.994a7.247 7.247 0 004.88-.042zm2.6-2.006c1.57-4.429.44-5.639.3-5.79a4.594 4.594 0 00-3.64-.828 5.36 5.36 0 00-1.88.518c-.47.251.01.163.3-.69.173-.495.198-1.03.07-1.539a1.709 1.709 0 00-.27-.628 8.686 8.686 0 002.83 1.637l-3.91 9.206a17.416 17.416 0 01-6.489-4.309 7.665 7.665 0 01-1.68-7.609 8.989 8.989 0 014.41-4.873 15.32 15.32 0 015.52-1.653c3.64-.4 8.58.288 11.99 3.887 3.74 3.936 4.13 9.663 1.87 16.028zm-26.25 5.119c16.42 5.487 24.58-2.251 26.58-5.864l8.75 4.847c-4.32 7.796-17.47 17.526-38.5 10.502zm8.25-61.918c0 16.504 0 37.244-4.899 67.461l-9.87-1.601c4.77-29.409 4.77-49.507 4.77-65.86zm132.95 588.24c-.51-1.86-1.04-3.84-1.46-5.82l9.78-2.07c.35 1.65.81 3.36 1.33 5.27zm-.01-.02l9.66-2.59v.01zm2.37 14.05c.08-4.93-1.07-9.28-2.36-14.03l9.65-2.62c1.26 4.64 2.82 10.28 2.71 16.82zm4.51 5.14l-.87-.24 2.72-9.63.86.25zm.5-29.09c.517.701.93 1.472 1.23 2.29.261.67.511 1.44.761 2.25.5 1.63 1.03 3.68 1.53 5.85a107.413 107.413 0 012.31 13.44l-9.96.9a99.101 99.101 0 00-2.09-12.09 83.7 83.7 0 00-1.36-5.19c-.2-.68-.38-1.19-.51-1.52-.19-.51-.15-.24.2.2zm6.81 27.93c-.068-.6-.149-1.19-.238-1.76l9.89-1.51c.1.67.2 1.38.28 2.11zm3.8 4.29l-.189-.05 2.7-9.63.19.05zm5.79-7.86c.142.62.28 1.26.432 1.91l-9.74 2.27c-.16-.7-.32-1.39-.46-2.06zm-362.08-461.231c1.288.188 2.578.432 3.84.733l-2.311 9.729c-.97-.231-1.96-.419-2.96-.565zm1.619 10.482a59.846 59.846 0 00-3.13-.597l1.59-9.873c.71.116 2.06.348 3.67.7zm27.59 208.767c-4.07-29.183-13.02-55.107-16.9-64.256l9.2-3.911c4.18 9.843 13.4 36.616 17.61 66.785zm2.4 15.782c-.72-4.5-1.54-9.679-2.4-15.782l9.91-1.382c.83 5.994 1.65 11.084 2.37 15.585zm-.01-.081v-.002l9.9-1.414v.002zm-7.19 54.592c6.1-13.803 8.65-21.755 9.38-28.901.74-7.187-.3-13.882-2.18-25.609l9.88-1.579c1.82 11.4 3.14 19.467 2.25 28.21-.9 8.784-4 17.93-10.18 31.922zm-.28.646c.09-.217.19-.432.28-.646l9.15 4.043-.27.603zm-.11.257l.11-.253 9.17 3.992-.11.252zm-.16.36c.05-.119.101-.238.16-.357l9.17 3.985-.15.333zm-20.189-52.782c1.26 5.612 4.85 13.523 10.1 22.781 5.19 9.148 11.79 19.235 18.76 29.094l-8.16 5.775c-7.09-10.028-13.89-20.405-19.3-29.934-5.34-9.42-9.55-18.397-11.16-25.521zm17.71-82.743a211.49 211.49 0 00-14.27 38.181c-4.16 15.686-6.28 31.951-3.44 44.562l-9.76 2.195c-3.37-15.004-.75-33.175 3.54-49.324a221.578 221.578 0 0114.99-40.1zm254.76 273.761c-.06 3.21-.09 7.5-.04 12.58l-10 .09c-.05-5.16-.02-9.54.04-12.86zm-.63 17.21c-3.32-5.39-6.72-11.3-8.73-14.85l8.71-4.91c1.97 3.49 5.31 9.28 8.53 14.52zm-3.3-9.46c2.94.67 5.83 1.32 8.66 1.97l-2.21 9.75c-2.84-.65-5.73-1.3-8.67-1.97zm24.19 8.37c-4.12 1.6-7.5 3.01-9.72 4.07l-4.311-9.02c2.56-1.23 6.23-2.74 10.4-4.37zm-6.62 2.3a63.491 63.491 0 01-.19-7.1l9.99.27c-.05 2.005.004 4.01.16 6.01zm-4.14-7.62l10.229 2.33-2.22 9.75q-4.964-1.125-10.23-2.33zm33.42 8.33c.548.122 1.089.275 1.62.46l-3.34 9.43a2.579 2.579 0 00-.42-.12zm-1.42 9.98l-1.021-.29 2.74-9.61 1.02.29z" fill="#FFF" stroke="none" stroke-width="1"/></g><rect id="egf2byz5lvd12" width="52.596" height="116.025" rx="0" ry="0" transform="translate(2355.79 712.652)" fill="#307CC1" stroke="none" stroke-width="1"/><path id="egf2byz5lvd13" d="M2417.182 727.246c22.54-44.023 18.44-109.823 13.58-137.22l-71.83-54.401 15.7 188.717c12.61 3.14 38.78 8.117 42.55 2.904z" fill="#A64D55" stroke="none" stroke-width="1"/><path id="egf2byz5lvd14" d="M2399.672 388.672l-33.67 7.85-40.2-2.905v69.552h75.84z" fill="#A64D55" stroke="none" stroke-width="1"/><path id="egf2byz5lvd15" d="M2193.372 848.3c12.25-60.45 24.97-123.091 39.65-156.297 14.679-33.206 10.36-35.875 5.18-73.006-4.15-29.705-13.24-56.076-17.27-65.549 4.16-12.089 13.44-44.997 17.27-79.914 4.78-43.647-12.09-65.156-35.41-68.218 52.19-2.763 90.36-28.312 102.92-40.742 15.33 70.677 48.39 216.663 57.93 235.19 11.93 23.158 15.39 120.656 16.33 152.528.94 31.868-8.09 112.888-8.48 129.998-.389 17.11-15.78 46.39-19.78 52.2-3.2 4.65-5.63 11.78-6.44 14.76l8.32 5.81-8.32 14.68c-.229.71 2.25-.25 14.05-9.73 14.762-11.86 6.521 27.16 4.32 38.54" fill="#EE6570" stroke="none" stroke-width="1"/><path id="egf2byz5lvd16" d="M2383.182 495.745c5.72-22.671 10.71-81.091 12.49-107.468l8.87 15.936 32.1 108.175-4.86 79.521c-15.36-28.469-46.59-87.56-48.6-96.164z" fill="#F37A84" stroke="none" stroke-width="1"/><path id="egf2byz5lvd17" d="M2567.352 849.16c-5.28-10.74-21.51-21.38-28.97-25.36-12.58-4.5-38.13-7.89-39.64 14.53-1.881 28.02 14.909 42 21.119 39.25 4.96-2.2 1.33-7.93-1.1-10.52-2.54-4.87-5.67-14.43 2.12-13.74 9.73.86 10.67 16.02 8.4 18.37-2.28 2.36-4.16 8.95-3.14 9.97 1.019 1.02 2.74 3.3 8.87-3.45-3.38 6.2 2.27 11.77 6.59 6.04 13.5-20.17 6.6-32.42 4.16-43.88 1.49 1.88 5.97 21.82 4.71 25.75-1.25 3.92-3.69 11.69-2.27 17.5 1.409 5.81 8.869 3.22 12.159-4.55 1.97-4.64 1.61-11.46.85-16.41 1.25 5.8 3.2 13.02 4.88 13.66 10.292 3.93 7.851-13.74 1.262-27.16z" fill="#FFC9BA" stroke="none" stroke-width="1"/><path id="egf2byz5lvd18" d="M2370.712 393.775c1.19-.691 16.14-15.203 23.47-22.373.37 2.46 1.51 9.201 3.14 16.486-3.01 6.719-16.8 13.685-23.32 16.328-1.59-3.193-4.49-9.75-3.29-10.441z" fill="#F37A84" stroke="none" stroke-width="1"/><path id="egf2byz5lvd19" d="M2392.762 348.401c-.25 5.777.74 19.782 1.26 26.062l-23.08 19.704c-14.73-2.041-39.5-.565-46.79-4.082-7.28-3.517-10.25-32.29-10.83-46.237 23.24 1.517 71.66 4.553 79.44 4.553z" fill="#C4535D" stroke="none" stroke-width="1"/><path id="egf2byz5lvd20" d="M2478.012 905.52a616.888 616.888 0 01-3.77-77.79c1.96 3.53 6.97 12.3 11.3 19.15 4.09-3.61 49.3-19.08 58.25-22.06-.25-10.11-17.16-87.633-25.59-125.13-4.32-21.666-10.36-75.518-12.32-91.14-1.57-12.497-8.19-58.85-11.31-80.464-.55-13.973-3.31-48.513-9.97-74.89-8.32-32.97-23-40.899-28.96-43.568a186 186 0 01-33.6-18.997c-10.931-7.976-24.29-23.158-29.601-29.752 0 20.253 6.2 41.998 10.84 57.934 4.63 15.936 15.07 58.719 23.07 109.273 8.01 50.555 1.89 70.102 5.03 92.004 3.14 21.902-1.89 57.149 0 64.685 1.88 7.536 0 94.905 0 101.345 0 6.44-9.03 71.44-5.97 100.09" fill="#EE6571" stroke="none" stroke-width="1"/><path id="egf2byz5lvd21" d="M2450.772 407.382c-4.28 2.239-13.41 7.86-15.97 12.617-3.43-.641-27.33-16.319-39.44-31.78a142.321 142.321 0 01-3.03-27.41c5.31 6.594 18.67 21.776 29.6 29.752a178.325 178.325 0 0028.84 16.821z" fill="#EE6671" fill-rule="evenodd" stroke="none" stroke-width="1"/><path id="egf2byz5lvd22" d="M2482.242 932.02c-1.17-9.22-2.31-18.07-3.27-26.16a614.995 614.995 0 01-3.77-77.79c-1.86-28.26-7.22-91.912-13.82-120.423-4.08-14.6-3.22-40.664 7.3-99.226 10.11-56.28 10.14-150.484-10.84-197.872-.45-.218-.87-.41-1.25-.58a253.05 253.05 0 01-5.84-2.692c-5.79 3.152-13.35 8.061-15.98 12.584 3.45 6.986 28.23 146.251-2.69 198.65.08.638.16 1.278.26 1.92 1.81 12.672.9 29.812.17 43.467-.54 9.945-.97 18.042-.17 21.218 1.53 6.133.57 65.147.15 90.374-.09 5.77-.15 9.77-.15 10.97 0 1.62-.57 6.93-1.38 14.43-2.4 22.37-6.88 64.2-4.59 85.66" fill="#F37A84" fill-rule="evenodd" stroke="none" stroke-width="1"/><path id="egf2byz5lvd23" d="M2395.632 388.285c2.2 11.101 5.23 21.66 7.79 30.451 4.63 15.936 15.07 58.719 23.08 109.274a330.908 330.908 0 014.18 65.736c-.19 9.046-.35 16.719.62 24.587l1.08.269c4.27-7.274 13.13-29.061 14.45-58.012 1.64-36.189.94-93.966-11.54-140.674-7.99-3.836-23.15-12.511-39.66-31.631z" fill="#DB5E68" fill-rule="evenodd" stroke="none" stroke-width="1"/><path id="egf2byz5lvd24" d="M2392.852 437.266c-1.32-4.459-12.9-15.308-18.53-20.175-2.82-4.16-8.87-11.351-10.44-6.829-1.96 5.652-4.55 44.431-3.06 47.571 1.2 2.512 15.47 26.481 22.45 38.152 3.75-17.715 10.9-54.26 9.58-58.719z" fill="#C5545D" stroke="none" stroke-width="1"/><path id="egf2byz5lvd25" d="M2321.872 380.19c1.51 2.199 18.37 7.981 26.62 10.598l4.24 9.028c-6.6 1.256-20.1 3.391-21.36 1.884-1.57-1.884-11.38-24.257-9.5-21.51z" fill="#F37A84" stroke="none" stroke-width="1"/><path id="egf2byz5lvd26" d="M2375.752 406.647c-.51-9.106-4.24-12.587-6.05-13.189-5.26-.915-16.92-2.747-21.51-2.747-1.25 6.751 7.15 13.659 17.04 23.158 9.89 9.499 11.15 4.16 10.52-7.222z" fill="#DB5E68" stroke="none" stroke-width="1"/><path id="egf2byz5lvd27" d="M2368.191 464.738l62.96 125.445c-16.64-5.888-56.84-39.172-70.729-49.534-.79-5.731-12.64-49.613-17.66-65.392-5.03-15.779-21.12-73.713-21.12-95.222 1 7.222 31.45 59.478 46.55 84.703z" fill="#DB5E68" stroke="none" stroke-width="1"/><path id="egf2byz5lvd28" d="M2302.252 423.449l20.1-35.09c7.69 15.465 48.04 184.714 48.04 207.793-41.99-51.811-73.24-153.627-73-160.064.19-5.15 3.32-10.571 4.86-12.639z" fill="#F37A84" stroke="none" stroke-width="1"/><path id="egf2byz5lvd29" d="M2313.952 350.206c-.63 6.72 5.39 28.339 8.48 38.309l-24.34 48.435c-7.85-.235-19.37-12.56-15.85-24.178 4.39-14.523 31.71-63.9 31.71-62.566z" fill="#DB5E68" stroke="none" stroke-width="1"/><path id="egf2byz5lvd30" d="M2373.611 633.991c.19-6.531-2.069-27.947-3.22-37.838-32.53-37.994-64.84-131.385-76.93-173.33-7.95-4.239-23.86-11.477-23.86-6.516 3.53 35.09 34.141 93.181 46.08 113.042 11.93 19.861 49.061 99.775 53.771 112.256 3.77 9.986 4.34 5.522 4.16 2.041a90.381 90.381 0 010-9.655z" fill="#C4535D" stroke="none" stroke-width="1"/><path id="egf2byz5lvd31" d="M2659.982 900.5c16.58 1 6.91-5.71 0-9.19-35.67-8.79-114.92-31.19-150.09-41.29-86.09-19.67-266.83-60.46-301.05-66.17-42.79-7.147-104.57-28.578-118.7-22.455-14.13 6.123-8.32 31.405-4.63 43.415 3.69 12.01 15.39 7.38 10.44-7.7-4.95-15.07 4.949-20.328 9.89-22.448 4.95-2.12 47.57 7.698 63.51 10.838 12.75 2.51 221.61 50.24 324.44 73.79 48.49 13.32 149.61 40.2 166.19 41.21z" fill="#543343" stroke="none" stroke-width="1"/><path id="egf2byz5lvd32" d="M2275.012 753.939l-8.24-8.556c-15.54 13.502-46.33 40.997-45.14 42.937 1.49 2.44 12.4 9.5 19.55 13.19 1.96-6.28 27-34.382 31.4-39.799 3.51-4.333 3.08-6.987 2.43-7.772z" fill="#C4C4C4" stroke="none" stroke-width="1"/><path id="egf2byz5lvd33" d="M2146.772 539.785c5.78-32.845 39.77-103.334 56.05-134.473 0 0 7.19 1.025 11.52 3.141 10.91 5.338 14.44 12.403 15.7 14.287 13.46 20.198 9.75 49.83 8.24 59.582a441.333 441.333 0 01-17.33 71.122c-8.63 17.192-24.35 58.484-18.13 86.116 6.219 27.632 58.88 94.385 70.86 103.543-20.64 13.188-40.9 38.147-53.06 51.337-15.552-10.44-57.762-73.553-77.851-105.738-20.1-32.186-20.18-73.242-12.88-94.987 7.3-21.745 9.66-12.874 16.88-53.93z" fill="#C4535D" stroke="none" stroke-width="1"/><path id="egf2byz5lvd34" d="M2323.842 786.2c-8.1-22.105-37.18-28.992-50.71-29.673-9.81 8.792-29.44 28.563-29.44 37.293 31.79 2.11 37.99 9.89 42.86 21.74 4.87 11.85 13.11 5.26 12.01-2.35 3.06 9.49 6.36 2.35 6.36-9.5 1.02 12.95 10.6 29.43 12.09 7.93.93-13.42-5.62-24.97-8.7-29.46.19.22.39.46.61.72 8.17 9.5 10.29 21.28 16.88 32.66 7.7 8.95 8.17-1.73-1.96-29.36z" fill="#FFC9BA" stroke="none" stroke-width="1"/><path id="egf2byz5lvd35" d="M2516.432 820.7c7.66-.8 16.18 1.04 21.96 3.1 7.45 3.98 23.69 14.62 28.96 25.36 6.6 13.42 9.03 31.09-1.25 27.16-1.68-.64-3.63-7.86-4.89-13.66.77 4.95 1.12 11.77-.84 16.41-3.301 7.77-10.761 10.36-12.17 4.55-1.41-5.81 1.02-13.58 2.279-17.5 1.25-3.93-3.22-23.87-4.71-25.75.38 1.82.88 3.66 1.39 5.55 2.72 10 5.8 21.36-5.56 38.33-4.31 5.73-9.96.16-6.59-6.04-5.89 6.49-7.71 4.63-8.75 3.57l-.12-.12c-.39-.39-.36-1.6-.03-3.08l2.23-.46-.78-3.76a10.338 10.338 0 011.721-2.67c2.07-2.14 1.48-14.87-5.97-17.8z" fill="#FFC9BA" fill-rule="evenodd" stroke="none" stroke-width="1"/><path id="egf2byz5lvd36" d="M2516.642 834.24l25.04-8.71-5.26-8.8-23.08 2.05z" fill="#EE6570" stroke="none" stroke-width="1"/><path id="egf2byz5lvd37" d="M2374.401 247.764c23.71-2.983 29.051 7.536 29.99 11.226 0 18.291 0 41.527-6.67 77.166-6.68 35.64-44.75 31.322-53.229 30.145-8.47-1.178-29.2-8.871-37.91-31.95-8.72-23.079-8.87-75.361-7.54-83.368 4.79.942 51.65-.236 75.36-3.219z" fill="#FFC9BA" stroke="none" stroke-width="1"/><path id="egf2byz5lvd38" d="M2403.702 287.319c-1.42-4.365-3.61-9.03-6.54-10.852a136.908 136.908 0 01-24.73-19.075c-3.59-3.592-5.63-6.443-6.44-8.682 2.99-.278 5.79-.576 8.32-.895 23.71-2.983 29.05 7.536 29.99 11.226 0 8.206 0 17.408-.6 28.278z" fill="#292929" fill-rule="evenodd" stroke="none" stroke-width="1"/><path id="egf2byz5lvd39" d="M2326.012 251.248c2.88 3.192 3.59 11.801-5.08 16.511-1.82.992-3.43 1.842-4.86 2.596-7.07 3.725-9.77 5.147-12.25 10.043a9.496 9.496 0 01-4.96 4.77c-.84-16.173-.54-30.281.1-34.135 2.19.432 13.22.419 26.81-.01.085.07.165.145.24.225z" fill="#292929" fill-rule="evenodd" stroke="none" stroke-width="1"/><path id="egf2byz5lvd40" d="M2299.422 323.674c18.34-5.024 35.17-.209 41.29 2.826-27 10.441-45.61 16.485-72.3 14.366-23.63-1.877-36.27-32.264-16.64-40.036 19.62-7.772 25.67 8.007 27.71 15.229-8.32-13.58-16.49-3.768-14.37 1.727 2.64 6.83 11.39 12.168 34.31 5.888z" fill="#292929" stroke="none" stroke-width="1"/><path id="egf2byz5lvd41" d="M2393.632 323.277c-22.42-10.425-44.61-2.198-52.91 3.219 42 21.352 68.14 25.041 82.43 20.488 14.28-4.553 27.79-20.488 26.14-37.759-1.32-13.816-15.1-19.311-21.83-20.332-6.51-.392-19.35 1.821-18.6 13.816.75 11.995 9.84 11.907 14.29 10.363-18.69-7.929 16.64-17.192 8.95 4.396-3.48 6.28-16.05 16.234-38.47 5.809z" fill="#292929" stroke="none" stroke-width="1"/><path id="egf2byz5lvd42" d="M2334.672 265.976c2.43 55.344-6.59 87.715 17.58 57.425-4.33-16.19-9.41-54.676-17.58-57.425z" fill="#F0BBAC" stroke="none" stroke-width="1"/><path id="egf2byz5lvd43" d="M2327.162 290.839c-2.54-.891-11.62-3.628-16.04.269a.708.708 0 00-.06 1.013c4.98 5.413 13.2 7.896 16.51-.323a.733.733 0 00-.41-.959z" fill="#FFF" stroke="none" stroke-width="1"/><path id="egf2byz5lvd44" d="M2385.252 289.634c-3.37-1.18-14.2-4.384-17.85 2.283a.833.833 0 00.19 1.021c9 7.684 15.24 1.789 18.04-2.048a.821.821 0 00-.38-1.256z" fill="#FFF" stroke="none" stroke-width="1"/><path id="egf2byz5lvd45" d="M2380.542 288.283s1.06 6.293.62 6.885c-.43.591-4.38 2.049-5.76 1.619-1.37-.429-5.31-6.401-4.05-8.205 1.27-1.768 9.19-.299 9.19-.299z" fill="#2C1E25" stroke="none" stroke-width="1"/><path id="egf2byz5lvd46" d="M2322.582 289.561s-6.36-1.081-8.02-.206c-1.64 2.385-.72 5.461.68 6.297 1.78 1.039 5.47 1.743 5.92 1.448.43-.335 2.85-4.163 1.42-7.539z" fill="#2C1E25" stroke="none" stroke-width="1"/><path id="egf2byz5lvd47" d="M2358.232 291.413c0 10.145 9.71 20.802 19.86 20.802 10.14 0 16.95-10.657 16.95-20.802s-6.81-16.015-16.95-16.015c-10.15 0-19.86 5.87-19.86 16.015z" fill="#C7E6ED" fill-opacity=".5" stroke="none" stroke-width="1"/><path id="egf2byz5lvd48" d="M2338.122 356.802c10.93-9.923 19.73-3.716 22.77.628 14.52 15.307 2.75 34.854 0 47.022-4.08-18.762-36.42-35.247-22.77-47.65z" fill="#292929" stroke="none" stroke-width="1"/><path id="egf2byz5lvd49" d="M2334.642 342.715c-.37.884.93 1.807 2.41 2.611a14.497 14.497 0 005.96 1.942c2.55.222 4.42-.627 6.86-.826 2.31-.188 5.22.227 6.97-.3 1.8-.543 1.74-1.529 1.96-2.392.22-.929.93-1.951-.68-2.769-1.61-.815-4.65-1.116-7.34-1.307-2.16-.076-4.321.035-6.461.332-1.81.121-3.605.394-5.37.814-1.85.517-3.949 1.049-4.31 1.895z" fill="#DBA89A" fill-rule="evenodd" stroke="none" stroke-width="1"/><path id="egf2byz5lvd50" d="M2941.972 766.402l-1342.4-20 150-134.3 1032.4 10z" fill="#FACABC" stroke="none" stroke-width="1"/><path id="egf2byz5lvd51" d="M2724.782 1024h19l10-267.602h-29z" fill="#FACABC" stroke="none" stroke-width="1"/><path id="egf2byz5lvd52" d="M2116.082 754.418l559.34 7.354V1024h-635.91z" fill="#3F7AD3" stroke="none" stroke-width="1"/><path id="egf2byz5lvd53" d="M2621.482 1024h29l-10-277.602-19 10z" fill="#FACABC" stroke="none" stroke-width="1"/><path id="egf2byz5lvd54" d="M2635.882 631.602h-165.4v28.8h165.4z" fill="#F87980" stroke="none" stroke-width="1"/><path id="egf2byz5lvd55" d="M2549.382 631.6l98.55-444.182-108.9 38-8.7-11.5 138.8-52-102.95 469.682z" fill="#FFF1F0" stroke="none" stroke-width="1"/><path id="egf2byz5lvd56" d="M2589.762 281.28l-79.01-128.913-20.46 12.54 79 128.913z" fill="#FFF1F0" stroke="none" stroke-width="1"/><path id="egf2byz5lvd57" d="M2103.382 459.601l39.2.6v-26.4l-10.11-16.6-19.09-18.3-41.3-45.3-10.3-9-23.9-5.7-5.4-4.9-12.7-8.9-6.7-7.2 3.8-7.4 2.6-20.9 1.601-12.2.4-12.1-4.5-11 2.6-3.2-10.1-22.4-1.1-5.3-4.7-.3-1.6-2.2-5.7-12.2-2.6-1.1-4.101 1.3-3.2-2.6-5.9 3.5-2.7 6.3-5.2 7.4h2l-2.1 5.2-1-.9-3.9-.3-16 24.2 1.4 1.5-.7 15-3.1 1.2-.5 19.6-4.6 13.5v18.1l3.8 7.4-1.6-8v-12.5l4.4-12.2 1.6 3.5 1.5 2.1 2.5-3.8.7 4.8 2 9.9-3 15.8-28.4 12.8-11 11-16.2 27.6-51.5 39.3-11.8 24.3 1.5 12.1 27.7-.6 7.1-15.4 25.5-27.3 31.4-21.9 8.3 17.8-8.3 25.5v24.3l112.6 1.6 2.3-15.8 5.3-53.3 30.2 20.7 22.5 29.6v19.7z" fill="#2C1E25" stroke="none" stroke-width="1"/></g><g id="egf2byz5lvd59"><path id="egf2byz5lvd60" d="M1194.132 198.188l-500.08 89.359 110.13 616.333 500.08-89.36z" fill="#FFF1F0" stroke="none" stroke-width="1"/><path id="egf2byz5lvd61" d="M1281.772 794.01l-103.59-579.752-463.59 82.836 103.6 579.756z" transform="translate(0 -1.567)" fill="#3F7AD3" stroke="none" stroke-width="1"/><path id="egf2byz5lvd62" d="M729.622 381.217l524.04 255.508-75.2-424.034-463.87 84.397z" fill="#F87980" stroke="none" stroke-width="1"/><path id="egf2byz5lvd63" d="M805.172 356.588l2.67 13.376-8.89 1.587-1.86-12.704-.95-4.923-9.55 1.639-8.6 1.672.67 4.091 2.72 13.365-8.88 1.587-1.8-12.716-5.77-29.66 9.01-1.61 2.87 17.55 9.1-1.491 8.86-1.719-3.39-17.456 9.08-1.623z" fill="#FFF1F0" stroke="none" stroke-width="1"/><path id="egf2byz5lvd64" d="M846.092 363.13l-8.36 1.493-1.78-4.639-.93-1.802-6.73 1.133-5.9 1.19-.21 1.464-.05 5.44-8.09 1.447 5.71-35.311 9.8-1.752zm-13.97-10.882l-6.02-12.029-.52.094-2.14 13.487 4.29-.699z" fill="#FFF1F0" stroke="none" stroke-width="1"/><path id="egf2byz5lvd65" d="M871.252 352.249l.58 6.28-19.54 3.492-1.37-9.941-4.57-23.289 8.42-1.505 3.58 22.652.82 3.859 11.52-2.057z" fill="#FFF1F0" stroke="none" stroke-width="1"/><path id="egf2byz5lvd66" d="M891.232 321.452l.66 6.399-6.79.739-1.91.341 2.67 16.091 2.17 10.612-8.22 1.47-1.44-9.929-3.14-16.821-1.91.341-6.76 1.683-.64-.564-.67-6.399 25.4-4.539z" fill="#FFF1F0" stroke="none" stroke-width="1"/><path id="egf2byz5lvd67" d="M901.042 344.347a7.177 7.177 0 013.97 5.13q1.02 5.724-5.93 12.806l-3.27-1.995-.19-.646c2.05-2.449 2.88-4.814 2.47-7.095a5.083 5.083 0 00-2.81-3.572l-.06-.735a25.205 25.205 0 015.82-3.893z" fill="#FFF1F0" stroke="none" stroke-width="1"/><path id="egf2byz5lvd68" d="M931.382 313.531q5.655-1.011 9.16 1.146 3.51 2.091 4.39 7.092a11.862 11.862 0 01-2.35 9.995q-3.39 4.204-10.1 5.404l-3.36.6 2.15 10.14-8.29 1.481-1.43-9.929-4.51-23.3zm1.55 17.444a6.782 6.782 0 003.03-2.782c.6-1.274.751-2.712.43-4.083a4.752 4.752 0 00-2.12-3.491 6.92 6.92 0 00-4.59-.606l-3.26.719 1.74 10.893z" fill="#FFF1F0" stroke="none" stroke-width="1"/><path id="egf2byz5lvd69" d="M963.742 307.272q7.5-1.34 12.35 2.208 4.845 3.547 6.24 11.378 1.53 8.555-2.1 14.092-3.57 5.459-11.67 6.905-7.425 1.329-12.29-2.285-4.86-3.68-6.29-11.641-1.5-8.422 2.08-13.817 3.585-5.394 11.68-6.84zm.48 6.841q-4.08.729-5.46 3.284-1.32 2.476-.36 7.873a26.141 26.141 0 001.95 6.714 6.342 6.342 0 003.06 3.052 8.724 8.724 0 004.73.242q4.14-.741 5.46-3.218 1.395-2.49.42-7.951a23.562 23.562 0 00-2-6.636 6.37 6.37 0 00-3.07-3.118 8.521 8.521 0 00-4.73-.242z" fill="#FFF1F0" stroke="none" stroke-width="1"/><path id="egf2byz5lvd70" d="M1010.702 327.333l.57 6.28-19.54 3.492-1.37-9.941-4.57-23.289 8.43-1.505 3.57 22.652.82 3.859 11.52-2.058z" fill="#FFF1F0" stroke="none" stroke-width="1"/><path id="egf2byz5lvd71" d="M1023.562 320.417l2.24 10.601-8.29 1.481-1.44-9.929-4.5-23.3 8.42-1.505z" fill="#FFF1F0" stroke="none" stroke-width="1"/><path id="egf2byz5lvd72" d="M1052.642 292.609l.67 6.399-6.79.739-1.91.341 2.67 16.091 2.17 10.612-8.23 1.47-1.43-9.929-3.14-16.821-1.91.341-6.76 1.683-.65-.564-.66-6.399 25.4-4.539z" fill="#FFF1F0" stroke="none" stroke-width="1"/><path id="egf2byz5lvd73" d="M1070.602 312.012l2.23 10.601-8.29 1.481-1.43-9.929-4.51-23.3 8.43-1.505z" fill="#FFF1F0" stroke="none" stroke-width="1"/><path id="egf2byz5lvd74" d="M1104.552 310.019l.62.432.52 6.291-22.77 4.068-1.43-9.929-4.51-23.3 23.1-4.127.58.576.56 6.213-8.61 1.2-6.18 1.105 1.06 6.735 5.94-.992 5.69-1.221.56.51.59 6.346-6.28.919-5.46.976.45 2.907.88 4.188 5.79-1.035z" fill="#FFF1F0" stroke="none" stroke-width="1"/><path id="egf2byz5lvd75" d="M1114.382 281.374l1.96 20.836-4.82 1.54-.93-.649-3.98-19.999.54-1.116 6.06-1.422zm-.18 25.63a3.73 3.73 0 014.74 3.297 4.432 4.432 0 01-.61 3.436 4.133 4.133 0 01-2.88 1.737 4.314 4.314 0 01-3.22-.512 4.921 4.921 0 01-.97-6.209 4.336 4.336 0 012.94-1.749z" fill="#FFF1F0" stroke="none" stroke-width="1"/><g id="egf2byz5lvd76" clip-path="url(#egf2byz5lvd2)"><path id="egf2byz5lvd77" d="M1106.762 761.111c8.44-28.684 20.31-114.034 17.63-129.031-2.65-14.814-8.24-46.088-.56-69.541 7.67-23.452 31.7-78.702 15.92-91.168-15.79-12.466-21.77-8-26.29 4.696-5.66 15.733-11.03 108.981-20.72 102.219-9.68-6.763-18.43-27.28-18.43-27.28s-.74-127.448-1.92-134.032c-1.21-6.767-14.73-16.052-20.88-3.062-6.16 12.989-2.31 148.374-8.12 144.317-5.81-4.057-10.12-66.134-10.12-66.134s-1.1-91.525-23.04-91.002c-21.94.523-11.94 56.488-11.94 56.488s4.21 99.462-4.3 99.283c-8.51-.179-16.99-66.605-16.99-66.605s-10.12-66.133-12.35-69.132c-6.23-8.512-22.24-1.122-21.35 3.816.88 4.938 10.12 132.565 11.59 140.795 1.48 8.23 15.59 87.237 4.09 89.292-11.49 2.055-71.7-31.349-80.04-40.051-8.34-8.702-60.5-35.049-50.28-6.302 10.22 28.747 65.49 54.541 80.05 79.116 14.56 24.575 80 58.743 82.64 73.557 2.65 14.814 19.92 142.53 19.92 142.53l114.99-20.55z" transform="rotate(-20 1099.514 711.229)" fill="#5C404E" stroke="none" stroke-width="1"/></g></g><g id="egf2byz5lvd78"><path id="egf2byz5lvd79" style="isolation:isolate" d="M5817.06 1024H0L823.302 0h4953.572zM2547.742 258.382l-94.41 439.649c-44.47 20.003-187.16 56.415-402.17 42.03-215.01-14.385-260.56-50.156-256.46-66.244l713.54-478.848z" opacity=".5" fill="#000" fill-rule="evenodd" stroke="none" stroke-width="1"/></g><g id="egf2byz5lvd80"><path id="egf2byz5lvd81" d="M2136.114 1024l-13.442-106.8 11.5-83.7 3.2-35.9-26.1-66.498-6.9-34-40.4-33-69.7-21.8-31.9-27.6-16-23.5 5.3-34 9.6-28.7 10.601-8.5 12.3-42-4.8-20.8-4.3-41.5-21.2-44.1-31.4-8.5-13.3-8.5-19.2-8h-35.2l-44.5 27.6-26.6 50v72.4l7.4 21.3 13.8 24.4 11.2 24.5 3.7 35.1-10.6 3.7-28.7 23.4-53.8 21.8-73.9 19.2-11.2 58.5-23.5 78.198v26.8l-18.5 104.2 17.296 86.3" fill="#2C1E25" stroke="none" stroke-width="1"/></g><g id="egf2byz5lvd82"><path id="egf2byz5lvd83" d="M2522 0l-22.588 17.436-8.53 73.744-120.58 16.864-30.84 98.379-3.48.094 33.46-100.217 120.22-16.148 7.41-73.182L2519.225 0z" fill="#FFF1F0" stroke="none" stroke-width="1"/><path id="egf2byz5lvd84" d="M2532.99 0l-3.718 15.128 12.32 54.713-80.61 56.252-63.83 51.734-2.92-.186 65.45-54.164 79.35-54.539-12.11-54.277L2530.474 0z" fill="#FFF1F0" stroke="none" stroke-width="1"/><path id="egf2byz5lvd85" d="M2553.5 0l-36.298 61.84-72.81 27.943-139.59 124.215-14 14 154.67-136.035 73.24-27.072L2558.642 0z" fill="#FFF1F0" stroke="none" stroke-width="1"/><path id="egf2byz5lvd86" d="M2602.087 0l4.405 8.889-52.29 76.427-143.4 94.682-10.5 12.001 154.98-104.503 54.77-77.113L2604.992 0z" fill="#FFF1F0" stroke="none" stroke-width="1"/><g id="egf2byz5lvd87" transform="rotate(-3 2348.632 166.412)" clip-path="url(#egf2byz5lvd4)"><path id="egf2byz5lvd88" d="M2361.611 132.818s5.74-53.837 24.87-42.296c19.13 11.541-20.29 22.504-27.819-13.272" fill="none" stroke="#FFCBC8" stroke-width="3" stroke-miterlimit="10"/><path id="egf2byz5lvd89" d="M2339.702 132.932s-8.52-33.409-16.06-25.908c-7.54 7.501 20.87 22.504 17.97-1.154a62.942 62.942 0 00-19.13-37.507" fill="none" stroke="#FFCBC8" stroke-width="3" stroke-miterlimit="10"/><path id="egf2byz5lvd90" d="M2348.512 134.549s-2.03-36.468 9.22-29.774c11.25 6.694-13.1 21.176-24.29-9.752-11.19-30.928 1.27-37.218 1.27-37.218" fill="none" stroke="#FFCBC8" stroke-width="3" stroke-miterlimit="10"/><path id="egf2byz5lvd91" d="M2341.352 135s5.37-53.057-16.04-45.721c-21.41 7.336 15.57 25.761 30.49-7.279" fill="none" stroke="#FFCBC8" stroke-width="3" stroke-miterlimit="10"/><path id="egf2byz5lvd92" d="M2362.802 139s15.42-31.331 21.39-22.346c5.97 8.985-25.47 18.028-17.73-4.784 7.8-22.813 27.34-32.87 27.34-32.87" fill="none" stroke="#FFCBC8" stroke-width="3" stroke-miterlimit="10"/><path id="egf2byz5lvd93" d="M2353.962 139.167s9.39-35.314-2.96-31.044c-12.35 4.27 8.52 23.427 25.74-4.674s6.32-36.699 6.32-36.699" fill="none" stroke="#FFCBC8" stroke-width="3" stroke-miterlimit="10"/><path id="egf2byz5lvd94" d="M2351.182 140.786c9.6 0 17.39-2.196 17.39-4.905s-7.79-4.904-17.39-4.904c-9.61 0-17.4 2.195-17.4 4.904s7.79 4.905 17.4 4.905z" fill="#F87980" stroke="none" stroke-width="1"/><path id="egf2byz5lvd95" d="M2420.162 199.639c0-36.641-31.77-66.358-71.01-66.358-39.25 0-71.02 29.717-71.02 66.358-.009 2.857.185 5.71.58 8.54l8.12 54.24a14.585 14.585 0 0017.27 12.06l38.96-7.963a73.65 73.65 0 0133.27.924l27.89 7.328a7.356 7.356 0 009.22-6.348l6.08-60.241a59.23 59.23 0 00.64-8.54z" fill="#F87980" stroke="none" stroke-width="1"/><path id="egf2byz5lvd96" d="M2289.102 188.571c1.19-9.004-.54-16.66-3.87-17.099-3.33-.439-7.01 6.505-8.2 15.509-1.2 9.005.53 16.66 3.86 17.099 3.34.439 7.01-6.504 8.21-15.509z" fill="#A75155" stroke="none" stroke-width="1"/><path id="egf2byz5lvd97" d="M2416.651 202.896c3.32-.523 4.851-8.218 3.431-17.189-1.43-8.971-5.27-15.82-8.59-15.297-3.32.523-4.86 8.218-3.44 17.188 1.43 8.971 5.28 15.82 8.6 15.298z" fill="#A75155" stroke="none" stroke-width="1"/><path id="egf2byz5lvd98" d="M2351.182 188.592c.34-9.076-2.88-16.564-7.2-16.726-4.32-.162-8.1 7.066-8.44 16.142-.34 9.076 2.88 16.564 7.2 16.726 4.32.162 8.1-7.066 8.44-16.142z" fill="#A75155" stroke="none" stroke-width="1"/><path id="egf2byz5lvd99" d="M2390.562 188.794c.35-9.076-3.27-16.579-8.07-16.759-4.79-.179-8.96 7.033-9.3 16.109-.35 9.077 3.27 16.579 8.07 16.759 4.79.179 8.96-7.033 9.3-16.109z" fill="#A75155" stroke="none" stroke-width="1"/><path id="egf2byz5lvd100" d="M2319.262 189.157c.35-9.076-3.27-16.579-8.07-16.758-4.8-.179-8.96 7.033-9.31 16.109-.34 9.076 3.28 16.579 8.07 16.758 4.8.179 8.97-7.033 9.31-16.109z" fill="#A75155" stroke="none" stroke-width="1"/><path id="egf2byz5lvd101" d="M2294.582 218.258l-8.65.957 1.86 16.631 8.64-.957z" fill="#FFF1F0" stroke="none" stroke-width="1"/><path id="egf2byz5lvd102" d="M2312.571 218.566h-7.539V235.3h7.54z" fill="#FFF1F0" stroke="none" stroke-width="1"/><path id="egf2byz5lvd103" d="M2329.732 218.684h-7.54v16.733h7.54z" fill="#FFF1F0" stroke="none" stroke-width="1"/><path id="egf2byz5lvd104" d="M2347.702 218.684h-9.28v16.733h9.28z" fill="#FFF1F0" stroke="none" stroke-width="1"/><path id="egf2byz5lvd105" d="M2362.191 218.684h-9.279v16.733h9.28z" fill="#FFF1F0" stroke="none" stroke-width="1"/><path id="egf2byz5lvd106" d="M2379.002 218.684h-9.27v16.733h9.27z" fill="#FFF1F0" stroke="none" stroke-width="1"/><path id="egf2byz5lvd107" d="M2397.401 219.321l-9.21-1.137-2.069 16.606 9.2 1.138z" fill="#FFF1F0" stroke="none" stroke-width="1"/><path id="egf2byz5lvd108" d="M2415.982 219.796l-9.09-1.87-3.4 16.387 9.08 1.871z" fill="#FFF1F0" stroke="none" stroke-width="1"/><path id="egf2byz5lvd109" d="M2350.022 161.559c8 0 14.49-5.038 14.49-11.252s-6.49-11.252-14.49-11.252c-8.01 0-14.5 5.037-14.5 11.252 0 6.215 6.49 11.252 14.5 11.252z" fill="#A75155" stroke="none" stroke-width="1"/><path id="egf2byz5lvd110" d="M2317.111 159.105c3.41-5.202 2.49-11.821-2.069-14.784-4.55-2.964-11.02-1.149-14.43 4.053-3.42 5.202-2.49 11.821 2.06 14.785 4.56 2.963 11.02 1.148 14.44-4.054z" fill="#A75155" stroke="none" stroke-width="1"/><path id="egf2byz5lvd111" d="M2313.642 156.823c2.91-4.429 2.12-10.068-1.77-12.595-3.88-2.528-9.39-.987-12.301 3.441-2.91 4.428-2.11 10.068 1.77 12.595 3.89 2.528 9.401.987 12.3-3.441z" fill="#FFF1F0" stroke="none" stroke-width="1"/><path id="egf2byz5lvd112" d="M2396.782 162.023c4.56-2.963 5.48-9.583 2.07-14.785-3.42-5.202-9.88-7.016-14.44-4.053-4.55 2.963-5.48 9.583-2.06 14.785 3.41 5.202 9.87 7.017 14.43 4.053z" fill="#A75155" stroke="none" stroke-width="1"/><path id="egf2byz5lvd113" d="M2349.441 159.825c6.37 0 11.53-4.004 11.53-8.944 0-4.94-5.16-8.943-11.53-8.943-6.37 0-11.54 4.004-11.54 8.943s5.17 8.944 11.54 8.944z" fill="#FFF1F0" stroke="none" stroke-width="1"/><path id="egf2byz5lvd114" d="M2398.242 160.284c3.89-2.528 4.68-8.167 1.78-12.595-2.91-4.428-8.42-5.969-12.3-3.441-3.89 2.527-4.68 8.166-1.78 12.594 2.91 4.429 8.42 5.97 12.3 3.442z" fill="#FFF1F0" stroke="none" stroke-width="1"/></g></g><script><![CDATA[!function(t,n){"object"==typeof exports&&"undefined"!=typeof module?module.exports=n():"function"==typeof define&&define.amd?define(n):(t=t||self).__SVGATOR_PLAYER__=n()}(this,(function(){"use strict";function t(n){return(t="function"==typeof Symbol&&"symbol"==typeof Symbol.iterator?function(t){return typeof t}:function(t){return t&&"function"==typeof Symbol&&t.constructor===Symbol&&t!==Symbol.prototype?"symbol":typeof t})(n)}function n(t,n){if(!(t instanceof n))throw new TypeError("Cannot call a class as a function")}function r(t,n){for(var r=0;r<n.length;r++){var e=n[r];e.enumerable=e.enumerable||!1,e.configurable=!0,"value"in e&&(e.writable=!0),Object.defineProperty(t,e.key,e)}}function e(t,n,e){return n&&r(t.prototype,n),e&&r(t,e),t}var i=Math.abs;function u(t){return t}function o(t,n,r){var e=1-r;return 3*r*e*(t*e+n*r)+r*r*r}function a(){var t=arguments.length>0&&void 0!==arguments[0]?arguments[0]:0,n=arguments.length>1&&void 0!==arguments[1]?arguments[1]:0,r=arguments.length>2&&void 0!==arguments[2]?arguments[2]:1,e=arguments.length>3&&void 0!==arguments[3]?arguments[3]:1;return t<0||t>1||r<0||r>1?null:i(t-n)<=1e-5&&i(r-e)<=1e-5?u:function(u){if(u<=0)return t>0?u*n/t:0===n&&r>0?u*e/r:0;if(u>=1)return r<1?1+(u-1)*(e-1)/(r-1):1===r&&t<1?1+(u-1)*(n-1)/(t-1):1;for(var a,l=0,f=1;l<f;){var s=o(t,r,a=(l+f)/2);if(i(u-s)<1e-5)break;s<u?l=a:f=a}return o(n,e,a)}}function l(){return 1}function f(t){return 1===t?1:0}function s(){var t=arguments.length>0&&void 0!==arguments[0]?arguments[0]:1,n=arguments.length>1&&void 0!==arguments[1]?arguments[1]:0;if(1===t){if(0===n)return f;if(1===n)return l}var r=1/t;return function(t){return t>=1?1:(t+=n*r)-t%r}}function c(t){var n=arguments.length>1&&void 0!==arguments[1]?arguments[1]:2;if(Number.isInteger(t))return t;var r=Math.pow(10,n);return Math.round(t*r)/r}var v=Math.PI/180;function h(t,n,r){return t>=.5?r:n}function y(t,n,r){return 0===t||n===r?n:t*(r-n)+n}function d(t,n,r){var e=y(t,n,r);return e<=0?0:e}function g(t,n,r){return 0===t?n:1===t?r:{x:y(t,n.x,r.x),y:y(t,n.y,r.y)}}function m(t,n,r){return 0===t?n:1===t?r:{x:d(t,n.x,r.x),y:d(t,n.y,r.y)}}function p(t,n,r){var e=function(t,n,r){return Math.round(y(t,n,r))}(t,n,r);return e<=0?0:e>=255?255:e}function b(t,n,r){return 0===t?n:1===t?r:{r:p(t,n.r,r.r),g:p(t,n.g,r.g),b:p(t,n.b,r.b),a:y(t,null==n.a?1:n.a,null==r.a?1:r.a)}}function w(t,n,r){if(0===t)return n;if(1===t)return r;var e=n.length;if(e!==r.length)return h(t,n,r);for(var i=[],u=0;u<e;u++)i.push(b(t,n[u],r[u]));return i}function A(t,n,r){var e=n.length;if(e!==r.length)return h(t,n,r);for(var i=new Array(e),u=0;u<e;u++)i[u]=y(t,n[u],r[u]);return i}function x(t,n){for(var r=[],e=0;e<t;e++)r.push(n);return r}function k(t,n){if(--n<=0)return t;var r=(t=Object.assign([],t)).length;do{for(var e=0;e<r;e++)t.push(t[e])}while(--n>0);return t}var S=/\.0+$/g;function _(t){return Number.isInteger(t)?t+"":t.toFixed(6).replace(S,"")}function M(t){var n=arguments.length>1&&void 0!==arguments[1]?arguments[1]:" ";return t&&t.length?t.map(_).join(n):""}function I(t){return _(t.x)+","+_(t.y)}function E(t){return t?null==t.a||t.a>=1?"rgb("+t.r+","+t.g+","+t.b+")":"rgba("+t.r+","+t.g+","+t.b+","+t.a+")":"transparent"}var F={f:null,i:m,u:function(t,n){return function(r){var e=n(r);t.setAttribute("rx",_(e.x)),t.setAttribute("ry",_(e.y))}}},B={f:null,i:function(t,n,r){return 0===t?n:1===t?r:{width:d(t,n.width,r.width),height:d(t,n.height,r.height)}},u:function(t,n){return function(r){var e=n(r);t.setAttribute("width",_(e.width)),t.setAttribute("height",_(e.height))}}},j=Math.sin,q=Math.cos,P=Math.acos,O=Math.asin,z=Math.tan,L=Math.atan2,C=Math.PI/180,R=180/Math.PI,T=Math.sqrt,V=function(){function t(){var r=arguments.length>0&&void 0!==arguments[0]?arguments[0]:1,e=arguments.length>1&&void 0!==arguments[1]?arguments[1]:0,i=arguments.length>2&&void 0!==arguments[2]?arguments[2]:0,u=arguments.length>3&&void 0!==arguments[3]?arguments[3]:1,o=arguments.length>4&&void 0!==arguments[4]?arguments[4]:0,a=arguments.length>5&&void 0!==arguments[5]?arguments[5]:0;n(this,t),this.m=[r,e,i,u,o,a],this.i=null,this.w=null,this.s=null}return e(t,[{key:"point",value:function(t,n){var r=this.m;return{x:r[0]*t+r[2]*n+r[4],y:r[1]*t+r[3]*n+r[5]}}},{key:"translateSelf",value:function(){var t=arguments.length>0&&void 0!==arguments[0]?arguments[0]:0,n=arguments.length>1&&void 0!==arguments[1]?arguments[1]:0;if(!t&&!n)return this;var r=this.m;return r[4]+=r[0]*t+r[2]*n,r[5]+=r[1]*t+r[3]*n,this.w=this.s=this.i=null,this}},{key:"rotateSelf",value:function(){var t=arguments.length>0&&void 0!==arguments[0]?arguments[0]:0;if(t%=360){var n=j(t*=C),r=q(t),e=this.m,i=e[0],u=e[1];e[0]=i*r+e[2]*n,e[1]=u*r+e[3]*n,e[2]=e[2]*r-i*n,e[3]=e[3]*r-u*n,this.w=this.s=this.i=null}return this}},{key:"scaleSelf",value:function(){var t=arguments.length>0&&void 0!==arguments[0]?arguments[0]:1,n=arguments.length>1&&void 0!==arguments[1]?arguments[1]:1;if(1!==t||1!==n){var r=this.m;r[0]*=t,r[1]*=t,r[2]*=n,r[3]*=n,this.w=this.s=this.i=null}return this}},{key:"skewSelf",value:function(t,n){if(n%=360,(t%=360)||n){var r=this.m,e=r[0],i=r[1],u=r[2],o=r[3];t&&(t=z(t*C),r[2]+=e*t,r[3]+=i*t),n&&(n=z(n*C),r[0]+=u*n,r[1]+=o*n),this.w=this.s=this.i=null}return this}},{key:"resetSelf",value:function(){var t=arguments.length>0&&void 0!==arguments[0]?arguments[0]:1,n=arguments.length>1&&void 0!==arguments[1]?arguments[1]:0,r=arguments.length>2&&void 0!==arguments[2]?arguments[2]:0,e=arguments.length>3&&void 0!==arguments[3]?arguments[3]:1,i=arguments.length>4&&void 0!==arguments[4]?arguments[4]:0,u=arguments.length>5&&void 0!==arguments[5]?arguments[5]:0,o=this.m;return o[0]=t,o[1]=n,o[2]=r,o[3]=e,o[4]=i,o[5]=u,this.w=this.s=this.i=null,this}},{key:"recomposeSelf",value:function(){var t=arguments.length>0&&void 0!==arguments[0]?arguments[0]:null,n=arguments.length>1&&void 0!==arguments[1]?arguments[1]:null,r=arguments.length>2&&void 0!==arguments[2]?arguments[2]:null,e=arguments.length>3&&void 0!==arguments[3]?arguments[3]:null,i=arguments.length>4&&void 0!==arguments[4]?arguments[4]:null;return this.isIdentity||this.resetSelf(),t&&(t.x||t.y)&&this.translateSelf(t.x,t.y),n&&this.rotateSelf(n),r&&(r.x&&this.skewSelf(r.x,0),r.y&&this.skewSelf(0,r.y)),!e||1===e.x&&1===e.y||this.scaleSelf(e.x,e.y),i&&(i.x||i.y)&&this.translateSelf(i.x,i.y),this}},{key:"decompose",value:function(){var t=arguments.length>0&&void 0!==arguments[0]?arguments[0]:0,n=arguments.length>1&&void 0!==arguments[1]?arguments[1]:0,r=this.m,e=r[0]*r[0]+r[1]*r[1],i=[[r[0],r[1]],[r[2],r[3]]],u=T(e);if(0===u)return{origin:{x:r[4],y:r[5]},translate:{x:t,y:n},scale:{x:0,y:0},skew:{x:0,y:0},rotate:0};i[0][0]/=u,i[0][1]/=u;var o=r[0]*r[3]-r[1]*r[2]<0;o&&(u=-u);var a=i[0][0]*i[1][0]+i[0][1]*i[1][1];i[1][0]-=i[0][0]*a,i[1][1]-=i[0][1]*a;var l=T(i[1][0]*i[1][0]+i[1][1]*i[1][1]);if(0===l)return{origin:{x:r[4],y:r[5]},translate:{x:t,y:n},scale:{x:u,y:0},skew:{x:0,y:0},rotate:0};i[1][0]/=l,i[1][1]/=l,a/=l;var f=0;return i[1][1]<0?(f=P(i[1][1])*R,i[0][1]<0&&(f=360-f)):f=O(i[0][1])*R,o&&(f=-f),a=L(a,T(i[0][0]*i[0][0]+i[0][1]*i[0][1]))*R,{origin:{x:r[4],y:r[5]},translate:{x:t,y:n},scale:{x:u,y:l},skew:{x:a,y:0},rotate:f}}},{key:"toString",value:function(){return null===this.s&&(this.s="matrix("+this.m.map(N).join(" ")+")"),this.s}},{key:"determinant",get:function(){var t=this.m;return t[0]*t[3]-t[1]*t[2]}},{key:"isIdentity",get:function(){if(null===this.i){var t=this.m;this.i=1===t[0]&&0===t[1]&&0===t[2]&&1===t[3]&&0===t[4]&&0===t[5]}return this.i}}]),t}(),D=/\.0+$/;function N(t){return Number.isInteger(t)?t:t.toFixed(14).replace(D,"")}Object.freeze({M:2,L:2,Z:0,H:1,V:1,C:6,Q:4,T:2,S:4,A:7});function G(t,n,r){return t+(n-t)*r}function $(t,n,r){var e=arguments.length>3&&void 0!==arguments[3]&&arguments[3],i={x:G(t.x,n.x,r),y:G(t.y,n.y,r)};return e&&(i.a=H(t,n)),i}function H(t,n){return Math.atan2(n.y-t.y,n.x-t.x)}function Q(t,n,r,e){var i=1-e;return i*i*t+2*i*e*n+e*e*r}function U(t,n,r,e){return 2*(1-e)*(n-t)+2*e*(r-n)}function Y(t,n,r,e){var i=arguments.length>4&&void 0!==arguments[4]&&arguments[4],u={x:Q(t.x,n.x,r.x,e),y:Q(t.y,n.y,r.y,e)};return i&&(u.a=Z(t,n,r,e)),u}function Z(t,n,r,e){return Math.atan2(U(t.y,n.y,r.y,e),U(t.x,n.x,r.x,e))}function J(t,n,r,e,i){var u=i*i;return i*u*(e-t+3*(n-r))+3*u*(t+r-2*n)+3*i*(n-t)+t}function K(t,n,r,e,i){var u=1-i;return 3*(u*u*(n-t)+2*u*i*(r-n)+i*i*(e-r))}function W(t,n,r,e,i){var u=arguments.length>5&&void 0!==arguments[5]&&arguments[5],o={x:J(t.x,n.x,r.x,e.x,i),y:J(t.y,n.y,r.y,e.y,i)};return u&&(o.a=X(t,n,r,e,i)),o}function X(t,n,r,e,i){return Math.atan2(K(t.y,n.y,r.y,e.y,i),K(t.x,n.x,r.x,e.x,i))}function tt(t,n,r){var e=arguments.length>3&&void 0!==arguments[3]&&arguments[3];if(rt(n)){if(et(r))return Y(n,r.start,r,t,e)}else if(rt(r)){if(n.end)return Y(n,n.end,r,t,e)}else{if(n.end)return r.start?W(n,n.end,r.start,r,t,e):Y(n,n.end,r,t,e);if(r.start)return Y(n,r.start,r,t,e)}return $(n,r,t,e)}function nt(t,n,r){var e=tt(t,n,r,!0);return e.a=function(t){var n=arguments.length>1&&void 0!==arguments[1]&&arguments[1];return n?t+Math.PI:t}(e.a)/v,e}function rt(t){return!t.type||"corner"===t.type}function et(t){return null!=t.start&&!rt(t)}var it=new V;var ut={f:function(t){return t?t.join(" "):""},i:function(n,r,e){if(0===n)return r;if(1===n)return e;var i=r.length;if(i!==e.length)return h(n,r,e);for(var u,o=new Array(i),a=0;a<i;a++){if((u=t(r[a]))!==t(e[a]))return h(n,r,e);if("number"===u)o[a]=y(n,r[a],e[a]);else{if(r[a]!==e[a])return h(n,r,e);o[a]=r[a]}}return o}},ot={f:null,i:A,u:function(t,n){return function(r){var e=n(r);t.setAttribute("x1",_(e[0])),t.setAttribute("y1",_(e[1])),t.setAttribute("x2",_(e[2])),t.setAttribute("y2",_(e[3]))}}},at={f:_,i:y},lt={f:_,i:function(t,n,r){var e=y(t,n,r);return e<=0?0:e>=1?1:e}},ft={f:M,i:function(t,n,r){var e,i,u,o=n.length,a=r.length;if(o!==a)if(0===o)n=x(o=a,0);else if(0===a)a=o,r=x(o,0);else{var l=(u=(e=o)*(i=a)/function(t,n){for(var r;n;)r=n,n=t%n,t=r;return t||1}(e,i))<0?-u:u;n=k(n,Math.floor(l/o)),r=k(r,Math.floor(l/a)),o=a=l}for(var f=[],s=0;s<o;s++)f.push(c(d(t,n[s],r[s]),6));return f}};function st(t,n,r,e,i,u,o,a){return n=function(t,n,r){for(var e,i,u,o=t.length-1,a={},l=0;l<=o;l++)(e=t[l]).e&&(e.e=n(e.e)),e.v&&"g"===(i=e.v).t&&i.r&&(u=r.getElementById(i.r))&&(a[i.r]=u.querySelectorAll("stop"));return a}(t,e,a),function(e){var i,u=r(e,t,ct);return u?"c"===u.t?E(u.v):"g"===u.t?(n[u.r]&&function(t,n){for(var r=0,e=t.length;r<e;r++)t[r].setAttribute("stop-color",E(n[r]))}(n[u.r],u.v),(i=u.r)?"url(#"+i+")":"none"):"none":"none"}}function ct(t,n,r){if(0===t)return n;if(1===t)return r;if(n&&r){var e=n.t;if(e===r.t)switch(n.t){case"c":return{t:e,v:b(t,n.v,r.v)};case"g":if(n.r===r.r)return{t:e,v:w(t,n.v,r.v),r:n.r}}}return h(t,n,r)}var vt={blur:m,brightness:d,contrast:d,"drop-shadow":function(t,n,r){return 0===t?n:1===t?r:{blur:m(t,n.blur,r.blur),offset:g(t,n.offset,r.offset),color:b(t,n.color,r.color)}},grayscale:d,"hue-rotate":y,invert:d,opacity:d,saturate:d,sepia:d};function ht(t,n,r){if(0===t)return n;if(1===t)return r;var e=n.length;if(e!==r.length)return h(t,n,r);for(var i,u=[],o=0;o<e;o++){if(n[o].type!==r[o].type)return n;if(!(i=vt[n[o].type]))return h(t,n,r);u.push({type:n.type,value:i(t,n[o].value,r[o].value)})}return u}var yt={blur:function(t){return t?function(n){t.setAttribute("stdDeviation",I(n))}:null},brightness:function(t,n,r){return(t=gt(r,n))?function(n){n=_(n),t.map((function(t){return t.setAttribute("slope",n)}))}:null},contrast:function(t,n,r){return(t=gt(r,n))?function(n){var r=_((1-n)/2);n=_(n),t.map((function(t){t.setAttribute("slope",n),t.setAttribute("intercept",r)}))}:null},"drop-shadow":function(t,n,r){var e=r.getElementById(n+"-blur");if(!e)return null;var i=r.getElementById(n+"-offset");if(!i)return null;var u=r.getElementById(n+"-flood");return u?function(t){e.setAttribute("stdDeviation",I(t.blur)),i.setAttribute("dx",_(t.offset.x)),i.setAttribute("dy",_(t.offset.y)),u.setAttribute("flood-color",E(t.color))}:null},grayscale:function(t){return t?function(n){t.setAttribute("values",M(function(t){return[.2126+.7874*(t=1-t),.7152-.7152*t,.0722-.0722*t,0,0,.2126-.2126*t,.7152+.2848*t,.0722-.0722*t,0,0,.2126-.2126*t,.7152-.7152*t,.0722+.9278*t,0,0,0,0,0,1,0]}(n)))}:null},"hue-rotate":function(t){return t?function(n){return t.setAttribute("values",_(n))}:null},invert:function(t,n,r){return(t=gt(r,n))?function(n){n=_(n)+" "+_(1-n),t.map((function(t){return t.setAttribute("tableValues",n)}))}:null},opacity:function(t,n,r){return(t=r.getElementById(n+"-A"))?function(n){return t.setAttribute("tableValues","0 "+_(n))}:null},saturate:function(t){return t?function(n){return t.setAttribute("values",_(n))}:null},sepia:function(t){return t?function(n){return t.setAttribute("values",M(function(t){return[.393+.607*(t=1-t),.769-.769*t,.189-.189*t,0,0,.349-.349*t,.686+.314*t,.168-.168*t,0,0,.272-.272*t,.534-.534*t,.131+.869*t,0,0,0,0,0,1,0]}(n)))}:null}};var dt=["R","G","B"];function gt(t,n){var r=dt.map((function(r){return t.getElementById(n+"-"+r)||null}));return-1!==r.indexOf(null)?null:r}var mt={fill:st,"fill-opacity":lt,stroke:st,"stroke-opacity":lt,"stroke-width":at,"stroke-dashoffset":{f:_,i:y},"stroke-dasharray":ft,opacity:lt,transform:function(n,r,e,i){if(!(n=function(n,r){if(!n||"object"!==t(n))return null;var e=!1;for(var i in n)n.hasOwnProperty(i)&&(n[i]&&n[i].length?(n[i].forEach((function(t){t.e&&(t.e=r(t.e))})),e=!0):delete n[i]);return e?n:null}(n,i)))return null;var u=function(t,i,u){var o=arguments.length>3&&void 0!==arguments[3]?arguments[3]:null;return n[t]?e(i,n[t],u):r&&r[t]?r[t]:o};return r&&r.a&&n.o?function(t){var r=e(t,n.o,nt);return it.recomposeSelf(r,u("r",t,y,0)+r.a,u("k",t,g),u("s",t,g),u("t",t,g)).toString()}:function(t){return it.recomposeSelf(u("o",t,tt,null),u("r",t,y,0),u("k",t,g),u("s",t,g),u("t",t,g)).toString()}},"#filter":function(t,n,r,e,i,u,o,a){if(!n.items||!t||!t.length)return null;var l=function(t,n){var r=(t=t.map((function(t){return t&&yt[t[0]]?(n.getElementById(t[1]),yt[t[0]](n.getElementById(t[1]),t[1],n)):null}))).length;return function(n){for(var e=0;e<r;e++)t[e]&&t[e](n[e].value)}}(n.items,a);return l?(t=function(t,n){return t.map((function(t){return t.e=n(t.e),t}))}(t,e),function(n){l(r(n,t,ht))}):null},"#line":ot,points:{f:M,i:A},d:ut,r:at,"#size":B,"#radius":F,_:function(t,n){if(Array.isArray(t))for(var r=0;r<t.length;r++)this[t[r]]=n;else this[t]=n}},pt=function(){function t(r){n(this,t),this.list=r,this.length=r.length}return e(t,[{key:"setAttribute",value:function(t,n){for(var r=this.list,e=0;e<this.length;e++)r[e].setAttribute(t,n)}},{key:"removeAttribute",value:function(t){for(var n=this.list,r=0;r<this.length;r++)n[r].removeAttribute(t)}},{key:"style",value:function(t,n){for(var r=this.list,e=0;e<this.length;e++)r[e].style[t]=n}}]),t}(),bt=/-./g,wt=function(t,n){return n.toUpperCase()};function At(t){return"function"==typeof t?t:h}function xt(t){return t?"function"==typeof t?t:Array.isArray(t)?function(t){var n=arguments.length>1&&void 0!==arguments[1]?arguments[1]:u;if(!Array.isArray(t))return n;switch(t.length){case 1:return s(t[0])||n;case 2:return s(t[0],t[1])||n;case 4:return a(t[0],t[1],t[2],t[3])||n}return n}(t,null):function(t,n){var r=arguments.length>2&&void 0!==arguments[2]?arguments[2]:u;switch(t){case"linear":return u;case"steps":return s(n.steps||1,n.jump||0)||r;case"bezier":case"cubic-bezier":return a(n.x1||0,n.y1||0,n.x2||0,n.y2||0)||r}return r}(t.type,t.value,null):null}function kt(t,n,r){var e=arguments.length>3&&void 0!==arguments[3]&&arguments[3],i=n.length-1;if(t<=n[0].t)return e?[0,0,n[0].v]:n[0].v;if(t>=n[i].t)return e?[i,1,n[i].v]:n[i].v;var u,o=n[0],a=null;for(u=1;u<=i;u++){if(!(t>n[u].t)){a=n[u];break}o=n[u]}return null==a?e?[i,1,n[i].v]:n[i].v:o.t===a.t?e?[u,1,a.v]:a.v:(t=(t-o.t)/(a.t-o.t),o.e&&(t=o.e(t)),e?[u,t,r(t,o.v,a.v)]:r(t,o.v,a.v))}function St(t,n){var r=arguments.length>2&&void 0!==arguments[2]?arguments[2]:null;return t&&t.length?"function"!=typeof n?null:("function"!=typeof r&&(r=null),function(e){var i=kt(e,t,n);return null!=i&&r&&(i=r(i)),i}):null}function _t(t,n){return t.t-n.t}function Mt(n,r,e,i,u){var o,a="@"===e[0],l="#"===e[0],f=mt[e],s=h;switch(a?(o=e.substr(1),e=o.replace(bt,wt)):l&&(e=e.substr(1)),t(f)){case"function":if(s=f(i,u,kt,xt,e,a,r,n),l)return s;break;case"string":s=St(i,At(f));break;case"object":if((s=St(i,At(f.i),f.f))&&"function"==typeof f.u)return f.u(r,s,e,a,n)}return s?function(t,n,r){var e=arguments.length>3&&void 0!==arguments[3]&&arguments[3];if(e)return t instanceof pt?function(e){return t.style(n,r(e))}:function(e){return t.style[n]=r(e)};if(Array.isArray(n)){var i=n.length;return function(e){var u=r(e);if(null==u)for(var o=0;o<i;o++)t[o].removeAttribute(n);else for(var a=0;a<i;a++)t[a].setAttribute(n,u)}}return function(e){var i=r(e);null==i?t.removeAttribute(n):t.setAttribute(n,i)}}(r,e,s,a):null}function It(n,r,e,i){if(!i||"object"!==t(i))return null;var u=null,o=null;return Array.isArray(i)?o=function(t){if(!t||!t.length)return null;for(var n=0;n<t.length;n++)t[n].e&&(t[n].e=xt(t[n].e));return t.sort(_t)}(i):(o=i.keys,u=i.data||null),o?Mt(n,r,e,o,u):null}function Et(t,n,r){if(!r)return null;var e=[];for(var i in r)if(r.hasOwnProperty(i)){var u=It(t,n,i,r[i]);u&&e.push(u)}return e.length?e:null}function Ft(t,n){if(!n.duration||n.duration<0)return null;var r=function(t,n){if(!n)return null;var r=[];if(Array.isArray(n))for(var e=n.length,i=0;i<e;i++){var u=n[i];if(2===u.length){var o=null;if("string"==typeof u[0])o=t.getElementById(u[0]);else if(Array.isArray(u[0])){o=[];for(var a=0;a<u[0].length;a++)if("string"==typeof u[0][a]){var l=t.getElementById(u[0][a]);l&&o.push(l)}o=o.length?1===o.length?o[0]:new pt(o):null}if(o){var f=Et(t,o,u[1]);f&&(r=r.concat(f))}}}else for(var s in n)if(n.hasOwnProperty(s)){var c=t.getElementById(s);if(c){var v=Et(t,c,n[s]);v&&(r=r.concat(v))}}return r.length?r:null}(t,n.elements);return r?function(t,n){var r=arguments.length>2&&void 0!==arguments[2]?arguments[2]:1/0,e=arguments.length>3&&void 0!==arguments[3]?arguments[3]:1,i=arguments.length>4&&void 0!==arguments[4]&&arguments[4],u=arguments.length>5&&void 0!==arguments[5]?arguments[5]:1,o=t.length,a=e>0?n:0;i&&r%2==0&&(a=n-a);var l=null;return function(f,s){var c=f%n,v=1+(f-c)/n;s*=e,i&&v%2==0&&(s=-s);var h=!1;if(v>r)c=a,h=!0,-1===u&&(c=e>0?0:n);else if(s<0&&(c=n-c),c===l)return!1;l=c;for(var y=0;y<o;y++)t[y](c);return h}}(r,n.duration,n.iterations||1/0,n.direction||1,!!n.alternate,n.fill||1):null}var Bt=function(){function t(r){var e=arguments.length>1&&void 0!==arguments[1]?arguments[1]:{};n(this,t),this._id=0,this._running=!1,this._animations=r,this.direction=e.direction||1,this.speed=e.speed||1,this.fps=e.fps||100,this.offset=e.offset||0}return e(t,[{key:"_start",value:function(){var t=this,n=arguments.length>0&&void 0!==arguments[0]?arguments[0]:0,r=-1/0,e=null,i={},u=function u(o){t._running=!0,null==e&&(e=o);var a=Math.round((o-e+n)*t.speed),l=t.fps?1e3/t.fps:0;if(a>r+l){t.offset=a,r=a;for(var f=t._animations,s=f.length,c=0,v=0;v<s;v++)i[v]?c++:(i[v]=f[v](a,t.direction),i[v]&&c++);if(c===s)return void t._stop()}t._id=window.requestAnimationFrame(u)};this._id=window.requestAnimationFrame(u)}},{key:"_stop",value:function(){this._id&&window.cancelAnimationFrame(this._id),this._running=!1}},{key:"play",value:function(){this._running||this._start(this.offset)}},{key:"stop",value:function(){this._stop(),this.offset=0;var t=this.direction,n=this._animations;requestAnimationFrame((function(){for(var r=0;r<n.length;r++)n[r](0,t)}))}},{key:"restart",value:function(){this._stop(),this.offset=0,this._start()}},{key:"pause",value:function(){this._stop()}},{key:"reverse",value:function(){this.direction=-this.direction}}],[{key:"build",value:function(n){if(!(n=function(t){if(!t||!t.root||!Array.isArray(t.animations))return null;var n=window.document.getElementById(t.root);if(!n)return null;var r=t.animations.map((function(t){return Ft(n,t)})).filter((function(t){return!!t}));return r.length?{element:n,animations:r,options:t.options||void 0}:null}(n)))return null;var r=n.element,e=n.options||{},i=new t(n.animations,n.options);return function(t,n,r){var e=arguments.length>3&&void 0!==arguments[3]?arguments[3]:null;if("click"===r){var i=function r(){n.removeEventListener("click",r),t.play()};return void n.addEventListener("click",i)}if("hover"===r)return n.addEventListener("mouseenter",(function(){return t.play()})),void n.addEventListener("mouseleave","freeze"===e?function(){return t.pause()}:function(){return t.stop()});t.play()}(i,r,e.start,e.hover),i}}]),t}();return function(){for(var t=0,n=["ms","moz","webkit","o"],r=0;r<n.length&&!window.requestAnimationFrame;++r)window.requestAnimationFrame=window[n[r]+"RequestAnimationFrame"],window.cancelAnimationFrame=window[n[r]+"CancelAnimationFrame"]||window[n[r]+"CancelRequestAnimationFrame"];window.requestAnimationFrame||(window.requestAnimationFrame=function(n){var r=Date.now(),e=Math.max(0,16-(r-t)),i=window.setTimeout((function(){n(r+e)}),e);return t=r+e,i},window.cancelAnimationFrame=window.clearTimeout)}(),Bt}));
__SVGATOR_PLAYER__.build({"root":"egf2byz5lvd1","animations":[{"duration":10000,"direction":1,"iterations":"Infinite","fill":1,"alternate":false,"elements":{"egf2byz5lvd62":{"d":[{"t":0,"v":["M",729.6217,381.217,"L",1253.6617,636.725,"L",1178.4617,212.69100000000003,"L",714.5917000000001,297.088,"Z"]},{"t":3500,"v":["M",818.1917000000002,875.283,"L",1194.1319,302.70900000000023,"L",1178.4617,212.69100000000003,"L",714.5917000000001,297.088,"Z"]},{"t":7000,"v":["M",736.723445,419.999,"L",1281.7717,792.443,"L",1178.4617,212.69100000000003,"L",714.5917000000001,297.088,"Z"]},{"t":10000,"v":["M",729.6217,381.217,"L",1253.6617,636.725,"L",1178.4617,212.69100000000003,"L",714.5917000000001,297.088,"Z"]}]},"egf2byz5lvd77":{"transform":{"data":{"o":{"x":1056.5178590599996,"y":807.5122839450001,"type":"corner"},"t":{"x":-1026.18,"y":-787}},"keys":{"r":[{"t":0,"v":-20},{"t":500,"v":2},{"t":1000,"v":-20},{"t":1500,"v":2},{"t":2000,"v":-20},{"t":2500,"v":2},{"t":3000,"v":-20},{"t":3500,"v":2},{"t":4000,"v":-20},{"t":4500,"v":2},{"t":5000,"v":-20},{"t":5500,"v":2},{"t":6000,"v":-20},{"t":6500,"v":2},{"t":7000,"v":-20},{"t":7500,"v":2},{"t":8000,"v":-20},{"t":8500,"v":2},{"t":9000,"v":-20},{"t":9500,"v":2},{"t":10000,"v":-20}]}}},"egf2byz5lvd79":{"d":[{"t":0,"v":["M",5817.06,1024,"L",0,1024,"L",823.3019,0,"L",5776.8744,0,"Z","M",2547.7423,258.382,"L",2453.3323,698.031,"C",2408.8616,718.034,2266.1723,754.4459999999999,2051.1623,740.0609999999999,"C",1836.1522999999997,725.6759999999999,1790.6018,689.905,1794.7023,673.8169999999999,"L",2508.2423,194.96899999999988,"Z"]},{"t":2000,"v":["M",5817.06,1024,"L",0,1024,"L",823.3019,0,"L",5776.8744,0,"Z","M",2502.4232,185.707,"L",2453.3323,698.031,"C",2408.8616,718.034,2266.1723,754.4459999999999,2051.1623,740.0609999999999,"C",1836.1522999999997,725.6759999999999,1790.6018,689.905,1794.7023,673.8169999999999,"L",2493.7918,170.41,"Z"]},{"t":4000,"v":["M",5817.06,1024,"L",0,1024,"L",823.3019,0,"L",5776.8744,0,"Z","M",2567.3489,290.839,"L",2453.3323,698.031,"C",2408.8616,718.034,2266.1723,754.4459999999999,2051.1623,740.0609999999999,"C",1836.1522999999997,725.6759999999999,1790.6018,689.905,1794.7023,673.8169999999999,"L",2491.383811,166.701383,"Z"]},{"t":6000,"v":["M",5817.06,1024,"L",0,1024,"L",823.3019,0,"L",5776.8744,0,"Z","M",2519.2247,212.691,"L",2453.3323,698.031,"C",2408.8616,718.034,2266.1723,754.4459999999999,2051.1623,740.0609999999999,"C",1836.1522999999997,725.6759999999999,1790.6018,689.905,1794.7023,673.8169999999999,"L",2510.8432000000003,199.639,"Z"]},{"t":8000,"v":["M",5817.06,1024,"L",0,1024,"L",823.3019,0,"L",5776.8744,0,"Z","M",2567.3489,290.839,"L",2453.3323,698.031,"C",2408.8616,718.034,2266.1723,754.4459999999999,2051.1623,740.0609999999999,"C",1836.1522999999997,725.6759999999999,1790.6018,689.905,1794.7023,673.8169999999999,"L",2559.6327,277.4010000000001,"Z"]},{"t":10000,"v":["M",5817.06,1024,"L",0,1024,"L",823.3019,0,"L",5776.8744,0,"Z","M",2547.7423,258.382,"L",2453.3323,698.031,"C",2408.8616,718.034,2266.1723,754.4459999999999,2051.1623,740.0609999999999,"C",1836.1522999999997,725.6759999999999,1790.6018,689.905,1794.7023,673.8169999999999,"L",2508.2423,194.96899999999988,"Z"]}]},"egf2byz5lvd87":{"transform":{"data":{"o":{"x":2348.63183594,"y":166.411750795,"type":"corner"},"t":{"x":-2348.63183594,"y":-166.411750795}},"keys":{"r":[{"t":0,"v":-3},{"t":200,"v":2},{"t":400,"v":-3},{"t":600,"v":2},{"t":800,"v":-3},{"t":1000,"v":2},{"t":1200,"v":-3},{"t":1400,"v":2},{"t":1600,"v":-3},{"t":1800,"v":2},{"t":2000,"v":-3},{"t":2200,"v":2},{"t":2400,"v":-3},{"t":2600,"v":2},{"t":2800,"v":-3},{"t":3000,"v":2},{"t":3200,"v":-3},{"t":3400,"v":2},{"t":3600,"v":-3},{"t":3800,"v":2},{"t":4000,"v":-3},{"t":4200,"v":2},{"t":4400,"v":-3},{"t":4600,"v":2},{"t":4800,"v":-3},{"t":5000,"v":2},{"t":5200,"v":-3},{"t":5400,"v":2},{"t":5600,"v":-3},{"t":5800,"v":2},{"t":6000,"v":-3},{"t":6200,"v":2},{"t":6400,"v":-3},{"t":6600,"v":2},{"t":6800,"v":-3},{"t":7000,"v":2},{"t":7200,"v":-3},{"t":7400,"v":2},{"t":7600,"v":-3},{"t":7800,"v":2},{"t":8000,"v":-3},{"t":8200,"v":2},{"t":8400,"v":-3},{"t":8600,"v":2},{"t":8800,"v":-3},{"t":9000,"v":2},{"t":9200,"v":-3},{"t":9400,"v":2},{"t":9600,"v":2},{"t":9800,"v":-3},{"t":10000,"v":2}]}}}}}],"options":{"start":"load","hover":"freeze"}})]]></script></svg>