<svg id="e0k1nhdxyqhmi1" xmlns="http://www.w3.org/2000/svg" viewBox="0 0 5817.06 1024" shape-rendering="geometricPrecision" text-rendering="geometricPrecision"><defs><clipPath id="e0k1nhdxyqhmi2"><path id="e0k1nhdxyqhmi3" fill="none" stroke="none" stroke-width="1" d="M832.122 874.361l394.284-70.457-54.71-441.621-385.309 46.611 8.335 227.831 37.4 237.636z"/></clipPath><clipPath id="e0k1nhdxyqhmi4"><rect id="e0k1nhdxyqhmi5" width="144" height="218" rx="0" ry="0" transform="translate(2276.62 57)" fill="none" stroke="none" stroke-width="1"/></clipPath><clipPath id="e0k1nhdxyqhmi6"><rect id="e0k1nhdxyqhmi7" width="267" height="196" rx="0" ry="0" transform="translate(95.8 232)" fill="#FFF" stroke="none" stroke-width="1"/></clipPath><clipPath id="e0k1nhdxyqhmi8"><rect id="e0k1nhdxyqhmi9" width="401.436" height="165.326" rx="0" ry="0" transform="translate(9.517 145.492)" fill="none" stroke="none" stroke-width="1"/></clipPath><clipPath id="e0k1nhdxyqhmi10"><rect id="e0k1nhdxyqhmi11" width="352.853" height="527.785" rx="0" ry="0" transform="rotate(4.061 -197.964 738.913)" fill="#FFF" stroke="none" stroke-width="1"/></clipPath><clipPath id="e0k1nhdxyqhmi12"><rect id="e0k1nhdxyqhmi13" width="380.513" height="556.193" rx="0" ry="0" transform="rotate(4.061 9.076 556.225)" fill="#FFF" stroke="none" stroke-width="1"/></clipPath><clipPath id="e0k1nhdxyqhmi14"><rect id="e0k1nhdxyqhmi15" width="230" height="196" rx="0" ry="0" fill="#FFF" stroke="none" stroke-width="1"/></clipPath></defs><g id="e0k1nhdxyqhmi16"><path id="e0k1nhdxyqhmi17" d="M1773.774 1024l136.468-277.791h1926.26L3259.912 0H823.302L0 1024" fill="#F87980" stroke="none" stroke-width="1"/><path id="e0k1nhdxyqhmi18" d="M2830.571 473.602l-1107.89-21 30-312.5 1057.89 10z" fill="#5C404E" stroke="none" stroke-width="1"/><g id="e0k1nhdxyqhmi19" transform="translate(2039.047 341.612)"><path id="e0k1nhdxyqhmi20" d="M206.5 69.5c-1 7.4-2.2 17.9-2.8 29.3-3.6.4-6.3 1-7.6 1.9-3.7 2.6-9.5 7.4-1.4 11.4 3.5 1.8 6.3 2.3 8.6 2.3 0 6.5.3 13.1.9 19.2 2 19.3 2.7 41.6 3 59.6h-.5c.2 11.2.2 20.7.2 26.7v1.8c0 6.6 0 14.2 2.3 21.2-10.6 3.3-27.5 10.5-39 22-12.8 12.8-21.3 40.6-28.1 62.7-2.5 8-4.7 15.3-6.8 20.8-7.6 19.7-12.9 52.6-10.8 79.9.1 1.2.2 2.3.3 3.5 2.9 27.9-.1 66.1-6.9 97.1-1.6 7.4-3.4 14-5.1 20.2-3.6 13.4-6.7 24.8-6.3 37.3l-60.9 42.9-26.9-36-13.2 15.2v16.6c1.9 4.3 5.4 15.6 3.6 26.7 7.6 10.5 32.2 41.9 43.5 56.3L78 686.8V673l-11.1-14.8 47.7-39.5c8.1 15.2 18.6 17.3 21.4 17.9.2 0 .3.1.4.1 2.4.6 8.8-4.6 7.5-11.7-.2-.8-1.1-2.4-2.4-4.5-2.7-4.4-6.7-11.1-8-17.4l.7-.6c2.2 6.9 6.6 17.7 10.8 21.5 5.2 4.7 5.9-7.6 3.6-8.5 5.5 2.1 9.4 1.8 10.1-2 0-.1 0-.2.1-.4.3 14.6 1.5 27.9 3.7 38.1 8.4 40.3 11.1 97 8 113.8-2.5 13.4 1 19.7 3.1 21.1 8.1 7 22.9 19.6 33.9 28.7-4.3 2.8-9.2 10.2-8.8 25.8.5 20.2-3.7 40.8-5.8 48.6 6.3 3.4 18 9.3 27.7 13.6 2.3 14.2 6.6 36.9 11.2 48.9 1.7 4.2 2.5 10.5-2 11.1-4.5.6-2 9.7 0 11.9 2 2.2 3.4 5.3.9 8.6s-4.1 12.2-4.1 16.6c0 4.4-.9 8.5-12.9 21.2-4.7 4.9-11.4 9.8-18.1 14.6-10.6 7.6-21.3 15.3-24.4 23.6-.1.3-.3.7-.4 1-.1.3-.3.7-.4 1l-.2.4c-5 13.2-11 29 7.2 26.6 19.4-2.5 25.7-1.9 31 0 5.3 1.9 18.2 1.4 29.7-6.5 1.8-1.2 3.8-2.6 5.8-4.1 11-7.8 24.8-17.6 34.6-18.5 11.6-1.1 33.4-8.4 37.2-12.8 3.9-4.4.2-31.5-8.4-44.1-6.9-10-4.8-22.7-2.9-27.8 1.7-3.9 3-12-4.8-13.4 1.5-12.1 1.4-50.1-.8-66 4.7-3.1 9.1-7 12.8-11.6-5.2-10.6-11.5-36.5-13.7-50.7 3.4-.8 6.4-1.8 8.9-3.2 2.3-1.2 4.7-2.4 7.3-3.6l1.9 11.1c0 1 .7 3.4 3.1 4.7 2.4 1.3-1.1 5.1-3.1 6.8l3.1 18.6c1 3.7 2.5 13.5 0 22.8-3.1 11.6-6.2 26.2-3.1 29.3l.1.1c.8 4.8 3.1 11.2 8.2 16.1 1.2 1.1 2.4 2.2 3.5 3.2 7.6 6.7 14.6 12.9 19.7 35 5.9 25.6 12.6 44.5 17.7 53 5.2 8.5 5.1 37.4 0 48.1-5.1 10.7-14.9 32.9 5.8 45.9s41.2 8.2 48.8 4.1c7.6-4.1 20-13 19.9-30.4-.1-14.1-6-33.4-8.8-42.5-.7-2.2-1.1-3.7-1.3-4.5-1-4.2-2-11.9 0-16.3s1.5-13.6-3.1-18.2c-3-2.9-1.7-5 .1-8 1-1.7 2.2-3.8 3-6.5 1.1-3.9-.1-6.6-1.2-9.2-1-2.3-1.9-4.4-.9-7 2-5.2 8.2-36.1-.9-52.4 5.1-3.2 8.7-6.2 10-8.2 4-6.4 10-25 7.3-31.6-2.2-5.3-15.8-41.5-22.4-58.9-.9-2.7-3.7-8.5-7.3-10.1-4.5-2.1-9.7-4.5-7.6-10.1 2.1-5.6 1.8-15.3-3.7-26.9-1.1-2.2-2.1-4.2-3.1-6-4.1-7.7-6.9-12.8-2.4-22.9 3.5-7.9 2.6-11 1.4-14.9-.7-2.3-1.4-4.9-1.4-8.9 0-10.6-1.7-36.3-18.1-53.8 1.5-1.1 2.6-2.1 3.5-2.8 8.6 11.2 20.7-3.4 22.5-6.3 4.6 5.1 7.8.4 11.6-5.3 1.8-2.6 3.7-5.5 5.9-7.6 25.2-24.7 17.6-67.2 13.2-84.5 20.8-25.1 32.5-80.6 35.8-105.2-1.4-.5-3.2-1.3-5.4-2.2l-.5-.2-.3-.1c9-37-20.3-118.7-36.7-161-15.4-39.7-27.6-43.7-43.7-48.9-1.1-.4-2.3-.7-3.4-1.1-11.5-3.8-24.5-12.3-32.7-18.2 2.9-11 3.9-22.3 4.1-29.2.4-13.9 9.3-91.6 11.1-100.1 1.5-6.8 3.3-14.8 4.1-18 2.1-4.3 5.6-17.9 3.1-37.6-2.8-24.2-29.2-35-43.5-39-7.4-2-20.1-4.6-34.4-4.6-13.5 0-28.4 2.2-41.6 9.1-27.3 14.3-41.9 26.8-44.7 49.6-.3 1.5-.5 3.2-.8 5.2zm156.2 593.9c-.7.7-2.4 1.2-4.4 1.7l-.3-3.1c-.4-4-.7-7.9-1.1-11.8 6.5-1.6 15.9-13.9 19.8-19.6 1.3 17.8-9.9 28.8-13.5 32.3-.2.2-.4.3-.5.5zm-5.9-41.3c-.7 1.1-1.4 2.2-2 3.5-3.3-40-4.6-74.6 2.1-93.2 7.3-20 1.2-38.1-7.2-44.8 2.6-7.8 2-13.2-.1-16.7 6.6-16 18.3-42.7 23.1-47.5 1.3 7.3 11.7 33.8 17.7 48.6-4.5 3.6-8.4 7.2-11.3 9.9-1.3 1.1-2.4 2.2-3.3 3-6.2 4.8-3.3 11.1 2.6 23.5 1.5 3.1 3.1 6.6 4.9 10.5 12.3 30.2 4.1 48-1.3 59.8l-.3.6-.3.6c-5.4 11.8-19.4 34.2-24.6 42.2zM107 594.4L51.1 637l55.9-42.6z" clip-rule="evenodd" fill="#FFC9BA" fill-rule="evenodd" stroke="none" stroke-width="1"/><path id="e0k1nhdxyqhmi21" d="M206.5 69.5l5 .7c.2-1.7-.4-3.3-1.6-4.4l-3.4 3.7zm0 0l-5-.7c-.2 1.7.4 3.3 1.6 4.4l3.4-3.7zm-2.8 29.2l.5 5c2.4-.3 4.3-2.2 4.5-4.7l-5-.3zm-7.7 1.9l2.8 4.1-2.8-4.1zm-1.4 11.4l-2.2 4.5 2.2-4.5zm8.6 2.3h5c0-1.3-.5-2.6-1.5-3.5-.9-.9-2.2-1.5-3.5-1.5v5zm.9 19.3l-5 .5 5-.5zm3 59.6l-.3 5c1.4.1 2.7-.4 3.8-1.4 1-1 1.6-2.3 1.5-3.7l-5 .1zm-.5-.1l.2-5c-1.4-.1-2.7.4-3.7 1.4-1 1-1.5 2.3-1.5 3.7l5-.1zm.2 28.6h-5 5zm0 0h5-5zm2.3 21.2l1.5 4.8c1.3-.4 2.3-1.3 3-2.5.6-1.2.7-2.6.3-3.9l-4.8 1.6zm-39 22.1l3.5 3.5-3.5-3.5zM142 327.6l4.7 1.6v-.1l-4.7-1.5zm0 0l-4.7-1.6v.1l4.7 1.5zm-6.9 20.9l4.7 1.8-4.7-1.8zm-10.7 79.8l-5 .4c.1 1.9 1.3 3.5 3 4.2l2-4.6zm0 0l5-.4c-.1-1.9-1.3-3.5-3-4.2l-2 4.6zm.3 3.5l5-.5-5 .5zm-7 97.2l-4.9-1.1 4.9 1.1zm-5 20.2l-4.8-1.3v.1l4.8 1.2zm0 0l4.8 1.3v-.1l-4.8-1.2zm-6.4 37.3l2.9 4.1c1.4-1 2.2-2.5 2.1-4.2l-5 .1zm-60.8 43l-4 3c1.6 2.2 4.7 2.7 6.9 1.1l-2.9-4.1zm-26.9-36.1h-5c0 1.1.3 2.1 1 3l4-3zm0 0h5c0-2.1-1.3-4-3.2-4.7-2-.7-4.2-.2-5.5 1.4l3.7 3.3zm0 0l-4 3c.9 1.2 2.3 1.9 3.8 2 1.5.1 3-.6 4-1.7l-3.8-3.3zm0 0l4-3c-1.3-1.7-3.5-2.4-5.6-1.8-2 .7-3.4 2.6-3.4 4.7h5zm0 0l3.8 3.3c.8-.9 1.2-2.1 1.2-3.3h-5zM5.5 608.5l-3.8-3.3c-.8.9-1.2 2.1-1.2 3.3h5zm0 16.6h-5c0 .7.2 1.4.5 2.1l4.5-2.1zm0 0L10 623l-4.5 2.1zm3.6 26.7l-4.9-.8c-.2 1.3.1 2.6.9 3.7l4-2.9zm43.5 56.3l-3.9 3.1c.8 1.1 2.1 1.7 3.4 1.9 1.3.1 2.7-.3 3.7-1.1l-3.2-3.9zM78 686.8l3.2 3.8c2.1-1.7 2.4-4.8.7-6.9l-3.9 3.1zm0 0h-5c0 1.1.4 2.2 1.1 3.1l3.9-3.1zm0-13.7h5c0-1.1-.3-2.1-1-3l-4 3zm-11.1-14.9l-3.2-3.9c-2.1 1.7-2.4 4.7-.8 6.8l4-2.9zm47.7-39.4l4.4-2.4c-.7-1.3-2-2.3-3.4-2.5-1.5-.3-3 .1-4.2 1.1l3.2 3.8zm21.5 17.8l1-4.9-1 4.9zm.4.1l-1.1 4.9 1.1-4.9zM144 625l4.9-.9c0-.1 0-.2-.1-.2L144 625zm-2.5-4.5l4.3-2.6-4.3 2.6zm-8-17.4l-3.2-3.9c-1.4 1.2-2.1 3.1-1.7 4.9l4.9-1zm.7-.6l4.8-1.5c-.5-1.6-1.8-2.8-3.4-3.3-1.6-.5-3.3-.1-4.6 1l3.2 3.8zm10.9 21.5l3.4-3.7-3.4 3.7zm3.6-8.4l1.8-4.7c-2.6-1-5.5.3-6.4 2.9-1 2.6.3 5.5 2.9 6.5l1.7-4.7zm10.1-2l-4.9-1 4.9 1zm.1-.5l5-.1c-.1-2.6-2-4.7-4.6-4.9-2.5-.2-4.8 1.5-5.3 4l4.9 1zm3.7 38.1l4.9-1-4.9 1zm8 113.8l4.9.9-4.9-.9zm3.1 21.2l3.3-3.8c-.1-.1-.2-.2-.4-.3l-2.9 4.1zm33.9 28.7l2.8 4.2c1.3-.9 2.1-2.3 2.2-3.9.1-1.6-.6-3.1-1.8-4.1l-3.2 3.8zm-8.8 25.8l5-.1-5 .1zm-5.8 48.6l-4.8-1.3c-.6 2.3.4 4.6 2.5 5.7l2.3-4.4zm27.7 13.5l4.9-.8c-.3-1.7-1.4-3.1-2.9-3.8l-2 4.6zm11.3 48.9l-4.7 1.8 4.7-1.8zm-2 11.1l-.7-4.9.7 4.9zm0 11.9l3.7-3.3-3.7 3.3zm.9 8.6l4 3-4-3zm-17 37.8l-3.6-3.4 3.6 3.4zm-18.1 14.6l2.9 4.1-2.9-4.1zm-24.4 23.6l4.7 1.8-4.7-1.8zm-.4 1l-4.7-1.8 4.7 1.8zm-.4 1.1l4.7 1.8-4.7-1.8zm-.2.4l4.7 1.8-4.7-1.8zm7.3 26.6l.6 5-.6-5zm30.9 0l1.7-4.7-1.7 4.7zm29.7-6.5l-2.8-4.1 2.8 4.1zm5.9-4.1l-2.9-4.1 2.9 4.1zm0 0l2.9 4.1-2.9-4.1zm34.6-18.5l.5 5-.5-5zm28.8-56.8l-4.1 2.8 4.1-2.8zm-2.8-27.8l-4.6-2c0 .1-.1.1-.1.2l4.7 1.8zm-4.9-13.4l-5-.6c-.3 2.6 1.5 5.1 4.1 5.5l.9-4.9zm-.8-66l-2.8-4.2c-1.6 1.1-2.4 2.9-2.2 4.8l5-.6zm12.8-11.5l3.9 3.1c1.2-1.5 1.5-3.6.6-5.4l-4.5 2.3zm-13.7-50.7l-1.1-4.9c-2.5.6-4.2 3.1-3.8 5.6l4.9-.7zm8.9-3.2l-2.4-4.4 2.4 4.4zm7.2-3.6l4.9-.8c-.3-1.5-1.2-2.9-2.6-3.6-1.4-.7-3-.8-4.4-.1l2.1 4.5zm1.9 11.1l5-.2c0-.2 0-.4-.1-.7l-4.9.9zm3.1 4.7l-2.4 4.4 2.4-4.4zm-3.1 6.9l-3.2-3.8c-1.3 1.1-2 2.9-1.7 4.6l4.9-.8zm3.1 18.6l-4.9.8c0 .2.1.3.1.5l4.8-1.3zm0 22.8l-4.8-1.3 4.8 1.3zm-3.1 29.3l-3.5 3.5 3.5-3.5zm.2.1l4.9-.8c-.2-1.1-.7-2.1-1.5-2.8l-3.4 3.6zm8.2 16.1l3.4-3.6-3.4 3.6zm3.5 3.1l-3.3 3.7 3.3-3.7zm19.7 35.1l-4.9 1.1 4.9-1.1zm17.8 53l-4.3 2.6 4.3-2.6zm5.8 94l2.7-4.2-2.7 4.2zm68.7-26.3h-5 5zm-8.8-42.5l4.8-1.5-4.8 1.5zm-1.3-4.5l4.9-1.2-4.9 1.2zm0-16.3l4.6 2.1-4.6-2.1zm-3.1-18.2l-3.5 3.6 3.5-3.6zm.1-8.1l4.3 2.5-4.3-2.5zm3-6.4l-4.8-1.3 4.8 1.3zm-1.2-9.2l4.6-2-4.6 2zm-.9-7l4.7 1.8-4.7-1.8zm-.9-52.5l-2.7-4.2c-2.3 1.4-3 4.4-1.7 6.7l4.4-2.5zm9.9-8.1l-4.2-2.6 4.2 2.6zm7.3-31.6l-4.6 1.9 4.6-1.9zm-22.3-59l-4.7 1.6v.1l4.7-1.7zm-7.3-10.1l2.1-4.5-2.1 4.5zm-7.6-10.1l4.7 1.7-4.7-1.7zm-3.8-26.9l4.5-2.1-4.5 2.1zm-3.1-6l-4.4 2.4 4.4-2.4zm-2.4-23l-4.6-2 4.6 2zm1.5-14.8l-4.8 1.4 4.8-1.4zm-19.6-62.8l-3-4c-1.1.9-1.8 2.2-2 3.6-.1 1.4.4 2.8 1.3 3.8l3.7-3.4zm3.5-2.8l4-3c-.8-1.1-2.1-1.8-3.5-1.9-1.4-.1-2.8.3-3.8 1.2l3.3 3.7zm22.4-6.3l3.7-3.3c-1.1-1.2-2.6-1.8-4.2-1.6-1.6.1-3 1-3.8 2.4l4.3 2.5zm11.7-5.3l4.1 2.8-4.1-2.8zm5.9-7.5l3.5 3.6-3.5-3.6zm13.2-84.5l-3.9-3.2c-1 1.2-1.4 2.9-1 4.4l4.9-1.2zm35.8-105.2l5 .7c.3-2.3-1-4.6-3.2-5.4l-1.8 4.7zm-5.4-2.2l2-4.6-2 4.6zm-.5-.2l2-4.6-2 4.6zm-.4-.2l-4.9-1.2c-.6 2.4.6 4.8 2.9 5.8l2-4.6zm-36.7-161l-4.7 1.8 4.7-1.8zm-43.7-48.9l1.5-4.8-1.5 4.8zm-3.4-1.1l1.6-4.7-1.6 4.7zm-32.7-18.2l-4.8-1.3c-.5 2 .2 4.1 1.9 5.3l2.9-4zm4.2-29.1l-5-.2 5 .2zM364.6 105l4.9 1.1-4.9-1.1zm4.1-17.9l-4.5-2.1c-.2.3-.3.7-.4 1l4.9 1.1zm3-37.6l-5 .6 5-.6zM328 10.2l1.3-4.8-1.3 4.8zm-34.4-4.6v5-5zM252 14.7l-2.3-4.4 2.3 4.4zm-44.7 49.6l4.9.8v-.2l-4.9-.6zm151 600.8l-5 .5c.1 1.5.9 2.8 2.1 3.6 1.2.8 2.7 1.1 4.1.8l-1.2-4.9zm4.4-1.7l3.5 3.5-3.5-3.5zM358 662l-5 .5 5-.5zm0 0l-5 .4 5-.4zm0 0l5-.4-5 .4zm-1.1-11.8l-1.2-4.9c-2.4.6-4 2.9-3.8 5.3l5-.4zm19.8-19.7l5-.4c-.2-2.1-1.6-3.9-3.7-4.5-2.1-.5-4.3.3-5.4 2.1l4.1 2.8zm-13.5 32.4l3.5 3.6-3.5-3.6zm-8.5-37.3l-5 .4c.2 2.2 1.8 4.1 4 4.5 2.2.4 4.4-.7 5.4-2.7l-4.4-2.2zm2.1-3.5l4.2 2.8-4.2-2.8zm.1-89.7l-4.7-1.7 4.7 1.7zm-7.2-44.8L345 486c-.7 2 0 4.2 1.6 5.5l3.1-3.9zm0-16.8l-4.6-1.9c-.6 1.4-.5 3 .3 4.4l4.3-2.5zm23-47.4l4.9-.9c-.3-1.8-1.6-3.3-3.4-3.9-1.8-.6-3.7-.1-5 1.2l3.5 3.6zm17.7 48.6l3.1 3.9c1.7-1.4 2.3-3.7 1.5-5.8l-4.6 1.9zm-11.3 9.9l-3.4-3.7 3.4 3.7zm-3.3 2.9l3.1 3.9c.1-.1.2-.1.2-.2l-3.3-3.7zm2.6 23.5l4.5-2.1-4.5 2.1zm0 0l-4.5 2.1 4.5-2.1zm4.9 10.6l4.6-1.9s0-.1-.1-.1l-4.5 2zm-1.3 59.7l-4.5-2.1 4.5 2.1zm-.3.6l-4.5-2.1 4.5 2.1zm-.3.7l4.5 2.1-4.5-2.1zM107 594.4l5-.7c-.2-1.8-1.4-3.3-3-3.9-1.6-.7-3.5-.4-4.9.6l2.9 4zm0 0l3 4c1.4-1.1 2.2-2.9 1.9-4.7l-4.9.7zM51.1 637l-3-4c-2.2 1.7-2.6 4.8-1 7l4-3zm0 0l-4 3c.8 1.1 2 1.8 3.3 2 1.3.2 2.7-.2 3.7-1l-3-4zM209.8 65.8l-6.7 7.4 6.7-7.4zM208.7 99c.6-11.2 1.8-21.6 2.8-28.8l-9.9-1.4c-1.1 7.5-2.2 18.1-2.9 29.7l10 .5zm-9.8 5.7c-.1.1.2-.1 1.3-.4 1-.2 2.4-.5 4-.6l-1-9.9c-1.9.2-3.8.5-5.3.9s-3.2.9-4.6 1.9l5.6 8.1zm-2 2.8c-1.6-.8-1.6-1.2-1.5-.9.1.2.2.5.2.8 0 .3-.1.4-.1.4.1-.1.3-.5 1-1.2.7-.6 1.5-1.3 2.3-1.8l-5.7-8.2c-1 .7-2.3 1.6-3.5 2.8-1.1 1.1-2.5 2.6-3.4 4.5-.9 2.1-1.2 4.7.1 7.4 1.2 2.4 3.5 4.1 6 5.3l4.6-9.1zm6.3 1.8c-1.3 0-3.4-.3-6.4-1.8l-4.4 9c4.1 2 7.6 2.9 10.8 2.9v-10.1zm5.9 23.8c-.6-5.9-.9-12.3-.9-18.7h-10c0 6.7.3 13.4.9 19.7l10-1zm3 60c-.3-18-1.1-40.5-3-60l-9.9 1c1.9 19.1 2.7 41.3 3 59.2l9.9-.2zm-5.7 5h.4l.6-10h-.5l-.5 10zm5.4 21.8c0-6 0-15.6-.2-26.8l-10 .2c.2 11.2.2 20.7.2 26.7h10zm0 1.8v-1.8h-10v1.8h10zm0 0h-10 10zm2 19.7c-2-6.1-2-12.9-2-19.7h-10c0 6.5-.1 14.9 2.5 22.8l9.5-3.1zm-40.2 27.1c10.7-10.7 26.7-17.6 37-20.8l-3-9.6c-10.9 3.4-28.7 10.9-41.1 23.3l7.1 7.1zm-26.9 60.6c3.4-11.1 7.2-23.3 11.7-34.4 4.5-11.2 9.6-20.5 15.2-26.2l-7.1-7.1c-7.1 7.1-12.8 18.1-17.4 29.5-4.7 11.5-8.6 24.2-11.9 35.2l9.5 3zm0 .1l-9.5-3.2 9.5 3.2zm-6.9 21.1c2.2-5.7 4.5-13.2 6.9-21.2l-9.6-2.9c-2.5 8.1-4.7 15.2-6.7 20.5l9.4 3.6zM129.3 428c-2-26.5 3.1-58.7 10.5-77.7l-9.3-3.6c-7.9 20.5-13.2 54.1-11.1 82.1l9.9-.8zm-3-4.3l-4 9.2 4-9.2zm3.3 7.6c-.1-1.1-.2-2.2-.3-3.4l-10 .8.3 3.6 10-1zm-7 98.8c6.9-31.5 10-70.2 7-98.7l-9.9 1c2.8 27.2-.1 64.9-6.8 95.6l9.7 2.1zm-5.1 20.4c1.7-6.2 3.5-12.9 5.1-20.4l-9.8-2.1c-1.6 7.3-3.3 13.8-5 20l9.7 2.5zm0-.1l-9.7-2.4 9.7 2.4zm0 0l-9.7-2.4 9.7 2.4zm-6.2 36c-.3-11.7 2.5-22.4 6.2-35.9l-9.7-2.6c-3.6 13.3-6.9 25.3-6.5 38.8l10-.3zm-62.9 47.1l60.9-42.9-5.8-8.2-60.9 42.9 5.8 8.2zm-33.8-37.1l26.9 36 8-6-26.9-36-8 6zm-1-3h10-10zm8.8 3.3l-7.5-6.6 7.5 6.6zm-7.8-.3l8-6-8 6zm9-3h-10 10zM9.3 611.8l13.1-15.1-7.5-6.6-13.2 15.1 7.6 6.6zm1.2 13.3v-16.6H.5v16.6h10zM10 623l-9 4.2 9-4.2zm4.1 29.6c2-12.4-1.8-24.7-4-29.5L1 627.2c1.7 3.7 4.8 14 3.2 23.8l9.9 1.6zM56.6 705c-11.4-14.4-35.9-45.7-43.4-56.1l-8.1 5.9c7.7 10.6 32.3 42.1 43.6 56.5l7.9-6.3zm18.2-22l-25.3 21.3 6.4 7.7 25.3-21.3-6.4-7.7zm-.8 6.9l7.9-6.1-7.9 6.1zm-1-16.8v13.8h10v-13.8H73zm-10.1-11.9L74 676l8-6-11.1-14.8-8 6zm48.5-46.3l-47.7 39.5 6.4 7.7 47.7-39.5-6.4-7.7zm25.7 16.8c-1.2-.2-3.8-.8-7.1-2.8-3.2-2-7.3-5.7-11-12.5l-8.8 4.7c4.4 8.3 9.7 13.3 14.5 16.3 4.7 3 8.8 3.8 10.4 4.1l2-9.8zm.5.1c-.2 0-.4-.1-.5-.1l-2 9.8c.2 0 .3.1.3.1l2.2-9.8zm1.4-5.8c.3 1.8-.3 3.3-1.3 4.6-.5.6-1 1-1.4 1.2-.2.1-.2.1-.1.1s.6-.1 1.3 0l-2.2 9.8c2.4.6 4.7-.4 5.9-1.1 1.5-.8 3-2.1 4.2-3.6 2.4-3 4.4-7.5 3.4-12.8L139 626zm-1.8-2.9c.7 1.1 1.2 1.9 1.5 2.6.2.3.3.6.4.7.1.2 0 .1-.1-.2l9.7-2.3c-.3-1.2-.9-2.3-1.3-3-.5-.9-1.1-1.9-1.7-2.9l-8.5 5.1zm-8.6-18.9c1.6 7.3 6.1 14.7 8.6 18.9l8.6-5.2c-2.8-4.6-6.3-10.5-7.4-15.9l-9.8 2.2zm2.4-5.5l-.7.6 6.4 7.7.7-.6-6.4-7.7zm17.4 21.6c-1.3-1.2-3.1-4-5-8.1-1.8-3.8-3.4-8-4.4-11.3l-9.5 3.1c1.2 3.6 2.9 8.2 4.9 12.5 1.9 4.1 4.4 8.5 7.3 11.2l6.7-7.4zm-1.5-.1c-.8-.3-1.3-.8-1.6-1.1-.3-.3-.4-.6-.5-.7-.1-.1-.1-.2 0-.1 0 0 0 .1.1.3 0 .3.1.7 0 1.1 0 .4-.1.8-.1 1.2 0 .2-.1.3-.1.4 0 .1-.1.1-.1.1v-.1s.1-.1.1-.2c.1-.1.3-.3.6-.5s.7-.4 1.2-.5c.5-.1.9-.1 1.3 0 .6.1.8.4.5.2l-6.8 7.4c1 .9 2.4 1.8 4 2.2 1.8.4 3.7.1 5.2-.9 1.4-.9 2.2-2.1 2.7-3.1s.8-2 1-3c.4-1.9.5-3.9.2-5.7-.1-.9-.4-1.9-.8-2.9-.4-.9-1.4-2.6-3.5-3.4l-3.4 9.3zm7-7.6c0 .1 0-.1.3-.4.3-.3.6-.3.5-.3-.1 0-.6.1-1.4-.1-.8-.1-1.7-.4-2.9-.9l-3.6 9.3c3 1.1 6.4 2 9.4 1.5 1.6-.3 3.4-1 4.8-2.3 1.4-1.4 2.2-3.1 2.6-4.8l-9.7-2zm.1-.4c0 .2-.1.3-.1.4l9.8 2c0-.1.1-.3.1-.5l-9.8-1.9zm13.5 38c-2-9.8-3.2-22.7-3.6-37.2l-10 .2c.3 14.8 1.6 28.4 3.8 39l9.8-2zm8 115.7c1.7-9.1 1.7-28 .3-49.3-1.4-21.5-4.2-46-8.4-66.4l-9.8 2c4.1 19.9 6.9 43.9 8.2 65 1.4 21.3 1.2 39.1-.2 46.8l9.9 1.9zm1.1 16.2c.3.2-.6-.4-1.3-3.2-.6-2.6-.9-6.8.2-13l-9.8-1.8c-1.3 7.2-1.1 12.9-.1 17.1 1 4.1 2.8 7.3 5.2 9l5.8-8.1zm34.2 28.9c-11-9.1-25.7-21.7-33.9-28.7l-6.5 7.6c8.2 7 22.9 19.6 34 28.8l6.4-7.7zm-7 29.6c-.4-14.6 4.3-19.9 6.6-21.5l-5.5-8.3c-6.2 4.1-11.5 13.4-11.1 30.1l10-.3zm-6 50c2.3-8.1 6.6-29.2 6-50l-10 .3c.5 19.5-3.6 39.6-5.7 47.1l9.7 2.6zm24.9 7.7c-9.6-4.2-21.1-10.1-27.4-13.4l-4.7 8.8c6.4 3.4 18.1 9.4 28.1 13.8l4-9.2zm13.9 51.6c-4.4-11.5-8.7-33.6-11-47.9l-9.9 1.6c2.3 14.2 6.6 37.3 11.5 49.9l9.4-3.6zm-5.9 17.9c2.4-.4 4.5-1.6 5.8-3.5 1.2-1.8 1.7-3.8 1.8-5.4.2-3.2-.7-6.6-1.7-9l-9.3 3.7c.7 1.7 1.1 3.6 1 4.7 0 .6-.1.5 0 .2.3-.4.8-.6.9-.6l1.5 9.9zm3 3.6c.1.1.1.1-.1-.2-.1-.2-.3-.6-.4-1-.3-.8-.6-1.8-.7-2.6-.1-1 0-1.3 0-1.2 0 .1-.2.4-.6.8-.4.4-.9.5-1.2.6l-1.4-9.9c-3.2.5-5.2 2.6-6.1 5-.8 2.1-.7 4.2-.5 5.9.2 1.8.7 3.5 1.3 5 .5 1.4 1.3 3 2.4 4.3l7.3-6.7zm1.1 15c2.1-2.7 2.8-5.8 2.2-8.7-.5-2.7-2-4.8-3.3-6.3l-7.4 6.7c.7.8.9 1.3.9 1.5v.1l-.3.6 7.9 6.1zm-3 13.6c0-1.8.3-4.7 1-7.7.7-3.2 1.5-5.2 2.1-5.9l-7.9-6.1c-2 2.6-3.2 6.6-3.9 9.9-.8 3.5-1.2 7.2-1.2 9.8h9.9zm-14.3 24.6c6.1-6.4 9.7-11 11.7-14.7 2.2-4 2.6-7 2.6-9.9h-10c0 1.6-.1 2.8-1.3 5.1-1.4 2.6-4.3 6.4-10.2 12.6l7.2 6.9zm-18.8 15.2c6.6-4.8 13.8-9.9 18.8-15.2l-7.3-6.9c-4.3 4.5-10.6 9-17.4 14l5.9 8.1zm-22.6 21.3c1.1-3 3.8-6.3 8-10.1 4.2-3.7 9.2-7.4 14.6-11.2l-5.8-8.1c-5.2 3.8-10.8 7.8-15.4 11.9-4.6 4.1-8.7 8.7-10.7 14l9.3 3.5zm-.4 1c.1-.3.3-.7.4-1l-9.4-3.5c-.1.3-.3.7-.4 1l9.4 3.5zm-.4 1.1c.1-.4.3-.7.4-1.1l-9.4-3.5c-.1.3-.3.7-.4 1l9.4 3.6zm-.2.4l.2-.4-9.3-3.6-.2.4 9.3 3.6zm1.9 19.8c-4.1.5-5.6-.1-6-.4-.2-.1-.6-.5-.7-2.2-.1-1.9.4-4.4 1.3-7.5.9-3.1 2.2-6.4 3.4-9.7l-9.3-3.5c-1.2 3.2-2.6 6.9-3.7 10.4-1 3.4-1.9 7.2-1.8 10.6.1 3.5 1.2 7.5 4.9 10.1 3.4 2.4 8 2.8 13 2.2l-1.1-10zm33.3.3c-6.5-2.3-13.8-2.8-33.3-.2l1.3 9.9c19.3-2.5 24.6-1.7 28.6-.2l3.4-9.5zm25.2-5.9c-5.1 3.5-10.5 5.3-15.2 6.1-4.8.8-8.4.4-10-.2l-3.3 9.4c3.7 1.3 9.2 1.6 15 .7 6-1 12.8-3.3 19.2-7.7l-5.7-8.3zm5.8-4.1c-2.1 1.5-4 2.8-5.8 4l5.7 8.2c1.9-1.3 3.8-2.7 5.9-4.1l-5.8-8.1zm0 0l5.7 8.2-5.7-8.2zm37-19.4c-6 .6-12.7 3.8-18.9 7.3-6.3 3.7-12.7 8.2-18.1 12l5.8 8.2c5.5-3.9 11.6-8.2 17.4-11.6 6-3.5 11.1-5.7 14.8-6l-1-9.9zm33.9-11s0 .1-.3.2c-.2.2-.5.4-.9.6-.8.5-1.8 1-3.1 1.7-2.5 1.2-5.8 2.5-9.4 3.7-7.2 2.5-15.1 4.4-20.4 4.9l.9 10c6.3-.6 15.1-2.8 22.6-5.4 3.8-1.3 7.5-2.7 10.4-4.2 2.7-1.3 5.7-3 7.4-4.9l-7.2-6.6zm-8.7-38c3.7 5.4 6.6 14.5 8 23.1.7 4.2 1 8.1 1 11.1 0 1.5-.2 2.6-.3 3.4-.2.9-.3.8 0 .4l7.5 6.6c1.3-1.5 1.9-3.4 2.2-4.9.3-1.6.5-3.4.5-5.3.1-3.8-.3-8.3-1.1-12.9-1.5-9.2-4.8-19.9-9.7-27.1l-8.1 5.6zm-3.4-32.3c-1.2 3.1-2.3 8.2-2.2 13.9.1 5.7 1.5 12.4 5.6 18.5l8.3-5.7c-2.7-4-3.8-8.6-3.9-13-.1-4.4.8-8.2 1.5-10.2l-9.3-3.5zm-1.1-6.8c1.1.2 1.4.5 1.5.6.1.1.3.4.4 1 .2 1.4-.2 3.4-.8 4.9l9.2 3.9c1-2.4 2.1-6.4 1.5-10.4-.3-2.1-1.2-4.3-3-6.2-1.8-1.9-4.2-3.2-7.1-3.7l-1.7 9.9zm-4.8-70.2c1 7.6 1.6 20.8 1.7 33.8.1 13-.2 25.2-.9 30.9l9.9 1.2c.8-6.4 1.1-19.3 1-32.2-.1-13-.7-26.8-1.8-35l-9.9 1.3zm13.8-15.4c-3.4 4.2-7.3 7.7-11.7 10.6l5.5 8.3c5.1-3.4 9.8-7.5 13.9-12.6l-7.7-6.3zm-14.7-46.8c1.1 7.3 3.3 17.5 5.8 27.2 2.5 9.6 5.5 19.2 8.4 25l9-4.4c-2.4-4.8-5.1-13.5-7.6-23s-4.5-19.3-5.6-26.2l-10 1.4zm11.4-8.3c-2 1.1-4.6 2-7.6 2.7l2.3 9.7c3.7-.9 7.1-2 10.1-3.6l-4.8-8.8zm7.5-3.7c-2.6 1.2-5.2 2.5-7.5 3.7l4.7 8.8c2.2-1.1 4.5-2.3 7-3.5l-4.2-9zm9 14.7l-1.9-11.1-9.9 1.7 1.9 11.1 9.9-1.7zm.5 1.3c-.2-.1-.3-.3-.4-.4 0-.1-.1-.2-.1-.2v.2l-10 .4c.1 2.3 1.3 6.5 5.7 8.9l4.8-8.9zm-2.2 15c1.2-1 3-2.8 4.2-4.7.6-.9 1.4-2.5 1.4-4.3 0-1-.2-2.2-.8-3.4-.7-1.2-1.6-2-2.6-2.5l-4.9 8.7c-.4-.2-.9-.6-1.3-1.3-.4-.7-.5-1.4-.5-1.8 0-.4.1-.7.1-.7l-.1.1c-.2.3-.5.7-.9 1.2s-.9.9-1.2 1.2l6.6 7.5zm4.7 13.9l-3.1-18.6-9.9 1.6 3.1 18.6 9.9-1.6zm-.1 25c2.8-10.4 1.2-21.1 0-25.4l-9.6 2.6c.9 3.2 2.2 12 0 20.2l9.6 2.6zm-4.3 24.4c.4.4.5.8.4.5-.1-.2-.2-.7-.2-1.5-.1-1.5.1-3.7.4-6.3.7-5.2 2.2-11.5 3.7-17.2l-9.7-2.6c-1.6 5.8-3.2 12.6-4 18.4-.4 2.9-.6 5.7-.5 8.2.1 1.2.2 2.5.6 3.7.3 1.2.9 2.6 2.2 3.8l7.1-7zm0 0l-7.1 7.1.3.3 6.8-7.4zm8.2 16.1c-4.1-3.8-6-9.1-6.7-13.2l-9.9 1.7c.9 5.4 3.5 13 9.7 18.9l6.9-7.4zm3.4 3.1c-1.2-1-2.3-2-3.4-3.1l-6.8 7.3c1.2 1.2 2.5 2.3 3.6 3.3l6.6-7.5zm21.3 37.6c-2.7-11.5-5.9-19.1-9.6-24.9-3.7-5.8-7.9-9.4-11.6-12.8l-6.6 7.5c3.8 3.4 7 6.2 9.9 10.7 2.9 4.5 5.8 11 8.3 21.7l9.6-2.2zm17.1 51.5c-4.7-7.7-11.2-26-17.1-51.5l-9.7 2.3c6 25.6 12.7 45.2 18.3 54.4l8.5-5.2zm.3 52.9c3-6.4 4.3-17.2 4.3-27 0-5-.3-10-1-14.4-.7-4.2-1.7-8.4-3.6-11.4l-8.5 5.2c.8 1.2 1.6 3.8 2.2 7.8.6 3.8.9 8.2.9 12.9 0 9.5-1.3 18.5-3.4 22.8l9.1 4.1zm4 39.6c-4.4-2.8-7-5.9-8.5-9-1.5-3.2-2-6.6-1.8-10.3.4-7.4 3.7-14.9 6.3-20.2l-9-4.3c-2.5 5.3-6.7 14.3-7.2 23.9-.3 4.9.3 10.1 2.7 15.1 2.4 5 6.3 9.6 12.2 13.3l5.3-8.5zm43.7 3.9c-6.3 3.4-24.9 8-43.8-3.9l-5.3 8.5c22.5 14.1 45 9 53.8 4.2l-4.7-8.8zm17.3-26c.1 14.5-10.2 22.1-17.3 26l4.7 8.8c8.1-4.3 22.7-14.5 22.6-34.8h-10zm-8.6-41c2.9 9.3 8.5 27.9 8.6 41.1l10-.1c-.1-15-6.3-35.1-9-43.9l-9.6 2.9zm-1.4-4.9c.2 1 .8 2.8 1.4 4.8l9.6-2.9c-.7-2.2-1.1-3.6-1.2-4.2l-9.8 2.3zm.3-19.5c-1.5 3.3-1.7 7.3-1.6 10.5.1 3.4.7 6.7 1.2 9l9.7-2.3c-.4-1.8-.9-4.5-1-7.1-.1-2.8.2-4.8.7-6l-9-4.1zm-2-12.5c1.2 1.2 2.2 3.4 2.6 6.2.4 2.8 0 5.3-.5 6.4l9.1 4.1c1.5-3.3 1.9-7.7 1.3-11.7-.5-4.1-2.1-8.7-5.5-12.1l-7 7.1zm-.7-14.2c-.7 1.2-2.2 3.5-2.5 6-.4 3.3 1 6 3.2 8.2l7-7.2c-.4-.4-.4-.5-.4-.4.1.2.1.5.1.7 0 .1 0 0 .2-.4s.5-1 1-1.8l-8.6-5.1zm2.5-5.3c-.6 2-1.5 3.6-2.5 5.3l8.6 5.1c1-1.7 2.6-4.3 3.5-7.7l-9.6-2.7zm-1-5.8c1.1 2.4 1.5 3.7 1 5.8l9.6 2.7c1.6-5.7-.3-9.9-1.4-12.5l-9.2 4zm-1-10.8c-1.8 4.8.1 8.7 1 10.8l9.2-4c-.5-1.2-.8-1.9-.9-2.4-.1-.3-.1-.6.1-.9l-9.4-3.5zm-.6-48.2c3.8 6.8 4.7 17.4 4 27.6-.6 10.1-2.6 18.6-3.4 20.6l9.3 3.6c1.2-3.3 3.3-12.8 4-23.5.7-10.6 0-23.6-5.3-33.1l-8.6 4.8zm10.1-13.3c-.2.3-.9 1.1-2.5 2.4-1.5 1.2-3.5 2.6-5.9 4.2l5.3 8.5c2.7-1.7 5.1-3.3 7-4.9 1.8-1.5 3.5-3.1 4.6-4.9l-8.5-5.3zm6.9-27c.2.5.4 1.9.2 4.5-.2 2.4-.8 5.2-1.6 8.2-1.6 6-3.9 11.8-5.6 14.4l8.5 5.3c2.3-3.8 5-10.6 6.7-17.1.9-3.3 1.6-6.8 1.8-9.9.3-3 .2-6.4-.9-9.2l-9.1 3.8zm-22.4-59.1c6.5 17.4 20.2 53.7 22.4 59.1l9.2-3.8c-2.2-5.2-15.7-41.2-22.3-58.8l-9.3 3.5zm-4.7-7.4c.5.2 1.4 1 2.5 2.8 1 1.6 1.8 3.4 2.1 4.4l9.5-3.2c-.6-1.7-1.6-4.1-3.1-6.5-1.4-2.2-3.6-5.1-6.8-6.6l-4.2 9.1zm-10.2-16.4c-.8 2.2-1 4.4-.5 6.6.5 2.2 1.7 3.8 3 5.1 2.3 2.3 5.6 3.8 7.7 4.7l4.2-9.1c-1.2-.5-2.2-1-3-1.5-.9-.5-1.5-.9-1.8-1.3-.3-.3-.3-.4-.3-.4 0 .1-.1-.1.2-.7l-9.5-3.4zm-3.6-23c5.2 10.8 5 19 3.6 23l9.4 3.5c2.7-7.3 1.9-18.5-3.9-30.8l-9.1 4.3zm-3-5.8c1 1.8 2 3.7 3 5.8l9-4.3c-1.1-2.3-2.2-4.4-3.2-6.2l-8.8 4.7zm-2.5-27.3c-2.5 5.8-3.2 10.6-2.3 15.3.8 4.4 3 8.3 4.9 12l8.8-4.7c-2.1-4-3.4-6.5-3.9-9.1-.4-2.3-.3-5.1 1.7-9.5l-9.2-4zm1.2-11.4c.6 2 .9 3 .8 4.4 0 1.4-.4 3.5-2 7.1l9.2 4c1.9-4.3 2.8-7.7 2.9-10.8.1-3.1-.7-5.6-1.2-7.5l-9.7 2.8zm-1.7-10.4c0 4.8.9 7.9 1.6 10.3l9.6-2.8c-.6-2.2-1.2-4.2-1.2-7.5h-10zM376 681.2c15.1 16 16.8 40 16.8 50.4h10c0-10.7-1.6-38.2-19.5-57.2l-7.3 6.8zm3.8-10c-.7.6-1.8 1.6-3.2 2.6l6 8c1.5-1.2 2.8-2.2 3.8-3.1l-6.6-7.5zm21.5-5.2c-.6.9-3.5 4.7-7 6.8-1.7 1-3 1.4-4 1.3-.7 0-1.8-.4-3.3-2.2l-7.9 6.1c2.9 3.8 6.5 5.8 10.5 6.1 3.8.3 7.2-1.1 9.8-2.7 5.2-3.1 9.2-8.2 10.3-10.1l-8.4-5.3zm11.7-5.5c-1 1.5-1.8 2.7-2.6 3.7s-1.3 1.5-1.6 1.7c-.2.1.2-.2.8 0 .5.1.4.3-.4-.5l-7.4 6.7c1.5 1.7 3.5 3.2 6 3.7 2.7.5 4.9-.4 6.6-1.5 1.6-1.1 2.9-2.5 3.9-3.8 1-1.3 2.1-2.8 3-4.2l-8.3-5.8zm6.6-8.4c-2.7 2.6-4.9 5.9-6.6 8.4l8.3 5.6c1.8-2.7 3.4-5.1 5.2-6.8l-6.9-7.2zm11.8-79.6c2.1 8.4 5 22.8 4.4 38-.7 15.2-4.9 30.6-16.2 41.7l7 7.1c13.9-13.6 18.5-31.8 19.2-48.4.7-16.6-2.4-32.1-4.7-40.9l-9.7 2.5zm35.7-107.1c-1.6 12.1-5.3 31.8-11.2 51.6-5.9 20-13.8 39.3-23.5 51l7.7 6.4c11.1-13.4 19.4-34.4 25.4-54.6 6-20.4 9.8-40.6 11.5-53.2l-9.9-1.2zm-2.4 3.1c2.1.9 4.1 1.7 5.6 2.3l3.4-9.4c-1.3-.5-2.9-1.2-5.1-2.1l-3.9 9.2zm-.5-.2l.5.2 3.9-9.2-.5-.2-3.9 9.2zm-.3-.2l.3.1 3.9-9.2-.3-.1-3.9 9.2zm-39.4-163.8c8.2 21.1 19.6 51.9 27.7 82 4.1 15 7.4 29.8 9.1 43 1.7 13.3 1.8 24.6-.3 33l9.7 2.4c2.5-10.1 2.2-22.9.5-36.6-1.8-13.8-5.2-29.1-9.3-44.4-8.3-30.6-19.8-61.8-28.1-83l-9.3 3.6zm-40.6-45.9c8.1 2.6 14.1 4.6 20.2 10.4 6.2 5.9 12.8 16 20.4 35.6l9.3-3.6c-7.8-20.1-15.1-31.9-22.8-39.2-7.9-7.5-16-10-24-12.6l-3.1 9.4zm-3.5-1.1c1.2.4 2.3.8 3.5 1.1l3.1-9.5c-1.1-.4-2.2-.7-3.4-1.1l-3.2 9.5zm-34-18.9c8.2 6 21.8 14.8 34 18.9l3.2-9.5c-10.7-3.6-23.3-11.6-31.3-17.5l-5.9 8.1zm2.1-33.4c-.2 6.6-1.2 17.5-4 28l9.7 2.6c3.1-11.5 4.1-23.2 4.3-30.3l-10-.3zm11.2-101c-1 4.6-3.7 26.5-6.2 48.6s-4.8 45.3-5.1 52.5l10 .3c.2-6.7 2.5-29.4 5-51.7 2.5-22.4 5.1-43.6 6-47.5l-9.7-2.2zm4.1-18c-.7 3.2-2.6 11.2-4.1 18l9.8 2.2c1.5-6.8 3.3-14.8 4.1-17.9l-9.8-2.3zm3-35.8c2.4 18.9-1.1 31.5-2.6 34.8l9 4.3c2.6-5.4 6.1-20 3.5-40.3l-9.9 1.2zM326.7 15c6.9 1.9 16.4 5.4 24.5 11.2 8 5.8 14.3 13.5 15.6 23.9l9.9-1.2c-1.8-14.1-10.2-24.1-19.7-30.8-9.4-6.7-20.2-10.6-27.7-12.7l-2.6 9.6zm-33.1-4.4c13.8 0 26 2.5 33.1 4.4l2.7-9.6C321.7 3.3 308.5.6 293.7.6l-.1 10zm-39.3 8.6c12.3-6.4 26.3-8.6 39.3-8.6V.6c-14 0-29.8 2.2-44 9.7l4.7 8.9zm-42.1 45.7c1.3-10.3 5.1-18.1 11.8-25.1 6.8-7.1 16.7-13.5 30.3-20.6l-4.6-8.9c-13.8 7.2-24.8 14.2-32.8 22.6-8.2 8.5-13 18.3-14.5 30.8l9.8 1.2zm-.8 5.3c.3-1.9.5-3.6.8-5l-9.9-1.7c-.3 1.5-.5 3.3-.8 5.3l9.9 1.4zm148.1 599.7c1-.2 2.1-.5 3.1-.9.9-.3 2.4-.9 3.6-2.1l-7.1-7.1c.1-.1.3-.2.3-.3l.1-.1h-.1c-.1 0-.1.1-.3.1-.5.2-1.2.4-2.2.6l2.6 9.8zm-6.5-7.4l.3 3.1 10-.9-.3-3.1-10 .9zm0 0l10-.9-10 .9zm0-.1l10-.9-10 .9zm-1.1-11.8c.4 3.9.7 7.9 1.1 11.8l10-.9c-.4-4-.7-7.9-1.1-11.8l-10 .9zm20.6-22.8c-1.8 2.7-5 7-8.4 10.8-1.7 1.9-3.4 3.5-5 4.8-1.7 1.3-2.8 1.9-3.4 2l2.4 9.7c2.7-.7 5.1-2.2 7.2-3.9 2.1-1.7 4.3-3.8 6.2-5.9 3.9-4.2 7.3-8.9 9.4-12l-8.4-5.5zm-5.8 38.6c3.7-3.7 16.4-16 15-36.3l-10 .7c1.1 15.4-8.5 24.9-12 28.4l7 7.2zm-.5.5l.5-.5-7-7.1-.5.5 7 7.1zm-7-39.1c.6-1.1 1.1-2.1 1.7-3l-8.3-5.5c-.8 1.2-1.6 2.6-2.3 4l8.9 4.5zm-7-97.1c-3.7 10.1-5 24.1-5.1 40.2-.1 16.2 1.1 35 2.7 55.1l10-.8c-1.6-20-2.8-38.4-2.7-54.2.1-15.9 1.5-28.4 4.5-36.9l-9.4-3.4zm-5.6-39.2c6.3 5.1 12.3 20.7 5.6 39.2l9.4 3.4c7.8-21.5 1.7-42.1-8.7-50.4l-6.3 7.8zm-1.3-18.2c1.1 2 2 5.8-.3 12.7l9.5 3.2c2.9-8.7 2.5-15.6-.4-20.8l-8.8 4.9zm23.9-53.5c-1.8 1.8-3.7 5-5.5 8.3-1.9 3.5-4.1 7.9-6.3 12.6-4.4 9.4-9 20.1-12.3 28.2l9.2 3.8c3.3-8 7.8-18.6 12.1-27.8 2.2-4.6 4.2-8.8 6-12.1 1.9-3.5 3.2-5.4 3.8-6l-7-7zm25.9 50.3c-3-7.4-7.1-17.7-10.6-27-3.6-9.6-6.3-17.5-6.8-20.6l-9.8 1.8c.8 4.2 3.9 13.1 7.3 22.3 3.5 9.4 7.6 19.8 10.7 27.3l9.2-3.8zm-12.6 15.5c3-2.7 6.8-6.2 11.1-9.7l-6.3-7.8c-4.6 3.7-8.6 7.4-11.6 10.1l6.8 7.4zm-3.4 3c1-.8 2.1-1.9 3.4-3l-6.7-7.4c-1.3 1.2-2.3 2.1-3.2 2.9l6.5 7.5zm3.9 17.6c-3.1-6.5-4.9-10.4-5.5-13.4-.2-1.3-.1-2 0-2.4.1-.4.4-.9 1.4-1.7l-6.1-7.9c-2.1 1.7-3.8 3.7-4.7 6.3-.9 2.5-.8 5.1-.4 7.5.9 4.5 3.4 9.9 6.3 15.8l9-4.2zm0 0l-9.1 4.2 9.1-4.2zm4.9 10.6c-1.8-4-3.4-7.5-4.9-10.6l-9 4.3c1.5 3.1 3.1 6.5 4.8 10.4l9.1-4.1zm-1.4 63.9c2.7-5.9 6.4-13.9 7.7-24.5 1.3-10.6.1-23.5-6.4-39.3l-9.3 3.8c5.9 14.4 6.8 25.5 5.7 34.3-1.1 8.8-4.2 15.6-6.9 21.5l9.2 4.2zm-.3.6l.3-.6-9.1-4.2-.3.6 9.1 4.2zm-.2.7l.3-.6-9.1-4.2-.3.6 9.1 4.2zm-25.1 42.8c5.3-8 19.5-30.7 25.1-42.9l-9.1-4.2c-5.2 11.4-19 33.6-24.3 41.5l8.3 5.6zM102 595.1l9.9-1.4-9.9 1.4zM54.1 641l55.9-42.6-6.1-8L48.1 633l6 8zm1-7l-8 6 8-6zm48.9-43.5L48.1 633l6.1 8 55.9-42.6-6.1-7.9z" fill="#FFF" stroke="none" stroke-width="1"/><rect id="e0k1nhdxyqhmi22" width="91.2" height="56" rx="0" ry="0" transform="translate(214.8 252)" fill="#BA87A0" stroke="none" stroke-width="1"/><path id="e0k1nhdxyqhmi23" d="M18.6 610.4L78 686.8V673l-59.4-79.6v17z" fill="#817F7F" stroke="none" stroke-width="1"/><path id="e0k1nhdxyqhmi24" d="M9.1 651.8c1.8-11.1-1.7-22.4-3.6-26.7l13.1-14.8L78 686.8l-25.3 21.3c-11.4-14.4-36-45.8-43.6-56.3z" fill="#5C5C5C" stroke="none" stroke-width="1"/><path id="e0k1nhdxyqhmi25" d="M128.4 578.1l-83.7 63.8L61.1 663l79.3-65.6-12-19.3z" fill="#A77676" stroke="none" stroke-width="1"/><path id="e0k1nhdxyqhmi26" d="M44.7 630v11.9l83.4-63.6-2.2-5.6L44.7 630z" fill="#B67F7F" stroke="none" stroke-width="1"/><path id="e0k1nhdxyqhmi27" d="M198.8 840.7c-.5-20.2 7.9-26.5 12.2-27.2 28.8 1 86.4 4.8 86.4 11.8 0 8.7 8 45.4 14.5 58.5-22.5 27.8-67.4 26.7-79.2 23.6-9.4-2.5-30.4-13.1-39.8-18.1 2.2-7.8 6.4-28.4 5.9-48.6z" fill="#805A6D" stroke="none" stroke-width="1"/><path id="e0k1nhdxyqhmi28" d="M316.2 837.4l-2.4-14.2 30.7-137.9c5.2-8.9 19.1-23.2 33.5-9.1 18 17.5 19.7 44.5 19.7 55.4 0 10.9 5.5 11.2 0 23.8-5.5 12.6 0 17.4 5.5 29 5.5 11.6 5.8 21.3 3.7 26.9-2.1 5.6 3.1 8 7.6 10.1 3.6 1.7 6.4 7.5 7.3 10.1 6.5 17.4 20.2 53.6 22.4 58.9 2.8 6.6-3.3 25.2-7.3 31.6-4 6.4-32.3 22.7-56.6 25.2-24.3 2.5-61-24.5-64.1-27.5-3.1-3.1 0-17.7 3.1-29.3 2.5-9.3 1-19.1 0-22.8l-3.1-18.6c2-1.7 5.5-5.5 3.1-6.8-2.4-1.4-3-3.8-3.1-4.8z" fill="#805A6D" stroke="none" stroke-width="1"/><path id="e0k1nhdxyqhmi29" d="M306.3 291.6l1.4 37.9h-6.1l20 137.7 26.2 7.8c6.1-15.1 19.6-46.5 24.8-51.7 1.4 7.8 13.2 37.7 18.9 51.7 26.8-23 62.8-13.2 74-10.9 9.5-36.7-20-119.1-36.6-161.6-16.5-42.5-29.3-44.1-47.1-50-14.3-4.8-31.1-16.7-37.7-22l-6.4 12.1-12.6 19.7-18.8 29.3z" fill="#664857" stroke="none" stroke-width="1"/><path id="e0k1nhdxyqhmi30" d="M297.7 266.8c-2.8 3.6-12 11.5-16.3 15l-15.6 27.4 5.8 7.5 20.4 1.1 18.2-51c-3-1.5-9.7-3.6-12.5 0z" fill="#664857" stroke="none" stroke-width="1"/><path id="e0k1nhdxyqhmi31" d="M250.1 294.7h-10.8l-2.4 22.7 27-2.2c10.5-12.3 30-36.9 23.8-36.7-6.2.2-17.4-1.2-22.2-2-1.4 2.1-5 7.5-8 12.6-3.1 5-6.2 5.8-7.4 5.6z" fill="#A5778D" stroke="none" stroke-width="1"/><path id="e0k1nhdxyqhmi32" d="M228.9 279.3l-4.5-23.2-5-4-10.4 11.2-8.4 51.4c14.6-.8 43.8-3.5 43.8-7.8-3-27.1-7.8-25.4-11.2-24.6-2.6.8-4-1.7-4.3-3z" fill="#5C414E" stroke="none" stroke-width="1"/><path id="e0k1nhdxyqhmi33" d="M170.1 265c13.9-13.9 35.6-21.5 44.7-23.6l-5.9 14.4-16 70.2-12.1 40.2-3.7 60.7 8.3 51-8.3 35.8c-5.8 32.1-17.6 96.9-18.2 99.9-.8 3.7-4.6 4.1-10.1 2 2.3.9 1.5 13.2-3.6 8.5-5.2-4.7-10.7-20.2-12-25.6-.4 10.4 10.2 23.8 10.9 26.5 1.3 7-5.1 12.2-7.5 11.7-2.4-.5-18.7-2.6-27-30.8s1.4-45.8 8.3-76.9c6.8-31.1 9.8-69.3 6.9-97.1-2.9-27.9 2.5-62.8 10.5-83.4 7.8-20.6 17.4-66.1 34.8-83.5z" fill="#6C4B5B" stroke="none" stroke-width="1"/><path id="e0k1nhdxyqhmi34" d="M124.4 428.3c-2.1-27.2 3.2-60.1 10.8-79.9 2.1-5.5 4.4-12.8 6.8-20.8 6.8-22.1 15.3-49.9 28.1-62.7 13.9-13.9 35.6-21.5 44.7-23.6l-5.9 14.4-16 70.2-12.1 40.2-3.7 60.7 2 12.2c-25.7-1.1-43.5-5.8-54.7-10.7z" clip-rule="evenodd" fill="#815A6D" fill-rule="evenodd" stroke="none" stroke-width="1"/><path id="e0k1nhdxyqhmi35" d="M187.6 307.5c3.3-27.5 17.7-56.1 24.6-67 8.7-2.2 22.9-2.6 9.7 13.1s-17.8 62-18.4 83.2c-2 1-11.4 6.3-15.9 8.8-1.4-1.3-3.3-10.6 0-38.1z" fill="#A5778D" stroke="none" stroke-width="1"/><path id="e0k1nhdxyqhmi36" d="M282.7 342.6c4.2-30.2 18.8-65.2 25.6-79 2.6-4.8 11.4-12.2 26-3.6-14.7 13.4-26.2 64.3-30.1 88.1-2.9-.6-11.2-2.5-21.5-5.5z" fill="#B7859D" stroke="none" stroke-width="1"/><path id="e0k1nhdxyqhmi37" d="M204.1 133.6c-2.6-25.1 1.1-56.7 3.2-69.3 2.8-22.8 17.4-35.2 44.7-49.6 27.3-14.3 61.7-8.5 76-4.5 14.3 4 40.6 14.8 43.7 39.3 2.5 19.6-1 33.2-3.1 37.6-.7 3.2-2.6 11.2-4.1 18-1.9 8.5-10.7 86.2-11.1 100.1-.4 13.9-4.1 45.6-20.2 56.7-16.1 11.1-64.8 8.5-96 2.3-31.2-6.2-30-28.6-30-44.3 0-15.7.1-54.9-3.1-86.3z" fill="#FFC9BA" stroke="none" stroke-width="1"/><path id="e0k1nhdxyqhmi38" d="M206.5 69.5c5.2 4.7 12.1 8.5 20.7 9.1 18.4 1.4 27.6-6.1 34.1-11.4 1.5-1.2 2.8-2.3 4.1-3.1 7-4.7 18-9.5 27.9-9.5 9.9 0 1.2 9.1-3.5 13.4-4.7 4.3 4 9.5 19.7-2 14.8-10.7 19.6-10 24.3-9.2.3.1.6.1.9.2 5.1.8 6.4 3.2 2 11s.3 34.9 12.6 39.3c5.9 2.1 11.3.6 15.2-1.7 0-.2.1-.4.1-.6 1.5-6.8 3.3-14.8 4.1-18 2.1-4.3 5.6-17.9 3.1-37.6-3.2-24.4-29.5-35.2-43.8-39.2-14.3-4-48.7-9.8-76 4.5-27.3 14.3-41.9 26.8-44.7 49.6-.3 1.5-.5 3.2-.8 5.2z" clip-rule="evenodd" fill="#DC7D7D" fill-rule="evenodd" stroke="none" stroke-width="1"/><path id="e0k1nhdxyqhmi39" d="M194.6 112c-8.1-4-2.3-8.8 1.4-11.4 6.7-4.6 52.2-2.1 51.3 5.1-.7 6.1-7.4 11.8-13.2 8.7-5.7-3.2-17.3-3.5-21.5-2.6-4.1.8-7.9 5.2-18 .2z" fill="#DC7D7D" stroke="none" stroke-width="1"/><path id="e0k1nhdxyqhmi40" d="M274.7 117.3c-6.6-.1 2.8-4.7 8.3-6.9 21-8.6 45.9 0 51.5 1.4 5.6 1.4 10.7 6.6 9.1 11.6-1.5 5-12.7 1.7-17 0-4.3-1.7-20.3-9.9-29.5-10.7-9.2-.8-14.1 4.7-22.4 4.6z" fill="#DC7D7D" stroke="none" stroke-width="1"/><path id="e0k1nhdxyqhmi41" d="M236.5 190.9c-14.5 1.8 7.8-68.7 11.1-65.5 1.6 1.6 4.5-2.2 4.9 16.2.4 18.2.1 36.4-1.2 38.1-2.5 3.3-9 10.2-14.8 11.2z" fill="#F0BBAC" stroke="none" stroke-width="1"/><path id="e0k1nhdxyqhmi42" d="M203.3 121.4c.1 4.1.4 8.2.8 12.1.1 1.4.3 2.9.4 4.3 11.8-.3 29.3-5.8 31-14.8-13.9-5.7-25.2-4.2-32.2-1.6z" clip-rule="evenodd" fill="#FFF3F1" fill-rule="evenodd" stroke="none" stroke-width="1"/><path id="e0k1nhdxyqhmi43" d="M280.8 128.7c7-2.2 25-4.4 41.3 5.1-6.1 11.9-26.8 12.2-41.3-5.1z" fill="#FFF3F1" stroke="none" stroke-width="1"/><path id="e0k1nhdxyqhmi44" d="M204.1 133.6c-.4-3.9-.6-8-.8-12.1 2-.8 4.4-1.4 7-1.9 3.2 1 4.4 3.8 4.4 8.2 0 4.4-1.2 8.1-4.3 9.6-1.9.3-3.7.4-5.4.5-.2 0-.4-.1-.5-.1-.1-1.4-.2-2.8-.4-4.2z" clip-rule="evenodd" fill="#000" fill-rule="evenodd" stroke="none" stroke-width="1"/><path id="e0k1nhdxyqhmi45" d="M303.4 142.1c1.8-1.9 2.6-4.9 2.6-8.4 0-2.6-.4-4.7-1.5-6.1-4.7-.8-9.2-.9-13.1-.7-2.2 1.4-3.5 3.7-3.5 6.8 0 .7.1 1.3.2 2 5 3.8 10.4 5.8 15.3 6.4z" clip-rule="evenodd" fill="#000" fill-rule="evenodd" stroke="none" stroke-width="1"/><path id="e0k1nhdxyqhmi46" d="M208 308.9c-25.7 7.3-39.3 51.4-42.8 72.6-4.6 27 3.1 91.4 11.5 108.2-16.4 34.4-22.4 121.3-14 161.6 8.4 40.3 11.1 97 8 113.8-2.5 13.4 1 19.7 3.1 21.1 11.8 10.1 37.4 31.9 45.6 38.1 10.2 7.7 67 16.7 87.8 5.6 16.7-8.9 43.6-17.7 55-20.9 12.3-79.2-22.2-229.5-5.2-276.6 7.3-20 1.2-38.1-7.2-44.8 5.7-17.1-4.2-22.5-9.9-23 1.1-21.4-.9-74.6-17.1-115.5-20.3-51.3-82.7-49.3-114.8-40.2z" fill="#956A7F" stroke="none" stroke-width="1"/><path id="e0k1nhdxyqhmi47" d="M350.1 487.9c-11.9 11.4-32.6 23.9-64.8 28.9-46 7.1-91.5-8.2-112.3-18.4-3.9 11-7.1 25.1-9.4 40.6 11.5 4.9 25.2 9.2 41.4 12.7 64.8 13.9 118.9-1.2 151.3-17.4l.6-1.8c7.1-19.8 1.3-37.6-6.8-44.6z" clip-rule="evenodd" fill="#A0758A" fill-rule="evenodd" stroke="none" stroke-width="1"/><path id="e0k1nhdxyqhmi48" d="M236.7 519.7h0c4.2-.1 10.6-.3 16.2-.4h3.6c-.4 3.4-1 8.8-1.4 14.1-.3 3.6-.5 7.4-.6 10.6-.1 3-.1 6.5.3 9 .1.8.2 1.6.2 2.4-1.6 0-3.6-.1-5.7-.1-2.3-.1-4.9-.1-7.5-.2-3.5-.1-7-.1-9.9-.1-1.5 0-2.9.1-4.1.1-.6 0-1.6.1-2.6.3v-.4c-.3-5.1-.7-11.8-.4-18.3.1-3.7.5-7 1.1-9.5.6-2.5 1.1-3.4 1.2-3.5 0 0 0 0 0 0 2.6-2.9 4-3.5 4.6-3.7.7-.2 1.5-.2 5-.3zm26-.2s0 0 0 0 0 0 0 0zm-8 38.2s0 0 0 0 0 0 0 0zm-32.7-1.5s0 0 0 0 0 0 0 0z" fill="none" stroke="#5C414E" stroke-width="20" stroke-linejoin="round"/><path id="e0k1nhdxyqhmi49" d="M241.5 533.6c3.3-.4 15.5.5 21.1 1.1l-1 6.9c-5.8.4-18.6.8-22.9-.9-5.3-2-1.2-6.5 2.8-7.1z" fill="#4D3641" stroke="none" stroke-width="1"/><path id="e0k1nhdxyqhmi50" d="M423.1 461c-19.6 3.1-39.7 17.1-47.3 23.8-7.8 6.1-1.2 14.3 7.5 34 12.8 31.3 3.5 49.2-1.9 61-5.4 11.8-19.4 34.3-24.7 42.2-5.3 7.9-9.5 23.6-3.4 27.6 6.1 4.1 18.7-12.2 23.4-19.2 1.3 18.7-11 29.8-14 32.8-3 3-21.1 1.4-14.2 17.2 6.9 15.8 29-.7 34.6-5.6 8.6 11.2 20.7-3.4 22.5-6.3 6.7 7.5 10.5-6.2 17.5-12.9 25.2-24.7 17.6-67.2 13.2-84.5 20.8-25.1 32.5-80.6 35.8-105.2-8.2-2.8-29.5-8-49-4.9z" fill="#553D48" stroke="none" stroke-width="1"/><path id="e0k1nhdxyqhmi51" d="M5.5 625.1l13.1-14.8v-17L5.5 608.5v16.6z" fill="#717070" stroke="none" stroke-width="1"/><path id="e0k1nhdxyqhmi52" d="M359 144.7c-2.8 24.6-5.7 52.6-6 60.5-.4 13.9-4.1 45.6-20.2 56.7-16.1 11.1-64.8 8.5-96 2.3-30.1-5.9-30-26.9-30-42.4V220c0-6 0-15.5-.2-26.7 7.2.4 17 2.4 29.9 7.9 33.8 14.2 101.9-.1 122.5-56.5z" clip-rule="evenodd" fill="#DC7D7D" fill-opacity=".5" fill-rule="evenodd" stroke="none" stroke-width="1"/><path id="e0k1nhdxyqhmi53" d="M289 232.3c.7 1.1-1.7 2.2-4.4 3.3-2.7 1-6.1 2.2-10.8 2.5-4.6.3-8-.7-12.4-.8-4.2-.2-9.5.4-12.6-.2-3.2-.6-3.1-1.8-3.5-2.9-.4-1.1-1.6-2.4 1.3-3.4 2.9-1 8.4-1.5 13.3-1.8 4.1-.3 7.8 0 11.7.2 3.5.2 6.9.4 9.7.9 3.3.6 7.1 1.2 7.7 2.2z" clip-rule="evenodd" fill="#FFC9BA" fill-rule="evenodd" stroke="none" stroke-width="1"/></g><path id="e0k1nhdxyqhmi54" d="M2941.972 766.402l-1342.4-20 150-134.3 1032.4 10z" fill="#FACABC" stroke="none" stroke-width="1"/><path id="e0k1nhdxyqhmi55" d="M2724.782 1024h19l10-267.602h-29z" fill="#FACABC" stroke="none" stroke-width="1"/><path id="e0k1nhdxyqhmi56" d="M2116.082 754.418l559.34 7.354V1024h-635.91z" fill="#3F7AD3" stroke="none" stroke-width="1"/><path id="e0k1nhdxyqhmi57" d="M2621.482 1024h29l-10-277.602-19 10z" fill="#FACABC" stroke="none" stroke-width="1"/><path id="e0k1nhdxyqhmi58" d="M2635.882 631.602h-165.4v28.8h165.4z" fill="#F87980" stroke="none" stroke-width="1"/><path id="e0k1nhdxyqhmi59" d="M2549.382 631.6l98.55-444.182-108.9 38-8.7-11.5 138.8-52-102.95 469.682z" fill="#FFF1F0" stroke="none" stroke-width="1"/><path id="e0k1nhdxyqhmi60" d="M2589.762 281.28l-79.01-128.913-20.46 12.54 79 128.913z" fill="#FFF1F0" stroke="none" stroke-width="1"/><path id="e0k1nhdxyqhmi61" d="M2103.382 459.601l39.2.6v-26.4l-10.11-16.6-19.09-18.3-41.3-45.3-10.3-9-23.9-5.7-5.4-4.9-12.7-8.9-6.7-7.2 3.8-7.4 2.6-20.9 1.601-12.2.4-12.1-4.5-11 2.6-3.2-10.1-22.4-1.1-5.3-4.7-.3-1.6-2.2-5.7-12.2-2.6-1.1-4.101 1.3-3.2-2.6-5.9 3.5-2.7 6.3-5.2 7.4h2l-2.1 5.2-1-.9-3.9-.3-16 24.2 1.4 1.5-.7 15-3.1 1.2-.5 19.6-4.6 13.5v18.1l3.8 7.4-1.6-8v-12.5l4.4-12.2 1.6 3.5 1.5 2.1 2.5-3.8.7 4.8 2 9.9-3 15.8-28.4 12.8-11 11-16.2 27.6-51.5 39.3-11.8 24.3 1.5 12.1 27.7-.6 7.1-15.4 25.5-27.3 31.4-21.9 8.3 17.8-8.3 25.5v24.3l112.6 1.6 2.3-15.8 5.3-53.3 30.2 20.7 22.5 29.6v19.7z" fill="#2C1E25" stroke="none" stroke-width="1"/></g><g id="e0k1nhdxyqhmi63" transform="matrix(.8 0 0 .8 993.866 485.914)" clip-path="url(#e0k1nhdxyqhmi12)" stroke="none" stroke-width="1"><rect id="e0k1nhdxyqhmi64" width="380.513" height="556.193" rx="0" ry="0" transform="rotate(4.061 9.076 556.225)" fill="#FFF1F0"/><g id="e0k1nhdxyqhmi65" clip-path="url(#e0k1nhdxyqhmi10)"><rect id="e0k1nhdxyqhmi66" width="352.853" height="527.785" rx="0" ry="0" transform="rotate(4.061 -197.964 738.913)" fill="#F87980"/><path id="e0k1nhdxyqhmi67" d="M31.558 301.48l358.905-72.733-24.036 338.575-351.968-24.989 17.1-240.853z" fill="#3F7AD3"/><path id="e0k1nhdxyqhmi68" d="M60.32 95.476l3.703 6.957-6.176 3.527-.546.345 7.918 13.016 6.408 9.321-9.096 5.756-5.014-8.929-8.949-13.637-.591.374-5.877 4.101-.949-.292-3.702-6.957 21.969-13.902.903.32z" fill="#A75155"/><path id="e0k1nhdxyqhmi69" d="M101.822 96.157l6.408 9.321-9.142 5.786-5.014-8.93-1.484-2.245-4.97 3.017-4.144 2.814.79 1.347 6.408 9.321-9.142 5.786-5.014-8.93-13.609-20.497 9.279-5.872 6.779 11.316 4.65-2.816 4.128-2.74-7.28-10.999 9.279-5.871 12.078 20.192z" fill="#A75155"/><path id="e0k1nhdxyqhmi70" d="M129.638 81.739l.903.32 3.657 6.986-20.74 13.125-5.014-8.93-13.609-20.497 21.104-13.356.903.32 3.611 7.015-7.404 4.304-4.685 2.964 2.529 4.197 4.502-2.85 4.644-3.13.903.32 3.657 6.986-5.362 3.203-4.094 2.59 1.049 1.758 1.702 2.489 4.367-2.763 7.377-5.051z" fill="#A75155"/><path id="e0k1nhdxyqhmi71" d="M59.11 161.742c6.61-4.183 12.71-5.75 18.3-4.702 5.612.95 10.318 4.427 14.117 10.431 2.955 4.669 4.473 9.484 4.554 14.443.043 4.899-1.303 9.616-4.04 14.15-2.774 4.474-6.769 8.361-11.984 11.661l-4.457 2.821 11.17 16.243-18.283 11.571-10.028-17.859-27.217-40.995 27.868-17.764zm15.435 31.636c1.061-1.946 1.515-3.846 1.36-5.702-.133-1.954-.91-4.053-2.33-6.297-1.688-2.668-3.553-4.206-5.594-4.613-2.08-.468-4.522.102-7.327 1.707l-3.103 2.346 9.941 16.513 7.053-3.954z" fill="#A75155"/><path id="e0k1nhdxyqhmi72" d="M110.034 128.114c8.551-5.411 16.773-7.047 24.666-4.908 7.855 2.078 14.699 7.726 20.532 16.944 6.448 10.188 8.859 19.703 7.235 28.544-1.563 8.803-7.044 16.179-16.444 22.127-8.551 5.412-16.773 7.048-24.666 4.909-7.932-2.2-14.872-8-20.82-17.399-6.371-10.067-8.736-19.441-7.096-28.123 1.662-8.781 7.193-16.145 16.593-22.094zm7.573 15.591c-2.365 1.497-3.885 3.053-4.561 4.67-.714 1.556-.691 3.537.068 5.945.819 2.369 2.476 5.524 4.971 9.466 3.185 5.033 5.876 8.681 8.072 10.943 2.196 2.263 4.257 3.506 6.183 3.731 1.987.187 4.253-.526 6.8-2.138 2.365-1.496 3.905-3.023 4.619-4.579.676-1.616.603-3.609-.216-5.978-.798-2.468-2.444-5.673-4.938-9.614-3.147-4.973-5.819-8.591-8.015-10.853-2.196-2.262-4.287-3.487-6.273-3.673-1.926-.225-4.163.468-6.71 2.08z" fill="#A75155"/><path id="e0k1nhdxyqhmi73" d="M207.885 131.035l7.543 14.336-35.022 22.163-10.028-17.859-27.217-40.996 18.557-11.743 24.156 40.385 2.83 4.069 17.374-10.995 1.807.64z" fill="#A75155"/><path id="e0k1nhdxyqhmi74" d="M227.458 111.004l12.817 18.642-18.284 11.571-10.028-17.859-27.217-40.995 18.556-11.744 24.156 40.385z" fill="#A75155"/><path id="e0k1nhdxyqhmi75" d="M240.433 45.72c5.216-3.3 10.646-5.59 16.291-6.87l6.06 16.421-.722 1.476c-2.114.15-4.355.633-6.724 1.453-2.407.759-4.49 1.695-6.249 2.808-3.699 2.341-5.677 5.121-5.933 8.34-.294 3.16 1.152 7.255 4.337 12.289 3.723 5.882 7.387 9.593 10.994 11.132 3.569 1.479 7.354.952 11.357-1.581 1.698-1.075 3.482-2.416 5.352-4.024 1.892-1.707 3.435-3.363 4.628-4.967l2.031-.011 7.64 15.293c-2.91 3.455-6.76 6.698-11.55 9.73-9.764 6.179-18.744 8.295-26.941 6.348-8.135-1.986-15.293-7.86-21.472-17.624-6.217-9.824-8.395-19.105-6.535-27.84 1.921-8.775 7.733-16.233 17.436-22.373z" fill="#A75155"/><path id="e0k1nhdxyqhmi76" d="M330.837 51.952l1.806.64 7.314 13.972-41.481 26.25-10.028-17.859-27.217-40.995 42.208-26.71 1.806.64 7.223 14.029-14.809 8.607-9.37 5.93 5.057 8.392 9.005-5.699 9.288-6.26 1.807.64 7.313 13.972-10.725 6.405-8.187 5.181 2.097 3.514 3.405 4.98 8.733-5.527 14.755-10.102z" fill="#A75155"/><path id="e0k1nhdxyqhmi77" d="M36.35 327.465l-6.724-.477L14.46 540.6l376.683 26.744 20.475-288.38-20.315-17.985-23.918-10.671-17.994.685-17.235 5.786-22.988 19.68-.694 9.764-5.3-.376-7.13 30.739 1.865 23.252-.563 7.936 3.622 6.612-1.633 23.008 6.767 29.625 10.638 28.634-26.173 5.745-28.718 23.728-18.171 47.707-23.99-13.108 6.6-9.669 6.024-19.425 9.247.656 8.427-17.564 1.761-24.797.017-29.988-3.551-21.372-11.601-32.926-22.4-11.728-27.98-4.52-24.85 10.907-23.697 42.248-15.448 27.202-1.193 16.812-17.733 17.748L101.863 428l1.611-22.695 3.715-16.631 1.194-16.811 12.21-17.297 26.92-16.252 14.158-26.873 1.76-24.795-11.681-8.01-4.457-32.42-23.426-27.006-41.453 6.772-47.298 23.675-2.655 37.404 1.866 15.338 9.82 10.413-4.224 17.863-3.573-3.21z" transform="translate(-.005 -1.1)" fill="#2C1E25"/></g></g><g id="e0k1nhdxyqhmi78" transform="rotate(-10 1187.903 -4019.868)"><rect id="e0k1nhdxyqhmi79" width="320.881" height="420.469" rx="0" ry="0" transform="matrix(0 1 -1 0 420.47 0)" fill="#FFF1F0" stroke="none" stroke-width="1"/><rect id="e0k1nhdxyqhmi80" width="300.755" height="401.436" rx="0" ry="0" transform="rotate(90 200.445 210.508)" fill="#F87980" stroke="none" stroke-width="1"/><path id="e0k1nhdxyqhmi81" fill="#3F7AD3" stroke="none" stroke-width="1" d="M170.235 10.063l54.707 300.755h186.011V10.063H170.235z"/><g id="e0k1nhdxyqhmi82" clip-path="url(#e0k1nhdxyqhmi8)"><path id="e0k1nhdxyqhmi83" transform="translate(346.532 -13.905)" fill="#5C404E" stroke="none" stroke-width="1" d="M90.484 274.106l2.933 9.089 8.503 5.572 11.142 2.345 14.075-2.639 7.623-13.195 2.346-4.691 11.729 1.466 63.628 2.346 48.675-.88 5.278 11.142 8.503 6.451 10.849 1.466 12.609-3.225 4.691-7.77 2.639-12.755h14.661l14.368-4.985 2.052-16.127-1.466-10.556-1.594-1.919.105-14.437-21.603-26.873 1.159-2.74-6.112-.843-28.559-5.269-42.68-1.475-32.197.737-28.82 9.169-23.5 14.016-15.07 8.325-36.989 2.95-21.287 4.848-9.379 4.848v2.423l-1.476 1.054-2.318 8.22-2.213.422v22.446l6.112 5.691 3.267 6.007 5.585 5.163 6.745-.21 2.423-.211-.527-6.955 4.09 1.559z"/></g><path id="e0k1nhdxyqhmi84" d="M96.085 82.771l-.14 1.072a34.398 34.398 0 01-9.515 1.933l-1.001-.786q-5.154-8.875-8.374-15.455h-6.941v.926l.43 14.599h-9.736l.501-13.737-.5-32.342 17.679-.076q7.223 0 11.163 3.54 3.93 3.547 3.93 10.127a15.274 15.274 0 01-2.253 8.124 17.514 17.514 0 01-6.33 6.044q5.581 8.874 11.087 16.031zM70.254 62.017l7.086.285q6.08-2.07 6.08-8.798a7.113 7.113 0 00-1.963-5.474q-1.974-1.825-6.05-1.968l-4.862.285z" fill="#5C404E" stroke="none" stroke-width="1"/><path id="e0k1nhdxyqhmi85" d="M111.33 73.466l.355 11.594h-9.014l.355-10.733-.355-25.4h9.16z" fill="#5C404E" stroke="none" stroke-width="1"/><path id="e0k1nhdxyqhmi86" d="M134.012 73.18l.07 5.008a11.704 11.704 0 01-2.47 7.803q-2.462 2.935-8.833 5.363l-2.865-4.507v-.786a12.654 12.654 0 004.472-3.325 7.205 7.205 0 001.322-4.472v-4.152l-.285-18.535-6.155.145-.571-.57.57-6.225h15.1z" fill="#5C404E" stroke="none" stroke-width="1"/><path id="e0k1nhdxyqhmi87" d="M174.367 85.06h-10.802L152.11 48.927h9.09l1.072 5.223 6.586 22.681h.57l7.658-22.18 1.001-5.724h8.875z" fill="#5C404E" stroke="none" stroke-width="1"/><path id="e0k1nhdxyqhmi88" d="M217.656 77.763l.571.57-.64 6.727h-24.76l.355-10.733-.356-25.4h25.116l.5.71-.57 6.656-9.306-.356h-6.725l-.14 7.297 6.44.07 6.225-.21.5.64-.576 6.802-6.796-.216h-5.94l-.07 3.145.14 4.583h6.301z" fill="#5C404E" stroke="none" stroke-width="1"/><path id="e0k1nhdxyqhmi89" d="M234.113 73.466l.355 11.594h-9.014l.355-10.733-.355-25.4h9.16z" fill="#5C404E" stroke="none" stroke-width="1"/><path id="e0k1nhdxyqhmi90" d="M266.956 78.334l-.577 6.726H245.13l.43-10.733-.43-25.4h9.16l-.5 24.539.14 4.221h12.525z" fill="#5C404E" stroke="none" stroke-width="1"/><path id="e0k1nhdxyqhmi91" d="M281.84 73.466l.355 11.594h-9.014l.355-10.733-.355-25.4h9.16z" fill="#5C404E" stroke="none" stroke-width="1"/><path id="e0k1nhdxyqhmi92" d="M321.263 50.429l-2.364 8.152h-.787a24.227 24.227 0 00-4.973-2.212 16.954 16.954 0 00-4.827-.647q-4.944 0-7.122 2.61-2.183 2.62-2.183 9.054c-.089 2.28.227 4.556.931 6.726a6.146 6.146 0 002.97 3.47c1.743.77 3.64 1.125 5.544 1.037 1.54-.02 3.066-.31 4.507-.856V75.47l-.07-5.724 8.228-.571-.14 4.792v9.306a41.425 41.425 0 01-13.166 2.358q-9.023 0-13.597-4.612-4.577-4.62-4.577-13.201 0-9.451 5.293-14.418 5.293-4.98 15.024-4.974c3.86-.027 7.693.652 11.309 2.004z" fill="#5C404E" stroke="none" stroke-width="1"/><path id="e0k1nhdxyqhmi93" d="M335.861 77.548a4.35 4.35 0 011.142 3.22 4.803 4.803 0 01-1.252 3.505 4.525 4.525 0 01-3.395 1.287 4.475 4.475 0 01-3.255-1.147 4.351 4.351 0 01-1.182-3.29 4.631 4.631 0 011.287-3.47 4.721 4.721 0 013.435-1.253 4.361 4.361 0 013.22 1.148zm1.788-28.12l-1.857 22.32-5.37.716-.861-.856-.425-21.825.786-1.072 6.656-.36z" fill="#5C404E" stroke="none" stroke-width="1"/></g><g id="e0k1nhdxyqhmi94" transform="translate(2103.82 -31.21)" fill="#FFF1F0" stroke="none" stroke-width="1"><path id="e0k1nhdxyqhmi95" d="M203.454 368.713l-3.821-.6 15.785-135.874 129.404 2.375-7.284-102.819 33.912-31.69 3.676-90.047-18.455-55.708 2.828-1.402 18.647 58.94-3.735 85.45 80.613-75.332 65.429-148.009 3.393-1.682L456.817 22.78l-82.557 78.016-1.538 35.177 25.18 80.645-77.173 63.199-59.586 60.301-3.255-.881 60.856-63.425 76.137-61.022-24.848-79.978 1.274-31.226-31.08 29.37 6.153 103.38-129.638-1.427-13.288 133.804z"/><path id="e0k1nhdxyqhmi96" d="M294.725 224.52l-127.96 147.674-12.509 17.01 142.123-161.347 75.191-23.136 40.993-113.446 43.823-237.078-13.574 6.728-35.724 226.412-37.834 112.712-74.529 24.471z"/><path id="e0k1nhdxyqhmi97" d="M276.685 346.101L267.625 361l149.124-116.306 44.217-98.415-62.96-128.437 85.945-62.557 22.713-97.734-1.281-6.848-22.756 101.912-88.773 63.959 62.864 126.822-41.623 97.96-138.41 104.745z"/></g><g id="e0k1nhdxyqhmi135" transform="rotate(-3 4989.604 -41800.569) scale(1.15)" clip-path="url(#e0k1nhdxyqhmi14)" stroke="none" stroke-width="1"><path id="e0k1nhdxyqhmi136" d="M166.521 85.448c-23.154-17.166-53.989-18.64-53.989-18.64s-30.835 1.41-53.988 18.64c-32.81 24.34-32.7 74.813-30.726 87.495 1.976 12.683 10.59 16.974 28.75 22.739 0 0 5.98 3.266 19.588-12.234 13.606-15.501 36.376-14.732 36.376-14.732s22.824-.705 36.376 14.732c13.552 15.436 19.588 12.234 19.588 12.234 18.161-5.765 26.72-9.992 28.75-22.739 2.03-12.746 2.03-63.155-30.725-87.495z" fill="#FFF1F0"/><path id="e0k1nhdxyqhmi137" d="M45.593 81.729s-12.07 14.668-7.462 29.336c4.609 14.668 19.752 11.978 27.708 6.918 7.955-5.125 14.375-25.493 9.492-30.874-4.829-5.38-22.935-18.062-29.738-5.38z" fill="#FFCBC8"/><path id="e0k1nhdxyqhmi138" d="M184.846 81.729s12.07 14.668 7.461 29.336c-4.608 14.668-19.751 11.978-27.707 6.918-7.956-5.125-14.375-25.493-9.492-30.874 4.883-5.38 22.934-18.062 29.738-5.38z" fill="#FFCBC8"/><path id="e0k1nhdxyqhmi139" d="M185.836 100.558l40.766-75.197-16.24-11.978-40.821 75.197s-4.664 8.903 3.347 14.796c8.065 5.957 12.948-2.818 12.948-2.818z" fill="#CBBEBD"/><path id="e0k1nhdxyqhmi140" d="M216.834 45.472l-17.887-13.194c-1.536-1.153-1.975-3.523-1.042-5.317l8.12-14.988c.988-1.793 3.018-2.306 4.554-1.217l17.887 13.195c1.536 1.153 1.975 3.523 1.042 5.316l-8.12 14.988c-.988 1.794-3.018 2.306-4.554 1.217z" fill="#CBBEBD"/><path id="e0k1nhdxyqhmi141" d="M213.051 29.335c-1.481-1.09-1.92-3.331-.987-5.06l9.876-18.191c.932-1.73 2.853-2.242 4.334-1.153 1.482 1.089 1.92 3.33.988 5.06l-9.876 18.19c-.933 1.73-2.853 2.243-4.335 1.154z" fill="#CBBEBD"/><path id="e0k1nhdxyqhmi142" d="M217.929 46.245s-1.92-1.217-3.676 1.986c-1.756 3.202 0-4.997 0-4.997l3.676 3.01z" fill="#CBBEBD"/><path id="e0k1nhdxyqhmi143" d="M223.966 16.016s-1.756 3.394.055 4.74c1.81 1.345-3.896 1.985-3.896 1.985l3.841-6.725z" fill="#CBBEBD"/><path id="e0k1nhdxyqhmi144" d="M218.699 12.102s-1.865 3.266-3.676 1.985c-1.81-1.345.11 4.932.11 4.932l3.566-6.917z" fill="#CBBEBD"/><path id="e0k1nhdxyqhmi145" d="M197.908 31.445s1.811 1.538.055 4.74c-1.756 3.203 3.896-2.178 3.896-2.178l-3.951-2.562z" fill="#CBBEBD"/><path id="e0k1nhdxyqhmi146" d="M43.18 100.375L3.403 24.409l16.405-11.721 39.779 75.965s4.553 8.968-3.567 14.733c-8.065 5.764-12.838-3.011-12.838-3.011z" fill="#CBBEBD"/><path id="e0k1nhdxyqhmi147" d="M12.895 44.65l18.051-12.875c1.536-1.09 2.03-3.46 1.097-5.253l-7.9-15.116c-.933-1.793-2.963-2.37-4.5-1.281L1.594 23C.056 24.088-.437 26.458.495 28.252l7.901 15.116c.933 1.858 2.963 2.434 4.499 1.281z" fill="#CBBEBD"/><path id="e0k1nhdxyqhmi148" d="M16.901 28.634c1.482-1.024 1.92-3.33 1.043-5.06L8.342 5.191C7.464 3.461 5.49 2.95 4.008 3.974 2.526 5 2.088 7.304 2.965 9.034l9.657 18.383c.878 1.73 2.798 2.242 4.28 1.217z" fill="#CBBEBD"/><path id="e0k1nhdxyqhmi149" d="M11.855 45.42s1.976-1.218 3.622 2.049c1.646 3.266.054-4.996.054-4.996l-3.676 2.946z" fill="#CBBEBD"/><path id="e0k1nhdxyqhmi150" d="M6.143 15.121s1.701 3.395-.11 4.74c-1.81 1.345 3.841 2.05 3.841 2.05l-3.73-6.79z" fill="#CBBEBD"/><path id="e0k1nhdxyqhmi151" d="M11.523 11.277s1.811 3.331 3.622 2.05c1.81-1.281-.22 4.932-.22 4.932l-3.402-6.982z" fill="#CBBEBD"/><path id="e0k1nhdxyqhmi152" d="M32.04 31.008s-1.81 1.473-.11 4.74c1.701 3.266-3.84-2.242-3.84-2.242l3.95-2.498z" fill="#CBBEBD"/><path id="e0k1nhdxyqhmi153" d="M55.254 175.398s6.529-4.228 4.992 5.828c-1.536 9.992-13.003-2.498-4.992-5.828z" fill="#FFCBC8"/><path id="e0k1nhdxyqhmi154" d="M64.959 164.636s7.023-2.883 4.06 6.725c-3.018 9.608-12.455-4.996-4.06-6.725z" fill="#F87980"/><path id="e0k1nhdxyqhmi155" d="M76.158 156.118s7.352-1.41 2.962 7.43c-4.389 8.839-11.522-7.495-2.962-7.43z" fill="#FFCBC8"/><path id="e0k1nhdxyqhmi156" d="M88.445 149.903s7.462.128 1.81 7.942c-5.65 7.815-10.204-9.735-1.81-7.942z" fill="#F87980"/><path id="e0k1nhdxyqhmi157" d="M101.444 146.319s7.297 1.602.603 8.199c-6.693 6.597-8.614-11.657-.603-8.199z" fill="#FFCBC8"/><path id="e0k1nhdxyqhmi158" d="M114.78 145.418s6.968 3.074-.603 8.199c-7.627 5.06-6.749-13.195.603-8.199z" fill="#F87980"/><path id="e0k1nhdxyqhmi159" d="M128.059 147.215s6.42 4.484-1.81 7.943c-8.23 3.523-4.719-14.348 1.81-7.943z" fill="#FFCBC8"/><path id="e0k1nhdxyqhmi160" d="M140.835 151.704s5.652 5.7-2.962 7.43c-8.614 1.729-2.469-15.053 2.962-7.43z" fill="#F87980"/><path id="e0k1nhdxyqhmi161" d="M152.8 158.74s4.718 6.726-4.06 6.726c-8.724 0-.165-15.373 4.06-6.726z" fill="#FFCBC8"/><path id="e0k1nhdxyqhmi162" d="M163.503 168.034s3.621 7.622-4.993 5.828c-8.614-1.793 2.14-15.18 4.993-5.828z" fill="#F87980"/><path id="e0k1nhdxyqhmi163" d="M172.665 179.431s2.469 8.198-5.761 4.74c-8.175-3.587 4.334-14.604 5.761-4.74z" fill="#FFCBC8"/><path id="e0k1nhdxyqhmi164" d="M84.526 3.635l-.006.003-.056.032a15.785 15.785 0 00-1.218.813 20.67 20.67 0 00-3.044 2.76c-2.252 2.49-4.501 6.188-4.863 11.253v.012h-.001c-.178 2.34.367 4.168 1.36 5.589.644.92 1.514 1.722 2.586 2.37-.342-3.308.07-6.316 1.041-8.964 1.757-4.792 5.23-8.093 8.697-9.833 2.282-1.145 4.826-.513 6.913.716 2.128 1.253 4.114 3.302 5.494 5.678.471.81.888 1.689 1.214 2.612 2.409.055 4.581.629 6.242 1.766 1.476 1.01 2.641 2.542 3.008 4.603.361 2.029-.121 4.169-1.209 6.261-1.089 2.093-2.962 4.374-5.172 6.4-2.227 2.043-4.911 3.93-7.71 5.16-.325.142-.653.277-.983.402a40.918 40.918 0 003.42 4.896c.311-.974.722-1.977 1.241-3.006 1.865-3.703 3.938-5.983 6.172-7 2.287-1.04 4.454-.626 6.209.383 1.714.986 3.08 2.553 3.984 4.013.455.735.829 1.5 1.076 2.222.206.603.474 1.595.262 2.584-.124.58-.398 1.247-.703 1.865a17.588 17.588 0 01-1.292 2.19c-1.056 1.536-2.569 3.25-4.494 4.436-1.951 1.203-4.341 1.871-7.031 1.222a9.985 9.985 0 01-1.143-.352c.487.715 1.097 1.371 1.797 1.972 1.418 1.216 3.069 2.083 4.407 2.65.661.281 1.227.481 1.623.61a14.371 14.371 0 00.565.17l.023.005h.002m0 0c1.011.258 1.651 1.419 1.43 2.593-.221 1.175-1.22 1.92-2.232 1.663l.383-2.037a204.743 204.743 0 01-.385 2.036h-.002l-.005-.001-.014-.004-.047-.013-.161-.044a18.076 18.076 0 01-.564-.173 23.335 23.335 0 01-1.903-.713c-1.52-.645-3.534-1.683-5.347-3.238-1.807-1.55-3.553-3.736-4.264-6.708a11.964 11.964 0 01-.308-2.122 25.887 25.887 0 01-2.068-2.29c-1.825-2.266-3.346-4.562-4.561-6.835-1.268.135-2.537.081-3.772-.221-2.948-.723-5.512-2.82-7.258-6.598a32.368 32.368 0 01-1.475-3.777l-.106-.037c-2.578-.908-4.884-2.47-6.49-4.766-1.632-2.333-2.445-5.291-2.186-8.713.463-6.46 3.342-11.087 6.014-14.041A24.554 24.554 0 0181.24.804c.49-.36.9-.631 1.194-.815a12.546 12.546 0 01.454-.272l.031-.017.011-.006.004-.002.002-.001s.001-.001.76 1.886L82.937-.31c.938-.51 2.054-.04 2.493 1.05.438 1.088.035 2.382-.9 2.893m.27 28.913c.116.27.237.542.364.817 1.244 2.693 2.905 3.95 4.728 4.396.336.082.683.138 1.04.169-.705-1.895-1.19-3.75-1.454-5.529-1.591.22-3.164.268-4.678.147zm8.364-.955c.258 1.777.808 3.737 1.692 5.815a16.188 16.188 0 001.62-.614c2.379-1.045 4.732-2.687 6.714-4.504 1.999-1.833 3.508-3.74 4.285-5.234.777-1.494.857-2.508.747-3.126-.104-.585-.445-1.19-1.239-1.734-.844-.577-2.076-.984-3.599-1.119-.01.403-.044.808-.102 1.213-.444 3.073-2.26 5.653-5.431 7.357a25.492 25.492 0 01-4.686 1.946zm6.455-10.335c-.01.105-.02.21-.036.312-.194 1.345-.991 2.88-3.306 4.123a22.158 22.158 0 01-3.086 1.367c.21-1.099.576-2.034 1.064-2.801.803-1.261 2.03-2.218 3.761-2.661.55-.14 1.084-.253 1.603-.34zM98.61 17.03c-.466.088-.934.192-1.403.313-2.522.645-4.573 2.13-5.97 4.324-1.15 1.808-1.79 3.992-1.955 6.371-2.093.315-4.124.283-5.958-.07-.738-3.497-.41-6.41.45-8.759 1.302-3.55 3.947-6.142 6.734-7.54.846-.425 2.15-.329 3.731.602 1.541.907 3.047 2.45 4.08 4.229.103.177.2.353.29.53zm4.755 32.244c1.125.846 2.149 1.314 3.06 1.534 1.688.408 3.189.01 4.51-.804 1.347-.83 2.484-2.088 3.323-3.307.414-.603.739-1.171.965-1.632a6.89 6.89 0 00.25-.56 2.525 2.525 0 00-.039-.122 6.625 6.625 0 00-.634-1.286c-.636-1.027-1.561-2.053-2.604-2.653-1.002-.576-2.058-.739-3.177-.23-1.171.533-2.684 1.928-4.303 5.143-.752 1.493-1.167 2.79-1.351 3.917zm12.148-4.603l-.001-.01.001.01zM84.526 3.635z" clip-rule="evenodd" fill="#F87980" fill-rule="evenodd"/><path id="e0k1nhdxyqhmi165" d="M145.673.736c.441-1.088 1.558-1.556 2.495-1.044l-.798 1.97.799-1.97.002.002.004.002.011.006.031.017c.026.015.06.034.102.06.085.049.203.12.349.212.293.184.701.455 1.189.815a24.586 24.586 0 013.608 3.285c2.665 2.954 5.541 7.577 6.033 14.033.26 3.424-.553 6.385-2.186 8.72-1.606 2.296-3.912 3.857-6.49 4.765l-.105.037a32.358 32.358 0 01-1.476 3.777c-1.745 3.777-4.31 5.875-7.258 6.598-1.235.302-2.504.356-3.771.221-1.216 2.273-2.736 4.57-4.561 6.834a25.905 25.905 0 01-2.069 2.291c-.04.729-.144 1.436-.308 2.122-.71 2.973-2.456 5.158-4.264 6.708-1.812 1.555-3.827 2.593-5.347 3.238-.768.326-1.429.56-1.903.713a17.278 17.278 0 01-.725.217l-.046.013-.015.004-.007.001c-.001 0-.002 0-.402-2.127l.4 2.128c-1.011.257-2.011-.488-2.232-1.663-.221-1.174.419-2.334 1.43-2.592h.002l.024-.007.11-.03c.102-.03.256-.075.454-.14a19.95 19.95 0 001.623-.608c1.338-.568 2.989-1.435 4.407-2.65.7-.602 1.31-1.258 1.797-1.973-.382.143-.763.26-1.143.352-2.69.65-5.08-.019-7.031-1.222-1.925-1.187-3.438-2.9-4.494-4.435a17.588 17.588 0 01-1.292-2.19c-.304-.62-.579-1.286-.703-1.866-.211-.989.056-1.98.263-2.584.247-.723.62-1.487 1.075-2.222.904-1.46 2.27-3.027 3.984-4.013 1.756-1.01 3.922-1.423 6.209-.382 2.234 1.016 4.308 3.296 6.173 6.999a20.71 20.71 0 011.24 3.006l.052-.064a41.083 41.083 0 003.369-4.832c-.331-.125-.659-.26-.983-.402-2.799-1.23-5.484-3.117-7.711-5.16-2.21-2.026-4.083-4.307-5.171-6.4-1.089-2.092-1.571-4.232-1.21-6.26.368-2.062 1.532-3.595 3.008-4.604 1.661-1.137 3.833-1.711 6.242-1.766.326-.923.743-1.801 1.214-2.612 1.38-2.376 3.366-4.425 5.494-5.678 2.088-1.229 4.631-1.861 6.913-.716 3.468 1.74 6.94 5.04 8.697 9.833.971 2.648 1.383 5.655 1.042 8.964 1.071-.648 1.941-1.45 2.585-2.37.994-1.42 1.538-3.248 1.36-5.589-.386-5.073-2.64-8.777-4.886-11.267a20.751 20.751 0 00-3.033-2.76 15.719 15.719 0 00-1.211-.813l-.055-.032-.006-.003-.003-.002c-.934-.513-1.335-1.808-.895-2.895zm2.103 27.231c.737-3.496.41-6.41-.451-8.758-1.302-3.55-3.947-6.142-6.734-7.54-.846-.425-2.149-.329-3.731.602-1.541.907-3.046 2.45-4.08 4.229a10.8 10.8 0 00-.29.53c.465.088.933.192 1.402.313 2.522.645 4.573 2.13 5.969 4.324 1.152 1.808 1.792 3.992 1.956 6.371 2.093.315 4.124.283 5.959-.07zm-9.866-.91c-.209-1.098-.576-2.033-1.064-2.8-.803-1.261-2.03-2.218-3.761-2.661a19.316 19.316 0 00-1.602-.34c.008.105.02.21.035.312.194 1.345.991 2.88 3.306 4.123 1.014.545 2.048 1 3.086 1.367zm-10.193-5.982c.011.403.044.808.102 1.213.444 3.073 2.26 5.653 5.432 7.357a25.466 25.466 0 004.686 1.946c-.257 1.777-.808 3.737-1.691 5.815a16.159 16.159 0 01-1.621-.614c-2.379-1.045-4.732-2.687-6.714-4.504-1.999-1.833-3.507-3.74-4.284-5.234-.778-1.494-.857-2.508-.747-3.126.104-.585.445-1.19 1.239-1.734.844-.577 2.075-.984 3.598-1.119zm12.452 16.853c.706-1.895 1.19-3.75 1.454-5.529 1.591.22 3.164.268 4.678.147-.115.27-.236.542-.364.817-1.244 2.693-2.905 3.95-4.728 4.396a6.825 6.825 0 01-1.04.169zm-12.435 11.346c-.184-1.127-.599-2.424-1.35-3.917-1.62-3.215-3.133-4.61-4.304-5.143-1.118-.509-2.175-.346-3.177.23-1.042.6-1.967 1.626-2.603 2.653-.315.508-.524.96-.635 1.286a2.525 2.525 0 00-.039.121c.049.127.129.314.25.56.227.462.551 1.03.966 1.633.838 1.219 1.976 2.477 3.323 3.307 1.32.815 2.822 1.212 4.509.804.911-.22 1.935-.688 3.06-1.534z" clip-rule="evenodd" fill="#F87980" fill-rule="evenodd"/><path id="e0k1nhdxyqhmi166" d="M72.652 115.887h11.179l1.25 22.594-12.429-1.452v-21.142z" fill="#BE988D"/><path id="e0k1nhdxyqhmi167" d="M89.356 115.887h11.178v21.142l-12.428-1.452 1.25-19.69z" fill="#FFCBC8"/><path id="e0k1nhdxyqhmi168" d="M106.059 115.885l12.428-1.451-1.25 22.594h-11.178v-21.143z" fill="#BE988D"/><path id="e0k1nhdxyqhmi169" d="M122.762 115.887h11.178v21.142l-12.428 1.452 1.25-22.594z" fill="#FFCBC8"/><path id="e0k1nhdxyqhmi170" d="M138.219 114.434l12.428 1.451-1.25 19.691-9.928 1.452-1.25-22.594z" fill="#BE988D"/><path id="e0k1nhdxyqhmi171" d="M129.32 63.226c-8.065-7.75-16.021-7.878-16.021-7.878s-7.956.128-16.021 7.878c-8.066 7.75-5.761 12.298-2.085 15.885 3.621 3.587 18.161 3.715 18.161 3.715s14.484-.128 18.161-3.715c3.511-3.587 5.87-8.135-2.195-15.885z" fill="#FFF1F0"/></g><g id="e0k1nhdxyqhmi172"><path id="e0k1nhdxyqhmi173" style="isolation:isolate" d="M5817.06 1024H0L823.302 0h4953.572zM2547.742 258.382l-94.41 439.649c-44.47 20.003-187.16 56.415-402.17 42.03-215.01-14.385-260.56-50.156-256.46-66.244l713.54-478.848z" opacity=".5" fill="#000" fill-rule="evenodd" stroke="none" stroke-width="1"/></g><g id="e0k1nhdxyqhmi174"><path id="e0k1nhdxyqhmi175" d="M2136.114 1024l-13.442-106.8 11.5-83.7 3.2-35.9-26.1-66.498-6.9-34-40.4-33-69.7-21.8-31.9-27.6-16-23.5 5.3-34 9.6-28.7 10.601-8.5 12.3-42-4.8-20.8-4.3-41.5-21.2-44.1-31.4-8.5-13.3-8.5-19.2-8h-35.2l-44.5 27.6-26.6 50v72.4l7.4 21.3 13.8 24.4 11.2 24.5 3.7 35.1-10.6 3.7-28.7 23.4-53.8 21.8-73.9 19.2-11.2 58.5-23.5 78.198v26.8l-18.5 104.2 17.296 86.3" fill="#2C1E25" stroke="none" stroke-width="1"/></g><script><![CDATA[!function(t,n){"object"==typeof exports&&"undefined"!=typeof module?module.exports=n():"function"==typeof define&&define.amd?define(n):(t=t||self).__SVGATOR_PLAYER__=n()}(this,(function(){"use strict";function t(n){return(t="function"==typeof Symbol&&"symbol"==typeof Symbol.iterator?function(t){return typeof t}:function(t){return t&&"function"==typeof Symbol&&t.constructor===Symbol&&t!==Symbol.prototype?"symbol":typeof t})(n)}function n(t,n){if(!(t instanceof n))throw new TypeError("Cannot call a class as a function")}function r(t,n){for(var r=0;r<n.length;r++){var e=n[r];e.enumerable=e.enumerable||!1,e.configurable=!0,"value"in e&&(e.writable=!0),Object.defineProperty(t,e.key,e)}}function e(t,n,e){return n&&r(t.prototype,n),e&&r(t,e),t}var i=Math.abs;function u(t){return t}function o(t,n,r){var e=1-r;return 3*r*e*(t*e+n*r)+r*r*r}function a(){var t=arguments.length>0&&void 0!==arguments[0]?arguments[0]:0,n=arguments.length>1&&void 0!==arguments[1]?arguments[1]:0,r=arguments.length>2&&void 0!==arguments[2]?arguments[2]:1,e=arguments.length>3&&void 0!==arguments[3]?arguments[3]:1;return t<0||t>1||r<0||r>1?null:i(t-n)<=1e-5&&i(r-e)<=1e-5?u:function(u){if(u<=0)return t>0?u*n/t:0===n&&r>0?u*e/r:0;if(u>=1)return r<1?1+(u-1)*(e-1)/(r-1):1===r&&t<1?1+(u-1)*(n-1)/(t-1):1;for(var a,l=0,f=1;l<f;){var s=o(t,r,a=(l+f)/2);if(i(u-s)<1e-5)break;s<u?l=a:f=a}return o(n,e,a)}}function l(){return 1}function f(t){return 1===t?1:0}function s(){var t=arguments.length>0&&void 0!==arguments[0]?arguments[0]:1,n=arguments.length>1&&void 0!==arguments[1]?arguments[1]:0;if(1===t){if(0===n)return f;if(1===n)return l}var r=1/t;return function(t){return t>=1?1:(t+=n*r)-t%r}}function c(t){var n=arguments.length>1&&void 0!==arguments[1]?arguments[1]:2;if(Number.isInteger(t))return t;var r=Math.pow(10,n);return Math.round(t*r)/r}var v=Math.PI/180;function h(t,n,r){return t>=.5?r:n}function y(t,n,r){return 0===t||n===r?n:t*(r-n)+n}function d(t,n,r){var e=y(t,n,r);return e<=0?0:e}function g(t,n,r){return 0===t?n:1===t?r:{x:y(t,n.x,r.x),y:y(t,n.y,r.y)}}function m(t,n,r){return 0===t?n:1===t?r:{x:d(t,n.x,r.x),y:d(t,n.y,r.y)}}function p(t,n,r){var e=function(t,n,r){return Math.round(y(t,n,r))}(t,n,r);return e<=0?0:e>=255?255:e}function b(t,n,r){return 0===t?n:1===t?r:{r:p(t,n.r,r.r),g:p(t,n.g,r.g),b:p(t,n.b,r.b),a:y(t,null==n.a?1:n.a,null==r.a?1:r.a)}}function w(t,n,r){if(0===t)return n;if(1===t)return r;var e=n.length;if(e!==r.length)return h(t,n,r);for(var i=[],u=0;u<e;u++)i.push(b(t,n[u],r[u]));return i}function A(t,n,r){var e=n.length;if(e!==r.length)return h(t,n,r);for(var i=new Array(e),u=0;u<e;u++)i[u]=y(t,n[u],r[u]);return i}function x(t,n){for(var r=[],e=0;e<t;e++)r.push(n);return r}function k(t,n){if(--n<=0)return t;var r=(t=Object.assign([],t)).length;do{for(var e=0;e<r;e++)t.push(t[e])}while(--n>0);return t}var S=/\.0+$/g;function _(t){return Number.isInteger(t)?t+"":t.toFixed(6).replace(S,"")}function M(t){var n=arguments.length>1&&void 0!==arguments[1]?arguments[1]:" ";return t&&t.length?t.map(_).join(n):""}function I(t){return _(t.x)+","+_(t.y)}function E(t){return t?null==t.a||t.a>=1?"rgb("+t.r+","+t.g+","+t.b+")":"rgba("+t.r+","+t.g+","+t.b+","+t.a+")":"transparent"}var F={f:null,i:m,u:function(t,n){return function(r){var e=n(r);t.setAttribute("rx",_(e.x)),t.setAttribute("ry",_(e.y))}}},B={f:null,i:function(t,n,r){return 0===t?n:1===t?r:{width:d(t,n.width,r.width),height:d(t,n.height,r.height)}},u:function(t,n){return function(r){var e=n(r);t.setAttribute("width",_(e.width)),t.setAttribute("height",_(e.height))}}},j=Math.sin,q=Math.cos,P=Math.acos,O=Math.asin,z=Math.tan,L=Math.atan2,C=Math.PI/180,R=180/Math.PI,T=Math.sqrt,V=function(){function t(){var r=arguments.length>0&&void 0!==arguments[0]?arguments[0]:1,e=arguments.length>1&&void 0!==arguments[1]?arguments[1]:0,i=arguments.length>2&&void 0!==arguments[2]?arguments[2]:0,u=arguments.length>3&&void 0!==arguments[3]?arguments[3]:1,o=arguments.length>4&&void 0!==arguments[4]?arguments[4]:0,a=arguments.length>5&&void 0!==arguments[5]?arguments[5]:0;n(this,t),this.m=[r,e,i,u,o,a],this.i=null,this.w=null,this.s=null}return e(t,[{key:"point",value:function(t,n){var r=this.m;return{x:r[0]*t+r[2]*n+r[4],y:r[1]*t+r[3]*n+r[5]}}},{key:"translateSelf",value:function(){var t=arguments.length>0&&void 0!==arguments[0]?arguments[0]:0,n=arguments.length>1&&void 0!==arguments[1]?arguments[1]:0;if(!t&&!n)return this;var r=this.m;return r[4]+=r[0]*t+r[2]*n,r[5]+=r[1]*t+r[3]*n,this.w=this.s=this.i=null,this}},{key:"rotateSelf",value:function(){var t=arguments.length>0&&void 0!==arguments[0]?arguments[0]:0;if(t%=360){var n=j(t*=C),r=q(t),e=this.m,i=e[0],u=e[1];e[0]=i*r+e[2]*n,e[1]=u*r+e[3]*n,e[2]=e[2]*r-i*n,e[3]=e[3]*r-u*n,this.w=this.s=this.i=null}return this}},{key:"scaleSelf",value:function(){var t=arguments.length>0&&void 0!==arguments[0]?arguments[0]:1,n=arguments.length>1&&void 0!==arguments[1]?arguments[1]:1;if(1!==t||1!==n){var r=this.m;r[0]*=t,r[1]*=t,r[2]*=n,r[3]*=n,this.w=this.s=this.i=null}return this}},{key:"skewSelf",value:function(t,n){if(n%=360,(t%=360)||n){var r=this.m,e=r[0],i=r[1],u=r[2],o=r[3];t&&(t=z(t*C),r[2]+=e*t,r[3]+=i*t),n&&(n=z(n*C),r[0]+=u*n,r[1]+=o*n),this.w=this.s=this.i=null}return this}},{key:"resetSelf",value:function(){var t=arguments.length>0&&void 0!==arguments[0]?arguments[0]:1,n=arguments.length>1&&void 0!==arguments[1]?arguments[1]:0,r=arguments.length>2&&void 0!==arguments[2]?arguments[2]:0,e=arguments.length>3&&void 0!==arguments[3]?arguments[3]:1,i=arguments.length>4&&void 0!==arguments[4]?arguments[4]:0,u=arguments.length>5&&void 0!==arguments[5]?arguments[5]:0,o=this.m;return o[0]=t,o[1]=n,o[2]=r,o[3]=e,o[4]=i,o[5]=u,this.w=this.s=this.i=null,this}},{key:"recomposeSelf",value:function(){var t=arguments.length>0&&void 0!==arguments[0]?arguments[0]:null,n=arguments.length>1&&void 0!==arguments[1]?arguments[1]:null,r=arguments.length>2&&void 0!==arguments[2]?arguments[2]:null,e=arguments.length>3&&void 0!==arguments[3]?arguments[3]:null,i=arguments.length>4&&void 0!==arguments[4]?arguments[4]:null;return this.isIdentity||this.resetSelf(),t&&(t.x||t.y)&&this.translateSelf(t.x,t.y),n&&this.rotateSelf(n),r&&(r.x&&this.skewSelf(r.x,0),r.y&&this.skewSelf(0,r.y)),!e||1===e.x&&1===e.y||this.scaleSelf(e.x,e.y),i&&(i.x||i.y)&&this.translateSelf(i.x,i.y),this}},{key:"decompose",value:function(){var t=arguments.length>0&&void 0!==arguments[0]?arguments[0]:0,n=arguments.length>1&&void 0!==arguments[1]?arguments[1]:0,r=this.m,e=r[0]*r[0]+r[1]*r[1],i=[[r[0],r[1]],[r[2],r[3]]],u=T(e);if(0===u)return{origin:{x:r[4],y:r[5]},translate:{x:t,y:n},scale:{x:0,y:0},skew:{x:0,y:0},rotate:0};i[0][0]/=u,i[0][1]/=u;var o=r[0]*r[3]-r[1]*r[2]<0;o&&(u=-u);var a=i[0][0]*i[1][0]+i[0][1]*i[1][1];i[1][0]-=i[0][0]*a,i[1][1]-=i[0][1]*a;var l=T(i[1][0]*i[1][0]+i[1][1]*i[1][1]);if(0===l)return{origin:{x:r[4],y:r[5]},translate:{x:t,y:n},scale:{x:u,y:0},skew:{x:0,y:0},rotate:0};i[1][0]/=l,i[1][1]/=l,a/=l;var f=0;return i[1][1]<0?(f=P(i[1][1])*R,i[0][1]<0&&(f=360-f)):f=O(i[0][1])*R,o&&(f=-f),a=L(a,T(i[0][0]*i[0][0]+i[0][1]*i[0][1]))*R,{origin:{x:r[4],y:r[5]},translate:{x:t,y:n},scale:{x:u,y:l},skew:{x:a,y:0},rotate:f}}},{key:"toString",value:function(){return null===this.s&&(this.s="matrix("+this.m.map(N).join(" ")+")"),this.s}},{key:"determinant",get:function(){var t=this.m;return t[0]*t[3]-t[1]*t[2]}},{key:"isIdentity",get:function(){if(null===this.i){var t=this.m;this.i=1===t[0]&&0===t[1]&&0===t[2]&&1===t[3]&&0===t[4]&&0===t[5]}return this.i}}]),t}(),D=/\.0+$/;function N(t){return Number.isInteger(t)?t:t.toFixed(14).replace(D,"")}Object.freeze({M:2,L:2,Z:0,H:1,V:1,C:6,Q:4,T:2,S:4,A:7});function G(t,n,r){return t+(n-t)*r}function $(t,n,r){var e=arguments.length>3&&void 0!==arguments[3]&&arguments[3],i={x:G(t.x,n.x,r),y:G(t.y,n.y,r)};return e&&(i.a=H(t,n)),i}function H(t,n){return Math.atan2(n.y-t.y,n.x-t.x)}function Q(t,n,r,e){var i=1-e;return i*i*t+2*i*e*n+e*e*r}function U(t,n,r,e){return 2*(1-e)*(n-t)+2*e*(r-n)}function Y(t,n,r,e){var i=arguments.length>4&&void 0!==arguments[4]&&arguments[4],u={x:Q(t.x,n.x,r.x,e),y:Q(t.y,n.y,r.y,e)};return i&&(u.a=Z(t,n,r,e)),u}function Z(t,n,r,e){return Math.atan2(U(t.y,n.y,r.y,e),U(t.x,n.x,r.x,e))}function J(t,n,r,e,i){var u=i*i;return i*u*(e-t+3*(n-r))+3*u*(t+r-2*n)+3*i*(n-t)+t}function K(t,n,r,e,i){var u=1-i;return 3*(u*u*(n-t)+2*u*i*(r-n)+i*i*(e-r))}function W(t,n,r,e,i){var u=arguments.length>5&&void 0!==arguments[5]&&arguments[5],o={x:J(t.x,n.x,r.x,e.x,i),y:J(t.y,n.y,r.y,e.y,i)};return u&&(o.a=X(t,n,r,e,i)),o}function X(t,n,r,e,i){return Math.atan2(K(t.y,n.y,r.y,e.y,i),K(t.x,n.x,r.x,e.x,i))}function tt(t,n,r){var e=arguments.length>3&&void 0!==arguments[3]&&arguments[3];if(rt(n)){if(et(r))return Y(n,r.start,r,t,e)}else if(rt(r)){if(n.end)return Y(n,n.end,r,t,e)}else{if(n.end)return r.start?W(n,n.end,r.start,r,t,e):Y(n,n.end,r,t,e);if(r.start)return Y(n,r.start,r,t,e)}return $(n,r,t,e)}function nt(t,n,r){var e=tt(t,n,r,!0);return e.a=function(t){var n=arguments.length>1&&void 0!==arguments[1]&&arguments[1];return n?t+Math.PI:t}(e.a)/v,e}function rt(t){return!t.type||"corner"===t.type}function et(t){return null!=t.start&&!rt(t)}var it=new V;var ut={f:function(t){return t?t.join(" "):""},i:function(n,r,e){if(0===n)return r;if(1===n)return e;var i=r.length;if(i!==e.length)return h(n,r,e);for(var u,o=new Array(i),a=0;a<i;a++){if((u=t(r[a]))!==t(e[a]))return h(n,r,e);if("number"===u)o[a]=y(n,r[a],e[a]);else{if(r[a]!==e[a])return h(n,r,e);o[a]=r[a]}}return o}},ot={f:null,i:A,u:function(t,n){return function(r){var e=n(r);t.setAttribute("x1",_(e[0])),t.setAttribute("y1",_(e[1])),t.setAttribute("x2",_(e[2])),t.setAttribute("y2",_(e[3]))}}},at={f:_,i:y},lt={f:_,i:function(t,n,r){var e=y(t,n,r);return e<=0?0:e>=1?1:e}},ft={f:M,i:function(t,n,r){var e,i,u,o=n.length,a=r.length;if(o!==a)if(0===o)n=x(o=a,0);else if(0===a)a=o,r=x(o,0);else{var l=(u=(e=o)*(i=a)/function(t,n){for(var r;n;)r=n,n=t%n,t=r;return t||1}(e,i))<0?-u:u;n=k(n,Math.floor(l/o)),r=k(r,Math.floor(l/a)),o=a=l}for(var f=[],s=0;s<o;s++)f.push(c(d(t,n[s],r[s]),6));return f}};function st(t,n,r,e,i,u,o,a){return n=function(t,n,r){for(var e,i,u,o=t.length-1,a={},l=0;l<=o;l++)(e=t[l]).e&&(e.e=n(e.e)),e.v&&"g"===(i=e.v).t&&i.r&&(u=r.getElementById(i.r))&&(a[i.r]=u.querySelectorAll("stop"));return a}(t,e,a),function(e){var i,u=r(e,t,ct);return u?"c"===u.t?E(u.v):"g"===u.t?(n[u.r]&&function(t,n){for(var r=0,e=t.length;r<e;r++)t[r].setAttribute("stop-color",E(n[r]))}(n[u.r],u.v),(i=u.r)?"url(#"+i+")":"none"):"none":"none"}}function ct(t,n,r){if(0===t)return n;if(1===t)return r;if(n&&r){var e=n.t;if(e===r.t)switch(n.t){case"c":return{t:e,v:b(t,n.v,r.v)};case"g":if(n.r===r.r)return{t:e,v:w(t,n.v,r.v),r:n.r}}}return h(t,n,r)}var vt={blur:m,brightness:d,contrast:d,"drop-shadow":function(t,n,r){return 0===t?n:1===t?r:{blur:m(t,n.blur,r.blur),offset:g(t,n.offset,r.offset),color:b(t,n.color,r.color)}},grayscale:d,"hue-rotate":y,invert:d,opacity:d,saturate:d,sepia:d};function ht(t,n,r){if(0===t)return n;if(1===t)return r;var e=n.length;if(e!==r.length)return h(t,n,r);for(var i,u=[],o=0;o<e;o++){if(n[o].type!==r[o].type)return n;if(!(i=vt[n[o].type]))return h(t,n,r);u.push({type:n.type,value:i(t,n[o].value,r[o].value)})}return u}var yt={blur:function(t){return t?function(n){t.setAttribute("stdDeviation",I(n))}:null},brightness:function(t,n,r){return(t=gt(r,n))?function(n){n=_(n),t.map((function(t){return t.setAttribute("slope",n)}))}:null},contrast:function(t,n,r){return(t=gt(r,n))?function(n){var r=_((1-n)/2);n=_(n),t.map((function(t){t.setAttribute("slope",n),t.setAttribute("intercept",r)}))}:null},"drop-shadow":function(t,n,r){var e=r.getElementById(n+"-blur");if(!e)return null;var i=r.getElementById(n+"-offset");if(!i)return null;var u=r.getElementById(n+"-flood");return u?function(t){e.setAttribute("stdDeviation",I(t.blur)),i.setAttribute("dx",_(t.offset.x)),i.setAttribute("dy",_(t.offset.y)),u.setAttribute("flood-color",E(t.color))}:null},grayscale:function(t){return t?function(n){t.setAttribute("values",M(function(t){return[.2126+.7874*(t=1-t),.7152-.7152*t,.0722-.0722*t,0,0,.2126-.2126*t,.7152+.2848*t,.0722-.0722*t,0,0,.2126-.2126*t,.7152-.7152*t,.0722+.9278*t,0,0,0,0,0,1,0]}(n)))}:null},"hue-rotate":function(t){return t?function(n){return t.setAttribute("values",_(n))}:null},invert:function(t,n,r){return(t=gt(r,n))?function(n){n=_(n)+" "+_(1-n),t.map((function(t){return t.setAttribute("tableValues",n)}))}:null},opacity:function(t,n,r){return(t=r.getElementById(n+"-A"))?function(n){return t.setAttribute("tableValues","0 "+_(n))}:null},saturate:function(t){return t?function(n){return t.setAttribute("values",_(n))}:null},sepia:function(t){return t?function(n){return t.setAttribute("values",M(function(t){return[.393+.607*(t=1-t),.769-.769*t,.189-.189*t,0,0,.349-.349*t,.686+.314*t,.168-.168*t,0,0,.272-.272*t,.534-.534*t,.131+.869*t,0,0,0,0,0,1,0]}(n)))}:null}};var dt=["R","G","B"];function gt(t,n){var r=dt.map((function(r){return t.getElementById(n+"-"+r)||null}));return-1!==r.indexOf(null)?null:r}var mt={fill:st,"fill-opacity":lt,stroke:st,"stroke-opacity":lt,"stroke-width":at,"stroke-dashoffset":{f:_,i:y},"stroke-dasharray":ft,opacity:lt,transform:function(n,r,e,i){if(!(n=function(n,r){if(!n||"object"!==t(n))return null;var e=!1;for(var i in n)n.hasOwnProperty(i)&&(n[i]&&n[i].length?(n[i].forEach((function(t){t.e&&(t.e=r(t.e))})),e=!0):delete n[i]);return e?n:null}(n,i)))return null;var u=function(t,i,u){var o=arguments.length>3&&void 0!==arguments[3]?arguments[3]:null;return n[t]?e(i,n[t],u):r&&r[t]?r[t]:o};return r&&r.a&&n.o?function(t){var r=e(t,n.o,nt);return it.recomposeSelf(r,u("r",t,y,0)+r.a,u("k",t,g),u("s",t,g),u("t",t,g)).toString()}:function(t){return it.recomposeSelf(u("o",t,tt,null),u("r",t,y,0),u("k",t,g),u("s",t,g),u("t",t,g)).toString()}},"#filter":function(t,n,r,e,i,u,o,a){if(!n.items||!t||!t.length)return null;var l=function(t,n){var r=(t=t.map((function(t){return t&&yt[t[0]]?(n.getElementById(t[1]),yt[t[0]](n.getElementById(t[1]),t[1],n)):null}))).length;return function(n){for(var e=0;e<r;e++)t[e]&&t[e](n[e].value)}}(n.items,a);return l?(t=function(t,n){return t.map((function(t){return t.e=n(t.e),t}))}(t,e),function(n){l(r(n,t,ht))}):null},"#line":ot,points:{f:M,i:A},d:ut,r:at,"#size":B,"#radius":F,_:function(t,n){if(Array.isArray(t))for(var r=0;r<t.length;r++)this[t[r]]=n;else this[t]=n}},pt=function(){function t(r){n(this,t),this.list=r,this.length=r.length}return e(t,[{key:"setAttribute",value:function(t,n){for(var r=this.list,e=0;e<this.length;e++)r[e].setAttribute(t,n)}},{key:"removeAttribute",value:function(t){for(var n=this.list,r=0;r<this.length;r++)n[r].removeAttribute(t)}},{key:"style",value:function(t,n){for(var r=this.list,e=0;e<this.length;e++)r[e].style[t]=n}}]),t}(),bt=/-./g,wt=function(t,n){return n.toUpperCase()};function At(t){return"function"==typeof t?t:h}function xt(t){return t?"function"==typeof t?t:Array.isArray(t)?function(t){var n=arguments.length>1&&void 0!==arguments[1]?arguments[1]:u;if(!Array.isArray(t))return n;switch(t.length){case 1:return s(t[0])||n;case 2:return s(t[0],t[1])||n;case 4:return a(t[0],t[1],t[2],t[3])||n}return n}(t,null):function(t,n){var r=arguments.length>2&&void 0!==arguments[2]?arguments[2]:u;switch(t){case"linear":return u;case"steps":return s(n.steps||1,n.jump||0)||r;case"bezier":case"cubic-bezier":return a(n.x1||0,n.y1||0,n.x2||0,n.y2||0)||r}return r}(t.type,t.value,null):null}function kt(t,n,r){var e=arguments.length>3&&void 0!==arguments[3]&&arguments[3],i=n.length-1;if(t<=n[0].t)return e?[0,0,n[0].v]:n[0].v;if(t>=n[i].t)return e?[i,1,n[i].v]:n[i].v;var u,o=n[0],a=null;for(u=1;u<=i;u++){if(!(t>n[u].t)){a=n[u];break}o=n[u]}return null==a?e?[i,1,n[i].v]:n[i].v:o.t===a.t?e?[u,1,a.v]:a.v:(t=(t-o.t)/(a.t-o.t),o.e&&(t=o.e(t)),e?[u,t,r(t,o.v,a.v)]:r(t,o.v,a.v))}function St(t,n){var r=arguments.length>2&&void 0!==arguments[2]?arguments[2]:null;return t&&t.length?"function"!=typeof n?null:("function"!=typeof r&&(r=null),function(e){var i=kt(e,t,n);return null!=i&&r&&(i=r(i)),i}):null}function _t(t,n){return t.t-n.t}function Mt(n,r,e,i,u){var o,a="@"===e[0],l="#"===e[0],f=mt[e],s=h;switch(a?(o=e.substr(1),e=o.replace(bt,wt)):l&&(e=e.substr(1)),t(f)){case"function":if(s=f(i,u,kt,xt,e,a,r,n),l)return s;break;case"string":s=St(i,At(f));break;case"object":if((s=St(i,At(f.i),f.f))&&"function"==typeof f.u)return f.u(r,s,e,a,n)}return s?function(t,n,r){var e=arguments.length>3&&void 0!==arguments[3]&&arguments[3];if(e)return t instanceof pt?function(e){return t.style(n,r(e))}:function(e){return t.style[n]=r(e)};if(Array.isArray(n)){var i=n.length;return function(e){var u=r(e);if(null==u)for(var o=0;o<i;o++)t[o].removeAttribute(n);else for(var a=0;a<i;a++)t[a].setAttribute(n,u)}}return function(e){var i=r(e);null==i?t.removeAttribute(n):t.setAttribute(n,i)}}(r,e,s,a):null}function It(n,r,e,i){if(!i||"object"!==t(i))return null;var u=null,o=null;return Array.isArray(i)?o=function(t){if(!t||!t.length)return null;for(var n=0;n<t.length;n++)t[n].e&&(t[n].e=xt(t[n].e));return t.sort(_t)}(i):(o=i.keys,u=i.data||null),o?Mt(n,r,e,o,u):null}function Et(t,n,r){if(!r)return null;var e=[];for(var i in r)if(r.hasOwnProperty(i)){var u=It(t,n,i,r[i]);u&&e.push(u)}return e.length?e:null}function Ft(t,n){if(!n.duration||n.duration<0)return null;var r=function(t,n){if(!n)return null;var r=[];if(Array.isArray(n))for(var e=n.length,i=0;i<e;i++){var u=n[i];if(2===u.length){var o=null;if("string"==typeof u[0])o=t.getElementById(u[0]);else if(Array.isArray(u[0])){o=[];for(var a=0;a<u[0].length;a++)if("string"==typeof u[0][a]){var l=t.getElementById(u[0][a]);l&&o.push(l)}o=o.length?1===o.length?o[0]:new pt(o):null}if(o){var f=Et(t,o,u[1]);f&&(r=r.concat(f))}}}else for(var s in n)if(n.hasOwnProperty(s)){var c=t.getElementById(s);if(c){var v=Et(t,c,n[s]);v&&(r=r.concat(v))}}return r.length?r:null}(t,n.elements);return r?function(t,n){var r=arguments.length>2&&void 0!==arguments[2]?arguments[2]:1/0,e=arguments.length>3&&void 0!==arguments[3]?arguments[3]:1,i=arguments.length>4&&void 0!==arguments[4]&&arguments[4],u=arguments.length>5&&void 0!==arguments[5]?arguments[5]:1,o=t.length,a=e>0?n:0;i&&r%2==0&&(a=n-a);var l=null;return function(f,s){var c=f%n,v=1+(f-c)/n;s*=e,i&&v%2==0&&(s=-s);var h=!1;if(v>r)c=a,h=!0,-1===u&&(c=e>0?0:n);else if(s<0&&(c=n-c),c===l)return!1;l=c;for(var y=0;y<o;y++)t[y](c);return h}}(r,n.duration,n.iterations||1/0,n.direction||1,!!n.alternate,n.fill||1):null}var Bt=function(){function t(r){var e=arguments.length>1&&void 0!==arguments[1]?arguments[1]:{};n(this,t),this._id=0,this._running=!1,this._animations=r,this.direction=e.direction||1,this.speed=e.speed||1,this.fps=e.fps||100,this.offset=e.offset||0}return e(t,[{key:"_start",value:function(){var t=this,n=arguments.length>0&&void 0!==arguments[0]?arguments[0]:0,r=-1/0,e=null,i={},u=function u(o){t._running=!0,null==e&&(e=o);var a=Math.round((o-e+n)*t.speed),l=t.fps?1e3/t.fps:0;if(a>r+l){t.offset=a,r=a;for(var f=t._animations,s=f.length,c=0,v=0;v<s;v++)i[v]?c++:(i[v]=f[v](a,t.direction),i[v]&&c++);if(c===s)return void t._stop()}t._id=window.requestAnimationFrame(u)};this._id=window.requestAnimationFrame(u)}},{key:"_stop",value:function(){this._id&&window.cancelAnimationFrame(this._id),this._running=!1}},{key:"play",value:function(){this._running||this._start(this.offset)}},{key:"stop",value:function(){this._stop(),this.offset=0;var t=this.direction,n=this._animations;requestAnimationFrame((function(){for(var r=0;r<n.length;r++)n[r](0,t)}))}},{key:"restart",value:function(){this._stop(),this.offset=0,this._start()}},{key:"pause",value:function(){this._stop()}},{key:"reverse",value:function(){this.direction=-this.direction}}],[{key:"build",value:function(n){if(!(n=function(t){if(!t||!t.root||!Array.isArray(t.animations))return null;var n=window.document.getElementById(t.root);if(!n)return null;var r=t.animations.map((function(t){return Ft(n,t)})).filter((function(t){return!!t}));return r.length?{element:n,animations:r,options:t.options||void 0}:null}(n)))return null;var r=n.element,e=n.options||{},i=new t(n.animations,n.options);return function(t,n,r){var e=arguments.length>3&&void 0!==arguments[3]?arguments[3]:null;if("click"===r){var i=function r(){n.removeEventListener("click",r),t.play()};return void n.addEventListener("click",i)}if("hover"===r)return n.addEventListener("mouseenter",(function(){return t.play()})),void n.addEventListener("mouseleave","freeze"===e?function(){return t.pause()}:function(){return t.stop()});t.play()}(i,r,e.start,e.hover),i}}]),t}();return function(){for(var t=0,n=["ms","moz","webkit","o"],r=0;r<n.length&&!window.requestAnimationFrame;++r)window.requestAnimationFrame=window[n[r]+"RequestAnimationFrame"],window.cancelAnimationFrame=window[n[r]+"CancelAnimationFrame"]||window[n[r]+"CancelRequestAnimationFrame"];window.requestAnimationFrame||(window.requestAnimationFrame=function(n){var r=Date.now(),e=Math.max(0,16-(r-t)),i=window.setTimeout((function(){n(r+e)}),e);return t=r+e,i},window.cancelAnimationFrame=window.clearTimeout)}(),Bt}));
__SVGATOR_PLAYER__.build({"root":"e0k1nhdxyqhmi1","animations":[{"duration":10000,"direction":1,"iterations":"Infinite","fill":1,"alternate":false,"elements":{"e0k1nhdxyqhmi67":{"d":[{"t":0,"v":["M",31.5581,301.48,"L",390.463,228.747,"L",366.427,567.322,"L",14.4594,542.333,"L",31.5581,301.48,"Z"]},{"t":5000,"v":["M",37.44949999999997,163.78599999999994,"L",391.2249182062529,381.1078951983189,"L",366.427,567.322,"L",14.4594,542.333,"L",37.44949999999997,163.78599999999994,"Z"]},{"t":10000,"v":["M",31.5581,301.48,"L",390.463,228.747,"L",366.427,567.322,"L",14.4594,542.333,"L",31.5581,301.48,"Z"]}]},"e0k1nhdxyqhmi77":{"transform":{"keys":{"o":[{"t":0,"v":{"x":-0.005205912499666621,"y":-1.099662562499901,"type":"corner"}},{"t":5000,"v":{"x":-28.292799074999948,"y":48.19540279999955,"type":"corner"}},{"t":10000,"v":{"x":-0.005205912499666621,"y":-1.099662562499901,"type":"corner"}}]}}},"e0k1nhdxyqhmi81":{"points":[{"t":0,"v":[170.235,10.063,224.942,310.818,410.953,310.818,410.953,10.063,170.235,10.063]},{"t":5000,"v":[269.20757109209933,10.398473040003196,54.52514398638016,311.20209039566987,410.953,310.818,410.953,10.063,269.20757109209933,10.398473040003196]},{"t":10000,"v":[170.235,10.063,224.942,310.818,410.953,310.818,410.953,10.063,170.235,10.063]}]},"e0k1nhdxyqhmi83":{"transform":{"keys":{"o":[{"t":0,"v":{"x":346.5315460452117,"y":-13.905393582242255,"type":"corner"}},{"t":2000,"v":{"x":-352.1773289005898,"y":9.112743158945767,"type":"corner"}},{"t":2010,"v":{"x":-334.43550251957873,"y":-305.91740768808205,"type":"corner"}},{"t":2020,"v":{"x":383.4382286387446,"y":-329.68390527710136,"type":"corner"}},{"t":2030,"v":{"x":346.5315460452117,"y":-13.905393582242255,"type":"corner"}},{"t":4000,"v":{"x":-352.1773289005898,"y":9.112743158945767,"type":"corner"}},{"t":4010,"v":{"x":-334.43550251957873,"y":-305.91740768808205,"type":"corner"}},{"t":4020,"v":{"x":383.4382286387446,"y":-329.68390527710136,"type":"corner"}},{"t":4030,"v":{"x":346.5315460452117,"y":-13.905393582242255,"type":"corner"}},{"t":6000,"v":{"x":-352.1773289005898,"y":9.112743158945767,"type":"corner"}},{"t":6010,"v":{"x":-334.43550251957873,"y":-305.91740768808205,"type":"corner"}},{"t":6020,"v":{"x":383.4382286387446,"y":-329.68390527710136,"type":"corner"}},{"t":6030,"v":{"x":346.5315460452117,"y":-13.905393582242255,"type":"corner"}},{"t":8000,"v":{"x":-352.1773289005898,"y":9.112743158945767,"type":"corner"}},{"t":8010,"v":{"x":-334.43550251957873,"y":-305.91740768808205,"type":"corner"}},{"t":8020,"v":{"x":383.4382286387446,"y":-329.68390527710136,"type":"corner"}},{"t":8030,"v":{"x":346.5315460452117,"y":-13.905393582242255,"type":"corner"}},{"t":10000,"v":{"x":-352.1773289005898,"y":9.112743158945767,"type":"corner"}}]}}},"e0k1nhdxyqhmi98":{"transform":{"data":{"o":{"x":229.31128692000584,"y":329.72666930999986,"type":"corner"},"t":{"x":-229.31128692000584,"y":-329.72666930999986}},"keys":{"r":[{"t":0,"v":-3},{"t":200,"v":3},{"t":400,"v":-3},{"t":600,"v":3},{"t":800,"v":-3},{"t":1000,"v":3},{"t":1200,"v":-3},{"t":1400,"v":3},{"t":1600,"v":-3},{"t":1800,"v":3},{"t":2000,"v":-3},{"t":2200,"v":3},{"t":2400,"v":-3},{"t":2600,"v":3},{"t":2800,"v":-3},{"t":3000,"v":3},{"t":3200,"v":-3},{"t":3400,"v":3},{"t":3600,"v":-3},{"t":3800,"v":3},{"t":4000,"v":-3},{"t":4200,"v":3},{"t":4400,"v":-3},{"t":4600,"v":3},{"t":4800,"v":-3},{"t":5000,"v":3},{"t":5200,"v":-3},{"t":5400,"v":3},{"t":5600,"v":-3},{"t":5800,"v":3},{"t":6000,"v":-3},{"t":6200,"v":3},{"t":6400,"v":-3},{"t":6600,"v":3},{"t":6800,"v":-3},{"t":7000,"v":3},{"t":7200,"v":-3},{"t":7400,"v":3},{"t":7600,"v":-3},{"t":7800,"v":3},{"t":8000,"v":-3},{"t":8200,"v":3},{"t":8400,"v":-3},{"t":8600,"v":3},{"t":8800,"v":-3},{"t":9000,"v":3},{"t":9200,"v":-3},{"t":9400,"v":3},{"t":9600,"v":-3},{"t":9800,"v":3},{"t":10000,"v":-3}]}}},"e0k1nhdxyqhmi135":{"transform":{"data":{"o":{"x":2332.4721357350004,"y":309.1592140750001,"type":"corner"},"s":{"x":1.1500000000000001,"y":1.1500000000000001},"t":{"x":-115.00934601303925,"y":-97.72673010434707}},"keys":{"r":[{"t":0,"v":-3},{"t":200,"v":3},{"t":400,"v":-3},{"t":600,"v":3},{"t":800,"v":-3},{"t":1000,"v":3},{"t":1200,"v":-3},{"t":1400,"v":3},{"t":1600,"v":-3},{"t":1800,"v":3},{"t":2000,"v":-3},{"t":2200,"v":3},{"t":2400,"v":-3},{"t":2600,"v":3},{"t":2800,"v":-3},{"t":3000,"v":3},{"t":3200,"v":-3},{"t":3400,"v":3},{"t":3600,"v":-3},{"t":3800,"v":3},{"t":4000,"v":-3},{"t":4200,"v":3},{"t":4400,"v":-3},{"t":4600,"v":3},{"t":4800,"v":-3},{"t":5000,"v":3},{"t":5200,"v":-3},{"t":5400,"v":3},{"t":5600,"v":-3},{"t":5800,"v":3},{"t":6000,"v":-3},{"t":6200,"v":3},{"t":6400,"v":-3},{"t":6600,"v":3},{"t":6800,"v":-3},{"t":7000,"v":3},{"t":7200,"v":-3},{"t":7400,"v":3},{"t":7600,"v":-3},{"t":7800,"v":3},{"t":8000,"v":-3},{"t":8200,"v":3},{"t":8400,"v":-3},{"t":8600,"v":3},{"t":8800,"v":-3},{"t":9000,"v":3},{"t":9200,"v":-3},{"t":9400,"v":3},{"t":9600,"v":-3},{"t":9800,"v":3},{"t":10000,"v":-3}]}}},"e0k1nhdxyqhmi173":{"d":[{"t":0,"v":["M",5817.06,1024,"L",0,1024,"L",823.3019,0,"L",5776.8744,0,"Z","M",2547.7423,258.382,"L",2453.3323,698.031,"C",2408.8616,718.034,2266.1723,754.4459999999999,2051.1623,740.0609999999999,"C",1836.1522999999997,725.6759999999999,1790.6018,689.905,1794.7023,673.8169999999999,"L",2508.2423,194.96899999999988,"Z"]},{"t":2000,"v":["M",5817.06,1024,"L",0,1024,"L",823.3019,0,"L",5776.8744,0,"Z","M",2502.4232,185.707,"L",2453.3323,698.031,"C",2408.8616,718.034,2266.1723,754.4459999999999,2051.1623,740.0609999999999,"C",1836.1522999999997,725.6759999999999,1790.6018,689.905,1794.7023,673.8169999999999,"L",2493.7918,170.41,"Z"]},{"t":4000,"v":["M",5817.06,1024,"L",0,1024,"L",823.3019,0,"L",5776.8744,0,"Z","M",2567.3489,290.839,"L",2453.3323,698.031,"C",2408.8616,718.034,2266.1723,754.4459999999999,2051.1623,740.0609999999999,"C",1836.1522999999997,725.6759999999999,1790.6018,689.905,1794.7023,673.8169999999999,"L",2491.383811,166.701383,"Z"]},{"t":6000,"v":["M",5817.06,1024,"L",0,1024,"L",823.3019,0,"L",5776.8744,0,"Z","M",2519.2247,212.691,"L",2453.3323,698.031,"C",2408.8616,718.034,2266.1723,754.4459999999999,2051.1623,740.0609999999999,"C",1836.1522999999997,725.6759999999999,1790.6018,689.905,1794.7023,673.8169999999999,"L",2510.8432000000003,199.639,"Z"]},{"t":8000,"v":["M",5817.06,1024,"L",0,1024,"L",823.3019,0,"L",5776.8744,0,"Z","M",2567.3489,290.839,"L",2453.3323,698.031,"C",2408.8616,718.034,2266.1723,754.4459999999999,2051.1623,740.0609999999999,"C",1836.1522999999997,725.6759999999999,1790.6018,689.905,1794.7023,673.8169999999999,"L",2559.6327,277.4010000000001,"Z"]},{"t":10000,"v":["M",5817.06,1024,"L",0,1024,"L",823.3019,0,"L",5776.8744,0,"Z","M",2547.7423,258.382,"L",2453.3323,698.031,"C",2408.8616,718.034,2266.1723,754.4459999999999,2051.1623,740.0609999999999,"C",1836.1522999999997,725.6759999999999,1790.6018,689.905,1794.7023,673.8169999999999,"L",2508.2423,194.96899999999988,"Z"]}]}}}],"options":{"start":"load","hover":"freeze"}})]]></script></svg>