<svg width="353" height="624" viewBox="0 0 353 624" fill="none" xmlns="http://www.w3.org/2000/svg">
<path d="M152.451 249.974H193.057C191.665 280.44 190.785 341.267 198.411 340.849C207.942 340.327 192.013 363.568 203.633 366.18C215.254 368.791 196.321 434.858 203.633 448.568C210.945 462.277 203.633 510.326 203.633 516.071C203.633 521.816 195.669 564.12 203.633 576.263C211.598 588.406 208.464 659.173 208.464 665.963C208.464 672.752 204.678 715.578 208.464 736.208C212.251 756.838 208.203 792.222 206.114 801.1C204.025 809.979 209.509 815.463 177.781 818.074C172.966 818.47 130.254 820.685 110.147 813.243C90.0396 805.801 78.5496 806.453 58.9645 801.1C39.3794 795.747 40.5545 771.07 26.8449 741.039C13.1353 711.009 36.768 666.485 26.8449 643.897C16.9218 621.309 28.934 594.803 26.8449 576.263C24.7558 557.722 40.0322 541.924 36.768 516.071C34.1567 495.389 43.427 412.488 48.3885 373.622L152.451 249.974Z" fill="#3F7AD3"/>
<path d="M197.89 332.755C203.844 302.986 195.41 264.729 190.448 249.322L225.31 236.788L283.543 332.755C290.028 392.729 303.441 516.464 305.217 531.609C307.437 550.542 313.312 546.494 312.137 574.436C310.962 602.377 327.546 615.405 329.894 621.832C332.375 628.621 329.894 680.718 334.464 703.045C339.034 725.372 336.684 724.066 334.464 736.731C332.245 749.396 337.859 759.58 341.906 775.51C345.954 791.439 327.544 802.407 325.847 806.454C324.149 810.502 301.822 814.941 296.077 806.454C290.332 797.967 208.728 814.941 191.623 812.069C177.94 809.771 198.935 798.751 202.069 788.958C203.374 774.335 204.941 749.004 202.069 718.191C199.196 687.377 195.01 677.421 201.024 665.702C206.116 655.779 203.505 596.11 196.063 581.225C190.109 569.317 199.327 537.485 201.808 522.47C203.548 508.76 205.202 477.006 197.89 459.667C188.751 437.992 201.808 396.733 197.89 391.641C193.973 386.549 190.448 369.967 197.89 332.755Z" fill="#2E5A9C"/>
<path d="M117.72 468.415C118.576 465.544 118.885 460.784 118.827 455.01C127.928 454.549 136.18 454.102 140.7 453.792C154.018 452.878 185.615 444.783 194.233 445.305C201.127 445.723 211.032 442.607 215.124 440.996L217.996 387.986H181.045C169.556 387.986 133.519 391.772 123.596 387.986C115.657 384.957 84.2514 386.724 69.5408 387.986L51.5224 438.646L65.6237 446.399V468.415C67.8869 487.826 71.0553 530.043 65.6237 543.622C58.8342 560.596 64.9709 592.324 58.1814 605.903C51.3919 619.482 55.4395 650.557 58.1814 666.225C60.9233 681.893 50.739 727.723 50.739 744.044C50.739 760.365 100.877 744.044 108.972 744.044C117.067 744.044 113.673 707.485 108.972 690.511C104.272 673.537 108.319 624.835 113.673 601.203C117.955 582.296 118.155 554.938 117.72 543.622C116.371 523.08 114.482 479.279 117.72 468.415Z" fill="#2E5A9C"/>
<path d="M323.601 326.966C323.601 326.966 346.265 459.665 340.727 470.32C335.187 480.882 321.573 480.441 317.205 487.626C270.069 501.037 275.758 491.708 275.758 491.708C275.758 491.708 289.302 406.527 281.418 388.925C273.122 370.221 282.267 334.945 282.267 334.945L323.601 326.966Z" fill="#3F7AD3"/>
<path d="M11.117 399.929C9.84857 356.225 43.4938 306.679 43.4938 306.679C43.4938 306.679 49.0425 296.396 80.4859 324.272C63.6705 371.194 83.8092 465.055 83.1393 490.148C83.1393 502.424 52.68 501.47 36.0747 501.761C19.4695 502.053 31.4136 484.574 19.7608 468.26C10.4385 455.208 10.114 417.268 11.117 399.929Z" fill="#3F7AD3"/>
<path d="M223.594 340.031L203.122 217.209L176.857 201.567L150.786 220.299C141.838 259.759 123.941 340.843 123.941 349.494C123.941 360.309 172.609 363.399 188.638 353.55C201.461 345.67 211.877 347.563 215.482 349.494L223.594 340.031Z" fill="#3F7AD3"/>
<path d="M220.76 92.7511C222.521 87.5692 222.227 80.326 221.861 77.3521L214.527 56.5756L196.316 37.2656L164.05 43.8652L135.207 52.2981L130.44 85.9071L146.451 137.604L161.973 172.557L175.05 163.147L201.694 155.447L219.416 157.525C219.131 152.31 218.389 140.904 217.705 136.993C216.849 132.104 218.56 99.2285 220.76 92.7511Z" fill="#F3C4B7"/>
<path d="M126.512 178.871C130.139 175.244 142.154 170.841 147.708 169.092C166.192 163.499 163.563 204.67 165.174 205.959C166.784 207.249 165.658 213.009 166.142 220.79C166.625 228.571 163.563 263.026 163.563 268.668C163.563 274.31 163.402 307.357 163.563 310.742C163.724 314.128 163.403 343.059 162.113 347.82C160.823 352.581 155.664 351.044 146.637 352.656C137.609 354.268 117.619 348.948 113.266 347.82C108.913 346.691 98.5956 340.243 94.8877 341.21C91.1799 342.177 85.2572 341.481 80.1598 343.059C75.0624 344.636 58.9207 346.578 52.731 346.457C46.5413 346.335 30.2781 349.369 27.608 349.612C24.938 349.855 17.1705 350.947 16.8064 340.146C16.4423 329.345 18.2175 326.793 20.8517 314.446C23.4859 302.098 35.9983 285.471 39.2911 275.758C42.5838 266.044 48.1815 258.801 50.1571 247.77C52.1328 236.74 61.1934 216.895 66.9296 213.009C72.6658 209.123 84.3233 200.704 93.3902 195.061C102.457 189.417 121.979 183.404 126.512 178.871Z" fill="#F87980"/>
<path d="M200.933 254.641C199.148 241.475 199.038 227.699 199.207 222.457C208.43 205.848 227.323 172.628 229.109 172.628C231.341 172.628 234.688 179.323 241.383 180.16C248.079 180.997 259.237 195.782 267.048 196.061C274.859 196.34 285.739 208.335 295.224 213.635C304.709 218.935 323.4 281.142 325.353 291.464C327.306 301.785 340.138 331.912 330.095 338.049C320.052 344.186 319.495 337.77 298.014 338.049C276.534 338.328 236.362 352.276 219.345 350.881C202.328 349.487 212.092 338.328 205.676 312.664C199.26 287 203.165 271.1 200.933 254.641Z" fill="#F87980"/>
<path d="M139.517 131.321C144.089 136.366 146.809 158.781 147.598 169.358C148.324 177.088 151.978 188.625 152.108 196.686C152.238 204.748 156.789 213.979 166.151 212.939C175.513 211.899 180.714 214.239 188.386 218.66C196.057 223.081 201.258 223.081 213.09 220.48C224.921 217.88 232.205 205.918 234.805 197.336C237.406 188.755 231.555 173.282 227.914 168.212C224.273 163.141 221.022 145.198 219.202 143.117C217.746 141.453 217.512 134.762 217.577 131.624C217.245 132.787 216.912 133.397 216.137 136.056C215.361 138.715 218.685 152.73 217.577 152.84C216.469 152.951 217.078 150.957 213.09 150.735C209.101 150.514 212.834 153.394 197.856 153.788C182.877 154.182 164.745 166.599 162.183 165.219C159.62 163.839 158.438 148.861 150.751 134.671C143.065 120.482 139.517 96.6348 137.152 88.7515C134.787 80.8683 134.393 67.8609 137.152 65.2988C139.911 62.7368 147.598 66.8755 152.722 60.5689C157.847 54.2623 158.438 57.0214 163.759 58.0068C169.081 58.9922 173.811 47.1674 182.286 43.2257C189.066 40.0724 199.958 47.2987 204.556 51.3061C214.017 55.6419 218.944 76.3354 221.309 77.912C223.674 79.4887 227.176 68.5687 217.762 54.6564C200.024 28.4446 215.002 27.6564 199.038 19.1819C183.074 10.7074 186.227 8.34238 158.438 12.4811C130.648 16.6198 127.298 31.9921 125.327 37.9046C123.356 43.817 119.217 89.934 125.327 100.774C131.437 111.613 133.802 125.014 139.517 131.321Z" fill="#2C1E25"/>
<path d="M212.388 158.529C209.219 155.61 202.729 157.938 199.88 159.467C194.252 162.489 188.832 162.177 180.494 164.574C172.156 166.971 176.533 170.202 176.533 173.433C176.533 176.664 179.243 178.748 186.122 178.957C193.001 179.165 195.92 175.309 200.402 175.309C204.883 175.309 205.196 180.103 212.388 175.309C219.579 170.515 216.349 162.177 212.388 158.529Z" fill="#F3C4B7"/>
<path d="M154.537 77.8178C160.9 75.3115 165.543 78.0588 167.069 79.7458C162.008 87.9397 157.429 83.6018 155.742 86.7348C150.922 90.9764 143.611 87.5381 140.559 85.2888C137.908 84.5658 146.584 80.9508 154.537 77.8178Z" fill="#2C1E25"/>
<path d="M220.814 71.5519C222.501 69.1419 206.113 67.455 202.739 70.5879C200.688 73.1511 196.971 73.8843 194.81 73.9619C193.389 76.3719 201.534 76.6128 204.185 77.8178C206.836 79.0229 219.127 73.9619 220.814 71.5519Z" fill="#2C1E25"/>
<path d="M194.062 73.9619C194.281 73.971 194.533 73.9719 194.81 73.9619M194.81 73.9619C196.971 73.8843 200.688 73.1511 202.739 70.5879C206.113 67.455 222.501 69.1419 220.814 71.5519C219.127 73.9619 206.836 79.0229 204.185 77.8178C201.534 76.6128 193.389 76.3719 194.81 73.9619ZM167.069 79.7458C165.543 78.0588 160.9 75.3115 154.537 77.8178C146.584 80.9508 137.908 84.5658 140.559 85.2888C143.611 87.5381 150.922 90.9764 155.742 86.7348C157.429 83.6018 162.008 87.9397 167.069 79.7458Z" stroke="black"/>
<mask id="mask0" mask-type="alpha" maskUnits="userSpaceOnUse" x="147" y="95" width="21" height="14">
<path d="M148.363 102.627C149.055 100.328 154.077 97.7441 156.501 96.7398C159.907 95.0713 166.233 95.5277 167.168 98.8523C168.103 102.177 163.324 104.012 160.172 105.467C157.021 106.921 150.856 109.311 148.363 108.237C145.869 107.164 147.497 105.501 148.363 102.627Z" fill="#FFF1F0"/>
</mask>
<g mask="url(#mask0)">
<path d="M148.363 102.627C149.055 100.328 154.077 97.7441 156.501 96.7398C159.907 95.0713 166.233 95.5277 167.168 98.8523C168.103 102.177 163.324 104.012 160.172 105.467C157.021 106.921 150.856 109.311 148.363 108.237C145.869 107.164 147.497 105.501 148.363 102.627Z" fill="#FFF1F0"/>
<path d="M158.666 101.821C157.628 99.3479 159.557 95.8285 160.651 94.3779L172.6 98.1951C169.978 100.88 164.553 106.249 163.82 106.249C162.904 106.249 159.964 104.913 158.666 101.821Z" fill="#2C1E25"/>
</g>
<path d="M206.11 117.34C195.988 107.7 189.24 82.8776 185.384 69.8637C183.893 64.7925 180.112 65.7026 178.931 72.3961C177.75 79.0896 186.65 123.487 186.65 123.487C186.65 123.487 187.623 127.098 186.107 126.739C182.974 125.775 178.394 131.318 189.481 138.066C200.567 144.814 214.064 127.462 206.11 117.34Z" fill="#EAB9AA"/>
<mask id="mask1" mask-type="alpha" maskUnits="userSpaceOnUse" x="196" y="87" width="22" height="12">
<path d="M196.034 94.5004C195.662 95.7196 198.504 97.0121 199.971 97.5059C203.909 98.6913 206.279 98.6488 210.343 97.0825C214.407 95.5162 216.482 93.4843 217.201 92.6377C217.921 91.791 217.667 90.6058 215.127 88.7855C212.587 86.9653 210.216 87.0499 205.178 87.6849C200.141 88.3199 196.5 92.9764 196.034 94.5004Z" fill="#FFF1F0"/>
</mask>
<g mask="url(#mask1)">
<path d="M196.034 94.5004C195.662 95.7196 198.504 97.0121 199.971 97.5059C203.909 98.6913 206.279 98.6488 210.343 97.0825C214.407 95.5162 216.482 93.4843 217.201 92.6377C217.921 91.791 217.667 90.6058 215.127 88.7855C212.587 86.9653 210.216 87.0499 205.178 87.6849C200.141 88.3199 196.5 92.9764 196.034 94.5004Z" fill="#FFF1F0"/>
<path d="M207.256 93.0146C205.359 90.2001 207.128 87.1765 208.25 86.0165L222.094 85.4812C220.271 89.7005 216.082 98.1466 213.91 98.1772C211.195 98.2155 209.627 96.5329 207.256 93.0146Z" fill="#2C1E25"/>
</g>
<path d="M197.927 167.651C201.074 167.476 205.164 165.198 206.816 164.081C208.349 163.139 208.565 162.041 208.492 164.081C208.419 166.121 207.617 168.598 200.331 171.148C193.045 173.699 185.831 170.201 184.01 169.546C182.188 168.89 181.095 166.704 184.52 167.651C187.944 168.598 193.992 167.87 197.927 167.651Z" fill="#2C1E25"/>
<path fill-rule="evenodd" clip-rule="evenodd" d="M125.668 36.8511C125.548 37.2277 125.436 37.5793 125.328 37.9027C123.357 43.8151 119.218 89.9322 125.328 100.772C128.013 105.534 129.974 110.792 131.815 115.725C134.163 122.018 136.314 127.784 139.518 131.319C144.058 136.329 146.772 158.463 147.582 169.13C141.974 170.904 130.112 175.269 126.513 178.868C124.042 181.339 117.12 184.249 109.865 187.299C103.807 189.846 97.5165 192.491 93.3908 195.059C86.9804 199.049 79.2751 204.426 73.283 208.608C70.7998 210.341 68.6109 211.868 66.9302 213.007C61.194 216.892 52.1334 236.738 50.1577 247.768C48.9543 254.487 46.4068 259.801 43.8551 265.124C42.2177 268.539 40.5786 271.959 39.2917 275.755C37.9227 279.794 34.9599 285.027 31.776 290.652C27.302 298.555 22.3913 307.23 20.8523 314.443C20.1347 317.807 19.4808 320.444 18.9166 322.718L18.9154 322.723L18.915 322.725L18.914 322.729L18.9137 322.73C17.4085 328.798 16.5423 332.29 16.807 340.143C16.9959 345.749 19.1785 348.151 21.6078 349.131C15.4969 364.732 10.6196 382.779 11.1173 399.927C10.1143 417.266 10.4388 455.206 19.7611 468.258C24.9183 475.478 25.4536 482.926 25.8873 488.961C26.3943 496.016 26.7626 501.14 34.2129 501.71C34.79 501.754 35.4096 501.771 36.075 501.759L36.3636 501.755C36.2821 505.697 36.3011 509.151 36.4386 511.996C36.5132 513.539 36.6227 514.904 36.77 516.07C38.5495 530.163 34.8187 541.269 31.3953 551.46C28.539 559.963 25.8966 567.828 26.8468 576.261C27.634 583.248 26.419 591.365 25.1298 599.978C22.9977 614.221 20.6629 629.819 26.8468 643.896C31.4214 654.309 28.8647 669.383 26.1227 685.551C22.9167 704.454 19.4573 724.851 26.8468 741.038C31.379 750.965 34.2845 760.308 36.851 768.561C42.0483 785.272 45.8558 797.515 58.9665 801.099C67.0031 803.296 73.6766 804.481 80.1419 805.629C89.4323 807.279 98.2925 808.853 110.149 813.242C130.256 820.684 172.968 818.469 177.783 818.073C193.15 816.808 199.788 814.869 202.785 812.198C211.961 811.654 224.558 810.081 237.537 808.462C264.34 805.116 292.772 801.568 296.078 806.452C301.823 814.939 324.15 810.5 325.847 806.452C326.285 805.408 327.835 803.903 329.825 801.972C335.548 796.416 344.911 787.328 341.907 775.508C340.769 771.029 339.507 767.005 338.331 763.252C335.322 753.656 332.869 745.833 334.465 736.729C334.94 734.021 335.42 731.951 335.838 730.153C337.373 723.542 338.058 720.595 334.465 703.043C331.851 690.272 331.544 667.761 331.295 649.56C331.11 635.941 330.957 624.735 329.895 621.829C329.313 620.238 327.858 618.241 326.016 615.712C320.421 608.034 311.254 595.454 312.138 574.433C312.853 557.432 310.957 552.274 308.864 546.576C307.516 542.91 306.087 539.02 305.218 531.607C304.672 526.954 303.028 512.053 300.825 491.901C305.415 490.84 310.828 489.441 317.21 487.625C319.157 484.422 322.942 482.734 327.03 480.912C332.112 478.646 337.661 476.172 340.732 470.319C345.193 461.735 331.351 373.939 325.801 340.134C327.068 339.718 328.456 339.05 330.096 338.047C337.744 333.374 332.127 314.789 328.15 301.632C326.904 297.511 325.82 293.923 325.354 291.462C323.401 281.14 304.71 218.933 295.225 213.633C291.663 211.642 287.904 208.707 284.185 205.803C278.001 200.975 271.927 196.233 267.05 196.059C262.879 195.91 257.753 191.624 252.862 187.535C248.594 183.967 244.505 180.548 241.385 180.158C237.249 179.641 234.391 176.889 232.284 174.861C231.745 174.342 231.255 173.87 230.805 173.495C229.813 171.285 228.799 169.441 227.915 168.21C225.829 165.304 223.871 158.174 222.237 152.222C221.019 147.785 219.981 144.004 219.203 143.115C218.71 142.552 218.358 141.413 218.109 140.031C217.995 138.986 217.88 138.073 217.766 137.354C217.651 136.04 217.595 134.694 217.576 133.518C217.567 132.958 217.567 132.436 217.572 131.975C217.572 131.965 217.573 131.956 217.573 131.946C217.574 131.834 217.576 131.726 217.578 131.622C217.546 131.734 217.514 131.842 217.481 131.946C217.481 131.839 217.482 131.73 217.482 131.62C217.482 131.612 217.482 131.603 217.482 131.595C217.483 131.173 217.486 130.734 217.492 130.279C217.608 120.531 218.668 103.614 220.05 95.808C220.279 94.5126 220.517 93.4682 220.762 92.7491C221.501 90.5738 221.878 88.0352 222.039 85.6017L222.092 85.4797L222.047 85.4814C222.047 85.4745 222.048 85.4676 222.048 85.4607C222.058 85.312 222.066 85.1638 222.074 85.016C222.219 82.2826 222.103 79.7323 221.938 78.0455C222.614 77.9063 223.285 76.8816 223.657 75.1698C224.52 71.2007 223.774 63.5376 217.763 54.6546C208.902 41.5613 208.205 34.8117 207.737 30.2789C207.268 25.7374 207.029 23.4213 199.039 19.18C196.308 17.7303 194.137 16.4593 192.274 15.3691C183.248 10.0867 181.475 9.04853 158.439 12.4792C132.178 16.3903 127.741 30.3333 125.67 36.8448L125.669 36.8461L125.668 36.8511ZM115.915 33.7247L115.96 33.5831C117.071 30.0873 119.3 23.0756 125.636 16.5514C132.159 9.83535 142.057 4.56431 156.93 2.34924C168.19 0.672335 175.733 -0.18511 181.733 0.476794C188.372 1.20915 192.735 3.76726 196.969 6.24981C197.129 6.34337 197.288 6.43682 197.447 6.53006C199.305 7.6171 201.315 8.79299 203.841 10.1339C208.164 12.4284 212.141 15.049 214.732 18.9385C217.296 22.7871 217.687 26.7975 217.886 28.8386C217.9 28.9773 217.912 29.1069 217.925 29.2268C218.138 31.2935 218.338 33.1685 219.286 35.9206C220.271 38.7795 222.199 42.9357 226.245 48.9146C231.483 56.6545 233.775 64.1385 234.143 70.3387C234.231 71.8313 234.211 73.3201 234.068 74.7673L237.96 74.6169L232.101 88.1399C231.844 90.6206 231.362 93.386 230.459 96.0429C230.462 96.0354 230.461 96.0387 230.457 96.054C230.436 96.1323 230.33 96.5238 230.176 97.3637C230.008 98.279 229.829 99.46 229.648 100.886C229.285 103.734 228.947 107.268 228.657 111.06C228.081 118.608 227.729 126.734 227.723 131.82L227.818 131.834C227.795 132.913 227.819 134.574 227.943 136.153C228.037 136.783 228.124 137.463 228.205 138.164C228.791 139.14 229.141 139.993 229.301 140.381L229.306 140.394C229.69 141.329 230.031 142.335 230.321 143.252C230.878 145.015 231.471 147.173 232.04 149.244C232.052 149.287 232.064 149.329 232.075 149.371L232.113 149.51C232.946 152.542 233.774 155.55 234.632 158.146C235.057 159.433 235.444 160.48 235.788 161.282C236.096 161.997 236.267 162.276 236.264 162.278C236.264 162.278 236.264 162.277 236.263 162.276C237.312 163.744 238.308 165.489 239.212 167.314C239.242 167.343 239.271 167.37 239.298 167.397L239.387 167.483C240.503 168.557 241.143 169.143 241.792 169.58C242.344 169.951 242.587 169.987 242.655 169.996C246.847 170.52 250.395 172.759 252.529 174.239C254.859 175.855 257.249 177.853 259.249 179.526L259.431 179.678C261.986 181.814 264.036 183.513 265.886 184.739C266.775 185.329 267.392 185.654 267.771 185.815C267.796 185.826 267.819 185.836 267.84 185.844C272.916 186.145 277.412 188.539 280.55 190.498C283.913 192.596 287.335 195.269 290.266 197.558L290.488 197.731C294.381 200.771 297.484 203.163 300.221 204.692C303.82 206.704 306.305 210.229 307.796 212.564C309.568 215.341 311.304 218.708 312.955 222.279C316.275 229.457 319.688 238.409 322.785 247.293C328.917 264.883 334.292 283.611 335.417 289.558C335.756 291.348 336.632 294.296 337.953 298.669L338.064 299.033C339.982 305.379 342.572 313.946 343.628 321.626C344.165 325.527 344.424 329.948 343.645 334.117C342.942 337.882 341.175 342.419 337.076 345.647C339.919 363.207 344.021 389.459 347.174 413.344C348.981 427.029 350.495 440.085 351.274 450.335C351.661 455.438 351.882 460.042 351.84 463.764C351.819 465.617 351.731 467.444 351.521 469.102C351.345 470.492 350.968 472.833 349.819 475.042L349.81 475.06L349.801 475.077C345.052 484.13 336.584 487.881 331.796 490.001C331.591 490.092 331.392 490.18 331.201 490.266C329.01 491.243 327.705 491.843 326.698 492.465C326.205 492.77 325.981 492.964 325.906 493.036L323.875 496.377L320.012 497.476C317.16 498.287 314.486 499.02 311.979 499.681C313.689 515.279 314.933 526.518 315.39 530.415C316.118 536.625 317.234 539.662 318.441 542.947L318.512 543.14C319.587 546.065 320.87 549.554 321.672 554.681C322.46 559.714 322.744 565.984 322.37 574.864C321.64 592.23 328.974 602.381 334.293 609.681L334.377 609.796C335.233 610.971 336.182 612.273 336.986 613.496C337.778 614.701 338.811 616.388 339.515 618.315C340.272 620.387 340.562 622.806 340.727 624.458C340.923 626.425 341.057 628.756 341.157 631.269C341.357 636.271 341.443 642.585 341.535 649.301L341.536 649.42C341.791 668.108 342.128 689.407 344.499 700.989C346.31 709.839 347.205 715.729 347.313 720.466C347.429 725.519 346.63 728.959 345.856 732.287L345.814 732.47C345.401 734.25 344.975 736.086 344.553 738.497C343.455 744.763 344.977 750.216 348.103 760.188L348.13 760.272C349.294 763.984 350.626 768.233 351.833 772.985C354.211 782.341 351.516 790.397 347.909 796.378C344.536 801.97 339.962 806.407 337.187 809.099L336.959 809.321C336.451 809.813 336.025 810.227 335.643 810.607C335.26 810.987 334.982 811.273 334.778 811.494C334.774 811.498 334.77 811.502 334.767 811.506C333.237 814.312 330.91 815.916 329.761 816.637C328.127 817.663 326.34 818.432 324.689 819.013C321.351 820.189 317.359 821.016 313.35 821.357C309.372 821.696 304.812 821.607 300.488 820.552C297.006 819.703 292.794 817.998 289.502 814.554C289.199 814.514 288.846 814.475 288.437 814.44C285.657 814.204 281.56 814.254 276.272 814.592C265.776 815.262 252.31 816.939 238.805 818.625L238.493 818.663C227 820.098 215.42 821.543 206.282 822.226C203.613 823.775 200.572 824.817 197.378 825.606C192.647 826.774 186.523 827.63 178.623 828.28C175.859 828.507 163.616 829.171 149.458 828.836C135.687 828.509 118.42 827.224 106.594 822.847C95.6565 818.798 87.5685 817.35 78.3507 815.713L78.2476 815.695C71.8107 814.552 64.7545 813.298 56.2661 810.978C46.5544 808.324 40.3477 802.26 36.0775 794.884C32.2548 788.28 29.7113 780.096 27.2898 772.305L27.0714 771.602C24.4942 763.315 21.7583 754.553 17.5301 745.291C12.9185 735.19 11.9044 724.264 12.2764 713.944C12.6428 703.779 14.4039 693.396 15.9716 684.154L16.0252 683.838C17.4205 675.611 18.6327 668.391 19.0038 661.974C19.3786 655.493 18.7962 651.034 17.4701 648.015C10.0843 631.203 12.8112 613.044 14.8465 599.491C14.8985 599.145 14.95 598.802 15.0009 598.462C16.3503 589.447 17.2753 582.784 16.6696 577.408C15.462 566.692 18.7472 556.932 21.4233 548.982C21.5118 548.719 21.5997 548.458 21.6867 548.199C25.1249 537.964 28.0643 528.88 26.6089 517.353C26.3457 515.268 26.1918 512.809 26.1209 510.084C22.9112 508.567 20.4979 506.231 18.8643 503.425C17.3058 500.749 16.651 497.978 16.3015 495.85C15.9672 493.813 15.812 491.649 15.6871 489.906L15.6719 489.695C15.2346 483.611 14.743 478.853 11.4271 474.21C7.93417 469.32 5.79443 462.956 4.3645 456.848C2.88632 450.533 1.94678 443.493 1.36179 436.561C0.210449 422.918 0.364166 408.837 0.86795 399.772C0.469727 383.265 4.48413 366.471 9.68204 351.8C9.66666 351.775 9.65131 351.75 9.63602 351.725C7.58923 348.387 6.707 344.52 6.57111 340.489C6.25977 331.251 7.37735 326.698 8.97327 320.264L8.97055 320.275L8.9639 320.303L18.0506 322.513L13.3092 321.327L8.97812 320.245M8.9761 320.253C8.97668 320.25 8.9772 320.248 8.97778 320.246C8.97778 320.246 8.97778 320.246 8.97778 320.246M18.0506 322.513L18.6649 322.662L18.3189 322.57M8.98239 320.228C9.54272 317.968 10.159 315.48 10.836 312.306C12.7094 303.525 18.2719 293.709 22.4196 286.389C22.5695 286.125 22.7174 285.864 22.8633 285.606C26.2529 279.619 28.6081 275.37 29.5921 272.467C31.0783 268.083 32.9436 264.193 34.528 260.888L34.6198 260.697C37.2095 255.294 39.1492 251.139 40.0765 245.962C41.2838 239.222 44.4386 230.594 47.8758 223.328C49.6275 219.626 51.5824 215.999 53.5962 212.92C55.4021 210.159 57.9647 206.71 61.1863 204.527C62.7944 203.438 64.9156 201.958 67.4217 200.209L67.541 200.126C73.4601 195.995 81.3391 190.496 87.9788 186.364C92.807 183.358 99.7077 180.458 105.369 178.079L105.895 177.858C109.593 176.304 112.877 174.92 115.542 173.637C116.862 173.002 117.875 172.465 118.608 172.024C119.103 171.726 119.33 171.555 119.378 171.52C121.293 169.638 123.668 168.171 125.58 167.114C127.688 165.949 130.02 164.86 132.262 163.9C133.716 163.278 135.19 162.684 136.624 162.133C136.182 158.246 135.595 153.953 134.869 149.915C134.232 146.371 133.527 143.246 132.79 140.849C132.139 138.733 131.697 137.984 131.721 137.969C131.722 137.968 131.724 137.969 131.728 137.972C129.217 135.133 127.422 131.828 126.046 128.847C124.652 125.824 123.413 122.504 122.29 119.496L122.219 119.305C120.33 114.242 118.631 109.748 116.406 105.801C114.872 103.079 114.008 99.9622 113.455 97.2331C112.874 94.3639 112.499 91.194 112.26 87.9641C111.78 81.5 111.797 74.1184 112.063 67.1009C112.331 60.0508 112.86 53.1593 113.454 47.6063C113.751 44.8329 114.07 42.3301 114.394 40.2701C114.68 38.4428 115.065 36.304 115.612 34.6639C115.689 34.4313 115.775 34.1649 115.89 33.8017L115.891 33.8006L115.908 33.7458L115.91 33.7394L115.911 33.7377L115.913 33.7297L115.915 33.7247" fill="white"/>
</svg>
