<svg width="1157" height="736" viewBox="0 0 1157 736" fill="none" xmlns="http://www.w3.org/2000/svg">
<path d="M730.551 594.428C736.572 576.702 735.568 551.923 734.314 541.75L709.227 470.675L646.93 404.617L536.551 427.194L437.878 456.042L421.572 571.015L476.344 747.866L529.443 867.438L574.18 835.246L665.326 808.906L725.951 816.014C724.976 798.175 722.439 759.154 720.098 745.775C717.171 729.052 723.025 616.587 730.551 594.428Z" fill="#F3C4B7"/>
<path d="M452.626 726.373C468.267 743.632 477.572 820.311 480.27 856.493C482.754 882.937 495.254 922.405 495.699 949.982C496.144 977.559 511.712 1009.14 543.739 1005.58C575.765 1002.02 593.558 1010.03 619.801 1025.15C646.045 1040.27 663.838 1040.27 704.312 1031.38C744.786 1022.48 769.702 981.562 778.599 952.206C787.495 922.85 767.479 869.919 755.024 852.572C742.57 835.225 731.449 773.844 725.222 766.727C720.24 761.034 719.44 738.143 719.662 727.409C718.525 731.389 717.388 733.473 714.735 742.569C712.082 751.666 723.453 799.61 719.662 799.989C715.872 800.368 717.957 793.546 704.312 792.788C690.667 792.03 703.439 801.883 652.198 803.232C600.956 804.58 538.928 847.055 530.163 842.335C521.398 837.616 517.352 786.377 491.058 737.834C464.763 689.292 452.626 607.714 444.536 580.746C436.446 553.778 435.097 509.281 444.536 500.517C453.975 491.752 480.27 505.91 497.8 484.336C515.33 462.762 517.352 472.2 535.556 475.571C553.761 478.942 569.942 438.49 598.934 425.006C622.127 414.219 659.389 438.94 675.12 452.649C707.483 467.481 724.34 538.272 732.431 543.665C740.521 549.059 752.501 511.703 720.295 464.11C659.614 374.442 710.854 371.745 656.242 342.754C601.63 313.764 612.418 305.673 517.352 319.832C422.287 333.99 410.825 386.577 404.083 406.803C397.34 427.029 383.182 584.792 404.083 621.872C424.983 658.953 433.074 704.799 452.626 726.373Z" fill="#2C1E25"/>
<path d="M504.005 543.344C525.771 534.77 541.655 544.168 546.877 549.939C529.563 577.97 513.898 563.13 508.127 573.848C491.638 588.358 466.629 576.596 456.186 568.901C447.116 566.428 476.797 554.061 504.005 543.344Z" fill="#2C1E25"/>
<path d="M730.733 521.908C736.504 513.664 680.44 507.893 668.898 518.611C661.883 527.379 649.168 529.887 641.776 530.153C636.915 538.397 664.776 539.221 673.845 543.344C682.914 547.466 724.962 530.153 730.733 521.908Z" fill="#2C1E25"/>
<path d="M639.217 530.153C639.967 530.184 640.828 530.187 641.776 530.153M641.776 530.153C649.168 529.887 661.883 527.379 668.898 518.611C680.44 507.893 736.504 513.664 730.733 521.908C724.962 530.153 682.914 547.466 673.845 543.344C664.776 539.221 636.915 538.397 641.776 530.153ZM546.877 549.939C541.655 544.168 525.771 534.77 504.005 543.344C476.797 554.061 447.116 566.428 456.186 568.901C466.629 576.596 491.638 588.358 508.127 573.848C513.898 563.13 529.563 577.97 546.877 549.939Z" stroke="black"/>
<mask id="mask0" mask-type="alpha" maskUnits="userSpaceOnUse" x="478" y="604" width="70" height="45">
<path d="M482.885 628.215C485.255 620.349 502.434 611.511 510.727 608.075C522.379 602.368 544.019 603.929 547.217 615.302C550.416 626.675 534.066 632.954 523.285 637.93C512.504 642.906 491.415 651.08 482.885 647.408C474.356 643.735 479.923 638.048 482.885 628.215Z" fill="#FFF1F0"/>
</mask>
<g mask="url(#mask0)">
<path d="M482.885 628.215C485.255 620.349 502.434 611.511 510.727 608.075C522.379 602.368 544.019 603.929 547.217 615.302C550.416 626.675 534.066 632.954 523.285 637.93C512.504 642.906 491.415 651.08 482.885 647.408C474.356 643.735 479.923 638.048 482.885 628.215Z" fill="#FFF1F0"/>
<path d="M514.261 625.279C505.333 627.4 494.533 618.922 490.25 614.418L509.812 576.228C517.408 586.575 532.496 607.889 532.086 610.362C531.574 613.454 525.422 622.627 514.261 625.279Z" fill="#2C1E25"/>
</g>
<path d="M680.432 678.546C645.805 645.569 622.72 560.652 609.529 516.133C604.427 498.785 591.495 501.898 587.454 524.796C583.414 547.694 613.859 699.573 613.859 699.573C613.859 699.573 617.188 711.925 612.002 710.699C601.284 707.401 585.619 726.363 623.544 749.447C661.47 772.532 707.64 713.172 680.432 678.546Z" fill="#EAB9AA"/>
<mask id="mask1" mask-type="alpha" maskUnits="userSpaceOnUse" x="645" y="575" width="75" height="39">
<path d="M645.965 600.412C644.69 604.583 654.413 609.004 659.433 610.694C672.902 614.749 681.011 614.604 694.913 609.245C708.816 603.887 715.913 596.936 718.375 594.04C720.837 591.144 719.967 587.089 711.278 580.862C702.589 574.635 694.479 574.925 677.246 577.097C660.012 579.269 647.558 595.199 645.965 600.412Z" fill="#FFF1F0"/>
</mask>
<g mask="url(#mask1)">
<path d="M645.965 600.412C644.69 604.583 654.413 609.004 659.433 610.694C672.902 614.749 681.011 614.604 694.913 609.245C708.816 603.887 715.913 596.936 718.375 594.04C720.837 591.144 719.967 587.089 711.278 580.862C702.589 574.635 694.479 574.925 677.246 577.097C660.012 579.269 647.558 595.199 645.965 600.412Z" fill="#FFF1F0"/>
<path d="M668.652 599.018C657.254 596.803 654.215 585.21 654.12 579.691L686.297 544.894C692.1 559.507 702.412 590.066 697.234 595.397C690.762 602.06 682.899 601.786 668.652 599.018Z" fill="#2C1E25"/>
</g>
<mask id="path-12-outside-1" maskUnits="userSpaceOnUse" x="1.96484" y="303.03" width="1156" height="2785" fill="black">
<rect fill="white" x="1.96484" y="303.03" width="1156" height="2785"/>
<path fill-rule="evenodd" clip-rule="evenodd" d="M480.212 855.72C477.44 819.23 468.157 743.51 452.626 726.373C441.665 714.278 434.306 694.555 426.273 673.025C419.977 656.15 413.266 638.165 404.083 621.872C383.182 584.792 397.34 427.029 404.083 406.803C404.453 405.693 404.837 404.486 405.248 403.192L405.25 403.186L405.251 403.184C412.338 380.909 427.515 333.211 517.352 319.832C596.155 308.096 602.223 311.647 633.099 329.718C639.471 333.447 646.9 337.795 656.242 342.754C683.575 357.264 684.393 365.187 685.997 380.723C687.599 396.229 689.983 419.319 720.295 464.11C749.73 507.607 742.256 542.554 734.575 544.129C735.676 555.405 736.145 577.96 730.551 594.428C724.379 612.598 719.332 691.492 719.329 728.525C719.429 728.204 719.528 727.877 719.626 727.535L719.662 727.409C719.56 732.339 719.674 739.833 720.309 747.048C720.696 749.494 721.086 752.597 721.473 756.146C722.324 760.888 723.532 764.797 725.222 766.727C727.881 769.766 731.433 782.702 735.6 797.878L735.6 797.879L735.6 797.879C741.191 818.24 747.888 842.634 755.024 852.572C758.049 856.785 761.519 863.095 764.912 870.657C766.449 871.938 768.124 873.551 769.967 875.325C777.175 882.265 786.953 891.68 801.101 893.448C811.774 894.782 825.763 906.477 840.363 918.684C857.095 932.673 874.629 947.333 888.898 947.842C905.584 948.438 926.362 964.662 947.516 981.178C960.239 991.112 973.099 1001.15 985.285 1007.96C1017.73 1026.09 1081.67 1238.9 1088.35 1274.21C1089.95 1282.63 1093.66 1294.9 1097.92 1309C1111.52 1354.01 1130.74 1417.59 1104.58 1433.57C1098.96 1437.01 1094.21 1439.29 1089.87 1440.71C1108.86 1556.36 1156.21 1856.7 1140.95 1886.06C1130.45 1906.08 1111.46 1914.55 1094.08 1922.3C1080.09 1928.53 1067.14 1934.3 1060.48 1945.26C1038.66 1951.47 1020.14 1956.26 1004.44 1959.89C1011.98 2028.83 1017.6 2079.81 1019.47 2095.73C1022.44 2121.08 1027.33 2134.39 1031.94 2146.93C1039.1 2166.42 1045.59 2184.07 1043.14 2242.23C1040.12 2314.14 1071.48 2357.17 1090.62 2383.44C1096.92 2392.09 1101.9 2398.92 1103.89 2404.37C1107.52 2414.31 1108.04 2452.64 1108.68 2499.23C1109.53 2561.5 1110.58 2638.5 1119.52 2682.19C1131.81 2742.24 1129.47 2752.32 1124.22 2774.93C1122.79 2781.09 1121.15 2788.16 1119.52 2797.43C1114.06 2828.57 1122.45 2855.33 1132.75 2888.16L1132.75 2888.16C1136.77 2901 1141.09 2914.77 1144.98 2930.09C1155.26 2970.52 1123.23 3001.61 1103.65 3020.62C1096.84 3027.23 1091.54 3032.37 1090.04 3035.95C1084.24 3049.79 1007.86 3064.98 988.203 3035.95C976.893 3019.24 879.629 3031.38 787.939 3042.82C743.538 3048.36 700.443 3053.74 669.049 3055.6C658.795 3064.74 636.087 3071.37 583.524 3075.7C567.053 3077.05 420.94 3084.63 352.154 3059.17C311.596 3044.16 281.287 3038.77 249.507 3033.13L249.505 3033.13L249.501 3033.13L249.498 3033.13C227.382 3029.2 204.554 3025.15 177.062 3017.63C132.212 3005.37 119.187 2963.49 101.407 2906.32C92.6273 2878.09 82.688 2846.13 67.184 2812.17C41.905 2756.79 53.7391 2687.02 64.7067 2622.35C74.0868 2567.04 82.833 2515.47 67.184 2479.85C46.0293 2431.7 54.0165 2378.34 61.3101 2329.61C65.7203 2300.15 69.877 2272.38 67.184 2248.48C63.9333 2219.63 72.9727 2192.72 82.7437 2163.64C94.455 2128.78 107.218 2090.78 101.13 2042.57C99.6974 2031.22 99.3102 2014.4 99.7401 1993.6L98.7526 1993.62C67.0876 1994.17 65.77 1975.84 63.9011 1949.84C62.4174 1929.19 60.5862 1903.71 42.9438 1879.01C11.0532 1834.36 9.94299 1704.57 13.3743 1645.26C11.6718 1586.6 28.3564 1524.86 49.2616 1471.49C40.951 1468.14 33.4849 1459.92 32.8385 1440.74C31.9329 1413.88 34.8964 1401.93 40.0454 1381.17C41.9779 1373.38 44.2181 1364.35 46.6772 1352.83C51.942 1328.15 68.7411 1298.47 84.0463 1271.44L84.0474 1271.43C94.9388 1252.19 105.074 1234.29 109.757 1220.48C114.159 1207.49 119.767 1195.79 125.368 1184.11C134.097 1165.9 142.812 1147.72 146.929 1124.73C153.687 1087 184.683 1019.11 204.306 1005.82C210.041 1001.93 217.506 996.725 225.974 990.815L226.003 990.796L226.005 990.794L226.014 990.788L226.03 990.776L226.039 990.771L226.043 990.767C246.541 976.462 272.898 958.069 294.825 944.421C308.939 935.636 330.457 926.589 351.181 917.877C376.001 907.442 399.681 897.486 408.133 889.035C420.447 876.721 461.029 861.79 480.212 855.72Z"/>
</mask>
<path d="M452.626 726.373L445.216 733.088V733.088L452.626 726.373ZM480.212 855.72L490.183 854.962L490.783 862.863L483.229 865.254L480.212 855.72ZM426.273 673.025L435.642 669.529V669.529L426.273 673.025ZM404.083 621.872L395.371 626.783L404.083 621.872ZM404.083 406.803L413.569 409.965L413.569 409.966L404.083 406.803ZM405.248 403.192L395.719 400.16L395.721 400.155L405.248 403.192ZM405.25 403.186L414.838 406.027L414.809 406.126L414.778 406.224L405.25 403.186ZM405.251 403.184L395.663 400.343L395.691 400.247L395.722 400.152L405.251 403.184ZM517.352 319.832L515.879 309.941V309.941L517.352 319.832ZM633.099 329.718L638.15 321.087L638.15 321.087L633.099 329.718ZM656.242 342.754L660.931 333.922L656.242 342.754ZM685.997 380.723L695.944 379.695V379.696L685.997 380.723ZM720.295 464.11L712.013 469.714L720.295 464.11ZM734.575 544.129L724.622 545.1L723.748 536.14L732.567 534.333L734.575 544.129ZM730.551 594.428L740.02 597.644L730.551 594.428ZM719.329 728.525L728.876 731.5L709.329 728.524L719.329 728.525ZM719.626 727.535L729.238 730.295L729.234 730.308L719.626 727.535ZM719.662 727.409L710.051 724.649L729.66 727.616L719.662 727.409ZM720.309 747.048L710.432 748.609L710.378 748.268L710.348 747.925L720.309 747.048ZM721.473 756.146L711.63 757.913L711.569 757.573L711.532 757.229L721.473 756.146ZM725.222 766.727L732.748 760.142L725.222 766.727ZM735.6 797.878L726.113 801.041L726.028 800.785L725.957 800.526L735.6 797.878ZM735.6 797.879L745.087 794.717L745.172 794.972L745.243 795.231L735.6 797.879ZM755.024 852.572L763.147 846.74H763.147L755.024 852.572ZM764.912 870.657L758.508 878.337L756.735 876.858L755.789 874.751L764.912 870.657ZM769.967 875.325L763.031 882.529L769.967 875.325ZM801.101 893.448L802.341 883.525H802.341L801.101 893.448ZM840.363 918.684L846.777 911.013H846.777L840.363 918.684ZM888.898 947.842L889.255 937.849L888.898 947.842ZM947.516 981.178L941.362 989.06L947.516 981.178ZM985.285 1007.96L990.163 999.233H990.163L985.285 1007.96ZM1088.35 1274.21L1098.18 1272.35H1098.18L1088.35 1274.21ZM1097.92 1309L1088.34 1311.89L1097.92 1309ZM1104.58 1433.57L1099.36 1425.04L1099.36 1425.04L1104.58 1433.57ZM1089.87 1440.71L1080.01 1442.33L1078.62 1433.89L1086.75 1431.21L1089.87 1440.71ZM1140.95 1886.06L1149.82 1890.67L1149.81 1890.69L1149.81 1890.71L1140.95 1886.06ZM1094.08 1922.3L1090.01 1913.16L1094.08 1922.3ZM1060.48 1945.26L1069.03 1950.46L1066.99 1953.81L1063.22 1954.88L1060.48 1945.26ZM1004.44 1959.89L994.5 1960.98L993.534 1952.15L1002.19 1950.15L1004.44 1959.89ZM1019.47 2095.73L1029.4 2094.56H1029.4L1019.47 2095.73ZM1031.94 2146.93L1041.33 2143.48L1041.33 2143.48L1031.94 2146.93ZM1043.14 2242.23L1033.15 2241.81L1043.14 2242.23ZM1090.62 2383.44L1082.54 2389.33H1082.54L1090.62 2383.44ZM1103.89 2404.37L1094.5 2407.8H1094.5L1103.89 2404.37ZM1108.68 2499.23L1118.68 2499.1L1108.68 2499.23ZM1119.52 2682.19L1129.32 2680.19H1129.32L1119.52 2682.19ZM1124.22 2774.93L1114.48 2772.67H1114.48L1124.22 2774.93ZM1119.52 2797.43L1109.67 2795.7H1109.67L1119.52 2797.43ZM1132.75 2888.16L1142.29 2885.17L1142.37 2885.44L1142.44 2885.72L1132.75 2888.16ZM1132.75 2888.16L1123.2 2891.16L1123.12 2890.88L1123.05 2890.61L1132.75 2888.16ZM1144.98 2930.09L1154.67 2927.62H1154.67L1144.98 2930.09ZM1103.65 3020.62L1110.61 3027.79H1110.61L1103.65 3020.62ZM1090.04 3035.95L1099.26 3039.81H1099.26L1090.04 3035.95ZM988.203 3035.95L996.484 3030.34L988.203 3035.95ZM787.939 3042.82L789.178 3052.74L787.939 3042.82ZM669.049 3055.6L662.396 3048.14L664.989 3045.82L668.457 3045.62L669.049 3055.6ZM583.524 3075.7L582.704 3065.73H582.704L583.524 3075.7ZM352.154 3059.17L348.683 3068.55L352.154 3059.17ZM249.507 3033.13L247.759 3042.98L247.039 3042.85L246.345 3042.62L249.507 3033.13ZM249.505 3033.13L251.376 3023.31L252.033 3023.43L252.668 3023.64L249.505 3033.13ZM249.501 3033.13L247.63 3042.95L247.481 3042.92L247.332 3042.89L249.501 3033.13ZM249.498 3033.13L251.247 3023.28L251.458 3023.32L251.667 3023.37L249.498 3033.13ZM177.062 3017.63L174.426 3027.28H174.426L177.062 3017.63ZM101.407 2906.32L91.8585 2909.29L101.407 2906.32ZM67.184 2812.17L58.087 2816.32L67.184 2812.17ZM64.7067 2622.35L74.5659 2624.02L64.7067 2622.35ZM67.184 2479.85L76.3395 2475.83L67.184 2479.85ZM61.3101 2329.61L51.4203 2328.13L61.3101 2329.61ZM67.184 2248.48L77.1211 2247.36V2247.36L67.184 2248.48ZM82.7437 2163.64L92.223 2166.82L82.7437 2163.64ZM101.13 2042.57L91.2089 2043.82L101.13 2042.57ZM99.7401 1993.6L99.5696 1983.6L109.953 1983.43L109.738 1993.81L99.7401 1993.6ZM98.7526 1993.62L98.5771 1983.62L98.582 1983.62L98.7526 1993.62ZM63.9011 1949.84L53.9269 1950.55L63.9011 1949.84ZM42.9438 1879.01L34.8065 1884.82L42.9438 1879.01ZM13.3743 1645.26L23.3701 1644.97L23.3827 1645.4L23.3575 1645.84L13.3743 1645.26ZM49.2616 1471.49L53.0037 1462.22L62.183 1465.92L58.5728 1475.14L49.2616 1471.49ZM32.8385 1440.74L22.8442 1441.08H22.8441L32.8385 1440.74ZM40.0454 1381.17L30.3396 1378.77L40.0454 1381.17ZM46.6772 1352.83L56.4572 1354.91L46.6772 1352.83ZM84.0463 1271.44L75.3439 1266.51L75.4062 1266.4L75.4713 1266.29L84.0463 1271.44ZM84.0474 1271.43L92.7498 1276.36L92.6874 1276.47L92.6223 1276.58L84.0474 1271.43ZM109.757 1220.48L119.227 1223.69V1223.69L109.757 1220.48ZM125.368 1184.11L116.35 1179.79V1179.79L125.368 1184.11ZM146.929 1124.73L137.085 1122.97L146.929 1124.73ZM204.306 1005.82L198.698 997.54L198.698 997.54L204.306 1005.82ZM225.974 990.815L220.252 982.615L220.26 982.609L220.269 982.603L225.974 990.815ZM226.003 990.796L220.297 982.583L220.376 982.528L220.456 982.475L226.003 990.796ZM226.005 990.794L231.706 999.01L231.629 999.063L231.552 999.115L226.005 990.794ZM226.014 990.788L231.748 998.98L231.732 998.992L231.715 999.004L226.014 990.788ZM226.03 990.776L231.826 998.926L231.795 998.947L231.765 998.969L226.03 990.776ZM226.039 990.771L220.243 982.621L220.295 982.584L220.346 982.549L226.039 990.771ZM226.043 990.767L231.766 998.968L231.751 998.978L231.735 998.989L226.043 990.767ZM294.825 944.421L300.11 952.91L294.825 944.421ZM351.181 917.877L355.057 927.095H355.056L351.181 917.877ZM408.133 889.035L401.062 881.964L408.133 889.035ZM460.036 719.658C465.532 725.722 469.534 735.58 472.657 745.744C475.92 756.359 478.706 769.005 481.046 782.02C485.731 808.076 488.779 836.48 490.183 854.962L470.24 856.477C468.873 838.469 465.894 810.769 461.361 785.559C459.093 772.94 456.473 761.162 453.54 751.62C450.468 741.626 447.486 735.592 445.216 733.088L460.036 719.658ZM435.642 669.529C439.691 680.381 443.405 690.321 447.432 699.048C451.47 707.8 455.546 714.704 460.036 719.658L445.216 733.088C438.745 725.948 433.661 716.942 429.271 707.427C424.87 697.886 420.888 687.2 416.904 676.521L435.642 669.529ZM412.794 616.962C422.426 634.051 429.393 652.782 435.642 669.529L416.904 676.521C410.56 659.519 404.106 642.28 395.371 626.783L412.794 616.962ZM413.569 409.966C413.02 411.614 412.163 415.538 411.169 421.88C410.21 427.995 409.205 435.792 408.242 444.79C406.317 462.781 404.585 485.328 403.709 508.397C402.832 531.498 402.821 554.92 404.289 574.729C405.024 584.636 406.117 593.474 407.606 600.83C409.123 608.323 410.933 613.661 412.794 616.962L395.371 626.783C392.007 620.814 389.687 613.11 388.004 604.799C386.293 596.351 385.116 586.622 384.344 576.208C382.8 555.376 382.831 531.141 383.724 507.638C384.617 484.103 386.383 461.099 388.356 442.662C389.342 433.447 390.386 425.31 391.41 418.781C392.399 412.479 393.46 407.049 394.596 403.641L413.569 409.966ZM414.778 406.224C414.371 407.502 413.965 408.778 413.569 409.965L394.596 403.641C394.94 402.608 395.303 401.469 395.719 400.16L414.778 406.224ZM414.778 406.224L414.776 406.23L395.721 400.155L395.723 400.148L414.778 406.224ZM414.839 406.025L414.838 406.027L395.662 400.345L395.663 400.343L414.839 406.025ZM518.826 329.723C475.608 336.159 451.526 350.64 437.444 365.139C423.274 379.729 418.267 395.258 414.78 406.216L395.722 400.152C399.323 388.835 405.448 369.377 423.097 351.205C440.834 332.942 469.259 316.884 515.879 309.941L518.826 329.723ZM628.048 338.348C612.487 329.241 604.948 324.954 592.102 323.537C578.388 322.024 558.479 323.817 518.826 329.723L515.879 309.941C555.029 304.11 577.555 301.811 594.295 303.657C611.902 305.6 622.835 312.124 638.15 321.087L628.048 338.348ZM651.553 351.587C642.011 346.521 634.425 342.081 628.048 338.348L638.15 321.087C644.517 324.814 651.788 329.069 660.931 333.922L651.553 351.587ZM676.05 381.75C675.209 373.604 674.684 370.259 672.445 366.898C670.063 363.322 664.9 358.672 651.553 351.587L660.931 333.922C674.917 341.346 683.829 347.912 689.09 355.809C694.494 363.921 695.181 372.306 695.944 379.695L676.05 381.75ZM712.013 469.714C696.482 446.765 687.857 429.009 682.925 414.692C677.957 400.27 676.871 389.698 676.05 381.75L695.944 379.696C696.725 387.254 697.632 395.979 701.835 408.177C706.073 420.48 713.796 436.664 728.576 458.505L712.013 469.714ZM732.567 534.333C731.326 534.587 730.467 535.101 729.993 535.456C729.754 535.637 729.589 535.794 729.491 535.896C729.392 535.999 729.343 536.064 729.337 536.072C729.331 536.08 729.437 535.936 729.608 535.577C729.776 535.225 729.979 534.727 730.189 534.063C731.058 531.314 731.743 526.707 731.371 520.431C730.636 508.013 725.817 490.113 712.013 469.714L728.576 458.505C744.208 481.605 750.37 502.926 751.336 519.249C751.815 527.344 751.03 534.488 749.258 540.093C748.379 542.873 747.145 545.631 745.411 547.973C743.781 550.174 740.926 553.035 736.583 553.925L732.567 534.333ZM721.082 591.212C725.973 576.813 725.686 556 724.622 545.1L744.528 543.157C745.665 554.81 746.316 579.106 740.02 597.644L721.082 591.212ZM709.329 728.524C709.331 709.679 710.61 680.431 712.656 653.641C713.68 640.232 714.905 627.33 716.274 616.575C717.606 606.121 719.172 596.835 721.082 591.212L740.02 597.644C738.844 601.106 737.465 608.496 736.114 619.102C734.802 629.407 733.607 641.95 732.598 655.165C730.577 681.622 729.331 710.337 729.329 728.525L709.329 728.524ZM729.234 730.308C729.115 730.72 728.996 731.115 728.876 731.5L709.782 725.549C709.862 725.294 709.94 725.034 710.018 724.763L729.234 730.308ZM729.274 730.169L729.238 730.295L710.015 724.775L710.051 724.649L729.274 730.169ZM710.348 747.925C709.674 740.28 709.556 732.416 709.665 727.202L729.66 727.616C729.564 732.262 729.673 739.386 730.27 746.171L710.348 747.925ZM711.532 757.229C711.153 753.752 710.782 750.828 710.432 748.609L730.186 745.486C730.609 748.16 731.02 751.442 731.414 755.064L711.532 757.229ZM717.696 773.312C715.594 770.91 714.357 768.023 713.571 765.728C712.731 763.272 712.108 760.576 711.63 757.913L731.316 754.38C731.689 756.459 732.095 758.087 732.495 759.254C732.691 759.827 732.85 760.185 732.946 760.373C733.051 760.578 733.01 760.442 732.748 760.142L717.696 773.312ZM725.957 800.526C723.856 792.873 721.981 786.053 720.31 780.764C719.474 778.119 718.748 776.046 718.131 774.546C717.382 772.725 717.177 772.719 717.696 773.312L732.748 760.142C734.597 762.255 735.833 765.006 736.628 766.939C737.555 769.193 738.476 771.873 739.381 774.739C741.192 780.471 743.177 787.707 745.243 795.231L725.957 800.526ZM726.113 801.041L726.113 801.041L745.087 794.716L745.087 794.716L726.113 801.041ZM726.113 801.041L726.113 801.041L745.087 794.716L745.087 794.717L726.113 801.041ZM746.901 858.405C742.338 852.049 738.486 842.106 735.237 832.27C731.877 822.097 728.737 810.652 725.957 800.527L745.243 795.231C748.054 805.467 751.058 816.399 754.228 825.998C757.51 835.934 760.575 843.157 763.147 846.74L746.901 858.405ZM755.789 874.751C752.541 867.513 749.386 861.865 746.901 858.405L763.147 846.74C766.711 851.704 770.497 858.677 774.036 866.562L755.789 874.751ZM763.031 882.529C761.111 880.68 759.714 879.342 758.508 878.337L771.317 862.977C773.185 864.534 775.137 866.422 776.903 868.121L763.031 882.529ZM799.86 903.371C781.98 901.136 769.983 889.222 763.031 882.529L776.903 868.121C784.367 875.308 791.926 882.223 802.341 883.525L799.86 903.371ZM833.949 926.356C826.554 920.173 819.773 914.515 813.56 910.206C807.088 905.717 802.627 903.716 799.86 903.371L802.341 883.525C810.247 884.513 818.117 889.027 824.958 893.772C832.058 898.696 839.572 904.989 846.777 911.013L833.949 926.356ZM888.541 957.836C878.502 957.478 868.594 952.334 860.027 946.652C851.217 940.809 842.208 933.262 833.949 926.356L846.777 911.013C855.25 918.096 863.373 924.872 871.081 929.984C879.031 935.257 885.025 937.698 889.255 937.849L888.541 957.836ZM941.362 989.06C930.675 980.716 920.628 972.885 911.236 967.023C901.629 961.026 894.14 958.036 888.541 957.836L889.255 937.849C900.342 938.245 911.585 943.664 921.826 950.057C932.284 956.585 943.203 965.123 953.67 973.296L941.362 989.06ZM980.407 1016.69C967.415 1009.43 953.915 998.861 941.362 989.06L953.67 973.296C966.564 983.363 978.782 992.873 990.163 999.233L980.407 1016.69ZM1078.53 1276.07C1075.33 1259.18 1057.89 1197.73 1037.04 1137.94C1026.65 1108.12 1015.53 1079.07 1005.06 1056.44C999.822 1045.12 994.852 1035.63 990.327 1028.54C985.527 1021.02 982.106 1017.64 980.407 1016.69L990.163 999.233C996.575 1002.82 1002.25 1010.05 1007.18 1017.78C1012.39 1025.94 1017.79 1036.33 1023.21 1048.05C1034.07 1071.53 1045.44 1101.28 1055.92 1131.35C1076.83 1191.32 1094.69 1253.93 1098.18 1272.35L1078.53 1276.07ZM1088.34 1311.89C1084.16 1298.04 1080.24 1285.14 1078.53 1276.07L1098.18 1272.35C1099.65 1280.11 1103.15 1291.76 1107.49 1306.11L1088.34 1311.89ZM1099.36 1425.04C1102.61 1423.05 1105.29 1419.18 1106.66 1411.86C1108.03 1404.47 1107.81 1394.84 1106.25 1383.53C1103.14 1360.94 1095.2 1334.59 1088.34 1311.89L1107.49 1306.11C1114.23 1328.42 1122.7 1356.36 1126.06 1380.81C1127.74 1393.02 1128.27 1405.09 1126.32 1415.53C1124.35 1426.03 1119.62 1436.1 1109.79 1442.11L1099.36 1425.04ZM1086.75 1431.21C1090.14 1430.1 1094.18 1428.21 1099.36 1425.04L1109.79 1442.11C1103.74 1445.8 1098.28 1448.48 1092.99 1450.21L1086.75 1431.21ZM1132.08 1881.45C1132.07 1881.47 1132.25 1881.1 1132.5 1880.11C1132.73 1879.16 1132.97 1877.89 1133.18 1876.23C1133.6 1872.91 1133.85 1868.54 1133.92 1863.12C1134.04 1852.3 1133.39 1838.04 1132.11 1821.11C1129.54 1787.29 1124.48 1743.6 1118.34 1697.05C1106.06 1604 1089.49 1500.13 1080.01 1442.33L1099.74 1439.09C1109.24 1496.95 1125.84 1601.07 1138.17 1694.44C1144.33 1741.1 1149.44 1785.22 1152.05 1819.59C1153.35 1836.76 1154.05 1851.68 1153.92 1863.35C1153.85 1869.18 1153.57 1874.38 1153.02 1878.75C1152.5 1882.85 1151.63 1887.2 1149.82 1890.67L1132.08 1881.45ZM1090.01 1913.16C1107.81 1905.22 1123.43 1897.93 1132.09 1881.41L1149.81 1890.71C1137.46 1914.23 1115.11 1923.87 1098.15 1931.43L1090.01 1913.16ZM1051.94 1940.07C1056.38 1932.76 1062.69 1927.57 1069.28 1923.5C1075.78 1919.49 1083.16 1916.22 1090.01 1913.16L1098.15 1931.43C1091.01 1934.61 1084.93 1937.34 1079.79 1940.52C1074.74 1943.64 1071.25 1946.81 1069.03 1950.46L1051.94 1940.07ZM1002.19 1950.15C1017.7 1946.56 1036.05 1941.82 1057.75 1935.64L1063.22 1954.88C1041.27 1961.13 1022.59 1965.96 1006.69 1969.63L1002.19 1950.15ZM1009.54 2096.89C1007.67 2080.92 1002.04 2029.89 994.5 1960.98L1014.38 1958.8C1021.92 2027.77 1027.54 2078.69 1029.4 2094.56L1009.54 2096.89ZM1022.56 2150.38C1017.82 2137.5 1012.64 2123.36 1009.54 2096.89L1029.4 2094.56C1032.24 2118.8 1036.84 2131.28 1041.33 2143.48L1022.56 2150.38ZM1033.15 2241.81C1034.36 2213.1 1033.34 2194.86 1031.27 2181.63C1029.22 2168.54 1026.1 2160.03 1022.56 2150.38L1041.33 2143.48C1044.94 2153.32 1048.65 2163.38 1051.03 2178.53C1053.37 2193.54 1054.37 2213.2 1053.13 2242.65L1033.15 2241.81ZM1082.54 2389.33C1063.13 2362.69 1029.98 2317.29 1033.15 2241.81L1053.13 2242.65C1050.26 2310.99 1079.83 2351.65 1098.7 2377.55L1082.54 2389.33ZM1094.5 2407.8C1093.9 2406.18 1092.67 2403.88 1090.51 2400.6C1088.39 2397.37 1085.73 2393.71 1082.54 2389.33L1098.7 2377.55C1101.81 2381.82 1104.79 2385.9 1107.23 2389.61C1109.63 2393.27 1111.88 2397.11 1113.28 2400.94L1094.5 2407.8ZM1098.68 2499.37C1098.36 2476.03 1098.07 2454.94 1097.42 2438.46C1097.09 2430.21 1096.67 2423.26 1096.13 2417.82C1095.56 2412.08 1094.92 2408.97 1094.5 2407.8L1113.28 2400.94C1114.67 2404.74 1115.46 2410.14 1116.03 2415.84C1116.63 2421.85 1117.06 2429.26 1117.4 2437.66C1118.07 2454.47 1118.36 2475.85 1118.68 2499.1L1098.68 2499.37ZM1109.72 2684.2C1100.55 2639.35 1099.52 2561.16 1098.68 2499.37L1118.68 2499.1C1119.53 2561.83 1120.61 2637.66 1129.32 2680.19L1109.72 2684.2ZM1114.48 2772.67C1117.09 2761.44 1118.71 2754.32 1118.45 2742.83C1118.18 2730.93 1115.86 2714.15 1109.72 2684.2L1129.32 2680.19C1135.48 2710.28 1138.13 2728.56 1138.45 2742.37C1138.77 2756.58 1136.6 2765.81 1133.96 2777.2L1114.48 2772.67ZM1109.67 2795.7C1111.35 2786.15 1113.04 2778.84 1114.48 2772.67L1133.96 2777.2C1132.53 2783.33 1130.94 2790.18 1129.37 2799.16L1109.67 2795.7ZM1123.2 2891.15C1113.03 2858.69 1103.73 2829.62 1109.67 2795.7L1129.37 2799.16C1124.4 2827.53 1131.88 2851.98 1142.29 2885.17L1123.2 2891.15ZM1123.05 2890.61L1123.05 2890.61L1142.44 2885.72L1142.44 2885.72L1123.05 2890.61ZM1135.29 2932.55C1131.47 2917.53 1127.24 2904.01 1123.2 2891.16L1142.29 2885.17C1146.31 2897.99 1150.7 2912 1154.67 2927.62L1135.29 2932.55ZM1096.68 3013.44C1106.59 3003.83 1118.55 2992.15 1126.95 2978.22C1135.21 2964.52 1139.57 2949.4 1135.29 2932.55L1154.67 2927.62C1160.67 2951.21 1154.15 2971.85 1144.07 2988.55C1134.14 3005.03 1120.29 3018.4 1110.61 3027.79L1096.68 3013.44ZM1080.82 3032.08C1082.32 3028.51 1085.14 3025.2 1087.51 3022.64C1090.1 3019.83 1093.35 3016.68 1096.68 3013.44L1110.61 3027.79C1107.15 3031.16 1104.34 3033.89 1102.2 3036.21C1101.15 3037.35 1100.38 3038.25 1099.85 3038.96C1099.28 3039.72 1099.2 3039.97 1099.26 3039.81L1080.82 3032.08ZM996.484 3030.34C999.453 3034.73 1005.19 3038.29 1013.96 3040.43C1022.61 3042.54 1033.03 3042.95 1043.47 3042.06C1053.87 3041.18 1063.73 3039.04 1071.12 3036.44C1074.84 3035.13 1077.64 3033.81 1079.49 3032.64C1081.68 3031.27 1081.32 3030.9 1080.82 3032.08L1099.26 3039.81C1097.32 3044.46 1093.3 3047.59 1090.12 3049.58C1086.61 3051.79 1082.34 3053.69 1077.77 3055.3C1068.59 3058.54 1057.04 3060.98 1045.16 3061.99C1033.32 3063 1020.6 3062.63 1009.22 3059.86C997.964 3057.11 986.781 3051.68 979.922 3041.55L996.484 3030.34ZM786.701 3032.9C832.445 3027.19 880.018 3021.25 917.576 3018.85C936.315 3017.65 952.989 3017.3 965.882 3018.4C972.305 3018.94 978.215 3019.88 983.137 3021.44C987.761 3022.91 993.166 3025.44 996.484 3030.34L979.922 3041.55C980.413 3042.28 980.304 3041.53 977.086 3040.51C974.166 3039.58 969.905 3038.81 964.187 3038.33C952.796 3037.36 937.303 3037.63 918.851 3038.81C882.027 3041.16 835.124 3047.01 789.178 3052.74L786.701 3032.9ZM668.457 3045.62C699.451 3043.78 742.169 3038.46 786.701 3032.9L789.178 3052.74C744.906 3058.27 701.435 3063.7 669.641 3065.58L668.457 3045.62ZM582.704 3065.73C608.774 3063.58 626.983 3060.9 639.755 3057.75C652.643 3054.56 659.044 3051.12 662.396 3048.14L675.702 3063.07C668.8 3069.22 658.72 3073.66 644.55 3077.16C630.263 3080.69 610.837 3083.48 584.344 3085.66L582.704 3065.73ZM355.625 3049.79C388.287 3061.88 440.487 3066.37 487.694 3067.49C534.524 3068.6 574.817 3066.38 582.704 3065.73L584.345 3085.66C575.76 3086.37 534.761 3088.61 487.22 3087.49C440.056 3086.37 384.806 3081.92 348.683 3068.55L355.625 3049.79ZM251.256 3023.28C283.107 3028.94 314.17 3034.45 355.625 3049.79L348.683 3068.55C309.022 3053.87 279.467 3048.61 247.759 3042.98L251.256 3023.28ZM252.668 3023.64L252.67 3023.64L246.345 3042.62L246.343 3042.62L252.668 3023.64ZM251.372 3023.31L251.376 3023.31L247.634 3042.95L247.63 3042.95L251.372 3023.31ZM251.667 3023.37L251.671 3023.37L247.332 3042.89L247.329 3042.89L251.667 3023.37ZM179.699 3007.98C206.705 3015.37 229.131 3019.35 251.247 3023.28L247.749 3042.97C225.634 3039.05 202.402 3034.92 174.426 3027.28L179.699 3007.98ZM110.956 2903.35C119.954 2932.28 127.334 2955.83 137.738 2973.81C147.817 2991.22 160.356 3002.7 179.699 3007.98L174.426 3027.28C148.919 3020.31 132.519 3004.71 120.429 2983.83C108.663 2963.5 100.64 2937.53 91.8585 2909.29L110.956 2903.35ZM76.2809 2808.01C92.0817 2842.63 102.187 2875.15 110.956 2903.35L91.8585 2909.29C83.0681 2881.02 73.2943 2849.63 58.087 2816.32L76.2809 2808.01ZM74.5659 2624.02C69.0605 2656.48 63.488 2689.43 62.3464 2721.1C61.2062 2752.74 64.5365 2782.29 76.2809 2808.01L58.087 2816.32C44.5525 2786.67 41.1604 2753.65 42.3594 2720.38C43.557 2687.16 49.3853 2652.88 54.8474 2620.68L74.5659 2624.02ZM76.3395 2475.83C85.1024 2495.78 86.752 2519.44 85.3146 2544.3C83.8735 2569.21 79.2322 2596.51 74.5659 2624.02L54.8474 2620.68C59.5613 2592.88 63.983 2566.74 65.3479 2543.14C66.7164 2519.48 64.9146 2499.55 58.0284 2483.87L76.3395 2475.83ZM71.1998 2331.09C63.8202 2380.39 56.5424 2430.77 76.3395 2475.83L58.0284 2483.87C35.5162 2432.63 44.2128 2376.28 51.4203 2328.13L71.1998 2331.09ZM77.1211 2247.36C79.9912 2272.83 75.5514 2302.02 71.1998 2331.09L51.4203 2328.13C55.8893 2298.28 59.7627 2271.93 57.2468 2249.6L77.1211 2247.36ZM92.223 2166.82C82.3163 2196.31 74.1606 2221.09 77.1211 2247.36L57.2468 2249.6C53.7061 2218.18 63.629 2189.14 73.2643 2160.45L92.223 2166.82ZM111.051 2041.32C117.455 2092.04 103.92 2132 92.223 2166.82L73.2643 2160.45C84.99 2125.55 96.98 2089.53 91.2089 2043.82L111.051 2041.32ZM109.738 1993.81C109.31 2014.52 109.715 2030.73 111.051 2041.32L91.2089 2043.82C89.6798 2031.71 89.3105 2014.28 89.7422 1993.4L109.738 1993.81ZM98.582 1983.62L99.5696 1983.6L99.9106 2003.6L98.9231 2003.62L98.582 1983.62ZM73.8754 1949.12C74.3512 1955.74 74.7573 1961.28 75.5502 1966.11C76.3414 1970.93 77.411 1974.28 78.795 1976.66C80.0444 1978.8 81.6694 1980.37 84.2727 1981.53C87.0995 1982.79 91.536 1983.74 98.5771 1983.62L98.928 2003.62C90.1367 2003.77 82.5342 2002.64 76.1497 1999.81C69.5417 1996.87 64.7834 1992.34 61.5116 1986.72C58.3745 1981.33 56.7852 1975.26 55.8143 1969.35C54.845 1963.44 54.3855 1956.93 53.9269 1950.55L73.8754 1949.12ZM51.0812 1873.2C70.5212 1900.42 72.3951 1928.52 73.8754 1949.12L53.9269 1950.55C52.4396 1929.86 50.6511 1907.01 34.8065 1884.82L51.0812 1873.2ZM23.3575 1645.84C21.6631 1675.13 21.0908 1721.92 24.8779 1766.79C26.7715 1789.23 29.7378 1810.98 34.124 1829.71C38.5574 1848.65 44.2434 1863.63 51.0812 1873.2L34.8065 1884.82C25.699 1872.07 19.2874 1854.08 14.6504 1834.27C9.96643 1814.26 6.89014 1791.48 4.94873 1768.48C1.06592 1722.47 1.65417 1674.7 3.39099 1644.68L23.3575 1645.84ZM58.5728 1475.14C37.8955 1527.92 21.7231 1588.22 23.3701 1644.97L3.37842 1645.55C1.62036 1584.97 18.8174 1521.79 39.9504 1467.84L58.5728 1475.14ZM42.8328 1440.41C43.1156 1448.79 44.8612 1453.82 46.7012 1456.82C48.46 1459.69 50.6353 1461.26 53.0037 1462.22L45.5195 1480.76C39.5774 1478.37 33.8643 1474.15 29.6508 1467.28C25.5184 1460.54 23.2078 1451.87 22.8442 1441.08L42.8328 1440.41ZM49.7512 1383.58C44.6908 1403.98 41.9727 1414.89 42.8328 1440.41L22.8441 1441.08C21.8929 1412.86 25.1019 1399.88 30.3396 1378.77L49.7512 1383.58ZM56.4572 1354.91C53.9608 1366.61 51.6858 1375.78 49.7512 1383.58L30.3396 1378.77C32.27 1370.98 34.4755 1362.09 36.8973 1350.74L56.4572 1354.91ZM92.7487 1276.36C77.161 1303.9 61.3293 1332.08 56.4572 1354.91L36.8973 1350.74C42.5547 1324.22 60.3212 1293.05 75.3439 1266.51L92.7487 1276.36ZM92.6223 1276.58L92.6212 1276.58L75.4713 1266.29L75.4724 1266.29L92.6223 1276.58ZM119.227 1223.69C114.168 1238.61 103.44 1257.48 92.7498 1276.36L75.345 1266.51C86.4373 1246.91 95.9789 1229.97 100.286 1217.27L119.227 1223.69ZM134.385 1188.43C128.751 1200.18 123.407 1211.36 119.227 1223.69L100.286 1217.27C104.911 1203.62 110.782 1191.4 116.35 1179.79L134.385 1188.43ZM156.772 1126.5C152.385 1150.99 143.077 1170.3 134.385 1188.43L116.35 1179.79C125.117 1161.5 133.238 1144.45 137.085 1122.97L156.772 1126.5ZM209.914 1014.1C206.754 1016.24 202.036 1021.53 196.382 1030.18C190.93 1038.51 185.222 1049 179.833 1060.39C168.989 1083.31 159.937 1108.83 156.772 1126.5L137.085 1122.97C140.679 1102.91 150.504 1075.62 161.754 1051.84C167.411 1039.88 173.554 1028.54 179.644 1019.23C185.531 1010.23 192.046 1002.05 198.698 997.54L209.914 1014.1ZM231.697 999.016C223.251 1004.91 215.72 1010.17 209.914 1014.1L198.698 997.54C204.362 993.703 211.761 988.54 220.252 982.615L231.697 999.016ZM231.709 999.008L231.68 999.028L220.269 982.603L220.297 982.583L231.709 999.008ZM231.552 999.115L231.55 999.116L220.456 982.475L220.458 982.474L231.552 999.115ZM231.715 999.004L231.706 999.01L220.304 982.578L220.313 982.572L231.715 999.004ZM231.765 998.969L231.748 998.98L220.279 982.596L220.296 982.584L231.765 998.969ZM231.834 998.92L231.826 998.926L220.235 982.627L220.243 982.621L231.834 998.92ZM231.735 998.989L231.731 998.992L220.346 982.549L220.351 982.545L231.735 998.989ZM300.11 952.91C278.45 966.392 252.322 984.622 231.766 998.968L220.32 982.567C240.76 968.303 267.346 949.746 289.541 935.931L300.11 952.91ZM355.056 927.095C334.037 935.932 313.39 944.644 300.11 952.91L289.541 935.931C304.488 926.628 326.877 917.247 347.305 908.658L355.056 927.095ZM415.204 896.106C409.623 901.687 400.107 906.923 390.131 911.723C379.778 916.705 367.399 921.906 355.057 927.095L347.305 908.658C359.783 903.412 371.654 898.419 381.459 893.701C391.641 888.802 398.192 884.834 401.062 881.964L415.204 896.106ZM483.229 865.254C473.879 868.213 459.254 873.353 445.533 879.229C438.672 882.167 432.174 885.231 426.731 888.24C421.131 891.336 417.274 894.036 415.204 896.106L401.062 881.964C405.15 877.877 410.983 874.093 417.055 870.737C423.284 867.293 430.439 863.936 437.66 860.844C452.104 854.658 467.362 849.297 477.195 846.186L483.229 865.254Z" fill="white" mask="url(#path-12-outside-1)"/>
<path d="M765.901 267.492L772.91 242.368L774.693 240.014L795.495 240.002C802.396 239.624 806.715 237.64 808.452 234.049C810.357 230.111 809.438 225.807 805.694 221.137C802.006 216.351 795.7 211.513 786.774 206.623L785.854 202.319L802.896 185.265L806.606 185.13C816.223 190.069 824.211 195.863 830.57 202.513C837.101 209.104 841.419 215.838 843.523 222.716C845.742 229.65 845.479 235.955 842.733 241.63C840.716 245.8 838.14 249.056 835.006 251.399C832.043 253.682 827.752 255.608 822.133 257.177C816.57 258.631 808.59 260.058 798.192 261.46L797.166 262.25L792.757 274.91L790.016 276.586L767.834 270.142L765.901 267.492ZM756.785 316.467C751.457 313.89 748.076 310.538 746.641 306.414C745.262 302.173 745.862 297.389 748.439 292.061C751.129 286.502 754.822 282.857 759.518 281.127C764.33 279.453 769.458 279.933 774.902 282.567C779.998 285.032 783.236 288.385 784.614 292.626C786.109 296.922 785.596 301.676 783.074 306.888C780.384 312.448 776.691 316.093 771.995 317.823C767.299 319.553 762.229 319.101 756.785 316.467Z" fill="#FFDD66"/>
<path d="M617.989 160.049L617.623 133.968L618.668 131.207L638.622 125.325C645.136 123.015 648.719 119.893 649.372 115.958C650.089 111.642 647.992 107.773 643.083 104.349C638.194 100.798 630.778 97.937 620.835 95.7645L618.739 91.8949L630.275 70.7244L633.796 69.5482C644.416 71.5721 653.714 74.8766 661.692 79.4616C669.817 83.9409 675.86 89.1829 679.819 95.1877C683.905 101.214 685.432 107.336 684.4 113.556C683.641 118.125 682.089 121.976 679.743 125.108C677.545 128.134 673.972 131.193 669.024 134.285C664.098 137.249 656.845 140.871 647.265 145.15L646.504 146.197L645.846 159.587L643.69 161.968L620.592 162.047L617.989 160.049ZM623.065 209.607C617.226 208.638 613.037 206.377 610.496 202.825C607.977 199.146 607.201 194.387 608.171 188.548C609.182 182.456 611.697 177.917 615.714 174.932C619.858 171.968 624.913 170.981 630.878 171.971C636.463 172.898 640.515 175.202 643.035 178.88C645.681 182.581 646.53 187.286 645.582 192.998C644.571 199.091 642.056 203.63 638.039 206.615C634.022 209.6 629.031 210.597 623.065 209.607Z" fill="#FFDD66"/>
<path d="M427.26 203.267L422.872 177.555L423.478 174.666L442.285 165.774C448.364 162.486 451.422 158.848 451.46 154.859C451.502 150.485 448.833 146.985 443.453 144.361C438.075 141.607 430.307 139.925 420.147 139.314L417.479 135.814L425.608 113.117L428.905 111.411C439.71 111.771 449.408 113.6 457.997 116.899C466.717 120.07 473.496 124.316 478.335 129.638C483.303 134.961 485.756 140.774 485.697 147.079C485.652 151.71 484.713 155.755 482.879 159.211C481.175 162.541 478.117 166.114 473.706 169.933C469.296 173.622 462.689 178.32 453.885 184.027L453.295 185.179L454.712 198.51L452.949 201.196L430.14 204.839L427.26 203.267ZM439.926 251.447C434.008 251.391 429.519 249.804 426.461 246.687C423.403 243.441 421.903 238.859 421.959 232.94C422.018 226.765 423.801 221.892 427.309 218.323C430.946 214.754 435.788 212.999 441.835 213.056C447.496 213.11 451.855 214.76 454.913 218.006C458.099 221.253 459.664 225.772 459.609 231.561C459.55 237.737 457.767 242.61 454.259 246.179C450.751 249.749 445.973 251.504 439.926 251.447Z" fill="#FFDD66"/>
<path d="M286.551 311.682L272.555 289.671L271.996 286.772L285.896 271.295C290.229 265.911 291.641 261.372 290.132 257.68C288.478 253.63 284.663 251.436 278.687 251.098C272.662 250.64 264.848 252.095 255.243 255.463L251.428 253.269L250.14 229.194L252.521 226.345C262.623 222.496 272.273 220.43 281.47 220.147C290.737 219.697 298.632 220.989 305.153 224.023C311.793 227.009 316.306 231.42 318.69 237.256C320.442 241.544 321.141 245.637 320.787 249.534C320.504 253.264 319.068 257.742 316.478 262.97C313.839 268.079 309.565 274.968 303.655 283.636L303.557 284.927L310.023 296.671L309.437 299.83L289.815 312.016L286.551 311.682ZM316.875 351.206C311.396 353.444 306.643 353.718 302.617 352.027C298.542 350.217 295.385 346.573 293.146 341.094C290.811 335.377 290.569 330.193 292.423 325.544C294.395 320.847 298.181 317.355 303.779 315.067C309.02 312.926 313.678 312.761 317.753 314.571C321.947 316.332 325.139 319.892 327.329 325.252C329.665 330.969 329.906 336.153 328.052 340.802C326.199 345.45 322.473 348.918 316.875 351.206Z" fill="#FFDD66"/>
</svg>
