<svg width="393" height="723" fill="none" xmlns="http://www.w3.org/2000/svg"><path d="M223.727 278.035H178.28c1.558 34.098 2.542 102.177-5.992 101.71-10.668-.585 7.161 25.427-5.845 28.35-13.006 2.922 8.183 76.866 0 92.211-8.184 15.344 0 69.121 0 75.551 0 6.43 8.914 53.777 0 67.368-8.914 13.59-5.407 92.795-5.407 100.394 0 7.599 4.238 55.531 0 78.621-4.238 23.089.292 62.691 2.63 72.628 2.338 9.937-3.799 16.075 31.711 18.998 5.389.443 53.193 2.923 75.698-5.407 22.505-8.33 35.365-7.599 57.285-13.591 21.92-5.991 20.605-33.611 35.949-67.221 15.344-33.611-11.106-83.443 0-108.724 11.106-25.282-2.338-54.947 0-75.698 2.338-20.751-14.76-38.433-11.106-67.368 2.922-23.148-7.453-115.933-13.006-159.433l-116.47-138.389z" fill="#3F7AD3"/><path d="M172.866 370.684c-6.663-33.319 2.777-76.136 8.33-93.38l-39.018-14.029-65.176 107.409c-7.258 67.125-22.27 205.611-24.258 222.563-2.484 21.189-9.06 16.659-7.745 47.932 1.315 31.273-17.246 45.854-19.875 53.047-2.776 7.599 0 65.906-5.114 90.895-5.115 24.989-2.485 23.528 0 37.703 2.484 14.175-3.8 25.573-8.33 43.402-4.53 17.828 16.075 30.103 17.975 34.633 1.9 4.531 26.889 9.499 33.318 0 6.43-9.498 97.764 9.499 116.908 6.284 15.315-2.572-8.184-14.905-11.691-25.866-1.461-16.367-3.215-44.717 0-79.204 3.215-34.488 7.9-45.63 1.169-58.746-5.699-11.107-2.776-77.89 5.553-94.549 6.664-13.328-3.653-48.955-6.43-65.761-1.948-15.344-3.799-50.884 4.384-70.29 10.23-24.259-4.384-70.437 0-76.136 4.384-5.7 8.33-24.259 0-65.907z" fill="#2E5A9C"/><path d="M262.602 522.52c-.958-3.214-1.304-8.542-1.239-15.004-10.185-.516-19.421-1.016-24.48-1.363-14.906-1.023-50.271-10.084-59.915-9.499-7.716.468-18.803-3.02-23.382-4.822l-3.215-59.331h41.356c12.86 0 53.193 4.238 64.299 0 8.885-3.39 44.035-1.413 60.5 0l20.166 56.7-15.782 8.677v24.642c-2.533 21.725-6.079 68.975 0 84.173 7.599 18.998.731 54.508 8.33 69.706s3.068 49.978 0 67.514c-3.069 17.536 8.329 68.829 8.329 87.096 0 18.267-56.115 0-65.176 0-9.06 0-5.261-40.917 0-59.915 5.261-18.997.731-73.505-5.261-99.956-4.793-21.16-5.017-51.78-4.53-64.445 1.51-22.992 3.624-72.015 0-84.173z" fill="#2E5A9C"/><path d="M32.17 364.204S6.802 512.725 13 524.65c6.202 11.821 21.439 11.328 26.327 19.369 52.756 15.01 46.389 4.569 46.389 4.569s-15.159-95.337-6.336-115.037c9.286-20.934-.95-60.416-.95-60.416l-46.262-8.931zM381.909 445.866c1.42-48.914-36.237-104.367-36.237-104.367s-6.21-11.51-41.402 19.69c18.82 52.515-3.72 157.567-2.97 185.653 0 13.738 34.091 12.671 52.676 12.997 18.585.326 5.217-19.237 18.259-37.496 10.433-14.607 10.797-57.071 9.674-76.477zM144.109 378.825l22.913-137.465 29.396-17.507 29.18 20.965c10.015 44.165 30.045 134.915 30.045 144.598 0 12.104-54.47 15.562-72.41 4.539-14.353-8.818-26.01-6.7-30.045-4.539l-9.079-10.591z" fill="#3F7AD3"/><path d="M147.281 102.066c-1.97-5.8-1.642-13.907-1.231-17.235l8.207-23.254 20.382-21.612 36.113 7.386 32.283 9.438 5.335 37.617-17.92 57.86-17.373 39.12-14.636-10.532-29.821-8.618-19.834 2.326c.319-5.836 1.149-18.603 1.915-22.98.957-5.472-.958-42.267-3.42-49.516z" fill="#FFCBC8"/><path d="M252.76 198.455c-4.059-4.059-17.507-8.987-23.723-10.944-20.688-6.26-17.745 39.819-19.548 41.262-1.803 1.444-.542 7.891-1.083 16.599-.542 8.709 2.886 47.272 2.886 53.586 0 6.315.18 43.302 0 47.091-.181 3.789.179 36.169 1.623 41.498 1.443 5.328 7.217 3.608 17.321 5.413 10.104 1.804 32.478-4.15 37.349-5.413 4.872-1.263 16.42-8.48 20.57-7.398 4.15 1.083 10.778.303 16.483 2.069 5.706 1.766 23.772 3.939 30.7 3.803 6.927-.135 25.129 3.26 28.118 3.532 2.988.272 11.682 1.494 12.089-10.595.408-12.089-1.579-14.945-4.527-28.764-2.949-13.819-16.953-32.43-20.638-43.301-3.686-10.871-9.951-18.978-12.162-31.324-2.211-12.345-12.352-34.556-18.772-38.905-6.42-4.349-19.467-13.772-29.615-20.088-10.148-6.317-31.997-13.047-37.071-18.121zM169.465 283.256c1.999-14.737 2.121-30.155 1.933-36.022-10.323-18.59-31.469-55.769-33.467-55.769-2.498 0-6.245 7.493-13.738 8.43-7.494.936-19.983 17.484-28.725 17.796-8.742.312-20.92 13.737-31.535 19.669-10.616 5.932-31.535 75.556-33.72 87.108-2.186 11.552-16.549 45.271-5.308 52.14 11.24 6.869 11.864-.312 35.905 0 24.042.312 69.003 15.923 88.049 14.362 19.045-1.561 8.117-14.05 15.299-42.774 7.181-28.723 2.81-46.52 5.307-64.94z" fill="#F87980"/><path d="M238.2 145.234c-5.118 5.646-8.162 30.734-9.044 42.571-.813 8.652-4.903 21.565-5.048 30.587-.146 9.022-5.24 19.355-15.718 18.19-10.478-1.164-16.299 1.456-24.885 6.403-8.586 4.948-14.407 4.948-27.649 2.038-13.242-2.911-21.394-16.299-24.305-25.903-2.91-9.605 3.638-26.922 7.713-32.598 4.075-5.675 7.713-25.757 9.75-28.086 1.63-1.862 1.892-9.352 1.819-12.863.372 1.302.744 1.984 1.612 4.96.868 2.976-2.852 18.662-1.612 18.786 1.24.124.558-2.108 5.023-2.356 4.464-.248.285 2.975 17.05 3.417 16.764.441 37.058 14.337 39.926 12.793 2.868-1.544 4.191-18.308 12.794-34.189 8.603-15.882 12.574-42.572 15.221-51.395 2.646-8.823 3.088-23.381 0-26.249-3.089-2.867-11.691 1.765-17.427-5.294-5.735-7.058-6.397-3.97-12.353-2.867-5.955 1.103-11.25-12.132-20.735-16.544-7.588-3.529-19.779 4.559-24.926 9.044-10.588 4.853-16.103 28.013-18.75 29.778-2.647 1.765-6.567-10.457 3.971-26.028 19.852-29.337 3.088-30.22 20.956-39.704 17.867-9.485 14.337-12.132 45.44-7.5 31.103 4.632 34.853 21.837 37.059 28.455 2.206 6.617 6.838 58.232 0 70.364-6.838 12.132-9.485 27.131-15.882 34.19z" fill="#2C1E25"/><path d="M156.642 175.683c3.547-3.266 10.81-.661 13.999 1.05 6.3 3.383 12.365 3.033 21.698 5.716 9.332 2.683 4.432 6.299 4.432 9.915 0 3.616-3.033 5.949-10.732 6.183-7.699.233-10.965-4.083-15.981-4.083-5.017 0-5.367 5.366-13.416 0s-4.433-14.698 0-18.781z" fill="#FFCBC8"/><path d="M221.395 85.349c-7.121-2.806-12.318.27-14.027 2.157 5.665 9.171 10.79 4.316 12.678 7.823 5.395 4.747 13.577.899 16.994-1.619 2.967-.809-6.744-4.855-15.645-8.361zM147.216 78.336c-1.888-2.698 16.454-4.586 20.231-1.08 2.295 2.87 6.455 3.69 8.873 3.777 1.591 2.697-7.525 2.967-10.492 4.316-2.967 1.348-16.724-4.316-18.612-7.013z" fill="#2C1E25"/><mask id="a" maskUnits="userSpaceOnUse" x="207" y="105" width="23" height="15"><path d="M228.308 113.121c-.776-2.574-6.396-5.465-9.109-6.59-3.812-1.867-10.892-1.356-11.939 2.365-1.046 3.721 4.303 5.775 7.83 7.403 3.528 1.628 10.427 4.302 13.218 3.101 2.79-1.202.969-3.062 0-6.279z" fill="#FFF1F0"/></mask><g mask="url(#a)"><path d="M228.308 113.121c-.776-2.574-6.396-5.465-9.109-6.59-3.812-1.867-10.892-1.356-11.939 2.365-1.046 3.721 4.303 5.775 7.83 7.403 3.528 1.628 10.427 4.302 13.218 3.101 2.79-1.202.969-3.062 0-6.279z" fill="#FFF1F0"/><path d="M216.78 112.222c1.162-2.769-.997-6.708-2.222-8.331l-13.372 4.272c2.933 3.005 9.006 9.014 9.826 9.014 1.026 0 4.315-1.495 5.768-4.955z" fill="#2C1E25"/></g><path d="M163.668 129.588c11.329-10.789 18.881-38.571 23.197-53.137 1.669-5.675 5.9-4.657 7.222 2.835 1.322 7.491-8.639 57.182-8.639 57.182s-1.089 4.041.608 3.64c3.506-1.079 8.632 5.125-3.777 12.677-12.408 7.553-27.513-11.868-18.611-23.197z" fill="#EAB9AA"/><mask id="b" maskUnits="userSpaceOnUse" x="150" y="95" width="25" height="14"><path d="M174.957 104.027c.417 1.365-2.764 2.811-4.407 3.364-4.406 1.327-7.059 1.279-11.608-.474-4.548-1.753-6.87-4.027-7.676-4.975-.805-.947-.521-2.274 2.322-4.311s5.496-1.943 11.134-1.232c5.639.71 9.713 5.922 10.235 7.628z" fill="#FFF1F0"/></mask><g mask="url(#b)"><path d="M174.957 104.027c.417 1.365-2.764 2.811-4.407 3.364-4.406 1.327-7.059 1.279-11.608-.474-4.548-1.753-6.87-4.027-7.676-4.975-.805-.947-.521-2.274 2.322-4.311s5.496-1.943 11.134-1.232c5.639.71 9.713 5.922 10.235 7.628z" fill="#FFF1F0"/><path d="M162.398 102.362c2.123-3.15.143-6.534-1.113-7.832l-15.494-.6c2.04 4.723 6.729 14.176 9.16 14.21 3.039.043 4.794-1.84 7.447-5.778z" fill="#2C1E25"/></g><path d="M172.827 185.895c-3.523-.196-8.101-2.746-9.949-3.996-1.716-1.055-1.958-2.283-1.876 0 .082 2.284.979 5.056 9.134 7.91 8.155 2.855 16.228-1.06 18.267-1.794 2.039-.734 3.262-3.18-.571-2.12s-10.602.245-15.005 0z" fill="#2C1E25"/><mask id="c" maskUnits="userSpaceOnUse" x="0" y="0" width="393" height="925" fill="#000"><path fill="#fff" d="M0 0h393v925H0z"/><path fill-rule="evenodd" clip-rule="evenodd" d="M229.143 187.555c.907-11.938 3.944-36.714 9.026-42.321 3.586-3.957 5.994-10.41 8.622-17.454 2.06-5.521 4.255-11.405 7.26-16.736 6.838-12.132 2.206-63.747 0-70.364a99.88 99.88 0 01-.382-1.184c-2.319-7.288-7.285-22.893-36.677-27.27-25.782-3.84-27.767-2.679-37.869 3.234-2.084 1.22-4.515 2.642-7.571 4.265-8.943 4.747-9.21 7.34-9.735 12.422-.524 5.073-1.305 12.628-11.221 27.282-9.642 14.247-7.18 25.69-4.664 26.181a54.31 54.31 0 00-.122 8.323l-.05-.002.059.136c.181 2.723.603 5.564 1.43 7.998 2.02 5.95 3.673 31.797 3.671 43.901-.04-.127-.079-.257-.118-.393a63.018 63.018 0 01-.223 6.557 66.006 66.006 0 00-.346 2.714c-.279 1.61-.681 2.943-1.25 3.592-.87.995-2.032 5.227-3.395 10.192-1.829 6.662-4.02 14.643-6.355 17.894-.99 1.379-2.125 3.444-3.236 5.919-.502.419-1.048.945-1.649 1.524-2.359 2.27-5.558 5.351-10.186 5.929-3.492.437-8.069 4.263-12.846 8.257-5.474 4.576-11.211 9.373-15.88 9.539-5.458.195-12.256 5.503-19.177 10.907-4.163 3.25-8.37 6.535-12.357 8.763-10.616 5.932-31.535 75.556-33.721 87.108-.521 2.755-1.735 6.77-3.129 11.382-4.45 14.726-10.738 35.527-2.179 40.757 1.837 1.123 3.39 1.87 4.808 2.336-6.211 37.835-21.704 136.1-16.71 145.707 3.436 6.551 9.647 9.32 15.334 11.855 4.576 2.04 8.812 3.929 10.992 7.514 7.14 2.032 13.197 3.597 18.333 4.785-2.467 22.556-4.307 39.235-4.917 44.443-.973 8.296-2.573 12.649-4.08 16.753-2.344 6.377-4.466 12.15-3.666 31.179.99 23.526-9.27 37.606-15.532 46.2-2.062 2.83-3.69 5.065-4.342 6.847-1.188 3.252-1.36 15.794-1.567 31.036-.278 20.371-.622 45.566-3.547 59.859-4.021 19.645-3.255 22.943-1.537 30.343.467 2.012 1.005 4.329 1.537 7.36 1.785 10.19-.96 18.945-4.327 29.685-1.317 4.2-2.73 8.704-4.003 13.717-3.362 13.229 7.117 23.401 13.523 29.619 2.227 2.162 3.961 3.846 4.451 5.014 1.9 4.531 26.89 9.499 33.32 0 3.7-5.466 35.521-1.494 65.52 2.25 14.528 1.813 28.629 3.573 38.901 4.181 3.354 2.991 10.783 5.16 27.982 6.576 5.389.443 53.193 2.923 75.698-5.407 13.27-4.912 23.186-6.673 33.585-8.52 7.236-1.285 14.705-2.612 23.699-5.071 14.674-4.011 18.936-17.713 24.753-36.417 2.872-9.237 6.124-19.693 11.196-30.804 8.271-18.117 4.399-40.946.811-62.103-3.069-18.095-5.93-34.967-.811-46.621 6.922-15.755 4.309-33.213 1.922-49.154-1.443-9.639-2.803-18.725-1.922-26.544 1.064-9.438-1.893-18.242-5.09-27.758-3.832-11.406-8.007-23.836-6.016-39.61.469-3.713.596-9.218.455-16.023l.319.005c10.359.182 10.791-5.816 11.402-14.324.485-6.755 1.084-15.091 6.857-23.172 10.433-14.607 10.796-57.071 9.674-76.477.557-19.191-4.901-39.387-11.739-56.847 2.72-1.096 5.164-3.785 5.376-10.06.296-8.79-.674-12.699-2.358-19.49-.632-2.549-1.365-5.503-2.17-9.275-1.722-8.073-7.218-17.782-12.226-26.627v-.001c-3.563-6.295-6.879-12.152-8.412-16.672-1.44-4.249-3.275-8.076-5.107-11.899-2.856-5.958-5.707-11.905-7.054-19.425-2.211-12.346-12.352-34.557-18.772-38.906-1.878-1.272-4.323-2.978-7.096-4.914l-.013-.008v-.001l-.002-.001c-6.706-4.68-15.33-10.698-22.505-15.164-4.617-2.874-11.657-5.834-18.438-8.684-8.12-3.414-15.868-6.671-18.633-9.436-4.029-4.03-17.311-8.916-23.586-10.901z"/></mask><path d="M238.169 145.234l7.41 6.715-7.41-6.715zm-9.026 42.321l-9.971-.758a10.002 10.002 0 006.955 10.292l3.016-9.534zm17.648-59.775l9.369 3.496c.041-.111.08-.222.118-.334l-9.487-3.162zm0 0l-9.369-3.496c-.041.11-.081.222-.118.333l9.487 3.163zm7.26-16.736l8.711 4.91-8.711-4.91zm0-70.364l9.487-3.163-9.487 3.163zm-.382-1.184l9.529-3.032-9.529 3.032zm-36.677-27.27l1.473-9.892-1.473 9.891zm-37.869 3.234l-5.051-8.63 5.051 8.63zm-7.571 4.265l-4.689-8.833 4.689 8.833zm-9.735 12.422l9.947 1.027-9.947-1.027zm-11.221 27.282l8.281 5.604-8.281-5.604zm-4.664 26.181l9.953.971a10 10 0 00-8.039-10.786l-1.914 9.815zm-.122 8.323l-.386 9.992a9.996 9.996 0 0010.366-10.627l-9.98.635zm-.05-.002l.386-9.993a10.001 10.001 0 00-9.561 13.969l9.175-3.976zm.059.136l9.978-.663a10.005 10.005 0 00-.802-3.313l-9.176 3.976zm1.43 7.998l9.468-3.216-9.468 3.216zm3.671 43.901l-9.542 2.992a10 10 0 0019.542-2.991l-10-.001zm-.118-.393l9.615-2.748a10 10 0 00-19.612 2.955l9.997-.207zm-.223 6.557l9.884 1.52c.031-.204.056-.409.075-.615l-9.959-.905zm-.346 2.714l9.853 1.71c.035-.205.064-.41.087-.616l-9.94-1.094zm-1.25 3.592l7.526 6.586-7.526-6.586zm-3.395 10.192l9.487 3.163a9.51 9.51 0 00.156-.515l-9.643-2.648zm0 0l-9.487-3.162c-.057.17-.109.342-.156.515l9.643 2.647zm-6.355 17.894l8.123 5.833-8.123-5.833zm-3.236 5.919l6.408 7.677a10 10 0 002.715-3.583l-9.123-4.094zm-1.649 1.524l-6.936-7.204a5.658 5.658 0 00-.135.133l7.071 7.071zm0 0l6.935 7.204a8.53 8.53 0 00.136-.133l-7.071-7.071zm-10.186 5.929l1.24 9.923-1.24-9.923zm-12.846 8.257l6.414 7.672-6.414-7.672zm-15.88 9.539l.357 9.994-.356-9.994zM76.26 228.597l-6.154-7.882 6.154 7.882zm-12.357 8.763l4.878 8.729-4.878-8.729zM30.18 324.468l-9.826-1.859 9.826 1.859zm-3.129 11.382l9.572 2.894-9.572-2.894zm-2.179 40.757l-5.214 8.533 5.214-8.533zm4.808 2.336l9.868 1.62a10 10 0 00-6.745-11.12l-3.123 9.5zM12.971 524.65l-8.874 4.612.018.033 8.855-4.645zm15.334 11.855l4.072-9.133-4.072 9.133zm10.992 7.514l-8.545 5.195a10.003 10.003 0 005.808 4.423l2.737-9.618zm18.333 4.785l9.94 1.087a10 10 0 00-7.686-10.83l-2.254 9.743zm-4.917 44.443l9.932 1.164-9.932-1.164zM48.633 610l9.386 3.449L48.632 610zm-3.666 31.179l-9.99.42 9.99-.42zm-15.532 46.2l-8.082-5.889 8.082 5.889zm-4.342 6.847l9.393 3.431-9.393-3.431zm-1.567 31.036l9.999.137-10-.137zm-3.547 59.859l9.796 2.005-9.796-2.005zm-1.537 30.343l9.74-2.262v-.001l-9.74 2.263zm1.537 7.36l9.85-1.727-9.85 1.727zm-4.327 29.685l9.542 2.992-9.542-2.992zm-4.003 13.717l-9.692-2.463 9.692 2.463zm13.523 29.619l-6.966 7.175 6.966-7.175zm4.451 5.014l9.222-3.867-9.221 3.867zm33.32 0l8.28 5.606-8.28-5.606zm65.52 2.25l1.238-9.923-1.238 9.923zm38.901 4.181l6.654-7.464a9.997 9.997 0 00-6.063-2.518l-.591 9.982zm27.982 6.576l-.82 9.966.82-9.966zm75.698-5.407l3.471 9.378-3.471-9.378zm33.585-8.52l-1.749-9.846 1.749 9.846zm23.699-5.071l2.637 9.647v-.001l-2.637-9.646zm24.753-36.417l-9.549-2.97 9.549 2.97zm11.196-30.804l9.097 4.152-9.097-4.152zm.811-62.103l9.859-1.672-9.859 1.672zm-.811-46.621l9.156 4.022-9.156-4.022zm1.922-49.154l9.89-1.48-9.89 1.48zm-1.922-26.544l9.938 1.12-9.938-1.12zm-5.09-27.758l-9.48 3.184 9.48-3.184zm-6.016-39.61l-9.921-1.253 9.921 1.253zm.455-16.023l.171-9.999a9.998 9.998 0 00-10.169 10.205l9.998-.206zm.319.005l.175-9.998h-.005l-.17 9.998zm11.402-14.324l-9.974-.717 9.974.717zm6.857-23.172l-8.138-5.812 8.138 5.812zm9.674-76.477l-9.996-.29c-.008.289-.004.578.013.867l9.983-.577zm-11.739-56.847l-3.739-9.275c-5.087 2.05-7.573 7.815-5.573 12.922l9.312-3.647zm5.376-10.06l9.994.337-9.994-.337zm-2.358-19.49l-9.706 2.408 9.706-2.408zm-2.17-9.275l9.78-2.086-9.78 2.086zm-12.226-26.627l-8.944 4.472c.077.153.157.305.242.454l8.702-4.926zm0-.001l8.944-4.472a8.983 8.983 0 00-.242-.454l-8.702 4.926zm-8.412-16.672l9.471-3.211-9.471 3.211zm-5.107-11.899l9.017-4.323-9.017 4.323zm-7.054-19.425l9.843-1.763-9.843 1.763zm-18.772-38.906l5.608-8.279-5.608 8.279zm-7.096-4.914l-5.73 8.197.007.004 5.723-8.201zm-.013-.008l-5.812 8.137.083.059 5.729-8.196zm0-.001l5.812-8.137-.046-.032-5.766 8.169zm-.002-.001l5.767-8.169a1.181 1.181 0 00-.044-.031l-5.723 8.2zM289.8 216.576l5.285-8.49-5.285 8.49zm-18.438-8.684l3.876-9.219-3.876 9.219zm-18.633-9.436l-7.071 7.071 7.071-7.071zm-21.97-59.938c-2.884 3.183-4.536 7.695-5.575 11.077-1.179 3.834-2.146 8.265-2.936 12.656-1.584 8.81-2.605 18.341-3.076 24.546l19.943 1.515c.435-5.732 1.386-14.558 2.818-22.522.718-3.996 1.519-7.558 2.368-10.319.987-3.213 1.621-3.901 1.278-3.522l-14.82-13.431zm6.663-14.234c-1.347 3.608-2.472 6.609-3.663 9.191-1.203 2.607-2.198 4.158-3 5.043l14.82 13.431c2.784-3.072 4.785-6.725 6.34-10.095 1.567-3.395 2.959-7.143 4.241-10.578l-18.738-6.992zm-.118.333v.001l18.974 6.324-18.974-6.325zm8.035-18.483c-3.453 6.127-5.905 12.756-7.917 18.15l18.738 6.991c2.107-5.648 4.046-10.786 6.602-15.321l-17.423-9.82zm-.775-62.292c-.018-.053.194.724.521 2.813.292 1.861.608 4.298.915 7.169.614 5.736 1.169 12.959 1.45 20.35.281 7.422.278 14.812-.177 20.949-.227 3.07-.557 5.662-.969 7.702a22.154 22.154 0 01-.609 2.402c-.096.294-.18.515-.248.674a3.272 3.272 0 01-.108.233l17.423 9.82c1.607-2.85 2.537-6.166 3.144-9.161.634-3.131 1.047-6.614 1.313-10.192.53-7.16.513-15.362.216-23.186-.298-7.857-.887-15.537-1.549-21.72-.33-3.087-.685-5.864-1.042-8.139-.321-2.048-.737-4.332-1.306-6.039l-18.974 6.325zm-.425-1.314c.13.408.278.873.425 1.314l18.974-6.325c-.096-.286-.2-.613-.34-1.053l-19.059 6.064zm-28.62-20.412c12.995 1.935 19.413 6.143 22.79 9.62 3.466 3.569 4.728 7.328 5.83 10.792l19.059-6.064c-1.217-3.824-3.597-11.511-10.542-18.662-7.033-7.242-17.793-13.026-34.191-15.468l-2.946 19.782zm-31.344 1.974c5.174-3.028 6.498-3.678 9.099-3.965 3.469-.383 9.102.034 22.245 1.991l2.946-19.782C205.826.452 197.576-.47 191.081.246c-7.362.812-12.081 3.7-17.009 6.583l10.103 17.261zm-7.935 4.468c3.257-1.73 5.845-3.245 7.935-4.468L174.072 6.83c-2.079 1.216-4.353 2.546-7.209 4.062l9.377 17.666zm-4.476 4.616c.301-2.92.418-2.319.086-1.82-.132.198-.091.04.567-.465.692-.53 1.86-1.29 3.823-2.331l-9.377-17.666c-4.791 2.543-8.968 5.336-11.658 9.374-2.833 4.252-3.112 8.69-3.335 10.854l19.894 2.054zm-12.887 31.86c5.334-7.882 8.459-14.22 10.306-19.582 1.883-5.466 2.299-9.546 2.581-12.278L151.87 31.12c-.242 2.341-.479 4.575-1.596 7.818-1.153 3.347-3.377 8.113-7.96 14.886l16.563 11.21zm-11.031 10.761c3.102.605 4.714 2.525 5.183 3.154.574.768.741 1.326.744 1.336.022.068-.17-.581-.085-2.022.16-2.748 1.284-7.458 5.189-13.23l-16.563-11.209c-5.736 8.476-8.203 16.612-8.592 23.27-.191 3.262.102 6.456.992 9.253.437 1.375 1.134 3.018 2.286 4.562 1.048 1.405 3.287 3.789 7.018 4.516l3.828-19.63zm7.944 17.503a44.457 44.457 0 01.095-6.717l-19.906-1.942c-.239 2.452-.394 6.068-.148 9.929l19.959-1.27zm-10.416 10.625l.05.002.772-19.985-.05-.002-.772 19.985zm9.621-13.832l-.059-.136-18.351 7.952.058.136 18.352-7.952zm1.722 8.758c-.439-1.294-.77-3.18-.92-5.445l-19.956 1.326c.211 3.182.725 6.976 1.939 10.551l18.937-6.432zm4.203 47.118c.001-6.381-.428-16.136-1.106-25.021-.34-4.456-.751-8.803-1.219-12.476-.429-3.373-1.005-7.052-1.878-9.62l-18.937 6.431c-.007-.021.035.104.113.432.074.313.161.728.258 1.255.195 1.061.399 2.413.604 4.027.411 3.224.791 7.211 1.117 11.473.653 8.553 1.049 17.774 1.048 23.496l20 .003zm-19.733 2.354c.064.221.127.433.191.637l19.084-5.984-.045-.149-19.23 5.496zm19.351 4.714c.259-2.846.302-5.74.262-7.67l-19.995.415a52.982 52.982 0 01-.185 5.445l19.918 1.81zm-.365 2.903c.107-.972.205-1.737.29-2.288l-19.768-3.04a76.39 76.39 0 00-.402 3.14l19.88 2.188zm-3.664 9.084c1.57-1.794 2.324-3.755 2.689-4.843.423-1.262.698-2.532.888-3.625l-19.706-3.42c-.089.516-.155.718-.145.687.009-.025.072-.212.218-.502a7.11 7.11 0 011.005-1.468l15.051 13.171zm-1.278 6.254c.7-2.548 1.275-4.639 1.775-6.22.25-.792.422-1.265.52-1.502.047-.115.029-.057-.06.11a7.308 7.308 0 01-.957 1.358l-15.051-13.171c-1.402 1.602-2.153 3.426-2.429 4.096a39.82 39.82 0 00-1.094 3.083c-.639 2.025-1.326 4.533-1.99 6.951l19.286 5.295zm-.156.515l-18.974-6.325 18.974 6.325zm-7.719 20.564c2.163-3.012 3.688-7.181 4.74-10.365 1.163-3.521 2.236-7.438 3.135-10.714l-19.286-5.295c-.93 3.386-1.867 6.79-2.84 9.737-.483 1.462-.932 2.678-1.34 3.628-.441 1.027-.682 1.382-.655 1.344l16.246 11.665zm-2.236 4.18c.966-2.151 1.786-3.553 2.236-4.18L131.11 180.69c-1.529 2.13-2.981 4.858-4.236 7.657l18.246 8.188zm-3.837 4.634c.678-.653.949-.907 1.122-1.051l-12.816-15.354c-.83.693-1.653 1.492-2.177 1.997l13.871 14.408zm.136-.133l-14.142-14.142h-.001l14.143 14.142zm-16.017 8.781c8.361-1.045 13.779-6.624 15.881-8.648l-13.871-14.408c-1.24 1.194-2.043 1.937-2.89 2.507-.752.506-1.239.658-1.601.703l2.481 19.846zm-7.672 6.006c2.484-2.077 4.456-3.715 6.19-4.917.838-.581 1.424-.921 1.797-1.102.407-.197.261-.059-.315.013l-2.481-19.846c-4.315.54-8.037 2.862-10.399 4.5-2.622 1.819-5.327 4.091-7.62 6.008l12.828 15.344zm-21.936 11.861c5.239-.187 9.797-2.779 12.807-4.776 3.253-2.157 6.499-4.886 9.129-7.085l-12.828-15.344c-2.844 2.377-5.204 4.335-7.355 5.762-2.393 1.587-3.038 1.476-2.467 1.456l.714 19.987zm-13.381 8.795c3.57-2.787 6.564-5.111 9.278-6.806 2.93-1.828 4.117-1.989 4.102-1.989l-.713-19.987c-5.474.195-10.415 2.786-13.98 5.01-3.78 2.36-7.644 5.391-10.995 8.008l12.308 15.764zm-13.633 9.61c4.793-2.678 9.64-6.493 13.633-9.61l-12.308-15.764c-4.334 3.383-7.9 6.138-11.081 7.915l9.756 17.459zm-28.773 80.238c.947-5.009 6.515-24.721 13.316-44.229 3.37-9.667 6.925-18.938 10.215-26.052 1.653-3.574 3.135-6.374 4.385-8.333 1.526-2.389 1.886-2.199.857-1.624l-9.756-17.459c-3.684 2.059-6.3 5.722-7.958 8.321-1.934 3.029-3.845 6.732-5.68 10.7-3.687 7.97-7.489 17.939-10.949 27.863-6.859 19.675-12.844 40.551-14.082 47.095l19.652 3.718zm-3.383 12.417c1.32-4.366 2.737-9.007 3.383-12.417l-19.652-3.718c-.397 2.099-1.407 5.49-2.875 10.348l19.144 5.787zm-6.536 29.331c1.15.703.966 1.518.719.192-.26-1.39-.283-3.721.184-7.115.93-6.765 3.35-14.852 5.633-22.408l-19.144-5.787c-2.167 7.169-5.117 16.845-6.303 25.47-.591 4.3-.86 9.071-.03 13.513.842 4.505 3.082 9.882 8.512 13.2l10.429-17.065zm2.715 1.368c-.47-.155-1.311-.51-2.715-1.368L19.659 385.14c2.269 1.387 4.535 2.526 6.9 3.303l6.244-19zm-10.96 150.595c.537 1.033.47 1.546.344.55-.093-.734-.17-1.884-.188-3.52-.037-3.256.159-7.7.573-13.16.827-10.877 2.46-25.028 4.466-40.217 4.005-30.338 9.41-64.239 12.511-83.128l-19.736-3.24c-3.11 18.946-8.557 53.095-12.603 83.75-2.02 15.307-3.712 29.889-4.58 41.32-.433 5.695-.677 10.8-.63 14.904.024 2.044.12 4.027.346 5.807.192 1.517.59 3.924 1.751 6.158l17.746-9.224zm10.534 7.334c-6.11-2.724-8.953-4.321-10.552-7.368l-17.71 9.291c5.274 10.055 14.853 13.997 20.118 16.344l8.144-18.267zm15.465 11.453c-2.201-3.621-5.218-6.002-7.889-7.651-2.58-1.593-5.431-2.846-7.576-3.802l-8.144 18.267c2.431 1.084 3.986 1.795 5.213 2.553.555.342.89.606 1.087.787.095.087.15.149.181.186l.03.038.006.008a.098.098 0 01.002.003l17.09-10.389zm12.041.236c-4.944-1.144-10.837-2.665-17.85-4.66l-5.473 19.236c7.267 2.068 13.488 3.677 18.816 4.91l4.508-19.486zm2.762 55.35c.616-5.257 2.461-21.986 4.926-44.52l-19.882-2.174c-2.469 22.579-4.303 39.207-4.908 44.365l19.864 2.329zm-4.627 19.038c1.632-4.439 3.523-9.628 4.627-19.038l-19.864-2.329c-.842 7.182-2.15 10.701-3.535 14.469l18.773 6.898zm-3.06 27.31c-.384-9.145-.042-14.632.543-18.367.561-3.587 1.38-5.848 2.518-8.943l-18.773-6.899c-1.206 3.283-2.62 7.097-3.505 12.748-.861 5.503-1.18 12.417-.765 22.301l19.983-.84zm-17.441 52.509c6.531-8.963 18.581-25.415 17.442-52.509l-19.983.84c.84 19.959-7.63 31.666-13.623 39.891l16.164 11.778zm-3.031 4.389c-.078.214-.02-.019.605-.968.587-.893 1.352-1.948 2.426-3.421L21.353 681.49c-.989 1.357-2.068 2.834-2.974 4.212-.869 1.321-1.95 3.097-2.678 5.092l18.785 6.863zm-.961 27.742c.105-7.669.198-14.466.409-19.753.105-2.645.235-4.768.393-6.351.188-1.891.342-2.138.159-1.638L15.7 690.794c-.777 2.126-1.091 4.667-1.276 6.518-.215 2.16-.363 4.735-.475 7.537-.224 5.608-.32 12.703-.423 20.277l19.998.273zm-3.75 61.727c3.164-15.455 3.478-41.832 3.75-61.727l-19.998-.273c-.285 20.846-.657 44.858-3.345 57.99l19.593 4.01zm-1.592 26.075c-.841-3.621-1.193-5.238-1.128-8.087.075-3.248.725-8.237 2.72-17.988l-19.593-4.01c-2.026 9.895-3.003 16.377-3.121 21.54-.128 5.56.763 9.292 1.64 13.07l19.482-4.525zm1.645 7.896c-.582-3.321-1.174-5.865-1.645-7.895L8.7 817.726c.464 1.995.947 4.083 1.428 6.824l19.7-3.453zm-4.634 34.404c3.252-10.374 6.906-21.443 4.634-34.404l-19.7 3.453c1.3 7.419-.536 13.86-4.018 24.967l19.084 5.984zm-3.853 13.187c1.197-4.709 2.53-8.966 3.853-13.187L6.11 849.517c-1.31 4.179-2.802 8.931-4.153 14.246l19.384 4.925zm10.796 19.982c-3.315-3.218-6.594-6.47-8.827-10.17-2.094-3.473-2.795-6.562-1.969-9.812l-19.384-4.925c-2.536 9.979.322 18.591 4.228 25.066 3.768 6.248 8.93 11.191 12.021 14.191l13.931-14.35zm6.708 8.322c-.992-2.365-2.669-4.206-3.45-5.052-.998-1.081-2.21-2.253-3.258-3.27l-13.93 14.35c1.178 1.145 1.948 1.896 2.496 2.49.259.28.34.39.324.368-.013-.019-.085-.115-.186-.281a6.558 6.558 0 01-.44-.87l18.444-7.735zm15.816-1.738c.338-.499.295.038-1.74.535-1.912.466-4.548.618-7.488.367-2.91-.247-5.57-.843-7.385-1.482a12.047 12.047 0 01-1.027-.408c-.26-.119-.37-.188-.368-.186.005.003.06.038.152.108.09.069.242.192.431.377.329.322 1.057 1.11 1.61 2.427l-18.444 7.735c1.46 3.481 4.246 5.431 5.619 6.293 1.707 1.071 3.6 1.89 5.384 2.519 3.606 1.269 7.951 2.172 12.33 2.545 4.349.371 9.284.267 13.925-.865 4.519-1.102 10.01-3.506 13.563-8.754l-16.562-11.211zm75.04-2.068c-14.898-1.86-30.688-3.835-43.223-4.636-6.227-.398-12.08-.538-16.803-.136-2.34.199-4.827.563-7.111 1.288-1.986.63-5.536 2.055-7.903 5.552l16.562 11.211c-1.442 2.131-3.188 2.483-2.608 2.299.282-.089 1.121-.283 2.755-.422 3.221-.274 7.893-.212 13.833.168 11.801.754 26.921 2.637 42.021 4.522l2.477-19.846zm38.254 4.122c-9.871-.585-23.595-2.293-38.254-4.122l-2.477 19.846c14.398 1.797 28.877 3.609 39.549 4.241l1.182-19.965zm28.211 6.592c-8.388-.691-13.936-1.534-17.605-2.44-3.785-.935-4.641-1.722-4.543-1.634l-13.308 14.929c3.452 3.078 7.988 4.871 13.056 6.122 5.184 1.28 11.949 2.23 20.76 2.955l1.64-19.932zm71.407-4.819c-9.522 3.524-25.574 5.008-41.034 5.374-15.081.358-28.027-.362-30.373-.555l-1.64 19.932c3.043.251 16.694.992 32.487.617 15.416-.365 34.519-1.807 47.502-6.612l-6.942-18.756zm35.307-8.988c-10.469 1.859-21.14 3.744-35.307 8.988l6.942 18.756c12.373-4.579 21.535-6.218 31.862-8.052l-3.497-19.692zm22.812-4.871c-8.51 2.326-15.576 3.586-22.812 4.871l3.497 19.692c7.236-1.285 15.108-2.679 24.588-5.27l-5.273-19.293zm17.84-29.741c-3.017 9.7-5.215 16.59-8.161 21.679-2.621 4.528-5.424 6.899-9.679 8.062l5.273 19.292c10.419-2.847 17.083-9.333 21.715-17.335 4.308-7.441 7.149-16.754 9.949-25.759l-19.097-5.939zm11.649-31.987c-5.37 11.761-8.787 22.784-11.649 31.987l19.097 5.939c2.883-9.27 5.97-19.159 10.745-29.621l-18.193-8.305zm.048-56.278c1.815 10.706 3.553 21.04 3.907 30.88.354 9.802-.715 18.3-3.955 25.398l18.193 8.305c5.031-11.019 6.161-22.993 5.749-34.424-.41-11.392-2.403-23.052-4.176-33.503l-19.718 3.344zm-.107-52.315c-3.498 7.963-3.987 16.962-3.493 25.495.497 8.594 2.089 17.913 3.6 26.82l19.718-3.344c-1.558-9.187-2.931-17.353-3.352-24.631-.424-7.34.216-12.605 1.838-16.296l-18.311-8.044zm1.187-43.652c2.473 16.517 4.377 30.987-1.187 43.652l18.311 8.044c8.279-18.846 4.956-39.29 2.656-54.656l-19.78 2.96zm-1.969-29.144c-1.058 9.392.585 19.898 1.969 29.144l19.78-2.96c-1.502-10.033-2.578-17.697-1.874-23.944l-19.875-2.24zm-4.633-23.454c3.333 9.921 5.407 16.591 4.633 23.454l19.875 2.24c1.353-12.014-2.488-22.951-5.549-32.063l-18.959 6.369zm-6.457-44.047c-2.308 18.281 2.64 32.684 6.457 44.047l18.959-6.369c-3.846-11.448-7.249-21.905-5.574-35.172l-19.842-2.506zm.378-14.564c.139 6.718-.006 11.614-.378 14.564l19.842 2.506c.566-4.476.674-10.589.532-17.483l-19.996.413zm10.487-10.199l-.318-.006-.341 19.997.318.006.341-19.997zm1.258-5.043c-.162 2.247-.277 3.731-.477 4.95-.198 1.209-.373 1.391-.236 1.156.095-.163.275-.418.56-.677.288-.261.56-.416.729-.491.272-.121-.114.135-1.829.105l-.351 19.997c3.465.06 7.018-.366 10.303-1.826 3.509-1.56 6.12-4.038 7.871-7.045 1.616-2.775 2.311-5.677 2.689-7.979.377-2.294.545-4.749.689-6.756l-19.948-1.434zm8.693-28.267c-7.57 10.597-8.211 21.561-8.693 28.267l19.948 1.434c.489-6.803 1.046-12.513 5.02-18.077l-16.275-11.624zm7.829-70.088c.54 9.337.722 24.319-.485 38.62-.604 7.151-1.537 13.915-2.872 19.618-1.382 5.903-2.998 9.787-4.472 11.85l16.275 11.624c3.743-5.24 6.085-12.143 7.671-18.916 1.632-6.974 2.676-14.777 3.327-22.494 1.302-15.435 1.105-31.387.522-41.457l-19.966 1.155zm-11.068-53.777c6.611 16.878 11.556 35.635 11.055 52.91l19.992.58c.612-21.106-5.358-42.742-12.424-60.784l-18.623 7.294zm4.693-14.044c-.065 1.937-.446 2.356-.277 2.08.089-.144.257-.358.513-.568.248-.203.484-.325.644-.39l7.477 18.55c3.147-1.269 6.208-3.538 8.414-7.134 2.125-3.464 3.072-7.526 3.218-11.864l-19.989-.674zm-2.069-16.745c1.596 6.433 2.32 9.305 2.069 16.745l19.989.674c.342-10.141-.873-15.086-2.646-22.235l-19.412 4.816zm-2.244-9.596c.842 3.945 1.61 7.039 2.244 9.596l19.412-4.816c-.631-2.54-1.329-5.356-2.096-8.953l-19.56 4.173zm-11.148-23.788c5.29 9.344 9.818 17.554 11.148 23.788l19.56-4.173c-2.115-9.914-8.578-21.121-13.303-29.468l-17.405 9.853zm-.242-.455v.001l17.889-8.945h-.001l-17.888 8.944zm-8.938-17.934c1.908 5.629 5.817 12.448 9.18 18.389l17.404-9.853c-3.764-6.65-6.487-11.546-7.643-14.957l-18.941 6.421zm-4.655-10.786c1.866 3.891 3.437 7.194 4.655 10.786l18.941-6.421c-1.663-4.906-3.761-9.256-5.561-13.011l-18.035 8.646zm-7.88-21.985c1.617 9.025 5.062 16.105 7.88 21.985l18.035-8.646c-2.893-6.035-5.151-10.851-6.228-16.865l-19.687 3.526zm-14.537-32.39c-.14-.095.798.663 2.57 3.372 1.569 2.399 3.29 5.543 4.964 9.08 3.41 7.21 6.112 14.961 7.003 19.938l19.687-3.526c-1.32-7.369-4.794-16.896-8.611-24.965-1.941-4.103-4.098-8.099-6.305-11.474-2.004-3.064-4.741-6.714-8.091-8.983l-11.217 16.558zm-7.21-4.992a703.021 703.021 0 007.21 4.992l11.217-16.558c-1.807-1.224-4.186-2.884-6.982-4.835l-11.445 16.401zm-.019-.013l.012.009 11.459-16.393-.013-.008-11.458 16.392zm-.084-.059h.001l11.625-16.274-.001-.001-11.625 16.275zm.044.031l.002.001 11.533-16.339-.001-.001-11.534 16.339zm-22.022-14.844c6.907 4.299 15.301 10.154 22.066 14.875l11.446-16.401c-6.648-4.64-15.501-10.822-22.943-15.454l-10.569 16.98zm-17.029-7.956c7.075 2.975 13.244 5.6 17.029 7.956l10.569-16.98c-5.451-3.392-13.362-6.687-19.847-9.413l-7.751 18.437zm-21.829-11.583c2.738 2.737 6.849 4.877 10.044 6.414 3.571 1.719 7.792 3.491 11.785 5.169l7.751-18.437c-4.128-1.735-7.841-3.299-10.865-4.754-1.499-.721-2.676-1.344-3.551-1.871-.958-.576-1.168-.81-1.022-.664l-14.142 14.143zm-19.531-8.438c2.896.916 7.468 2.524 11.715 4.342 2.124.91 4.03 1.814 5.546 2.652 1.675.926 2.272 1.445 2.27 1.444l14.142-14.143c-2.016-2.016-4.59-3.618-6.736-4.804-2.303-1.274-4.865-2.47-7.349-3.534-4.971-2.129-10.176-3.957-13.555-5.026l-6.033 19.069z" fill="#fff" mask="url(#c)"/></svg>