<svg width="353" height="624" fill="none" xmlns="http://www.w3.org/2000/svg"><path d="M152.451 249.974h40.606c-1.392 30.466-2.272 91.293 5.354 90.875 9.531-.522-6.398 22.719 5.222 25.331 11.621 2.611-7.312 68.678 0 82.388 7.312 13.709 0 61.758 0 67.503 0 5.745-7.964 48.049 0 60.192 7.965 12.143 4.831 82.91 4.831 89.7 0 6.789-3.786 49.615 0 70.245 3.787 20.63-.261 56.014-2.35 64.892-2.089 8.879 3.395 14.363-28.333 16.974-4.815.396-47.527 2.611-67.634-4.831s-31.597-6.79-51.183-12.143c-19.585-5.353-18.41-30.03-32.12-60.061-13.709-30.03 9.924-74.554 0-97.142-9.922-22.588 2.09-49.094 0-67.634-2.088-18.541 13.188-34.339 9.924-60.192-2.611-20.682 6.659-103.583 11.62-142.449l104.063-123.648z" fill="#3F7AD3"/><path d="M197.89 332.755c5.954-29.769-2.48-68.026-7.442-83.433l34.862-12.534 58.233 95.967c6.485 59.974 19.898 183.709 21.674 198.854 2.22 18.933 8.095 14.885 6.92 42.827-1.175 27.941 15.409 40.969 17.757 47.396 2.481 6.789 0 58.886 4.57 81.213 4.57 22.327 2.22 21.021 0 33.686-2.219 12.665 3.395 22.849 7.442 38.779 4.048 15.929-14.362 26.897-16.059 30.944-1.698 4.048-24.025 8.487-29.77 0-5.745-8.487-87.349 8.487-104.454 5.615-13.683-2.298 7.312-13.318 10.446-23.111 1.305-14.623 2.872-39.954 0-70.767-2.873-30.814-7.059-40.77-1.045-52.489 5.092-9.923 2.481-69.592-4.961-84.477-5.954-11.908 3.264-43.74 5.745-58.755 1.74-13.71 3.394-45.464-3.918-62.803-9.139-21.675 3.918-62.934 0-68.026-3.917-5.092-7.442-21.674 0-58.886z" fill="#2E5A9C"/><path d="M117.72 468.415c.856-2.871 1.165-7.631 1.107-13.405 9.101-.461 17.353-.908 21.873-1.218 13.318-.914 44.915-9.009 53.533-8.487 6.894.418 16.799-2.698 20.891-4.309l2.872-53.01h-36.951c-11.489 0-47.526 3.786-57.449 0-7.939-3.029-39.345-1.262-54.055 0l-18.019 50.66 14.102 7.753v22.016c2.263 19.411 5.431 61.628 0 75.207-6.79 16.974-.653 48.702-7.443 62.281-6.79 13.579-2.741 44.654 0 60.322 2.742 15.668-7.442 61.498-7.442 77.819 0 16.321 50.138 0 58.233 0 8.095 0 4.701-36.559 0-53.533-4.7-16.974-.653-65.676 4.701-89.308 4.282-18.907 4.482-46.265 4.047-57.581-1.349-20.542-3.238-64.343 0-75.207z" fill="#2E5A9C"/><path d="M323.601 326.966s22.664 132.699 17.126 143.354c-5.54 10.562-19.154 10.121-23.522 17.306-47.136 13.411-41.447 4.082-41.447 4.082s13.544-85.181 5.66-102.783c-8.296-18.704.849-53.98.849-53.98l41.334-7.979zM11.117 399.929c-1.268-43.704 32.377-93.25 32.377-93.25s5.548-10.283 36.992 17.593c-16.816 46.922 3.323 140.783 2.653 165.876 0 12.276-30.459 11.322-47.064 11.613-16.606.292-4.661-17.187-16.314-33.501-9.322-13.052-9.647-50.992-8.644-68.331zM223.594 340.031l-20.472-122.822-26.265-15.642-26.071 18.732c-8.948 39.46-26.845 120.544-26.845 129.195 0 10.815 48.668 13.905 64.697 4.056 12.823-7.88 23.239-5.987 26.844-4.056l8.112-9.463z" fill="#3F7AD3"/><path d="M220.76 92.751c1.761-5.182 1.467-12.425 1.101-15.399l-7.334-20.776-18.211-19.31-32.266 6.6-28.843 8.432-4.767 33.61 16.011 51.696 15.522 34.953 13.077-9.41 26.644-7.7 17.722 2.078c-.285-5.215-1.027-16.621-1.711-20.532-.856-4.889.855-37.764 3.055-44.242z" fill="#F3C4B7"/><path d="M126.512 178.871c3.627-3.627 15.642-8.03 21.196-9.779 18.484-5.593 15.855 35.578 17.466 36.867 1.61 1.29.484 7.05.968 14.831.483 7.781-2.579 42.236-2.579 47.878 0 5.642-.161 38.689 0 42.074.161 3.386-.16 32.317-1.45 37.078-1.29 4.761-6.449 3.224-15.476 4.836-9.028 1.612-29.018-3.708-33.371-4.836-4.353-1.129-14.67-7.577-18.378-6.61-3.708.967-9.63.271-14.728 1.849-5.098 1.577-21.24 3.519-27.429 3.398-6.19-.122-22.453 2.912-25.123 3.155-2.67.243-10.438 1.335-10.802-9.466-.364-10.801 1.412-13.353 4.046-25.7 2.634-12.348 15.146-28.975 18.44-38.688 3.292-9.714 8.89-16.957 10.865-27.988 1.976-11.03 11.036-30.875 16.773-34.761 5.736-3.886 17.393-12.305 26.46-17.948 9.067-5.644 28.589-11.657 33.122-16.19zM200.933 254.641c-1.785-13.166-1.895-26.942-1.726-32.184 9.223-16.609 28.116-49.829 29.902-49.829 2.232 0 5.579 6.695 12.274 7.532 6.696.837 17.854 15.622 25.665 15.901 7.811.279 18.691 12.274 28.176 17.574 9.485 5.3 28.176 67.507 30.129 77.829 1.953 10.321 14.785 40.448 4.742 46.585-10.043 6.137-10.6-.279-32.081 0-21.48.279-61.652 14.227-78.669 12.832-17.017-1.394-7.253-12.553-13.669-38.217-6.416-25.664-2.511-41.564-4.743-58.023z" fill="#F87980"/><path d="M139.517 131.321c4.572 5.045 7.292 27.46 8.081 38.037.726 7.73 4.38 19.267 4.51 27.328.13 8.062 4.681 17.293 14.043 16.253 9.362-1.04 14.563 1.3 22.235 5.721 7.671 4.421 12.872 4.421 24.704 1.82 11.831-2.6 19.115-14.562 21.715-23.144 2.601-8.581-3.25-24.054-6.891-29.124-3.641-5.071-6.892-23.014-8.712-25.095-1.456-1.664-1.69-8.355-1.625-11.493-.332 1.163-.665 1.773-1.44 4.432-.776 2.659 2.548 16.674 1.44 16.784-1.108.111-.499-1.883-4.487-2.105-3.989-.221-.256 2.659-15.234 3.053-14.979.394-33.111 12.811-35.673 11.431-2.563-1.38-3.745-16.358-11.432-30.548-7.686-14.189-11.234-38.036-13.599-45.92-2.365-7.883-2.759-20.89 0-23.452 2.759-2.562 10.446 1.576 15.57-4.73 5.125-6.307 5.716-3.548 11.037-2.562 5.322.985 10.052-10.84 18.527-14.781 6.78-3.154 17.672 4.073 22.27 8.08 9.461 4.336 14.388 25.03 16.753 26.606 2.365 1.577 5.867-9.343-3.547-23.256-17.738-26.211-2.76-27-18.724-35.474-15.964-8.475-12.811-10.84-40.6-6.7-27.79 4.138-31.14 19.51-33.111 25.423-1.971 5.912-6.11 52.029 0 62.869 6.11 10.839 8.475 24.24 14.19 30.547z" fill="#2C1E25"/><path d="M212.388 158.529c-3.169-2.919-9.659-.591-12.508.938-5.628 3.022-11.048 2.71-19.386 5.107-8.338 2.397-3.961 5.628-3.961 8.859s2.71 5.315 9.589 5.524c6.879.208 9.798-3.648 14.28-3.648 4.481 0 4.794 4.794 11.986 0 7.191-4.794 3.961-13.132 0-16.78z" fill="#F3C4B7"/><path d="M154.537 77.818c6.363-2.507 11.006.24 12.532 1.928-5.061 8.194-9.64 3.856-11.327 6.989-4.82 4.241-12.131.803-15.183-1.446-2.651-.723 6.025-4.338 13.978-7.471zM220.814 71.552c1.687-2.41-14.701-4.097-18.075-.964-2.051 2.563-5.768 3.296-7.929 3.374-1.421 2.41 6.724 2.65 9.375 3.856 2.651 1.205 14.942-3.856 16.629-6.266z" fill="#2C1E25"/><path d="M194.062 73.962c.219.009.471.01.748 0m0 0c2.161-.078 5.878-.81 7.929-3.374 3.374-3.133 19.762-1.446 18.075.964-1.687 2.41-13.978 7.47-16.629 6.266-2.651-1.205-10.796-1.446-9.375-3.856zm-27.741 5.784c-1.526-1.687-6.169-4.434-12.532-1.928-7.953 3.133-16.629 6.748-13.978 7.47 3.052 2.25 10.363 5.688 15.183 1.447 1.687-3.133 6.266 1.205 11.327-6.99z" stroke="#000"/><mask id="a" maskUnits="userSpaceOnUse" x="147" y="95" width="21" height="14"><path d="M148.363 102.627c.692-2.299 5.714-4.883 8.138-5.887 3.406-1.669 9.732-1.212 10.667 2.112.935 3.325-3.844 5.16-6.996 6.615-3.151 1.454-9.316 3.844-11.809 2.77-2.494-1.073-.866-2.736 0-5.61z" fill="#FFF1F0"/></mask><g mask="url(#a)"><path d="M148.363 102.627c.692-2.299 5.714-4.883 8.138-5.887 3.406-1.669 9.732-1.212 10.667 2.112.935 3.325-3.844 5.16-6.996 6.615-3.151 1.454-9.316 3.844-11.809 2.77-2.494-1.073-.866-2.736 0-5.61z" fill="#FFF1F0"/><path d="M158.666 101.821c-1.038-2.473.891-5.992 1.985-7.443l11.949 3.817c-2.622 2.685-8.047 8.054-8.78 8.054-.916 0-3.856-1.336-5.154-4.428z" fill="#2C1E25"/></g><path d="M206.11 117.34c-10.122-9.64-16.87-34.462-20.726-47.476-1.491-5.072-5.272-4.161-6.453 2.532-1.181 6.694 7.719 51.091 7.719 51.091s.973 3.611-.543 3.252c-3.133-.964-7.713 4.579 3.374 11.327 11.086 6.748 24.583-10.604 16.629-20.726z" fill="#EAB9AA"/><mask id="b" maskUnits="userSpaceOnUse" x="196" y="87" width="22" height="12"><path d="M196.034 94.5c-.372 1.22 2.47 2.512 3.937 3.006 3.938 1.185 6.308 1.143 10.372-.424 4.064-1.566 6.139-3.598 6.858-4.444.72-.847.466-2.032-2.074-3.853-2.54-1.82-4.911-1.735-9.949-1.1-5.037.635-8.678 5.291-9.144 6.815z" fill="#FFF1F0"/></mask><g mask="url(#b)"><path d="M196.034 94.5c-.372 1.22 2.47 2.512 3.937 3.006 3.938 1.185 6.308 1.143 10.372-.424 4.064-1.566 6.139-3.598 6.858-4.444.72-.847.466-2.032-2.074-3.853-2.54-1.82-4.911-1.735-9.949-1.1-5.037.635-8.678 5.291-9.144 6.815z" fill="#FFF1F0"/><path d="M207.256 93.015c-1.897-2.815-.128-5.838.994-6.999l13.844-.535c-1.823 4.22-6.012 12.666-8.184 12.696-2.715.038-4.283-1.644-6.654-5.162z" fill="#2C1E25"/></g><path d="M197.927 167.651c3.147-.175 7.237-2.453 8.889-3.57 1.533-.942 1.749-2.04 1.676 0-.073 2.04-.875 4.517-8.161 7.067-7.286 2.551-14.5-.947-16.321-1.602-1.822-.656-2.915-2.842.51-1.895 3.424.947 9.472.219 13.407 0z" fill="#2C1E25"/><path fill-rule="evenodd" clip-rule="evenodd" d="M125.668 36.851c-.12.377-.232.728-.34 1.052-1.971 5.912-6.11 52.03 0 62.869 2.685 4.762 4.646 10.02 6.487 14.953 2.348 6.293 4.499 12.059 7.703 15.594 4.54 5.01 7.254 27.144 8.064 37.811-5.608 1.774-17.47 6.139-21.069 9.738-2.471 2.471-9.393 5.381-16.648 8.431-6.058 2.547-12.349 5.192-16.474 7.76-6.41 3.99-14.116 9.367-20.108 13.549a626.026 626.026 0 01-6.353 4.399c-5.736 3.885-14.797 23.731-16.772 34.761-1.204 6.719-3.751 12.033-6.303 17.356-1.637 3.415-3.276 6.835-4.563 10.631-1.37 4.039-4.332 9.272-7.516 14.897-4.474 7.903-9.385 16.578-10.924 23.791-.717 3.364-1.371 6.001-1.935 8.275l-.002.005v.002l-.001.004v.001c-1.506 6.068-2.372 9.56-2.107 17.413.189 5.606 2.372 8.008 4.8 8.988-6.11 15.601-10.987 33.648-10.49 50.796-1.003 17.339-.678 55.279 8.644 68.331 5.157 7.22 5.693 14.668 6.126 20.703.507 7.055.876 12.179 8.326 12.749.577.044 1.197.061 1.862.049l.289-.004c-.082 3.942-.063 7.396.075 10.241.074 1.543.184 2.908.331 4.074 1.78 14.093-1.951 25.199-5.375 35.39-2.856 8.503-5.498 16.368-4.548 24.801.787 6.987-.428 15.104-1.717 23.717-2.132 14.243-4.467 29.841 1.717 43.918 4.574 10.413 2.018 25.487-.724 41.655-3.206 18.903-6.666 39.3.724 55.487 4.532 9.927 7.438 19.27 10.004 27.523 5.197 16.711 9.005 28.954 22.116 32.538 8.036 2.197 14.71 3.382 21.175 4.53 9.29 1.65 18.15 3.224 30.007 7.613 20.107 7.442 62.819 5.227 67.634 4.831 15.367-1.265 22.005-3.204 25.002-5.875 9.176-.544 21.773-2.117 34.752-3.736 26.803-3.346 55.235-6.894 58.541-2.01 5.745 8.487 28.072 4.048 29.769 0 .438-1.044 1.988-2.549 3.978-4.48 5.723-5.556 15.086-14.644 12.082-26.464-1.138-4.479-2.4-8.503-3.576-12.256-3.009-9.596-5.462-17.419-3.866-26.523.475-2.708.955-4.778 1.373-6.576 1.535-6.611 2.22-9.558-1.373-27.11-2.614-12.771-2.921-35.282-3.17-53.483-.185-13.619-.338-24.825-1.4-27.731-.582-1.591-2.037-3.588-3.879-6.117-5.595-7.678-14.762-20.258-13.878-41.279.715-17.001-1.181-22.159-3.274-27.857-1.348-3.666-2.777-7.556-3.646-14.969-.546-4.653-2.19-19.554-4.393-39.706 4.59-1.061 10.003-2.46 16.385-4.276 1.947-3.203 5.732-4.891 9.82-6.713 5.082-2.266 10.631-4.74 13.702-10.593 4.461-8.584-9.381-96.38-14.931-130.185 1.267-.416 2.655-1.084 4.295-2.087 7.648-4.673 2.031-23.258-1.946-36.415-1.246-4.121-2.33-7.709-2.796-10.17-1.953-10.322-20.644-72.529-30.129-77.829-3.562-1.991-7.321-4.926-11.04-7.83-6.184-4.828-12.258-9.57-17.135-9.744-4.171-.149-9.297-4.435-14.188-8.524-4.268-3.568-8.357-6.987-11.477-7.377-4.136-.517-6.994-3.269-9.101-5.297-.539-.519-1.029-.991-1.479-1.366-.992-2.21-2.006-4.054-2.89-5.285-2.086-2.906-4.044-10.036-5.678-15.988-1.218-4.437-2.256-8.218-3.034-9.107-.493-.563-.845-1.702-1.094-3.084a58.138 58.138 0 00-.343-2.677 57.615 57.615 0 01-.194-5.379l.001-.029.005-.324c-.032.112-.064.22-.097.324l.001-.326v-.025c.001-.422.004-.861.01-1.316.116-9.748 1.176-26.665 2.558-34.471.229-1.295.467-2.34.712-3.059.739-2.175 1.116-4.714 1.277-7.147l.053-.122-.045.001.001-.02c.01-.149.018-.297.026-.445a48.493 48.493 0 00-.136-6.97c.676-.14 1.347-1.164 1.719-2.876.863-3.97.117-11.632-5.894-20.515-8.861-13.094-9.558-19.843-10.026-24.376-.469-4.542-.708-6.858-8.698-11.099-2.731-1.45-4.902-2.72-6.765-3.81-9.026-5.283-10.799-6.321-33.835-2.89-26.261 3.91-30.698 17.853-32.769 24.365l-.001.001-.001.005zm-9.753-3.126l.045-.142c1.111-3.496 3.34-10.507 9.676-17.032 6.523-6.716 16.421-11.987 31.294-14.202C168.19.672 175.733-.185 181.733.477c6.639.732 11.002 3.29 15.236 5.773l.478.28c1.858 1.087 3.868 2.263 6.394 3.604 4.323 2.294 8.3 4.915 10.891 8.805 2.564 3.848 2.955 7.858 3.154 9.9l.039.388c.213 2.067.413 3.942 1.361 6.694.985 2.858 2.913 7.015 6.959 12.994 5.238 7.74 7.53 15.223 7.898 21.424a28.261 28.261 0 01-.075 4.428l3.892-.15-5.859 13.523c-.257 2.48-.739 5.246-1.642 7.903.003-.008.002-.004-.002.011-.021.078-.127.47-.281 1.31a66.521 66.521 0 00-.528 3.522c-.363 2.848-.701 6.382-.991 10.174-.576 7.548-.928 15.674-.934 20.76l.095.014c-.023 1.079.001 2.74.125 4.319.094.63.181 1.31.262 2.011.586.976.936 1.829 1.096 2.217l.005.013a37.15 37.15 0 011.015 2.858c.557 1.763 1.15 3.921 1.719 5.992l.035.127.038.139c.833 3.032 1.661 6.04 2.519 8.636.425 1.287.812 2.334 1.156 3.136.308.715.479.994.476.996l-.001-.002c1.049 1.468 2.045 3.213 2.949 5.038l.086.083.089.086c1.116 1.074 1.756 1.66 2.405 2.097.552.371.795.407.863.416 4.192.524 7.74 2.763 9.874 4.243 2.33 1.616 4.72 3.614 6.72 5.287l.182.152c2.555 2.136 4.605 3.835 6.455 5.061.889.59 1.506.915 1.885 1.076l.069.029c5.076.301 9.572 2.695 12.71 4.654 3.363 2.098 6.785 4.771 9.716 7.06l.222.173c3.893 3.04 6.996 5.432 9.733 6.961 3.599 2.012 6.084 5.537 7.575 7.872 1.772 2.777 3.508 6.144 5.159 9.715 3.32 7.178 6.733 16.13 9.83 25.014 6.132 17.59 11.507 36.318 12.632 42.265.339 1.79 1.215 4.738 2.536 9.111l.111.364c1.918 6.346 4.508 14.913 5.564 22.593.537 3.901.796 8.322.017 12.491-.703 3.765-2.47 8.302-6.569 11.53 2.843 17.56 6.945 43.812 10.098 67.697 1.807 13.685 3.321 26.741 4.1 36.991.387 5.103.608 9.707.566 13.429-.021 1.853-.109 3.68-.319 5.338-.176 1.39-.553 3.731-1.702 5.94l-.009.018-.009.017c-4.749 9.053-13.217 12.804-18.005 14.924l-.595.265c-2.191.977-3.496 1.577-4.503 2.199-.493.305-.717.499-.792.571l-2.031 3.341-3.863 1.099a433.264 433.264 0 01-8.033 2.205c1.71 15.598 2.954 26.837 3.411 30.734.728 6.21 1.844 9.247 3.051 12.532l.071.193c1.075 2.925 2.358 6.414 3.16 11.541.788 5.033 1.072 11.303.698 20.183-.73 17.366 6.604 27.517 11.923 34.817l.084.115c.856 1.175 1.805 2.477 2.609 3.7.792 1.205 1.825 2.892 2.529 4.819.757 2.072 1.047 4.491 1.212 6.143.196 1.967.33 4.298.43 6.811.2 5.002.286 11.316.378 18.032l.001.119c.255 18.688.592 39.987 2.963 51.569 1.811 8.85 2.706 14.74 2.814 19.477.116 5.053-.683 8.493-1.457 11.821l-.042.183c-.413 1.78-.839 3.616-1.261 6.027-1.098 6.266.424 11.719 3.55 21.691l.027.084c1.164 3.712 2.496 7.961 3.703 12.713 2.378 9.356-.317 17.412-3.924 23.393-3.373 5.592-7.947 10.029-10.722 12.721l-.228.222c-.508.492-.934.906-1.316 1.286-.383.38-.661.666-.865.887l-.011.012c-1.53 2.806-3.857 4.41-5.006 5.131-1.634 1.026-3.421 1.795-5.072 2.376-3.338 1.176-7.33 2.003-11.339 2.344-3.978.339-8.538.25-12.862-.805-3.482-.849-7.694-2.554-10.986-5.998-.303-.04-.656-.079-1.065-.114-2.78-.236-6.877-.186-12.165.152-10.496.67-23.962 2.347-37.467 4.033l-.312.038c-11.493 1.435-23.073 2.88-32.211 3.563-2.669 1.549-5.71 2.591-8.904 3.38-4.731 1.168-10.855 2.024-18.755 2.674-2.764.227-15.007.891-29.165.556-13.771-.327-31.038-1.612-42.864-5.989-10.938-4.049-19.025-5.497-28.243-7.134l-.103-.018c-6.437-1.143-13.494-2.397-21.982-4.717-9.712-2.654-15.918-8.718-20.188-16.094-3.823-6.604-6.367-14.788-8.788-22.579l-.219-.703c-2.577-8.287-5.313-17.049-9.54-26.311-4.612-10.101-5.627-21.027-5.255-31.347.367-10.165 2.128-20.548 3.696-29.79l.053-.316c1.396-8.227 2.608-15.447 2.979-21.864.375-6.481-.208-10.94-1.534-13.959-7.386-16.812-4.659-34.971-2.623-48.524l.154-1.029c1.35-9.015 2.274-15.678 1.669-21.054-1.208-10.716 2.077-20.476 4.753-28.426l.264-.783c3.438-10.235 6.377-19.319 4.922-30.846-.263-2.085-.417-4.544-.488-7.269a16.414 16.414 0 01-7.257-6.659c-1.558-2.676-2.213-5.447-2.563-7.575-.334-2.037-.489-4.201-.614-5.944l-.015-.211c-.437-6.084-.929-10.842-4.245-15.485-3.493-4.89-5.633-11.254-7.063-17.362-1.478-6.315-2.417-13.355-3.002-20.287C.21 422.918.364 408.837.868 399.772.47 383.265 4.484 366.471 9.682 351.8l-.046-.075c-2.047-3.338-2.929-7.205-3.065-11.236-.311-9.238.806-13.791 2.402-20.225l-.002.011-.007.028 9.087 2.21-4.742-1.186-4.33-1.082m-.003.008l.002-.007m9.073 2.267l.614.149-.346-.092m-9.337-2.342c.56-2.26 1.177-4.748 1.854-7.922 1.873-8.781 7.436-18.597 11.584-25.917l.443-.783c3.39-5.987 5.745-10.236 6.73-13.139 1.485-4.384 3.35-8.274 4.935-11.579l.092-.191c2.59-5.403 4.53-9.558 5.457-14.735 1.207-6.74 4.362-15.368 7.799-22.634 1.752-3.702 3.706-7.329 5.72-10.408 1.806-2.761 4.369-6.21 7.59-8.393a604.168 604.168 0 006.236-4.318l.119-.083c5.92-4.131 13.798-9.63 20.438-13.762 4.828-3.006 11.729-5.906 17.39-8.285l.526-.221c3.698-1.554 6.982-2.938 9.647-4.221 1.32-.635 2.333-1.172 3.066-1.613.495-.298.722-.469.77-.504 1.915-1.882 4.29-3.349 6.202-4.406 2.108-1.165 4.44-2.254 6.682-3.214a126.652 126.652 0 014.362-1.767c-.442-3.887-1.029-8.18-1.755-12.218-.637-3.544-1.342-6.669-2.079-9.066-.651-2.116-1.093-2.865-1.069-2.88.001-.001.003 0 .007.003-2.511-2.839-4.306-6.144-5.682-9.125-1.394-3.023-2.633-6.343-3.756-9.351l-.071-.191c-1.889-5.063-3.588-9.557-5.813-13.504-1.534-2.722-2.398-5.839-2.951-8.568-.581-2.87-.956-6.039-1.195-9.269-.48-6.464-.463-13.846-.197-20.863.268-7.05.797-13.942 1.391-19.495.297-2.773.616-5.276.94-7.336.286-1.827.671-3.966 1.218-5.606.077-.233.163-.5.278-.862l.001-.001.017-.055.002-.007.001-.001.002-.008.002-.005" fill="#fff"/></svg>