<svg width="393" height="723" viewBox="0 0 393 723" fill="none" xmlns="http://www.w3.org/2000/svg">
<path d="M223.727 278.035H178.28C179.838 312.133 180.822 380.212 172.288 379.745C161.62 379.16 179.449 405.172 166.443 408.095C153.437 411.017 174.626 484.961 166.443 500.306C158.259 515.65 166.443 569.427 166.443 575.857C166.443 582.287 175.357 629.634 166.443 643.225C157.529 656.815 161.036 736.02 161.036 743.619C161.036 751.218 165.274 799.15 161.036 822.24C156.798 845.329 161.328 884.931 163.666 894.868C166.004 904.805 159.867 910.943 195.377 913.866C200.766 914.309 248.57 916.789 271.075 908.459C293.58 900.129 306.44 900.86 328.36 894.868C350.28 888.877 348.965 861.257 364.309 827.647C379.653 794.036 353.203 744.204 364.309 718.923C375.415 693.641 361.971 663.976 364.309 643.225C366.647 622.474 349.549 604.792 353.203 575.857C356.125 552.709 345.75 459.924 340.197 416.424L223.727 278.035Z" fill="#3F7AD3"/>
<path d="M172.866 370.684C166.203 337.365 175.643 294.548 181.196 277.304L142.178 263.275L77.0022 370.684C69.7442 437.809 54.7313 576.295 52.7439 593.247C50.2596 614.436 43.6836 609.906 44.9988 641.179C46.314 672.452 27.7526 687.033 25.1245 694.226C22.348 701.825 25.1245 760.132 20.0098 785.121C14.8951 810.11 17.5255 808.649 20.0098 822.824C22.4941 836.999 16.2104 848.397 11.6802 866.226C7.15005 884.054 27.755 896.329 29.6547 900.859C31.5545 905.39 56.5435 910.358 62.9734 900.859C69.4033 891.361 160.737 910.358 179.881 907.143C195.196 904.571 171.697 892.238 168.19 881.277C166.729 864.91 164.975 836.56 168.19 802.073C171.405 767.585 176.09 756.443 169.359 743.327C163.66 732.22 166.583 665.437 174.912 648.778C181.576 635.45 171.259 599.823 168.482 583.017C166.534 567.673 164.683 532.133 172.866 512.727C183.096 488.468 168.482 442.29 172.866 436.591C177.25 430.891 181.196 412.332 172.866 370.684Z" fill="#2E5A9C"/>
<path d="M262.602 522.52C261.644 519.306 261.298 513.978 261.363 507.516C251.178 507 241.942 506.5 236.883 506.153C221.977 505.13 186.612 496.069 176.968 496.654C169.252 497.122 158.165 493.634 153.586 491.832L150.371 432.501H191.727C204.587 432.501 244.92 436.739 256.026 432.501C264.911 429.111 300.061 431.088 316.526 432.501L336.692 489.201L320.91 497.878V522.52C318.377 544.245 314.831 591.495 320.91 606.693C328.509 625.691 321.641 661.201 329.24 676.399C336.839 691.597 332.308 726.377 329.24 743.913C326.171 761.449 337.569 812.742 337.569 831.009C337.569 849.276 281.454 831.009 272.393 831.009C263.333 831.009 267.132 790.092 272.393 771.094C277.654 752.097 273.124 697.589 267.132 671.138C262.339 649.978 262.115 619.358 262.602 606.693C264.112 583.701 266.226 534.678 262.602 522.52Z" fill="#2E5A9C"/>
<path d="M32.1694 364.204C32.1694 364.204 6.80309 512.725 13.0013 524.65C19.2026 536.471 34.4396 535.978 39.3278 544.019C92.0843 559.029 85.7169 548.588 85.7169 548.588C85.7169 548.588 70.5581 453.251 79.3814 433.551C88.6674 412.617 78.4318 373.135 78.4318 373.135L32.1694 364.204Z" fill="#3F7AD3"/>
<path d="M381.909 445.866C383.329 396.952 345.672 341.499 345.672 341.499C345.672 341.499 339.462 329.989 304.27 361.189C323.09 413.704 300.55 518.756 301.3 546.842C301.3 560.58 335.391 559.513 353.976 559.839C372.561 560.165 359.193 540.602 372.235 522.343C382.668 507.736 383.032 465.272 381.909 445.866Z" fill="#3F7AD3"/>
<path d="M144.109 378.825L167.022 241.36L196.418 223.853L225.598 244.818C235.613 288.983 255.643 379.733 255.643 389.416C255.643 401.52 201.173 404.978 183.233 393.955C168.88 385.137 157.223 387.255 153.188 389.416L144.109 378.825Z" fill="#3F7AD3"/>
<path d="M147.281 102.066C145.311 96.2659 145.639 88.159 146.05 84.8306L154.257 61.577L174.639 39.9648L210.752 47.3513L243.035 56.7895L248.37 94.4055L230.45 152.266L213.077 191.386L198.441 180.854L168.62 172.236L148.786 174.562C149.105 168.726 149.935 155.959 150.701 151.582C151.658 146.11 149.743 109.315 147.281 102.066Z" fill="#FFCBC8"/>
<path d="M252.76 198.455C248.701 194.396 235.253 189.468 229.037 187.511C208.349 181.251 211.292 227.33 209.489 228.773C207.686 230.217 208.947 236.664 208.406 245.372C207.864 254.081 211.292 292.644 211.292 298.958C211.292 305.273 211.472 342.26 211.292 346.049C211.111 349.838 211.471 382.218 212.915 387.547C214.358 392.875 220.132 391.155 230.236 392.96C240.34 394.764 262.714 388.81 267.585 387.547C272.457 386.284 284.005 379.067 288.155 380.149C292.305 381.232 298.933 380.452 304.638 382.218C310.344 383.984 328.41 386.157 335.338 386.021C342.265 385.886 360.467 389.281 363.456 389.553C366.444 389.825 375.138 391.047 375.545 378.958C375.953 366.869 373.966 364.013 371.018 350.194C368.069 336.375 354.065 317.764 350.38 306.893C346.694 296.022 340.429 287.915 338.218 275.569C336.007 263.224 325.866 241.013 319.446 236.664C313.026 232.315 299.979 222.892 289.831 216.576C279.683 210.259 257.834 203.529 252.76 198.455Z" fill="#F87980"/>
<path d="M169.465 283.256C171.464 268.519 171.586 253.101 171.398 247.234C161.075 228.644 139.929 191.465 137.931 191.465C135.433 191.465 131.686 198.958 124.193 199.895C116.699 200.831 104.21 217.379 95.4679 217.691C86.7256 218.003 74.5487 231.428 63.933 237.36C53.3173 243.292 32.3978 312.916 30.2123 324.468C28.0267 336.02 13.6644 369.739 24.9046 376.608C36.1447 383.477 36.7689 376.296 60.8104 376.608C84.8518 376.92 129.813 392.531 148.859 390.97C167.904 389.409 156.976 376.92 164.158 348.196C171.339 319.473 166.968 301.676 169.465 283.256Z" fill="#F87980"/>
<path d="M238.2 145.234C233.082 150.88 230.038 175.968 229.156 187.805C228.343 196.457 224.253 209.37 224.108 218.392C223.962 227.414 218.868 237.747 208.39 236.582C197.912 235.418 192.091 238.038 183.505 242.985C174.919 247.933 169.098 247.933 155.856 245.023C142.614 242.112 134.462 228.724 131.551 219.12C128.641 209.515 135.189 192.198 139.264 186.522C143.339 180.847 146.977 160.765 149.014 158.436C150.644 156.574 150.906 149.084 150.833 145.573C151.205 146.875 151.577 147.557 152.445 150.533C153.313 153.509 149.593 169.195 150.833 169.319C152.073 169.443 151.391 167.211 155.856 166.963C160.32 166.715 156.141 169.938 172.906 170.38C189.67 170.821 209.964 184.717 212.832 183.173C215.7 181.629 217.023 164.865 225.626 148.984C234.229 133.102 238.2 106.412 240.847 97.5889C243.493 88.7657 243.935 74.2076 240.847 71.3401C237.758 68.4726 229.156 73.1047 223.42 66.0462C217.685 58.9877 217.023 62.0758 211.067 63.1787C205.112 64.2816 199.817 51.0469 190.332 46.6353C182.744 43.1061 170.553 51.194 165.406 55.679C154.818 60.5318 149.303 83.6925 146.656 85.4571C144.009 87.2217 140.089 74.9998 150.627 59.4289C170.479 30.092 153.715 29.2097 171.583 19.7249C189.45 10.24 185.92 7.59307 217.023 12.2252C248.126 16.8573 251.876 34.0624 254.082 40.6798C256.288 47.2971 260.92 98.9124 254.082 111.044C247.244 123.176 244.597 138.175 238.2 145.234Z" fill="#2C1E25"/>
<path d="M156.642 175.683C160.189 172.417 167.452 175.022 170.641 176.733C176.941 180.116 183.006 179.766 192.339 182.449C201.671 185.132 196.771 188.748 196.771 192.364C196.771 195.98 193.738 198.313 186.039 198.547C178.34 198.78 175.074 194.464 170.058 194.464C165.041 194.464 164.691 199.83 156.642 194.464C148.593 189.098 152.209 179.766 156.642 175.683Z" fill="#FFCBC8"/>
<path d="M221.395 85.3487C214.274 82.5435 209.077 85.6184 207.368 87.5065C213.033 96.6774 218.158 91.8223 220.046 95.3288C225.441 100.076 233.623 96.2279 237.04 93.7104C240.007 92.9012 230.296 88.8552 221.395 85.3487Z" fill="#2C1E25"/>
<path d="M147.216 78.3357C145.328 75.6384 163.67 73.7503 167.447 77.2568C169.742 80.1256 173.902 80.9461 176.32 81.033C177.911 83.7303 168.795 84 165.828 85.3487C162.861 86.6974 149.104 81.033 147.216 78.3357Z" fill="#2C1E25"/>
<mask id="mask0" mask-type="alpha" maskUnits="userSpaceOnUse" x="207" y="105" width="23" height="15">
<path d="M228.308 113.121C227.532 110.547 221.912 107.656 219.199 106.531C215.387 104.664 208.307 105.175 207.26 108.896C206.214 112.617 211.563 114.671 215.09 116.299C218.618 117.927 225.517 120.601 228.308 119.4C231.098 118.198 229.277 116.338 228.308 113.121Z" fill="#FFF1F0"/>
</mask>
<g mask="url(#mask0)">
<path d="M228.308 113.121C227.532 110.547 221.912 107.656 219.199 106.531C215.387 104.664 208.307 105.175 207.26 108.896C206.214 112.617 211.563 114.671 215.09 116.299C218.618 117.927 225.517 120.601 228.308 119.4C231.098 118.198 229.277 116.338 228.308 113.121Z" fill="#FFF1F0"/>
<path d="M216.78 112.222C217.942 109.453 215.783 105.514 214.558 103.891L201.186 108.163C204.119 111.168 210.192 117.177 211.012 117.177C212.038 117.177 215.327 115.682 216.78 112.222Z" fill="#2C1E25"/>
</g>
<path d="M163.668 129.588C174.997 118.799 182.549 91.0169 186.865 76.4514C188.534 70.7756 192.765 71.7942 194.087 79.2857C195.409 86.7772 185.448 136.468 185.448 136.468C185.448 136.468 184.359 140.509 186.056 140.108C189.562 139.029 194.688 145.233 182.279 152.785C169.871 160.338 154.766 140.917 163.668 129.588Z" fill="#EAB9AA"/>
<mask id="mask1" mask-type="alpha" maskUnits="userSpaceOnUse" x="150" y="95" width="25" height="14">
<path d="M174.957 104.027C175.374 105.392 172.193 106.838 170.55 107.391C166.144 108.718 163.491 108.67 158.942 106.917C154.394 105.164 152.072 102.89 151.266 101.942C150.461 100.995 150.745 99.6681 153.588 97.6309C156.431 95.5936 159.084 95.6883 164.722 96.399C170.361 97.1097 174.435 102.321 174.957 104.027Z" fill="#FFF1F0"/>
</mask>
<g mask="url(#mask1)">
<path d="M174.957 104.027C175.374 105.392 172.193 106.838 170.55 107.391C166.144 108.718 163.491 108.67 158.942 106.917C154.394 105.164 152.072 102.89 151.266 101.942C150.461 100.995 150.745 99.6681 153.588 97.6309C156.431 95.5936 159.084 95.6883 164.722 96.399C170.361 97.1097 174.435 102.321 174.957 104.027Z" fill="#FFF1F0"/>
<path d="M162.398 102.362C164.521 99.2121 162.541 95.8281 161.285 94.5298L145.791 93.9307C147.831 98.653 152.52 108.106 154.951 108.14C157.99 108.183 159.745 106.3 162.398 102.362Z" fill="#2C1E25"/>
</g>
<path d="M172.827 185.895C169.304 185.699 164.726 183.149 162.878 181.899C161.162 180.844 160.92 179.616 161.002 181.899C161.084 184.183 161.981 186.955 170.136 189.809C178.291 192.664 186.364 188.749 188.403 188.015C190.442 187.281 191.665 184.835 187.832 185.895C183.999 186.955 177.23 186.14 172.827 185.895Z" fill="#2C1E25"/>
<mask id="path-21-outside-1" maskUnits="userSpaceOnUse" x="0" y="0" width="393" height="925" fill="black">
<rect fill="white" width="393" height="925"/>
<path fill-rule="evenodd" clip-rule="evenodd" d="M229.143 187.555C230.05 175.617 233.087 150.841 238.169 145.234C241.755 141.277 244.163 134.824 246.791 127.78L246.791 127.78C248.851 122.259 251.046 116.375 254.051 111.044C260.889 98.9124 256.257 47.2971 254.051 40.6798C253.93 40.3158 253.804 39.9199 253.669 39.4957C251.35 32.208 246.384 16.6026 216.992 12.2252C191.21 8.3855 189.225 9.54742 179.123 15.4597C177.039 16.6798 174.608 18.1023 171.552 19.7249C162.609 24.4719 162.342 27.0641 161.817 32.147C161.293 37.2202 160.512 44.7746 150.596 59.4289C140.954 73.6762 143.416 85.1197 145.932 85.6104C145.737 87.6055 145.603 90.6789 145.81 93.9328L145.76 93.9308L145.819 94.0667C146 96.79 146.422 99.6309 147.249 102.065C149.269 108.015 150.922 133.862 150.92 145.966C150.88 145.839 150.841 145.709 150.802 145.573C150.836 147.216 150.797 149.729 150.579 152.13C150.464 152.878 150.348 153.799 150.233 154.844C149.954 156.454 149.552 157.787 148.983 158.436C148.113 159.431 146.951 163.663 145.588 168.628L145.588 168.628C143.759 175.29 141.568 183.271 139.233 186.522C138.243 187.901 137.108 189.966 135.997 192.441C135.495 192.86 134.949 193.386 134.348 193.965L134.348 193.965C131.989 196.235 128.79 199.316 124.162 199.894C120.67 200.331 116.093 204.157 111.316 208.151C105.842 212.727 100.105 217.524 95.4367 217.69C89.9777 217.885 83.1796 223.193 76.2587 228.597C72.0959 231.847 67.8887 235.132 63.9017 237.36C53.286 243.292 32.3666 312.916 30.181 324.468C29.6598 327.223 28.446 331.238 27.052 335.85C22.6011 350.576 16.3138 371.377 24.8733 376.607C26.7099 377.73 28.2631 378.477 29.6813 378.943C23.47 416.778 7.97655 515.043 12.9701 524.65C16.4066 531.201 22.6179 533.97 28.3052 536.505C32.8808 538.545 37.1172 540.434 39.2966 544.019C46.4365 546.051 52.4935 547.616 57.63 548.804C55.1632 571.36 53.3232 588.039 52.7127 593.247C51.74 601.543 50.1401 605.896 48.6322 610C46.2887 616.377 44.1673 622.15 44.9675 641.179C45.957 664.705 35.6972 678.785 29.4348 687.379C27.3728 690.209 25.7442 692.444 25.0933 694.226C23.9049 697.478 23.7338 710.02 23.5258 725.262C23.2479 745.633 22.9041 770.828 19.9786 785.121C15.9576 804.766 16.7235 808.064 18.442 815.464C18.9094 817.476 19.4473 819.793 19.9786 822.824C21.7644 833.014 19.0193 841.769 15.6518 852.509C14.3348 856.709 12.9226 861.213 11.649 866.226C8.28739 879.455 18.7658 889.627 25.1717 895.845C27.3987 898.007 29.1334 899.691 29.6235 900.859C31.5232 905.39 56.5122 910.358 62.9421 900.859C66.6426 895.393 98.4643 899.365 128.463 903.109C142.991 904.922 157.092 906.682 167.364 907.29C170.718 910.281 178.147 912.45 195.346 913.866C200.735 914.309 248.539 916.789 271.044 908.459C284.314 903.547 294.23 901.786 304.629 899.939C311.865 898.654 319.334 897.327 328.328 894.868C343.002 890.857 347.264 877.155 353.081 858.451C355.953 849.214 359.205 838.758 364.277 827.647C372.548 809.53 368.676 786.701 365.088 765.544C362.019 747.449 359.158 730.577 364.277 718.923C371.199 703.168 368.586 685.71 366.199 669.769C364.756 660.13 363.396 651.044 364.277 643.225C365.341 633.787 362.384 624.983 359.187 615.467C355.355 604.061 351.18 591.631 353.171 575.857C353.64 572.144 353.767 566.639 353.626 559.834L353.945 559.839C364.304 560.021 364.736 554.023 365.347 545.515C365.832 538.76 366.431 530.424 372.204 522.343C382.637 507.736 383 465.272 381.878 445.866C382.435 426.675 376.977 406.479 370.139 389.019C372.859 387.923 375.303 385.234 375.515 378.959C375.811 370.169 374.841 366.26 373.157 359.469C372.525 356.92 371.792 353.966 370.987 350.194C369.265 342.121 363.769 332.412 358.761 323.567L358.761 323.566C355.198 317.271 351.882 311.414 350.349 306.894C348.909 302.645 347.074 298.818 345.242 294.995C342.386 289.037 339.535 283.09 338.188 275.57C335.977 263.224 325.836 241.013 319.416 236.664C317.538 235.392 315.093 233.686 312.32 231.75L312.307 231.742L312.307 231.741L312.305 231.74C305.599 227.06 296.975 221.042 289.8 216.576C285.183 213.702 278.143 210.742 271.362 207.892C263.242 204.478 255.494 201.221 252.729 198.456C248.7 194.426 235.418 189.54 229.143 187.555Z"/>
</mask>
<path d="M238.169 145.234L245.579 151.949V151.949L238.169 145.234ZM229.143 187.555L219.172 186.797C218.821 191.426 221.701 195.688 226.127 197.089L229.143 187.555ZM246.791 127.78L256.16 131.276C256.201 131.165 256.24 131.054 256.278 130.942L246.791 127.78ZM246.791 127.78L237.422 124.284C237.381 124.394 237.341 124.506 237.304 124.617L246.791 127.78ZM254.051 111.044L262.762 115.954V115.954L254.051 111.044ZM254.051 40.6798L263.538 37.5174L263.538 37.5173L254.051 40.6798ZM253.669 39.4957L263.198 36.4638L263.198 36.4637L253.669 39.4957ZM216.992 12.2252L218.465 2.3343L216.992 12.2252ZM179.123 15.4597L174.072 6.8292L174.072 6.82921L179.123 15.4597ZM171.552 19.7249L166.863 10.8922V10.8922L171.552 19.7249ZM161.817 32.147L171.764 33.1744V33.1744L161.817 32.147ZM150.596 59.4289L158.877 65.0334V65.0334L150.596 59.4289ZM145.932 85.6104L155.885 86.5813C156.385 81.4518 152.905 76.782 147.846 75.7954L145.932 85.6104ZM145.81 93.9328L145.424 103.925C148.252 104.035 150.993 102.941 152.969 100.915C154.945 98.8895 155.97 96.1216 155.79 93.2976L145.81 93.9328ZM145.76 93.9308L146.146 83.9383C142.712 83.8056 139.45 85.446 137.508 88.2823C135.567 91.1185 135.218 94.753 136.585 97.9068L145.76 93.9308ZM145.819 94.0667L155.797 93.4038C155.721 92.2617 155.45 91.1411 154.995 90.0908L145.819 94.0667ZM147.249 102.065L156.717 98.8491V98.8491L147.249 102.065ZM150.92 145.966L141.378 148.958C142.856 153.67 147.551 156.598 152.433 155.851C157.314 155.104 160.92 150.905 160.92 145.967L150.92 145.966ZM150.802 145.573L160.417 142.825C159.036 137.992 154.282 134.935 149.312 135.684C144.342 136.433 140.7 140.755 140.805 145.78L150.802 145.573ZM150.579 152.13L160.463 153.65C160.494 153.446 160.519 153.241 160.538 153.035L150.579 152.13ZM150.233 154.844L160.086 156.554C160.121 156.349 160.15 156.144 160.173 155.938L150.233 154.844ZM148.983 158.436L156.509 165.022L156.509 165.022L148.983 158.436ZM145.588 168.628L155.075 171.791C155.132 171.62 155.184 171.449 155.231 171.276L145.588 168.628ZM145.588 168.628L136.101 165.466C136.044 165.636 135.992 165.808 135.945 165.981L145.588 168.628ZM139.233 186.522L147.356 192.355L139.233 186.522ZM135.997 192.441L142.405 200.118C143.57 199.145 144.499 197.92 145.12 196.535L135.997 192.441ZM134.348 193.965L127.412 186.761C127.366 186.805 127.321 186.849 127.277 186.894L134.348 193.965ZM134.348 193.965L141.283 201.169C141.329 201.125 141.374 201.081 141.419 201.036L134.348 193.965ZM124.162 199.894L125.402 209.817L125.402 209.817L124.162 199.894ZM111.316 208.151L117.73 215.823H117.73L111.316 208.151ZM95.4367 217.69L95.7935 227.684L95.7936 227.684L95.4367 217.69ZM76.2587 228.597L70.1046 220.715H70.1046L76.2587 228.597ZM63.9017 237.36L68.7798 246.089L63.9017 237.36ZM30.181 324.468L20.3553 322.609L30.181 324.468ZM27.052 335.85L36.6243 338.744L27.052 335.85ZM24.8733 376.607L19.659 385.14H19.659L24.8733 376.607ZM29.6813 378.943L39.5492 380.563C40.3475 375.701 37.4847 370.981 32.8035 369.443L29.6813 378.943ZM12.9701 524.65L4.09705 529.262C4.10287 529.273 4.10872 529.284 4.11458 529.295L12.9701 524.65ZM28.3052 536.505L32.3771 527.372H32.3771L28.3052 536.505ZM39.2966 544.019L30.7516 549.214C32.0609 551.367 34.1355 552.947 36.5599 553.637L39.2966 544.019ZM57.63 548.804L67.5707 549.891C68.1215 544.855 64.8192 540.203 59.8835 539.061L57.63 548.804ZM52.7127 593.247L62.6446 594.411L52.7127 593.247ZM48.6322 610L58.0185 613.449L58.0185 613.449L48.6322 610ZM44.9675 641.179L34.9764 641.599L44.9675 641.179ZM29.4348 687.379L21.3529 681.49H21.3529L29.4348 687.379ZM25.0933 694.226L34.4859 697.657H34.4859L25.0933 694.226ZM23.5258 725.262L33.5249 725.399L23.5258 725.262ZM19.9786 785.121L29.7754 787.126H29.7755L19.9786 785.121ZM18.442 815.464L28.1827 813.202L28.1827 813.201L18.442 815.464ZM19.9786 822.824L29.8284 821.097H29.8284L19.9786 822.824ZM15.6518 852.509L25.1938 855.501H25.1938L15.6518 852.509ZM11.649 866.226L1.95696 863.763L1.95695 863.763L11.649 866.226ZM25.1717 895.845L18.2065 903.02H18.2065L25.1717 895.845ZM29.6235 900.859L38.8454 896.992L38.8454 896.992L29.6235 900.859ZM62.9421 900.859L71.2232 906.465L62.9421 900.859ZM128.463 903.109L129.701 893.186H129.701L128.463 903.109ZM167.364 907.29L174.018 899.826C172.338 898.328 170.202 897.441 167.955 897.308L167.364 907.29ZM195.346 913.866L194.526 923.832H194.526L195.346 913.866ZM271.044 908.459L274.515 917.837H274.515L271.044 908.459ZM304.629 899.939L302.88 890.093H302.88L304.629 899.939ZM328.328 894.868L330.965 904.515L330.965 904.514L328.328 894.868ZM353.081 858.451L343.532 855.481L353.081 858.451ZM364.277 827.647L373.374 831.799L364.277 827.647ZM365.088 765.544L374.947 763.872L365.088 765.544ZM364.277 718.923L373.433 722.945V722.945L364.277 718.923ZM366.199 669.769L376.089 668.289L376.089 668.289L366.199 669.769ZM364.277 643.225L374.215 644.345H374.215L364.277 643.225ZM359.187 615.467L349.707 618.651L359.187 615.467ZM353.171 575.857L343.25 574.604L353.171 575.857ZM353.626 559.834L353.797 549.835C351.079 549.789 348.46 550.85 346.542 552.776C344.624 554.701 343.572 557.323 343.628 560.04L353.626 559.834ZM353.945 559.839L354.12 549.841L354.115 549.841L353.945 559.839ZM365.347 545.515L355.373 544.798V544.798L365.347 545.515ZM372.204 522.343L364.066 516.531L372.204 522.343ZM381.878 445.866L371.882 445.576C371.874 445.865 371.878 446.154 371.895 446.443L381.878 445.866ZM370.139 389.019L366.4 379.744C361.313 381.794 358.827 387.559 360.827 392.666L370.139 389.019ZM375.515 378.959L385.509 379.296V379.296L375.515 378.959ZM373.157 359.469L363.451 361.877V361.877L373.157 359.469ZM370.987 350.194L380.767 348.108L370.987 350.194ZM358.761 323.567L349.817 328.039C349.894 328.192 349.974 328.344 350.059 328.493L358.761 323.567ZM358.761 323.566L367.705 319.094C367.629 318.941 367.548 318.789 367.463 318.64L358.761 323.566ZM350.349 306.894L359.82 303.683L359.82 303.683L350.349 306.894ZM345.242 294.995L354.259 290.672L354.259 290.672L345.242 294.995ZM338.188 275.57L348.031 273.807V273.807L338.188 275.57ZM319.416 236.664L325.024 228.385V228.385L319.416 236.664ZM312.32 231.75L306.59 239.947L306.597 239.951L312.32 231.75ZM312.307 231.742L306.495 239.879C306.523 239.899 306.55 239.919 306.578 239.938L312.307 231.742ZM312.307 231.741L318.119 223.604C318.104 223.593 318.089 223.582 318.073 223.572L312.307 231.741ZM312.305 231.74L318.072 223.571C318.057 223.56 318.043 223.55 318.028 223.54L312.305 231.74ZM289.8 216.576L295.085 208.086L295.085 208.086L289.8 216.576ZM271.362 207.892L275.238 198.673L271.362 207.892ZM252.729 198.456L245.658 205.527L245.658 205.527L252.729 198.456ZM230.759 138.518C227.875 141.701 226.223 146.213 225.184 149.595C224.005 153.429 223.038 157.86 222.248 162.251C220.664 171.061 219.643 180.592 219.172 186.797L239.115 188.312C239.55 182.58 240.501 173.754 241.933 165.79C242.651 161.794 243.452 158.232 244.301 155.471C245.288 152.258 245.922 151.57 245.579 151.949L230.759 138.518ZM237.422 124.284C236.075 127.892 234.95 130.893 233.759 133.475C232.556 136.082 231.561 137.633 230.759 138.518L245.579 151.949C248.363 148.877 250.364 145.224 251.919 141.854C253.486 138.459 254.878 134.711 256.16 131.276L237.422 124.284ZM237.304 124.617L237.304 124.618L256.278 130.942L256.278 130.942L237.304 124.617ZM245.339 106.134C241.886 112.261 239.434 118.89 237.422 124.284L256.16 131.275C258.267 125.627 260.206 120.489 262.762 115.954L245.339 106.134ZM244.564 43.8422C244.546 43.7895 244.758 44.5664 245.085 46.6551C245.377 48.5164 245.693 50.953 246 53.8238C246.614 59.5595 247.169 66.7826 247.45 74.1735C247.731 81.5963 247.728 88.9861 247.273 95.1229C247.046 98.1933 246.716 100.785 246.304 102.825C246.099 103.836 245.889 104.63 245.695 105.227C245.599 105.521 245.515 105.742 245.447 105.901C245.414 105.979 245.388 106.037 245.368 106.077C245.349 106.117 245.339 106.135 245.339 106.134L262.762 115.954C264.369 113.104 265.299 109.788 265.906 106.793C266.54 103.662 266.953 100.179 267.219 96.6015C267.749 89.4416 267.732 81.2393 267.435 73.4146C267.137 65.558 266.548 57.8783 265.886 51.6959C265.556 48.6077 265.201 45.8314 264.844 43.556C264.523 41.508 264.107 39.2244 263.538 37.5174L244.564 43.8422ZM244.139 42.5277C244.269 42.9361 244.417 43.4008 244.564 43.8423L263.538 37.5173C263.442 37.2308 263.338 36.9037 263.198 36.4638L244.139 42.5277ZM215.519 22.1161C228.514 24.0514 234.932 28.2586 238.309 31.7362C241.775 35.3046 243.037 39.0636 244.139 42.5278L263.198 36.4637C261.981 32.6402 259.601 24.9526 252.656 17.802C245.623 10.5605 234.863 4.7764 218.465 2.3343L215.519 22.1161ZM184.175 24.0902C189.349 21.0619 190.673 20.4121 193.274 20.1252C196.743 19.7425 202.376 20.1587 215.519 22.1161L218.465 2.3343C205.826 0.451973 197.576 -0.470664 191.081 0.245747C183.719 1.0579 179 3.94516 174.072 6.8292L184.175 24.0902ZM176.24 28.5575C179.497 26.8286 182.085 25.3134 184.175 24.0901L174.072 6.82921C171.993 8.0463 169.719 9.37595 166.863 10.8922L176.24 28.5575ZM171.764 33.1744C172.065 30.2546 172.182 30.8553 171.85 31.3544C171.718 31.5517 171.759 31.3938 172.417 30.8887C173.109 30.3585 174.277 29.5996 176.24 28.5575L166.863 10.8922C162.072 13.4355 157.895 16.2284 155.205 20.2656C152.372 24.5183 152.093 28.9565 151.87 31.1197L171.764 33.1744ZM158.877 65.0334C164.211 57.1519 167.336 50.8142 169.183 45.4522C171.066 39.986 171.482 35.9058 171.764 33.1744L151.87 31.1197C151.628 33.4614 151.391 35.695 150.274 38.9378C149.121 42.2849 146.897 47.0515 142.314 53.8244L158.877 65.0334ZM147.846 75.7954C150.948 76.4003 152.56 78.3196 153.029 78.9487C153.603 79.7172 153.77 80.2748 153.773 80.2851C153.795 80.3528 153.603 79.7038 153.688 78.2625C153.848 75.5148 154.972 70.8052 158.877 65.0334L142.314 53.8243C136.578 62.2999 134.111 70.4356 133.722 77.0942C133.531 80.3561 133.824 83.5504 134.714 86.347C135.151 87.7218 135.848 89.3652 137 90.9091C138.048 92.3136 140.287 94.6979 144.018 95.4255L147.846 75.7954ZM155.79 93.2976C155.622 90.6512 155.735 88.1199 155.885 86.5813L135.979 84.6395C135.74 87.0912 135.585 90.7066 135.831 94.5679L155.79 93.2976ZM145.374 103.923L145.424 103.925L146.196 83.9402L146.146 83.9383L145.374 103.923ZM154.995 90.0908L154.936 89.9549L136.585 97.9068L136.643 98.0426L154.995 90.0908ZM156.717 98.8491C156.278 97.5553 155.947 95.6682 155.797 93.4038L135.841 94.7296C136.052 97.9119 136.566 101.706 137.78 105.281L156.717 98.8491ZM160.92 145.967C160.921 139.586 160.492 129.831 159.814 120.946C159.474 116.49 159.063 112.143 158.595 108.47C158.166 105.097 157.59 101.418 156.717 98.8491L137.78 105.281C137.773 105.26 137.815 105.385 137.893 105.713C137.967 106.026 138.054 106.441 138.151 106.968C138.346 108.029 138.55 109.381 138.755 110.995C139.166 114.219 139.546 118.206 139.872 122.468C140.525 131.021 140.921 140.242 140.92 145.964L160.92 145.967ZM141.187 148.321C141.251 148.542 141.314 148.754 141.378 148.958L160.462 142.974C160.447 142.925 160.432 142.876 160.417 142.825L141.187 148.321ZM160.538 153.035C160.797 150.189 160.84 147.295 160.8 145.365L140.805 145.78C140.833 147.137 140.798 149.27 140.62 151.225L160.538 153.035ZM160.173 155.938C160.28 154.966 160.378 154.201 160.463 153.65L140.695 150.61C140.55 151.555 140.416 152.633 140.293 153.75L160.173 155.938ZM156.509 165.022C158.079 163.228 158.833 161.267 159.198 160.179C159.621 158.917 159.896 157.647 160.086 156.554L140.38 153.134C140.291 153.65 140.225 153.852 140.235 153.821C140.244 153.796 140.307 153.609 140.453 153.319C140.589 153.049 140.897 152.492 141.458 151.851L156.509 165.022ZM155.231 171.276C155.931 168.728 156.506 166.637 157.006 165.056C157.256 164.264 157.428 163.791 157.526 163.554C157.573 163.439 157.555 163.497 157.466 163.664C157.412 163.766 157.11 164.335 156.509 165.022L141.458 151.851C140.056 153.453 139.305 155.277 139.029 155.947C138.621 156.938 138.255 158.019 137.935 159.03C137.296 161.055 136.609 163.563 135.945 165.981L155.231 171.276ZM155.075 171.791L155.075 171.791L136.101 165.466L136.101 165.466L155.075 171.791ZM147.356 192.355C149.519 189.343 151.044 185.174 152.096 181.99C153.259 178.469 154.332 174.552 155.231 171.276L135.945 165.981C135.015 169.367 134.078 172.771 133.105 175.718C132.622 177.18 132.173 178.396 131.765 179.346C131.324 180.373 131.083 180.728 131.11 180.69L147.356 192.355ZM145.12 196.535C146.086 194.384 146.906 192.982 147.356 192.355L131.11 180.69C129.581 182.82 128.129 185.548 126.874 188.347L145.12 196.535ZM141.283 201.169C141.961 200.516 142.232 200.262 142.405 200.118L129.589 184.764C128.759 185.457 127.936 186.256 127.412 186.761L141.283 201.169ZM141.419 201.036L141.419 201.036L127.277 186.894L127.276 186.894L141.419 201.036ZM125.402 209.817C133.763 208.772 139.181 203.193 141.283 201.169L127.412 186.761C126.172 187.955 125.369 188.698 124.522 189.268C123.77 189.774 123.283 189.926 122.921 189.971L125.402 209.817ZM117.73 215.823C120.214 213.746 122.186 212.108 123.92 210.906C124.758 210.325 125.344 209.985 125.717 209.804C126.124 209.607 125.978 209.745 125.402 209.817L122.921 189.971C118.606 190.511 114.884 192.833 112.522 194.471C109.9 196.29 107.195 198.562 104.902 200.479L117.73 215.823ZM95.7936 227.684C101.033 227.497 105.591 224.905 108.601 222.908C111.854 220.751 115.1 218.022 117.73 215.823L104.902 200.479C102.058 202.856 99.6982 204.814 97.5472 206.241C95.1538 207.828 94.5092 207.717 95.0797 207.697L95.7936 227.684ZM82.4128 236.479C85.9827 233.692 88.977 231.368 91.691 229.673C94.6207 227.845 95.8083 227.684 95.7935 227.684L95.0798 207.697C89.606 207.892 84.6651 210.483 81.1008 212.707C77.3208 215.067 73.4555 218.098 70.1046 220.715L82.4128 236.479ZM68.7798 246.089C73.5725 243.411 78.4204 239.596 82.4128 236.479L70.1046 220.715C65.7715 224.098 62.205 226.853 59.0237 228.63L68.7798 246.089ZM40.0067 326.327C40.9543 321.318 46.5218 301.606 53.3227 282.098C56.6929 272.431 60.2481 263.16 63.538 256.046C65.191 252.472 66.6728 249.672 67.9234 247.713C69.4488 245.324 69.8092 245.514 68.7798 246.089L59.0237 228.63C55.3404 230.689 52.7248 234.352 51.0658 236.951C49.1319 239.98 47.2206 243.683 45.3855 247.651C41.699 255.621 37.8973 265.59 34.4375 275.514C27.5783 295.189 21.5933 316.065 20.3553 322.609L40.0067 326.327ZM36.6243 338.744C37.9438 334.378 39.3614 329.737 40.0067 326.327L20.3553 322.609C19.9582 324.708 18.9481 328.099 17.4797 332.957L36.6243 338.744ZM30.0877 368.075C31.2383 368.778 31.0544 369.593 30.8067 368.267C30.5472 366.877 30.5237 364.546 30.9905 361.152C31.9209 354.387 34.3403 346.3 36.6243 338.744L17.4797 332.957C15.3128 340.126 12.3632 349.802 11.177 358.427C10.5856 362.727 10.317 367.498 11.1469 371.94C11.9886 376.445 14.2286 381.822 19.659 385.14L30.0877 368.075ZM32.8035 369.443C32.3321 369.288 31.492 368.933 30.0876 368.075L19.659 385.14C21.9279 386.527 24.1942 387.666 26.5591 388.443L32.8035 369.443ZM21.8431 520.038C22.3798 521.071 22.3134 521.584 22.1872 520.588C22.0941 519.854 22.0178 518.704 21.999 517.068C21.9618 513.812 22.1576 509.368 22.5724 503.908C23.3987 493.031 25.0328 478.88 27.0379 463.691C31.0425 433.353 36.4482 399.452 39.5492 380.563L19.8134 377.323C16.7031 396.269 11.2564 430.418 7.20987 461.073C5.1893 476.38 3.49821 490.962 2.62982 502.393C2.1972 508.088 1.95337 513.193 2.00033 517.297C2.02372 519.341 2.12043 521.324 2.34599 523.104C2.53837 524.621 2.93612 527.028 4.09705 529.262L21.8431 520.038ZM32.3771 527.372C26.2676 524.648 23.4239 523.051 21.8255 520.004L4.11458 529.295C9.38925 539.35 18.9682 543.292 24.2333 545.639L32.3771 527.372ZM47.8416 538.825C45.6406 535.204 42.624 532.823 39.9531 531.174C37.3727 529.581 34.5217 528.328 32.3771 527.372L24.2333 545.639C26.6643 546.723 28.2192 547.434 29.4458 548.192C30.001 548.534 30.3358 548.798 30.5328 548.979C30.6275 549.066 30.6838 549.128 30.7142 549.165C30.7294 549.183 30.739 549.196 30.7444 549.203C30.7471 549.207 30.7489 549.209 30.75 549.211C30.7511 549.213 30.7516 549.214 30.7516 549.214L47.8416 538.825ZM59.8835 539.061C54.9393 537.917 49.0461 536.396 42.0332 534.401L36.5599 553.637C43.827 555.705 50.0478 557.314 55.3765 558.547L59.8835 539.061ZM62.6446 594.411C63.261 589.154 65.1064 572.425 67.5707 549.891L47.6892 547.717C45.22 570.296 43.3855 586.924 42.7807 592.082L62.6446 594.411ZM58.0185 613.449C59.6498 609.01 61.5413 603.821 62.6446 594.411L42.7807 592.082C41.9387 599.264 40.6304 602.783 39.2459 606.551L58.0185 613.449ZM54.9587 640.759C54.5741 631.614 54.9157 626.127 55.5006 622.392C56.0622 618.805 56.8813 616.544 58.0185 613.449L39.2459 606.55C38.0396 609.833 36.6262 613.647 35.7413 619.298C34.8796 624.801 34.5607 631.715 34.9764 641.599L54.9587 640.759ZM37.5167 693.268C44.0483 684.305 56.0982 667.853 54.9587 640.759L34.9764 641.599C35.8158 661.558 27.3461 673.265 21.3529 681.49L37.5167 693.268ZM34.4859 697.657C34.408 697.871 34.4668 697.638 35.091 696.689C35.6775 695.796 36.4433 694.741 37.5167 693.268L21.3529 681.49C20.3643 682.847 19.2848 684.324 18.3789 685.702C17.5105 687.023 16.4295 688.799 15.7006 690.794L34.4859 697.657ZM33.5249 725.399C33.6295 717.73 33.723 710.933 33.9339 705.646C34.0395 703.001 34.1693 700.878 34.327 699.295C34.5154 697.404 34.6688 697.157 34.4859 697.657L15.7006 690.794C14.9235 692.92 14.6099 695.461 14.4255 697.312C14.2104 699.472 14.0616 702.047 13.9498 704.849C13.7261 710.457 13.6301 717.552 13.5267 725.126L33.5249 725.399ZM29.7755 787.126C32.9387 771.671 33.2534 745.294 33.5249 725.399L13.5267 725.126C13.2423 745.972 12.8695 769.984 10.1817 783.116L29.7755 787.126ZM28.1827 813.201C27.3415 809.58 26.9901 807.963 27.0553 805.114C27.1297 801.866 27.7798 796.877 29.7754 787.126L10.1817 783.116C8.15638 793.011 7.17885 799.493 7.06058 804.656C6.93318 810.216 7.8239 813.948 8.70122 817.726L28.1827 813.201ZM29.8284 821.097C29.2464 817.776 28.6543 815.232 28.1827 813.202L8.70121 817.726C9.16453 819.721 9.64825 821.809 10.1287 824.55L29.8284 821.097ZM25.1938 855.501C28.4464 845.127 32.0999 834.058 29.8284 821.097L10.1287 824.55C11.4289 831.969 9.59225 838.41 6.10985 849.517L25.1938 855.501ZM21.341 868.688C22.5376 863.979 23.8701 859.722 25.1938 855.501L6.10985 849.517C4.79944 853.696 3.30754 858.448 1.95696 863.763L21.341 868.688ZM32.137 888.67C28.8221 885.452 25.5426 882.2 23.3104 878.5C21.2158 875.027 20.5152 871.938 21.341 868.688L1.95695 863.763C-0.578818 873.742 2.27902 882.354 6.18465 888.829C9.95281 895.077 15.1155 900.02 18.2065 903.02L32.137 888.67ZM38.8454 896.992C37.8535 894.627 36.1764 892.786 35.3951 891.94C34.3966 890.859 33.1849 889.687 32.137 888.67L18.2065 903.02C19.3855 904.165 20.1547 904.916 20.7028 905.51C20.9617 905.79 21.0437 905.9 21.0274 905.878C21.0136 905.859 20.9421 905.763 20.8411 905.597C20.7432 905.436 20.5753 905.141 20.4016 904.727L38.8454 896.992ZM54.661 895.254C54.9986 894.755 54.9558 895.292 52.9211 895.789C51.0086 896.255 48.3726 896.407 45.433 896.156C42.5235 895.909 39.8636 895.313 38.0483 894.674C37.6149 894.522 37.2739 894.382 37.0213 894.266C36.7615 894.147 36.6501 894.078 36.6529 894.08C36.6582 894.083 36.7131 894.118 36.805 894.188C36.8952 894.257 37.0474 894.38 37.2362 894.565C37.5646 894.887 38.2932 895.675 38.8454 896.992L20.4015 904.727C21.8614 908.208 24.6485 910.158 26.0208 911.02C27.7283 912.091 29.6208 912.91 31.4052 913.539C35.0106 914.808 39.356 915.711 43.7349 916.084C48.0838 916.455 53.0194 916.351 57.6602 915.219C62.1786 914.117 67.6706 911.713 71.2232 906.465L54.661 895.254ZM129.701 893.186C114.803 891.326 99.0129 889.351 86.4784 888.55C80.2505 888.152 74.3984 888.012 69.6748 888.414C67.3359 888.613 64.8476 888.977 62.5637 889.702C60.578 890.332 57.0284 891.757 54.661 895.254L71.2232 906.465C69.7809 908.596 68.0352 908.948 68.6153 908.764C68.8971 908.675 69.7364 908.481 71.3699 908.342C74.591 908.068 79.263 908.13 85.2029 908.51C97.004 909.264 112.124 911.147 127.224 913.032L129.701 893.186ZM167.955 897.308C158.084 896.723 144.36 895.015 129.701 893.186L127.224 913.032C141.622 914.829 156.101 916.641 166.773 917.273L167.955 897.308ZM196.166 903.9C187.778 903.209 182.23 902.366 178.561 901.46C174.776 900.525 173.92 899.738 174.018 899.826L160.71 914.755C164.162 917.833 168.698 919.626 173.766 920.877C178.95 922.157 185.715 923.107 194.526 923.832L196.166 903.9ZM267.573 899.081C258.051 902.605 241.999 904.089 226.539 904.455C211.458 904.813 198.512 904.093 196.166 903.9L194.526 923.832C197.569 924.083 211.22 924.824 227.013 924.449C242.429 924.084 261.532 922.642 274.515 917.837L267.573 899.081ZM302.88 890.093C292.411 891.952 281.74 893.837 267.573 899.081L274.515 917.837C286.888 913.258 296.05 911.619 306.377 909.785L302.88 890.093ZM325.692 885.222C317.182 887.548 310.116 888.808 302.88 890.093L306.377 909.785C313.613 908.5 321.485 907.106 330.965 904.515L325.692 885.222ZM343.532 855.481C340.515 865.181 338.317 872.071 335.371 877.16C332.75 881.688 329.947 884.059 325.692 885.222L330.965 904.514C341.384 901.667 348.048 895.181 352.68 887.179C356.988 879.738 359.829 870.425 362.629 861.42L343.532 855.481ZM355.181 823.494C349.811 835.255 346.394 846.278 343.532 855.481L362.629 861.42C365.512 852.15 368.599 842.261 373.374 831.799L355.181 823.494ZM355.229 767.216C357.044 777.922 358.782 788.256 359.136 798.096C359.49 807.898 358.421 816.396 355.181 823.494L373.374 831.799C378.405 820.78 379.535 808.806 379.123 797.375C378.713 785.983 376.72 774.323 374.947 763.872L355.229 767.216ZM355.122 714.901C351.624 722.864 351.135 731.863 351.629 740.396C352.126 748.99 353.718 758.309 355.229 767.216L374.947 763.872C373.389 754.685 372.016 746.519 371.595 739.241C371.171 731.901 371.811 726.636 373.433 722.945L355.122 714.901ZM356.309 671.249C358.782 687.766 360.686 702.236 355.122 714.901L373.433 722.945C381.712 704.099 378.389 683.655 376.089 668.289L356.309 671.249ZM354.34 642.105C353.282 651.497 354.925 662.003 356.309 671.249L376.089 668.289C374.587 658.256 373.511 650.592 374.215 644.345L354.34 642.105ZM349.707 618.651C353.04 628.572 355.114 635.242 354.34 642.105L374.215 644.345C375.568 632.331 371.727 621.394 368.666 612.282L349.707 618.651ZM343.25 574.604C340.942 592.885 345.89 607.288 349.707 618.651L368.666 612.282C364.82 600.834 361.417 590.377 363.092 577.11L343.25 574.604ZM343.628 560.04C343.767 566.758 343.622 571.654 343.25 574.604L363.092 577.11C363.658 572.634 363.766 566.521 363.624 559.627L343.628 560.04ZM354.115 549.841L353.797 549.835L353.456 569.832L353.774 569.838L354.115 549.841ZM355.373 544.798C355.211 547.045 355.096 548.529 354.896 549.748C354.698 550.957 354.523 551.139 354.66 550.904C354.755 550.741 354.935 550.486 355.22 550.227C355.508 549.966 355.78 549.811 355.949 549.736C356.221 549.615 355.835 549.871 354.12 549.841L353.769 569.838C357.234 569.898 360.787 569.472 364.072 568.012C367.581 566.452 370.192 563.974 371.943 560.967C373.559 558.192 374.254 555.29 374.632 552.988C375.009 550.694 375.177 548.239 375.321 546.232L355.373 544.798ZM364.066 516.531C356.496 527.128 355.855 538.092 355.373 544.798L375.321 546.232C375.81 539.429 376.367 533.719 380.341 528.155L364.066 516.531ZM371.895 446.443C372.435 455.78 372.617 470.762 371.41 485.063C370.806 492.214 369.873 498.978 368.538 504.681C367.156 510.584 365.54 514.468 364.066 516.531L380.341 528.155C384.084 522.915 386.426 516.012 388.012 509.239C389.644 502.265 390.688 494.462 391.339 486.745C392.641 471.31 392.444 455.358 391.861 445.288L371.895 446.443ZM360.827 392.666C367.438 409.544 372.383 428.301 371.882 445.576L391.874 446.156C392.486 425.05 386.516 403.414 379.45 385.372L360.827 392.666ZM365.52 378.622C365.455 380.559 365.074 380.978 365.243 380.702C365.332 380.558 365.5 380.344 365.756 380.134C366.004 379.931 366.24 379.809 366.4 379.744L373.877 398.294C377.024 397.025 380.085 394.756 382.291 391.16C384.416 387.696 385.363 383.634 385.509 379.296L365.52 378.622ZM363.451 361.877C365.047 368.31 365.771 371.182 365.52 378.622L385.509 379.296C385.851 369.155 384.636 364.21 382.863 357.061L363.451 361.877ZM361.207 352.281C362.049 356.226 362.817 359.32 363.451 361.877L382.863 357.061C382.232 354.521 381.534 351.705 380.767 348.108L361.207 352.281ZM350.059 328.493C355.349 337.837 359.877 346.047 361.207 352.281L380.767 348.108C378.652 338.194 372.189 326.987 367.464 318.64L350.059 328.493ZM349.817 328.038L349.817 328.039L367.706 319.094L367.705 319.094L349.817 328.038ZM340.879 310.104C342.787 315.733 346.696 322.552 350.059 328.493L367.463 318.64C363.699 311.99 360.976 307.094 359.82 303.683L340.879 310.104ZM336.224 299.318C338.09 303.209 339.661 306.512 340.879 310.104L359.82 303.683C358.157 298.777 356.059 294.427 354.259 290.672L336.224 299.318ZM328.344 277.333C329.961 286.358 333.406 293.438 336.224 299.318L354.259 290.672C351.366 284.637 349.108 279.821 348.031 273.807L328.344 277.333ZM313.807 244.943C313.667 244.848 314.605 245.606 316.377 248.315C317.946 250.714 319.667 253.858 321.341 257.395C324.751 264.605 327.453 272.356 328.344 277.333L348.031 273.807C346.711 266.438 343.237 256.911 339.42 248.842C337.479 244.739 335.322 240.743 333.115 237.368C331.111 234.304 328.374 230.654 325.024 228.385L313.807 244.943ZM306.597 239.951C309.348 241.871 311.859 243.623 313.807 244.943L325.024 228.385C323.217 227.161 320.838 225.501 318.042 223.55L306.597 239.951ZM306.578 239.938L306.59 239.947L318.049 223.554L318.036 223.546L306.578 239.938ZM306.494 239.879L306.495 239.879L318.12 223.605L318.119 223.604L306.494 239.879ZM306.538 239.91L306.54 239.911L318.073 223.572L318.072 223.571L306.538 239.91ZM284.516 225.066C291.423 229.365 299.817 235.22 306.582 239.941L318.028 223.54C311.38 218.9 302.527 212.718 295.085 208.086L284.516 225.066ZM267.487 217.11C274.562 220.085 280.731 222.71 284.516 225.066L295.085 208.086C289.634 204.694 281.723 201.399 275.238 198.673L267.487 217.11ZM245.658 205.527C248.396 208.264 252.507 210.404 255.702 211.941C259.273 213.66 263.494 215.432 267.487 217.11L275.238 198.673C271.11 196.938 267.397 195.374 264.373 193.919C262.874 193.198 261.697 192.575 260.822 192.048C259.864 191.472 259.654 191.238 259.8 191.384L245.658 205.527ZM226.127 197.089C229.023 198.005 233.595 199.613 237.842 201.431C239.966 202.341 241.872 203.245 243.388 204.083C245.063 205.009 245.66 205.528 245.658 205.527L259.8 191.384C257.784 189.368 255.21 187.766 253.064 186.58C250.761 185.306 248.199 184.11 245.715 183.046C240.744 180.917 235.539 179.089 232.16 178.02L226.127 197.089Z" fill="white" mask="url(#path-21-outside-1)"/>
</svg>
