<svg width="1157" height="736" fill="none" xmlns="http://www.w3.org/2000/svg"><path d="M730.551 594.428c6.021-17.726 5.017-42.505 3.763-52.678l-25.087-71.075-62.297-66.058-110.379 22.577-98.673 28.848-16.306 114.973 54.772 176.851 53.099 119.572 44.737-32.192 91.146-26.34 60.625 7.108c-.975-17.839-3.512-56.86-5.853-70.239-2.927-16.723 2.927-129.188 10.453-151.347z" fill="#F3C4B7"/><path d="M452.626 726.373c15.641 17.259 24.946 93.938 27.644 130.12 2.484 26.444 14.984 65.912 15.429 93.489.445 27.577 16.013 59.158 48.04 55.598 32.026-3.56 49.819 4.45 76.062 19.57 26.244 15.12 44.037 15.12 84.511 6.23 40.474-8.9 65.39-49.818 74.287-79.174 8.896-29.356-11.12-82.287-23.575-99.634-12.454-17.347-23.575-78.728-29.802-85.845-4.982-5.693-5.782-28.584-5.56-39.318-1.137 3.98-2.274 6.064-4.927 15.16-2.653 9.097 8.718 57.041 4.927 57.42-3.79.379-1.705-6.443-15.35-7.201s-.873 9.095-52.114 10.444c-51.242 1.348-113.27 43.823-122.035 39.103-8.765-4.719-12.811-55.958-39.105-104.501-26.295-48.542-38.432-130.12-46.522-157.088-8.09-26.968-9.439-71.465 0-80.229 9.439-8.765 35.734 5.393 53.264-16.181s19.552-12.136 37.756-8.765c18.205 3.371 34.386-37.081 63.378-50.565 23.193-10.787 60.455 13.934 76.186 27.643 32.363 14.832 49.22 85.623 57.311 91.016 8.09 5.394 20.07-31.962-12.136-79.555-60.681-89.668-9.441-92.365-64.053-121.356-54.612-28.99-43.824-37.081-138.89-22.922-95.065 14.158-106.527 66.745-113.269 86.971-6.743 20.226-20.901 177.989 0 215.069 20.9 37.081 28.991 82.927 48.543 104.501z" fill="#2C1E25"/><path d="M504.005 543.344c21.766-8.574 37.65.824 42.872 6.595-17.314 28.031-32.979 13.191-38.75 23.909-16.489 14.51-41.498 2.748-51.941-4.947-9.07-2.473 20.611-14.84 47.819-25.557zM730.733 521.908c5.771-8.244-50.293-14.015-61.835-3.297-7.015 8.768-19.73 11.276-27.122 11.542-4.861 8.244 23 9.068 32.069 13.191 9.069 4.122 51.117-13.191 56.888-21.436z" fill="#2C1E25"/><path d="M639.217 530.153c.75.031 1.611.034 2.559 0m0 0c7.392-.266 20.107-2.774 27.122-11.542 11.542-10.718 67.606-4.947 61.835 3.297-5.771 8.245-47.819 25.558-56.888 21.436-9.069-4.123-36.93-4.947-32.069-13.191zm-94.899 19.786c-5.222-5.771-21.106-15.169-42.872-6.595-27.208 10.717-56.889 23.084-47.819 25.557 10.443 7.695 35.452 19.457 51.941 4.947 5.771-10.718 21.436 4.122 38.75-23.909z" stroke="#000"/><mask id="a" maskUnits="userSpaceOnUse" x="478" y="604" width="70" height="45"><path d="M482.885 628.215c2.37-7.866 19.549-16.704 27.842-20.14 11.652-5.707 33.292-4.146 36.49 7.227 3.199 11.373-13.151 17.652-23.932 22.628-10.781 4.976-31.87 13.15-40.4 9.478-8.529-3.673-2.962-9.36 0-19.193z" fill="#FFF1F0"/></mask><g mask="url(#a)"><path d="M482.885 628.215c2.37-7.866 19.549-16.704 27.842-20.14 11.652-5.707 33.292-4.146 36.49 7.227 3.199 11.373-13.151 17.652-23.932 22.628-10.781 4.976-31.87 13.15-40.4 9.478-8.529-3.673-2.962-9.36 0-19.193z" fill="#FFF1F0"/><path d="M514.261 625.279c-8.928 2.121-19.728-6.357-24.011-10.861l19.562-38.19c7.596 10.347 22.684 31.661 22.274 34.134-.512 3.092-6.664 12.265-17.825 14.917z" fill="#2C1E25"/></g><path d="M680.432 678.546c-34.627-32.977-57.712-117.894-70.903-162.413-5.102-17.348-18.034-14.235-22.075 8.663-4.04 22.898 26.405 174.777 26.405 174.777s3.329 12.352-1.857 11.126c-10.718-3.298-26.383 15.664 11.542 38.748 37.926 23.085 84.096-36.275 56.888-70.901z" fill="#EAB9AA"/><mask id="b" maskUnits="userSpaceOnUse" x="645" y="575" width="75" height="39"><path d="M645.965 600.412c-1.275 4.171 8.448 8.592 13.468 10.282 13.469 4.055 21.578 3.91 35.48-1.449 13.903-5.358 21-12.309 23.462-15.205 2.462-2.896 1.592-6.951-7.097-13.178-8.689-6.227-16.799-5.937-34.032-3.765-17.234 2.172-29.688 18.102-31.281 23.315z" fill="#FFF1F0"/></mask><g mask="url(#b)"><path d="M645.965 600.412c-1.275 4.171 8.448 8.592 13.468 10.282 13.469 4.055 21.578 3.91 35.48-1.449 13.903-5.358 21-12.309 23.462-15.205 2.462-2.896 1.592-6.951-7.097-13.178-8.689-6.227-16.799-5.937-34.032-3.765-17.234 2.172-29.688 18.102-31.281 23.315z" fill="#FFF1F0"/><path d="M668.652 599.018c-11.398-2.215-14.437-13.808-14.532-19.327l32.177-34.797c5.803 14.613 16.115 45.172 10.937 50.503-6.472 6.663-14.335 6.389-28.582 3.621z" fill="#2C1E25"/></g><mask id="c" maskUnits="userSpaceOnUse" x="1.965" y="303.03" width="1156" height="2785" fill="#000"><path fill="#fff" d="M1.965 303.03h1156v2785h-1156z"/><path fill-rule="evenodd" clip-rule="evenodd" d="M480.212 855.72c-2.772-36.49-12.055-112.21-27.586-129.347-10.961-12.095-18.32-31.818-26.353-53.348-6.296-16.875-13.007-34.86-22.19-51.153-20.901-37.08-6.743-194.843 0-215.069.37-1.11.754-2.317 1.165-3.611l.002-.006.001-.002c7.087-22.275 22.264-69.973 112.101-83.352 78.803-11.736 84.871-8.185 115.747 9.886 6.372 3.729 13.801 8.077 23.143 13.036 27.333 14.51 28.151 22.433 29.755 37.969 1.602 15.506 3.986 38.596 34.298 83.387 29.435 43.497 21.961 78.444 14.28 80.019 1.101 11.276 1.57 33.831-4.024 50.299-6.172 18.17-11.219 97.064-11.222 134.097.1-.321.199-.648.297-.99l.036-.126c-.102 4.93.012 12.424.647 19.639.387 2.446.777 5.549 1.164 9.098.851 4.742 2.059 8.651 3.749 10.581 2.659 3.039 6.211 15.975 10.378 31.151v.001c5.591 20.361 12.288 44.755 19.424 54.693 3.025 4.213 6.495 10.523 9.888 18.085 1.537 1.281 3.212 2.894 5.055 4.668 7.208 6.94 16.986 16.355 31.134 18.123 10.673 1.334 24.662 13.029 39.262 25.236 16.732 13.989 34.266 28.649 48.535 29.158 16.686.596 37.464 16.82 58.618 33.336 12.723 9.934 25.583 19.972 37.769 26.782 32.445 18.13 96.385 230.94 103.065 266.25 1.6 8.42 5.31 20.69 9.57 34.79 13.6 45.01 32.82 108.59 6.66 124.57-5.62 3.44-10.37 5.72-14.71 7.14 18.99 115.65 66.34 415.99 51.08 445.35-10.5 20.02-29.49 28.49-46.87 36.24-13.99 6.23-26.94 12-33.6 22.96-21.82 6.21-40.34 11-56.04 14.63 7.54 68.94 13.16 119.92 15.03 135.84 2.97 25.35 7.86 38.66 12.47 51.2 7.16 19.49 13.65 37.14 11.2 95.3-3.02 71.91 28.34 114.94 47.48 141.21 6.3 8.65 11.28 15.48 13.27 20.93 3.63 9.94 4.15 48.27 4.79 94.86.85 62.27 1.9 139.27 10.84 182.96 12.29 60.05 9.95 70.13 4.7 92.74-1.43 6.16-3.07 13.23-4.7 22.5-5.46 31.14 2.93 57.9 13.23 90.73 4.02 12.84 8.34 26.61 12.23 41.93 10.28 40.43-21.75 71.52-41.33 90.53-6.81 6.61-12.11 11.75-13.61 15.33-5.8 13.84-82.18 29.03-101.837 0-11.31-16.71-108.574-4.57-200.264 6.87-44.401 5.54-87.496 10.92-118.89 12.78-10.254 9.14-32.962 15.77-85.525 20.1-16.471 1.35-162.584 8.93-231.37-16.53-40.558-15.01-70.867-20.4-102.647-26.04H249.498c-22.116-3.93-44.944-7.98-72.436-15.5-44.85-12.26-57.875-54.14-75.655-111.31-8.78-28.23-18.719-60.19-34.223-94.15-25.279-55.38-13.445-125.15-2.477-189.82 9.38-55.31 18.126-106.88 2.477-142.5-21.155-48.15-13.167-101.51-5.874-150.24 4.41-29.46 8.567-57.23 5.874-81.13-3.25-28.85 5.789-55.76 15.56-84.84 11.711-34.86 24.474-72.86 18.386-121.07-1.433-11.35-1.82-28.17-1.39-48.97l-.987.02c-31.665.55-32.983-17.78-34.852-43.78-1.484-20.65-3.315-46.13-20.957-70.83-31.89-44.65-33.001-174.44-29.57-233.75-1.702-58.66 14.982-120.4 35.888-173.77-8.311-3.35-15.777-11.57-16.423-30.75-.906-26.86 2.057-38.81 7.206-59.57 1.933-7.79 4.173-16.82 6.632-28.34 5.265-24.68 22.064-54.36 37.37-81.39v-.01c10.892-19.24 21.027-37.14 25.71-50.95 4.402-12.99 10.01-24.69 15.611-36.37 8.729-18.21 17.444-36.39 21.561-59.38 6.758-37.73 37.754-105.62 57.377-118.91 5.735-3.89 13.2-9.095 21.668-15.005l.029-.019.002-.002.009-.006.016-.012.009-.005.004-.004c20.498-14.305 46.855-32.698 68.782-46.346 14.114-8.785 35.632-17.832 56.356-26.544 24.82-10.435 48.5-20.391 56.952-28.842 12.314-12.314 52.896-27.245 72.079-33.315z"/></mask><path d="M452.626 726.373l-7.41 6.715 7.41-6.715zm27.586 129.347l9.971-.758.6 7.901-7.554 2.391-3.017-9.534zm-53.939-182.695l9.369-3.496-9.369 3.496zm-22.19-51.153l-8.712 4.911 8.712-4.911zm0-215.069l9.486 3.162v.001l-9.486-3.163zm1.165-3.611l-9.529-3.032.002-.005 9.527 3.037zm.002-.006l9.588 2.841-.029.099-.031.098-9.528-3.038zm.001-.002l-9.588-2.841.028-.096.031-.095 9.529 3.032zm112.101-83.352l-1.473-9.891 1.473 9.891zm115.747 9.886l5.051-8.631-5.051 8.631zm23.143 13.036l4.689-8.832-4.689 8.832zm29.755 37.969l9.947-1.028v.001l-9.947 1.027zm34.298 83.387l-8.282 5.604 8.282-5.604zm14.28 80.019l-9.953.971-.874-8.96 8.819-1.807 2.008 9.796zm-4.024 50.299l9.469 3.216-9.469-3.216zm-11.222 134.097l9.547 2.975-19.547-2.976 10 .001zm.297-.99l9.612 2.76-.004.013-9.608-2.773zm.036-.126l-9.611-2.76 19.609 2.967-9.998-.207zm.647 19.639l-9.877 1.561-.054-.341-.03-.343 9.961-.877zm1.164 9.098l-9.843 1.767-.061-.34-.037-.344 9.941-1.083zm3.749 10.581l7.526-6.585-7.526 6.585zm10.378 31.151l-9.487 3.163-.085-.256-.071-.259 9.643-2.648zm0 .001l9.487-3.162.085.255.071.259-9.643 2.648zm19.424 54.693l8.123-5.832-8.123 5.832zm9.888 18.085l-6.404 7.68-1.773-1.479-.946-2.107 9.123-4.094zm5.055 4.668l-6.936 7.204 6.936-7.204zm31.134 18.123l1.24-9.923-1.24 9.923zm39.262 25.236l6.414-7.671-6.414 7.671zm48.535 29.158l.357-9.993-.357 9.993zm58.618 33.336l-6.154 7.882 6.154-7.882zm37.769 26.782l4.878-8.727-4.878 8.727zm103.065 266.25l9.83-1.86-9.83 1.86zm9.57 34.79l-9.58 2.89 9.58-2.89zm6.66 124.57l-5.22-8.53 5.22 8.53zm-14.71 7.14l-9.86 1.62-1.39-8.44 8.13-2.68 3.12 9.5zm51.08 445.35l8.87 4.61-.01.02v.02l-8.86-4.65zm-46.87 36.24l-4.07-9.14 4.07 9.14zm-33.6 22.96l8.55 5.2-2.04 3.35-3.77 1.07-2.74-9.62zm-56.04 14.63l-9.94 1.09-.966-8.83 8.656-2 2.25 9.74zm15.03 135.84l9.93-1.17-9.93 1.17zm12.47 51.2l9.39-3.45-9.39 3.45zm11.2 95.3l-9.99-.42 9.99.42zm47.48 141.21l-8.08 5.89 8.08-5.89zm13.27 20.93l-9.39 3.43 9.39-3.43zm4.79 94.86l10-.13-10 .13zm10.84 182.96l9.8-2-9.8 2zm4.7 92.74l-9.74-2.26 9.74 2.26zm-4.7 22.5l-9.85-1.73 9.85 1.73zm13.23 90.73l9.54-2.99.08.27.07.28-9.69 2.44zm0 0l-9.55 3-.08-.28-.07-.27 9.7-2.45zm12.23 41.93l9.69-2.47-9.69 2.47zm-41.33 90.53l6.96 7.17-6.96-7.17zm-13.61 15.33l9.22 3.86-9.22-3.86zm-101.837 0l8.281-5.61-8.281 5.61zm-200.264 6.87l1.239 9.92-1.239-9.92zm-118.89 12.78l-6.653-7.46 2.593-2.32 3.468-.2.592 9.98zm-85.525 20.1l-.82-9.97.82 9.97zm-231.37-16.53l-3.471 9.38 3.471-9.38zm-102.647-26.04l-1.748 9.85-.72-.13-.694-.23 3.162-9.49zm-.002 0l1.871-9.82.657.12.635.21-3.163 9.49zm-.004 0l-1.871 9.82-.149-.03-.149-.03 2.169-9.76zm-.003 0l1.749-9.85.211.04.209.05-2.169 9.76zm-72.436-15.5l-2.636 9.65 2.636-9.65zm-75.655-111.31l-9.548 2.97 9.548-2.97zm-34.223-94.15l-9.097 4.15 9.097-4.15zm-2.477-189.82l9.859 1.67-9.86-1.67zm2.477-142.5l9.156-4.02-9.156 4.02zm-5.874-150.24l-9.89-1.48 9.89 1.48zm5.874-81.13l9.937-1.12-9.937 1.12zm15.56-84.84l9.479 3.18-9.48-3.18zm18.386-121.07l-9.921 1.25 9.921-1.25zm-1.39-48.97l-.17-10 10.383-.17-.215 10.38-9.998-.21zm-.987.02l-.176-10h.005l.17 10zM63.9 1949.84l-9.974.71 9.974-.71zm-20.957-70.83l-8.138 5.81 8.138-5.81zm-29.57-233.75l9.996-.29.013.43-.025.44-9.984-.58zm35.888-173.77l3.742-9.27 9.179 3.7-3.61 9.22-9.311-3.65zm-16.423-30.75l-9.995.34 9.995-.34zm7.206-59.57l-9.705-2.4 9.705 2.4zm6.632-28.34l9.78 2.08-9.78-2.08zm37.37-81.39l-8.703-4.93.062-.11.065-.11 8.575 5.15zm0-.01l8.703 4.93-.063.11-.065.11-8.575-5.15zm25.71-50.95l9.47 3.21-9.47-3.21zm15.611-36.37l-9.018-4.32 9.018 4.32zm21.561-59.38l-9.844-1.76 9.844 1.76zm57.377-118.91l-5.608-8.28 5.608 8.28zm21.668-15.005l-5.722-8.2.008-.006.009-.006 5.705 8.212zm.029-.019l-5.706-8.213.079-.055.08-.053 5.547 8.321zm.002-.002l5.701 8.216-.077.053-.077.052-5.547-8.321zm.009-.006l5.734 8.192-.016.012-.017.012-5.701-8.216zm.016-.012l5.796 8.15-.031.021-.03.022-5.735-8.193zm.009-.005l-5.796-8.15.052-.037.051-.035 5.693 8.222zm.004-.004l5.723 8.201-.015.01-.016.011-5.692-8.222zm68.782-46.346l5.285 8.489-5.285-8.489zm56.356-26.544l3.876 9.218h-.001l-3.875-9.218zm56.952-28.842l-7.071-7.071 7.071 7.071zm51.903-169.377c5.496 6.064 9.498 15.922 12.621 26.086 3.263 10.615 6.049 23.261 8.389 36.276 4.685 26.056 7.733 54.46 9.137 72.942l-19.943 1.515c-1.367-18.008-4.346-45.708-8.879-70.918-2.268-12.619-4.888-24.397-7.821-33.939-3.072-9.994-6.054-16.028-8.324-18.532l14.82-13.43zm-24.394-50.129c4.049 10.852 7.763 20.792 11.79 29.519 4.038 8.752 8.114 15.656 12.604 20.61l-14.82 13.43c-6.471-7.14-11.555-16.146-15.945-25.661-4.401-9.541-8.383-20.227-12.367-30.906l18.738-6.992zm-22.848-52.567c9.632 17.089 16.599 35.82 22.848 52.567l-18.738 6.992c-6.344-17.002-12.798-34.241-21.533-49.738l17.423-9.821zm.775-206.996c-.549 1.648-1.406 5.572-2.4 11.914-.959 6.115-1.964 13.912-2.927 22.91-1.925 17.991-3.657 40.538-4.533 63.607-.877 23.101-.888 46.523.58 66.332.735 9.907 1.828 18.745 3.317 26.101 1.517 7.493 3.327 12.831 5.188 16.132l-17.423 9.821c-3.364-5.969-5.684-13.673-7.367-21.984-1.711-8.448-2.888-18.177-3.66-28.591-1.544-20.832-1.513-45.067-.62-68.57.893-23.535 2.659-46.539 4.632-64.976.986-9.215 2.03-17.352 3.054-23.881.989-6.302 2.05-11.732 3.186-15.14l18.973 6.325zm1.209-3.742c-.407 1.278-.813 2.554-1.209 3.741l-18.973-6.324c.344-1.033.707-2.172 1.123-3.481l19.059 6.064zm0 0l-.002.006-19.055-6.075.002-.007 19.055 6.076zm.061-.199l-.001.002-19.176-5.682.001-.002 19.176 5.682zm103.987-76.302c-43.218 6.436-67.3 20.917-81.382 35.416-14.17 14.59-19.177 30.119-22.664 41.077l-19.058-6.064c3.601-11.317 9.726-30.775 27.375-48.947 17.737-18.263 46.162-34.321 92.782-41.264l2.947 19.782zm109.222 8.625c-15.561-9.107-23.1-13.394-35.946-14.811-13.714-1.513-33.623.28-73.276 6.186l-2.947-19.782c39.15-5.831 61.676-8.13 78.416-6.284 17.607 1.943 28.54 8.467 43.855 17.43l-10.102 17.261zm23.505 13.239c-9.542-5.066-17.128-9.506-23.505-13.239l10.102-17.261c6.367 3.727 13.638 7.982 22.781 12.835l-9.378 17.665zm24.497 30.163c-.841-8.146-1.366-11.491-3.605-14.852-2.382-3.576-7.545-8.226-20.892-15.311l9.378-17.665c13.986 7.424 22.898 13.99 28.159 21.887 5.404 8.112 6.091 16.497 6.854 23.886l-19.894 2.055zm35.963 87.964c-15.531-22.949-24.156-40.705-29.088-55.022-4.968-14.422-6.054-24.994-6.875-32.942l19.894-2.054c.781 7.558 1.688 16.283 5.891 28.481 4.238 12.303 11.961 28.487 26.741 50.328l-16.563 11.209zm20.554 64.619c-1.241.254-2.1.768-2.574 1.123a4.297 4.297 0 00-.502.44 2.01 2.01 0 00-.154.176c-.006.008.1-.136.271-.495.168-.352.371-.85.581-1.514.869-2.749 1.554-7.356 1.182-13.632-.735-12.418-5.554-30.318-19.358-50.717l16.563-11.209c15.632 23.1 21.794 44.421 22.76 60.744.479 8.095-.306 15.239-2.078 20.844-.879 2.78-2.113 5.538-3.847 7.88-1.63 2.201-4.485 5.062-8.828 5.952l-4.016-19.592zm-11.485 56.879c4.891-14.399 4.604-35.212 3.54-46.112l19.906-1.943c1.137 11.653 1.788 35.949-4.508 54.487l-18.938-6.432zm-11.753 137.312c.002-18.845 1.281-48.093 3.327-74.883 1.024-13.409 2.249-26.311 3.618-37.066 1.332-10.454 2.898-19.74 4.808-25.363l18.938 6.432c-1.176 3.462-2.555 10.852-3.906 21.458-1.312 10.305-2.507 22.848-3.516 36.063-2.021 26.457-3.267 55.172-3.269 73.36l-20-.001zm19.905 1.784c-.119.412-.238.807-.358 1.192l-19.094-5.951c.08-.255.158-.515.236-.786l19.216 5.545zm.04-.139l-.036.126-19.223-5.52.036-.126 19.223 5.52zm-18.926 17.756c-.674-7.645-.792-15.509-.683-20.723l19.995.414c-.096 4.646.013 11.77.61 18.555l-19.922 1.754zm1.184 9.304c-.379-3.477-.75-6.401-1.1-8.62l19.754-3.123c.423 2.674.834 5.956 1.228 9.578l-19.882 2.165zm6.164 16.083c-2.102-2.402-3.339-5.289-4.125-7.584-.84-2.456-1.463-5.152-1.941-7.815l19.686-3.533c.373 2.079.779 3.707 1.179 4.874.196.573.355.931.451 1.119.105.205.064.069-.198-.231l-15.052 13.17zm8.261 27.214c-2.101-7.653-3.976-14.473-5.647-19.762-.836-2.645-1.562-4.718-2.179-6.218-.749-1.821-.954-1.827-.435-1.234l15.052-13.17c1.849 2.113 3.085 4.864 3.88 6.797.927 2.254 1.848 4.934 2.753 7.8 1.811 5.732 3.796 12.968 5.862 20.492l-19.286 5.295zm.156.515l18.974-6.325-18.974 6.325zm0 0l18.974-6.325v.001l-18.974 6.324zm20.788 57.364c-4.563-6.356-8.415-16.299-11.664-26.135-3.36-10.173-6.5-21.618-9.28-31.743l19.286-5.296c2.811 10.236 5.815 21.168 8.985 30.767 3.282 9.936 6.347 17.159 8.919 20.742l-16.246 11.665zm8.888 16.346c-3.248-7.238-6.403-12.886-8.888-16.346l16.246-11.665c3.564 4.964 7.35 11.937 10.889 19.822l-18.247 8.189zm7.242 7.778c-1.92-1.849-3.317-3.187-4.523-4.192l12.809-15.36c1.868 1.557 3.82 3.445 5.586 5.144l-13.872 14.408zm36.829 20.842c-17.88-2.235-29.877-14.149-36.829-20.842l13.872-14.408c7.464 7.187 15.023 14.102 25.438 15.404l-2.481 19.846zm34.089 22.985c-7.395-6.183-14.176-11.841-20.389-16.15-6.472-4.489-10.933-6.49-13.7-6.835l2.481-19.846c7.906.988 15.776 5.502 22.617 10.247 7.1 4.924 14.614 11.217 21.819 17.241l-12.828 15.343zm54.592 31.48c-10.039-.358-19.947-5.502-28.514-11.184-8.81-5.843-17.819-13.39-26.078-20.296l12.828-15.343c8.473 7.083 16.596 13.859 24.304 18.971 7.95 5.273 13.944 7.714 18.174 7.865l-.714 19.987zm52.821 31.224c-10.687-8.344-20.734-16.175-30.126-22.037-9.607-5.997-17.096-8.987-22.695-9.187l.714-19.987c11.087.396 22.33 5.815 32.571 12.208 10.458 6.528 21.377 15.066 31.844 23.239l-12.308 15.764zm39.045 27.63c-12.992-7.26-26.492-17.829-39.045-27.63l12.308-15.764c12.894 10.067 25.112 19.577 36.493 25.937l-9.756 17.457zm98.123 259.38c-3.2-16.89-20.64-78.34-41.49-138.13-10.39-29.82-21.51-58.87-31.98-81.5-5.238-11.32-10.208-20.81-14.733-27.9-4.8-7.52-8.221-10.9-9.92-11.85l9.756-17.457c6.412 3.587 12.087 10.817 17.017 18.547 5.21 8.16 10.61 18.55 16.03 30.27 10.86 23.48 22.23 53.23 32.71 83.3 20.91 59.97 38.77 122.58 42.26 141l-19.65 3.72zm9.81 35.82c-4.18-13.85-8.1-26.75-9.81-35.82l19.65-3.72c1.47 7.76 4.97 19.41 9.31 33.76l-19.15 5.78zm11.02 113.15c3.25-1.99 5.93-5.86 7.3-13.18 1.37-7.39 1.15-17.02-.41-28.33-3.11-22.59-11.05-48.94-17.91-71.64l19.15-5.78c6.74 22.31 15.21 50.25 18.57 74.7 1.68 12.21 2.21 24.28.26 34.72-1.97 10.5-6.7 20.57-16.53 26.58l-10.43-17.07zm-12.61 6.17c3.39-1.11 7.43-3 12.61-6.17l10.43 17.07c-6.05 3.69-11.51 6.37-16.8 8.1l-6.24-19zm45.33 450.24c-.01.02.17-.35.42-1.34.23-.95.47-2.22.68-3.88.42-3.32.67-7.69.74-13.11.12-10.82-.53-25.08-1.81-42.01-2.57-33.82-7.63-77.51-13.77-124.06-12.28-93.05-28.85-196.92-38.33-254.72l19.73-3.24c9.5 57.86 26.1 161.98 38.43 255.35 6.16 46.66 11.27 90.78 13.88 125.15 1.3 17.17 2 32.09 1.87 43.76-.07 5.83-.35 11.03-.9 15.4-.52 4.1-1.39 8.45-3.2 11.92l-17.74-9.22zm-42.07 31.71c17.8-7.94 33.42-15.23 42.08-31.75l17.72 9.3c-12.35 23.52-34.7 33.16-51.66 40.72l-8.14-18.27zm-38.07 26.91c4.44-7.31 10.75-12.5 17.34-16.57 6.5-4.01 13.88-7.28 20.73-10.34l8.14 18.27c-7.14 3.18-13.22 5.91-18.36 9.09-5.05 3.12-8.54 6.29-10.76 9.94l-17.09-10.39zm-49.75 10.08c15.51-3.59 33.86-8.33 55.56-14.51l5.47 19.24c-21.95 6.25-40.63 11.08-56.53 14.75l-4.5-19.48zm7.35 146.74c-1.87-15.97-7.5-67-15.04-135.91l19.88-2.18c7.54 68.97 13.16 119.89 15.02 135.76l-19.86 2.33zm13.02 53.49c-4.74-12.88-9.92-27.02-13.02-53.49l19.86-2.33c2.84 24.24 7.44 36.72 11.93 48.92l-18.77 6.9zm10.59 91.43c1.21-28.71.19-46.95-1.88-60.18-2.05-13.09-5.17-21.6-8.71-31.25l18.77-6.9c3.61 9.84 7.32 19.9 9.7 35.05 2.34 15.01 3.34 34.67 2.1 64.12l-19.98-.84zm49.39 147.52c-19.41-26.64-52.56-72.04-49.39-147.52l19.98.84c-2.87 68.34 26.7 109 45.57 134.9l-16.16 11.78zm11.96 18.47c-.6-1.62-1.83-3.92-3.99-7.2-2.12-3.23-4.78-6.89-7.97-11.27l16.16-11.78c3.11 4.27 6.09 8.35 8.53 12.06 2.4 3.66 4.65 7.5 6.05 11.33l-18.78 6.86zm4.18 91.57c-.32-23.34-.61-44.43-1.26-60.91-.33-8.25-.75-15.2-1.29-20.64-.57-5.74-1.21-8.85-1.63-10.02l18.78-6.86c1.39 3.8 2.18 9.2 2.75 14.9.6 6.01 1.03 13.42 1.37 21.82.67 16.81.96 38.19 1.28 61.44l-20 .27zm11.04 184.83c-9.17-44.85-10.2-123.04-11.04-184.83l20-.27c.85 62.73 1.93 138.56 10.64 181.09l-19.6 4.01zm4.76 88.47c2.61-11.23 4.23-18.35 3.97-29.84-.27-11.9-2.59-28.68-8.73-58.63l19.6-4.01c6.16 30.09 8.81 48.37 9.13 62.18.32 14.21-1.85 23.44-4.49 34.83l-19.48-4.53zm-4.81 23.03c1.68-9.55 3.37-16.86 4.81-23.03l19.48 4.53c-1.43 6.13-3.02 12.98-4.59 21.96l-19.7-3.46zm13.53 95.45c-10.17-32.46-19.47-61.53-13.53-95.45l19.7 3.46c-4.97 28.37 2.51 52.82 12.92 86.01l-19.09 5.98zm-.15-.54l19.39-4.89-19.39 4.89zm12.24 41.94c-3.82-15.02-8.05-28.54-12.09-41.39l19.09-5.99c4.02 12.82 8.41 26.83 12.38 42.45l-19.38 4.93zm-38.61 80.89c9.91-9.61 21.87-21.29 30.27-35.22 8.26-13.7 12.62-28.82 8.34-45.67l19.38-4.93c6 23.59-.52 44.23-10.6 60.93-9.93 16.48-23.78 29.85-33.46 39.24l-13.93-14.35zm-15.86 18.64c1.5-3.57 4.32-6.88 6.69-9.44 2.59-2.81 5.84-5.96 9.17-9.2l13.93 14.35c-3.46 3.37-6.27 6.1-8.41 8.42-1.05 1.14-1.82 2.04-2.35 2.75-.57.76-.65 1.01-.59.85l-18.44-7.73zm-84.336-1.74c2.969 4.39 8.706 7.95 17.476 10.09 8.65 2.11 19.07 2.52 29.51 1.63 10.4-.88 20.26-3.02 27.65-5.62 3.72-1.31 6.52-2.63 8.37-3.8 2.19-1.37 1.83-1.74 1.33-.56l18.44 7.73c-1.94 4.65-5.96 7.78-9.14 9.77-3.51 2.21-7.78 4.11-12.35 5.72-9.18 3.24-20.73 5.68-32.61 6.69-11.84 1.01-24.56.64-35.94-2.13-11.256-2.75-22.439-8.18-29.298-18.31l16.562-11.21zm-209.783 2.56c45.744-5.71 93.317-11.65 130.875-14.05 18.739-1.2 35.413-1.55 48.306-.45 6.423.54 12.333 1.48 17.255 3.04 4.624 1.47 10.029 4 13.347 8.9l-16.562 11.21c.491.73.382-.02-2.836-1.04-2.92-.93-7.181-1.7-12.899-2.18-11.391-.97-26.884-.7-45.336.48-36.824 2.35-83.727 8.2-129.673 13.93l-2.477-19.84zm-118.244 12.72c30.994-1.84 73.712-7.16 118.244-12.72l2.477 19.84c-44.272 5.53-87.743 10.96-119.537 12.84l-1.184-19.96zm-85.753 20.11c26.07-2.15 44.279-4.83 57.051-7.98 12.888-3.19 19.289-6.63 22.641-9.61l13.306 14.93c-6.902 6.15-16.982 10.59-31.152 14.09-14.287 3.53-33.713 6.32-60.206 8.5l-1.64-19.93zm-227.079-15.94c32.662 12.09 84.862 16.58 132.069 17.7 46.83 1.11 87.123-1.11 95.01-1.76l1.641 19.93c-8.585.71-49.584 2.95-97.125 1.83-47.164-1.12-102.414-5.57-138.537-18.94l6.942-18.76zm-104.369-26.51c31.851 5.66 62.914 11.17 104.369 26.51l-6.942 18.76c-39.661-14.68-69.216-19.94-100.924-25.57l3.497-19.7zm1.412.36h.002l-6.325 18.98h-.002l6.325-18.98zm-1.296-.33h.004l-3.742 19.64h-.004l3.742-19.64zm.295.06h.004l-4.339 19.52h-.003l4.338-19.52zm-71.968-15.39c27.006 7.39 49.432 11.37 71.548 15.3l-3.498 19.69c-22.115-3.92-45.347-8.05-73.323-15.69l5.273-19.3zm-68.743-104.63c8.998 28.93 16.378 52.48 26.782 70.46 10.079 17.41 22.618 28.89 41.961 34.17l-5.273 19.3c-25.507-6.97-41.907-22.57-53.997-43.45-11.766-20.33-19.789-46.3-28.57-74.54l19.097-5.94zm-34.675-95.34c15.8 34.62 25.906 67.14 34.675 95.34l-19.097 5.94c-8.79-28.27-18.565-59.66-33.772-92.97l18.194-8.31zm-1.715-183.99c-5.505 32.46-11.078 65.41-12.22 97.08-1.14 31.64 2.19 61.19 13.935 86.91l-18.194 8.31c-13.535-29.65-16.927-62.67-15.728-95.94 1.198-33.22 7.026-67.5 12.488-99.7l19.719 3.34zm1.773-148.19c8.763 19.95 10.413 43.61 8.976 68.47-1.441 24.91-6.083 52.21-10.75 79.72l-19.718-3.34c4.714-27.8 9.136-53.94 10.5-77.54 1.37-23.66-.432-43.59-7.319-59.27l18.312-8.04zm-5.14-144.74c-7.379 49.3-14.657 99.68 5.14 144.74l-18.31 8.04c-22.513-51.24-13.816-107.59-6.609-155.74l19.78 2.96zm5.922-83.73c2.87 25.47-1.57 54.66-5.921 83.73l-19.78-2.96c4.47-29.85 8.343-56.2 5.827-78.53l19.874-2.24zm15.102-80.54c-9.907 29.49-18.062 54.27-15.102 80.54l-19.874 2.24c-3.54-31.42 6.382-60.46 16.017-89.15l18.959 6.37zm18.828-125.5c6.404 50.72-7.131 90.68-18.828 125.5l-18.959-6.37c11.726-34.9 23.716-70.92 17.945-116.63l19.842-2.5zm-1.313-47.51c-.428 20.71-.023 36.92 1.313 47.51l-19.842 2.5c-1.53-12.11-1.898-29.54-1.467-50.42l19.996.41zm-11.156-10.19l.988-.02.34 20-.987.02-.341-20zm-24.707-34.5c.476 6.62.882 12.16 1.675 16.99.791 4.82 1.861 8.17 3.245 10.55 1.25 2.14 2.874 3.71 5.478 4.87 2.827 1.26 7.263 2.21 14.304 2.09l.351 20c-8.791.15-16.394-.98-22.778-3.81-6.608-2.94-11.367-7.47-14.638-13.09-3.138-5.39-4.727-11.46-5.698-17.37-.969-5.91-1.428-12.42-1.887-18.8l19.948-1.43zm-22.794-75.92c19.44 27.22 21.314 55.32 22.794 75.92l-19.948 1.43c-1.487-20.69-3.276-43.54-19.12-65.73l16.274-11.62zm-27.724-227.36c-1.694 29.29-2.266 76.08 1.52 120.95 1.895 22.44 4.86 44.19 9.247 62.92 4.433 18.94 10.12 33.92 16.957 43.49l-16.275 11.62c-9.107-12.75-15.519-30.74-20.156-50.55-4.684-20.01-7.76-42.79-9.701-65.79-3.883-46.01-3.295-93.78-1.558-123.8l19.967 1.16zm35.216-170.7c-20.678 52.78-36.85 113.08-35.203 169.83l-19.992.58c-1.758-60.58 15.44-123.76 36.572-177.71l18.623 7.3zm-15.74-34.73c.283 8.38 2.028 13.41 3.868 16.41 1.759 2.87 3.934 4.44 6.303 5.4l-7.484 18.54c-5.943-2.39-11.656-6.61-15.87-13.48-4.132-6.74-6.442-15.41-6.806-26.2l19.989-.67zm6.918-56.83c-5.06 20.4-7.778 31.31-6.918 56.83l-19.989.67c-.951-28.22 2.258-41.2 7.496-62.31l19.411 4.81zm6.706-28.67c-2.496 11.7-4.771 20.87-6.706 28.67l-19.411-4.81c1.93-7.79 4.135-16.68 6.557-28.03l19.56 4.17zm36.292-78.55c-15.588 27.54-31.42 55.72-36.292 78.55l-19.56-4.17c5.658-26.52 23.424-57.69 38.447-84.23l17.405 9.85zm-.127.22l-17.15-10.29 17.15 10.29zm26.605-52.89c-5.059 14.92-15.787 33.79-26.477 52.67l-17.405-9.85c11.092-19.6 20.634-36.54 24.941-49.24l18.941 6.42zm15.158-35.26c-5.634 11.75-10.978 22.93-15.158 35.26l-18.941-6.42c4.625-13.65 10.496-25.87 16.064-37.48l18.035 8.64zm22.387-61.93c-4.387 24.49-13.695 43.8-22.387 61.93l-18.035-8.64c8.767-18.29 16.888-35.34 20.735-56.82l19.687 3.53zm53.142-112.4c-3.16 2.14-7.878 7.43-13.532 16.08-5.452 8.33-11.16 18.82-16.549 30.21-10.844 22.92-19.896 48.44-23.061 66.11l-19.687-3.53c3.594-20.06 13.419-47.35 24.669-71.13 5.657-11.96 11.8-23.3 17.89-32.61 5.887-9 12.402-17.18 19.054-21.69l11.216 16.56zm21.783-15.084c-8.446 5.894-15.977 11.154-21.783 15.084l-11.216-16.56c5.664-3.837 13.063-9 21.554-14.925l11.445 16.401zm.012-.008l-.029.02-11.411-16.425.028-.02 11.412 16.425zm-.157.107l-.002.001-11.094-16.641.002-.001 11.094 16.641zm.163-.111l-.009.006-11.402-16.432.009-.006 11.402 16.432zm.05-.035l-.017.011-11.469-16.384.017-.012 11.469 16.385zm.069-.049l-.008.006-11.591-16.299.008-.006 11.591 16.299zm-.099.069l-.004.003-11.385-16.443.005-.004 11.384 16.444zm68.375-46.079c-21.66 13.482-47.788 31.712-68.344 46.058l-11.446-16.401c20.44-14.264 47.026-32.821 69.221-46.636l10.569 16.979zm54.946-25.815c-21.019 8.837-41.666 17.549-54.946 25.815l-10.569-16.979c14.947-9.303 37.336-18.684 57.764-27.273l7.751 18.437zm60.148-30.989c-5.581 5.581-15.097 10.817-25.073 15.617-10.353 4.982-22.732 10.183-35.074 15.372l-7.752-18.437c12.478-5.246 24.349-10.239 34.154-14.957 10.182-4.899 16.733-8.867 19.603-11.737l14.142 14.142zm68.025-30.852c-9.35 2.959-23.975 8.099-37.696 13.975-6.861 2.938-13.359 6.002-18.802 9.011-5.6 3.096-9.457 5.796-11.527 7.866l-14.142-14.142c4.088-4.087 9.921-7.871 15.993-11.227 6.229-3.444 13.384-6.801 20.605-9.893 14.444-6.186 29.702-11.547 39.535-14.658l6.034 19.068z" fill="#fff" mask="url(#c)"/><path d="M765.901 267.492l7.009-25.124 1.783-2.354 20.802-.012c6.901-.378 11.22-2.362 12.957-5.953 1.905-3.938.986-8.242-2.758-12.912-3.688-4.786-9.994-9.624-18.92-14.514l-.92-4.304 17.042-17.054 3.71-.135c9.617 4.939 17.605 10.733 23.964 17.383 6.531 6.591 10.849 13.325 12.953 20.203 2.219 6.934 1.956 13.239-.79 18.914-2.017 4.17-4.593 7.426-7.727 9.769-2.963 2.283-7.254 4.209-12.873 5.778-5.563 1.454-13.543 2.881-23.941 4.283l-1.026.79-4.409 12.66-2.741 1.676-22.182-6.444-1.933-2.65zm-9.116 48.975c-5.328-2.577-8.709-5.929-10.144-10.053-1.379-4.241-.779-9.025 1.798-14.353 2.69-5.559 6.383-9.204 11.079-10.934 4.812-1.674 9.94-1.194 15.384 1.44 5.096 2.465 8.334 5.818 9.712 10.059 1.495 4.296.982 9.05-1.54 14.262-2.69 5.56-6.383 9.205-11.079 10.935-4.696 1.73-9.766 1.278-15.21-1.356zM617.989 160.049l-.366-26.081 1.045-2.761 19.954-5.882c6.514-2.31 10.097-5.432 10.75-9.367.717-4.316-1.38-8.185-6.289-11.609-4.889-3.551-12.305-6.412-22.248-8.585l-2.096-3.87 11.536-21.17 3.521-1.176c10.62 2.024 19.918 5.329 27.896 9.914 8.125 4.479 14.168 9.72 18.127 15.726 4.086 6.026 5.613 12.148 4.581 18.368-.759 4.569-2.311 8.42-4.657 11.552-2.198 3.026-5.771 6.085-10.719 9.177-4.926 2.964-12.179 6.586-21.759 10.865l-.761 1.047-.658 13.39-2.156 2.381-23.098.079-2.603-1.998zm5.076 49.558c-5.839-.969-10.028-3.23-12.569-6.782-2.519-3.679-3.295-8.438-2.325-14.277 1.011-6.092 3.526-10.631 7.543-13.616 4.144-2.964 9.199-3.951 15.164-2.961 5.585.927 9.637 3.231 12.157 6.909 2.646 3.701 3.495 8.406 2.547 14.118-1.011 6.093-3.526 10.632-7.543 13.617-4.017 2.985-9.008 3.982-14.974 2.992zM427.26 203.267l-4.388-25.712.606-2.889 18.807-8.892c6.079-3.288 9.137-6.926 9.175-10.915.042-4.374-2.627-7.874-8.007-10.498-5.378-2.754-13.146-4.436-23.306-5.047l-2.668-3.5 8.129-22.697 3.297-1.706c10.805.36 20.503 2.189 29.092 5.488 8.72 3.171 15.499 7.417 20.338 12.739 4.968 5.323 7.421 11.136 7.362 17.441-.045 4.631-.984 8.676-2.818 12.132-1.704 3.33-4.762 6.903-9.173 10.722-4.41 3.689-11.017 8.387-19.821 14.094l-.59 1.152 1.417 13.331-1.763 2.686-22.809 3.643-2.88-1.572zm12.666 48.18c-5.918-.056-10.407-1.643-13.465-4.76-3.058-3.246-4.558-7.828-4.502-13.747.059-6.175 1.842-11.048 5.35-14.617 3.637-3.569 8.479-5.324 14.526-5.267 5.661.054 10.02 1.704 13.078 4.95 3.186 3.247 4.751 7.766 4.696 13.555-.059 6.176-1.842 11.049-5.35 14.618-3.508 3.57-8.286 5.325-14.333 5.268zM286.551 311.682l-13.996-22.011-.559-2.899 13.9-15.477c4.333-5.384 5.745-9.923 4.236-13.615-1.654-4.05-5.469-6.244-11.445-6.582-6.025-.458-13.839.997-23.444 4.365l-3.815-2.194-1.288-24.075 2.381-2.849c10.102-3.849 19.752-5.915 28.949-6.198 9.267-.45 17.162.842 23.683 3.876 6.64 2.986 11.153 7.397 13.537 13.233 1.752 4.288 2.451 8.381 2.097 12.278-.283 3.73-1.719 8.208-4.309 13.436-2.639 5.109-6.913 11.998-12.823 20.666l-.098 1.291 6.466 11.744-.586 3.159-19.622 12.186-3.264-.334zm30.324 39.524c-5.479 2.238-10.232 2.512-14.258.821-4.075-1.81-7.232-5.454-9.471-10.933-2.335-5.717-2.577-10.901-.723-15.55 1.972-4.697 5.758-8.189 11.356-10.477 5.241-2.141 9.899-2.306 13.974-.496 4.194 1.761 7.386 5.321 9.576 10.681 2.336 5.717 2.577 10.901.723 15.55-1.853 4.648-5.579 8.116-11.177 10.404z" fill="#FD6"/></svg>