<svg width="60" height="60" fill="none" xmlns="http://www.w3.org/2000/svg"><g clip-path="url(#clip0)"><mask id="a" maskUnits="userSpaceOnUse" x="-.451" y="8" width="63" height="82" fill="#000"><path fill="#fff" d="M-.451 8h63v82h-63z"/><path fill-rule="evenodd" clip-rule="evenodd" d="M41.812 21.126c.752-.202 1.607-1.183 1.963-1.685.305-.305.787-1.392.274-3.296-.642-2.38-2.986-2.784-3.7-2.856-.714-.073-6.385-1.263-7.503-1.718-1.117-.455-3.11-.662-4.155-.533-1.045.13-8.165 2.727-10.654 3.917-2.49 1.19-3.255 3.68-2.893 5.64.34 1.84 3.119 3.396 4.189 3.284.174.206.294.525.25 1.006-.113 1.283.042 1.713.69 1.785a.96.96 0 00.668-.153l.088.685c-.381-.305-.898-.482-1.164.221-.379.998 1.018 3.412 1.812 4.274.237 1.472.482 2.792.686 3.454.095.311.2.634.32.964-1.386 1.592-4.296 4.758-5.878 5.851-1.58 1.092-2.504 1.959-2.63 3.959-3.492 2.065-9.064 4.894-11.626 6.152 0 36.106 24.635 37.305 36.952 33.391l-.71-1.77h2.175l-.089 1.429h4.636c.011-.302.03-.616.056-.939 3.568 1.357 10.267 2.865 13.067 1.544 0-17.735-.212-26.539-4.325-32.222.27-.042.501-.098.717-.15l.08-.02c-3.877-5.025-12.534-9.95-14.096-10.592-1.25-.514-2.001-1.215-2.22-1.501l-1.426-1.42c.887-1.04 1.394-2.067 1.53-3.108.248-1.91.853-4.641 1.107-5.2.031-.07.054-.178.07-.317.501-1.006 1.133-3.418.566-4.205-.303-.42-.613-.373-.862-.172-.146-.836-.103-2.347-.03-3.148.058.056.11.113.157.173 1.123 1.42 1.518-1.348 1.208-2.214.28-.052.494-.151.614-.316a.477.477 0 00.086-.194z"/></mask><path fill-rule="evenodd" clip-rule="evenodd" d="M41.812 21.126c.752-.202 1.607-1.183 1.963-1.685.305-.305.787-1.392.274-3.296-.642-2.38-2.986-2.784-3.7-2.856-.714-.073-6.385-1.263-7.503-1.718-1.117-.455-3.11-.662-4.155-.533-1.045.13-8.165 2.727-10.654 3.917-2.49 1.19-3.255 3.68-2.893 5.64.34 1.84 3.119 3.396 4.189 3.284.174.206.294.525.25 1.006-.113 1.283.042 1.713.69 1.785a.96.96 0 00.668-.153l.088.685c-.381-.305-.898-.482-1.164.221-.379.998 1.018 3.412 1.812 4.274.237 1.472.482 2.792.686 3.454.095.311.2.634.32.964-1.386 1.592-4.296 4.758-5.878 5.851-1.58 1.092-2.504 1.959-2.63 3.959-3.492 2.065-9.064 4.894-11.626 6.152 0 36.106 24.635 37.305 36.952 33.391l-.71-1.77h2.175l-.089 1.429h4.636c.011-.302.03-.616.056-.939 3.568 1.357 10.267 2.865 13.067 1.544 0-17.735-.212-26.539-4.325-32.222.27-.042.501-.098.717-.15l.08-.02c-3.877-5.025-12.534-9.95-14.096-10.592-1.25-.514-2.001-1.215-2.22-1.501l-1.426-1.42c.887-1.04 1.394-2.067 1.53-3.108.248-1.91.853-4.641 1.107-5.2.031-.07.054-.178.07-.317.501-1.006 1.133-3.418.566-4.205-.303-.42-.613-.373-.862-.172-.146-.836-.103-2.347-.03-3.148.058.056.11.113.157.173 1.123 1.42 1.518-1.348 1.208-2.214.28-.052.494-.151.614-.316a.477.477 0 00.086-.194z" fill="#2C1E25"/><path d="M43.775 19.441l-2.121-2.12-.179.177-.146.206 2.446 1.737zm-1.963 1.685l-.78-2.897-1.821.49-.348 1.855 2.949.552zm2.237-4.98l2.897-.782-2.897.781zm-3.7-2.857l.303-2.985-.303 2.985zm-7.503-1.718l-1.132 2.778 1.132-2.778zm-4.155-.533l-.368-2.977.368 2.977zm-13.547 9.557l2.95-.545-2.95.545zm4.189 3.284l2.29-1.938-1.025-1.21-1.578.165.313 2.983zm.25 1.006l-2.987-.265 2.988.265zm.69 1.785l-.335 2.982.334-2.982zm.668-.153l2.977-.375-.62-4.908-4.065 2.817 1.708 2.466zm.088.685l-1.87 2.345 5.808 4.634-.963-7.368-2.975.389zm-1.164.221L17.06 26.36l2.805 1.064zm1.812 4.274l2.962-.476-.143-.894-.614-.665-2.205 2.035zm.686 3.454l-2.868.88 2.868-.88zm.32.964l2.262 1.97 1.16-1.332-.602-1.66-2.82 1.022zm-5.878 5.851l1.706 2.468-1.706-2.468zm-2.63 3.959l1.528 2.582 1.367-.809.1-1.585-2.995-.188zM2.55 52.077l-1.322-2.693-1.678.824v1.869h3zm36.952 33.391l.908 2.86 3.078-.978-1.202-2.998-2.784 1.116zm-.71-1.77v-3h-4.434l1.65 4.117 2.785-1.116zm2.175 0l2.994.186.197-3.185h-3.191v3zm-.089 1.429l-2.994-.185-.198 3.185h3.192v-3zm4.636 0v3h2.899l.1-2.896-2.998-.104zm.056-.939l1.066-2.804-3.734-1.42-.323 3.982 2.99.242zm13.067 1.544l1.28 2.713 1.72-.811v-1.902h-3zM54.311 53.51l-.456-2.966-4.853.747 2.879 3.977 2.43-1.758zm.717-.15l-.709-2.916h-.001l.71 2.915zm.08-.02l.708 2.915 4.487-1.09-2.82-3.657-2.376 1.832zM41.011 42.748l1.14-2.776-1.14 2.776zm-2.22-1.501l2.383-1.823-.123-.16-.142-.142-2.118 2.125zm-1.426-1.42l-2.281-1.949-1.804 2.113 1.968 1.96 2.117-2.125zm1.53-3.108l-2.976-.387 2.975.387zm1.107-5.2l2.732 1.24-2.732-1.24zm.07-.317l-2.685-1.338-.235.472-.06.524 2.98.342zm.566-4.205l2.434-1.754-2.434 1.754zm-.862-.172l-2.955.517.876 5.018 3.963-3.2-1.884-2.335zm-.03-3.148l2.104-2.14-4.513-4.436-.578 6.302 2.988.274zm.157.173l2.354-1.86-2.354 1.86zm1.208-2.214l-.537-2.952-3.48.633 1.192 3.33 2.825-1.011zm.614-.316l2.428 1.761-2.428-1.761zm-.397-3.616a3.805 3.805 0 01-.449.512 1.462 1.462 0 01-.164.14c-.005.003.014-.01.059-.032.043-.022.13-.06.257-.095l1.56 5.794c1.124-.302 1.976-1.035 2.412-1.448a9.88 9.88 0 001.217-1.396l-4.892-3.475zm-.176-.778c.157.584.121.89.11.957-.007.037-.007.01.03-.07.017-.039.049-.1.1-.177.047-.072.13-.186.26-.316l4.243 4.243c1.336-1.336 1.726-3.69 1.05-6.199l-5.793 1.562zm-1.106-.652c.168.017.491.076.755.218.115.062.182.12.224.168.032.039.084.11.127.266l5.793-1.562c-1.189-4.408-5.501-4.98-6.294-5.06l-.605 5.97zm-8.333-1.925c.507.207 1.278.413 1.941.581.74.187 1.607.388 2.447.573 1.572.347 3.372.712 3.945.77l.605-5.969c.04.004-.02-.002-.256-.044a43.85 43.85 0 01-.78-.149 110.44 110.44 0 01-2.22-.467 81.233 81.233 0 01-2.272-.531 25.786 25.786 0 01-.83-.222c-.243-.07-.329-.104-.316-.098l-2.264 5.556zm-2.654-.334c.19-.023.684-.028 1.323.049.642.077 1.123.2 1.331.285l2.264-5.556c-.91-.37-1.983-.579-2.878-.686-.898-.108-1.922-.152-2.777-.046l.737 5.954zm-9.73 3.647c1.106-.529 3.39-1.434 5.608-2.246 1.09-.4 2.122-.762 2.934-1.029.407-.133.74-.237.989-.308.312-.09.33-.08.199-.064l-.737-5.954a7.751 7.751 0 00-1.113.25c-.351.1-.765.23-1.21.376-.896.294-1.995.68-3.127 1.095-2.227.816-4.746 1.805-6.13 2.467l2.588 5.413zm-1.236 2.388c-.161-.873.183-1.885 1.237-2.388l-2.588-5.413c-3.925 1.876-5.112 5.843-4.549 8.891l5.9-1.09zm.926.846c.262-.028.42.006.422.007.02.004-.013-.001-.097-.034a3.307 3.307 0 01-.669-.364 2.713 2.713 0 01-.55-.489c-.117-.145-.064-.139-.032.034l-5.9 1.09c.386 2.089 1.961 3.53 3.059 4.293.619.43 1.291.79 1.952 1.042.572.218 1.474.49 2.44.388l-.625-5.967zm3.552 4.254c.1-1.126-.166-2.284-.95-3.209l-4.58 3.877a1.956 1.956 0 01-.391-.73 1.35 1.35 0 01-.055-.468l5.976.53zm-1.966-1.461c.13.014.522.076.956.371.48.326.753.76.884 1.104.11.286.106.47.104.414a3.85 3.85 0 01.022-.428l-5.976-.53c-.054.605-.137 1.681.243 2.68a3.625 3.625 0 001.35 1.723 3.851 3.851 0 001.75.629l.667-5.963zm-1.373.362a2.044 2.044 0 011.373-.362l-.668 5.963c1.06.118 2.001-.176 2.712-.669l-3.417-4.932zm4.771 2.762l-.086-.671-5.953.75c.027.216.057.45.09.698l5.949-.777zm-1.335 1.675a2.14 2.14 0 01-.629.854 2.53 2.53 0 01-1.557.592 2.278 2.278 0 01-1.004-.196c-.175-.08-.28-.16-.32-.191l3.741-4.69c-.347-.277-1.278-.956-2.575-.921a3.47 3.47 0 00-2.154.82 3.874 3.874 0 00-1.111 1.603l5.61 2.129zm1.213 1.174a4.306 4.306 0 01-.364-.495 7.748 7.748 0 01-.482-.854 3.416 3.416 0 01-.24-.614c-.011-.046.002-.009.005.095.002.096-.003.356-.131.694l-5.61-2.129c-.418 1.1-.236 2.16-.103 2.724.157.66.414 1.294.67 1.826.495 1.034 1.198 2.12 1.845 2.822l4.41-4.069zm1.348 4.609c-.13-.428-.348-1.536-.59-3.05l-5.925.951c.23 1.43.505 2.963.78 3.86l5.735-1.761zm.273.822c-.097-.27-.187-.544-.273-.822l-5.735 1.76c.105.344.226.717.367 1.105l5.641-2.043zm-6.992 9.341c1.06-.732 2.365-1.994 3.455-3.112a82.916 82.916 0 002.98-3.237l-4.526-3.94c-.665.763-1.7 1.91-2.751 2.99-1.107 1.135-2.047 2.002-2.57 2.363l3.412 4.936zm-1.342 1.679c.033-.517.139-.658.191-.729.126-.17.387-.422 1.15-.95l-3.41-4.936c-.817.564-1.807 1.292-2.57 2.328-.837 1.135-1.256 2.427-1.349 3.91l5.988.377zM3.872 54.77c2.571-1.263 8.232-4.135 11.83-6.263l-3.054-5.164c-3.385 2.002-8.87 4.788-11.421 6.041l2.645 5.386zm34.72 27.84c-5.684 1.805-13.99 2.332-20.717-1.446C11.408 77.532 5.55 69.418 5.55 52.077h-6c0 18.764 6.459 29.303 15.388 34.319 8.67 4.87 18.84 4.039 25.472 1.931l-1.817-5.718zm-2.585 2.205l.71 1.77 5.568-2.233-.709-1.77-5.57 2.233zm4.959-4.116h-2.174v6h2.174v-6zm2.905 4.614l.089-1.429-5.989-.37-.088 1.428 5.988.37zm1.642-3.186h-4.636v6h4.636v-6zm-2.935 1.82c-.029.363-.05.723-.063 1.076l5.997.208c.008-.252.024-.519.047-.801l-5.98-.484zm14.778-.928c-.148.07-.606.201-1.506.22-.849.019-1.876-.066-3.002-.24-2.258-.348-4.621-1.01-6.213-1.615l-2.133 5.608c1.977.752 4.747 1.523 7.43 1.937 1.346.208 2.741.337 4.047.31 1.255-.028 2.685-.203 3.937-.794l-2.56-5.426zm-5.475-27.75c1.617 2.233 2.61 5.258 3.153 10.162.545 4.931.602 11.388.602 20.301h6c0-8.823-.05-15.635-.638-20.96-.592-5.352-1.76-9.572-4.256-13.021l-4.861 3.517zm2.437-4.825c-.221.054-.336.08-.463.1l.912 5.93c.414-.063.76-.149.971-.2l-1.42-5.83zm.08-.02l-.079.02 1.418 5.83.079-.019-1.418-5.83zm-14.526-4.901c.493.202 2.846 1.457 5.63 3.356 2.775 1.893 5.588 4.166 7.23 6.293l4.75-3.664c-2.234-2.897-5.687-5.6-8.6-7.586-2.904-1.981-5.661-3.51-6.73-3.95l-2.28 5.55zM36.41 43.07c.58.759 1.784 1.763 3.463 2.453l2.28-5.55a3.974 3.974 0 01-.85-.471 2.077 2.077 0 01-.187-.153c-.041-.04-.01-.017.06.075l-4.766 3.646zm-1.16-1.119l1.425 1.42 4.236-4.249-1.426-1.42-4.236 4.25zm.671-5.619c-.04.311-.212.816-.835 1.546l4.563 3.896c1.15-1.347 1.992-2.898 2.222-4.668l-5.95-.774zm1.35-6.053c-.181.401-.323.911-.413 1.253a43.416 43.416 0 00-.937 4.8l5.95.774a37.549 37.549 0 01.788-4.041c.102-.387.132-.429.077-.307L37.27 30.28zm-.177.58l.004-.03a1.562 1.562 0 01.061-.255c.022-.07.057-.173.113-.295l5.464 2.48a4.067 4.067 0 00.319-1.215l-5.961-.684zm1.112-2.108a1.954 1.954 0 01-.316-.657c-.029-.114-.028-.17-.027-.142.003.064-.005.242-.057.53a6.91 6.91 0 01-.211.84c-.09.28-.17.468-.206.542l5.37 2.675c.4-.8.76-1.934.95-2.987a8.615 8.615 0 00.15-1.815c-.02-.547-.12-1.572-.785-2.494l-4.868 3.508zm3.456.408c-.21.171-.846.602-1.79.502-.993-.105-1.52-.708-1.666-.91l4.868-3.508c-.449-.623-1.283-1.412-2.569-1.548-1.237-.132-2.151.424-2.612.796l3.77 4.668zm-4.9-5.756c-.08.86-.157 2.696.06 3.939l5.911-1.033c-.075-.43-.065-1.615.003-2.359l-5.975-.547zm5.497-1.413a4.865 4.865 0 00-.407-.453l-4.206 4.28a1.128 1.128 0 01-.094-.107l4.707-3.72zm-3.97.657c-.11-.303-.068-.405-.075-.192-.005.154-.03.246-.024.227.003-.009.047-.151.181-.351a2.454 2.454 0 011.16-.905 2.62 2.62 0 012.097.086c.432.215.628.474.63.478l-4.706 3.72c.42.532 1.944 2.161 4.14 1.314a3.55 3.55 0 001.662-1.35c.279-.416.445-.835.548-1.155a6.97 6.97 0 00.31-1.88c.015-.505-.011-1.279-.275-2.015l-5.649 2.023zm1.01-3.088c.277-.383.602-.603.835-.72.222-.111.39-.145.442-.155l1.073 5.903c.585-.106 1.719-.42 2.506-1.506l-4.857-3.522zm-.435 1.015c.077-.412.245-.755.434-1.015l4.857 3.522c.28-.386.505-.858.607-1.402l-5.898-1.105z" fill="#fff" mask="url(#a)"/><path d="M40.661 26.997c-.534-.741-1.088-.03-1.299.419l.487 4.17c.486-.486 1.48-3.663.812-4.59z" fill="#E6B6A9"/><path d="M19.887 27.423c.348-.92 1.123-.333 1.467.074l.657 4.474c-.642-.37-2.56-3.398-2.124-4.548z" fill="#FFC9BA"/><path fill="#EEB9AB" d="M23.383 37.728H37.22v9.149H23.383z"/><path fill="#FCA7AE" d="M26.923 47.57h6.541v10.846h-6.541z"/><path fill="#FCA7AE" d="M33.443 47.57h6.541v10.846h-6.541z"/><path d="M58.658 85.732c0-23.182-.362-31.104-9.325-36.744L42.09 48.6l1.304 34.467c1.283 1.285 11.605 4.391 15.265 2.665z" fill="#FF6F7B"/><path d="M15.187 45.324c-3.324 2.078-9.796 5.368-12.616 6.753-6.213 36.147 24.634 37.305 36.951 33.391L25.873 51.41c-2.177-2.894-7.361-8.163-10.685-6.085z" fill="#EA646F"/><path d="M31.735 56.553c-.137-.339-.147-1.935-.135-2.69.107-.126.802-.578 2.727-1.377 2.074 2.968 3.23 8.671 3.55 11.151l-1.656.854c-1.438-2.504-4.35-7.598-4.486-7.938z" fill="#FF808A"/><path d="M36.387 40.559l.238.403.636 2.132.968 9.335 1.081 11.493 1.967 15.11-.378 6.095h4.636c.207-5.994 3.619-16.3 5.299-20.703.866-1.71 2.784-5.51 3.529-7.033-3.084-1.666-4.812-3.011-9.971-6.442 7.767 3.219 9.454 2.701 10.737 2.39-3.876-5.024-12.533-9.95-14.096-10.591-1.25-.514-2-1.215-2.22-1.501L37.262 39.7l-.874.859z" fill="#EA646F"/><path d="M36.708 42.318l-.197-1.65c2.732 3.13 2.83 9.324 2.66 12.072-.171 2.747.17 7.15.32 7.86.15.709.71 3.782.834 4.683.217 1.888 1.147 5.62 1.66 7.285l-6.126-5.112c.424-2.508 1.176-8.054.786-10.173-.486-2.65-.134-4.704.342-6.292.38-1.271.255-2.538.145-3.012l-.12-1.982-.304-3.679z" fill="#FF6F7B"/><path d="M16.827 41.966c1.635-1.13 4.69-4.476 6.013-6.008l.848 2.107-.072 1.096 2.887 8.564c4.281 6.877 13.343 21.318 15.343 24.067.807 4.024.488 9.614.228 11.907H38.1c-8.26-13.273-19.922-21.283-21.687-22.277-1.412-.794.588-2.746 1.765-3.622.752-.484 2.37-1.68 2.83-2.587.46-.907 2.79-2.855 3.896-3.715-.517.124-1.768.592-2.633 1.47-2.634 2.659-5.082 3.378-6.184 3.378-.238-.74-1.33-4.73-1.79-8.33-.46-3.602.486-4.637 2.53-6.05z" fill="#E25F6A"/><path d="M22.384 35.151c-.467-1.523-1.16-6.537-1.448-8.853l.735-2.08 3.89-2.914h8.404c1.978.471 5.917 1.54 5.842 2.044-.093.631-.18 2.567 0 3.524.181.957.471 4.088.218 4.647-.254.559-.86 3.29-1.108 5.2-.248 1.91-1.749 3.777-4.548 5.744-2.8 1.966-5.775-.337-8.114-1.687-2.339-1.35-3.286-3.72-3.87-5.625z" fill="#FFC9BA"/><path d="M29.2 37.438c.757-.658 1.495-.315 1.769-.062l1.247.435c.164.207.364.69-.145.967-5.004 3.033-5.086-1.526-5.086-2.4.238.822 1.267 1.883 2.214 1.06zM34.017 36.383c-.84.02-1.337.726-1.48 1.076 0 .14.024.54.119 1.024 3.4 1.279 3.726-2.271 3.809-3.378-.513 1.205-1.398 1.252-2.448 1.278zM34.13 24.517c.427-.625 1.769-.615 2.386-.533.71-.124 1.123-.098 1.79.42.668.517.461 1.035.156 1.397-.306.362-1.175.083-1.708-.109-.533-.191-1.185-.015-1.842 0s-1.314-.393-.781-1.175zM25.355 26.774c.732-.683 1.964-.899 2.489-.922.58 0 1.821.197 2.463-.48.641-.678-.782-1.186-2.629-1.387-1.847-.202-2.701.538-2.877.858-.14.257-.67.911-.916 1.206-.157.116-.513.422-.683.725-.564.92-.166 1.567.212 1.567s1.025-.714 1.94-1.567z" fill="#603A4C"/><path d="M19.606 24.885c.091-1.026-.559-1.317-.895-1.335l1.868-1.81 3.342-1.18 8.973-.57c2.586.287 7.84.99 8.176 1.511.419.652.046 3.855-1.144 2.35-.952-1.205-3.932-1.596-5.304-1.64-.26.313-.952.973-1.635 1.101-.854.16-1.102-.988-1.433-1.102-.347.435-1.884.29-2.028.223-.337.295-1.413.522-1.874-.11-.46-.63-1.154-.801-1.49-.801-.207.388-.668.854-1.32 1.175-.651.32-1.614 1.241-2.209 2.504-.476 1.01-1.164 1.142-1.449 1.081-.081.154-.372.447-.89.389-.647-.073-.802-.502-.688-1.786z" fill="#603A4C"/><path d="M33.623 27.276c.34-.621 1.54-1.591 3.623-.502-.373.646-1.93 1.298-3.623.502z" fill="#FFF3F1"/><path d="M31.59 53.888c-.1-1.54-1.114-3.95-1.61-4.962 1.476-.41 4.446-1.163 4.528-.89.104.341.218 3.896.088 4.662-.346.409-1.428.988-3.006 1.19z" fill="#E9717B"/><path d="M33.742 45.433c-1.295.948-2.257.678-2.576.424-.323.675-1.038 2.238-1.32 3.095 1.329.517 3.876-.305 4.983-.782-.1-.408-.457-1.528-1.087-2.737z" fill="#FF808A"/><path d="M19.544 23.835c.703-.29 1.645-1.501 2.028-2.07l.72-1.17 7.44-1.154c3.645.604 11.132 1.793 11.922 1.718.791-.074 1.758-1.176 2.143-1.718.305-.305.787-1.392.274-3.296-.642-2.38-2.986-2.784-3.7-2.856-.714-.073-6.385-1.263-7.503-1.718-1.118-.455-3.11-.662-4.155-.533-1.045.13-8.166 2.727-10.655 3.917-2.488 1.19-3.254 3.68-2.892 5.64.362 1.962 3.498 3.602 4.378 3.24z" fill="#FF6F7B"/><path d="M21.396 21.992c-2.215.89-1.799-.37-1.314-1.112.497-.73 2.779-1.46 3.927-1.506 1.15-.046 3.498-.528 4.978-.797 1.48-.269 6.965.223 8.781.424 1.817.202 4.621 1.434 3.98 2.319-.642.884-3.98-.109-6.013-.399-2.021-.288-6.47-.244-8.059-.228h-.029c-1.563.016-3.482.187-6.25 1.3z" fill="#E3616C"/><path d="M32.361 26.282c1.78 2.98 1.952 14.898-.714 12.062-2.003-2.22.714-6.572.714-12.062z" fill="#E7B6A9"/><path d="M31.326 45.95c-3.196-1.966-7.643-4.434-7.643-7.803-2.07 3.038 2.584 10.318 5.17 13.578l2.473-5.775z" fill="#FF6F7B"/><path d="M35.885 51.404l-2.427-5.8c2.334-1.454 3.117-3.766 3.084-4.818 1.089 7.137.87 7.902-.657 10.618z" fill="#E25F6A"/><path d="M25.065 28.404c.36-.892 1.606-2.43 3.705-1.444-.192.44-1.817 1.604-3.705 1.444z" fill="#FFF3F1"/><mask id="b" maskUnits="userSpaceOnUse" x="26" y="26" width="3" height="3"><path d="M28.278 27.462c0 .44-.522.662-.962.662-.44 0-.962-.129-.962-.57 0-.44.113-1.236.962-1.024.44 0 .962.492.962.932z" fill="#2C1E25"/></mask><g mask="url(#b)"><path d="M25.065 28.403c.36-.891 1.606-2.429 3.705-1.443-.192.44-1.816 1.604-3.705 1.443z" fill="#2C1E25"/></g><mask id="c" maskUnits="userSpaceOnUse" x="34" y="26" width="3" height="2"><path d="M36.02 27.08c0 .44-.539.796-.979.796-.44 0-.864-.357-.864-.797 0-.44.424-.797.864-.797s.978.357.978.797z" fill="#2C1E25"/></mask><g mask="url(#c)"><path d="M33.623 27.276c.34-.621 1.54-1.591 3.623-.502-.373.646-1.93 1.298-3.623.502z" fill="#2C1E25"/></g></g><defs><clipPath id="clip0"><path fill="#fff" d="M0 0h60v60H0z"/></clipPath></defs></svg>