<svg width="60" height="60" viewBox="0 0 60 60" fill="none" xmlns="http://www.w3.org/2000/svg">
<g clip-path="url(#clip0)">
<mask id="path-1-outside-1" maskUnits="userSpaceOnUse" x="-0.450562" y="8" width="63" height="82" fill="black">
<rect fill="white" x="-0.450562" y="8" width="63" height="82"/>
<path fill-rule="evenodd" clip-rule="evenodd" d="M41.8119 21.1262C42.5641 20.9238 43.4189 19.9426 43.7748 19.4414C44.0801 19.1361 44.5624 18.0495 44.0491 16.1452C43.4074 13.7649 41.0634 13.3613 40.3493 13.2889C39.6352 13.2164 33.9639 12.0263 32.8462 11.5709C31.7285 11.1156 29.7364 10.9086 28.6911 11.038C27.6458 11.1673 20.5257 13.7649 18.0367 14.9551C15.5478 16.1452 14.782 18.6342 15.1442 20.5953C15.4839 22.4345 18.2627 23.9914 19.3327 23.8793C19.5067 24.0849 19.6265 24.4044 19.5839 24.8851C19.4701 26.1684 19.6253 26.5979 20.2721 26.6703C20.5682 26.7035 20.7903 26.6219 20.9413 26.5173C20.968 26.7285 20.9974 26.9579 21.0293 27.2018C20.6475 26.8972 20.1315 26.7201 19.8646 27.4233C19.486 28.4213 20.8826 30.8353 21.6771 31.6965C21.9137 33.1686 22.1594 34.4894 22.3627 35.1512C22.4582 35.4622 22.5633 35.7855 22.6826 36.1149C21.2965 37.7071 18.3868 40.8732 16.8052 41.9663C15.2253 43.0583 14.3008 43.9245 14.1752 45.9248C10.6835 47.9903 5.11067 50.8191 2.54944 52.077C2.54944 88.1828 27.1836 89.3819 39.5007 85.4683L38.7916 83.6989H40.9656L40.8771 85.127H45.5135C45.524 84.8246 45.5426 84.5112 45.5687 84.1882C49.1367 85.545 55.8363 87.0528 58.636 85.7321C58.636 67.9967 58.424 59.193 54.3112 53.5095C54.5817 53.4679 54.812 53.4118 55.028 53.3591L55.1071 53.3399C51.2314 48.3154 42.5744 43.3893 41.0117 42.7477C39.7615 42.2343 39.0109 41.5334 38.7918 41.247L37.3662 39.8262C38.2528 38.7877 38.7599 37.7596 38.8953 36.7191C39.1437 34.8097 39.7491 32.0776 40.0026 31.5187C40.034 31.4495 40.0571 31.3408 40.0731 31.2016C40.5743 30.1957 41.2061 27.7839 40.639 26.997C40.336 26.5765 40.0264 26.6238 39.7768 26.8253C39.6307 25.989 39.6744 24.4782 39.7478 23.6767C39.8047 23.7326 39.857 23.7904 39.9043 23.8502C41.0267 25.2704 41.4219 22.5021 41.1117 21.6356C41.3928 21.5845 41.6061 21.4848 41.7257 21.3199C41.7714 21.2569 41.7996 21.1922 41.8119 21.1262Z"/>
</mask>
<path fill-rule="evenodd" clip-rule="evenodd" d="M41.8119 21.1262C42.5641 20.9238 43.4189 19.9426 43.7748 19.4414C44.0801 19.1361 44.5624 18.0495 44.0491 16.1452C43.4074 13.7649 41.0634 13.3613 40.3493 13.2889C39.6352 13.2164 33.9639 12.0263 32.8462 11.5709C31.7285 11.1156 29.7364 10.9086 28.6911 11.038C27.6458 11.1673 20.5257 13.7649 18.0367 14.9551C15.5478 16.1452 14.782 18.6342 15.1442 20.5953C15.4839 22.4345 18.2627 23.9914 19.3327 23.8793C19.5067 24.0849 19.6265 24.4044 19.5839 24.8851C19.4701 26.1684 19.6253 26.5979 20.2721 26.6703C20.5682 26.7035 20.7903 26.6219 20.9413 26.5173C20.968 26.7285 20.9974 26.9579 21.0293 27.2018C20.6475 26.8972 20.1315 26.7201 19.8646 27.4233C19.486 28.4213 20.8826 30.8353 21.6771 31.6965C21.9137 33.1686 22.1594 34.4894 22.3627 35.1512C22.4582 35.4622 22.5633 35.7855 22.6826 36.1149C21.2965 37.7071 18.3868 40.8732 16.8052 41.9663C15.2253 43.0583 14.3008 43.9245 14.1752 45.9248C10.6835 47.9903 5.11067 50.8191 2.54944 52.077C2.54944 88.1828 27.1836 89.3819 39.5007 85.4683L38.7916 83.6989H40.9656L40.8771 85.127H45.5135C45.524 84.8246 45.5426 84.5112 45.5687 84.1882C49.1367 85.545 55.8363 87.0528 58.636 85.7321C58.636 67.9967 58.424 59.193 54.3112 53.5095C54.5817 53.4679 54.812 53.4118 55.028 53.3591L55.1071 53.3399C51.2314 48.3154 42.5744 43.3893 41.0117 42.7477C39.7615 42.2343 39.0109 41.5334 38.7918 41.247L37.3662 39.8262C38.2528 38.7877 38.7599 37.7596 38.8953 36.7191C39.1437 34.8097 39.7491 32.0776 40.0026 31.5187C40.034 31.4495 40.0571 31.3408 40.0731 31.2016C40.5743 30.1957 41.2061 27.7839 40.639 26.997C40.336 26.5765 40.0264 26.6238 39.7768 26.8253C39.6307 25.989 39.6744 24.4782 39.7478 23.6767C39.8047 23.7326 39.857 23.7904 39.9043 23.8502C41.0267 25.2704 41.4219 22.5021 41.1117 21.6356C41.3928 21.5845 41.6061 21.4848 41.7257 21.3199C41.7714 21.2569 41.7996 21.1922 41.8119 21.1262Z" fill="#2C1E25"/>
<path d="M43.7748 19.4414L41.6535 17.3201L41.475 17.4985L41.3289 17.7043L43.7748 19.4414ZM41.8119 21.1262L41.0321 18.2294L39.2105 18.7197L38.8632 20.574L41.8119 21.1262ZM44.0491 16.1452L46.9457 15.3644L46.9457 15.3644L44.0491 16.1452ZM40.3493 13.2889L40.6521 10.3042L40.6521 10.3042L40.3493 13.2889ZM32.8462 11.5709L31.7143 14.3492L31.7144 14.3492L32.8462 11.5709ZM28.6911 11.038L28.3226 8.06068L28.6911 11.038ZM15.1442 20.5953L18.0943 20.0504L18.0943 20.0504L15.1442 20.5953ZM19.3327 23.8793L21.6224 21.941L20.5976 20.7303L19.02 20.8957L19.3327 23.8793ZM19.5839 24.8851L16.5956 24.62L16.5956 24.62L19.5839 24.8851ZM20.2721 26.6703L19.9382 29.6517L19.9382 29.6517L20.2721 26.6703ZM20.9413 26.5173L23.9177 26.1419L23.2988 21.2344L19.2329 24.0512L20.9413 26.5173ZM21.0293 27.2018L19.1582 29.5468L24.9665 34.1811L24.004 26.8132L21.0293 27.2018ZM19.8646 27.4233L17.0598 26.359L17.0598 26.359L19.8646 27.4233ZM21.6771 31.6965L24.6391 31.2205L24.4955 30.3273L23.8821 29.6623L21.6771 31.6965ZM22.3627 35.1512L19.4948 36.0319L19.4948 36.0319L22.3627 35.1512ZM22.6826 36.1149L24.9453 38.0846L26.1045 36.7531L25.5032 35.0932L22.6826 36.1149ZM16.8052 41.9663L18.5109 44.4343L16.8052 41.9663ZM14.1752 45.9248L15.7026 48.5069L17.0697 47.6982L17.1693 46.1129L14.1752 45.9248ZM2.54944 52.077L1.22694 49.3843L-0.450562 50.2082V52.077H2.54944ZM39.5007 85.4683L40.4092 88.3274L43.4867 87.3496L42.2854 84.3522L39.5007 85.4683ZM38.7916 83.6989V80.6989H34.3572L36.0069 84.8149L38.7916 83.6989ZM40.9656 83.6989L43.9599 83.8844L44.1573 80.6989H40.9656V83.6989ZM40.8771 85.127L37.8829 84.9415L37.6855 88.127H40.8771V85.127ZM45.5135 85.127V88.127H48.4117L48.5117 85.2305L45.5135 85.127ZM45.5687 84.1882L46.635 81.3841L42.9005 79.964L42.5784 83.9464L45.5687 84.1882ZM58.636 85.7321L59.9159 88.4454L61.636 87.634V85.7321H58.636ZM54.3112 53.5095L53.8552 50.5443L49.0023 51.2906L51.8808 55.2682L54.3112 53.5095ZM55.028 53.3591L54.3194 50.444L54.3178 50.4444L55.028 53.3591ZM55.1071 53.3399L55.8157 56.255L60.3031 55.1642L57.4825 51.5076L55.1071 53.3399ZM41.0117 42.7477L42.1512 39.9725L42.1512 39.9725L41.0117 42.7477ZM38.7918 41.247L41.1745 39.4242L41.0522 39.2643L40.9096 39.1222L38.7918 41.247ZM37.3662 39.8262L35.0846 37.8784L33.2814 39.9906L35.2485 41.9511L37.3662 39.8262ZM38.8953 36.7191L35.9203 36.3321L35.9203 36.3321L38.8953 36.7191ZM40.0026 31.5187L42.7346 32.7582L42.7346 32.7582L40.0026 31.5187ZM40.0731 31.2016L37.3879 29.8637L37.1528 30.3357L37.0927 30.8595L40.0731 31.2016ZM40.639 26.997L43.0728 25.243L43.0728 25.243L40.639 26.997ZM39.7768 26.8253L36.8216 27.3415L37.6981 32.3598L41.6615 29.1594L39.7768 26.8253ZM39.7478 23.6767L41.8507 21.5371L37.3376 17.1014L36.7604 23.4031L39.7478 23.6767ZM39.9043 23.8502L42.2579 21.99L42.2579 21.99L39.9043 23.8502ZM41.1117 21.6356L40.5749 18.6841L37.0947 19.3169L38.2873 22.6471L41.1117 21.6356ZM41.7257 21.3199L44.1544 23.081L44.1544 23.081L41.7257 21.3199ZM41.3289 17.7043C41.2961 17.7505 41.2325 17.8342 41.1458 17.9355C41.0597 18.0359 40.9678 18.1337 40.8801 18.2167C40.7884 18.3035 40.7313 18.3455 40.716 18.3557C40.7108 18.3592 40.7305 18.3454 40.7749 18.3236C40.8181 18.3024 40.9051 18.2636 41.0321 18.2294L42.5918 24.0231C43.7159 23.7205 44.5676 22.9877 45.0038 22.575C45.5172 22.0893 45.9457 21.5658 46.2208 21.1785L41.3289 17.7043ZM41.1525 16.9261C41.31 17.5103 41.2743 17.8154 41.2627 17.8826C41.2562 17.9203 41.2559 17.8929 41.2922 17.8139C41.3104 17.7743 41.3417 17.7131 41.3925 17.6362C41.4404 17.5637 41.5236 17.45 41.6535 17.3201L45.8962 21.5627C47.2316 20.2273 47.6217 17.8722 46.9457 15.3644L41.1525 16.9261ZM40.0465 16.2736C40.2154 16.2907 40.5383 16.3497 40.8022 16.492C40.9167 16.5538 40.9844 16.6125 41.0255 16.6602C41.0584 16.6986 41.1104 16.77 41.1525 16.9261L46.9457 15.3644C45.7573 10.9557 41.4449 10.3846 40.6521 10.3042L40.0465 16.2736ZM31.7144 14.3492C32.221 14.5556 32.9918 14.7625 33.6553 14.93C34.3948 15.1167 35.2624 15.3175 36.1025 15.503C37.6739 15.8499 39.4738 16.2155 40.0465 16.2736L40.6521 10.3042C40.6924 10.3083 40.6328 10.3022 40.3961 10.2598C40.1954 10.2239 39.9307 10.1736 39.6167 10.1113C38.9902 9.98699 38.2005 9.82166 37.3958 9.64403C36.5891 9.46596 35.7847 9.27935 35.1241 9.11257C34.7931 9.02901 34.5131 8.95414 34.2945 8.89085C34.0508 8.82031 33.9651 8.78736 33.9781 8.79267L31.7144 14.3492ZM29.0596 14.0153C29.2499 13.9917 29.744 13.9868 30.383 14.0637C31.0248 14.1409 31.5059 14.2643 31.7143 14.3492L33.9781 8.79267C33.0689 8.42222 31.9951 8.21442 31.1 8.10668C30.2022 7.99861 29.1776 7.95487 28.3226 8.06068L29.0596 14.0153ZM19.3309 17.6616C20.4357 17.1333 22.7207 16.2281 24.9377 15.4155C26.028 15.0159 27.0601 14.654 27.8716 14.3874C28.2791 14.2536 28.6125 14.1499 28.8607 14.0788C29.1728 13.9895 29.1902 13.9991 29.0596 14.0153L28.3226 8.06068C27.9307 8.10919 27.4969 8.22824 27.2099 8.31038C26.8589 8.41083 26.4451 8.54057 25.9992 8.68705C25.1039 8.98112 24.0045 9.36723 22.8729 9.78197C20.6463 10.5981 18.1267 11.5867 16.7426 12.2486L19.3309 17.6616ZM18.0943 20.0504C17.9329 19.1766 18.2774 18.1653 19.3309 17.6616L16.7426 12.2486C12.8182 14.1251 11.631 18.0917 12.1941 21.1402L18.0943 20.0504ZM19.02 20.8957C19.2815 20.8683 19.4396 20.9025 19.4419 20.9029C19.4619 20.9069 19.4292 20.9017 19.3447 20.8695C19.1725 20.8037 18.9282 20.6803 18.6764 20.5054C18.423 20.3293 18.2364 20.1528 18.1264 20.0164C18.0087 19.8705 18.0623 19.8771 18.0943 20.0504L12.1941 21.1402C12.5799 23.2289 14.1555 24.6703 15.2528 25.4327C15.8719 25.8629 16.5442 26.2227 17.2046 26.4748C17.7765 26.6932 18.6789 26.9643 19.6453 26.863L19.02 20.8957ZM22.5722 25.1502C22.6721 24.0239 22.4056 22.8661 21.6224 21.941L17.0429 25.8176C16.8462 25.5852 16.7183 25.3296 16.6506 25.0879C16.5851 24.8538 16.5899 24.6842 16.5956 24.62L22.5722 25.1502ZM20.606 23.689C20.7362 23.7035 21.1276 23.7648 21.562 24.0601C22.0419 24.3862 22.315 24.8192 22.4463 25.1641C22.5553 25.4503 22.5524 25.6349 22.5502 25.5784C22.5486 25.5376 22.5489 25.412 22.5722 25.1502L16.5956 24.62C16.542 25.2247 16.459 26.3012 16.8392 27.2995C17.076 27.9212 17.502 28.5553 18.1893 29.0225C18.8312 29.4587 19.4847 29.6009 19.9382 29.6517L20.606 23.689ZM19.2329 24.0512C19.6415 23.7682 20.1385 23.6366 20.606 23.689L19.9382 29.6517C20.9979 29.7704 21.9391 29.4756 22.6497 28.9833L19.2329 24.0512ZM24.004 26.8132C23.9727 26.5735 23.9438 26.3485 23.9177 26.1419L17.9649 26.8926C17.9921 27.1085 18.0221 27.3424 18.0545 27.5904L24.004 26.8132ZM22.6695 28.4876C22.6148 28.6318 22.4489 28.9971 22.0404 29.3418C21.5884 29.7232 21.0276 29.9192 20.4831 29.9336C19.9979 29.9464 19.6455 29.8145 19.4788 29.7385C19.3037 29.6586 19.1981 29.5787 19.1582 29.5468L22.9003 24.8568C22.5532 24.5798 21.6216 23.9014 20.3246 23.9357C19.57 23.9556 18.8063 24.2201 18.1706 24.7565C17.5784 25.2563 17.2479 25.8632 17.0598 26.359L22.6695 28.4876ZM23.8821 29.6623C23.8342 29.6104 23.6996 29.445 23.5183 29.1671C23.346 28.9028 23.1745 28.6027 23.0356 28.3133C22.8899 28.0096 22.8191 27.7989 22.7955 27.699C22.7845 27.6528 22.7983 27.6903 22.8005 27.7938C22.8026 27.8897 22.7975 28.1504 22.6695 28.4876L17.0598 26.359C16.6423 27.4593 16.8238 28.5199 16.9572 29.0828C17.1138 29.7432 17.3708 30.3769 17.6262 30.9091C18.1223 31.9428 18.8253 33.0296 19.4721 33.7307L23.8821 29.6623ZM25.2305 34.2706C25.0994 33.8435 24.8825 32.7354 24.6391 31.2205L18.7151 32.1725C18.9448 33.6019 19.2195 35.1352 19.4948 36.0319L25.2305 34.2706ZM25.5032 35.0932C25.4056 34.8235 25.3162 34.5495 25.2305 34.2706L19.4948 36.0319C19.6001 36.3748 19.721 36.7476 19.8619 37.1365L25.5032 35.0932ZM18.5109 44.4343C19.5701 43.7022 20.8759 42.4399 21.9658 41.3215C23.1114 40.1459 24.2237 38.9135 24.9453 38.0846L20.4198 34.1451C19.7553 34.9084 18.7198 36.0553 17.6686 37.1341C16.5617 38.27 15.6219 39.1373 15.0995 39.4984L18.5109 44.4343ZM17.1693 46.1129C17.2017 45.5965 17.308 45.4551 17.3602 45.3843C17.4857 45.214 17.747 44.9622 18.5109 44.4343L15.0995 39.4984C14.2834 40.0624 13.2927 40.7897 12.5295 41.8255C11.693 42.961 11.2743 44.2528 11.1811 45.7367L17.1693 46.1129ZM3.87194 54.7698C6.44301 53.5071 12.1043 50.6354 15.7026 48.5069L12.6478 43.3427C9.2627 45.3452 3.77833 48.1312 1.22694 49.3843L3.87194 54.7698ZM38.5923 82.6091C32.9076 84.4154 24.6017 84.9423 17.8753 81.1643C11.4084 77.532 5.54944 69.4184 5.54944 52.077H-0.450562C-0.450562 70.8415 6.00762 81.3803 14.937 86.3956C23.607 91.2652 33.7767 90.4348 40.4092 88.3274L38.5923 82.6091ZM36.0069 84.8149L36.7161 86.5843L42.2854 84.3522L41.5762 82.5828L36.0069 84.8149ZM40.9656 80.6989H38.7916V86.6989H40.9656V80.6989ZM43.8714 85.3126L43.9599 83.8844L37.9714 83.5133L37.8829 84.9415L43.8714 85.3126ZM45.5135 82.127H40.8771V88.127H45.5135V82.127ZM42.5784 83.9464C42.549 84.3104 42.5275 84.6701 42.5153 85.0235L48.5117 85.2305C48.5204 84.9791 48.5361 84.7121 48.5589 84.43L42.5784 83.9464ZM57.3561 83.0189C57.2081 83.0887 56.7504 83.2202 55.8504 83.2396C55.0013 83.2578 53.9736 83.1731 52.8482 82.9994C50.59 82.6507 48.2268 81.9894 46.635 81.3841L44.5024 86.9923C46.4786 87.7438 49.2493 88.5148 51.9327 88.9291C53.2782 89.1368 54.6734 89.2662 55.9794 89.2382C57.2345 89.2112 58.6641 89.0359 59.9159 88.4454L57.3561 83.0189ZM51.8808 55.2682C53.4975 57.5023 54.4917 60.5265 55.0341 65.4311C55.5794 70.3623 55.636 76.8194 55.636 85.7321H61.636C61.636 76.9095 61.5867 70.097 60.9978 64.7716C60.4059 59.4196 59.2377 55.2002 56.7416 51.7507L51.8808 55.2682ZM54.3178 50.4444C54.0966 50.4983 53.982 50.5248 53.8552 50.5443L54.7671 56.4746C55.1814 56.4109 55.5274 56.3252 55.7382 56.2739L54.3178 50.4444ZM54.3985 50.4248L54.3194 50.444L55.7366 56.2742L55.8157 56.255L54.3985 50.4248ZM39.8722 45.5228C40.3655 45.7254 42.7181 46.9801 45.5016 48.8786C48.2773 50.7718 51.0905 53.0446 52.7317 55.1722L57.4825 51.5076C55.248 48.6107 51.7949 45.9083 48.8824 43.9218C45.9778 41.9407 43.2206 40.4116 42.1512 39.9725L39.8722 45.5228ZM36.4091 43.0699C36.9897 43.8288 38.1932 44.8334 39.8722 45.5228L42.1512 39.9725C41.7731 39.8172 41.4885 39.6407 41.3014 39.502C41.2079 39.4328 41.1462 39.3784 41.1151 39.349C41.0735 39.3097 41.1041 39.3322 41.1745 39.4242L36.4091 43.0699ZM35.2485 41.9511L36.674 43.3719L40.9096 39.1222L39.484 37.7014L35.2485 41.9511ZM35.9203 36.3321C35.8799 36.6434 35.708 37.1482 35.0846 37.8784L39.6479 41.774C40.7976 40.4273 41.64 38.8758 41.8702 37.1061L35.9203 36.3321ZM37.2707 30.2792C37.0886 30.6805 36.9475 31.19 36.857 31.5324C36.7459 31.953 36.6282 32.453 36.5146 32.9793C36.2888 34.0252 36.0583 35.2713 35.9203 36.3321L41.8702 37.1061C41.9806 36.2576 42.1771 35.1829 42.3794 34.2456C42.4799 33.7803 42.5766 33.3732 42.6581 33.0647C42.7603 32.6779 42.7899 32.6364 42.7346 32.7582L37.2707 30.2792ZM37.0927 30.8595C37.0929 30.8576 37.0941 30.8471 37.0969 30.8294C37.0997 30.8121 37.1048 30.7824 37.1135 30.7428C37.122 30.704 37.1361 30.6459 37.1584 30.5738C37.1801 30.5035 37.2154 30.401 37.2706 30.2793L42.7346 32.7582C42.9697 32.2401 43.0311 31.7393 43.0535 31.5436L37.0927 30.8595ZM38.2052 28.751C37.9931 28.4567 37.9156 28.201 37.8887 28.094C37.8601 27.9803 37.8612 27.9243 37.8623 27.9524C37.8646 28.0165 37.8569 28.1942 37.8047 28.4828C37.7552 28.7558 37.6801 29.0505 37.5939 29.3214C37.5043 29.6029 37.4249 29.7896 37.3879 29.8637L42.7583 32.5394C43.1571 31.739 43.5179 30.6053 43.7087 29.5516C43.8062 29.0131 43.8814 28.3774 43.8584 27.7366C43.8387 27.1899 43.7375 26.1653 43.0728 25.243L38.2052 28.751ZM41.6615 29.1594C41.4503 29.33 40.8155 29.7614 39.8712 29.6612C38.8782 29.5558 38.351 28.9533 38.2052 28.751L43.0728 25.243C42.624 24.6202 41.7904 23.8311 40.5045 23.6947C39.2673 23.5634 38.3529 24.1191 37.8921 24.4913L41.6615 29.1594ZM36.7604 23.4031C36.6817 24.2623 36.6045 26.0988 36.8216 27.3415L42.7321 26.3091C42.657 25.8793 42.6672 24.694 42.7353 23.9503L36.7604 23.4031ZM42.2579 21.99C42.1266 21.8239 41.9894 21.6734 41.8507 21.5371L37.645 25.8163C37.62 25.7918 37.5873 25.7568 37.5507 25.7105L42.2579 21.99ZM38.2873 22.6471C38.1788 22.344 38.2197 22.2415 38.2131 22.4554C38.2085 22.6089 38.183 22.7014 38.1893 22.6818C38.192 22.6734 38.2361 22.5305 38.37 22.3308C38.4915 22.1496 38.8422 21.6918 39.5298 21.4264C40.3309 21.1172 41.1041 21.252 41.6275 21.5124C42.0589 21.7271 42.2549 21.9863 42.2579 21.99L37.5506 25.7104C37.9706 26.2418 39.495 27.8713 41.6904 27.0239C42.568 26.6851 43.0862 26.0707 43.3527 25.6733C43.6317 25.2575 43.7983 24.8388 43.9012 24.5189C44.1078 23.8765 44.1931 23.2033 44.2104 22.6384C44.2257 22.134 44.1997 21.3605 43.936 20.6242L38.2873 22.6471ZM39.2971 19.5587C39.5747 19.1758 39.9005 18.9562 40.1331 18.8394C40.355 18.728 40.5231 18.6935 40.5749 18.6841L41.6484 24.5872C42.2332 24.4809 43.3669 24.167 44.1544 23.081L39.2971 19.5587ZM38.8632 20.574C38.9404 20.1617 39.1082 19.8192 39.2971 19.5587L44.1544 23.081C44.4346 22.6946 44.6587 22.2227 44.7607 21.6785L38.8632 20.574Z" fill="white" mask="url(#path-1-outside-1)"/>
<path d="M40.661 26.9968C40.127 26.2558 39.5726 26.9674 39.3622 27.4159L39.8486 31.5866C40.335 31.1002 41.3285 27.923 40.661 26.9968Z" fill="#E6B6A9"/>
<path d="M19.8865 27.4234C20.2354 26.5038 21.0104 27.0896 21.3542 27.4974L22.0107 31.971C21.3692 31.6006 19.4503 28.5729 19.8865 27.4234Z" fill="#FFC9BA"/>
<rect x="23.3831" y="37.7285" width="13.8367" height="9.14856" fill="#EEB9AB"/>
<rect x="26.9226" y="47.5703" width="6.5406" height="10.8458" fill="#FCA7AE"/>
<rect x="33.4425" y="47.5703" width="6.5406" height="10.8458" fill="#FCA7AE"/>
<path d="M58.6579 85.732C58.6579 62.5501 58.2957 54.6279 49.3334 48.9877L42.0891 48.5996L43.3931 83.0671C44.6764 84.3521 54.9985 87.4582 58.6579 85.732Z" fill="#FF6F7B"/>
<path d="M15.1868 45.3242C11.8626 47.4023 5.39138 50.6919 2.57126 52.0769C-3.64175 88.2241 27.2054 89.3818 39.5225 85.4682L25.8721 51.4094C23.6954 48.5152 18.5109 43.2461 15.1868 45.3242Z" fill="#EA646F"/>
<path d="M31.7349 56.5535C31.5983 56.2141 31.5883 54.6182 31.6003 53.8628C31.7073 53.7368 32.4024 53.2853 34.3273 52.4863C36.4013 55.4544 37.5579 61.1571 37.877 63.6374L36.2212 64.4912C34.7827 61.9868 31.8715 56.893 31.7349 56.5535Z" fill="#FF808A"/>
<path d="M36.3867 40.5587L36.6247 40.9623L37.2612 43.0942L38.2288 52.429L39.3103 63.9217L41.2766 79.0313L40.8989 85.1269H45.5353C45.7423 79.1327 49.154 68.8271 50.834 64.4236C51.6999 62.7143 53.6179 58.9148 54.363 57.3914C51.279 55.7252 49.5507 54.3798 44.3917 50.9491C52.1587 54.1677 53.8456 53.6502 55.1289 53.3398C51.2531 48.3153 42.5961 43.3891 41.0334 42.7475C39.7833 42.2342 39.0326 41.5332 38.8136 41.2469L37.2612 39.6997L36.3867 40.5587Z" fill="#EA646F"/>
<path d="M36.7076 42.3182L36.511 40.6675C39.2431 43.7981 39.3415 49.992 39.1707 52.7396C38.9999 55.4873 39.3415 59.8908 39.4915 60.5998C39.6416 61.3087 40.2004 64.3823 40.3246 65.2827C40.542 67.1714 41.4716 70.9022 41.9856 72.5684L35.859 67.456C36.2833 64.9481 37.0347 59.4024 36.6455 57.2829C36.1591 54.6335 36.511 52.5792 36.9871 50.9907C37.3679 49.7198 37.2423 48.4534 37.1319 47.9791L37.0129 45.9972L36.7076 42.3182Z" fill="#FF6F7B"/>
<path d="M16.827 41.9661C18.4622 40.836 21.5169 37.4902 22.8398 35.9585L23.6884 38.0645L23.616 39.1615L26.5034 47.7254C30.7844 54.6023 39.8464 69.0434 41.8458 71.7921C42.6531 75.8158 42.334 81.4063 42.0735 83.6987H38.0995C29.8409 70.426 18.1776 62.4158 16.413 61.4223C15.0014 60.6275 17.0012 58.6764 18.1776 57.8002C18.9296 57.3155 20.5485 56.1195 21.008 55.2129C21.4675 54.3063 23.7971 52.3583 24.9044 51.4976C24.387 51.6218 23.1358 52.0896 22.2706 52.9672C19.6368 55.6269 17.1892 56.3461 16.0871 56.3461C15.849 55.6062 14.7572 51.6166 14.2967 48.0151C13.8361 44.4137 14.7831 43.3788 16.827 41.9661Z" fill="#E25F6A"/>
<path d="M22.3845 35.1512C21.9168 33.6278 21.2237 28.6141 20.9357 26.2976L21.6705 24.2175L25.5617 21.3042H33.9651C35.9435 21.7751 39.8817 22.8431 39.8072 23.3481C39.714 23.9794 39.6261 25.9147 39.8072 26.872C39.9883 27.8293 40.278 30.9599 40.0245 31.5187C39.7709 32.0776 39.1655 34.8097 38.9171 36.7191C38.6688 38.6285 37.1682 40.4965 34.3687 42.4628C31.5693 44.4292 28.594 42.1265 26.2551 40.7759C23.9162 39.4254 22.9693 37.0555 22.3845 35.1512Z" fill="#FFC9BA"/>
<path d="M29.1993 37.4382C29.9569 36.78 30.6948 37.1226 30.969 37.3761L32.2161 37.8108C32.3799 38.0178 32.5804 38.5011 32.0712 38.7784C27.0674 41.8107 26.9846 37.2519 26.9846 36.3774C27.2226 37.2002 28.2524 38.261 29.1993 37.4382Z" fill="#603A4C"/>
<path d="M34.0169 36.3826C33.1766 36.4033 32.6801 37.1088 32.537 37.4589C32.537 37.5986 32.5608 37.9991 32.656 38.4835C36.0557 39.7616 36.3817 36.2118 36.4645 35.1045C35.9522 36.3102 35.0673 36.3567 34.0169 36.3826Z" fill="#603A4C"/>
<path d="M34.1307 24.5174C34.5571 23.8923 35.8987 23.9016 36.5162 23.9844C37.2251 23.8602 37.6391 23.8861 38.3066 24.4036C38.9741 24.921 38.7671 25.4385 38.4618 25.8007C38.1565 26.1629 37.2872 25.8835 36.7542 25.692C36.2212 25.5006 35.5692 25.6765 34.9121 25.692C34.2549 25.7075 33.5978 25.2988 34.1307 24.5174Z" fill="#603A4C"/>
<path d="M25.3547 26.7736C26.0874 26.0906 27.3193 25.875 27.8436 25.8525C28.4232 25.8525 29.6651 26.0492 30.3067 25.3713C30.9483 24.6935 29.5253 24.1863 27.678 23.9845C25.8307 23.7827 24.9769 24.5227 24.801 24.8435C24.6603 25.1002 24.1318 25.7542 23.8851 26.0492C23.7282 26.1647 23.3718 26.4714 23.2021 26.7736C22.6381 27.6947 23.0365 28.3415 23.4142 28.3415C23.792 28.3415 24.4388 27.6274 25.3547 26.7736Z" fill="#603A4C"/>
<path d="M19.6059 24.8853C19.697 23.8587 19.047 23.5676 18.7107 23.5503L20.5787 21.7392L23.9214 20.5594L32.8941 19.9902C35.4796 20.2766 40.7345 20.9796 41.0698 21.5012C41.489 22.1532 41.1164 25.3562 39.9263 23.8504C38.9741 22.6458 35.9936 22.255 34.6224 22.2101C34.3619 22.524 33.6702 23.184 32.9872 23.3123C32.1334 23.4727 31.885 22.3239 31.5539 22.2101C31.2072 22.6448 29.6703 22.4999 29.5255 22.4326C29.1891 22.7276 28.1128 22.9552 27.6523 22.3239C27.1917 21.6927 26.4984 21.5219 26.162 21.5219C25.955 21.91 25.4945 22.3757 24.8425 22.6965C24.1905 23.0173 23.2281 23.9384 22.633 25.201C22.1569 26.211 21.4687 26.3428 21.1841 26.2825C21.103 26.436 20.8116 26.7285 20.2941 26.6705C19.6473 26.5981 19.492 26.1686 19.6059 24.8853Z" fill="#603A4C"/>
<path d="M33.6235 27.2756C33.9633 26.6546 35.1635 25.6849 37.2457 26.7736C36.8731 27.4204 35.3156 28.0724 33.6235 27.2756Z" fill="#FFF3F1"/>
<path d="M31.59 53.8883C31.4906 52.3483 30.4757 49.9384 29.9807 48.9259C31.4555 48.5154 34.4256 47.7627 34.5084 48.0359C34.6119 48.3774 34.7258 51.9323 34.5964 52.6981C34.2497 53.1069 33.1682 53.6864 31.59 53.8883Z" fill="#E9717B"/>
<path d="M33.7425 45.4331C32.4468 46.3811 31.4847 46.111 31.1656 45.8574C30.843 46.5318 30.1276 48.0949 29.8461 48.9518C31.1749 49.4692 33.7218 48.6465 34.8291 48.1704C34.7291 47.7616 34.3717 46.6419 33.7425 45.4331Z" fill="#FF808A"/>
<path d="M19.5436 23.8346C20.2474 23.5448 21.1891 22.334 21.572 21.7648L22.2913 20.5953L29.7323 19.4414C33.3769 20.0451 40.8637 21.2339 41.6544 21.1593C42.445 21.0848 43.412 19.983 43.7966 19.4414C44.1019 19.1361 44.5842 18.0495 44.0709 16.1452C43.4292 13.7649 41.0852 13.3613 40.3711 13.2889C39.657 13.2164 33.9857 12.0263 32.868 11.5709C31.7503 11.1156 29.7581 10.9086 28.7129 11.038C27.6676 11.1673 20.5475 13.7649 18.0585 14.9551C15.5696 16.1452 14.8038 18.6342 15.166 20.5953C15.5282 22.5565 18.6639 24.1968 19.5436 23.8346Z" fill="#FF6F7B"/>
<path d="M21.3962 21.9924C19.1815 22.8824 19.5972 21.6215 20.0819 20.8798C20.5786 20.1502 22.8606 19.4206 24.0093 19.3741C25.1581 19.3275 27.5073 18.8462 28.9872 18.5772C30.4671 18.3081 35.9521 18.7997 37.7684 19.0015C39.5846 19.2033 42.3892 20.4348 41.7476 21.3197C41.106 22.2045 37.7684 21.211 35.7348 20.9212C33.7137 20.6332 29.2649 20.6775 27.6762 20.6933L27.647 20.6936C26.0843 20.7091 24.1646 20.8798 21.3962 21.9924Z" fill="#E3616C"/>
<path d="M32.3611 26.2822C34.1411 29.2628 34.3129 41.1797 31.647 38.344C29.6444 36.1242 32.3611 31.7721 32.3611 26.2822Z" fill="#E7B6A9"/>
<path d="M31.3261 45.9502C28.1303 43.9838 23.6833 41.5156 23.6833 38.147C21.6135 41.1855 26.2671 48.465 28.8527 51.7249L31.3261 45.9502Z" fill="#FF6F7B"/>
<path d="M35.8849 51.4043L33.458 45.6036C35.7917 44.1496 36.5748 41.8383 36.542 40.7861C37.6307 47.9228 37.4113 48.6876 35.8849 51.4043Z" fill="#E25F6A"/>
<path d="M25.0648 28.4039C25.4253 27.5121 26.671 25.9749 28.7698 26.9602C28.5783 27.4 26.9535 28.5643 25.0648 28.4039Z" fill="#FFF3F1"/>
<mask id="mask0" mask-type="alpha" maskUnits="userSpaceOnUse" x="26" y="26" width="3" height="3">
<path d="M28.2784 27.4618C28.2784 27.9019 27.7561 28.1241 27.316 28.1241C26.8759 28.1241 26.3535 27.995 26.3535 27.5549C26.3535 27.1148 26.4674 26.3182 27.316 26.5304C27.7561 26.5304 28.2784 27.0217 28.2784 27.4618Z" fill="#2C1E25"/>
</mask>
<g mask="url(#mask0)">
<path d="M25.0649 28.4034C25.4254 27.5116 26.6711 25.9744 28.7699 26.9597C28.5784 27.3995 26.9536 28.5638 25.0649 28.4034Z" fill="#2C1E25"/>
</g>
<mask id="mask1" mask-type="alpha" maskUnits="userSpaceOnUse" x="34" y="26" width="3" height="2">
<path d="M36.0194 27.0791C36.0194 27.5192 35.4815 27.876 35.0414 27.876C34.6013 27.876 34.1772 27.5192 34.1772 27.0791C34.1772 26.639 34.6013 26.2822 35.0414 26.2822C35.4815 26.2822 36.0194 26.639 36.0194 27.0791Z" fill="#2C1E25"/>
</mask>
<g mask="url(#mask1)">
<path d="M33.6235 27.2756C33.9633 26.6546 35.1635 25.6849 37.2457 26.7736C36.8731 27.4204 35.3156 28.0724 33.6235 27.2756Z" fill="#2C1E25"/>
</g>
</g>
<defs>
<clipPath id="clip0">
<rect width="60" height="60" fill="white"/>
</clipPath>
</defs>
</svg>
