<svg width="725" height="725" fill="none" xmlns="http://www.w3.org/2000/svg"><g clip-path="url(#clip0)"><path d="M362.214 724.31c199.904 0 361.959-162.055 361.959-361.96C724.173 162.445 562.118.39 362.214.39 162.309.39.254 162.446.254 362.35c0 199.905 162.055 361.96 361.96 361.96z" fill="#2C1E25"/><path d="M362.213 362.35s225.589-12.434 341.452 60.797c0 0-42.631 213.801-283.157 283.157 0 .081-92.448-229.787-58.295-343.954z" fill="#5C404E"/><path d="M362.213 362.351s-225.589 12.434-341.451-60.798c0 0 42.63-213.8 283.157-283.156.08 0 92.528 229.868 58.294 343.954z" fill="#5C404E"/><path d="M362.215 689.511c181.087 0 327.887-146.8 327.887-327.888 0-181.087-146.8-327.887-327.887-327.887S34.328 180.536 34.328 361.623c0 181.088 146.8 327.888 327.887 327.888z" stroke="#2C1E25" stroke-miterlimit="10"/><path d="M362.215 681.437c176.628 0 319.814-143.186 319.814-319.813 0-176.628-143.186-319.814-319.814-319.814-176.627 0-319.813 143.186-319.813 319.814 0 176.627 143.186 319.813 319.813 319.813z" stroke="#2C1E25" stroke-miterlimit="10"/><path d="M362.215 671.183c170.965 0 309.559-138.595 309.559-309.559 0-170.965-138.594-309.56-309.559-309.56-170.964 0-309.559 138.595-309.559 309.56 0 170.964 138.595 309.559 309.559 309.559z" stroke="#2C1E25" stroke-miterlimit="10"/><path d="M362.215 662.382c166.105 0 300.759-134.654 300.759-300.758 0-166.105-134.654-300.759-300.759-300.759-166.104 0-300.758 134.654-300.758 300.759 0 166.104 134.654 300.758 300.758 300.758z" stroke="#2C1E25" stroke-miterlimit="10"/><path d="M362.212 651.079c159.862 0 289.455-129.593 289.455-289.454 0-159.862-129.593-289.455-289.455-289.455-159.861 0-289.454 129.593-289.454 289.455 0 159.861 129.593 289.454 289.454 289.454z" stroke="#2C1E25" stroke-miterlimit="10"/><path d="M362.212 639.371c153.396 0 277.747-124.351 277.747-277.747 0-153.395-124.351-277.747-277.747-277.747-153.395 0-277.747 124.352-277.747 277.747 0 153.396 124.352 277.747 277.747 277.747z" stroke="#2C1E25" stroke-miterlimit="10"/><path d="M362.214 624.596c145.235 0 262.972-117.737 262.972-262.972 0-145.235-117.737-262.972-262.972-262.972-145.235 0-262.972 117.737-262.972 262.972 0 145.235 117.737 262.972 262.972 262.972z" stroke="#2C1E25" stroke-miterlimit="10"/><path d="M362.212 612.001c138.279 0 250.377-112.098 250.377-250.377S500.491 111.248 362.212 111.248 111.836 223.345 111.836 361.624s112.097 250.377 250.376 250.377z" stroke="#2C1E25" stroke-miterlimit="10"/><path d="M362.215 596.417c129.673 0 234.794-105.121 234.794-234.794 0-129.672-105.121-234.793-234.794-234.793S127.422 231.951 127.422 361.623c0 129.673 105.12 234.794 234.793 234.794z" stroke="#2C1E25" stroke-miterlimit="10"/><path d="M362.212 574.86c117.767 0 213.236-95.469 213.236-213.236s-95.469-213.235-213.236-213.235-213.235 95.468-213.235 213.235c0 117.767 95.468 213.236 213.235 213.236z" stroke="#2C1E25" stroke-miterlimit="10"/><path d="M362.212 546.762c102.249 0 185.138-82.889 185.138-185.138 0-102.249-82.889-185.138-185.138-185.138-102.249 0-185.138 82.889-185.138 185.138 0 102.249 82.889 185.138 185.138 185.138z" stroke="#2C1E25" stroke-miterlimit="10"/><path d="M362.212 508.168c80.934 0 146.544-65.61 146.544-146.544 0-80.934-65.61-146.544-146.544-146.544-80.934 0-146.544 65.61-146.544 146.544 0 80.934 65.61 146.544 146.544 146.544z" stroke="#2C1E25" stroke-miterlimit="10"/><path d="M362.213 476.84c63.632 0 115.216-51.585 115.216-115.217s-51.584-115.217-115.216-115.217c-63.633 0-115.217 51.585-115.217 115.217S298.58 476.84 362.213 476.84z" stroke="#2C1E25" stroke-miterlimit="10"/><path d="M362.212 696.051c184.699 0 334.427-149.728 334.427-334.427S546.911 27.197 362.212 27.197 27.785 176.925 27.785 361.624s149.728 334.427 334.427 334.427z" stroke="#2C1E25" stroke-miterlimit="10"/><path d="M362.214 474.58c61.982 0 112.229-50.247 112.229-112.23 0-61.982-50.247-112.229-112.229-112.229-61.983 0-112.23 50.247-112.23 112.229 0 61.983 50.247 112.23 112.23 112.23z" fill="#F87980"/><path d="M362.457 372.362c5.931 0 10.739-4.808 10.739-10.739 0-5.93-4.808-10.738-10.739-10.738-5.93 0-10.738 4.808-10.738 10.738 0 5.931 4.808 10.739 10.738 10.739z" fill="#5C404E"/><path d="M390.313 467.394c-62.009 0-112.23-50.22-112.23-112.229 0-47.233 29.148-87.603 70.487-104.155-55.55 6.782-98.504 54.015-98.504 111.341 0 62.009 50.221 112.229 112.23 112.229 14.775 0 28.824-2.826 41.743-7.993-4.522.565-9.124.807-13.726.807z" fill="#A75155"/></g><defs><clipPath id="clip0"><path fill="#fff" transform="translate(.254 .39)" d="M0 0h724v724H0z"/></clipPath></defs></svg>