<svg width="3397" height="953" fill="none" xmlns="http://www.w3.org/2000/svg"><g clip-path="url(#clip0)"><path d="M2923.3 0l139 20.6 129.5 62.3 118.6 115.8 71.3 147.5 15.3 180.9-41.7 150.3-101.1 141.7-126.8 87.9-135.6 45.8H476.4l-140.5-21-157.1-83.3L59 706.2l-59-181 12.8-159L100 184.3 229.7 68.8l128.3-54L476.4 0h2446.9z" fill="#2E5A9C"/><path d="M476.399 78.3H2923.3l156.1 31.701 128.5 88 77.7 113.2 35.8 135.4-15.2 139.2-39.9 92.9-96.8 110.6-125.2 66.5-121 18.8H476.399l-141.2-25.8-130.1-81-92.8-130-32.6-126.8 7.2-117.6 49.9-124.9 87-99.9 112.3-64.9 140.3-25.4z" fill="#F87980"/><path d="M263.199 794.301l-92.8-130-32.5-126.8 7.1-117.6 49.9-124.9 87.1-99.9 112.2-65 140.3-25.4H2981.4l128.4 26.2-30.4-20.9-156.1-31.7H476.399l-140.3 25.4-112.3 64.9-87 99.9-49.9 124.9-7.2 117.6 32.6 126.8 92.8 130 130.1 81 22.1 4-94.1-58.5z" fill="#A75155"/><path d="M2744.1 9.7l-26.4 26.4 39 29.2 26.3-33.8-38.9-21.8zM2896 37.5l27.1-23.5 31.4 27.1-26.5 24.2-32-27.8zM2579 9.7l-41 29.9 48.1 26.7 27-22.3L2579 9.7zM2219.5 9.7l-26.3 26.4 38.9 29.2 26.4-33.8-39-21.8zM2371.4 37.5l27.1-23.5 31.5 27.1-26.5 24.2-32.1-27.8zM2054.5 9.7l-41.1 29.9 48.1 26.7 27-22.3-34-34.3zM1695 9.7l-26.4 26.4 39 29.2 26.3-33.8L1695 9.7zM1846.8 37.5L1874 14l31.4 27.1-26.5 24.2-32.1-27.8zM1529.9 9.7l-41 29.9 48.1 26.7 27-22.3-34.1-34.3zM1170.4 9.7l-26.3 26.4 38.9 29.2 26.4-33.8-39-21.8zM1322.3 37.5l27.1-23.5 31.4 27.1-26.5 24.2-32-27.8zM1005.4 9.7l-41.099 29.9 48.099 26.7 27-22.3-34-34.3zM645.9 9.7l-26.4 26.4 39 29.2 26.3-33.8-38.9-21.8zM797.699 37.5l27.1-23.5 31.5 27.1-26.5 24.2-32.1-27.8zM480.801 9.7l-41 29.9 48.1 26.7 26.9-22.3-34-34.3zM650.199 887.6l26.3 26.3-38.9 29.2-26.4-33.8 39-21.7zM498.301 915.301l-27.1-23.5-31.4 27.1 26.5 24.2 32-27.8zM815.199 887.6l41.1 29.9-48.1 26.6-27-22.3 34-34.2zM1174.7 887.6l26.4 26.3-39 29.2-26.3-33.8 38.9-21.7zM1022.9 915.301l-27.199-23.5-31.4 27.1 26.5 24.2 32.099-27.8zM1339.8 887.6l41 29.9-48.1 26.6-27-22.3 34.1-34.2zM1699.3 887.6l26.3 26.3-38.9 29.2-26.4-33.8 39-21.7zM1547.4 915.301l-27.1-23.5-31.4 27.1 26.5 24.2 32-27.8zM1864.3 887.6l41.1 29.9-48.1 26.6-27-22.3 34-34.2zM2223.9 887.6l26.3 26.3-38.9 29.2-26.4-33.8 39-21.7zM2072 915.301l-27.1-23.5-31.5 27.1 26.5 24.2 32.1-27.8zM2388.9 887.6l41.1 29.9-48.2 26.6-26.9-22.3 34-34.2zM2748.4 887.6l26.4 26.3-39 29.2-26.3-33.8 38.9-21.7zM2596.5 915.301l-27.1-23.5-31.4 27.1 26.5 24.2 32-27.8zM2913.4 887.6l41.1 29.9-48.1 26.6-27-22.3 34-34.2zM3081.4 53.7l10.7 29.8L3046 92l-5.7-38.3h41.1zM3210.3 118.1V155l-41.9-4.2-2.8-27.7 44.7-5zM3298.9 221.199l-6 32.3-39.1-16.1 25.6-35.7 19.5 19.5zM3349.1 336.9l-15.7 24.9-34.5-21 12.4-25.3 37.8 21.4zM3081.4 902.4l10.7-29.8-46.1-8.5-5.7 38.3h41.1zM3210.3 838v-36.9l-41.9 4.3-2.8 27.6 44.7 5zM3298.9 734.9l-6-32.3-39.1 16.2 25.6 35.6 19.5-19.5zM3349.1 619.301l-15.7-25-34.5 21 12.4 25.3 37.8-21.3zM3378.1 457.9l-29-30.4-25.1 36.9 37.5 27.6 16.6-34.1zM310.302 53.7l-10.7 29.8 46.2 8.5 5.6-38.3h-41.1zM181.398 118.1V155l41.9-4.2 2.8-27.7-44.7-5zM92.8 221.199l6 32.3 39.101-16.1-25.6-35.7-19.5 19.5zM42.602 336.9l15.8 24.9 34.4-21-12.4-25.3-37.8 21.4zM310.302 902.4l-10.7-29.8 46.2-8.5 5.6 38.3h-41.1zM181.398 838v-36.9l41.9 4.3 2.8 27.6-44.7 5zM92.8 734.9l6-32.3 39.101 16.2-25.6 35.6-19.5-19.5zM42.602 619.301l15.8-25 34.4 21-12.4 25.3-37.8-21.3zM13.602 457.9l29-30.4 25.1 36.9-37.5 27.6-16.6-34.1z" fill="#3F7AD3"/><path d="M3041.5 299.1l34.9 15.7 15.8 42.3-17.2 44.4-52.8 6-34.5-26.4V333l31.9-33.9h21.9z" fill="#FFF1F0"/><path d="M3106.3 476.399l15.1-37.8 38.2-6.9 24.8 11.7 18.5 35.3-23 43.4h-54.8l-18.8-45.7z" fill="#FACABC"/><path d="M3046.8 546.1l-53 27.8v68.3l47.7 21.6 44.1-20.5 18.1-53.8-23-36.6-33.9-6.8z" fill="#3F7AD3"/><path d="M275.999 623.201l34.9-15.8 15.8-42.2-17.2-44.4-52.8-6-34.5 26.4v48l31.9 34h21.9z" fill="#FACABC"/><path d="M935.798 846.999l37.8 6.3 36.602-26.4 10.3-46.5-40.602-34.2-43.3 2.8-26.7 40 7.7 45.9 18.2 12.1z" fill="#5C404E"/><path d="M1263.4 802.501l1.4 28.8 25.2 22.6 35.7.2 18.8-35.2-8.9-31.4-33.6-13.2-32.6 12.9-6 15.3z" fill="#3F7AD3"/><path d="M340.801 445.9l15.1 37.8 38.2 6.9 24.8-11.8 18.5-35.2-23-43.5h-54.8l-18.8 45.8zM1190.7 698.001l-21.3 34.7 17.2 34.7 24.2 12.9 39.4-6.1 21.1-44.4-32.7-44-47.9 12.2z" fill="#5C404E"/><path d="M999.898 689.3l-12.5 38.8 25.002 29.6 26.6 6.7 36.7-15.2 10.1-48.2-42.3-35-43.602 23.3z" fill="#FACABC"/><path d="M281.301 376.1l-53-27.7V280l47.7-21.6 44.1 20.6 18.1 53.8-23 36.5-33.9 6.8z" fill="#3F7AD3"/><path d="M1088.5 843l-20.1-56.3 46.5-50.2 49.6 16.4 18.4 45.1-23.2 51.8L1118 861l-29.5-18zM2075.4 691.001l37.8-6.2 36.6 26.4 10.2 46.5-40.5 34.2-43.3-2.8-26.7-40 7.7-45.9 18.2-12.2z" fill="#FFF1F0"/><path d="M2403 735.6l1.3-28.8 25.2-22.7 35.8-.1 18.7 35.2-8.9 31.3-33.6 13.3-32.5-12.9-6-15.3z" fill="#5C404E"/><path d="M2330.3 840.101l-21.4-34.8 17.3-34.7 24.2-12.8 39.3 6.1 21.2 44.4-32.7 44-47.9-12.2z" fill="#3F7AD3"/><path d="M2139.5 848.8L2127 810l25-29.6 26.5-6.8 36.8 15.3 10 48.2-42.2 34.9-43.6-23.2z" fill="#5C404E"/><path d="M2228.1 695.1l-20.1 56.3 46.4 50.2 49.7-16.5 18.4-45-23.2-51.8-41.7-11.3-29.5 18.1z" fill="#FACABC"/><path d="M923.498 803.399l26.7-40 43.3-2.8 26.402 22.3.6-2.5-40.602-34.2-43.3 2.8-26.7 40 7.7 45.9 12.6 8.4-6.7-39.9z" fill="#2C1E25"/><path d="M1005.2 737.9l12.5-38.8 40-21.3-14.2-11.8-43.602 23.3-12.5 38.8 25.002 29.6 12 3-19.2-22.8z" fill="#BE988D"/><path d="M1111.4 852.7l-20-56.3 46.4-50.2 27.7 9.2-1-2.5-49.6-16.4-46.5 50.2 20.1 56.3 29.5 18 4.9-1.3-11.5-7z" fill="#CBBEBD"/><path d="M1185.6 745.901l21.4-34.8 42.4-10.8-10.8-14.5-47.9 12.2-21.3 34.7 17.2 34.7 13.2 7-14.2-28.5z" fill="#2C1E25"/><path d="M1284.4 837.301l-1.3-28.8 6-15.3 30.3-12-17.4-6.9-32.6 12.9-6 15.3 1.4 28.8 25.2 22.6 13 .1-18.6-16.7z" fill="#2E5A9C"/><path d="M2071.7 768.501l7.7-45.9 18.2-12.1 37.8-6.3 15.3 11-.9-4-36.6-26.4-37.8 6.2-18.2 12.2-7.7 45.9 26.7 40 9.6.6-14.1-21.2z" fill="#CBBEBD"/><path d="M2423.1 744.8l1.4-28.8 25.2-22.7 20.5-.1-4.9-9.2-35.8.1-25.2 22.7-1.3 28.8 6 15.3 19.6 7.8-5.5-13.9z" fill="#2C1E25"/><path d="M2331.1 823.101l17.2-34.7 24.3-12.8 24.5 3.8-7.4-15.5-39.3-6.1-24.2 12.8-17.3 34.7 21.4 34.8 13.3 3.4-12.5-20.4z" fill="#2E5A9C"/><path d="M2147 823.6l25-29.6 26.6-6.8 17.9 7.5-1.2-5.8-36.8-15.3-26.5 6.8-25 29.6 12.5 38.8 18.9 10.1-11.4-35.3z" fill="#2C1E25"/><path d="M2232.6 760.2l20.1-56.4 29.5-18 18.2 4.9-1.1-2.4-41.7-11.3-29.5 18.1-20.1 56.3 46.4 50.2 12.7-4.2-34.5-37.2z" fill="#BE988D"/><path d="M3020.5 401.6v-48.1l31.9-34h21.8l4.8 2.2-2.6-6.9-34.9-15.7h-21.9l-31.9 33.9v48.1l34.5 26.4 5.3-.6-7-5.3z" fill="#CBBEBD"/><path d="M3117.3 491.499l15.1-37.8 38.1-6.9 20.8 9.9-6.9-13.3-24.8-11.7-38.2 6.9-15.1 37.8 18.8 45.7h4.8l-12.6-30.6z" fill="#BE988D"/><path d="M3025.8 654.7v-68.3l53-27.8 6.3 1.3-4.4-7-33.9-6.8-53 27.8v68.3l47.7 21.6 2.2-1-17.9-8.1z" fill="#2E5A9C"/><path d="M230.999 558.601l34.5-26.4 50.7 5.8-6.7-17.2-52.8-6-34.5 26.4v48l8.8 9.4v-40z" fill="#BE988D"/><path d="M354.601 458.1l18.8-45.7h47.5l-6.5-12.3h-54.8l-18.8 45.8 15.1 37.8 9.6 1.7-10.9-27.3z" fill="#2C1E25"/><path d="M244.701 301.4l47.7-21.6 33.2 15.5-5.5-16.3-44.1-20.6-47.7 21.6v68.4l16.4 8.6v-55.6z" fill="#2E5A9C"/></g><defs><clipPath id="clip0"><path fill="#fff" d="M0 0h3397v952.8H0z"/></clipPath></defs></svg>