<svg width="210" height="288" fill="none" xmlns="http://www.w3.org/2000/svg"><path d="M12.453 21.096l196.868 12.351-8.521 246.944-180.112 7.219-8.235-266.514z" fill="#2E5A9C"/><path d="M.234.018L197.102 12.37l-8.521 260.449-180.112 7.219L.234.018z" fill="#F87980"/><path d="M43.048 63l-1.872-23.292h-8.208l-.828 3.564-2.268 8.208h-.432l-2.052-8.46-.684-3.312h-8.316L16.12 63h6.012l.36-7.74.504-5.184h.432l3.096 10.728h5.436l3.744-10.728h.432l.396 5.868.18 7.056h6.336zm13.811-23.688c-7.703 0-12.06 4.5-12.06 12.24 0 7.668 3.852 11.844 11.665 11.844 1.584 0 3.312-.144 5.004-.684l.575-5.688-.575-.36c-1.297.468-3.133.756-4.429.756-3.168 0-4.608-2.052-4.608-6.696 0-3.996 1.26-5.544 4.14-5.544 1.369 0 3.169.432 4.428 1.116l.468-.288 1.224-5.724c-1.727-.612-3.672-.972-5.832-.972zm21.22 16.02l.396-15.624H68.071l-.288 4.716.396.468 3.06-.108.252 11.268v2.268c0 2.088-.828 3.24-3.312 4.428v.576l1.872 3.708c6.156-1.8 8.1-4.068 8.1-8.496l-.072-3.204zM92.85 39.276c-7.416 0-11.664 4.536-11.664 12.492 0 7.416 3.852 11.664 10.62 11.664 7.416 0 11.664-4.608 11.664-12.672 0-7.308-3.852-11.484-10.62-11.484zm-.648 5.76c2.916 0 3.708 1.476 3.708 7.272 0 4.608-.756 5.796-3.456 5.796-2.916 0-3.708-1.476-3.708-7.308 0-4.572.756-5.76 3.456-5.76zm34.896 10.404l.396-15.732h-7.344l.18 8.82-3.312.072-3.636-.072.216-8.82h-7.344l.36 16.452-.36 6.84h7.236l-.288-7.56.036-1.044 3.348-.108 3.888.072.036 1.8-.36 6.84h7.236l-.288-7.56zM151.9 63l-6.372-23.292h-8.712L129.76 63h7.056l.612-3.888 2.952-.144 3.528.072.036.108.648 3.852h7.308zm-9.072-9.216l-2.016.036-2.016-.036 2.016-7.632h.432l1.584 7.632zm32.434 1.62l.396-15.84-6.624.396.216 12.204h-.432l-6.552-12.456h-7.848l.36 16.452-.36 6.84h6.552l-.288-8.424.036-4.032h.432L167.702 63h7.848l-.288-7.596z" fill="#2C1E25"/><g clip-path="url(#clip0)"><path d="M41.706 182.256l-20.503-1.531 1.01-69.469h20.502l-1.01 71zM64.28 179.194l-19.493 2.552-1.01-70.49H65.29l-1.01 67.938zM87.91 181.236l-20.502-2.042-1.01-67.938h21.513v69.98zM109.475 179.194l-20.502 1.021v-68.959h21.512l-1.01 67.938zM131.591 179.194l-19.997 1.531v-69.469h21.512l-1.515 67.938zM155.68 180.725l-20.502-1.021-1.01-68.448h21.512v69.469zM177.194 179.194l-20.503 1.531v-69.469h21.513l-1.01 67.938z" fill="#FFF1F0"/><path d="M49.03 149.283l-12.827-1.021v-37.006H50.04l-1.01 38.027zM72.813 148.262l-12.827 1.531-1.01-38.537h13.837v37.006zM117.958 148.262l-12.322 1.021-1.515-38.027h13.837v37.006zM139.064 149.793l-12.322-1.531v-37.006h13.837l-1.515 38.537zM163.106 148.262l-12.826 1.531-1.01-38.537h13.836v37.006z" fill="#2C1E25"/></g><path d="M46.034 241.867c2.08 0 3.783.468 5.109 1.404 1.326.91 1.989 2.197 1.989 3.861 0 1.066-.325 2.197-.975 3.393-.624 1.17-1.69 2.509-3.198 4.017l-1.716 1.716.117.195h3.003l3.783-.39.39.468-.858 6.006-5.616-.312h-8.97l-1.404.117-.351-.273v-4.602l4.992-4.29c1.066-.962 1.859-1.755 2.379-2.379.546-.624.819-1.157.819-1.599 0-.598-.455-.897-1.365-.897-.702 0-1.495.182-2.38.546a10.6 10.6 0 00-2.534 1.404h-.82l-1.286-5.928c3.224-1.638 6.188-2.457 8.892-2.457zm24.609 1.131l-.117 4.524h2.652l4.524-.117.429.546-.468 5.694-5.031-.117H70.37v.507l.312 8.19h-7.84l.39-7.41-.39-17.823h16.849l.429.546-.507 5.694-6.24-.234h-2.73zm21.944.78c.338 0 .637.026.897.078v6.825l-.74.234c-.339-.208-.807-.312-1.405-.312-.572 0-1.183.13-1.833.39a6.578 6.578 0 00-1.755 1.092v1.95l.312 8.19h-7.605l.351-7.41-.273-10.569 7.215-.507v3.432h.351c1.118-2.262 2.613-3.393 4.485-3.393zm10.656-.429c2.392 0 4.238.494 5.538 1.482 1.3.962 1.95 2.353 1.95 4.173 0 .52-.052 1.898-.156 4.134-.104 1.976-.156 3.081-.156 3.315 0 .286.039.494.117.624a.52.52 0 00.429.195c.182 0 .403-.039.663-.117l.468.39-.663 3.9c-.962.676-2.171 1.066-3.627 1.17a3.626 3.626 0 01-2.028-.78c-.572-.468-1.014-1.131-1.326-1.989h-.273c-1.144 1.326-2.444 2.262-3.9 2.808-1.976-.026-3.562-.572-4.758-1.638-1.17-1.092-1.755-2.574-1.755-4.446 0-2.886 1.495-4.537 4.485-4.953l5.538-.741v-.468c0-.676-.143-1.157-.429-1.443-.26-.286-.728-.429-1.404-.429-1.456 0-3.341.624-5.655 1.872l-.468-.312-.82-4.797a16.864 16.864 0 013.94-1.443 18.938 18.938 0 014.29-.507zm-1.677 11.154c-.364.052-.637.195-.819.429-.156.208-.234.533-.234.975 0 1.04.481 1.56 1.443 1.56.624 0 1.235-.208 1.833-.624v-2.652l-2.223.312zm23.358 7.722l.39-10.296c0-1.586-.611-2.379-1.833-2.379-.598 0-1.209.182-1.833.546v3.939l.312 8.19h-7.605l.351-7.41-.273-10.569 7.215-.507v2.73h.273c1.352-1.352 2.873-2.314 4.563-2.886 1.95 0 3.432.442 4.446 1.326 1.04.884 1.534 2.158 1.482 3.822l-.156 5.304.273 8.19h-7.605zm24.958-10.257c1.222 2.496 2.873 5.499 4.953 9.009l-.039.78c-1.69.338-4.069.65-7.137.936l-.78-.39a60.478 60.478 0 01-3.9-8.697v.429l.312 8.19h-7.605l.351-7.41-.273-19.461 7.566-.507-.312 16.692 2.964-5.538.819-2.184h7.761l-4.68 8.151z" fill="#2C1E25"/><path d="M6.438 210.672l193.258-13.591v11.573L6.75 221.893l-.313-11.221z" fill="#2E5A9C"/><path d="M19.895 209.721l-13.489.949.16 11.237 14.059-.963-.73-11.223z" fill="#3F7AD3"/><defs><clipPath id="clip0"><path fill="#fff" transform="translate(21.203 111.256)" d="M0 0h157v71H0z"/></clipPath></defs></svg>