<svg width="214" height="288" viewBox="0 0 214 288" fill="none" xmlns="http://www.w3.org/2000/svg">
<path d="M16.7031 21.4863L213.571 33.8374L205.05 280.781L24.9378 288L16.7031 21.4863Z" fill="#2E5A9C"/>
<path d="M4.48438 0.408203L201.352 12.7592L192.831 273.208L12.719 280.427L4.48438 0.408203Z" fill="#F87980"/>
<path d="M65.9743 45.5542C70.1163 45.5542 73.2893 46.5802 75.4933 48.6322C77.7353 50.6462 78.8563 53.5342 78.8563 57.2962C78.8563 60.2222 78.1723 62.8062 76.8043 65.0482C75.4363 67.2522 73.4983 68.9812 70.9903 70.2352C68.4823 71.4512 65.5943 72.0592 62.3263 72.0592H59.5333L59.9323 82.4902H48.4753L49.0453 71.6602L48.4753 45.6112L65.9743 45.5542ZM63.9223 64.0792C64.9483 63.5092 65.6893 62.7872 66.1453 61.9132C66.6393 61.0012 66.8863 59.8422 66.8863 58.4362C66.8863 56.7642 66.4873 55.5482 65.6893 54.7882C64.8913 53.9902 63.6373 53.5532 61.9273 53.4772L59.8753 53.6482L59.6473 63.8512L63.9223 64.0792ZM98.2804 44.9272C103.638 44.9272 107.78 46.5232 110.706 49.7152C113.632 52.8692 115.095 57.3342 115.095 63.1102C115.095 69.4942 113.48 74.4342 110.25 77.9302C107.058 81.4262 102.517 83.1742 96.6274 83.1742C91.2694 83.1742 87.1274 81.5782 84.2014 78.3862C81.2754 75.1562 79.8124 70.5962 79.8124 64.7062C79.8124 58.3982 81.4084 53.5342 84.6004 50.1142C87.8304 46.6562 92.3904 44.9272 98.2804 44.9272ZM97.2544 54.0472C95.7724 54.0472 94.6514 54.3132 93.8914 54.8452C93.1314 55.3392 92.5804 56.2322 92.2384 57.5242C91.9344 58.8162 91.7824 60.6972 91.7824 63.1672C91.7824 66.3212 91.9534 68.7152 92.2954 70.3492C92.6374 71.9832 93.2074 73.1232 94.0054 73.7692C94.8414 74.4152 96.0574 74.7382 97.6534 74.7382C99.1354 74.7382 100.256 74.4912 101.016 73.9972C101.776 73.4652 102.308 72.5532 102.612 71.2612C102.954 69.9312 103.125 68.0312 103.125 65.5612C103.125 62.4452 102.954 60.0702 102.612 58.4362C102.27 56.8022 101.681 55.6622 100.845 55.0162C100.047 54.3702 98.8504 54.0472 97.2544 54.0472ZM136.389 45.5542C140.531 45.5542 143.704 46.5802 145.908 48.6322C148.15 50.6462 149.271 53.5342 149.271 57.2962C149.271 60.2222 148.587 62.8062 147.219 65.0482C145.851 67.2522 143.913 68.9812 141.405 70.2352C138.897 71.4512 136.009 72.0592 132.741 72.0592H129.948L130.347 82.4902H118.89L119.46 71.6602L118.89 45.6112L136.389 45.5542ZM134.337 64.0792C135.363 63.5092 136.104 62.7872 136.56 61.9132C137.054 61.0012 137.301 59.8422 137.301 58.4362C137.301 56.7642 136.902 55.5482 136.104 54.7882C135.306 53.9902 134.052 53.5532 132.342 53.4772L130.29 53.6482L130.062 63.8512L134.337 64.0792Z" fill="#2C1E25"/>
<g clip-path="url(#clip0)">
<path d="M45.9555 182.646L25.4531 181.115L26.4631 111.646H46.9655L45.9555 182.646Z" fill="#FFF1F0"/>
<path d="M68.5298 179.584L49.0373 182.136L48.0273 111.646H69.5397L68.5298 179.584Z" fill="#FFF1F0"/>
<path d="M92.1608 181.626L71.6584 179.584L70.6484 111.646H92.1608V181.626Z" fill="#FFF1F0"/>
<path d="M113.725 179.584L93.2227 180.605V111.646H114.735L113.725 179.584Z" fill="#FFF1F0"/>
<path d="M135.841 179.584L115.844 181.115V111.646H137.356L135.841 179.584Z" fill="#FFF1F0"/>
<path d="M159.93 181.115L139.428 180.094L138.418 111.646H159.93V181.115Z" fill="#FFF1F0"/>
<path d="M181.444 179.584L160.941 181.115V111.646H182.454L181.444 179.584Z" fill="#FFF1F0"/>
<path d="M53.2798 149.673L40.4531 148.652V111.646H54.2897L53.2798 149.673Z" fill="#2C1E25"/>
<path d="M77.0632 148.652L64.2365 150.184L63.2266 111.646H77.0632V148.652Z" fill="#2C1E25"/>
<path d="M122.208 148.652L109.886 149.673L108.371 111.646H122.208V148.652Z" fill="#2C1E25"/>
<path d="M143.314 150.184L130.992 148.652V111.646H144.829L143.314 150.184Z" fill="#2C1E25"/>
<path d="M167.356 148.652L154.53 150.184L153.52 111.646H167.356V148.652Z" fill="#2C1E25"/>
</g>
<path d="M50.2838 242.257C52.3638 242.257 54.0668 242.725 55.3928 243.661C56.7188 244.571 57.3818 245.858 57.3818 247.522C57.3818 248.588 57.0568 249.719 56.4068 250.915C55.7828 252.085 54.7168 253.424 53.2088 254.932L51.4928 256.648L51.6098 256.843H54.6128L58.3958 256.453L58.7858 256.921L57.9278 262.927L52.3118 262.615H43.3418L41.9378 262.732L41.5868 262.459V257.857L46.5788 253.567C47.6448 252.605 48.4378 251.812 48.9578 251.188C49.5038 250.564 49.7768 250.031 49.7768 249.589C49.7768 248.991 49.3218 248.692 48.4118 248.692C47.7098 248.692 46.9168 248.874 46.0328 249.238C45.1488 249.576 44.3038 250.044 43.4978 250.642H42.6788L41.3918 244.714C44.6158 243.076 47.5798 242.257 50.2838 242.257ZM74.8928 243.388L74.7758 247.912H77.4278L81.9518 247.795L82.3808 248.341L81.9128 254.035L76.8818 253.918H74.6198V254.425L74.9318 262.615H67.0928L67.4828 255.205L67.0928 237.382H83.9408L84.3698 237.928L83.8628 243.622L77.6228 243.388H74.8928ZM96.8373 244.168C97.1753 244.168 97.4743 244.194 97.7343 244.246V251.071L96.9933 251.305C96.6553 251.097 96.1873 250.993 95.5893 250.993C95.0173 250.993 94.4063 251.123 93.7563 251.383C93.1323 251.643 92.5473 252.007 92.0013 252.475V254.425L92.3133 262.615H84.7083L85.0593 255.205L84.7863 244.636L92.0013 244.129V247.561H92.3523C93.4703 245.299 94.9653 244.168 96.8373 244.168ZM107.493 243.739C109.885 243.739 111.731 244.233 113.031 245.221C114.331 246.183 114.981 247.574 114.981 249.394C114.981 249.914 114.929 251.292 114.825 253.528C114.721 255.504 114.669 256.609 114.669 256.843C114.669 257.129 114.708 257.337 114.786 257.467C114.89 257.597 115.033 257.662 115.215 257.662C115.397 257.662 115.618 257.623 115.878 257.545L116.346 257.935L115.683 261.835C114.721 262.511 113.512 262.901 112.056 263.005C111.302 262.953 110.626 262.693 110.028 262.225C109.456 261.757 109.014 261.094 108.702 260.236H108.429C107.285 261.562 105.985 262.498 104.529 263.044C102.553 263.018 100.967 262.472 99.7706 261.406C98.6006 260.314 98.0156 258.832 98.0156 256.96C98.0156 254.074 99.5106 252.423 102.501 252.007L108.039 251.266V250.798C108.039 250.122 107.896 249.641 107.61 249.355C107.35 249.069 106.882 248.926 106.206 248.926C104.75 248.926 102.865 249.55 100.551 250.798L100.083 250.486L99.2636 245.689C100.46 245.065 101.773 244.584 103.203 244.246C104.659 243.908 106.089 243.739 107.493 243.739ZM105.816 254.893C105.452 254.945 105.179 255.088 104.997 255.322C104.841 255.53 104.763 255.855 104.763 256.297C104.763 257.337 105.244 257.857 106.206 257.857C106.83 257.857 107.441 257.649 108.039 257.233V254.581L105.816 254.893ZM129.174 262.615L129.564 252.319C129.564 250.733 128.953 249.94 127.731 249.94C127.133 249.94 126.522 250.122 125.898 250.486V254.425L126.21 262.615H118.605L118.956 255.205L118.683 244.636L125.898 244.129V246.859H126.171C127.523 245.507 129.044 244.545 130.734 243.973C132.684 243.973 134.166 244.415 135.18 245.299C136.22 246.183 136.714 247.457 136.662 249.121L136.506 254.425L136.779 262.615H129.174ZM154.132 252.358C155.354 254.854 157.005 257.857 159.085 261.367L159.046 262.147C157.356 262.485 154.977 262.797 151.909 263.083L151.129 262.693C149.595 259.885 148.295 256.986 147.229 253.996V254.425L147.541 262.615H139.936L140.287 255.205L140.014 235.744L147.58 235.237L147.268 251.929L150.232 246.391L151.051 244.207H158.812L154.132 252.358Z" fill="#2C1E25"/>
<path d="M10.6875 211.062L203.946 197.471V209.045L10.9997 222.283L10.6875 211.062Z" fill="#2E5A9C"/>
<path d="M24.1445 210.111L10.6562 211.061L10.8163 222.297L24.875 221.334L24.1445 210.111Z" fill="#3F7AD3"/>
<defs>
<clipPath id="clip0">
<rect width="157" height="71" fill="white" transform="translate(25.4531 111.646)"/>
</clipPath>
</defs>
</svg>
