<svg width="200" height="209" fill="none" xmlns="http://www.w3.org/2000/svg"><path fill-rule="evenodd" clip-rule="evenodd" d="M6.227 85.289l.083.052c.714-.917 2.402-3.135 3.421-4.885a4.737 4.737 0 014.601-5.725c3.096-2.616 7.57-4.639 12.533-1.865 2.357 1.322 5.524 4.088 9.02 7.379a408.937 408.937 0 013.985 3.817 38.854 38.854 0 01-1.19-5.302 37.325 37.325 0 01-.374-3.701c-.246-5.118 2.744-13.809 5.786-22.652 2.89-8.398 5.826-16.934 6.083-22.677.28-6.253 2.432-16.515 4.474-21.04l.029-.063c1.232-2.7 2.421-3.29 3.13.376l.014.067c.319 1.685.539 4.246.62 7.885.118 5.372-.003 10.202-.142 14.264-.03.895-.063 1.753-.093 2.57-.082 2.234-.153 4.174-.166 5.768a774.798 774.798 0 012.389-5.685l.034-.082c.267-.626.538-1.262.815-1.904C67.614 17.139 76.294-1.262 76.08 10.933a41.812 41.812 0 01-.406 4.935c-.292 2.124-.724 4.316-1.243 6.52a89.28 89.28 0 014.09-5.247c7.843-9.25 12.792-9.86 6.027 9.792a114.726 114.726 0 00-2.82 9.41 84.746 84.746 0 00-1.014 4.548 302.52 302.52 0 013.673-2.794c11.932-8.93 24.057-16.452 16.162-3.832-3.814 6.097-7.202 13.863-10.306 21.264l-.446 1.068-.78 1.868-.032.076-.974 2.334c.82-.388 1.683-.941 2.58-1.663l.023-.018.013-.01.029-.024.01-.008c.268-.218.538-.45.812-.698.435-.394.858-.772 1.269-1.136 21.659-19.174 10.773 2.236 7.433 7.78-.201.332-.375.608-.512.814-.546.819-2.66 3.841-5.623 8.053 2.851-2.453 5.559-4.69 7.965-6.49.142-.107.283-.212.423-.315 2.713-2.002 5.02-3.418 6.685-3.919 9.626-2.897 31.651-20.107 34.65-23.861.683-.855 2.443-3.54 4.77-7.091 7.887-12.034 22.289-34.01 23.379-28.386.222 1.165-.252 2.868-1.152 4.88-1.698 3.798-4.916 8.696-7.849 13.161-2.316 3.526-4.455 6.782-5.528 9.011l-.041.087c-.391.823-.631 1.502-.674 1.996-.066.761.335 1.086 1.371.83a647.477 647.477 0 016.642-10.761c2.757-4.362 5.323-8.26 7.309-10.975.236-.323.463-.628.682-.916a43.165 43.165 0 01.838-1.067c2.171-2.66 3.125-2.878 1.948 1.035a41.91 41.91 0 01-.271.857c-.162.493-.334.996-.515 1.508-.959 2.707-2.177 5.663-3.534 8.721l-.28.627-.001.002-.001.003a259.904 259.904 0 01-2.2 4.773c1.248-.863 2.5-1.747 3.727-2.612l.002-.002 1.156-.815c9.973-7.021 17.534-11.963 5.654 7.07a9549.287 9549.287 0 01-9.213 14.713 478.557 478.557 0 017.357-6.088c4.102-3.326 8.08-6.435 11.291-8.794l.011-.008c1.738-1.277 3.251-2.334 4.436-3.086 2.953-1.874 3.874-1.858 1.184 1.354-.809.965-1.945 2.22-3.45 3.8l-.191.201c-4.948 5.206-10.518 11.597-16.14 18.153a3251.77 3251.77 0 00-4.484 5.243 317.88 317.88 0 016.304-2.757c12.955-5.487 24.522-9.127 17.99-1.237-9.196 11.106-28.469 22.457-45.402 27.841-.327.334-.65.659-.966.974l-.631 1.194c-4.398 8.311-36.924 34.732-46.448 41.331l-.052.036c-1.36.941-2.242 1.468-2.49 1.468-.105 0-.101.069 0 .2.239.305 1.008.947 2.165 1.844l.197.153c1.527 1.176 3.669 2.758 6.131 4.576 10.103 7.46 25.606 18.908 26.183 22.733 0 0 12.979 13.833 6.149 13.681-2.74-.06-6.51-1.492-9.638-2.789-.537-.223-1.054-.441-1.545-.648-.47-.199-.916-.387-1.328-.558l-.004-.001-.006-.003c-2.891-1.195-4.171-1.534-1.263 1.303l.241.238c.42.414.88.873 1.369 1.369.264.268.538.546.818.834 3.718 3.814 8.686 9.219 11.313 12.803l.068.093c.196.269.379.527.546.773 1.371 2.021 1.721 3.226.187 2.797-.465-.13-1.103-.411-1.939-.865l-.23-.127a78.94 78.94 0 00-3.989-2.068c1.136 1.244 2.196 2.526 3.044 3.766.398.583.75 1.157 1.04 1.713 1.27 2.433 1.372 4.534-.876 5.61-1.555.745-3.557.318-5.762-.836-1.986-1.04-4.136-2.67-6.272-4.567a126.423 126.423 0 014.074 6.779c1.297 2.331 2.392 4.523 3.039 6.207l.092.245c1.052 2.858.694 4.11-2.406 1.791l-.206-.157c-1.033-.794-2.352-1.961-4-3.566a505.797 505.797 0 00-11.994-11.272l-14.048 3.321c-.221.186-.497.257-.824.195l-57.395 13.57-12.603-51.348 16.472-4.092a28.423 28.423 0 01-3.308-2.269c-2.26-1.808-4.163-3.969-5.484-6.562-3.067-6.022-5.358-14.211-7.552-22.055-3.195-11.422-6.185-22.111-11.07-24.307-2.462-1.106-4.68-1.518-6.587-1.6-.503.646-1.902.816-2.63.904-.126.016-.232.028-.31.04-.21.038-.612.233-1.1.47a48.999 48.999 0 01-.887.42c-.368.164-.748.319-1.109.429-.607.185-1.161.245-1.515.017-.43-.283-.45-.654-.249-1.01-.23-.413-.366-1.146-.28-2.14.1-1.158.151-1.612.429-2.065.277-.454 2.772-4.334 2.772-4.334zM.19 93.996c-.203-.843-.226-1.738-.154-2.567l.018-.209c.076-.915.172-2.069.84-3.162.16-.263.88-1.388 1.524-2.392.33-.514.65-1.014.89-1.385l.392-.612.002-.002 1.595-2.482.256.158c.369-.516.744-1.058 1.08-1.578a7.739 7.739 0 016.528-7.94c3.577-2.733 9.072-4.985 15.167-1.577l.003.002c1.914 1.073 4.11 2.84 6.349 4.822.216.192.434.386.654.584-.01-.148-.018-.296-.025-.446v-.007c-.148-3.081.663-6.937 1.767-10.882 1.121-4.002 2.652-8.454 4.16-12.836l.018-.054c1.45-4.216 2.88-8.375 3.983-12.19 1.113-3.852 1.828-7.142 1.94-9.646.278-6.186 2.263-15.982 4.333-21.186.498-1.251 1.14-2.609 1.977-3.542.398-.443 1.214-1.22 2.463-1.402 1.53-.224 2.687.553 3.33 1.314.568.672.892 1.475 1.1 2.136.222.711.395 1.54.534 2.46.278 1.844.455 4.322.525 7.513.055 2.486.06 4.856.035 7.087 1.774-3.943 3.601-7.805 5.284-10.985.97-1.832 1.921-3.491 2.81-4.833.828-1.247 1.807-2.541 2.887-3.323.526-.38 1.527-.974 2.824-.864 1.527.13 2.48 1.12 2.96 1.971.434.773.622 1.638.72 2.373.104.782.138 1.68.12 2.672-.006.376-.019.756-.037 1.138l.179-.178c1.092-1.079 2.18-2.015 3.224-2.703.958-.63 2.271-1.318 3.73-1.324a4.255 4.255 0 012.469.755c.77.536 1.256 1.256 1.554 1.948.552 1.285.6 2.805.489 4.24-.232 2.97-1.315 7.273-3.303 13.047a120.378 120.378 0 00-1.768 5.556c4.386-3.177 8.664-6.016 11.804-7.54 1.184-.574 2.441-1.082 3.601-1.269.948-.153 3.33-.285 4.545 1.926.505.918.543 1.863.478 2.55-.066.706-.263 1.405-.505 2.057-.485 1.303-1.316 2.86-2.447 4.667-2.772 4.432-5.33 9.814-7.75 15.365a56.963 56.963 0 011.937-1.46c2.047-1.47 3.843-2.508 5.389-2.974.783-.236 1.73-.397 2.714-.212a4.114 4.114 0 012.689 1.752c.574.85.749 1.771.796 2.475.047.724-.026 1.453-.142 2.118-.447 2.554-1.837 5.8-3.123 8.434l-.105.215c.969-.527 1.897-.942 2.756-1.2 2.033-.612 4.952-2.069 8.375-4.123 3.369-2.022 7.044-4.51 10.54-7.043 3.493-2.532 6.777-5.086 9.36-7.228 2.675-2.218 4.37-3.809 4.896-4.468.568-.71 2.211-3.21 4.605-6.862l.028-.043.012-.018c3.927-5.992 9.532-14.544 14.307-20.91 2.364-3.15 4.667-5.96 6.535-7.635.481-.43.991-.84 1.516-1.171.492-.312 1.181-.675 1.999-.812.912-.153 2.1-.028 3.1.84.885.767 1.206 1.764 1.336 2.436l.002.01a6.84 6.84 0 01.069 1.932 3.322 3.322 0 011.482.003c.902.21 1.579.768 1.992 1.412.645 1.006.576 2.1.55 2.467-.072 1.021-.43 2.344-.915 3.82-.628 1.914-1.398 3.958-2.263 6.077a78.733 78.733 0 012.262-1.471c1.092-.68 2.154-1.29 3.119-1.737.859-.398 2.042-.864 3.239-.85.664.007 1.573.164 2.397.807.858.669 1.251 1.571 1.395 2.35.244 1.329-.151 2.73-.553 3.832-.845 2.321-2.657 5.698-5.537 10.348 3.04-2.357 5.784-4.395 7.904-5.842 1.283-.874 2.454-1.613 3.369-2.067.397-.197 1.037-.492 1.729-.595a3.383 3.383 0 011.972.282 3.159 3.159 0 011.773 2.559 3.611 3.611 0 01-.238 1.622c-.127.332-.287.63-.431.87-.289.486-.679 1.017-1.122 1.572-.898 1.124-2.243 2.627-4.069 4.543-3.823 4.012-8.037 8.762-12.382 13.777 3.48-1.357 6.705-2.474 9.299-3.13 1.368-.345 2.691-.596 3.851-.657.971-.05 2.614-.027 3.911.99a3.9 3.9 0 011.452 2.445c.151.9-.02 1.72-.235 2.347-.417 1.214-1.267 2.454-2.279 3.675-9.549 11.533-28.99 22.978-46.093 28.558l-.143.145-.421.796c-.811 1.532-2.226 3.32-3.89 5.175-1.705 1.902-3.826 4.043-6.195 6.303-4.74 4.525-10.576 9.627-16.289 14.409-5.716 4.784-11.342 9.275-15.673 12.577a176.174 176.174 0 01-4.595 3.404c1.408 1.068 3.215 2.402 5.275 3.924l.181.133c5.01 3.7 11.386 8.412 16.603 12.69 2.635 2.161 5.041 4.264 6.847 6.107.9.919 1.707 1.83 2.33 2.695.391.545.83 1.231 1.122 2.006l.089.097c.355.394.853.953 1.428 1.624 1.141 1.33 2.622 3.141 3.9 4.979 1.189 1.71 2.52 3.881 2.912 5.831.198.985.298 2.631-.847 4.025-1.158 1.41-2.85 1.667-4.081 1.64-1.577-.035-3.288-.406-4.913-.887 2.064 2.241 4.135 4.586 5.792 6.64.918 1.136 1.744 2.227 2.383 3.19.56.843 1.234 1.958 1.469 3.038.106.484.319 1.825-.633 3.029a3.294 3.294 0 01-1.858 1.182c.371 1.153.574 2.499.236 3.871-.443 1.798-1.677 3.103-3.307 3.883-1.623.777-3.324.798-4.918.453.84 1.688 1.535 3.279 1.929 4.58.148.488.276 1.006.345 1.52.063.474.107 1.165-.086 1.896-.215.816-.787 1.842-1.994 2.371-1.059.465-2.06.293-2.632.132-1.121-.317-2.261-1.08-3.314-1.899-1.142-.888-2.519-2.117-4.159-3.714a499.781 499.781 0 00-10.754-10.137l-12.05 2.849a3.914 3.914 0 01-1.709.404l-59.86 14.153-14.025-57.143 13.237-3.288c-1.824-1.726-3.408-3.736-4.603-6.082-3.204-6.289-5.559-14.71-7.711-22.404l-.058-.205c-1.611-5.761-3.112-11.113-4.795-15.303-.84-2.088-1.677-3.765-2.522-5.002-.86-1.26-1.58-1.843-2.094-2.074-1.665-.749-3.175-1.113-4.511-1.264a6.505 6.505 0 01-1.302.488c-.71.19-1.418.275-1.774.318l-.009.001-.162.076c-.098.046-.204.098-.328.158l-.062.03c-.536.26-1.39.675-2.235.947a6.674 6.674 0 01-1.655.33c-.61.034-1.57-.023-2.491-.616l-.014-.009-.014-.01C1.19 96.874.472 96.083.25 94.933a3.598 3.598 0 01-.058-.936zm129.456 109.171c-.001 0-.002-.008-.002-.022l.002.022zm47.319-192.345a.2.2 0 01-.03.022.197.197 0 01.03-.022z" fill="#fff"/><path d="M54.862 47.14c1.134-2.116 21.546-54.828 21.219-36.207-.328 18.62-16.809 47.47-5.217 37.845C82.457 39.153 111.79 16.3 100.55 34.265 89.31 52.23 81.776 84.684 74.292 79.619c-7.485-5.064-19.43-32.478-19.43-32.478z" fill="#CBBEBD"/><path d="M43.22 91.865s-4.41-6.854-4.914-16.806c-.479-9.978 11.34-33.537 11.87-45.33.529-11.792 7.71-37.845 8.265-12.774.554 25.07-4.108 38.324 8.467 16.982 12.575-21.341 27.469-35.553 17.64-7.004-9.828 28.548-3.477 40.944 6.93 31.52 24.722-22.374 10.661 3.755 8.19 7.46-2.469 3.703-37.044 52.509-37.044 52.509L43.22 91.865z" fill="#BE988D"/><path d="M145.104 55.758S181.72-7.84 175.193 12.04c-6.527 19.88-29.509 55.887-14.969 42.532 14.541-13.354 48.385-40.038 30.593-21.367-17.791 18.671-43.772 52.939-51.207 54.854-7.408 1.915 5.494-32.302 5.494-32.302zM124.844 173.755s19.782 15.647 12.096 19.326c-7.686 3.679-26.284-21.241-26.284-21.241l14.188 1.915z" fill="#CBBEBD"/><path d="M149.943 66.39s57.205-29.102 44.353-13.58C181.444 68.33 148.91 84.33 130.59 83.852c-18.321-.478-14.793-10.482-14.793-10.482l34.146-6.98z" fill="#BD988D"/><path d="M5.974 85.767s3.024-3.78 4.158-6.047c1.134-2.243 8.216-11.616 16.733-6.854 8.493 4.762 27.494 28.271 34.5 27.515 7.005-.756 38.127-34.242 47.754-37.14 9.626-2.898 31.651-20.107 34.65-23.861 2.999-3.755 26.738-42.76 28.149-35.478 1.386 7.282-24.369 35.553-11.769 29.103 12.6-6.45 36.289-29.304 19.052-1.689-32.483 51.982-26.864 41.978-31.904 51.503-5.04 9.524-47.023 42.835-48.99 42.835-1.965 0 33.794 23.66 34.676 29.505 0 0 12.979 13.833 6.149 13.682-6.829-.151-20.059-8.819-13.784-2.696 6.249 6.123 22.327 23.458 12.373 17.915-9.954-5.543-23.033-9.676-17.489-2.998 5.544 6.677 21.622 33.839 5.267 17.915-16.355-15.925-41.959-37.972-32.433-26.029 9.526 11.944 8.543 24.592 1.991 14.791-6.552-9.802-17.06-28.876-20.916-30.287-3.83-1.411-30.29-2.142-37.826-16.932-7.535-14.791-10.382-42.659-18.623-46.363-8.24-3.703-13.76.379-13.986-1.46-.227-1.84.907-5.066 2.344-7.056" fill="#FEF1F0"/><path d="M14.366 84.205a4.737 4.737 0 110-9.475 4.737 4.737 0 010 9.475z" fill="#CBBEBD"/><path d="M13.988 82.895a3.175 3.175 0 110-6.35 3.175 3.175 0 010 6.35z" fill="#FEF1F0"/><path d="M15.953 79.367c-.05-.63-.504-1.16-1.134-1.36-.58-.177-1.36-.253-1.966.251-1.083.933-.806 1.764-.68 1.966.303.478.504 1.234 2.898.604.277-.075.958-.478.882-1.461z" fill="#2C1E24"/><path d="M3.026 91.689c.101-1.16.151-1.613.429-2.067.277-.453 2.772-4.333 2.772-4.333s3.906 2.418 4.233 3.35c.328.933.303 4.007.303 4.007s-3.83-.428-5.04.403c-1.235.832-1.991 1.31-2.294.958-.302-.353-.504-1.16-.403-2.318z" fill="#F37880"/><path d="M10.56 89.471s-4.586 2.948-5.644 3.225c-1.058.278-2.394 1.462-1.36 2.142 1.058.68 3.905-1.21 4.61-1.335.63-.101 3.1-.227 3.125-1.462.05-1.134.101-2.746-.73-2.57z" fill="#E5737E"/><path d="M113.502 145.007l-16.328-9.659 4.254-1.494 12.074 11.153z" fill="#FFF1F0"/><path d="M120.737 185.994l-79.5 18.797-12.602-51.349 78.603-19.522 13.499 52.074z" fill="#3F7AD3"/><path opacity=".5" d="M28.635 153.442l4.058 6.964 43.702 13.926 31.185-33.919.683-2.734-1.025-3.759-78.603 19.522z" fill="#CBBEBD"/><path opacity=".3" d="M41.237 204.791l29.818-32.894 8.586-2.435 41.096 16.532-79.5 18.797z" fill="#CBBEBD"/><path d="M68.79 165.105c.385-.257.898-.3 1.368-.214.598.128 1.751.171 3.118-.983 2.05-1.708 2.905-.512 5.255.47 2.392.983 4.827 1.41 4.656 5.596-.17 4.187-1.794 7.049-2.734 8.502-.897 1.452-3.973.042-5.767 1.153-1.794 1.068-6.194-.683-6.45-2.606-.3-1.922-2.735-5.34-1.581-8.715.598-1.922 1.495-2.819 2.136-3.203z" fill="#A75155"/><path d="M70.414 167.24c.299-.17.683-.213 1.025-.128.47.086 1.367.128 2.435-.726 1.58-1.281 2.222-.384 4.059.342 1.836.726 3.716 1.068 3.588 4.186-.128 3.119-1.41 5.255-2.093 6.323-.684 1.11-3.076.042-4.443.854-1.41.812-4.785-.512-4.998-1.922-.214-1.453-2.093-3.973-1.239-6.494.513-1.452 1.196-2.093 1.666-2.435z" fill="#F87980"/><path d="M67.917 140.369s-5.066 2.041-6.35 5.845c-1.286 3.78.226 11.44 2.771 10.936 1.487-1.865-3.225-2.923-.957-7.534 2.268-4.611 3.654-4.082 4.032-4.51.378-.429.504-4.737.504-4.737z" fill="#5C414E"/><path d="M77.97 137.219s-11.365-2.318-10.911 4.712c.454 7.03 3.578 11.44 3.578 9.273s-1.184-8.668-.075-9.197c1.109-.529.075 11.742 1.865 8.743 1.789-2.998-1.563-8.441.226-8.97 1.79-.529 5.595 4.787 4.108 7.761.756 3.578 4.108-4.183 2.394-6.426-2.016-2.318 1.79-5.593 1.79-5.593l-1.79-1.336-1.184 1.033z" fill="#5C414E"/></svg>