<svg width="200" height="209" viewBox="0 0 200 209" fill="none" xmlns="http://www.w3.org/2000/svg">
<path fill-rule="evenodd" clip-rule="evenodd" d="M6.22655 85.2888C6.22655 85.2888 6.25588 85.3069 6.30968 85.3407C7.0238 84.4237 8.71195 82.2057 9.73121 80.4559C9.66365 80.1373 9.6281 79.807 9.6281 79.4683C9.6281 76.8631 11.7314 74.7492 14.3327 74.7314C17.4279 72.1154 21.9028 70.092 26.8651 72.8665C29.2223 74.1883 32.3891 76.9543 35.8842 80.2449C37.176 81.461 38.5126 82.7488 39.8697 84.0618C39.3979 82.4829 38.9742 80.7033 38.68 78.7596C38.5019 77.5834 38.3712 76.347 38.306 75.0588C38.0604 69.941 41.0501 61.2503 44.0922 52.407C46.9812 44.009 49.9176 35.4734 50.1753 29.7296C50.4559 23.477 52.607 13.2149 54.6487 8.69048C54.6583 8.66908 54.668 8.64782 54.6776 8.62668C55.9099 5.92731 57.099 5.3372 57.8087 9.00298C57.813 9.02515 57.8173 9.04747 57.8215 9.06994C58.1406 10.7547 58.3606 13.3164 58.4411 16.9547C58.5599 22.3269 58.4391 27.1565 58.2998 31.2194C58.2691 32.1141 58.2375 32.9717 58.2074 33.7897C58.1251 36.0235 58.0537 37.9626 58.0412 39.5573C58.7587 37.8318 59.5655 35.9042 60.4296 33.8719C60.4297 33.8718 60.4295 33.8721 60.4296 33.8719C60.4411 33.8448 60.4529 33.8172 60.4644 33.7901C60.7306 33.1643 61.0024 32.5282 61.2785 31.8857C67.614 17.1393 76.2953 -1.26217 76.0807 10.9329C76.0529 12.5141 75.9086 14.169 75.6749 15.8679C75.3828 17.9918 74.9509 20.1843 74.4322 22.3873C75.8478 20.4374 77.2241 18.6712 78.5213 17.1414C86.3648 7.89099 91.3141 7.28074 84.5486 26.9327C83.3905 30.2967 82.457 33.4364 81.7284 36.3426C81.3307 37.9289 80.9939 39.4457 80.715 40.8914C81.9223 39.9587 83.154 39.0204 84.3877 38.0971C96.3202 29.1673 108.445 21.6454 100.55 34.2652C96.7358 40.3622 93.3481 48.1279 90.2443 55.5294C90.0947 55.8861 89.9458 56.2419 89.7976 56.5966C89.7975 56.5968 89.7976 56.5964 89.7976 56.5966C89.5358 57.2229 89.2759 57.8463 89.0181 58.4646L88.986 58.5415C88.6582 59.3276 88.3335 60.1062 88.0117 60.8746C88.8322 60.4866 89.6954 59.9335 90.5928 59.2117C90.5929 59.2116 90.5928 59.2117 90.5928 59.2117C90.6002 59.2058 90.6077 59.1997 90.615 59.1938C90.6151 59.1937 90.6149 59.1939 90.615 59.1938C90.6192 59.1904 90.6237 59.1868 90.628 59.1834C90.6281 59.1833 90.6278 59.1834 90.628 59.1834C90.6375 59.1757 90.6473 59.1677 90.6568 59.16C90.6572 59.1597 90.6576 59.1594 90.6579 59.1591C90.6608 59.1567 90.6637 59.1544 90.6666 59.152C90.667 59.1517 90.6673 59.1515 90.6677 59.1512C90.9351 58.9338 91.2055 58.7014 91.4787 58.454C91.9137 58.0603 92.3367 57.6816 92.748 57.3175C114.407 38.144 103.521 59.554 100.181 65.0972C99.9798 65.4303 99.8063 65.7061 99.6688 65.9123C99.1229 66.731 97.0085 69.7533 94.0456 73.9649C96.8972 71.5116 99.6048 69.2754 102.011 67.4742C102.153 67.368 102.294 67.2633 102.434 67.1602C105.147 65.1577 107.454 63.7423 109.119 63.2413C118.745 60.3436 140.77 43.1342 143.769 39.3798C144.452 38.5245 146.212 35.8396 148.539 32.289C156.426 20.2554 170.828 -1.72031 171.918 3.90258C172.14 5.06801 171.666 6.77104 170.766 8.78332C169.068 12.5806 165.85 17.479 162.917 21.944C160.601 25.4699 158.462 28.7255 157.389 30.9551C157.375 30.9843 157.361 31.0134 157.348 31.0422C156.957 31.8654 156.717 32.5439 156.674 33.0382C156.608 33.7991 157.009 34.1238 158.045 33.8683C158.436 33.2223 158.829 32.5744 159.224 31.9266C161.055 28.9217 162.911 25.9179 164.687 23.107C167.444 18.7451 170.01 14.8478 171.996 12.1318C172.232 11.8093 172.459 11.5035 172.678 11.2155C172.911 10.9097 173.133 10.6241 173.345 10.36C173.403 10.2879 173.46 10.2175 173.516 10.1486C175.687 7.48831 176.641 7.27136 175.464 11.184C175.383 11.4504 175.293 11.7359 175.193 12.0411C175.031 12.5341 174.859 13.037 174.678 13.5488C173.719 16.2557 172.501 19.212 171.144 22.27C171.051 22.4785 170.958 22.6875 170.864 22.897C170.864 22.8977 170.864 22.8984 170.863 22.8992C170.863 22.8995 170.863 22.8989 170.863 22.8992C170.863 22.8999 170.862 22.9015 170.862 22.9023C170.157 24.4757 169.419 26.0732 168.662 27.6748C169.91 26.812 171.162 25.9284 172.389 25.063L172.391 25.0613C172.779 24.7874 173.165 24.5154 173.547 24.2464C183.52 17.2247 191.081 12.2826 179.201 31.3168C177.748 33.6413 176.372 35.8418 175.067 37.9257C173.237 40.8497 171.548 43.544 169.988 46.0288C172.393 43.9974 174.891 41.9301 177.345 39.9406C181.447 36.6146 185.425 33.5063 188.636 31.1472C188.64 31.1444 188.643 31.1415 188.647 31.1387C190.385 29.8619 191.898 28.8051 193.083 28.0529C196.036 26.1789 196.957 26.1948 194.267 29.4066C193.458 30.3724 192.322 31.6272 190.817 33.2065C190.753 33.2735 190.69 33.3407 190.626 33.408C185.678 38.6142 180.108 45.0054 174.486 51.5607C172.992 53.3034 171.493 55.0577 170.002 56.8044C172.093 55.8643 174.218 54.9316 176.306 54.047C189.261 48.5602 200.828 44.9205 194.296 52.8099C185.1 63.9159 165.827 75.2671 148.894 80.651C148.567 80.9848 148.244 81.3097 147.928 81.6252C147.737 81.9875 147.528 82.3829 147.297 82.8193C142.899 91.1301 110.373 117.551 100.849 124.15C100.832 124.162 100.815 124.174 100.797 124.186C99.4361 125.127 98.5552 125.654 98.3079 125.654C98.2018 125.654 98.2056 125.723 98.3079 125.854C98.5455 126.159 99.3147 126.801 100.472 127.698C100.537 127.748 100.602 127.799 100.669 127.851C102.196 129.027 104.338 130.609 106.8 132.427C116.903 139.887 132.406 151.335 132.983 155.16C132.983 155.16 145.962 168.993 139.132 168.841C136.392 168.781 132.622 167.349 129.494 166.052C128.957 165.829 128.44 165.611 127.949 165.404C127.479 165.205 127.033 165.017 126.621 164.846C126.619 164.846 126.618 164.845 126.617 164.845C126.615 164.844 126.613 164.843 126.611 164.842C123.72 163.647 122.44 163.308 125.348 166.145C125.427 166.223 125.507 166.302 125.589 166.383C126.009 166.797 126.469 167.256 126.958 167.752C127.222 168.02 127.496 168.298 127.776 168.586C131.494 172.4 136.462 177.805 139.089 181.389C139.112 181.42 139.135 181.451 139.157 181.482C139.353 181.751 139.536 182.009 139.703 182.255C141.074 184.276 141.424 185.481 139.89 185.052C139.425 184.922 138.787 184.641 137.951 184.187C137.876 184.146 137.799 184.104 137.721 184.06C137.498 183.936 137.274 183.813 137.049 183.691C135.964 183.102 134.85 182.532 133.732 181.992C134.868 183.236 135.928 184.518 136.776 185.758C137.174 186.341 137.526 186.915 137.816 187.471C139.086 189.904 139.188 192.005 136.94 193.081C135.385 193.826 133.383 193.399 131.178 192.245C129.192 191.205 127.042 189.575 124.906 187.678C126.303 189.849 127.734 192.217 128.98 194.457C130.277 196.788 131.372 198.98 132.019 200.664C132.051 200.747 132.081 200.829 132.111 200.909C133.163 203.767 132.805 205.019 129.705 202.7C129.638 202.649 129.569 202.597 129.499 202.543C128.466 201.749 127.147 200.582 125.499 198.977C121.803 195.378 117.634 191.466 113.505 187.705L99.4565 191.026C99.2357 191.212 98.96 191.283 98.6327 191.221L41.2378 204.791L28.6347 153.443L45.1071 149.351C43.9437 148.664 42.8338 147.91 41.7989 147.082C39.5386 145.274 37.6361 143.113 36.3152 140.52C33.2475 134.498 30.9567 126.309 28.7626 118.465C25.5677 107.043 22.5777 96.3538 17.6923 94.1579C15.2312 93.0517 13.013 92.6399 11.1059 92.5575C10.6032 93.2045 9.20435 93.3741 8.47582 93.4624C8.35009 93.4777 8.24433 93.4905 8.16658 93.5029C7.95589 93.5405 7.55423 93.7354 7.06626 93.9722C6.89335 94.0561 6.7096 94.1452 6.51966 94.2345C6.40793 94.287 6.29406 94.3396 6.17899 94.3911C5.81118 94.5559 5.4312 94.7105 5.07001 94.8207C4.46294 95.006 3.90894 95.0659 3.55501 94.8384C3.12443 94.5548 3.10526 94.1838 3.30597 93.8274C3.07528 93.4155 2.93977 92.6816 3.02611 91.6888C3.12691 90.5297 3.17731 90.0762 3.45452 89.6226C3.73172 89.1691 6.22655 85.2888 6.22655 85.2888ZM0.190732 93.9955C-0.012139 93.1528 -0.0347473 92.2583 0.0373894 91.4289C0.0433055 91.3608 0.0490826 91.2912 0.0549792 91.2202C0.130936 90.305 0.226701 89.1512 0.894764 88.0581C1.05541 87.7953 1.77525 86.6704 2.41904 85.6663C2.7488 85.152 3.06978 84.6521 3.30827 84.2808L3.70127 83.6692L3.70264 83.6671L5.29833 81.1852L5.55352 81.3433C5.92295 80.8272 6.29796 80.2846 6.63372 79.7648C6.62998 79.6664 6.6281 79.5675 6.6281 79.4683C6.6281 75.6044 9.46039 72.4026 13.1621 71.8244C16.7387 69.092 22.2344 66.8404 28.3291 70.248L28.3325 70.2498C30.2457 71.3227 32.4418 73.0902 34.6806 75.0721C34.8968 75.2636 35.115 75.4584 35.3349 75.6563C35.3257 75.5083 35.3174 75.3598 35.3098 75.2105L35.3094 75.2026C35.1616 72.122 35.9728 68.2656 37.0773 64.3211C38.198 60.3187 39.7293 55.8673 41.2369 51.485L41.2554 51.4311C42.7057 47.2153 44.1358 43.056 45.2384 39.2401C46.3512 35.3892 47.066 32.0988 47.1783 29.5951C47.456 23.4089 49.4412 13.6125 51.5112 8.4095C52.0093 7.15769 52.6512 5.8002 53.4884 4.86682C53.8855 4.4242 54.7018 3.64721 55.9513 3.46471C57.4813 3.24125 58.638 4.01797 59.2815 4.77937C59.8494 5.45145 60.1727 6.25418 60.3801 6.91503C60.6032 7.62612 60.7763 8.45432 60.915 9.37532C61.1926 11.2194 61.3698 13.6973 61.4403 16.8884C61.4953 19.374 61.4997 21.7442 61.4749 23.9747C63.2489 20.032 65.0761 16.1698 66.7594 12.9905C67.7296 11.1583 68.6801 9.49857 69.5698 8.15725C70.3968 6.91045 71.3758 5.61598 72.456 4.83424C72.9822 4.45346 73.9834 3.86012 75.2796 3.97025C76.8069 4.10001 77.7606 5.09092 78.2394 5.94134C78.6745 6.71412 78.8622 7.5794 78.9599 8.31397C79.064 9.09585 79.0977 9.99346 79.0803 10.9857C79.0736 11.3623 79.061 11.7419 79.0426 12.1241C79.1025 12.0641 79.1622 12.0047 79.2216 11.946C80.3135 10.8674 81.4012 9.93054 82.4464 9.24269C83.4038 8.61254 84.7171 7.92487 86.176 7.91916C86.9856 7.91599 87.8583 8.1254 88.645 8.67351C89.4149 9.20986 89.9011 9.92992 90.1988 10.6224C90.7509 11.9067 90.7996 13.4266 90.6878 14.8615C90.4564 17.8319 89.373 22.1353 87.3852 27.9093C86.7195 29.8429 86.1316 31.6953 85.6168 33.465C90.0032 30.2883 94.2808 27.4487 97.4212 25.925C98.6048 25.3507 99.8622 24.8435 101.022 24.6564C101.97 24.5034 104.352 24.3714 105.567 26.5816C106.072 27.5002 106.11 28.4448 106.045 29.1328C105.979 29.8383 105.782 30.5372 105.54 31.1887C105.055 32.492 104.224 34.0489 103.093 35.8563C100.321 40.2879 97.7639 45.6696 95.343 51.2211C96.0293 50.6823 96.6741 50.1968 97.2796 49.7619C99.3274 48.2912 101.123 47.253 102.669 46.7868C103.452 46.5508 104.399 46.3899 105.383 46.5746C106.476 46.7796 107.435 47.3817 108.072 48.3267C108.646 49.1774 108.821 50.098 108.868 50.8018C108.915 51.5265 108.842 52.2551 108.726 52.9202C108.279 55.4741 106.889 58.7207 105.603 61.3539C105.568 61.4258 105.533 61.4976 105.498 61.5692C106.467 61.0425 107.395 60.6273 108.254 60.3686C110.287 59.7565 113.206 58.3002 116.629 56.2461C119.998 54.2241 123.673 51.7362 127.169 49.2026C130.662 46.671 133.946 44.1171 136.529 41.9752C139.204 39.7569 140.899 38.1662 141.425 37.5075C141.993 36.7964 143.636 34.2965 146.03 30.6448L146.058 30.6017C146.062 30.5957 146.066 30.5897 146.07 30.5837C149.997 24.592 155.602 16.0395 160.377 9.6743C162.741 6.52341 165.044 3.71337 166.912 2.03925C167.393 1.60847 167.903 1.19965 168.428 0.867797C168.92 0.55645 169.609 0.193194 170.427 0.0558211C171.339 -0.0973819 172.527 0.0283048 173.527 0.895569C174.412 1.6626 174.733 2.65969 174.863 3.33181L174.865 3.34164C174.986 3.97882 174.996 4.63083 174.934 5.27384C175.325 5.18676 175.839 5.14253 176.416 5.27708C177.318 5.48734 177.995 6.04477 178.408 6.68876C179.053 7.69526 178.984 8.78829 178.958 9.15591C178.886 10.1772 178.528 11.4998 178.043 12.9769C177.415 14.8901 176.645 16.9341 175.78 19.0526C176.568 18.5229 177.327 18.0273 178.042 17.5818C179.134 16.9015 180.196 16.2921 181.161 15.8454C182.02 15.4472 183.203 14.9812 184.4 14.9944C185.064 15.0018 185.973 15.1592 186.797 15.8021C187.655 16.4709 188.048 17.3732 188.192 18.1524C188.436 19.4808 188.041 20.8816 187.639 21.984C186.794 24.3054 184.982 27.6818 182.102 32.3317C185.142 29.9746 187.886 27.9366 190.006 26.4903C191.289 25.6155 192.46 24.8768 193.375 24.423C193.772 24.2261 194.412 23.931 195.104 23.8281C195.42 23.7813 196.217 23.6956 197.076 24.1099C198.208 24.656 198.758 25.7114 198.849 26.6685C198.919 27.4139 198.716 28.015 198.611 28.2906C198.484 28.6229 198.324 28.9207 198.18 29.1617C197.891 29.6468 197.501 30.1777 197.058 30.7327C196.16 31.8572 194.815 33.3596 192.989 35.2761C189.166 39.2885 184.952 44.0382 180.607 49.0527C184.087 47.696 187.312 46.5787 189.906 45.9238C191.274 45.5785 192.597 45.327 193.757 45.2665C194.728 45.216 196.371 45.2394 197.668 46.2551C198.438 46.8587 198.955 47.7138 199.12 48.7012C199.271 49.6008 199.1 50.421 198.885 51.048C198.468 52.2616 197.618 53.5021 196.606 54.7232C187.057 66.2557 167.616 77.7009 150.513 83.2812C150.465 83.3296 150.417 83.3778 150.37 83.4258C150.238 83.6755 150.098 83.9404 149.949 84.2224C149.138 85.7543 147.723 87.5423 146.059 89.3973C144.354 91.2986 142.233 93.4398 139.864 95.7005C135.124 100.225 129.288 105.327 123.575 110.109C117.859 114.893 112.233 119.384 107.902 122.686C106.143 124.027 104.582 125.184 103.307 126.09C104.715 127.158 106.522 128.492 108.582 130.014L108.763 130.147C113.773 133.847 120.149 138.559 125.366 142.837C128.001 144.998 130.407 147.101 132.213 148.944C133.113 149.863 133.92 150.774 134.543 151.639C134.934 152.184 135.373 152.87 135.665 153.645C135.694 153.676 135.723 153.709 135.754 153.742C136.109 154.136 136.607 154.695 137.182 155.366C138.323 156.696 139.804 158.507 141.082 160.345C142.271 162.055 143.602 164.226 143.994 166.176C144.192 167.161 144.292 168.807 143.147 170.201C141.989 171.611 140.297 171.868 139.066 171.841C137.489 171.806 135.778 171.435 134.153 170.954C136.217 173.195 138.288 175.54 139.945 177.594C140.863 178.73 141.689 179.821 142.328 180.784C142.888 181.627 143.562 182.742 143.797 183.822C143.903 184.306 144.116 185.647 143.164 186.851C142.606 187.557 141.918 187.887 141.306 188.033C141.677 189.186 141.88 190.532 141.542 191.904C141.099 193.702 139.865 195.007 138.235 195.787C136.612 196.564 134.911 196.585 133.317 196.24C134.157 197.928 134.852 199.519 135.246 200.82C135.394 201.308 135.522 201.826 135.591 202.34C135.654 202.814 135.698 203.505 135.505 204.236C135.29 205.052 134.718 206.078 133.511 206.607C132.452 207.072 131.451 206.9 130.879 206.739C129.758 206.422 128.618 205.659 127.565 204.84C126.423 203.952 125.046 202.723 123.406 201.126C120.084 197.892 116.373 194.399 112.652 190.989L100.602 193.838C100.057 194.108 99.4731 194.237 98.8931 194.242L39.0323 208.395L25.0081 151.252L38.2454 147.964C36.4212 146.238 34.8371 144.228 33.6421 141.882C30.4383 135.593 28.083 127.172 25.9309 119.478L25.8735 119.273C24.2619 113.512 22.761 108.16 21.0777 103.97C20.2388 101.882 19.4015 100.205 18.5564 98.9681C17.6957 97.7078 16.9769 97.1255 16.4623 96.8942C14.7968 96.1455 13.2869 95.7812 11.951 95.6305C11.4274 95.8986 10.9428 96.0397 10.6486 96.1182C9.93863 96.3075 9.23144 96.3929 8.87501 96.436L8.86596 96.4371C8.82041 96.458 8.76689 96.483 8.70369 96.5131C8.60614 96.5595 8.50005 96.611 8.37578 96.6713L8.31395 96.7013C7.77774 96.9617 6.92462 97.3759 6.07883 97.6483C5.63455 97.7914 5.05463 97.9424 4.4236 97.9778C3.81331 98.0121 2.85478 97.9546 1.93286 97.362L1.91895 97.353L1.90515 97.3439C1.19017 96.8732 0.471829 96.0815 0.248705 94.9318C0.184715 94.6021 0.1705 94.2884 0.190732 93.9955ZM129.647 203.167C129.646 203.167 129.645 203.159 129.645 203.145C129.647 203.161 129.647 203.168 129.647 203.167ZM176.966 10.822C176.966 10.8228 176.956 10.8309 176.936 10.8443C176.956 10.828 176.966 10.8213 176.966 10.822Z" fill="white"/>
<path d="M54.8622 47.1406C55.9962 45.024 76.4084 -7.68791 76.0808 10.9326C75.7532 29.5531 59.2723 58.4036 70.8644 48.7784C82.4565 39.1531 111.789 16.2995 100.55 34.2649C89.3109 52.2303 81.776 84.6839 74.2916 79.6194C66.8071 74.5548 54.8622 47.1406 54.8622 47.1406Z" fill="#CBBEBD"/>
<path d="M43.2201 91.8649C43.2201 91.8649 38.8101 85.0114 38.3061 75.0586C37.8272 65.0806 49.6462 41.5215 50.1754 29.7293C50.7046 17.9372 57.8867 -8.1164 58.4411 16.9545C58.9955 42.0254 54.3335 55.279 66.9084 33.9372C79.4834 12.5955 94.3768 -1.6156 84.5487 26.9325C74.7205 55.4806 81.071 67.8775 91.4788 58.4538C116.2 36.079 102.139 62.2082 99.6689 65.9121C97.1992 69.616 62.6244 118.422 62.6244 118.422L43.2201 91.8649Z" fill="#BE988D"/>
<path d="M145.104 55.7576C145.104 55.7576 181.72 -7.83942 175.193 12.0409C168.666 31.9213 145.684 67.9277 160.224 54.5733C174.765 41.2189 208.609 14.5354 190.817 33.2063C173.026 51.8772 147.045 86.145 139.61 88.06C132.202 89.9749 145.104 55.7576 145.104 55.7576Z" fill="#CBBEBD"/>
<path d="M124.844 173.755C124.844 173.755 144.626 189.402 136.94 193.081C129.254 196.76 110.656 171.84 110.656 171.84L124.844 173.755Z" fill="#CBBEBD"/>
<path d="M149.943 66.3908C149.943 66.3908 207.148 37.2884 194.296 52.8097C181.444 68.331 148.91 84.331 130.59 83.8523C112.269 83.3735 115.797 73.3704 115.797 73.3704L149.943 66.3908Z" fill="#BD988D"/>
<path d="M5.97416 85.767C5.97416 85.767 8.9982 81.9874 10.1322 79.7197C11.2662 77.4772 18.3475 68.1039 26.8652 72.8661C35.3577 77.6284 54.3586 101.137 61.3643 100.381C68.37 99.6253 99.4923 66.1386 109.119 63.2409C118.745 60.3433 140.77 43.1338 143.769 39.3795C146.768 35.6251 170.507 -3.37967 171.918 3.90223C173.304 11.1841 147.549 39.4551 160.149 33.0047C172.749 26.5542 196.438 3.70066 179.201 31.3165C146.718 83.2977 152.337 73.2945 147.297 82.8189C142.257 92.3434 100.274 125.654 98.3079 125.654C96.3423 125.654 132.101 149.314 132.983 155.159C132.983 155.159 145.962 168.992 139.132 168.841C132.303 168.69 119.073 160.022 125.348 166.145C131.597 172.268 147.675 189.603 137.721 184.06C127.767 178.517 114.688 174.384 120.232 181.062C125.776 187.739 141.854 214.901 125.499 198.977C109.144 183.052 83.5405 161.005 93.0662 172.948C102.592 184.892 101.609 197.54 95.0571 187.739C88.505 177.937 77.9965 158.863 74.1409 157.452C70.3104 156.041 43.8501 155.31 36.3153 140.52C28.7804 125.729 25.9328 97.8615 17.6923 94.1575C9.4518 90.4536 3.93294 94.5355 3.70614 92.6961C3.47934 90.8567 4.61335 87.6315 6.04976 85.641" fill="#FEF1F0"/>
<path d="M14.3657 84.205C11.7492 84.205 9.62811 82.0842 9.62811 79.468C9.62811 76.8518 11.7492 74.731 14.3657 74.731C16.9822 74.731 19.1033 76.8518 19.1033 79.468C19.1033 82.0842 16.9822 84.205 14.3657 84.205Z" fill="#CBBEBD"/>
<path d="M13.9884 82.8948C12.2348 82.8948 10.8132 81.4734 10.8132 79.72C10.8132 77.9666 12.2348 76.5452 13.9884 76.5452C15.7421 76.5452 17.1637 77.9666 17.1637 79.72C17.1637 81.4734 15.7421 82.8948 13.9884 82.8948Z" fill="#FEF1F0"/>
<path d="M15.9532 79.367C15.9028 78.7371 15.4492 78.2079 14.8191 78.0064C14.2395 77.83 13.4583 77.7544 12.8535 78.2583C11.7699 79.1906 12.0471 80.0221 12.1731 80.2237C12.4755 80.7024 12.6771 81.4583 15.0712 80.8284C15.3484 80.7528 16.0288 80.3497 15.9532 79.367Z" fill="#2C1E24"/>
<path d="M3.02624 91.6886C3.12704 90.5295 3.17744 90.076 3.45465 89.6224C3.73185 89.1689 6.22668 85.2886 6.22668 85.2886C6.22668 85.2886 10.1327 87.7075 10.4603 88.6398C10.7879 89.572 10.7627 92.6461 10.7627 92.6461C10.7627 92.6461 6.93229 92.2177 5.72267 93.0492C4.48786 93.8807 3.73184 94.3595 3.42944 94.0067C3.12703 93.6539 2.92544 92.8476 3.02624 91.6886Z" fill="#F37880"/>
<path d="M10.5607 89.4711C10.5607 89.4711 5.97431 92.4191 4.91592 92.6963C3.85753 92.9735 2.52193 94.1577 3.55512 94.838C4.61351 95.5183 7.4611 93.6286 8.16669 93.5026C8.79669 93.4018 11.2663 93.2758 11.2915 92.0412C11.3419 90.9073 11.3923 89.2947 10.5607 89.4711Z" fill="#E5737E"/>
<path d="M113.502 145.007L97.1736 135.348L101.428 133.854L113.502 145.007Z" fill="#FFF1F0"/>
<path d="M120.737 185.994L41.2369 204.791L28.6348 153.442L107.238 133.92L120.737 185.994Z" fill="#3F7AD3"/>
<path opacity="0.5" d="M28.6348 153.442L32.6931 160.406L76.3948 174.332L107.58 140.413L108.263 137.679L107.238 133.92L28.6348 153.442Z" fill="#CBBEBD"/>
<path opacity="0.3" d="M41.2369 204.791L71.0549 171.897L79.6415 169.462L120.737 185.994L41.2369 204.791Z" fill="#CBBEBD"/>
<path d="M68.7906 165.105C69.1751 164.848 69.6877 164.805 70.1576 164.891C70.7557 165.019 71.9091 165.062 73.2761 163.908C75.3266 162.2 76.181 163.396 78.5306 164.378C80.9229 165.361 83.3578 165.788 83.187 169.974C83.0161 174.161 81.3928 177.023 80.4529 178.476C79.5558 179.928 76.4801 178.518 74.6859 179.629C72.8916 180.697 68.4916 178.946 68.2353 177.023C67.9362 175.101 65.5012 171.683 66.6546 168.308C67.2527 166.386 68.1498 165.489 68.7906 165.105Z" fill="#A75155"/>
<path d="M70.414 167.24C70.713 167.07 71.0975 167.027 71.4393 167.112C71.9092 167.198 72.8063 167.24 73.8743 166.386C75.4549 165.105 76.0957 166.002 77.9326 166.728C79.7695 167.454 81.6491 167.796 81.521 170.914C81.3928 174.033 80.1113 176.169 79.4277 177.237C78.7442 178.347 76.352 177.279 74.985 178.091C73.5752 178.903 70.2004 177.579 69.9868 176.169C69.7732 174.716 67.8936 172.196 68.748 169.675C69.2606 168.223 69.9441 167.582 70.414 167.24Z" fill="#F87980"/>
<path d="M67.9166 140.369C67.9166 140.369 62.8514 142.41 61.5662 146.214C60.281 149.994 61.793 157.654 64.3382 157.15C65.825 155.285 61.1126 154.227 63.3806 149.616C65.6486 145.005 67.0346 145.534 67.4126 145.106C67.7906 144.677 67.9166 140.369 67.9166 140.369Z" fill="#5C414E"/>
<path d="M77.9706 137.219C77.9706 137.219 66.6053 134.901 67.0589 141.931C67.5125 148.961 70.6373 153.371 70.6373 151.204C70.6373 149.037 69.4529 142.536 70.5617 142.007C71.6705 141.478 70.6373 153.749 72.4265 150.75C74.2158 147.752 70.8641 142.309 72.6533 141.78C74.4426 141.251 78.2478 146.567 76.761 149.541C77.517 153.119 80.8686 145.358 79.155 143.115C77.139 140.797 80.9442 137.522 80.9442 137.522L79.155 136.186L77.9706 137.219Z" fill="#5C414E"/>
</svg>
