<svg width="213" height="275" viewBox="0 0 213 275" fill="none" xmlns="http://www.w3.org/2000/svg">
<path d="M16.0469 10.4863L212.914 22.8374L204.393 267.108L24.2815 274.327L16.0469 10.4863Z" fill="#2E5A9C"/>
<path d="M3.82812 0.806641L200.696 13.1577L192.175 261.553L12.0628 268.772L3.82812 0.806641Z" fill="#F87980"/>
<path d="M55.3462 56.9552C58.0822 61.2112 60.8182 65.1632 63.5542 68.8112L63.3832 70.0652C59.5072 71.2432 55.6882 71.9462 51.9262 72.1742L50.8432 71.2622L50.1592 69.8372C49.8552 69.2292 49.2472 67.9562 48.3352 66.0182C47.4232 64.0422 46.6252 62.1992 45.9412 60.4892H42.1222L42.5212 71.4902H31.0642L31.6342 60.6602L31.0642 34.6112L48.5632 34.5542C52.7052 34.5542 55.8972 35.5422 58.1392 37.5182C60.3812 39.4562 61.5022 42.2682 61.5022 45.9542C61.5022 48.1202 60.9512 50.1532 59.8492 52.0532C58.7852 53.9532 57.2842 55.5872 55.3462 56.9552ZM49.4752 47.0942C49.4752 45.5742 49.0762 44.4532 48.2782 43.7312C47.5182 42.9712 46.2642 42.5532 44.5162 42.4772L42.4642 42.6482L42.2362 52.1672L46.3972 52.3952C47.4612 51.9012 48.2402 51.2362 48.7342 50.4002C49.2282 49.5642 49.4752 48.4622 49.4752 47.0942ZM82.4835 33.9272C87.8415 33.9272 91.9835 35.5232 94.9095 38.7152C97.8355 41.8692 99.2985 46.3342 99.2985 52.1102C99.2985 58.4942 97.6835 63.4342 94.4535 66.9302C91.2615 70.4262 86.7205 72.1742 80.8305 72.1742C75.4725 72.1742 71.3305 70.5782 68.4045 67.3862C65.4785 64.1562 64.0155 59.5962 64.0155 53.7062C64.0155 47.3982 65.6115 42.5342 68.8035 39.1142C72.0335 35.6562 76.5935 33.9272 82.4835 33.9272ZM81.4575 43.0472C79.9755 43.0472 78.8545 43.3132 78.0945 43.8452C77.3345 44.3392 76.7835 45.2322 76.4415 46.5242C76.1375 47.8162 75.9855 49.6972 75.9855 52.1672C75.9855 55.3212 76.1565 57.7152 76.4985 59.3492C76.8405 60.9832 77.4105 62.1232 78.2085 62.7692C79.0445 63.4152 80.2605 63.7382 81.8565 63.7382C83.3385 63.7382 84.4595 63.4912 85.2195 62.9972C85.9795 62.4652 86.5115 61.5532 86.8155 60.2612C87.1575 58.9312 87.3285 57.0312 87.3285 54.5612C87.3285 51.4452 87.1575 49.0702 86.8155 47.4362C86.4735 45.8022 85.8845 44.6622 85.0485 44.0162C84.2505 43.3702 83.0535 43.0472 81.4575 43.0472ZM120.35 33.9842C123.618 33.9842 126.696 34.4972 129.584 35.5232L127.646 44.5862L126.905 45.0422C125.917 44.5102 124.777 44.0922 123.485 43.7882C122.193 43.4462 120.996 43.2752 119.894 43.2752C117.576 43.2752 115.904 43.9592 114.878 45.3272C113.852 46.6572 113.339 48.8992 113.339 52.0532C113.339 55.7392 113.928 58.4372 115.106 60.1472C116.284 61.8192 118.127 62.6552 120.635 62.6552C121.699 62.6552 122.877 62.5602 124.169 62.3702C125.499 62.1422 126.658 61.8382 127.646 61.4582L128.558 62.0282L127.646 71.0342C125.366 71.7562 122.725 72.1172 119.723 72.1172C113.605 72.1172 108.988 70.5212 105.872 67.3292C102.794 64.1372 101.255 59.4822 101.255 53.3642C101.255 47.2082 102.908 42.4392 106.214 39.0572C109.558 35.6752 114.27 33.9842 120.35 33.9842ZM154.474 52.0532C157.97 57.5252 161.96 63.2062 166.444 69.0962L166.273 70.3502C162.283 71.2242 158.483 71.8322 154.873 72.1742L153.619 71.4902C149.743 64.8402 146.57 59.1972 144.1 54.5612L143.986 59.5202L144.442 71.4902H132.985L133.555 60.6602L132.985 34.6112H144.613L144.214 50.0012L151.282 38.6012L153.22 34.6112H165.304L154.474 52.0532Z" fill="#2C1E25"/>
<g clip-path="url(#clip0)">
<path d="M73.3612 197.988L74.3494 192.39L73.3612 185.11L68.8211 179.197L68.141 175.556L73.1363 163.4L82.2454 142.81L93.9327 118.53L105.949 90.3814L116.597 79.378L128.109 77.8911L139.428 82.6488L144.42 92.3919L145.195 103.381L141.532 111.224L134.64 117.549L125.864 121.696L121.318 126.811L122.727 136.982L126.567 156.086L127.096 167.82L123.83 177.829L117.524 178.77L110.852 180.881L104.576 185.158L99.7098 192.547L98.4884 197.082L73.3612 197.988Z" fill="#FFF1F0"/>
<path d="M111.18 98.4474L113.005 100.772L111.706 105.172L108.18 106.544L104.901 102.618L107.113 98.9007L111.18 98.4474Z" fill="#2C1E25"/>
<path d="M104.465 114.508L106.253 117.836L104.114 123.381L100.461 122.568L98.2992 118.171L100.077 114.25L104.465 114.508Z" fill="#2C1E25"/>
<path d="M96.9999 129.737L98.6078 132.439L97.2078 136.097L94.0364 137.309L91.5404 135.129L91.0271 130.619L92.561 129.468L96.9999 129.737Z" fill="#2C1E25"/>
<path d="M90.0695 143.888L92.0242 146.347L89.7472 150.956L86.0698 149.658L84.9159 146.71L87.1018 143.706L90.0695 143.888Z" fill="#2C1E25"/>
<path d="M84.5238 157.438L85.6888 160.814L83.6297 163.846L80.2305 164.048L78.6742 159.919L81.0998 156.676L84.5238 157.438Z" fill="#2C1E25"/>
<path d="M79.1554 171.27L79.5791 174.747L76.2579 176.512L73.3919 175.874L72.4267 173.155L74.7933 169.579L79.1304 170.545L79.1554 171.27Z" fill="#2C1E25"/>
<path d="M73.3189 162.935L71.152 162.027L69.359 162.906L63.3314 160.925L63.0871 159.272L65.8457 155.251L72.6873 158.239L72.2806 159.827L74.1768 160.995L73.3189 162.935Z" fill="#2C1E25"/>
<path d="M78.8846 150.374L77.2613 150.013L76.3617 151.065L71.9769 149.716L68.7822 147.086C68.7822 147.086 71.324 142.724 71.4762 142.758C71.6283 142.791 75.0667 143.131 75.0667 143.131L77.9967 145.275L79.3007 146.95L78.4182 147.686L79.7284 148.378L78.8846 150.374Z" fill="#2C1E25"/>
<path d="M84.6186 137.879L82.6575 136.883L82.1101 137.907L77.494 136.879L74.9471 135.166L76.1055 129.963L78.5657 130.511L82.8259 132.898L84.3527 134.41L83.4195 134.895L85.6061 135.834L84.6186 137.879Z" fill="#2C1E25"/>
<path d="M90.9197 124.761L89.0827 123.686L88.7888 125.006L85.8414 123.657L80.6739 120.802L81.5631 118.362L82.9224 116.8L86.5851 119.24L89.9947 120.665L89.5939 121.748L91.9073 122.716L90.9197 124.761Z" fill="#2C1E25"/>
<path d="M97.215 110.844L94.82 109.644L94.1598 110.936L90.6732 111.172L85.962 108.898L87.3204 103.872L90.5323 100.804L96.3113 103.902L96.0423 106.187L96.1034 107.825L98.1548 108.655L97.215 110.844Z" fill="#2C1E25"/>
<path d="M103.505 96.0987L101.673 95.238L98.856 98.2074L94.7729 96.5792L93.3153 92.3651L94.1233 88.7352L98.0455 85.5855L103.684 88.3592L102.906 93.168L104.552 93.6676L103.505 96.0987Z" fill="#2C1E25"/>
<path d="M76.2596 176.513L75.0957 197.953L76.1286 197.953L77.2043 175.498L76.2596 176.513Z" fill="#2C1E25"/>
<path d="M80.2579 197.749L84.1457 163.082L83.3988 163.209L79.5349 197.749L80.2579 197.749Z" fill="#2C1E25"/>
<path d="M83.322 197.642L89.4486 150.142L90.021 149.604L84.4237 197.642L83.322 197.642Z" fill="#2C1E25"/>
<path d="M87.6845 197.471L95.832 135.338L96.4661 135.479L88.4517 197.471L87.6845 197.471Z" fill="#2C1E25"/>
<path d="M91.8925 197.303L103.035 121.277L103.695 121.424L92.4949 197.303L91.8925 197.303Z" fill="#2C1E25"/>
<path d="M95.3978 197.166L111.066 102.791L111.523 102.893L96.0902 197.166L95.3978 197.166Z" fill="#2C1E25"/>
<path d="M95.7536 167.504L102.171 167.973L102.465 171.076L95.4363 170.603L95.7536 167.504Z" fill="#2C1E25"/>
</g>
<path d="M52.6979 225.257C54.7779 225.257 56.4809 225.725 57.8069 226.661C59.1329 227.571 59.7959 228.858 59.7959 230.522C59.7959 231.588 59.4709 232.719 58.8209 233.915C58.1969 235.085 57.1309 236.424 55.6229 237.932L53.9069 239.648L54.0239 239.843H57.0269L60.8099 239.453L61.1999 239.921L60.3419 245.927L54.7259 245.615H45.7559L44.3519 245.732L44.0009 245.459V240.857L48.9929 236.567C50.0589 235.605 50.8519 234.812 51.3719 234.188C51.9179 233.564 52.1909 233.031 52.1909 232.589C52.1909 231.991 51.7359 231.692 50.8259 231.692C50.1239 231.692 49.3309 231.874 48.4469 232.238C47.5629 232.576 46.7179 233.044 45.9119 233.642H45.0929L43.8059 227.714C47.0299 226.076 49.9939 225.257 52.6979 225.257ZM77.3069 226.388L77.1899 230.912H79.8419L84.3659 230.795L84.7949 231.341L84.3269 237.035L79.2959 236.918H77.0339V237.425L77.3459 245.615H69.5069L69.8969 238.205L69.5069 220.382H86.3549L86.7839 220.928L86.2769 226.622L80.0369 226.388H77.3069ZM99.2514 227.168C99.5894 227.168 99.8884 227.194 100.148 227.246V234.071L99.4074 234.305C99.0694 234.097 98.6014 233.993 98.0034 233.993C97.4314 233.993 96.8204 234.123 96.1704 234.383C95.5464 234.643 94.9614 235.007 94.4154 235.475V237.425L94.7274 245.615H87.1224L87.4734 238.205L87.2004 227.636L94.4154 227.129V230.561H94.7664C95.8844 228.299 97.3794 227.168 99.2514 227.168ZM109.907 226.739C112.299 226.739 114.145 227.233 115.445 228.221C116.745 229.183 117.395 230.574 117.395 232.394C117.395 232.914 117.343 234.292 117.239 236.528C117.135 238.504 117.083 239.609 117.083 239.843C117.083 240.129 117.122 240.337 117.2 240.467C117.304 240.597 117.447 240.662 117.629 240.662C117.811 240.662 118.032 240.623 118.292 240.545L118.76 240.935L118.097 244.835C117.135 245.511 115.926 245.901 114.47 246.005C113.716 245.953 113.04 245.693 112.442 245.225C111.87 244.757 111.428 244.094 111.116 243.236H110.843C109.699 244.562 108.399 245.498 106.943 246.044C104.967 246.018 103.381 245.472 102.185 244.406C101.015 243.314 100.43 241.832 100.43 239.96C100.43 237.074 101.925 235.423 104.915 235.007L110.453 234.266V233.798C110.453 233.122 110.31 232.641 110.024 232.355C109.764 232.069 109.296 231.926 108.62 231.926C107.164 231.926 105.279 232.55 102.965 233.798L102.497 233.486L101.678 228.689C102.874 228.065 104.187 227.584 105.617 227.246C107.073 226.908 108.503 226.739 109.907 226.739ZM108.23 237.893C107.866 237.945 107.593 238.088 107.411 238.322C107.255 238.53 107.177 238.855 107.177 239.297C107.177 240.337 107.658 240.857 108.62 240.857C109.244 240.857 109.855 240.649 110.453 240.233V237.581L108.23 237.893ZM131.588 245.615L131.978 235.319C131.978 233.733 131.367 232.94 130.145 232.94C129.547 232.94 128.936 233.122 128.312 233.486V237.425L128.624 245.615H121.019L121.37 238.205L121.097 227.636L128.312 227.129V229.859H128.585C129.937 228.507 131.458 227.545 133.148 226.973C135.098 226.973 136.58 227.415 137.594 228.299C138.634 229.183 139.128 230.457 139.076 232.121L138.92 237.425L139.193 245.615H131.588ZM156.546 235.358C157.768 237.854 159.419 240.857 161.499 244.367L161.46 245.147C159.77 245.485 157.391 245.797 154.323 246.083L153.543 245.693C152.009 242.885 150.709 239.986 149.643 236.996V237.425L149.955 245.615H142.35L142.701 238.205L142.428 218.744L149.994 218.237L149.682 234.929L152.646 229.391L153.465 227.207H161.226L156.546 235.358Z" fill="#2C1E25"/>
<path d="M8.6875 200.351L201.946 186.76V198.334L8.99966 211.572L8.6875 200.351Z" fill="#2E5A9C"/>
<path d="M22.1445 199.4L8.65625 200.35L8.81626 211.586L22.875 210.623L22.1445 199.4Z" fill="#3F7AD3"/>
<defs>
<clipPath id="clip0">
<rect width="68" height="132" fill="white" transform="translate(83.418 67.9434) rotate(12.5502)"/>
</clipPath>
</defs>
</svg>
