<svg width="210" height="274" fill="none" xmlns="http://www.w3.org/2000/svg"><path d="M12.793 10.096L209.66 22.447l-8.521 244.271-180.111 7.219-8.235-263.84z" fill="#2E5A9C"/><path d="M.574.417l196.868 12.35-8.521 248.396-180.112 7.219L.574.417z" fill="#F87980"/><path d="M36.908 47.94c2.176-1.537 3.456-3.745 3.456-6.177 0-4.128-2.624-6.4-7.264-6.4l-9.824.032.32 14.624-.32 6.08h6.432l-.224-6.176h2.144c.864 2.048 1.824 4.064 2.752 6.048l.608.512A27.167 27.167 0 0041.42 55.3l.096-.704a112.47 112.47 0 01-4.608-6.656zm-3.296-5.537c0 1.536-.512 2.432-1.728 2.976l-2.336-.128.128-5.344 1.152-.096c1.952.096 2.784.864 2.784 2.592zm18.531-7.392c-6.592 0-10.368 4.032-10.368 11.104 0 6.592 3.424 10.368 9.44 10.368 6.592 0 10.368-4.096 10.368-11.264 0-6.496-3.424-10.208-9.44-10.208zm-.576 5.12c2.592 0 3.296 1.312 3.296 6.464 0 4.096-.672 5.152-3.072 5.152-2.592 0-3.296-1.312-3.296-6.496 0-4.064.672-5.12 3.072-5.12zm21.834-5.088c-6.848 0-10.72 4-10.72 10.88 0 6.816 3.424 10.528 10.368 10.528 1.408 0 2.944-.128 4.448-.608l.512-5.056-.512-.32c-1.152.416-2.784.672-3.936.672-2.816 0-4.096-1.824-4.096-5.952 0-3.552 1.12-4.928 3.68-4.928 1.216 0 2.816.384 3.936.992l.416-.256 1.088-5.088c-1.536-.544-3.264-.864-5.184-.864zm25.238.352h-6.784l-1.088 2.24-3.968 6.4.224-8.64h-6.528l.32 14.624-.32 6.08h6.432l-.256-6.72.064-2.784c1.728 3.232 3.52 6.368 5.344 9.504l.704.384a49.291 49.291 0 006.4-1.024l.096-.704c-2.368-3.104-4.64-6.304-6.72-9.568l6.08-9.792zm19.23 10.496l.224-10.496h-6.528l.288 12.928c.032 2.176-.8 3.104-2.816 3.104-1.984 0-2.784-.928-2.752-3.104l.288-12.928h-6.432l.192 10.496-.096 3.296c-.128 4.704 2.944 7.296 8.544 7.296 5.792 0 9.024-2.592 9.056-7.296l.032-3.296zM138.35 56.1l-5.664-20.704h-7.744L118.67 56.1h6.272l.544-3.456 2.624-.128 3.136.064.032.096.576 3.424h6.496zm-8.064-8.192l-1.792.032-1.792-.032 1.792-6.784h.384l1.408 6.784zm23.935.032c2.176-1.536 3.456-3.744 3.456-6.176 0-4.128-2.624-6.4-7.264-6.4l-9.824.032.32 14.624-.32 6.08h6.432l-.224-6.176h2.144c.864 2.048 1.824 4.064 2.752 6.048l.608.512a27.167 27.167 0 006.432-1.184l.096-.704a112.47 112.47 0 01-4.608-6.656zm-3.296-5.536c0 1.536-.512 2.432-1.728 2.976l-2.336-.128.128-5.344 1.152-.096c1.952.096 2.784.864 2.784 2.592zm24.035-6.56l-.352-.448h-15.456l-.352 4.672.384.448 4.256-.192h.416l.16 9.696-.32 6.08h6.4l-.256-6.72.16-9.056h.384l4.224.192.352-4.672z" fill="#2C1E25"/><g clip-path="url(#clip0)"><path d="M70.107 197.599l.989-5.598-.989-7.28-4.54-5.913-.68-3.641 4.995-12.156 9.11-20.59 11.687-24.28 12.016-28.149 10.649-11.003 11.511-1.487 11.319 4.758 4.992 9.743.775 10.989-3.663 7.843-6.892 6.325-8.776 4.147-4.546 5.115 1.409 10.171 3.84 19.104.529 11.734-3.266 10.009-6.306.941-6.672 2.111-6.276 4.277-4.866 7.389-1.222 4.535-25.127.906z" fill="#FFF1F0"/><path d="M107.926 98.058l1.825 2.324-1.299 4.4-3.526 1.373-3.279-3.927 2.212-3.717 4.067-.453zM101.211 114.118l1.788 3.329-2.139 5.545-3.653-.814-2.162-4.397 1.778-3.92 4.388.257zM93.746 129.347l1.608 2.702-1.4 3.658-3.171 1.212-2.496-2.181-.514-4.51 1.534-1.15 4.439.269zM86.816 143.497l1.954 2.46-2.277 4.608-3.677-1.298-1.154-2.948 2.186-3.003 2.968.181zM81.27 157.048l1.165 3.376-2.06 3.032-3.398.202-1.557-4.129 2.426-3.243 3.424.762zM75.901 170.879l.424 3.478-3.321 1.765-2.866-.638-.965-2.719 2.366-3.576 4.337.965.025.725zM70.065 162.545l-2.167-.908-1.793.879-6.028-1.981-.244-1.653 2.759-4.021 6.841 2.988-.406 1.588 1.896 1.168-.858 1.94zM75.63 149.985l-1.623-.361-.9 1.052-4.384-1.349-3.195-2.63s2.542-4.363 2.694-4.329c.152.034 3.59.373 3.59.373l2.93 2.145 1.305 1.675-.883.736 1.31.691-.843 1.997zM81.365 137.488l-1.962-.996-.547 1.024-4.616-1.028-2.547-1.712 1.159-5.204 2.46.548 4.26 2.387 1.527 1.512-.933.485 2.186.939-.987 2.045zM87.666 124.371l-1.837-1.075-.294 1.32-2.947-1.349-5.168-2.855.89-2.44 1.358-1.562 3.663 2.44 3.41 1.425-.401 1.083 2.313.968-.987 2.045zM93.961 110.454l-2.395-1.199-.66 1.291-3.487.237-4.71-2.275 1.358-5.026 3.211-3.068 5.78 3.098-.27 2.285.062 1.639 2.05.829-.939 2.189zM100.251 95.709l-1.832-.861-2.817 2.97-4.083-1.629-1.458-4.214.808-3.63 3.923-3.15 5.638 2.774-.778 4.809 1.646.5-1.047 2.43z" fill="#2C1E25"/><path d="M73.006 176.122l-1.164 21.44h1.033l1.075-22.455-.944 1.015zM77.004 197.358l3.888-34.666-.747.126-3.864 34.54h.723zM80.068 197.252l6.127-47.499.572-.539-5.597 48.038h-1.102zM84.43 197.081l8.148-62.133.634.141-8.014 61.992h-.767zM88.639 196.913l11.142-76.026.66.147-11.2 75.879h-.602zM92.144 196.776l15.668-94.375.457.102-15.433 94.273h-.692z" fill="#2C1E25"/><path d="M92.5 167.113l6.417.469.294 3.103-7.029-.473.318-3.099z" fill="#2C1E25"/></g><path d="M49.444 224.867c2.08 0 3.783.468 5.109 1.404 1.326.91 1.989 2.197 1.989 3.861 0 1.066-.325 2.197-.975 3.393-.624 1.17-1.69 2.509-3.198 4.017l-1.716 1.716.117.195h3.003l3.783-.39.39.468-.858 6.006-5.616-.312h-8.97l-1.404.117-.351-.273v-4.602l4.992-4.29c1.066-.962 1.859-1.755 2.379-2.379.546-.624.819-1.157.819-1.599 0-.598-.455-.897-1.365-.897-.702 0-1.495.182-2.379.546a10.6 10.6 0 00-2.535 1.404h-.819l-1.287-5.928c3.224-1.638 6.188-2.457 8.892-2.457zm24.609 1.131l-.117 4.524h2.652l4.524-.117.429.546-.468 5.694-5.031-.117H73.78v.507l.312 8.19h-7.839l.39-7.41-.39-17.823h16.848l.429.546-.507 5.694-6.24-.234h-2.73zm21.945.78c.337 0 .636.026.896.078v6.825l-.74.234c-.338-.208-.806-.312-1.404-.312-.573 0-1.183.13-1.834.39a6.578 6.578 0 00-1.754 1.092v1.95l.311 8.19h-7.605l.352-7.41-.273-10.569 7.215-.507v3.432h.35c1.118-2.262 2.614-3.393 4.486-3.393zm10.655-.429c2.392 0 4.238.494 5.538 1.482 1.3.962 1.95 2.353 1.95 4.173 0 .52-.052 1.898-.156 4.134-.104 1.976-.156 3.081-.156 3.315 0 .286.039.494.117.624a.52.52 0 00.429.195c.182 0 .403-.039.663-.117l.468.39-.663 3.9c-.962.676-2.171 1.066-3.627 1.17a3.626 3.626 0 01-2.028-.78c-.572-.468-1.014-1.131-1.326-1.989h-.273c-1.144 1.326-2.444 2.262-3.9 2.808-1.976-.026-3.562-.572-4.758-1.638-1.17-1.092-1.755-2.574-1.755-4.446 0-2.886 1.495-4.537 4.485-4.953l5.538-.741v-.468c0-.676-.143-1.157-.429-1.443-.26-.286-.728-.429-1.404-.429-1.456 0-3.341.624-5.655 1.872l-.468-.312-.82-4.797a16.866 16.866 0 013.94-1.443 18.932 18.932 0 014.29-.507zm-1.677 11.154c-.364.052-.637.195-.819.429-.156.208-.234.533-.234.975 0 1.04.481 1.56 1.443 1.56.624 0 1.235-.208 1.833-.624v-2.652l-2.223.312zm23.358 7.722l.39-10.296c0-1.586-.611-2.379-1.833-2.379-.598 0-1.209.182-1.833.546v3.939l.312 8.19h-7.605l.351-7.41-.273-10.569 7.215-.507v2.73h.273c1.352-1.352 2.873-2.314 4.563-2.886 1.95 0 3.432.442 4.446 1.326 1.04.884 1.534 2.158 1.482 3.822l-.156 5.304.273 8.19h-7.605zm24.958-10.257c1.222 2.496 2.873 5.499 4.953 9.009l-.039.78c-1.69.338-4.069.65-7.137.936l-.78-.39a60.478 60.478 0 01-3.9-8.697v.429l.312 8.19h-7.605l.351-7.41-.273-19.461 7.566-.507-.312 16.692 2.964-5.538.819-2.184h7.761l-4.68 8.151z" fill="#2C1E25"/><path d="M5.438 199.961l193.258-13.591v11.574L5.75 211.182l-.313-11.221z" fill="#2E5A9C"/><path d="M18.89 199.01l-13.488.949.16 11.237 14.06-.963-.731-11.223z" fill="#3F7AD3"/><defs><clipPath id="clip0"><path fill="#fff" transform="rotate(12.55 -267.086 398.288)" d="M0 0h68v132H0z"/></clipPath></defs></svg>