<svg width="261" height="131" fill="none" xmlns="http://www.w3.org/2000/svg"><mask id="a" maskUnits="userSpaceOnUse" x=".125" y="-1" width="261" height="340" fill="#000"><path fill="#fff" d="M.125-1h261v340h-261z"/><path fill-rule="evenodd" clip-rule="evenodd" d="M91.022 72.976c.09 2.6.168 4.986.219 6.942l-.004-.004c.039 1.467.062 2.691.062 3.583 0 .986-.034 2.315-.073 3.888-.24 9.58-.704 28.189 4.733 33.219 1.499 1.386 3.42 2.474 5.616 3.329-.554.367-1.138.744-1.491.969l.003.012-.006-.012-6.452 2.551.004-.043c-2.401 1.029-7.657 3.239-10.243 4.182-6.516.942-18.347 4.071-28.835 11.448-13.083 9.201-20.255 26.288-25.452 38.671-.819 1.95-1.589 3.784-2.325 5.452a7451.16 7451.16 0 01-10.954 24.618c-2.722 1.905-4.946 4.364-6.813 9.127-1.046 2.668-2.778 9.324-1.337 14.612 1.801 6.609 17.828 35.049 26.325 36.392 8.498 1.343 14.139-5.297 15.68-7.556 1.33-1.946 7.52-12.698 8.858-22.91l1.405.385-1.065 44.314 8.186.134c-2.303 14.913-5.204 28.554-6.776 35.091 23.065 7.529 81.636 18.07 131.399 0 1.134-15.055-.341-24.713-2.414-33.101l24.648.401-2.07-37.97c1.479 3.478 2.933 6.087 3.466 6.916 1.301 2.023 6.094 7.995 13.56 7.006 7.466-.988 22.106-25.652 23.825-31.428 1.375-4.621.003-10.519-.855-12.89-2.287-6.325-5.384-8.144-9.57-10.603-.733-.431-1.5-.881-2.301-1.378.352-.291.555-.47.555-.47-8.691-6.993-21.945-31.162-21.618-34.803.409-4.552.899-10.015-3.161-9.214-.361-.562-1.189-2.324-1.61-4.875-.235-1.427-3.755-2.499-7.744-3.196l-.244-.306-.087-.109-.095-.117-.077-.097-.131-.161c-10.422-12.868-30.955-17.559-38.259-18.661-2.493-.802-4.986-1.833-6.292-2.984l.001-.004c-1.255-.896-4.661-4.661-6.992-7.349l-.07.098c-.297-.339-.718-.718-1.162-1.082 3.51-1.035 6.422-2.586 8.006-4.915.828-1.216 1.294-2.643 1.294-4.319 0-3.547-.658-19.16-1.301-34.423l-.002-.043c-.168-3.99-.335-7.956-.489-11.675 4.28-6.634 5.434-14.925 2.685-16.452-1.279-.71-2.406-.189-3.297.759-.082-2.45-.125-4.161-.111-4.844l.005-.168.001-.018c.179-3.227 0-20.317-1.255-24.918-.831-3.047-9.322-12.01-20.974-15.416-11.652-3.406-22.766-.538-27.427 1.971-4.661 2.51-16.85 9.322-18.822 21.153-1.049 6.29-.96 13.103-.912 16.736v.001l.003.232c.007.513.012.956.012 1.316 0 1.703.03 3.732.08 5.944-.781-.587-1.701-.801-2.718-.236-2.867 1.592-1.489 10.544 3.255 17.298z"/></mask><path d="M91.24 79.918l-5.44 4.404 12.976 16.033-.537-20.62-6.998.183zm-.218-6.942l6.996-.24-.071-2.08-1.196-1.703-5.729 4.023zm.215 6.938l5.442-4.404-12.977-16.034.538 20.62 6.998-.182zm-.01 7.471l-6.999-.175 6.998.175zm4.732 33.219l-4.753 5.139 4.753-5.139zm5.616 3.329l3.866 5.836 11.261-7.46-12.588-4.899-2.539 6.523zm-1.491.969l-3.758-5.906-4.175 2.657 1.112 4.822 6.821-1.573zm.003.012l-6.323 3.004 13.144-4.578-6.821 1.574zm-.006-.012l6.323-3.004-2.809-5.912-6.087 2.407 2.573 6.509zm-6.452 2.551l-6.971-.638-1.038 11.332 10.582-4.184-2.573-6.51zm.004-.043l6.971.638 1.071-11.7-10.8 4.628 2.758 6.434zm-10.243 4.182l1.002 6.928.717-.103.68-.248-2.399-6.577zM54.555 143.04l4.027 5.725-4.027-5.725zm-25.452 38.671l-6.455-2.709 6.455 2.709zm-2.325 5.452l-6.404-2.826 6.404 2.826zm-10.954 24.618l4.015 5.733 1.587-1.111.79-1.768-6.392-2.854zm-6.813 9.127l6.517 2.555-6.517-2.555zM7.674 235.52l6.754-1.841-6.754 1.841zM34 271.912l1.093-6.914L34 271.912zm15.68-7.556l-5.78-3.947 5.78 3.947zm8.858-22.91l1.853-6.751-7.749-2.127-1.045 7.968 6.941.91zm1.405.385l6.998.169.132-5.47-5.277-1.449-1.853 6.75zm-1.065 44.314l-6.998-.168-.17 7.053 7.054.114.114-6.999zm8.186.134l6.918 1.068 1.225-7.937-8.029-.13-.114 6.999zm-6.776 35.091l-6.806-1.637-1.512 6.285 6.146 2.006 2.172-6.654zm131.399 0l2.389 6.58 4.252-1.544.339-4.51-6.98-.526zm-2.414-33.101l.114-6.999-9.09-.148 2.181 8.826 6.795-1.679zm24.648.401l-.114 6.999 7.513.123-.409-7.503-6.99.381zm-2.07-37.97l6.441-2.74-13.431 3.121 6.99-.381zm3.466 6.916l5.888-3.786-5.888 3.786zm37.385-24.422l6.709 1.997-6.709-1.997zm-.855-12.89l-6.582 2.381 6.582-2.381zm-9.57-10.603l3.545-6.036-3.545 6.036zm-2.301-1.378l-4.462-5.394-7.502 6.206 8.272 5.135 3.692-5.947zm.555-.47l4.618 5.26 6.257-5.494-6.487-5.219-4.388 5.453zm-21.618-34.803l-6.972-.626 6.972.626zm-3.161-9.214l-5.888 3.786 2.574 4.001 4.667-.92-1.353-6.867zm-1.61-4.875l6.907-1.138-6.907 1.138zm-7.744-3.196l-5.483 4.352 1.655 2.085 2.622.458 1.206-6.895zm-.244-.306l5.466-4.373-.004-.005-5.462 4.378zm-.087-.109l5.462-4.378-.005-.006-5.457 4.384zm-.095-.117l5.458-4.384-.007-.008-5.451 4.392zm-.077-.097l5.45-4.392-.006-.008-5.444 4.4zm-.131-.161l5.444-4.4-.004-.006-5.44 4.406zm-38.259-18.661l-2.142 6.664.539.173.559.084 1.044-6.921zm-6.292-2.984l-6.968-.669-.341 3.558 2.681 2.363 4.628-5.252zm.001-.004l6.968.669.385-4.018-3.285-2.347-4.068 5.696zm-6.992-7.349l5.29-4.585-5.789-6.68-5.175 7.166 5.674 4.099zm-.07.098l-5.261 4.617 5.87 6.69 5.118-7.282-5.727-4.025zm-1.162-1.082l-1.978-6.715-12.691 3.739 10.23 8.388 4.439-5.412zm8.006-4.915l-5.785-3.941-.002.004 5.787 3.937zm-.007-38.742l6.994-.295-6.994.295zm-.002-.043l-6.994.294v.001l6.994-.295zm-.489-11.675l-5.882-3.795-1.204 1.866.092 2.219 6.994-.29zm2.685-16.452l3.4-6.12-3.4 6.12zm-3.297.759l-6.996.234.563 16.823 11.532-12.261-5.099-4.796zm-.111-4.844l-6.999-.134 6.999.134zm.005-.168l-6.991-.363v.01l-.001.01 6.992.343zm.001-.018l-6.989-.389-.001.013-.001.012 6.991.364zm-1.255-24.918l6.753-1.842-6.753 1.842zM137.551 8.561l-1.964 6.718 1.964-6.718zm-27.427 1.971l3.319 6.164-3.319-6.164zM91.302 31.685l-6.905-1.15 6.905 1.15zm-.912 16.736l-7 .092.001.012v.013l7-.117zm0 .001l7-.091v-.025l-7 .116zm.003.232l7-.09v-.001l-7 .091zm.093 7.26l-4.202 5.599 11.526 8.649-.326-14.407-6.998.159zm-2.719-.236l3.4 6.119-3.4-6.12zm10.472 24.058c-.052-1.988-.132-4.4-.22-7l-13.993.48c.09 2.6.167 4.96.217 6.885l13.996-.365zm-12.443 4.582l.004.004 10.882-8.808-.003-.004-10.883 8.808zm12.503-.821c0-.987-.025-2.286-.064-3.766l-13.995.366c.038 1.453.059 2.603.059 3.4h14zm-.075 4.063c.038-1.536.075-2.97.075-4.063h-14c0 .877-.03 2.104-.07 3.713l13.995.35zm2.489 27.905c.091.085-.464-.479-1.072-2.687-.555-2.011-.952-4.626-1.2-7.652-.499-6.045-.338-12.722-.217-17.566l-13.996-.35c-.118 4.736-.31 12.154.26 19.065.284 3.453.776 7.032 1.656 10.224.826 2.996 2.252 6.644 5.062 9.244l9.507-10.278zm3.401 1.945c-1.65-.642-2.732-1.326-3.401-1.945l-9.507 10.278c2.328 2.153 5.088 3.646 7.83 4.714l5.078-13.047zm-.272 13.397c.381-.242 1.002-.642 1.599-1.038l-7.732-11.671a97.88 97.88 0 01-1.383.898l7.516 11.811zm3.066-7.467l-.003-.012-13.642 3.147.003.013 13.642-3.148zm-13.15 4.566l.006.012 12.645-6.008-.005-.012-12.645 6.008zm2.444 6.057l6.453-2.551-5.147-13.019-6.453 2.551 5.147 13.019zm-9.54-7.191l-.004.043 13.942 1.277.004-.044-13.942-1.276zm-.873 11.397c2.797-1.021 8.231-3.309 10.601-4.325l-5.515-12.868c-2.432 1.042-7.51 3.175-9.883 4.04l4.797 13.153zm-27.207 10.596c9.34-6.569 20.036-9.41 25.81-10.245l-2.003-13.856c-7.259 1.049-20.224 4.466-31.861 12.65l8.054 11.451zM35.557 184.42c5.386-12.833 11.89-27.823 23.025-35.655l-8.054-11.451c-15.03 10.571-22.871 29.755-27.88 41.688l12.91 5.418zm-2.375 5.569c.767-1.737 1.563-3.633 2.375-5.569l-12.909-5.418a332.181 332.181 0 01-2.274 5.335l12.808 5.652zm-10.967 24.646a7313.443 7313.443 0 0010.967-24.646l-12.808-5.652a7419.202 7419.202 0 01-10.942 24.589l12.783 5.709zm-6.687 8.828c1.38-3.519 2.753-4.857 4.311-5.949l-8.031-11.467c-3.884 2.72-6.96 6.3-9.314 12.306l13.034 5.11zm-1.1 10.216c-.37-1.354-.403-3.275-.09-5.448.306-2.119.86-3.928 1.19-4.768l-13.034-5.11c-.717 1.828-1.55 4.681-2.012 7.879-.454 3.144-.633 7.195.438 11.128l13.508-3.681zm20.664 31.319c.518.081.399.212-.454-.412-.764-.56-1.753-1.458-2.935-2.741-2.36-2.562-4.978-6.096-7.517-9.983a138.745 138.745 0 01-6.629-11.297c-1.887-3.613-2.898-6.036-3.129-6.886L.92 237.36c.67 2.455 2.337 6.066 4.227 9.685 1.99 3.81 4.542 8.223 7.318 12.474 2.755 4.217 5.85 8.457 8.941 11.812 1.544 1.675 3.214 3.271 4.96 4.55 1.658 1.214 3.898 2.527 6.54 2.945l2.186-13.828zm8.807-4.589c-.428.626-1.623 2.112-3.33 3.249-1.617 1.076-3.398 1.668-5.477 1.34l-2.186 13.828c6.42 1.014 11.707-1.042 15.421-3.515 3.623-2.412 6.02-5.375 7.134-7.008l-11.562-7.894zm7.697-19.873c-.545 4.157-2.134 8.699-3.882 12.608-1.748 3.911-3.433 6.705-3.815 7.265l11.562 7.894c.946-1.386 3.02-4.941 5.034-9.446 2.014-4.506 4.189-10.446 4.983-16.501l-13.882-1.82zm10.2-5.455l-1.406-.386-3.706 13.501 1.405.386 3.706-13.501zm4.079 51.233L66.94 242l-13.996-.337-1.065 44.314 13.996.337zm1.302-7.034l-8.186-.134-.228 13.998 8.186.134.228-13.998zm-.084 43.727c1.614-6.712 4.554-20.542 6.888-35.66l-13.836-2.136c-2.271 14.709-5.134 28.16-6.664 34.522l13.612 3.274zm122.204-8.217c-47.697 17.32-104.515 7.212-126.838-.075l-4.344 13.309c23.807 7.772 84.131 18.745 135.96-.074l-4.778-13.16zm-6.82-24.842c1.911 7.735 3.302 16.647 2.229 30.896l13.96 1.052c1.195-15.862-.364-26.265-2.598-35.306l-13.591 3.358zm31.557-8.277l-24.648-.401-.228 13.998 24.648.401.228-13.998zm-9.174-30.59l2.071 37.97 13.979-.762-2.071-37.97-13.979.762zm16.344 2.749c-.272-.422-1.549-2.663-2.913-5.87l-12.883 5.48c1.595 3.75 3.225 6.725 4.02 7.962l11.776-7.572zm6.753 3.853c-1.541.204-2.865-.255-4.131-1.15-1.355-.958-2.3-2.202-2.622-2.703l-11.776 7.572c.979 1.521 3.081 4.275 6.315 6.562 3.322 2.349 8.127 4.382 14.052 3.598l-1.838-13.879zm18.035-26.486c-.193.649-1.09 2.69-2.819 5.826a121.28 121.28 0 01-6.002 9.722c-2.293 3.343-4.63 6.351-6.705 8.505-1.039 1.078-1.881 1.804-2.499 2.235-.709.494-.671.286-.01.198l1.838 13.879c2.528-.335 4.656-1.531 6.184-2.596 1.619-1.13 3.159-2.539 4.568-4.002 2.824-2.93 5.654-6.633 8.17-10.302a134.798 134.798 0 006.716-10.881c1.733-3.143 3.311-6.352 3.977-8.59l-13.418-3.994zm-.728-8.512c.249.689.681 2.234.896 4.044.221 1.865.14 3.433-.168 4.468l13.418 3.994c1.067-3.585.988-7.277.652-10.109-.342-2.887-1.024-5.476-1.633-7.159l-13.165 4.762zm-6.534-6.949c2.222 1.305 3.275 1.964 4.142 2.814.712.699 1.542 1.786 2.392 4.135l13.165-4.762c-1.438-3.977-3.3-6.961-5.755-9.368-2.3-2.256-4.888-3.736-6.853-4.89l-7.091 12.071zm-2.447-1.466c.885.549 1.722 1.041 2.447 1.466l7.091-12.071a98.866 98.866 0 01-2.154-1.29l-7.384 11.895zm4.247-6.417l-4.619-5.26h.001v-.001h.001l.002-.002.002-.002.001-.001-.01.009-.071.061c-.069.059-.179.152-.324.272l8.924 10.787c.207-.171.374-.312.495-.415l.145-.125.045-.04.016-.013.006-.006.002-.002.001-.001h.001l-4.618-5.261zm-28.59-35.429c-.114 1.267.087 2.382.221 3.008.157.733.376 1.459.603 2.127.456 1.339 1.088 2.852 1.81 4.415 1.453 3.148 3.469 6.943 5.74 10.784 4.357 7.368 10.392 16.176 15.828 20.549l8.776-10.907c-3.255-2.62-8.192-9.393-12.553-16.768-2.088-3.531-3.868-6.899-5.079-9.524-.611-1.324-1.028-2.353-1.268-3.059a8.355 8.355 0 01-.159-.514l-.009-.039.01.056c.006.035.015.096.024.18.014.142.042.48 0 .944l-13.944-1.252zm5.164-1.721c-.205.041-.762.118-1.527-.049a4.98 4.98 0 01-2.266-1.173c-1.159-1.052-1.249-2.113-1.19-1.792.034.187.078.69.045 1.642-.032.916-.12 1.918-.226 3.093l13.944 1.252c.173-1.928.552-5.516.01-8.494-.275-1.513-.978-4.074-3.174-6.068-2.57-2.332-5.746-2.654-8.322-2.146l2.706 13.735zm-9.869-10.604c.551 3.344 1.673 6.038 2.628 7.523l11.776-7.573c.119.185.141.25.089.142a5.68 5.68 0 01-.189-.46 10.71 10.71 0 01-.491-1.908l-13.813 2.276zm-2.044 2.561c1.828.32 3.205.672 4.006.975.423.161.353.185.056-.033a4.605 4.605 0 01-.93-.936 5.814 5.814 0 01-1.088-2.567l13.813-2.276c-.496-3.012-2.495-4.762-3.515-5.51-1.147-.842-2.391-1.397-3.376-1.77-2.015-.763-4.394-1.296-6.555-1.674l-2.411 13.791zm-4.504-2.828l.227.285 10.965-8.704-.26-.327-10.932 8.746zm-.084-.104l.087.108 10.925-8.755-.087-.109-10.925 8.756zm-.089-.111l.094.117 10.915-8.768-.094-.117-10.915 8.768zm-.071-.089l.077.096 10.902-8.783-.078-.097-10.901 8.784zm-.124-.153l.13.161 10.889-8.8-.131-.161-10.888 8.8zm-33.859-16.14c3.26.492 9.68 1.825 16.42 4.503 6.832 2.713 13.311 6.54 17.443 11.643l10.88-8.812c-6.29-7.765-15.289-12.718-23.155-15.843-7.958-3.16-15.456-4.724-19.499-5.334l-2.089 13.843zm-9.876-4.653c2.525 2.225 6.335 3.61 8.778 4.396l4.285-13.328c-1.084-.349-2.055-.712-2.824-1.064-.858-.392-1.087-.6-.982-.507l-9.257 10.503zm-2.339-5.925l-.001.004 13.936 1.338.001-.004-13.936-1.338zm-5.313-2.096a168.618 168.618 0 004.077 4.545c1.163 1.244 2.826 2.981 4.135 3.916l8.137-11.392c.165.118.05.05-.466-.454a55.66 55.66 0 01-1.583-1.634 157.507 157.507 0 01-3.721-4.15l-10.579 9.169zm10.946-.461a.235.235 0 00.018-.025l-11.349-8.197a7.933 7.933 0 00-.122.172l11.453 8.05zm-11.328.305c.144.118.253.213.327.282l.062.058a.557.557 0 01-.049-.053l10.523-9.234c-.673-.766-1.439-1.43-1.986-1.878l-8.877 10.825zm6.658-14.264c-.214.314-1.215 1.258-4.197 2.137l3.956 13.429c4.037-1.189 8.862-3.349 11.816-7.692l-11.575-7.874zm.081-.382c0 .18-.023.263-.029.282a.33.33 0 01-.05.096l11.571 7.882c1.629-2.392 2.508-5.195 2.508-8.26h-14zm-1.295-34.128c.65 15.405 1.295 30.776 1.295 34.128h14c0-3.742-.67-19.598-1.307-34.718l-13.988.59zm-.002-.043l.002.043 13.988-.59-.002-.044-13.988.591zm-.489-11.68c.154 3.721.321 7.69.489 11.68l13.988-.59c-.168-3.991-.335-7.954-.489-11.67l-13.988.58zm6.28-10.623a4.75 4.75 0 01-1.811-1.741 3.273 3.273 0 01-.261-.558 1.488 1.488 0 01-.06-.211c-.003-.015.022.119.018.43a8.563 8.563 0 01-.111 1.199c-.324 2.087-1.315 4.896-2.943 7.419l11.764 7.59c2.652-4.11 4.378-8.765 5.013-12.863.315-2.026.42-4.278.005-6.429-.381-1.976-1.497-5.23-4.815-7.074l-6.799 12.238zm5.201-.564c-.056.06-.58.617-1.649.926a4.85 4.85 0 01-1.923.154 4.469 4.469 0 01-1.629-.516l6.799-12.238c-2.202-1.223-4.723-1.547-7.141-.847-2.175.63-3.708 1.922-4.655 2.93l10.198 9.59zm-12.209-9.773c-.018.91.034 2.837.114 5.211l13.992-.468c-.085-2.527-.117-4.02-.109-4.477l-13.997-.266zm.012-.378c-.007.139-.01.27-.012.377l13.997.268v-.005l-.002.046-13.983-.686zm.002-.04l-.001.02 13.981.727.001-.019-13.981-.727zm-1.017-22.711c.125.46.336 1.804.527 4.117.178 2.145.308 4.691.395 7.254.178 5.217.168 10.034.097 11.316l13.978.777c.108-1.945.097-7.286-.083-12.57-.092-2.688-.231-5.48-.434-7.933-.19-2.287-.472-4.803-.974-6.645l-13.506 3.684zm-16.185-10.54c4.726 1.382 8.931 3.94 12.046 6.517 1.548 1.28 2.731 2.488 3.512 3.43.976 1.18.833 1.35.627.593l13.506-3.684c-.622-2.28-2.138-4.374-3.351-5.838-1.409-1.702-3.233-3.52-5.369-5.287-4.25-3.517-10.116-7.144-17.043-9.168l-3.928 13.437zm-22.144 1.417c3.225-1.737 12.448-4.25 22.144-1.417l3.928-13.437c-13.608-3.978-26.613-.756-32.71 2.527l6.638 12.327zm-15.237 16.14c.629-3.768 2.951-7.107 6.186-10.024 3.218-2.901 6.803-4.906 9.051-6.116l-6.638-12.327c-2.412 1.3-7.252 3.955-11.788 8.046-4.518 4.073-9.276 10.057-10.62 18.12l13.81 2.301zM97.39 48.33c-.049-3.69-.115-9.907.816-15.493l-13.81-2.302c-1.165 6.992-1.052 14.404-1.005 17.979l13.999-.184zm0-.023v-.002l-13.999.234v.001l13.998-.233zm.003.257l-.003-.232-13.999.183.003.232 13.999-.183zm.012 1.407c0-.413-.006-.9-.012-1.407l-13.999.182c.007.52.011.917.011 1.225h14zm.08 5.785c-.05-2.186-.08-4.157-.08-5.785h-14c0 1.778.032 3.865.083 6.102l13.996-.317zm-6.319 6.042c-.673.374-1.67.655-2.81.514-1.053-.13-1.754-.56-2.072-.798l8.403-11.198c-1.1-.826-2.652-1.656-4.614-1.898-2.05-.254-4.015.202-5.705 1.142l6.799 12.238zm5.585 7.156c-1.78-2.533-2.915-5.5-3.317-7.779-.205-1.16-.154-1.778-.135-1.892.057-.331-.111 1.392-2.133 2.515l-6.798-12.238c-3.455 1.919-4.526 5.358-4.869 7.364-.38 2.224-.226 4.565.148 6.685.756 4.284 2.682 9.17 5.647 13.391l11.457-8.046z" fill="#fff" mask="url(#a)"/><path d="M102.775 123.109c-.574.43-2.032 1.374-2.689 1.793l3.764 16.312 13.087 11.294h23.662c4.84-8.425 14.341-25.491 13.624-26.352-.717-.86-2.33-2.031-3.047-2.509-15.895-.359-47.827-.968-48.401-.538z" fill="#BA87A0"/><path d="M154.224 125.977c-1.865 2.581-12.609 20.794-17.747 29.578h18.643c2.33-5.557 5.557-16.672 6.095-22.229-1.255-.896-4.661-4.661-6.991-7.349z" fill="#5C414E"/><path d="M54.557 143.04c12.115-8.521 26.02-11.374 31.458-11.736v20.821c-2.635-.534 3.374 15.394 0 14.711-1.896 5.03-3.89 62.937-7.835 80.001l-69.5-19.078c4.23-9.447 13.773-30.791 18.1-40.596 5.41-12.256 12.633-33.473 27.777-44.123z" fill="#805A6D"/><path d="M108.688 143.008l-8.605-18.106-7.708 3.048 3.227 27.068 26.889-.537-6.812-13.804-6.991 2.331z" fill="#5C414E"/><path d="M83.058 131.712c2.438-.86 8.067-3.226 10.577-4.302-.574 6.167 1.792 20.974 3.047 27.607-3.645.059-11.33.179-12.907.179-1.792-5.02-.717-20.974-.717-23.484z" fill="#A5778D"/><path d="M87.77 55.678c2.58-1.434 4.54 2.15 5.198 4.123v15.596c-6.275-6.812-8.426-17.927-5.199-19.72zM163.184 53.166c-2.581-1.434-4.541 2.151-5.199 4.123v15.596c6.275-6.812 8.426-17.926 5.199-19.719z" fill="#EFBCAD"/><path d="M91.304 83.492c0-5.593-.897-24.32-.897-33.522 0-2.868-.328-10.935.897-18.285 1.972-11.83 14.161-18.643 18.822-21.153 4.661-2.51 15.775-5.377 27.427-1.971 11.652 3.405 20.143 12.369 20.974 15.416 1.255 4.601 1.434 21.69 1.255 24.918-.179 3.226 2.509 59.694 2.509 66.864 0 11.296-21.172 11.295-31.659 11.294h-.249c-10.398 0-27.248.179-34.419-6.454-6.33-5.855-4.66-30.116-4.66-37.107z" fill="#FFC9BA"/><path d="M137.912 53.556c-1.004 1.148-4.959 4.303-6.812 5.737-2.33 2.33.896 1.972 3.765.896 2.868-1.075 4.123-1.792 9.501-1.792 5.377 0 6.991 2.868 9.859 1.792 2.868-1.075 1.613-3.944 1.076-4.302-.538-.359-.717-.359-1.972-2.33-1.255-1.972-4.303-1.972-5.199-1.076-.896.896-1.972.538-3.764-.896-1.793-1.434-5.199.538-6.454 1.971z" fill="#DC7D7D"/><path fill-rule="evenodd" clip-rule="evenodd" d="M90.396 48.665c3.021 2.163 7.234 3.577 12.74 2.563 6.005-1.107 12.742-6.148 18.152-10.198 6.865-5.138 11.596-8.678 9.992-.558-2.868 14.52 7.888 6.812 8.964 4.481 1.075-2.33 8.963-15.775 14.52-4.481 2.121 4.311 3.783 6.998 5.012 8.61a4.11 4.11 0 01.006-.188c.179-3.226 0-20.316-1.255-24.917-.831-3.047-9.322-12.01-20.974-15.416-11.652-3.406-22.766-.538-27.427 1.971-4.661 2.51-16.85 9.322-18.822 21.153-1.049 6.29-.96 13.103-.912 16.736l.004.244z" fill="#DC7D7D"/><path d="M107.973 59.114c-4.124 1.075-6.334.956-8.247 1.075-1.971.152-6.632-.538-6.632-2.33 0-1.434 1.792-1.673 2.689-1.614.657.12 3.094-.09 4.84-.896 2.33-1.075 7.35-1.972 12.01-2.51 4.661-.537 6.812.538 6.095 1.435-.717.896-1.434 2.688-2.151 4.84-.717 2.15-2.151 1.075-2.868.537-.717-.537-3.377-1.153-5.736-.537z" fill="#DC7D7D"/><path d="M96.49 65.153c2.622-1.522 9.721-3.974 17.144-1.604-1.397 5.344-9.738 7.309-17.144 1.604zM134.494 65.512c2.621-1.522 9.721-3.974 17.144-1.604-1.397 5.344-9.738 7.309-17.144 1.604z" fill="#FFF3F1"/><path fill-rule="evenodd" clip-rule="evenodd" d="M109.456 67.967c.282-.843.247-1.884.006-2.985-.238-1.086-.599-1.884-1.158-2.372a23.301 23.301 0 00-4.413.204c-1.337.78-2.099 2.085-1.731 3.765.142.65.427 1.234.813 1.724 2.402.534 4.656.371 6.483-.336zM144.637 68.944c.789-.925.858-2.358.518-3.91-.194-.89-.473-1.587-.875-2.078a24.302 24.302 0 00-5.915.983c-.527.723-.743 1.633-.512 2.692.09.41.236.794.429 1.145 2.221.961 4.407 1.314 6.355 1.168z" fill="#000"/><path d="M119.658 90.425c-6.542.802 3.549-31.11 5.005-29.65.731.733 2.041-1 2.221 7.322.178 8.252.033 16.479-.539 17.23-1.151 1.511-4.098 4.645-6.687 5.098z" fill="#F0BBAC"/><path fill-rule="evenodd" clip-rule="evenodd" d="M91.24 79.914c.038 1.467.06 2.691.06 3.583 0 .986-.033 2.315-.072 3.888-.24 9.58-.704 28.189 4.733 33.219 6.989 6.465 23.176 6.458 33.618 6.454l.8-.001h.249c10.488.001 31.66.003 31.66-11.293 0-3.478-.632-18.555-1.263-33.528-5.252 4.748-12.527 8.076-20.227 10.934-8.301 3.082-26.746 3.96-33.158.566-6.746-3.57-12.216-8.65-16.4-13.822z" fill="#EDA39B"/><path fill-rule="evenodd" clip-rule="evenodd" d="M135.094 109.778c.295.489-.782 1.018-2.002 1.484-1.233.47-2.751.993-4.901 1.15-2.093.153-3.619-.3-5.615-.384-1.894-.079-4.285.186-5.711-.089-1.47-.283-1.409-.834-1.573-1.313-.178-.515-.741-1.077.588-1.552 1.324-.473 3.819-.675 6.029-.812 1.859-.115 3.548.022 5.284.113 1.597.083 3.137.17 4.396.394 1.508.267 3.223.541 3.505 1.009z" fill="#FFC9BA"/></svg>