<svg width="261" height="131" viewBox="0 0 261 131" fill="none" xmlns="http://www.w3.org/2000/svg">
<mask id="path-1-outside-1" maskUnits="userSpaceOnUse" x="0.125" y="-1" width="261" height="340" fill="black">
<rect fill="white" x="0.125" y="-1" width="261" height="340"/>
<path fill-rule="evenodd" clip-rule="evenodd" d="M91.0222 72.976C91.1112 75.5758 91.1898 77.9624 91.2408 79.9181L91.2375 79.9141C91.2758 81.3806 91.2986 82.6054 91.2986 83.4967C91.2986 84.4827 91.2654 85.8123 91.2261 87.3853C90.9868 96.9652 90.522 115.574 95.9594 120.604C97.4577 121.99 99.3787 123.078 101.575 123.933C101.021 124.3 100.437 124.677 100.084 124.902L100.087 124.914L100.081 124.902L93.6288 127.453L93.6327 127.41C91.2317 128.439 85.9759 130.649 83.3904 131.592C76.874 132.534 65.0433 135.663 54.5548 143.04C41.4721 152.241 34.3001 169.328 29.1027 181.711C28.2841 183.661 27.5144 185.495 26.7784 187.163C24.2229 192.953 19.8486 202.768 15.8237 211.781C13.1024 213.686 10.8781 216.145 9.0107 220.908C7.96488 223.576 6.23345 230.232 7.67423 235.52C9.47521 242.129 25.5017 270.569 33.9993 271.912C42.4969 273.255 48.1378 266.615 49.6798 264.356C51.0086 262.41 57.1981 251.658 58.537 241.446L59.9424 241.831L58.8769 286.145L67.063 286.279C64.7604 301.192 61.8592 314.833 60.287 321.37C83.3521 328.899 141.923 339.44 191.686 321.37C192.82 306.315 191.345 296.657 189.272 288.269L213.92 288.67L211.85 250.7C213.329 254.178 214.783 256.787 215.316 257.616C216.617 259.639 221.41 265.611 228.876 264.622C236.342 263.634 250.982 238.97 252.701 233.194C254.076 228.573 252.704 222.675 251.846 220.304C249.559 213.979 246.462 212.16 242.276 209.701C241.543 209.27 240.776 208.82 239.975 208.323C240.327 208.032 240.53 207.853 240.53 207.853C231.839 200.86 218.585 176.691 218.912 173.05C219.321 168.498 219.811 163.035 215.751 163.836C215.39 163.274 214.562 161.512 214.141 158.961C213.906 157.534 210.386 156.462 206.397 155.765C206.316 155.663 206.234 155.561 206.153 155.459L206.066 155.35L205.971 155.233L205.894 155.136L205.763 154.975C195.341 142.107 174.808 137.416 167.504 136.314C165.011 135.512 162.518 134.481 161.212 133.33L161.213 133.326C159.958 132.43 156.552 128.665 154.221 125.977C154.199 126.007 154.176 126.04 154.151 126.075C153.854 125.736 153.433 125.357 152.989 124.993C156.499 123.958 159.411 122.407 160.995 120.078C161.823 118.862 162.289 117.435 162.289 115.759C162.289 112.212 161.631 96.5987 160.988 81.3358L160.986 81.2925C160.818 77.3022 160.651 73.3367 160.497 69.6178C164.777 62.9839 165.931 54.693 163.182 53.166C161.903 52.4553 160.776 52.9773 159.885 53.9249C159.803 51.4745 159.76 49.764 159.774 49.0811C159.775 49.0156 159.777 48.9596 159.779 48.9133L159.78 48.8945C159.959 45.6678 159.78 28.5781 158.525 23.9771C157.694 20.9296 149.203 11.9665 137.551 8.56054C125.899 5.15456 114.785 8.02275 110.124 10.5324C105.463 13.0421 93.2738 19.8541 91.3017 31.6854C90.2534 37.9742 90.3427 44.7881 90.3903 48.4209L90.3904 48.4223L90.3934 48.6542C90.4 49.1671 90.4052 49.6096 90.4052 49.9701C90.4052 51.673 90.4359 53.702 90.4859 55.9136C89.7037 55.3266 88.7836 55.113 87.767 55.6777C84.9001 57.2704 86.2785 66.2217 91.0222 72.976Z"/>
</mask>
<path d="M91.2408 79.9181L85.7996 84.3219L98.776 100.355L98.2385 79.7357L91.2408 79.9181ZM91.0222 72.976L98.0181 72.7365L97.9469 70.6563L96.7506 68.9529L91.0222 72.976ZM91.2375 79.9141L96.6787 75.5103L83.7019 59.4765L84.2399 80.0967L91.2375 79.9141ZM91.2261 87.3853L84.2282 87.2105L84.2282 87.2105L91.2261 87.3853ZM95.9594 120.604L91.206 125.743L91.206 125.743L95.9594 120.604ZM101.575 123.933L105.441 129.769L116.702 122.309L104.114 117.41L101.575 123.933ZM100.084 124.902L96.3257 118.996L92.1505 121.653L93.2631 126.475L100.084 124.902ZM100.087 124.914L93.7641 127.918L106.908 123.34L100.087 124.914ZM100.081 124.902L106.404 121.898L103.595 115.986L97.5076 118.393L100.081 124.902ZM93.6288 127.453L86.6579 126.815L85.6203 138.147L96.2024 133.963L93.6288 127.453ZM93.6327 127.41L100.604 128.048L101.675 116.348L90.8753 120.976L93.6327 127.41ZM83.3904 131.592L84.3917 138.52L85.1085 138.417L85.7889 138.169L83.3904 131.592ZM54.5548 143.04L58.5817 148.765L58.5817 148.765L54.5548 143.04ZM29.1027 181.711L22.6482 179.002L22.6482 179.002L29.1027 181.711ZM26.7784 187.163L20.3743 184.337L20.3743 184.337L26.7784 187.163ZM15.8237 211.781L19.8393 217.514L21.4255 216.403L22.2152 214.635L15.8237 211.781ZM9.0107 220.908L15.5277 223.463L15.5277 223.463L9.0107 220.908ZM7.67423 235.52L14.428 233.679L14.428 233.679L7.67423 235.52ZM33.9993 271.912L35.0921 264.998L35.0921 264.998L33.9993 271.912ZM49.6798 264.356L43.8987 260.409L43.8987 260.409L49.6798 264.356ZM58.537 241.446L60.39 234.695L52.641 232.568L51.5964 240.536L58.537 241.446ZM59.9424 241.831L66.9404 242L67.0719 236.53L61.7955 235.081L59.9424 241.831ZM58.8769 286.145L51.8789 285.977L51.7093 293.03L58.7629 293.144L58.8769 286.145ZM67.063 286.279L73.9811 287.347L75.2064 279.41L67.177 279.28L67.063 286.279ZM60.287 321.37L53.4811 319.733L51.9694 326.018L58.1148 328.024L60.287 321.37ZM191.686 321.37L194.075 327.95L198.327 326.406L198.666 321.896L191.686 321.37ZM189.272 288.269L189.386 281.27L180.296 281.122L182.477 289.948L189.272 288.269ZM213.92 288.67L213.806 295.669L221.319 295.792L220.91 288.289L213.92 288.67ZM211.85 250.7L218.291 247.96L204.86 251.081L211.85 250.7ZM215.316 257.616L221.204 253.83L221.204 253.83L215.316 257.616ZM252.701 233.194L259.41 235.191L259.41 235.191L252.701 233.194ZM251.846 220.304L245.264 222.685L245.264 222.685L251.846 220.304ZM242.276 209.701L245.821 203.665L245.821 203.665L242.276 209.701ZM239.975 208.323L235.513 202.929L228.011 209.135L236.283 214.27L239.975 208.323ZM240.53 207.853L245.148 213.113L251.405 207.619L244.918 202.4L240.53 207.853ZM218.912 173.05L211.94 172.424L211.94 172.424L218.912 173.05ZM215.751 163.836L209.863 167.622L212.437 171.623L217.104 170.703L215.751 163.836ZM214.141 158.961L221.048 157.823L221.048 157.823L214.141 158.961ZM206.397 155.765L200.914 160.117L202.569 162.202L205.191 162.66L206.397 155.765ZM206.153 155.459L211.619 151.086L211.615 151.081L206.153 155.459ZM206.066 155.35L211.528 150.972L211.523 150.966L206.066 155.35ZM205.971 155.233L211.429 150.849L211.422 150.841L205.971 155.233ZM205.894 155.136L211.344 150.744L211.338 150.736L205.894 155.136ZM205.763 154.975L211.207 150.575L211.203 150.569L205.763 154.975ZM167.504 136.314L165.362 142.978L165.901 143.151L166.46 143.235L167.504 136.314ZM161.212 133.33L154.244 132.661L153.903 136.219L156.584 138.582L161.212 133.33ZM161.213 133.326L168.181 133.995L168.566 129.977L165.281 127.63L161.213 133.326ZM154.221 125.977L159.511 121.392L153.722 114.712L148.547 121.878L154.221 125.977ZM154.151 126.075L148.89 130.692L154.76 137.382L159.878 130.1L154.151 126.075ZM152.989 124.993L151.011 118.278L138.32 122.017L148.55 130.405L152.989 124.993ZM160.995 120.078L155.21 116.137L155.208 116.141L160.995 120.078ZM160.988 81.3358L167.982 81.041L167.982 81.0403L160.988 81.3358ZM160.986 81.2925L153.992 81.5873L153.992 81.5881L160.986 81.2925ZM160.497 69.6178L154.615 65.8227L153.411 67.6887L153.503 69.9076L160.497 69.6178ZM163.182 53.166L166.582 47.0469L166.582 47.0469L163.182 53.166ZM159.885 53.9249L152.889 54.1592L153.452 70.9819L164.984 58.7205L159.885 53.9249ZM159.774 49.0811L152.775 48.9473L152.775 48.9477L159.774 49.0811ZM159.779 48.9133L152.788 48.5496L152.788 48.5599L152.787 48.5702L159.779 48.9133ZM159.78 48.8945L152.791 48.5062L152.79 48.5185L152.789 48.5309L159.78 48.8945ZM158.525 23.9771L165.278 22.1353L165.278 22.1352L158.525 23.9771ZM137.551 8.56054L135.587 15.2794L137.551 8.56054ZM110.124 10.5324L113.443 16.6957L113.443 16.6957L110.124 10.5324ZM91.3017 31.6854L84.3969 30.5344L84.3969 30.5344L91.3017 31.6854ZM90.3903 48.4209L83.3909 48.5127L83.3911 48.5252L83.3913 48.5376L90.3903 48.4209ZM90.3904 48.4223L97.3898 48.3309L97.3896 48.3183L97.3894 48.3057L90.3904 48.4223ZM90.3934 48.6542L97.3928 48.5635L97.3928 48.5627L90.3934 48.6542ZM90.4859 55.9136L86.2844 61.5125L97.8101 70.1615L97.4842 55.7553L90.4859 55.9136ZM87.767 55.6777L91.1665 61.7968L91.1665 61.7968L87.767 55.6777ZM98.2385 79.7357C98.1866 77.7483 98.1071 75.336 98.0181 72.7365L84.0263 73.2156C84.1153 75.8155 84.1931 78.1765 84.2432 80.1006L98.2385 79.7357ZM85.7963 84.3179L85.7996 84.3219L96.682 75.5143L96.6787 75.5103L85.7963 84.3179ZM98.2986 83.4967C98.2986 82.5105 98.2738 81.2111 98.2352 79.7315L84.2399 80.0967C84.2778 81.5502 84.2986 82.7003 84.2986 83.4967H98.2986ZM98.2239 87.5601C98.2623 86.0238 98.2986 84.5909 98.2986 83.4967H84.2986C84.2986 84.3745 84.2685 85.6007 84.2282 87.2105L98.2239 87.5601ZM100.713 115.465C100.804 115.55 100.249 114.986 99.6405 112.778C99.0861 110.767 98.6895 108.152 98.4404 105.126C97.9425 99.0813 98.1029 92.4041 98.2239 87.5601L84.2282 87.2105C84.11 91.9464 83.9183 99.3636 84.4876 106.275C84.772 109.728 85.2638 113.307 86.1441 116.499C86.9701 119.495 88.3956 123.143 91.206 125.743L100.713 115.465ZM104.114 117.41C102.464 116.768 101.382 116.084 100.713 115.465L91.206 125.743C93.5336 127.896 96.2938 129.389 99.0363 130.457L104.114 117.41ZM103.842 130.807C104.223 130.565 104.844 130.165 105.441 129.769L97.7093 118.098C97.1986 118.436 96.6514 118.789 96.3257 118.996L103.842 130.807ZM106.908 123.34L106.905 123.328L93.2631 126.475L93.266 126.488L106.908 123.34ZM93.7586 127.906L93.7641 127.918L106.409 121.91L106.404 121.898L93.7586 127.906ZM96.2024 133.963L102.655 131.412L97.5076 118.393L91.0551 120.944L96.2024 133.963ZM86.6619 126.772L86.6579 126.815L100.6 128.092L100.604 128.048L86.6619 126.772ZM85.7889 138.169C88.5865 137.148 94.0202 134.86 96.3901 133.844L90.8753 120.976C88.4432 122.018 83.3652 124.151 80.992 125.016L85.7889 138.169ZM58.5817 148.765C67.9218 142.196 78.6178 139.355 84.3917 138.52L82.3891 124.664C75.1303 125.713 62.1647 129.13 50.5279 137.314L58.5817 148.765ZM35.5572 184.42C40.9435 171.587 47.4463 156.597 58.5817 148.765L50.5279 137.314C35.4978 147.885 27.6566 167.069 22.6482 179.002L35.5572 184.42ZM33.1824 189.989C33.9492 188.252 34.7447 186.356 35.5572 184.42L22.6482 179.002C21.8235 180.967 21.0796 182.738 20.3743 184.337L33.1824 189.989ZM22.2152 214.635C26.2395 205.624 30.6198 195.796 33.1824 189.989L20.3743 184.337C17.8259 190.111 13.4576 199.912 9.43212 208.926L22.2152 214.635ZM15.5277 223.463C16.9077 219.944 18.2808 218.606 19.8393 217.514L11.808 206.047C7.92408 208.767 4.84839 212.347 2.4937 218.353L15.5277 223.463ZM14.428 233.679C14.0589 232.325 14.0248 230.404 14.3383 228.231C14.6439 226.112 15.1986 224.303 15.5277 223.463L2.4937 218.353C1.77698 220.181 0.943051 223.034 0.481702 226.232C0.0282482 229.376 -0.151197 233.427 0.92049 237.36L14.428 233.679ZM35.0921 264.998C35.61 265.079 35.4909 265.21 34.6382 264.586C33.8742 264.026 32.8848 263.128 31.7025 261.845C29.3422 259.283 26.7248 255.749 24.1859 251.862C21.6685 248.008 19.3451 243.989 17.5573 240.565C15.6704 236.952 14.6594 234.529 14.428 233.679L0.920489 237.36C1.58955 239.815 3.25724 243.426 5.14736 247.045C7.13664 250.855 9.68864 255.268 12.4652 259.519C15.2202 263.736 18.3153 267.976 21.4062 271.331C22.9495 273.006 24.6203 274.602 26.3663 275.881C28.0236 277.095 30.2641 278.408 32.9064 278.826L35.0921 264.998ZM43.8987 260.409C43.4713 261.035 42.2762 262.521 40.5686 263.658C38.9522 264.734 37.1707 265.326 35.0921 264.998L32.9064 278.826C39.3254 279.84 44.6132 277.784 48.3272 275.311C51.9499 272.899 54.3463 269.936 55.4609 268.303L43.8987 260.409ZM51.5964 240.536C51.0513 244.693 49.4615 249.235 47.7139 253.144C45.9658 257.055 44.281 259.849 43.8987 260.409L55.4609 268.303C56.4073 266.917 58.4817 263.362 60.4952 258.857C62.5093 254.351 64.6837 248.411 65.4776 242.356L51.5964 240.536ZM61.7955 235.081L60.39 234.695L56.6839 248.196L58.0894 248.582L61.7955 235.081ZM65.8748 286.314L66.9404 242L52.9444 241.663L51.8789 285.977L65.8748 286.314ZM67.177 279.28L58.9908 279.146L58.7629 293.144L66.9491 293.278L67.177 279.28ZM67.0929 323.007C68.7071 316.295 71.647 302.465 73.9811 287.347L60.145 285.211C57.8739 299.92 55.0112 313.371 53.4811 319.733L67.0929 323.007ZM189.297 314.79C141.6 332.11 84.7818 322.002 62.4592 314.715L58.1148 328.024C81.9224 335.796 142.246 346.769 194.075 327.95L189.297 314.79ZM182.477 289.948C184.388 297.683 185.779 306.595 184.706 320.844L198.666 321.896C199.861 306.034 198.302 295.631 196.068 286.59L182.477 289.948ZM214.034 281.671L189.386 281.27L189.158 295.268L213.806 295.669L214.034 281.671ZM204.86 251.081L206.931 289.051L220.91 288.289L218.839 250.319L204.86 251.081ZM221.204 253.83C220.932 253.408 219.655 251.167 218.291 247.96L205.408 253.44C207.003 257.19 208.633 260.165 209.428 261.402L221.204 253.83ZM227.957 257.683C226.416 257.887 225.092 257.428 223.826 256.533C222.471 255.575 221.526 254.331 221.204 253.83L209.428 261.402C210.407 262.923 212.509 265.677 215.743 267.964C219.065 270.313 223.87 272.346 229.795 271.562L227.957 257.683ZM245.992 231.197C245.799 231.846 244.902 233.887 243.173 237.023C241.547 239.973 239.441 243.434 237.171 246.745C234.878 250.088 232.541 253.096 230.466 255.25C229.427 256.328 228.585 257.054 227.967 257.485C227.258 257.979 227.296 257.771 227.957 257.683L229.795 271.562C232.323 271.227 234.451 270.031 235.979 268.966C237.598 267.836 239.138 266.427 240.547 264.964C243.371 262.034 246.201 258.331 248.717 254.662C251.255 250.961 253.598 247.112 255.433 243.781C257.166 240.638 258.744 237.429 259.41 235.191L245.992 231.197ZM245.264 222.685C245.513 223.374 245.945 224.919 246.16 226.729C246.381 228.594 246.3 230.162 245.992 231.197L259.41 235.191C260.477 231.606 260.398 227.914 260.062 225.082C259.72 222.195 259.038 219.606 258.429 217.923L245.264 222.685ZM238.73 215.736C240.952 217.041 242.005 217.7 242.872 218.55C243.584 219.249 244.414 220.336 245.264 222.685L258.429 217.923C256.991 213.946 255.129 210.962 252.674 208.555C250.374 206.299 247.786 204.819 245.821 203.665L238.73 215.736ZM236.283 214.27C237.168 214.819 238.005 215.311 238.73 215.736L245.821 203.665C245.08 203.23 244.385 202.821 243.667 202.375L236.283 214.27ZM240.53 207.853C235.911 202.593 235.911 202.593 235.911 202.593C235.912 202.593 235.912 202.593 235.912 202.593C235.912 202.593 235.912 202.593 235.912 202.592C235.913 202.592 235.913 202.592 235.913 202.592C235.914 202.591 235.914 202.591 235.915 202.59C235.916 202.589 235.916 202.589 235.917 202.588C235.918 202.587 235.919 202.587 235.918 202.587C235.918 202.587 235.914 202.59 235.908 202.596C235.895 202.607 235.871 202.628 235.837 202.657C235.768 202.716 235.658 202.809 235.513 202.929L244.437 213.716C244.644 213.545 244.811 213.404 244.932 213.301C244.992 213.249 245.041 213.207 245.077 213.176C245.095 213.16 245.11 213.147 245.122 213.136C245.128 213.131 245.133 213.126 245.138 213.123C245.14 213.121 245.142 213.119 245.144 213.117C245.145 213.117 245.145 213.116 245.146 213.115C245.147 213.115 245.147 213.115 245.147 213.114C245.148 213.114 245.148 213.114 245.148 213.114C245.148 213.114 245.148 213.114 245.148 213.114C245.148 213.113 245.148 213.113 240.53 207.853ZM211.94 172.424C211.826 173.691 212.027 174.806 212.161 175.432C212.318 176.165 212.537 176.891 212.764 177.559C213.22 178.898 213.852 180.411 214.574 181.974C216.027 185.122 218.043 188.917 220.314 192.758C224.671 200.126 230.706 208.934 236.142 213.307L244.918 202.4C241.663 199.78 236.726 193.007 232.365 185.632C230.277 182.101 228.497 178.733 227.286 176.108C226.675 174.784 226.258 173.755 226.018 173.049C225.96 172.881 225.919 172.748 225.89 172.648C225.876 172.599 225.866 172.562 225.859 172.535C225.852 172.508 225.85 172.495 225.85 172.496C225.85 172.496 225.854 172.516 225.86 172.552C225.866 172.587 225.875 172.648 225.884 172.732C225.898 172.874 225.926 173.212 225.884 173.676L211.94 172.424ZM217.104 170.703C216.899 170.744 216.342 170.821 215.577 170.654C214.757 170.475 213.961 170.071 213.311 169.481C212.152 168.429 212.062 167.368 212.121 167.689C212.155 167.876 212.199 168.379 212.166 169.331C212.134 170.247 212.046 171.249 211.94 172.424L225.884 173.676C226.057 171.748 226.436 168.16 225.894 165.182C225.619 163.669 224.916 161.108 222.72 159.114C220.15 156.782 216.974 156.46 214.398 156.968L217.104 170.703ZM207.235 160.099C207.786 163.443 208.908 166.137 209.863 167.622L221.639 160.049C221.758 160.234 221.78 160.299 221.728 160.191C221.689 160.109 221.621 159.954 221.539 159.731C221.375 159.283 221.182 158.632 221.048 157.823L207.235 160.099ZM205.191 162.66C207.019 162.98 208.396 163.332 209.197 163.635C209.62 163.796 209.55 163.82 209.253 163.602C209.087 163.48 208.715 163.184 208.323 162.666C207.915 162.128 207.427 161.266 207.235 160.099L221.048 157.823C220.552 154.811 218.553 153.061 217.533 152.313C216.386 151.471 215.142 150.916 214.157 150.543C212.142 149.78 209.763 149.247 207.602 148.869L205.191 162.66ZM200.687 159.832C200.763 159.927 200.839 160.022 200.914 160.117L211.879 151.413C211.793 151.304 211.706 151.195 211.619 151.086L200.687 159.832ZM200.603 159.728L200.69 159.836L211.615 151.081L211.528 150.972L200.603 159.728ZM200.514 159.617L200.608 159.734L211.523 150.966L211.429 150.849L200.514 159.617ZM200.443 159.528L200.52 159.624L211.422 150.841L211.344 150.744L200.443 159.528ZM200.319 159.375L200.449 159.536L211.338 150.736L211.207 150.575L200.319 159.375ZM166.46 143.235C169.72 143.727 176.14 145.06 182.88 147.738C189.712 150.451 196.191 154.278 200.323 159.381L211.203 150.569C204.913 142.804 195.914 137.851 188.048 134.726C180.09 131.566 172.592 130.002 168.549 129.392L166.46 143.235ZM156.584 138.582C159.109 140.807 162.919 142.192 165.362 142.978L169.647 129.65C168.563 129.301 167.592 128.938 166.823 128.586C165.965 128.194 165.736 127.986 165.841 128.079L156.584 138.582ZM154.245 132.657L154.244 132.661L168.18 133.999L168.181 133.995L154.245 132.657ZM148.932 130.561C150.134 131.948 151.63 133.632 153.009 135.106C154.172 136.35 155.835 138.087 157.144 139.022L165.281 127.63C165.446 127.748 165.331 127.68 164.815 127.176C164.384 126.754 163.845 126.196 163.232 125.542C162.012 124.237 160.64 122.694 159.511 121.392L148.932 130.561ZM159.878 130.1C159.888 130.087 159.894 130.079 159.896 130.075L148.547 121.878C148.505 121.936 148.464 121.993 148.425 122.05L159.878 130.1ZM148.55 130.405C148.694 130.523 148.803 130.618 148.877 130.687C148.913 130.72 148.933 130.74 148.939 130.745C148.945 130.752 148.927 130.734 148.89 130.692L159.413 121.458C158.74 120.692 157.974 120.028 157.427 119.58L148.55 130.405ZM155.208 116.141C154.994 116.455 153.993 117.399 151.011 118.278L154.967 131.707C159.004 130.518 163.829 128.358 166.783 124.015L155.208 116.141ZM155.289 115.759C155.289 115.939 155.266 116.022 155.26 116.041C155.254 116.06 155.245 116.086 155.21 116.137L166.781 124.019C168.41 121.627 169.289 118.824 169.289 115.759H155.289ZM153.994 81.6306C154.644 97.0363 155.289 112.407 155.289 115.759H169.289C169.289 112.017 168.619 96.1611 167.982 81.041L153.994 81.6306ZM153.992 81.5881L153.994 81.6314L167.982 81.0403L167.98 80.9969L153.992 81.5881ZM153.503 69.9076C153.657 73.6294 153.824 77.5975 153.992 81.5873L167.98 80.9977C167.812 77.0069 167.645 73.044 167.491 69.3281L153.503 69.9076ZM159.783 59.2851C158.817 58.7485 158.255 58.0343 157.972 57.544C157.833 57.3043 157.754 57.1088 157.711 56.9858C157.668 56.8621 157.653 56.7871 157.651 56.7746C157.648 56.7603 157.673 56.8937 157.669 57.2041C157.666 57.5053 157.635 57.9069 157.558 58.4036C157.234 60.491 156.243 63.2997 154.615 65.8227L166.379 73.4129C169.031 69.3021 170.757 64.6483 171.392 60.5501C171.707 58.5244 171.812 56.2719 171.397 54.1212C171.016 52.1453 169.9 48.8906 166.582 47.0469L159.783 59.2851ZM164.984 58.7205C164.928 58.7803 164.404 59.3377 163.335 59.6474C162.763 59.813 162.104 59.8845 161.412 59.8009C160.726 59.718 160.174 59.5026 159.783 59.2851L166.582 47.0469C164.38 45.8237 161.859 45.4996 159.441 46.1998C157.266 46.8297 155.733 48.1219 154.786 49.1292L164.984 58.7205ZM152.775 48.9477C152.757 49.858 152.809 51.7847 152.889 54.1592L166.881 53.6905C166.796 51.1643 166.764 49.6701 166.772 49.2145L152.775 48.9477ZM152.787 48.5702C152.78 48.7088 152.777 48.8391 152.775 48.9473L166.772 49.2149C166.772 49.206 166.772 49.2047 166.772 49.2099C166.772 49.2146 166.772 49.2309 166.77 49.2564L152.787 48.5702ZM152.789 48.5309L152.788 48.5496L166.769 49.277L166.77 49.2582L152.789 48.5309ZM151.772 25.8189C151.897 26.2782 152.108 27.6232 152.299 29.9355C152.477 32.0811 152.607 34.627 152.694 37.19C152.872 42.4073 152.862 47.224 152.791 48.5062L166.769 49.2828C166.877 47.3383 166.866 41.9968 166.686 36.7123C166.594 34.0245 166.455 31.2336 166.252 28.7799C166.062 26.4931 165.78 23.9765 165.278 22.1353L151.772 25.8189ZM135.587 15.2794C140.313 16.6606 144.518 19.2188 147.633 21.7964C149.181 23.0768 150.364 24.2835 151.145 25.2265C152.121 26.4059 151.978 26.5753 151.772 25.8189L165.278 22.1352C164.656 19.8551 163.14 17.7613 161.927 16.2966C160.518 14.5955 158.694 12.7771 156.558 11.0101C152.308 7.49279 146.442 3.86646 139.515 1.8417L135.587 15.2794ZM113.443 16.6957C116.668 14.9594 125.891 12.4451 135.587 15.2794L139.515 1.8417C125.907 -2.13597 112.902 1.08613 106.805 4.36912L113.443 16.6957ZM98.2064 32.8363C98.8345 29.0679 101.157 25.7294 104.392 22.8118C107.61 19.9109 111.195 17.9064 113.443 16.6957L106.805 4.36912C104.393 5.66813 99.5528 8.32449 95.0169 12.4147C90.4994 16.4884 85.7409 22.4716 84.3969 30.5344L98.2064 32.8363ZM97.3897 48.3292C97.3413 44.6385 97.2753 38.4219 98.2064 32.8363L84.3969 30.5344C83.2314 37.5265 83.3441 44.9377 83.3909 48.5127L97.3897 48.3292ZM97.3894 48.3057L97.3894 48.3043L83.3913 48.5376L83.3913 48.539L97.3894 48.3057ZM97.3928 48.5627L97.3898 48.3309L83.391 48.5138L83.394 48.7456L97.3928 48.5627ZM97.4052 49.9701C97.4052 49.5569 97.3994 49.0694 97.3928 48.5635L83.394 48.7448C83.4007 49.2648 83.4052 49.6624 83.4052 49.9701H97.4052ZM97.4842 55.7553C97.4347 53.5686 97.4052 51.5982 97.4052 49.9701H83.4052C83.4052 51.7477 83.4371 53.8353 83.4877 56.0719L97.4842 55.7553ZM91.1665 61.7968C90.4925 62.1712 89.4962 62.4518 88.3562 62.3109C87.3033 62.1809 86.6023 61.751 86.2844 61.5125L94.6875 50.3147C93.5874 49.4892 92.0352 48.659 90.0725 48.4166C88.0227 48.1633 86.0581 48.6194 84.3675 49.5586L91.1665 61.7968ZM96.7506 68.9529C94.9719 66.4202 93.8363 63.453 93.4341 61.1744C93.2291 60.0135 93.2796 59.3956 93.299 59.2823C93.3556 58.9509 93.1877 60.6739 91.1665 61.7968L84.3675 49.5586C80.9129 51.4779 79.8422 54.9171 79.4992 56.923C79.119 59.1471 79.273 61.4879 79.6472 63.6081C80.4034 67.892 82.3289 72.7775 85.2938 76.9992L96.7506 68.9529Z" fill="white" mask="url(#path-1-outside-1)"/>
<path d="M102.775 123.109C102.201 123.539 100.743 124.483 100.086 124.902L103.85 141.214L116.937 152.508H140.599C145.439 144.083 154.94 127.017 154.223 126.156C153.506 125.296 151.893 124.125 151.176 123.647C135.281 123.288 103.349 122.679 102.775 123.109Z" fill="#BA87A0"/>
<path d="M154.224 125.977C152.359 128.558 141.615 146.771 136.477 155.555H155.12C157.45 149.998 160.677 138.883 161.215 133.326C159.96 132.43 156.554 128.665 154.224 125.977Z" fill="#5C414E"/>
<path d="M54.5568 143.04C66.6716 134.519 80.577 131.666 86.0154 131.304L86.0154 152.125C83.38 151.591 89.3887 167.519 86.0154 166.836C84.1187 171.866 82.1244 229.773 78.1801 246.837L8.68064 227.759C12.9109 218.312 22.4532 196.968 26.7804 187.163C32.1894 174.907 39.4135 153.69 54.5568 143.04Z" fill="#805A6D"/>
<path d="M108.688 143.008L100.083 124.902L92.375 127.95L95.6017 155.018L122.491 154.481L115.679 140.677L108.688 143.008Z" fill="#5C414E"/>
<path d="M83.0583 131.712C85.4963 130.852 91.1251 128.486 93.6348 127.41C93.0611 133.577 95.4274 148.384 96.6822 155.017C93.0372 155.076 85.3528 155.196 83.7753 155.196C81.9827 150.176 83.0583 134.222 83.0583 131.712Z" fill="#A5778D"/>
<path d="M87.7691 55.6777C90.3504 54.2436 92.3104 57.8289 92.9677 59.8007V75.3965C86.6935 68.5846 84.5424 57.4703 87.7691 55.6777Z" fill="#EFBCAD"/>
<path d="M163.184 53.166C160.603 51.7319 158.643 55.3171 157.985 57.289L157.985 72.8848C164.26 66.0729 166.411 54.9586 163.184 53.166Z" fill="#EFBCAD"/>
<path d="M91.3037 83.4921C91.3037 77.8991 90.4073 59.1722 90.4073 49.9701C90.4073 47.1019 90.0786 39.0351 91.3037 31.6854C93.2758 19.8541 105.465 13.0421 110.126 10.5324C114.787 8.02275 125.901 5.15456 137.553 8.56054C149.205 11.9665 157.696 20.9296 158.527 23.9771C159.782 28.5781 159.961 45.6678 159.782 48.8945C159.603 52.1212 162.291 108.589 162.291 115.759C162.291 127.055 141.119 127.054 130.632 127.053L130.383 127.053C119.985 127.053 103.135 127.232 95.9645 120.599C89.6343 114.744 91.3037 90.4833 91.3037 83.4921Z" fill="#FFC9BA"/>
<path d="M137.912 53.5565C136.908 54.7038 132.953 57.8588 131.1 59.2929C128.77 61.6233 131.996 61.2648 134.865 60.1892C137.733 59.1137 138.988 58.3966 144.366 58.3966C149.743 58.3966 151.357 61.2648 154.225 60.1892C157.093 59.1137 155.838 56.2455 155.301 55.887C154.763 55.5284 154.584 55.5284 153.329 53.5565C152.074 51.5847 149.026 51.5847 148.13 52.481C147.234 53.3773 146.158 53.0188 144.366 51.5847C142.573 50.1506 139.167 52.1225 137.912 53.5565Z" fill="#DC7D7D"/>
<path fill-rule="evenodd" clip-rule="evenodd" d="M90.3956 48.6648C93.417 50.8283 97.63 52.2419 103.136 51.2276C109.141 50.1214 115.878 45.0798 121.288 41.0304C128.153 35.8925 132.884 32.3517 131.28 40.4719C128.412 54.9921 139.168 47.2839 140.244 44.9535C141.319 42.623 149.207 29.1784 154.764 40.4719C156.885 44.7831 158.547 47.4697 159.776 49.0811C159.777 49.0065 159.779 48.9442 159.782 48.8945C159.961 45.6678 159.782 28.5781 158.527 23.9771C157.696 20.9296 149.205 11.9665 137.553 8.56054C125.901 5.15456 114.787 8.02275 110.126 10.5324C105.465 13.0421 93.2758 19.8541 91.3037 31.6854C90.2554 37.9742 90.3448 44.7881 90.3924 48.4209C90.3935 48.5039 90.3945 48.5852 90.3956 48.6648Z" fill="#DC7D7D"/>
<path d="M107.973 59.1137C103.849 60.1892 101.639 60.0697 99.7264 60.1892C97.7546 60.3411 93.0938 59.6514 93.0938 57.8588C93.0938 56.4247 94.8864 56.1857 95.7827 56.2455C96.44 56.365 98.8774 56.1547 100.623 55.3492C102.953 54.2736 107.973 53.3773 112.633 52.8395C117.294 52.3017 119.445 53.3773 118.728 54.2736C118.011 55.1699 117.294 56.9625 116.577 59.1137C115.86 61.2648 114.426 60.1892 113.709 59.6514C112.992 59.1137 110.332 58.4982 107.973 59.1137Z" fill="#DC7D7D"/>
<path d="M96.4896 65.153C99.1115 63.6309 106.211 61.179 113.634 63.5488C112.237 68.8931 103.896 70.8576 96.4896 65.153Z" fill="#FFF3F1"/>
<path d="M134.494 65.5124C137.115 63.9902 144.215 61.5384 151.638 63.9082C150.241 69.2524 141.9 71.217 134.494 65.5124Z" fill="#FFF3F1"/>
<path fill-rule="evenodd" clip-rule="evenodd" d="M109.456 67.9668C109.738 67.1244 109.703 66.0829 109.462 64.9818C109.224 63.8963 108.863 63.0977 108.304 62.6098C106.752 62.5318 105.266 62.6207 103.891 62.8144C102.554 63.5934 101.792 64.8986 102.16 66.5791C102.302 67.2295 102.587 67.8125 102.973 68.3027C105.375 68.8374 107.629 68.6743 109.456 67.9668Z" fill="black"/>
<path fill-rule="evenodd" clip-rule="evenodd" d="M144.637 68.9437C145.426 68.0192 145.495 66.5857 145.155 65.034C144.961 64.144 144.682 63.4469 144.28 62.9557C142.069 63.0429 140.047 63.4392 138.365 63.9387C137.838 64.6619 137.622 65.572 137.853 66.6312C137.943 67.0417 138.089 67.4254 138.282 67.7758C140.503 68.7373 142.689 69.0895 144.637 68.9437Z" fill="black"/>
<path d="M119.658 90.4249C113.116 91.2266 123.207 59.3156 124.663 60.7751C125.394 61.508 126.704 59.7743 126.884 68.0972C127.062 76.3493 126.917 84.5758 126.345 85.3277C125.194 86.838 122.247 89.9719 119.658 90.4249Z" fill="#F0BBAC"/>
<path fill-rule="evenodd" clip-rule="evenodd" d="M91.2396 79.9141C91.2779 81.3806 91.3006 82.6054 91.3006 83.4967C91.3006 84.4827 91.2674 85.8123 91.2281 87.3853C90.9888 96.9652 90.5241 115.574 95.9614 120.604C102.95 127.069 119.137 127.062 129.579 127.058C129.85 127.057 130.117 127.057 130.379 127.057L130.628 127.057C141.116 127.058 162.288 127.06 162.288 115.764C162.288 112.286 161.656 97.2089 161.025 82.2356C155.773 86.9836 148.498 90.3118 140.798 93.1701C132.497 96.2517 114.052 97.1307 107.64 93.7361C100.894 90.1652 95.4245 85.0862 91.2396 79.9141Z" fill="#EDA39B"/>
<path fill-rule="evenodd" clip-rule="evenodd" d="M135.094 109.778C135.389 110.267 134.312 110.796 133.092 111.262C131.859 111.732 130.341 112.255 128.191 112.412C126.098 112.565 124.572 112.112 122.576 112.028C120.682 111.949 118.291 112.214 116.865 111.939C115.395 111.656 115.456 111.105 115.292 110.626C115.114 110.111 114.551 109.549 115.88 109.074C117.204 108.601 119.699 108.399 121.909 108.262C123.768 108.147 125.457 108.284 127.193 108.375C128.79 108.458 130.33 108.545 131.589 108.769C133.097 109.036 134.812 109.31 135.094 109.778Z" fill="#FFC9BA"/>
</svg>
