<svg width="2599" height="965" fill="none" xmlns="http://www.w3.org/2000/svg"><path d="M1104.96 304.945l47.8-2.1 3.4-6.4 35.2-3 43.5-3.2v-11.8l4.1-29.8 5.3-18.8v-6.2l-10.2-8.5 5.1-21.8-11.3-35.6 5.7-36.9 3-22.6-10.9-34.4 16.7-18.5 6.8 1.9 16.4-21.6-1.5-8.3 4.5-9.6 9.8-4 10.3-3.7 17.3 2.6 10.4 5.3v5.6l14.7 7.7 12.8 21.7 13.5-1 2.3 6.8-5.1 6.6 5.1 4.7-1.1 12.1 1.1 20.9 14.2 56.8 2.2 50.7-15.1 14-8.5-3.3-4.7 21 5.1 21 1.5 31.2 29.4-.3 40.1-3 23.2-.4 12.9 10.3-3.3 8.9 14.7 26.4v14l-17.7 4.4 14.4 82.8 29.4 104.1-14.6 123.3h-391.9l-26.1-86.6 14.3-77.4 21.1-85.8 12.6-37.8-9.1 1.7-2.7-10.3-9.3-17.7 13.2-36.1zM279.46 925.945l36.5-21 27.5-12 73-19.101 28-18.199 57.5 2.1 101.1-17.1 9.8 29 26.2-81.6 64.8-80.8 17.6-67.401-2.6-65.799-5.6-54.9-8.9-43-26.9-84.5-53.9-17.6-40.5-19.7 16.6-34.2 8.3-37.3 11.4-17.1-1-11.9h-7.3l8.8-20.2 3.7-35.3-19.2-40.4-23.8-33.2-51.9-20.6-37.8 4.1-36.3 19.6-22.8 23.9-10.3 34.2v35.7l-7.1-6.9-9 4.2 2.2 39.1 5.9 23.6 11.9 13.7 1.3 15.9-10.4 16-47.7 19.6-68.6 18.2-63.1 93.1-20 96-4.2 89.199 25 174.701 22.4 78.4 19.4 29.5zM2335.76 464.643l-40.2-59.5-68.7-20.6-13.6-1.4-17.3-12.2 14-15.9 11.6-45.8 2.4-59.3-6.5-54.7-23.8-34.1-55.6-26.6-25.3-14.1h-29l-16.8 13.6-37.4 12.1-18 22-26.4 32.7-12.1 44.4 1.4 42.1 20.5 22.4-2.3 14.5 2.8 22 6.5 30.8 9.6 27.2-82.5 14.3-9.5 31h-28.1v13.3l-21.5 10.5 21.5 39.6-8.9 7.2-21.3 18.6-10.4 11.8-2.7 7.4 4.7 5.4v16.9l-7.1 6.8-3 4.9 2.3 11.9-4.3 1.7-1.8 3-4.3 5-.2 8.2 4.5 6.4-3 1.4-4.1-3.6h-8.6l-5 9.8-1.1 7-11.7 10.3-16.9 37.2 9.9 48.8 5 11.5 17.5 13.3 43.5 15.3 33.3 29.4 23.9-23.4 93.5 48.9 206.4 59.4 36.5 37.7 28.5-44.6 17.5-76 16.6-134.6 26.8-85.8-11.7-125.5z" fill="#2C1E25"/><path d="M1002.36 605.344h594.7l1001.5 360.4H.86l1001.5-360.4z" fill="#F87980"/></svg>