<svg width="2599" height="965" viewBox="0 0 2599 965" fill="none" xmlns="http://www.w3.org/2000/svg">
<path d="M1104.96 304.945L1152.76 302.845L1156.16 296.445L1191.36 293.445L1234.86 290.245V278.445L1238.96 248.645L1244.26 229.845V223.645L1234.06 215.145L1239.16 193.345L1227.86 157.745L1233.56 120.845L1236.56 98.2449L1225.66 63.8449L1242.36 45.3449L1249.16 47.2449L1265.56 25.6449L1264.06 17.3449L1268.56 7.74492L1278.36 3.74492L1288.66 0.0449219L1305.96 2.64492L1316.36 7.94492V13.5449L1331.06 21.2449L1343.86 42.9449L1357.36 41.9449L1359.66 48.7449L1354.56 55.3449L1359.66 60.0449L1358.56 72.1449L1359.66 93.0449L1373.86 149.845L1376.06 200.545L1360.96 214.545L1352.46 211.245L1347.76 232.245L1352.86 253.245L1354.36 284.445L1383.76 284.145L1423.86 281.145L1447.06 280.745L1459.96 291.045L1456.66 299.945L1471.36 326.345V340.345L1453.66 344.745L1468.06 427.545L1497.46 531.645L1482.86 654.945H1090.96L1064.86 568.345L1079.16 490.945L1100.26 405.145L1112.86 367.345L1103.76 369.045L1101.06 358.745L1091.76 341.045L1104.96 304.945Z" fill="#2C1E25"/>
<path d="M279.46 925.945L315.96 904.945L343.46 892.945L416.46 873.844L444.46 855.645L501.96 857.745L603.06 840.645L612.86 869.645L639.06 788.045L703.86 707.245L721.46 639.844L718.86 574.045L713.26 519.145L704.36 476.145L677.46 391.645L623.56 374.045L583.06 354.345L599.66 320.145L607.96 282.845L619.36 265.745L618.36 253.845H611.06L619.86 233.645L623.56 198.345L604.36 157.945L580.56 124.745L528.66 104.145L490.86 108.245L454.56 127.845L431.76 151.745L421.46 185.945V221.645L414.36 214.745L405.36 218.945L407.56 258.045L413.46 281.645L425.36 295.345L426.66 311.245L416.26 327.245L368.56 346.845L299.96 365.045L236.86 458.145L216.86 554.145L212.66 643.344L237.66 818.045L260.06 896.445L279.46 925.945Z" fill="#2C1E25"/>
<path d="M2335.76 464.643L2295.56 405.143L2226.86 384.543L2213.26 383.143L2195.96 370.943L2209.96 355.043L2221.56 309.243L2223.96 249.943L2217.46 195.243L2193.66 161.143L2138.06 134.543L2112.76 120.443H2083.76L2066.96 134.043L2029.56 146.143L2011.56 168.143L1985.16 200.843L1973.06 245.243L1974.46 287.343L1994.96 309.743L1992.66 324.243L1995.46 346.243L2001.96 377.043L2011.56 404.243L1929.06 418.543L1919.56 449.543H1891.46V462.843L1869.96 473.343L1891.46 512.943L1882.56 520.143L1861.26 538.743L1850.86 550.543L1848.16 557.943L1852.86 563.343V580.243L1845.76 587.043L1842.76 591.943L1845.06 603.843L1840.76 605.543L1838.96 608.543L1834.66 613.543L1834.46 621.743L1838.96 628.143L1835.96 629.543L1831.86 625.943H1823.26L1818.26 635.743L1817.16 642.743L1805.46 653.043L1788.56 690.243L1798.46 739.043L1803.46 750.543L1820.96 763.843L1864.46 779.143L1897.76 808.543L1921.66 785.143L2015.16 834.043L2221.56 893.443L2258.06 931.143L2286.56 886.543L2304.06 810.543L2320.66 675.943L2347.46 590.143L2335.76 464.643Z" fill="#2C1E25"/>
<path d="M1002.36 605.344H1597.06L2598.56 965.744H0.859375L1002.36 605.344Z" fill="#F87980"/>
</svg>
