<svg width="472" height="490" fill="none" xmlns="http://www.w3.org/2000/svg"><path d="M370.639 330.785s-34.882 22.413-36.349 43.521c-1.467 21.108.489 64.629 8.884 71.964 8.394 7.417-1.304 14.507-1.304 14.507s-16.3-17.033-20.131-22.657c-3.83-5.623-19.071-42.706-35.615-57.212-16.544-14.507-114.507-19.56-114.507-19.56l187.042-44.01 11.98 13.447z" fill="#5C414E"/><path d="M437.876 46.598s-43.847-59.74-77.017-26.57C327.688 53.2 327.281 134.78 320.761 154.422c-6.52 19.56.489 38.224-35.941 67.156-36.431 28.932-176.854 97.555-200.652 98.451-23.798.897-43.847 7.498-42.462 15.404 1.386 7.905 25.184 6.031 55.502 10.269 30.317 4.238 221.597 30.644 249.551 16.626 28.036-14.018 120.457-49.715 114.915-106.683-5.624-56.968-48.819-151.263-45.722-162.021 7.009-24.532 8.395-25.184 19.56-26.162 11.166-.896 22.983 3.505 22.983 0 0-3.504-4.645-10.35-5.46-11.165-.815-.733-15.159-9.698-15.159-9.698z" fill="#FEF1F0"/><path d="M403.483 194.277s-51.67-27.873-84.433-5.298c-32.763 22.576-50.693 47.107-65.363 53.382-14.67 6.276-193.398 107.987-211.491 114.752-18.093 6.764-35.616 15.24-31.622 20.945 3.993 5.705 60.472-5.053 75.224-5.623 14.751-.571 86.471-6.194 110.269-11.329 23.798-5.134 240.261-33.904 230.644-80.277-9.617-46.373-23.228-86.552-23.228-86.552z" fill="#CBBEBD"/><path d="M298.022 198.188c8.802-12.795 23.146-20.537 38.631-21.189 32.844-1.386 94.376.815 96.332 36.837 2.608 49.226-2.038 101.06-38.142 114.507-36.104 13.448-202.445 23.961-219.234 14.67-16.789-9.291-89.242-9.78-47.432-18.337 41.809-8.558 127.628-28.851 69.111-20.131-58.516 8.721-100.326 27.629-97.962 17.767 2.363-9.861 40.505-11.084 48.981-17.033 8.476-5.95 136.104-83.863 143.113-96.414 2.201-3.994 4.401-7.58 6.602-10.677z" fill="#BD988D"/><path d="M412.285 52.382c8.462 0 15.322-6.86 15.322-15.322s-6.86-15.322-15.322-15.322-15.322 6.86-15.322 15.322 6.86 15.322 15.322 15.322z" fill="#CBBEBD"/><path d="M413.507 48.148c5.672 0 10.269-4.597 10.269-10.269 0-5.671-4.597-10.269-10.269-10.269-5.671 0-10.269 4.598-10.269 10.27 0 5.67 4.598 10.268 10.269 10.268z" fill="#FEF1F0"/><path d="M437.874 46.598s-7.987 12.55-7.661 15.73c.326 3.177 2.689 5.623 2.689 5.623s12.551-.163 17.278.57c4.727.733 7.661 1.06 8.069-.407.407-1.467-.163-4.075-2.119-7.335-1.956-3.179-2.69-4.483-4.157-5.46-1.385-.816-14.099-8.721-14.099-8.721z" fill="#F37880"/><path d="M346.429 453.116s-7.172 8.72 11.899 11.247c19.071 2.526 38.794 2.2 46.618 5.623 7.824 3.423 4.971 3.097 4.971 3.097s-22.82 5.298-34.719 1.549c-11.899-3.749-19.397-3.097-19.397-3.097s3.097 5.297 4.972 7.824c1.874 2.526-10.921-4.401-10.921-4.401s-5.949-7.824-12.469-8.15c-6.602-.326-14.1-4.401-22.494-2.201 1.222-6.601 14.67-4.075 19.397-8.15 4.727-4.075 3.097-9.372 3.097-9.372l9.046 6.031z" fill="#5C414E"/><path d="M327.034 433.634s-6.194 7.498 10.187 9.617c16.3 2.119 33.17 1.875 39.853 4.809s4.32 2.689 4.32 2.689-19.56 4.564-29.666 1.304c-10.188-3.178-16.626-2.689-16.626-2.689s2.689 4.564 4.319 6.683c1.63 2.119-9.372-3.749-9.372-3.749s-5.053-6.683-10.676-6.928c-5.624-.244-12.062-3.749-19.234-1.874 1.059-5.624 12.551-3.505 16.626-6.928 3.993-3.504 2.689-8.068 2.689-8.068l7.58 5.134z" fill="#5C414E"/><path d="M407.15 36.737c.163-2.037 1.63-3.749 3.667-4.4 1.875-.571 4.401-.816 6.357.814 3.505 3.016 2.608 5.705 2.201 6.357-.978 1.549-1.63 3.994-9.373 1.956-.896-.244-3.097-1.548-2.852-4.727z" fill="#2C1E24"/><path d="M431.522 59.066s17.441 4.32 21.027 4.157c3.586-.163 9.047 2.037 6.439 5.053-2.69 2.934-13.529.081-15.893.407-2.119.245-10.024 2.2-11.328-1.304-1.304-3.26-3.097-7.987-.245-8.313z" fill="#E5737E"/><mask id="a" maskUnits="userSpaceOnUse" x="-1" y="0" width="473" height="490" fill="#000"><path fill="#fff" d="M-1 0h473v490H-1z"/><path fill-rule="evenodd" clip-rule="evenodd" d="M413.019 21.756c-15.28-11.295-35.128-18.76-52.16-1.727-24.254 24.254-30.992 74.39-35.41 107.27-1.624 12.087-2.935 21.843-4.688 27.122-1.583 4.75-2.369 9.446-3.172 14.25-.789 4.715-1.595 9.534-3.189 14.607a48.694 48.694 0 00-16.378 14.911c-2.201 3.096-4.401 6.682-6.602 10.676-3.715 6.654-41.33 31.677-77.121 54.61a8299.33 8299.33 0 00-9.786 5.406c-50.389 25.95-106.141 50.612-120.345 51.147-23.798.897-43.847 7.498-42.462 15.404.934 5.326 12.039 6.213 28.456 7.52-14.095 7.55-24.31 12.794-27.966 14.161-18.093 6.764-35.616 15.24-31.622 20.945 2.695 3.85 29.288.203 50.833-2.751 10.384-1.424 19.594-2.687 24.39-2.872 13.447-.52 74.221-5.238 102.896-9.957 28.835 2.183 85.239 7.74 97.431 18.43 12.4 10.873 24.068 34.43 30.748 47.916l.001.001c.821 1.658 1.566 3.163 2.229 4.474-.424 1.087-1.144 2.229-2.338 3.277-1.699 1.427-4.687 1.891-7.67 2.354-4.173.648-8.338 1.295-8.956 4.574 4.621-1.208 8.937-.183 12.926.764 2.204.524 4.307 1.023 6.308 1.11 5.623.245 10.676 6.928 10.676 6.928s2.944 1.57 5.561 2.792c-.373.462-.811.918-1.323 1.359-1.981 1.708-5.494 2.257-8.997 2.803-4.854.758-9.69 1.513-10.4 5.347 5.434-1.424 10.492-.219 15.175.897 2.551.608 4.991 1.189 7.319 1.304 6.52.326 12.47 8.15 12.47 8.15s12.795 6.927 10.921 4.401c-1.875-2.527-4.972-7.824-4.972-7.824s7.498-.652 19.397 3.097c11.899 3.749 34.719-1.549 34.719-1.549s2.852.326-4.972-3.097c-4.809-2.104-14.115-2.791-25.002-3.596h-.001c-6.823-.504-14.267-1.054-21.614-2.027-10.249-1.358-12.919-4.504-13.196-7.125 1.141-1.782 1.952-4.102 1.118-6.641 1.672.371 3.504.849 5.476 1.464 10.106 3.26 29.666-1.304 29.666-1.304s2.364.245-4.319-2.689c-4.147-1.821-12.214-2.418-21.634-3.114h-.001c-4.524-.335-9.36-.693-14.222-1.22-6.739-11.86-8.273-50.069-6.927-69.428.216-3.107 1.156-6.242 2.602-9.33 4.25-.639 7.597-1.511 9.867-2.649 3.115-1.558 7.025-3.383 11.507-5.475l.002-.001c35.858-16.738 108.332-50.569 103.406-101.207-3.327-33.7-19.801-80.462-32.063-115.266v-.001c-8.466-24.03-14.923-42.36-13.659-46.754 6.194-21.676 7.996-24.708 16.035-25.795 1.522 2.44 6.983 1.528 9.848 1.05.518-.086.951-.159 1.261-.194.721-.1 2.232.097 4.059.334 4.161.542 9.964 1.297 11.833-.742 1.366-1.58.518-2.936-1.115-3.845-.364-1.085-.933-2.314-1.736-3.652l-.402-.654c-1.663-2.71-2.393-3.898-3.755-4.806-1.385-.816-14.099-8.72-14.099-8.72h-.001l-.004-.001s-3.996-5.445-10.488-12.134c-1.194-6.99-7.123-12.366-14.369-12.708z"/></mask><path d="M360.859 20.029l7.071 7.07-7.071-7.07zm52.16 1.727l-5.944 8.041 2.441 1.805 3.032.143.471-9.99zm-87.57 105.543l-9.911-1.332 9.911 1.332zm-4.688 27.122l9.487 3.163.004-.012-9.491-3.151zm-3.172 14.25l9.863 1.649-9.863-1.649zm-3.189 14.607l4.88 8.728 3.468-1.939 1.191-3.79-9.539-2.999zm-16.378 14.911l8.151 5.792.045-.062.043-.063-8.239-5.667zm-6.602 10.676l8.731 4.876.014-.025.014-.025-8.759-4.826zm-77.121 54.61l4.83 8.756.288-.159.278-.178-5.396-8.419zm-9.786 5.406l4.578 8.891.133-.068.13-.072-4.841-8.751zM84.168 320.028l-.377-9.992.377 9.992zm-42.462 15.404l9.85-1.726-9.85 1.726zm28.456 7.52l4.722 8.815 30.02-16.079-33.948-2.704-.794 9.968zm-27.966 14.161l-3.502-9.367 3.502 9.367zm-31.622 20.945l-8.192 5.735 8.192-5.735zm50.833-2.751l-1.135-9.935-.112.012-.112.016 1.359 9.907zm0 0l1.136 9.935.112-.013.111-.015-1.358-9.907zm24.39-2.872l.387 9.992-.386-9.992zm102.896-9.957l.755-9.972-1.196-.091-1.183.195 1.624 9.868zm97.431 18.43l-6.593 7.519 6.593-7.519zm30.748 47.916l9.487-3.163-.219-.656-.307-.62-8.961 4.439zm0 0l-9.487 3.162.225.674.318.636 8.944-4.472zm.001.001l8.961-4.439-.009-.016-.008-.017-8.944 4.472zm2.229 4.474l9.318 3.629 1.619-4.157-2.012-3.982-8.925 4.51zm-2.338 3.277l6.432 7.657.083-.069.081-.072-6.596-7.516zm-7.67 2.354l1.534 9.882-1.534-9.882zm-8.956 4.574l-9.827-1.852-2.924 15.52 15.28-3.993-2.529-9.675zm12.926.764l2.311-9.729-2.311 9.729zm6.308 1.11l.434-9.99-.434 9.99zm10.676 6.928l-7.976 6.031 1.328 1.756 1.943 1.036 4.705-8.823zm5.561 2.792l7.78 6.283 8.024-9.936-11.571-5.407-4.233 9.06zm-1.323 1.359l6.53 7.575v-.001l-6.53-7.574zm-8.997 2.803l-1.542-9.88 1.542 9.88zm-10.4 5.347l-9.833-1.821-2.868 15.489 15.237-3.994-2.536-9.674zm15.175.897l2.318-9.728-2.318 9.728zm7.319 1.304l.499-9.988h-.006l-.493 9.988zm12.47 8.15l-7.961 6.053 1.305 1.715 1.895 1.026 4.761-8.794zm10.921 4.401l8.031-5.959h-.001l-8.03 5.959zm-4.972-7.824l-.866-9.963-15.741 1.369 7.974 13.641 8.633-5.047zm19.397 3.097l-3.005 9.538 3.005-9.538zm34.719-1.549l1.135-9.935-1.715-.196-1.682.39 2.262 9.741zm-4.972-3.097l4.008-9.161-4.008 9.161zm-25.002-3.596l.737-9.972-.368-.028h-.369v10zm-.001 0l-.736 9.973.368.027h.368v-10zm-21.614-2.027l1.313-9.913-1.313 9.913zm-13.196-7.125l-8.422-5.391-1.891 2.954.368 3.488 9.945-1.051zm1.118-6.641l2.165-9.763-17.143-3.8 5.477 16.682 9.501-3.119zm5.476 1.464l3.07-9.517-.046-.015-.045-.014-2.979 9.546zm29.666-1.304l1.029-9.947-1.668-.172-1.633.381 2.272 9.738zm-4.319-2.689l4.019-9.157-4.019 9.157zm-21.634-3.114l.737-9.973-.368-.027h-.369v10zm-.001 0v-10 10zm0 0l-.738 9.972.368.028h.37v-10zm-14.222-1.22l-8.695 4.94 2.528 4.45 5.088.551 1.079-9.941zm-6.927-69.428l9.976.694-9.976-.694zm2.602-9.33l-1.486-9.889-5.298.796-2.272 4.851 9.056 4.242zm9.867-2.649l-4.472-8.944-.01.005 4.482 8.939zm11.507-5.475l4.23 9.061.122-.056.12-.061-4.472-8.944zm.002-.001l-4.23-9.061-.122.057-.12.06 4.472 8.944zm103.406-101.207l9.953-.968-.001-.007-.001-.007-9.951.982zm-32.063-115.266l-9.512 3.085.039.119.041.119 9.432-3.323zm0-.001l9.512-3.085-.038-.119-.042-.119-9.432 3.323zm-13.659-46.754l9.61 2.766.003-.01.003-.009-9.616-2.747zm16.035-25.795l8.484-5.293-3.42-5.483-6.404.866 1.34 9.91zm9.848 1.05l-1.646-9.864 1.646 9.864zm1.261-.194l1.146 9.934.11-.013.11-.015-1.366-9.906zm4.059.334l1.29-9.916-1.29 9.916zm11.833-.742l7.372 6.757.097-.106.095-.11-7.564-6.54zm-1.115-3.845l-9.48 3.182 1.232 3.67 3.381 1.883 4.867-8.735zm-1.736-3.652l8.575-5.145-.029-.048-.03-.048-8.516 5.241zm-.402-.654l8.522-5.231-.006-.01-8.516 5.24zm0 0l-8.523 5.23.006.01 8.517-5.24zm-3.755-4.806l5.547-8.32-.234-.157-.243-.143-5.07 8.62zm-14.099-8.72l5.28-8.493-8.61-5.354-5.234 8.683 8.564 5.163zm-.001 0l-5.294 8.485 8.615 5.376 5.243-8.697-8.564-5.163zm-.004-.001l-8.062 5.917 1.137 1.549 1.631 1.017 5.294-8.483zm-10.488-12.134l-9.858 1.683.522 3.056 2.16 2.225 7.176-6.964zM367.93 27.1c6.293-6.293 12.42-7.674 18.4-6.911 6.582.84 13.737 4.428 20.745 9.608l11.888-16.083C410.691 7.6 400.282 1.808 388.862.35c-12.022-1.535-24.335 1.868-35.074 12.608L367.93 27.1zM335.36 128.63c2.221-16.526 4.938-36.655 10.015-55.615 5.136-19.182 12.324-35.685 22.555-45.916l-14.142-14.142c-14.023 14.023-22.331 34.715-27.732 54.885-5.46 20.391-8.32 41.77-10.518 58.124l19.822 2.664zm-5.108 28.941c2.129-6.414 3.559-17.415 5.108-28.941l-19.822-2.664c-1.7 12.648-2.892 21.158-4.268 25.304l18.982 6.301zm-2.8 12.748c.821-4.909 1.498-8.844 2.796-12.736l-18.974-6.325c-1.869 5.607-2.762 11.065-3.548 15.762l19.726 3.299zm-3.513 15.957c1.833-5.831 2.736-11.309 3.513-15.957l-19.726-3.299c-.8 4.784-1.51 8.943-2.866 13.258l19.079 5.998zm-17.678 17.579a38.684 38.684 0 0113.019-11.85l-9.761-17.456a58.698 58.698 0 00-19.736 17.971l16.478 11.335zm-6.082 9.835c2.07-3.757 4.07-7.002 5.994-9.71l-16.303-11.585c-2.477 3.486-4.877 7.413-7.208 11.643l17.517 9.652zm-80.484 58.203c17.921-11.483 36.397-23.552 50.895-33.614 7.235-5.021 13.598-9.625 18.444-13.453 2.416-1.908 4.575-3.718 6.32-5.357 1.51-1.418 3.517-3.438 4.797-5.729l-17.462-9.752c.351-.628.371-.41-1.028.903-1.163 1.093-2.831 2.509-5.024 4.241-4.37 3.451-10.344 7.784-17.451 12.717-14.186 9.846-32.412 21.755-50.282 33.205l10.791 16.839zm-10.341 5.738a7714.4 7714.4 0 019.775-5.401l-9.659-17.513c-3.146 1.736-6.42 3.544-9.798 5.413l9.682 17.501zm-124.81 52.389c5.254-.198 12.738-2.369 20.626-5.118 8.32-2.901 18.434-6.945 29.555-11.733 22.264-9.584 49.01-22.34 74.366-35.398l-9.157-17.781c-25.032 12.891-51.356 25.441-73.117 34.809-10.891 4.689-20.528 8.532-28.23 11.217-8.136 2.836-12.947 3.949-14.796 4.019l.753 19.985zm-32.988 3.685c.531 3.028-1.444 4.386-.677 3.736.727-.617 2.551-1.717 5.935-2.908 6.599-2.323 16.506-4.09 27.73-4.513l-.753-19.985c-12.573.473-24.59 2.455-33.618 5.633-4.43 1.56-8.845 3.648-12.232 6.521-3.347 2.839-7.308 7.987-6.084 14.968l19.7-3.452zm19.4-.722c-8.489-.676-14.594-1.183-18.75-2.067a19.777 19.777 0 01-2.194-.577c-.527-.179-.7-.287-.65-.258.167.1 1.769 1.195 2.194 3.624l-19.7 3.452c.893 5.092 4.233 8.295 7.258 10.099 2.83 1.689 6.077 2.616 8.935 3.223 5.734 1.219 13.39 1.809 21.319 2.441l1.588-19.937zM45.698 366.48c4.45-1.664 15.413-7.335 29.186-14.713l-9.444-17.63c-14.417 7.723-23.885 12.539-26.746 13.609l7.004 18.734zm-26.932 5.844c.977 1.395 1.449 3.283 1.141 5.123a5.819 5.819 0 01-.529 1.661 3.687 3.687 0 01-.288.474s.076-.094.272-.278c.192-.182.463-.417.83-.703.746-.579 1.753-1.263 3.047-2.038 5.335-3.194 13.541-6.75 22.459-10.083l-7.004-18.734c-9.176 3.431-18.777 7.496-25.728 11.657-3.334 1.995-6.974 4.541-9.485 7.675-1.292 1.613-2.786 3.996-3.3 7.07-.572 3.422.225 6.823 2.2 9.645l16.385-11.469zm41.282-6.924c-10.853 1.488-22.596 3.095-31.95 3.868-4.716.39-8.45.533-10.997.411a19.221 19.221 0 01-1.444-.115 5.192 5.192 0 01-.529-.085c.007.002.088.022.226.073.136.049.372.143.672.302.535.283 1.713 1.002 2.74 2.47L2.382 383.793c2.52 3.599 6.341 4.691 7.786 5.061 1.97.504 4.076.712 5.978.802 3.87.185 8.637-.046 13.6-.456 10.002-.826 22.328-2.52 33.02-3.986L60.047 365.4zm.224-.028l2.27 19.87h.001l-2.27-19.87zm25.14-2.93c-5.422.21-15.286 1.576-25.363 2.958l2.717 19.814c10.689-1.465 19.246-2.625 23.418-2.787l-.772-19.985zm101.657-9.832c-28.129 4.63-88.46 9.322-101.657 9.832l.772 19.985c13.694-.529 74.911-5.273 104.133-10.082l-3.248-19.735zm105.647 20.779c-4.934-4.326-12.783-7.143-20.242-9.203-7.977-2.203-17.493-4.037-27.284-5.564-19.616-3.058-41.23-5.017-55.742-6.116l-1.51 19.943c14.324 1.085 35.328 2.996 54.171 5.934 9.439 1.472 18.112 3.168 25.041 5.081 7.446 2.057 11.219 3.944 12.381 4.963l13.185-15.038zm33.117 50.996c-3.325-6.712-8.068-16.297-13.59-25.603-5.415-9.124-12.087-18.87-19.527-25.393l-13.185 15.038c4.961 4.35 10.323 11.819 15.512 20.563 5.082 8.562 9.513 17.498 12.868 24.272l17.922-8.877zm.526 1.277v-.001l-18.974 6.325 18.974-6.324zm-.542-1.309l-.001-.001-17.888 8.944.001.001 17.888-8.944zm2.21 4.436c-.641-1.268-1.367-2.735-2.193-4.403l-17.922 8.878c.816 1.647 1.58 3.191 2.264 4.544l17.851-9.019zm-4.667 15.303c2.458-2.157 4.083-4.655 5.06-7.164l-18.637-7.258c.057-.146.131-.285.215-.408.086-.124.155-.189.17-.202l13.192 15.032zm-12.732 4.72c1.37-.213 3.406-.519 5.339-1.03 1.852-.489 4.706-1.429 7.229-3.549l-12.864-15.314c.464-.389.817-.551.875-.576.059-.027-.031.019-.352.104-.315.083-.738.175-1.317.279-.586.106-1.21.203-1.978.322l3.068 19.764zm-.663-3.457a6.259 6.259 0 01-.653 1.819 6.233 6.233 0 01-1.1 1.464 5.002 5.002 0 01-.909.714 3.17 3.17 0 01-.324.17l.071-.025c.049-.016.118-.038.211-.063.189-.053.441-.114.774-.182.705-.145 1.501-.271 2.593-.44l-3.068-19.764c-1.749.272-5.069.735-7.974 1.89-3.18 1.266-8.062 4.277-9.275 10.714l19.654 3.703zm5.41-10.816c-3.701-.879-10.39-2.638-17.766-.71l5.058 19.35c1.865-.488 3.808-.197 8.087.819l4.621-19.459zm4.431.849c-.87-.038-2.006-.273-4.431-.849l-4.621 19.459c1.982.47 5.053 1.235 8.184 1.371l.868-19.981zm10.242 16.918c7.977-6.032 7.975-6.034 7.974-6.036l-.003-.004-.007-.009-.016-.02-.036-.048-.097-.125c-.075-.095-.171-.217-.288-.359a33.65 33.65 0 00-.937-1.1 36.074 36.074 0 00-3.276-3.234c-2.407-2.082-7.254-5.71-13.556-5.983l-.868 19.981c-.48-.021-.556-.151-.158.057.382.2.9.554 1.496 1.07a15.712 15.712 0 011.789 1.835l.052.065a.122.122 0 00-.01-.013l-.014-.019-.01-.012-.005-.008-.003-.003c-.002-.002-.003-.004 7.973-6.035zm9.794-6.268a107.4 107.4 0 01-3.43-1.692 142.817 142.817 0 01-1.553-.809l-.084-.044-.019-.01-.003-.002.001.001-4.706 8.824-4.705 8.823v.001h.002l.003.002a.09.09 0 01.009.005l.032.017.112.059.401.212c.339.178.817.427 1.381.716a129.71 129.71 0 004.093 2.017l8.466-18.12zm.974 17.993a20.564 20.564 0 002.573-2.65l-15.56-12.566c.01-.012-.007.013-.072.068l13.059 15.148zm-13.985 5.11c1.627-.254 3.937-.604 6.115-1.187 2.099-.563 5.189-1.612 7.87-3.922l-13.059-15.149c.4-.344.68-.465.655-.453a4.94 4.94 0 01-.641.205c-.95.254-2.148.452-4.024.745l3.084 19.761zm-2.109-2.713a5.578 5.578 0 01-.578 1.623 5.593 5.593 0 01-.982 1.321c-.627.62-1.101.768-.909.691.18-.072.621-.215 1.488-.394.864-.179 1.828-.331 3.09-.528l-3.084-19.761c-2.086.326-5.753.845-8.93 2.117-3.471 1.39-8.519 4.586-9.761 11.289l19.666 3.642zm7.66-10.652c-4.399-1.048-11.833-2.99-20.028-.842l5.071 19.347c2.672-.701 5.354-.233 10.321.951l4.636-19.456zm5.494 1.044c-1.23-.061-2.73-.385-5.494-1.044l-4.636 19.456c2.339.557 5.718 1.395 9.144 1.564l.986-19.976zm11.977 18.138c7.96-6.053 7.958-6.055 7.957-6.057l-.004-.004-.007-.009-.015-.021-.038-.049-.104-.133a38.022 38.022 0 00-1.362-1.616 41.051 41.051 0 00-3.665-3.619c-2.719-2.357-7.998-6.293-14.733-6.63l-.998 19.975c-.215-.01.741.129 2.627 1.765a20.956 20.956 0 012.331 2.39c.047.057.075.093.084.105.005.006.004.005-.001-.002l-.012-.016a.062.062 0 01-.009-.012.043.043 0 01-.006-.007l-.003-.003c-.001-.002-.003-.004 7.958-6.057zm2.89 10.359a8.443 8.443 0 01-.764-1.245 9.535 9.535 0 01-.964-3.301 9.847 9.847 0 011.756-6.71 9.828 9.828 0 015.135-3.725 9.487 9.487 0 012.913-.422c.588.008 1.04.072 1.284.113a6.296 6.296 0 01.753.17c.005.002-.228-.077-.77-.31a48.174 48.174 0 01-1.76-.805 128.99 128.99 0 01-3.881-1.949c-.554-.289-1.019-.535-1.344-.708l-.371-.198-.093-.05-.021-.011-.003-.002v-.001.001l-4.76 8.794-4.761 8.794.002.001.003.002.01.005.034.019.121.064.434.233c.368.196.888.471 1.505.793 1.219.635 2.875 1.481 4.505 2.26 1.461.698 3.464 1.617 5.154 2.148.456.143 1.152.344 1.96.478.427.071 2.521.448 4.959-.301a10.163 10.163 0 005.323-3.848 10.149 10.149 0 001.803-6.925c-.31-2.951-1.842-4.932-2.1-5.281l-16.062 11.917zm3.059-13.782l-8.633 5.047.001.001.001.002.003.004.008.016.032.053.111.19.401.675c.336.564.806 1.346 1.34 2.214 1.006 1.636 2.452 3.929 3.677 5.58l16.061-11.917c-.649-.875-1.69-2.494-2.701-4.139a160.425 160.425 0 01-1.551-2.574l-.091-.155-.022-.037-.004-.007-.001-.001h.001v.001l-8.633 5.047zm22.402-6.441c-6.686-2.106-12.243-3.01-16.26-3.375a51.45 51.45 0 00-4.813-.227 32.407 32.407 0 00-1.908.059 8.499 8.499 0 00-.232.017l-.029.002-.014.001-.006.001c-.003 0-.006 0 .86 9.963.866 9.962.863 9.963.86 9.963h-.006l-.011.001-.021.002a1.003 1.003 0 00-.033.003l-.036.002.052-.002c.089-.004.284-.012.581-.012.594-.002 1.591.021 2.945.144 2.707.246 6.848.891 12.061 2.534l6.01-19.076zm31.714 7.989c-2.262-9.741-2.26-9.741-2.259-9.741l.002-.001h0l-.028.007-.149.033a91.878 91.878 0 01-3.169.644c-2.166.408-5.16.914-8.476 1.309-7.169.852-13.926.928-17.635-.24l-6.01 19.076c8.19 2.58 18.792 1.882 26.008 1.023a148.69 148.69 0 009.816-1.513 131.072 131.072 0 004.053-.831l.071-.016.022-.005.009-.002.003-.001c.002 0 .003-.001-2.258-9.742zm-8.98 6.065c1.849.809 2.848 1.302 3.326 1.561.243.132.208.126.02-.003-.011-.008-.945-.615-1.862-1.813a9.744 9.744 0 01-1.825-4.105 9.905 9.905 0 011.699-7.63 9.843 9.843 0 014.167-3.321 9.6 9.6 0 012.219-.634 8.852 8.852 0 012.081-.084l.151.014.071.007.034.004.017.002.009.001c.004.001.008.001-1.127 9.936-1.136 9.936-1.132 9.936-1.127 9.937l.008.001a.11.11 0 01.018.002l.038.004.082.008a10.058 10.058 0 00.733.049c.322.012 1.135.032 2.131-.126a10.394 10.394 0 002.417-.686 10.146 10.146 0 004.301-3.418 10.093 10.093 0 001.729-7.784 10.26 10.26 0 00-1.938-4.326c-1.049-1.371-2.239-2.205-2.679-2.509a20.571 20.571 0 00-1.847-1.115c-1.188-.643-2.766-1.392-4.83-2.295l-8.016 18.323zm-21.73-2.785c5.519.408 10.291.763 14.277 1.261 4.202.525 6.477 1.097 7.453 1.524l8.016-18.323c-3.833-1.677-8.616-2.501-12.991-3.047-4.591-.573-9.914-.964-15.282-1.36l-1.473 19.945zm.736.027v-20 20zm-.001 0h.001v-20h-.001v20zm-22.928-2.114c7.681 1.018 15.412 1.586 22.192 2.087l1.473-19.945c-6.867-.508-14.024-1.039-21.038-1.968l-2.627 19.826zm-21.827-15.987c.501 4.741 3.235 8.703 7.369 11.379 3.754 2.431 8.649 3.839 14.458 4.608l2.627-19.826c-2.139-.284-3.655-.632-4.693-.954-1.047-.326-1.471-.583-1.523-.616-.029-.019.369.234.805.899a5.49 5.49 0 01.847 2.408l-19.89 2.102zm1.562-4.573a3.245 3.245 0 01-.094-1.619c.074-.342.166-.424.055-.25l16.844 10.783c2.017-3.15 4.327-8.664 2.197-15.152l-19.002 6.238zm17.956-11.201a77.627 77.627 0 00-6.29-1.681l-4.329 19.526c1.405.312 2.965.718 4.662 1.247l5.957-19.092zm26.687 8.242a4631.963 4631.963 0 01-2.27-9.739h.002l.003-.001c.001 0 .001 0 0 0l-.021.005-.121.027a96.431 96.431 0 01-2.667.545c-1.831.346-4.359.775-7.153 1.108-6.14.732-11.594.737-14.369-.158l-6.14 19.034c7.331 2.365 16.71 1.718 22.877.983a127.581 127.581 0 0011.087-1.835c.312-.066.559-.121.735-.16l.21-.048a1.777 1.777 0 01.093-.021l.004-.001c.001 0 .002-.001-2.27-9.739zm-8.339 6.467c1.561.685 2.379 1.093 2.745 1.291.187.101.121.076-.081-.063-.052-.035-.915-.602-1.787-1.692a9.735 9.735 0 01-1.808-3.609 9.91 9.91 0 015.142-11.371 9.707 9.707 0 012.473-.845 9.085 9.085 0 012.364-.153l.169.014.077.007.037.003.019.002a.03.03 0 00.009.001c.005.001.009.001-1.02 9.948-1.029 9.947-1.024 9.947-1.02 9.948l.01.001.019.002a.601.601 0 01.04.004l.087.008.205.016a10.827 10.827 0 002.844-.173 10.25 10.25 0 002.631-.895 10.104 10.104 0 004.289-4.075c3.232-5.729-.332-10.555-.95-11.328a11.626 11.626 0 00-2.512-2.302 19.131 19.131 0 00-1.699-1.027c-1.071-.581-2.463-1.243-4.244-2.025l-8.039 18.313zm-18.352-2.298c4.786.354 8.882.66 12.292 1.086 3.631.454 5.423.932 6.06 1.212l8.039-18.313c-3.509-1.541-7.824-2.27-11.619-2.745-4.015-.501-8.662-.842-13.297-1.185l-1.475 19.945zm.737.028h.001v-20h-.001v20zm0 0v-20 20zm-15.301-1.279c5.06.549 10.064.918 14.563 1.251l1.476-19.945c-4.549-.337-9.216-.683-13.882-1.189l-2.157 19.883zm-15.824-80.062c-.711 10.232-.653 25.121.438 39.003.547 6.955 1.367 13.844 2.531 19.881 1.115 5.784 2.713 11.732 5.239 16.177l17.389-9.88c-.844-1.485-1.964-4.761-2.99-10.082-.976-5.067-1.719-11.165-2.23-17.664-1.024-13.027-1.06-26.921-.425-36.048l-19.952-1.387zm3.522-12.879c-1.827 3.902-3.2 8.249-3.522 12.879L344.266 375c.11-1.584.617-3.509 1.682-5.783l-18.112-8.483zm14.441-7.346c-.848.425-2.95 1.109-6.871 1.699l2.972 19.778c4.58-.689 9.171-1.748 12.864-3.599l-8.965-17.878zm11.759-5.597c-4.438 2.072-8.487 3.96-11.749 5.592l8.944 17.888c2.968-1.484 6.74-3.245 11.265-5.358l-8.46-18.122zm-.24.116l-.002.001 8.944 17.888.002-.001-8.944-17.888zm97.925-91.295c1.934 19.885-11.192 38.021-32.546 54.416-20.982 16.109-47.07 28.328-65.137 36.762l8.46 18.122c17.791-8.304 45.868-21.37 68.857-39.02 22.615-17.365 43.263-41.464 40.272-72.216l-19.906 1.936zm-31.542-112.911c12.416 35.24 28.362 80.701 31.543 112.925l19.903-1.964c-3.472-35.176-20.474-83.239-32.582-117.607l-18.864 6.646zm-.08-.239v.001l19.025-6.17-.001-.001-19.024 6.17zm-13.756-52.606c-.648 2.251-.589 4.418-.487 5.794.116 1.556.385 3.186.713 4.774.657 3.182 1.721 6.994 3.01 11.165 2.585 8.365 6.393 19.168 10.6 31.111l18.864-6.646c-4.259-12.088-7.913-22.464-10.356-30.371-1.226-3.964-2.068-7.06-2.531-9.302-.232-1.124-.326-1.834-.355-2.215-.041-.562.093.071-.239 1.223l-19.219-5.533zm24.304-32.938c-2.458.332-5.53.935-8.543 2.61-3.201 1.778-5.526 4.298-7.33 7.215-3.121 5.043-5.476 12.769-8.437 23.133l19.231 5.494c3.232-11.313 4.875-15.94 6.213-18.104.425-.687.446-.483.037-.256-.22.122-.053-.061 1.509-.272l-2.68-19.82zm9.542 1.096c-.732.123-1.407.234-2.099.318a12.91 12.91 0 01-1.592.115c-.436-.004-.224-.058.354.13.609.198 2.347.918 3.619 2.958l-16.969 10.586c2.034 3.26 5.025 4.78 7.176 5.479 2.119.688 4.161.833 5.638.847 2.931.026 5.871-.49 7.164-.705l-3.291-19.728zm1.76-.264c-.621.071-1.355.197-1.76.264l3.291 19.728c.272-.046.461-.077.618-.102.168-.026.194-.028.144-.022l-2.293-19.868zm6.496.352c-.859-.112-1.882-.246-2.785-.332-.638-.061-2.273-.221-3.931.007l2.733 19.813c-.345.047-.605.06-.737.064-.14.005-.228.003-.248.002-.027 0 .051.001.284.023.221.022.505.053.872.098.367.045.767.097 1.232.158l2.58-19.833zm3.172 2.417a7.03 7.03 0 012.013-1.542c.503-.252.871-.348.991-.377.19-.045.024.015-.683.015-.649 0-1.466-.05-2.453-.148-.984-.098-1.979-.227-3.04-.365l-2.58 19.833c1.938.252 5.091.678 8.059.68 1.498 0 3.393-.098 5.327-.558 1.821-.434 4.734-1.433 7.109-4.024L451.617 61.52zm1.389 11.647c-.028-.016-1.831-.947-2.807-3.534a8.27 8.27 0 01-.304-4.826c.371-1.546 1.091-2.564 1.529-3.071l15.128 13.083c2.453-2.837 4.207-7.35 2.359-12.246-1.466-3.888-4.509-5.952-6.171-6.877l-9.734 17.471zm-5.444-7.242c.498.83.735 1.403.831 1.69l18.96-6.366c-.632-1.883-1.534-3.768-2.641-5.614l-17.15 10.29zm-.35-.568l.408.664 17.033-10.482-.396-.644-17.045 10.462zm.006.01l17.033-10.482-17.033 10.481zm-.785-1.727a3.762 3.762 0 01-.541-.441c-.156-.154-.212-.239-.155-.162.069.093.21.292.473.704.265.416.572.915 1.002 1.615l17.045-10.462c-1.282-2.088-3.154-5.511-6.73-7.895L446.433 63.64zm-8.552-17.04l-5.28 8.491.002.002.007.004.027.017.107.067.407.252 1.461.908 4.529 2.811c3.266 2.026 6.945 4.302 7.769 4.787l10.14-17.239c-.561-.33-3.932-2.414-7.369-4.545-1.673-1.037-3.303-2.05-4.515-2.802l-1.457-.906-.405-.252c-.047-.029-.083-.05-.107-.066l-.027-.017-.007-.004h-.001l-.001-.001-5.28 8.492zm8.563 5.164l.001-.002-17.128-10.326-.002.002 17.129 10.326zm-13.862 3.318l.004.003 10.587-16.968-.003-.002-10.588 16.967zm-12.37-13.653a133.681 133.681 0 017.137 7.97 102.28 102.28 0 011.894 2.366 61.86 61.86 0 01.561.736l.016.023c.001.001.001 0 0 0l-.002-.004-.002-.002-.001-.001s-.001-.001 8.061-5.918c8.061-5.917 8.061-5.918 8.06-5.919l-.001-.002-.003-.003a.098.098 0 01-.006-.01l-.018-.023-.053-.072-.175-.234a119.775 119.775 0 00-2.896-3.655 153.567 153.567 0 00-8.22-9.18l-14.352 13.928zm-7.664-9.683a5.328 5.328 0 014.982 4.402l19.715-3.366c-1.974-11.563-11.76-20.448-23.754-21.014l-.943 19.978z" fill="#fff" mask="url(#a)"/></svg>