<svg width="472" height="490" viewBox="0 0 472 490" fill="none" xmlns="http://www.w3.org/2000/svg">
<path d="M370.639 330.785C370.639 330.785 335.757 353.198 334.29 374.306C332.823 395.414 334.779 438.935 343.174 446.27C351.568 453.687 341.87 460.777 341.87 460.777C341.87 460.777 325.57 443.744 321.739 438.12C317.909 432.497 302.668 395.414 286.124 380.908C269.58 366.401 171.617 361.348 171.617 361.348L358.659 317.338L370.639 330.785Z" fill="#5C414E"/>
<path d="M437.876 46.5976C437.876 46.5976 394.029 -13.1416 360.859 20.0287C327.688 53.199 327.281 134.78 320.761 154.421C314.241 173.981 321.25 192.645 284.82 221.577C248.389 250.509 107.966 319.132 84.1677 320.028C60.3698 320.925 40.3209 327.526 41.7064 335.432C43.0919 343.337 66.8897 341.463 97.2076 345.701C127.525 349.939 318.805 376.345 346.759 362.327C374.795 348.309 467.216 312.612 461.674 255.644C456.05 198.676 412.855 104.381 415.952 93.6228C422.961 69.0914 424.347 68.4395 435.512 67.4615C446.678 66.565 458.495 70.9659 458.495 67.4615C458.495 63.957 453.85 57.111 453.035 56.296C452.22 55.5625 437.876 46.5976 437.876 46.5976Z" fill="#FEF1F0"/>
<path d="M403.483 194.277C403.483 194.277 351.813 166.404 319.05 188.979C286.287 211.555 268.357 236.086 253.687 242.361C239.017 248.637 60.2886 350.348 42.1957 357.113C24.1028 363.877 6.58039 372.353 10.5739 378.058C14.5673 383.763 71.0465 373.005 85.798 372.435C100.549 371.864 172.269 366.241 196.067 361.106C219.865 355.972 436.328 327.202 426.711 280.829C417.094 234.456 403.483 194.277 403.483 194.277Z" fill="#CBBEBD"/>
<path d="M298.022 198.188C306.824 185.393 321.168 177.651 336.653 176.999C369.497 175.613 431.029 177.814 432.985 213.836C435.593 263.062 430.947 314.896 394.843 328.343C358.739 341.791 192.398 352.304 175.609 343.013C158.82 333.722 86.3674 333.233 128.177 324.676C169.986 316.118 255.805 295.825 197.288 304.545C138.772 313.266 96.9623 332.174 99.3258 322.312C101.689 312.451 139.831 311.228 148.307 305.279C156.783 299.329 284.411 221.416 291.42 208.865C293.621 204.871 295.821 201.285 298.022 198.188Z" fill="#BD988D"/>
<path d="M412.285 52.3821C420.747 52.3821 427.607 45.5223 427.607 37.0602C427.607 28.5981 420.747 21.7383 412.285 21.7383C403.823 21.7383 396.963 28.5981 396.963 37.0602C396.963 45.5223 403.823 52.3821 412.285 52.3821Z" fill="#CBBEBD"/>
<path d="M413.507 48.1482C419.179 48.1482 423.776 43.5507 423.776 37.8793C423.776 32.2079 419.179 27.6104 413.507 27.6104C407.836 27.6104 403.238 32.2079 403.238 37.8793C403.238 43.5507 407.836 48.1482 413.507 48.1482Z" fill="#FEF1F0"/>
<path d="M437.874 46.5977C437.874 46.5977 429.887 59.1486 430.213 62.3271C430.539 65.5055 432.902 67.9505 432.902 67.9505C432.902 67.9505 445.453 67.7875 450.18 68.521C454.907 69.2545 457.841 69.5805 458.249 68.1135C458.656 66.6466 458.086 64.0386 456.13 60.7786C454.174 57.6001 453.44 56.2961 451.973 55.3181C450.588 54.5031 437.874 46.5977 437.874 46.5977Z" fill="#F37880"/>
<path d="M346.429 453.116C346.429 453.116 339.257 461.836 358.328 464.363C377.399 466.889 397.122 466.563 404.946 469.986C412.77 473.409 409.917 473.083 409.917 473.083C409.917 473.083 387.097 478.381 375.198 474.632C363.299 470.883 355.801 471.535 355.801 471.535C355.801 471.535 358.898 476.832 360.773 479.359C362.647 481.885 349.852 474.958 349.852 474.958C349.852 474.958 343.903 467.134 337.383 466.808C330.781 466.482 323.283 462.407 314.889 464.607C316.111 458.006 329.559 460.532 334.286 456.457C339.013 452.382 337.383 447.085 337.383 447.085L346.429 453.116Z" fill="#5C414E"/>
<path d="M327.034 433.634C327.034 433.634 320.84 441.132 337.221 443.251C353.521 445.37 370.391 445.126 377.074 448.06C383.757 450.994 381.394 450.749 381.394 450.749C381.394 450.749 361.834 455.313 351.728 452.053C341.54 448.875 335.102 449.364 335.102 449.364C335.102 449.364 337.791 453.928 339.421 456.047C341.051 458.166 330.049 452.298 330.049 452.298C330.049 452.298 324.996 445.615 319.373 445.37C313.749 445.126 307.311 441.621 300.139 443.496C301.198 437.872 312.69 439.991 316.765 436.568C320.758 433.064 319.454 428.5 319.454 428.5L327.034 433.634Z" fill="#5C414E"/>
<path d="M407.15 36.7373C407.313 34.6998 408.78 32.9883 410.817 32.3363C412.692 31.7658 415.218 31.5213 417.174 33.1513C420.679 36.1668 419.782 38.8563 419.375 39.5083C418.397 41.0568 417.745 43.5017 410.002 41.4643C409.106 41.2198 406.905 39.9158 407.15 36.7373Z" fill="#2C1E24"/>
<path d="M431.522 59.0664C431.522 59.0664 448.963 63.3859 452.549 63.2229C456.135 63.0599 461.596 65.2604 458.988 68.2759C456.298 71.2098 445.459 68.3574 443.095 68.6834C440.976 68.9279 433.071 70.8838 431.767 67.3794C430.463 64.1194 428.67 59.3924 431.522 59.0664Z" fill="#E5737E"/>
<mask id="path-12-outside-1" maskUnits="userSpaceOnUse" x="-1.00008" y="-1.9233e-06" width="473" height="490" fill="black">
<rect fill="white" x="-1.00008" y="-1.9233e-06" width="473" height="490"/>
<path fill-rule="evenodd" clip-rule="evenodd" d="M413.019 21.7558C397.739 10.461 377.891 2.99627 360.859 20.0287C336.605 44.2827 329.867 94.4192 325.449 127.299C323.825 139.386 322.514 149.142 320.761 154.421C319.178 159.171 318.392 163.867 317.589 168.671C316.8 173.386 315.994 178.205 314.4 183.278C307.958 186.881 302.327 191.93 298.022 198.189C295.821 201.285 293.621 204.871 291.42 208.865C287.705 215.519 250.09 240.542 214.299 263.475C211.158 265.207 207.888 267.014 204.513 268.881C154.124 294.831 98.3719 319.493 84.1677 320.028C60.3699 320.925 40.321 327.526 41.7065 335.432C42.6398 340.758 53.7446 341.645 70.1619 342.952C56.0668 350.502 45.8517 355.746 42.1957 357.113C24.1028 363.877 6.58036 372.353 10.5738 378.058C13.2686 381.908 39.8624 378.261 61.407 375.307L61.4078 375.307C71.7906 373.883 81.0008 372.62 85.7979 372.435C99.2435 371.915 160.018 367.197 188.693 362.478C217.528 364.661 273.932 370.218 286.124 380.908C298.524 391.781 310.192 415.338 316.872 428.824L316.872 428.824L316.873 428.825C317.694 430.483 318.439 431.988 319.102 433.299C318.678 434.386 317.958 435.528 316.764 436.576C315.065 438.003 312.077 438.467 309.094 438.93C304.921 439.578 300.756 440.225 300.138 443.504C304.759 442.296 309.075 443.321 313.064 444.268C315.268 444.792 317.371 445.291 319.372 445.378C324.995 445.623 330.048 452.306 330.048 452.306C330.048 452.306 332.992 453.876 335.609 455.098C335.236 455.56 334.798 456.016 334.286 456.457C332.305 458.165 328.792 458.714 325.289 459.26C320.435 460.018 315.599 460.773 314.889 464.607C320.323 463.183 325.381 464.388 330.064 465.504C332.615 466.112 335.055 466.693 337.383 466.808C343.903 467.134 349.853 474.958 349.853 474.958C349.853 474.958 362.648 481.885 360.774 479.359C358.899 476.832 355.802 471.535 355.802 471.535C355.802 471.535 363.3 470.883 375.199 474.632C387.098 478.381 409.918 473.083 409.918 473.083C409.918 473.083 412.77 473.409 404.946 469.986C400.137 467.882 390.831 467.195 379.944 466.39L379.944 466.39L379.943 466.39C373.12 465.886 365.676 465.336 358.329 464.363C348.08 463.005 345.41 459.859 345.133 457.238C346.274 455.456 347.085 453.136 346.251 450.597C347.923 450.968 349.755 451.446 351.727 452.061C361.833 455.321 381.393 450.757 381.393 450.757C381.393 450.757 383.757 451.002 377.074 448.068C372.927 446.247 364.86 445.65 355.44 444.954L355.439 444.954L355.439 444.954C350.915 444.619 346.079 444.261 341.217 443.734C334.478 431.874 332.944 393.665 334.29 374.306C334.506 371.199 335.446 368.064 336.892 364.976C341.142 364.337 344.489 363.465 346.759 362.327C349.874 360.769 353.784 358.944 358.266 356.852L358.268 356.851C394.126 340.113 466.6 306.282 461.674 255.644C458.347 221.944 441.873 175.182 429.611 140.378L429.611 140.377C421.145 116.347 414.688 98.0168 415.952 93.6228C422.146 71.9466 423.948 68.9147 431.987 67.8279C433.509 70.2672 438.97 69.3561 441.835 68.8781C442.353 68.7917 442.786 68.7194 443.096 68.6836C443.817 68.5842 445.328 68.7807 447.155 69.0184C451.316 69.5598 457.119 70.3148 458.988 68.2761C460.354 66.6964 459.506 65.3404 457.873 64.4306C457.509 63.3459 456.94 62.1174 456.137 60.779C455.997 60.5515 455.863 60.3336 455.735 60.1247L455.735 60.1244C454.072 57.4154 453.342 56.2265 451.98 55.3185C450.595 54.5035 437.881 46.5981 437.881 46.5981L437.88 46.5999L437.876 46.5976C437.876 46.5976 433.88 41.153 427.388 34.4639C426.194 27.4733 420.265 22.0979 413.019 21.7558Z"/>
</mask>
<path d="M360.859 20.0287L367.93 27.0998L367.93 27.0998L360.859 20.0287ZM413.019 21.7558L407.075 29.7975L409.516 31.6016L412.548 31.7447L413.019 21.7558ZM325.449 127.299L315.538 125.967L315.538 125.967L325.449 127.299ZM320.761 154.421L330.248 157.584L330.252 157.572L320.761 154.421ZM317.589 168.671L327.452 170.32L327.452 170.32L317.589 168.671ZM314.4 183.278L319.28 192.006L322.748 190.067L323.939 186.277L314.4 183.278ZM298.022 198.189L306.173 203.981L306.218 203.919L306.261 203.856L298.022 198.189ZM291.42 208.865L300.151 213.741L300.165 213.716L300.179 213.691L291.42 208.865ZM214.299 263.475L219.129 272.231L219.417 272.072L219.695 271.894L214.299 263.475ZM204.513 268.881L209.091 277.772L209.224 277.704L209.354 277.632L204.513 268.881ZM84.1677 320.028L83.7913 310.036L83.7913 310.036L84.1677 320.028ZM41.7065 335.432L51.5563 333.706L41.7065 335.432ZM70.1619 342.952L74.8836 351.767L104.904 335.688L70.9559 332.984L70.1619 342.952ZM42.1957 357.113L38.6937 347.746L38.6937 347.746L42.1957 357.113ZM10.5738 378.058L2.38151 383.793L2.38153 383.793L10.5738 378.058ZM61.407 375.307L60.2715 365.372L60.1598 365.384L60.0484 365.4L61.407 375.307ZM61.4078 375.307L62.5432 385.242L62.6549 385.229L62.7663 385.214L61.4078 375.307ZM85.7979 372.435L86.1844 382.427L86.1844 382.427L85.7979 372.435ZM188.693 362.478L189.448 352.506L188.252 352.415L187.069 352.61L188.693 362.478ZM286.124 380.908L279.531 388.427L279.531 388.427L286.124 380.908ZM316.872 428.824L326.359 425.661L326.14 425.005L325.833 424.385L316.872 428.824ZM316.872 428.824L307.385 431.986L307.61 432.66L307.928 433.296L316.872 428.824ZM316.873 428.825L325.834 424.386L325.825 424.37L325.817 424.353L316.873 428.825ZM319.102 433.299L328.42 436.928L330.039 432.771L328.027 428.789L319.102 433.299ZM316.764 436.576L323.196 444.233L323.279 444.164L323.36 444.092L316.764 436.576ZM309.094 438.93L310.628 448.812L310.628 448.812L309.094 438.93ZM300.138 443.504L290.311 441.652L287.387 457.172L302.667 453.179L300.138 443.504ZM313.064 444.268L315.375 434.539L315.375 434.539L313.064 444.268ZM319.372 445.378L319.806 435.388L319.806 435.388L319.372 445.378ZM330.048 452.306L322.072 458.337L323.4 460.093L325.343 461.129L330.048 452.306ZM335.609 455.098L343.389 461.381L351.413 451.445L339.842 446.038L335.609 455.098ZM334.286 456.457L340.816 464.032L340.816 464.031L334.286 456.457ZM325.289 459.26L323.747 449.38L323.747 449.38L325.289 459.26ZM314.889 464.607L305.056 462.786L302.188 478.275L317.425 474.281L314.889 464.607ZM330.064 465.504L332.382 455.776L332.382 455.776L330.064 465.504ZM337.383 466.808L337.882 456.82L337.876 456.82L337.383 466.808ZM349.853 474.958L341.892 481.011L343.197 482.726L345.092 483.752L349.853 474.958ZM360.774 479.359L368.805 473.4L368.804 473.4L360.774 479.359ZM355.802 471.535L354.936 461.572L339.195 462.941L347.169 476.582L355.802 471.535ZM375.199 474.632L372.194 484.17L372.194 484.17L375.199 474.632ZM409.918 473.083L411.053 463.148L409.338 462.952L407.656 463.342L409.918 473.083ZM404.946 469.986L408.954 460.825L408.954 460.825L404.946 469.986ZM379.944 466.39L380.681 456.418L380.313 456.39L379.944 456.39L379.944 466.39ZM379.943 466.39L379.207 476.363L379.575 476.39L379.943 476.39L379.943 466.39ZM358.329 464.363L359.642 454.45L358.329 464.363ZM345.133 457.238L336.711 451.847L334.82 454.801L335.188 458.289L345.133 457.238ZM346.251 450.597L348.416 440.834L331.273 437.034L336.75 453.716L346.251 450.597ZM351.727 452.061L354.797 442.544L354.751 442.529L354.706 442.515L351.727 452.061ZM381.393 450.757L382.422 440.81L380.754 440.638L379.121 441.019L381.393 450.757ZM377.074 448.068L381.093 438.911L377.074 448.068ZM355.44 444.954L356.177 434.981L355.809 434.954L355.44 434.954L355.44 444.954ZM355.439 444.954L355.439 434.954L355.439 444.954ZM355.439 444.954L354.701 454.926L355.069 454.954L355.439 454.954L355.439 444.954ZM341.217 443.734L332.522 448.674L335.05 453.124L340.138 453.675L341.217 443.734ZM334.29 374.306L344.266 375L334.29 374.306ZM336.892 364.976L335.406 355.087L330.108 355.883L327.836 360.734L336.892 364.976ZM346.759 362.327L342.287 353.383L342.277 353.388L346.759 362.327ZM358.266 356.852L362.496 365.913L362.618 365.857L362.738 365.796L358.266 356.852ZM358.268 356.851L354.038 347.79L353.916 347.847L353.796 347.907L358.268 356.851ZM461.674 255.644L471.627 254.676L471.626 254.669L471.625 254.662L461.674 255.644ZM429.611 140.378L420.099 143.463L420.138 143.582L420.179 143.701L429.611 140.378ZM429.611 140.377L439.123 137.292L439.085 137.173L439.043 137.054L429.611 140.377ZM415.952 93.6228L425.562 96.3893L425.565 96.3797L425.568 96.37L415.952 93.6228ZM431.987 67.8279L440.471 62.5352L437.051 57.0522L430.647 57.918L431.987 67.8279ZM441.835 68.8781L440.189 59.0144L440.189 59.0144L441.835 68.8781ZM443.096 68.6836L444.242 78.6177L444.352 78.605L444.462 78.5899L443.096 68.6836ZM447.155 69.0184L448.445 59.102L447.155 69.0184ZM458.988 68.2761L466.36 75.0334L466.457 74.9269L466.552 74.8177L458.988 68.2761ZM457.873 64.4306L448.393 67.6132L449.625 71.2825L453.006 73.1663L457.873 64.4306ZM456.137 60.779L464.712 55.634L464.683 55.5858L464.653 55.538L456.137 60.779ZM455.735 60.1247L464.257 54.8937L464.251 54.8837L455.735 60.1247ZM455.735 60.1244L447.212 65.3554L447.218 65.3654L455.735 60.1244ZM451.98 55.3185L457.527 46.9981L457.293 46.8419L457.05 46.6992L451.98 55.3185ZM437.881 46.5981L443.161 38.1059L434.551 32.7522L429.317 41.4352L437.881 46.5981ZM437.88 46.5999L432.586 55.0838L441.201 60.4596L446.444 51.7629L437.88 46.5999ZM437.876 46.5976L429.814 52.5146L430.951 54.064L432.582 55.0814L437.876 46.5976ZM427.388 34.4639L417.53 36.1466L418.052 39.2033L420.212 41.4285L427.388 34.4639ZM367.93 27.0998C374.223 20.807 380.35 19.4257 386.33 20.189C392.912 21.0292 400.067 24.6175 407.075 29.7975L418.963 13.7142C410.691 7.59929 400.282 1.8078 388.862 0.350019C376.84 -1.18457 364.527 2.21801 353.788 12.9577L367.93 27.0998ZM335.36 128.631C337.581 112.105 340.298 91.976 345.375 73.0156C350.511 53.834 357.699 37.3306 367.93 27.0998L353.788 12.9577C339.765 26.9808 331.457 47.6725 326.056 67.8426C320.596 88.234 317.736 109.613 315.538 125.967L335.36 128.631ZM330.252 157.572C332.381 151.158 333.811 140.157 335.36 128.631L315.538 125.967C313.838 138.615 312.646 147.125 311.27 151.271L330.252 157.572ZM327.452 170.32C328.273 165.411 328.95 161.476 330.248 157.584L311.274 151.259C309.405 156.866 308.512 162.324 307.726 167.021L327.452 170.32ZM323.939 186.277C325.772 180.446 326.675 174.968 327.452 170.32L307.726 167.021C306.926 171.805 306.216 175.964 304.86 180.279L323.939 186.277ZM306.261 203.856C309.677 198.889 314.148 194.876 319.28 192.006L309.519 174.55C301.767 178.885 294.977 184.971 289.783 192.521L306.261 203.856ZM300.179 213.691C302.249 209.934 304.249 206.689 306.173 203.981L289.87 192.396C287.393 195.882 284.993 199.809 282.662 204.039L300.179 213.691ZM219.695 271.894C237.616 260.411 256.092 248.342 270.59 238.28C277.825 233.259 284.188 228.655 289.034 224.827C291.45 222.919 293.609 221.109 295.354 219.47C296.864 218.052 298.871 216.032 300.151 213.741L282.689 203.989C283.04 203.361 283.06 203.579 281.661 204.892C280.498 205.985 278.83 207.401 276.637 209.133C272.267 212.584 266.293 216.917 259.186 221.85C245 231.696 226.774 243.605 208.904 255.055L219.695 271.894ZM209.354 277.632C212.726 275.766 215.992 273.961 219.129 272.231L209.47 254.718C206.324 256.454 203.05 258.262 199.672 260.131L209.354 277.632ZM84.5442 330.021C89.7975 329.823 97.2823 327.652 105.17 324.903C113.49 322.002 123.604 317.958 134.725 313.17C156.989 303.586 183.735 290.83 209.091 277.772L199.934 259.991C174.902 272.882 148.578 285.432 126.817 294.8C115.926 299.489 106.289 303.332 98.5864 306.017C90.4508 308.853 85.64 309.966 83.7913 310.036L84.5442 330.021ZM51.5563 333.706C52.087 336.734 50.1124 338.092 50.8789 337.442C51.6055 336.825 53.4303 335.725 56.8138 334.534C63.4127 332.211 73.3201 330.444 84.5442 330.021L83.7913 310.036C71.2175 310.509 59.2015 312.491 50.1729 315.669C45.7426 317.229 41.3276 319.317 37.941 322.19C34.5944 325.029 30.6331 330.177 31.8566 337.158L51.5563 333.706ZM70.9559 332.984C62.4675 332.308 56.3623 331.801 52.2066 330.917C51.241 330.712 50.5252 330.514 50.0118 330.34C49.4852 330.161 49.3128 330.053 49.3615 330.082C49.5287 330.182 51.1307 331.277 51.5563 333.706L31.8566 337.158C32.7489 342.25 36.089 345.453 39.1139 347.257C41.9432 348.946 45.1914 349.873 48.0488 350.48C53.7831 351.699 61.439 352.289 69.3679 352.921L70.9559 332.984ZM45.6976 366.48C50.148 364.816 61.1109 359.145 74.8836 351.767L65.4403 334.137C51.0227 341.86 41.5553 346.676 38.6937 347.746L45.6976 366.48ZM18.7662 372.324C19.7431 373.719 20.2147 375.607 19.907 377.447C19.7775 378.221 19.5427 378.783 19.3783 379.108C19.2945 379.273 19.221 379.392 19.1723 379.466C19.1235 379.54 19.093 379.579 19.0904 379.582C19.0899 379.582 19.1665 379.488 19.3616 379.304C19.5536 379.122 19.825 378.887 20.1924 378.601C20.9376 378.022 21.9447 377.338 23.2389 376.563C28.5741 373.369 36.7804 369.813 45.6977 366.48L38.6937 347.746C29.518 351.177 19.9167 355.242 12.9658 359.403C9.63242 361.398 5.99158 363.944 3.48098 367.078C2.18866 368.691 0.695047 371.074 0.180904 374.148C-0.391397 377.57 0.406157 380.971 2.38151 383.793L18.7662 372.324ZM60.0484 365.4C49.1949 366.888 37.4523 368.495 28.0982 369.268C23.3817 369.658 19.6486 369.801 17.1009 369.679C16.492 369.65 16.0152 369.609 15.6566 369.564C15.2867 369.518 15.1275 369.479 15.128 369.479C15.1347 369.481 15.2158 369.501 15.3545 369.552C15.4903 369.601 15.726 369.695 16.0264 369.854C16.5612 370.137 17.7389 370.856 18.7661 372.324L2.38153 383.793C4.90107 387.392 8.7233 388.484 10.1682 388.854C12.1371 389.358 14.2441 389.566 16.1464 389.656C20.0162 389.841 24.7834 389.61 29.7452 389.2C39.7478 388.374 52.0744 386.68 62.7655 385.214L60.0484 365.4ZM60.2723 365.372L60.2715 365.372L62.5424 385.242L62.5432 385.242L60.2723 365.372ZM85.4115 362.442C79.9896 362.652 70.1262 364.018 60.0492 365.4L62.7663 385.214C73.455 383.749 82.0119 382.589 86.1844 382.427L85.4115 362.442ZM187.069 352.61C158.94 357.24 98.6094 361.932 85.4115 362.442L86.1844 382.427C99.8776 381.898 161.095 377.154 190.317 372.345L187.069 352.61ZM292.716 373.389C287.782 369.063 279.933 366.246 272.474 364.186C264.497 361.983 254.981 360.149 245.19 358.622C225.574 355.564 203.96 353.605 189.448 352.506L187.938 372.449C202.262 373.534 223.266 375.445 242.109 378.383C251.548 379.855 260.221 381.551 267.15 383.464C274.596 385.521 278.369 387.408 279.531 388.427L292.716 373.389ZM325.833 424.385C322.508 417.673 317.765 408.088 312.243 398.782C306.828 389.658 300.156 379.912 292.716 373.389L279.531 388.427C284.492 392.777 289.854 400.246 295.043 408.99C300.125 417.552 304.556 426.488 307.911 433.262L325.833 424.385ZM326.359 425.662L326.359 425.661L307.385 431.986L307.385 431.986L326.359 425.662ZM325.817 424.353L325.816 424.352L307.928 433.296L307.929 433.297L325.817 424.353ZM328.027 428.789C327.386 427.521 326.66 426.054 325.834 424.386L307.912 433.264C308.728 434.911 309.492 436.455 310.176 437.808L328.027 428.789ZM323.36 444.092C325.818 441.935 327.443 439.437 328.42 436.928L309.783 429.67C309.84 429.524 309.914 429.385 309.998 429.262C310.084 429.138 310.153 429.073 310.168 429.06L323.36 444.092ZM310.628 448.812C311.998 448.599 314.034 448.293 315.967 447.782C317.819 447.293 320.673 446.353 323.196 444.233L310.332 428.919C310.796 428.53 311.149 428.368 311.207 428.343C311.266 428.316 311.176 428.362 310.855 428.447C310.54 428.53 310.117 428.622 309.538 428.726C308.952 428.832 308.328 428.929 307.56 429.048L310.628 448.812ZM309.965 445.355C309.855 445.939 309.644 446.563 309.312 447.174C308.982 447.78 308.59 448.267 308.212 448.638C307.843 448.999 307.513 449.226 307.303 449.352C307.197 449.416 307.114 449.459 307.061 449.485C307.034 449.498 307.014 449.507 307 449.513C306.987 449.519 306.98 449.522 306.979 449.522C306.979 449.522 307.002 449.513 307.05 449.497C307.099 449.481 307.168 449.459 307.261 449.434C307.45 449.381 307.702 449.32 308.035 449.252C308.74 449.107 309.536 448.981 310.628 448.812L307.56 429.048C305.811 429.32 302.491 429.783 299.586 430.938C296.406 432.204 291.524 435.215 290.311 441.652L309.965 445.355ZM315.375 434.539C311.674 433.66 304.985 431.901 297.609 433.829L302.667 453.179C304.532 452.691 306.475 452.982 310.754 453.998L315.375 434.539ZM319.806 435.388C318.936 435.35 317.8 435.115 315.375 434.539L310.754 453.998C312.736 454.468 315.807 455.233 318.938 455.369L319.806 435.388ZM330.048 452.306C338.025 446.274 338.023 446.272 338.022 446.27C338.021 446.27 338.02 446.268 338.019 446.266C338.016 446.263 338.014 446.26 338.012 446.257C338.007 446.251 338.002 446.244 337.996 446.237C337.986 446.223 337.973 446.207 337.96 446.189C337.933 446.154 337.901 446.112 337.863 446.064C337.788 445.969 337.692 445.847 337.575 445.705C337.343 445.42 337.028 445.044 336.638 444.605C335.868 443.742 334.752 442.574 333.362 441.371C330.955 439.289 326.108 435.661 319.806 435.388L318.938 455.369C318.458 455.348 318.382 455.218 318.78 455.426C319.162 455.626 319.68 455.98 320.276 456.496C320.852 456.994 321.351 457.513 321.704 457.91C321.876 458.102 321.999 458.25 322.065 458.331C322.098 458.372 322.116 458.394 322.117 458.396C322.118 458.397 322.115 458.393 322.107 458.383C322.104 458.379 322.099 458.372 322.093 458.364C322.09 458.361 322.087 458.356 322.083 458.352C322.081 458.349 322.08 458.347 322.078 458.344C322.077 458.343 322.075 458.341 322.075 458.341C322.073 458.339 322.072 458.337 330.048 452.306ZM339.842 446.038C338.693 445.502 337.426 444.866 336.412 444.346C335.913 444.09 335.491 443.87 335.196 443.715C335.049 443.638 334.935 443.578 334.859 443.537C334.821 443.517 334.792 443.502 334.775 443.493C334.766 443.488 334.76 443.485 334.756 443.483C334.755 443.482 334.754 443.482 334.753 443.481C334.753 443.481 334.753 443.481 334.753 443.481C334.753 443.481 334.753 443.482 334.754 443.482C334.754 443.482 334.754 443.482 334.754 443.482C334.754 443.482 334.754 443.482 330.048 452.306C325.343 461.129 325.343 461.129 325.343 461.129C325.343 461.129 325.343 461.129 325.343 461.13C325.344 461.13 325.344 461.13 325.345 461.13C325.346 461.131 325.347 461.131 325.348 461.132C325.35 461.133 325.354 461.135 325.357 461.137C325.365 461.141 325.376 461.147 325.389 461.154C325.416 461.168 325.454 461.188 325.501 461.213C325.597 461.264 325.732 461.336 325.902 461.425C326.241 461.603 326.719 461.852 327.283 462.141C328.395 462.711 329.908 463.472 331.376 464.158L339.842 446.038ZM340.816 464.031C341.775 463.204 342.632 462.318 343.389 461.381L327.829 448.815C327.839 448.803 327.822 448.828 327.757 448.883L340.816 464.031ZM326.831 469.141C328.458 468.887 330.768 468.537 332.946 467.954C335.045 467.391 338.135 466.342 340.816 464.032L327.757 448.883C328.157 448.539 328.437 448.418 328.412 448.43C328.387 448.441 328.2 448.52 327.771 448.635C326.821 448.889 325.623 449.087 323.747 449.38L326.831 469.141ZM324.722 466.428C324.628 466.938 324.443 467.496 324.144 468.051C323.847 468.602 323.496 469.042 323.162 469.372C322.535 469.992 322.061 470.14 322.253 470.063C322.433 469.991 322.874 469.848 323.741 469.669C324.605 469.49 325.569 469.338 326.831 469.141L323.747 449.38C321.661 449.706 317.994 450.225 314.817 451.497C311.346 452.887 306.298 456.083 305.056 462.786L324.722 466.428ZM332.382 455.776C327.983 454.728 320.549 452.786 312.354 454.934L317.425 474.281C320.097 473.58 322.779 474.048 327.746 475.232L332.382 455.776ZM337.876 456.82C336.646 456.759 335.146 456.435 332.382 455.776L327.746 475.232C330.085 475.789 333.464 476.627 336.89 476.796L337.876 456.82ZM349.853 474.958C357.813 468.905 357.811 468.903 357.81 468.901C357.809 468.9 357.807 468.898 357.806 468.897C357.804 468.894 357.802 468.891 357.799 468.888C357.795 468.881 357.789 468.875 357.784 468.867C357.773 468.853 357.76 468.836 357.746 468.818C357.717 468.781 357.683 468.737 357.642 468.685C357.561 468.582 357.455 468.449 357.326 468.292C357.069 467.978 356.717 467.559 356.28 467.069C355.416 466.102 354.165 464.795 352.615 463.45C349.896 461.093 344.617 457.157 337.882 456.82L336.884 476.795C336.669 476.785 337.625 476.924 339.511 478.56C340.263 479.212 340.907 479.881 341.363 480.391C341.585 480.64 341.748 480.835 341.842 480.95C341.889 481.007 341.917 481.043 341.926 481.055C341.931 481.061 341.93 481.06 341.925 481.053C341.922 481.049 341.918 481.044 341.913 481.037C341.91 481.034 341.907 481.03 341.904 481.025C341.902 481.023 341.9 481.021 341.898 481.018C341.897 481.017 341.896 481.015 341.895 481.015C341.894 481.013 341.892 481.011 349.853 474.958ZM352.743 485.317C352.583 485.102 352.283 484.676 351.979 484.072C351.707 483.533 351.183 482.372 351.015 480.771C350.83 479.016 351.071 476.466 352.771 474.061C354.404 471.751 356.557 470.75 357.906 470.336C359.214 469.934 360.294 469.907 360.819 469.914C361.407 469.922 361.859 469.986 362.103 470.027C362.367 470.07 362.561 470.117 362.662 470.143C362.77 470.17 362.838 470.191 362.856 470.197C362.861 470.199 362.628 470.12 362.086 469.887C361.591 469.675 360.993 469.401 360.326 469.082C358.992 468.445 357.565 467.717 356.445 467.133C355.891 466.844 355.426 466.598 355.101 466.425C354.94 466.339 354.813 466.272 354.73 466.227C354.688 466.204 354.657 466.187 354.637 466.177C354.627 466.171 354.62 466.168 354.616 466.166C354.614 466.164 354.613 466.164 354.613 466.164C354.612 466.163 354.612 466.163 354.613 466.163C354.613 466.163 354.613 466.164 354.613 466.164C354.613 466.164 354.614 466.164 349.853 474.958C345.092 483.752 345.092 483.752 345.092 483.752C345.093 483.752 345.093 483.753 345.094 483.753C345.095 483.753 345.096 483.754 345.097 483.755C345.1 483.756 345.103 483.758 345.107 483.76C345.115 483.765 345.127 483.771 345.141 483.779C345.17 483.794 345.21 483.816 345.262 483.843C345.365 483.899 345.512 483.978 345.696 484.076C346.064 484.272 346.584 484.547 347.201 484.869C348.42 485.504 350.076 486.35 351.706 487.129C353.167 487.827 355.17 488.746 356.86 489.277C357.316 489.42 358.012 489.621 358.82 489.755C359.247 489.826 361.341 490.203 363.779 489.454C365.213 489.014 367.429 487.973 369.102 485.606C370.842 483.145 371.099 480.524 370.905 478.681C370.595 475.73 369.063 473.749 368.805 473.4L352.743 485.317ZM355.802 471.535C347.169 476.582 347.169 476.582 347.169 476.582C347.169 476.582 347.17 476.583 347.17 476.583C347.17 476.583 347.17 476.584 347.171 476.585C347.171 476.586 347.172 476.588 347.174 476.589C347.176 476.593 347.179 476.598 347.182 476.605C347.19 476.618 347.2 476.635 347.214 476.658C347.24 476.703 347.278 476.767 347.325 476.848C347.421 477.009 347.557 477.24 347.726 477.523C348.062 478.087 348.532 478.869 349.066 479.737C350.072 481.373 351.518 483.666 352.743 485.317L368.804 473.4C368.155 472.525 367.114 470.906 366.103 469.261C365.629 468.49 365.207 467.789 364.905 467.281C364.754 467.028 364.633 466.825 364.552 466.687C364.512 466.618 364.481 466.566 364.461 466.532C364.451 466.515 364.444 466.503 364.439 466.495C364.437 466.492 364.436 466.489 364.435 466.488C364.435 466.487 364.434 466.487 364.434 466.487C364.434 466.487 364.434 466.487 364.435 466.487C364.435 466.487 364.435 466.487 364.435 466.488C364.435 466.488 364.435 466.488 355.802 471.535ZM378.204 465.094C371.518 462.988 365.961 462.084 361.944 461.719C359.936 461.536 358.315 461.488 357.131 461.492C356.539 461.493 356.055 461.508 355.688 461.525C355.504 461.533 355.349 461.542 355.223 461.551C355.16 461.555 355.105 461.559 355.057 461.563C355.033 461.564 355.011 461.566 354.991 461.568C354.981 461.569 354.971 461.569 354.962 461.57C354.957 461.571 354.953 461.571 354.948 461.571C354.946 461.572 354.943 461.572 354.942 461.572C354.939 461.572 354.936 461.572 355.802 471.535C356.668 481.497 356.665 481.498 356.662 481.498C356.661 481.498 356.658 481.498 356.656 481.498C356.652 481.499 356.649 481.499 356.645 481.499C356.638 481.5 356.631 481.5 356.624 481.501C356.611 481.502 356.6 481.503 356.591 481.504C356.572 481.505 356.56 481.506 356.555 481.506C356.545 481.507 356.563 481.506 356.607 481.504C356.696 481.5 356.891 481.492 357.188 481.492C357.782 481.49 358.779 481.513 360.133 481.636C362.84 481.882 366.981 482.527 372.194 484.17L378.204 465.094ZM409.918 473.083C407.656 463.342 407.658 463.342 407.659 463.342C407.659 463.342 407.66 463.342 407.661 463.341C407.662 463.341 407.662 463.341 407.663 463.341C407.663 463.341 407.663 463.341 407.661 463.341C407.657 463.342 407.647 463.344 407.633 463.348C407.604 463.354 407.554 463.366 407.484 463.381C407.344 463.412 407.125 463.46 406.835 463.522C406.255 463.645 405.393 463.822 404.315 464.025C402.149 464.433 399.155 464.939 395.839 465.334C388.67 466.186 381.913 466.262 378.204 465.094L372.194 484.17C380.384 486.75 390.986 486.052 398.202 485.193C402.078 484.732 405.533 484.148 408.018 483.68C409.264 483.445 410.278 483.237 410.992 483.085C411.35 483.009 411.633 482.947 411.833 482.903C411.933 482.88 412.013 482.862 412.071 482.849C412.1 482.843 412.124 482.837 412.142 482.833C412.151 482.831 412.158 482.829 412.164 482.828C412.168 482.827 412.17 482.826 412.173 482.826C412.174 482.826 412.176 482.825 412.176 482.825C412.178 482.825 412.179 482.824 409.918 473.083ZM400.938 479.148C402.787 479.957 403.786 480.45 404.264 480.709C404.507 480.841 404.472 480.835 404.284 480.706C404.273 480.698 403.339 480.091 402.422 478.893C401.954 478.28 400.992 476.877 400.597 474.788C400.13 472.321 400.593 469.521 402.296 467.158C403.756 465.133 405.563 464.215 406.463 463.837C407.435 463.428 408.255 463.271 408.682 463.203C409.532 463.069 410.184 463.09 410.38 463.097C410.531 463.102 410.66 463.111 410.763 463.119C410.816 463.124 410.867 463.128 410.914 463.133C410.938 463.136 410.962 463.138 410.985 463.14C410.996 463.142 411.008 463.143 411.019 463.144C411.025 463.145 411.031 463.145 411.036 463.146C411.039 463.146 411.043 463.147 411.045 463.147C411.049 463.148 411.053 463.148 409.918 473.083C408.782 483.019 408.786 483.019 408.791 483.02C408.792 483.02 408.797 483.02 408.799 483.021C408.805 483.021 408.811 483.022 408.817 483.023C408.829 483.024 408.842 483.025 408.855 483.027C408.881 483.029 408.908 483.032 408.937 483.035C408.995 483.041 409.061 483.047 409.133 483.053C409.274 483.064 409.457 483.077 409.67 483.084C409.992 483.096 410.805 483.116 411.801 482.958C412.3 482.88 413.188 482.705 414.218 482.272C415.176 481.869 417.03 480.92 418.519 478.854C420.252 476.45 420.727 473.599 420.248 471.07C419.842 468.92 418.845 467.444 418.31 466.744C417.261 465.373 416.071 464.539 415.631 464.235C415.014 463.811 414.373 463.439 413.784 463.12C412.596 462.477 411.018 461.728 408.954 460.825L400.938 479.148ZM379.208 476.363C384.727 476.771 389.499 477.126 393.485 477.624C397.687 478.149 399.962 478.721 400.938 479.148L408.954 460.825C405.121 459.148 400.338 458.324 395.963 457.778C391.372 457.205 386.049 456.814 380.681 456.418L379.208 476.363ZM379.944 476.39L379.944 476.39L379.944 456.39L379.944 456.39L379.944 476.39ZM379.943 476.39L379.944 476.39L379.944 456.39L379.943 456.39L379.943 476.39ZM357.015 474.276C364.696 475.294 372.427 475.862 379.207 476.363L380.68 456.418C373.813 455.91 366.656 455.379 359.642 454.45L357.015 474.276ZM335.188 458.289C335.689 463.03 338.423 466.992 342.557 469.668C346.311 472.099 351.206 473.507 357.015 474.276L359.642 454.45C357.503 454.166 355.987 453.818 354.949 453.496C353.902 453.17 353.478 452.913 353.426 452.88C353.397 452.861 353.795 453.114 354.231 453.779C354.689 454.477 354.986 455.321 355.078 456.187L335.188 458.289ZM336.75 453.716C336.664 453.453 336.608 453.153 336.596 452.843C336.584 452.538 336.616 452.283 336.656 452.097C336.73 451.755 336.822 451.673 336.711 451.847L353.555 462.63C355.572 459.48 357.882 453.966 355.752 447.478L336.75 453.716ZM354.706 442.515C352.458 441.814 350.354 441.264 348.416 440.834L344.087 460.36C345.492 460.672 347.052 461.078 348.749 461.607L354.706 442.515ZM381.393 450.757C379.121 441.019 379.122 441.018 379.123 441.018C379.123 441.018 379.124 441.018 379.125 441.018C379.126 441.017 379.127 441.017 379.128 441.017C379.129 441.017 379.129 441.017 379.128 441.017C379.125 441.018 379.118 441.019 379.107 441.022C379.084 441.027 379.043 441.036 378.986 441.049C378.871 441.075 378.688 441.115 378.444 441.167C377.957 441.271 377.23 441.421 376.319 441.594C374.488 441.94 371.96 442.369 369.166 442.702C363.026 443.434 357.572 443.439 354.797 442.544L348.657 461.578C355.988 463.943 365.367 463.296 371.534 462.561C374.893 462.161 377.887 461.652 380.039 461.245C381.119 461.04 381.999 460.859 382.621 460.726C382.933 460.66 383.18 460.605 383.356 460.566C383.444 460.546 383.515 460.53 383.566 460.518C383.592 460.512 383.614 460.507 383.63 460.504C383.638 460.502 383.646 460.5 383.651 460.499C383.654 460.498 383.657 460.497 383.659 460.497C383.66 460.497 383.662 460.496 383.663 460.496C383.664 460.496 383.665 460.495 381.393 450.757ZM373.054 457.224C374.615 457.909 375.433 458.317 375.799 458.515C375.986 458.616 375.92 458.591 375.718 458.452C375.666 458.417 374.803 457.85 373.931 456.76C373.486 456.203 372.603 454.98 372.123 453.151C371.572 451.053 371.627 448.34 373.079 445.767C374.381 443.458 376.228 442.298 377.265 441.78C378.332 441.246 379.256 441.03 379.738 440.935C380.696 440.748 381.443 440.759 381.667 440.764C381.839 440.767 381.986 440.775 382.102 440.782C382.162 440.787 382.218 440.791 382.271 440.796C382.297 440.798 382.323 440.8 382.348 440.803C382.361 440.804 382.373 440.805 382.385 440.806C382.392 440.807 382.398 440.808 382.404 440.808C382.407 440.809 382.411 440.809 382.413 440.809C382.418 440.81 382.422 440.81 381.393 450.757C380.364 460.704 380.369 460.704 380.373 460.705C380.375 460.705 380.379 460.706 380.383 460.706C380.389 460.706 380.395 460.707 380.402 460.708C380.415 460.709 380.428 460.71 380.442 460.712C380.469 460.714 380.498 460.717 380.529 460.72C380.59 460.725 380.659 460.73 380.734 460.736C380.882 460.746 381.073 460.756 381.296 460.76C381.623 460.766 382.503 460.774 383.578 460.563C384.118 460.458 385.097 460.225 386.209 459.668C387.292 459.127 389.175 457.939 390.498 455.593C393.73 449.864 390.166 445.038 389.548 444.265C388.553 443.022 387.464 442.257 387.036 441.963C386.459 441.567 385.868 441.224 385.337 440.936C384.266 440.355 382.874 439.693 381.093 438.911L373.054 457.224ZM354.702 454.926C359.488 455.28 363.584 455.586 366.994 456.012C370.625 456.466 372.417 456.944 373.054 457.224L381.093 438.911C377.584 437.37 373.269 436.641 369.474 436.166C365.459 435.665 360.812 435.324 356.177 434.981L354.702 454.926ZM355.439 454.954L355.44 454.954L355.44 434.954L355.439 434.954L355.439 454.954ZM355.439 454.954L355.439 454.954L355.439 434.954L355.439 434.954L355.439 454.954ZM340.138 453.675C345.198 454.224 350.202 454.593 354.701 454.926L356.177 434.981C351.628 434.644 346.961 434.298 342.295 433.792L340.138 453.675ZM324.314 373.613C323.603 383.845 323.661 398.734 324.752 412.616C325.299 419.571 326.119 426.46 327.283 432.497C328.398 438.281 329.996 444.229 332.522 448.674L349.911 438.794C349.067 437.309 347.947 434.033 346.921 428.712C345.945 423.645 345.202 417.547 344.691 411.048C343.667 398.021 343.631 384.127 344.266 375L324.314 373.613ZM327.836 360.734C326.009 364.636 324.636 368.983 324.314 373.613L344.266 375C344.376 373.416 344.883 371.491 345.948 369.217L327.836 360.734ZM342.277 353.388C341.429 353.813 339.327 354.497 335.406 355.087L338.378 374.865C342.958 374.176 347.549 373.117 351.242 371.266L342.277 353.388ZM354.036 347.791C349.598 349.863 345.549 351.751 342.287 353.383L351.231 371.271C354.199 369.787 357.971 368.026 362.496 365.913L354.036 347.791ZM353.796 347.907L353.794 347.908L362.738 365.796L362.74 365.795L353.796 347.907ZM451.721 256.612C453.655 276.497 440.529 294.633 419.175 311.028C398.193 327.137 372.105 339.356 354.038 347.79L362.498 365.912C380.289 357.608 408.366 344.542 431.355 326.892C453.97 309.527 474.618 285.428 471.627 254.676L451.721 256.612ZM420.179 143.701C432.595 178.941 448.541 224.402 451.722 256.626L471.625 254.662C468.153 219.486 451.151 171.423 439.043 137.055L420.179 143.701ZM420.099 143.462L420.099 143.463L439.124 137.293L439.123 137.292L420.099 143.462ZM406.343 90.8563C405.695 93.1071 405.754 95.2742 405.856 96.6495C405.972 98.206 406.241 99.8361 406.569 101.424C407.226 104.606 408.29 108.418 409.579 112.589C412.164 120.954 415.972 131.757 420.179 143.7L439.043 137.054C434.784 124.966 431.13 114.59 428.687 106.683C427.461 102.719 426.619 99.6229 426.156 97.3809C425.924 96.2573 425.83 95.5468 425.801 95.1659C425.76 94.6039 425.894 95.237 425.562 96.3893L406.343 90.8563ZM430.647 57.918C428.189 58.2503 425.117 58.8534 422.104 60.5273C418.903 62.306 416.578 64.8261 414.774 67.7425C411.653 72.7862 409.298 80.512 406.337 90.8756L425.568 96.37C428.8 85.0574 430.443 80.4291 431.781 78.2661C432.206 77.5791 432.227 77.7828 431.818 78.0099C431.598 78.1323 431.765 77.9488 433.327 77.7377L430.647 57.918ZM440.189 59.0144C439.457 59.1366 438.782 59.2479 438.09 59.3323C437.389 59.4178 436.86 59.4507 436.498 59.4474C436.062 59.4434 436.274 59.3892 436.852 59.5767C437.461 59.7745 439.199 60.4951 440.471 62.5352L423.502 73.1205C425.536 76.3803 428.527 77.9017 430.678 78.5998C432.797 79.2877 434.839 79.4331 436.316 79.4466C439.247 79.4732 442.187 78.9576 443.48 78.7418L440.189 59.0144ZM441.949 58.7496C441.328 58.8213 440.594 58.9468 440.189 59.0144L443.48 78.7418C443.752 78.6965 443.941 78.665 444.098 78.6402C444.266 78.6138 444.292 78.6119 444.242 78.6177L441.949 58.7496ZM448.445 59.102C447.586 58.9903 446.563 58.8559 445.66 58.7698C445.022 58.7089 443.387 58.5488 441.729 58.7774L444.462 78.5899C444.117 78.6375 443.857 78.6502 443.725 78.6545C443.585 78.659 443.497 78.6566 443.477 78.6561C443.45 78.6552 443.528 78.6572 443.761 78.6794C443.982 78.7005 444.266 78.7323 444.633 78.7774C445 78.8224 445.4 78.8744 445.865 78.9349L448.445 59.102ZM451.617 61.5189C452.362 60.7056 453.118 60.2341 453.63 59.9772C454.133 59.7249 454.501 59.6286 454.621 59.5999C454.811 59.5547 454.645 59.6153 453.938 59.6148C453.289 59.6143 452.472 59.5645 451.485 59.4665C450.501 59.3688 449.506 59.24 448.445 59.102L445.865 78.9349C447.803 79.1869 450.956 79.6126 453.924 79.6148C455.422 79.6158 457.317 79.5168 459.251 79.0567C461.072 78.6234 463.985 77.6237 466.36 75.0334L451.617 61.5189ZM453.006 73.1663C452.978 73.1505 451.175 72.2194 450.199 69.6325C449.639 68.1479 449.5 66.4537 449.895 64.8063C450.266 63.2599 450.986 62.2416 451.424 61.7346L466.552 74.8177C469.005 71.9808 470.759 67.4687 468.911 62.5718C467.445 58.6845 464.402 56.6205 462.74 55.695L453.006 73.1663ZM447.562 65.924C448.06 66.7544 448.297 67.3266 448.393 67.6132L467.353 61.2481C466.721 59.3651 465.819 57.4803 464.712 55.634L447.562 65.924ZM447.212 65.3556C447.34 65.5641 447.477 65.7868 447.62 66.02L464.653 55.538C464.517 55.3162 464.386 55.103 464.257 54.8937L447.212 65.3556ZM447.218 65.3654L447.218 65.3657L464.251 54.8837L464.251 54.8834L447.218 65.3654ZM446.433 63.639C446.255 63.5204 446.063 63.3664 445.892 63.1977C445.736 63.0444 445.68 62.9593 445.737 63.0358C445.806 63.1288 445.947 63.3281 446.21 63.7404C446.475 64.1563 446.782 64.6554 447.212 65.3554L464.257 54.8934C462.975 52.8049 461.103 49.3816 457.527 46.9981L446.433 63.639ZM437.881 46.5981C432.6 55.0903 432.6 55.0903 432.601 55.0904C432.601 55.0904 432.601 55.0905 432.601 55.0907C432.601 55.0909 432.602 55.0913 432.603 55.0918C432.604 55.0927 432.607 55.0942 432.61 55.0961C432.616 55.1 432.625 55.1057 432.637 55.1132C432.661 55.1283 432.697 55.1506 432.744 55.1797C432.838 55.238 432.975 55.3235 433.151 55.4325C433.502 55.6507 434.005 55.9631 434.612 56.3405C435.827 57.0952 437.462 58.1104 439.141 59.1515C442.407 61.1767 446.086 63.4529 446.91 63.9379L457.05 46.6992C456.489 46.3692 453.118 44.2851 449.681 42.1539C448.008 41.1167 446.378 40.1046 445.166 39.3516C444.56 38.9751 444.058 38.6636 443.709 38.4462C443.534 38.3375 443.397 38.2523 443.304 38.1944C443.257 38.1654 443.221 38.1433 443.197 38.1284C443.185 38.1209 443.176 38.1153 443.17 38.1115C443.167 38.1096 443.165 38.1082 443.163 38.1073C443.163 38.1068 443.162 38.1064 443.162 38.1062C443.162 38.1061 443.161 38.106 443.161 38.106C443.161 38.1059 443.161 38.1059 437.881 46.5981ZM446.444 51.7629L446.445 51.761L429.317 41.4352L429.315 41.437L446.444 51.7629ZM432.582 55.0814L432.586 55.0838L443.173 38.1161L443.17 38.1138L432.582 55.0814ZM420.212 41.4285C423.233 44.5418 425.674 47.3663 427.349 49.3984C428.184 50.412 428.823 51.222 429.243 51.764C429.452 52.0349 429.607 52.2383 429.703 52.3662C429.751 52.4301 429.785 52.4752 429.804 52.5002C429.813 52.5128 429.818 52.5203 429.82 52.5228C429.821 52.524 429.821 52.5239 429.82 52.5225C429.82 52.5219 429.819 52.5209 429.818 52.5195C429.817 52.5189 429.817 52.5181 429.816 52.5173C429.816 52.5169 429.815 52.5162 429.815 52.516C429.815 52.5153 429.814 52.5146 437.876 46.5976C445.937 40.6806 445.937 40.6798 445.936 40.6791C445.936 40.6788 445.936 40.678 445.935 40.6774C445.934 40.6762 445.933 40.675 445.932 40.6736C445.93 40.671 445.928 40.668 445.926 40.6647C445.921 40.658 445.915 40.6501 445.908 40.6408C445.894 40.6222 445.877 40.5984 445.855 40.5694C445.812 40.5114 445.754 40.433 445.68 40.335C445.532 40.139 445.324 39.8648 445.057 39.5207C444.525 38.8328 443.759 37.8636 442.784 36.6799C440.837 34.3175 438.034 31.0751 434.564 27.4993L420.212 41.4285ZM412.548 31.7447C415.046 31.8626 417.117 33.7286 417.53 36.1466L437.245 32.7812C435.271 21.218 425.485 12.3331 413.491 11.767L412.548 31.7447Z" fill="white" mask="url(#path-12-outside-1)"/>
</svg>
