<svg width="525" height="725" fill="none" xmlns="http://www.w3.org/2000/svg"><mask id="a" maskUnits="userSpaceOnUse" x="0" y="0" width="525" height="1037" fill="#000"><path fill="#fff" d="M0 0h525v1037H0z"/><path fill-rule="evenodd" clip-rule="evenodd" d="M265.928 142.191c-14.65 9.665-28.038 11.665-21.269-20.49 3.814-18.113 3.541-31.695 3.32-42.667-.371-18.466-.593-29.54 19.06-42.374 30.627-20.013 107.611-29.54 120.08-25.896.639.192 1.278.32 1.918.448 2.749.447 9.655 2.302 11.637 9.463.38 1.33 1.889 5.172 4.079 10.747 12.548 31.947 47.438 120.78 20.218 119.691-7.187-.287-12.824-.155-17.17-.052-1.997.047-3.722.087-5.2.078-1.937 7.868-4.419 15.606-7.177 22.979 4.659-.5 8.077-3.018 10.289-5.353.448-.448 1.215.064.895.639a55.96 55.96 0 01-2.61 4.491 121.78 121.78 0 0138.704-6.318c18.916 0 36.685 1.577 35.395 7.74-.881 3.964-.814 7.116-.757 9.83.13 6.118.212 10.011-10.707 15.968-6.846 3.735-13.152 8.821-19.386 13.851-4.936 3.981-9.826 7.926-14.905 11.137 29.974 2.92 42.392 27.856 45.041 41.802 1.439 7.912 9.734 17.267 18.185 26.798 8.389 9.462 16.932 19.097 19.073 27.665 3.611 14.446-21.087 34.959-36.727 47.95l-.003.002c-2.979 2.475-5.629 4.676-7.693 6.51-3.639 3.235-9.103 9.894-15.395 18.043 3.498.794 7.199 2.434 9.509 4.744.245.246.533.449.813.647 1.35.955 2.502 1.77-2.246 6.519-4.801 4.802-13.624 10.61-21.416 15.738v.001h-.002l-.001.001-.008.006a841.85 841.85 0 00-4.367 2.886c-1.531 1.02-3.333 2.722-5.319 4.838a83.768 83.768 0 006.895 13.649c10.317 16.626 30.093 49.59 34.249 63.206 4.068 13.223-7.744 18.505-20.067 15.847-.268 46.013-2.627 169.354-20.05 189.104-11.088 12.568-9.975 22.847-8.854 33.199 1.052 9.717 2.111 19.499-6.909 31.296-4.687 6.13-8.921 10.627-12.792 13.72.534 12.803 2.288 76.786-14.436 103.805-3.501 12.606-3.58 21.003-3.658 29.227-.082 8.607-.162 17.026-4.159 29.883-41.781 89.811-45.895 67.401-45.895 67.401l.122-.78-.121.18s-12.206-15.7-15.072-21.428c-1.164-2.329.745-19.316 3.039-39.727 3.354-29.842 7.53-67.002 4.126-76.364-5.07-13.944-3.414-49.188-2.963-57.148-5.688-1.01-9.556-3.316-9.945-7.204-.201-2.019-.29-3.782-.372-5.433-.503-10.071-.799-15.985-25.422-50.462-28.66-40.131-50.155-88.86-42.99-121.825 4.381-20.154-16.414-47.808-31.273-67.568-1.142-1.519-2.249-2.991-3.307-4.41-8.125 4.136-16.238 7.077-22.738 7.483-15.153.947-6.521-21.27.662-39.755 3.686-9.484 6.989-17.986 6.503-21.874-1.433-11.465 25.794-78.827 44.423-98.892 1.221-1.315 2.43-3.077 3.624-5.223-9.407 4.725-18.545 11.413-26.791 17.449-6.805 4.981-13.003 9.518-18.243 12.138-11.034 5.59-15.19-2.436-16.623-6.449-.573-1.434-1.576-2.58-2.866-3.297-12.753-6.879-24.504-15.622-34.535-25.941l-8.686-8.927c-5.122-.465-9.534-2.662-12.958-6.551-3.29-3.792-11.482-10.122-19.976-16.686-13.339-10.307-27.424-21.192-24.447-23.731 1.355-1.136 4.576-1.138 8.528-1.054-3.165-3.159-7.306-6.256-11.379-6.256-12.778 2.982-20.492 3.15-24.954 1.759l-25.627 32.185c0 .1-.004.203-.01.31 0 1.004-.43 1.864-1.147 2.437-8.885 8.026-16.05 13.186-14.473 7.739 1.234-4.939 5.98-8.814 9.286-10.709l26.853-33.727c-4.515-1.954-9.562-5.469-3.18-10.029a13.937 13.937 0 012.801-1.543c-3.375-5.405-3.856-20.725 8.24-28.696 8.099-5.252 17.911-5.97 26.382-2.739l19.616-24.635 4.012 3.153-18.927 23.771a29.36 29.36 0 018.61 7.903c5.59 7.596 10.892 8.456 10.892 8.456l8.365 9.128a50.82 50.82 0 00-.213-1.388c-.287-1.433.86-2.723 2.293-2.723 13.757.717 50.585 29.668 51.015 30.958 0 0 2.063 3.447 3.52 8.329 1.465.262 2.882.581 4.224.986 6.305 2.006 13.04 2.149 19.346.286 3.009-1.003 5.015-2.15 7.308-8.313 2.102-5.607 10.031-7.101 19.261-8.84 9.643-1.817 20.706-3.901 28.028-11.225 7.052-7.052 15.387-17.576 22.036-26.446 3.362-20.809 5.331-36.185 5.331-36.185l.789-.227c-22.43-16.849-44.684-42.593-17.259-56.816 6.645-3.446 12.402-6.229 17.41-8.464-3.872-8.506-6.428-19.462-8.041-31.534-6.283-2.357-9.845-6.039-11.671-8.576-.384-.511.256-1.151.767-.831 1.885 1.217 5.096 2.724 10.225 3.765-.909-8.446-1.406-17.314-1.61-26.183zm151.564 210.583c2.028-3.501 3.895-6.718 5.535-9.546l.007-.013c4.091-7.05 6.774-11.676 7.06-12.248.232-.463.089-.365-.421-.014-1.95 1.34-9.273 6.374-21.632-2.095 1.039 7.359 2.44 15.282 4.047 23.36 1.307-1.216 2.501-1.738 3.522-1.33 0 0 .72.682 1.882 1.886z"/></mask><path d="M244.659 121.701l-9.785-2.06 9.785 2.06zm21.269 20.49l9.997-.23-.416-18.072-15.088 9.955 5.507 8.347zm-17.949-63.157l-9.998.2 9.998-.2zm19.06-42.374l5.467 8.373.003-.002-5.47-8.371zm120.08-25.896l2.873-9.578-.034-.01-.034-.01-2.805 9.598zm1.918.448l-1.961 9.805.176.036.178.029 1.607-9.87zm11.637 9.463l-9.638 2.667.011.04.012.04 9.615-2.747zm4.079 10.747l9.344-3.56-.018-.048-.019-.048-9.307 3.656zm0 0l-9.345 3.56.018.049.019.047 9.308-3.656zm20.218 119.691l.4-9.992-.4 9.992zm-17.17-.052l-.236-9.998.236 9.998zm-5.2.078l.065-10-7.889-.051-1.886 7.66 9.71 2.391zm-7.177 22.979l-9.367-3.504-5.677 15.177 16.111-1.73-1.067-9.943zm10.289-5.353l-7.071-7.071-.096.096-.093.098 7.26 6.877zm.895.639l-8.741-4.856-.063.113-.06.114 8.864 4.629zm-2.61 4.491l-8.396-5.432-15.51 23.974 27.079-9.059-3.173-9.483zm74.099 1.422l9.762 2.169.014-.061.012-.06-9.788-2.048zm-.757 9.83l-9.997.211 9.997-.211zm-10.707 15.968l-4.789-8.779 4.789 8.779zm-19.386 13.851l-6.279-7.783 6.279 7.783zm-14.905 11.137l-5.343-8.453-24.647 15.579 29.02 2.827.97-9.953zm45.041 41.802l9.839-1.789-.007-.039-.007-.038-9.825 1.866zm18.185 26.798l-7.482 6.635 7.482-6.635zm19.073 27.665l-9.701 2.425 9.701-2.425zm-36.727 47.95l-6.39-7.693-.006.006-.006.005 6.402 7.682zm-.003.002l6.389 7.693.006-.005.007-.005-6.402-7.683zm-7.693 6.51l6.645 7.474-6.645-7.474zm-15.395 18.043l-7.915-6.111-9.569 12.395 15.269 3.468 2.215-9.752zm9.509 4.744l-7.072 7.071 7.072-7.071zm.813.647l7.071-7.071-.603-.603-.696-.492-5.772 8.166zm0 0l-7.071 7.071.602.602.695.492 5.774-8.165zm-2.246 6.519l-7.072-7.07 7.072 7.07zm-21.416 15.738l-5.498-8.353-.256.169-.246.184 6 8zm0 .001l5.241 8.516.391-.241.368-.275-6-8zm-.002 0l-5.241-8.516-.083.051-.083.054 5.407 8.411zm-.001.001l-5.407-8.412-.038.025-.037.024 5.482 8.363zm-.008.006l-5.483-8.364-.007.006-.008.005 5.498 8.353zm-4.367 2.886l5.547 8.32-5.547-8.32zm-5.319 4.838l-7.291-6.845-4.338 4.621 2.327 5.895 9.302-3.671zm6.895 13.649l8.497-5.273-.009-.013-.008-.013-8.48 5.299zm34.249 63.206l-9.565 2.919.003.011.004.01 9.558-2.94zm-20.067 15.847l2.109-9.775-12.037-2.597-.072 12.314 10 .058zm-20.05 189.104l7.498 6.616-7.498-6.616zm-8.854 33.199l9.942-1.076-9.942 1.076zm-6.909 31.296l7.944 6.074-7.944-6.074zm-12.792 13.72l-6.241-7.814-3.961 3.165.211 5.065 9.991-.416zm-14.436 103.805l-8.503-5.263-.75 1.213-.382 1.374 9.635 2.676zm-3.658 29.227l9.999.095-9.999-.095zm-4.159 29.883l9.066 4.218.283-.608.2-.641-9.549-2.969zm-45.895 67.401l-9.881-1.54-.261 1.68.307 1.67 9.835-1.81zm.122-.78l9.881 1.54-18.137-7.18 8.256 5.64zm-.121.18l-7.893 6.14 8.415 10.81 7.734-11.31-8.256-5.64zm-15.072-21.428l8.945-4.472-8.945 4.472zm3.039-39.727l9.937 1.117-9.937-1.117zm4.126-76.364l-9.398 3.416v.001l9.398-3.417zm-2.963-57.148l9.984.565.501-8.859-8.737-1.552-1.748 9.846zm-9.945-7.204l9.951-.994-9.951.994zm-.372-5.433l9.987-.499-9.987.499zm-25.422-50.462l-8.137 5.811 8.137-5.811zm-42.99-121.825l-9.771-2.124 9.771 2.124zm-31.273-67.568l7.992-6.01-7.992 6.01zm-3.307-4.41l8.016-5.978-5.039-6.758-7.513 3.825 4.536 8.911zm-22.738 7.483l-.624-9.98.624 9.98zm.662-39.755l-9.321-3.622 9.321 3.622zm6.503-21.874l9.923-1.24-9.923 1.24zm44.423-98.892l-7.328-6.804 7.328 6.804zm3.624-5.223l8.738 4.862 15.783-28.367-29.009 14.569 4.488 8.936zm-26.791 17.449l5.907 8.069-5.907-8.069zm-18.243 12.138l-4.473-8.944-.023.012-.023.011 4.519 8.921zm-16.623-6.449l9.418-3.363-.063-.177-.07-.174-9.285 3.714zm-2.866-3.297l4.857-8.741-.054-.03-.055-.03-4.748 8.801zm-34.535-25.941l7.171-6.97-.004-.004-7.167 6.974zm-8.686-8.927l7.167-6.973-2.579-2.651-3.682-.335-.906 9.959zm-12.958-6.551l-7.554 6.553.024.028.024.027 7.506-6.608zm-19.976-16.686l-6.115 7.913 6.115-7.913zm-24.447-23.731l-6.423-7.665-.034.029-.034.028 6.49 7.608zm8.528-1.054l-.214 9.998 24.92.533-17.641-17.608-7.065 7.077zm-11.379-6.256v-10H75.28l-1.122.262 2.273 9.738zm-24.954 1.759l2.977-9.547-6.536-2.037-4.264 5.355 7.823 6.229zm-25.627 32.185l-7.823-6.229-2.137 2.684-.039 3.431 10 .114zm-.01.31l-9.983-.587-.018.294v.293h10zm-1.147 2.437l-6.248-7.808-.233.187-.223.2 6.704 7.421zm-14.473 7.739l9.605 2.78.051-.176.045-.179-9.701-2.425zm9.286-10.709l4.972 8.676 1.66-.951 1.19-1.496-7.823-6.229zm26.853-33.727l7.823 6.229 8.137-10.219-11.988-5.187-3.972 9.177zm-3.18-10.029l-5.812-8.136 5.813 8.136zm2.801-1.543l3.812 9.245 10.935-4.508-6.265-10.033-8.482 5.296zm8.24-28.696l-5.441-8.39-.031.02-.03.02 5.502 8.35zm26.382-2.739l-3.564 9.344 6.832 2.606 4.555-5.721-7.823-6.229zm19.616-24.635l6.179-7.863-7.813-6.139-6.19 7.773 7.824 6.229zm4.012 3.153l7.823 6.229 6.269-7.873-7.913-6.219-6.179 7.863zm-18.927 23.771l-7.823-6.229-7.1 8.916 9.764 5.88 5.159-8.567zm8.61 7.903l-8.087 5.881.016.023.017.022 8.055-5.926zm10.892 8.456l7.372-6.756-2.346-2.559-3.426-.556-1.6 9.871zm8.365 9.128l-7.372 6.757 21.691 23.666-4.414-31.798-9.905 1.375zm-.213-1.388l9.862-1.658-.026-.152-.03-.151-9.806 1.961zm2.293-2.723l.52-9.986-.26-.014h-.26v10zm51.015 30.958l-9.487 3.162.345 1.036.562.938 8.58-5.136zm3.52 8.329l-9.582 2.86 1.761 5.903 6.066 1.082 1.755-9.845zm4.224.986l3.033-9.53-.074-.023-.073-.022-2.886 9.575zm19.346.286l2.833 9.59.166-.049.163-.054-3.162-9.487zm7.308-8.313l-9.364-3.51-.004.012-.005.012 9.373 3.486zm19.261-8.84l-1.852-9.827 1.852 9.827zm28.028-11.225l-7.072-7.07 7.072 7.07zm22.036-26.446l8.002 5.997 1.477-1.971.393-2.431-9.872-1.595zm5.331-36.185l-2.765-9.61-6.32 1.818-.834 6.522 9.919 1.27zm.789-.227l2.765 9.61 19.289-5.55-16.048-12.056-6.006 7.996zm-17.259-56.816l-4.604-8.877 4.604 8.877zm17.41-8.464l4.076 9.131 9.198-4.106-4.173-9.168-9.101 4.143zm-8.041-31.534l9.911-1.325-.793-5.935-5.606-2.103-3.512 9.363zm-11.671-8.576l8.115-5.843-.057-.079-.058-.078-8 6zm.767-.831l5.425-8.4-.062-.041-.063-.039-5.3 8.48zm10.225 3.765l-1.989 9.8 13.394 2.717-1.463-13.588-9.942 1.071zm155.489 174.854l-8.644-5.027-.006.009 8.65 5.018zm-5.535 9.546l-7.194 6.946 9.205 9.533 6.642-11.466-8.653-5.013zm5.542-9.559l8.645 5.027.005-.009-8.65-5.018zm7.06-12.248l-8.944-4.472 8.944 4.472zm-.421-.014l5.665 8.24-5.665-8.24zm-21.632-2.095l5.653-8.249-18.729-12.834 3.174 22.481 9.902-1.398zm4.047 23.36l-9.808 1.951 3.498 17.578 13.122-12.208-6.812-7.321zm3.522-1.33l6.878-7.259-1.388-1.315-1.776-.71-3.714 9.284zM234.874 119.641c-1.785 8.479-2.465 15.648-1.728 21.448.74 5.817 3.216 12.059 9.408 15.362 5.74 3.063 11.841 2.004 16.012.647 4.429-1.441 8.868-3.921 12.868-6.56l-11.013-16.694c-3.324 2.192-6.053 3.587-8.043 4.235-2.248.731-1.818-.025-.41.726 1.86.993 1.343 2.31 1.019-.24-.327-2.567-.142-7.206 1.458-14.804l-19.571-4.12zm3.107-40.406c.218 10.836.459 23.466-3.107 40.406l19.571 4.12c4.06-19.286 3.755-33.82 3.532-44.928l-19.996.402zm23.59-50.948c-10.997 7.182-17.69 14.725-21.003 24.124-3.075 8.728-2.762 18.084-2.587 26.824l19.996-.402c-.195-9.726-.179-15.14 1.454-19.774 1.397-3.963 4.42-8.373 13.075-14.026l-10.935-16.746zM389.924 1.166C386.976.304 383.246.06 379.782.01c-3.741-.055-8.2.114-13.111.474-9.837.722-21.934 2.245-34.552 4.513-24.74 4.447-53.409 12.09-70.551 23.29l10.941 16.743c13.485-8.812 38.622-15.94 63.148-20.348 12.016-2.16 23.417-3.587 32.478-4.251 4.538-.333 8.378-.467 11.354-.423 1.487.021 2.672.086 3.568.176.961.096 1.311.194 1.256.177l5.611-19.196zm1.074.24c-.709-.142-.89-.185-1.006-.22l-5.747 19.156c1.163.35 2.26.562 2.831.675l3.922-19.611zm19.314 16.601c-3.683-13.304-16.319-16.12-19.668-16.665l-3.214 19.74c.662.108 1.69.383 2.503.88.361.22.584.426.725.597.119.147.264.369.378.783l19.276-5.335zm3.748 9.759a972.042 972.042 0 01-2.687-6.886c-.339-.887-.606-1.598-.804-2.146-.218-.603-.284-.823-.28-.806l-19.23 5.494c.553 1.936 2.351 6.476 4.386 11.655l18.615-7.311zm.038.097l-.001-.001-18.689 7.12 18.69-7.12zm10.474 133.242c6.609.265 12.424-2.45 16.124-7.881 3.18-4.666 4.146-10.396 4.355-15.445.428-10.272-2.127-23.505-5.608-36.678-7.062-26.722-19.146-57.457-25.382-73.334l-18.616 7.311c6.312 16.07 17.947 45.724 24.662 71.133 3.407 12.893 5.256 23.66 4.962 30.737-.07 1.681-.256 2.936-.479 3.826-.227.901-.437 1.21-.422 1.189.448-.657 1.399-.834 1.203-.842l-.799 19.984zm-16.536-.047c4.32-.102 9.687-.227 16.536.047l.799-19.984c-7.527-.301-13.433-.161-17.806-.058l.471 19.995zm-5.499.08c1.659.011 3.55-.034 5.499-.08l-.471-19.995c-2.044.048-3.603.084-4.899.076l-.129 19.999zm2.253 16.484c2.87-7.672 5.476-15.785 7.521-24.092l-19.42-4.782c-1.829 7.429-4.187 14.792-6.834 21.866l18.733 7.008zm-6.337-15.734c-1.228 1.297-2.597 2.126-4.097 2.287l2.135 19.886c7.818-.839 13.287-5.046 16.482-8.419l-14.52-13.754zm16.897 12.373c3.021-5.439.579-11.159-3.21-13.782-3.539-2.45-9.333-2.95-13.498 1.215l14.142 14.142c-3.717 3.717-8.904 3.25-12.028 1.087a9.457 9.457 0 01-3.723-5.24 9.472 9.472 0 01.834-7.135l17.483 9.713zm-2.956 5.066a66.307 66.307 0 003.078-5.293l-17.728-9.259a46.087 46.087 0 01-2.142 3.688l16.792 10.864zm30.308-21.75a131.78 131.78 0 00-41.876 6.834l6.345 18.967a111.761 111.761 0 0135.531-5.801v-20zm45.183 19.788c.7-3.343.062-6.686-1.706-9.487-1.586-2.514-3.753-4.088-5.457-5.059-3.318-1.891-7.398-2.898-11.019-3.533-7.544-1.322-17.437-1.709-27.001-1.709v20c9.352 0 17.801.402 23.549 1.409 1.391.244 2.493.501 3.327.752.411.123.72.233.94.323.224.09.313.141.301.135-.007-.005-.185-.105-.453-.338a5.966 5.966 0 01-1.101-1.307 7.264 7.264 0 01-.956-5.283l19.576 4.097zm-.547 7.571c-.056-2.643-.078-4.752.521-7.45l-19.524-4.338c-1.162 5.23-1.051 9.425-.992 12.21l19.995-.422zm-15.916 24.957c5.993-3.269 10.803-6.896 13.525-11.985 2.758-5.154 2.447-10.34 2.391-12.972l-19.995.422c.073 3.485-.132 3.305-.031 3.116.066-.123-.542 1.175-5.468 3.862l9.578 17.557zm-17.897 12.856c6.372-5.14 11.979-9.627 17.897-12.856l-9.578-17.557c-7.774 4.241-14.779 9.928-20.876 14.847l12.557 15.566zm-15.84 11.807c5.653-3.574 10.997-7.9 15.84-11.807l-12.557-15.566c-5.027 4.055-9.464 7.619-13.969 10.467l10.686 16.906zm49.523 31.483c-3.077-16.194-17.678-46.361-53.897-49.889l-1.939 19.906c23.731 2.311 33.965 22.018 36.187 33.715l19.649-3.732zm15.842 22.03c-4.305-4.856-8.156-9.212-11.137-13.281-3.103-4.238-4.394-7.036-4.691-8.672l-19.677 3.577c1.141 6.277 4.717 12.112 8.233 16.913 3.64 4.969 8.162 10.056 12.308 14.732l14.964-13.269zm21.293 31.874c-1.555-6.221-5.175-12.047-8.859-17.023-3.763-5.083-8.308-10.198-12.434-14.851l-14.964 13.269c4.263 4.808 8.184 9.242 11.325 13.483 3.22 4.349 4.942 7.624 5.529 9.972l19.403-4.85zm-40.04 58.068c7.702-6.398 18.381-15.242 26.637-24.444 4.13-4.604 8.031-9.702 10.653-15.014 2.587-5.242 4.457-11.782 2.75-18.61l-19.403 4.85c.099.394.235 1.835-1.282 4.909-1.482 3.003-4.056 6.554-7.604 10.509-7.101 7.913-16.591 15.821-24.53 22.414l12.779 15.386zm.01-.008l.002-.003-12.803-15.364-.003.002 12.804 15.365zm-7.45 6.301c1.909-1.698 4.412-3.779 7.437-6.291l-12.778-15.385c-2.933 2.436-5.731 4.758-7.948 6.729l13.289 14.947zm-14.124 16.68c6.423-8.32 11.314-14.183 14.124-16.68l-13.289-14.947c-4.468 3.972-10.506 11.426-16.666 19.405l15.831 12.222zm8.664-8.438c-4.125-4.126-9.831-6.395-14.365-7.424l-4.43 19.503c2.461.559 4.158 1.569 4.652 2.063l14.143-14.142zm-.486-.448a5.755 5.755 0 01-.124-.088l.045.034c.075.058.292.229.565.502l-14.143 14.142c.95.949 1.953 1.629 2.112 1.741l11.545-16.331zm1.299 1.095l-14.143 14.142h.001l14.142-14.142zm0 0l-14.142 14.142 14.142-14.142zm0 0l-14.142 14.142 14.142-14.142zm0 0l-14.142 14.142 14.142-14.142zm-2.246 20.661c1.38-1.38 2.632-2.768 3.629-4.172.908-1.281 2.194-3.379 2.6-6.105a11.33 11.33 0 00-2.302-8.735c-1.298-1.652-2.945-2.719-2.978-2.742l-11.548 16.329c.223.158.109.082-.043-.041a7.554 7.554 0 01-1.162-1.195 8.637 8.637 0 01-1.514-2.995 8.578 8.578 0 01-.234-3.573c.27-1.809 1.038-2.754.869-2.516-.081.114-.465.609-1.46 1.604l14.143 14.141zm-22.989 17.02c7.404-4.873 17.29-11.32 22.989-17.02l-14.143-14.141c-3.903 3.903-11.663 9.072-19.842 14.455l10.996 16.706zm.502-.352v-.001l-12-16v.001l12 16zm-.761.517l.002-.001-10.482-17.033-.002.001 10.482 17.033zm.166-.104l.001-.001-10.815-16.823h-.001l10.815 16.824zm.066-.043l.009-.006-10.965-16.726-.009.005 10.965 16.727zm-4.302 2.843c1.364-.909 2.806-1.858 4.318-2.854l-10.996-16.705a870.166 870.166 0 00-4.417 2.919l11.095 16.64zm-3.576 3.362c1.898-2.021 3.052-3.012 3.576-3.362l-11.095-16.64c-2.536 1.691-4.987 4.103-7.062 6.313l14.581 13.689zm8.085 1.506a73.853 73.853 0 01-6.074-12.022l-18.603 7.343a93.902 93.902 0 007.716 15.278l16.961-10.599zm35.333 65.586c-2.448-8.02-9.003-20.604-15.66-32.453-6.852-12.198-14.459-24.732-19.656-33.107l-16.994 10.547c5.12 8.25 12.56 20.511 19.213 32.355 6.85 12.194 12.26 22.9 13.968 28.496l19.129-5.838zm-31.74 28.541c7.744 1.671 16.821 1.228 23.814-3.408 3.681-2.439 6.723-6.046 8.214-10.784 1.468-4.666 1.174-9.596-.295-14.371l-19.115 5.881c.282.919.361 1.557.373 1.947.012.379-.039.536-.041.54-.002.008 0-.002.011-.021a.291.291 0 01.023-.038c.012-.015-.037.054-.22.176-.403.267-1.324.688-2.922.877-1.566.185-3.502.109-5.624-.349l-4.218 19.55zm-10.443 185.945c3.576-4.053 6.026-9.753 7.869-15.445 1.926-5.952 3.544-13.06 4.924-20.831 2.764-15.558 4.731-34.661 6.142-54.328 2.824-39.385 3.483-81.982 3.617-105.058l-20-.116c-.133 22.936-.789 65.017-3.566 103.743-1.391 19.389-3.297 37.7-5.884 52.261-1.295 7.289-2.723 13.417-4.261 18.17-1.623 5.013-3.058 7.488-3.838 8.373l14.997 13.231zm-6.41 25.507c-.581-5.361-.927-9.126-.248-12.94.619-3.474 2.22-7.536 6.658-12.567l-14.997-13.231c-6.649 7.536-10.035 14.898-11.351 22.293-1.257 7.055-.486 13.606.054 18.597l19.884-2.152zm-8.907 38.446c5.528-7.23 8.209-14.224 9.187-21.092.935-6.564.228-12.658-.28-17.354l-19.884 2.152c.544 5.022.892 8.677.364 12.382-.484 3.402-1.784 7.197-5.276 11.765l15.889 12.147zM410.5 798.087c4.727-3.777 9.519-8.953 14.494-15.459l-15.889-12.148c-4.399 5.754-8.074 9.572-11.088 11.98l12.483 15.627zm-12.175 101.255c5.044-8.148 8.371-18.477 10.654-28.951 2.311-10.603 3.691-22.027 4.504-32.792 1.628-21.529 1.041-41.163.767-47.742l-19.983.833c.259 6.225.817 24.984-.727 45.402-.771 10.209-2.055 20.646-4.102 30.04-2.075 9.521-4.8 17.323-8.119 22.684l17.006 10.526zm-2.162 24.059c.076-7.992.152-15.33 3.295-26.646l-19.271-5.352c-3.859 13.897-3.943 23.351-4.023 31.808l19.999.19zm-4.609 32.757c4.44-14.281 4.525-23.878 4.609-32.757l-19.999-.19c-.079 8.336-.153 15.575-3.708 27.009l19.098 5.938zm-55.444 64.432c-9.835 1.81-9.833 1.82-9.831 1.83l.005.03.01.05.023.12a13.01 13.01 0 00.229.93c.14.5.356 1.15.683 1.89.584 1.31 1.897 3.74 4.603 5.55 3.134 2.11 6.884 2.56 10.413 1.6 3.094-.84 5.696-2.66 7.834-4.59 4.283-3.85 9.336-10.54 15.723-21.28 6.497-10.926 14.747-26.694 25.269-49.313l-18.133-8.436c-10.368 22.285-18.3 37.393-24.326 47.526-6.135 10.313-9.944 14.863-11.911 16.633-.988.89-.859.48.284.17 1.578-.43 3.899-.32 5.994 1.09 1.668 1.12 2.334 2.49 2.529 2.93a5.836 5.836 0 01.364 1.11c.013.05.025.11.038.17l.018.09.009.05.004.02c.002.01.005.03-9.831 1.83zm-9.759-2.32l-.122.78 19.762 3.08.122-.78-19.762-3.08zm18.016 7.36l.121-.18-16.512-11.28-.121.17 16.512 11.29zm-32.273-22.6c1.894 3.79 6.241 9.88 9.498 14.32 1.748 2.38 3.4 4.56 4.613 6.16.607.79 1.106 1.44 1.455 1.9.175.22.312.4.407.52.047.06.084.11.109.14.013.02.023.03.03.04.003.01.006.01.008.01h.002l.001.01 7.894-6.14 7.893-6.14h-.001c-.001-.01-.002-.01-.005-.01a1.647 1.647 0 00-.119-.15c-.086-.12-.213-.28-.378-.49-.329-.43-.806-1.05-1.388-1.82a429.852 429.852 0 01-4.405-5.88c-3.563-4.85-6.752-9.464-7.724-11.41l-17.89 8.94zm2.046-45.312c-1.141 10.158-2.209 19.65-2.84 26.892-.315 3.606-.539 6.839-.597 9.404-.029 1.269-.023 2.568.066 3.76.055.726.213 3.036 1.325 5.256l17.89-8.94c.82 1.642.784 2.912.729 2.183-.02-.263-.038-.832-.015-1.802.043-1.913.222-4.639.526-8.122.605-6.937 1.639-16.144 2.791-26.397l-19.875-2.234zm4.666-71.83c-.013-.036.048.129.136.579.085.432.174 1.02.253 1.784.16 1.54.256 3.53.272 5.971.032 4.881-.254 11.036-.765 18.021-1.021 13.959-2.879 30.503-4.562 45.475l19.875 2.234c1.671-14.87 3.579-31.827 4.633-46.25.527-7.205.856-13.961.819-19.612-.035-5.196-.355-10.883-1.865-15.036l-18.796 6.834zm-3.549-61.13c-.231 4.083-.772 15.149-.604 27.036.161 11.338.955 25.299 4.153 34.093l18.796-6.833c-1.872-5.149-2.784-15.782-2.951-27.542-.158-11.211.354-21.747.574-25.624l-19.968-1.13zm-9.911-5.644c.546 5.464 3.656 9.438 7.265 11.923 3.357 2.311 7.298 3.495 10.881 4.132l3.497-19.692c-.984-.175-1.733-.379-2.272-.572a5.662 5.662 0 01-.587-.244c-.131-.065-.184-.102-.178-.098.011.008.315.22.647.73.357.55.585 1.203.648 1.832l-19.901 1.989zm-.41-5.929c.082 1.64.18 3.633.41 5.929l19.901-1.989c-.174-1.742-.252-3.276-.336-4.938l-19.975.998zm-23.571-45.15c12.287 17.205 18.014 26.627 20.795 32.722 2.451 5.373 2.551 7.911 2.776 12.428l19.975-.998c-.277-5.553-.576-11.008-4.555-19.73-3.649-7.999-10.381-18.773-22.716-36.045l-16.275 11.623zm-44.624-129.76c-4.183 19.241.139 41.829 8.478 63.886 8.431 22.298 21.433 45.273 36.146 65.874l16.275-11.623c-13.947-19.529-26.023-40.984-33.713-61.324-7.782-20.583-10.626-38.842-7.643-52.565l-19.543-4.248zm-29.495-59.434c7.514 9.991 15.969 21.266 22.07 32.424 6.333 11.581 8.793 20.713 7.425 27.01l19.543 4.248c3.012-13.856-2.735-28.629-9.42-40.853-6.916-12.649-16.287-25.081-23.633-34.849l-15.985 12.02zm-3.33-4.442c1.071 1.438 2.191 2.926 3.33 4.442l15.985-12.02c-1.144-1.522-2.239-2.978-3.283-4.378l-16.032 11.956zm-14.098 11.486c8.553-.535 18.128-4.214 26.65-8.552l-9.072-17.823c-7.728 3.933-14.378 6.136-18.826 6.414l1.248 19.961zm-9.283-53.358c-3.435 8.84-7.91 20.204-9.275 29.304-.649 4.327-.993 10.377 1.837 15.614 1.577 2.92 4.025 5.357 7.296 6.863 3.117 1.437 6.402 1.766 9.425 1.577l-1.248-19.961c-.765.047-.526-.111.192.22a4.327 4.327 0 011.931 1.794c.41.76-.167.279.345-3.141.959-6.393 4.391-15.381 8.139-25.026l-18.642-7.244zm5.901-17.011c-.076-.616.049-.596-.175.519-.194.968-.551 2.289-1.105 4.006-1.118 3.461-2.744 7.657-4.621 12.486l18.642 7.244c1.809-4.656 3.677-9.452 5.011-13.585.672-2.08 1.279-4.205 1.683-6.222.375-1.868.731-4.37.411-6.929l-19.846 2.481zm47.018-106.937c-5.506 5.93-11.171 14.766-16.425 24.27-5.342 9.664-10.588 20.628-15.165 31.247-4.574 10.613-8.548 21.043-11.311 29.659-1.377 4.296-2.498 8.281-3.235 11.69-.655 3.033-1.29 6.803-.882 10.071l19.846-2.481c.05.401-.047-.441.585-3.365.551-2.549 1.467-5.864 2.732-9.809 2.522-7.866 6.25-17.681 10.632-27.849 4.38-10.163 9.344-20.518 14.301-29.487 5.046-9.127 9.77-16.235 13.579-20.338l-14.657-13.608zm2.213-3.281c-.966 1.737-1.727 2.757-2.213 3.281l14.657 13.608c1.955-2.106 3.612-4.61 5.033-7.165l-17.477-9.724zm-12.145 30.38c8.38-6.134 16.842-12.298 25.372-16.581l-8.976-17.873c-10.284 5.165-20.098 12.378-28.209 18.315l11.813 16.139zm-19.677 13.013c6.166-3.084 13.135-8.224 19.677-13.013l-11.813-16.139c-7.069 5.175-12.496 9.107-16.81 11.264l8.946 17.888zm-30.513-12.031c.892 2.498 3.164 8.013 8.412 11.668 6.286 4.379 14.143 4.394 22.147.34l-9.038-17.842c-1.697.86-2.422.836-2.383.837a1.545 1.545 0 01.707.255c.126.088-.006.035-.282-.409-.269-.433-.517-.984-.728-1.574l-18.835 6.725zm1.694 2.082c-.789-.438-1.31-1.103-1.562-1.731l18.57-7.427c-1.397-3.494-3.925-6.452-7.294-8.324l-9.714 17.482zm-36.848-27.712c10.778 11.088 23.357 20.436 36.958 27.772l9.495-17.602c-11.906-6.422-22.829-14.56-32.112-24.11l-14.341 13.94zm-8.683-8.923l8.686 8.927 14.334-13.948-8.686-8.926-14.334 13.947zm-13.297-6.917c5.146 5.844 11.935 9.209 19.559 9.902l1.811-19.918c-2.622-.238-4.656-1.266-6.359-3.2l-15.011 13.216zm-18.585-15.381c4.278 3.305 8.333 6.44 11.727 9.213 3.544 2.896 5.793 4.941 6.81 6.113l15.107-13.106c-2.272-2.62-5.764-5.636-9.262-8.494-3.647-2.98-7.935-6.293-12.153-9.552l-12.229 15.826zM72.79 340.557c-3.97 3.388-4.307 8.065-3.616 11.132.571 2.535 1.866 4.521 2.686 5.658 1.773 2.457 4.351 4.971 6.843 7.21 5.154 4.63 12.35 10.182 18.91 15.252l12.229-15.826c-6.777-5.237-13.294-10.281-17.773-14.305-2.325-2.088-3.544-3.415-3.991-4.035-.29-.402.288.236.607 1.65.438 1.946.313 5.727-2.914 8.48l-12.98-15.216zm15.233-3.443c-1.894-.041-4.236-.083-6.347.107-1.616.145-5.573.56-8.818 3.279l12.845 15.33c-1.107.927-2.092 1.227-2.322 1.293-.271.078-.298.052.085.017a20.15 20.15 0 011.603-.06c.728-.005 1.551.008 2.526.029l.428-19.995zM76.43 350.855c-.448 0-.204-.138.868.508 1.01.609 2.2 1.581 3.447 2.826l14.129-14.155c-1.918-1.914-4.383-4.071-7.252-5.8-2.808-1.693-6.671-3.379-11.192-3.379v20zm-27.93 1.306c7.199 2.245 17.196 1.468 30.203-1.568l-4.546-19.476c-12.55 2.928-17.98 2.488-19.704 1.95l-5.954 19.094zm-14.827 28.867l25.626-32.185-15.646-12.458-25.627 32.185 15.647 12.458zm2.148-5.332c.015-.255.025-.516.028-.782l-19.999-.229c0-.068.003-.122.006-.163l19.965 1.174zm-4.881 9.658c3.11-2.489 4.898-6.233 4.898-10.245h-20c0-2.005.929-4.029 2.606-5.371l12.496 15.616zM.613 382.505c-.328 1.133-.895 3.409-.446 6.029.25 1.462.879 3.378 2.367 5.159a10.682 10.682 0 005.46 3.473c3.3.878 6.099-.035 7.12-.398 1.361-.484 2.584-1.141 3.539-1.711 3.65-2.175 8.316-6.092 12.742-10.091l-13.407-14.841c-4.458 4.028-7.816 6.704-9.576 7.753-.397.237-.364.176 0 .046.023-.008 2.014-.807 4.726-.085a9.318 9.318 0 014.743 3.03 9.108 9.108 0 012 4.289 7.753 7.753 0 01.068 2.248c-.05.404-.12.641-.125.659l-19.211-5.56zM14.532 365.9c-2.33 1.334-5.133 3.336-7.654 5.956-2.479 2.577-5.177 6.269-6.36 11.004l19.402 4.85c.051-.204.342-.919 1.371-1.988.988-1.027 2.209-1.91 3.186-2.47L14.532 365.9zm24.003-31.28l-26.854 33.727 15.647 12.458 26.853-33.727-15.646-12.458zm-1.17-11.936c-2.406 1.719-5.125 4.284-6.445 8.02-1.511 4.275-.595 8.32 1.215 11.299 1.588 2.615 3.784 4.349 5.358 5.404 1.683 1.128 3.436 1.989 4.894 2.62l7.943-18.355c-.8-.346-1.372-.657-1.705-.881-.442-.296.044-.092.604.83a6.55 6.55 0 01.868 2.504 6.961 6.961 0 01-.32 3.244c-.613 1.733-1.57 2.149-.785 1.588l-11.626-16.273zm4.802-2.652a23.897 23.897 0 00-4.801 2.652l11.626 16.273c.22-.157.48-.303.799-.435l-7.624-18.49zm6.55-27.801c-8.762 5.773-12.915 14.247-14.268 21.924-1.266 7.181-.303 15.052 3.048 20.419l16.964-10.593c.112.178-.218-.344-.42-1.758-.184-1.294-.194-2.903.104-4.596.587-3.327 2.24-6.498 5.576-8.695l-11.005-16.701zm35.448-3.732c-11.308-4.314-24.484-3.378-35.387 3.692l10.881 16.781c5.295-3.434 11.745-3.935 17.378-1.786l7.128-18.687zm8.229-21.521l-19.616 24.635 15.646 12.458 19.616-24.635-15.646-12.458zm18.014 1.519l-4.012-3.153-12.358 15.726 4.012 3.153 12.358-15.726zM93.125 306.36l18.927-23.771-15.646-12.458-18.927 23.771 15.646 12.458zm8.875-4.207a39.36 39.36 0 00-11.54-10.589l-10.317 17.134a19.365 19.365 0 015.682 5.217L102 302.153zm2.804 14.337c1.6-9.871 1.606-9.87 1.612-9.869l.012.002.023.004.045.007.085.015a10.39 10.39 0 01.373.079c.116.028.167.046.162.044a4.253 4.253 0 01-.675-.329c-.811-.467-2.493-1.643-4.473-4.335l-16.11 11.852c3.608 4.904 7.371 7.956 10.61 9.819a24.025 24.025 0 004.192 1.923c.579.197 1.088.342 1.516.447a13.994 13.994 0 00.82.177l.107.019.051.008a.187.187 0 00.025.004l.012.002c.006.001.012.002 1.613-9.869zm15.737 2.371l-8.365-9.127-14.745 13.513 8.366 9.128 14.744-13.514zm-17.447 7.027c.065.381.121.749.17 1.105l19.81-2.75a59.63 59.63 0 00-.256-1.671l-19.724 3.316zm12.155-14.381c-7.28 0-13.712 6.617-12.099 14.684l19.612-3.922c1.04 5.201-3.099 9.238-7.513 9.238v-20zm60.502 37.796c-.509-1.527-1.277-2.567-1.439-2.791-.296-.407-.57-.724-.734-.908a16.046 16.046 0 00-.904-.927 41.845 41.845 0 00-1.674-1.493 148.612 148.612 0 00-4.805-3.886 297.136 297.136 0 00-14.807-10.789c-5.653-3.855-11.909-7.814-17.772-10.896-5.408-2.842-12.012-5.788-17.847-6.092l-1.04 19.972c1.043.055 4.202.996 9.582 3.824 4.924 2.588 10.481 6.082 15.809 9.715 5.298 3.614 10.2 7.25 13.777 10.038 1.794 1.399 3.2 2.543 4.128 3.333.478.408.742.648.843.745.064.06-.036-.03-.209-.223-.081-.092-.289-.328-.536-.669-.114-.157-.851-1.143-1.346-2.629l18.974-6.324zm3.616 8.632a52.6 52.6 0 00-2.854-7.421 45.679 45.679 0 00-1.474-2.85l-.12-.209-.044-.074a1.054 1.054 0 01-.017-.029l-.007-.012-.004-.006-.001-.003c-.001-.001-.002-.002-8.582 5.134s-8.581 5.134-8.582 5.133l-.002-.002a.017.017 0 01-.002-.005l-.006-.009-.008-.014-.008-.014a32.79 32.79 0 012.546 6.1l19.165-5.719zm-2.473-5.73a47.383 47.383 0 00-5.354-1.255l-3.511 19.689c1.185.211 2.21.449 3.093.715l5.772-19.149zm13.626.271c-4.307 1.273-8.998 1.201-13.479-.226l-6.065 19.059c8.128 2.587 16.908 2.801 25.211.347l-5.667-19.18zm.769-2.209c-.451 1.213-.798 1.932-1.026 2.337-.217.384-.27.385-.112.224.189-.192.421-.353.588-.442.091-.048.022.003-.548.194l6.325 18.973c1.997-.666 5.054-1.817 7.886-4.692 2.605-2.645 4.283-5.994 5.632-9.621l-18.745-6.973zm26.782-15.181c-4.335.817-9.6 1.775-14.004 3.449-4.431 1.684-10.221 4.912-12.769 11.708l18.727 7.021c-.445 1.188-1.219.866 1.147-.034 2.393-.909 5.707-1.567 10.602-2.49l-3.703-19.654zm22.808-8.468c-4.745 4.746-12.438 6.514-22.808 8.468l3.703 19.654c8.916-1.68 23.35-4.081 33.249-13.981l-14.144-14.141zm21.106-25.374c-6.617 8.828-14.593 18.86-21.106 25.374l14.144 14.141c7.59-7.592 16.285-18.607 22.966-27.52l-16.004-11.995zm13.333-30.187l-9.919-1.27-.001.001v.007l-.004.03-.017.126-.066.509a1065.857 1065.857 0 01-1.299 9.484 1339.54 1339.54 0 01-3.897 25.702l19.744 3.191a1364.636 1364.636 0 003.955-26.089c.46-3.249.815-5.845 1.055-7.633.12-.895.211-1.587.273-2.058l.07-.538.018-.141.005-.037.001-.01v-.003l.001-.001-9.919-1.27zm-1.977-9.837l-.788.227 5.53 19.22.789-.227-5.531-19.22zm-19.097-56.083c-8.409 4.36-14.552 10.442-16.992 18.48-2.4 7.905-.591 15.66 2.509 22.137 6.027 12.592 18.849 24.44 30.339 33.071l12.013-15.991c-10.939-8.217-20.46-17.666-24.311-25.714-1.839-3.843-1.853-6.244-1.413-7.693.4-1.316 1.759-3.786 7.063-6.536l-9.208-17.754zm17.937-8.719c-5.218 2.33-11.153 5.2-17.937 8.719l9.208 17.754c6.506-3.374 12.085-6.068 16.882-8.21l-8.153-18.263zm-13.876-21.077c1.672 12.513 4.398 24.567 8.851 34.352l18.203-8.286c-3.289-7.227-5.676-17.085-7.231-28.716l-19.823 2.65zm-9.874-4.058c2.77 3.848 7.833 8.929 16.273 12.096l7.025-18.726c-4.124-1.547-6.185-3.83-7.068-5.056l-16.23 11.686zm14.182-15.154c-5.063-3.165-10.482-1.217-13.246 1.672-2.936 3.069-4.457 8.792-.821 13.639l16-12c3.252 4.336 1.859 9.483-.726 12.185-2.412 2.522-7.255 4.309-11.807 1.464l10.6-16.96zm6.913 2.444c-4.084-.829-6.094-1.916-6.788-2.364l-10.85 16.8c3.075 1.987 7.487 3.912 13.661 5.165l3.977-19.601zm-13.596-16.152c.209 9.078.72 18.235 1.665 27.023l19.885-2.141c-.872-8.103-1.356-16.683-1.555-25.342l-19.995.46zM414.377 338.21c-1.64 2.827-3.508 6.047-5.538 9.552l17.306 10.025c2.027-3.499 3.891-6.713 5.532-9.541l-17.3-10.036zm.013-.022l-.007.013 17.288 10.054.008-.013-17.289-10.054zm6.76-11.693c.033-.065-.474.836-1.819 3.166-1.212 2.099-2.899 5.007-4.946 8.536l17.299 10.036c3.909-6.738 6.884-11.853 7.355-12.795l-17.889-8.943zm14.188 12.698c.197-.135.105-.07-.026.013-.07.044-.338.212-.716.403-.18.091-1.335.695-2.967.937a9.95 9.95 0 01-4.576-.393 9.978 9.978 0 01-6.85-9.352 9.822 9.822 0 01.234-2.253 9.428 9.428 0 01.512-1.614c.099-.235.181-.399.201-.439l17.889 8.944c.078-.156.205-.418.339-.735.101-.24.382-.917.581-1.812.05-.222.944-3.585-1.043-7.123-3.014-5.367-8.514-5.259-10.221-5.006-1.668.247-2.87.87-3.107.99-.437.22-.775.429-.927.525-.294.185-.595.394-.653.434l11.33 16.481zm-32.95-2.086c7.799 5.344 15.04 7.07 21.382 6.426 6.19-.629 10.221-3.414 11.568-4.34l-11.33-16.481c-.603.414-1.209.817-2.258.923-.897.091-3.496.099-8.056-3.026l-11.306 16.498zm19.508 13.159c-1.582-7.952-2.947-15.683-3.953-22.806l-19.804 2.796c1.072 7.594 2.509 15.709 4.141 23.913l19.616-3.903zm-2.572-8.662c-6.961-2.785-12.413 1.771-14.047 3.292l13.623 14.643c.16-.149-.271.313-1.29.714-1.199.47-3.34.87-5.715-.08l7.429-18.569zm5.362 4.224a91.202 91.202 0 00-1.997-2.006l-.133-.128-.043-.041-.015-.014-.006-.005-.002-.003-.001-.001h-.001l-6.878 7.258-6.879 7.259v-.001l-.001-.001-.002-.001-.003-.003-.002-.002.007.007.062.059.299.292c.273.27.687.684 1.207 1.223l14.388-13.892z" fill="#fff" mask="url(#a)"/><path d="M281.913 290.692s-19.633 28.664-33.963 42.996c-14.33 14.333-42.99 8.6-47.289 20.066-2.292 6.162-4.299 7.309-7.308 8.312-6.305 1.863-13.04 1.72-19.345-.286-10.461-3.153-25.508-1.147-32.1-6.593-8.598-7.166-21.495-18.632-21.495-18.632l-11.464 30.098 36.398 37.407c10.031 10.319 21.782 19.062 34.536 25.941 1.29.717 2.293 1.863 2.866 3.297 1.433 4.013 5.589 12.039 16.623 6.449 14.33-7.166 35.825-28.664 57.32-34.397 21.495-5.733 44.423-30.098 42.99-42.997-1.433-12.899 14.33-50.163 2.866-64.495-11.464-14.333-20.922-15.766-20.635-7.166zM445.699 501.376s-7.165 108.926-31.526 156.222c-24.361 47.296-35.825 51.596-34.392 91.727 1.433 40.13 11.464 47.296-1.433 61.628s-61.619 21.499-63.052 7.166c-1.433-14.332 2.866-15.765-25.794-55.895-28.66-40.131-50.155-88.86-42.99-121.825 7.165-32.964-53.021-85.993-44.423-91.726 8.598-5.733 146.166-55.896 156.197-48.73 10.031 7.166 87.413 1.433 87.413 1.433z" fill="#2E5A9C"/><path d="M282.34 266.326s0 110.358-18.629 144.756c-18.629 34.397-47.289 53.029-42.99 68.795 4.299 15.765-20.062 55.895-11.464 68.794 8.598 12.899 17.196 7.167 50.155-7.166 32.959-14.332 81.681-24.365 91.712-27.231 10.031-2.866 73.083-11.466 87.413 1.433 14.33 12.899 40.124 10.033 34.392-8.599-4.155-13.616-23.931-46.58-34.248-63.205-4.299-6.88-7.595-14.333-9.745-22.215-8.598-31.245-29.806-112.365-20.492-129.564 11.464-21.498 20.062-74.528 4.299-74.528-15.763 0-130.403 48.73-130.403 48.73z" fill="#2E5A9C"/><path d="M275.317 271.057s-15.906 124.26-34.535 144.326c-18.629 20.065-45.856 87.426-44.423 98.892 1.433 11.466-30.093 63.062-7.165 61.629 22.928-1.433 65.918-34.398 58.753-40.13-7.165-5.733 58.753-273.747 58.753-273.747l-31.383 9.03zM429.807 225.911c-6.878-.43-13.47 2.58-17.769 8.026-13.041 16.196-39.121 54.32-19.202 79.831 25.794 32.964 38.691 14.332 37.258 17.199-1.433 2.866-63.053 107.492-60.187 108.925 2.866 1.433 22.929 25.798 37.259 14.332 14.33-11.466 50.155-65.928 63.052-77.394 12.897-11.466 48.722-37.264 44.423-54.463-4.299-17.198-34.392-38.697-37.258-54.462-2.723-14.333-15.763-40.274-47.576-41.994zM452.874 505.674s1.433 182.02-20.062 206.385c-21.495 24.365 2.866 40.13-15.763 64.495-18.629 24.365-30.093 22.932-40.124 10.033-10.031-12.899 0-187.753 0-187.753l32.959-81.694 42.99-11.466z" fill="#3F7AD3"/><path d="M372.628 438.314s-27.227 22.932-25.794 32.964c1.433 10.033 0 18.632 8.598 20.066 8.598 1.433 14.33 4.299 21.495 2.866 7.165-1.433 10.031 1.433 20.062-5.733 10.031-7.166 14.33-2.866 14.33-2.866s22.928 2.866 20.062-5.733c-4.299-4.3-12.897 0-14.33-5.733-1.433-5.733 0-21.499-8.598-24.365-8.598-2.866-36.255-14.046-36.255-14.046M59.093 307.889s-15.477 30.815-4.443 28.665c11.034-2.15 19.776-32.964 19.776-32.964-1.003-3.87-5.732-5.16-8.598-2.437l-6.736 6.736z" fill="#FFCBC8"/><path d="M51.352 342.575c4.442 1.433 12.18 1.29 25.078-1.72 8.311 0 16.909 12.899 16.909 12.899l11.751-.86 15.476-19.205-15.763-17.199s-5.302-.86-10.89-8.456c-9.172-12.612-26.655-15.909-39.695-7.453-12.18 8.026-11.607 23.505-8.168 28.808 1.146 1.72 0 4.3 7.165 4.3 3.152 0 3.726-25.368 10.03-22.932 6.736 2.58 16.48 3.01-6.161 16.339" fill="#FFCBC8"/><path d="M104.229 276.36L22.977 378.405l-4.012-3.153 81.251-102.045 4.013 3.153z" fill="#5C404E"/><path d="M51.347 342.573s-18.2-4.587-8.168-11.753c10.03-7.166 27.227 1.434 27.227 1.434l-19.06 10.319z" fill="#FFCBC8"/><path d="M20.966 373.819s5.159-3.583 4.872 1.29c0 1.003-.43 1.863-1.146 2.437-8.885 8.026-16.05 13.185-14.473 7.739 1.433-5.733 7.595-10.032 10.747-11.466z" fill="#F87980"/><path d="M415.611 350.888s27.227 25.798 17.196 40.13c-10.031 14.333-25.794 27.232-35.825 40.131-10.031 12.899-14.33 30.097-20.062 21.498-5.732-8.599-15.763-14.332-8.598-27.231 7.165-12.899 18.629-20.065 21.495-27.232 2.866-7.166 18.629-50.163 25.794-47.296zM404.147 446.913s-12.897 14.333-2.866 12.899c10.031-1.433 27.227-28.664 35.825-34.397 8.598-5.733 20.062-12.899 25.794-18.632 5.732-5.733 2.866-5.733 1.433-7.166-5.446-5.446-18.629-7.166-18.629-2.867 0 4.3-41.557 50.163-41.557 50.163zM166.264 352.465s13.041 21.785-3.296 33.394c-16.336 11.609-30.809 12.325-39.264 2.723-8.455-9.746-49.295-36.261-44.423-40.417 5.302-4.443 39.121 8.456 33.676-23.935-.287-1.433.859-2.723 2.292-2.723 13.757.716 50.585 29.668 51.015 30.958z" fill="#3F7AD3"/><path d="M385.812 181.623c17.626-9.173 36.972-14.046 56.89-14.046 18.916 0 36.685 1.577 35.396 7.74-2.866 12.899 4.299 17.198-11.464 25.798-15.763 8.599-28.66 24.364-44.423 30.097-15.764 5.733-101.744 63.062-121.806 54.463-20.062-8.599-80.248-51.596-41.557-71.661 38.691-20.065 47.289-17.629 53.021-15.766 7.022 2.293 49.725-4.156 73.943-16.625z" fill="#FFF1F0"/><path d="M381.53 27.52c-27.43-2.175-108.698-5.372-111.256 32.353-.064.703-.064 1.407-.192 2.11-1.598 13.172-17.392 152.05 24.106 160.938 2.365.512 4.667 1.407 6.841 2.558 42.137 21.739 68.033 2.365 77.88-15.538 10.869-19.821 24.936-51.152 27.494-81.204 3.005-35.04 2.558-62.022-3.964-89.517-1.919-8.184-12.597-11.061-20.909-11.7z" fill="#FFCBC8"/><path opacity=".12" d="M338.96 89.798a2.482 2.482 0 00-3.644 1.215c-4.54 11.253-31.558 64.18-20.333 66.498 10.823 1.581 32.609-10.231 26.215-14.707-6.394-4.475-10.87-19.821-7.033-28.133 3.005-6.522 7.672-22.38 6.394-23.658-.384-.448-.959-.895-1.599-1.215z" fill="#F87980"/><path d="M353.662 88.647c5.179-.448 23.466-1.215 29.86 8.184.447.64.256 1.47-.384 1.918-11.893 7.737-28.453 8.44-30.691-8.504-.064-.831.447-1.535 1.215-1.598zM285.876 92.035c5.435-2.877 23.083-11.125 31.011-.703a1.444 1.444 0 01-.063 1.79c-13.364 15.41-25.513 6.97-31.267 1.151-.64-.703-.512-1.79.319-2.237z" fill="#fff"/><path d="M293.56 88.519s-.192 10.997.704 11.893c.895.895 7.992 2.365 10.23 1.278 2.238-1.087 7.417-12.276 4.796-15.025-2.622-2.686-15.73 1.854-15.73 1.854zM362.868 88.457s12.404 1.023 15.09 3.452c1.918 5.243-1.279 10.55-4.284 11.446-3.837 1.087-11.062.639-11.765-.128-.64-.831-3.325-9.144.959-14.77zM314.026 188.46c4.668.512 15.41 1.471 22.123-.511a19.037 19.037 0 012.75-.576c2.366-.256 7.161-.959 10.038-2.11.96-.384 1.791.767 1.151 1.599-4.987 5.754-21.484 10.869-26.727 10.294-4.412-.448-8.248-4.604-10.166-7.097-.576-.704-.064-1.663.831-1.599z" fill="#2C1E25"/><path d="M331.542 171.515c1.726-3.197 4.539-5.627 7.8-7.034 9.144-3.964 32.162-12.021 39.899 1.791 1.726 3.133 4.22 5.243 7.161 6.394 9.464 3.836 15.858-.256 19.31-3.901.448-.447 1.215.064.895.64-5.243 10.038-19.246 29.924-40.154 5.946-.064-.064-.128-.128-.192-.128-12.724-6.202-29.348 7.737-34.4 3.645-2.302-1.982-1.662-4.86-.319-7.353zM317.736 165.121c-6.266-1.855-19.886-4.284-34.336 3.58a7.15 7.15 0 01-3.773.896c-12.66-.256-19.246-3.006-22.315-4.988-.511-.319-1.151.32-.767.831 3.453 4.796 13.108 13.684 35.615 9.975a18.647 18.647 0 017.289.32c17.455 4.476 22.187.895 22.954-3.069.704-3.325-1.406-6.586-4.667-7.545zM322.009 202.908s15.985-5.115 15.985.64c0 5.754 1.279 13.427 0 18.542-1.278 5.116-5.754 23.658-7.033 19.822-1.279-3.837-5.115-11.509-5.755-19.182-.639-7.673-6.394-18.543-3.197-19.822zM352.718 46.89s-60.232 4.924-72.253 26.855c-12.02 21.932 23.019 35.168 6.394 51.153-16.624 15.985-52.431 45.397-42.2-3.197 10.23-48.595-8.952-64.58 22.379-85.041 30.627-20.013 107.611-29.54 120.08-25.896.639.192 1.279.32 1.918.448 2.749.447 9.655 2.302 11.637 9.463 2.558 8.951 56.268 131.717 24.298 130.438-31.971-1.279-33.249 5.755-26.855-18.543 6.394-24.297 12.788-51.152-3.837-58.825-16.624-7.672-44.758 0-44.758-11.509 0-11.51 5.755-14.706 3.197-15.346z" fill="#F87980"/><path d="M289.399 73.749s17.264 2.558 21.1 3.836c3.837 1.28 7.673 3.198 8.313 5.755.639 2.558-26.216-3.197-28.134-3.836-1.918-.64-7.034-5.116-1.279-5.755zM361.009 76.434c1.982-.83 4.284-.575 6.138.448 6.458 3.517 24.041 13.3 21.995 15.41-2.557 2.557-12.148-5.755-18.542-7.673-5.435-1.663-14.707-6.139-9.591-8.185z" fill="#F87980"/></svg>