<svg width="884" height="746" fill="none" xmlns="http://www.w3.org/2000/svg"><path d="M657.783 399.808s-18.351 26.798-31.746 40.197c-13.394 13.399-40.184 8.04-44.202 18.759-2.143 5.762-4.018 6.834-6.831 7.772-5.894 1.742-12.189 1.608-18.083-.268-9.778-2.948-23.842-1.072-30.004-6.164-8.037-6.7-20.092-17.419-20.092-17.419l-10.716 28.138 34.023 34.972c9.376 9.648 20.36 17.821 32.281 24.253 1.205.67 2.143 1.741 2.679 3.081 1.339 3.752 5.224 11.256 15.537 6.03 13.395-6.7 33.487-26.798 53.579-32.158 20.092-5.36 41.523-28.138 40.184-40.197-1.34-12.06 13.395-46.897 2.679-60.297-10.716-13.399-19.556-14.739-19.288-6.699zM810.883 596.775s-6.697 101.834-29.468 146.051c-22.771 44.217-33.487 48.237-32.147 85.754 1.339 37.518 10.715 44.218-1.34 57.617-12.055 13.399-57.597 20.098-58.936 6.699-1.34-13.399 2.679-14.739-24.11-52.256-26.79-37.518-46.881-83.075-40.184-113.893 6.697-30.818-49.56-80.395-41.523-85.755 8.036-5.359 136.624-52.256 146.001-45.557 9.376 6.7 81.707 1.34 81.707 1.34z" fill="#2E5A9C"/><path d="M658.185 377.029s0 103.173-17.413 135.331c-17.413 32.158-44.202 49.577-40.184 64.316 4.018 14.739-18.752 52.257-10.716 64.316 8.037 12.059 16.074 6.7 46.882-6.699 30.807-13.399 76.349-22.779 85.725-25.459 9.376-2.68 68.313-10.719 81.708 1.34 13.394 12.059 37.504 9.38 32.147-8.039-3.885-12.729-22.369-43.548-32.014-59.091a77.752 77.752 0 01-9.108-20.768c-8.037-29.21-27.861-105.05-19.154-121.129 10.715-20.098 18.752-69.675 4.018-69.675-14.734 0-121.891 45.557-121.891 45.557z" fill="#2E5A9C"/><path d="M651.623 381.451s-14.868 116.17-32.281 134.929c-17.413 18.759-42.863 81.735-41.523 92.454 1.339 10.72-28.129 58.957-6.698 57.617 21.432-1.34 61.615-32.158 54.918-37.518-6.697-5.36 54.918-255.924 54.918-255.924l-29.334 8.442zM796.018 339.244c-6.43-.402-12.591 2.412-16.61 7.503-12.189 15.141-36.567 50.783-17.948 74.634 24.11 30.818 36.165 13.399 34.826 16.079-1.34 2.679-58.937 100.493-56.258 101.833 2.679 1.34 21.432 24.119 34.826 13.399 13.395-10.719 46.881-61.636 58.937-72.355 12.055-10.72 45.541-34.838 41.523-50.917-4.018-16.079-32.147-36.178-34.826-50.917-2.545-13.399-14.734-37.651-44.47-39.259zM817.581 600.795s1.34 170.169-18.753 192.948c-20.092 22.778 2.679 37.517-14.734 60.296-17.413 22.778-28.129 21.439-37.505 9.379-9.376-12.059 0-175.529 0-175.529l30.808-76.375 40.184-10.719z" fill="#3F7AD3"/><path d="M742.571 537.819s-25.449 21.439-24.11 30.818c1.34 9.38 0 17.419 8.037 18.759 8.037 1.34 13.394 4.02 20.092 2.68 6.697-1.34 9.376 1.34 18.752-5.36 9.376-6.699 13.395-2.68 13.395-2.68s21.431 2.68 18.752-5.359c-4.018-4.02-12.055 0-13.395-5.36-1.339-5.36 0-20.099-8.036-22.779-8.037-2.679-33.888-13.131-33.888-13.131M449.499 415.886s-14.467 28.809-4.153 26.799c10.315-2.01 18.486-30.818 18.486-30.818-.938-3.618-5.358-4.824-8.037-2.278l-6.296 6.297z" fill="#FFCBC8"/><path d="M442.265 448.312c4.152 1.34 11.385 1.206 23.44-1.608 7.769 0 15.806 12.06 15.806 12.06l10.984-.804 14.466-17.955-14.734-16.079s-4.956-.804-10.18-7.906c-8.573-11.791-24.914-14.873-37.103-6.967-11.386 7.503-10.85 21.974-7.635 26.932 1.071 1.608 0 4.02 6.697 4.02 2.947 0 3.483-23.717 9.376-21.439 6.296 2.412 15.404 2.814-5.759 15.275" fill="#FFCBC8"/><path d="M491.689 386.409l-75.946 95.402-3.751-2.948 75.947-95.402 3.75 2.948z" fill="#5C404E"/><path d="M442.263 448.312s-17.011-4.288-7.635-10.987c9.377-6.7 25.45 1.34 25.45 1.34l-17.815 9.647z" fill="#FFCBC8"/><path d="M413.867 477.523s4.822-3.35 4.554 1.206c0 .938-.402 1.742-1.072 2.278-8.304 7.503-15.001 12.327-13.527 7.235 1.339-5.36 7.098-9.379 10.045-10.719z" fill="#F87980"/><path d="M782.756 456.083s25.45 24.119 16.074 37.518c-9.376 13.399-24.11 25.458-33.487 37.518-9.376 12.059-13.394 28.138-18.752 20.098-5.358-8.039-14.734-13.399-8.037-25.458 6.697-12.059 17.413-18.759 20.092-25.458 2.679-6.7 17.413-46.897 24.11-44.218zM772.038 545.858s-12.055 13.4-2.678 12.06c9.376-1.34 25.45-26.799 33.486-32.158 8.037-5.36 18.753-12.06 24.111-17.419 5.358-5.36 2.679-5.36 1.339-6.7-5.09-5.091-17.413-6.699-17.413-2.68 0 4.02-38.845 46.897-38.845 46.897zM549.689 457.558s12.189 20.366-3.081 31.22c-15.27 10.853-28.798 11.523-36.701 2.545-7.903-9.111-46.077-33.899-41.523-37.785 4.956-4.154 36.567 7.905 31.477-22.377-.268-1.34.804-2.546 2.143-2.546 12.859.67 47.283 27.737 47.685 28.943z" fill="#3F7AD3"/><path d="M754.894 297.84c16.475-8.575 34.558-13.131 53.176-13.131 17.681 0 34.29 1.474 33.085 7.236-2.679 12.059 4.018 16.078-10.716 24.118-14.734 8.039-26.789 22.779-41.523 28.138-14.734 5.36-95.101 58.956-113.853 50.917-18.753-8.04-75.01-48.237-38.845-66.996 36.166-18.759 44.202-16.481 49.56-14.739 6.564 2.144 46.479-3.886 69.116-15.543z" fill="#FFF1F0"/><path d="M750.913 153.773c-25.64-2.032-101.604-5.021-103.995 30.248-.059.657-.059 1.315-.179 1.972-1.494 12.315-16.257 142.151 22.532 150.46 2.212.479 4.363 1.315 6.395 2.391 39.387 20.325 63.592 2.212 72.796-14.526 10.161-18.531 23.31-47.822 25.7-75.917 2.809-32.758 2.391-57.984-3.705-83.688-1.793-7.652-11.774-10.342-19.544-10.94z" fill="#FFCBC8"/><path opacity=".12" d="M711.106 211.997a2.32 2.32 0 00-3.407 1.135c-4.243 10.521-29.496 60.002-19.005 62.169 10.117 1.478 30.48-9.564 24.503-13.749-5.976-4.184-10.159-18.531-6.574-26.302 2.809-6.097 7.172-20.922 5.977-22.118-.359-.418-.897-.837-1.494-1.135z" fill="#F87980"/><path d="M724.852 210.921c4.841-.419 21.935-1.136 27.912 7.651.419.598.239 1.375-.358 1.793-11.118 7.234-26.598 7.891-28.69-7.95-.06-.777.418-1.435 1.136-1.494zM661.501 214.089c5.08-2.69 21.575-10.402 28.985-.658a1.349 1.349 0 01-.06 1.674c-12.49 14.406-23.845 6.516-29.224 1.076-.597-.658-.478-1.674.299-2.092z" fill="#fff"/><path d="M668.672 210.801s-.179 10.282.658 11.119c.837.837 7.47 2.212 9.562 1.195 2.092-1.016 6.933-11.477 4.483-14.047-2.451-2.511-14.703 1.733-14.703 1.733zM733.461 210.741s11.595.956 14.105 3.228c1.793 4.902-1.195 9.863-4.004 10.7-3.586 1.016-10.34.598-10.998-.119-.597-.778-3.108-8.549.897-13.809zM687.798 304.233c4.362.479 14.403 1.375 20.678-.478a17.87 17.87 0 012.57-.538c2.211-.239 6.693-.897 9.383-1.973.896-.358 1.673.718 1.076 1.495-4.662 5.38-20.081 10.162-24.982 9.624-4.124-.418-7.709-4.304-9.502-6.635-.538-.658-.06-1.554.777-1.495z" fill="#2C1E25"/><path d="M704.173 288.392c1.614-2.989 4.244-5.26 7.292-6.575 8.547-3.707 30.063-11.238 37.294 1.673 1.614 2.93 3.945 4.902 6.694 5.978 8.846 3.587 14.822-.239 18.05-3.646.418-.419 1.135.06.836.598-4.901 9.385-17.989 27.975-37.533 5.559-.06-.06-.12-.12-.179-.12-11.894-5.798-27.433 7.233-32.155 3.408-2.151-1.854-1.554-4.543-.299-6.875zM691.264 282.414c-5.857-1.733-18.587-4.005-32.095 3.348a6.69 6.69 0 01-3.526.837c-11.834-.239-17.991-2.81-20.859-4.663-.479-.299-1.076.299-.718.777 3.228 4.483 12.253 12.793 33.291 9.325a17.442 17.442 0 016.814.299c16.316 4.185 20.739.837 21.456-2.869.658-3.108-1.314-6.157-4.363-7.054zM695.269 317.743s14.94-4.782 14.94.598 1.195 12.553 0 17.335c-1.195 4.783-5.378 22.118-6.574 18.531-1.195-3.586-4.781-10.76-5.378-17.933-.598-7.173-5.976-17.335-2.988-18.531zM723.972 171.882s-56.3 4.603-67.536 25.107c-11.236 20.504 21.516 32.878 5.976 47.822-15.539 14.944-49.008 42.442-39.445-2.989 9.562-45.431-8.368-60.375 20.918-79.504 28.628-18.71 100.587-27.617 112.241-24.21.598.18 1.196.299 1.793.419 2.57.418 9.025 2.152 10.878 8.847 2.391 8.369 52.595 123.141 22.711 121.946-29.883-1.196-31.078 5.38-25.102-17.336 5.977-22.715 11.954-47.822-3.586-54.995-15.539-7.173-41.836 0-41.836-10.76s5.379-13.749 2.988-14.347z" fill="#F87980"/><path d="M664.788 196.992s16.137 2.391 19.723 3.587c3.586 1.195 7.172 2.989 7.77 5.38.597 2.391-24.504-2.989-26.297-3.587-1.793-.598-6.575-4.782-1.196-5.38zM731.728 199.503c1.853-.777 4.004-.538 5.738.418 6.036 3.288 22.472 12.434 20.56 14.407-2.391 2.391-11.356-5.38-17.333-7.174-5.08-1.554-13.747-5.738-8.965-7.651z" fill="#F87980"/><mask id="a" maskUnits="userSpaceOnUse" x="395.617" y="129.394" width="489" height="966" fill="#000"><path fill="#fff" d="M395.617 129.394h489v966h-489z"/><path fill-rule="evenodd" clip-rule="evenodd" d="M642.855 260.973c-13.697 9.04-26.217 10.917-19.888-19.151 3.564-16.933 3.309-29.631 3.103-39.889-.347-17.263-.555-27.616 17.815-39.615 28.628-18.71 100.587-27.617 112.241-24.21.598.18 1.196.299 1.793.419 2.57.418 9.025 2.152 10.878 8.847.355 1.243 1.765 4.833 3.81 10.042l.002.003.001.003c11.728 29.867 44.341 112.916 18.898 111.898-6.718-.269-11.986-.145-16.049-.049h-.001c-1.862.043-3.471.081-4.85.073-1.811 7.355-4.13 14.588-6.708 21.481 4.347-.472 7.538-2.823 9.603-5.003.418-.419 1.135.059.836.597a52.309 52.309 0 01-2.435 4.193 113.782 113.782 0 0136.166-5.903c17.681 0 34.29 1.474 33.085 7.235-.823 3.707-.761 6.653-.707 9.191.12 5.719.197 9.359-10.009 14.928-6.399 3.492-12.293 8.247-18.121 12.949-4.612 3.722-9.183 7.41-13.93 10.411 28.017 2.73 39.624 26.043 42.1 39.08 1.344 7.397 9.098 16.143 16.997 25.054 7.842 8.846 15.827 17.853 17.829 25.863 3.375 13.506-19.711 32.684-34.331 44.829-2.785 2.314-5.263 4.372-7.192 6.088-3.402 3.024-8.509 9.249-14.39 16.868 3.271.742 6.735 2.275 8.895 4.436.23.23.499.421.761.606 1.261.892 2.338 1.654-2.1 6.094-4.489 4.49-12.737 9.92-20.02 14.715h-.001a866.747 866.747 0 00-4.09 2.704c-1.43.954-3.115 2.544-4.971 4.522a78.334 78.334 0 006.445 12.762c9.645 15.543 28.129 46.361 32.014 59.091 3.803 12.365-7.243 17.303-18.763 14.814-.251 43.015-2.456 158.329-18.743 176.794-10.363 11.749-9.323 21.359-8.275 31.037.983 9.085 1.973 18.229-6.459 29.259-4.38 5.73-8.336 9.934-11.954 12.825.498 11.968 2.139 71.787-13.494 97.048-3.272 11.785-3.346 19.635-3.419 27.324-.077 8.046-.151 15.914-3.888 27.934-39.052 83.96-42.898 63.02-42.898 63.02l.115-.74-.116.17s-11.409-14.67-14.088-20.03c-1.088-2.18.697-18.06 2.841-37.14 3.135-27.899 7.038-62.639 3.857-71.391-4.74-13.037-3.191-45.991-2.77-53.429-5.313-.945-8.925-3.101-9.288-6.733-.189-1.888-.271-3.536-.348-5.08-.471-9.415-.747-14.945-23.762-47.177-26.79-37.518-46.881-83.075-40.184-113.893 4.094-18.842-15.343-44.696-29.232-63.169a1160.6 1160.6 0 01-3.091-4.123c-7.595 3.867-15.178 6.616-21.254 6.996-14.164.885-6.095-19.885.619-37.167 3.445-8.867 6.533-16.815 6.079-20.45-1.34-10.719 24.11-73.695 41.523-92.454 1.141-1.229 2.271-2.877 3.387-4.883-8.793 4.416-17.335 10.67-25.043 16.313l-.001.001c-6.361 4.657-12.155 8.898-17.053 11.348-10.313 5.226-14.198-2.278-15.537-6.03-.536-1.34-1.474-2.412-2.679-3.081-11.921-6.432-22.905-14.606-32.281-24.253l-8.12-8.347c-4.786-.436-8.908-2.49-12.108-6.124-3.075-3.545-10.732-9.463-18.672-15.6-12.468-9.637-25.634-19.812-22.851-22.186 1.265-1.061 4.27-1.064 7.957-.985-2.958-2.954-6.829-5.849-10.636-5.849-11.943 2.788-19.154 2.945-23.324 1.645l-23.95 30.084a6.184 6.184 0 01-.01.296c0 .938-.402 1.742-1.072 2.278-8.304 7.503-15.001 12.327-13.527 7.235 1.152-4.613 5.581-8.234 8.67-10.007l25.105-31.536c-4.22-1.827-8.933-5.112-2.969-9.374a13.002 13.002 0 012.616-1.442c-3.157-5.051-3.609-19.377 7.7-26.83 7.57-4.91 16.743-5.582 24.66-2.561l18.335-23.031 3.75 2.948-17.691 22.223a27.45 27.45 0 018.049 7.388c5.224 7.102 10.18 7.906 10.18 7.906l7.836 8.551c-.06-.429-.127-.868-.202-1.316-.268-1.339.804-2.545 2.143-2.545 12.859.67 47.283 27.736 47.685 28.942 0 0 1.929 3.223 3.291 7.789 1.368.244 2.691.543 3.944.921 5.894 1.875 12.189 2.009 18.083.268 2.813-.938 4.688-2.01 6.831-7.772 1.965-5.242 9.376-6.639 18.003-8.265 9.014-1.698 19.355-3.647 26.199-10.494 6.592-6.595 14.386-16.435 20.6-24.729 3.143-19.452 4.983-33.825 4.983-33.825l.729-.21c-20.966-15.752-41.769-39.822-16.134-53.119 6.218-3.225 11.604-5.828 16.288-7.919-3.615-7.949-6.003-18.186-7.511-29.465-5.884-2.203-9.219-5.651-10.929-8.025-.358-.478.239-1.076.718-.777 1.764 1.139 4.771 2.55 9.576 3.523-.85-7.898-1.315-16.192-1.505-24.486zM789.6 449.059l.048-.082.039-.067.006-.01.015-.027.007-.012.019-.031.014-.025.001-.001.013-.024.017-.029c3.771-6.502 6.241-10.761 6.507-11.291.216-.433.083-.342-.394-.014-1.822 1.253-8.664 5.957-20.211-1.951.971 6.877 2.28 14.282 3.782 21.832 1.222-1.137 2.339-1.625 3.293-1.244 0 0 .671.636 1.754 1.757 1.862-3.214 3.577-6.173 5.09-8.781z"/></mask><path d="M622.967 241.822l7.828 1.648-7.828-1.648zm19.888 19.151l7.998-.184-.333-14.462-12.072 7.969 4.407 6.677zm-16.785-59.04l7.998-.161-7.998.161zm17.815-39.615l4.375 6.698.001-.001-4.376-6.697zm112.241-24.21l2.3-7.662-.028-.008-.027-.008-2.245 7.678zm1.793.419l-1.569 7.844.142.028.142.024 1.285-7.896zm10.878 8.847l-7.71 2.133.009.032.009.032 7.692-2.197zm3.81 10.042l-7.446 2.924.006.016.007.016 7.433-2.956zm.002.003l-7.434 2.956.005.013.005.013 7.424-2.982zm.001.003l7.446-2.925-.011-.028-.012-.029-7.423 2.982zm18.898 111.898l-.32 7.993.32-7.993zm-16.049-.049v8h.094l.094-.003-.188-7.997zm-.001 0v-8h-.094l-.094.002.188 7.998zm-4.85.073l.05-8-6.31-.04-1.508 6.127 7.768 1.913zm-6.708 21.481l-7.493-2.803-4.547 12.155 12.902-1.399-.862-7.953zm9.603-5.003l-5.658-5.657-.076.077-.075.078 5.809 5.502zm.836.597l-6.993-3.884-.05.09-.048.091 7.091 3.703zm-2.435 4.193l-6.718-4.345-12.4 19.175 21.655-7.243-2.537-7.587zm69.251 1.332l7.81 1.735.01-.048.01-.048-7.83-1.639zm-.707 9.191l-7.999.169 7.999-.169zm-10.009 14.928l3.832 7.023-3.832-7.023zm-18.121 12.949l-5.023-6.226 5.023 6.226zm-13.93 10.411l-4.275-6.762-19.71 12.462 23.209 2.262.776-7.962zm42.1 39.08l7.871-1.43-.006-.031-.006-.032-7.859 1.493zm16.997 25.054l-5.986 5.307 5.986-5.307zm17.829 25.863l-7.761 1.94 7.761-1.94zm-34.331 44.829l-5.112-6.154 5.112 6.154zm-7.192 6.088l5.315 5.978-5.315-5.978zm-14.39 16.868l-6.333-4.889-7.656 9.919 12.219 2.771 1.77-7.801zm8.895 4.436l-5.657 5.656 5.657-5.656zm.761.606l-4.62 6.531 4.62-6.531zm-2.1 6.094l5.658 5.656-5.658-5.656zm-20.02 14.715l-4.399-6.682-.02.013-.019.012 4.438 6.657zm-.001 0l4.399 6.682.02-.013.019-.013-4.438-6.656zm-4.09 2.704l4.439 6.656v-.001l-4.439-6.655zm-4.971 4.522l-5.833-5.475-3.47 3.696 1.861 4.716 7.442-2.937zm6.445 12.762l6.798-4.217-.006-.011-.007-.011-6.785 4.239zm32.014 59.091l-7.652 2.335.003.008.002.009 7.647-2.352zm-18.763 14.814l1.689-7.82-9.632-2.081-.057 9.854 8 .047zm-18.743 176.794l6 5.292-6-5.292zm-8.275 31.037l-7.954.861 7.954-.861zm-6.459 29.259l-6.355-4.859 6.355 4.859zm-11.954 12.825l-4.994-6.25-3.168 2.531.168 4.052 7.994-.333zm-13.494 97.048l-6.802-4.21-.601.97-.305 1.099 7.708 2.141zm-3.419 27.324l7.999.075-7.999-.075zm-3.888 27.934l7.254 3.38.226-.49.159-.51-7.639-2.38zm-42.898 63.02l-7.904-1.23-.209 1.34.245 1.33 7.868-1.44zm.115-.74l7.905 1.23-14.51-5.74 6.605 4.51zm-.116.17l-6.315 4.91 6.733 8.66 6.188-9.06-6.606-4.51zm-14.088-20.03l-7.156 3.58 7.156-3.58zm2.841-37.14l7.95.89.013-.11.009-.11-7.972-.67zm0 0l-7.95-.89-.013.11-.01.12 7.973.66zm3.857-71.391l-7.519 2.733 7.519-2.733zm-2.77-53.429l7.987.452.401-7.086-6.987-1.243-1.401 7.877zm-9.288-6.733l7.96-.796-7.96.796zm-.348-5.08l-7.99.399 7.99-.399zm-23.762-47.177l-6.511 4.649 6.511-4.649zm-40.184-113.893l-7.818-1.699 7.818 1.699zm-29.232-63.169l6.394-4.808-6.394 4.808zm-3.091-4.123l6.413-4.781-4.032-5.408-6.011 3.06 3.63 7.129zm-21.254 6.996l.499 7.984h.001l-.5-7.984zm.619-37.167l7.457 2.897-7.457-2.897zm6.079-20.45l7.938-.992-7.938.992zm41.523-92.454l5.863 5.443-5.863-5.443zm3.387-4.883l6.992 3.889 12.622-22.693-23.204 11.655 3.59 7.149zm-25.043 16.313l4.437 6.657.147-.098.141-.104-4.725-6.455zm-.001.001l-4.438-6.657-.146.098-.142.104 4.726 6.455zm-17.053 11.348l-3.578-7.155-.019.009-.018.01 3.615 7.136zm-15.537-6.03l7.534-2.69-.05-.141-.056-.139-7.428 2.97zm-2.679-3.081l3.886-6.993-.043-.024-.044-.024-3.799 7.041zm-32.281-24.253l5.737-5.576-.003-.002-5.734 5.578zm-8.12-8.347l5.734-5.579-2.062-2.12-2.946-.268-.726 7.967zm-12.108-6.124l-6.044 5.241.02.023.019.022 6.005-5.286zm-18.672-15.6l4.892-6.33-.092-.071-.095-.069-4.705 6.47zm0 0l-4.892 6.329.092.072.094.069 4.706-6.47zm-22.851-22.186l-5.139-6.131-.027.022-.027.023 5.193 6.086zm7.957-.985l-.171 7.998 19.933.426-14.11-14.086-5.652 5.662zm-10.636-5.849v-8h-.921l-.897.21 1.818 7.79zm-23.324 1.645l2.381-7.637-5.229-1.631-3.411 4.285 6.259 4.983zm-23.95 30.084l-6.259-4.982-1.711 2.15-.029 2.749 7.999.083zm-.01.296l-7.986-.47-.014.235v.235h8zm-1.072 2.278l-4.998-6.247-.187.15-.178.161 5.363 5.936zm-13.527 7.235l7.684 2.224.041-.142.036-.142-7.761-1.94zm8.67-10.007l3.982 6.938 1.326-.76.951-1.196-6.259-4.982zm25.105-31.536l6.259 4.983 6.506-8.173-9.587-4.151-3.178 7.341zm-2.969-9.374l-4.651-6.509 4.651 6.509zm2.616-1.442l3.051 7.396 8.748-3.61-5.015-8.025-6.784 4.239zm7.7-26.83l-4.354-6.712-.024.016-.025.016 4.403 6.68zm24.66-2.561l-2.851 7.475 5.466 2.085 3.644-4.577-6.259-4.983zm18.335-23.031l4.944-6.29-6.251-4.913-4.952 6.22 6.259 4.983zm3.75 2.948l6.259 4.982 5.014-6.298-6.329-4.974-4.944 6.29zm-17.691 22.223l-6.259-4.983-5.677 7.132 7.809 4.704 4.127-6.853zm8.049 7.388l-6.471 4.705.013.018.014.018 6.444-4.741zm10.18 7.906l5.898-5.405-1.876-2.047-2.741-.445-1.281 7.897zm7.836 8.551l-5.898 5.405 17.34 18.923-3.518-25.424-7.924 1.096zm-.202-1.316l7.889-1.326-.02-.121-.024-.121-7.845 1.568zm2.143-2.545l.416-7.99-.208-.01h-.208v8zm47.685 28.942l-7.59 2.529.276.829.449.75 6.865-4.108zm3.291 7.789l-7.666 2.287 1.409 4.723 4.851.866 1.406-7.876zm3.944.921l2.427-7.624-.059-.018-.059-.018-2.309 7.66zm18.083.268l2.267 7.672.133-.04.13-.043-2.53-7.589zm6.831-7.772l-7.491-2.808-.004.009-.003.01 7.498 2.789zm18.003-8.265l-1.481-7.861 1.481 7.861zm26.199-10.494l-5.658-5.656 5.658 5.656zm20.6-24.729l6.403 4.797 1.181-1.577.314-1.944-7.898-1.276zm4.983-33.825l-2.212-7.688-5.056 1.454-.667 5.218 7.935 1.016zm.729-.21l2.213 7.688 15.429-4.44-12.836-9.644-4.806 6.396zm-16.134-53.119l-3.683-7.101 3.683 7.101zm16.288-7.919l3.261 7.305 7.357-3.284-3.336-7.334-7.282 3.313zm-7.511-29.465l7.93-1.06-.635-4.752-4.49-1.68-2.805 7.492zm-10.929-8.025l6.493-4.674-.045-.063-.047-.062-6.401 4.799zm.718-.777l4.34-6.72-.049-.032-.051-.032-4.24 6.784zm9.576 3.523l-1.588 7.841 10.712 2.169-1.17-10.866-7.954.856zm145.288 163.518l-6.92-4.014-.001.001 6.921 4.013zm-.048.082l6.921 4.014v-.001l-6.921-4.013zm.087-.149l-6.906-4.038-.007.012-.007.012 6.92 4.014zm.006-.01l6.906 4.038.006-.011.007-.011-6.919-4.016zm.015-.027l-6.908-4.034-.006.009-.005.01 6.919 4.015zm.007-.012l6.909 4.034.005-.01.006-.009-6.92-4.015zm.019-.031l6.919 4.014.005-.008-6.924-4.006zm.014-.025l-6.91-4.031-.007.012-.007.012 6.924 4.007zm.001-.001l6.91 4.031.006-.011.006-.011-6.922-4.009zm.013-.024l-6.917-4.019-.005.01 6.922 4.009zm.017-.029l6.918 4.019.002-.005-6.92-4.014zm6.507-11.291l-7.156-3.577 7.156 3.577zm-.394-.014l-4.533-6.592 4.533 6.592zm-20.211-1.951l4.521-6.601-14.981-10.26 2.539 17.979 7.921-1.118zm3.782 21.832l-7.846 1.561 2.798 14.067 10.499-9.772-5.451-5.856zm3.293-1.244l5.503-5.806-1.11-1.053-1.421-.568-2.972 7.427zm1.754 1.757l-5.755 5.557 7.364 7.627 5.313-9.174-6.922-4.01zM615.138 240.174c-1.656 7.87-2.258 14.403-1.596 19.607.664 5.218 2.848 10.545 8.096 13.342 4.886 2.604 10.149 1.734 13.919.506 3.975-1.295 8.01-3.541 11.705-5.98l-8.814-13.353c-3.154 2.081-5.821 3.46-7.847 4.12-2.232.727-2.272.142-1.437.587 1.197.638.581 1.361.25-1.243-.333-2.618-.127-7.126 1.381-14.29l-15.657-3.296zm2.933-38.08c.204 10.149.434 22.085-2.933 38.08l15.657 3.296c3.762-17.871 3.481-31.331 3.273-41.698l-15.997.322zm21.439-46.474c-10.122 6.612-16.13 13.453-19.097 21.873-2.778 7.883-2.507 16.364-2.342 24.601l15.997-.322c-.181-9.026-.189-14.353 1.436-18.962 1.434-4.072 4.507-8.406 12.756-13.794l-8.75-13.396zm118.861-25.19c-2.569-.751-5.899-.979-9.122-1.026-3.445-.051-7.571.105-12.137.44-9.143.671-20.403 2.088-32.157 4.201-23.11 4.155-49.67 11.265-65.447 21.576l8.753 13.394c12.852-8.4 36.586-15.098 59.525-19.222 11.272-2.027 21.976-3.367 30.497-3.992 4.267-.313 7.899-.441 10.731-.399 1.416.021 2.564.083 3.45.171.44.044.782.092 1.038.136.126.021.221.041.288.056.068.015.096.023.092.022l4.489-15.357zm1.118.252c-.653-.131-.884-.183-1.063-.236l-4.599 15.325c1.017.305 1.981.492 2.523.6l3.139-15.689zm17.018 14.558c-3.212-11.609-14.251-14.113-17.302-14.609l-2.571 15.792c.715.116 1.862.414 2.825 1.002.821.501 1.353 1.091 1.628 2.082l15.42-4.267zm3.547 9.252a913.94 913.94 0 01-2.515-6.445c-.318-.832-.571-1.506-.76-2.03-.094-.26-.166-.465-.218-.621-.056-.166-.074-.229-.072-.22l-15.384 4.395c.493 1.728 2.134 5.876 4.056 10.769l14.893-5.848zm-.012-.029l-.001-.003-14.867 5.912.001.003 14.867-5.912zm-.009-.023l-.001-.003-14.847 5.964.001.003 14.847-5.964zm11.155 122.873c5.747.23 10.727-2.113 13.906-6.78 2.762-4.055 3.645-9.112 3.838-13.736.39-9.387-1.95-21.592-5.199-33.888-6.578-24.894-17.843-53.555-23.677-68.412l-14.893 5.849c5.895 15.011 16.801 42.807 23.101 66.65 3.19 12.072 4.966 22.305 4.681 29.137-.144 3.485-.796 4.983-1.074 5.392-.063.091.02-.05.261-.167.22-.106.203-.012-.304-.032l-.64 15.987zm-15.541-.045c4.042-.095 9.095-.213 15.541.045l.64-15.987c-6.989-.28-12.473-.149-16.557-.053l.376 15.995zm-.189.003h.001v-16h-.001v16zm-4.9.072c1.524.01 3.264-.032 5.089-.075l-.377-15.995c-1.9.044-3.377.078-4.612.071l-.1 15.999zm.835 16.284c2.667-7.132 5.086-14.664 6.983-22.371l-15.536-3.825c-1.724 7.004-3.945 13.938-6.433 20.591l14.986 5.605zm-3.699-13.307c-1.279 1.351-2.833 2.353-4.657 2.551l1.725 15.907c6.871-.745 11.698-4.446 14.549-7.455l-11.617-11.003zm13.639 9.984c2.438-4.389.47-9.001-2.589-11.119-2.86-1.981-7.537-2.382-10.899.98l11.315 11.313c-2.944 2.944-7.053 2.572-9.524.861a7.488 7.488 0 01-2.949-4.152 7.505 7.505 0 01.659-5.652l13.987 7.769zm-2.712 4.652a60.514 60.514 0 002.81-4.834l-14.183-7.406a44.338 44.338 0 01-2.062 3.551l13.435 8.689zm29.449-18.247c-13.273 0-26.29 2.164-38.704 6.316l5.075 15.174a105.792 105.792 0 0133.629-5.49v-16zm40.915 16.874a10.562 10.562 0 00-1.414-7.872c-1.323-2.097-3.146-3.432-4.629-4.278-2.894-1.65-6.521-2.56-9.866-3.147-6.93-1.214-16.08-1.577-25.006-1.577v16c8.756 0 16.751.374 22.244 1.337 2.867.502 4.271 1.04 4.705 1.287.18.103-.404-.172-.98-1.085a5.437 5.437 0 01-.714-3.942l15.66 3.277zm-.539 7.383c-.053-2.481-.08-4.593.519-7.287l-15.62-3.469c-1.048 4.718-.95 8.499-.896 11.094l15.997-.338zm-14.175 22.12c5.53-3.018 9.743-6.252 12.099-10.658 2.385-4.458 2.129-8.944 2.076-11.462l-15.997.338c.068 3.2-.089 3.394-.187 3.578-.127.237-.978 1.607-5.655 4.158l7.664 14.046zm-16.929 12.152c5.937-4.79 11.272-9.066 16.929-12.152l-7.664-14.046c-7.141 3.897-13.594 9.133-19.312 13.746l10.047 12.452zm-14.678 10.947c5.205-3.292 10.139-7.284 14.678-10.947l-10.047-12.452c-4.686 3.781-8.894 7.164-13.182 9.875l8.551 13.524zm45.683 30.825c-2.817-14.834-16.17-42.332-49.183-45.549l-1.552 15.924c23.021 2.244 32.882 21.371 35.016 32.611l15.719-2.986zm15.125 21.24c-4.014-4.527-7.659-8.649-10.489-12.514-2.929-4-4.289-6.821-4.624-8.663l-15.742 2.861c1.009 5.554 4.198 10.804 7.457 15.255 3.357 4.585 7.539 9.292 11.425 13.675l11.973-10.614zm19.603 29.23c-1.388-5.553-4.643-10.829-8.056-15.438-3.476-4.695-7.682-9.431-11.547-13.792l-11.973 10.614c3.976 4.485 7.683 8.676 10.661 12.698 3.041 4.108 4.779 7.341 5.393 9.798l15.522-3.88zm-36.98 52.922c7.216-5.994 17.118-14.199 24.757-22.715 3.821-4.26 7.378-8.922 9.752-13.732 2.346-4.755 3.958-10.525 2.471-16.475l-15.522 3.88c.2.803.193 2.495-1.297 5.514-1.463 2.964-3.959 6.388-7.314 10.129-6.715 7.485-15.666 14.941-23.071 21.092l10.224 12.307zm-6.989 5.913c1.807-1.606 4.167-3.568 6.989-5.913l-10.224-12.307c-2.748 2.283-5.344 4.439-7.396 6.263l10.631 11.957zm-13.372 15.778c5.986-7.755 10.635-13.343 13.372-15.778l-10.631-11.957c-4.065 3.615-9.631 10.476-15.407 17.958l12.666 9.777zm8.22-6.108c-3.614-3.615-8.683-5.652-12.784-6.582l-3.539 15.603c2.442.554 4.301 1.584 5.008 2.291l11.315-11.312zm-.277-.27l-.128-.091c-.022-.015-.015-.011.007.007.041.031.197.153.398.354l-11.315 11.312c.792.793 1.633 1.364 1.798 1.481l9.24-13.063zm-1.062 18.282c1.263-1.264 2.375-2.502 3.245-3.727.799-1.127 1.862-2.884 2.197-5.126a9.246 9.246 0 00-1.879-7.133c-1.068-1.361-2.43-2.245-2.501-2.296l-9.24 13.063c.201.142.132.097.031.015a5.709 5.709 0 01-.876-.902 6.73 6.73 0 01-1.177-2.332 6.675 6.675 0 01-.183-2.776c.207-1.385.786-2.063.578-1.771-.138.194-.555.717-1.511 1.673l11.316 11.312zm-21.279 15.741c6.973-4.591 16.072-10.533 21.279-15.741l-11.316-11.312c-3.77 3.771-11.168 8.69-18.761 13.689l8.798 13.364zm.038-.026l-8.875-13.313v.001l8.875 13.312zm-4.089 2.703c1.281-.854 2.635-1.745 4.05-2.677l-8.798-13.364a823.022 823.022 0 00-4.129 2.73l8.877 13.311zm-3.577 3.342c1.785-1.902 2.951-2.924 3.577-3.341l-8.877-13.312c-2.235 1.491-4.439 3.65-6.366 5.703l11.666 10.95zm7.397 3.048a70.362 70.362 0 01-5.789-11.46l-14.883 5.874a86.356 86.356 0 007.103 14.064l13.569-8.478zm32.88 60.995c-2.238-7.334-8.288-18.972-14.523-30.073-6.392-11.38-13.491-23.079-18.344-30.9l-13.595 8.435c4.791 7.722 11.756 19.203 17.989 30.3 6.389 11.377 11.523 21.512 13.17 26.908l15.303-4.67zm-28.104 24.968c7.027 1.518 15.103 1.077 21.237-2.987 3.214-2.13 5.848-5.26 7.14-9.364 1.273-4.044 1.034-8.368-.278-12.634l-15.293 4.704c.59 1.916.397 2.846.309 3.127-.07.222-.204.49-.716.829-1.319.874-4.526 1.657-9.02.686l-3.379 15.639zm-11.053 174.267c3.154-3.576 5.376-8.687 7.083-13.963 1.775-5.484 3.274-12.063 4.558-19.295 2.572-14.478 4.406-32.284 5.724-50.652 2.637-36.777 3.252-76.566 3.377-98.13l-15.999-.093c-.125 21.452-.738 60.828-3.337 97.078-1.302 18.145-3.088 35.319-5.518 48.999-1.216 6.847-2.563 12.642-4.028 17.167-1.531 4.732-2.941 7.264-3.859 8.305l11.999 10.584zm-6.322 24.884c-.54-4.987-.892-8.694-.218-12.479.625-3.513 2.242-7.533 6.54-12.405l-11.999-10.584c-6.066 6.876-9.11 13.536-10.294 20.185-1.135 6.377-.444 12.314.064 17.005l15.907-1.722zm-8.056 34.978c5.03-6.58 7.443-12.902 8.324-19.089.847-5.944.21-11.477-.268-15.889l-15.907 1.722c.506 4.672.856 8.254.335 11.911-.486 3.414-1.794 7.179-5.195 11.628l12.711 9.717zm-13.317 14.216c4.303-3.438 8.707-8.185 13.317-14.216l-12.711-9.717c-4.151 5.429-7.66 9.09-10.593 11.434l9.987 12.499zm-11.684 95.008c4.598-7.43 7.667-16.915 9.787-26.644 2.142-9.831 3.426-20.445 4.183-30.471 1.516-20.053.969-38.35.714-44.476l-15.987.667c.244 5.842.767 23.439-.681 42.603-.724 9.582-1.931 19.407-3.862 28.271-1.954 8.966-4.541 16.431-7.759 21.631l13.605 8.419zm-2.223 23.19c.071-7.503.143-14.506 3.129-25.259l-15.417-4.281c-3.559 12.818-3.636 21.514-3.711 29.389l15.999.151zm-4.248 30.239c4.091-13.16 4.17-21.975 4.248-30.239l-15.999-.151c-.074 7.829-.145 14.76-3.527 25.64l15.278 4.75zm-50.537 60.64c-7.868 1.44-7.866 1.45-7.864 1.46 0 .01.002.02.003.02l.009.05.018.09c.014.06.029.14.048.22.036.16.083.34.143.56.117.41.298.96.573 1.58.493 1.11 1.587 3.12 3.822 4.62 2.577 1.73 5.674 2.12 8.629 1.32 2.607-.72 4.855-2.27 6.775-4 3.848-3.46 8.487-9.57 14.441-19.58 6.04-10.16 13.73-24.86 23.555-45.98l-14.508-6.75c-9.701 20.86-17.137 35.03-22.8 44.55-5.752 9.67-9.396 14.07-11.391 15.87-1.001.9-1.064.66-.281.45 1.131-.31 2.893-.24 4.499.84 1.264.85 1.753 1.87 1.883 2.17.093.21.153.39.195.54.023.08.043.16.063.24l.028.14c.005.02.01.04.015.07l.007.04.003.01c.002.01.004.02-7.865 1.47zm-7.79-1.97l-.114.74 15.809 2.46.115-.74-15.81-2.46zm14.395 5.91l.115-.16-13.21-9.03-.116.17 13.211 9.02zm-27.85-20.96c1.708 3.42 5.693 9.01 8.758 13.18 1.629 2.22 3.168 4.26 4.298 5.74.566.75 1.031 1.35 1.356 1.77.163.22.29.38.378.49.044.06.078.1.102.13.011.02.02.03.027.04.003 0 .005.01.007.01h.003l6.315-4.91 6.315-4.91h-.001c-.001 0-.002 0-.005-.01-.004 0-.012-.01-.022-.03-.019-.02-.05-.06-.09-.11-.081-.11-.201-.26-.356-.46-.309-.4-.756-.99-1.301-1.7-1.093-1.44-2.574-3.4-4.132-5.52-3.31-4.5-6.369-8.92-7.34-10.87l-14.312 7.16zm2.047-41.61c-1.068 9.5-2.064 18.36-2.652 25.11-.294 3.36-.5 6.35-.553 8.7-.027 1.17-.021 2.33.058 3.38.051.68.191 2.6 1.1 4.42l14.312-7.15c.637 1.27.595 2.21.543 1.53-.023-.31-.039-.89-.018-1.81.042-1.84.212-4.42.497-7.68.568-6.51 1.536-15.14 2.613-24.72l-15.9-1.78zm-.023.23l15.945 1.33v-.01l-15.945-1.32zm4.311-67.998c.268.738.666 3.263.699 8.244.031 4.615-.24 10.41-.719 16.955-.956 13.081-2.696 28.579-4.268 42.569l15.9 1.78c1.563-13.9 3.342-29.73 4.326-43.182.491-6.721.795-12.997.761-18.228-.032-4.867-.339-9.966-1.662-13.604l-15.037 5.466zm-3.238-56.614c-.215 3.801-.719 14.111-.562 25.18.15 10.629.9 23.457 3.8 31.434l15.037-5.466c-1.839-5.061-2.684-15.227-2.839-26.194-.149-10.527.332-20.413.538-24.05l-15.974-.904zm-9.261-5.486c.462 4.631 3.091 8.018 6.209 10.167 2.917 2.01 6.39 3.069 9.638 3.647l2.802-15.753c-.978-.174-1.752-.382-2.34-.593-.595-.213-.905-.396-1.022-.477-.108-.074.042.005.239.307.218.335.357.739.394 1.111l-15.92 1.591zm-.378-5.476c.076 1.535.167 3.367.378 5.476l15.92-1.591c-.166-1.666-.241-3.131-.318-4.683l-15.98.798zm-22.283-42.927c11.488 16.089 16.91 24.988 19.567 30.816 2.394 5.248 2.501 7.818 2.716 12.111l15.98-.798c-.256-5.122-.523-10.025-4.138-17.953-3.352-7.349-9.577-17.331-21.104-33.474l-13.021 9.298zM616.88 725.048c-3.828 17.616.112 38.441 7.869 58.962 7.831 20.714 19.921 42.091 33.622 61.279l13.021-9.298c-13.088-18.33-24.438-38.491-31.677-57.639-7.311-19.341-10.069-36.704-7.2-49.906l-15.635-3.398zm-27.809-56.663c7.012 9.326 14.977 19.945 20.735 30.477 5.943 10.87 8.465 19.788 7.074 26.186l15.635 3.398c2.705-12.444-2.445-25.874-8.67-37.259-6.41-11.725-15.108-23.269-21.985-32.417l-12.789 9.615zm-3.11-4.148c1 1.341 2.045 2.731 3.11 4.148l12.789-9.615a1364.72 1364.72 0 01-3.072-4.096l-12.827 9.563zm-14.34 10.198c7.718-.482 16.471-3.822 24.383-7.85l-7.259-14.259c-7.277 3.705-13.689 5.863-18.123 6.14l.999 15.969zm-7.338-48.048c-3.232 8.319-7.345 18.782-8.593 27.107-.598 3.984-.857 9.264 1.57 13.756 1.343 2.486 3.419 4.552 6.198 5.833 2.656 1.223 5.489 1.519 8.162 1.352l-.998-15.969c-.867.055-.88-.105-.468.085.535.247.97.7 1.183 1.094.165.306-.313-.52.176-3.778.924-6.16 4.202-14.723 7.684-23.686l-14.914-5.794zm5.597-16.561c-.045-.361.04-.175-.179.919-.196.975-.547 2.265-1.073 3.895-1.059 3.28-2.595 7.244-4.345 11.747l14.914 5.794c1.696-4.364 3.425-8.807 4.658-12.626.619-1.92 1.171-3.853 1.534-5.667.34-1.696.64-3.867.368-6.046l-15.877 1.984zm43.599-98.888c-5.032 5.42-10.264 13.564-15.161 22.425-4.968 8.987-9.852 19.196-14.117 29.093-4.262 9.893-7.961 19.602-10.526 27.606-1.28 3.993-2.314 7.673-2.99 10.802-.612 2.828-1.155 6.156-.805 8.962l15.877-1.984c.016.127-.026-.858.567-3.599.527-2.44 1.397-5.585 2.587-9.297 2.374-7.405 5.875-16.622 9.984-26.158 4.107-9.532 8.766-19.254 13.426-27.686 4.73-8.558 9.209-15.32 12.884-19.279l-11.726-10.885zm2.259-3.33c-.934 1.679-1.706 2.733-2.259 3.33l11.726 10.885c1.729-1.863 3.218-4.104 4.516-6.437l-13.983-7.778zm-13.327 26.657c7.816-5.722 15.817-11.555 23.909-15.619l-7.181-14.298c-9.496 4.769-18.579 11.443-26.179 17.007l9.451 12.91zm-.288.202l-8.875-13.313h-.001l8.876 13.313zm-.001 0h.001l-8.876-13.313 8.875 13.313zm-17.911 11.847c5.639-2.821 12.049-7.545 18.2-12.048l-9.452-12.91c-6.572 4.811-11.749 8.569-15.905 10.648l7.157 14.31zm-26.65-10.495c.81 2.269 2.816 7.086 7.364 10.255 5.378 3.748 12.176 3.842 19.323.221l-7.231-14.272c-1.73.876-2.623.93-2.856.927-.116-.002-.138-.017-.104-.006.029.01.038.019.015.003-.074-.051-.314-.256-.638-.778-.318-.512-.588-1.122-.805-1.73l-15.068 5.38zm.969 1.221a1.943 1.943 0 01-.863-.94l14.856-5.941c-1.195-2.989-3.352-5.51-6.221-7.104l-7.772 13.985zm-34.132-25.669c9.974 10.262 21.62 18.92 34.219 25.717l7.598-14.081c-11.243-6.066-21.564-13.755-30.343-22.788l-11.474 11.152zm-8.117-8.345l8.12 8.348 11.468-11.157-8.12-8.348-11.468 11.157zm-12.379-6.416c4.576 5.198 10.599 8.186 17.387 8.805l1.452-15.934c-2.785-.254-5.006-1.372-6.829-3.443l-12.01 10.572zm-17.559-14.556c3.994 3.087 7.8 6.029 10.99 8.636 3.309 2.705 5.495 4.682 6.53 5.875l12.087-10.483c-2.039-2.352-5.219-5.106-8.492-7.781-3.392-2.772-7.385-5.857-11.331-8.907l-9.784 12.66zm.186.14h.001l9.41-12.94-9.411 12.94zm-23.338-34.742c-3.226 2.753-3.51 6.555-2.94 9.083.474 2.104 1.558 3.784 2.289 4.797 1.568 2.173 3.886 4.443 6.204 6.526 4.772 4.288 11.451 9.444 17.599 14.195l9.784-12.659c-6.321-4.885-12.458-9.635-16.69-13.437-2.184-1.963-3.415-3.284-3.922-3.987-.307-.425.107-.006.345 1.05.333 1.48.247 4.444-2.284 6.604l-10.385-12.172zm13.321-2.898c-1.779-.038-3.892-.074-5.776.096-1.491.135-4.806.506-7.491 2.757l10.278 12.262c-.839.703-1.565.915-1.676.947-.143.041-.078.006.326-.03.38-.035.9-.057 1.604-.062.699-.005 1.482.007 2.393.027l.342-15.997zm-10.807 10.15c-.084 0 .388-.006 1.507.669 1.069.644 2.266 1.632 3.477 2.841l11.304-11.323c-1.747-1.744-3.965-3.681-6.522-5.222-2.508-1.511-5.875-2.965-9.766-2.965v16zm-25.706 1.282c6.361 1.984 15.398 1.34 27.525-1.491l-3.637-15.581c-11.761 2.745-17.145 2.415-19.125 1.798l-4.763 15.274zm-15.309 27.43l23.949-30.084-12.517-9.966-23.95 30.085 12.518 9.965zm1.717-4.218c.013-.223.021-.45.024-.681l-15.999-.167c0-.042.002-.072.003-.091l15.972.939zm-4.059 8.055c2.585-2.069 4.073-5.18 4.073-8.524h-16c0-1.469.684-2.972 1.93-3.969l9.997 12.493zm-26.211-1.235c-.289.999-.75 2.889-.383 5.033a8.826 8.826 0 001.918 4.186 8.63 8.63 0 004.416 2.808c2.68.714 4.974-.025 5.858-.339 1.157-.411 2.215-.977 3.07-1.487 3.284-1.958 7.558-5.537 11.697-9.277l-10.727-11.871c-4.165 3.763-7.392 6.348-9.164 7.405-.409.244-.462.235-.238.155.122-.043.472-.16.993-.229a6.744 6.744 0 012.627.182 7.37 7.37 0 013.747 2.395 7.168 7.168 0 011.573 3.372c.251 1.463-.097 2.389-.018 2.115l-15.369-4.448zm12.373-14.722c-2.085 1.196-4.597 2.992-6.847 5.333-2.217 2.307-4.574 5.556-5.603 9.674l15.523 3.879c.124-.497.558-1.365 1.615-2.465 1.025-1.066 2.271-1.967 3.276-2.544l-7.964-13.877zm22.828-29.579l-25.105 31.535 12.518 9.965 25.105-31.535-12.518-9.965zm-1.361-10.901c-2.139 1.529-4.432 3.725-5.537 6.847-1.256 3.553-.502 6.913 1.014 9.412 1.339 2.206 3.21 3.698 4.605 4.633 1.482.994 3.041 1.762 4.359 2.333l6.357-14.683c-.791-.343-1.404-.67-1.806-.94-.489-.328-.214-.267.164.357.226.373.514.991.627 1.825.119.867.011 1.7-.235 2.398-.442 1.251-1.088 1.438-.246.836l-9.302-13.018zm4.216-2.328a20.995 20.995 0 00-4.216 2.328l9.302 13.018c.295-.211.63-.396 1.016-.555l-6.102-14.791zm6.348-26.115c-7.825 5.157-11.538 12.724-12.75 19.608-1.143 6.487-.242 13.484 2.669 18.142l13.568-8.479c.016.025-.086-.139-.223-.556a9.482 9.482 0 01-.36-1.61c-.193-1.349-.201-2.996.103-4.722.6-3.405 2.315-6.728 5.798-9.023l-8.805-13.36zm31.915-3.355c-10.188-3.888-22.051-3.042-31.866 3.323l8.707 13.424c5.327-3.455 11.808-3.953 17.456-1.798l5.703-14.949zm9.224-20.54l-18.334 23.032 12.517 9.965 18.335-23.032-12.518-9.965zm14.953 1.641l-3.75-2.948-9.888 12.58 3.751 2.947 9.887-12.579zm-16.376 33.495l17.691-22.223-12.517-9.965-17.692 22.223 12.518 9.965zm8.26-2.298a35.439 35.439 0 00-10.391-9.537l-8.255 13.706a19.433 19.433 0 015.705 5.24l12.941-9.409zm3.71 12.61c1.281-7.897 1.286-7.896 1.29-7.895l.01.001.018.003a2.487 2.487 0 01.102.018l.113.022c.068.013.119.025.155.034.072.018.082.024.039.009a5.22 5.22 0 01-.868-.416c-.921-.53-2.634-1.756-4.595-4.422l-12.888 9.481c3.262 4.435 6.64 7.162 9.503 8.809a21.072 21.072 0 003.682 1.691 14.012 14.012 0 002.078.548l.041.007.02.003a.05.05 0 00.009.002c.005.001.01.002 1.291-7.895zm13.734 3.146l-7.836-8.551-11.796 10.81 7.836 8.551 11.796-10.81zm-13.989 5.416c.062.373.118.735.166 1.086l15.849-2.193a51.537 51.537 0 00-.237-1.546l-15.778 2.653zm10.032-11.872c-6.019 0-11.316 5.469-9.988 12.114l15.69-3.137c.793 3.965-2.362 7.023-5.702 7.023v-16zm55.274 34.413c-.407-1.224-1.024-2.06-1.157-2.243a9.313 9.313 0 00-.6-.743 13.647 13.647 0 00-.77-.789 36.272 36.272 0 00-1.509-1.346 136.486 136.486 0 00-4.446-3.596 275.897 275.897 0 00-13.77-10.035c-5.262-3.59-11.063-7.259-16.48-10.107-5.053-2.657-10.994-5.276-16.126-5.544l-.832 15.979c1.297.067 4.482 1.082 9.512 3.727 4.666 2.453 9.908 5.751 14.91 9.163a260.403 260.403 0 0112.947 9.434 121.023 121.023 0 013.904 3.154c.455.388.723.631.844.746.071.068.007.011-.12-.131a6.463 6.463 0 01-.416-.519c-.088-.121-.675-.906-1.07-2.092l15.179-5.058zm3.368 8.031a47.864 47.864 0 00-2.593-6.746 41.539 41.539 0 00-1.331-2.575l-.106-.183-.037-.063-.014-.024-.006-.011-.003-.004-.001-.002c-.001-.002-.002-.003-6.866 4.106-6.865 4.108-6.865 4.107-6.866 4.106l-.001-.002-.003-.004-.004-.007a.088.088 0 00-.006-.01l-.004-.007.022.038c.027.047.078.137.149.268.142.263.36.681.619 1.227a31.967 31.967 0 011.719 4.467l15.332-4.574zm-1.413-4.452a42.972 42.972 0 00-4.848-1.136l-2.811 15.751c1.145.204 2.155.437 3.041.704l4.618-15.319zm13.506.256c-4.294 1.269-8.954 1.192-13.388-.22l-4.853 15.247c7.353 2.34 15.284 2.531 22.776.317l-4.535-15.344zm1.601-2.889c-.909 2.444-1.431 2.936-1.367 2.871.073-.074.176-.145.223-.17.003-.001-.04.022-.156.069a9.872 9.872 0 01-.564.201l5.061 15.179c1.8-.6 4.415-1.594 6.837-4.054 2.241-2.275 3.728-5.201 4.962-8.518l-14.996-5.578zm24.02-13.337c-4.09.77-8.88 1.646-12.861 3.16-4.003 1.521-8.972 4.344-11.152 10.158l14.982 5.616c-.215.572-.496.075 1.855-.819 2.372-.901 5.601-1.537 10.139-2.392l-2.963-15.723zm22.022-8.289c-4.783 4.785-12.427 6.48-22.022 8.289l2.963 15.723c8.432-1.589 21.47-3.792 30.375-12.7l-11.316-11.312zm19.856-23.871c-6.189 8.26-13.695 17.708-19.856 23.871l11.316 11.312c7.024-7.026 15.104-17.26 21.345-25.588l-12.805-9.595zm11.385-29.027l-7.935-1.016-.001.001v.007l-.004.028-.015.119-.063.478a942.632 942.632 0 01-1.216 8.88A1260.68 1260.68 0 01638.743 414l15.795 2.552a1273.202 1273.202 0 003.693-24.362c.43-3.033.76-5.457.984-7.126.112-.834.197-1.48.255-1.919l.065-.501.017-.13.004-.034.002-.01v-.002-.001l-7.935-1.016zm-1.483-7.898l-.729.21 4.424 15.376.73-.21-4.425-15.376zm-17.605-52.532c-7.652 3.968-13.071 9.411-15.214 16.472-2.111 6.954-.54 13.843 2.272 19.721 5.487 11.466 17.25 22.381 27.954 30.423l9.611-12.792c-10.262-7.71-19.385-16.707-23.132-24.537-1.804-3.771-1.938-6.377-1.395-8.168.511-1.684 2.104-4.236 7.271-6.916l-7.367-14.203zm16.71-8.123c-4.853 2.166-10.382 4.84-16.71 8.123l7.367 14.203c6.106-3.168 11.35-5.7 15.865-7.716l-6.522-14.61zm-12.179-21.1c1.555 11.632 4.078 22.746 8.158 31.717l14.564-6.625c-3.15-6.927-5.403-16.286-6.863-27.212l-15.859 2.12zm-9.492-4.411c2.465 3.424 7.003 7.993 14.616 10.843l5.61-14.984c-4.155-1.556-6.287-3.882-7.241-5.207l-12.985 9.348zm11.45-12.235c-4.086-2.554-8.46-.985-10.694 1.352-2.373 2.481-3.597 7.097-.664 11.008l12.801-9.598c2.575 3.433 1.47 7.511-.574 9.648-1.906 1.993-5.742 3.413-9.35 1.158l8.481-13.568zm6.924 2.466c-3.969-.803-6.013-1.879-6.824-2.402l-8.681 13.44c2.718 1.756 6.687 3.502 12.329 4.644l3.176-15.682zm-11.091-16.462c.194 8.462.67 16.988 1.549 25.159l15.908-1.712c-.82-7.624-1.275-15.687-1.461-23.814l-15.996.367zm147.87 183.808l-.047.082 13.841 8.026.048-.082-13.842-8.026zm.04-.068l-.039.067 13.84 8.029.038-.067-13.839-8.029zm.02-.035l-.006.011 13.812 8.077.006-.011-13.812-8.077zm.002-.003l-.015.026 13.838 8.032.015-.027-13.838-8.031zm.018-.031l-.007.012 13.816 8.069.008-.013-13.817-8.068zm.007-.012l-.018.031 13.839 8.03.018-.032-13.839-8.029zm.01-.017l-.015.025 13.849 8.013.014-.025-13.848-8.013zm.014-.025v.001l13.82 8.062.001-.001-13.821-8.062zm.002-.002l-.014.023 13.845 8.019.014-.024-13.845-8.018zm.022-.039l-.017.029 13.835 8.038.017-.029-13.835-8.038zm6.268-10.849c.008-.016-.488.864-1.711 2.984-1.117 1.935-2.673 4.616-4.56 7.87l13.84 8.028c3.627-6.252 6.33-10.903 6.743-11.729l-14.312-7.153zm11.294 10.155c.175-.12.116-.077.022-.018-.051.032-.261.164-.559.315-.14.07-1.061.553-2.365.746a7.958 7.958 0 01-3.659-.315 7.98 7.98 0 01-5.476-7.477 7.91 7.91 0 01.186-1.798c.15-.672.354-1.156.405-1.277.078-.183.139-.307.152-.331l14.311 7.153c.005-.008.495-.922.75-2.07.041-.181.756-2.872-.833-5.703-2.411-4.296-6.813-4.212-8.182-4.009-1.337.198-2.302.698-2.496.796a9.053 9.053 0 00-.756.428c-.246.155-.501.332-.565.376l9.065 13.184zm-29.263-1.943c7.069 4.842 13.523 6.336 19.082 5.77 5.437-.553 8.973-2.996 10.181-3.827l-9.065-13.184c-.613.422-1.41.958-2.736 1.093-1.204.123-3.944.014-8.421-3.053l-9.041 13.201zm16.149 13.672c-1.482-7.449-2.763-14.701-3.707-21.391l-15.843 2.237c.998 7.066 2.335 14.624 3.857 22.275l15.693-3.121zm-1.582-7.111c-5.709-2.284-10.233 1.436-11.715 2.816l10.901 11.711c.217-.202-.043.11-.779.399-.88.346-2.518.662-4.351-.071l5.944-14.855zm4.537 3.627a85.916 85.916 0 00-1.828-1.836l-.119-.114-.037-.036-.013-.012-.005-.005-.002-.001-.001-.001v-.001l-5.504 5.806-5.503 5.807v-.001h-.001l-.001-.002-.002-.001-.001-.001.009.008.062.06a67.887 67.887 0 011.436 1.444l11.51-11.114zm-7.585-7.238c-1.513 2.608-3.23 5.569-5.093 8.786l13.845 8.019c1.861-3.212 3.576-6.169 5.089-8.777l-13.841-8.028z" fill="#fff" mask="url(#a)"/><g clip-path="url(#clip0)"><path d="M350.491 864.688l23.448-7.223-151.701-606.678h-27.056l120.089 474.49-80.692 12.354-45.093-440.279-22.119 9.123-31.707 446.266-23.733 3.611 33.606-487.509-23.449-18.056L79.554 918l21.645-6.367 8.924-129.908 23.733-4.656-2.373 33.166 21.359-9.883 1.994-27.369 164.138-32.406 31.517 124.111zM179.708 432.296l30.094 309.136-53.257 8.173 23.163-317.309z" fill="#FFF1F0"/><path d="M141.83 322.25l80.977-3.516 3.987 18.816-88.571 4.182 3.607-19.482z" fill="#FFF1F0"/><path d="M89.426 638.989v37.632l20.125 11.404 241.033-33.071-18.322-12.164-2.088-48.561-240.748 31.835v12.925z" fill="#F87980"/><path d="M109.551 688.025l1.519-13.019 243.026-35.257-3.512 15.205-241.033 33.071z" fill="#A75155"/><path d="M109.551 688.025l-20.125-11.404v-5.037l20.695 11.309-.57 5.132z" fill="#A75155"/><path d="M111.073 675.006l-2.943-2.376-.38 8.743 2.373 1.52.95-7.887z" fill="#FACABC"/><path d="M108.129 672.63l240.938-33.546 5.031.665-243.026 35.257-2.943-2.376zM344.415 607.534l-3.037-1.046-240.179 31.265 1.899 1.331 241.317-31.55zM101.199 637.753v6.463l1.899 1.425v-6.557l-1.899-1.331zM166.418 7.317L188.347 0l34.461 608.484-25.632 3.326L166.418 7.317z" fill="#FACABC"/><path d="M29.24 650.393L399 604.778l-53.921-497.963L0 126.106l29.24 524.287z" fill="#FFCBC8"/><path d="M91.61 642.695l11.106 7.698 242.362-31.361-.664-11.498-241.318 31.55v6.557l-5.126-3.801" fill="#A75155"/></g><path d="M35.135 199.342l4.905-17.719-2.774.194-.284 2.131-3.517 12.804-.188.013-4.843-12.355-.54-1.938-2.856.2 6.811 16.9 3.286-.23zm10.096-13.427c-1.643.115-3.273.798-4.735 1.955l.484 1.888.225.12c1.371-1.287 2.519-1.908 3.73-1.993 1.24-.087 1.987.538 2.081 1.884l.075 1.457-4.19 1.24c-1.643.494-2.522 1.475-2.403 3.172.15 2.155 1.726 3.398 4.233 3.25.995-.476 1.862-1.24 2.66-2.216l.188-.013c.216 1.149.994 1.825 2.106 1.856a4.402 4.402 0 001.655-.712l.164-1.527-.256-.171c-.398.109-.612.151-.8.164-.566.039-.796-.161-.845-.861-.064-.916-.057-5.464-.123-6.406-.149-2.128-1.798-3.258-4.249-3.087zm1.971 6.9l.064 2.079c-.817 1.086-1.636 1.766-2.578 1.832-.997.069-1.687-.505-1.764-1.609-.05-.728.198-1.043.835-1.223l3.443-1.079zm14.663 4.659l2.774-.194-.514-5.432-.164-3.507c-.136-2.318-1.655-3.538-4.43-3.344-1.054.399-2.167 1.126-3.179 2.144l-.188.013-.1-1.806-2.595.425.626 7.02.202 5.21 2.747-.192-.542-5.43-.203-3.288c.98-1.097 2.042-1.766 3.12-1.842 1.292-.09 1.997.7 2.064 2.048l.382 8.175zm9.96-18.073l-.026.002 1.034 12.08.175 5.212.026-.002c1.595-.03 4.644-.162 5.803-.243 5.44-.381 8.224-3.931 7.798-10.018-.367-5.253-3.316-7.943-8.272-7.596l-6.537.565zm7.342 14.806c-.566.04-2.322.081-3.541.058l-.305-3.199-.536-9.598c1.02-.126 2.955-.315 3.521-.355 3.367-.235 5.178 1.668 5.49 6.139.315 4.498-1.397 6.729-4.629 6.955zm11.785-9.566l-.526-1.722-2.657.321 5.416 12.044c-1.034 1.859-2.48 2.853-4.978 3.515l-.06.302c.366.597.81 1.134 1.384 1.608l.243-.017c3.356-1.154 5.048-2.897 5.978-6.237l3.406-12.066-2.45.172-.27 1.967-2.11 7.753-.215.015-3.16-7.655zm14.651-2.946c-3.555.249-5.508 2.902-5.223 6.97.275 3.932 2.435 6.19 5.802 5.954 1.104-.077 2.273-.402 3.243-.849l.115-2.227-.254-.145c-.882.549-1.91.946-2.825 1.01-2.047.143-3.319-1.392-3.511-4.14-.182-2.612.845-4.173 2.758-4.306.916-.064 1.829.224 2.698.65l.262-.127.297-2.321c-.919-.369-2.203-.55-3.362-.469zm8.714 6.618l-.724-13.455-2.733.407 1.077 13.458.203 5.236 2.747-.192-.57-5.454zm7.136-7.482l-2.989.209-.591 1.232-3.239 4.774.013.188c1.588 2.19 3.331 4.287 5.152 6.325l.331.085c.827-.166 1.656-.305 2.476-.579l-.022-.323c-1.784-1.905-3.63-3.914-5.287-5.937l4.156-5.974zm8.399-.587l-2.454.117-.057 1.899.177.204 2.058-.36 4.202-.294-5.968 9.484.14 1.614 1.451-.155 5.171-.362 2.778-.14.084-1.9-.177-.204-2.14.366-4.417.309 5.945-9.429-.169-1.639-1.183.11-5.441.38zm10.612-6.561c-.97.068-1.519.729-1.453 1.671.065.943.644 1.471 1.586 1.405.916-.064 1.465-.725 1.398-1.694-.064-.916-.616-1.446-1.531-1.382zm1.969 12.692l-.276-7.045-2.73.434.626 7.02.202 5.21 2.747-.192-.569-5.427zm12.995-1.558l.427-.463c.032-.327.04-.978.014-1.355-.207-2.962-1.976-4.652-4.858-4.451-3.61.253-5.781 2.867-5.499 6.908.275 3.932 2.601 6.232 6.318 5.973 1.293-.091 2.588-.533 3.707-1.18l.17-2.204-.253-.145c-1.162.812-2.453 1.309-3.557 1.386-2.371.165-3.609-1.291-3.849-3.954l7.38-.515zm-2.066-1.669l-5.297.505c.217-1.937 1.273-3.093 2.916-3.208 1.347-.094 2.29.625 2.412 2.376l-.031.327zm10.129 5.138c-1.104.077-1.619-.32-1.686-1.669l-.338-6.77 3.474-.242.026-1.572-.121-.181-3.448.241-.132-2.67-.258-.199-2.36 1.085.138 1.967-1.643.114-.024 1.599.119.154 1.697-.119.394 5.251.028 1.946c.148 2.128 1.168 3.167 3.428 3.361.937-.147 1.754-.475 2.691-1l.149-1.743-.282-.17c-.703.401-1.286.577-1.852.617zm18.221-4.684l-.724-13.455-2.732.407.492 6.272a11.36 11.36 0 00-2.116-.069c-3.797.266-5.952 2.744-5.662 6.892.279 3.986 2.409 6.192 6.018 5.94 1.043-.56 1.708-1.121 2.671-2.054l.216-.016c.262 1.038.986 1.718 2.125 1.747a4.366 4.366 0 001.682-.714l.137-1.525-.256-.171a3.905 3.905 0 01-.827.166c-.512.036-.688-.169-.762-.84l-.262-2.58zm-5.217-4.94c.781-.055 1.55.108 2.44.452l.424 4.896.068 1.754c-.894 1.146-1.706 1.527-2.541 1.585-1.886.132-3.124-1.324-3.353-4.204-.255-2.878.942-4.342 2.962-4.483zm10.078-8.202c-.97.068-1.519.729-1.453 1.671.066.943.644 1.471 1.587 1.405.915-.064 1.465-.725 1.397-1.695-.064-.915-.616-1.445-1.531-1.381zm1.97 12.691l-.276-7.045-2.731.435.626 7.02.202 5.21 2.747-.192-.568-5.428zm8.668 2.778c-1.104.077-1.619-.32-1.686-1.669l-.338-6.77 3.475-.243.025-1.571-.121-.181-3.447.241-.133-2.67-.257-.199-2.36 1.085.137 1.966-1.643.115-.024 1.599.119.154 1.697-.119.394 5.251.028 1.946c.149 2.128 1.169 3.167 3.429 3.36.937-.146 1.753-.474 2.691-1l.148-1.742-.282-.17c-.703.401-1.286.577-1.852.617zm9.709-11.072l-2.455.117-.056 1.899.176.204 2.059-.361 4.202-.293-5.968 9.484.14 1.614 1.45-.155 5.172-.362 2.778-.14.083-1.9-.176-.205-2.14.367-4.417.308 5.945-9.428-.169-1.639-1.183.109-5.441.381zm18.684 5.054l.428-.463c.031-.327.04-.977.013-1.354-.207-2.963-1.976-4.653-4.858-4.451-3.609.252-5.781 2.867-5.499 6.907.275 3.933 2.601 6.233 6.318 5.973 1.293-.09 2.588-.533 3.707-1.179l.171-2.204-.254-.145c-1.161.812-2.453 1.308-3.557 1.385-2.37.166-3.609-1.29-3.849-3.953l7.38-.516zm-2.065-1.669l-5.297.506c.216-1.937 1.272-3.094 2.915-3.208 1.347-.095 2.29.624 2.413 2.375l-.031.327zm8.115 1.869l-.724-13.456-2.732.408 1.076 13.458.204 5.236 2.747-.192-.571-5.454zm7.137-7.482l-2.99.209-.59 1.232-3.239 4.774.013.188c1.588 2.19 3.331 4.287 5.152 6.325l.33.085c.828-.166 1.657-.305 2.477-.579l-.023-.323c-1.784-1.905-3.629-3.914-5.286-5.937l4.156-5.974zm11.406 5.563l.428-.463c.031-.327.04-.977.014-1.354-.208-2.963-1.977-4.653-4.859-4.451-3.609.252-5.781 2.867-5.498 6.907.275 3.932 2.601 6.233 6.318 5.973 1.292-.09 2.588-.533 3.706-1.179l.171-2.205-.254-.144c-1.161.812-2.452 1.308-3.557 1.385-2.37.166-3.608-1.29-3.849-3.953l7.38-.516zm-2.065-1.669l-5.297.506c.217-1.937 1.273-3.094 2.916-3.208 1.346-.095 2.29.624 2.412 2.375l-.031.327zm11.208-5.358c-1.077.076-2.328.759-3.222 2.689l-.188.013-.147-2.48-2.595.425.653 7.019.174 5.211 2.748-.192-.569-5.428-.097-1.779c.812-1.924 1.702-2.744 2.807-2.822a3.794 3.794 0 011.006.065l.29-.101-.182-2.613a5.24 5.24 0 00-.678-.007zM30.896 219.239l-2.455.118-.056 1.898.176.204 2.06-.36 4.201-.294-5.968 9.484.14 1.615 1.45-.156 5.172-.361 2.778-.14.083-1.901-.176-.204-2.14.366-4.417.309 5.945-9.429-.169-1.639-1.183.11-5.44.38zm10.611-6.561c-.97.068-1.519.729-1.453 1.672.066.942.644 1.47 1.587 1.404.916-.064 1.465-.725 1.397-1.694-.064-.916-.615-1.446-1.53-1.382zm1.97 12.692l-.276-7.045-2.73.434.626 7.021.202 5.209 2.747-.192-.569-5.427zm8.669 2.777c-1.104.077-1.62-.32-1.686-1.668l-.338-6.77 3.474-.243.026-1.572-.121-.181-3.448.241-.132-2.67-.258-.199-2.36 1.086.138 1.966-1.643.115-.024 1.598.119.154 1.697-.118.394 5.25.028 1.947c.148 2.128 1.168 3.166 3.428 3.36.938-.147 1.754-.475 2.691-1l.15-1.743-.283-.17c-.703.401-1.286.577-1.852.617zm8.812-.616c-1.105.077-1.62-.32-1.687-1.668l-.338-6.77 3.475-.243.025-1.572-.12-.181-3.448.241-.133-2.67-.257-.199-2.36 1.086.137 1.966-1.643.115-.023 1.598.119.154 1.696-.118.394 5.25.028 1.947c.149 2.128 1.169 3.166 3.429 3.36.937-.147 1.753-.475 2.69-1l.15-1.743-.283-.17c-.703.401-1.286.578-1.851.617zm12.768-4.925l.428-.463c.031-.327.04-.977.013-1.354-.207-2.963-1.976-4.653-4.858-4.452-3.609.253-5.781 2.868-5.498 6.908.274 3.932 2.6 6.233 6.317 5.973 1.293-.091 2.588-.533 3.707-1.18l.17-2.204-.253-.145c-1.161.812-2.453 1.309-3.557 1.386-2.37.166-3.609-1.291-3.849-3.953l7.38-.516zm-2.065-1.669l-5.297.505c.216-1.937 1.272-3.093 2.915-3.208 1.347-.094 2.29.625 2.413 2.376l-.031.327zm13.452 6.99l2.774-.194-.515-5.432-.164-3.507c-.135-2.318-1.655-3.538-4.429-3.344-1.055.399-2.168 1.126-3.18 2.144l-.188.013-.099-1.806-2.596.425.626 7.02.202 5.21 2.748-.192-.542-5.43-.203-3.288c.979-1.097 2.042-1.766 3.119-1.842 1.293-.09 1.998.7 2.065 2.048l.382 8.175zm7.433-3.443c-.97.068-1.519.729-1.453 1.671.066.943.644 1.471 1.587 1.405.916-.064 1.465-.725 1.397-1.694-.064-.916-.615-1.446-1.53-1.382zm22.694-4.131l-.667-11.862-2.855.2.626 7.399-4.196.375-4.208.212-.41-7.414-2.855.2 1.034 12.08.175 5.211 2.828-.197-.515-5.432-.12-2.102 4.008-.362 4.476-.231.191 2.341.175 5.211 2.801-.195-.488-5.434zm4.992-13.178c-.969.068-1.519.729-1.453 1.672.066.942.644 1.47 1.587 1.404.916-.064 1.465-.725 1.397-1.694-.064-.916-.615-1.446-1.531-1.382zm1.97 12.692l-.276-7.045-2.73.434.626 7.021.202 5.209 2.747-.192-.569-5.427zm4.848-13.168c-.97.067-1.519.728-1.453 1.671.066.943.644 1.471 1.587 1.405.915-.064 1.465-.725 1.397-1.695-.064-.915-.616-1.445-1.531-1.381zm2.128 5.67l-.084-.048-2.551.286-2.478.174-.026 1.571.202.176 2.37-.166.486 5.406.303 4.716c.145 2.074-.425 3.223-2.184 4.375l.02.296 1.082 1.142c2.811-1.604 3.831-3.272 3.633-6.1l-.474-4.839-.299-6.989zm16.882 11.297l2.774-.194-.515-5.431-.164-3.507c-.135-2.318-1.655-3.538-4.429-3.344-1.055.398-2.168 1.126-3.179 2.144l-.162.011-.441-8.251-2.732.407 1.076 13.458.203 5.236 2.748-.192-.571-5.454-.174-3.263c.979-1.097 2.042-1.767 3.119-1.842 1.293-.09 1.998.7 2.065 2.048l.382 8.174zm10.412-13.448c-3.717.259-5.624 2.802-5.326 7.057.278 3.986 2.403 6.111 5.877 5.869 3.717-.26 5.624-2.802 5.326-7.058-.278-3.986-2.403-6.111-5.877-5.868zm-.028 1.923c2.02-.141 3.153 1.35 3.39 4.743.197 2.829-.734 4.22-2.754 4.361-2.047.143-3.178-1.321-3.417-4.741-.194-2.774.734-4.22 2.781-4.363zm17.865 3.434l.427-.463c.032-.327.04-.977.014-1.354-.207-2.963-1.976-4.653-4.858-4.451-3.609.252-5.781 2.867-5.499 6.907.275 3.932 2.601 6.233 6.318 5.973 1.293-.091 2.588-.533 3.707-1.18l.171-2.204-.254-.144c-1.161.812-2.453 1.308-3.557 1.385-2.37.166-3.609-1.291-3.849-3.953l7.38-.516zm-2.066-1.669l-5.296.505c.216-1.936 1.272-3.093 2.915-3.208 1.347-.094 2.29.625 2.413 2.376l-.032.327zm8.59-3.334l6.545-.458.052-1.573-.121-.181-6.572.459-.108-1.941c-.083-1.564.511-2.363 1.696-2.446.566-.04 1.166.027 1.971.322l.18-.148.045-2.06a9.696 9.696 0 00-2.118-.096c-2.963.208-4.597 2-4.355 5.069l.13 1.479-1.831.128-.024 1.599.119.154 1.859-.13.43 5.383.204 5.236 2.747-.192-.571-5.454-.278-5.15zm10.114 7.873c-1.104.077-1.619-.32-1.686-1.669l-.338-6.77 3.474-.243.026-1.571-.121-.181-3.448.241-.132-2.67-.258-.199-2.36 1.085.138 1.966-1.643.115-.024 1.599.119.154 1.697-.119.394 5.251.028 1.946c.148 2.128 1.168 3.167 3.428 3.36.937-.146 1.754-.474 2.691-1l.149-1.742-.283-.17c-.702.401-1.285.577-1.851.617zm19.398-12.237l-.254-.144a28.72 28.72 0 01-3.92 1.221c-.721-.247-1.54-.353-2.51-.285-3.043.213-4.924 1.968-4.73 4.743.109 1.562.841 2.729 2.1 3.317l.009.135a5.968 5.968 0 00-1.609 1.763c.089 1.266.967 1.827 2.125 2.125l.009.135c-.874.657-1.664 1.361-2.164 2.344.145 2.074 1.895 3.494 5.02 3.276 3.394-.238 5.824-2.248 5.657-4.645-.288-4.121-8.088-1.871-8.222-3.783-.021-.296.097-.548.503-.928.52.072 1.062.088 1.655.046 3.151-.22 4.972-2.052 4.787-4.692-.054-.781-.265-1.47-.657-2.038l.047-.112c.798-.191 1.57-.38 2.28-.673l-.126-1.805zm-6.346 7.562c-1.616.113-2.542-.742-2.653-2.332-.113-1.616.743-2.542 2.412-2.658 1.643-.115 2.512.69 2.619 2.226.115 1.643-.735 2.649-2.378 2.764zm3.744 7.1c.081 1.159-1.238 2.036-3.123 2.167-1.832.128-2.798-.535-2.864-1.477-.053-.755.521-1.444 1.577-2.222 2.123.177 4.31.105 4.41 1.532zm13.832-8.599l.428-.463c.031-.327.04-.977.014-1.354-.208-2.963-1.977-4.653-4.859-4.451-3.609.252-5.781 2.867-5.498 6.907.275 3.932 2.601 6.233 6.318 5.973 1.292-.091 2.588-.533 3.706-1.18l.171-2.204-.254-.144c-1.161.812-2.452 1.308-3.557 1.385-2.37.166-3.609-1.291-3.849-3.953l7.38-.516zm-2.065-1.669l-5.297.505c.217-1.936 1.273-3.093 2.916-3.208 1.346-.094 2.29.625 2.412 2.376l-.031.327zm14.428.805l.427-.463c.032-.327.04-.977.014-1.354-.207-2.963-1.976-4.653-4.858-4.452-3.609.253-5.781 2.868-5.499 6.908.275 3.932 2.601 6.233 6.318 5.973 1.293-.091 2.588-.533 3.707-1.18l.17-2.204-.253-.145c-1.161.812-2.453 1.309-3.557 1.386-2.371.166-3.609-1.291-3.849-3.953l7.38-.516zm-2.066-1.669l-5.296.505c.216-1.937 1.272-3.093 2.915-3.208 1.347-.094 2.29.625 2.412 2.376l-.031.327zm13.452 6.99l2.775-.194-.515-5.432-.164-3.507c-.135-2.318-1.655-3.538-4.429-3.344-1.055.399-2.168 1.126-3.18 2.144l-.188.013-.099-1.806-2.596.425.626 7.02.202 5.21 2.747-.192-.542-5.43-.203-3.288c.979-1.097 2.042-1.766 3.12-1.842 1.292-.09 1.997.7 2.064 2.048l.382 8.175zm21.257-14.451l-.254-.144a28.72 28.72 0 01-3.92 1.221c-.721-.247-1.54-.353-2.51-.285-3.044.213-4.924 1.968-4.73 4.743.109 1.562.84 2.729 2.1 3.317l.009.135a5.968 5.968 0 00-1.609 1.763c.089 1.266.967 1.827 2.124 2.125l.01.135c-.875.657-1.664 1.362-2.164 2.344.145 2.074 1.895 3.494 5.02 3.276 3.393-.238 5.824-2.248 5.657-4.645-.289-4.121-8.089-1.871-8.222-3.783-.021-.296.097-.548.503-.928a7.882 7.882 0 001.654.046c3.152-.22 4.972-2.052 4.788-4.692-.055-.781-.265-1.47-.657-2.038l.047-.111c.798-.192 1.57-.381 2.28-.674l-.126-1.805zm-6.346 7.562c-1.616.113-2.542-.742-2.653-2.332-.113-1.616.742-2.541 2.412-2.658 1.643-.115 2.512.69 2.619 2.226.115 1.643-.735 2.649-2.378 2.764zm3.744 7.1c.081 1.159-1.238 2.036-3.123 2.167-1.832.128-2.799-.535-2.864-1.477-.053-.755.521-1.444 1.576-2.222 2.124.177 4.311.105 4.411 1.532zm13.832-8.599l.428-.463c.031-.327.04-.977.013-1.354-.207-2.963-1.976-4.653-4.858-4.451-3.609.252-5.781 2.867-5.499 6.907.275 3.932 2.601 6.233 6.318 5.973 1.293-.09 2.588-.533 3.707-1.179l.171-2.205-.254-.144c-1.161.812-2.453 1.308-3.557 1.385-2.37.166-3.609-1.29-3.849-3.953l7.38-.516zm-2.065-1.669l-5.297.505c.216-1.936 1.272-3.093 2.915-3.208 1.347-.094 2.291.625 2.413 2.376l-.031.327zm8.116 1.868l-.724-13.455-2.733.408 1.103 13.456.177 5.238 2.747-.192-.57-5.455zm13.868-.969l-.724-13.455-2.732.407.492 6.272a11.436 11.436 0 00-2.115-.068c-3.798.265-5.953 2.743-5.663 6.891.279 3.986 2.409 6.192 6.018 5.94 1.044-.56 1.708-1.121 2.671-2.054l.216-.015c.262 1.037.986 1.717 2.125 1.746a4.374 4.374 0 001.682-.713l.137-1.526-.255-.171a3.912 3.912 0 01-.828.166c-.512.036-.688-.168-.762-.84l-.262-2.58zm-5.217-4.94c.781-.055 1.55.108 2.44.452l.424 4.896.068 1.755c-.894 1.145-1.706 1.526-2.541 1.585-1.886.132-3.124-1.325-3.353-4.205-.255-2.878.942-4.342 2.962-4.483zm18.428 7.427c-1.104.077-1.619-.32-1.686-1.669l-.338-6.77 3.474-.242.026-1.572-.121-.181-3.448.241-.132-2.67-.258-.199-2.36 1.085.138 1.967-1.643.114-.024 1.599.119.154 1.697-.119.394 5.251.028 1.947c.149 2.127 1.169 3.166 3.429 3.36.937-.147 1.753-.475 2.69-1l.149-1.743-.282-.17c-.703.401-1.286.577-1.852.617zm12.769-4.925l.428-.463c.031-.327.039-.978.013-1.355-.207-2.962-1.976-4.652-4.858-4.451-3.609.253-5.781 2.867-5.499 6.908.275 3.932 2.601 6.232 6.318 5.972 1.293-.09 2.588-.532 3.707-1.179l.171-2.204-.254-.145c-1.161.812-2.453 1.308-3.557 1.386-2.37.165-3.609-1.291-3.849-3.954l7.38-.515zm-2.066-1.67l-5.296.506c.216-1.937 1.272-3.093 2.915-3.208 1.347-.094 2.29.625 2.413 2.376l-.032.326zM34.61 258.041l-.724-13.456-2.732.408 1.076 13.458.203 5.236 2.748-.192-.571-5.454zm7.137-7.482l-2.99.209-.59 1.232-3.24 4.773.014.189c1.587 2.19 3.33 4.287 5.151 6.325l.33.085c.828-.166 1.658-.305 2.478-.579l-.023-.323c-1.784-1.905-3.63-3.914-5.287-5.937l4.157-5.974zm8.581-.627c-1.077.075-2.329.758-3.222 2.688l-.189.013-.146-2.48-2.596.425.653 7.019.175 5.211 2.747-.192-.569-5.427-.097-1.78c.813-1.924 1.703-2.744 2.807-2.821a3.75 3.75 0 011.006.065l.29-.102-.182-2.612a5.225 5.225 0 00-.677-.007zm3.827-6.06c-.97.068-1.52.729-1.453 1.672.066.942.644 1.47 1.587 1.404.915-.064 1.465-.725 1.397-1.694-.064-.916-.615-1.446-1.531-1.382zm1.97 12.692l-.276-7.045-2.73.434.625 7.021.202 5.209 2.747-.192-.569-5.427zm4.847-13.168c-.97.067-1.519.728-1.453 1.671.066.943.644 1.471 1.587 1.405.916-.064 1.465-.725 1.397-1.695-.064-.915-.615-1.445-1.53-1.381zm2.129 5.67l-.085-.048-2.551.286-2.478.174-.025 1.571.201.176 2.37-.166.487 5.406.302 4.716c.145 2.074-.424 3.223-2.184 4.375l.02.296 1.082 1.142c2.811-1.604 3.831-3.272 3.633-6.1l-.473-4.839-.3-6.989zm15.383-1.562l-.254-.145a28.634 28.634 0 01-3.92 1.221c-.721-.247-1.54-.352-2.51-.284-3.044.212-4.924 1.968-4.73 4.742.11 1.562.84 2.729 2.1 3.318l.009.134a5.95 5.95 0 00-1.61 1.764c.09 1.266.968 1.827 2.125 2.125l.01.134c-.875.657-1.664 1.362-2.164 2.344.145 2.074 1.895 3.494 5.02 3.276 3.393-.237 5.824-2.248 5.656-4.645-.288-4.121-8.088-1.87-8.221-3.783-.021-.296.097-.548.503-.928a7.95 7.95 0 001.654.047c3.152-.221 4.972-2.053 4.788-4.692-.055-.782-.265-1.471-.657-2.039l.046-.111c.799-.191 1.57-.381 2.281-.674l-.126-1.804zm-6.346 7.562c-1.616.112-2.542-.743-2.653-2.332-.113-1.616.742-2.542 2.412-2.659 1.643-.115 2.511.691 2.619 2.226.115 1.643-.735 2.65-2.378 2.765zm3.744 7.1c.08 1.158-1.238 2.035-3.124 2.167-1.831.128-2.798-.535-2.864-1.478-.052-.754.522-1.444 1.577-2.221 2.124.176 4.311.104 4.41 1.532zm13.832-8.6l.428-.463c.03-.327.04-.977.013-1.354-.207-2.963-1.976-4.652-4.858-4.451-3.61.252-5.781 2.867-5.499 6.907.275 3.933 2.601 6.233 6.318 5.973 1.293-.09 2.588-.533 3.707-1.179l.17-2.204-.253-.145c-1.161.812-2.453 1.308-3.557 1.385-2.37.166-3.609-1.29-3.85-3.953l7.38-.516zm-2.066-1.669l-5.296.506c.216-1.937 1.272-3.093 2.915-3.208 1.347-.094 2.29.625 2.413 2.375l-.032.327zm13.453 6.99l2.774-.194-.515-5.431-.164-3.507c-.135-2.318-1.655-3.538-4.43-3.344-1.054.398-2.167 1.125-3.178 2.143l-.189.014-.1-1.807-2.595.425.626 7.021.202 5.209 2.747-.192-.541-5.429-.203-3.288c.979-1.097 2.041-1.767 3.119-1.842 1.293-.09 1.997.699 2.065 2.048l.382 8.174zm11.447-11.518l-.478-1.807-2.523.312 4.554 12.104 2.963-.207 3.523-12.723-2.425.169-.326 1.918-2.195 8.083-.189.014-2.904-7.863zm14.539-3.019c-3.717.26-5.623 2.802-5.326 7.057.279 3.987 2.403 6.112 5.878 5.869 3.716-.26 5.623-2.802 5.325-7.058-.278-3.986-2.403-6.111-5.877-5.868zm-.028 1.923c2.02-.141 3.153 1.35 3.39 4.744.198 2.828-.734 4.219-2.754 4.36-2.047.143-3.178-1.32-3.417-4.741-.194-2.774.734-4.22 2.781-4.363zm13.285-2.85c-3.717.26-5.624 2.802-5.326 7.058.278 3.986 2.403 6.111 5.877 5.868 3.717-.26 5.624-2.802 5.326-7.057-.279-3.987-2.403-6.112-5.877-5.869zm-.028 1.924c2.02-.141 3.152 1.349 3.39 4.743.197 2.828-.734 4.219-2.754 4.361-2.047.143-3.178-1.321-3.417-4.742-.194-2.774.734-4.219 2.781-4.362zm14.619-2.727c-1.077.075-2.329.758-3.222 2.688l-.189.013-.146-2.48-2.596.425.653 7.019.175 5.211 2.747-.192-.568-5.427-.098-1.78c.813-1.924 1.703-2.744 2.807-2.821a3.748 3.748 0 011.006.065l.291-.102-.183-2.613a5.413 5.413 0 00-.677-.006zm17.273 5.802l-.724-13.455-2.732.408.492 6.271a11.447 11.447 0 00-2.116-.068c-3.798.265-5.952 2.744-5.662 6.891.279 3.987 2.409 6.193 6.018 5.94 1.043-.56 1.708-1.121 2.671-2.054l.216-.015c.262 1.037.986 1.717 2.125 1.746a4.38 4.38 0 001.682-.713l.137-1.525-.256-.172a3.905 3.905 0 01-.827.166c-.512.036-.689-.168-.763-.84l-.261-2.58zm-5.217-4.94c.781-.055 1.55.108 2.44.452l.424 4.896.068 1.755c-.894 1.145-1.707 1.527-2.542 1.585-1.885.132-3.124-1.324-3.352-4.204-.255-2.879.942-4.343 2.962-4.484zm10.078-8.202c-.97.068-1.519.729-1.453 1.672.066.942.644 1.47 1.586 1.405.916-.064 1.465-.725 1.398-1.695-.064-.916-.616-1.446-1.531-1.382zm1.969 12.692l-.275-7.045-2.731.434.626 7.021.202 5.21 2.747-.193-.569-5.427zm8.669 2.777c-1.104.077-1.619-.32-1.686-1.668l-.338-6.77 3.475-.243.025-1.572-.121-.181-3.447.241-.133-2.67-.257-.198-2.361 1.085.138 1.966-1.643.115-.024 1.598.119.154 1.697-.118.394 5.25.028 1.947c.149 2.128 1.169 3.166 3.429 3.36.937-.147 1.753-.474 2.691-1l.148-1.743-.282-.169c-.703.401-1.286.577-1.852.616zm9.476-9.377l-.392-1.732-2.495.309 4.231 12.128 2.693-.188 2.041-9.129.216-.015 2.914 8.782 2.613-.182 3.118-12.696-2.343.164-.305 1.835-1.747 7.917-.162.011-2.544-7.752-.413-1.649-2.64.184-.332 1.837-1.747 7.917-.188.013-2.518-7.754zm26.019 2.863l.427-.463c.032-.327.04-.977.014-1.354-.207-2.963-1.976-4.652-4.858-4.451-3.609.252-5.781 2.867-5.499 6.907.275 3.933 2.601 6.233 6.318 5.973 1.293-.09 2.588-.533 3.707-1.179l.17-2.204-.253-.145c-1.161.812-2.453 1.308-3.557 1.385-2.371.166-3.609-1.29-3.849-3.953l7.38-.516zm-2.066-1.669l-5.296.506c.216-1.937 1.272-3.093 2.915-3.208 1.347-.094 2.29.625 2.413 2.375l-.032.327zm11.209-5.357c-1.077.075-2.329.758-3.223 2.688l-.188.013-.146-2.48-2.596.425.653 7.019.175 5.211 2.747-.192-.569-5.427-.097-1.78c.813-1.924 1.703-2.744 2.807-2.821a3.753 3.753 0 011.006.065l.291-.102-.183-2.613a5.415 5.415 0 00-.677-.006zm5.824 6.603l-.724-13.456-2.732.408 1.076 13.458.203 5.236 2.748-.192-.571-5.454zm7.137-7.482l-2.99.209-.591 1.232-3.239 4.773.013.189c1.588 2.19 3.331 4.287 5.152 6.325l.331.085c.827-.166 1.657-.305 2.476-.579l-.022-.323c-1.784-1.905-3.63-3.915-5.287-5.937l4.157-5.974zm4.265 9.256c-.97.068-1.519.728-1.453 1.671.066.943.644 1.471 1.587 1.405.915-.064 1.465-.725 1.397-1.695-.064-.915-.616-1.445-1.531-1.381zm19.313-13.773l-.143-2.047-1.453.128-10.641.717-.055 2.304.173.151 2.759-.41 6.114-.427-8.346 13.791.141 2.021 1.745-.204 7.272-.508 3.478-.189.083-2.306-.146-.153-2.705.406-6.572.459 8.296-13.733zm4.27-3.249c-.97.068-1.519.729-1.453 1.671.065.943.644 1.471 1.586 1.405.916-.064 1.465-.725 1.398-1.694-.064-.916-.616-1.446-1.531-1.382zm1.969 12.691l-.276-7.044-2.73.434.626 7.02.202 5.21 2.747-.192-.569-5.428zm4.848-13.168c-.97.068-1.519.729-1.453 1.672.066.942.644 1.47 1.587 1.405.916-.064 1.465-.725 1.397-1.695-.064-.916-.615-1.446-1.531-1.382zm2.129 5.671l-.085-.048-2.551.286-2.478.173-.026 1.572.202.175 2.37-.165.487 5.406.302 4.715c.145 2.074-.424 3.224-2.184 4.375l.021.296 1.081 1.143c2.811-1.604 3.831-3.272 3.633-6.1l-.473-4.839-.299-6.989zm12.433 11.608l2.774-.194-.515-5.431-.164-3.507c-.135-2.319-1.655-3.539-4.429-3.345-1.055.399-2.168 1.126-3.179 2.144l-.189.013-.099-1.806-2.595.425.626 7.02.201 5.21 2.748-.192-.542-5.429-.203-3.288c.979-1.097 2.042-1.767 3.119-1.842 1.293-.091 1.998.699 2.065 2.048l.382 8.174zM43.101 288.903l.427-.463c.032-.327.04-.977.014-1.355-.207-2.962-1.976-4.652-4.858-4.451-3.61.253-5.781 2.868-5.499 6.908.275 3.932 2.601 6.232 6.318 5.973 1.293-.091 2.588-.533 3.707-1.18l.17-2.204-.253-.145c-1.162.812-2.453 1.309-3.557 1.386-2.37.165-3.61-1.291-3.85-3.953l7.38-.516zm-2.066-1.669l-5.296.505c.216-1.937 1.272-3.093 2.915-3.208 1.347-.094 2.29.625 2.412 2.376l-.03.327zm13.452 6.99l2.775-.194-.515-5.432-.164-3.507c-.135-2.318-1.655-3.538-4.43-3.344-1.054.398-2.167 1.126-3.179 2.144l-.188.013-.1-1.806-2.595.425.626 7.02.202 5.21 2.747-.192-.542-5.43-.203-3.288c.98-1.097 2.042-1.766 3.12-1.842 1.292-.09 1.997.7 2.064 2.048l.382 8.175zm6.634-18.761c-.97.068-1.52.729-1.453 1.672.066.942.644 1.47 1.587 1.405.915-.064 1.464-.725 1.397-1.695-.064-.916-.616-1.446-1.531-1.382zm1.97 12.692l-.276-7.045-2.73.434.625 7.021.202 5.21 2.747-.193-.569-5.427zm14.941-8.542l-.253-.144a28.768 28.768 0 01-3.92 1.221c-.722-.247-1.541-.353-2.51-.285-3.044.213-4.924 1.968-4.73 4.743.109 1.562.84 2.729 2.099 3.317l.01.135a5.96 5.96 0 00-1.61 1.763c.089 1.266.967 1.827 2.125 2.125l.01.135c-.875.657-1.665 1.361-2.165 2.344.145 2.074 1.896 3.494 5.02 3.276 3.394-.238 5.824-2.248 5.657-4.645-.288-4.121-8.088-1.871-8.222-3.783-.02-.296.097-.548.504-.928.519.072 1.061.088 1.654.046 3.151-.22 4.972-2.052 4.787-4.692-.054-.781-.265-1.47-.656-2.038l.046-.112c.799-.191 1.57-.38 2.28-.673l-.126-1.805zm-6.346 7.562c-1.616.113-2.542-.742-2.653-2.332-.113-1.616.743-2.541 2.413-2.658 1.643-.115 2.51.69 2.618 2.226.115 1.643-.735 2.649-2.378 2.764zm3.744 7.1c.081 1.159-1.238 2.036-3.123 2.167-1.832.128-2.798-.535-2.864-1.477-.053-.755.522-1.444 1.577-2.222 2.123.177 4.31.105 4.41 1.532zm13.832-8.599l.428-.463c.031-.327.04-.977.014-1.354-.207-2.963-1.976-4.653-4.858-4.451-3.61.252-5.782 2.867-5.5 6.907.276 3.932 2.602 6.233 6.319 5.973 1.293-.091 2.588-.533 3.706-1.179l.171-2.205-.254-.144c-1.16.812-2.452 1.308-3.557 1.385-2.37.166-3.608-1.291-3.849-3.953l7.38-.516zm-2.065-1.669l-5.297.505c.217-1.936 1.273-3.093 2.916-3.208 1.346-.094 2.29.625 2.412 2.376l-.031.327zm10.906-3.55l-.478-1.807-2.522.311 4.554 12.105 2.963-.207 3.522-12.723-2.424.169-.326 1.917-2.196 8.084-.189.013-2.904-7.862zm14.539-3.019c-3.717.259-5.623 2.801-5.326 7.057.279 3.986 2.403 6.111 5.878 5.869 3.717-.26 5.623-2.802 5.326-7.058-.279-3.986-2.403-6.111-5.878-5.868zm-.028 1.923c2.02-.141 3.153 1.35 3.39 4.743.198 2.828-.733 4.22-2.753 4.361-2.047.143-3.178-1.321-3.417-4.741-.194-2.775.733-4.22 2.78-4.363zm13.285-2.85c-3.717.26-5.623 2.802-5.326 7.057.279 3.987 2.403 6.112 5.878 5.869 3.716-.26 5.623-2.802 5.325-7.058-.278-3.986-2.403-6.111-5.877-5.868zm-.028 1.924c2.02-.142 3.153 1.349 3.39 4.743.198 2.828-.734 4.219-2.754 4.36-2.047.143-3.178-1.32-3.417-4.741-.194-2.774.734-4.219 2.781-4.362zm14.619-2.728c-1.077.076-2.328.759-3.222 2.689l-.188.013-.147-2.48-2.595.425.653 7.019.174 5.211 2.748-.192-.569-5.427-.098-1.78c.813-1.924 1.703-2.744 2.808-2.822a3.794 3.794 0 011.006.065l.29-.101-.182-2.613a5.24 5.24 0 00-.678-.007zm4.451 1.395l-.392-1.732-2.496.309 4.231 12.128 2.694-.188 2.041-9.129.216-.015 2.914 8.782 2.613-.183 3.118-12.695-2.343.164-.305 1.835-1.747 7.917-.162.011-2.545-7.752-.413-1.65-2.639.185-.332 1.837-1.747 7.917-.189.013-2.517-7.754zm21.008-3.391c-1.643.115-3.273.798-4.735 1.955l.483 1.888.225.12c1.372-1.287 2.519-1.909 3.731-1.993 1.239-.087 1.987.538 2.081 1.884l.075 1.457-4.19 1.24c-1.644.494-2.522 1.475-2.404 3.172.151 2.155 1.726 3.398 4.233 3.25.996-.476 1.862-1.24 2.66-2.216l.189-.013c.215 1.149.993 1.825 2.105 1.855a4.401 4.401 0 001.656-.711l.164-1.527-.256-.171c-.398.109-.612.151-.8.164-.566.039-.797-.161-.846-.861-.064-.916-.057-5.464-.123-6.406-.148-2.128-1.797-3.258-4.248-3.087zm1.971 6.9l.064 2.079c-.817 1.086-1.636 1.766-2.579 1.832-.996.069-1.686-.505-1.763-1.609-.051-.728.198-1.043.835-1.223l3.443-1.079zm10.681-7.784c-1.643.115-3.274.797-4.736 1.955l.484 1.888.225.119c1.372-1.286 2.519-1.908 3.731-1.993 1.239-.086 1.987.538 2.081 1.885l.074 1.456-4.189 1.24c-1.644.494-2.523 1.476-2.404 3.173.151 2.154 1.726 3.398 4.233 3.249.995-.475 1.862-1.239 2.66-2.215l.188-.014c.216 1.149.994 1.826 2.106 1.856a4.397 4.397 0 001.655-.711l.164-1.527-.255-.172c-.399.109-.612.151-.801.164-.565.04-.796-.16-.845-.861-.064-.916-.057-5.463-.123-6.406-.149-2.128-1.797-3.257-4.248-3.086zm1.971 6.899l.064 2.08c-.818 1.086-1.636 1.765-2.579 1.831-.996.07-1.686-.504-1.763-1.609-.051-.727.197-1.042.834-1.222l3.444-1.08zm12.419-7.688c-1.077.075-2.329.758-3.222 2.688l-.189.013-.146-2.48-2.596.425.653 7.019.175 5.211 2.747-.192-.568-5.427-.098-1.78c.813-1.924 1.703-2.744 2.807-2.822a3.833 3.833 0 011.006.065l.291-.101-.183-2.613a5.228 5.228 0 00-.677-.006zm12.749 6.118l-.724-13.455-2.732.408.492 6.272a11.362 11.362 0 00-2.116-.069c-3.798.265-5.952 2.744-5.662 6.892.279 3.986 2.409 6.192 6.018 5.939 1.043-.56 1.708-1.12 2.671-2.054l.216-.015c.262 1.037.986 1.718 2.124 1.746a4.378 4.378 0 001.683-.713l.137-1.525-.256-.172a3.905 3.905 0 01-.827.166c-.512.036-.689-.168-.763-.839l-.261-2.581zm-5.217-4.94c.781-.054 1.55.108 2.44.452l.424 4.897.068 1.754c-.894 1.145-1.707 1.527-2.542 1.585-1.885.132-3.124-1.324-3.352-4.204-.255-2.879.942-4.343 2.962-4.484zm18.44 3.394l.427-.463c.032-.327.04-.977.014-1.355-.207-2.962-1.976-4.652-4.858-4.451-3.61.253-5.781 2.868-5.499 6.908.275 3.932 2.601 6.232 6.318 5.973 1.293-.091 2.588-.533 3.707-1.18l.17-2.204-.253-.145c-1.162.812-2.453 1.309-3.557 1.386-2.371.165-3.609-1.291-3.849-3.953l7.38-.516zm-2.066-1.669l-5.297.505c.217-1.937 1.273-3.093 2.916-3.208 1.347-.094 2.29.625 2.412 2.376l-.031.327zm10.406-11.094c-.97.068-1.519.729-1.453 1.671.066.943.644 1.471 1.587 1.405.916-.064 1.465-.725 1.397-1.694-.064-.916-.615-1.446-1.531-1.382zm1.97 12.692l-.276-7.045-2.73.434.626 7.021.201 5.209 2.748-.192-.569-5.427zm7.284-7.736c-2.855.199-4.412 1.932-4.263 4.06.273 3.905 5.813 3.004 5.973 5.293.056.808-.59 1.638-1.802 1.723-.996.07-2.406-.346-3.549-1.213l-.283.209-.163 2.312c1.277.452 2.644.654 3.829.571 3.097-.216 4.526-2.238 4.387-4.231-.266-3.798-5.807-2.923-5.965-5.186-.055-.781.542-1.526 1.647-1.603.835-.059 1.798.172 2.813.75l.344-.105.227-2.181a8.545 8.545 0 00-3.195-.399zm15.57-1.116c-3.717.26-5.623 2.802-5.326 7.058.279 3.986 2.403 6.111 5.878 5.868 3.717-.259 5.623-2.802 5.326-7.057-.279-3.986-2.403-6.112-5.878-5.869zm-.028 1.924c2.02-.141 3.153 1.349 3.39 4.743.198 2.828-.734 4.22-2.754 4.361-2.047.143-3.177-1.321-3.417-4.742-.193-2.774.734-4.219 2.781-4.362zm24.458 9.09l2.775-.194-.515-5.432-.164-3.507c-.135-2.318-1.655-3.538-4.429-3.344-1.134.431-2.353 1.193-3.414 2.269l-.162.011c-.629-1.255-2-1.89-4.02-1.749-1.081.4-2.167 1.126-3.179 2.144l-.188.013-.1-1.807-2.595.426.626 7.02.201 5.21 2.721-.191-.515-5.431-.203-3.288c.979-1.097 2.042-1.766 3.119-1.842 1.293-.09 1.998.7 2.065 2.048l.382 8.175 2.747-.193-.488-5.433-.179-3.343c.98-1.07 1.991-1.709 3.069-1.785 1.293-.09 1.997.7 2.065 2.048l.381 8.175zm-230.81 35.68l-2.595.425.612 8.754c-.88.954-1.87 1.511-2.84 1.579-1.266.088-1.942-.677-2.007-1.998l-.442-8.252-2.703.433.484 5.379.182 3.371c.135 2.318 1.681 3.536 4.402 3.346 1.056-.372 2.09-1.066 3.1-2.111l.216-.015c.29 1.062.988 1.744 2.127 1.773a4.251 4.251 0 001.655-.711l.164-1.528-.256-.171a3.907 3.907 0 01-.827.166c-.539.038-.742-.165-.79-.838l-.481-9.602zm5.085-6.12c-.97.067-1.52.728-1.453 1.671.066.943.644 1.471 1.587 1.405.915-.064 1.465-.725 1.397-1.695-.064-.915-.615-1.445-1.531-1.381zm1.97 12.691l-.276-7.045-2.73.435.625 7.02.202 5.21 2.748-.192-.57-5.428zm8.669 2.777c-1.105.078-1.62-.319-1.687-1.668l-.338-6.77 3.475-.243.025-1.571-.12-.181-3.448.241-.133-2.671-.257-.198-2.36 1.085.137 1.966-1.643.115-.023 1.599.119.154 1.696-.119.394 5.25.028 1.947c.149 2.128 1.169 3.166 3.429 3.36.937-.146 1.753-.474 2.69-1l.15-1.742-.283-.17c-.703.401-1.286.577-1.852.616zm9.856-11.217c-1.21.49-2.011 1.034-3.102 2.084l-.161.012-.467-8.223-2.732.408 1.107 13.509.176 5.239.45.239 1.648-.819a6.696 6.696 0 002.79.427c3.717-.259 5.837-2.843 5.529-7.261-.26-3.717-2.06-5.837-5.238-5.615zm-.314 10.984c-.728.05-1.526-.137-2.368-.566l-.299-3.118-.172-3.236c.998-1.207 1.907-1.758 2.85-1.824 1.75-.122 2.772 1.322 3.008 3.931.248 3.15-1 4.671-3.02 4.813zm17.482-5.688l.428-.463c.031-.327.04-.978.014-1.355-.207-2.962-1.977-4.652-4.859-4.451-3.609.253-5.78 2.867-5.498 6.908.275 3.932 2.6 6.232 6.318 5.973 1.292-.091 2.588-.533 3.706-1.18l.171-2.204-.254-.145c-1.16.812-2.452 1.309-3.557 1.386-2.37.165-3.608-1.291-3.849-3.954l7.38-.515zm-2.065-1.669l-5.297.505c.217-1.937 1.273-3.093 2.916-3.208 1.346-.094 2.29.625 2.412 2.376l-.031.327zm10.129 5.138c-1.105.077-1.62-.32-1.687-1.669l-.338-6.77 3.475-.242.025-1.572-.12-.181-3.448.241-.133-2.67-.257-.199-2.36 1.085.137 1.967-1.643.114-.023 1.599.119.154 1.697-.119.394 5.251.027 1.946c.15 2.128 1.17 3.167 3.43 3.361.936-.147 1.752-.475 2.69-1.001l.149-1.742-.283-.17c-.703.401-1.286.577-1.851.617zm8.152-11.207c-1.643.115-3.273.797-4.735 1.955l.484 1.888.225.119c1.371-1.286 2.519-1.908 3.731-1.993 1.239-.086 1.986.538 2.08 1.885l.075 1.456-4.19 1.24c-1.643.494-2.522 1.476-2.403 3.173.15 2.154 1.726 3.398 4.233 3.249.995-.475 1.862-1.239 2.659-2.215l.189-.014c.216 1.149.994 1.826 2.106 1.856a4.404 4.404 0 001.655-.711l.164-1.527-.256-.172c-.398.109-.612.151-.8.164-.566.04-.796-.16-.845-.861-.064-.915-.057-5.463-.123-6.406-.149-2.128-1.798-3.257-4.249-3.086zm1.971 6.899l.064 2.08c-.817 1.086-1.636 1.765-2.578 1.831-.997.07-1.687-.504-1.764-1.609-.051-.727.198-1.042.835-1.222l3.443-1.08zm10.681-7.783c-1.643.114-3.274.797-4.735 1.955l.483 1.887.225.12c1.372-1.287 2.519-1.908 3.731-1.993 1.239-.087 1.987.538 2.081 1.885l.075 1.456-4.19 1.24c-1.644.494-2.522 1.476-2.404 3.172.151 2.155 1.726 3.398 4.233 3.25.996-.475 1.862-1.24 2.66-2.216l.189-.013c.215 1.149.993 1.825 2.105 1.856a4.401 4.401 0 001.656-.711l.164-1.528-.256-.171c-.398.109-.612.151-.8.164-.566.04-.797-.161-.846-.861-.064-.916-.057-5.463-.123-6.406-.148-2.128-1.797-3.258-4.248-3.086zm1.971 6.899l.064 2.08c-.817 1.085-1.636 1.765-2.579 1.831-.996.07-1.686-.505-1.763-1.609-.051-.727.198-1.042.835-1.222l3.443-1.08zm9.406-.468l-.724-13.455-2.733.407 1.103 13.456.177 5.238 2.747-.192-.57-5.454zm13.868-.969l-.724-13.456-2.732.408.493 6.272a11.365 11.365 0 00-2.116-.069c-3.798.266-5.953 2.744-5.663 6.892.279 3.986 2.409 6.192 6.018 5.94 1.044-.561 1.708-1.121 2.672-2.055l.215-.015c.262 1.037.986 1.718 2.125 1.746a4.374 4.374 0 001.682-.713l.137-1.525-.255-.172a3.849 3.849 0 01-.828.166c-.512.036-.688-.168-.762-.839l-.262-2.58zm-5.217-4.941c.781-.054 1.55.108 2.441.452l.423 4.897.069 1.754c-.895 1.145-1.707 1.527-2.542 1.585-1.886.132-3.124-1.324-3.352-4.204-.256-2.878.941-4.342 2.961-4.484zm18.428 7.427c-1.104.078-1.619-.32-1.686-1.668l-.338-6.77 3.475-.243.025-1.571-.121-.182-3.447.241-.133-2.67-.257-.198-2.361 1.085.138 1.966-1.643.115-.024 1.598.119.155 1.697-.119.394 5.25.028 1.947c.149 2.128 1.169 3.166 3.429 3.36.937-.147 1.753-.474 2.691-1l.148-1.743-.282-.169c-.703.401-1.286.577-1.852.616zm12.769-4.925l.428-.463c.031-.327.04-.977.013-1.354-.207-2.963-1.976-4.653-4.858-4.451-3.609.252-5.781 2.867-5.499 6.907.275 3.932 2.601 6.233 6.318 5.973 1.293-.09 2.588-.533 3.707-1.179l.171-2.205-.254-.144c-1.161.812-2.453 1.308-3.557 1.385-2.37.166-3.609-1.29-3.849-3.953l7.38-.516zm-2.066-1.669l-5.296.506c.216-1.937 1.272-3.094 2.915-3.209 1.347-.094 2.29.625 2.413 2.376l-.032.327zm10.793-3.623l-.391-1.732-2.496.309 4.231 12.128 2.693-.188 2.042-9.129.215-.015 2.915 8.782 2.612-.182 3.119-12.696-2.343.164-.305 1.835-1.747 7.917-.162.011-2.545-7.752-.413-1.65-2.639.185-.332 1.837-1.747 7.917-.189.013-2.518-7.754zm21.439-3.421c-3.717.26-5.623 2.802-5.326 7.058.279 3.986 2.403 6.111 5.878 5.868 3.716-.26 5.623-2.802 5.325-7.057-.278-3.987-2.403-6.112-5.877-5.869zm-.028 1.924c2.02-.141 3.153 1.349 3.39 4.743.198 2.828-.734 4.22-2.754 4.361-2.047.143-3.178-1.321-3.417-4.742-.194-2.774.734-4.219 2.781-4.362zm14.619-2.727c-1.077.075-2.328.758-3.222 2.688l-.189.013-.146-2.48-2.595.425.653 7.019.174 5.212 2.748-.193-.569-5.427-.098-1.78c.813-1.924 1.703-2.744 2.808-2.821a3.753 3.753 0 011.006.065l.29-.102-.182-2.612a5.24 5.24 0 00-.678-.007zm12.749 6.119l-.724-13.455-2.732.407.492 6.272a11.36 11.36 0 00-2.116-.069c-3.797.266-5.952 2.744-5.662 6.892.279 3.986 2.409 6.192 6.018 5.94 1.043-.56 1.708-1.121 2.671-2.055l.216-.015c.262 1.038.986 1.718 2.125 1.746a4.35 4.35 0 001.682-.713l.137-1.525-.256-.171a3.905 3.905 0 01-.827.166c-.512.035-.688-.169-.762-.84l-.262-2.58zm-5.217-4.94c.781-.055 1.55.108 2.44.451l.424 4.897.068 1.754c-.894 1.146-1.706 1.527-2.541 1.585-1.886.132-3.124-1.324-3.353-4.204-.255-2.878.942-4.342 2.962-4.483zm18.44 3.393l.427-.463c.032-.327.04-.977.014-1.354-.207-2.963-1.976-4.653-4.858-4.451-3.609.252-5.781 2.867-5.499 6.907.275 3.932 2.601 6.233 6.318 5.973 1.293-.09 2.588-.533 3.707-1.179l.17-2.205-.253-.144c-1.161.812-2.453 1.308-3.557 1.385-2.37.166-3.609-1.29-3.849-3.953l7.38-.516zm-2.066-1.669l-5.296.506c.216-1.937 1.272-3.094 2.915-3.209 1.347-.094 2.29.625 2.413 2.376l-.032.327zm13.452 6.99l2.775-.194-.515-5.431-.164-3.507c-.135-2.319-1.655-3.539-4.429-3.345-1.055.399-2.168 1.126-3.18 2.144l-.188.013-.099-1.806-2.596.425.626 7.02.202 5.21 2.747-.192-.542-5.43-.203-3.287c.979-1.097 2.042-1.767 3.12-1.842 1.292-.091 1.997.699 2.064 2.048l.382 8.174zm10.947-19.062c-.969.068-1.518.729-1.453 1.672.066.942.645 1.47 1.587 1.404.916-.064 1.465-.725 1.397-1.694-.064-.916-.615-1.446-1.531-1.382zm1.97 12.692l-.276-7.045-2.73.434.626 7.021.202 5.209 2.747-.192-.569-5.427zm11.992 4.629l2.775-.194-.515-5.431-.164-3.508c-.135-2.318-1.655-3.538-4.429-3.344-1.055.399-2.168 1.126-3.18 2.144l-.188.013-.099-1.806-2.596.425.626 7.02.202 5.21 2.747-.192-.542-5.43-.203-3.288c.979-1.096 2.042-1.766 3.12-1.842 1.292-.09 1.997.7 2.064 2.048l.382 8.175zM41.304 353.807l-.724-13.455-2.732.407 1.103 13.456.177 5.238 2.747-.192-.57-5.454zm13.098-1.538l.428-.463c.031-.327.04-.977.014-1.354-.208-2.963-1.977-4.653-4.859-4.451-3.609.252-5.78 2.867-5.498 6.907.274 3.932 2.6 6.233 6.317 5.973 1.293-.091 2.589-.533 3.707-1.18l.171-2.204-.254-.144c-1.16.811-2.452 1.308-3.557 1.385-2.37.166-3.608-1.291-3.849-3.953l7.38-.516zm-2.065-1.669l-5.297.505c.217-1.936 1.273-3.093 2.916-3.208 1.346-.094 2.29.625 2.412 2.376l-.031.327zm8.116 1.868l-.724-13.455-2.733.408 1.076 13.457.204 5.237 2.747-.192-.57-5.455zm7.136-7.481l-2.99.209-.59 1.232-3.239 4.773.013.189c1.588 2.189 3.331 4.287 5.152 6.325l.33.085c.828-.166 1.657-.305 2.477-.579l-.022-.323c-1.784-1.905-3.63-3.915-5.287-5.937l4.156-5.974zm5.568 6.593l-.724-13.455-2.732.408 1.076 13.457.204 5.237 2.747-.192-.57-5.455zm7.137-7.482l-2.99.209-.59 1.233-3.24 4.773.014.189c1.587 2.189 3.33 4.287 5.151 6.325l.331.085c.827-.166 1.657-.305 2.477-.579l-.023-.323c-1.784-1.906-3.63-3.915-5.287-5.937l4.157-5.975zm11.406 5.564l.428-.463c.03-.327.04-.977.013-1.355-.207-2.962-1.976-4.652-4.858-4.451-3.61.253-5.781 2.868-5.499 6.908.275 3.932 2.601 6.232 6.318 5.973 1.293-.091 2.588-.533 3.707-1.18l.17-2.204-.253-.145c-1.161.812-2.453 1.309-3.557 1.386-2.37.165-3.609-1.291-3.85-3.953l7.38-.516zm-2.066-1.669l-5.296.505c.216-1.937 1.272-3.093 2.915-3.208 1.347-.094 2.29.625 2.413 2.376l-.031.327zm11.209-5.358c-1.077.075-2.329.758-3.222 2.688l-.189.013-.146-2.479-2.596.425.653 7.018.175 5.212 2.747-.192-.569-5.428-.097-1.779c.813-1.925 1.703-2.745 2.807-2.822a3.79 3.79 0 011.006.065l.291-.102-.183-2.612a5.222 5.222 0 00-.677-.007zm11.978 5.55l.428-.463c.031-.327.04-.977.014-1.354-.208-2.963-1.977-4.652-4.859-4.451-3.609.252-5.781 2.867-5.498 6.907.274 3.933 2.601 6.233 6.317 5.973 1.293-.09 2.589-.533 3.707-1.179l.171-2.204-.254-.145c-1.161.812-2.452 1.308-3.557 1.385-2.37.166-3.609-1.29-3.849-3.953l7.38-.516zm-2.065-1.669l-5.297.506c.217-1.937 1.273-3.093 2.916-3.208 1.346-.094 2.29.625 2.412 2.375l-.031.327zm12.887 1.562l-.667-11.862-2.855.2 1.034 12.08.175 5.211 2.828-.197-.515-5.432zm8.922-12.532l-3.07.214-.915 1.634-4.956 6.924.011.161c2.402 2.999 4.983 5.85 7.613 8.616l.307.141a18.303 18.303 0 002.658-.7l.031-.327a103.063 103.063 0 01-7.736-8.066l6.057-8.597zm6.871 4.175c-3.717.26-5.623 2.802-5.326 7.057.279 3.987 2.403 6.112 5.878 5.869 3.717-.26 5.623-2.802 5.326-7.058-.279-3.986-2.403-6.111-5.878-5.868zm-.028 1.923c2.02-.141 3.153 1.35 3.39 4.744.198 2.828-.733 4.219-2.753 4.36-2.047.143-3.178-1.32-3.417-4.741-.194-2.774.733-4.22 2.78-4.363zm14.62-2.727c-1.078.076-2.329.759-3.223 2.689l-.188.013-.146-2.48-2.596.425.653 7.018.175 5.212 2.747-.192-.569-5.428-.097-1.779c.813-1.925 1.703-2.745 2.807-2.822a3.794 3.794 0 011.006.065l.291-.101-.183-2.613a5.226 5.226 0 00-.677-.007zm7.942 9.866c-1.104.077-1.619-.32-1.686-1.669l-.338-6.77 3.474-.243.026-1.571-.121-.181-3.448.241-.132-2.671-.258-.198-2.36 1.085.137 1.966-1.643.115-.023 1.599.119.154 1.697-.119.394 5.25.028 1.947c.148 2.128 1.168 3.166 3.428 3.36.937-.146 1.754-.474 2.691-1l.149-1.742-.283-.17c-.702.401-1.285.577-1.851.617zm9.891-11.112c-1.077.075-2.329.758-3.222 2.688l-.189.013-.146-2.48-2.596.425.653 7.019.175 5.211 2.747-.192-.568-5.427-.098-1.78c.813-1.924 1.703-2.744 2.807-2.821a3.748 3.748 0 011.006.065l.291-.102-.183-2.612a5.222 5.222 0 00-.677-.007zm3.827-6.06c-.97.068-1.519.729-1.453 1.672.066.942.644 1.47 1.587 1.404.915-.064 1.465-.725 1.397-1.694-.064-.916-.615-1.446-1.531-1.382zm1.97 12.692l-.276-7.045-2.731.434.626 7.021.202 5.209 2.747-.192-.568-5.427zm4.847-13.168c-.969.067-1.519.728-1.453 1.671.066.943.644 1.471 1.587 1.405.916-.064 1.465-.725 1.397-1.695-.064-.916-.615-1.445-1.531-1.381zm2.129 5.67l-.085-.048-2.551.286-2.478.174-.025 1.571.201.176 2.371-.166.486 5.406.302 4.715c.145 2.074-.424 3.224-2.184 4.375l.021.297 1.081 1.142c2.811-1.604 3.831-3.272 3.634-6.1l-.474-4.839-.299-6.989zm7.176 6.481l-.724-13.455-2.732.408 1.076 13.457.203 5.237 2.748-.192-.571-5.455zm7.137-7.482l-2.99.209-.591 1.233-3.239 4.773.013.189c1.588 2.189 3.332 4.287 5.152 6.325l.331.085c.827-.166 1.657-.305 2.476-.579l-.022-.323c-1.784-1.906-3.63-3.915-5.287-5.937l4.157-5.975zm6.117-.644c-2.855.2-4.412 1.933-4.263 4.061.273 3.905 5.812 3.004 5.972 5.293.057.808-.589 1.638-1.801 1.723-.997.069-2.406-.346-3.549-1.214l-.283.21-.164 2.312c1.277.452 2.645.654 3.83.571 3.097-.217 4.526-2.238 4.386-4.231-.265-3.798-5.807-2.923-5.965-5.186-.054-.781.543-1.527 1.647-1.604.835-.058 1.799.172 2.814.751l.344-.105.226-2.181a8.54 8.54 0 00-3.194-.4zm15.836 5.47l.428-.463c.031-.327.04-.977.014-1.354-.208-2.963-1.977-4.652-4.859-4.451-3.609.252-5.781 2.867-5.498 6.907.275 3.933 2.601 6.233 6.318 5.973 1.292-.09 2.588-.532 3.706-1.179l.171-2.204-.254-.145c-1.161.812-2.452 1.308-3.557 1.385-2.37.166-3.609-1.29-3.849-3.953l7.38-.516zm-2.065-1.669l-5.297.506c.217-1.937 1.273-3.093 2.916-3.208 1.346-.094 2.29.625 2.412 2.375l-.031.327zm10.793-3.623l-.392-1.732-2.496.31 4.231 12.127 2.694-.188 2.041-9.129.216-.015 2.914 8.783 2.613-.183 3.118-12.695-2.343.163-.305 1.835-1.747 7.917-.162.011-2.545-7.752-.413-1.649-2.639.184-.332 1.837-1.747 7.917-.189.013-2.517-7.754zm21.008-3.39c-1.643.115-3.274.797-4.735 1.955l.483 1.888.225.119c1.372-1.287 2.519-1.908 3.731-1.993 1.239-.086 1.987.538 2.081 1.885l.075 1.456-4.19 1.24c-1.644.494-2.522 1.476-2.404 3.172.151 2.155 1.726 3.398 4.233 3.25.995-.475 1.862-1.24 2.66-2.216l.189-.013c.215 1.149.993 1.825 2.105 1.856a4.401 4.401 0 001.656-.711l.164-1.527-.256-.172c-.398.109-.612.151-.801.164-.565.04-.796-.161-.845-.861-.064-.916-.057-5.463-.123-6.406-.148-2.128-1.797-3.258-4.248-3.086zm1.971 6.899l.064 2.08c-.817 1.085-1.636 1.765-2.579 1.831-.996.07-1.686-.505-1.763-1.609-.051-.727.198-1.042.835-1.222l3.443-1.08zm11.27-14.158c-3.098.216-4.785 2.012-4.544 5.081l.157 1.857-1.832.128-.023 1.598.119.154 1.858-.13.431 5.383.203 5.237 2.748-.192-.571-5.455-.279-5.15 3.125-.218.052-1.574-.094-.182-3.178.222-.135-2.319c-.083-1.564.592-2.369 1.858-2.457.619-.043 1.221.05 2.11.367l.177-.175.016-2.085a10.416 10.416 0 00-2.198-.09zm12.233 12.082l.428-.463c.031-.327.04-.977.014-1.354-.208-2.963-1.977-4.653-4.859-4.451-3.609.252-5.781 2.867-5.498 6.907.275 3.933 2.601 6.233 6.318 5.973 1.292-.09 2.588-.533 3.706-1.179l.171-2.205-.254-.144c-1.161.812-2.452 1.308-3.557 1.385-2.37.166-3.609-1.29-3.849-3.953l7.38-.516zm-2.065-1.669l-5.297.506c.217-1.937 1.273-3.094 2.916-3.208 1.346-.095 2.29.624 2.412 2.375l-.031.327zm8.116 1.869l-.724-13.456-2.733.408 1.103 13.456.177 5.238 2.747-.192-.57-5.454zm7.388-7.716c-2.855.199-4.412 1.932-4.263 4.06.273 3.905 5.812 3.004 5.973 5.293.056.808-.59 1.638-1.802 1.723-.996.07-2.406-.346-3.549-1.213l-.283.209-.163 2.312c1.276.452 2.644.654 3.829.571 3.097-.216 4.526-2.238 4.387-4.231-.266-3.798-5.807-2.923-5.966-5.186-.054-.781.543-1.526 1.648-1.603.835-.059 1.798.172 2.813.75l.344-.105.227-2.181a8.545 8.545 0 00-3.195-.399zm7.854 9.222c-.97.067-1.519.728-1.453 1.671.066.943.644 1.471 1.587 1.405.915-.064 1.465-.725 1.397-1.695-.064-.916-.615-1.445-1.531-1.381z" fill="#2C1E25"/><defs><clipPath id="clip0"><path fill="#fff" d="M0 0h399v918H0z"/></clipPath></defs></svg>