<svg width="525" height="725" viewBox="0 0 525 725" fill="none" xmlns="http://www.w3.org/2000/svg">
<mask id="path-1-outside-1" maskUnits="userSpaceOnUse" x="0" y="0.000488281" width="525" height="1037" fill="black">
<rect fill="white" y="0.000488281" width="525" height="1037"/>
<path fill-rule="evenodd" clip-rule="evenodd" d="M265.928 142.191C251.278 151.856 237.89 153.856 244.659 121.701C248.473 103.588 248.2 90.0061 247.979 79.0338C247.608 60.5681 247.386 49.4946 267.039 36.6599C297.666 16.6466 374.65 7.1195 387.119 10.7641C387.758 10.9559 388.397 11.0838 389.037 11.2117C391.786 11.6593 398.692 13.5135 400.674 20.6749C401.054 22.0048 402.563 25.8471 404.753 31.4216L404.753 31.4225C417.301 63.3693 452.191 152.202 424.971 151.113C417.784 150.826 412.147 150.958 407.801 151.061C405.804 151.108 404.079 151.148 402.601 151.139C400.664 159.007 398.182 166.745 395.424 174.118C400.083 173.618 403.501 171.1 405.713 168.765C406.161 168.317 406.928 168.829 406.608 169.404C405.898 170.765 405.026 172.306 403.998 173.895C416.419 169.74 429.434 167.577 442.702 167.577C461.618 167.577 479.387 169.154 478.097 175.317C477.216 179.281 477.283 182.433 477.34 185.147C477.47 191.265 477.552 195.158 466.633 201.115C459.787 204.85 453.481 209.936 447.247 214.966C442.311 218.947 437.421 222.892 432.342 226.103C462.316 229.023 474.734 253.959 477.383 267.905C478.822 275.817 487.117 285.172 495.568 294.703C503.957 304.165 512.5 313.8 514.641 322.368C518.252 336.814 493.554 357.327 477.914 370.318L477.911 370.32C474.932 372.795 472.282 374.996 470.218 376.83C466.579 380.065 461.115 386.724 454.823 394.873C458.321 395.667 462.022 397.307 464.332 399.617C464.577 399.863 464.865 400.066 465.145 400.264L465.145 400.264L465.145 400.264L465.145 400.264L465.145 400.264C466.495 401.219 467.647 402.034 462.899 406.783C458.098 411.585 449.275 417.393 441.483 422.521L441.483 422.522L441.481 422.522L441.48 422.523L441.472 422.529C439.965 423.52 438.497 424.487 437.105 425.415C435.574 426.435 433.772 428.137 431.786 430.253C433.662 435.006 435.972 439.568 438.681 443.902C448.998 460.528 468.774 493.492 472.93 507.108C476.998 520.331 465.186 525.613 452.863 522.955C452.595 568.968 450.236 692.309 432.813 712.059C421.725 724.627 422.838 734.906 423.959 745.258C425.011 754.975 426.07 764.757 417.05 776.554C412.363 782.684 408.129 787.181 404.258 790.274C404.792 803.077 406.546 867.06 389.822 894.079C386.321 906.685 386.242 915.082 386.164 923.306C386.082 931.913 386.002 940.332 382.005 953.189C340.224 1043 336.11 1020.59 336.11 1020.59L336.232 1019.81L336.111 1019.99C336.111 1019.99 323.905 1004.29 321.039 998.562C319.875 996.233 321.784 979.246 324.078 958.835C327.432 928.993 331.608 891.833 328.204 882.471C323.134 868.527 324.79 833.283 325.241 825.323C319.553 824.313 315.685 822.007 315.296 818.119C315.095 816.1 315.006 814.337 314.924 812.686C314.421 802.615 314.125 796.701 289.502 762.224C260.842 722.093 239.347 673.364 246.512 640.399C250.893 620.245 230.098 592.591 215.239 572.831C214.097 571.312 212.99 569.84 211.932 568.421C203.807 572.557 195.694 575.498 189.194 575.904C174.041 576.851 182.673 554.634 189.856 536.149C193.542 526.665 196.845 518.163 196.359 514.275C194.926 502.81 222.153 435.448 240.782 415.383C242.003 414.068 243.212 412.306 244.406 410.16C234.999 414.885 225.861 421.573 217.615 427.609C210.81 432.59 204.612 437.127 199.372 439.747C188.338 445.337 184.182 437.311 182.749 433.298C182.176 431.864 181.173 430.718 179.883 430.001C167.13 423.122 155.379 414.379 145.348 404.06L136.662 395.133C131.54 394.668 127.128 392.471 123.704 388.582C120.414 384.79 112.222 378.46 103.728 371.896C90.3891 361.589 76.3039 350.704 79.2805 348.165C80.6364 347.029 83.8571 347.027 87.8092 347.111C84.6442 343.952 80.5028 340.855 76.4301 340.855C63.6518 343.837 55.9377 344.005 51.476 342.614L25.8495 374.799C25.8484 374.899 25.8447 375.002 25.8384 375.109C25.8384 376.113 25.4085 376.973 24.692 377.546C15.8073 385.572 8.64233 390.732 10.2186 385.285C11.4533 380.346 16.1982 376.471 19.5045 374.576L46.3583 340.849C41.8429 338.895 36.7963 335.38 43.1789 330.82C44.0623 330.189 45.0013 329.68 45.9792 329.277C42.6039 323.872 42.1226 308.552 54.2185 300.581C62.3177 295.329 72.1305 294.611 80.6014 297.842L100.217 273.207L104.229 276.36L85.302 300.131C88.5843 302.108 91.5292 304.756 93.9127 308.034C99.5014 315.63 104.804 316.49 104.804 316.49L113.169 325.618C113.106 325.165 113.035 324.702 112.956 324.23C112.669 322.797 113.816 321.507 115.249 321.507C129.006 322.224 165.834 351.175 166.264 352.465C166.264 352.465 168.327 355.912 169.784 360.794C171.249 361.056 172.666 361.375 174.008 361.78C180.313 363.786 187.048 363.929 193.354 362.066C196.363 361.063 198.369 359.916 200.662 353.753C202.764 348.146 210.693 346.652 219.923 344.913C229.566 343.096 240.629 341.012 247.951 333.688C255.003 326.636 263.338 316.112 269.987 307.242C273.349 286.433 275.318 271.057 275.318 271.057L276.107 270.83C253.677 253.981 231.423 228.237 258.848 214.014C265.493 210.568 271.25 207.785 276.258 205.55C272.386 197.044 269.83 186.088 268.217 174.016C261.934 171.659 258.372 167.977 256.546 165.44C256.162 164.929 256.802 164.289 257.313 164.609C259.198 165.826 262.409 167.333 267.538 168.374C266.629 159.928 266.132 151.06 265.928 142.191ZM417.492 352.774C419.52 349.273 421.387 346.056 423.027 343.228L423.034 343.215C427.125 336.165 429.808 331.539 430.094 330.967C430.326 330.504 430.183 330.602 429.673 330.953C427.723 332.293 420.4 337.327 408.041 328.858C409.08 336.217 410.481 344.14 412.088 352.218C413.395 351.002 414.589 350.48 415.61 350.888C415.61 350.888 416.33 351.57 417.492 352.774Z"/>
</mask>
<path d="M244.659 121.701L234.874 119.641V119.641L244.659 121.701ZM265.928 142.191L275.925 141.961L275.509 123.889L260.421 133.844L265.928 142.191ZM247.979 79.0338L237.981 79.2347V79.2347L247.979 79.0338ZM267.039 36.6599L272.506 45.0326L272.509 45.0312L267.039 36.6599ZM387.119 10.7641L389.992 1.18583L389.958 1.17567L389.924 1.16575L387.119 10.7641ZM389.037 11.2117L387.076 21.0175L387.252 21.0528L387.43 21.0818L389.037 11.2117ZM400.674 20.6749L391.036 23.3424L391.047 23.3822L391.059 23.422L400.674 20.6749ZM404.753 31.4216L414.097 27.8616L414.079 27.8136L414.06 27.7657L404.753 31.4216ZM404.753 31.4225L395.408 34.9825L395.426 35.0305L395.445 35.0783L404.753 31.4225ZM424.971 151.113L425.371 141.121L424.971 151.113ZM407.801 151.061L407.565 141.063L407.801 151.061ZM402.601 151.139L402.666 141.139L394.777 141.088L392.891 148.748L402.601 151.139ZM395.424 174.118L386.057 170.614L380.38 185.791L396.491 184.061L395.424 174.118ZM405.713 168.765L398.642 161.694L398.546 161.79L398.453 161.888L405.713 168.765ZM406.608 169.404L397.867 164.548L397.804 164.661L397.744 164.775L406.608 169.404ZM403.998 173.895L395.602 168.463L380.092 192.437L407.171 183.378L403.998 173.895ZM478.097 175.317L487.859 177.486L487.873 177.425L487.885 177.365L478.097 175.317ZM477.34 185.147L467.343 185.358V185.358L477.34 185.147ZM466.633 201.115L461.844 192.336L466.633 201.115ZM447.247 214.966L440.968 207.183L440.968 207.183L447.247 214.966ZM432.342 226.103L426.999 217.65L402.352 233.229L431.372 236.056L432.342 226.103ZM477.383 267.905L487.222 266.116L487.215 266.077L487.208 266.039L477.383 267.905ZM495.568 294.703L488.086 301.338L495.568 294.703ZM514.641 322.368L504.94 324.793L514.641 322.368ZM477.914 370.318L471.524 362.625L471.518 362.631L471.512 362.636L477.914 370.318ZM477.911 370.32L484.3 378.013L484.306 378.008L484.313 378.003L477.911 370.32ZM470.218 376.83L476.863 384.304L476.863 384.304L470.218 376.83ZM454.823 394.873L446.908 388.762L437.339 401.157L452.608 404.625L454.823 394.873ZM464.332 399.617L457.26 406.688L457.26 406.688L464.332 399.617ZM465.145 400.264L472.216 393.193L471.613 392.59L470.917 392.098L465.145 400.264ZM465.145 400.264L458.074 407.335L458.676 407.937L459.371 408.429L465.145 400.264ZM462.899 406.783L455.827 399.713L455.827 399.713L462.899 406.783ZM441.483 422.521L435.985 414.168L435.729 414.337L435.483 414.521L441.483 422.521ZM441.483 422.522L446.724 431.038L447.115 430.797L447.483 430.522L441.483 422.522ZM441.481 422.522L436.24 414.006L436.157 414.057L436.074 414.111L441.481 422.522ZM441.48 422.523L436.073 414.111L436.035 414.136L435.998 414.16L441.48 422.523ZM441.472 422.529L435.989 414.165L435.982 414.171L435.974 414.176L441.472 422.529ZM437.105 425.415L442.652 433.735L442.652 433.735L437.105 425.415ZM431.786 430.253L424.495 423.408L420.157 428.029L422.484 433.924L431.786 430.253ZM438.681 443.902L447.178 438.629L447.169 438.616L447.161 438.603L438.681 443.902ZM472.93 507.108L463.365 510.027L463.368 510.038L463.372 510.048L472.93 507.108ZM452.863 522.955L454.972 513.18L442.935 510.583L442.863 522.897L452.863 522.955ZM432.813 712.059L440.311 718.675V718.675L432.813 712.059ZM423.959 745.258L433.901 744.182L423.959 745.258ZM417.05 776.554L424.994 782.628H424.994L417.05 776.554ZM404.258 790.274L398.017 782.46L394.056 785.625L394.267 790.69L404.258 790.274ZM389.822 894.079L381.319 888.816L380.569 890.029L380.187 891.403L389.822 894.079ZM386.164 923.306L396.163 923.401L386.164 923.306ZM382.005 953.189L391.071 957.407L391.354 956.799L391.554 956.158L382.005 953.189ZM336.11 1020.59L326.229 1019.05L325.968 1020.73L326.275 1022.4L336.11 1020.59ZM336.232 1019.81L346.113 1021.35L327.976 1014.17L336.232 1019.81ZM336.111 1019.99L328.218 1026.13L336.633 1036.94L344.367 1025.63L336.111 1019.99ZM321.039 998.562L329.984 994.09L321.039 998.562ZM324.078 958.835L334.015 959.952L324.078 958.835ZM328.204 882.471L318.806 885.887V885.888L328.204 882.471ZM325.241 825.323L335.225 825.888L335.726 817.029L326.989 815.477L325.241 825.323ZM315.296 818.119L325.247 817.125L315.296 818.119ZM314.924 812.686L324.911 812.187L324.911 812.187L314.924 812.686ZM289.502 762.224L281.365 768.035L289.502 762.224ZM246.512 640.399L236.741 638.275L246.512 640.399ZM215.239 572.831L223.231 566.821H223.231L215.239 572.831ZM211.932 568.421L219.948 562.443L214.909 555.685L207.396 559.51L211.932 568.421ZM189.194 575.904L188.57 565.924H188.57L189.194 575.904ZM189.856 536.149L180.535 532.527L189.856 536.149ZM196.359 514.275L206.282 513.035V513.035L196.359 514.275ZM240.782 415.383L233.454 408.579L233.454 408.579L240.782 415.383ZM244.406 410.16L253.144 415.022L268.927 386.655L239.918 401.224L244.406 410.16ZM217.615 427.609L223.522 435.678H223.522L217.615 427.609ZM199.372 439.747L194.899 430.803L194.876 430.815L194.853 430.826L199.372 439.747ZM182.749 433.298L192.167 429.935L192.104 429.758L192.034 429.584L182.749 433.298ZM179.883 430.001L184.74 421.26L184.686 421.23L184.631 421.2L179.883 430.001ZM145.348 404.06L152.519 397.09L152.515 397.086L145.348 404.06ZM136.662 395.133L143.829 388.16L141.25 385.509L137.568 385.174L136.662 395.133ZM123.704 388.582L116.15 395.135L116.174 395.163L116.198 395.19L123.704 388.582ZM103.728 371.896L97.6132 379.809L97.6132 379.809L103.728 371.896ZM79.2805 348.165L72.8578 340.5L72.824 340.529L72.7904 340.557L79.2805 348.165ZM87.8092 347.111L87.5952 357.109L112.515 357.642L94.8737 340.034L87.8092 347.111ZM76.4301 340.855V330.855H75.2787L74.1574 331.117L76.4301 340.855ZM51.476 342.614L54.4527 333.067L47.9172 331.03L43.653 336.385L51.476 342.614ZM25.8495 374.799L18.0264 368.57L15.8894 371.254L15.8501 374.685L25.8495 374.799ZM25.8384 375.109L15.8556 374.522L15.8384 374.816V375.109H25.8384ZM24.692 377.546L18.4443 369.738L18.2106 369.925L17.9885 370.125L24.692 377.546ZM10.2186 385.285L19.8244 388.065L19.8755 387.889L19.9202 387.71L10.2186 385.285ZM19.5045 374.576L24.4769 383.252L26.1362 382.301L27.3275 380.805L19.5045 374.576ZM46.3583 340.849L54.1813 347.078L62.3179 336.859L50.3296 331.672L46.3583 340.849ZM43.1789 330.82L37.3659 322.684H37.3659L43.1789 330.82ZM45.9792 329.277L49.791 338.522L60.726 334.014L54.4614 323.981L45.9792 329.277ZM54.2185 300.581L48.7778 292.191L48.747 292.211L48.7164 292.231L54.2185 300.581ZM80.6014 297.842L77.0372 307.186L83.8695 309.792L88.4245 304.071L80.6014 297.842ZM100.217 273.207L106.396 265.344L98.583 259.205L92.3937 266.978L100.217 273.207ZM104.229 276.36L112.052 282.589L118.321 274.716L110.408 268.497L104.229 276.36ZM85.302 300.131L77.4789 293.902L70.3797 302.818L80.1433 308.698L85.302 300.131ZM93.9127 308.034L85.8249 313.915L85.8413 313.938L85.8579 313.96L93.9127 308.034ZM104.804 316.49L112.176 309.734L109.83 307.175L106.404 306.619L104.804 316.49ZM113.169 325.618L105.797 332.375L127.488 356.041L123.074 324.243L113.169 325.618ZM112.956 324.23L122.818 322.572L122.792 322.42L122.762 322.269L112.956 324.23ZM115.249 321.507L115.769 311.521L115.509 311.507H115.249V321.507ZM166.264 352.465L156.777 355.627L157.122 356.663L157.684 357.601L166.264 352.465ZM169.784 360.794L160.202 363.654L161.963 369.557L168.029 370.639L169.784 360.794ZM174.008 361.78L177.041 352.25L176.967 352.227L176.894 352.205L174.008 361.78ZM193.354 362.066L196.187 371.656L196.353 371.607L196.516 371.553L193.354 362.066ZM200.662 353.753L191.298 350.243L191.294 350.255L191.289 350.267L200.662 353.753ZM219.923 344.913L218.071 335.086H218.071L219.923 344.913ZM247.951 333.688L240.879 326.618L240.879 326.618L247.951 333.688ZM269.987 307.242L277.989 313.239L279.466 311.268L279.859 308.837L269.987 307.242ZM275.318 271.057L272.553 261.447L266.233 263.265L265.399 269.787L275.318 271.057ZM276.107 270.83L278.872 280.44L298.161 274.89L282.113 262.834L276.107 270.83ZM258.848 214.014L254.244 205.137H254.244L258.848 214.014ZM276.258 205.55L280.334 214.681L289.532 210.575L285.359 201.407L276.258 205.55ZM268.217 174.016L278.128 172.691L277.335 166.756L271.729 164.653L268.217 174.016ZM256.546 165.44L264.661 159.597L264.604 159.518L264.546 159.44L256.546 165.44ZM257.313 164.609L262.738 156.209L262.676 156.168L262.613 156.129L257.313 164.609ZM267.538 168.374L265.549 178.174L278.943 180.891L277.48 167.303L267.538 168.374ZM423.027 343.228L414.383 338.201L414.377 338.21L423.027 343.228ZM417.492 352.774L410.298 359.72L419.503 369.253L426.145 357.787L417.492 352.774ZM423.034 343.215L431.679 348.242L431.684 348.233L423.034 343.215ZM430.094 330.967L421.15 326.495L421.15 326.495L430.094 330.967ZM429.673 330.953L435.338 339.193L435.338 339.193L429.673 330.953ZM408.041 328.858L413.694 320.609L394.965 307.775L398.139 330.256L408.041 328.858ZM412.088 352.218L402.28 354.169L405.778 371.747L418.9 359.539L412.088 352.218ZM415.61 350.888L422.488 343.629L421.1 342.314L419.324 341.604L415.61 350.888ZM234.874 119.641C233.089 128.12 232.409 135.289 233.146 141.089C233.886 146.906 236.362 153.148 242.554 156.451C248.294 159.514 254.395 158.455 258.566 157.098C262.995 155.657 267.434 153.177 271.434 150.538L260.421 133.844C257.097 136.036 254.368 137.431 252.378 138.079C250.13 138.81 250.56 138.054 251.968 138.805C253.828 139.798 253.311 141.115 252.987 138.565C252.66 135.998 252.845 131.359 254.445 123.761L234.874 119.641ZM237.981 79.2347C238.199 90.0707 238.44 102.701 234.874 119.641L254.445 123.761C258.505 104.475 258.2 89.9414 257.977 78.8329L237.981 79.2347ZM261.571 28.2872C250.574 35.469 243.881 43.0124 240.568 52.4112C237.493 61.1386 237.806 70.4954 237.981 79.2347L257.977 78.8329C257.782 69.1066 257.798 63.6937 259.431 59.0592C260.828 55.0962 263.851 50.6855 272.506 45.0326L261.571 28.2872ZM389.924 1.16575C386.976 0.303824 383.246 0.0613756 379.782 0.0106249C376.041 -0.0441857 371.582 0.124823 366.671 0.485195C356.834 1.20703 344.737 2.72999 332.119 4.99804C307.379 9.44506 278.71 17.0876 261.568 28.2887L272.509 45.0312C285.994 36.219 311.131 29.0913 335.657 24.6826C347.673 22.5227 359.074 21.0964 368.135 20.4316C372.673 20.0986 376.513 19.9649 379.489 20.0085C380.976 20.0303 382.161 20.0953 383.057 20.1849C384.018 20.2809 384.368 20.3787 384.313 20.3624L389.924 1.16575ZM390.998 1.40587C390.289 1.26414 390.108 1.22067 389.992 1.18583L384.245 20.3424C385.408 20.6912 386.505 20.9035 387.076 21.0175L390.998 1.40587ZM410.312 18.0073C406.629 4.70315 393.993 1.88692 390.644 1.34161L387.43 21.0818C388.092 21.1896 389.12 21.4646 389.933 21.9613C390.294 22.1813 390.517 22.3876 390.658 22.5594C390.777 22.7062 390.922 22.9279 391.036 23.3424L410.312 18.0073ZM414.06 27.7657C412.959 24.9629 412.053 22.6546 411.373 20.8798C411.034 19.9933 410.767 19.2815 410.569 18.734C410.351 18.1308 410.285 17.9113 410.289 17.9278L391.059 23.422C391.612 25.358 393.41 29.8976 395.445 35.0774L414.06 27.7657ZM414.098 27.8626L414.097 27.8616L395.408 34.9815L395.408 34.9825L414.098 27.8626ZM424.572 161.105C431.181 161.37 436.996 158.655 440.696 153.224C443.876 148.558 444.842 142.828 445.051 137.779C445.479 127.507 442.924 114.274 439.443 101.101C432.381 74.3793 420.297 43.6435 414.061 27.7667L395.445 35.0783C401.757 51.1483 413.392 80.8022 420.107 106.211C423.514 119.104 425.363 129.871 425.069 136.948C424.999 138.629 424.813 139.884 424.59 140.774C424.363 141.675 424.153 141.984 424.168 141.963C424.616 141.306 425.567 141.129 425.371 141.121L424.572 161.105ZM408.036 161.058C412.356 160.956 417.723 160.831 424.572 161.105L425.371 141.121C417.844 140.82 411.938 140.96 407.565 141.063L408.036 161.058ZM402.537 161.138C404.196 161.149 406.087 161.104 408.036 161.058L407.565 141.063C405.521 141.111 403.962 141.147 402.666 141.139L402.537 161.138ZM404.79 177.622C407.66 169.95 410.266 161.837 412.311 153.53L392.891 148.748C391.062 156.177 388.704 163.54 386.057 170.614L404.79 177.622ZM398.453 161.888C397.225 163.185 395.856 164.014 394.356 164.175L396.491 184.061C404.309 183.222 409.778 179.015 412.973 175.642L398.453 161.888ZM415.35 174.261C418.371 168.822 415.929 163.102 412.14 160.479C408.601 158.029 402.807 157.529 398.642 161.694L412.784 175.836C409.067 179.553 403.88 179.086 400.756 176.923C399.172 175.827 397.698 174.068 397.033 171.683C396.324 169.137 396.739 166.577 397.867 164.548L415.35 174.261ZM412.394 179.327C413.62 177.432 414.646 175.615 415.472 174.034L397.744 164.775C397.149 165.914 396.432 167.181 395.602 168.463L412.394 179.327ZM442.702 157.577C428.34 157.577 414.255 159.919 400.826 164.411L407.171 183.378C418.583 179.56 430.527 177.577 442.702 177.577V157.577ZM487.885 177.365C488.585 174.022 487.947 170.679 486.179 167.878C484.593 165.364 482.426 163.79 480.722 162.819C477.404 160.928 473.324 159.921 469.703 159.286C462.159 157.964 452.266 157.577 442.702 157.577V177.577C452.054 177.577 460.503 177.979 466.251 178.986C467.642 179.23 468.744 179.487 469.578 179.738C469.989 179.861 470.298 179.971 470.518 180.061C470.742 180.151 470.831 180.202 470.819 180.196C470.812 180.191 470.634 180.091 470.366 179.858C470.097 179.623 469.676 179.201 469.265 178.551C468.297 177.016 467.932 175.071 468.309 173.268L487.885 177.365ZM487.338 184.936C487.282 182.293 487.26 180.184 487.859 177.486L468.335 173.148C467.173 178.378 467.284 182.573 467.343 185.358L487.338 184.936ZM471.422 209.893C477.415 206.624 482.225 202.997 484.947 197.908C487.705 192.754 487.394 187.568 487.338 184.936L467.343 185.358C467.416 188.843 467.211 188.663 467.312 188.474C467.378 188.351 466.77 189.649 461.844 192.336L471.422 209.893ZM453.525 222.749C459.897 217.609 465.504 213.122 471.422 209.893L461.844 192.336C454.07 196.577 447.065 202.264 440.968 207.183L453.525 222.749ZM437.685 234.556C443.338 230.982 448.682 226.656 453.525 222.749L440.968 207.183C435.941 211.238 431.504 214.802 426.999 217.65L437.685 234.556ZM487.208 266.039C484.131 249.845 469.53 219.678 433.311 216.15L431.372 236.056C455.103 238.367 465.337 258.074 467.559 269.771L487.208 266.039ZM503.05 288.069C498.745 283.213 494.894 278.857 491.913 274.788C488.81 270.55 487.519 267.752 487.222 266.116L467.545 269.693C468.686 275.97 472.262 281.805 475.778 286.606C479.418 291.575 483.94 296.662 488.086 301.338L503.05 288.069ZM524.343 319.943C522.788 313.722 519.168 307.896 515.484 302.92C511.721 297.837 507.176 292.722 503.05 288.069L488.086 301.338C492.349 306.146 496.27 310.58 499.411 314.821C502.631 319.17 504.353 322.445 504.94 324.793L524.343 319.943ZM484.303 378.011C492.005 371.613 502.684 362.769 510.94 353.567C515.07 348.963 518.971 343.865 521.593 338.553C524.18 333.311 526.05 326.771 524.343 319.943L504.94 324.793C505.039 325.187 505.175 326.628 503.658 329.702C502.176 332.705 499.602 336.256 496.054 340.211C488.953 348.124 479.463 356.032 471.524 362.625L484.303 378.011ZM484.313 378.003L484.315 378L471.512 362.636L471.509 362.638L484.313 378.003ZM476.863 384.304C478.772 382.606 481.275 380.525 484.3 378.013L471.522 362.628C468.589 365.064 465.791 367.386 463.574 369.357L476.863 384.304ZM462.739 400.984C469.162 392.664 474.053 386.801 476.863 384.304L463.574 369.357C459.106 373.329 453.068 380.783 446.908 388.762L462.739 400.984ZM471.403 392.546C467.278 388.42 461.572 386.151 457.038 385.122L452.608 404.625C455.069 405.184 456.766 406.194 457.26 406.688L471.403 392.546ZM470.917 392.098C470.84 392.044 470.813 392.025 470.793 392.01C470.778 391.999 470.798 392.013 470.838 392.044C470.913 392.102 471.13 392.273 471.403 392.546L457.26 406.688C458.21 407.637 459.213 408.317 459.372 408.429L470.917 392.098ZM472.216 393.193L472.216 393.193L458.073 407.335L458.074 407.335L472.216 393.193ZM472.216 393.193L472.216 393.193L458.074 407.335L458.074 407.335L472.216 393.193ZM472.216 393.193L472.216 393.193L458.074 407.335L458.074 407.335L472.216 393.193ZM472.216 393.193L472.216 393.193L458.074 407.335L458.074 407.335L472.216 393.193ZM469.97 413.854C471.35 412.474 472.602 411.086 473.599 409.682C474.507 408.401 475.793 406.303 476.199 403.577C476.705 400.185 475.682 397.115 473.897 394.842C472.599 393.19 470.952 392.123 470.919 392.1L459.371 408.429C459.594 408.587 459.48 408.511 459.328 408.388C459.155 408.247 458.68 407.848 458.166 407.193C457.617 406.494 457.016 405.494 456.652 404.198C456.284 402.889 456.265 401.654 456.418 400.625C456.688 398.816 457.456 397.871 457.287 398.109C457.206 398.223 456.822 398.718 455.827 399.713L469.97 413.854ZM446.981 430.874C454.385 426.001 464.271 419.554 469.97 413.854L455.827 399.713C451.924 403.616 444.164 408.785 435.985 414.168L446.981 430.874ZM447.483 430.522L447.483 430.521L435.483 414.521L435.483 414.522L447.483 430.522ZM446.722 431.039L446.724 431.038L436.242 414.005L436.24 414.006L446.722 431.039ZM446.888 430.935L446.889 430.934L436.074 414.111L436.073 414.111L446.888 430.935ZM446.954 430.892L446.963 430.886L435.998 414.16L435.989 414.165L446.954 430.892ZM442.652 433.735C444.016 432.826 445.458 431.877 446.97 430.881L435.974 414.176C434.472 415.164 432.979 416.147 431.557 417.095L442.652 433.735ZM439.076 437.097C440.974 435.076 442.128 434.085 442.652 433.735L431.557 417.095C429.021 418.786 426.57 421.198 424.495 423.408L439.076 437.097ZM447.161 438.603C444.77 434.776 442.736 430.759 441.087 426.581L422.484 433.924C424.588 439.254 427.175 444.36 430.2 449.202L447.161 438.603ZM482.494 504.189C480.046 496.169 473.491 483.585 466.834 471.736C459.982 459.538 452.375 447.004 447.178 438.629L430.184 449.176C435.304 457.426 442.744 469.687 449.397 481.531C456.247 493.725 461.657 504.431 463.365 510.027L482.494 504.189ZM450.754 532.73C458.498 534.401 467.575 533.958 474.568 529.322C478.249 526.883 481.291 523.276 482.782 518.538C484.25 513.872 483.956 508.942 482.487 504.167L463.372 510.048C463.654 510.967 463.733 511.605 463.745 511.995C463.757 512.374 463.706 512.531 463.704 512.535C463.702 512.543 463.704 512.533 463.715 512.514C463.725 512.495 463.734 512.481 463.738 512.476C463.75 512.461 463.701 512.53 463.518 512.652C463.115 512.919 462.194 513.34 460.596 513.529C459.03 513.714 457.094 513.638 454.972 513.18L450.754 532.73ZM440.311 718.675C443.887 714.622 446.337 708.922 448.18 703.23C450.106 697.278 451.724 690.17 453.104 682.399C455.868 666.841 457.835 647.738 459.246 628.071C462.07 588.686 462.729 546.089 462.863 523.013L442.863 522.897C442.73 545.833 442.074 587.914 439.297 626.64C437.906 646.029 436 664.34 433.413 678.901C432.118 686.19 430.69 692.318 429.152 697.071C427.529 702.084 426.094 704.559 425.314 705.444L440.311 718.675ZM433.901 744.182C433.32 738.821 432.974 735.056 433.653 731.242C434.272 727.768 435.873 723.706 440.311 718.675L425.314 705.444C418.665 712.98 415.279 720.342 413.963 727.737C412.706 734.792 413.477 741.343 414.017 746.334L433.901 744.182ZM424.994 782.628C430.522 775.398 433.203 768.404 434.181 761.536C435.116 754.972 434.409 748.878 433.901 744.182L414.017 746.334C414.561 751.356 414.909 755.011 414.381 758.716C413.897 762.118 412.597 765.913 409.105 770.481L424.994 782.628ZM410.5 798.087C415.227 794.31 420.019 789.134 424.994 782.628L409.105 770.48C404.706 776.234 401.031 780.052 398.017 782.46L410.5 798.087ZM398.325 899.342C403.369 891.194 406.696 880.865 408.979 870.391C411.29 859.788 412.67 848.364 413.483 837.599C415.111 816.07 414.524 796.436 414.25 789.857L394.267 790.69C394.526 796.915 395.084 815.674 393.54 836.092C392.769 846.301 391.485 856.738 389.438 866.132C387.363 875.653 384.638 883.455 381.319 888.816L398.325 899.342ZM396.163 923.401C396.239 915.409 396.315 908.071 399.458 896.755L380.187 891.403C376.328 905.3 376.244 914.754 376.164 923.211L396.163 923.401ZM391.554 956.158C395.994 941.877 396.079 932.28 396.163 923.401L376.164 923.211C376.085 931.547 376.011 938.786 372.456 950.22L391.554 956.158ZM336.11 1020.59C326.275 1022.4 326.277 1022.41 326.279 1022.42C326.28 1022.43 326.282 1022.44 326.284 1022.45C326.287 1022.47 326.29 1022.48 326.294 1022.5C326.301 1022.54 326.309 1022.58 326.317 1022.62C326.333 1022.7 326.352 1022.79 326.374 1022.88C326.418 1023.07 326.474 1023.3 326.546 1023.55C326.686 1024.05 326.902 1024.7 327.229 1025.44C327.813 1026.75 329.126 1029.18 331.832 1030.99C334.966 1033.1 338.716 1033.55 342.245 1032.59C345.339 1031.75 347.941 1029.93 350.079 1028C354.362 1024.15 359.415 1017.46 365.802 1006.72C372.299 995.794 380.549 980.026 391.071 957.407L372.938 948.971C362.57 971.256 354.638 986.364 348.612 996.497C342.477 1006.81 338.668 1011.36 336.701 1013.13C335.713 1014.02 335.842 1013.61 336.985 1013.3C338.563 1012.87 340.884 1012.98 342.979 1014.39C344.647 1015.51 345.313 1016.88 345.508 1017.32C345.641 1017.62 345.727 1017.88 345.787 1018.09C345.818 1018.2 345.846 1018.31 345.872 1018.43C345.885 1018.48 345.897 1018.54 345.91 1018.6C345.916 1018.63 345.922 1018.66 345.928 1018.69C345.931 1018.71 345.934 1018.72 345.937 1018.74C345.938 1018.75 345.94 1018.76 345.941 1018.76C345.943 1018.77 345.946 1018.79 336.11 1020.59ZM326.351 1018.27L326.229 1019.05L345.991 1022.13L346.113 1021.35L326.351 1018.27ZM344.367 1025.63L344.488 1025.45L327.976 1014.17L327.855 1014.34L344.367 1025.63ZM312.094 1003.03C313.988 1006.82 318.335 1012.91 321.592 1017.35C323.34 1019.73 324.992 1021.91 326.205 1023.51C326.812 1024.3 327.311 1024.95 327.66 1025.41C327.835 1025.63 327.972 1025.81 328.067 1025.93C328.114 1025.99 328.151 1026.04 328.176 1026.07C328.189 1026.09 328.199 1026.1 328.206 1026.11C328.209 1026.12 328.212 1026.12 328.214 1026.12C328.215 1026.12 328.216 1026.12 328.216 1026.12C328.217 1026.12 328.217 1026.13 328.217 1026.13C328.217 1026.13 328.218 1026.13 336.111 1019.99C344.004 1013.85 344.004 1013.85 344.004 1013.85C344.004 1013.85 344.004 1013.85 344.004 1013.85C344.004 1013.85 344.004 1013.85 344.003 1013.85C344.002 1013.84 344.001 1013.84 343.998 1013.84C343.993 1013.83 343.986 1013.82 343.975 1013.81C343.954 1013.78 343.922 1013.74 343.879 1013.69C343.793 1013.57 343.666 1013.41 343.501 1013.2C343.172 1012.77 342.695 1012.15 342.113 1011.38C340.947 1009.85 339.369 1007.76 337.708 1005.5C334.145 1000.65 330.956 996.036 329.984 994.09L312.094 1003.03ZM314.14 957.718C312.999 967.876 311.931 977.368 311.3 984.61C310.985 988.216 310.761 991.449 310.703 994.014C310.674 995.283 310.68 996.582 310.769 997.774C310.824 998.5 310.982 1000.81 312.094 1003.03L329.984 994.09C330.804 995.732 330.768 997.002 330.713 996.273C330.693 996.01 330.675 995.441 330.698 994.471C330.741 992.558 330.92 989.832 331.224 986.349C331.829 979.412 332.863 970.205 334.015 959.952L314.14 957.718ZM318.806 885.888C318.793 885.852 318.854 886.017 318.942 886.467C319.027 886.899 319.116 887.487 319.195 888.251C319.355 889.791 319.451 891.781 319.467 894.222C319.499 899.103 319.213 905.258 318.702 912.243C317.681 926.202 315.823 942.746 314.14 957.718L334.015 959.952C335.686 945.082 337.594 928.125 338.648 913.702C339.175 906.497 339.504 899.741 339.467 894.09C339.432 888.894 339.112 883.207 337.602 879.054L318.806 885.888ZM315.257 824.758C315.026 828.841 314.485 839.907 314.653 851.794C314.814 863.132 315.608 877.093 318.806 885.887L337.602 879.054C335.73 873.905 334.818 863.272 334.651 851.512C334.493 840.301 335.005 829.765 335.225 825.888L315.257 824.758ZM305.346 819.114C305.892 824.578 309.002 828.552 312.611 831.037C315.968 833.348 319.909 834.532 323.492 835.169L326.989 815.477C326.005 815.302 325.256 815.098 324.717 814.905C324.452 814.81 324.26 814.725 324.13 814.661C323.999 814.596 323.946 814.559 323.952 814.563C323.963 814.571 324.267 814.783 324.599 815.293C324.956 815.843 325.184 816.496 325.247 817.125L305.346 819.114ZM304.936 813.185C305.018 814.825 305.116 816.818 305.346 819.114L325.247 817.125C325.073 815.383 324.995 813.849 324.911 812.187L304.936 813.185ZM281.365 768.035C293.652 785.24 299.379 794.662 302.16 800.757C304.611 806.13 304.711 808.668 304.936 813.185L324.911 812.187C324.634 806.634 324.335 801.179 320.356 792.457C316.707 784.458 309.975 773.684 297.64 756.412L281.365 768.035ZM236.741 638.275C232.558 657.516 236.88 680.104 245.219 702.161C253.65 724.459 266.652 747.434 281.365 768.035L297.64 756.412C283.693 736.883 271.617 715.428 263.927 695.088C256.145 674.505 253.301 656.246 256.284 642.523L236.741 638.275ZM207.246 578.841C214.76 588.832 223.215 600.107 229.316 611.265C235.649 622.846 238.109 631.978 236.741 638.275L256.284 642.523C259.296 628.667 253.549 613.894 246.864 601.67C239.948 589.021 230.577 576.589 223.231 566.821L207.246 578.841ZM203.916 574.399C204.987 575.837 206.107 577.325 207.246 578.841L223.231 566.821C222.087 565.299 220.992 563.843 219.948 562.443L203.916 574.399ZM189.818 585.885C198.371 585.35 207.946 581.671 216.468 577.333L207.396 559.51C199.668 563.443 193.018 565.646 188.57 565.924L189.818 585.885ZM180.535 532.527C177.1 541.367 172.625 552.731 171.26 561.831C170.611 566.158 170.267 572.208 173.097 577.445C174.674 580.365 177.122 582.802 180.393 584.308C183.51 585.745 186.795 586.074 189.818 585.885L188.57 565.924C187.805 565.971 188.044 565.813 188.762 566.144C189.632 566.545 190.325 567.257 190.693 567.938C191.103 568.698 190.526 568.217 191.038 564.797C191.997 558.404 195.429 549.416 199.177 539.771L180.535 532.527ZM186.436 515.516C186.36 514.9 186.485 514.92 186.261 516.035C186.067 517.003 185.71 518.324 185.156 520.041C184.038 523.502 182.412 527.698 180.535 532.527L199.177 539.771C200.986 535.115 202.854 530.319 204.188 526.186C204.86 524.106 205.467 521.981 205.871 519.964C206.246 518.096 206.602 515.594 206.282 513.035L186.436 515.516ZM233.454 408.579C227.948 414.509 222.283 423.345 217.029 432.849C211.687 442.513 206.441 453.477 201.864 464.096C197.29 474.709 193.316 485.139 190.553 493.755C189.176 498.051 188.055 502.036 187.318 505.445C186.663 508.478 186.028 512.248 186.436 515.516L206.282 513.035C206.332 513.436 206.235 512.594 206.867 509.67C207.418 507.121 208.334 503.806 209.599 499.861C212.121 491.995 215.849 482.18 220.231 472.012C224.611 461.849 229.575 451.494 234.532 442.525C239.578 433.398 244.302 426.29 248.111 422.187L233.454 408.579ZM235.667 405.298C234.701 407.035 233.94 408.055 233.454 408.579L248.111 422.187C250.066 420.081 251.723 417.577 253.144 415.022L235.667 405.298ZM223.522 435.678C231.902 429.544 240.364 423.38 248.894 419.097L239.918 401.224C229.634 406.389 219.82 413.602 211.709 419.539L223.522 435.678ZM203.845 448.691C210.011 445.607 216.98 440.467 223.522 435.678L211.709 419.539C204.64 424.714 199.213 428.646 194.899 430.803L203.845 448.691ZM173.332 436.66C174.224 439.158 176.496 444.673 181.744 448.328C188.03 452.707 195.887 452.722 203.891 448.668L194.853 430.826C193.156 431.686 192.431 431.662 192.47 431.663C192.491 431.663 192.613 431.671 192.79 431.73C192.963 431.787 193.096 431.862 193.177 431.918C193.303 432.006 193.171 431.953 192.895 431.509C192.626 431.076 192.378 430.525 192.167 429.935L173.332 436.66ZM175.026 438.742C174.237 438.304 173.716 437.639 173.464 437.011L192.034 429.584C190.637 426.09 188.109 423.132 184.74 421.26L175.026 438.742ZM138.178 411.03C148.956 422.118 161.535 431.466 175.136 438.802L184.631 421.2C172.725 414.778 161.802 406.64 152.519 397.09L138.178 411.03ZM129.495 402.107L138.181 411.034L152.515 397.086L143.829 388.16L129.495 402.107ZM116.198 395.19C121.344 401.034 128.133 404.399 135.757 405.092L137.568 385.174C134.946 384.936 132.912 383.908 131.209 381.974L116.198 395.19ZM97.6132 379.809C101.891 383.114 105.946 386.249 109.34 389.022C112.884 391.918 115.133 393.963 116.15 395.135L131.257 382.029C128.985 379.409 125.493 376.393 121.995 373.535C118.348 370.555 114.06 367.242 109.842 363.983L97.6132 379.809ZM72.7904 340.557C68.8193 343.945 68.4829 348.622 69.1738 351.689C69.745 354.224 71.0398 356.21 71.86 357.347C73.6333 359.804 76.211 362.318 78.7031 364.557C83.8572 369.187 91.0524 374.739 97.6132 379.809L109.842 363.983C103.065 358.746 96.5478 353.702 92.0687 349.678C89.7443 347.59 88.5251 346.263 88.0778 345.643C87.7877 345.241 88.3662 345.879 88.6848 347.293C89.123 349.239 88.9975 353.02 85.7706 355.773L72.7904 340.557ZM88.0232 337.114C86.1294 337.073 83.787 337.031 81.6763 337.221C80.0603 337.366 76.1029 337.781 72.8578 340.5L85.7032 355.83C84.5963 356.757 83.6113 357.057 83.3808 357.123C83.1097 357.201 83.0834 357.175 83.4663 357.14C83.8203 357.108 84.3342 357.085 85.0689 357.08C85.7973 357.075 86.6203 357.088 87.5952 357.109L88.0232 337.114ZM76.4301 350.855C75.9824 350.855 76.2263 350.717 77.2984 351.363C78.3088 351.972 79.4972 352.944 80.7448 354.189L94.8737 340.034C92.9563 338.12 90.4914 335.963 87.6217 334.234C84.8136 332.541 80.9505 330.855 76.4301 330.855V350.855ZM48.4993 352.161C55.6989 354.406 65.6958 353.629 78.7027 350.593L74.1574 331.117C61.6077 334.045 56.1766 333.605 54.4527 333.067L48.4993 352.161ZM33.6726 381.028L59.2991 348.843L43.653 336.385L18.0264 368.57L33.6726 381.028ZM35.8211 375.696C35.8361 375.441 35.8458 375.18 35.8488 374.914L15.8501 374.685C15.8509 374.617 15.8532 374.563 15.8556 374.522L35.8211 375.696ZM30.9396 385.354C34.0502 382.865 35.8384 379.121 35.8384 375.109H15.8384C15.8384 373.104 16.7667 371.08 18.4443 369.738L30.9396 385.354ZM0.612879 382.505C0.284883 383.638 -0.281516 385.914 0.16704 388.534C0.417562 389.996 1.04588 391.912 2.53381 393.693C4.08722 395.552 6.07009 396.654 7.99326 397.166C11.2941 398.044 14.0928 397.131 15.1135 396.768C16.4753 396.284 17.6976 395.627 18.6529 395.057C22.3021 392.882 26.9693 388.965 31.3954 384.966L17.9885 370.125C13.53 374.153 10.1723 376.829 8.41203 377.878C8.01495 378.115 8.0483 378.054 8.41199 377.924C8.43464 377.916 10.4262 377.117 13.1381 377.839C14.7669 378.272 16.5099 379.228 17.8814 380.869C19.1875 382.432 19.692 384.059 19.8801 385.158C20.0623 386.222 19.9948 387.033 19.9489 387.406C19.8992 387.81 19.8298 388.047 19.8244 388.065L0.612879 382.505ZM14.532 365.9C12.2029 367.234 9.3985 369.236 6.878 371.856C4.39941 374.433 1.70073 378.125 0.517123 382.86L19.9202 387.71C19.9712 387.506 20.2623 386.791 21.2914 385.722C22.2786 384.695 23.4998 383.812 24.4769 383.252L14.532 365.9ZM38.5352 334.62L11.6814 368.347L27.3275 380.805L54.1813 347.078L38.5352 334.62ZM37.3659 322.684C34.9592 324.403 32.2401 326.968 30.9196 330.704C29.4087 334.979 30.3252 339.024 32.1347 342.003C33.7226 344.618 35.9186 346.352 37.4931 347.407C39.1765 348.535 40.9288 349.396 42.3869 350.027L50.3296 331.672C49.53 331.326 48.9583 331.015 48.6249 330.791C48.1827 330.495 48.6693 330.699 49.2289 331.621C49.5547 332.157 49.9435 333.005 50.0969 334.125C50.2562 335.288 50.1148 336.411 49.7765 337.369C49.1637 339.102 48.2073 339.518 48.9919 338.957L37.3659 322.684ZM42.1674 320.032C40.5303 320.707 38.9127 321.578 37.3659 322.684L48.9918 338.957C49.2119 338.8 49.4722 338.654 49.791 338.522L42.1674 320.032ZM48.7164 292.231C39.9554 298.004 35.802 306.478 34.4489 314.155C33.1833 321.336 34.1459 329.207 37.497 334.574L54.4614 323.981C54.5727 324.159 54.2432 323.637 54.0416 322.223C53.8571 320.929 53.8469 319.32 54.1453 317.627C54.7317 314.3 56.3858 311.129 59.7207 308.932L48.7164 292.231ZM84.1655 288.499C72.8568 284.185 59.6812 285.121 48.7778 292.191L59.6593 308.972C64.9542 305.538 71.4042 305.037 77.0372 307.186L84.1655 288.499ZM92.3937 266.978L72.7783 291.613L88.4245 304.071L108.04 279.436L92.3937 266.978ZM110.408 268.497L106.396 265.344L94.038 281.07L98.0504 284.223L110.408 268.497ZM93.1251 306.36L112.052 282.589L96.4061 270.131L77.4789 293.902L93.1251 306.36ZM102 302.153C98.8139 297.771 94.8654 294.217 90.4607 291.564L80.1433 308.698C82.3032 309.999 84.2445 311.742 85.8249 313.915L102 302.153ZM104.804 316.49C106.404 306.619 106.41 306.62 106.416 306.621C106.418 306.621 106.424 306.622 106.428 306.623C106.436 306.624 106.443 306.626 106.451 306.627C106.466 306.629 106.481 306.632 106.496 306.634C106.525 306.64 106.553 306.645 106.581 306.649C106.635 306.659 106.685 306.669 106.73 306.678C106.821 306.697 106.896 306.714 106.954 306.728C107.07 306.756 107.121 306.774 107.116 306.772C107.107 306.769 106.862 306.685 106.441 306.443C105.63 305.976 103.948 304.8 101.968 302.108L85.8579 313.96C89.4657 318.864 93.2295 321.916 96.4671 323.779C98.0695 324.7 99.4997 325.306 100.66 325.702C101.239 325.899 101.748 326.044 102.176 326.149C102.39 326.202 102.583 326.244 102.755 326.279C102.841 326.297 102.921 326.312 102.996 326.326C103.033 326.332 103.069 326.339 103.103 326.345C103.121 326.348 103.137 326.35 103.154 326.353C103.162 326.355 103.17 326.356 103.179 326.357C103.183 326.358 103.189 326.359 103.191 326.359C103.197 326.36 103.203 326.361 104.804 316.49ZM120.541 318.861L112.176 309.734L97.4314 323.247L105.797 332.375L120.541 318.861ZM103.094 325.888C103.159 326.269 103.215 326.637 103.264 326.993L123.074 324.243C122.998 323.692 122.912 323.135 122.818 322.572L103.094 325.888ZM115.249 311.507C107.969 311.507 101.537 318.124 103.15 326.191L122.762 322.269C123.802 327.47 119.663 331.507 115.249 331.507V311.507ZM175.751 349.303C175.242 347.776 174.474 346.736 174.312 346.512C174.016 346.105 173.742 345.788 173.578 345.604C173.24 345.225 172.907 344.899 172.674 344.677C172.182 344.208 171.597 343.693 171 343.184C169.778 342.142 168.128 340.806 166.195 339.298C162.315 336.273 157.07 332.384 151.388 328.509C145.735 324.654 139.479 320.695 133.616 317.613C128.208 314.771 121.604 311.825 115.769 311.521L114.729 331.493C115.772 331.548 118.931 332.489 124.311 335.317C129.235 337.905 134.792 341.399 140.12 345.032C145.418 348.646 150.32 352.282 153.897 355.07C155.691 356.469 157.097 357.613 158.025 358.403C158.503 358.811 158.767 359.051 158.868 359.148C158.932 359.208 158.832 359.118 158.659 358.925C158.578 358.833 158.37 358.597 158.123 358.256C158.009 358.099 157.272 357.113 156.777 355.627L175.751 349.303ZM179.367 357.935C178.459 354.893 177.373 352.327 176.513 350.514C176.08 349.601 175.695 348.858 175.403 348.32C175.257 348.05 175.134 347.83 175.039 347.664C174.992 347.581 174.951 347.511 174.919 347.455C174.902 347.427 174.888 347.402 174.875 347.381C174.869 347.371 174.863 347.361 174.858 347.352C174.855 347.348 174.853 347.344 174.851 347.34C174.849 347.338 174.848 347.336 174.847 347.334C174.847 347.333 174.846 347.332 174.846 347.331C174.845 347.33 174.844 347.329 166.264 352.465C157.684 357.601 157.683 357.599 157.682 357.598C157.682 357.598 157.681 357.596 157.68 357.596C157.679 357.594 157.678 357.592 157.678 357.591C157.676 357.588 157.674 357.585 157.672 357.582C157.669 357.577 157.666 357.572 157.664 357.568C157.66 357.561 157.657 357.556 157.656 357.554C157.654 357.551 157.659 357.56 157.671 357.581C157.695 357.622 157.744 357.71 157.815 357.84C157.956 358.1 158.177 358.525 158.442 359.083C158.978 360.215 159.652 361.813 160.202 363.654L179.367 357.935ZM176.894 352.205C175.093 351.662 173.284 351.261 171.54 350.95L168.029 370.639C169.214 370.85 170.239 371.088 171.122 371.354L176.894 352.205ZM190.52 352.476C186.213 353.749 181.522 353.677 177.041 352.25L170.976 371.309C179.104 373.896 187.884 374.11 196.187 371.656L190.52 352.476ZM191.289 350.267C190.838 351.48 190.491 352.199 190.263 352.604C190.046 352.988 189.993 352.989 190.151 352.828C190.34 352.636 190.572 352.475 190.739 352.386C190.83 352.338 190.761 352.389 190.191 352.58L196.516 371.553C198.513 370.887 201.57 369.736 204.402 366.861C207.007 364.216 208.685 360.867 210.034 357.24L191.289 350.267ZM218.071 335.086C213.736 335.903 208.471 336.861 204.067 338.535C199.636 340.219 193.846 343.447 191.298 350.243L210.025 357.264C209.58 358.452 208.806 358.13 211.172 357.23C213.565 356.321 216.879 355.663 221.774 354.74L218.071 335.086ZM240.879 326.618C236.134 331.364 228.441 333.132 218.071 335.086L221.774 354.74C230.69 353.06 245.124 350.659 255.023 340.759L240.879 326.618ZM261.985 301.244C255.368 310.072 247.392 320.104 240.879 326.618L255.023 340.759C262.613 333.167 271.308 322.152 277.989 313.239L261.985 301.244ZM275.318 271.057C265.399 269.787 265.399 269.787 265.399 269.787C265.399 269.787 265.399 269.787 265.399 269.787C265.399 269.787 265.399 269.788 265.398 269.788C265.398 269.79 265.398 269.792 265.398 269.795C265.397 269.801 265.395 269.811 265.394 269.825C265.39 269.852 265.385 269.894 265.377 269.951C265.363 270.064 265.341 270.234 265.311 270.46C265.252 270.911 265.163 271.582 265.046 272.455C264.812 274.2 264.464 276.748 264.012 279.944C263.107 286.339 261.784 295.319 260.115 305.646L279.859 308.837C281.552 298.356 282.895 289.243 283.814 282.748C284.274 279.499 284.629 276.903 284.869 275.115C284.989 274.22 285.08 273.528 285.142 273.057C285.173 272.821 285.196 272.641 285.212 272.519C285.22 272.457 285.226 272.41 285.23 272.378C285.232 272.362 285.234 272.35 285.235 272.341C285.235 272.337 285.236 272.334 285.236 272.331C285.236 272.33 285.236 272.329 285.236 272.328C285.237 272.328 285.237 272.327 285.237 272.327C285.237 272.327 285.237 272.327 275.318 271.057ZM273.341 261.22L272.553 261.447L278.083 280.667L278.872 280.44L273.341 261.22ZM254.244 205.137C245.835 209.497 239.692 215.579 237.252 223.617C234.852 231.522 236.661 239.277 239.761 245.754C245.788 258.346 258.61 270.194 270.1 278.825L282.113 262.834C271.174 254.617 261.653 245.168 257.802 237.12C255.963 233.277 255.949 230.876 256.389 229.427C256.789 228.111 258.148 225.641 263.452 222.891L254.244 205.137ZM272.181 196.418C266.963 198.748 261.028 201.618 254.244 205.137L263.452 222.891C269.958 219.517 275.537 216.823 280.334 214.681L272.181 196.418ZM258.305 175.341C259.977 187.854 262.703 199.908 267.156 209.693L285.359 201.407C282.07 194.18 279.683 184.322 278.128 172.691L258.305 175.341ZM248.431 171.283C251.201 175.131 256.264 180.212 264.704 183.379L271.729 164.653C267.605 163.106 265.544 160.823 264.661 159.597L248.431 171.283ZM262.613 156.129C257.55 152.964 252.131 154.912 249.367 157.801C246.431 160.87 244.91 166.593 248.546 171.44L264.546 159.44C267.798 163.776 266.405 168.923 263.82 171.625C261.408 174.147 256.565 175.934 252.013 173.089L262.613 156.129ZM269.526 158.573C265.442 157.744 263.432 156.657 262.738 156.209L251.888 173.009C254.963 174.996 259.375 176.921 265.549 178.174L269.526 158.573ZM255.93 142.421C256.139 151.499 256.65 160.656 257.595 169.444L277.48 167.303C276.608 159.2 276.124 150.62 275.925 141.961L255.93 142.421ZM414.377 338.21C412.737 341.037 410.869 344.257 408.839 347.762L426.145 357.787C428.172 354.288 430.036 351.074 431.677 348.246L414.377 338.21ZM414.39 338.188L414.383 338.201L431.671 348.255L431.679 348.242L414.39 338.188ZM421.15 326.495C421.183 326.43 420.676 327.331 419.331 329.661C418.119 331.76 416.432 334.668 414.385 338.197L431.684 348.233C435.593 341.495 438.568 336.38 439.039 335.438L421.15 326.495ZM435.338 339.193C435.535 339.058 435.443 339.123 435.312 339.206C435.242 339.25 434.974 339.418 434.596 339.609C434.416 339.7 433.261 340.304 431.629 340.546C430.756 340.676 429.053 340.812 427.053 340.153C424.757 339.396 422.734 337.799 421.478 335.563C420.376 333.601 420.214 331.773 420.203 330.801C420.191 329.781 420.341 328.978 420.437 328.548C420.625 327.704 420.882 327.092 420.949 326.934C421.048 326.699 421.13 326.535 421.15 326.495L439.039 335.439C439.117 335.283 439.244 335.021 439.378 334.704C439.479 334.464 439.76 333.787 439.959 332.892C440.009 332.67 440.903 329.307 438.916 325.769C435.902 320.402 430.402 320.51 428.695 320.763C427.027 321.01 425.825 321.633 425.588 321.753C425.151 321.973 424.813 322.182 424.661 322.278C424.367 322.463 424.066 322.672 424.008 322.712L435.338 339.193ZM402.388 337.107C410.187 342.451 417.428 344.177 423.77 343.533C429.96 342.904 433.991 340.119 435.338 339.193L424.008 322.712C423.405 323.126 422.799 323.529 421.75 323.635C420.853 323.726 418.254 323.734 413.694 320.609L402.388 337.107ZM421.896 350.266C420.314 342.314 418.949 334.583 417.943 327.46L398.139 330.256C399.211 337.85 400.648 345.965 402.28 354.169L421.896 350.266ZM419.324 341.604C412.363 338.819 406.911 343.375 405.277 344.896L418.9 359.539C419.06 359.39 418.629 359.852 417.61 360.253C416.411 360.723 414.27 361.123 411.895 360.173L419.324 341.604ZM424.686 345.828C424.044 345.163 423.516 344.634 423.139 344.262C422.95 344.076 422.799 343.928 422.689 343.822C422.634 343.769 422.589 343.726 422.556 343.694C422.539 343.678 422.525 343.664 422.513 343.653C422.508 343.648 422.503 343.643 422.498 343.639C422.496 343.637 422.494 343.635 422.492 343.634C422.492 343.633 422.491 343.632 422.49 343.631C422.49 343.631 422.489 343.631 422.489 343.63C422.489 343.63 422.488 343.63 422.488 343.63C422.488 343.629 422.488 343.629 415.61 350.888C408.732 358.147 408.731 358.147 408.731 358.147C408.731 358.147 408.731 358.146 408.731 358.146C408.73 358.146 408.73 358.146 408.73 358.145C408.729 358.145 408.729 358.144 408.728 358.144C408.727 358.143 408.726 358.142 408.725 358.141C408.724 358.14 408.723 358.139 408.723 358.139C408.723 358.139 408.725 358.141 408.73 358.146C408.74 358.156 408.761 358.176 408.792 358.205C408.853 358.264 408.954 358.363 409.091 358.497C409.364 358.767 409.778 359.181 410.298 359.72L424.686 345.828Z" fill="white" mask="url(#path-1-outside-1)"/>
<path d="M281.913 290.692C281.913 290.692 262.28 319.356 247.95 333.688C233.62 348.021 204.96 342.288 200.661 353.754C198.369 359.916 196.362 361.063 193.353 362.066C187.048 363.929 180.313 363.786 174.008 361.78C163.547 358.627 148.5 360.633 141.908 355.187C133.31 348.021 120.413 336.555 120.413 336.555L108.949 366.653L145.347 404.06C155.378 414.379 167.129 423.122 179.883 430.001C181.173 430.718 182.176 431.864 182.749 433.298C184.182 437.311 188.338 445.337 199.372 439.747C213.702 432.581 235.197 411.083 256.692 405.35C278.187 399.617 301.115 375.252 299.682 362.353C298.249 349.454 314.012 312.19 302.548 297.858C291.084 283.525 281.626 282.092 281.913 290.692Z" fill="#2E5A9C"/>
<path d="M445.699 501.376C445.699 501.376 438.534 610.302 414.173 657.598C389.812 704.894 378.348 709.194 379.781 749.325C381.214 789.455 391.245 796.621 378.348 810.953C365.451 825.285 316.729 832.452 315.296 818.119C313.863 803.787 318.162 802.354 289.502 762.224C260.842 722.093 239.347 673.364 246.512 640.399C253.677 607.435 193.491 554.406 202.089 548.673C210.687 542.94 348.255 492.777 358.286 499.943C368.317 507.109 445.699 501.376 445.699 501.376Z" fill="#2E5A9C"/>
<path d="M282.34 266.326C282.34 266.326 282.34 376.684 263.711 411.082C245.082 445.479 216.422 464.111 220.721 479.877C225.02 495.642 200.659 535.772 209.257 548.671C217.855 561.57 226.453 555.838 259.412 541.505C292.371 527.173 341.093 517.14 351.124 514.274C361.155 511.408 424.207 502.808 438.537 515.707C452.867 528.606 478.661 525.74 472.929 507.108C468.774 493.492 448.998 460.528 438.681 443.903C434.382 437.023 431.086 429.57 428.936 421.688C420.338 390.443 399.13 309.323 408.444 292.124C419.908 270.626 428.506 217.596 412.743 217.596C396.98 217.596 282.34 266.326 282.34 266.326Z" fill="#2E5A9C"/>
<path d="M275.317 271.057C275.317 271.057 259.411 395.317 240.782 415.383C222.153 435.448 194.926 502.809 196.359 514.275C197.792 525.741 166.266 577.337 189.194 575.904C212.122 574.471 255.112 541.506 247.947 535.774C240.782 530.041 306.7 262.027 306.7 262.027L275.317 271.057Z" fill="#3F7AD3"/>
<path d="M429.807 225.911C422.929 225.481 416.337 228.491 412.038 233.937C398.997 250.133 372.917 288.257 392.836 313.768C418.63 346.732 431.527 328.1 430.094 330.967C428.661 333.833 367.041 438.459 369.907 439.892C372.773 441.325 392.836 465.69 407.166 454.224C421.496 442.758 457.321 388.296 470.218 376.83C483.115 365.364 518.94 339.566 514.641 322.367C510.342 305.169 480.249 283.67 477.383 267.905C474.66 253.572 461.62 227.631 429.807 225.911Z" fill="#3F7AD3"/>
<path d="M452.874 505.674C452.874 505.674 454.307 687.694 432.812 712.059C411.317 736.424 435.678 752.189 417.049 776.554C398.42 800.919 386.956 799.486 376.925 786.587C366.894 773.688 376.925 598.834 376.925 598.834L409.884 517.14L452.874 505.674Z" fill="#3F7AD3"/>
<path d="M372.628 438.314C372.628 438.314 345.401 461.246 346.834 471.278C348.267 481.311 346.834 489.91 355.432 491.344C364.03 492.777 369.762 495.643 376.927 494.21C384.092 492.777 386.958 495.643 396.989 488.477C407.02 481.311 411.319 485.611 411.319 485.611C411.319 485.611 434.247 488.477 431.381 479.878C427.082 475.578 418.484 479.878 417.051 474.145C415.618 468.412 417.051 452.646 408.453 449.78C399.855 446.914 372.198 435.734 372.198 435.734" fill="#FFCBC8"/>
<path d="M59.0925 307.889C59.0925 307.889 43.6161 338.704 54.6502 336.554C65.6844 334.404 74.4257 303.59 74.4257 303.59C73.4226 299.72 68.6937 298.43 65.8277 301.153L59.0925 307.889Z" fill="#FFCBC8"/>
<path d="M51.352 342.575C55.7943 344.008 63.5325 343.865 76.4296 340.855C84.741 340.855 93.339 353.754 93.339 353.754L105.09 352.894L120.566 333.689L104.803 316.49C104.803 316.49 99.5009 315.63 93.9122 308.034C84.741 295.422 67.2583 292.125 54.218 300.581C42.0375 308.607 42.6107 324.086 46.0499 329.389C47.1963 331.109 46.0499 333.689 53.2149 333.689C56.3675 333.689 56.9407 308.321 63.2459 310.757C69.981 313.337 79.7255 313.767 57.084 327.096" fill="#FFCBC8"/>
<path d="M104.229 276.36L22.9773 378.405L18.9648 375.252L100.216 273.207L104.229 276.36Z" fill="#5C404E"/>
<path d="M51.3469 342.573C51.3469 342.573 33.1478 337.986 43.1788 330.82C53.2098 323.654 70.4058 332.254 70.4058 332.254L51.3469 342.573Z" fill="#FFCBC8"/>
<path d="M20.9662 373.819C20.9662 373.819 26.125 370.236 25.8384 375.109C25.8384 376.112 25.4085 376.972 24.692 377.546C15.8073 385.572 8.64233 390.731 10.2186 385.285C11.6516 379.552 17.8135 375.253 20.9662 373.819Z" fill="#F87980"/>
<path d="M415.611 350.888C415.611 350.888 442.838 376.686 432.807 391.018C422.776 405.351 407.013 418.25 396.982 431.149C386.951 444.048 382.652 461.246 376.92 452.647C371.188 444.048 361.157 438.315 368.322 425.416C375.487 412.517 386.951 405.351 389.817 398.184C392.683 391.018 408.446 348.021 415.611 350.888Z" fill="#3F7AD3"/>
<path d="M404.147 446.913C404.147 446.913 391.25 461.246 401.281 459.812C411.312 458.379 428.508 431.148 437.106 425.415C445.704 419.682 457.168 412.516 462.9 406.783C468.632 401.05 465.766 401.05 464.333 399.617C458.887 394.171 445.704 392.451 445.704 396.75C445.704 401.05 404.147 446.913 404.147 446.913Z" fill="#3F7AD3"/>
<path d="M166.264 352.465C166.264 352.465 179.305 374.25 162.968 385.859C146.632 397.468 132.159 398.184 123.704 388.582C115.249 378.836 74.4089 352.321 79.2811 348.165C84.5832 343.722 118.402 356.621 112.957 324.23C112.67 322.797 113.816 321.507 115.249 321.507C129.006 322.223 165.834 351.175 166.264 352.465Z" fill="#3F7AD3"/>
<path d="M385.812 181.623C403.438 172.45 422.784 167.577 442.702 167.577C461.618 167.577 479.387 169.154 478.098 175.317C475.232 188.216 482.397 192.515 466.634 201.115C450.871 209.714 437.974 225.479 422.211 231.212C406.447 236.945 320.467 294.274 300.405 285.675C280.343 277.076 220.157 234.079 258.848 214.014C297.539 193.949 306.137 196.385 311.869 198.248C318.891 200.541 361.594 194.092 385.812 181.623Z" fill="#FFF1F0"/>
<path d="M381.53 27.5193C354.1 25.3453 272.832 22.1483 270.274 59.8731C270.21 60.5764 270.21 61.2798 270.082 61.9831C268.484 75.1549 252.69 214.033 294.188 222.921C296.553 223.433 298.855 224.328 301.029 225.479C343.166 247.218 369.062 227.844 378.909 209.941C389.778 190.12 403.845 158.789 406.403 128.737C409.408 93.6975 408.961 66.7147 402.439 39.2204C400.52 31.036 389.842 28.1587 381.53 27.5193Z" fill="#FFCBC8"/>
<path opacity="0.12" d="M338.96 89.7978C337.617 88.9666 335.891 89.542 335.316 91.0127C330.776 102.266 303.758 155.193 314.983 157.511C325.806 159.092 347.592 147.28 341.198 142.804C334.804 138.329 330.328 122.983 334.165 114.671C337.17 108.149 341.837 92.2915 340.559 91.0127C340.175 90.5651 339.6 90.1175 338.96 89.7978Z" fill="#F87980"/>
<path d="M353.662 88.6466C358.841 88.199 377.128 87.4317 383.522 96.831C383.969 97.4704 383.778 98.3016 383.138 98.7492C371.245 106.486 354.685 107.189 352.447 90.2451C352.383 89.4139 352.894 88.7105 353.662 88.6466Z" fill="white"/>
<path d="M285.876 92.0355C291.311 89.1582 308.959 80.9099 316.887 91.3322C317.271 91.8437 317.271 92.611 316.824 93.1225C303.46 108.532 291.311 100.092 285.557 94.2735C284.917 93.5701 285.045 92.4831 285.876 92.0355Z" fill="white"/>
<path d="M293.56 88.5187C293.56 88.5187 293.368 99.5165 294.264 100.412C295.159 101.307 302.256 102.777 304.494 101.69C306.732 100.603 311.911 89.4139 309.29 86.6645C306.668 83.979 293.56 88.5187 293.56 88.5187Z" fill="#2C1E25"/>
<path d="M362.868 88.4565C362.868 88.4565 375.272 89.4796 377.958 91.9093C379.876 97.1524 376.679 102.459 373.674 103.355C369.837 104.442 362.612 103.994 361.909 103.227C361.269 102.396 358.584 94.0833 362.868 88.4565Z" fill="#2C1E25"/>
<path d="M314.026 188.46C318.694 188.972 329.436 189.931 336.149 187.949C337.044 187.693 337.94 187.501 338.899 187.373C341.265 187.117 346.06 186.414 348.937 185.263C349.897 184.879 350.728 186.03 350.088 186.862C345.101 192.616 328.604 197.731 323.361 197.156C318.949 196.708 315.113 192.552 313.195 190.059C312.619 189.355 313.131 188.396 314.026 188.46Z" fill="#2C1E25"/>
<path d="M331.542 171.515C333.268 168.318 336.081 165.888 339.342 164.481C348.486 160.517 371.504 152.46 379.241 166.272C380.967 169.405 383.461 171.515 386.402 172.666C395.866 176.502 402.26 172.41 405.712 168.765C406.16 168.318 406.927 168.829 406.607 169.405C401.364 179.443 387.361 199.329 366.453 175.351C366.389 175.287 366.325 175.223 366.261 175.223C353.537 169.021 336.913 182.96 331.861 178.868C329.559 176.886 330.199 174.008 331.542 171.515Z" fill="#F87980"/>
<path d="M317.736 165.121C311.47 163.266 297.85 160.837 283.4 168.701C282.249 169.341 280.906 169.661 279.627 169.597C266.967 169.341 260.381 166.591 257.312 164.609C256.801 164.29 256.161 164.929 256.545 165.44C259.998 170.236 269.653 179.124 292.16 175.415C294.589 175.032 297.083 175.159 299.449 175.735C316.904 180.211 321.636 176.63 322.403 172.666C323.107 169.341 320.997 166.08 317.736 165.121Z" fill="#F87980"/>
<path d="M322.009 202.908C322.009 202.908 337.994 197.793 337.994 203.548C337.994 209.302 339.273 216.975 337.994 222.09C336.716 227.206 332.24 245.748 330.961 241.912C329.682 238.075 325.846 230.403 325.206 222.73C324.567 215.057 318.812 204.187 322.009 202.908Z" fill="#F87980"/>
<path d="M352.718 46.8904C352.718 46.8904 292.486 51.8138 280.465 73.7453C268.445 95.6769 303.484 108.913 286.859 124.898C270.235 140.883 234.428 170.295 244.659 121.701C254.889 73.1059 235.707 57.1209 267.038 36.6599C297.665 16.6466 374.649 7.1195 387.118 10.7641C387.757 10.9559 388.397 11.0838 389.036 11.2117C391.785 11.6593 398.691 13.5135 400.673 20.6749C403.231 29.6265 456.941 152.392 424.971 151.113C393 149.834 391.722 156.868 398.116 132.57C404.51 108.273 410.904 81.4182 394.279 73.7453C377.655 66.0725 349.521 73.7453 349.521 62.2361C349.521 50.7268 355.276 47.5298 352.718 46.8904Z" fill="#F87980"/>
<path d="M289.399 73.749C289.399 73.749 306.663 76.3066 310.499 77.5854C314.336 78.8643 318.172 80.7825 318.812 83.3401C319.451 85.8977 292.596 80.1431 290.678 79.5037C288.76 78.8643 283.644 74.3884 289.399 73.749Z" fill="#F87980"/>
<path d="M361.009 76.4343C362.991 75.6031 365.293 75.8588 367.147 76.8819C373.605 80.3986 391.188 90.1815 389.142 92.2915C386.585 94.8491 376.994 86.5369 370.6 84.6187C365.165 82.9562 355.893 78.4804 361.009 76.4343Z" fill="#F87980"/>
</svg>
