<svg width="632" height="770" viewBox="0 0 632 770" fill="none" xmlns="http://www.w3.org/2000/svg">
<mask id="path-1-outside-1" maskUnits="userSpaceOnUse" x="0" y="0" width="632" height="1387" fill="black">
<rect fill="white" width="632" height="1387"/>
<path fill-rule="evenodd" clip-rule="evenodd" d="M293.121 86.6405C295.274 70.6524 290.103 36.6913 287.248 21.7093C310.985 7.43426 380.647 8.57627 393.536 12.818C384.178 39.3525 386.907 68.1028 389.416 83.3206C398.875 79.219 418.493 76.0712 415.979 88.3523C413.756 99.215 401.819 102.353 395.669 102.613C396.335 106.628 396.642 121.279 395.774 138.072L395.737 138.057L395.678 138.034C395.002 151.1 393.614 165.462 391.13 177.119C392.468 177.391 393.817 177.711 395.175 178.083C418.994 184.609 428.084 179.062 430.821 171.965C433.024 166.255 424.54 156.059 415.894 170.171C418.015 162.666 424.296 146.27 444.689 154.346C465.082 162.421 451.949 193.998 427.395 195.947C412.12 197.16 399.394 195.8 386.354 192.52C384.692 196.184 382.73 199.434 380.578 202.311C380.511 203.455 380.432 204.659 380.339 205.909C381.274 207.225 384.603 213.031 388.82 220.757C402.048 233.733 441.583 260.05 495.555 262.917L495.556 262.916L495.556 262.917L495.583 262.918L495.558 262.921C512.472 295.281 547.795 368.521 553.798 402.649C558.753 430.818 561.503 436.369 564.984 443.394C566.775 447.008 568.759 451.013 571.336 458.689C578.922 481.284 578.84 523.946 557.958 557.391C541.564 583.647 511.008 629.712 490.815 653.55C490.99 654.335 491.164 655.121 491.337 655.909C507.725 653.048 526.587 648.309 544.589 643.786L544.594 643.784L544.598 643.783L544.601 643.783L544.603 643.782L544.605 643.782L544.607 643.781L544.608 643.781C575.323 636.063 603.526 628.976 612.642 632.927C627.325 639.289 621.289 665.555 617.455 678.036C613.621 690.516 601.467 685.704 606.606 670.042C611.745 654.38 601.467 648.915 596.328 646.712C592.258 644.968 563.626 651.001 543.665 655.208L543.661 655.209L543.651 655.211C538.416 656.314 533.777 657.291 530.336 657.969C527.333 658.561 513.858 661.567 493.568 666.148C497.577 684.768 501.497 704.104 505.372 723.228C509.704 744.609 515.888 768.95 522.098 793.388L522.099 793.392L522.099 793.393C534.13 840.743 546.255 888.46 545.179 915.737C543.874 948.823 518.097 961.336 505.372 963.457C500.786 963.918 495.656 964.452 490.135 965.047C499.772 1000.59 505.024 1079.37 506.517 1117.3C504.668 1136.96 502.08 1185.51 506.517 1222.45C509.225 1244.99 508.725 1262.24 505.55 1274.36C526.661 1276.93 530.767 1304.32 531.967 1315.76C533.191 1327.43 527.236 1330.04 507.414 1322.7C494.08 1317.76 488.386 1304.67 486.588 1295.89C469.904 1297.45 448.992 1247.35 437.181 1152.38C428.833 1085.25 408.187 1018.12 392.643 977.889C384.907 979.212 378.024 980.537 372.444 981.831C366.314 1077.69 364.501 1305.35 364.501 1330.37C364.175 1330.65 363.849 1330.93 363.524 1331.2V1345.94C355.106 1355.99 329.182 1362.86 317.273 1365.03V1351.08C307.674 1359.27 282.719 1375.75 259.683 1376.21C230.888 1376.78 240.595 1358.51 259.683 1347.9C272.075 1341.02 288.348 1329.58 298.679 1321.97C300.69 1298.56 290.426 1106.58 283.255 1068.28C278.978 1045.43 268.523 985.458 260.275 937.752C260.152 958.104 260.147 973.598 260.254 979.199C260.447 989.313 257.37 995.134 251.766 996.809C245.552 999.368 235.793 996.201 223.693 987.545C201.913 971.965 196.611 946.596 195.714 915.028C195.001 889.953 200.464 847.227 205.194 810.231C206.419 800.649 207.595 791.451 208.602 783.045C210.795 764.737 211.862 745.763 212.319 730.269C205.632 731.8 199.24 733.263 193.2 734.647C190.512 735.385 187.668 736.164 184.69 736.976C179.624 749.726 170.418 755.56 166.117 753.655C160.961 751.371 164.73 745.416 167.259 742.724C167.451 742.356 167.646 741.961 167.84 741.547C163.811 742.634 159.646 743.753 155.382 744.895C155.55 746.127 155.879 747.072 156.328 747.537C158.694 749.984 160.651 756.836 159.591 757.896C159.551 757.937 159.509 757.979 159.466 758.023C158.777 758.726 157.755 759.768 155.511 758.67C154.243 758.05 152.585 756.747 150.377 754.313C153.185 759.481 149.962 764.227 146.261 762.828C145.998 762.729 145.732 762.598 145.466 762.434C144.809 762.031 144.149 761.425 143.517 760.586C140.884 756.652 138.998 753.007 137.688 749.604L136.492 749.921C137.128 753.256 137.417 756.861 136.669 759.936C135.93 762.976 133.597 763.802 131.026 762.841C130.566 762.67 130.098 762.441 129.631 762.157C127.522 760.878 125.414 758.485 124.022 755.203C123.775 754.622 123.564 754.009 123.384 753.37C78.0073 765.252 31.475 776.807 20.5124 777.472C3.28449 778.516 13.3341 771.544 20.5124 767.928C41.5872 762.734 77.3026 752.968 110.914 743.58C111.367 737.908 113.606 730.549 116.762 724.124C121.562 714.352 135.094 704.659 143.588 699.625C142.653 699.309 141.863 699.044 141.241 698.837C141.502 688.33 159.078 607.775 167.833 568.811C171.474 550.539 176.297 510.237 179.076 487.022C179.721 481.633 180.255 477.165 180.64 474.106C182.271 461.12 189.15 412.955 192.386 390.495C192.957 375.975 195.828 340.084 202.746 312.676C210.433 282.215 223.344 272.324 230.47 268.556L230.558 268.358C231.023 268.132 231.455 267.932 231.85 267.756C233.4 267.062 235.471 266.129 237.926 264.957L238.023 265.01C243.779 262.299 251.972 258.148 260.601 252.578C262.968 251.046 265.368 249.408 267.758 247.663C278.661 239.705 291.89 224.844 297.813 217.607C298.076 212.991 298.266 208.375 298.228 205.204C297.652 204.25 297.108 203.248 296.6 202.195C283.519 204.873 273.672 204.56 266.611 202.31C251.765 197.578 237.734 181.02 239.447 163.074C240.817 148.717 255.136 143.007 262.124 141.946C268.894 141.539 282.24 143.839 281.457 156.303C280.673 168.767 271.233 168.675 266.611 167.071C286.025 158.832 249.317 149.206 257.311 171.639C260.596 177.566 271.669 186.642 291.128 180.141C286.103 149.16 286.103 127.942 286.103 110.87L286.035 110.866C269.966 110.05 263.195 99.854 271.108 91.2073C276.674 85.1242 287.065 85.4505 293.226 86.6717C293.19 86.6612 293.155 86.6508 293.121 86.6405ZM395.584 102.62L395.613 102.615L395.584 102.616L395.584 102.62ZM139.192 714.997C138.79 716.886 138.272 718.796 137.74 720.755C136.416 725.636 135.007 730.828 135.107 736.788L134.208 737.042C134.886 729.503 137.977 716.562 139.192 714.997ZM123.131 738.226C123.033 738.868 122.941 739.541 122.86 740.235L122.667 740.289C122.83 739.591 122.985 738.899 123.131 738.226ZM495.219 262.968C493.91 263.151 492.621 263.396 491.355 263.702C493.127 263.31 494.587 263.067 495.219 262.968ZM476.728 416.873C472.534 426.74 463.097 454.12 458.794 484.956C457.918 491.239 457.065 496.573 456.317 501.248L456.316 501.254L456.316 501.255C452.473 525.286 451.409 531.935 464.178 560.818C464.364 561.238 464.549 561.662 464.734 562.091C479.35 541.427 492.578 519.56 495.556 506.327C502.013 477.63 485.704 434.755 476.728 416.873ZM212.586 716.794C212.637 711.477 212.612 706.975 212.547 703.579C210.482 707.241 206.983 713.316 203.586 718.84C205.128 718.489 206.687 718.135 208.26 717.777C209.69 717.452 211.132 717.124 212.586 716.794ZM198.633 719.967C196.153 718.782 192.492 717.265 188.188 715.585C188.252 717.958 188.185 720.226 188.006 722.389C191.442 721.605 194.988 720.797 198.633 719.967ZM163.868 728.63C163.502 728.71 163.15 728.811 162.81 728.932L163.868 728.63Z"/>
</mask>
<path fill-rule="evenodd" clip-rule="evenodd" d="M293.121 86.6405C295.274 70.6524 290.103 36.6913 287.248 21.7093C310.985 7.43426 380.647 8.57627 393.536 12.818C384.178 39.3525 386.907 68.1028 389.416 83.3206C398.875 79.219 418.493 76.0712 415.979 88.3523C413.756 99.215 401.819 102.353 395.669 102.613C396.335 106.628 396.642 121.279 395.774 138.072L395.737 138.057L395.678 138.034C395.002 151.1 393.614 165.462 391.13 177.119C392.468 177.391 393.817 177.711 395.175 178.083C418.994 184.609 428.084 179.062 430.821 171.965C433.024 166.255 424.54 156.059 415.894 170.171C418.015 162.666 424.296 146.27 444.689 154.346C465.082 162.421 451.949 193.998 427.395 195.947C412.12 197.16 399.394 195.8 386.354 192.52C384.692 196.184 382.73 199.434 380.578 202.311C380.511 203.455 380.432 204.659 380.339 205.909C381.274 207.225 384.603 213.031 388.82 220.757C402.048 233.733 441.583 260.05 495.555 262.917L495.556 262.916L495.556 262.917L495.583 262.918L495.558 262.921C512.472 295.281 547.795 368.521 553.798 402.649C558.753 430.818 561.503 436.369 564.984 443.394C566.775 447.008 568.759 451.013 571.336 458.689C578.922 481.284 578.84 523.946 557.958 557.391C541.564 583.647 511.008 629.712 490.815 653.55C490.99 654.335 491.164 655.121 491.337 655.909C507.725 653.048 526.587 648.309 544.589 643.786L544.594 643.784L544.598 643.783L544.601 643.783L544.603 643.782L544.605 643.782L544.607 643.781L544.608 643.781C575.323 636.063 603.526 628.976 612.642 632.927C627.325 639.289 621.289 665.555 617.455 678.036C613.621 690.516 601.467 685.704 606.606 670.042C611.745 654.38 601.467 648.915 596.328 646.712C592.258 644.968 563.626 651.001 543.665 655.208L543.661 655.209L543.651 655.211C538.416 656.314 533.777 657.291 530.336 657.969C527.333 658.561 513.858 661.567 493.568 666.148C497.577 684.768 501.497 704.104 505.372 723.228C509.704 744.609 515.888 768.95 522.098 793.388L522.099 793.392L522.099 793.393C534.13 840.743 546.255 888.46 545.179 915.737C543.874 948.823 518.097 961.336 505.372 963.457C500.786 963.918 495.656 964.452 490.135 965.047C499.772 1000.59 505.024 1079.37 506.517 1117.3C504.668 1136.96 502.08 1185.51 506.517 1222.45C509.225 1244.99 508.725 1262.24 505.55 1274.36C526.661 1276.93 530.767 1304.32 531.967 1315.76C533.191 1327.43 527.236 1330.04 507.414 1322.7C494.08 1317.76 488.386 1304.67 486.588 1295.89C469.904 1297.45 448.992 1247.35 437.181 1152.38C428.833 1085.25 408.187 1018.12 392.643 977.889C384.907 979.212 378.024 980.537 372.444 981.831C366.314 1077.69 364.501 1305.35 364.501 1330.37C364.175 1330.65 363.849 1330.93 363.524 1331.2V1345.94C355.106 1355.99 329.182 1362.86 317.273 1365.03V1351.08C307.674 1359.27 282.719 1375.75 259.683 1376.21C230.888 1376.78 240.595 1358.51 259.683 1347.9C272.075 1341.02 288.348 1329.58 298.679 1321.97C300.69 1298.56 290.426 1106.58 283.255 1068.28C278.978 1045.43 268.523 985.458 260.275 937.752C260.152 958.104 260.147 973.598 260.254 979.199C260.447 989.313 257.37 995.134 251.766 996.809C245.552 999.368 235.793 996.201 223.693 987.545C201.913 971.965 196.611 946.596 195.714 915.028C195.001 889.953 200.464 847.227 205.194 810.231C206.419 800.649 207.595 791.451 208.602 783.045C210.795 764.737 211.862 745.763 212.319 730.269C205.632 731.8 199.24 733.263 193.2 734.647C190.512 735.385 187.668 736.164 184.69 736.976C179.624 749.726 170.418 755.56 166.117 753.655C160.961 751.371 164.73 745.416 167.259 742.724C167.451 742.356 167.646 741.961 167.84 741.547C163.811 742.634 159.646 743.753 155.382 744.895C155.55 746.127 155.879 747.072 156.328 747.537C158.694 749.984 160.651 756.836 159.591 757.896C159.551 757.937 159.509 757.979 159.466 758.023C158.777 758.726 157.755 759.768 155.511 758.67C154.243 758.05 152.585 756.747 150.377 754.313C153.185 759.481 149.962 764.227 146.261 762.828C145.998 762.729 145.732 762.598 145.466 762.434C144.809 762.031 144.149 761.425 143.517 760.586C140.884 756.652 138.998 753.007 137.688 749.604L136.492 749.921C137.128 753.256 137.417 756.861 136.669 759.936C135.93 762.976 133.597 763.802 131.026 762.841C130.566 762.67 130.098 762.441 129.631 762.157C127.522 760.878 125.414 758.485 124.022 755.203C123.775 754.622 123.564 754.009 123.384 753.37C78.0073 765.252 31.475 776.807 20.5124 777.472C3.28449 778.516 13.3341 771.544 20.5124 767.928C41.5872 762.734 77.3026 752.968 110.914 743.58C111.367 737.908 113.606 730.549 116.762 724.124C121.562 714.352 135.094 704.659 143.588 699.625C142.653 699.309 141.863 699.044 141.241 698.837C141.502 688.33 159.078 607.775 167.833 568.811C171.474 550.539 176.297 510.237 179.076 487.022C179.721 481.633 180.255 477.165 180.64 474.106C182.271 461.12 189.15 412.955 192.386 390.495C192.957 375.975 195.828 340.084 202.746 312.676C210.433 282.215 223.344 272.324 230.47 268.556L230.558 268.358C231.023 268.132 231.455 267.932 231.85 267.756C233.4 267.062 235.471 266.129 237.926 264.957L238.023 265.01C243.779 262.299 251.972 258.148 260.601 252.578C262.968 251.046 265.368 249.408 267.758 247.663C278.661 239.705 291.89 224.844 297.813 217.607C298.076 212.991 298.266 208.375 298.228 205.204C297.652 204.25 297.108 203.248 296.6 202.195C283.519 204.873 273.672 204.56 266.611 202.31C251.765 197.578 237.734 181.02 239.447 163.074C240.817 148.717 255.136 143.007 262.124 141.946C268.894 141.539 282.24 143.839 281.457 156.303C280.673 168.767 271.233 168.675 266.611 167.071C286.025 158.832 249.317 149.206 257.311 171.639C260.596 177.566 271.669 186.642 291.128 180.141C286.103 149.16 286.103 127.942 286.103 110.87L286.035 110.866C269.966 110.05 263.195 99.854 271.108 91.2073C276.674 85.1242 287.065 85.4505 293.226 86.6717C293.19 86.6612 293.155 86.6508 293.121 86.6405ZM395.584 102.62L395.613 102.615L395.584 102.616L395.584 102.62ZM139.192 714.997C138.79 716.886 138.272 718.796 137.74 720.755C136.416 725.636 135.007 730.828 135.107 736.788L134.208 737.042C134.886 729.503 137.977 716.562 139.192 714.997ZM123.131 738.226C123.033 738.868 122.941 739.541 122.86 740.235L122.667 740.289C122.83 739.591 122.985 738.899 123.131 738.226ZM495.219 262.968C493.91 263.151 492.621 263.396 491.355 263.702C493.127 263.31 494.587 263.067 495.219 262.968ZM476.728 416.873C472.534 426.74 463.097 454.12 458.794 484.956C457.918 491.239 457.065 496.573 456.317 501.248L456.316 501.254L456.316 501.255C452.473 525.286 451.409 531.935 464.178 560.818C464.364 561.238 464.549 561.662 464.734 562.091C479.35 541.427 492.578 519.56 495.556 506.327C502.013 477.63 485.704 434.755 476.728 416.873ZM212.586 716.794C212.637 711.477 212.612 706.975 212.547 703.579C210.482 707.241 206.983 713.316 203.586 718.84C205.128 718.489 206.687 718.135 208.26 717.777C209.69 717.452 211.132 717.124 212.586 716.794ZM198.633 719.967C196.153 718.782 192.492 717.265 188.188 715.585C188.252 717.958 188.185 720.226 188.006 722.389C191.442 721.605 194.988 720.797 198.633 719.967ZM163.868 728.63C163.502 728.71 163.15 728.811 162.81 728.932L163.868 728.63Z" fill="#DBA89A"/>
<path d="M287.248 21.7093L282.094 13.1396C278.504 15.2985 276.64 19.4662 277.424 23.5813L287.248 21.7093ZM293.121 86.6405L283.21 85.3056C282.555 90.1718 285.529 94.7939 290.23 96.2134L293.121 86.6405ZM393.536 12.818L402.966 16.1438C403.861 13.6082 403.696 10.8192 402.51 8.40628C401.324 5.99336 399.216 4.15976 396.662 3.31921L393.536 12.818ZM389.416 83.3206L379.549 84.9474C380.05 87.9871 381.925 90.626 384.629 92.1006C387.334 93.5752 390.568 93.7208 393.394 92.4952L389.416 83.3206ZM415.979 88.3523L406.182 86.3471L406.182 86.3471L415.979 88.3523ZM395.669 102.613L395.247 92.6214C392.385 92.7421 389.712 94.0845 387.906 96.3083C386.1 98.5321 385.335 101.424 385.804 104.25L395.669 102.613ZM395.774 138.072L392.107 147.375C395.101 148.556 398.48 148.223 401.186 146.481C403.892 144.74 405.595 141.802 405.761 138.588L395.774 138.072ZM395.737 138.057L392.016 147.34C392.034 147.347 392.052 147.354 392.07 147.361L395.737 138.057ZM395.678 138.034L399.399 128.752C396.403 127.551 393.011 127.87 390.291 129.609C387.571 131.348 385.859 134.293 385.692 137.517L395.678 138.034ZM391.13 177.119L381.35 175.034C380.794 177.644 381.303 180.367 382.765 182.599C384.227 184.83 386.52 186.385 389.134 186.918L391.13 177.119ZM395.175 178.083L397.817 168.439L397.817 168.439L395.175 178.083ZM430.821 171.965L440.151 175.564V175.564L430.821 171.965ZM415.894 170.171L406.271 167.451C404.912 172.257 407.309 177.329 411.884 179.332C416.46 181.334 421.811 179.654 424.421 175.395L415.894 170.171ZM427.395 195.947L426.604 185.979L427.395 195.947ZM386.354 192.52L388.793 182.823C384.105 181.643 379.245 183.987 377.248 188.389L386.354 192.52ZM380.578 202.311L372.571 196.321C371.396 197.891 370.709 199.772 370.595 201.73L380.578 202.311ZM380.339 205.909L370.367 205.17C370.195 207.49 370.837 209.798 372.184 211.696L380.339 205.909ZM388.82 220.757L380.042 225.547C380.514 226.413 381.113 227.205 381.817 227.895L388.82 220.757ZM495.555 262.917L495.024 272.902C495.688 272.938 496.353 272.907 497.01 272.81L495.555 262.917ZM495.556 262.916L504.238 257.955C502.196 254.381 498.173 252.424 494.101 253.023L495.556 262.916ZM495.556 262.917L486.873 267.878C488.56 270.83 491.632 272.723 495.028 272.903L495.556 262.917ZM495.583 262.918L496.888 272.833C502.011 272.158 505.777 267.692 505.576 262.528C505.374 257.365 501.272 253.205 496.111 252.932L495.583 262.918ZM495.558 262.921L494.254 253.007C491.016 253.433 488.19 255.413 486.684 258.311C485.179 261.209 485.183 264.659 486.696 267.554L495.558 262.921ZM553.798 402.649L543.949 404.381L553.798 402.649ZM564.984 443.394L556.023 447.833L564.984 443.394ZM571.336 458.689L580.816 455.506V455.506L571.336 458.689ZM557.958 557.391L566.44 562.687L557.958 557.391ZM490.815 653.55L483.185 647.087C481.164 649.472 480.375 652.666 481.053 655.718L490.815 653.55ZM491.337 655.909L481.572 658.064C482.725 663.289 487.787 666.68 493.057 665.76L491.337 655.909ZM544.589 643.786L542.242 634.065C542.212 634.072 542.182 634.08 542.152 634.087L544.589 643.786ZM544.594 643.784L546.94 653.505C547.036 653.482 547.13 653.458 547.225 653.432L544.594 643.784ZM544.598 643.783L542.307 634.049C542.193 634.076 542.08 634.105 541.967 634.136L544.598 643.783ZM544.601 643.783L542.352 634.039C542.339 634.042 542.325 634.045 542.311 634.048L544.601 643.783ZM544.603 643.782L546.852 653.526C547.062 653.478 547.27 653.422 547.477 653.36L544.603 643.782ZM544.605 643.782L542.18 634.08C542.03 634.118 541.88 634.159 541.732 634.203L544.605 643.782ZM544.607 643.781L542.963 633.917C542.7 633.961 542.44 634.015 542.181 634.08L544.607 643.781ZM544.608 643.781L546.252 653.645C546.518 653.601 546.783 653.545 547.045 653.479L544.608 643.781ZM612.642 632.927L616.618 623.751L612.642 632.927ZM617.455 678.036L607.896 675.099L617.455 678.036ZM596.328 646.712L600.267 637.521L600.267 637.521L596.328 646.712ZM543.665 655.208L541.603 645.422C541.541 645.436 541.479 645.449 541.417 645.464L543.665 655.208ZM543.661 655.209L545.769 664.984C545.816 664.974 545.862 664.963 545.909 664.953L543.661 655.209ZM543.651 655.211L545.713 664.996C545.729 664.993 545.744 664.989 545.76 664.986L543.651 655.211ZM530.336 657.969L528.403 648.158H528.403L530.336 657.969ZM493.568 666.148L491.366 656.393C486.017 657.601 482.638 662.892 483.792 668.253L493.568 666.148ZM505.372 723.228L495.571 725.213V725.213L505.372 723.228ZM522.098 793.388L531.799 790.962C531.796 790.95 531.793 790.938 531.79 790.925L522.098 793.388ZM522.099 793.392L512.397 795.818C512.406 795.854 512.416 795.89 512.425 795.926L522.099 793.392ZM522.099 793.393L531.791 790.931C531.785 790.907 531.779 790.883 531.773 790.86L522.099 793.393ZM545.179 915.737L555.171 916.131L545.179 915.737ZM505.372 963.457L506.372 973.406C506.588 973.385 506.802 973.356 507.016 973.321L505.372 963.457ZM490.135 965.047L489.063 955.105C486.154 955.418 483.528 956.99 481.878 959.406C480.227 961.822 479.718 964.84 480.484 967.664L490.135 965.047ZM506.517 1117.3L516.473 1118.24C516.515 1117.8 516.527 1117.35 516.509 1116.91L506.517 1117.3ZM506.517 1222.45L496.589 1223.64L506.517 1222.45ZM505.55 1274.36L495.876 1271.83C495.145 1274.62 495.656 1277.59 497.278 1279.98C498.901 1282.37 501.476 1283.94 504.342 1284.29L505.55 1274.36ZM531.967 1315.76L522.022 1316.8L531.967 1315.76ZM507.414 1322.7L503.941 1332.07H503.941L507.414 1322.7ZM486.588 1295.89L496.385 1293.88C495.361 1288.88 490.739 1285.46 485.658 1285.93L486.588 1295.89ZM437.181 1152.38L427.258 1153.61L437.181 1152.38ZM392.643 977.889L401.971 974.285C400.256 969.845 395.649 967.229 390.957 968.032L392.643 977.889ZM372.444 981.831L370.186 972.089C365.884 973.086 362.746 976.786 362.464 981.192L372.444 981.831ZM364.501 1330.37L371.066 1337.91C373.248 1336.01 374.501 1333.26 374.501 1330.37H364.501ZM363.524 1331.2L357.117 1323.52C354.84 1325.42 353.524 1328.23 353.524 1331.2H363.524ZM363.524 1345.94L371.19 1352.36C372.697 1350.56 373.524 1348.29 373.524 1345.94H363.524ZM317.273 1365.03H307.273C307.273 1368 308.59 1370.81 310.868 1372.71C313.147 1374.61 316.151 1375.4 319.069 1374.87L317.273 1365.03ZM317.273 1351.08H327.273C327.273 1347.18 325.004 1343.64 321.463 1342C317.921 1340.37 313.752 1340.94 310.784 1343.47L317.273 1351.08ZM259.683 1376.21L259.484 1366.21H259.484L259.683 1376.21ZM259.683 1347.9L254.826 1339.16H254.826L259.683 1347.9ZM298.679 1321.97L304.61 1330.02C306.927 1328.32 308.396 1325.7 308.642 1322.83L298.679 1321.97ZM283.255 1068.28L293.084 1066.44L283.255 1068.28ZM260.275 937.752L270.129 936.048C269.246 930.944 264.612 927.358 259.45 927.786C254.288 928.213 250.307 932.511 250.275 937.691L260.275 937.752ZM260.254 979.199L270.252 979.008L260.254 979.199ZM251.766 996.809L248.903 987.227C248.582 987.323 248.267 987.435 247.957 987.562L251.766 996.809ZM223.693 987.545L217.875 995.678H217.875L223.693 987.545ZM195.714 915.028L205.71 914.744L195.714 915.028ZM205.194 810.231L195.275 808.962L205.194 810.231ZM208.602 783.045L218.531 784.234V784.234L208.602 783.045ZM212.319 730.269L222.315 730.564C222.406 727.47 221.059 724.507 218.666 722.542C216.274 720.577 213.106 719.831 210.088 720.521L212.319 730.269ZM193.2 734.647L190.968 724.899C190.828 724.931 190.689 724.966 190.551 725.004L193.2 734.647ZM184.69 736.976L182.058 727.329C179.025 728.156 176.558 730.362 175.397 733.284L184.69 736.976ZM166.117 753.655L170.167 744.512L166.117 753.655ZM167.259 742.724L174.547 749.571C175.172 748.905 175.703 748.158 176.126 747.348L167.259 742.724ZM167.84 741.547L176.896 745.789C178.547 742.264 178.003 738.101 175.501 735.119C172.999 732.137 168.994 730.878 165.236 731.892L167.84 741.547ZM155.382 744.895L152.796 735.235C147.93 736.538 144.792 741.257 145.474 746.248L155.382 744.895ZM156.328 747.537L163.518 740.587L163.518 740.586L156.328 747.537ZM159.591 757.896L166.661 764.969L166.662 764.967L159.591 757.896ZM159.466 758.023L166.607 765.024L166.609 765.021L159.466 758.023ZM155.511 758.67L159.907 749.688L159.902 749.685L155.511 758.67ZM150.377 754.313L157.782 747.594C154.381 743.845 148.716 743.229 144.588 746.159C140.461 749.089 139.174 754.641 141.59 759.088L150.377 754.313ZM146.261 762.828L149.798 753.475L149.797 753.474L146.261 762.828ZM145.466 762.434L150.708 753.918L150.701 753.914L145.466 762.434ZM143.517 760.586L135.207 766.148C135.31 766.303 135.418 766.455 135.53 766.604L143.517 760.586ZM137.688 749.604L147.02 746.012C145.187 741.25 140.064 738.632 135.131 739.937L137.688 749.604ZM136.492 749.921L133.935 740.253C128.858 741.596 125.685 746.637 126.669 751.795L136.492 749.921ZM136.669 759.936L126.953 757.572H126.953L136.669 759.936ZM131.026 762.841L134.526 753.474L134.525 753.474L131.026 762.841ZM129.631 762.157L134.819 753.608L134.816 753.606L129.631 762.157ZM124.022 755.203L114.816 759.108L114.816 759.108L124.022 755.203ZM123.384 753.37L133.011 750.663C131.535 745.414 126.126 742.315 120.851 743.696L123.384 753.37ZM20.5124 777.472L21.1174 787.454H21.1174L20.5124 777.472ZM20.5124 767.928L18.1193 758.219C17.3903 758.398 16.6838 758.659 16.0133 758.997L20.5124 767.928ZM110.914 743.58L113.605 753.211C117.643 752.083 120.549 748.555 120.883 744.376L110.914 743.58ZM116.762 724.124L107.787 719.715L107.787 719.715L116.762 724.124ZM143.588 699.625L148.687 708.228C152.049 706.235 153.942 702.467 153.534 698.581C153.126 694.694 150.491 691.401 146.788 690.151L143.588 699.625ZM141.241 698.837L131.244 698.588C131.134 702.983 133.908 706.933 138.078 708.324L141.241 698.837ZM167.833 568.811L177.59 571.004C177.607 570.924 177.624 570.845 177.64 570.766L167.833 568.811ZM179.076 487.022L189.005 488.211H189.005L179.076 487.022ZM180.64 474.106L190.562 475.353L180.64 474.106ZM192.386 390.495L202.284 391.921C202.333 391.579 202.365 391.234 202.378 390.888L192.386 390.495ZM202.746 312.676L193.05 310.229L202.746 312.676ZM230.47 268.556L235.145 277.396C237.133 276.344 238.709 274.653 239.618 272.596L230.47 268.556ZM230.558 268.358L226.176 259.369C224.052 260.404 222.364 262.158 221.41 264.318L230.558 268.358ZM231.85 267.756L227.766 258.627L227.766 258.628L231.85 267.756ZM237.926 264.957L242.716 256.179C239.899 254.642 236.516 254.55 233.62 255.932L237.926 264.957ZM238.023 265.01L233.233 273.788C236.035 275.317 239.398 275.417 242.285 274.057L238.023 265.01ZM260.601 252.578L266.024 260.979L266.032 260.974L260.601 252.578ZM267.758 247.663L273.654 255.74V255.74L267.758 247.663ZM297.813 217.607L305.551 223.941C306.89 222.305 307.676 220.287 307.796 218.177L297.813 217.607ZM298.228 205.204L308.227 205.085C308.206 203.303 307.709 201.559 306.787 200.034L298.228 205.204ZM296.6 202.195L305.607 197.85C303.617 193.726 299.081 191.48 294.595 192.398L296.6 202.195ZM266.611 202.31L269.647 192.782L266.611 202.31ZM239.447 163.074L229.492 162.123L239.447 163.074ZM262.124 141.946L261.523 131.965C261.222 131.983 260.922 132.014 260.624 132.06L262.124 141.946ZM281.457 156.303L271.476 155.676V155.676L281.457 156.303ZM266.611 167.071L262.704 157.865C258.897 159.481 256.477 163.274 256.616 167.407C256.755 171.541 259.425 175.162 263.332 176.518L266.611 167.071ZM257.311 171.639L247.892 174.996C248.075 175.51 248.3 176.008 248.565 176.486L257.311 171.639ZM291.128 180.141L294.297 189.626C298.946 188.072 301.784 183.378 300.999 178.54L291.128 180.141ZM286.103 110.87H296.103C296.103 105.54 291.924 101.147 286.601 100.882L286.103 110.87ZM286.035 110.866L285.528 120.853L285.537 120.854L286.035 110.866ZM271.108 91.2073L278.485 97.9583V97.9583L271.108 91.2073ZM293.226 86.6717L291.281 96.4808C296.525 97.5203 301.659 94.2519 302.936 89.061C304.213 83.8701 301.182 78.5926 296.055 77.0803L293.226 86.6717ZM395.613 102.615L397.374 112.459C402.547 111.533 406.121 106.762 405.555 101.537C404.988 96.3126 400.475 92.4178 395.223 92.6224L395.613 102.615ZM395.584 102.62L385.712 104.215C386.14 106.862 387.613 109.226 389.8 110.777C391.987 112.328 394.706 112.936 397.345 112.464L395.584 102.62ZM395.584 102.616L395.194 92.6235C392.334 92.735 389.658 94.0671 387.845 96.2826C386.032 98.4981 385.255 101.384 385.712 104.211L395.584 102.616ZM137.74 720.755L128.09 718.136L128.09 718.136L137.74 720.755ZM139.192 714.997L148.973 717.076C149.943 712.516 147.632 707.891 143.404 705.928C139.175 703.964 134.151 705.183 131.293 708.866L139.192 714.997ZM135.107 736.788L137.822 746.412C142.191 745.18 145.182 741.159 145.105 736.62L135.107 736.788ZM134.208 737.042L124.248 736.146C123.954 739.423 125.29 742.635 127.822 744.737C130.353 746.838 133.757 747.559 136.923 746.666L134.208 737.042ZM122.86 740.235L125.562 749.863C129.465 748.767 132.321 745.423 132.792 741.396L122.86 740.235ZM123.131 738.226L133.016 739.741C133.834 734.4 130.262 729.375 124.949 728.393C119.636 727.411 114.503 730.826 113.358 736.107L123.131 738.226ZM122.667 740.289L112.928 738.02C112.126 741.463 113.201 745.073 115.756 747.516C118.311 749.959 121.966 750.872 125.369 749.917L122.667 740.289ZM495.219 262.968L496.77 272.847C502.194 271.995 505.918 266.928 505.11 261.497C504.303 256.066 499.267 252.301 493.829 253.065L495.219 262.968ZM491.355 263.702L489.007 253.982C483.675 255.27 480.377 260.612 481.613 265.956C482.849 271.299 488.158 274.65 493.513 273.466L491.355 263.702ZM458.794 484.956L468.698 486.338V486.338L458.794 484.956ZM476.728 416.873L485.665 412.387C483.917 408.904 480.306 406.754 476.411 406.878C472.517 407.001 469.048 409.375 467.525 412.962L476.728 416.873ZM456.317 501.248L446.442 499.669C446.439 499.693 446.435 499.717 446.431 499.74L456.317 501.248ZM456.316 501.254L466.145 503.097C466.166 502.985 466.185 502.874 466.202 502.762L456.316 501.254ZM456.316 501.255L446.487 499.412C446.471 499.5 446.455 499.588 446.441 499.676L456.316 501.255ZM464.178 560.818L473.324 556.775L473.324 556.775L464.178 560.818ZM464.734 562.091L455.552 566.052C456.984 569.372 460.097 571.66 463.694 572.036C467.29 572.413 470.809 570.818 472.898 567.866L464.734 562.091ZM495.556 506.327L485.8 504.132L495.556 506.327ZM212.547 703.579L222.545 703.388C222.459 698.88 219.366 694.986 214.994 693.883C210.621 692.78 206.051 694.74 203.837 698.668L212.547 703.579ZM212.586 716.794L214.801 726.545C219.319 725.519 222.541 721.523 222.585 716.89L212.586 716.794ZM203.586 718.84L195.068 713.602C192.959 717.031 193.112 721.39 195.457 724.663C197.801 727.936 201.879 729.484 205.805 728.591L203.586 718.84ZM208.26 717.777L210.477 727.528L208.26 717.777ZM188.188 715.585L191.823 706.269C188.701 705.051 185.177 705.478 182.436 707.405C179.695 709.333 178.101 712.505 178.192 715.855L188.188 715.585ZM198.633 719.967L200.853 729.718C205.003 728.773 208.1 725.305 208.572 721.075C209.043 716.845 206.786 712.78 202.946 710.945L198.633 719.967ZM188.006 722.389L178.04 721.564C177.777 724.741 179.045 727.853 181.453 729.943C183.862 732.032 187.122 732.848 190.23 732.139L188.006 722.389ZM163.868 728.63L166.611 738.247C171.806 736.765 174.885 731.425 173.564 726.186C172.244 720.948 167.002 717.705 161.725 718.862L163.868 728.63ZM162.81 728.932L159.469 719.507C154.379 721.311 151.641 726.831 153.285 731.976C154.929 737.12 160.36 740.029 165.553 738.548L162.81 728.932ZM277.424 23.5813C278.811 30.8598 280.776 42.8389 282.124 54.9076C283.506 67.2834 284.105 78.6628 283.21 85.3056L303.031 87.9754C304.29 78.63 303.38 65.0349 302.001 52.6877C300.587 40.0333 298.539 27.5409 297.071 19.8374L277.424 23.5813ZM396.662 3.31921C392.023 1.79259 384.007 0.901262 375.38 0.425529C366.322 -0.0739212 355.333 -0.168707 344.02 0.329552C332.726 0.826991 320.913 1.92382 310.265 3.86311C299.85 5.76009 289.605 8.62256 282.094 13.1396L292.401 30.2791C296.759 27.6586 304.124 25.3106 313.849 23.5394C323.341 21.8105 334.201 20.7814 344.9 20.3102C355.581 19.8398 365.908 19.9336 374.278 20.3952C383.079 20.8805 388.604 21.7225 390.41 22.3168L396.662 3.31921ZM399.283 81.6938C396.859 66.9917 394.458 40.2709 402.966 16.1438L384.105 9.49218C373.898 38.434 376.955 69.2139 379.549 84.9474L399.283 81.6938ZM425.776 90.3576C426.969 84.5289 425.692 78.3723 420.639 74.1413C416.48 70.6581 411.275 69.8513 407.595 69.7012C399.938 69.3888 391.152 71.6683 385.438 74.146L393.394 92.4952C397.139 90.8713 402.892 89.526 406.78 89.6846C408.873 89.77 408.692 90.2226 407.799 89.4752C407.18 88.9565 406.615 88.1603 406.345 87.2334C406.104 86.4029 406.253 85.9997 406.182 86.3471L425.776 90.3576ZM396.09 112.604C400.312 112.426 406.391 111.31 412.045 108.259C417.887 105.108 423.911 99.4715 425.776 90.3576L406.182 86.3471C405.824 88.0959 404.768 89.4603 402.548 90.6579C400.141 91.9569 397.176 92.5401 395.247 92.6214L396.09 112.604ZM405.761 138.588C406.205 129.994 406.35 121.933 406.297 115.468C406.246 109.293 406.014 103.869 405.534 100.975L385.804 104.25C385.99 105.372 386.245 109.281 386.297 115.633C386.347 121.696 386.211 129.357 385.788 137.556L405.761 138.588ZM392.07 147.361L392.107 147.375L399.441 128.769L399.404 128.754L392.07 147.361ZM391.958 147.316L392.016 147.34L399.458 128.775L399.399 128.752L391.958 147.316ZM400.91 179.203C403.554 166.799 404.977 151.84 405.665 138.551L385.692 137.517C385.027 150.361 383.675 164.125 381.35 175.034L400.91 179.203ZM397.817 168.439C396.241 168.007 394.675 167.636 393.126 167.32L389.134 186.918C390.26 187.147 391.394 187.416 392.532 187.728L397.817 168.439ZM421.491 168.367C421.32 168.81 420.964 169.783 418.381 170.456C415.207 171.283 408.946 171.488 397.817 168.439L392.532 187.728C405.222 191.204 415.415 191.898 423.427 189.809C432.028 187.566 437.585 182.217 440.151 175.564L421.491 168.367ZM424.421 175.395C426.011 172.799 426.883 172.533 426.476 172.727C426.213 172.852 425.663 173.038 424.898 173.031C424.135 173.023 423.433 172.825 422.867 172.535C421.836 172.007 421.479 171.327 421.361 171.033C421.258 170.779 420.934 169.812 421.491 168.367L440.151 175.564C441.81 171.263 441.252 166.881 439.908 163.55C438.548 160.179 435.942 156.761 431.985 154.734C427.688 152.533 422.612 152.419 417.892 154.662C413.531 156.735 410.1 160.486 407.367 164.946L424.421 175.395ZM448.37 145.048C442.042 142.542 436.029 141.63 430.414 142.465C424.717 143.312 420.159 145.85 416.674 149.051C410.107 155.084 407.408 163.426 406.271 167.451L425.517 172.89C426.5 169.41 428.003 165.802 430.204 163.78C431.104 162.953 432.072 162.438 433.355 162.247C434.719 162.045 437.139 162.112 441.007 163.643L448.37 145.048ZM428.187 205.916C444.632 204.61 457.059 193.481 462.13 181.283C464.691 175.124 465.694 167.934 463.611 161.073C461.425 153.874 456.147 148.128 448.37 145.048L441.007 163.643C443.427 164.602 444.154 165.831 444.474 166.884C444.897 168.277 444.906 170.616 443.663 173.605C441.128 179.701 434.712 185.335 426.604 185.979L428.187 205.916ZM383.915 202.218C397.94 205.746 411.758 207.221 428.187 205.916L426.604 185.979C412.483 187.1 400.848 185.854 388.793 182.823L383.915 202.218ZM388.585 208.302C391.158 204.862 393.493 200.991 395.461 196.652L377.248 188.389C375.892 191.378 374.302 194.007 372.571 196.321L388.585 208.302ZM390.312 206.648C390.409 205.346 390.491 204.089 390.561 202.893L370.595 201.73C370.531 202.821 370.455 203.972 370.367 205.17L390.312 206.648ZM397.597 215.966C393.525 208.504 389.857 202.042 388.495 200.122L372.184 211.696C372.167 211.672 372.37 211.975 372.888 212.838C373.35 213.609 373.949 214.636 374.668 215.893C376.103 218.403 377.956 221.726 380.042 225.547L397.597 215.966ZM496.085 252.931C444.869 250.211 407.557 225.13 395.823 213.618L381.817 227.895C396.538 242.336 438.298 269.89 495.024 272.902L496.085 252.931ZM494.101 253.023L494.1 253.023L497.01 272.81L497.011 272.81L494.101 253.023ZM504.238 257.955L504.238 257.955L486.873 267.878L486.873 267.878L504.238 257.955ZM496.111 252.932L496.084 252.931L495.028 272.903L495.055 272.904L496.111 252.932ZM496.863 272.836L496.888 272.833L494.279 253.003L494.254 253.007L496.863 272.836ZM563.647 400.916C560.409 382.508 549.583 354.635 537.925 328.1C526.124 301.237 512.963 274.632 504.421 258.289L486.696 267.554C495.067 283.57 508.025 309.764 519.614 336.144C531.347 362.85 541.184 388.662 543.949 404.381L563.647 400.916ZM573.944 438.954C572.288 435.611 571.02 433.054 569.519 428.068C567.947 422.844 566.101 414.867 563.647 400.916L543.949 404.381C546.45 418.6 548.457 427.483 550.368 433.833C552.351 440.42 554.199 444.152 556.023 447.833L573.944 438.954ZM580.816 455.506C578.035 447.223 575.832 442.764 573.944 438.954L556.023 447.833C557.717 451.251 559.482 454.802 561.856 461.872L580.816 455.506ZM566.44 562.687C589.075 526.436 589.247 480.617 580.816 455.506L561.856 461.871C568.597 481.951 568.606 521.456 549.476 552.094L566.44 562.687ZM498.446 660.014C519.148 635.574 550.033 588.965 566.44 562.687L549.476 552.094C533.095 578.33 502.867 623.851 483.185 647.087L498.446 660.014ZM501.103 653.754C500.928 652.962 500.753 652.171 500.577 651.383L481.053 655.718C481.226 656.498 481.399 657.28 481.572 658.064L501.103 653.754ZM542.152 634.087C524.054 638.635 505.572 643.273 489.618 646.058L493.057 665.76C509.878 662.824 529.121 657.983 547.026 653.484L542.152 634.087ZM542.247 634.064L542.242 634.065L546.935 653.507L546.94 653.505L542.247 634.064ZM541.967 634.136L541.963 634.137L547.225 653.432L547.229 653.431L541.967 634.136ZM542.311 634.048L542.307 634.049L546.888 653.518L546.891 653.517L542.311 634.048ZM542.355 634.038L542.352 634.039L546.85 653.527L546.852 653.526L542.355 634.038ZM541.732 634.203L541.73 634.204L547.477 653.36L547.479 653.36L541.732 634.203ZM542.181 634.08L542.18 634.08L547.031 653.483L547.032 653.483L542.181 634.08ZM542.964 633.917L542.963 633.917L546.251 653.645L546.252 653.645L542.964 633.917ZM616.618 623.751C612.095 621.791 606.643 621.641 601.965 621.884C596.924 622.147 591.093 622.992 584.892 624.148C572.492 626.459 557.428 630.249 542.171 634.083L547.045 653.479C562.503 649.595 576.898 645.982 588.557 643.809C594.386 642.722 599.235 642.054 603.005 641.857C604.881 641.76 606.32 641.789 607.373 641.893C608.48 642.003 608.807 642.163 608.666 642.102L616.618 623.751ZM627.014 680.972C629.013 674.465 631.814 663.704 631.991 653.358C632.155 643.799 630.032 629.564 616.618 623.751L608.666 642.102C609.936 642.652 612.136 644.732 611.994 653.016C611.865 660.513 609.731 669.126 607.896 675.099L627.014 680.972ZM597.104 666.924C595.432 672.021 594.898 677.024 595.777 681.557C596.641 686.014 599.08 690.701 603.801 693.329C608.848 696.139 614.571 695.488 618.944 692.59C623.051 689.868 625.613 685.533 627.014 680.972L607.896 675.099C607.38 676.779 606.985 676.522 607.896 675.919C608.388 675.593 609.219 675.214 610.34 675.141C611.483 675.068 612.602 675.338 613.53 675.855C615.376 676.883 615.5 678.21 615.411 677.75C615.337 677.366 615.21 675.894 616.108 673.16L597.104 666.924ZM592.389 655.904C594.628 656.864 596.292 657.892 597.182 659.14C597.538 659.638 597.843 660.272 597.958 661.259C598.08 662.303 598.028 664.108 597.104 666.924L616.108 673.16C619.5 662.822 618.173 654.121 613.46 647.52C609.212 641.569 603.167 638.763 600.267 637.521L592.389 655.904ZM545.727 664.993C555.746 662.881 567.734 660.356 577.715 658.572C582.722 657.678 587.04 657.003 590.265 656.654C591.892 656.478 593.042 656.408 593.767 656.404C594.997 656.397 593.985 656.588 592.389 655.904L600.267 637.521C597.653 636.401 594.856 636.398 593.664 636.404C591.965 636.413 590.055 636.56 588.114 636.77C584.201 637.194 579.35 637.963 574.196 638.884C563.853 640.733 551.545 643.328 541.603 645.422L545.727 664.993ZM545.909 664.953L545.914 664.951L541.417 645.464L541.412 645.465L545.909 664.953ZM545.76 664.986L545.769 664.984L541.552 645.433L541.543 645.435L545.76 664.986ZM532.27 667.781C535.79 667.087 540.504 666.094 545.713 664.996L541.589 645.426C536.327 646.534 531.764 647.496 528.403 648.158L532.27 667.781ZM495.771 675.902C516.165 671.298 529.442 668.338 532.27 667.781L528.403 648.158C525.225 648.784 511.551 651.836 491.366 656.393L495.771 675.902ZM515.173 721.242C511.3 702.128 507.368 682.732 503.344 664.043L483.792 668.253C487.786 686.803 491.694 706.079 495.571 725.213L515.173 721.242ZM531.79 790.925C525.564 766.423 519.446 742.336 515.173 721.242L495.571 725.213C499.961 746.883 506.213 771.477 512.406 795.85L531.79 790.925ZM531.8 790.967L531.799 790.962L512.396 795.813L512.397 795.818L531.8 790.967ZM531.773 790.86L531.773 790.859L512.425 795.926L512.425 795.927L531.773 790.86ZM555.171 916.131C555.761 901.174 552.761 881.389 548.347 860.065C543.892 838.546 537.793 814.55 531.791 790.931L512.407 795.856C518.437 819.586 524.415 843.123 528.762 864.12C533.149 885.31 535.673 903.023 535.187 915.343L555.171 916.131ZM507.016 973.321C522.517 970.737 553.612 955.642 555.171 916.131L535.187 915.343C534.135 942.003 513.677 951.935 503.728 953.593L507.016 973.321ZM491.207 974.99C496.706 974.397 501.812 973.865 506.372 973.406L504.371 953.507C499.76 953.971 494.606 954.507 489.063 955.105L491.207 974.99ZM516.509 1116.91C515.757 1097.79 514.06 1068.43 511.336 1039.35C508.633 1010.47 504.854 981.119 499.787 962.43L480.484 967.664C485.053 984.516 488.718 1012.32 491.423 1041.21C494.108 1069.88 495.784 1098.88 496.525 1117.7L516.509 1116.91ZM516.446 1221.26C512.134 1185.37 514.648 1137.64 516.473 1118.24L496.561 1116.37C494.688 1136.28 492.025 1185.66 496.589 1223.64L516.446 1221.26ZM515.223 1276.9C518.859 1263.01 519.218 1244.33 516.446 1221.26L496.589 1223.64C499.232 1245.64 498.592 1261.46 495.876 1271.83L515.223 1276.9ZM541.913 1314.72C541.293 1308.81 539.852 1297.79 535.365 1287.68C530.852 1277.51 522.283 1266.32 506.758 1264.44L504.342 1284.29C509.928 1284.97 513.966 1288.76 517.084 1295.79C520.229 1302.88 521.441 1311.26 522.022 1316.8L541.913 1314.72ZM503.941 1332.07C509.161 1334.01 513.86 1335.44 517.994 1336.19C521.972 1336.91 526.407 1337.2 530.568 1335.9C535.362 1334.4 538.937 1331.05 540.741 1326.46C542.3 1322.49 542.284 1318.26 541.913 1314.72L522.022 1316.8C522.262 1319.1 521.961 1319.57 522.128 1319.14C522.258 1318.81 522.563 1318.24 523.149 1317.7C523.735 1317.15 524.304 1316.9 524.597 1316.81C524.944 1316.7 524.251 1317 521.575 1316.51C519.057 1316.05 515.579 1315.06 510.887 1313.32L503.941 1332.07ZM476.791 1297.89C478.867 1308.03 485.813 1325.36 503.941 1332.07L510.887 1313.32C502.346 1310.15 497.904 1301.3 496.385 1293.88L476.791 1297.89ZM427.258 1153.61C433.212 1201.49 441.514 1238.57 450.658 1263.74C455.204 1276.26 460.156 1286.4 465.504 1293.49C470.473 1300.09 477.877 1306.74 487.517 1305.84L485.658 1285.93C486.957 1285.81 485.491 1286.79 481.478 1281.46C477.843 1276.63 473.7 1268.6 469.457 1256.92C461.021 1233.69 452.962 1198.24 447.105 1151.14L427.258 1153.61ZM383.315 981.493C398.654 1021.19 419.037 1087.51 427.258 1153.61L447.105 1151.14C438.629 1082.99 417.72 1015.05 401.971 974.285L383.315 981.493ZM374.702 991.572C380.017 990.34 386.69 989.052 394.329 987.745L390.957 968.032C383.124 969.372 376.03 970.734 370.186 972.089L374.702 991.572ZM374.501 1330.37C374.501 1305.31 376.317 1077.97 382.423 982.469L362.464 981.192C356.311 1077.42 354.501 1305.38 354.501 1330.37H374.501ZM369.931 1338.88C370.31 1338.56 370.689 1338.24 371.066 1337.91L357.935 1322.82C357.661 1323.06 357.388 1323.3 357.117 1323.52L369.931 1338.88ZM373.524 1345.94V1331.2H353.524V1345.94H373.524ZM319.069 1374.87C325.461 1373.7 335.463 1371.31 345.091 1367.85C349.912 1366.12 354.834 1364.05 359.24 1361.62C363.533 1359.26 367.948 1356.24 371.19 1352.36L355.858 1339.52C354.891 1340.68 352.908 1342.28 349.6 1344.1C346.406 1345.85 342.525 1347.52 338.324 1349.03C329.908 1352.06 320.994 1354.19 315.476 1355.19L319.069 1374.87ZM307.273 1351.08V1365.03H327.273V1351.08H307.273ZM259.881 1386.2C273.515 1385.93 287.057 1381 298.018 1375.47C309.075 1369.9 318.377 1363.28 323.761 1358.69L310.784 1343.47C306.57 1347.07 298.595 1352.78 289.016 1357.61C279.34 1362.49 268.887 1366.02 259.484 1366.21L259.881 1386.2ZM254.826 1339.16C249.354 1342.2 244.368 1345.89 240.453 1349.86C236.736 1353.64 233.112 1358.57 231.937 1364.2C231.312 1367.2 231.34 1370.65 232.737 1374.08C234.148 1377.53 236.621 1380.14 239.502 1381.97C244.855 1385.35 252.064 1386.36 259.881 1386.2L259.484 1366.21C252.904 1366.34 250.529 1365.28 250.199 1365.07C250.197 1365.06 250.362 1365.17 250.589 1365.43C250.824 1365.7 251.069 1366.06 251.254 1366.52C251.648 1367.48 251.535 1368.2 251.516 1368.28C251.512 1368.31 251.609 1367.88 252.162 1367C252.698 1366.15 253.528 1365.09 254.708 1363.89C257.082 1361.48 260.468 1358.9 264.539 1356.64L254.826 1339.16ZM292.747 1313.92C282.463 1321.5 266.622 1332.61 254.826 1339.16L264.539 1356.64C277.527 1349.43 294.234 1337.67 304.61 1330.02L292.747 1313.92ZM273.426 1070.12C276.866 1088.49 281.2 1145.3 284.427 1201.28C286.029 1229.08 287.344 1256.4 288.132 1278.2C288.933 1300.36 289.153 1316.02 288.715 1321.12L308.642 1322.83C309.21 1316.22 308.901 1299.1 308.119 1277.48C307.324 1255.5 306.002 1228.04 304.394 1200.13C301.198 1144.69 296.815 1086.36 293.084 1066.44L273.426 1070.12ZM250.421 939.455C258.664 987.131 269.133 1047.19 273.426 1070.12L293.084 1066.44C288.823 1043.68 278.382 983.785 270.129 936.048L250.421 939.455ZM270.252 979.008C270.148 973.558 270.152 958.2 270.275 937.812L250.275 937.691C250.152 958.009 250.146 973.638 250.256 979.39L270.252 979.008ZM254.629 1006.39C266.972 1002.7 270.47 990.419 270.252 979.008L250.256 979.39C250.335 983.546 249.699 985.766 249.216 986.743C249.004 987.174 248.866 987.276 248.899 987.247C248.945 987.206 248.983 987.203 248.903 987.227L254.629 1006.39ZM217.875 995.678C224.408 1000.35 230.793 1003.9 236.815 1005.88C242.726 1007.83 249.396 1008.6 255.574 1006.06L247.957 987.562C247.921 987.577 246.605 988.048 243.058 986.882C239.623 985.754 235.078 983.394 229.511 979.412L217.875 995.678ZM185.718 915.312C186.625 947.225 191.923 977.114 217.875 995.678L229.511 979.412C211.903 966.816 206.597 945.967 205.71 914.744L185.718 915.312ZM195.275 808.962C190.595 845.563 184.977 889.258 185.718 915.312L205.71 914.744C205.025 890.649 210.333 848.891 215.113 811.499L195.275 808.962ZM198.673 781.855C197.672 790.215 196.501 799.371 195.275 808.962L215.113 811.499C216.337 801.927 217.519 792.688 218.531 784.234L198.673 781.855ZM202.323 729.974C201.872 745.281 200.819 763.939 198.673 781.856L218.531 784.234C220.771 765.535 221.852 746.244 222.315 730.564L202.323 729.974ZM195.432 744.394C201.472 743.011 207.863 741.548 214.55 740.017L210.088 720.521C203.4 722.052 197.008 723.516 190.968 724.899L195.432 744.394ZM187.322 746.623C190.306 745.81 193.155 745.029 195.849 744.289L190.551 725.004C187.869 725.741 185.031 726.518 182.058 727.329L187.322 746.623ZM162.066 762.798C166.086 764.579 170.127 764.11 173.074 763.199C176.121 762.258 178.945 760.58 181.413 758.58C186.382 754.553 190.901 748.428 193.984 740.669L175.397 733.284C173.414 738.274 170.797 741.441 168.821 743.042C168.342 743.43 167.94 743.695 167.635 743.866C167.325 744.041 167.165 744.092 167.168 744.091C167.173 744.09 167.236 744.071 167.354 744.051C167.472 744.031 167.66 744.009 167.911 744.008C168.411 744.007 169.223 744.094 170.167 744.512L162.066 762.798ZM159.97 735.877C158.202 737.76 155.445 741.283 154.204 745.55C153.555 747.783 153.057 751.145 154.357 754.753C155.775 758.686 158.749 761.328 162.066 762.798L170.167 744.512C170.464 744.643 171.042 744.955 171.665 745.58C172.312 746.23 172.841 747.051 173.172 747.971C173.808 749.736 173.444 751.012 173.408 751.135C173.358 751.309 173.386 751.14 173.688 750.673C173.963 750.247 174.293 749.842 174.547 749.571L159.97 735.877ZM158.785 737.305C158.65 737.592 158.518 737.859 158.392 738.1L176.126 747.348C176.384 746.852 176.643 746.33 176.896 745.789L158.785 737.305ZM157.967 754.555C162.239 753.411 166.41 752.29 170.445 751.202L165.236 731.892C161.213 732.977 157.054 734.095 152.796 735.235L157.967 754.555ZM163.518 740.586C164.14 741.23 164.526 741.832 164.747 742.229C164.974 742.636 165.104 742.963 165.172 743.154C165.301 743.517 165.308 743.675 165.29 743.542L145.474 746.248C145.624 747.346 145.879 748.593 146.327 749.853C146.732 750.992 147.53 752.824 149.138 754.487L163.518 740.586ZM166.662 764.967C169.068 762.562 169.592 759.748 169.745 758.707C169.943 757.368 169.897 756.163 169.824 755.317C169.675 753.581 169.269 751.834 168.814 750.334C168.016 747.704 166.37 743.537 163.518 740.587L149.138 754.487C148.729 754.064 148.758 753.943 149.034 754.497C149.257 754.946 149.492 755.537 149.675 756.139C149.872 756.791 149.905 757.109 149.898 757.032C149.897 757.016 149.849 756.539 149.959 755.787C150.017 755.395 150.146 754.734 150.462 753.939C150.774 753.154 151.376 751.97 152.52 750.826L166.662 764.967ZM166.609 765.021C166.631 764.999 166.643 764.987 166.653 764.977C166.662 764.967 166.664 764.966 166.661 764.969L152.521 750.824C152.439 750.906 152.363 750.984 152.323 751.024L166.609 765.021ZM151.114 767.651C154.009 769.068 157.593 769.745 161.286 768.491C164.459 767.414 166.405 765.23 166.607 765.024L152.326 751.022C151.838 751.519 152.928 750.207 154.858 749.552C155.939 749.186 157.045 749.08 158.057 749.189C159.012 749.293 159.65 749.562 159.907 749.688L151.114 767.651ZM142.971 761.033C145.512 763.833 148.179 766.217 151.12 767.654L159.902 749.685C160.177 749.82 160.117 749.839 159.698 749.489C159.291 749.151 158.66 748.56 157.782 747.594L142.971 761.033ZM142.724 772.182C149.988 774.928 156.605 771.124 159.509 765.876C162.324 760.789 161.942 754.653 159.163 749.539L141.59 759.088C141.619 759.141 141.03 757.963 142.01 756.191C142.485 755.333 143.416 754.259 144.969 753.603C146.628 752.902 148.394 752.944 149.798 753.475L142.724 772.182ZM140.225 770.951C140.999 771.427 141.833 771.845 142.725 772.182L149.797 753.474C150.163 753.613 150.466 753.769 150.708 753.918L140.225 770.951ZM135.53 766.604C136.773 768.253 138.324 769.783 140.232 770.955L150.701 753.914C151.294 754.278 151.526 754.598 151.504 754.569L135.53 766.604ZM128.355 753.197C129.964 757.375 132.213 761.675 135.207 766.148L151.828 755.024C149.555 751.628 148.032 748.64 147.02 746.012L128.355 753.197ZM139.049 759.588L140.245 759.272L135.131 739.937L133.935 740.253L139.049 759.588ZM146.386 762.299C147.637 757.157 147.046 751.883 146.314 748.046L126.669 751.795C127.21 754.63 127.198 756.564 126.953 757.572L146.386 762.299ZM127.526 772.209C130.501 773.321 134.645 773.878 138.772 771.947C143.132 769.907 145.477 766.035 146.386 762.299L126.953 757.572C127.122 756.877 127.931 754.938 130.297 753.831C132.43 752.833 134.122 753.323 134.526 753.474L127.526 772.209ZM124.442 770.706C125.392 771.282 126.423 771.797 127.526 772.209L134.525 753.474C134.708 753.542 134.804 753.599 134.819 753.608L124.442 770.706ZM114.816 759.108C116.896 764.011 120.272 768.177 124.446 770.708L134.816 753.606C134.836 753.618 134.612 753.48 134.269 753.065C133.939 752.665 133.56 752.08 133.227 751.297L114.816 759.108ZM113.758 756.077C114.038 757.073 114.385 758.092 114.816 759.108L133.228 751.297C133.166 751.152 133.09 750.944 133.011 750.663L113.758 756.077ZM21.1174 787.454C24.6765 787.238 30.3144 786.237 36.8476 784.891C43.6054 783.499 51.9804 781.594 61.3644 779.354C80.1431 774.873 103.201 768.992 125.918 763.044L120.851 743.696C98.191 749.63 75.2939 755.468 56.7215 759.901C47.43 762.118 39.2804 763.97 32.8121 765.302C26.1193 766.681 21.8296 767.374 19.9075 767.49L21.1174 787.454ZM16.0133 758.997C13.9513 760.036 11.575 761.367 9.43233 762.826C7.69408 764.01 4.66442 766.214 2.81735 769.249C1.8497 770.84 0.166739 774.387 1.46969 778.735C2.82138 783.246 6.37471 785.331 8.42847 786.177C12.1311 787.701 16.8327 787.713 21.1174 787.454L19.9075 767.49C18.0225 767.604 16.7651 767.591 15.9888 767.536C15.0905 767.471 15.3069 767.38 16.0414 767.682C16.7268 767.965 19.5287 769.325 20.628 772.994C21.6786 776.5 20.2424 779.088 19.9028 779.646C19.4825 780.337 19.1684 780.545 19.4651 780.281C19.682 780.088 20.0799 779.773 20.6905 779.357C21.9126 778.525 23.4844 777.628 25.0116 776.859L16.0133 758.997ZM108.224 733.949C74.5979 743.341 39.0236 753.066 18.1193 758.219L22.9056 777.637C44.1507 772.401 80.0074 762.596 113.605 753.211L108.224 733.949ZM107.787 719.715C104.233 726.95 101.524 735.543 100.946 742.784L120.883 744.376C121.21 740.274 122.979 734.148 125.738 728.533L107.787 719.715ZM138.49 691.023C133.885 693.752 127.896 697.75 122.326 702.468C116.931 707.039 111.097 712.975 107.787 719.715L125.738 728.533C127.227 725.5 130.56 721.705 135.254 717.728C139.774 713.898 144.798 710.533 148.687 708.228L138.49 691.023ZM138.078 708.324C138.685 708.526 139.463 708.787 140.389 709.099L146.788 690.151C145.844 689.832 145.04 689.562 144.403 689.35L138.078 708.324ZM158.076 566.619C153.692 586.13 147.098 616.059 141.564 642.443C138.799 655.629 136.288 667.976 134.448 677.71C132.697 686.977 131.334 694.949 131.244 698.588L151.237 699.085C151.278 697.471 152.209 691.434 154.101 681.424C155.904 671.882 158.383 659.685 161.138 646.548C166.647 620.287 173.219 590.456 177.59 571.004L158.076 566.619ZM169.147 485.834C166.341 509.276 161.57 549.069 158.026 566.857L177.64 570.766C181.378 552.009 186.254 511.199 189.005 488.211L169.147 485.834ZM170.718 472.86C170.329 475.955 169.79 480.459 169.147 485.834L189.005 488.211C189.652 482.808 190.182 478.375 190.562 475.353L170.718 472.86ZM182.488 389.069C179.26 411.475 172.364 459.759 170.718 472.86L190.562 475.353C192.179 462.481 199.04 414.435 202.284 391.921L182.488 389.069ZM193.05 310.229C185.885 338.619 182.976 375.305 182.394 390.102L202.378 390.888C202.938 376.646 205.772 341.549 212.442 315.123L193.05 310.229ZM225.796 259.716C215.904 264.947 201.354 277.323 193.05 310.229L212.442 315.123C219.512 287.107 230.784 279.702 235.145 277.396L225.796 259.716ZM221.41 264.318L221.323 264.516L239.618 272.596L239.705 272.398L221.41 264.318ZM227.766 258.628C227.296 258.838 226.762 259.084 226.176 259.369L234.94 277.347C235.283 277.179 235.613 277.027 235.934 276.884L227.766 258.628ZM233.62 255.932C231.273 257.052 229.289 257.946 227.766 258.627L235.934 276.884C237.511 276.178 239.668 275.206 242.233 273.982L233.62 255.932ZM242.813 256.232L242.716 256.179L233.136 273.735L233.233 273.788L242.813 256.232ZM255.177 244.176C247.048 249.424 239.281 253.364 233.762 255.964L242.285 274.057C248.277 271.234 256.896 266.872 266.024 260.979L255.177 244.176ZM261.863 239.586C259.638 241.21 257.394 242.742 255.169 244.181L266.032 260.974C268.542 259.35 271.098 257.606 273.654 255.74L261.863 239.586ZM290.074 211.274C284.225 218.42 271.669 232.429 261.863 239.586L273.654 255.74C285.653 246.982 299.555 231.267 305.551 223.941L290.074 211.274ZM288.229 205.323C288.262 208.123 288.091 212.445 287.829 217.038L307.796 218.177C308.061 213.536 308.269 208.626 308.227 205.085L288.229 205.323ZM287.593 206.539C288.236 207.872 288.929 209.15 289.668 210.374L306.787 200.034C306.375 199.351 305.98 198.624 305.607 197.85L287.593 206.539ZM263.574 211.838C272.841 214.791 284.561 214.867 298.606 211.992L294.595 192.398C282.477 194.879 274.503 194.329 269.647 192.782L263.574 211.838ZM229.492 162.123C228.357 174.019 232.468 185.045 238.774 193.587C245.043 202.078 253.946 208.769 263.574 211.838L269.647 192.782C264.43 191.119 258.894 187.166 254.864 181.708C250.872 176.301 248.824 170.074 249.402 164.024L229.492 162.123ZM260.624 132.06C255.827 132.788 248.933 134.985 242.807 139.429C236.482 144.018 230.516 151.403 229.492 162.123L249.402 164.024C249.749 160.388 251.627 157.739 254.551 155.618C257.673 153.353 261.433 152.166 263.624 151.833L260.624 132.06ZM291.437 156.93C291.752 151.914 290.646 147.296 288.158 143.381C285.732 139.562 282.388 137.032 279.164 135.388C272.975 132.233 266.002 131.695 261.523 131.965L262.725 151.928C265.017 151.79 268.102 152.198 270.081 153.207C270.942 153.646 271.211 154.002 271.278 154.107C271.284 154.117 271.553 154.46 271.476 155.676L291.437 156.93ZM263.332 176.518C267.066 177.814 273.364 178.813 279.497 176.117C286.695 172.953 290.866 166.016 291.437 156.93L271.476 155.676C271.358 157.559 270.961 158.194 270.961 158.194C270.96 158.195 271.014 158.114 271.136 158.009C271.255 157.908 271.371 157.842 271.449 157.808C271.575 157.752 271.465 157.832 271.025 157.821C270.583 157.81 270.145 157.712 269.889 157.624L263.332 176.518ZM266.731 168.282C266.079 166.452 266.159 165.698 266.155 165.733C266.136 165.912 265.969 166.561 265.378 167.184C264.442 168.17 264.014 167.668 265.151 167.793C265.539 167.836 265.607 167.923 265.352 167.786C265.304 167.76 263.62 166.894 262.764 164.397C262.291 163.015 262.22 161.494 262.58 160.064C262.921 158.715 263.539 157.85 263.887 157.448C264.455 156.79 264.504 157.102 262.704 157.865L270.517 176.276C273.571 174.98 276.72 173.189 279.027 170.515C281.628 167.502 283.396 162.907 281.684 157.912C280.241 153.704 277.005 151.345 274.833 150.176C272.453 148.895 269.824 148.186 267.336 147.913C262.722 147.406 255.829 148.188 250.866 153.421C245.262 159.33 245.203 167.452 247.892 174.996L266.731 168.282ZM287.959 170.656C273.104 175.619 267.025 168.536 266.058 166.792L248.565 176.486C254.168 186.596 270.233 197.665 294.297 189.626L287.959 170.656ZM276.103 110.87C276.103 128.093 276.101 149.954 281.257 181.742L300.999 178.54C296.105 148.367 296.103 127.79 296.103 110.87H276.103ZM285.537 120.854L285.605 120.857L286.601 100.882L286.534 100.879L285.537 120.854ZM263.73 84.4564C260.621 87.8546 258.388 92.0402 257.896 96.7792C257.395 101.606 258.797 106.149 261.489 109.852C266.658 116.964 275.859 120.362 285.528 120.853L286.542 100.879C280.142 100.554 277.923 98.4462 277.668 98.0942C277.647 98.0658 277.836 98.3873 277.789 98.8451C277.75 99.2148 277.638 98.8834 278.485 97.9583L263.73 84.4564ZM295.17 76.8626C291.34 76.1033 286.075 75.582 280.66 76.2832C275.319 76.9747 268.707 79.0186 263.73 84.4564L278.485 97.9583C279.076 97.3129 280.442 96.4784 283.228 96.1176C285.94 95.7664 288.951 96.0189 291.281 96.4808L295.17 76.8626ZM290.23 96.2134C290.286 96.2304 290.342 96.247 290.396 96.2632L296.055 77.0803C296.038 77.0755 296.024 77.0712 296.012 77.0675L290.23 96.2134ZM393.852 92.771L393.823 92.7761L397.345 112.464L397.374 112.459L393.852 92.771ZM395.973 112.608L396.002 112.607L395.223 92.6224L395.194 92.6235L395.973 112.608ZM405.456 101.025L405.456 101.021L385.712 104.211L385.712 104.215L405.456 101.025ZM147.391 723.375C147.909 721.466 148.504 719.285 148.973 717.076L129.41 712.918C129.077 714.488 128.635 716.125 128.09 718.136L147.391 723.375ZM145.105 736.62C145.032 732.268 146.036 728.368 147.391 723.375L128.09 718.136C126.796 722.904 124.981 729.387 125.108 736.956L145.105 736.62ZM136.923 746.666L137.822 746.412L132.392 727.164L131.493 727.417L136.923 746.666ZM131.293 708.866C130.157 710.328 129.538 711.945 129.34 712.452C129.01 713.299 128.703 714.228 128.428 715.135C127.871 716.969 127.292 719.202 126.755 721.53C125.696 726.119 124.645 731.735 124.248 736.146L144.168 737.937C144.449 734.81 145.283 730.186 146.242 726.028C146.714 723.983 147.179 722.216 147.564 720.949C147.76 720.305 147.9 719.907 147.974 719.718C148.18 719.188 147.923 720.058 147.091 721.129L131.293 708.866ZM132.792 741.396C132.859 740.825 132.934 740.271 133.016 739.741L113.246 736.711C113.131 737.466 113.023 738.256 112.927 739.073L132.792 741.396ZM125.369 749.917L125.562 749.863L120.158 730.607L119.965 730.661L125.369 749.917ZM113.358 736.107C113.222 736.734 113.078 737.375 112.928 738.02L132.407 742.558C132.582 741.806 132.748 741.065 132.904 740.345L113.358 736.107ZM493.829 253.065C492.203 253.293 490.594 253.598 489.007 253.982L493.704 273.422C494.648 273.194 495.617 273.01 496.609 272.87L493.829 253.065ZM493.513 273.466C495.025 273.132 496.272 272.925 496.77 272.847L493.668 253.089C492.902 253.209 491.229 253.489 489.197 253.938L493.513 273.466ZM468.698 486.338C472.864 456.487 482.033 429.958 485.931 420.784L467.525 412.962C463.036 423.523 453.331 451.752 448.89 483.574L468.698 486.338ZM466.191 502.827C466.939 498.153 467.806 492.731 468.698 486.338L448.89 483.574C448.029 489.748 447.19 494.993 446.442 499.669L466.191 502.827ZM466.202 502.762L466.203 502.756L446.431 499.74L446.431 499.746L466.202 502.762ZM466.145 503.098L466.145 503.097L446.487 499.411L446.487 499.412L466.145 503.098ZM473.324 556.775C467.023 542.523 464.647 534.833 463.965 528.196C463.275 521.474 464.217 515.176 466.19 502.834L446.441 499.676C444.572 511.365 443.06 520.407 444.07 530.238C445.088 540.154 448.564 550.231 455.032 564.862L473.324 556.775ZM473.916 558.13C473.719 557.674 473.522 557.222 473.324 556.775L455.032 564.861C455.205 565.254 455.379 565.65 455.552 566.052L473.916 558.13ZM485.8 504.132C484.651 509.236 481.226 516.946 475.812 526.487C470.521 535.811 463.759 546.153 456.57 556.316L472.898 567.866C480.325 557.365 487.485 546.441 493.207 536.357C498.805 526.491 503.483 516.65 505.312 508.522L485.8 504.132ZM467.791 421.359C472.004 429.753 478.066 444.301 482.264 460.111C486.533 476.189 488.49 492.176 485.8 504.132L505.312 508.522C509.079 491.78 506.109 471.981 501.594 454.978C497.008 437.706 490.428 421.875 485.665 412.387L467.791 421.359ZM202.549 703.77C202.612 707.056 202.637 711.461 202.586 716.697L222.585 716.89C222.637 711.494 222.612 706.895 222.545 703.388L202.549 703.77ZM212.105 724.078C215.592 718.407 219.158 712.215 221.258 708.491L203.837 698.668C201.807 702.268 198.375 708.224 195.068 713.602L212.105 724.078ZM206.043 708.026C204.469 708.384 202.911 708.738 201.368 709.089L205.805 728.591C207.346 728.24 208.904 727.886 210.477 727.528L206.043 708.026ZM210.37 707.042C208.916 707.373 207.473 707.701 206.043 708.026L210.477 727.528C211.906 727.203 213.348 726.875 214.801 726.545L210.37 707.042ZM184.553 724.901C188.815 726.564 192.19 727.971 194.321 728.99L202.946 710.945C200.115 709.592 196.169 707.965 191.823 706.269L184.553 724.901ZM197.972 723.214C198.182 720.681 198.258 718.047 198.184 715.315L178.192 715.855C178.246 717.868 178.189 719.771 178.04 721.564L197.972 723.214ZM196.413 710.217C192.767 711.047 189.22 711.855 185.783 712.639L190.23 732.139C193.665 731.355 197.209 730.547 200.853 729.718L196.413 710.217ZM161.725 718.862C160.954 719.031 160.201 719.247 159.469 719.507L166.152 738.357C166.098 738.376 166.05 738.389 166.011 738.398L161.725 718.862ZM165.553 738.548L166.611 738.247L161.125 719.014L160.068 719.315L165.553 738.548Z" fill="white" mask="url(#path-1-outside-1)"/>
<rect x="281.954" y="582.271" width="54.6531" height="120.563" fill="#307CC1"/>
<path d="M246.548 679.424L258.376 551.193C261.938 501.163 273.059 438.38 289.047 587.493C309.032 773.884 473.073 919.735 487.348 956.361C498.768 985.661 504.886 1075.86 506.517 1117.3C504.668 1136.96 502.08 1185.51 506.517 1222.45C512.064 1268.62 504.152 1292.6 487.348 1295.78C470.544 1298.96 449.172 1248.8 437.181 1152.38C425.19 1055.96 387.83 959.542 376.655 942.82C367.111 978.63 364.501 1300.35 364.501 1330.37C335.543 1355.57 310.092 1331.35 298.672 1322.05C300.712 1298.96 290.433 1106.62 283.255 1068.28C277.513 1037.61 260.633 939.992 252.91 895.019L246.548 679.424Z" fill="#2365A1"/>
<path d="M272.817 597.444C249.389 551.698 253.647 483.325 258.705 454.856L333.343 398.327L317.028 594.426C303.922 597.689 276.732 602.86 272.817 597.444Z" fill="#A64D55"/>
<path d="M291 245.625L325.995 253.782L367.759 250.764V323.037H288.961L291 245.625Z" fill="#A64D55"/>
<path d="M495.583 262.918C441.354 260.046 401.694 233.498 388.643 220.582C372.709 294.024 338.362 445.72 328.443 464.971C316.044 489.035 312.455 590.347 311.476 623.465C310.497 656.583 319.878 740.765 320.286 758.548C320.693 776.331 336.682 806.757 340.842 812.793C344.17 817.622 346.688 825.029 347.531 828.129L338.884 834.165L347.531 849.419C347.775 850.153 345.198 849.158 332.929 839.304C317.594 826.987 326.159 867.528 328.443 879.356C330.727 891.184 331.135 938.495 333.011 963.456C334.887 988.417 340.678 995.269 359.766 985.725C375.037 978.09 463.199 967.698 505.372 963.456C518.097 961.336 543.874 948.822 545.179 915.737C546.81 874.38 518.097 786.038 505.372 723.227C492.647 660.417 479.432 595.323 464.178 560.818C448.924 526.313 453.411 523.54 458.794 484.956C463.101 454.089 472.553 426.687 476.74 416.844C472.417 404.282 462.775 370.087 458.794 333.804C453.819 288.45 471.356 266.099 495.583 262.918Z" fill="#EE6570"/>
<path d="M308.138 356.888C302.2 333.33 297.017 272.624 295.168 245.216L285.951 261.775L252.588 374.181L257.645 456.813C273.606 427.23 306.05 365.828 308.138 356.888Z" fill="#F37A84"/>
<path d="M116.766 724.125C122.248 712.966 139.117 701.911 146.866 697.778C159.945 693.101 186.493 689.571 188.06 712.868C190.017 741.99 172.561 756.509 166.117 753.654C160.961 751.37 164.73 745.416 167.259 742.724C169.896 737.666 173.148 727.731 165.056 728.449C154.941 729.346 153.963 745.089 156.328 747.536C158.694 749.984 160.651 756.836 159.591 757.896C158.531 758.956 156.736 761.322 150.373 754.307C153.881 760.751 148.008 766.543 143.521 760.588C129.491 739.624 136.669 726.899 139.198 714.989C137.648 716.947 132.999 737.666 134.304 741.745C135.609 745.823 138.138 753.899 136.669 759.935C135.201 765.972 127.452 763.28 124.026 755.204C121.981 750.384 122.352 743.297 123.146 738.156C121.844 744.175 119.816 751.682 118.071 752.349C107.385 756.428 109.914 738.074 116.766 724.125Z" fill="#FFC9BA"/>
<path d="M321.104 250.924C319.864 250.206 304.327 235.126 296.714 227.676C296.333 230.232 295.148 237.236 293.451 244.806C296.584 251.788 310.908 259.027 317.678 261.773C319.337 258.456 322.344 251.642 321.104 250.924Z" fill="#F37A84"/>
<path d="M298.183 203.776C298.444 209.78 297.422 224.332 296.878 230.858L320.86 251.332C336.168 249.212 361.907 250.745 369.477 247.091C377.047 243.436 380.136 213.538 380.734 199.045C356.589 200.622 306.275 203.776 298.183 203.776Z" fill="#C4535D"/>
<path d="M267.758 247.663C279.113 239.375 292.991 223.599 298.511 216.747C298.511 237.793 292.066 260.388 287.254 276.947C282.441 293.506 271.592 337.963 263.272 390.495C254.951 443.027 261.314 463.339 258.051 486.097C254.788 508.856 260.009 545.481 258.051 553.312C256.093 561.143 258.051 651.933 258.051 658.622C258.051 665.31 267.432 732.852 264.25 762.626C261.069 792.399 259.846 957.827 260.253 979.199C260.661 1000.57 246.468 1002.77 224.688 987.193C202.909 971.613 197.606 946.244 196.709 914.675C195.812 883.107 204.703 823.56 209.597 782.692C213.513 749.998 213.839 715.178 213.513 701.855C211.474 705.525 206.269 714.645 201.767 721.758C197.525 718.006 150.539 701.936 141.24 698.836C141.501 688.33 159.077 607.775 167.833 568.811C172.319 546.297 178.6 490.339 180.639 474.106C182.271 461.12 189.15 412.954 192.386 390.495C192.957 375.975 195.828 340.084 202.745 312.676C211.392 278.415 226.646 270.177 232.845 267.403C239.045 264.63 253.565 258.022 267.758 247.663Z" fill="#EE6571"/>
<path fill-rule="evenodd" clip-rule="evenodd" d="M237.909 265.064C242.359 267.39 251.84 273.231 254.507 278.175C258.065 277.508 282.901 261.218 295.489 245.152C297.344 235.8 298.632 226.08 298.632 216.669C293.113 223.521 279.235 239.297 267.88 247.585C256.675 255.763 245.267 261.603 237.909 265.064Z" fill="#EE6671"/>
<path fill-rule="evenodd" clip-rule="evenodd" d="M230.557 268.358C231.022 268.131 231.454 267.932 231.85 267.755C233.4 267.062 235.47 266.129 237.926 264.957C243.936 268.232 251.798 273.332 254.526 278.032C250.937 285.291 225.192 430.003 257.319 484.451C257.239 485.115 257.151 485.781 257.055 486.449C255.168 499.617 256.12 517.427 256.878 531.616C257.431 541.951 257.88 550.365 257.055 553.665C255.462 560.038 256.462 621.36 256.89 647.574C256.988 653.57 257.055 657.729 257.055 658.974C257.055 660.654 257.647 666.174 258.483 673.97C260.976 697.211 265.637 740.683 263.255 762.978C260.074 792.752 258.85 958.179 259.258 979.551C259.666 1000.92 245.472 1003.13 223.693 987.545C201.913 971.965 196.611 946.596 195.713 915.028C195.001 889.953 200.464 847.227 205.194 810.23C206.419 800.649 207.595 791.451 208.602 783.045C212.517 750.351 212.844 715.53 212.517 702.207C212.517 702.207 212.517 702.208 212.517 702.208L212.517 702.206C214.448 672.84 220.022 606.701 226.874 577.074C231.115 561.902 230.218 534.82 219.287 473.968C208.783 415.486 208.75 317.601 230.557 268.358Z" fill="#F37A84"/>
<path fill-rule="evenodd" clip-rule="evenodd" d="M295.211 245.223C292.918 256.759 289.766 267.733 287.111 276.869C282.298 293.428 271.449 337.885 263.129 390.417C258.025 422.644 258.446 442.745 258.782 458.724C258.979 468.123 259.146 476.096 258.141 484.271L257.015 484.552C252.583 476.993 243.376 454.354 242.005 424.27C240.292 386.665 241.026 326.629 253.996 278.093C262.294 274.107 278.054 265.092 295.211 245.223Z" fill="#DB5E68"/>
<path d="M298.091 296.118C299.462 291.485 311.496 280.211 317.342 275.154C320.279 270.831 326.56 263.359 328.191 268.057C330.23 273.93 332.922 314.227 331.372 317.49C330.133 320.1 315.303 345.007 308.043 357.134C304.155 338.726 296.721 300.751 298.091 296.118Z" fill="#C5545D"/>
<path d="M371.846 236.814C370.28 239.098 352.758 245.107 344.193 247.826L339.788 257.207C346.64 258.512 360.67 260.731 361.976 259.165C363.607 257.207 373.804 233.959 371.846 236.814Z" fill="#F37A84"/>
<path d="M315.863 264.301C316.385 254.839 320.268 251.223 322.144 250.597C327.609 249.646 339.731 247.742 344.495 247.742C345.8 254.757 337.071 261.936 326.793 271.806C316.515 281.676 315.21 276.129 315.863 264.301Z" fill="#DB5E68"/>
<path d="M323.716 324.666L258.296 455.018C275.589 448.9 317.354 414.314 331.792 403.546C332.608 397.592 344.925 351.993 350.146 335.597C355.366 319.201 372.089 259.001 372.089 236.65C371.044 244.155 339.405 298.455 323.716 324.666Z" fill="#DB5E68"/>
<path d="M392.235 281.761L371.353 245.299C363.359 261.368 321.431 437.237 321.431 461.219C365.072 407.382 397.537 301.583 397.292 294.894C397.097 289.543 393.839 283.909 392.235 281.761Z" fill="#F37A84"/>
<path d="M380.076 205.655C380.729 212.637 374.475 235.102 371.267 245.462L396.554 295.791C404.711 295.547 416.686 282.74 413.031 270.667C408.463 255.576 380.076 204.268 380.076 205.655Z" fill="#DB5E68"/>
<path d="M318.084 500.537C317.888 493.75 320.232 471.497 321.428 461.219C355.232 421.739 388.806 324.695 401.368 281.109C409.634 276.704 426.166 269.183 426.166 274.338C422.495 310.801 390.682 371.164 378.283 391.802C365.884 412.439 327.301 495.48 322.407 508.449C318.491 518.825 317.893 514.187 318.084 510.57C318.165 510.054 318.279 507.324 318.084 500.537Z" fill="#C4535D"/>
<path d="M20.5124 777.472C3.28449 778.516 13.3341 771.545 20.5124 767.928C57.5785 758.792 139.934 735.517 176.478 725.022C265.935 704.574 453.74 662.195 489.306 656.257C533.762 648.834 597.959 626.564 612.642 632.927C627.325 639.29 621.289 665.556 617.455 678.036C613.621 690.517 601.467 685.704 606.606 670.042C611.745 654.38 601.467 648.915 596.328 646.713C591.189 644.51 546.895 654.707 530.336 657.97C517.089 660.58 300.059 710.176 193.2 734.647C142.816 748.487 37.7404 776.428 20.5124 777.472Z" fill="#543343"/>
<path d="M420.542 625.179L429.107 616.288C445.258 630.318 477.25 658.885 476.011 660.908C474.461 663.437 463.122 670.778 455.699 674.612C453.66 668.086 427.639 638.883 423.071 633.255C419.416 628.752 419.862 625.995 420.542 625.179Z" fill="#C4C4C4"/>
<path d="M553.798 402.649C547.794 368.519 512.468 295.273 495.556 262.916C495.556 262.916 488.083 263.981 483.591 266.179C472.252 271.726 468.582 279.067 467.276 281.025C453.284 302.013 457.137 332.805 458.711 342.938C465.074 383.887 476.713 416.842 476.713 416.842C485.686 434.706 502.016 477.613 495.556 506.326C489.095 535.04 434.375 604.403 421.922 613.919C443.376 627.624 464.421 653.563 477.065 667.267C493.216 656.418 537.076 590.835 557.958 557.39C578.84 523.946 578.922 481.284 571.336 458.688C563.75 436.093 561.303 445.311 553.798 402.649Z" fill="#C4535D"/>
<path d="M369.799 658.703C378.217 635.733 408.437 628.576 422.494 627.869C432.691 637.005 453.084 657.545 453.084 666.616C420.047 668.818 413.603 676.894 408.545 689.211C403.488 701.528 394.923 694.676 396.065 686.764C392.884 696.634 389.458 689.211 389.458 676.894C388.397 690.353 378.445 707.483 376.896 685.133C375.929 671.197 382.732 659.196 385.935 654.526C385.742 654.757 385.53 655.007 385.297 655.277C376.814 665.147 374.612 677.383 367.76 689.211C359.766 698.51 359.276 687.417 369.799 658.703Z" fill="#FFC9BA"/>
<path fill-rule="evenodd" clip-rule="evenodd" d="M169.685 694.546C161.72 693.721 152.87 695.627 146.862 697.776C139.113 701.909 122.244 712.964 116.762 724.123C109.91 738.072 107.381 756.426 118.067 752.347C119.812 751.68 121.84 744.173 123.142 738.154C122.348 743.295 121.977 750.382 124.022 755.202C127.448 763.278 135.197 765.97 136.665 759.933C138.134 753.897 135.605 745.821 134.3 741.743C132.995 737.664 137.644 716.945 139.194 714.987C138.792 716.879 138.273 718.792 137.741 720.755C134.92 731.148 131.716 742.953 143.517 760.586C148.004 766.541 153.877 760.749 150.369 754.305C156.49 761.053 158.383 759.121 159.462 758.02C159.505 757.977 159.547 757.935 159.587 757.894C159.994 757.487 159.956 756.226 159.622 754.689L157.307 754.209L158.115 750.311C157.584 749.196 156.969 748.202 156.324 747.534C154.172 745.308 154.788 732.08 162.53 729.033L169.685 694.546Z" fill="#FFC9BA"/>
<path d="M169.463 708.624L143.441 699.57L148.907 690.434L172.889 692.554L169.463 708.624Z" fill="#EE6570"/>
<path d="M271.1 91.207C277.43 84.2897 289.997 85.6601 295.49 87.2099C323.415 88.0257 380.651 88.7272 386.198 85.0075C393.131 80.3579 418.827 74.4032 415.972 88.352C413.688 99.511 401.153 102.518 395.171 102.627L391.989 106.135C362.025 107.984 298.883 111.518 286.028 110.866C269.958 110.05 263.188 99.8536 271.1 91.207Z" fill="#C4535D"/>
<path d="M293.121 86.6405C295.275 70.6524 290.103 36.6913 287.248 21.7093C310.985 7.43427 380.648 8.57627 393.536 12.818C381.627 46.5887 389.294 83.9486 391.171 92.4321C387.745 99.5288 368.738 100.1 353.729 96.9185C338.72 93.7372 300.952 89.0061 293.121 86.6405Z" fill="#F37A84"/>
<path d="M317.263 99.2036C292.629 96.1039 287.081 107.035 286.103 110.868C286.103 129.875 286.103 154.02 293.036 191.053C299.97 228.087 339.532 223.601 348.342 222.377C357.152 221.153 378.687 213.159 387.741 189.177C396.796 165.195 396.959 110.868 395.572 102.548C390.596 103.527 341.898 102.303 317.263 99.2036Z" fill="#FFC9BA"/>
<path fill-rule="evenodd" clip-rule="evenodd" d="M286.82 140.312C288.297 135.776 290.572 130.929 293.617 129.036C299.653 125.283 309.883 118.643 319.312 109.214C323.046 105.48 325.158 102.517 326 100.19C322.898 99.9018 319.988 99.5917 317.354 99.2603C292.719 96.1605 287.172 107.091 286.193 110.925C286.193 119.453 286.193 129.015 286.82 140.312Z" fill="#292929"/>
<path fill-rule="evenodd" clip-rule="evenodd" d="M367.551 102.823C364.56 106.14 363.822 115.086 372.827 119.98C374.724 121.011 376.398 121.893 377.886 122.678C385.229 126.548 388.032 128.026 390.61 133.113C392.035 135.926 394.014 137.383 395.775 138.072C396.643 121.268 396.335 106.608 395.668 102.604C393.387 103.053 381.923 103.039 367.8 102.594C367.704 102.669 367.62 102.746 367.551 102.823Z" fill="#292929"/>
<path d="M395.174 178.083C376.119 172.863 358.63 177.866 352.268 181.02C380.328 191.869 399.661 198.15 427.395 195.947C451.948 193.998 465.081 162.421 444.688 154.346C424.295 146.27 418.014 162.666 415.894 170.171C424.54 156.059 433.024 166.255 430.821 171.965C428.084 179.062 418.993 184.609 395.174 178.083Z" fill="#292929"/>
<path d="M297.282 177.675C320.578 166.843 343.641 175.391 352.261 181.02C308.62 203.208 281.456 207.041 266.611 202.31C251.765 197.579 237.734 181.02 239.447 163.074C240.817 148.717 255.136 143.007 262.124 141.947C268.894 141.539 282.24 143.839 281.456 156.303C280.673 168.767 271.233 168.675 266.611 167.071C286.025 158.832 249.317 149.207 257.311 171.639C260.928 178.165 273.985 188.508 297.282 177.675Z" fill="#292929"/>
<path d="M358.554 118.128C356.023 175.636 365.394 209.274 340.28 177.799C344.788 160.976 350.063 120.985 358.554 118.128Z" fill="#F0BBAC"/>
<path d="M366.347 143.965C368.99 143.04 378.427 140.196 383.019 144.245C383.338 144.519 383.349 144.978 383.075 145.297C377.904 150.923 369.359 153.502 365.927 144.961C365.783 144.536 365.956 144.101 366.347 143.965Z" fill="white"/>
<path d="M305.984 142.711C309.483 141.485 320.746 138.156 324.535 145.083C324.718 145.423 324.649 145.88 324.336 146.145C314.982 154.129 308.499 148.004 305.592 144.017C305.274 143.54 305.448 142.903 305.984 142.711Z" fill="white"/>
<path d="M310.886 141.304C310.886 141.304 309.782 147.843 310.235 148.458C310.688 149.072 314.787 150.587 316.219 150.141C317.651 149.694 321.746 143.489 320.43 141.614C319.109 139.777 310.886 141.304 310.886 141.304Z" fill="#2C1E25"/>
<path d="M371.117 142.635C371.117 142.635 377.726 141.512 379.451 142.421C381.153 144.9 380.194 148.096 378.745 148.964C376.889 150.044 373.06 150.776 372.59 150.469C372.146 150.121 369.634 146.143 371.117 142.635Z" fill="#2C1E25"/>
<path d="M334.071 144.558C334.071 155.1 323.975 166.174 313.433 166.174C302.891 166.174 295.813 155.1 295.813 144.558C295.813 134.016 302.891 127.917 313.433 127.917C323.975 127.917 334.071 134.016 334.071 144.558Z" fill="#C7E6ED" fill-opacity="0.5"/>
<path d="M354.958 212.505C343.603 202.194 334.456 208.644 331.302 213.157C316.211 229.064 328.447 249.375 331.302 262.019C335.543 242.523 369.151 225.393 354.958 212.505Z" fill="#292929"/>
<path fill-rule="evenodd" clip-rule="evenodd" d="M358.576 197.869C358.962 198.787 357.61 199.746 356.075 200.582C354.522 201.427 352.61 202.363 349.887 202.6C347.236 202.831 345.289 201.948 342.756 201.742C340.351 201.546 337.325 201.978 335.509 201.43C333.637 200.866 333.701 199.841 333.48 198.945C333.242 197.979 332.513 196.918 334.186 196.067C335.853 195.22 339.014 194.907 341.813 194.709C344.168 194.543 346.313 194.84 348.519 195.054C350.546 195.25 352.501 195.451 354.104 195.9C356.023 196.437 358.206 196.99 358.576 197.869Z" fill="#DBA89A"/>
</svg>
