<svg width="632" height="770" fill="none" xmlns="http://www.w3.org/2000/svg"><mask id="a" maskUnits="userSpaceOnUse" x="0" y="0" width="632" height="1387" fill="#000"><path fill="#fff" d="M0 0h632v1387H0z"/><path fill-rule="evenodd" clip-rule="evenodd" d="M293.121 86.64c2.153-15.988-3.018-49.949-5.873-64.93 23.737-14.276 93.399-13.134 106.288-8.892-9.358 26.535-6.629 55.285-4.12 70.503 9.459-4.102 29.077-7.25 26.563 5.031-2.223 10.863-14.16 14.001-20.31 14.261.666 4.015.973 18.666.105 35.459l-.037-.015-.059-.023c-.676 13.066-2.064 27.428-4.548 39.085 1.338.272 2.687.592 4.045.964 23.819 6.526 32.909.979 35.646-6.118 2.203-5.71-6.281-15.906-14.927-1.794 2.121-7.505 8.402-23.901 28.795-15.825 20.393 8.075 7.26 39.652-17.294 41.601-15.275 1.213-28.001-.147-41.041-3.427a52.521 52.521 0 01-5.776 9.791 229.006 229.006 0 01-.239 3.598c.935 1.316 4.264 7.122 8.481 14.848 13.228 12.976 52.763 39.293 106.735 42.16l.001-.001v.001l.027.001-.025.003c16.914 32.36 52.237 105.6 58.24 139.728 4.955 28.169 7.705 33.72 11.186 40.745 1.791 3.614 3.775 7.619 6.352 15.295 7.586 22.595 7.504 65.257-13.378 98.702-16.394 26.256-46.95 72.321-67.143 96.159.175.785.349 1.571.522 2.359 16.388-2.861 35.25-7.6 53.252-12.123l.005-.002.004-.001h.003l.002-.001h.002l.002-.001h.001c30.715-7.718 58.918-14.805 68.034-10.854 14.683 6.362 8.647 32.628 4.813 45.109-3.834 12.48-15.988 7.668-10.849-7.994 5.139-15.662-5.139-21.127-10.278-23.33-4.07-1.744-32.702 4.289-52.663 8.496l-.004.001-.01.002c-5.235 1.103-9.874 2.08-13.315 2.758-3.003.592-16.478 3.598-36.768 8.179 4.009 18.62 7.929 37.956 11.804 57.08 4.332 21.381 10.516 45.722 16.726 70.16l.001.004v.001c12.031 47.35 24.156 95.067 23.08 122.344-1.305 33.086-27.082 45.599-39.807 47.72-4.586.461-9.716.995-15.237 1.59 9.637 35.543 14.889 114.323 16.382 152.253-1.849 19.66-4.437 68.21 0 105.15 2.708 22.54 2.208 39.79-.967 51.91 21.111 2.57 25.217 29.96 26.417 41.4 1.224 11.67-4.731 14.28-24.553 6.94-13.334-4.94-19.028-18.03-20.826-26.81-16.684 1.56-37.596-48.54-49.407-143.51-8.348-67.13-28.994-134.26-44.538-174.491-7.736 1.323-14.619 2.648-20.199 3.942-6.13 95.859-7.943 323.519-7.943 348.539-.326.28-.652.56-.977.83v14.74c-8.418 10.05-34.342 16.92-46.251 19.09v-13.95c-9.599 8.19-34.554 24.67-57.59 25.13-28.795.57-19.088-17.7 0-28.31 12.392-6.88 28.665-18.32 38.996-25.93 2.011-23.41-8.253-215.39-15.424-253.69-4.277-22.85-14.732-82.822-22.98-130.528-.123 20.352-.128 35.846-.021 41.447.193 10.114-2.884 15.935-8.488 17.61-6.214 2.559-15.973-.608-28.073-9.264-21.78-15.58-27.082-40.949-27.979-72.517-.713-25.075 4.75-67.801 9.48-104.797 1.225-9.582 2.401-18.78 3.408-27.186 2.193-18.308 3.26-37.282 3.717-52.776l-19.119 4.378c-2.688.738-5.532 1.517-8.51 2.329-5.066 12.75-14.272 18.584-18.573 16.679-5.156-2.284-1.387-8.239 1.142-10.931.192-.368.387-.763.581-1.177a7042.307 7042.307 0 01-12.458 3.348c.168 1.232.497 2.177.946 2.642 2.366 2.447 4.323 9.299 3.263 10.359l-.125.127c-.689.703-1.711 1.745-3.955.647-1.268-.62-2.926-1.923-5.134-4.357 2.808 5.168-.415 9.914-4.116 8.515a4.619 4.619 0 01-.795-.394c-.657-.403-1.317-1.009-1.949-1.848-2.633-3.934-4.519-7.579-5.829-10.982l-1.196.317c.636 3.335.925 6.94.177 10.015-.739 3.04-3.072 3.866-5.643 2.905-.46-.171-.928-.4-1.395-.684-2.109-1.279-4.217-3.672-5.609-6.954a15.262 15.262 0 01-.638-1.833c-45.377 11.882-91.909 23.437-102.872 24.102-17.228 1.044-7.178-5.928 0-9.544 21.075-5.194 56.79-14.96 90.402-24.348.453-5.672 2.692-13.031 5.848-19.456 4.8-9.772 18.332-19.465 26.826-24.499-.935-.316-1.725-.581-2.347-.788.261-10.507 17.837-91.062 26.592-130.026 3.641-18.272 8.464-58.574 11.243-81.789.645-5.389 1.179-9.857 1.564-12.916 1.631-12.986 8.51-61.151 11.746-83.611.571-14.52 3.442-50.411 10.36-77.819 7.687-30.461 20.598-40.352 27.724-44.12l.088-.198c.465-.226.897-.426 1.292-.602 1.55-.694 3.621-1.627 6.076-2.799l.097.053c5.756-2.711 13.949-6.862 22.578-12.432a154.574 154.574 0 007.157-4.915c10.903-7.958 24.132-22.819 30.055-30.056.263-4.616.453-9.232.415-12.403a36.505 36.505 0 01-1.628-3.009c-13.081 2.678-22.928 2.365-29.989.115-14.846-4.732-28.877-21.29-27.164-39.236 1.37-14.357 15.689-20.067 22.677-21.128 6.77-.407 20.116 1.893 19.333 14.357-.784 12.464-10.224 12.372-14.846 10.768 19.414-8.239-17.294-17.865-9.3 4.568 3.285 5.927 14.358 15.003 33.817 8.502-5.025-30.981-5.025-52.199-5.025-69.271l-.068-.004c-16.069-.816-22.84-11.012-14.927-19.659 5.566-6.083 15.957-5.756 22.118-4.535a10.58 10.58 0 01-.105-.031zm102.463 15.98l.029-.005-.029.001v.004zM139.192 714.997c-.402 1.889-.92 3.799-1.452 5.758-1.324 4.881-2.733 10.073-2.633 16.033l-.899.254c.678-7.539 3.769-20.48 4.984-22.045zm-16.061 23.229c-.098.642-.19 1.315-.271 2.009l-.193.054c.163-.698.318-1.39.464-2.063zm372.088-475.258a40.038 40.038 0 00-3.864.734 65.228 65.228 0 013.864-.734zm-18.491 153.905c-4.194 9.867-13.631 37.247-17.934 68.083-.876 6.283-1.729 11.617-2.477 16.292l-.001.006v.001c-3.843 24.031-4.907 30.68 7.862 59.563.186.42.371.844.556 1.273 14.616-20.664 27.844-42.531 30.822-55.764 6.457-28.697-9.852-71.572-18.828-89.454zM212.586 716.794a472.79 472.79 0 00-.039-13.215c-2.065 3.662-5.564 9.737-8.961 15.261l4.674-1.063 4.326-.983zm-13.953 3.173c-2.48-1.185-6.141-2.702-10.445-4.382a62.151 62.151 0 01-.182 6.804 24863.1 24863.1 0 0110.627-2.422zm-34.765 8.663c-.366.08-.718.181-1.058.302l1.058-.302z"/></mask><path fill-rule="evenodd" clip-rule="evenodd" d="M293.121 86.64c2.153-15.988-3.018-49.949-5.873-64.93 23.737-14.276 93.399-13.134 106.288-8.892-9.358 26.535-6.629 55.285-4.12 70.503 9.459-4.102 29.077-7.25 26.563 5.031-2.223 10.863-14.16 14.001-20.31 14.261.666 4.015.973 18.666.105 35.459l-.037-.015-.059-.023c-.676 13.066-2.064 27.428-4.548 39.085 1.338.272 2.687.592 4.045.964 23.819 6.526 32.909.979 35.646-6.118 2.203-5.71-6.281-15.906-14.927-1.794 2.121-7.505 8.402-23.901 28.795-15.825 20.393 8.075 7.26 39.652-17.294 41.601-15.275 1.213-28.001-.147-41.041-3.427a52.521 52.521 0 01-5.776 9.791 229.006 229.006 0 01-.239 3.598c.935 1.316 4.264 7.122 8.481 14.848 13.228 12.976 52.763 39.293 106.735 42.16l.001-.001v.001l.027.001-.025.003c16.914 32.36 52.237 105.6 58.24 139.728 4.955 28.169 7.705 33.72 11.186 40.745 1.791 3.614 3.775 7.619 6.352 15.295 7.586 22.595 7.504 65.257-13.378 98.702-16.394 26.256-46.95 72.321-67.143 96.159.175.785.349 1.571.522 2.359 16.388-2.861 35.25-7.6 53.252-12.123l.005-.002.004-.001h.003l.002-.001h.002l.002-.001h.001c30.715-7.718 58.918-14.805 68.034-10.854 14.683 6.362 8.647 32.628 4.813 45.109-3.834 12.48-15.988 7.668-10.849-7.994 5.139-15.662-5.139-21.127-10.278-23.33-4.07-1.744-32.702 4.289-52.663 8.496l-.004.001-.01.002c-5.235 1.103-9.874 2.08-13.315 2.758-3.003.592-16.478 3.598-36.768 8.179 4.009 18.62 7.929 37.956 11.804 57.08 4.332 21.381 10.516 45.722 16.726 70.16l.001.004v.001c12.031 47.35 24.156 95.067 23.08 122.344-1.305 33.086-27.082 45.599-39.807 47.72-4.586.461-9.716.995-15.237 1.59 9.637 35.543 14.889 114.323 16.382 152.253-1.849 19.66-4.437 68.21 0 105.15 2.708 22.54 2.208 39.79-.967 51.91 21.111 2.57 25.217 29.96 26.417 41.4 1.224 11.67-4.731 14.28-24.553 6.94-13.334-4.94-19.028-18.03-20.826-26.81-16.684 1.56-37.596-48.54-49.407-143.51-8.348-67.13-28.994-134.26-44.538-174.491-7.736 1.323-14.619 2.648-20.199 3.942-6.13 95.859-7.943 323.519-7.943 348.539-.326.28-.652.56-.977.83v14.74c-8.418 10.05-34.342 16.92-46.251 19.09v-13.95c-9.599 8.19-34.554 24.67-57.59 25.13-28.795.57-19.088-17.7 0-28.31 12.392-6.88 28.665-18.32 38.996-25.93 2.011-23.41-8.253-215.39-15.424-253.69-4.277-22.85-14.732-82.822-22.98-130.528-.123 20.352-.128 35.846-.021 41.447.193 10.114-2.884 15.935-8.488 17.61-6.214 2.559-15.973-.608-28.073-9.264-21.78-15.58-27.082-40.949-27.979-72.517-.713-25.075 4.75-67.801 9.48-104.797 1.225-9.582 2.401-18.78 3.408-27.186 2.193-18.308 3.26-37.282 3.717-52.776l-19.119 4.378c-2.688.738-5.532 1.517-8.51 2.329-5.066 12.75-14.272 18.584-18.573 16.679-5.156-2.284-1.387-8.239 1.142-10.931.192-.368.387-.763.581-1.177a7042.307 7042.307 0 01-12.458 3.348c.168 1.232.497 2.177.946 2.642 2.366 2.447 4.323 9.299 3.263 10.359l-.125.127c-.689.703-1.711 1.745-3.955.647-1.268-.62-2.926-1.923-5.134-4.357 2.808 5.168-.415 9.914-4.116 8.515a4.619 4.619 0 01-.795-.394c-.657-.403-1.317-1.009-1.949-1.848-2.633-3.934-4.519-7.579-5.829-10.982l-1.196.317c.636 3.335.925 6.94.177 10.015-.739 3.04-3.072 3.866-5.643 2.905-.46-.171-.928-.4-1.395-.684-2.109-1.279-4.217-3.672-5.609-6.954a15.262 15.262 0 01-.638-1.833c-45.377 11.882-91.909 23.437-102.872 24.102-17.228 1.044-7.178-5.928 0-9.544 21.075-5.194 56.79-14.96 90.402-24.348.453-5.672 2.692-13.031 5.848-19.456 4.8-9.772 18.332-19.465 26.826-24.499-.935-.316-1.725-.581-2.347-.788.261-10.507 17.837-91.062 26.592-130.026 3.641-18.272 8.464-58.574 11.243-81.789.645-5.389 1.179-9.857 1.564-12.916 1.631-12.986 8.51-61.151 11.746-83.611.571-14.52 3.442-50.411 10.36-77.819 7.687-30.461 20.598-40.352 27.724-44.12l.088-.198c.465-.226.897-.426 1.292-.602 1.55-.694 3.621-1.627 6.076-2.799l.097.053c5.756-2.711 13.949-6.862 22.578-12.432a154.574 154.574 0 007.157-4.915c10.903-7.958 24.132-22.819 30.055-30.056.263-4.616.453-9.232.415-12.403a36.505 36.505 0 01-1.628-3.009c-13.081 2.678-22.928 2.365-29.989.115-14.846-4.732-28.877-21.29-27.164-39.236 1.37-14.357 15.689-20.067 22.677-21.128 6.77-.407 20.116 1.893 19.333 14.357-.784 12.464-10.224 12.372-14.846 10.768 19.414-8.239-17.294-17.865-9.3 4.568 3.285 5.927 14.358 15.003 33.817 8.502-5.025-30.981-5.025-52.199-5.025-69.271l-.068-.004c-16.069-.816-22.84-11.012-14.927-19.659 5.566-6.083 15.957-5.756 22.118-4.535a10.58 10.58 0 01-.105-.031zm102.463 15.98l.029-.005-.029.001v.004zM139.192 714.997c-.402 1.889-.92 3.799-1.452 5.758-1.324 4.881-2.733 10.073-2.633 16.033l-.899.254c.678-7.539 3.769-20.48 4.984-22.045zm-16.061 23.229c-.098.642-.19 1.315-.271 2.009l-.193.054c.163-.698.318-1.39.464-2.063zm372.088-475.258a40.038 40.038 0 00-3.864.734 65.228 65.228 0 013.864-.734zm-18.491 153.905c-4.194 9.867-13.631 37.247-17.934 68.083-.876 6.283-1.729 11.617-2.477 16.292l-.001.006v.001c-3.843 24.031-4.907 30.68 7.862 59.563.186.42.371.844.556 1.273 14.616-20.664 27.844-42.531 30.822-55.764 6.457-28.697-9.852-71.572-18.828-89.454zM212.586 716.794a472.79 472.79 0 00-.039-13.215c-2.065 3.662-5.564 9.737-8.961 15.261l4.674-1.063 4.326-.983zm-13.953 3.173c-2.48-1.185-6.141-2.702-10.445-4.382a62.151 62.151 0 01-.182 6.804 24863.1 24863.1 0 0110.627-2.422zm-34.765 8.663c-.366.08-.718.181-1.058.302l1.058-.302z" fill="#DBA89A"/><path d="M287.248 21.71l-5.154-8.57a10 10 0 00-4.67 10.441l9.824-1.872zm5.873 64.93l-9.911-1.334a10 10 0 007.02 10.907l2.891-9.572zm100.415-73.822l9.43 3.326a9.997 9.997 0 00-6.304-12.825l-3.126 9.499zm-4.12 70.503l-9.867 1.626a10.001 10.001 0 0013.845 7.548l-3.978-9.174zm26.563 5.031l-9.797-2.005 9.797 2.005zm-20.31 14.261l-.422-9.992a10 10 0 00-9.443 11.629l9.865-1.637zm.105 35.459l-3.667 9.303a10 10 0 0013.654-8.787l-9.987-.516zm-.037-.015l-3.721 9.283.054.021 3.667-9.304zm-.059-.023l3.721-9.282a10 10 0 00-13.707 8.765l9.986.517zm-4.548 39.085l-9.78-2.085a10.002 10.002 0 007.784 11.884l1.996-9.799zm4.045.964l2.642-9.644-2.642 9.644zm35.646-6.118l9.33 3.599-9.33-3.599zm-14.927-1.794l-9.623-2.72a10 10 0 0018.15 7.944l-8.527-5.224zm11.501 25.776l-.791-9.968.791 9.968zm-41.041-3.427l2.439-9.697a9.998 9.998 0 00-11.545 5.566l9.106 4.131zm-5.776 9.791l-8.007-5.99a9.997 9.997 0 00-1.976 5.409l9.983.581zm-.239 3.598l-9.972-.739a9.998 9.998 0 001.817 6.526l8.155-5.787zm8.481 14.848l-8.778 4.79a9.972 9.972 0 001.775 2.348l7.003-7.138zm106.735 42.16l-.531 9.985a9.918 9.918 0 001.986-.092l-1.455-9.893zm.001-.001l8.682-4.961a9.999 9.999 0 00-10.137-4.932l1.455 9.893zm0 .001l-8.683 4.961a10.003 10.003 0 008.155 5.025l.528-9.986zm.027.001l1.305 9.915a10 10 0 00-.777-19.901l-.528 9.986zm-.025.003l-1.304-9.914a10.001 10.001 0 00-7.558 14.547l8.862-4.633zm58.24 139.728l-9.849 1.732 9.849-1.732zm11.186 40.745l-8.961 4.439 8.961-4.439zm6.352 15.295l9.48-3.183-9.48 3.183zm-13.378 98.702l8.482 5.296-8.482-5.296zm-67.143 96.159l-7.63-6.463a9.998 9.998 0 00-2.132 8.631l9.762-2.168zm.522 2.359l-9.765 2.155a10 10 0 0011.485 7.696l-1.72-9.851zm53.252-12.123l-2.347-9.721-.09.022 2.437 9.699zm.005-.002l2.346 9.721c.096-.023.19-.047.285-.073l-2.631-9.648zm.004-.001l-2.291-9.734a9.959 9.959 0 00-.34.087l2.631 9.647zm.003 0l-2.249-9.744-.041.009 2.29 9.735zm.002-.001l2.249 9.744a9.75 9.75 0 00.625-.166l-2.874-9.578zm.002 0l-2.425-9.702c-.15.038-.3.079-.448.123l2.873 9.579zm.002-.001l-1.644-9.864a9.955 9.955 0 00-.782.163l2.426 9.701zm.001 0l1.644 9.864c.266-.044.531-.1.793-.166l-2.437-9.698zm68.034-10.854l3.976-9.176-3.976 9.176zm4.813 45.109l-9.559-2.937 9.559 2.937zm-21.127-31.324l3.939-9.191-3.939 9.191zm-52.663 8.496l-2.062-9.786-.186.042 2.248 9.744zm-.004.001l2.108 9.775.14-.031-2.248-9.744zm-.01.002l2.062 9.785.047-.01-2.109-9.775zm-13.315 2.758l-1.933-9.811 1.933 9.811zm-36.768 8.179l-2.202-9.755c-5.349 1.208-8.728 6.499-7.574 11.86l9.776-2.105zm11.804 57.08l-9.801 1.985 9.801-1.985zm16.726 70.16l9.701-2.426-.009-.037-9.692 2.463zm.001.004l-9.702 2.426.028.108 9.674-2.534zm0 .001l9.692-2.462-.018-.071-9.674 2.533zm23.08 122.344l9.992.394-9.992-.394zm-39.807 47.72l1 9.949c.216-.021.43-.05.644-.085l-1.644-9.864zm-15.237 1.59l-1.072-9.942a9.996 9.996 0 00-8.579 12.559l9.651-2.617zm16.382 152.253l9.956.94c.042-.44.054-.89.036-1.33l-9.992.39zm0 105.15l-9.928 1.19 9.928-1.19zm-.967 51.91l-9.674-2.53a10.003 10.003 0 008.466 12.46l1.208-9.93zm26.417 41.4l-9.945 1.04 9.945-1.04zm-24.553 6.94l-3.473 9.37 3.473-9.37zm-20.826-26.81l9.797-2.01c-1.024-5-5.646-8.42-10.727-7.95l.93 9.96zm-49.407-143.51l-9.923 1.23 9.923-1.23zm-44.538-174.491l9.328-3.604a9.999 9.999 0 00-11.014-6.253l1.686 9.857zm-20.199 3.942l-2.258-9.742a10 10 0 00-7.722 9.103l9.98.639zm-7.943 348.539l6.565 7.54a10 10 0 003.435-7.54h-10zm-.977.83l-6.407-7.68a9.997 9.997 0 00-3.593 7.68h10zm0 14.74l7.666 6.42a9.997 9.997 0 002.334-6.42h-10zm-46.251 19.09h-10c0 2.97 1.317 5.78 3.595 7.68a10.013 10.013 0 008.201 2.16l-1.796-9.84zm0-13.95h10c0-3.9-2.269-7.44-5.81-9.08a10.011 10.011 0 00-10.679 1.47l6.489 7.61zm-57.59 25.13l-.199-10 .199 10zm0-28.31l-4.857-8.74 4.857 8.74zm38.996-25.93l5.931 8.05a9.969 9.969 0 004.032-7.19l-9.963-.86zm-15.424-253.69l9.829-1.84-9.829 1.84zm-22.98-130.528l9.854-1.704a10 10 0 00-19.854 1.643l10 .061zm-.021 41.447l9.998-.191-9.998.191zm-8.488 17.61l-2.863-9.582c-.321.096-.636.208-.946.335l3.809 9.247zm-28.073-9.264l-5.818 8.133 5.818-8.133zm-27.979-72.517l9.996-.284-9.996.284zm9.48-104.797l-9.919-1.269 9.919 1.269zm3.408-27.186l9.929 1.189-9.929-1.189zm3.717-52.776l9.996.295a10 10 0 00-12.227-10.043l2.231 9.748zm-19.119 4.378l-2.232-9.748c-.14.032-.279.067-.417.105l2.649 9.643zm-8.51 2.329l-2.632-9.647a9.998 9.998 0 00-6.661 5.955l9.293 3.692zm-18.573 16.679l4.05-9.143-4.05 9.143zm1.142-10.931l7.288 6.847a10.037 10.037 0 001.579-2.223l-8.867-4.624zm.581-1.177l9.056 4.242a10.001 10.001 0 00-11.66-13.897l2.604 9.655zm-12.458 3.348l-2.586-9.66a10 10 0 00-7.322 11.013l9.908-1.353zm.946 2.642l7.19-6.95v-.001l-7.19 6.951zm3.263 10.359l7.07 7.073.001-.002-7.071-7.071zm-.125.127l7.141 7.001.002-.003-7.143-6.998zm-3.955.647l4.396-8.982-.005-.003-4.391 8.985zm-5.134-4.357l7.405-6.719a9.999 9.999 0 00-16.192 11.494l8.787-4.775zm-4.116 8.515l3.537-9.353-.001-.001-3.536 9.354zm-.795-.394l5.242-8.516-.007-.004-5.235 8.52zm-1.949-1.848l-8.31 5.562c.103.155.211.307.323.456l7.987-6.018zm-5.829-10.982l9.332-3.592a9.999 9.999 0 00-11.889-6.075l2.557 9.667zm-1.196.317l-2.557-9.668a10 10 0 00-7.266 11.542l9.823-1.874zm.177 10.015l-9.716-2.364 9.716 2.364zm-5.643 2.905l3.5-9.367h-.001l-3.499 9.367zm-1.395-.684l5.188-8.549-.003-.002-5.185 8.551zm-5.609-6.954l-9.206 3.905 9.206-3.905zm-.638-1.833l9.627-2.707a10 10 0 00-12.16-6.967l2.533 9.674zM20.512 777.472l.605 9.982-.605-9.982zm0-9.544l-2.393-9.709a9.949 9.949 0 00-2.106.778l4.5 8.931zm90.402-24.348l2.691 9.631a10.001 10.001 0 007.278-8.835l-9.969-.796zm5.848-19.456l-8.975-4.409 8.975 4.409zm26.826-24.499l5.099 8.603a10 10 0 00-1.899-18.077l-3.2 9.474zm-2.347-.788l-9.997-.249a10 10 0 006.834 9.736l3.163-9.487zm26.592-130.026l9.757 2.193.05-.238-9.807-1.955zm11.243-81.789l9.929 1.189-9.929-1.189zm1.564-12.916l9.922 1.247-9.922-1.247zm11.746-83.611l9.898 1.426a9.91 9.91 0 00.094-1.033l-9.992-.393zm10.36-77.819l-9.696-2.447 9.696 2.447zm27.724-44.12l4.675 8.84a10.008 10.008 0 004.473-4.8l-9.148-4.04zm.088-.198l-4.382-8.989a10 10 0 00-4.766 4.949l9.148 4.04zm1.292-.602l-4.084-9.129v.001l4.084 9.128zm6.076-2.799l4.79-8.778a10 10 0 00-9.096-.247l4.306 9.025zm.097.053l-4.79 8.778a10 10 0 009.052.269l-4.262-9.047zm22.578-12.432l5.423 8.401.008-.005-5.431-8.396zm7.157-4.915l5.896 8.077-5.896-8.077zm30.055-30.056l7.738 6.334a9.997 9.997 0 002.245-5.764l-9.983-.57zm.415-12.403l9.999-.119a9.99 9.99 0 00-1.44-5.051l-8.559 5.17zm-1.628-3.009l9.007-4.345a10 10 0 00-11.012-5.452l2.005 9.797zm-29.989.115l3.036-9.528-3.036 9.528zm-27.164-39.236l-9.955-.951 9.955.951zm22.677-21.128l-.601-9.981a9.679 9.679 0 00-.899.095l1.5 9.886zm19.333 14.357l-9.981-.627 9.981.627zm-14.846 10.768l-3.907-9.206a10.002 10.002 0 00.628 18.653l3.279-9.447zm-9.3 4.568l-9.419 3.357c.183.514.408 1.012.673 1.49l8.746-4.847zm33.817 8.502l3.169 9.485a10 10 0 006.702-11.086l-9.871 1.601zm-5.025-69.271h10a10 10 0 00-9.502-9.988l-.498 9.988zm-.068-.004l-.507 9.987.009.001.498-9.988zm-14.927-19.659l7.377 6.751-7.377-6.75zm22.118-4.535l-1.945 9.809a10 10 0 004.774-19.4l-2.829 9.59zm102.387 15.943l1.761 9.844a10.001 10.001 0 00-2.151-19.837l.39 9.993zm-.029.005l-9.872 1.595a10.002 10.002 0 0011.633 8.249l-1.761-9.844zm0-.004l-.39-9.992a10 10 0 00-9.482 11.587l9.872-1.595zM137.74 720.755l-9.65-2.619 9.65 2.619zm1.452-5.758l9.781 2.079a9.998 9.998 0 00-17.68-8.21l7.899 6.131zm-4.085 21.791l2.715 9.624a9.998 9.998 0 007.283-9.792l-9.998.168zm-.899.254l-9.96-.896a10 10 0 0012.675 10.52l-2.715-9.624zm-11.348 3.193l2.702 9.628a10.002 10.002 0 007.23-8.467l-9.932-1.161zm.271-2.009l9.885 1.515a10 10 0 00-19.658-3.634l9.773 2.119zm-.464 2.063l-9.739-2.269a9.999 9.999 0 0012.441 11.897l-2.702-9.628zm372.552-477.321l1.551 9.879c5.424-.852 9.148-5.919 8.34-11.35-.807-5.431-5.843-9.196-11.281-8.432l1.39 9.903zm-3.864.734l-2.348-9.72c-5.332 1.288-8.63 6.63-7.394 11.974 1.236 5.343 6.545 8.694 11.9 7.51l-2.158-9.764zm-32.561 221.254l9.904 1.382-9.904-1.382zm17.934-68.083l8.937-4.486a9.997 9.997 0 00-18.14.575l9.203 3.911zm-20.411 84.375l-9.875-1.579a1.508 1.508 0 01-.011.071l9.886 1.508zm-.001.006l9.829 1.843c.021-.112.04-.223.057-.335l-9.886-1.508zm0 .001l-9.829-1.843c-.016.088-.032.176-.046.264l9.875 1.579zm7.862 59.563l9.146-4.043-9.146 4.043zm.556 1.273l-9.182 3.961a9.998 9.998 0 0017.346 1.814l-8.164-5.775zm30.822-55.764l-9.756-2.195 9.756 2.195zM212.547 703.579l9.998-.191a10 10 0 00-18.708-4.72l8.71 4.911zm.039 13.215l2.215 9.751a9.999 9.999 0 007.784-9.655l-9.999-.096zm-9 2.046l-8.518-5.238a10 10 0 0010.737 14.989l-2.219-9.751zm4.674-1.063l2.217 9.751-2.217-9.751zm-20.072-2.192l3.635-9.316a10.001 10.001 0 00-13.631 9.586l9.996-.27zm10.445 4.382l2.22 9.751a10.001 10.001 0 002.093-18.773l-4.313 9.022zm-10.627 2.422l-9.966-.825a10.003 10.003 0 0012.19 10.575l-2.224-9.75zm-24.138 6.241l2.743 9.617a10 10 0 006.953-12.061 10 10 0 00-11.839-7.324l2.143 9.768zm-1.058.302l-3.341-9.425a10 10 0 006.084 19.041l-2.743-9.616zm114.614-705.35c1.387 7.278 3.352 19.257 4.7 31.326 1.382 12.375 1.981 23.755 1.086 30.398l19.821 2.67c1.259-9.346.349-22.941-1.03-35.288-1.414-12.655-3.462-25.147-4.93-32.85l-19.647 3.743zM396.662 3.318C392.023 1.793 384.007.901 375.38.426c-9.058-.5-20.047-.595-31.36-.096-11.294.497-23.107 1.594-33.755 3.533-10.415 1.897-20.66 4.76-28.171 9.277l10.307 17.14c4.358-2.621 11.723-4.97 21.448-6.74 9.492-1.73 20.352-2.759 31.051-3.23 10.681-.47 21.008-.376 29.378.085 8.801.486 14.326 1.328 16.132 1.922l6.252-18.998zm2.621 78.375c-2.424-14.702-4.825-41.423 3.683-65.55l-18.861-6.652c-10.207 28.942-7.15 59.722-4.556 75.455l19.734-3.253zm26.493 8.664c1.193-5.83-.084-11.986-5.137-16.217-4.159-3.483-9.364-4.29-13.044-4.44-7.657-.312-16.443 1.967-22.157 4.445l7.956 18.35c3.745-1.625 9.498-2.97 13.386-2.811 2.093.085 1.912.538 1.019-.21a4.71 4.71 0 01-1.454-2.242c-.241-.83-.092-1.233-.163-.886l19.594 4.01zm-29.686 22.246c4.222-.178 10.301-1.294 15.955-4.345 5.842-3.151 11.866-8.787 13.731-17.901l-19.594-4.01c-.358 1.748-1.414 3.112-3.634 4.31-2.407 1.299-5.372 1.882-7.301 1.963l.843 19.983zm9.671 25.984c.444-8.594.589-16.655.536-23.12-.051-6.175-.283-11.599-.763-14.493l-19.73 3.275c.186 1.122.441 5.031.493 11.383.05 6.063-.086 13.724-.509 21.923l19.973 1.032zm-13.691 8.773l.037.014 7.334-18.606-.037-.015-7.334 18.607zm-.112-.045l.058.024 7.442-18.565-.059-.023-7.441 18.564zm8.952 31.887c2.644-12.404 4.067-27.363 4.755-40.652l-19.973-1.034c-.665 12.844-2.017 26.608-4.342 37.517l19.56 4.169zm-3.093-10.764a72.762 72.762 0 00-4.691-1.119l-3.992 19.598a52.19 52.19 0 013.398.81l5.285-19.289zm23.674-.072c-.171.443-.527 1.416-3.11 2.089-3.174.827-9.435 1.032-20.564-2.017l-5.285 19.289c12.69 3.476 22.883 4.17 30.895 2.081 8.601-2.243 14.158-7.592 16.724-14.245l-18.66-7.197zm2.93 7.028c1.59-2.596 2.462-2.862 2.055-2.668-.263.125-.813.311-1.578.304a4.595 4.595 0 01-2.031-.496c-1.031-.528-1.388-1.208-1.506-1.502-.103-.254-.427-1.221.13-2.666l18.66 7.197c1.659-4.301 1.101-8.683-.243-12.014-1.36-3.371-3.966-6.789-7.923-8.816-4.297-2.201-9.373-2.315-14.093-.072-4.361 2.073-7.792 5.824-10.525 10.284l17.054 10.449zm23.949-30.347c-6.328-2.506-12.341-3.418-17.956-2.583-5.697.847-10.255 3.385-13.74 6.586-6.567 6.033-9.266 14.375-10.403 18.4l19.246 5.439c.983-3.48 2.486-7.088 4.687-9.11.9-.827 1.868-1.342 3.151-1.533 1.364-.202 3.784-.135 7.652 1.396l7.363-18.595zm-20.183 60.868c16.445-1.306 28.872-12.435 33.943-24.633 2.561-6.159 3.564-13.349 1.481-20.21-2.186-7.199-7.464-12.945-15.241-16.025l-7.363 18.595c2.42.959 3.147 2.188 3.467 3.241.423 1.393.432 3.732-.811 6.721-2.535 6.096-8.951 11.73-17.059 12.374l1.583 19.937zm-44.272-3.698c14.025 3.528 27.843 5.003 44.272 3.698l-1.583-19.937c-14.121 1.121-25.756-.125-37.811-3.156l-4.878 19.395zm4.67 6.084a62.517 62.517 0 006.876-11.65l-18.213-8.263a42.528 42.528 0 01-4.677 7.932l16.014 11.981zm1.727-1.654c.097-1.302.179-2.559.249-3.755l-19.966-1.163c-.064 1.091-.14 2.242-.228 3.44l19.945 1.478zm7.285 9.318c-4.072-7.462-7.74-13.924-9.102-15.844l-16.311 11.574c-.017-.024.186.279.704 1.142.462.771 1.061 1.798 1.78 3.055a585.357 585.357 0 015.374 9.654l17.555-9.581zm98.488 36.965c-51.216-2.72-88.528-27.801-100.262-39.313l-14.006 14.277c14.721 14.441 56.481 41.995 113.207 45.007l1.061-19.971zm-1.984.092h-.001l2.91 19.787h.001l-2.91-19.787zm10.137 4.932l-17.365 9.923 17.365-9.923zm-8.127-5.023l-.027-.001-1.056 19.972.027.001 1.056-19.972zm.752 19.904l.025-.003-2.609-19.83-.025.004 2.609 19.829zm66.784 128.08c-3.238-18.408-14.064-46.281-25.722-72.816-11.801-26.863-24.962-53.468-33.504-69.811l-17.725 9.265c8.371 16.016 21.329 42.21 32.918 68.59 11.733 26.706 21.57 52.518 24.335 68.237l19.698-3.465zm10.297 38.038c-1.656-3.343-2.924-5.9-4.425-10.886-1.572-5.224-3.418-13.201-5.872-27.152l-19.698 3.465c2.501 14.219 4.508 23.102 6.419 29.452 1.983 6.587 3.831 10.319 5.655 14l17.921-8.879zm6.872 16.552c-2.781-8.283-4.984-12.742-6.872-16.552l-17.921 8.879c1.694 3.418 3.459 6.969 5.833 14.039l18.96-6.366zM566.44 562.687c22.635-36.251 22.807-82.07 14.376-107.181l-18.96 6.365c6.741 20.08 6.75 59.585-12.38 90.223l16.964 10.593zm-67.994 97.327c20.702-24.44 51.587-71.049 67.994-97.327l-16.964-10.593c-16.381 26.236-46.609 71.757-66.291 94.993l15.261 12.927zm2.657-6.26c-.175-.792-.35-1.583-.526-2.371l-19.524 4.335.519 2.346 19.531-4.31zm41.049-19.667c-18.098 4.548-36.58 9.186-52.534 11.971l3.439 19.702c16.821-2.936 36.064-7.777 53.969-12.276l-4.874-19.397zm.095-.023l-.005.001 4.693 19.442.005-.002-4.693-19.441zm-.28.072l-.004.001 5.262 19.295.004-.001-5.262-19.295zm.344-.088l-.004.001 4.581 19.469.003-.001-4.58-19.469zm.044-.01l-.003.001 4.498 19.488.002-.001-4.497-19.488zm-.623.165l-.002.001 5.747 19.156h.002l-5.747-19.157zm.449-.123h-.001l4.851 19.403h.001l-4.851-19.403zm.783-.163h-.001l3.288 19.728h.001l-3.288-19.728zm73.654-10.166c-4.523-1.96-9.975-2.11-14.653-1.867-5.041.263-10.872 1.108-17.073 2.264-12.4 2.311-27.464 6.101-42.721 9.935l4.874 19.396c15.458-3.884 29.853-7.497 41.512-9.67 5.829-1.087 10.678-1.755 14.448-1.952 1.876-.097 3.315-.068 4.368.036 1.107.11 1.434.27 1.293.209l7.952-18.351zm10.396 57.221c1.999-6.507 4.8-17.268 4.977-27.614.164-9.559-1.959-23.794-15.373-29.607l-7.952 18.351c1.27.55 3.47 2.63 3.328 10.914-.129 7.497-2.263 16.11-4.098 22.083l19.118 5.873zm-29.91-14.048c-1.672 5.097-2.206 10.1-1.327 14.633.864 4.457 3.303 9.144 8.024 11.772 5.047 2.81 10.77 2.159 15.143-.739 4.107-2.722 6.669-7.057 8.07-11.618l-19.118-5.873c-.516 1.68-.911 1.423 0 .82.492-.326 1.323-.705 2.444-.778a5.835 5.835 0 013.19.714c1.846 1.028 1.97 2.355 1.881 1.895-.074-.384-.201-1.856.697-4.59l-19.004-6.236zm-4.715-11.02c2.239.96 3.903 1.988 4.793 3.236.356.498.661 1.132.776 2.119.122 1.044.07 2.849-.854 5.665l19.004 6.236c3.392-10.338 2.065-19.039-2.648-25.64-4.248-5.951-10.293-8.757-13.193-9.999l-7.878 18.383zm-46.662 9.089c10.019-2.112 22.007-4.637 31.988-6.421 5.007-.894 9.325-1.569 12.55-1.918 1.627-.176 2.777-.246 3.502-.25 1.23-.007.218.184-1.378-.5l7.878-18.383c-2.614-1.12-5.411-1.123-6.603-1.117-1.699.009-3.609.156-5.55.366-3.913.424-8.764 1.193-13.918 2.114-10.343 1.849-22.651 4.444-32.593 6.538l4.124 19.571zm.182-.04l.005-.002-4.497-19.487-.005.001 4.497 19.488zm-.149.033l.009-.002-4.217-19.551-.009.002 4.217 19.551zm-13.49 2.795c3.52-.694 8.234-1.687 13.443-2.785l-4.124-19.57c-5.262 1.108-9.825 2.07-13.186 2.732l3.867 19.623zm-36.499 8.121c20.394-4.604 33.671-7.564 36.499-8.121l-3.867-19.623c-3.178.626-16.852 3.678-37.037 8.235l4.405 19.509zm19.402 45.34c-3.873-19.114-7.805-38.51-11.829-57.199l-19.552 4.21c3.994 18.55 7.902 37.826 11.779 56.96l19.602-3.971zm16.617 69.683c-6.226-24.502-12.344-48.589-16.617-69.683l-19.602 3.971c4.39 21.67 10.642 46.264 16.835 70.637l19.384-4.925zm.01.042l-.001-.005-19.403 4.851.001.005 19.403-4.851zm-.027-.107v-.001l-19.348 5.067v.001l19.348-5.067zm23.398 125.271c.59-14.957-2.41-34.742-6.824-56.066-4.455-21.519-10.554-45.515-16.556-69.134l-19.384 4.925c6.03 23.73 12.008 47.267 16.355 68.264 4.387 21.19 6.911 38.903 6.425 51.223l19.984.788zm-48.155 57.19c15.501-2.584 46.596-17.679 48.155-57.19l-19.984-.788c-1.052 26.66-21.51 36.592-31.459 38.25l3.288 19.728zm-15.809 1.669c5.499-.593 10.605-1.125 15.165-1.584l-2.001-19.899c-4.611.464-9.765 1-15.308 1.598l2.144 19.885zm25.302 141.92c-.752-19.12-2.449-48.48-5.173-77.56-2.703-28.88-6.482-58.231-11.549-76.92l-19.303 5.234c4.569 16.852 8.234 44.656 10.939 73.546 2.685 28.67 4.361 57.67 5.102 76.49l19.984-.79zm-.063 104.35c-4.312-35.89-1.798-83.62.027-103.02l-19.912-1.87c-1.873 19.91-4.536 69.29.028 107.27l19.857-2.38zm-1.223 55.64c3.636-13.89 3.995-32.57 1.223-55.64l-19.857 2.38c2.643 22 2.003 37.82-.713 48.19l19.347 5.07zm26.69 37.82c-.62-5.91-2.061-16.93-6.548-27.04-4.513-10.17-13.082-21.36-28.607-23.24l-2.416 19.85c5.586.68 9.624 4.47 12.742 11.5 3.145 7.09 4.357 15.47 4.938 21.01l19.891-2.08zm-37.972 17.35c5.22 1.94 9.919 3.37 14.053 4.12 3.978.72 8.413 1.01 12.574-.29 4.794-1.5 8.369-4.85 10.173-9.44 1.559-3.97 1.543-8.2 1.172-11.74l-19.891 2.08c.24 2.3-.061 2.77.106 2.34.13-.33.435-.9 1.021-1.44.586-.55 1.155-.8 1.448-.89.347-.11-.346.19-3.022-.3-2.518-.46-5.996-1.45-10.688-3.19l-6.946 18.75zm-27.15-34.18c2.076 10.14 9.022 27.47 27.15 34.18l6.946-18.75c-8.541-3.17-12.983-12.02-14.502-19.44l-19.594 4.01zm-49.533-144.28c5.954 47.88 14.256 84.96 23.4 110.13 4.546 12.52 9.498 22.66 14.846 29.75 4.969 6.6 12.373 13.25 22.013 12.35l-1.859-19.91c1.299-.12-.167.86-4.18-4.47-3.635-4.83-7.778-12.86-12.021-24.54-8.436-23.23-16.495-58.68-22.352-105.78l-19.847 2.47zm-43.943-172.117c15.339 39.697 35.722 106.017 43.943 172.117l19.847-2.47c-8.476-68.15-29.385-136.09-45.134-176.855l-18.656 7.208zm-8.613 10.079c5.315-1.232 11.988-2.52 19.627-3.827l-3.372-19.713c-7.833 1.34-14.927 2.702-20.771 4.057l4.516 19.483zm-.201 338.798c0-25.06 1.816-252.4 7.922-347.901l-19.959-1.277c-6.153 96.228-7.963 324.188-7.963 349.178h20zm-4.57 8.51c.379-.32.758-.64 1.135-.97l-13.131-15.09c-.274.24-.547.48-.818.7l12.814 15.36zm3.593 7.06v-14.74h-20v14.74h20zm-54.455 28.93c6.392-1.17 16.394-3.56 26.022-7.02 4.821-1.73 9.743-3.8 14.149-6.23 4.293-2.36 8.708-5.38 11.95-9.26l-15.332-12.84c-.967 1.16-2.95 2.76-6.258 4.58-3.194 1.75-7.075 3.42-11.276 4.93-8.416 3.03-17.33 5.16-22.848 6.16l3.593 19.68zm-11.796-23.79v13.95h20v-13.95h-20zm-47.392 35.12c13.634-.27 27.176-5.2 38.137-10.73 11.057-5.57 20.359-12.19 25.743-16.78l-12.977-15.22c-4.214 3.6-12.189 9.31-21.768 14.14-9.676 4.88-20.129 8.41-29.532 8.6l.397 19.99zm-5.055-47.04c-5.472 3.04-10.458 6.73-14.373 10.7-3.717 3.78-7.341 8.71-8.516 14.34-.625 3-.597 6.45.8 9.88 1.411 3.45 3.884 6.06 6.765 7.89 5.353 3.38 12.562 4.39 20.379 4.23l-.397-19.99c-6.58.13-8.955-.93-9.285-1.14-.002-.01.163.1.39.36.235.27.48.63.665 1.09.394.96.281 1.68.262 1.76-.004.03.093-.4.646-1.28.536-.85 1.366-1.91 2.546-3.11 2.374-2.41 5.76-4.99 9.831-7.25l-9.713-17.48zm37.921-25.24c-10.284 7.58-26.125 18.69-37.921 25.24l9.713 17.48c12.988-7.21 29.695-18.97 40.071-26.62l-11.863-16.1zm-19.321-243.8c3.44 18.37 7.774 75.18 11.001 131.16 1.602 27.8 2.917 55.12 3.705 76.92.801 22.16 1.021 37.82.583 42.92l19.927 1.71c.568-6.61.259-23.73-.523-45.35-.795-21.98-2.117-49.44-3.725-77.35-3.196-55.44-7.579-113.77-11.31-133.69l-19.658 3.68zm-23.005-130.665c8.243 47.676 18.712 107.735 23.005 130.665l19.658-3.68c-4.261-22.76-14.702-82.655-22.955-130.392l-19.708 3.407zm19.831 39.553c-.104-5.45-.1-20.808.023-41.196l-20-.121c-.123 20.318-.129 35.947-.019 41.699l19.996-.382zm-15.623 27.382c12.343-3.69 15.841-15.971 15.623-27.382l-19.996.382c.079 4.156-.557 6.376-1.04 7.353-.212.431-.35.533-.317.504.046-.041.084-.044.004-.02l5.726 19.163zm-36.754-10.712c6.533 4.672 12.918 8.222 18.94 10.202 5.911 1.95 12.581 2.72 18.759.18l-7.617-18.498c-.036.015-1.352.486-4.899-.68-3.435-1.128-7.98-3.488-13.547-7.47l-11.636 16.266zm-32.157-80.366c.907 31.913 6.205 61.802 32.157 80.366l11.636-16.266c-17.608-12.596-22.914-33.445-23.801-64.668l-19.992.568zm9.557-106.35c-4.68 36.601-10.298 80.296-9.557 106.35l19.992-.568c-.685-24.095 4.623-65.853 9.403-103.245l-19.838-2.537zm3.398-27.107c-1.001 8.36-2.172 17.516-3.398 27.107l19.838 2.537c1.224-9.572 2.406-18.811 3.418-27.265l-19.858-2.379zm3.65-51.881c-.451 15.307-1.504 33.965-3.65 51.882l19.858 2.378c2.24-18.699 3.321-37.99 3.784-53.67l-19.992-.59zm-6.891 14.42l19.118-4.377-4.462-19.496-19.12 4.378 4.464 19.495zm-8.11 2.229a4231.97 4231.97 0 008.527-2.334l-5.298-19.285c-2.682.737-5.52 1.514-8.493 2.325l5.264 19.294zm-25.256 16.175c4.02 1.781 8.061 1.312 11.008.401 3.047-.941 5.871-2.619 8.339-4.619 4.969-4.027 9.488-10.152 12.571-17.911l-18.587-7.385c-1.983 4.99-4.6 8.157-6.576 9.758a8.654 8.654 0 01-1.186.824c-.31.175-.47.226-.467.225.005-.001.068-.02.186-.04a3.46 3.46 0 01.557-.043c.5-.001 1.312.086 2.256.504l-8.101 18.286zm-2.096-26.921c-1.768 1.883-4.525 5.406-5.766 9.673-.649 2.233-1.147 5.595.153 9.203 1.418 3.933 4.392 6.575 7.709 8.045l8.101-18.286c.297.131.875.443 1.498 1.068a6.55 6.55 0 011.507 2.391c.636 1.765.272 3.041.236 3.164-.05.174-.022.005.28-.462.275-.426.605-.831.859-1.102l-14.577-13.694zm-1.185 1.428c-.135.287-.267.554-.393.795l17.734 9.248c.258-.496.517-1.018.77-1.559l-18.111-8.484zm-.818 17.25c4.272-1.144 8.443-2.265 12.478-3.353l-5.209-19.31a7024.545 7024.545 0 01-12.44 3.343l5.171 19.32zm5.551-13.969a7.93 7.93 0 011.229 1.643c.227.407.357.734.425.925.129.363.136.521.118.388l-19.816 2.706c.15 1.098.405 2.345.853 3.605.405 1.139 1.203 2.971 2.811 4.634l14.38-13.901zm3.144 24.381c2.406-2.405 2.93-5.219 3.083-6.26.198-1.339.152-2.544.079-3.39-.149-1.736-.555-3.483-1.01-4.983-.798-2.63-2.444-6.797-5.296-9.747l-14.38 13.9c-.409-.423-.38-.544-.104.01.223.449.458 1.04.641 1.642.197.652.23.97.223.893-.001-.016-.049-.493.061-1.245a8.3 8.3 0 01.503-1.848 9.238 9.238 0 012.058-3.113l14.142 14.141zm-.053.054l.044-.044.008-.008-14.14-14.145-.198.2 14.286 13.997zm-15.495 2.63c2.895 1.417 6.479 2.094 10.172.84 3.173-1.077 5.119-3.261 5.321-3.467l-14.281-14.002c-.488.497.602-.815 2.532-1.47a7.524 7.524 0 013.199-.363c.955.104 1.593.373 1.85.499l-8.793 17.963zm-8.143-6.618c2.541 2.8 5.208 5.184 8.149 6.621l8.782-17.969c.275.135.215.154-.204-.196-.407-.338-1.038-.929-1.916-1.895l-14.811 13.439zm-.247 11.149c7.264 2.746 13.881-1.058 16.785-6.306 2.815-5.087 2.433-11.223-.346-16.337l-17.573 9.549c.029.053-.56-1.125.42-2.897.475-.858 1.406-1.932 2.959-2.588 1.659-.701 3.425-.659 4.829-.128l-7.074 18.707zm-2.499-1.231a14.67 14.67 0 002.5 1.231l7.072-18.708c.366.139.669.295.911.444l-10.483 17.033zm-4.695-4.347c1.243 1.649 2.794 3.179 4.702 4.351l10.469-17.041c.593.364.825.684.803.655l-15.974 12.035zm-7.175-13.407c1.609 4.178 3.858 8.478 6.852 12.951l16.621-11.124c-2.273-3.396-3.796-6.384-4.808-9.012l-18.665 7.185zm10.694 6.391l1.196-.316-5.114-19.335-1.196.316 5.114 19.335zm7.337 2.711c1.251-5.142.66-10.416-.072-14.253l-19.645 3.749c.541 2.835.529 4.769.284 5.777l19.433 4.727zm-18.86 9.91c2.975 1.112 7.119 1.669 11.246-.262 4.36-2.04 6.705-5.912 7.614-9.648l-19.433-4.727c.169-.695.978-2.634 3.344-3.741 2.133-.998 3.825-.508 4.229-.357l-7 18.735zm-3.084-1.503c.95.576 1.981 1.091 3.084 1.503l6.999-18.735c.183.068.279.125.294.134l-10.377 17.098zm-9.626-11.598c2.08 4.903 5.456 9.069 9.63 11.6l10.37-17.102c.02.012-.204-.126-.547-.541-.33-.4-.709-.985-1.042-1.768l-18.411 7.811zm-1.058-3.031c.28.996.627 2.015 1.058 3.031l18.412-7.811a5.239 5.239 0 01-.217-.634l-19.253 5.414zm-92.64 31.377c3.559-.216 9.196-1.217 15.73-2.563 6.757-1.392 15.132-3.297 24.516-5.537 18.78-4.481 41.837-10.362 64.554-16.31l-5.067-19.348c-22.66 5.934-45.557 11.772-64.13 16.205-9.291 2.217-17.44 4.069-23.909 5.401-6.693 1.379-10.982 2.072-12.904 2.188l1.21 19.964zm-5.105-28.457c-2.062 1.039-4.438 2.37-6.58 3.829-1.739 1.184-4.769 3.388-6.616 6.423-.967 1.591-2.65 5.138-1.347 9.486 1.351 4.511 4.905 6.596 6.958 7.442 3.703 1.524 8.405 1.536 12.69 1.277l-1.21-19.964c-1.886.114-3.143.101-3.92.046-.897-.065-.681-.156.053.146.686.283 3.488 1.643 4.587 5.312 1.05 3.506-.386 6.094-.725 6.652-.42.691-.735.899-.438.635.217-.193.615-.508 1.226-.924 1.222-.832 2.793-1.729 4.32-2.498l-8.998-17.862zm92.211-25.048c-33.626 9.392-69.2 19.117-90.105 24.27l4.787 19.418c21.245-5.236 57.101-15.041 90.699-24.426l-5.381-19.262zm-.437-14.234c-3.554 7.235-6.263 15.828-6.841 23.069l19.937 1.592c.327-4.102 2.096-10.228 4.855-15.843l-17.951-8.818zm30.703-28.692c-4.605 2.729-10.594 6.727-16.164 11.445-5.395 4.571-11.229 10.507-14.539 17.247l17.951 8.818c1.489-3.033 4.822-6.828 9.516-10.805 4.52-3.83 9.544-7.195 13.433-9.5l-10.197-17.205zm-.412 17.301c.607.202 1.385.463 2.311.775l6.399-18.948a566.17 566.17 0 00-2.385-.801l-6.325 18.974zm19.998-141.705c-4.384 19.511-10.978 49.44-16.512 75.824-2.765 13.186-5.276 25.533-7.116 35.267-1.751 9.267-3.114 17.239-3.204 20.878l19.993.497c.041-1.614.972-7.651 2.864-17.661 1.803-9.542 4.282-21.739 7.037-34.876 5.509-26.261 12.081-56.092 16.452-75.544l-19.514-4.385zm11.071-80.785c-2.806 23.442-7.577 63.235-11.121 81.023l19.614 3.909c3.738-18.757 8.614-59.567 11.365-82.555l-19.858-2.377zm1.571-12.974c-.389 3.095-.928 7.599-1.571 12.974l19.858 2.377c.647-5.403 1.177-9.836 1.557-12.858l-19.844-2.493zm11.77-83.791c-3.228 22.406-10.124 70.69-11.77 83.791l19.844 2.493c1.617-12.872 8.478-60.918 11.722-83.432l-19.796-2.852zm10.562-78.84c-7.165 28.39-10.074 65.076-10.656 79.873l19.984.786c.56-14.242 3.394-49.339 10.064-75.765l-19.392-4.894zm32.746-50.513c-9.892 5.231-24.442 17.607-32.746 50.513l19.392 4.894c7.07-28.016 18.342-35.421 22.703-37.727l-9.349-17.68zm-4.386 4.602l-.087.198 18.295 8.08.087-.198-18.295-8.08zm6.356-5.69c-.47.21-1.004.456-1.59.741l8.764 17.978c.343-.168.673-.32.994-.463l-8.168-18.256zm5.854-2.696a252.481 252.481 0 01-5.854 2.695l8.168 18.257a276.935 276.935 0 006.299-2.902l-8.613-18.05zm9.193.3l-.097-.053-9.58 17.556.097.053 9.58-17.556zm12.364-12.056c-8.129 5.248-15.896 9.188-21.415 11.788l8.523 18.093c5.992-2.823 14.611-7.185 23.739-13.078l-10.847-16.803zm6.686-4.59a144.088 144.088 0 01-6.694 4.595l10.863 16.793a164.289 164.289 0 007.622-5.234l-11.791-16.154zm28.211-28.312c-5.849 7.146-18.405 21.155-28.211 28.312l11.791 16.154c11.999-8.758 25.901-24.473 31.897-31.799l-15.477-12.667zm-1.845-5.951c.033 2.8-.138 7.122-.4 11.715l19.967 1.139c.265-4.641.473-9.551.431-13.092l-19.998.238zm-.636 1.216a46.518 46.518 0 002.075 3.835l17.119-10.34a26.486 26.486 0 01-1.18-2.184l-18.014 8.689zm-24.019 5.299c9.267 2.953 20.987 3.029 35.032.154l-4.011-19.594c-12.118 2.481-20.092 1.931-24.948.384l-6.073 19.056zm-34.082-49.715c-1.135 11.896 2.976 22.922 9.282 31.464 6.269 8.491 15.172 15.182 24.8 18.251l6.073-19.056c-5.217-1.663-10.753-5.616-14.783-11.074-3.992-5.407-6.04-11.634-5.462-17.684l-19.91-1.901zm31.132-30.063c-4.797.728-11.691 2.925-17.817 7.369-6.325 4.589-12.291 11.974-13.315 22.694l19.91 1.901c.347-3.636 2.225-6.285 5.149-8.406 3.122-2.265 6.882-3.452 9.073-3.785l-3-19.773zm30.813 24.87c.315-5.016-.791-9.634-3.279-13.549-2.426-3.819-5.77-6.349-8.994-7.993-6.189-3.155-13.162-3.693-17.641-3.423l1.202 19.963c2.292-.138 5.377.27 7.356 1.279.861.439 1.13.795 1.197.9.006.01.275.353.198 1.569l19.961 1.254zm-28.105 19.588c3.734 1.296 10.032 2.295 16.165-.401 7.198-3.164 11.369-10.101 11.94-19.187l-19.961-1.254c-.118 1.883-.515 2.518-.515 2.518a1.327 1.327 0 01.488-.386c.126-.056.016.024-.424.013a4.086 4.086 0 01-1.136-.197l-6.557 18.894zm3.399-8.236c-.652-1.83-.572-2.584-.576-2.549-.019.179-.186.828-.777 1.451-.936.986-1.364.484-.227.609.388.043.456.13.201-.007-.048-.026-1.732-.892-2.588-3.389a7.671 7.671 0 01-.184-4.333c.341-1.349.959-2.214 1.307-2.616.568-.658.617-.346-1.183.417l7.813 18.411c3.054-1.296 6.203-3.087 8.51-5.761 2.601-3.013 4.369-7.608 2.657-12.603-1.443-4.208-4.679-6.567-6.851-7.736-2.38-1.281-5.009-1.99-7.497-2.263-4.614-.507-11.507.275-16.47 5.508-5.604 5.909-5.663 14.031-2.974 21.575l18.839-6.714zm21.228 2.374c-14.855 4.963-20.934-2.12-21.901-3.864l-17.493 9.694c5.603 10.11 21.668 21.179 45.732 13.14l-6.338-18.97zm-11.856-59.786c0 17.223-.002 39.084 5.154 70.872l19.742-3.202c-4.894-30.173-4.896-50.75-4.896-67.67h-20zm9.434 9.984l.068.003.996-19.975-.067-.003-.997 19.975zM263.73 84.456c-3.109 3.399-5.342 7.584-5.834 12.323-.501 4.827.901 9.37 3.593 13.073 5.169 7.112 14.37 10.51 24.039 11.001l1.014-19.974c-6.4-.325-8.619-2.433-8.874-2.785-.021-.028.168.293.121.751-.039.37-.151.038.696-.887L263.73 84.456zm31.44-7.593c-3.83-.76-9.095-1.281-14.51-.58-5.341.692-11.953 2.736-16.93 8.173l14.755 13.502c.591-.645 1.957-1.48 4.743-1.84 2.712-.352 5.723-.1 8.053.363l3.889-19.618zm-4.94 19.35l.166.05 5.659-19.183a1.79 1.79 0 01-.043-.013l-5.782 19.146zm103.622-3.442l-.029.005 3.522 19.688.029-.005-3.522-19.688zm2.121 19.837l.029-.001-.779-19.985-.029.002.779 19.984zm9.483-11.583v-.004l-19.744 3.19v.004l19.744-3.19zm-258.065 622.35c.518-1.909 1.113-4.09 1.582-6.299l-19.563-4.158c-.333 1.57-.775 3.207-1.32 5.218l19.301 5.239zm-2.286 13.245c-.073-4.352.931-8.252 2.286-13.245l-19.301-5.239c-1.294 4.768-3.109 11.251-2.982 18.82l19.997-.336zm-8.182 10.046l.899-.254-5.43-19.248-.899.253 5.43 19.249zm-5.63-37.8c-1.136 1.462-1.755 3.079-1.953 3.586-.33.847-.637 1.776-.912 2.683-.557 1.834-1.136 4.067-1.673 6.395-1.059 4.589-2.11 10.205-2.507 14.616l19.92 1.791c.281-3.127 1.115-7.751 2.074-11.909.472-2.045.937-3.812 1.322-5.079.196-.644.336-1.042.41-1.231.206-.53-.051.34-.883 1.411l-15.798-12.263zm1.499 32.53c.067-.571.142-1.125.224-1.655l-19.77-3.03a69.786 69.786 0 00-.319 2.362l19.865 2.323zm-7.423 8.521l.193-.054-5.404-19.256-.193.054 5.404 19.256zm-12.011-13.81c-.136.627-.28 1.268-.43 1.913l19.479 4.538c.175-.752.341-1.493.497-2.213l-19.546-4.238zm380.471-483.042a50.054 50.054 0 00-4.822.917l4.697 19.44a30.563 30.563 0 012.905-.552l-2.78-19.805zm-.316 20.401a55.653 55.653 0 013.257-.619l-3.102-19.758c-.766.12-2.439.4-4.471.849l4.316 19.528zm-24.815 212.872c4.166-29.851 13.335-56.38 17.233-65.554l-18.406-7.822c-4.489 10.561-14.194 38.79-18.635 70.612l19.808 2.764zm-2.507 16.489c.748-4.674 1.615-10.096 2.507-16.489l-19.808-2.764c-.861 6.174-1.7 11.419-2.448 16.095l19.749 3.158zm.011-.065l.001-.006-19.772-3.016v.006l19.771 3.016zm-.057.336v-.001l-19.658-3.686v.001l19.658 3.686zm7.179 53.677c-6.301-14.252-8.677-21.942-9.359-28.579-.69-6.722.252-13.02 2.225-25.362l-19.749-3.158c-1.869 11.689-3.381 20.731-2.371 30.562 1.018 9.916 4.494 19.993 10.962 34.624l18.292-8.087zm.592 1.355c-.197-.456-.394-.908-.592-1.355l-18.292 8.086c.173.393.347.789.52 1.191l18.364-7.922zm11.884-53.998c-1.149 5.104-4.574 12.814-9.988 22.355-5.291 9.324-12.053 19.666-19.242 29.829l16.328 11.55c7.427-10.501 14.587-21.425 20.309-31.509 5.598-9.866 10.276-19.707 12.105-27.835l-19.512-4.39zm-18.009-82.773c4.213 8.394 10.275 22.942 14.473 38.752 4.269 16.078 6.226 32.065 3.536 44.021l19.512 4.39c3.767-16.742.797-36.541-3.718-53.544-4.586-17.272-11.166-33.103-15.929-42.591l-17.874 8.972zM202.549 703.77c.063 3.286.088 7.691.037 12.927l19.999.193c.052-5.396.027-9.995-.04-13.502l-19.996.382zm9.556 20.308c3.487-5.671 7.053-11.863 9.153-15.587l-17.421-9.823c-2.03 3.6-5.462 9.556-8.769 14.934l17.037 10.476zm-6.062-16.052l-4.675 1.063 4.437 19.502 4.672-1.063-4.434-19.502zm4.327-.984l-4.327.984 4.434 19.502 4.324-.983-4.431-19.503zm-25.817 17.859c4.262 1.663 7.637 3.07 9.768 4.089l8.625-18.045c-2.831-1.353-6.777-2.98-11.123-4.676l-7.27 18.632zm13.419-1.687a71.99 71.99 0 00.212-7.899l-19.992.54a52.07 52.07 0 01-.152 5.709l19.932 1.65zm-1.559-12.997l-10.63 2.422 4.447 19.5c3.435-.784 6.979-1.592 10.623-2.421l-4.44-19.501zm-34.688 8.645c-.771.169-1.524.385-2.256.645l6.683 18.85a1.318 1.318 0 01-.141.041l-4.286-19.536zm3.828 19.686l1.058-.301-5.486-19.233-1.057.301 5.485 19.233z" fill="#fff" mask="url(#a)"/><path fill="#307CC1" d="M281.954 582.271h54.653v120.563h-54.653z"/><path d="M246.548 679.424l11.828-128.231c3.562-50.03 14.683-112.813 30.671 36.3 19.985 186.391 184.026 332.242 198.301 368.868 11.42 29.3 17.538 119.499 19.169 160.939-1.849 19.66-4.437 68.21 0 105.15 5.547 46.17-2.365 70.15-19.169 73.33-16.804 3.18-38.176-46.98-50.167-143.4-11.991-96.42-49.351-192.838-60.526-209.56-9.544 35.81-12.154 357.53-12.154 387.55-28.958 25.2-54.409.98-65.829-8.32 2.04-23.09-8.239-215.43-15.417-253.77-5.742-30.67-22.622-128.288-30.345-173.261l-6.362-215.595z" fill="#2365A1"/><path d="M272.817 597.444c-23.428-45.746-19.17-114.119-14.112-142.588l74.638-56.529-16.315 196.099c-13.106 3.263-40.296 8.434-44.211 3.018zM291 245.625l34.995 8.157 41.764-3.018v72.273h-78.798L291 245.625z" fill="#A64D55"/><path d="M495.583 262.918c-54.229-2.872-93.889-29.42-106.94-42.336-15.934 73.442-50.281 225.138-60.2 244.389-12.399 24.064-15.988 125.376-16.967 158.494-.979 33.118 8.402 117.3 8.81 135.083.407 17.783 16.396 48.209 20.556 54.245 3.328 4.829 5.846 12.236 6.689 15.336l-8.647 6.036 8.647 15.254c.244.734-2.333-.261-14.602-10.115-15.335-12.317-6.77 28.224-4.486 40.052s2.692 59.139 4.568 84.1c1.876 24.961 7.667 31.813 26.755 22.269 15.271-7.635 103.433-18.027 145.606-22.269 12.725-2.12 38.502-14.634 39.807-47.719 1.631-41.357-27.082-129.699-39.807-192.51-12.725-62.81-25.94-127.904-41.194-162.409-15.254-34.505-10.767-37.278-5.384-75.862 4.307-30.867 13.759-58.269 17.946-68.112-4.323-12.562-13.965-46.757-17.946-83.04-4.975-45.354 12.562-67.705 36.789-70.886z" fill="#EE6570"/><path d="M308.138 356.888c-5.938-23.558-11.121-84.264-12.97-111.672l-9.217 16.559-33.363 112.406 5.057 82.632c15.961-29.583 48.405-90.985 50.493-99.925z" fill="#F37A84"/><path d="M116.766 724.125c5.482-11.159 22.351-22.214 30.1-26.347 13.079-4.677 39.627-8.207 41.194 15.09 1.957 29.122-15.499 43.641-21.943 40.786-5.156-2.284-1.387-8.238 1.142-10.93 2.637-5.058 5.889-14.993-2.203-14.275-10.115.897-11.093 16.64-8.728 19.087 2.366 2.448 4.323 9.3 3.263 10.36-1.06 1.06-2.855 3.426-9.218-3.589 3.508 6.444-2.365 12.236-6.852 6.281-14.03-20.964-6.852-33.689-4.323-45.599-1.55 1.958-6.199 22.677-4.894 26.756 1.305 4.078 3.834 12.154 2.365 18.19-1.468 6.037-9.217 3.345-12.643-4.731-2.045-4.82-1.674-11.907-.88-17.048-1.302 6.019-3.33 13.526-5.075 14.193-10.686 4.079-8.157-14.275-1.305-28.224z" fill="#FFC9BA"/><path d="M321.104 250.924c-1.24-.718-16.777-15.798-24.39-23.248-.381 2.556-1.566 9.56-3.263 17.13 3.133 6.982 17.457 14.221 24.227 16.967 1.659-3.317 4.666-10.131 3.426-10.849z" fill="#F37A84"/><path d="M298.183 203.776c.261 6.004-.761 20.556-1.305 27.082l23.982 20.474c15.308-2.12 41.047-.587 48.617-4.241 7.57-3.655 10.659-33.553 11.257-48.046-24.145 1.577-74.459 4.731-82.551 4.731z" fill="#C4535D"/><path d="M267.758 247.663c11.355-8.288 25.233-24.064 30.753-30.916 0 21.046-6.445 43.641-11.257 60.2-4.813 16.559-15.662 61.016-23.982 113.548-8.321 52.532-1.958 72.844-5.221 95.602-3.263 22.759 1.958 59.384 0 67.215-1.958 7.831 0 98.621 0 105.31 0 6.688 9.381 74.23 6.199 104.004-3.181 29.773-4.404 195.201-3.997 216.573.408 21.371-13.785 23.571-35.565 7.994-21.779-15.58-27.082-40.949-27.979-72.518-.897-31.568 7.994-91.115 12.888-131.983 3.916-32.694 4.242-67.514 3.916-80.837-2.039 3.67-7.244 12.79-11.746 19.903-4.242-3.752-51.228-19.822-60.527-22.922.261-10.506 17.837-91.061 26.593-130.025 4.486-22.514 10.767-78.472 12.806-94.705 1.632-12.986 8.511-61.152 11.747-83.611.571-14.52 3.442-50.411 10.359-77.819 8.647-34.261 23.901-42.499 30.1-45.273 6.2-2.773 20.72-9.381 34.913-19.74z" fill="#EE6571"/><path fill-rule="evenodd" clip-rule="evenodd" d="M237.909 265.064c4.45 2.326 13.931 8.167 16.598 13.111 3.558-.667 28.394-16.957 40.982-33.023 1.855-9.352 3.143-19.072 3.143-28.483-5.519 6.852-19.397 22.628-30.752 30.916-11.205 8.178-22.613 14.018-29.971 17.479z" fill="#EE6671"/><path fill-rule="evenodd" clip-rule="evenodd" d="M230.557 268.358a41.93 41.93 0 011.293-.603c1.55-.693 3.62-1.626 6.076-2.798 6.01 3.275 13.872 8.375 16.6 13.075-3.589 7.259-29.334 151.971 2.793 206.419-.08.664-.168 1.33-.264 1.998-1.887 13.168-.935 30.978-.177 45.167.553 10.335 1.002 18.749.177 22.049-1.593 6.373-.593 67.695-.165 93.909.098 5.996.165 10.155.165 11.4 0 1.68.592 7.2 1.428 14.996 2.493 23.241 7.154 66.713 4.772 89.008-3.181 29.774-4.405 195.201-3.997 216.573.408 21.369-13.786 23.579-35.565 7.994-21.78-15.58-27.082-40.949-27.98-72.517-.712-25.075 4.751-67.801 9.481-104.798 1.225-9.581 2.401-18.779 3.408-27.185 3.915-32.694 4.242-67.515 3.915-80.838v.001-.002c1.931-29.366 7.505-95.505 14.357-125.132 4.241-15.172 3.344-42.254-7.587-103.106-10.504-58.482-10.537-156.367 11.27-205.61z" fill="#F37A84"/><path fill-rule="evenodd" clip-rule="evenodd" d="M295.211 245.223c-2.293 11.536-5.445 22.51-8.1 31.646-4.813 16.559-15.662 61.016-23.982 113.548-5.104 32.227-4.683 52.328-4.347 68.307.197 9.399.364 17.372-.641 25.547l-1.126.281c-4.432-7.559-13.639-30.198-15.01-60.282-1.713-37.605-.979-97.641 11.991-146.177 8.298-3.986 24.058-13.001 41.215-32.87z" fill="#DB5E68"/><path d="M298.091 296.118c1.371-4.633 13.405-15.907 19.251-20.964 2.937-4.323 9.218-11.795 10.849-7.097 2.039 5.873 4.731 46.17 3.181 49.433-1.239 2.61-16.069 27.517-23.329 39.644-3.888-18.408-11.322-56.383-9.952-61.016z" fill="#C5545D"/><path d="M371.846 236.814c-1.566 2.284-19.088 8.293-27.653 11.012l-4.405 9.381c6.852 1.305 20.882 3.524 22.188 1.958 1.631-1.958 11.828-25.206 9.87-22.351z" fill="#F37A84"/><path d="M315.863 264.301c.522-9.462 4.405-13.078 6.281-13.704 5.465-.951 17.587-2.855 22.351-2.855 1.305 7.015-7.424 14.194-17.702 24.064-10.278 9.87-11.583 4.323-10.93-7.505zM323.716 324.666l-65.42 130.352c17.293-6.118 59.058-40.704 73.496-51.472.816-5.954 13.133-51.553 18.354-67.949 5.22-16.396 21.943-76.596 21.943-98.947-1.045 7.505-32.684 61.805-48.373 88.016z" fill="#DB5E68"/><path d="M392.235 281.761l-20.882-36.462c-7.994 16.069-49.922 191.938-49.922 215.92 43.641-53.837 76.106-159.636 75.861-166.325-.195-5.351-3.453-10.985-5.057-13.133z" fill="#F37A84"/><path d="M380.076 205.655c.653 6.982-5.601 29.447-8.809 39.807l25.287 50.329c8.157-.244 20.132-13.051 16.477-25.124-4.568-15.091-32.955-66.399-32.955-65.012z" fill="#DB5E68"/><path d="M318.084 500.537c-.196-6.787 2.148-29.04 3.344-39.318 33.804-39.48 67.378-136.524 79.94-180.11 8.266-4.405 24.798-11.926 24.798-6.771-3.671 36.463-35.484 96.826-47.883 117.464-12.399 20.637-50.982 103.678-55.876 116.647-3.916 10.376-4.514 5.738-4.323 2.121.081-.516.195-3.246 0-10.033z" fill="#C4535D"/><path d="M20.512 777.472c-17.228 1.044-7.178-5.927 0-9.544 37.066-9.136 119.422-32.411 155.966-42.906 89.457-20.448 277.262-62.827 312.828-68.765 44.456-7.423 108.653-29.693 123.336-23.33 14.683 6.363 8.647 32.629 4.813 45.109-3.834 12.481-15.988 7.668-10.849-7.994 5.139-15.662-5.139-21.127-10.278-23.329-5.139-2.203-49.433 7.994-65.992 11.257-13.247 2.61-230.277 52.206-337.136 76.677-50.384 13.84-155.46 41.781-172.688 42.825z" fill="#543343"/><path d="M420.542 625.179l8.565-8.891c16.151 14.03 48.143 42.597 46.904 44.62-1.55 2.529-12.889 9.87-20.312 13.704-2.039-6.526-28.06-35.729-32.628-41.357-3.655-4.503-3.209-7.26-2.529-8.076z" fill="#C4C4C4"/><path d="M553.798 402.649c-6.004-34.13-41.33-107.376-58.242-139.733 0 0-7.473 1.065-11.965 3.263-11.339 5.547-15.009 12.888-16.315 14.846-13.992 20.988-10.139 51.78-8.565 61.913 6.363 40.949 18.002 73.904 18.002 73.904 8.973 17.864 25.303 60.771 18.843 89.484-6.461 28.714-61.181 98.077-73.634 107.593 21.454 13.705 42.499 39.644 55.143 53.348 16.151-10.849 60.011-76.432 80.893-109.877 20.882-33.444 20.964-76.106 13.378-98.702-7.586-22.595-10.033-13.377-17.538-56.039z" fill="#C4535D"/><path d="M369.799 658.703c8.418-22.97 38.638-30.127 52.695-30.834 10.197 9.136 30.59 29.676 30.59 38.747-33.037 2.202-39.481 10.278-44.539 22.595-5.057 12.317-13.622 5.465-12.48-2.447-3.181 9.87-6.607 2.447-6.607-9.87-1.061 13.459-11.013 30.589-12.562 8.239-.967-13.936 5.836-25.937 9.039-30.607-.193.231-.405.481-.638.751-8.483 9.87-10.685 22.106-17.537 33.934-7.994 9.299-8.484-1.794 2.039-30.508z" fill="#FFC9BA"/><path fill-rule="evenodd" clip-rule="evenodd" d="M169.685 694.546c-7.965-.825-16.815 1.081-22.823 3.23-7.749 4.133-24.618 15.188-30.1 26.347-6.852 13.949-9.381 32.303 1.305 28.224 1.745-.667 3.773-8.174 5.075-14.193-.794 5.141-1.165 12.228.88 17.048 3.426 8.076 11.175 10.768 12.643 4.731 1.469-6.036-1.06-14.112-2.365-18.19-1.305-4.079 3.344-24.798 4.894-26.756-.402 1.892-.921 3.805-1.453 5.768-2.821 10.393-6.025 22.198 5.776 39.831 4.487 5.955 10.36.163 6.852-6.281 6.121 6.748 8.014 4.816 9.093 3.715l.125-.126c.407-.407.369-1.668.035-3.205l-2.315-.48.808-3.898c-.531-1.115-1.146-2.109-1.791-2.777-2.152-2.226-1.536-15.454 6.206-18.501l7.155-34.487z" fill="#FFC9BA"/><path d="M169.463 708.624l-26.022-9.054 5.466-9.136 23.982 2.12-3.426 16.07z" fill="#EE6570"/><path d="M271.1 91.207c6.33-6.917 18.897-5.547 24.39-3.997 27.925.816 85.161 1.517 90.708-2.203 6.933-4.65 32.629-10.604 29.774 3.345-2.284 11.159-14.819 14.166-20.801 14.275l-3.182 3.508c-29.964 1.849-93.106 5.383-105.961 4.731-16.07-.816-22.84-11.012-14.928-19.659z" fill="#C4535D"/><path d="M293.121 86.64c2.154-15.988-3.018-49.949-5.873-64.93 23.737-14.276 93.4-13.134 106.288-8.892-11.909 33.77-4.242 71.13-2.365 79.614-3.426 7.097-22.433 7.668-37.442 4.486-15.009-3.18-52.777-7.912-60.608-10.278z" fill="#F37A84"/><path d="M317.263 99.204c-24.634-3.1-30.182 7.831-31.16 11.664 0 19.007 0 43.152 6.933 80.185 6.934 37.034 46.496 32.548 55.306 31.324 8.81-1.224 30.345-9.218 39.399-33.2 9.055-23.982 9.218-78.309 7.831-86.629-4.976.979-53.674-.245-78.309-3.344z" fill="#FFC9BA"/><path fill-rule="evenodd" clip-rule="evenodd" d="M286.82 140.312c1.477-4.536 3.752-9.383 6.797-11.276 6.036-3.753 16.266-10.393 25.695-19.822 3.734-3.734 5.846-6.697 6.688-9.024a270.656 270.656 0 01-8.646-.93c-24.635-3.1-30.182 7.831-31.161 11.665 0 8.528 0 18.09.627 29.387zM367.551 102.823c-2.991 3.317-3.729 12.263 5.276 17.157 1.897 1.031 3.571 1.913 5.059 2.698 7.343 3.87 10.146 5.348 12.724 10.435 1.425 2.813 3.404 4.27 5.165 4.959.868-16.804.56-31.464-.107-35.468-2.281.449-13.745.435-27.868-.01-.096.075-.18.152-.249.229z" fill="#292929"/><path d="M395.174 178.083c-19.055-5.22-36.544-.217-42.906 2.937 28.06 10.849 47.393 17.13 75.127 14.927 24.553-1.949 37.686-33.526 17.293-41.601-20.393-8.076-26.674 8.32-28.794 15.825 8.646-14.112 17.13-3.916 14.927 1.794-2.737 7.097-11.828 12.644-35.647 6.118zM297.282 177.675c23.296-10.832 46.359-2.284 54.979 3.345-43.641 22.188-70.805 26.021-85.65 21.29-14.846-4.731-28.877-21.29-27.164-39.236 1.37-14.357 15.689-20.067 22.677-21.127 6.77-.408 20.116 1.892 19.332 14.356-.783 12.464-10.223 12.372-14.845 10.768 19.414-8.239-17.294-17.864-9.3 4.568 3.617 6.526 16.674 16.869 39.971 6.036z" fill="#292929"/><path d="M358.554 118.128c-2.531 57.508 6.84 91.146-18.274 59.671 4.508-16.823 9.783-56.814 18.274-59.671z" fill="#F0BBAC"/><path d="M366.347 143.965c2.643-.925 12.08-3.769 16.672.28.319.274.33.733.056 1.052-5.171 5.626-13.716 8.205-17.148-.336-.144-.425.029-.86.42-.996zM305.984 142.711c3.499-1.226 14.762-4.555 18.551 2.372a.87.87 0 01-.199 1.062c-9.354 7.984-15.837 1.859-18.744-2.128-.318-.477-.144-1.114.392-1.306z" fill="#fff"/><path d="M310.886 141.304s-1.104 6.539-.651 7.154c.453.614 4.552 2.129 5.984 1.683 1.432-.447 5.527-6.652 4.211-8.527-1.321-1.837-9.544-.31-9.544-.31zM371.117 142.635s6.609-1.123 8.334-.214c1.702 2.479.743 5.675-.706 6.543-1.856 1.08-5.685 1.812-6.155 1.505-.444-.348-2.956-4.326-1.473-7.834z" fill="#2C1E25"/><path d="M334.071 144.558c0 10.542-10.096 21.616-20.638 21.616-10.542 0-17.62-11.074-17.62-21.616s7.078-16.641 17.62-16.641c10.542 0 20.638 6.099 20.638 16.641z" fill="#C7E6ED" fill-opacity=".5"/><path d="M354.958 212.505c-11.355-10.311-20.502-3.861-23.656.652-15.091 15.907-2.855 36.218 0 48.862 4.241-19.496 37.849-36.626 23.656-49.514z" fill="#292929"/><path fill-rule="evenodd" clip-rule="evenodd" d="M358.576 197.869c.386.918-.966 1.877-2.501 2.713-1.553.845-3.465 1.781-6.188 2.018-2.651.231-4.598-.652-7.131-.858-2.405-.196-5.431.236-7.247-.312-1.872-.564-1.808-1.589-2.029-2.485-.238-.966-.967-2.027.706-2.878 1.667-.847 4.828-1.16 7.627-1.358 2.355-.166 4.5.131 6.706.345 2.027.196 3.982.397 5.585.846 1.919.537 4.102 1.09 4.472 1.969z" fill="#DBA89A"/></svg>