<svg width="1538" height="1024" fill="none" xmlns="http://www.w3.org/2000/svg"><g clip-path="url(#clip0)"><path d="M1379.96 75.831L1538 43.471V1058.29h-158.04V75.831zM22.438 47.785l153.508 43.148 4.423 971.677H22.438V47.785z" fill="#2E5A9C"/><path d="M1530.13 550.342H0V1068h1530.13V550.342z" fill="#FACABC"/><path d="M1372.09 85.54l158.04-32.361V1068h-158.04V85.54zM-.002 53.179l149.086 43.147L158.038 1068H-.002l-32.322-511.934L-.002 53.179z" fill="#F87980"/><path d="M510.582 1067.68l14.887-861.76L673.152 45.197h184.793l150.595 161.262v387.03l13.49 474.191H510.582z" fill="#FFF1F0"/><path d="M698.18 78.204c25.998-10.14 54.37-15.748 84.144-15.748 123.735 0 224.056 96.649 224.056 215.735v784.089h64.84V278.191C1071.33 124.587 941.982 0 782.432 0c-44.985 0-87.596 9.924-125.569 27.614" fill="#2E5A9C"/><path d="M632.157 40.558c-83.173 48.864-138.622 136.993-138.622 237.633v784.089h64.834V278.191c0-85 51.026-158.565 125.245-193.73" fill="#CBBEBD"/><path d="M1059.03 283.585c0-153.604-129.348-278.192-288.898-278.192-159.549 0-288.894 124.588-288.894 278.192v784.095h64.834V283.585c0-119.194 100.326-215.736 224.06-215.736 123.735 0 224.061 96.649 224.061 215.736v784.095h64.837V283.585z" fill="#F87980"/><path d="M518.887 527.042H141.426v54.797h377.461v-54.797zM1372.08 527.042h-358.47v54.797h358.47v-54.797z" fill="#F87980"/><path d="M1437.17 70.097l-306.13-42.012-68.18 465.019 302.89 35.66 71.42-458.667zM490.407 3.991L164.188 41.206l55.664 466.636 326.112-37.214L490.407 3.991zM966.684 65.152l1.51-45.951-108.092-2.266 106.582 62.78V65.151zM709.075 11.65l-57.606-2.481v12.836l57.606 18.553V11.65z" fill="#2E5A9C"/><path d="M957.921 30.046l-326.39-13.315L612.38 486.12l326.39 13.315 19.151-469.389z" fill="#F87980"/><path d="M938.605 48.26L649.188 36.452l-17.595 431.234 289.417 11.807 17.595-431.235z" fill="#3F7AD3"/><path d="M897.427 235.475l.324-8.305-3.021-.108 5.502-42.932 32.795 1.403-3.021 72.81-32.579-22.868z" fill="#FFF1F0"/><path d="M881.246 210.45l.431-3.344 2.266.108-13.377-9.816L773.8 93.738l-80.152 76.801-49.839-2.049-1.187 29.663-.216 2.805 238.84 9.492z" fill="#FACABC"/><path d="M876.023 210.525l-233.582-9.528-5.017 122.978 233.582 9.529 5.017-122.979z" fill="#F87980"/><path d="M638.741 291.351l5.825-1.726 11.975-8.845 10.464-2.805 7.443-6.687 4.423-4.531 4.207-5.501 3.668-5.286 3.129-4.746 1.186-1.726 1.295-1.51.755-3.775.324-8.522-.324-8.629v-1.942l-5.61-8.09-4.746-5.501-3.129-5.933-.215-4.422-.648-4.315 1.295-5.933v-4.746l.323-1.295.756-2.588 1.833-8.414 5.179-6.904 1.51-6.472 3.344-3.02 8.63-4.099 3.452-2.697 8.415.432 4.638-1.295 5.718 1.726 6.688 2.481 5.286 4.531 6.796 9.816 1.619 5.717-.756 3.883 3.021 10.895-1.618 11.434-.324 4.314-3.128 6.58-1.187 3.991-2.481 3.991-2.266 8.306-3.559 5.178-1.619 4.53-.647 1.726-1.402 7.659.755 3.775.216 2.265 2.049.756 1.618 2.049 1.619 2.05 2.157 4.53 2.913 3.452-.324 1.51 5.933 5.501 3.452 1.079 3.345 3.452 1.186.431 3.452-11.65 2.158-6.04 3.344-7.443 1.187-2.373.215-18.014.648-1.942.755 2.05-.216 15.533 4.855-8.522 4.638-2.912 4.207-.216 9.17-3.991 2.589-1.402 9.385-1.834 5.61-2.05 8.738-1.618 4.639-2.157 3.56-4.207 3.02-.863 1.187-1.402-.216-8.09-.647-1.618.108-1.51-2.158-7.659-2.265-7.766-.648-2.158-2.481.324-2.912-2.373-1.403-2.805-2.373-3.775-2.589-5.178-2.913-4.962.216-3.991 1.618-2.157 1.618.108 1.51-.108 1.727.108 1.078-10.572 2.589-15.856 1.079-6.041 9.601-6.472 5.394-1.726 5.502-1.294 7.12-2.157 5.933-.54 4.207 1.942 7.983 1.834 8.198 3.02 4.316 4.746 3.02 7.874 1.403 8.522-.324 7.443-.216 6.256.647.863 4.315.108 2.05 4.099-.216 4.315-2.049 3.452-1.834 6.256-2.589 4.422-3.452 1.403-.971 1.941-1.187 3.452-.971 5.609-1.618 6.364-2.697 3.992-.755 3.02-.431 7.551.647 1.941 2.481.971 4.099 5.178 10.356 7.227 7.552 2.373 13.916 3.775 6.688 2.913 5.286 3.344 4.423 4.314 4.423 1.295 2.697 3.991-9.169 225.552-289.434-11.758 7.12-176.364z" fill="#5C404E"/><path d="M1423.81 76.66l-323.45-45.63-65.63 465.161 323.45 45.629 65.63-465.16z" fill="#F87980"/><path d="M1402.78 92.866l-286.81-40.46-60.29 427.349 286.81 40.461 60.29-427.35z" fill="#3F7AD3"/><path d="M1374.78 291.675l-289-25.565-30.1 213.686 286.85 40.559 32.25-228.68z" fill="#F87980"/><path d="M1108.44 487.887l16.18-23.947 11.11-19.956 11.11-12.512 7.98-13.052 1.51-10.787 10.25-16.612 5.94-12.189 5.17-14.993 10.58-10.248 5.28-3.452-6.79-15.748-11.76 1.51-11.65-4.854-9.28-7.012-5.29-17.798.11-8.414-3.88-9.061.65-25.133.75-8.09 2.91-7.982 2.7-4.854 1.94-5.286-3.77-5.393 1.94-8.306 6.79-7.766-1.61-5.933 10.24-14.131 8.09-9.708 11.33-6.688 17.05-7.119 11.54-1.402 13.38-4.962 6.25-1.079 5.18-2.697 14.13-7.227 12.84-.108 14.02 6.149 8.2 7.227 13.16 10.571 9.07 12.729 5.82 15.425 5.18 23.515 4.64 22.436 5.07 39.264 3.56 35.705 1.94 16.611 2.59 10.571.97 27.83 3.56 13.484-2.91 13.807-1.62 10.355-9.71.431-7.98.971 8.09 33.331-3.78 20.172-1.4 29.448-7.23 12.62-210.14-29.663z" fill="#5C404E"/><path d="M486.297 13.625L161.77 50.893l53.604 466.711 324.528-37.268-53.605-466.71z" fill="#F87980"/><path d="M470.04 34.71L182.273 67.758l49.248 428.774 287.766-33.046L470.04 34.711z" fill="#3F7AD3"/><path d="M191.805 150.907s16.613-7.335 23.733-2.697c7.119 4.531 9.924 3.021 15.857 2.374 5.934-.648 6.581-3.021 10.033-4.423 3.452-1.402 9.709 6.041 10.896 5.933 1.186-.108 8.522.863 8.738 3.451.323 2.697-5.502 11.974 1.294 11.219 6.796-.755 4.315-4.099 7.552-4.423 3.236-.323 13.7-5.393 13.484-.216-.216 5.178 14.348 4.531 14.348 4.531l86.193-40.127s5.286-11.11 10.464-10.787c5.178.324 16.721-5.501 23.733.863 7.012 6.364 7.336 19.524 10.464 20.711 3.129 1.186 2.805 11.326 3.668 13.915.863 2.589-14.671 5.609-14.671 5.609l-26.646.647-102.698 40.235s-9.494-1.295-14.995-.324c-5.61.971-11.22 9.385-7.983 8.953 3.236-.431 14.671-2.912 17.476-2.049 2.805.863 9.817 4.315-4.423 5.933-14.24 1.618-24.165.647-18.879 2.157 5.286 1.51 20.497.971 11.759 2.804-8.738 1.942-4.854-.97-15.103 1.726-10.14 2.697-2.697 7.767-8.306 8.414-5.61.647-18.016-.647-19.526 2.265-1.51 2.913-8.954 13.052-11.111 13.268-2.05.216-9.601-.431-12.082 1.402-2.59 1.834-4.208 4.639-4.208 4.639l-9.061-96.003z" fill="#F87980"/><path d="M394.289 161.586s17.584.108 26.754-.971c9.277-1.079 15.75 2.05 15.75 2.05s9.708-4.962 12.729-4.423c3.021.539 5.933-4.53 12.406-4.315 6.473.216 4.962-.539 10.572-2.696 5.609-2.158 10.572-3.236 10.572-3.236l5.286 45.736s-6.473 1.294-13.161 3.883c-6.797 2.481-16.398 5.07-16.398 5.07l-28.587-3.776-10.032 4.962-20.929 1.51" fill="#F87980"/><path d="M493.97 242.379l-9.601-7.011-14.132-2.05-9.924-4.099-7.875-8.737 7.659-7.551 10.14-7.551 2.373-6.903 2.266-10.571 5.933-6.688 4.531-13.807 8.63 74.968z" fill="#FACABC"/><path d="M419.102 225.12l11.542 1.079 5.286 5.177 9.278 4.747 11.866-1.295 11.327 10.463 10.141 2.266 10.356 8.305 4.423 3.776 3.236 5.501 22.762 198.369-66.668 8.306-33.549-246.694z" fill="#FFF1F0"/><path d="M293.101 228.572l-4.423 4.315-4.639.539-8.63-.971.971 7.659-8.522-5.393-6.149-2.589-8.63 1.078-1.834 4.962-6.581-3.991-3.452 5.178-3.236 5.177-3.992 3.129 1.079 9.816 18.771 5.717 12.837 2.049 7.875 4.962 11.759 2.805 15.965-33.547-9.169-10.895z" fill="#FACABC"/><path d="M231.613 243.458l-2.374 10.031 2.374 5.07 4.099 4.854 10.14 3.236 13.916 5.502 7.66 4.746-6.149 3.344-23.302 2.696-4.423 8.09 7.66 7.012 22.114-.108 11.112.539 1.618 14.023-17.584 5.286-22.115-2.481-14.887 3.991-2.265 12.081-6.365 2.481-10.248-88.991 6.796 1.187 7.875 3.775 5.61-.324 8.738-6.04zM233.663 427.265l-2.697 9.492-6.364 2.049 6.904 57.71 52.104-5.933 5.61-68.604" fill="#FACABC"/><path d="M287.923 257.157l5.286-14.562 3.776-17.583-3.991-7.011-7.66-17.259 1.295-10.247-3.884-12.513.648-15.857 2.912-2.481-4.099-8.09 2.481-8.737 2.913-11.542 2.805-3.236 3.667-13.268 10.141-12.404 16.936-10.895h12.622l16.397.54 10.896 4.961 12.621 8.414 9.062 11.65 3.884 13.159 6.149 17.691 1.51 13.699 7.228 17.367-.648 13.268 6.257 9.816-1.51 6.364 5.502 10.679 7.983 6.04 3.02 10.356 9.278 5.177 15.75 6.149 4.962 9.492 10.14 9.277 5.502 9.924 3.56 10.355 4.531 10.463 4.315 12.513 7.443 10.571 1.619 14.454 2.049 17.259 7.552 10.139 1.294 11.111-2.913 7.982 1.187 14.67-6.365 7.227-19.202 11.542-13.484 9.924 2.804 5.609 2.482 21.358.108 9.277-6.473 10.571-180.478 20.71-14.24-17.474 4.531-16.18.647-11.542-11.758-4.315-20.713-9.6-7.551-17.799-2.265-19.2 4.423-20.171 4.315-14.994 14.024-15.317 4.854-11.542 7.551-9.492 5.394-9.493-5.717-8.198 6.365-25.133 11.542-10.679 8.738-12.944z" fill="#5C404E"/><path d="M486.297 13.625L161.77 50.893l53.604 466.711 324.528-37.268-53.605-466.71z" fill="#F87980"/><path d="M470.04 34.71L182.273 67.758l49.248 428.774 287.766-33.046L470.04 34.711z" fill="#3F7AD3"/><path d="M191.805 150.907s16.613-7.335 23.733-2.697c7.119 4.531 9.924 3.021 15.857 2.374 5.934-.648 6.581-3.021 10.033-4.423 3.452-1.402 9.709 6.041 10.896 5.933 1.186-.108 8.522.863 8.738 3.451.323 2.697-5.502 11.974 1.294 11.219 6.796-.755 4.315-4.099 7.552-4.423 3.236-.323 13.7-5.393 13.484-.216-.216 5.178 14.348 4.531 14.348 4.531l86.193-40.127s5.286-11.11 10.464-10.787c5.178.324 16.721-5.501 23.733.863 7.012 6.364 7.336 19.524 10.464 20.711 3.129 1.186 2.805 11.326 3.668 13.915.863 2.589-14.671 5.609-14.671 5.609l-26.646.647-102.698 40.235s-9.494-1.295-14.995-.324c-5.61.971-11.22 9.385-7.983 8.953 3.236-.431 14.671-2.912 17.476-2.049 2.805.863 9.817 4.315-4.423 5.933-14.24 1.618-24.165.647-18.879 2.157 5.286 1.51 20.497.971 11.759 2.804-8.738 1.942-4.854-.97-15.103 1.726-10.14 2.697-2.697 7.767-8.306 8.414-5.61.647-18.016-.647-19.526 2.265-1.51 2.913-8.954 13.052-11.111 13.268-2.05.216-9.601-.431-12.082 1.402-2.59 1.834-4.208 4.639-4.208 4.639l-9.061-96.003z" fill="#F87980"/><path d="M394.289 161.586s17.584.108 26.754-.971c9.277-1.079 15.75 2.05 15.75 2.05s9.708-4.962 12.729-4.423c3.021.539 5.933-4.53 12.406-4.315 6.473.216 4.962-.539 10.572-2.696 5.609-2.158 10.572-3.236 10.572-3.236l5.286 45.736s-6.473 1.294-13.161 3.883c-6.797 2.481-16.398 5.07-16.398 5.07l-28.587-3.776-10.032 4.962-20.929 1.51" fill="#F87980"/><path d="M493.97 242.379l-9.601-7.011-14.132-2.05-9.924-4.099-7.875-8.737 7.659-7.551 10.14-7.551 2.373-6.903 2.266-10.571 5.933-6.688 4.531-13.807 8.63 74.968z" fill="#FACABC"/><path d="M419.102 225.12l11.542 1.079 5.286 5.177 9.278 4.747 11.866-1.295 11.327 10.463 10.141 2.266 10.356 8.305 4.423 3.776 3.236 5.501 22.762 198.369-66.668 8.306-33.549-246.694z" fill="#FFF1F0"/><path d="M293.101 228.572l-4.423 4.315-4.639.539-8.63-.971.971 7.659-8.522-5.393-6.149-2.589-8.63 1.078-1.834 4.962-6.581-3.991-3.452 5.178-3.236 5.177-3.992 3.129 1.079 9.816 18.771 5.717 12.837 2.049 7.875 4.962 11.759 2.805 15.965-33.547-9.169-10.895z" fill="#FACABC"/><path d="M231.613 243.458l-2.374 10.031 2.374 5.07 4.099 4.854 10.14 3.236 13.916 5.502 7.66 4.746-6.149 3.344-23.302 2.696-4.423 8.09 7.66 7.012 22.114-.108 11.112.539 1.618 14.023-17.584 5.286-22.115-2.481-14.887 3.991-2.265 12.081-6.365 2.481-10.248-88.991 6.796 1.187 7.875 3.775 5.61-.324 8.738-6.04zM233.663 427.265l-2.697 9.492-6.364 2.049 6.904 57.71 52.104-5.933 5.61-68.604" fill="#FACABC"/><path d="M287.923 257.157l5.286-14.562 3.776-17.583-3.991-7.011-7.66-17.259 1.295-10.247-3.884-12.513.648-15.857 2.912-2.481-4.099-8.09 2.481-8.737 2.913-11.542 2.805-3.236 3.667-13.268 10.141-12.404 16.936-10.895h12.622l16.397.54 10.896 4.961 12.621 8.414 9.062 11.65 3.884 13.159 6.149 17.691 1.51 13.699 7.228 17.367-.648 13.268 6.257 9.816-1.51 6.364 5.502 10.679 7.983 6.04 3.02 10.356 9.278 5.177 15.75 6.149 4.962 9.492 10.14 9.277 5.502 9.924 3.56 10.355 4.531 10.463 4.315 12.513 7.443 10.571 1.619 14.454 2.049 17.259 7.552 10.139 1.294 11.111-2.913 7.982 1.187 14.67-6.365 7.227-19.202 11.542-13.484 9.924 2.804 5.609 2.482 21.358.108 9.277-6.473 10.571-180.478 20.71-14.24-17.474 4.531-16.18.647-11.542-11.758-4.315-20.713-9.6-7.551-17.799-2.265-19.2 4.423-20.171 4.315-14.994 14.024-15.317 4.854-11.542 7.551-9.492 5.394-9.493-5.717-8.198 6.365-25.133 11.542-10.679 8.738-12.944z" fill="#5C404E"/><path d="M486.297 13.625L161.77 50.893l53.604 466.711 324.528-37.268-53.605-466.71z" fill="#F87980"/><path d="M470.04 34.71L182.273 67.758l49.248 428.774 287.766-33.046L470.04 34.711z" fill="#3F7AD3"/><path d="M191.805 150.907s16.613-7.335 23.733-2.697c7.119 4.531 9.924 3.021 15.857 2.374 5.934-.648 6.581-3.021 10.033-4.423 3.452-1.402 9.709 6.041 10.896 5.933 1.186-.108 8.522.863 8.738 3.451.323 2.697-5.502 11.974 1.294 11.219 6.796-.755 4.315-4.099 7.552-4.423 3.236-.323 13.7-5.393 13.484-.216-.216 5.178 14.348 4.531 14.348 4.531l86.193-40.127s5.286-11.11 10.464-10.787c5.178.324 16.721-5.501 23.733.863 7.012 6.364 7.336 19.524 10.464 20.711 3.129 1.186 2.805 11.326 3.668 13.915.863 2.589-14.671 5.609-14.671 5.609l-26.646.647-102.698 40.235s-9.494-1.295-14.995-.324c-5.61.971-11.22 9.385-7.983 8.953 3.236-.431 14.671-2.912 17.476-2.049 2.805.863 9.817 4.315-4.423 5.933-14.24 1.618-24.165.647-18.879 2.157 5.286 1.51 20.497.971 11.759 2.804-8.738 1.942-4.854-.97-15.103 1.726-10.14 2.697-2.697 7.767-8.306 8.414-5.61.647-18.016-.647-19.526 2.265-1.51 2.913-8.954 13.052-11.111 13.268-2.05.216-9.601-.431-12.082 1.402-2.59 1.834-4.208 4.639-4.208 4.639l-9.061-96.003z" fill="#F87980"/><path d="M394.289 161.586s17.584.108 26.754-.971c9.277-1.079 15.75 2.05 15.75 2.05s9.708-4.962 12.729-4.423c3.021.539 5.933-4.53 12.406-4.315 6.473.216 4.962-.539 10.572-2.696 5.609-2.158 10.572-3.236 10.572-3.236l5.286 45.736s-6.473 1.294-13.161 3.883c-6.797 2.481-16.398 5.07-16.398 5.07l-28.587-3.776-10.032 4.962-20.929 1.51" fill="#F87980"/><path d="M493.97 242.379l-9.601-7.011-14.132-2.05-9.924-4.099-7.875-8.737 7.659-7.551 10.14-7.551 2.373-6.903 2.266-10.571 5.933-6.688 4.531-13.807 8.63 74.968z" fill="#FACABC"/><path d="M419.102 225.12l11.542 1.079 5.286 5.177 9.278 4.747 11.866-1.295 11.327 10.463 10.141 2.266 10.356 8.305 4.423 3.776 3.236 5.501 22.762 198.369-66.668 8.306-33.549-246.694z" fill="#FFF1F0"/><path d="M293.101 228.572l-4.423 4.315-4.639.539-8.63-.971.971 7.659-8.522-5.393-6.149-2.589-8.63 1.078-1.834 4.962-6.581-3.991-3.452 5.178-3.236 5.177-3.992 3.129 1.079 9.816 18.771 5.717 12.837 2.049 7.875 4.962 11.759 2.805 15.965-33.547-9.169-10.895z" fill="#FACABC"/><path d="M231.613 243.458l-2.374 10.031 2.374 5.07 4.099 4.854 10.14 3.236 13.916 5.502 7.66 4.746-6.149 3.344-23.302 2.696-4.423 8.09 7.66 7.012 22.114-.108 11.112.539 1.618 14.023-17.584 5.286-22.115-2.481-14.887 3.991-2.265 12.081-6.365 2.481-10.248-88.991 6.796 1.187 7.875 3.775 5.61-.324 8.738-6.04zM233.663 427.265l-2.697 9.492-6.364 2.049 6.904 57.71 52.104-5.933 5.61-68.604" fill="#FACABC"/><path d="M287.923 257.157l5.286-14.562 3.776-17.583-3.991-7.011-7.66-17.259 1.295-10.247-3.884-12.513.648-15.857 2.912-2.481-4.099-8.09 2.481-8.737 2.913-11.542 2.805-3.236 3.667-13.268 10.141-12.404 16.936-10.895h12.622l16.397.54 10.896 4.961 12.621 8.414 9.062 11.65 3.884 13.159 6.149 17.691 1.51 13.699 7.228 17.367-.648 13.268 6.257 9.816-1.51 6.364 5.502 10.679 7.983 6.04 3.02 10.356 9.278 5.177 15.75 6.149 4.962 9.492 10.14 9.277 5.502 9.924 3.56 10.355 4.531 10.463 4.315 12.513 7.443 10.571 1.619 14.454 2.049 17.259 7.552 10.139 1.294 11.111-2.913 7.982 1.187 14.67-6.365 7.227-19.202 11.542-13.484 9.924 2.804 5.609 2.482 21.358.108 9.277-6.473 10.571-180.478 20.71-14.24-17.474 4.531-16.18.647-11.542-11.758-4.315-20.713-9.6-7.551-17.799-2.265-19.2 4.423-20.171 4.315-14.994 14.024-15.317 4.854-11.542 7.551-9.492 5.394-9.493-5.717-8.198 6.365-25.133 11.542-10.679 8.738-12.944z" fill="#5C404E"/><path d="M177.998 527.042l.215 54.797H153.51l-.432-54.797h24.92z" fill="#A75155"/><path d="M178.212 581.839L182.635 1068h-24.596l-4.531-486.161h24.704z" fill="#BE988D"/><path d="M1071.33 527.042l.21 54.797h-12.51v-54.797h12.3z" fill="#A75155"/><path d="M1071.54 581.839h-12.51V1068h12.3l.21-486.161z" fill="#BE988D"/><path d="M1421.96 67.98l-24.26 4.998 26.1 3.631-67 456.929 12.3 1.618 68.18-465.019-15.32-2.157zM952.66 158.35l11.219 16.935 2.805-95.57s-6.149-6.15-10.464-8.954l-3.56 87.589z" fill="#A75155"/><path d="M951.15 484.327h-11.974l13.377-325.977s8.953 11.434 11.219 16.935L951.15 484.327z" fill="#CBBEBD"/><path d="M854.063 17.259s1.726-.863 27.616 9.6l-204.534-8.198s7.875-3.02 31.931-7.011l144.987 5.609zM538.846 471.491l7.12-.756-36.57-307.1s-3.021 3.776-4.962 8.306l34.412 299.55z" fill="#A75155"/><path d="M1372.09 581.839h-313.06v18.877h313.06v-18.877zM178.211 581.839h303.026v25.781H165.59l12.621-25.781z" fill="#BE988D"/><path d="M205.115 698.678c2.16-1.134 3.429-3.051 3.429-5.373 0-3.267-1.998-5.049-5.481-5.049l-5.886.027.189 12.123-.189 5.211h2.835l-.135-5.454v-.729h2.943c1.134 2.106 2.376 4.185 3.618 6.21l.324.216c.918-.081 1.809-.27 2.673-.567l.027-.324c-1.566-2.079-3.024-4.158-4.347-6.291zm-5.184-1.512l.081-6.642 2.295-.081c2.187.081 3.321 1.026 3.321 3.078 0 1.971-.945 3.186-2.727 3.726l-2.97-.081zm16.151-4.239c-3.726 0-5.805 2.403-5.805 6.669 0 3.996 1.971 6.264 5.454 6.264 3.726 0 5.805-2.403 5.805-6.669 0-3.996-1.971-6.264-5.454-6.264zm-.162 1.917c2.025 0 3.051 1.566 3.051 4.968 0 2.835-1.026 4.158-3.051 4.158-2.052 0-3.078-1.539-3.078-4.968 0-2.781 1.026-4.158 3.078-4.158zm20.012-2.16l-.243-.162a28.66 28.66 0 01-3.996.945c-.702-.297-1.512-.459-2.484-.459-3.051 0-5.049 1.62-5.049 4.401 0 1.566.648 2.781 1.863 3.456V701a5.95 5.95 0 00-1.728 1.647c0 1.269.837 1.89 1.971 2.268v.135c-.918.594-1.755 1.242-2.322 2.187 0 2.079 1.647 3.618 4.779 3.618 3.402 0 5.967-1.836 5.967-4.239 0-4.131-7.938-2.43-7.938-4.347 0-.297.135-.54.567-.891a7.924 7.924 0 001.647.162c3.159 0 5.103-1.701 5.103-4.347 0-.783-.162-1.485-.513-2.079l.054-.108c.81-.135 1.593-.27 2.322-.513v-1.809zm-6.858 7.101c-1.62 0-2.484-.918-2.484-2.511 0-1.62.918-2.484 2.592-2.484 1.647 0 2.457.864 2.457 2.403 0 1.647-.918 2.592-2.565 2.592zm3.24 7.344c0 1.161-1.377 1.944-3.267 1.944-1.836 0-2.754-.729-2.754-1.674 0-.756.621-1.404 1.728-2.106 2.106.324 4.293.405 4.293 1.836zm14.398-7.614l.459-.432c.054-.324.108-.972.108-1.35 0-2.97-1.647-4.779-4.536-4.779-3.618 0-5.967 2.457-5.967 6.507 0 3.942 2.16 6.399 5.886 6.399 1.296 0 2.619-.351 3.78-.918l.324-2.187-.243-.162c-1.215.729-2.538 1.134-3.645 1.134-2.376 0-3.51-1.539-3.564-4.212h7.398zm-1.944-1.809l-5.319.135c.351-1.917 1.485-2.997 3.132-2.997 1.35 0 2.241.783 2.241 2.538l-.054.324zm11.555-4.563c-1.08 0-2.376.594-3.402 2.457h-.189l.027-2.484-2.619.243.162 7.047-.189 5.211h2.754l-.189-5.454.027-1.782c.945-1.863 1.89-2.619 2.997-2.619.243 0 .621.027.999.135l.297-.081v-2.619a5.26 5.26 0 00-.675-.054zm9.779 6.993l.216-13.473-2.754.216.135 13.5-.162 5.238h2.754l-.189-5.481zm7.641-6.966h-2.997l-.675 1.188-3.564 4.536v.189c1.431 2.295 3.024 4.509 4.698 6.669l.324.108c.837-.108 1.674-.189 2.511-.405v-.324c-1.647-2.025-3.348-4.158-4.86-6.291l4.563-5.67zm6.376-.243c-1.647 0-3.321.567-4.86 1.62l.351 1.917.216.135c1.458-1.188 2.646-1.728 3.861-1.728 1.242 0 1.944.675 1.944 2.025l-.027 1.458-4.266.945c-1.674.378-2.619 1.296-2.619 2.997 0 2.16 1.485 3.51 3.996 3.537 1.026-.405 1.944-1.107 2.808-2.025h.189c.135 1.161.864 1.89 1.971 1.998a4.4 4.4 0 001.701-.594l.27-1.512-.243-.189c-.405.081-.621.108-.81.108-.567 0-.783-.216-.783-.918 0-.918.324-5.454.324-6.399 0-2.133-1.566-3.375-4.023-3.375zm1.485 7.02l-.081 2.079c-.891 1.026-1.755 1.647-2.7 1.647-.999 0-1.647-.621-1.647-1.728 0-.729.27-1.026.918-1.161l3.51-.837zm14.302 5.67h2.781l-.135-5.454.081-3.51c.027-2.322-1.404-3.645-4.185-3.645-1.08.324-2.241.972-3.321 1.917h-.189l.027-1.809-2.619.243.135 7.047-.162 5.211h2.754l-.162-5.454.027-3.294c1.053-1.026 2.16-1.62 3.24-1.62 1.296 0 1.944.837 1.917 2.187l-.189 8.181zm18.352 0h2.781l-.135-5.454.081-3.51c.027-2.322-1.404-3.645-4.185-3.645-1.08.324-2.241.972-3.321 1.917h-.189l.027-1.809-2.619.243.135 7.047-.162 5.211h2.754l-.162-5.454.027-3.294c1.053-1.026 2.16-1.62 3.24-1.62 1.296 0 1.944.837 1.917 2.187l-.189 8.181zm7.925-18.252c-.972 0-1.566.621-1.566 1.566 0 .945.54 1.512 1.485 1.512.918 0 1.512-.621 1.512-1.593 0-.918-.513-1.485-1.431-1.485zm1.08 12.798l.216-7.047-2.754.243.135 7.047-.162 5.211h2.754l-.189-5.454zm13.071-.648l.459-.432c.054-.324.108-.972.108-1.35 0-2.97-1.647-4.779-4.536-4.779-3.618 0-5.967 2.457-5.967 6.507 0 3.942 2.16 6.399 5.886 6.399 1.296 0 2.619-.351 3.78-.918l.324-2.187-.243-.162c-1.215.729-2.538 1.134-3.645 1.134-2.376 0-3.51-1.539-3.564-4.212h7.398zm-1.944-1.809l-5.319.135c.351-1.917 1.485-2.997 3.132-2.997 1.35 0 2.241.783 2.241 2.538l-.054.324zm9.746 5.832c-1.107 0-1.593-.432-1.566-1.782l.135-6.777h3.483l.135-1.566-.108-.189h-3.456l.054-2.673-.243-.216-2.43.918v1.971h-1.647l-.135 1.593.108.162h1.701l.027 5.265-.108 1.944c0 2.133.945 3.24 3.186 3.591.945-.081 1.782-.351 2.754-.81l.27-1.728-.27-.189c-.729.351-1.323.486-1.89.486zm11.457-3.402l.216-13.473-2.754.216.135 13.5-.162 5.238h2.754l-.189-5.481zm7.641-6.966h-2.997l-.675 1.188-3.564 4.536v.189c1.431 2.295 3.024 4.509 4.698 6.669l.324.108c.837-.108 1.674-.189 2.511-.405v-.324c-1.647-2.025-3.348-4.158-4.86-6.291l4.563-5.67zm3.879-5.805c-.972 0-1.566.621-1.566 1.566 0 .945.54 1.512 1.485 1.512.918 0 1.512-.621 1.512-1.593 0-.918-.513-1.485-1.431-1.485zm1.08 12.798l.216-7.047-2.754.243.135 7.047-.162 5.211h2.754l-.189-5.454zm13.071-.648l.459-.432c.054-.324.108-.972.108-1.35 0-2.97-1.647-4.779-4.536-4.779-3.618 0-5.967 2.457-5.967 6.507 0 3.942 2.16 6.399 5.886 6.399 1.296 0 2.619-.351 3.78-.918l.324-2.187-.243-.162c-1.215.729-2.538 1.134-3.645 1.134-2.376 0-3.51-1.539-3.564-4.212h7.398zm-1.944-1.809l-5.319.135c.351-1.917 1.485-2.997 3.132-2.997 1.35 0 2.241.783 2.241 2.538l-.054.324zm7.046-4.536l-2.457-.054-.189 1.89.162.216 2.079-.216h4.212l-6.615 9.045.027 1.62 1.458-.054h5.184l2.781.054.216-1.89-.162-.216-2.16.216h-4.428l6.588-8.991-.054-1.647-1.188.027h-5.454zm18.286 6.345l.459-.432c.054-.324.108-.972.108-1.35 0-2.97-1.647-4.779-4.536-4.779-3.618 0-5.967 2.457-5.967 6.507 0 3.942 2.16 6.399 5.886 6.399 1.296 0 2.619-.351 3.78-.918l.324-2.187-.243-.162c-1.215.729-2.538 1.134-3.645 1.134-2.376 0-3.51-1.539-3.564-4.212h7.398zm-1.944-1.809l-5.319.135c.351-1.917 1.485-2.997 3.132-2.997 1.35 0 2.241.783 2.241 2.538l-.054.324zm12.932 7.911h2.781l-.135-5.454.081-3.51c.027-2.322-1.404-3.645-4.185-3.645-1.08.324-2.241.972-3.321 1.917h-.189l.027-1.809-2.619.243.135 7.047-.162 5.211h2.754l-.162-5.454.027-3.294c1.053-1.026 2.16-1.62 3.24-1.62 1.296 0 1.944.837 1.917 2.187l-.189 8.181zm7.655-2.916c-.972 0-1.566.621-1.566 1.566 0 .945.54 1.512 1.485 1.512.918 0 1.512-.621 1.512-1.593 0-.918-.513-1.485-1.431-1.485zm19.417.54l-4.185.135-3.294-.027-.081-3.186.027-2.241 2.943-.054 3.051.081.216-2.133-.189-.216-2.862.081-3.132-.054.081-5.049 3.294-.027 4.104.108.216-2.133-.162-.243h-10.287l.189 12.123-.189 5.211h10.233l.189-2.133-.162-.243zm8.597-10.098c-1.08 0-2.376.594-3.402 2.457h-.189l.027-2.484-2.619.243.162 7.047-.189 5.211h2.754l-.189-5.454.027-1.782c.945-1.863 1.89-2.619 2.997-2.619.243 0 .621.027.999.135l.297-.081v-2.619a5.26 5.26 0 00-.675-.054zM198.473 725.17l-2.457-.054-.189 1.89.162.216 2.079-.216h4.212l-6.615 9.045.027 1.62 1.458-.054h5.184l2.781.054.216-1.89-.162-.216-2.16.216h-4.428l6.588-8.991-.054-1.647-1.188.027h-5.454zm11.043-5.805c-.972 0-1.566.621-1.566 1.566 0 .945.54 1.512 1.485 1.512.918 0 1.512-.621 1.512-1.593 0-.918-.513-1.485-1.431-1.485zm1.08 12.798l.216-7.047-2.754.243.135 7.047-.162 5.211h2.754l-.189-5.454zm5.754-12.798c-.972 0-1.566.621-1.566 1.566 0 .945.54 1.512 1.485 1.512.918 0 1.512-.621 1.512-1.593 0-.918-.513-1.485-1.431-1.485zm1.728 5.805l-.081-.054-2.565.108h-2.484l-.135 1.566.189.189h2.376l.108 5.427-.027 4.725c0 2.079-.648 3.186-2.484 4.212v.297l.999 1.215c2.916-1.404 4.05-2.997 4.05-5.832l-.135-4.86.189-6.993zm11.594 12.447h2.781l-.135-5.454.081-3.51c.027-2.322-1.404-3.645-4.185-3.645-1.08.324-2.241.972-3.321 1.917h-.189l.027-1.809-2.619.243.135 7.047-.162 5.211h2.754l-.162-5.454.027-3.294c1.053-1.026 2.16-1.62 3.24-1.62 1.296 0 1.944.837 1.917 2.187l-.189 8.181zm12.466-12.447l-2.457-.054-.189 1.89.162.216 2.079-.216h4.212l-6.615 9.045.027 1.62 1.458-.054h5.184l2.781.054.216-1.89-.162-.216-2.16.216h-4.428l6.588-8.991-.054-1.647-1.188.027h-5.454zm14.154-.243c-3.726 0-5.805 2.403-5.805 6.669 0 3.996 1.971 6.264 5.454 6.264 3.726 0 5.805-2.403 5.805-6.669 0-3.996-1.971-6.264-5.454-6.264zm-.162 1.917c2.025 0 3.051 1.566 3.051 4.968 0 2.835-1.026 4.158-3.051 4.158-2.052 0-3.078-1.539-3.078-4.968 0-2.781 1.026-4.158 3.078-4.158zm9.627.081l-.351-1.836-2.538.135 3.699 12.393h2.97l4.401-12.447h-2.43l-.459 1.89-2.754 7.911h-.189l-2.349-8.046zm18.845 4.59l.459-.432c.054-.324.108-.972.108-1.35 0-2.97-1.647-4.779-4.536-4.779-3.618 0-5.967 2.457-5.967 6.507 0 3.942 2.16 6.399 5.886 6.399 1.296 0 2.619-.351 3.78-.918l.324-2.187-.243-.162c-1.215.729-2.538 1.134-3.645 1.134-2.376 0-3.51-1.539-3.564-4.212h7.398zm-1.944-1.809l-5.319.135c.351-1.917 1.485-2.997 3.132-2.997 1.35 0 2.241.783 2.241 2.538l-.054.324zm14.337 1.809l.459-.432c.054-.324.108-.972.108-1.35 0-2.97-1.647-4.779-4.536-4.779-3.618 0-5.967 2.457-5.967 6.507 0 3.942 2.16 6.399 5.886 6.399 1.296 0 2.619-.351 3.78-.918l.324-2.187-.243-.162c-1.215.729-2.538 1.134-3.645 1.134-2.376 0-3.51-1.539-3.564-4.212h7.398zm-1.944-1.809l-5.319.135c.351-1.917 1.485-2.997 3.132-2.997 1.35 0 2.241.783 2.241 2.538l-.054.324zm7.965 2.43l.216-13.473-2.754.216.162 13.5-.189 5.238h2.754l-.189-5.481zm19.928-7.452l-.243-.162a28.66 28.66 0 01-3.996.945c-.702-.297-1.512-.459-2.484-.459-3.051 0-5.049 1.62-5.049 4.401 0 1.566.648 2.781 1.863 3.456V733a5.95 5.95 0 00-1.728 1.647c0 1.269.837 1.89 1.971 2.268v.135c-.918.594-1.755 1.242-2.322 2.187 0 2.079 1.647 3.618 4.779 3.618 3.402 0 5.967-1.836 5.967-4.239 0-4.131-7.938-2.43-7.938-4.347 0-.297.135-.54.567-.891a7.924 7.924 0 001.647.162c3.159 0 5.103-1.701 5.103-4.347 0-.783-.162-1.485-.513-2.079l.054-.108c.81-.135 1.593-.27 2.322-.513v-1.809zm-6.858 7.101c-1.62 0-2.484-.918-2.484-2.511 0-1.62.918-2.484 2.592-2.484 1.647 0 2.457.864 2.457 2.403 0 1.647-.918 2.592-2.565 2.592zm3.24 7.344c0 1.161-1.377 1.944-3.267 1.944-1.836 0-2.754-.729-2.754-1.674 0-.756.621-1.404 1.728-2.106 2.106.324 4.293.405 4.293 1.836zm10.267-14.202c-3.726 0-5.805 2.403-5.805 6.669 0 3.996 1.971 6.264 5.454 6.264 3.726 0 5.805-2.403 5.805-6.669 0-3.996-1.971-6.264-5.454-6.264zm-.162 1.917c2.025 0 3.051 1.566 3.051 4.968 0 2.835-1.026 4.158-3.051 4.158-2.052 0-3.078-1.539-3.078-4.968 0-2.781 1.026-4.158 3.078-4.158zm17.582 4.671l.459-.432c.054-.324.108-.972.108-1.35 0-2.97-1.647-4.779-4.536-4.779-3.618 0-5.967 2.457-5.967 6.507 0 3.942 2.16 6.399 5.886 6.399 1.296 0 2.619-.351 3.78-.918l.324-2.187-.243-.162c-1.215.729-2.538 1.134-3.645 1.134-2.376 0-3.51-1.539-3.564-4.212h7.398zm-1.944-1.809l-5.319.135c.351-1.917 1.485-2.997 3.132-2.997 1.35 0 2.241.783 2.241 2.538l-.054.324zm6.83-10.341c-.972 0-1.566.621-1.566 1.566 0 .945.54 1.512 1.485 1.512.918 0 1.512-.621 1.512-1.593 0-.918-.513-1.485-1.431-1.485zm1.08 12.798l.216-7.047-2.754.243.135 7.047-.162 5.211h2.754l-.189-5.454zm13.071-.648l.459-.432c.054-.324.108-.972.108-1.35 0-2.97-1.647-4.779-4.536-4.779-3.618 0-5.967 2.457-5.967 6.507 0 3.942 2.16 6.399 5.886 6.399 1.296 0 2.619-.351 3.78-.918l.324-2.187-.243-.162c-1.215.729-2.538 1.134-3.645 1.134-2.376 0-3.51-1.539-3.564-4.212h7.398zm-1.944-1.809l-5.319.135c.351-1.917 1.485-2.997 3.132-2.997 1.35 0 2.241.783 2.241 2.538l-.054.324zm13.422-4.752c-2.862 0-4.536 1.62-4.536 3.753 0 3.915 5.589 3.402 5.589 5.697 0 .81-.702 1.593-1.917 1.593-.999 0-2.376-.513-3.456-1.458l-.297.189-.324 2.295c1.242.54 2.592.837 3.78.837 3.105 0 4.671-1.917 4.671-3.915 0-3.807-5.589-3.321-5.589-5.589 0-.783.648-1.485 1.755-1.485.837 0 1.782.297 2.754.945l.351-.081.378-2.16a8.548 8.548 0 00-3.159-.621zm11.178-.027c-3.564 0-5.697 2.511-5.697 6.588 0 3.942 1.998 6.345 5.373 6.345 1.107 0 2.295-.243 3.294-.621l.27-2.214-.243-.162c-.918.486-1.971.81-2.889.81-2.052 0-3.213-1.62-3.213-4.374 0-2.619 1.134-4.104 3.051-4.104.918 0 1.809.351 2.646.837l.27-.108.459-2.295c-.891-.432-2.16-.702-3.321-.702zm13.252 12.69h2.781l-.135-5.454.081-3.51c.027-2.322-1.404-3.645-4.185-3.645-1.08.324-2.241.972-3.321 1.917h-.162l.135-8.262-2.754.216.135 13.5-.162 5.238h2.754l-.189-5.481.054-3.267c1.053-1.026 2.16-1.62 3.24-1.62 1.296 0 1.944.837 1.917 2.187l-.189 8.181zm7.923-18.252c-.972 0-1.566.621-1.566 1.566 0 .945.54 1.512 1.485 1.512.918 0 1.512-.621 1.512-1.593 0-.918-.513-1.485-1.431-1.485zm1.08 12.798l.216-7.047-2.754.243.135 7.047-.162 5.211h2.754l-.189-5.454zm6.753-.027l.216-13.473-2.754.216.162 13.5-.189 5.238h2.754l-.189-5.481zm13.902 0l.216-13.473-2.754.216.054 6.291a11.38 11.38 0 00-2.106-.216c-3.807 0-6.129 2.322-6.129 6.48 0 3.996 1.971 6.345 5.589 6.345 1.08-.486 1.782-.999 2.808-1.863h.216c.189 1.053.864 1.782 1.998 1.89a4.375 4.375 0 001.728-.594l.243-1.512-.243-.189a3.903 3.903 0 01-.837.108c-.513 0-.675-.216-.702-.891l-.081-2.592zm-4.86-5.292c.783 0 1.539.216 2.403.621l.081 4.914-.054 1.755c-.972 1.08-1.809 1.404-2.646 1.404-1.89 0-3.024-1.539-3.051-4.428-.054-2.889 1.242-4.266 3.267-4.266zm18.158 4.671l.459-.432c.054-.324.108-.972.108-1.35 0-2.97-1.647-4.779-4.536-4.779-3.618 0-5.967 2.457-5.967 6.507 0 3.942 2.16 6.399 5.886 6.399 1.296 0 2.619-.351 3.78-.918l.324-2.187-.243-.162c-1.215.729-2.538 1.134-3.645 1.134-2.376 0-3.51-1.539-3.564-4.212h7.398zm-1.944-1.809l-5.319.135c.351-1.917 1.485-2.997 3.132-2.997 1.35 0 2.241.783 2.241 2.538l-.054.324zm11.555-4.563c-1.08 0-2.376.594-3.402 2.457h-.189l.027-2.484-2.619.243.162 7.047-.189 5.211h2.754l-.189-5.454.027-1.782c.945-1.863 1.89-2.619 2.997-2.619.243 0 .621.027.999.135l.297-.081v-2.619a5.26 5.26 0 00-.675-.054zm6.508-.189c-2.862 0-4.536 1.62-4.536 3.753 0 3.915 5.589 3.402 5.589 5.697 0 .81-.702 1.593-1.917 1.593-.999 0-2.376-.513-3.456-1.458l-.297.189-.324 2.295c1.242.54 2.592.837 3.78.837 3.105 0 4.671-1.917 4.671-3.915 0-3.807-5.589-3.321-5.589-5.589 0-.783.648-1.485 1.755-1.485.837 0 1.782.297 2.754.945l.351-.081.378-2.16a8.548 8.548 0 00-3.159-.621zm7.678 9.801c-.729.189-1.377.513-1.971.891v.243c.567.405.837.864.837 1.431 0 .864-.486 1.674-1.485 2.484l.027.216.891.81c1.917-1.377 2.862-2.7 2.862-4.05 0-.81-.405-1.485-1.161-2.025zm-262.921 28.76l.459-.432c.054-.324.108-.972.108-1.35 0-2.97-1.647-4.779-4.536-4.779-3.618 0-5.967 2.457-5.967 6.507 0 3.942 2.16 6.399 5.886 6.399 1.296 0 2.619-.351 3.78-.918l.324-2.187-.243-.162c-1.215.729-2.538 1.134-3.645 1.134-2.376 0-3.51-1.539-3.564-4.212h7.398zm-1.944-1.809l-5.319.135c.351-1.917 1.485-2.997 3.132-2.997 1.35 0 2.241.783 2.241 2.538l-.054.324zm12.932 7.911h2.781l-.135-5.454.081-3.51c.027-2.322-1.404-3.645-4.185-3.645-1.08.324-2.241.972-3.321 1.917h-.189l.027-1.809-2.619.243.135 7.047-.162 5.211h2.754l-.162-5.454.027-3.294c1.053-1.026 2.16-1.62 3.24-1.62 1.296 0 1.944.837 1.917 2.187l-.189 8.181zm18.487 0h2.781l-.135-5.454.081-3.51c.027-2.322-1.404-3.645-4.185-3.645-1.08.324-2.241.972-3.321 1.917h-.162l.135-8.262-2.754.216.135 13.5-.162 5.238h2.754l-.189-5.481.054-3.267c1.053-1.026 2.16-1.62 3.24-1.62 1.296 0 1.944.837 1.917 2.187l-.189 8.181zm7.922-18.252c-.972 0-1.566.621-1.566 1.566 0 .945.54 1.512 1.485 1.512.918 0 1.512-.621 1.512-1.593 0-.918-.513-1.485-1.431-1.485zm1.08 12.798l.216-7.047-2.754.243.135 7.047-.162 5.211h2.754l-.189-5.454zm5.754-12.798c-.972 0-1.566.621-1.566 1.566 0 .945.54 1.512 1.485 1.512.918 0 1.512-.621 1.512-1.593 0-.918-.513-1.485-1.431-1.485zm1.728 5.805l-.081-.054-2.565.108h-2.484l-.135 1.566.189.189h2.376l.108 5.427-.027 4.725c0 2.079-.648 3.186-2.484 4.212v.297l.999 1.215c2.916-1.404 4.05-2.997 4.05-5.832l-.135-4.86.189-6.993zm9.681 1.674l-.27-1.755-2.511.135 3.375 12.393h2.7l2.673-8.964h.216l2.295 8.964h2.619l3.996-12.447h-2.349l-.432 1.809-2.295 7.776h-.162l-1.998-7.911-.297-1.674h-2.646l-.459 1.809-2.295 7.776h-.189l-1.971-7.911zm18.618-7.479c-.972 0-1.566.621-1.566 1.566 0 .945.54 1.512 1.485 1.512.918 0 1.512-.621 1.512-1.593 0-.918-.513-1.485-1.431-1.485zm1.08 12.798l.216-7.047-2.754.243.135 7.047-.162 5.211h2.754l-.189-5.454zm6.754-.027l.216-13.473-2.754.216.162 13.5-.189 5.238h2.754l-.189-5.481zm17.497-.621l.459-.432c.054-.324.108-.972.108-1.35 0-2.97-1.647-4.779-4.536-4.779-3.618 0-5.967 2.457-5.967 6.507 0 3.942 2.16 6.399 5.886 6.399 1.296 0 2.619-.351 3.78-.918l.324-2.187-.243-.162c-1.215.729-2.538 1.134-3.645 1.134-2.376 0-3.51-1.539-3.564-4.212h7.398zm-1.944-1.809l-5.319.135c.351-1.917 1.485-2.997 3.132-2.997 1.35 0 2.241.783 2.241 2.538l-.054.324zm12.932 7.911h2.781l-.135-5.454.081-3.51c.027-2.322-1.404-3.645-4.185-3.645-1.08.324-2.241.972-3.321 1.917h-.189l.027-1.809-2.619.243.135 7.047-.162 5.211h2.754l-.162-5.454.027-3.294c1.053-1.026 2.16-1.62 3.24-1.62 1.296 0 1.944.837 1.917 2.187l-.189 8.181zm9.141-5.481l.216-13.473-2.754.216.135 13.5-.162 5.238h2.754l-.189-5.481zm7.641-6.966h-2.997l-.675 1.188-3.564 4.536v.189c1.431 2.295 3.024 4.509 4.698 6.669l.324.108c.837-.108 1.674-.189 2.511-.405v-.324c-1.647-2.025-3.348-4.158-4.86-6.291l4.563-5.67zm10.99 6.345l.459-.432c.054-.324.108-.972.108-1.35 0-2.97-1.647-4.779-4.536-4.779-3.618 0-5.967 2.457-5.967 6.507 0 3.942 2.16 6.399 5.886 6.399 1.296 0 2.619-.351 3.78-.918l.324-2.187-.243-.162c-1.215.729-2.538 1.134-3.645 1.134-2.376 0-3.51-1.539-3.564-4.212h7.398zm-1.944-1.809l-5.319.135c.351-1.917 1.485-2.997 3.132-2.997 1.35 0 2.241.783 2.241 2.538l-.054.324zm7.966 2.43l.216-13.473-2.754.216.162 13.5-.189 5.238h2.754l-.189-5.481zm16.202 5.481h2.781l-.135-5.454.081-3.51c.027-2.322-1.404-3.645-4.185-3.645-1.08.324-2.241.972-3.321 1.917h-.162l.135-8.262-2.754.216.135 13.5-.162 5.238h2.754l-.189-5.481.054-3.267c1.053-1.026 2.16-1.62 3.24-1.62 1.296 0 1.944.837 1.917 2.187l-.189 8.181zm15.455-6.102l.459-.432c.054-.324.108-.972.108-1.35 0-2.97-1.647-4.779-4.536-4.779-3.618 0-5.967 2.457-5.967 6.507 0 3.942 2.16 6.399 5.886 6.399 1.296 0 2.619-.351 3.78-.918l.324-2.187-.243-.162c-1.215.729-2.538 1.134-3.645 1.134-2.376 0-3.51-1.539-3.564-4.212h7.398zm-1.944-1.809l-5.319.135c.351-1.917 1.485-2.997 3.132-2.997 1.35 0 2.241.783 2.241 2.538l-.054.324zm9.746 5.832c-1.107 0-1.593-.432-1.566-1.782l.135-6.777h3.483l.135-1.566-.108-.189h-3.456l.054-2.673-.243-.216-2.43.918v1.971h-1.647l-.135 1.593.108.162h1.701l.027 5.265-.108 1.944c0 2.133.945 3.24 3.186 3.591.945-.081 1.782-.351 2.754-.81l.27-1.728-.27-.189c-.729.351-1.323.486-1.89.486zm-188.366 21.389c-1.647 0-3.321.567-4.86 1.62l.351 1.917.216.135c1.458-1.188 2.646-1.728 3.861-1.728 1.242 0 1.944.675 1.944 2.025l-.027 1.458-4.266.945c-1.674.378-2.619 1.296-2.619 2.997 0 2.16 1.485 3.51 3.996 3.537 1.026-.405 1.944-1.107 2.808-2.025h.189c.135 1.161.864 1.89 1.971 1.998a4.4 4.4 0 001.701-.594l.27-1.512-.243-.189c-.405.081-.621.108-.81.108-.567 0-.783-.216-.783-.918 0-.918.324-5.454.324-6.399 0-2.133-1.566-3.375-4.023-3.375zm1.485 7.02l-.081 2.079c-.891 1.026-1.755 1.647-2.7 1.647-.999 0-1.647-.621-1.647-1.728 0-.729.27-1.026.918-1.161l3.51-.837zm9.416.189l.216-13.473-2.754.216.162 13.5-.189 5.238h2.754l-.189-5.481zm6.856 0l.216-13.473-2.754.216.162 13.5-.189 5.238h2.754l-.189-5.481zm13.173-.621l.459-.432c.054-.324.108-.972.108-1.35 0-2.97-1.647-4.779-4.536-4.779-3.618 0-5.967 2.457-5.967 6.507 0 3.942 2.16 6.399 5.886 6.399 1.296 0 2.619-.351 3.78-.918l.324-2.187-.243-.162c-1.215.729-2.538 1.134-3.645 1.134-2.376 0-3.51-1.539-3.564-4.212h7.398zm-1.944-1.809l-5.319.135c.351-1.917 1.485-2.997 3.132-2.997 1.35 0 2.241.783 2.241 2.538l-.054.324zm11.555-4.563c-1.08 0-2.376.594-3.402 2.457h-.189l.027-2.484-2.619.243.162 7.047-.189 5.211h2.754l-.189-5.454.027-1.782c.945-1.863 1.89-2.619 2.997-2.619.243 0 .621.027.999.135l.297-.081v-2.619a5.26 5.26 0 00-.675-.054zm8.832-.108c-1.242.405-2.079.891-3.24 1.863h-.162l.108-8.235-2.754.216.162 13.554-.189 5.238.432.27 1.701-.702a6.698 6.698 0 002.754.621c3.726 0 6.021-2.43 6.021-6.858 0-3.726-1.647-5.967-4.833-5.967zm-1.08 10.935c-.729 0-1.512-.243-2.322-.729l-.081-3.132.054-3.24c1.08-1.134 2.025-1.62 2.97-1.62 1.755 0 2.673 1.512 2.727 4.131.027 3.159-1.323 4.59-3.348 4.59zm17.837-4.455l.459-.432c.054-.324.108-.972.108-1.35 0-2.97-1.647-4.779-4.536-4.779-3.618 0-5.967 2.457-5.967 6.507 0 3.942 2.16 6.399 5.886 6.399 1.296 0 2.619-.351 3.78-.918l.324-2.187-.243-.162c-1.215.729-2.538 1.134-3.645 1.134-2.376 0-3.51-1.539-3.564-4.212h7.398zm-1.944-1.809l-5.319.135c.351-1.917 1.485-2.997 3.132-2.997 1.35 0 2.241.783 2.241 2.538l-.054.324zm9.098-4.752c-2.862 0-4.536 1.62-4.536 3.753 0 3.915 5.589 3.402 5.589 5.697 0 .81-.702 1.593-1.917 1.593-.999 0-2.376-.513-3.456-1.458l-.297.189-.324 2.295c1.242.54 2.592.837 3.78.837 3.105 0 4.671-1.917 4.671-3.915 0-3.807-5.589-3.321-5.589-5.589 0-.783.648-1.485 1.755-1.485.837 0 1.782.297 2.754.945l.351-.081.378-2.16a8.548 8.548 0 00-3.159-.621zm10.8 10.584c-1.107 0-1.593-.432-1.566-1.782l.135-6.777h3.483l.135-1.566-.108-.189h-3.456l.054-2.673-.243-.216-2.43.918v1.971h-1.647l-.135 1.593.108.162h1.701l.027 5.265-.108 1.944c0 2.133.945 3.24 3.186 3.591.945-.081 1.782-.351 2.754-.81l.27-1.728-.27-.189c-.729.351-1.323.486-1.89.486zm13.08-4.023l.459-.432c.054-.324.108-.972.108-1.35 0-2.97-1.647-4.779-4.536-4.779-3.618 0-5.967 2.457-5.967 6.507 0 3.942 2.16 6.399 5.886 6.399 1.296 0 2.619-.351 3.78-.918l.324-2.187-.243-.162c-1.215.729-2.538 1.134-3.645 1.134-2.376 0-3.51-1.539-3.564-4.212h7.398zm-1.944-1.809l-5.319.135c.351-1.917 1.485-2.997 3.132-2.997 1.35 0 2.241.783 2.241 2.538l-.054.324zm11.128-2.781l-.351-1.836-2.538.135 3.699 12.393h2.97l4.401-12.447h-2.43l-.459 1.89-2.754 7.911h-.189l-2.349-8.046zm14.714-1.998c-3.726 0-5.805 2.403-5.805 6.669 0 3.996 1.971 6.264 5.454 6.264 3.726 0 5.805-2.403 5.805-6.669 0-3.996-1.971-6.264-5.454-6.264zm-.162 1.917c2.025 0 3.051 1.566 3.051 4.968 0 2.835-1.026 4.158-3.051 4.158-2.052 0-3.078-1.539-3.078-4.968 0-2.781 1.026-4.158 3.078-4.158zm13.451-1.917c-3.726 0-5.805 2.403-5.805 6.669 0 3.996 1.971 6.264 5.454 6.264 3.726 0 5.805-2.403 5.805-6.669 0-3.996-1.971-6.264-5.454-6.264zm-.162 1.917c2.025 0 3.051 1.566 3.051 4.968 0 2.835-1.026 4.158-3.051 4.158-2.052 0-3.078-1.539-3.078-4.968 0-2.781 1.026-4.158 3.078-4.158zm14.774-1.701c-1.08 0-2.376.594-3.402 2.457h-.189l.027-2.484-2.619.243.162 7.047-.189 5.211h2.754l-.189-5.454.027-1.782c.945-1.863 1.89-2.619 2.997-2.619.243 0 .621.027.999.135l.297-.081v-2.619a5.26 5.26 0 00-.675-.054zm8.78.027l-2.457-.054-.189 1.89.162.216 2.079-.216h4.212l-6.615 9.045.027 1.62 1.458-.054h5.184l2.781.054.216-1.89-.162-.216-2.16.216h-4.428l6.588-8.991-.054-1.647-1.188.027h-5.454zm11.043-5.805c-.972 0-1.566.621-1.566 1.566 0 .945.54 1.512 1.485 1.512.918 0 1.512-.621 1.512-1.593 0-.918-.513-1.485-1.431-1.485zm1.08 12.798l.216-7.047-2.754.243.135 7.047-.162 5.211h2.754l-.189-5.454zm5.754-12.798c-.972 0-1.566.621-1.566 1.566 0 .945.54 1.512 1.485 1.512.918 0 1.512-.621 1.512-1.593 0-.918-.513-1.485-1.431-1.485zm1.728 5.805l-.081-.054-2.565.108h-2.484l-.135 1.566.189.189h2.376l.108 5.427-.027 4.725c0 2.079-.648 3.186-2.484 4.212v.297l.999 1.215c2.916-1.404 4.05-2.997 4.05-5.832l-.135-4.86.189-6.993zm11.593 12.447h2.781l-.135-5.454.081-3.51c.027-2.322-1.404-3.645-4.185-3.645-1.08.324-2.241.972-3.321 1.917h-.189l.027-1.809-2.619.243.135 7.047-.162 5.211h2.754l-.162-5.454.027-3.294c1.053-1.026 2.16-1.62 3.24-1.62 1.296 0 1.944.837 1.917 2.187l-.189 8.181zm13.465-5.481l.216-13.473-2.754.216.135 13.5-.162 5.238h2.754l-.189-5.481zm7.641-6.966h-2.997l-.675 1.188-3.564 4.536v.189c1.431 2.295 3.024 4.509 4.698 6.669l.324.108c.837-.108 1.674-.189 2.511-.405v-.324c-1.647-2.025-3.348-4.158-4.86-6.291l4.563-5.67zm10.99 6.345l.459-.432c.054-.324.108-.972.108-1.35 0-2.97-1.647-4.779-4.536-4.779-3.618 0-5.967 2.457-5.967 6.507 0 3.942 2.16 6.399 5.886 6.399 1.296 0 2.619-.351 3.78-.918l.324-2.187-.243-.162c-1.215.729-2.538 1.134-3.645 1.134-2.376 0-3.51-1.539-3.564-4.212h7.398zm-1.944-1.809l-5.319.135c.351-1.917 1.485-2.997 3.132-2.997 1.35 0 2.241.783 2.241 2.538l-.054.324zm11.555-4.563c-1.08 0-2.376.594-3.402 2.457h-.189l.027-2.484-2.619.243.162 7.047-.189 5.211h2.754l-.189-5.454.027-1.782c.945-1.863 1.89-2.619 2.997-2.619.243 0 .621.027.999.135l.297-.081v-2.619a5.26 5.26 0 00-.675-.054zm5.35 6.993l.216-13.473-2.754.216.135 13.5-.162 5.238h2.754l-.189-5.481zm7.641-6.966h-2.997l-.675 1.188-3.564 4.536v.189c1.431 2.295 3.024 4.509 4.698 6.669l.324.108c.837-.108 1.674-.189 2.511-.405v-.324c-1.647-2.025-3.348-4.158-4.86-6.291l4.563-5.67zm3.609 9.531c-.972 0-1.566.621-1.566 1.566 0 .945.54 1.512 1.485 1.512.918 0 1.512-.621 1.512-1.593 0-.918-.513-1.485-1.431-1.485zm-233.748 34.916l-1.647-17.334h-3.159l-.81 2.511-3.51 9.288h-.216l-3.321-9.207-.81-2.592h-3.186l-1.809 17.334h2.349l.432-5.508.81-7.587h.243l4.131 11.178h2.214l4.455-11.178h.189l.81 7.83.351 5.265h2.484zm4.887-18.252c-.972 0-1.566.621-1.566 1.566 0 .945.54 1.512 1.485 1.512.918 0 1.512-.621 1.512-1.593 0-.918-.513-1.485-1.431-1.485zm1.08 12.798l.216-7.047-2.754.243.135 7.047-.162 5.211h2.754l-.189-5.454zm7.806-7.209c-2.862 0-4.536 1.62-4.536 3.753 0 3.915 5.589 3.402 5.589 5.697 0 .81-.702 1.593-1.917 1.593-.999 0-2.376-.513-3.456-1.458l-.297.189-.324 2.295c1.242.54 2.592.837 3.78.837 3.105 0 4.671-1.917 4.671-3.915 0-3.807-5.589-3.321-5.589-5.589 0-.783.648-1.485 1.755-1.485.837 0 1.782.297 2.754.945l.351-.081.378-2.16a8.548 8.548 0 00-3.159-.621zm10.152 0c-2.862 0-4.536 1.62-4.536 3.753 0 3.915 5.589 3.402 5.589 5.697 0 .81-.702 1.593-1.917 1.593-.999 0-2.376-.513-3.456-1.458l-.297.189-.324 2.295c1.242.54 2.592.837 3.78.837 3.105 0 4.671-1.917 4.671-3.915 0-3.807-5.589-3.321-5.589-5.589 0-.783.648-1.485 1.755-1.485.837 0 1.782.297 2.754.945l.351-.081.378-2.16a8.548 8.548 0 00-3.159-.621zm11.177-.027c-3.564 0-5.697 2.511-5.697 6.588 0 3.942 1.998 6.345 5.373 6.345 1.107 0 2.295-.243 3.294-.621l.27-2.214-.243-.162c-.918.486-1.971.81-2.889.81-2.052 0-3.213-1.62-3.213-4.374 0-2.619 1.134-4.104 3.051-4.104.918 0 1.809.351 2.646.837l.27-.108.459-2.295c-.891-.432-2.16-.702-3.321-.702zm13.253 12.69h2.781l-.135-5.454.081-3.51c.027-2.322-1.404-3.645-4.185-3.645-1.08.324-2.241.972-3.321 1.917h-.162l.135-8.262-2.754.216.135 13.5-.162 5.238h2.754l-.189-5.481.054-3.267c1.053-1.026 2.16-1.62 3.24-1.62 1.296 0 1.944.837 1.917 2.187l-.189 8.181zm7.922-18.252c-.972 0-1.566.621-1.566 1.566 0 .945.54 1.512 1.485 1.512.918 0 1.512-.621 1.512-1.593 0-.918-.513-1.485-1.431-1.485zm1.08 12.798l.216-7.047-2.754.243.135 7.047-.162 5.211h2.754l-.189-5.454zm13.071-.648l.459-.432c.054-.324.108-.972.108-1.35 0-2.97-1.647-4.779-4.536-4.779-3.618 0-5.967 2.457-5.967 6.507 0 3.942 2.16 6.399 5.886 6.399 1.296 0 2.619-.351 3.78-.918l.324-2.187-.243-.162c-1.215.729-2.538 1.134-3.645 1.134-2.376 0-3.51-1.539-3.564-4.212h7.398zm-1.944-1.809l-5.319.135c.351-1.917 1.485-2.997 3.132-2.997 1.35 0 2.241.783 2.241 2.538l-.054.324zm12.932 7.911h2.781l-.135-5.454.081-3.51c.027-2.322-1.404-3.645-4.185-3.645-1.08.324-2.241.972-3.321 1.917h-.189l.027-1.809-2.619.243.135 7.047-.162 5.211h2.754l-.162-5.454.027-3.294c1.053-1.026 2.16-1.62 3.24-1.62 1.296 0 1.944.837 1.917 2.187l-.189 8.181zm13.465-5.481l.216-13.473-2.754.216.135 13.5-.162 5.238h2.754l-.189-5.481zm7.641-6.966h-2.997l-.675 1.188-3.564 4.536v.189c1.431 2.295 3.024 4.509 4.698 6.669l.324.108c.837-.108 1.674-.189 2.511-.405v-.324c-1.647-2.025-3.348-4.158-4.86-6.291l4.563-5.67zm6.375-.243c-1.647 0-3.321.567-4.86 1.62l.351 1.917.216.135c1.458-1.188 2.646-1.728 3.861-1.728 1.242 0 1.944.675 1.944 2.025l-.027 1.458-4.266.945c-1.674.378-2.619 1.296-2.619 2.997 0 2.16 1.485 3.51 3.996 3.537 1.026-.405 1.944-1.107 2.808-2.025h.189c.135 1.161.864 1.89 1.971 1.998a4.4 4.4 0 001.701-.594l.27-1.512-.243-.189c-.405.081-.621.108-.81.108-.567 0-.783-.216-.783-.918 0-.918.324-5.454.324-6.399 0-2.133-1.566-3.375-4.023-3.375zm1.485 7.02l-.081 2.079c-.891 1.026-1.755 1.647-2.7 1.647-.999 0-1.647-.621-1.647-1.728 0-.729.27-1.026.918-1.161l3.51-.837zm14.303 5.67h2.781l-.135-5.454.081-3.51c.027-2.322-1.404-3.645-4.185-3.645-1.08.324-2.241.972-3.321 1.917h-.189l.027-1.809-2.619.243.135 7.047-.162 5.211h2.754l-.162-5.454.027-3.294c1.053-1.026 2.16-1.62 3.24-1.62 1.296 0 1.944.837 1.917 2.187l-.189 8.181zm18.486 0h2.781l-.135-5.454.081-3.51c.027-2.322-1.404-3.645-4.185-3.645-1.08.324-2.241.972-3.321 1.917h-.162l.135-8.262-2.754.216.135 13.5-.162 5.238h2.754l-.189-5.481.054-3.267c1.053-1.026 2.16-1.62 3.24-1.62 1.296 0 1.944.837 1.917 2.187l-.189 8.181zm7.922-18.252c-.972 0-1.566.621-1.566 1.566 0 .945.54 1.512 1.485 1.512.918 0 1.512-.621 1.512-1.593 0-.918-.513-1.485-1.431-1.485zm1.08 12.798l.216-7.047-2.754.243.135 7.047-.162 5.211h2.754l-.189-5.454zm5.754-12.798c-.972 0-1.566.621-1.566 1.566 0 .945.54 1.512 1.485 1.512.918 0 1.512-.621 1.512-1.593 0-.918-.513-1.485-1.431-1.485zm1.728 5.805l-.081-.054-2.565.108h-2.484l-.135 1.566.189.189h2.376l.108 5.427-.027 4.725c0 2.079-.648 3.186-2.484 4.212v.297l.999 1.215c2.916-1.404 4.05-2.997 4.05-5.832l-.135-4.86.189-6.993zm16.674 5.508c2.16-1.134 3.429-3.051 3.429-5.373 0-3.267-1.998-5.049-5.481-5.049l-5.886.027.189 12.123-.189 5.211h2.835l-.135-5.454v-.729h2.943c1.134 2.106 2.376 4.185 3.618 6.21l.324.216c.918-.081 1.809-.27 2.673-.567l.027-.324c-1.566-2.079-3.024-4.158-4.347-6.291zm-5.184-1.512l.081-6.642 2.295-.081c2.187.081 3.321 1.026 3.321 3.078 0 1.971-.945 3.186-2.727 3.726l-2.97-.081zm21.621-4.05l-2.619.243v8.775c-.945.891-1.971 1.377-2.943 1.377-1.269 0-1.89-.81-1.863-2.133l.135-8.262-2.727.243.108 5.4-.054 3.375c-.027 2.322 1.431 3.645 4.158 3.645 1.08-.297 2.16-.918 3.24-1.89h.216c.216 1.08.864 1.809 1.998 1.917a4.248 4.248 0 001.701-.594l.27-1.512-.243-.189a3.903 3.903 0 01-.837.108c-.54 0-.729-.216-.729-.891l.189-9.612zm10.196-.081c-1.242.405-2.079.891-3.24 1.863h-.162l.108-8.235-2.754.216.162 13.554-.189 5.238.432.27 1.701-.702a6.698 6.698 0 002.754.621c3.726 0 6.021-2.43 6.021-6.858 0-3.726-1.647-5.967-4.833-5.967zm-1.08 10.935c-.729 0-1.512-.243-2.322-.729l-.081-3.132.054-3.24c1.08-1.134 2.025-1.62 2.97-1.62 1.755 0 2.673 1.512 2.727 4.131.027 3.159-1.323 4.59-3.348 4.59zm17.837-4.455l.459-.432c.054-.324.108-.972.108-1.35 0-2.97-1.647-4.779-4.536-4.779-3.618 0-5.967 2.457-5.967 6.507 0 3.942 2.16 6.399 5.886 6.399 1.296 0 2.619-.351 3.78-.918l.324-2.187-.243-.162c-1.215.729-2.538 1.134-3.645 1.134-2.376 0-3.51-1.539-3.564-4.212h7.398zm-1.944-1.809l-5.319.135c.351-1.917 1.485-2.997 3.132-2.997 1.35 0 2.241.783 2.241 2.538l-.054.324zm12.932 7.911h2.781l-.135-5.454.081-3.51c.027-2.322-1.404-3.645-4.185-3.645-1.08.324-2.241.972-3.321 1.917h-.189l.027-1.809-2.619.243.135 7.047-.162 5.211h2.754l-.162-5.454.027-3.294c1.053-1.026 2.16-1.62 3.24-1.62 1.296 0 1.944.837 1.917 2.187l-.189 8.181zm10.193-12.663c-2.862 0-4.536 1.62-4.536 3.753 0 3.915 5.589 3.402 5.589 5.697 0 .81-.702 1.593-1.917 1.593-.999 0-2.376-.513-3.456-1.458l-.297.189-.324 2.295c1.242.54 2.592.837 3.78.837 3.105 0 4.671-1.917 4.671-3.915 0-3.807-5.589-3.321-5.589-5.589 0-.783.648-1.485 1.755-1.485.837 0 1.782.297 2.754.945l.351-.081.378-2.16a8.548 8.548 0 00-3.159-.621zM198.23 854.925l-.351-1.836-2.538.135 3.699 12.393h2.97l4.401-12.447h-2.43l-.459 1.89-2.754 7.911h-.189l-2.349-8.046zm16.433-1.782c-1.08 0-2.376.594-3.402 2.457h-.189l.027-2.484-2.619.243.162 7.047-.189 5.211h2.754l-.189-5.454.027-1.782c.945-1.863 1.89-2.619 2.997-2.619.243 0 .621.027.999.135l.297-.081v-2.619a5.26 5.26 0 00-.675-.054zm6.973-.216c-1.647 0-3.321.567-4.86 1.62l.351 1.917.216.135c1.458-1.188 2.646-1.728 3.861-1.728 1.242 0 1.944.675 1.944 2.025l-.027 1.458-4.266.945c-1.674.378-2.619 1.296-2.619 2.997 0 2.16 1.485 3.51 3.996 3.537 1.026-.405 1.944-1.107 2.808-2.025h.189c.135 1.161.864 1.89 1.971 1.998a4.4 4.4 0 001.701-.594l.27-1.512-.243-.189c-.405.081-.621.108-.81.108-.567 0-.783-.216-.783-.918 0-.918.324-5.454.324-6.399 0-2.133-1.566-3.375-4.023-3.375zm1.485 7.02l-.081 2.079c-.891 1.026-1.755 1.647-2.7 1.647-.999 0-1.647-.621-1.647-1.728 0-.729.27-1.026.918-1.161l3.51-.837zm18.164-7.263l-.243-.162a28.66 28.66 0 01-3.996.945c-.702-.297-1.512-.459-2.484-.459-3.051 0-5.049 1.62-5.049 4.401 0 1.566.648 2.781 1.863 3.456V861a5.95 5.95 0 00-1.728 1.647c0 1.269.837 1.89 1.971 2.268v.135c-.918.594-1.755 1.242-2.322 2.187 0 2.079 1.647 3.618 4.779 3.618 3.402 0 5.967-1.836 5.967-4.239 0-4.131-7.938-2.43-7.938-4.347 0-.297.135-.54.567-.891a7.924 7.924 0 001.647.162c3.159 0 5.103-1.701 5.103-4.347 0-.783-.162-1.485-.513-2.079l.054-.108c.81-.135 1.593-.27 2.322-.513v-1.809zm-6.858 7.101c-1.62 0-2.484-.918-2.484-2.511 0-1.62.918-2.484 2.592-2.484 1.647 0 2.457.864 2.457 2.403 0 1.647-.918 2.592-2.565 2.592zm3.24 7.344c0 1.161-1.377 1.944-3.267 1.944-1.836 0-2.754-.729-2.754-1.674 0-.756.621-1.404 1.728-2.106 2.106.324 4.293.405 4.293 1.836zm14.398-7.614l.459-.432c.054-.324.108-.972.108-1.35 0-2.97-1.647-4.779-4.536-4.779-3.618 0-5.967 2.457-5.967 6.507 0 3.942 2.16 6.399 5.886 6.399 1.296 0 2.619-.351 3.78-.918l.324-2.187-.243-.162c-1.215.729-2.538 1.134-3.645 1.134-2.376 0-3.51-1.539-3.564-4.212h7.398zm-1.944-1.809l-5.319.135c.351-1.917 1.485-2.997 3.132-2.997 1.35 0 2.241.783 2.241 2.538l-.054.324zm12.932 7.911h2.781l-.135-5.454.081-3.51c.027-2.322-1.404-3.645-4.185-3.645-1.08.324-2.241.972-3.321 1.917h-.189l.027-1.809-2.619.243.135 7.047-.162 5.211h2.754l-.162-5.454.027-3.294c1.053-1.026 2.16-1.62 3.24-1.62 1.296 0 1.944.837 1.917 2.187l-.189 8.181zm6.521-17.793l-.513 1.539.189.27c3.591.216 5.157 1.161 5.157 2.781 0 .945-.567 1.755-1.593 2.349l-2.511 1.404-.135.27.216 3.159.216.216 1.944-.243-.162-2.484.054-.108 2.106-1.35c1.512-.918 2.349-2.214 2.349-3.645 0-2.511-2.538-4.05-7.02-4.293l-.297.135zm2.079 14.877c-.945 0-1.539.621-1.539 1.566 0 .945.513 1.512 1.458 1.512s1.539-.621 1.539-1.593c0-.918-.54-1.485-1.458-1.485zm18.174-14.634c-5.103 0-7.965 3.24-7.965 9.045 0 5.562 2.673 8.748 7.452 8.748 5.076 0 7.965-3.348 7.965-9.261 0-5.454-2.673-8.532-7.452-8.532zm-.243 2.295c3.267 0 4.806 2.052 4.806 6.75 0 4.482-1.593 6.507-4.86 6.507-3.267 0-4.806-2.106-4.806-6.858 0-4.401 1.566-6.399 4.86-6.399zm16.299-3.753c-3.105 0-4.914 1.674-4.887 4.752l.027 1.863h-1.836l-.135 1.593.108.162h1.863l.054 5.4-.162 5.238h2.754l-.189-5.481.081-5.157h3.132l.162-1.566-.081-.189h-3.186l.027-2.322c.027-1.566.756-2.322 2.025-2.322.621 0 1.215.135 2.079.513l.189-.162.162-2.079a10.433 10.433 0 00-2.187-.243zm8.387 8.235l-.27-1.755-2.511.135 3.375 12.393h2.7l2.673-8.964h.216l2.295 8.964h2.619l3.996-12.447h-2.349l-.432 1.809-2.295 7.776h-.162l-1.998-7.911-.297-1.674h-2.646l-.459 1.809-2.295 7.776h-.189l-1.971-7.911zm21.193-1.917c-1.647 0-3.321.567-4.86 1.62l.351 1.917.216.135c1.458-1.188 2.646-1.728 3.861-1.728 1.242 0 1.944.675 1.944 2.025l-.027 1.458-4.266.945c-1.674.378-2.619 1.296-2.619 2.997 0 2.16 1.485 3.51 3.996 3.537 1.026-.405 1.944-1.107 2.808-2.025h.189c.135 1.161.864 1.89 1.971 1.998a4.4 4.4 0 001.701-.594l.27-1.512-.243-.189c-.405.081-.621.108-.81.108-.567 0-.783-.216-.783-.918 0-.918.324-5.454.324-6.399 0-2.133-1.566-3.375-4.023-3.375zm1.485 7.02l-.081 2.079c-.891 1.026-1.755 1.647-2.7 1.647-.999 0-1.647-.621-1.647-1.728 0-.729.27-1.026.918-1.161l3.51-.837zm11.495-7.02c-3.564 0-5.697 2.511-5.697 6.588 0 3.942 1.998 6.345 5.373 6.345 1.107 0 2.295-.243 3.294-.621l.27-2.214-.243-.162c-.918.486-1.971.81-2.889.81-2.052 0-3.213-1.62-3.213-4.374 0-2.619 1.134-4.104 3.051-4.104.918 0 1.809.351 2.646.837l.27-.108.459-2.295c-.891-.432-2.16-.702-3.321-.702zm13.253 12.69h2.781l-.135-5.454.081-3.51c.027-2.322-1.404-3.645-4.185-3.645-1.08.324-2.241.972-3.321 1.917h-.162l.135-8.262-2.754.216.135 13.5-.162 5.238h2.754l-.189-5.481.054-3.267c1.053-1.026 2.16-1.62 3.24-1.62 1.296 0 1.944.837 1.917 2.187l-.189 8.181zm10.838-2.079c-1.107 0-1.593-.432-1.566-1.782l.135-6.777h3.483l.135-1.566-.108-.189h-3.456l.054-2.673-.243-.216-2.43.918v1.971h-1.647l-.135 1.593.108.162h1.701l.027 5.265-.108 1.944c0 2.133.945 3.24 3.186 3.591.945-.081 1.782-.351 2.754-.81l.27-1.728-.27-.189c-.729.351-1.323.486-1.89.486zm4.961-.837c-.972 0-1.566.621-1.566 1.566 0 .945.54 1.512 1.485 1.512.918 0 1.512-.621 1.512-1.593 0-.918-.513-1.485-1.431-1.485zm6.17 0c-.972 0-1.566.621-1.566 1.566 0 .945.54 1.512 1.485 1.512.918 0 1.512-.621 1.512-1.593 0-.918-.513-1.485-1.431-1.485zm6.17 0c-.972 0-1.566.621-1.566 1.566 0 .945.54 1.512 1.485 1.512.918 0 1.512-.621 1.512-1.593 0-.918-.513-1.485-1.431-1.485zm22.171 2.916l-5.589-17.334h-3.267l-6.183 17.334h2.781l.432-2.079.81-2.268 3.321-.081 3.672.081.756 2.403.405 1.944h2.862zm-4.725-6.615l-2.781.054-2.727-.054 2.835-7.992h.189l2.484 7.992zm14.74 6.615h2.781l-.135-5.454.081-3.51c.027-2.322-1.404-3.645-4.185-3.645-1.08.324-2.241.972-3.321 1.917h-.189l.027-1.809-2.619.243.135 7.047-.162 5.211h2.754l-.162-5.454.027-3.294c1.053-1.026 2.16-1.62 3.24-1.62 1.296 0 1.944.837 1.917 2.187l-.189 8.181zm10.841-2.079c-1.107 0-1.593-.432-1.566-1.782l.135-6.777h3.483l.135-1.566-.108-.189h-3.456l.054-2.673-.243-.216-2.43.918v1.971h-1.647l-.135 1.593.108.162h1.701l.027 5.265-.108 1.944c0 2.133.945 3.24 3.186 3.591.945-.081 1.782-.351 2.754-.81l.27-1.728-.27-.189c-.729.351-1.323.486-1.89.486zm8.95-10.611c-3.726 0-5.805 2.403-5.805 6.669 0 3.996 1.971 6.264 5.454 6.264 3.726 0 5.805-2.403 5.805-6.669 0-3.996-1.971-6.264-5.454-6.264zm-.162 1.917c2.025 0 3.051 1.566 3.051 4.968 0 2.835-1.026 4.158-3.051 4.158-2.052 0-3.078-1.539-3.078-4.968 0-2.781 1.026-4.158 3.078-4.158zm13.451-1.917c-3.726 0-5.805 2.403-5.805 6.669 0 3.996 1.971 6.264 5.454 6.264 3.726 0 5.805-2.403 5.805-6.669 0-3.996-1.971-6.264-5.454-6.264zm-.162 1.917c2.025 0 3.051 1.566 3.051 4.968 0 2.835-1.026 4.158-3.051 4.158-2.052 0-3.078-1.539-3.078-4.968 0-2.781 1.026-4.158 3.078-4.158zm16.151 10.773h2.781l-.135-5.454.081-3.51c.027-2.322-1.404-3.645-4.185-3.645-1.08.324-2.241.972-3.321 1.917h-.189l.027-1.809-2.619.243.135 7.047-.162 5.211h2.754l-.162-5.454.027-3.294c1.053-1.026 2.16-1.62 3.24-1.62 1.296 0 1.944.837 1.917 2.187l-.189 8.181zm-272.86 21.308l-.351-1.836-2.538.135 3.699 12.393h2.97l4.401-12.447h-2.43l-.459 1.89-2.754 7.911h-.189l-2.349-8.046zm14.283-1.998c-1.647 0-3.321.567-4.86 1.62l.351 1.917.216.135c1.458-1.188 2.646-1.728 3.861-1.728 1.242 0 1.944.675 1.944 2.025l-.027 1.458-4.266.945c-1.674.378-2.619 1.296-2.619 2.997 0 2.16 1.485 3.51 3.996 3.537 1.026-.405 1.944-1.107 2.808-2.025h.189c.135 1.161.864 1.89 1.971 1.998a4.4 4.4 0 001.701-.594l.27-1.512-.243-.189c-.405.081-.621.108-.81.108-.567 0-.783-.216-.783-.918 0-.918.324-5.454.324-6.399 0-2.133-1.566-3.375-4.023-3.375zm1.485 7.02l-.081 2.079c-.891 1.026-1.755 1.647-2.7 1.647-.999 0-1.647-.621-1.647-1.728 0-.729.27-1.026.918-1.161l3.51-.837zm14.303 5.67h2.781l-.135-5.454.081-3.51c.027-2.322-1.404-3.645-4.185-3.645-1.08.324-2.241.972-3.321 1.917h-.189l.027-1.809-2.619.243.135 7.047-.162 5.211h2.754l-.162-5.454.027-3.294c1.053-1.026 2.16-1.62 3.24-1.62 1.296 0 1.944.837 1.917 2.187l-.189 8.181zm11.196-17.334h-.027l.189 12.123-.189 5.211h.027c1.593.081 4.644.162 5.805.162 5.454 0 8.478-3.348 8.478-9.45 0-5.265-2.754-8.154-7.722-8.154l-6.561.108zm6.291 15.282c-.567 0-2.322-.081-3.537-.189l-.081-3.213.135-9.612c1.026-.054 2.97-.108 3.537-.108 3.375 0 5.049 2.025 5.049 6.507 0 4.509-1.863 6.615-5.103 6.615zm12.424-8.721l-.405-1.755-2.673.135 4.563 12.393c-1.161 1.782-2.673 2.673-5.211 3.159l-.081.297a6.359 6.359 0 001.269 1.701h.243c3.429-.918 5.238-2.538 6.399-5.805l4.239-11.799h-2.457l-.405 1.944-2.646 7.587h-.216l-2.619-7.857zm14.821-1.917c-3.564 0-5.697 2.511-5.697 6.588 0 3.942 1.998 6.345 5.373 6.345 1.107 0 2.295-.243 3.294-.621l.27-2.214-.243-.162c-.918.486-1.971.81-2.889.81-2.052 0-3.213-1.62-3.213-4.374 0-2.619 1.134-4.104 3.051-4.104.918 0 1.809.351 2.646.837l.27-.108.459-2.295c-.891-.432-2.16-.702-3.321-.702zm8.23 7.209l.216-13.473-2.754.216.135 13.5-.162 5.238h2.754l-.189-5.481zm7.641-6.966h-2.997l-.675 1.188-3.564 4.536v.189c1.431 2.295 3.024 4.509 4.698 6.669l.324.108c.837-.108 1.674-.189 2.511-.405v-.324c-1.647-2.025-3.348-4.158-4.86-6.291l4.563-5.67zm16.601-.054l-2.619.243v8.775c-.945.891-1.971 1.377-2.943 1.377-1.269 0-1.89-.81-1.863-2.133l.135-8.262-2.727.243.108 5.4-.054 3.375c-.027 2.322 1.431 3.645 4.158 3.645 1.08-.297 2.16-.918 3.24-1.89h.216c.216 1.08.864 1.809 1.998 1.917a4.248 4.248 0 001.701-.594l.27-1.512-.243-.189a3.903 3.903 0 01-.837.108c-.54 0-.729-.216-.729-.891l.189-9.612zm5.499-5.751c-.972 0-1.566.621-1.566 1.566 0 .945.54 1.512 1.485 1.512.918 0 1.512-.621 1.512-1.593 0-.918-.513-1.485-1.431-1.485zm1.08 12.798l.216-7.047-2.754.243.135 7.047-.162 5.211h2.754l-.189-5.454zm8.454 3.375c-1.107 0-1.593-.432-1.566-1.782l.135-6.777h3.483l.135-1.566-.108-.189h-3.456l.054-2.673-.243-.216-2.43.918v1.971h-1.647l-.135 1.593.108.162h1.701l.027 5.265-.108 1.944c0 2.133.945 3.24 3.186 3.591.945-.081 1.782-.351 2.754-.81l.27-1.728-.27-.189c-.729.351-1.323.486-1.89.486zm22.175 2.079l-5.589-17.334h-3.267l-6.183 17.334h2.781l.432-2.079.81-2.268 3.321-.081 3.672.081.756 2.403.405 1.944h2.862zm-4.725-6.615l-2.781.054-2.727-.054 2.835-7.992h.189l2.484 7.992zm14.74 6.615h2.781l-.135-5.454.081-3.51c.027-2.322-1.404-3.645-4.185-3.645-1.08.324-2.241.972-3.321 1.917h-.189l.027-1.809-2.619.243.135 7.047-.162 5.211h2.754l-.162-5.454.027-3.294c1.053-1.026 2.16-1.62 3.24-1.62 1.296 0 1.944.837 1.917 2.187l-.189 8.181zm10.841-2.079c-1.107 0-1.593-.432-1.566-1.782l.135-6.777h3.483l.135-1.566-.108-.189h-3.456l.054-2.673-.243-.216-2.43.918v1.971h-1.647l-.135 1.593.108.162h1.701l.027 5.265-.108 1.944c0 2.133.945 3.24 3.186 3.591.945-.081 1.782-.351 2.754-.81l.27-1.728-.27-.189c-.729.351-1.323.486-1.89.486zm5.782-8.694l-.27-1.755-2.511.135 3.375 12.393h2.7l2.673-8.964h.216l2.295 8.964h2.619l3.996-12.447h-2.349l-.432 1.809-2.295 7.776h-.162l-1.998-7.911-.297-1.674h-2.646l-.459 1.809-2.295 7.776h-.189l-1.971-7.911zm25.756 4.671l.459-.432c.054-.324.108-.972.108-1.35 0-2.97-1.647-4.779-4.536-4.779-3.618 0-5.967 2.457-5.967 6.507 0 3.942 2.16 6.399 5.886 6.399 1.296 0 2.619-.351 3.78-.918l.324-2.187-.243-.162c-1.215.729-2.538 1.134-3.645 1.134-2.376 0-3.51-1.539-3.564-4.212h7.398zm-1.944-1.809l-5.319.135c.351-1.917 1.485-2.997 3.132-2.997 1.35 0 2.241.783 2.241 2.538l-.054.324zm11.555-4.563c-1.08 0-2.376.594-3.402 2.457h-.189l.027-2.484-2.619.243.162 7.047-.189 5.211h2.754l-.189-5.454.027-1.782c.945-1.863 1.89-2.619 2.997-2.619.243 0 .621.027.999.135l.297-.081v-2.619a5.26 5.26 0 00-.675-.054zm8.803-.108c-1.242.378-2.079.864-3.24 1.863h-.189l.027-1.782-2.646.243.162 7.047-.162 10.206h2.727l-.081-4.968c.729.135 1.431.216 2.106.216 3.861 0 6.129-2.43 6.129-6.831 0-3.753-1.647-5.994-4.833-5.994zm-1.08 10.935c-.756 0-1.539-.189-2.349-.594l-.054-3.213.027-3.294c1.107-1.134 2.052-1.62 2.997-1.62 1.728 0 2.673 1.512 2.7 4.131.054 3.159-1.296 4.59-3.321 4.59zm17.813-4.455l.459-.432c.054-.324.108-.972.108-1.35 0-2.97-1.647-4.779-4.536-4.779-3.618 0-5.967 2.457-5.967 6.507 0 3.942 2.16 6.399 5.886 6.399 1.296 0 2.619-.351 3.78-.918l.324-2.187-.243-.162c-1.215.729-2.538 1.134-3.645 1.134-2.376 0-3.51-1.539-3.564-4.212h7.398zm-1.944-1.809l-5.319.135c.351-1.917 1.485-2.997 3.132-2.997 1.35 0 2.241.783 2.241 2.538l-.054.324zm12.932 7.911h2.781l-.135-5.454.081-3.51c.027-2.322-1.404-3.645-4.185-3.645-1.08.324-2.241.972-3.321 1.917h-.189l.027-1.809-2.619.243.135 7.047-.162 5.211h2.754l-.162-5.454.027-3.294c1.053-1.026 2.16-1.62 3.24-1.62 1.296 0 1.944.837 1.917 2.187l-.189 8.181zm-240.717 19.337c-2.862 0-4.536 1.62-4.536 3.753 0 3.915 5.589 3.402 5.589 5.697 0 .81-.702 1.593-1.917 1.593-.999 0-2.376-.513-3.456-1.458l-.297.189-.324 2.295c1.242.54 2.592.837 3.78.837 3.105 0 4.671-1.917 4.671-3.915 0-3.807-5.589-3.321-5.589-5.589 0-.783.648-1.485 1.755-1.485.837 0 1.782.297 2.754.945l.351-.081.378-2.16a8.548 8.548 0 00-3.159-.621zm11.178-.027c-3.564 0-5.697 2.511-5.697 6.588 0 3.942 1.998 6.345 5.373 6.345 1.107 0 2.295-.243 3.294-.621l.27-2.214-.243-.162c-.918.486-1.971.81-2.889.81-2.052 0-3.213-1.62-3.213-4.374 0-2.619 1.134-4.104 3.051-4.104.918 0 1.809.351 2.646.837l.27-.108.459-2.295c-.891-.432-2.16-.702-3.321-.702zm13.252 12.69h2.781l-.135-5.454.081-3.51c.027-2.322-1.404-3.645-4.185-3.645-1.08.324-2.241.972-3.321 1.917h-.162l.135-8.262-2.754.216.135 13.5-.162 5.238h2.754l-.189-5.481.054-3.267c1.053-1.026 2.16-1.62 3.24-1.62 1.296 0 1.944.837 1.917 2.187l-.189 8.181zm7.923-18.252c-.972 0-1.566.621-1.566 1.566 0 .945.54 1.512 1.485 1.512.918 0 1.512-.621 1.512-1.593 0-.918-.513-1.485-1.431-1.485zm1.08 12.798l.216-7.047-2.754.243.135 7.047-.162 5.211h2.754l-.189-5.454zm6.753-.027l.216-13.473-2.754.216.162 13.5-.189 5.238h2.754l-.189-5.481zm13.902 0l.216-13.473-2.754.216.054 6.291a11.38 11.38 0 00-2.106-.216c-3.807 0-6.129 2.322-6.129 6.48 0 3.996 1.971 6.345 5.589 6.345 1.08-.486 1.782-.999 2.808-1.863h.216c.189 1.053.864 1.782 1.998 1.89a4.375 4.375 0 001.728-.594l.243-1.512-.243-.189a3.903 3.903 0 01-.837.108c-.513 0-.675-.216-.702-.891l-.081-2.592zm-4.86-5.292c.783 0 1.539.216 2.403.621l.081 4.914-.054 1.755c-.972 1.08-1.809 1.404-2.646 1.404-1.89 0-3.024-1.539-3.051-4.428-.054-2.889 1.242-4.266 3.267-4.266zm18.159 4.671l.459-.432c.054-.324.108-.972.108-1.35 0-2.97-1.647-4.779-4.536-4.779-3.618 0-5.967 2.457-5.967 6.507 0 3.942 2.16 6.399 5.886 6.399 1.296 0 2.619-.351 3.78-.918l.324-2.187-.243-.162c-1.215.729-2.538 1.134-3.645 1.134-2.376 0-3.51-1.539-3.564-4.212h7.398zm-1.944-1.809l-5.319.135c.351-1.917 1.485-2.997 3.132-2.997 1.35 0 2.241.783 2.241 2.538l-.054.324zm11.555-4.563c-1.08 0-2.376.594-3.402 2.457h-.189l.027-2.484-2.619.243.162 7.047-.189 5.211h2.754l-.189-5.454.027-1.782c.945-1.863 1.89-2.619 2.997-2.619.243 0 .621.027.999.135l.297-.081v-2.619a5.26 5.26 0 00-.675-.054zm7.234 10.395c-1.107 0-1.593-.432-1.566-1.782l.135-6.777h3.483l.135-1.566-.108-.189h-3.456l.054-2.673-.243-.216-2.43.918v1.971h-1.647l-.135 1.593.108.162h1.701l.027 5.265-.108 1.944c0 2.133.945 3.24 3.186 3.591.945-.081 1.782-.351 2.754-.81l.27-1.728-.27-.189c-.729.351-1.323.486-1.89.486zm13.644-10.611c-3.726 0-5.805 2.403-5.805 6.669 0 3.996 1.971 6.264 5.454 6.264 3.726 0 5.805-2.403 5.805-6.669 0-3.996-1.971-6.264-5.454-6.264zm-.162 1.917c2.025 0 3.051 1.566 3.051 4.968 0 2.835-1.026 4.158-3.051 4.158-2.052 0-3.078-1.539-3.078-4.968 0-2.781 1.026-4.158 3.078-4.158zm13.451-1.917c-3.726 0-5.805 2.403-5.805 6.669 0 3.996 1.971 6.264 5.454 6.264 3.726 0 5.805-2.403 5.805-6.669 0-3.996-1.971-6.264-5.454-6.264zm-.162 1.917c2.025 0 3.051 1.566 3.051 4.968 0 2.835-1.026 4.158-3.051 4.158-2.052 0-3.078-1.539-3.078-4.968 0-2.781 1.026-4.158 3.078-4.158zm11.264 5.292l.216-13.473-2.754.216.135 13.5-.162 5.238h2.754l-.189-5.481zm7.641-6.966h-2.997l-.675 1.188-3.564 4.536v.189c1.431 2.295 3.024 4.509 4.698 6.669l.324.108c.837-.108 1.674-.189 2.511-.405v-.324c-1.647-2.025-3.348-4.158-4.86-6.291l4.563-5.67zm14.305 12.447h2.781l-.135-5.454.081-3.51c.027-2.322-1.404-3.645-4.185-3.645-1.08.324-2.241.972-3.321 1.917h-.189l.027-1.809-2.619.243.135 7.047-.162 5.211h2.754l-.162-5.454.027-3.294c1.053-1.026 2.16-1.62 3.24-1.62 1.296 0 1.944.837 1.917 2.187l-.189 8.181zm7.926-18.252c-.972 0-1.566.621-1.566 1.566 0 .945.54 1.512 1.485 1.512.918 0 1.512-.621 1.512-1.593 0-.918-.513-1.485-1.431-1.485zm1.08 12.798l.216-7.047-2.754.243.135 7.047-.162 5.211h2.754l-.189-5.454zm13.071-.648l.459-.432c.054-.324.108-.972.108-1.35 0-2.97-1.647-4.779-4.536-4.779-3.618 0-5.967 2.457-5.967 6.507 0 3.942 2.16 6.399 5.886 6.399 1.296 0 2.619-.351 3.78-.918l.324-2.187-.243-.162c-1.215.729-2.538 1.134-3.645 1.134-2.376 0-3.51-1.539-3.564-4.212h7.398zm-1.944-1.809l-5.319.135c.351-1.917 1.485-2.997 3.132-2.997 1.35 0 2.241.783 2.241 2.538l-.054.324zm9.746 5.832c-1.107 0-1.593-.432-1.566-1.782l.135-6.777h3.483l.135-1.566-.108-.189h-3.456l.054-2.673-.243-.216-2.43.918v1.971h-1.647l-.135 1.593.108.162h1.701l.027 5.265-.108 1.944c0 2.133.945 3.24 3.186 3.591.945-.081 1.782-.351 2.754-.81l.27-1.728-.27-.189c-.729.351-1.323.486-1.89.486zm12.509-10.584c-2.862 0-4.536 1.62-4.536 3.753 0 3.915 5.589 3.402 5.589 5.697 0 .81-.702 1.593-1.917 1.593-.999 0-2.376-.513-3.456-1.458l-.297.189-.324 2.295c1.242.54 2.592.837 3.78.837 3.105 0 4.671-1.917 4.671-3.915 0-3.807-5.589-3.321-5.589-5.589 0-.783.648-1.485 1.755-1.485.837 0 1.782.297 2.754.945l.351-.081.378-2.16a8.548 8.548 0 00-3.159-.621zm9.098 7.182l.216-13.473-2.754.216.162 13.5-.189 5.238h2.754l-.189-5.481zm13.174-.621l.459-.432c.054-.324.108-.972.108-1.35 0-2.97-1.647-4.779-4.536-4.779-3.618 0-5.967 2.457-5.967 6.507 0 3.942 2.16 6.399 5.886 6.399 1.296 0 2.619-.351 3.78-.918l.324-2.187-.243-.162c-1.215.729-2.538 1.134-3.645 1.134-2.376 0-3.51-1.539-3.564-4.212h7.398zm-1.944-1.809l-5.319.135c.351-1.917 1.485-2.997 3.132-2.997 1.35 0 2.241.783 2.241 2.538l-.054.324zm10.097-4.779c-3.564 0-5.697 2.511-5.697 6.588 0 3.942 1.998 6.345 5.373 6.345 1.107 0 2.295-.243 3.294-.621l.27-2.214-.243-.162c-.918.486-1.971.81-2.889.81-2.052 0-3.213-1.62-3.213-4.374 0-2.619 1.134-4.104 3.051-4.104.918 0 1.809.351 2.646.837l.27-.108.459-2.295c-.891-.432-2.16-.702-3.321-.702zm13.253 12.69h2.781l-.135-5.454.081-3.51c.027-2.322-1.404-3.645-4.185-3.645-1.08.324-2.241.972-3.321 1.917h-.162l.135-8.262-2.754.216.135 13.5-.162 5.238h2.754l-.189-5.481.054-3.267c1.053-1.026 2.16-1.62 3.24-1.62 1.296 0 1.944.837 1.917 2.187l-.189 8.181zm10.838-2.079c-1.107 0-1.593-.432-1.566-1.782l.135-6.777h3.483l.135-1.566-.108-.189h-3.456l.054-2.673-.243-.216-2.43.918v1.971h-1.647l-.135 1.593.108.162h1.701l.027 5.265-.108 1.944c0 2.133.945 3.24 3.186 3.591.945-.081 1.782-.351 2.754-.81l.27-1.728-.27-.189c-.729.351-1.323.486-1.89.486zm7.645-15.471l-.324-.351-2.16.135-.243.324.081 11.232.297.324 1.593-.216.756-11.448zm-1.863 14.634c-.945 0-1.566.621-1.566 1.566 0 .945.54 1.512 1.485 1.512.918 0 1.512-.621 1.512-1.593 0-.918-.513-1.485-1.431-1.485z" fill="#2C1E25"/><path d="M2532.06 989.048l-1002-932.5-37 985.002 1039-32v-20.502z" fill="#F87980"/></g><defs><clipPath id="clip0"><path fill="#fff" d="M0 0h1538v1068H0z"/></clipPath></defs></svg>