<svg width="1538" height="1024" viewBox="0 0 1538 1024" fill="none" xmlns="http://www.w3.org/2000/svg">
<g clip-path="url(#clip0)">
<path d="M1379.96 75.8311L1538 43.4707V1058.29H1379.96V75.8311Z" fill="#2E5A9C"/>
<path d="M22.4375 47.7854L175.946 90.9326L180.369 1062.61H22.4375V47.7854Z" fill="#2E5A9C"/>
<path d="M1530.13 550.342H0V1068H1530.13V550.342Z" fill="#FACABC"/>
<path d="M1372.09 85.5393L1530.13 53.179V1068H1372.09V85.5393Z" fill="#F87980"/>
<path d="M-0.0017662 53.179L149.084 96.3261L158.038 1068H-0.0017662L-32.3242 556.066L-0.0017662 53.179Z" fill="#F87980"/>
<path d="M510.582 1067.68L525.469 205.92L673.152 45.1965H857.945L1008.54 206.459V593.489L1022.03 1067.68H510.582Z" fill="#FFF1F0"/>
<path d="M698.18 78.2042C724.178 68.0646 752.55 62.4555 782.324 62.4555C906.059 62.4555 1006.38 159.105 1006.38 278.191V1062.28H1071.22V278.191C1071.33 124.587 941.982 0 782.432 0C737.447 0 694.836 9.92385 656.863 27.6142" fill="#2E5A9C"/>
<path d="M632.157 40.5583C548.984 89.4225 493.535 177.551 493.535 278.191V1062.28H558.369V278.191C558.369 193.191 609.395 119.626 683.614 84.4606" fill="#CBBEBD"/>
<path d="M1059.03 283.585C1059.03 129.981 929.682 5.39331 770.132 5.39331C610.583 5.39331 481.238 129.981 481.238 283.585V1067.68H546.072V283.585C546.072 164.391 646.398 67.8488 770.132 67.8488C893.867 67.8488 994.193 164.498 994.193 283.585V1067.68H1059.03V283.585Z" fill="#F87980"/>
<path d="M518.887 527.042H141.426V581.839H518.887V527.042Z" fill="#F87980"/>
<path d="M1372.08 527.042H1013.61V581.839H1372.08V527.042Z" fill="#F87980"/>
<path d="M1437.17 70.0971L1131.04 28.0852L1062.86 493.104L1365.75 528.764L1437.17 70.0971Z" fill="#2E5A9C"/>
<path d="M490.407 3.99121L164.188 41.2056L219.852 507.842L545.964 470.628L490.407 3.99121Z" fill="#2E5A9C"/>
<path d="M966.684 65.1523L968.194 19.2005L860.102 16.9353L966.684 79.7144V65.1523Z" fill="#2E5A9C"/>
<path d="M709.075 11.6497L651.469 9.1687V22.005L709.075 40.5583V11.6497Z" fill="#2E5A9C"/>
<path d="M957.921 30.0461L631.531 16.7314L612.38 486.12L938.77 499.435L957.921 30.0461Z" fill="#F87980"/>
<path d="M938.605 48.2593L649.188 36.4529L631.593 467.687L921.01 479.494L938.605 48.2593Z" fill="#3F7AD3"/>
<path d="M897.427 235.475L897.751 227.17L894.73 227.062L900.232 184.13L933.027 185.533L930.006 258.343L897.427 235.475Z" fill="#FFF1F0"/>
<path d="M881.246 210.45L881.677 207.106L883.943 207.214L870.566 197.398L773.8 93.7371L693.648 170.539L643.809 168.49L642.622 198.153L642.406 200.958L881.246 210.45Z" fill="#FACABC"/>
<path d="M876.023 210.525L642.441 200.997L637.424 323.975L871.006 333.504L876.023 210.525Z" fill="#F87980"/>
<path d="M638.741 291.351L644.566 289.625L656.541 280.78L667.005 277.975L674.448 271.288L678.871 266.757L683.078 261.256L686.746 255.97L689.875 251.224L691.061 249.498L692.356 247.988L693.111 244.213L693.435 235.691L693.111 227.062V225.12L687.501 217.03L682.755 211.529L679.626 205.596L679.411 201.174L678.763 196.859L680.058 190.926V186.18L680.381 184.885L681.137 182.297L682.97 173.883L688.149 166.979L689.659 160.507L693.003 157.487L701.633 153.388L705.085 150.691L713.5 151.123L718.138 149.828L723.856 151.554L730.544 154.035L735.83 158.566L742.626 168.382L744.245 174.099L743.489 177.982L746.51 188.877L744.892 200.311L744.568 204.625L741.44 211.205L740.253 215.196L737.772 219.187L735.506 227.493L731.947 232.671L730.328 237.201L729.681 238.927L728.279 246.586L729.034 250.361L729.25 252.626L731.299 253.382L732.917 255.431L734.536 257.481L736.693 262.011L739.606 265.463L739.282 266.973L745.215 272.474L748.667 273.553L752.012 277.005L753.198 277.436L756.65 265.786L758.808 259.746L762.152 252.303L763.339 249.93L763.554 231.916L764.202 229.974L764.957 232.024L764.741 247.557L769.596 239.035L774.234 236.123L778.441 235.907L787.611 231.916L790.2 230.514L799.585 228.68L805.195 226.63L813.933 225.012L818.572 222.855L822.132 218.648L825.152 217.785L826.339 216.383L826.123 208.293L825.476 206.675L825.584 205.165L823.426 197.506L821.161 189.74L820.513 187.582L818.032 187.906L815.12 185.533L813.717 182.728L811.344 178.953L808.755 173.775L805.842 168.813L806.058 164.822L807.676 162.665L809.294 162.773L810.804 162.665L812.531 162.773L813.609 152.201L816.198 136.345L817.277 130.304L826.878 123.832L832.272 122.106L837.774 120.812L844.894 118.655L850.827 118.115L855.034 120.057L863.017 121.891L871.215 124.911L875.531 129.657L878.551 137.531L879.954 146.053L879.63 153.496L879.414 159.752L880.061 160.615L884.376 160.723L886.426 164.822L886.21 169.137L884.161 172.589L882.327 178.845L879.738 183.267L876.286 184.67L875.315 186.611L874.128 190.063L873.157 195.672L871.539 202.036L868.842 206.028L868.087 209.048L867.656 216.599L868.303 218.54L870.784 219.511L874.883 224.689L885.239 231.916L892.791 234.289L906.707 238.064L913.395 240.977L918.681 244.321L923.104 248.635L927.527 249.93L930.224 253.921L921.055 479.473L631.621 467.715L638.741 291.351Z" fill="#5C404E"/>
<path d="M1423.81 76.6592L1100.36 31.0298L1034.73 496.191L1358.18 541.82L1423.81 76.6592Z" fill="#F87980"/>
<path d="M1402.78 92.8659L1115.97 52.4053L1055.68 479.755L1342.49 520.216L1402.78 92.8659Z" fill="#3F7AD3"/>
<path d="M1374.78 291.675L1085.78 266.11L1055.68 479.796L1342.53 520.355L1374.78 291.675Z" fill="#F87980"/>
<path d="M1108.44 487.887L1124.62 463.94L1135.73 443.984L1146.84 431.472L1154.82 418.42L1156.33 407.633L1166.58 391.021L1172.52 378.832L1177.69 363.839L1188.27 353.591L1193.55 350.139L1186.76 334.391L1175 335.901L1163.35 331.047L1154.07 324.035L1148.78 306.237L1148.89 297.823L1145.01 288.762L1145.66 263.629L1146.41 255.539L1149.32 247.557L1152.02 242.703L1153.96 237.417L1150.19 232.024L1152.13 223.718L1158.92 215.952L1157.31 210.019L1167.55 195.888L1175.64 186.18L1186.97 179.492L1204.02 172.373L1215.56 170.971L1228.94 166.009L1235.19 164.93L1240.37 162.233L1254.5 155.006L1267.34 154.898L1281.36 161.047L1289.56 168.274L1302.72 178.845L1311.79 191.574L1317.61 206.999L1322.79 230.514L1327.43 252.95L1332.5 292.214L1336.06 327.919L1338 344.53L1340.59 355.101L1341.56 382.931L1345.12 396.415L1342.21 410.222L1340.59 420.577L1330.88 421.008L1322.9 421.979L1330.99 455.31L1327.21 475.482L1325.81 504.93L1318.58 517.55L1108.44 487.887Z" fill="#5C404E"/>
<path d="M486.297 13.6253L161.77 50.8931L215.374 517.604L539.902 480.336L486.297 13.6253Z" fill="#F87980"/>
<path d="M470.04 34.7106L182.273 67.7568L231.521 496.531L519.287 463.485L470.04 34.7106Z" fill="#3F7AD3"/>
<path d="M191.805 150.907C191.805 150.907 208.418 143.572 215.538 148.21C222.657 152.741 225.462 151.231 231.395 150.584C237.329 149.936 237.976 147.563 241.428 146.161C244.88 144.759 251.137 152.202 252.324 152.094C253.51 151.986 260.846 152.957 261.062 155.545C261.385 158.242 255.56 167.519 262.356 166.764C269.152 166.009 266.671 162.665 269.908 162.341C273.144 162.018 283.608 156.948 283.392 162.125C283.176 167.303 297.74 166.656 297.74 166.656L383.933 126.529C383.933 126.529 389.219 115.419 394.397 115.742C399.575 116.066 411.118 110.241 418.13 116.605C425.142 122.969 425.466 136.129 428.594 137.316C431.723 138.502 431.399 148.642 432.262 151.231C433.125 153.82 417.591 156.84 417.591 156.84L390.945 157.487L288.247 197.722C288.247 197.722 278.753 196.427 273.252 197.398C267.642 198.369 262.032 206.783 265.269 206.351C268.505 205.92 279.94 203.439 282.745 204.302C285.55 205.165 292.562 208.617 278.322 210.235C264.082 211.853 254.157 210.882 259.443 212.392C264.729 213.902 279.94 213.363 271.202 215.196C262.464 217.138 266.348 214.226 256.099 216.922C245.959 219.619 253.402 224.689 247.793 225.336C242.183 225.983 229.777 224.689 228.267 227.601C226.757 230.514 219.313 240.653 217.156 240.869C215.106 241.085 207.555 240.438 205.074 242.271C202.484 244.105 200.866 246.91 200.866 246.91L191.805 150.907Z" fill="#F87980"/>
<path d="M394.289 161.586C394.289 161.586 411.873 161.694 421.043 160.615C430.32 159.536 436.793 162.665 436.793 162.665C436.793 162.665 446.501 157.703 449.522 158.242C452.543 158.781 455.455 153.712 461.928 153.927C468.401 154.143 466.89 153.388 472.5 151.231C478.109 149.073 483.072 147.995 483.072 147.995L488.358 193.731C488.358 193.731 481.885 195.025 475.197 197.614C468.4 200.095 458.799 202.684 458.799 202.684L430.212 198.908L420.18 203.87L399.251 205.38" fill="#F87980"/>
<path d="M493.97 242.379L484.369 235.368L470.237 233.318L460.313 229.219L452.438 220.482L460.097 212.931L470.237 205.38L472.61 198.477L474.876 187.906L480.809 181.218L485.34 167.411L493.97 242.379Z" fill="#FACABC"/>
<path d="M419.102 225.12L430.644 226.199L435.93 231.376L445.208 236.123L457.074 234.828L468.401 245.291L478.542 247.557L488.898 255.862L493.321 259.638L496.557 265.139L519.319 463.508L452.651 471.814L419.102 225.12Z" fill="#FFF1F0"/>
<path d="M293.101 228.572L288.678 232.887L284.039 233.426L275.409 232.455L276.38 240.114L267.858 234.721L261.709 232.132L253.079 233.21L251.245 238.172L244.664 234.181L241.212 239.359L237.976 244.536L233.984 247.665L235.063 257.481L253.834 263.198L266.671 265.247L274.546 270.209L286.305 273.014L302.27 239.467L293.101 228.572Z" fill="#FACABC"/>
<path d="M231.613 243.458L229.239 253.489L231.613 258.559L235.712 263.413L245.852 266.649L259.768 272.151L267.428 276.897L261.279 280.241L237.977 282.937L233.554 291.027L241.214 298.039L263.328 297.931L274.44 298.47L276.058 312.493L258.474 317.779L236.359 315.298L221.472 319.289L219.207 331.37L212.842 333.851L202.594 244.86L209.39 246.047L217.265 249.822L222.875 249.498L231.613 243.458Z" fill="#FACABC"/>
<path d="M233.663 427.265L230.966 436.757L224.602 438.806L231.506 496.516L283.61 490.583L289.22 421.979" fill="#FACABC"/>
<path d="M287.923 257.157L293.209 242.595L296.985 225.012L292.994 218.001L285.334 200.742L286.629 190.495L282.745 177.982L283.393 162.125L286.305 159.644L282.206 151.554L284.687 142.817L287.6 131.275L290.405 128.039L294.072 114.771L304.213 102.367L321.149 91.4719H333.771L350.168 92.0113L361.064 96.9732L373.685 105.387L382.747 117.037L386.631 130.196L392.78 147.887L394.29 161.586L401.518 178.953L400.87 192.221L407.127 202.037L405.617 208.401L411.119 219.08L419.102 225.12L422.122 235.476L431.4 240.653L447.15 246.802L452.112 256.294L462.252 265.571L467.754 275.495L471.314 285.85L475.845 296.313L480.16 308.826L487.603 319.397L489.222 333.851L491.271 351.11L498.823 361.249L500.117 372.36L497.204 380.342L498.391 395.012L492.026 402.239L472.824 413.781L459.34 423.705L462.144 429.314L464.626 450.672L464.734 459.949L458.261 470.52L277.783 491.23L263.543 473.756L268.074 457.576L268.721 446.034L256.963 441.719L236.25 432.119L228.699 414.32L226.434 395.12L230.857 374.949L235.172 359.955L249.196 344.638L254.05 333.096L261.601 323.604L266.995 314.111L261.278 305.913L267.643 280.78L279.185 270.101L287.923 257.157Z" fill="#5C404E"/>
<path d="M486.297 13.6253L161.77 50.8931L215.374 517.604L539.902 480.336L486.297 13.6253Z" fill="#F87980"/>
<path d="M470.04 34.7106L182.273 67.7568L231.521 496.531L519.287 463.485L470.04 34.7106Z" fill="#3F7AD3"/>
<path d="M191.805 150.907C191.805 150.907 208.418 143.572 215.538 148.21C222.657 152.741 225.462 151.231 231.395 150.584C237.329 149.936 237.976 147.563 241.428 146.161C244.88 144.759 251.137 152.202 252.324 152.094C253.51 151.986 260.846 152.957 261.062 155.545C261.385 158.242 255.56 167.519 262.356 166.764C269.152 166.009 266.671 162.665 269.908 162.341C273.144 162.018 283.608 156.948 283.392 162.125C283.176 167.303 297.74 166.656 297.74 166.656L383.933 126.529C383.933 126.529 389.219 115.419 394.397 115.742C399.575 116.066 411.118 110.241 418.13 116.605C425.142 122.969 425.466 136.129 428.594 137.316C431.723 138.502 431.399 148.642 432.262 151.231C433.125 153.82 417.591 156.84 417.591 156.84L390.945 157.487L288.247 197.722C288.247 197.722 278.753 196.427 273.252 197.398C267.642 198.369 262.032 206.783 265.269 206.351C268.505 205.92 279.94 203.439 282.745 204.302C285.55 205.165 292.562 208.617 278.322 210.235C264.082 211.853 254.157 210.882 259.443 212.392C264.729 213.902 279.94 213.363 271.202 215.196C262.464 217.138 266.348 214.226 256.099 216.922C245.959 219.619 253.402 224.689 247.793 225.336C242.183 225.983 229.777 224.689 228.267 227.601C226.757 230.514 219.313 240.653 217.156 240.869C215.106 241.085 207.555 240.438 205.074 242.271C202.484 244.105 200.866 246.91 200.866 246.91L191.805 150.907Z" fill="#F87980"/>
<path d="M394.289 161.586C394.289 161.586 411.873 161.694 421.043 160.615C430.32 159.536 436.793 162.665 436.793 162.665C436.793 162.665 446.501 157.703 449.522 158.242C452.543 158.781 455.455 153.712 461.928 153.927C468.401 154.143 466.89 153.388 472.5 151.231C478.109 149.073 483.072 147.995 483.072 147.995L488.358 193.731C488.358 193.731 481.885 195.025 475.197 197.614C468.4 200.095 458.799 202.684 458.799 202.684L430.212 198.908L420.18 203.87L399.251 205.38" fill="#F87980"/>
<path d="M493.97 242.379L484.369 235.368L470.237 233.318L460.313 229.219L452.438 220.482L460.097 212.931L470.237 205.38L472.61 198.477L474.876 187.906L480.809 181.218L485.34 167.411L493.97 242.379Z" fill="#FACABC"/>
<path d="M419.102 225.12L430.644 226.199L435.93 231.376L445.208 236.123L457.074 234.828L468.401 245.291L478.542 247.557L488.898 255.862L493.321 259.638L496.557 265.139L519.319 463.508L452.651 471.814L419.102 225.12Z" fill="#FFF1F0"/>
<path d="M293.101 228.572L288.678 232.887L284.039 233.426L275.409 232.455L276.38 240.114L267.858 234.721L261.709 232.132L253.079 233.21L251.245 238.172L244.664 234.181L241.212 239.359L237.976 244.536L233.984 247.665L235.063 257.481L253.834 263.198L266.671 265.247L274.546 270.209L286.305 273.014L302.27 239.467L293.101 228.572Z" fill="#FACABC"/>
<path d="M231.613 243.458L229.239 253.489L231.613 258.559L235.712 263.413L245.852 266.649L259.768 272.151L267.428 276.897L261.279 280.241L237.977 282.937L233.554 291.027L241.214 298.039L263.328 297.931L274.44 298.47L276.058 312.493L258.474 317.779L236.359 315.298L221.472 319.289L219.207 331.37L212.842 333.851L202.594 244.86L209.39 246.047L217.265 249.822L222.875 249.498L231.613 243.458Z" fill="#FACABC"/>
<path d="M233.663 427.265L230.966 436.757L224.602 438.806L231.506 496.516L283.61 490.583L289.22 421.979" fill="#FACABC"/>
<path d="M287.923 257.157L293.209 242.595L296.985 225.012L292.994 218.001L285.334 200.742L286.629 190.495L282.745 177.982L283.393 162.125L286.305 159.644L282.206 151.554L284.687 142.817L287.6 131.275L290.405 128.039L294.072 114.771L304.213 102.367L321.149 91.4719H333.771L350.168 92.0113L361.064 96.9732L373.685 105.387L382.747 117.037L386.631 130.196L392.78 147.887L394.29 161.586L401.518 178.953L400.87 192.221L407.127 202.037L405.617 208.401L411.119 219.08L419.102 225.12L422.122 235.476L431.4 240.653L447.15 246.802L452.112 256.294L462.252 265.571L467.754 275.495L471.314 285.85L475.845 296.313L480.16 308.826L487.603 319.397L489.222 333.851L491.271 351.11L498.823 361.249L500.117 372.36L497.204 380.342L498.391 395.012L492.026 402.239L472.824 413.781L459.34 423.705L462.144 429.314L464.626 450.672L464.734 459.949L458.261 470.52L277.783 491.23L263.543 473.756L268.074 457.576L268.721 446.034L256.963 441.719L236.25 432.119L228.699 414.32L226.434 395.12L230.857 374.949L235.172 359.955L249.196 344.638L254.05 333.096L261.601 323.604L266.995 314.111L261.278 305.913L267.643 280.78L279.185 270.101L287.923 257.157Z" fill="#5C404E"/>
<path d="M486.297 13.6253L161.77 50.8931L215.374 517.604L539.902 480.336L486.297 13.6253Z" fill="#F87980"/>
<path d="M470.04 34.7106L182.273 67.7568L231.521 496.531L519.287 463.485L470.04 34.7106Z" fill="#3F7AD3"/>
<path d="M191.805 150.907C191.805 150.907 208.418 143.572 215.538 148.21C222.657 152.741 225.462 151.231 231.395 150.584C237.329 149.936 237.976 147.563 241.428 146.161C244.88 144.759 251.137 152.202 252.324 152.094C253.51 151.986 260.846 152.957 261.062 155.545C261.385 158.242 255.56 167.519 262.356 166.764C269.152 166.009 266.671 162.665 269.908 162.341C273.144 162.018 283.608 156.948 283.392 162.125C283.176 167.303 297.74 166.656 297.74 166.656L383.933 126.529C383.933 126.529 389.219 115.419 394.397 115.742C399.575 116.066 411.118 110.241 418.13 116.605C425.142 122.969 425.466 136.129 428.594 137.316C431.723 138.502 431.399 148.642 432.262 151.231C433.125 153.82 417.591 156.84 417.591 156.84L390.945 157.487L288.247 197.722C288.247 197.722 278.753 196.427 273.252 197.398C267.642 198.369 262.032 206.783 265.269 206.351C268.505 205.92 279.94 203.439 282.745 204.302C285.55 205.165 292.562 208.617 278.322 210.235C264.082 211.853 254.157 210.882 259.443 212.392C264.729 213.902 279.94 213.363 271.202 215.196C262.464 217.138 266.348 214.226 256.099 216.922C245.959 219.619 253.402 224.689 247.793 225.336C242.183 225.983 229.777 224.689 228.267 227.601C226.757 230.514 219.313 240.653 217.156 240.869C215.106 241.085 207.555 240.438 205.074 242.271C202.484 244.105 200.866 246.91 200.866 246.91L191.805 150.907Z" fill="#F87980"/>
<path d="M394.289 161.586C394.289 161.586 411.873 161.694 421.043 160.615C430.32 159.536 436.793 162.665 436.793 162.665C436.793 162.665 446.501 157.703 449.522 158.242C452.543 158.781 455.455 153.712 461.928 153.927C468.401 154.143 466.89 153.388 472.5 151.231C478.109 149.073 483.072 147.995 483.072 147.995L488.358 193.731C488.358 193.731 481.885 195.025 475.197 197.614C468.4 200.095 458.799 202.684 458.799 202.684L430.212 198.908L420.18 203.87L399.251 205.38" fill="#F87980"/>
<path d="M493.97 242.379L484.369 235.368L470.237 233.318L460.313 229.219L452.438 220.482L460.097 212.931L470.237 205.38L472.61 198.477L474.876 187.906L480.809 181.218L485.34 167.411L493.97 242.379Z" fill="#FACABC"/>
<path d="M419.102 225.12L430.644 226.199L435.93 231.376L445.208 236.123L457.074 234.828L468.401 245.291L478.542 247.557L488.898 255.862L493.321 259.638L496.557 265.139L519.319 463.508L452.651 471.814L419.102 225.12Z" fill="#FFF1F0"/>
<path d="M293.101 228.572L288.678 232.887L284.039 233.426L275.409 232.455L276.38 240.114L267.858 234.721L261.709 232.132L253.079 233.21L251.245 238.172L244.664 234.181L241.212 239.359L237.976 244.536L233.984 247.665L235.063 257.481L253.834 263.198L266.671 265.247L274.546 270.209L286.305 273.014L302.27 239.467L293.101 228.572Z" fill="#FACABC"/>
<path d="M231.613 243.458L229.239 253.489L231.613 258.559L235.712 263.413L245.852 266.649L259.768 272.151L267.428 276.897L261.279 280.241L237.977 282.937L233.554 291.027L241.214 298.039L263.328 297.931L274.44 298.47L276.058 312.493L258.474 317.779L236.359 315.298L221.472 319.289L219.207 331.37L212.842 333.851L202.594 244.86L209.39 246.047L217.265 249.822L222.875 249.498L231.613 243.458Z" fill="#FACABC"/>
<path d="M233.663 427.265L230.966 436.757L224.602 438.806L231.506 496.516L283.61 490.583L289.22 421.979" fill="#FACABC"/>
<path d="M287.923 257.157L293.209 242.595L296.985 225.012L292.994 218.001L285.334 200.742L286.629 190.495L282.745 177.982L283.393 162.125L286.305 159.644L282.206 151.554L284.687 142.817L287.6 131.275L290.405 128.039L294.072 114.771L304.213 102.367L321.149 91.4719H333.771L350.168 92.0113L361.064 96.9732L373.685 105.387L382.747 117.037L386.631 130.196L392.78 147.887L394.29 161.586L401.518 178.953L400.87 192.221L407.127 202.037L405.617 208.401L411.119 219.08L419.102 225.12L422.122 235.476L431.4 240.653L447.15 246.802L452.112 256.294L462.252 265.571L467.754 275.495L471.314 285.85L475.845 296.313L480.16 308.826L487.603 319.397L489.222 333.851L491.271 351.11L498.823 361.249L500.117 372.36L497.204 380.342L498.391 395.012L492.026 402.239L472.824 413.781L459.34 423.705L462.144 429.314L464.626 450.672L464.734 459.949L458.261 470.52L277.783 491.23L263.543 473.756L268.074 457.576L268.721 446.034L256.963 441.719L236.25 432.119L228.699 414.32L226.434 395.12L230.857 374.949L235.172 359.955L249.196 344.638L254.05 333.096L261.601 323.604L266.995 314.111L261.278 305.913L267.643 280.78L279.185 270.101L287.923 257.157Z" fill="#5C404E"/>
<path d="M177.998 527.042L178.213 581.839H153.51L153.078 527.042H177.998Z" fill="#A75155"/>
<path d="M178.212 581.839L182.635 1068H158.039L153.508 581.839H178.212Z" fill="#BE988D"/>
<path d="M1071.33 527.042L1071.54 581.839H1059.03V527.042H1071.33Z" fill="#A75155"/>
<path d="M1071.54 581.839H1059.03V1068H1071.33L1071.54 581.839Z" fill="#BE988D"/>
<path d="M1421.96 67.9797L1397.7 72.9778L1423.8 76.6092L1356.8 533.538L1369.1 535.156L1437.28 70.1371L1421.96 67.9797Z" fill="#A75155"/>
<path d="M952.66 158.35L963.879 175.285L966.684 79.7143C966.684 79.7143 960.535 73.5658 956.22 70.7612L952.66 158.35Z" fill="#A75155"/>
<path d="M951.15 484.327H939.176L952.553 158.35C952.553 158.35 961.506 169.784 963.772 175.285L951.15 484.327Z" fill="#CBBEBD"/>
<path d="M854.063 17.2588C854.063 17.2588 855.789 16.3958 881.679 26.859L677.145 18.6611C677.145 18.6611 685.02 15.6408 709.076 11.6497L854.063 17.2588Z" fill="#A75155"/>
<path d="M538.846 471.491L545.966 470.735L509.396 163.635C509.396 163.635 506.375 167.411 504.434 171.941L538.846 471.491Z" fill="#A75155"/>
<path d="M1372.09 581.839H1059.03V600.716H1372.09V581.839Z" fill="#BE988D"/>
<path d="M178.211 581.839H481.237V607.62H165.59L178.211 581.839Z" fill="#BE988D"/>
<path d="M205.115 698.678C207.275 697.544 208.544 695.627 208.544 693.305C208.544 690.038 206.546 688.256 203.063 688.256L197.177 688.283L197.366 700.406L197.177 705.617H200.012L199.877 700.163V699.434H202.82C203.954 701.54 205.196 703.619 206.438 705.644L206.762 705.86C207.68 705.779 208.571 705.59 209.435 705.293L209.462 704.969C207.896 702.89 206.438 700.811 205.115 698.678ZM199.931 697.166L200.012 690.524L202.307 690.443C204.494 690.524 205.628 691.469 205.628 693.521C205.628 695.492 204.683 696.707 202.901 697.247L199.931 697.166ZM216.082 692.927C212.356 692.927 210.277 695.33 210.277 699.596C210.277 703.592 212.248 705.86 215.731 705.86C219.457 705.86 221.536 703.457 221.536 699.191C221.536 695.195 219.565 692.927 216.082 692.927ZM215.92 694.844C217.945 694.844 218.971 696.41 218.971 699.812C218.971 702.647 217.945 703.97 215.92 703.97C213.868 703.97 212.842 702.431 212.842 699.002C212.842 696.221 213.868 694.844 215.92 694.844ZM235.932 692.684L235.689 692.522C234.393 692.927 233.043 693.251 231.693 693.467C230.991 693.17 230.181 693.008 229.209 693.008C226.158 693.008 224.16 694.628 224.16 697.409C224.16 698.975 224.808 700.19 226.023 700.865V701C225.294 701.459 224.727 702.026 224.295 702.647C224.295 703.916 225.132 704.537 226.266 704.915V705.05C225.348 705.644 224.511 706.292 223.944 707.237C223.944 709.316 225.591 710.855 228.723 710.855C232.125 710.855 234.69 709.019 234.69 706.616C234.69 702.485 226.752 704.186 226.752 702.269C226.752 701.972 226.887 701.729 227.319 701.378C227.832 701.486 228.372 701.54 228.966 701.54C232.125 701.54 234.069 699.839 234.069 697.193C234.069 696.41 233.907 695.708 233.556 695.114L233.61 695.006C234.42 694.871 235.203 694.736 235.932 694.493V692.684ZM229.074 699.785C227.454 699.785 226.59 698.867 226.59 697.274C226.59 695.654 227.508 694.79 229.182 694.79C230.829 694.79 231.639 695.654 231.639 697.193C231.639 698.84 230.721 699.785 229.074 699.785ZM232.314 707.129C232.314 708.29 230.937 709.073 229.047 709.073C227.211 709.073 226.293 708.344 226.293 707.399C226.293 706.643 226.914 705.995 228.021 705.293C230.127 705.617 232.314 705.698 232.314 707.129ZM246.712 699.515L247.171 699.083C247.225 698.759 247.279 698.111 247.279 697.733C247.279 694.763 245.632 692.954 242.743 692.954C239.125 692.954 236.776 695.411 236.776 699.461C236.776 703.403 238.936 705.86 242.662 705.86C243.958 705.86 245.281 705.509 246.442 704.942L246.766 702.755L246.523 702.593C245.308 703.322 243.985 703.727 242.878 703.727C240.502 703.727 239.368 702.188 239.314 699.515H246.712ZM244.768 697.706L239.449 697.841C239.8 695.924 240.934 694.844 242.581 694.844C243.931 694.844 244.822 695.627 244.822 697.382L244.768 697.706ZM256.323 693.143C255.243 693.143 253.947 693.737 252.921 695.6H252.732L252.759 693.116L250.14 693.359L250.302 700.406L250.113 705.617H252.867L252.678 700.163L252.705 698.381C253.65 696.518 254.595 695.762 255.702 695.762C255.945 695.762 256.323 695.789 256.701 695.897L256.998 695.816V693.197C256.809 693.17 256.539 693.143 256.323 693.143ZM266.102 700.136L266.318 686.663L263.564 686.879L263.699 700.379L263.537 705.617H266.291L266.102 700.136ZM273.743 693.17H270.746L270.071 694.358L266.507 698.894V699.083C267.938 701.378 269.531 703.592 271.205 705.752L271.529 705.86C272.366 705.752 273.203 705.671 274.04 705.455V705.131C272.393 703.106 270.692 700.973 269.18 698.84L273.743 693.17ZM280.119 692.927C278.472 692.927 276.798 693.494 275.259 694.547L275.61 696.464L275.826 696.599C277.284 695.411 278.472 694.871 279.687 694.871C280.929 694.871 281.631 695.546 281.631 696.896L281.604 698.354L277.338 699.299C275.664 699.677 274.719 700.595 274.719 702.296C274.719 704.456 276.204 705.806 278.715 705.833C279.741 705.428 280.659 704.726 281.523 703.808H281.712C281.847 704.969 282.576 705.698 283.683 705.806C284.304 705.725 284.898 705.509 285.384 705.212L285.654 703.7L285.411 703.511C285.006 703.592 284.79 703.619 284.601 703.619C284.034 703.619 283.818 703.403 283.818 702.701C283.818 701.783 284.142 697.247 284.142 696.302C284.142 694.169 282.576 692.927 280.119 692.927ZM281.604 699.947L281.523 702.026C280.632 703.052 279.768 703.673 278.823 703.673C277.824 703.673 277.176 703.052 277.176 701.945C277.176 701.216 277.446 700.919 278.094 700.784L281.604 699.947ZM295.906 705.617H298.687L298.552 700.163L298.633 696.653C298.66 694.331 297.229 693.008 294.448 693.008C293.368 693.332 292.207 693.98 291.127 694.925H290.938L290.965 693.116L288.346 693.359L288.481 700.406L288.319 705.617H291.073L290.911 700.163L290.938 696.869C291.991 695.843 293.098 695.249 294.178 695.249C295.474 695.249 296.122 696.086 296.095 697.436L295.906 705.617ZM314.258 705.617H317.039L316.904 700.163L316.985 696.653C317.012 694.331 315.581 693.008 312.8 693.008C311.72 693.332 310.559 693.98 309.479 694.925H309.29L309.317 693.116L306.698 693.359L306.833 700.406L306.671 705.617H309.425L309.263 700.163L309.29 696.869C310.343 695.843 311.45 695.249 312.53 695.249C313.826 695.249 314.474 696.086 314.447 697.436L314.258 705.617ZM322.183 687.365C321.211 687.365 320.617 687.986 320.617 688.931C320.617 689.876 321.157 690.443 322.102 690.443C323.02 690.443 323.614 689.822 323.614 688.85C323.614 687.932 323.101 687.365 322.183 687.365ZM323.263 700.163L323.479 693.116L320.725 693.359L320.86 700.406L320.698 705.617H323.452L323.263 700.163ZM336.334 699.515L336.793 699.083C336.847 698.759 336.901 698.111 336.901 697.733C336.901 694.763 335.254 692.954 332.365 692.954C328.747 692.954 326.398 695.411 326.398 699.461C326.398 703.403 328.558 705.86 332.284 705.86C333.58 705.86 334.903 705.509 336.064 704.942L336.388 702.755L336.145 702.593C334.93 703.322 333.607 703.727 332.5 703.727C330.124 703.727 328.99 702.188 328.936 699.515H336.334ZM334.39 697.706L329.071 697.841C329.422 695.924 330.556 694.844 332.203 694.844C333.553 694.844 334.444 695.627 334.444 697.382L334.39 697.706ZM344.136 703.538C343.029 703.538 342.543 703.106 342.57 701.756L342.705 694.979H346.188L346.323 693.413L346.215 693.224H342.759L342.813 690.551L342.57 690.335L340.14 691.253V693.224H338.493L338.358 694.817L338.466 694.979H340.167L340.194 700.244L340.086 702.188C340.086 704.321 341.031 705.428 343.272 705.779C344.217 705.698 345.054 705.428 346.026 704.969L346.296 703.241L346.026 703.052C345.297 703.403 344.703 703.538 344.136 703.538ZM355.593 700.136L355.809 686.663L353.055 686.879L353.19 700.379L353.028 705.617H355.782L355.593 700.136ZM363.234 693.17H360.237L359.562 694.358L355.998 698.894V699.083C357.429 701.378 359.022 703.592 360.696 705.752L361.02 705.86C361.857 705.752 362.694 705.671 363.531 705.455V705.131C361.884 703.106 360.183 700.973 358.671 698.84L363.234 693.17ZM367.113 687.365C366.141 687.365 365.547 687.986 365.547 688.931C365.547 689.876 366.087 690.443 367.032 690.443C367.95 690.443 368.544 689.822 368.544 688.85C368.544 687.932 368.031 687.365 367.113 687.365ZM368.193 700.163L368.409 693.116L365.655 693.359L365.79 700.406L365.628 705.617H368.382L368.193 700.163ZM381.264 699.515L381.723 699.083C381.777 698.759 381.831 698.111 381.831 697.733C381.831 694.763 380.184 692.954 377.295 692.954C373.677 692.954 371.328 695.411 371.328 699.461C371.328 703.403 373.488 705.86 377.214 705.86C378.51 705.86 379.833 705.509 380.994 704.942L381.318 702.755L381.075 702.593C379.86 703.322 378.537 703.727 377.43 703.727C375.054 703.727 373.92 702.188 373.866 699.515H381.264ZM379.32 697.706L374.001 697.841C374.352 695.924 375.486 694.844 377.133 694.844C378.483 694.844 379.374 695.627 379.374 697.382L379.32 697.706ZM386.366 693.17L383.909 693.116L383.72 695.006L383.882 695.222L385.961 695.006H390.173L383.558 704.051L383.585 705.671L385.043 705.617H390.227L393.008 705.671L393.224 703.781L393.062 703.565L390.902 703.781H386.474L393.062 694.79L393.008 693.143L391.82 693.17H386.366ZM404.652 699.515L405.111 699.083C405.165 698.759 405.219 698.111 405.219 697.733C405.219 694.763 403.572 692.954 400.683 692.954C397.065 692.954 394.716 695.411 394.716 699.461C394.716 703.403 396.876 705.86 400.602 705.86C401.898 705.86 403.221 705.509 404.382 704.942L404.706 702.755L404.463 702.593C403.248 703.322 401.925 703.727 400.818 703.727C398.442 703.727 397.308 702.188 397.254 699.515H404.652ZM402.708 697.706L397.389 697.841C397.74 695.924 398.874 694.844 400.521 694.844C401.871 694.844 402.762 695.627 402.762 697.382L402.708 697.706ZM415.64 705.617H418.421L418.286 700.163L418.367 696.653C418.394 694.331 416.963 693.008 414.182 693.008C413.102 693.332 411.941 693.98 410.861 694.925H410.672L410.699 693.116L408.08 693.359L408.215 700.406L408.053 705.617H410.807L410.645 700.163L410.672 696.869C411.725 695.843 412.832 695.249 413.912 695.249C415.208 695.249 415.856 696.086 415.829 697.436L415.64 705.617ZM423.295 702.701C422.323 702.701 421.729 703.322 421.729 704.267C421.729 705.212 422.269 705.779 423.214 705.779C424.132 705.779 424.726 705.158 424.726 704.186C424.726 703.268 424.213 702.701 423.295 702.701ZM442.712 703.241L438.527 703.376L435.233 703.349L435.152 700.163L435.179 697.922L438.122 697.868L441.173 697.949L441.389 695.816L441.2 695.6L438.338 695.681L435.206 695.627L435.287 690.578L438.581 690.551L442.685 690.659L442.901 688.526L442.739 688.283H432.452L432.641 700.406L432.452 705.617H442.685L442.874 703.484L442.712 703.241ZM451.309 693.143C450.229 693.143 448.933 693.737 447.907 695.6H447.718L447.745 693.116L445.126 693.359L445.288 700.406L445.099 705.617H447.853L447.664 700.163L447.691 698.381C448.636 696.518 449.581 695.762 450.688 695.762C450.931 695.762 451.309 695.789 451.687 695.897L451.984 695.816V693.197C451.795 693.17 451.525 693.143 451.309 693.143ZM198.473 725.17L196.016 725.116L195.827 727.006L195.989 727.222L198.068 727.006H202.28L195.665 736.051L195.692 737.671L197.15 737.617H202.334L205.115 737.671L205.331 735.781L205.169 735.565L203.009 735.781H198.581L205.169 726.79L205.115 725.143L203.927 725.17H198.473ZM209.516 719.365C208.544 719.365 207.95 719.986 207.95 720.931C207.95 721.876 208.49 722.443 209.435 722.443C210.353 722.443 210.947 721.822 210.947 720.85C210.947 719.932 210.434 719.365 209.516 719.365ZM210.596 732.163L210.812 725.116L208.058 725.359L208.193 732.406L208.031 737.617H210.785L210.596 732.163ZM216.35 719.365C215.378 719.365 214.784 719.986 214.784 720.931C214.784 721.876 215.324 722.443 216.269 722.443C217.187 722.443 217.781 721.822 217.781 720.85C217.781 719.932 217.268 719.365 216.35 719.365ZM218.078 725.17L217.997 725.116L215.432 725.224H212.948L212.813 726.79L213.002 726.979H215.378L215.486 732.406L215.459 737.131C215.459 739.21 214.811 740.317 212.975 741.343V741.64L213.974 742.855C216.89 741.451 218.024 739.858 218.024 737.023L217.889 732.163L218.078 725.17ZM229.672 737.617H232.453L232.318 732.163L232.399 728.653C232.426 726.331 230.995 725.008 228.214 725.008C227.134 725.332 225.973 725.98 224.893 726.925H224.704L224.731 725.116L222.112 725.359L222.247 732.406L222.085 737.617H224.839L224.677 732.163L224.704 728.869C225.757 727.843 226.864 727.249 227.944 727.249C229.24 727.249 229.888 728.086 229.861 729.436L229.672 737.617ZM242.138 725.17L239.681 725.116L239.492 727.006L239.654 727.222L241.733 727.006H245.945L239.33 736.051L239.357 737.671L240.815 737.617H245.999L248.78 737.671L248.996 735.781L248.834 735.565L246.674 735.781H242.246L248.834 726.79L248.78 725.143L247.592 725.17H242.138ZM256.292 724.927C252.566 724.927 250.487 727.33 250.487 731.596C250.487 735.592 252.458 737.86 255.941 737.86C259.667 737.86 261.746 735.457 261.746 731.191C261.746 727.195 259.775 724.927 256.292 724.927ZM256.13 726.844C258.155 726.844 259.181 728.41 259.181 731.812C259.181 734.647 258.155 735.97 256.13 735.97C254.078 735.97 253.052 734.431 253.052 731.002C253.052 728.221 254.078 726.844 256.13 726.844ZM265.757 726.925L265.406 725.089L262.868 725.224L266.567 737.617H269.537L273.938 725.17H271.508L271.049 727.06L268.295 734.971H268.106L265.757 726.925ZM284.602 731.515L285.061 731.083C285.115 730.759 285.169 730.111 285.169 729.733C285.169 726.763 283.522 724.954 280.633 724.954C277.015 724.954 274.666 727.411 274.666 731.461C274.666 735.403 276.826 737.86 280.552 737.86C281.848 737.86 283.171 737.509 284.332 736.942L284.656 734.755L284.413 734.593C283.198 735.322 281.875 735.727 280.768 735.727C278.392 735.727 277.258 734.188 277.204 731.515H284.602ZM282.658 729.706L277.339 729.841C277.69 727.924 278.824 726.844 280.471 726.844C281.821 726.844 282.712 727.627 282.712 729.382L282.658 729.706ZM296.995 731.515L297.454 731.083C297.508 730.759 297.562 730.111 297.562 729.733C297.562 726.763 295.915 724.954 293.026 724.954C289.408 724.954 287.059 727.411 287.059 731.461C287.059 735.403 289.219 737.86 292.945 737.86C294.241 737.86 295.564 737.509 296.725 736.942L297.049 734.755L296.806 734.593C295.591 735.322 294.268 735.727 293.161 735.727C290.785 735.727 289.651 734.188 289.597 731.515H296.995ZM295.051 729.706L289.732 729.841C290.083 727.924 291.217 726.844 292.864 726.844C294.214 726.844 295.105 727.627 295.105 729.382L295.051 729.706ZM303.016 732.136L303.232 718.663L300.478 718.879L300.64 732.379L300.451 737.617H303.205L303.016 732.136ZM322.944 724.684L322.701 724.522C321.405 724.927 320.055 725.251 318.705 725.467C318.003 725.17 317.193 725.008 316.221 725.008C313.17 725.008 311.172 726.628 311.172 729.409C311.172 730.975 311.82 732.19 313.035 732.865V733C312.306 733.459 311.739 734.026 311.307 734.647C311.307 735.916 312.144 736.537 313.278 736.915V737.05C312.36 737.644 311.523 738.292 310.956 739.237C310.956 741.316 312.603 742.855 315.735 742.855C319.137 742.855 321.702 741.019 321.702 738.616C321.702 734.485 313.764 736.186 313.764 734.269C313.764 733.972 313.899 733.729 314.331 733.378C314.844 733.486 315.384 733.54 315.978 733.54C319.137 733.54 321.081 731.839 321.081 729.193C321.081 728.41 320.919 727.708 320.568 727.114L320.622 727.006C321.432 726.871 322.215 726.736 322.944 726.493V724.684ZM316.086 731.785C314.466 731.785 313.602 730.867 313.602 729.274C313.602 727.654 314.52 726.79 316.194 726.79C317.841 726.79 318.651 727.654 318.651 729.193C318.651 730.84 317.733 731.785 316.086 731.785ZM319.326 739.129C319.326 740.29 317.949 741.073 316.059 741.073C314.223 741.073 313.305 740.344 313.305 739.399C313.305 738.643 313.926 737.995 315.033 737.293C317.139 737.617 319.326 737.698 319.326 739.129ZM329.593 724.927C325.867 724.927 323.788 727.33 323.788 731.596C323.788 735.592 325.759 737.86 329.242 737.86C332.968 737.86 335.047 735.457 335.047 731.191C335.047 727.195 333.076 724.927 329.593 724.927ZM329.431 726.844C331.456 726.844 332.482 728.41 332.482 731.812C332.482 734.647 331.456 735.97 329.431 735.97C327.379 735.97 326.353 734.431 326.353 731.002C326.353 728.221 327.379 726.844 329.431 726.844ZM347.013 731.515L347.472 731.083C347.526 730.759 347.58 730.111 347.58 729.733C347.58 726.763 345.933 724.954 343.044 724.954C339.426 724.954 337.077 727.411 337.077 731.461C337.077 735.403 339.237 737.86 342.963 737.86C344.259 737.86 345.582 737.509 346.743 736.942L347.067 734.755L346.824 734.593C345.609 735.322 344.286 735.727 343.179 735.727C340.803 735.727 339.669 734.188 339.615 731.515H347.013ZM345.069 729.706L339.75 729.841C340.101 727.924 341.235 726.844 342.882 726.844C344.232 726.844 345.123 727.627 345.123 729.382L345.069 729.706ZM351.899 719.365C350.927 719.365 350.333 719.986 350.333 720.931C350.333 721.876 350.873 722.443 351.818 722.443C352.736 722.443 353.33 721.822 353.33 720.85C353.33 719.932 352.817 719.365 351.899 719.365ZM352.979 732.163L353.195 725.116L350.441 725.359L350.576 732.406L350.414 737.617H353.168L352.979 732.163ZM366.05 731.515L366.509 731.083C366.563 730.759 366.617 730.111 366.617 729.733C366.617 726.763 364.97 724.954 362.081 724.954C358.463 724.954 356.114 727.411 356.114 731.461C356.114 735.403 358.274 737.86 362 737.86C363.296 737.86 364.619 737.509 365.78 736.942L366.104 734.755L365.861 734.593C364.646 735.322 363.323 735.727 362.216 735.727C359.84 735.727 358.706 734.188 358.652 731.515H366.05ZM364.106 729.706L358.787 729.841C359.138 727.924 360.272 726.844 361.919 726.844C363.269 726.844 364.16 727.627 364.16 729.382L364.106 729.706ZM377.528 724.954C374.666 724.954 372.992 726.574 372.992 728.707C372.992 732.622 378.581 732.109 378.581 734.404C378.581 735.214 377.879 735.997 376.664 735.997C375.665 735.997 374.288 735.484 373.208 734.539L372.911 734.728L372.587 737.023C373.829 737.563 375.179 737.86 376.367 737.86C379.472 737.86 381.038 735.943 381.038 733.945C381.038 730.138 375.449 730.624 375.449 728.356C375.449 727.573 376.097 726.871 377.204 726.871C378.041 726.871 378.986 727.168 379.958 727.816L380.309 727.735L380.687 725.575C379.688 725.17 378.581 724.954 377.528 724.954ZM388.706 724.927C385.142 724.927 383.009 727.438 383.009 731.515C383.009 735.457 385.007 737.86 388.382 737.86C389.489 737.86 390.677 737.617 391.676 737.239L391.946 735.025L391.703 734.863C390.785 735.349 389.732 735.673 388.814 735.673C386.762 735.673 385.601 734.053 385.601 731.299C385.601 728.68 386.735 727.195 388.652 727.195C389.57 727.195 390.461 727.546 391.298 728.032L391.568 727.924L392.027 725.629C391.136 725.197 389.867 724.927 388.706 724.927ZM401.958 737.617H404.739L404.604 732.163L404.685 728.653C404.712 726.331 403.281 725.008 400.5 725.008C399.42 725.332 398.259 725.98 397.179 726.925H397.017L397.152 718.663L394.398 718.879L394.533 732.379L394.371 737.617H397.125L396.936 732.136L396.99 728.869C398.043 727.843 399.15 727.249 400.23 727.249C401.526 727.249 402.174 728.086 402.147 729.436L401.958 737.617ZM409.881 719.365C408.909 719.365 408.315 719.986 408.315 720.931C408.315 721.876 408.855 722.443 409.8 722.443C410.718 722.443 411.312 721.822 411.312 720.85C411.312 719.932 410.799 719.365 409.881 719.365ZM410.961 732.163L411.177 725.116L408.423 725.359L408.558 732.406L408.396 737.617H411.15L410.961 732.163ZM417.714 732.136L417.93 718.663L415.176 718.879L415.338 732.379L415.149 737.617H417.903L417.714 732.136ZM431.616 732.136L431.832 718.663L429.078 718.879L429.132 725.17C428.43 725.035 427.701 724.954 427.026 724.954C423.219 724.954 420.897 727.276 420.897 731.434C420.897 735.43 422.868 737.779 426.486 737.779C427.566 737.293 428.268 736.78 429.294 735.916H429.51C429.699 736.969 430.374 737.698 431.508 737.806C432.156 737.725 432.75 737.509 433.236 737.212L433.479 735.7L433.236 735.511C432.858 735.592 432.615 735.619 432.399 735.619C431.886 735.619 431.724 735.403 431.697 734.728L431.616 732.136ZM426.756 726.844C427.539 726.844 428.295 727.06 429.159 727.465L429.24 732.379L429.186 734.134C428.214 735.214 427.377 735.538 426.54 735.538C424.65 735.538 423.516 733.999 423.489 731.11C423.435 728.221 424.731 726.844 426.756 726.844ZM444.914 731.515L445.373 731.083C445.427 730.759 445.481 730.111 445.481 729.733C445.481 726.763 443.834 724.954 440.945 724.954C437.327 724.954 434.978 727.411 434.978 731.461C434.978 735.403 437.138 737.86 440.864 737.86C442.16 737.86 443.483 737.509 444.644 736.942L444.968 734.755L444.725 734.593C443.51 735.322 442.187 735.727 441.08 735.727C438.704 735.727 437.57 734.188 437.516 731.515H444.914ZM442.97 729.706L437.651 729.841C438.002 727.924 439.136 726.844 440.783 726.844C442.133 726.844 443.024 727.627 443.024 729.382L442.97 729.706ZM454.525 725.143C453.445 725.143 452.149 725.737 451.123 727.6H450.934L450.961 725.116L448.342 725.359L448.504 732.406L448.315 737.617H451.069L450.88 732.163L450.907 730.381C451.852 728.518 452.797 727.762 453.904 727.762C454.147 727.762 454.525 727.789 454.903 727.897L455.2 727.816V725.197C455.011 725.17 454.741 725.143 454.525 725.143ZM461.033 724.954C458.171 724.954 456.497 726.574 456.497 728.707C456.497 732.622 462.086 732.109 462.086 734.404C462.086 735.214 461.384 735.997 460.169 735.997C459.17 735.997 457.793 735.484 456.713 734.539L456.416 734.728L456.092 737.023C457.334 737.563 458.684 737.86 459.872 737.86C462.977 737.86 464.543 735.943 464.543 733.945C464.543 730.138 458.954 730.624 458.954 728.356C458.954 727.573 459.602 726.871 460.709 726.871C461.546 726.871 462.491 727.168 463.463 727.816L463.814 727.735L464.192 725.575C463.193 725.17 462.086 724.954 461.033 724.954ZM468.711 734.755C467.982 734.944 467.334 735.268 466.74 735.646V735.889C467.307 736.294 467.577 736.753 467.577 737.32C467.577 738.184 467.091 738.994 466.092 739.804L466.119 740.02L467.01 740.83C468.927 739.453 469.872 738.13 469.872 736.78C469.872 735.97 469.467 735.295 468.711 734.755ZM205.79 763.515L206.249 763.083C206.303 762.759 206.357 762.111 206.357 761.733C206.357 758.763 204.71 756.954 201.821 756.954C198.203 756.954 195.854 759.411 195.854 763.461C195.854 767.403 198.014 769.86 201.74 769.86C203.036 769.86 204.359 769.509 205.52 768.942L205.844 766.755L205.601 766.593C204.386 767.322 203.063 767.727 201.956 767.727C199.58 767.727 198.446 766.188 198.392 763.515H205.79ZM203.846 761.706L198.527 761.841C198.878 759.924 200.012 758.844 201.659 758.844C203.009 758.844 203.9 759.627 203.9 761.382L203.846 761.706ZM216.778 769.617H219.559L219.424 764.163L219.505 760.653C219.532 758.331 218.101 757.008 215.32 757.008C214.24 757.332 213.079 757.98 211.999 758.925H211.81L211.837 757.116L209.218 757.359L209.353 764.406L209.191 769.617H211.945L211.783 764.163L211.81 760.869C212.863 759.843 213.97 759.249 215.05 759.249C216.346 759.249 216.994 760.086 216.967 761.436L216.778 769.617ZM235.265 769.617H238.046L237.911 764.163L237.992 760.653C238.019 758.331 236.588 757.008 233.807 757.008C232.727 757.332 231.566 757.98 230.486 758.925H230.324L230.459 750.663L227.705 750.879L227.84 764.379L227.678 769.617H230.432L230.243 764.136L230.297 760.869C231.35 759.843 232.457 759.249 233.537 759.249C234.833 759.249 235.481 760.086 235.454 761.436L235.265 769.617ZM243.187 751.365C242.215 751.365 241.621 751.986 241.621 752.931C241.621 753.876 242.161 754.443 243.106 754.443C244.024 754.443 244.618 753.822 244.618 752.85C244.618 751.932 244.105 751.365 243.187 751.365ZM244.267 764.163L244.483 757.116L241.729 757.359L241.864 764.406L241.702 769.617H244.456L244.267 764.163ZM250.021 751.365C249.049 751.365 248.455 751.986 248.455 752.931C248.455 753.876 248.995 754.443 249.94 754.443C250.858 754.443 251.452 753.822 251.452 752.85C251.452 751.932 250.939 751.365 250.021 751.365ZM251.749 757.17L251.668 757.116L249.103 757.224H246.619L246.484 758.79L246.673 758.979H249.049L249.157 764.406L249.13 769.131C249.13 771.21 248.482 772.317 246.646 773.343V773.64L247.645 774.855C250.561 773.451 251.695 771.858 251.695 769.023L251.56 764.163L251.749 757.17ZM261.43 758.844L261.16 757.089L258.649 757.224L262.024 769.617H264.724L267.397 760.653H267.613L269.908 769.617H272.527L276.523 757.17H274.174L273.742 758.979L271.447 766.755H271.285L269.287 758.844L268.99 757.17H266.344L265.885 758.979L263.59 766.755H263.401L261.43 758.844ZM280.048 751.365C279.076 751.365 278.482 751.986 278.482 752.931C278.482 753.876 279.022 754.443 279.967 754.443C280.885 754.443 281.479 753.822 281.479 752.85C281.479 751.932 280.966 751.365 280.048 751.365ZM281.128 764.163L281.344 757.116L278.59 757.359L278.725 764.406L278.563 769.617H281.317L281.128 764.163ZM287.882 764.136L288.098 750.663L285.344 750.879L285.506 764.379L285.317 769.617H288.071L287.882 764.136ZM305.379 763.515L305.838 763.083C305.892 762.759 305.946 762.111 305.946 761.733C305.946 758.763 304.299 756.954 301.41 756.954C297.792 756.954 295.443 759.411 295.443 763.461C295.443 767.403 297.603 769.86 301.329 769.86C302.625 769.86 303.948 769.509 305.109 768.942L305.433 766.755L305.19 766.593C303.975 767.322 302.652 767.727 301.545 767.727C299.169 767.727 298.035 766.188 297.981 763.515H305.379ZM303.435 761.706L298.116 761.841C298.467 759.924 299.601 758.844 301.248 758.844C302.598 758.844 303.489 759.627 303.489 761.382L303.435 761.706ZM316.367 769.617H319.148L319.013 764.163L319.094 760.653C319.121 758.331 317.69 757.008 314.909 757.008C313.829 757.332 312.668 757.98 311.588 758.925H311.399L311.426 757.116L308.807 757.359L308.942 764.406L308.78 769.617H311.534L311.372 764.163L311.399 760.869C312.452 759.843 313.559 759.249 314.639 759.249C315.935 759.249 316.583 760.086 316.556 761.436L316.367 769.617ZM325.508 764.136L325.724 750.663L322.97 750.879L323.105 764.379L322.943 769.617H325.697L325.508 764.136ZM333.149 757.17H330.152L329.477 758.358L325.913 762.894V763.083C327.344 765.378 328.937 767.592 330.611 769.752L330.935 769.86C331.772 769.752 332.609 769.671 333.446 769.455V769.131C331.799 767.106 330.098 764.973 328.586 762.84L333.149 757.17ZM344.139 763.515L344.598 763.083C344.652 762.759 344.706 762.111 344.706 761.733C344.706 758.763 343.059 756.954 340.17 756.954C336.552 756.954 334.203 759.411 334.203 763.461C334.203 767.403 336.363 769.86 340.089 769.86C341.385 769.86 342.708 769.509 343.869 768.942L344.193 766.755L343.95 766.593C342.735 767.322 341.412 767.727 340.305 767.727C337.929 767.727 336.795 766.188 336.741 763.515H344.139ZM342.195 761.706L336.876 761.841C337.227 759.924 338.361 758.844 340.008 758.844C341.358 758.844 342.249 759.627 342.249 761.382L342.195 761.706ZM350.161 764.136L350.377 750.663L347.623 750.879L347.785 764.379L347.596 769.617H350.35L350.161 764.136ZM366.363 769.617H369.144L369.009 764.163L369.09 760.653C369.117 758.331 367.686 757.008 364.905 757.008C363.825 757.332 362.664 757.98 361.584 758.925H361.422L361.557 750.663L358.803 750.879L358.938 764.379L358.776 769.617H361.53L361.341 764.136L361.395 760.869C362.448 759.843 363.555 759.249 364.635 759.249C365.931 759.249 366.579 760.086 366.552 761.436L366.363 769.617ZM381.818 763.515L382.277 763.083C382.331 762.759 382.385 762.111 382.385 761.733C382.385 758.763 380.738 756.954 377.849 756.954C374.231 756.954 371.882 759.411 371.882 763.461C371.882 767.403 374.042 769.86 377.768 769.86C379.064 769.86 380.387 769.509 381.548 768.942L381.872 766.755L381.629 766.593C380.414 767.322 379.091 767.727 377.984 767.727C375.608 767.727 374.474 766.188 374.42 763.515H381.818ZM379.874 761.706L374.555 761.841C374.906 759.924 376.04 758.844 377.687 758.844C379.037 758.844 379.928 759.627 379.928 761.382L379.874 761.706ZM389.62 767.538C388.513 767.538 388.027 767.106 388.054 765.756L388.189 758.979H391.672L391.807 757.413L391.699 757.224H388.243L388.297 754.551L388.054 754.335L385.624 755.253V757.224H383.977L383.842 758.817L383.95 758.979H385.651L385.678 764.244L385.57 766.188C385.57 768.321 386.515 769.428 388.756 769.779C389.701 769.698 390.538 769.428 391.51 768.969L391.78 767.241L391.51 767.052C390.781 767.403 390.187 767.538 389.62 767.538ZM201.254 788.927C199.607 788.927 197.933 789.494 196.394 790.547L196.745 792.464L196.961 792.599C198.419 791.411 199.607 790.871 200.822 790.871C202.064 790.871 202.766 791.546 202.766 792.896L202.739 794.354L198.473 795.299C196.799 795.677 195.854 796.595 195.854 798.296C195.854 800.456 197.339 801.806 199.85 801.833C200.876 801.428 201.794 800.726 202.658 799.808H202.847C202.982 800.969 203.711 801.698 204.818 801.806C205.439 801.725 206.033 801.509 206.519 801.212L206.789 799.7L206.546 799.511C206.141 799.592 205.925 799.619 205.736 799.619C205.169 799.619 204.953 799.403 204.953 798.701C204.953 797.783 205.277 793.247 205.277 792.302C205.277 790.169 203.711 788.927 201.254 788.927ZM202.739 795.947L202.658 798.026C201.767 799.052 200.903 799.673 199.958 799.673C198.959 799.673 198.311 799.052 198.311 797.945C198.311 797.216 198.581 796.919 199.229 796.784L202.739 795.947ZM212.155 796.136L212.371 782.663L209.617 782.879L209.779 796.379L209.59 801.617H212.344L212.155 796.136ZM219.011 796.136L219.227 782.663L216.473 782.879L216.635 796.379L216.446 801.617H219.2L219.011 796.136ZM232.184 795.515L232.643 795.083C232.697 794.759 232.751 794.111 232.751 793.733C232.751 790.763 231.104 788.954 228.215 788.954C224.597 788.954 222.248 791.411 222.248 795.461C222.248 799.403 224.408 801.86 228.134 801.86C229.43 801.86 230.753 801.509 231.914 800.942L232.238 798.755L231.995 798.593C230.78 799.322 229.457 799.727 228.35 799.727C225.974 799.727 224.84 798.188 224.786 795.515H232.184ZM230.24 793.706L224.921 793.841C225.272 791.924 226.406 790.844 228.053 790.844C229.403 790.844 230.294 791.627 230.294 793.382L230.24 793.706ZM241.795 789.143C240.715 789.143 239.419 789.737 238.393 791.6H238.204L238.231 789.116L235.612 789.359L235.774 796.406L235.585 801.617H238.339L238.15 796.163L238.177 794.381C239.122 792.518 240.067 791.762 241.174 791.762C241.417 791.762 241.795 791.789 242.173 791.897L242.47 791.816V789.197C242.281 789.17 242.011 789.143 241.795 789.143ZM250.627 789.035C249.385 789.44 248.548 789.926 247.387 790.898H247.225L247.333 782.663L244.579 782.879L244.741 796.433L244.552 801.671L244.984 801.941L246.685 801.239C247.576 801.644 248.521 801.86 249.439 801.86C253.165 801.86 255.46 799.43 255.46 795.002C255.46 791.276 253.813 789.035 250.627 789.035ZM249.547 799.97C248.818 799.97 248.035 799.727 247.225 799.241L247.144 796.109L247.198 792.869C248.278 791.735 249.223 791.249 250.168 791.249C251.923 791.249 252.841 792.761 252.895 795.38C252.922 798.539 251.572 799.97 249.547 799.97ZM267.384 795.515L267.843 795.083C267.897 794.759 267.951 794.111 267.951 793.733C267.951 790.763 266.304 788.954 263.415 788.954C259.797 788.954 257.448 791.411 257.448 795.461C257.448 799.403 259.608 801.86 263.334 801.86C264.63 801.86 265.953 801.509 267.114 800.942L267.438 798.755L267.195 798.593C265.98 799.322 264.657 799.727 263.55 799.727C261.174 799.727 260.04 798.188 259.986 795.515H267.384ZM265.44 793.706L260.121 793.841C260.472 791.924 261.606 790.844 263.253 790.844C264.603 790.844 265.494 791.627 265.494 793.382L265.44 793.706ZM274.538 788.954C271.676 788.954 270.002 790.574 270.002 792.707C270.002 796.622 275.591 796.109 275.591 798.404C275.591 799.214 274.889 799.997 273.674 799.997C272.675 799.997 271.298 799.484 270.218 798.539L269.921 798.728L269.597 801.023C270.839 801.563 272.189 801.86 273.377 801.86C276.482 801.86 278.048 799.943 278.048 797.945C278.048 794.138 272.459 794.624 272.459 792.356C272.459 791.573 273.107 790.871 274.214 790.871C275.051 790.871 275.996 791.168 276.968 791.816L277.319 791.735L277.697 789.575C276.698 789.17 275.591 788.954 274.538 788.954ZM285.338 799.538C284.231 799.538 283.745 799.106 283.772 797.756L283.907 790.979H287.39L287.525 789.413L287.417 789.224H283.961L284.015 786.551L283.772 786.335L281.342 787.253V789.224H279.695L279.56 790.817L279.668 790.979H281.369L281.396 796.244L281.288 798.188C281.288 800.321 282.233 801.428 284.474 801.779C285.419 801.698 286.256 801.428 287.228 800.969L287.498 799.241L287.228 799.052C286.499 799.403 285.905 799.538 285.338 799.538ZM298.418 795.515L298.877 795.083C298.931 794.759 298.985 794.111 298.985 793.733C298.985 790.763 297.338 788.954 294.449 788.954C290.831 788.954 288.482 791.411 288.482 795.461C288.482 799.403 290.642 801.86 294.368 801.86C295.664 801.86 296.987 801.509 298.148 800.942L298.472 798.755L298.229 798.593C297.014 799.322 295.691 799.727 294.584 799.727C292.208 799.727 291.074 798.188 291.02 795.515H298.418ZM296.474 793.706L291.155 793.841C291.506 791.924 292.64 790.844 294.287 790.844C295.637 790.844 296.528 791.627 296.528 793.382L296.474 793.706ZM307.602 790.925L307.251 789.089L304.713 789.224L308.412 801.617H311.382L315.783 789.17H313.353L312.894 791.06L310.14 798.971H309.951L307.602 790.925ZM322.316 788.927C318.59 788.927 316.511 791.33 316.511 795.596C316.511 799.592 318.482 801.86 321.965 801.86C325.691 801.86 327.77 799.457 327.77 795.191C327.77 791.195 325.799 788.927 322.316 788.927ZM322.154 790.844C324.179 790.844 325.205 792.41 325.205 795.812C325.205 798.647 324.179 799.97 322.154 799.97C320.102 799.97 319.076 798.431 319.076 795.002C319.076 792.221 320.102 790.844 322.154 790.844ZM335.605 788.927C331.879 788.927 329.8 791.33 329.8 795.596C329.8 799.592 331.771 801.86 335.254 801.86C338.98 801.86 341.059 799.457 341.059 795.191C341.059 791.195 339.088 788.927 335.605 788.927ZM335.443 790.844C337.468 790.844 338.494 792.41 338.494 795.812C338.494 798.647 337.468 799.97 335.443 799.97C333.391 799.97 332.365 798.431 332.365 795.002C332.365 792.221 333.391 790.844 335.443 790.844ZM350.217 789.143C349.137 789.143 347.841 789.737 346.815 791.6H346.626L346.653 789.116L344.034 789.359L344.196 796.406L344.007 801.617H346.761L346.572 796.163L346.599 794.381C347.544 792.518 348.489 791.762 349.596 791.762C349.839 791.762 350.217 791.789 350.595 791.897L350.892 791.816V789.197C350.703 789.17 350.433 789.143 350.217 789.143ZM358.997 789.17L356.54 789.116L356.351 791.006L356.513 791.222L358.592 791.006H362.804L356.189 800.051L356.216 801.671L357.674 801.617H362.858L365.639 801.671L365.855 799.781L365.693 799.565L363.533 799.781H359.105L365.693 790.79L365.639 789.143L364.451 789.17H358.997ZM370.04 783.365C369.068 783.365 368.474 783.986 368.474 784.931C368.474 785.876 369.014 786.443 369.959 786.443C370.877 786.443 371.471 785.822 371.471 784.85C371.471 783.932 370.958 783.365 370.04 783.365ZM371.12 796.163L371.336 789.116L368.582 789.359L368.717 796.406L368.555 801.617H371.309L371.12 796.163ZM376.874 783.365C375.902 783.365 375.308 783.986 375.308 784.931C375.308 785.876 375.848 786.443 376.793 786.443C377.711 786.443 378.305 785.822 378.305 784.85C378.305 783.932 377.792 783.365 376.874 783.365ZM378.602 789.17L378.521 789.116L375.956 789.224H373.472L373.337 790.79L373.526 790.979H375.902L376.01 796.406L375.983 801.131C375.983 803.21 375.335 804.317 373.499 805.343V805.64L374.498 806.855C377.414 805.451 378.548 803.858 378.548 801.023L378.413 796.163L378.602 789.17ZM390.195 801.617H392.976L392.841 796.163L392.922 792.653C392.949 790.331 391.518 789.008 388.737 789.008C387.657 789.332 386.496 789.98 385.416 790.925H385.227L385.254 789.116L382.635 789.359L382.77 796.406L382.608 801.617H385.362L385.2 796.163L385.227 792.869C386.28 791.843 387.387 791.249 388.467 791.249C389.763 791.249 390.411 792.086 390.384 793.436L390.195 801.617ZM403.66 796.136L403.876 782.663L401.122 782.879L401.257 796.379L401.095 801.617H403.849L403.66 796.136ZM411.301 789.17H408.304L407.629 790.358L404.065 794.894V795.083C405.496 797.378 407.089 799.592 408.763 801.752L409.087 801.86C409.924 801.752 410.761 801.671 411.598 801.455V801.131C409.951 799.106 408.25 796.973 406.738 794.84L411.301 789.17ZM422.291 795.515L422.75 795.083C422.804 794.759 422.858 794.111 422.858 793.733C422.858 790.763 421.211 788.954 418.322 788.954C414.704 788.954 412.355 791.411 412.355 795.461C412.355 799.403 414.515 801.86 418.241 801.86C419.537 801.86 420.86 801.509 422.021 800.942L422.345 798.755L422.102 798.593C420.887 799.322 419.564 799.727 418.457 799.727C416.081 799.727 414.947 798.188 414.893 795.515H422.291ZM420.347 793.706L415.028 793.841C415.379 791.924 416.513 790.844 418.16 790.844C419.51 790.844 420.401 791.627 420.401 793.382L420.347 793.706ZM431.902 789.143C430.822 789.143 429.526 789.737 428.5 791.6H428.311L428.338 789.116L425.719 789.359L425.881 796.406L425.692 801.617H428.446L428.257 796.163L428.284 794.381C429.229 792.518 430.174 791.762 431.281 791.762C431.524 791.762 431.902 791.789 432.28 791.897L432.577 791.816V789.197C432.388 789.17 432.118 789.143 431.902 789.143ZM437.252 796.136L437.468 782.663L434.714 782.879L434.849 796.379L434.687 801.617H437.441L437.252 796.136ZM444.893 789.17H441.896L441.221 790.358L437.657 794.894V795.083C439.088 797.378 440.681 799.592 442.355 801.752L442.679 801.86C443.516 801.752 444.353 801.671 445.19 801.455V801.131C443.543 799.106 441.842 796.973 440.33 794.84L444.893 789.17ZM448.502 798.701C447.53 798.701 446.936 799.322 446.936 800.267C446.936 801.212 447.476 801.779 448.421 801.779C449.339 801.779 449.933 801.158 449.933 800.186C449.933 799.268 449.42 798.701 448.502 798.701ZM214.754 833.617L213.107 816.283H209.948L209.138 818.794L205.628 828.082H205.412L202.091 818.875L201.281 816.283H198.095L196.286 833.617H198.635L199.067 828.109L199.877 820.522H200.12L204.251 831.7H206.465L210.92 820.522H211.109L211.919 828.352L212.27 833.617H214.754ZM219.641 815.365C218.669 815.365 218.075 815.986 218.075 816.931C218.075 817.876 218.615 818.443 219.56 818.443C220.478 818.443 221.072 817.822 221.072 816.85C221.072 815.932 220.559 815.365 219.641 815.365ZM220.721 828.163L220.937 821.116L218.183 821.359L218.318 828.406L218.156 833.617H220.91L220.721 828.163ZM228.527 820.954C225.665 820.954 223.991 822.574 223.991 824.707C223.991 828.622 229.58 828.109 229.58 830.404C229.58 831.214 228.878 831.997 227.663 831.997C226.664 831.997 225.287 831.484 224.207 830.539L223.91 830.728L223.586 833.023C224.828 833.563 226.178 833.86 227.366 833.86C230.471 833.86 232.037 831.943 232.037 829.945C232.037 826.138 226.448 826.624 226.448 824.356C226.448 823.573 227.096 822.871 228.203 822.871C229.04 822.871 229.985 823.168 230.957 823.816L231.308 823.735L231.686 821.575C230.687 821.17 229.58 820.954 228.527 820.954ZM238.679 820.954C235.817 820.954 234.143 822.574 234.143 824.707C234.143 828.622 239.732 828.109 239.732 830.404C239.732 831.214 239.03 831.997 237.815 831.997C236.816 831.997 235.439 831.484 234.359 830.539L234.062 830.728L233.738 833.023C234.98 833.563 236.33 833.86 237.518 833.86C240.623 833.86 242.189 831.943 242.189 829.945C242.189 826.138 236.6 826.624 236.6 824.356C236.6 823.573 237.248 822.871 238.355 822.871C239.192 822.871 240.137 823.168 241.109 823.816L241.46 823.735L241.838 821.575C240.839 821.17 239.732 820.954 238.679 820.954ZM249.856 820.927C246.292 820.927 244.159 823.438 244.159 827.515C244.159 831.457 246.157 833.86 249.532 833.86C250.639 833.86 251.827 833.617 252.826 833.239L253.096 831.025L252.853 830.863C251.935 831.349 250.882 831.673 249.964 831.673C247.912 831.673 246.751 830.053 246.751 827.299C246.751 824.68 247.885 823.195 249.802 823.195C250.72 823.195 251.611 823.546 252.448 824.032L252.718 823.924L253.177 821.629C252.286 821.197 251.017 820.927 249.856 820.927ZM263.109 833.617H265.89L265.755 828.163L265.836 824.653C265.863 822.331 264.432 821.008 261.651 821.008C260.571 821.332 259.41 821.98 258.33 822.925H258.168L258.303 814.663L255.549 814.879L255.684 828.379L255.522 833.617H258.276L258.087 828.136L258.141 824.869C259.194 823.843 260.301 823.249 261.381 823.249C262.677 823.249 263.325 824.086 263.298 825.436L263.109 833.617ZM271.031 815.365C270.059 815.365 269.465 815.986 269.465 816.931C269.465 817.876 270.005 818.443 270.95 818.443C271.868 818.443 272.462 817.822 272.462 816.85C272.462 815.932 271.949 815.365 271.031 815.365ZM272.111 828.163L272.327 821.116L269.573 821.359L269.708 828.406L269.546 833.617H272.3L272.111 828.163ZM285.182 827.515L285.641 827.083C285.695 826.759 285.749 826.111 285.749 825.733C285.749 822.763 284.102 820.954 281.213 820.954C277.595 820.954 275.246 823.411 275.246 827.461C275.246 831.403 277.406 833.86 281.132 833.86C282.428 833.86 283.751 833.509 284.912 832.942L285.236 830.755L284.993 830.593C283.778 831.322 282.455 831.727 281.348 831.727C278.972 831.727 277.838 830.188 277.784 827.515H285.182ZM283.238 825.706L277.919 825.841C278.27 823.924 279.404 822.844 281.051 822.844C282.401 822.844 283.292 823.627 283.292 825.382L283.238 825.706ZM296.17 833.617H298.951L298.816 828.163L298.897 824.653C298.924 822.331 297.493 821.008 294.712 821.008C293.632 821.332 292.471 821.98 291.391 822.925H291.202L291.229 821.116L288.61 821.359L288.745 828.406L288.583 833.617H291.337L291.175 828.163L291.202 824.869C292.255 823.843 293.362 823.249 294.442 823.249C295.738 823.249 296.386 824.086 296.359 825.436L296.17 833.617ZM309.635 828.136L309.851 814.663L307.097 814.879L307.232 828.379L307.07 833.617H309.824L309.635 828.136ZM317.276 821.17H314.279L313.604 822.358L310.04 826.894V827.083C311.471 829.378 313.064 831.592 314.738 833.752L315.062 833.86C315.899 833.752 316.736 833.671 317.573 833.455V833.131C315.926 831.106 314.225 828.973 312.713 826.84L317.276 821.17ZM323.651 820.927C322.004 820.927 320.33 821.494 318.791 822.547L319.142 824.464L319.358 824.599C320.816 823.411 322.004 822.871 323.219 822.871C324.461 822.871 325.163 823.546 325.163 824.896L325.136 826.354L320.87 827.299C319.196 827.677 318.251 828.595 318.251 830.296C318.251 832.456 319.736 833.806 322.247 833.833C323.273 833.428 324.191 832.726 325.055 831.808H325.244C325.379 832.969 326.108 833.698 327.215 833.806C327.836 833.725 328.43 833.509 328.916 833.212L329.186 831.7L328.943 831.511C328.538 831.592 328.322 831.619 328.133 831.619C327.566 831.619 327.35 831.403 327.35 830.701C327.35 829.783 327.674 825.247 327.674 824.302C327.674 822.169 326.108 820.927 323.651 820.927ZM325.136 827.947L325.055 830.026C324.164 831.052 323.3 831.673 322.355 831.673C321.356 831.673 320.708 831.052 320.708 829.945C320.708 829.216 320.978 828.919 321.626 828.784L325.136 827.947ZM339.439 833.617H342.22L342.085 828.163L342.166 824.653C342.193 822.331 340.762 821.008 337.981 821.008C336.901 821.332 335.74 821.98 334.66 822.925H334.471L334.498 821.116L331.879 821.359L332.014 828.406L331.852 833.617H334.606L334.444 828.163L334.471 824.869C335.524 823.843 336.631 823.249 337.711 823.249C339.007 823.249 339.655 824.086 339.628 825.436L339.439 833.617ZM357.925 833.617H360.706L360.571 828.163L360.652 824.653C360.679 822.331 359.248 821.008 356.467 821.008C355.387 821.332 354.226 821.98 353.146 822.925H352.984L353.119 814.663L350.365 814.879L350.5 828.379L350.338 833.617H353.092L352.903 828.136L352.957 824.869C354.01 823.843 355.117 823.249 356.197 823.249C357.493 823.249 358.141 824.086 358.114 825.436L357.925 833.617ZM365.847 815.365C364.875 815.365 364.281 815.986 364.281 816.931C364.281 817.876 364.821 818.443 365.766 818.443C366.684 818.443 367.278 817.822 367.278 816.85C367.278 815.932 366.765 815.365 365.847 815.365ZM366.927 828.163L367.143 821.116L364.389 821.359L364.524 828.406L364.362 833.617H367.116L366.927 828.163ZM372.681 815.365C371.709 815.365 371.115 815.986 371.115 816.931C371.115 817.876 371.655 818.443 372.6 818.443C373.518 818.443 374.112 817.822 374.112 816.85C374.112 815.932 373.599 815.365 372.681 815.365ZM374.409 821.17L374.328 821.116L371.763 821.224H369.279L369.144 822.79L369.333 822.979H371.709L371.817 828.406L371.79 833.131C371.79 835.21 371.142 836.317 369.306 837.343V837.64L370.305 838.855C373.221 837.451 374.355 835.858 374.355 833.023L374.22 828.163L374.409 821.17ZM391.083 826.678C393.243 825.544 394.512 823.627 394.512 821.305C394.512 818.038 392.514 816.256 389.031 816.256L383.145 816.283L383.334 828.406L383.145 833.617H385.98L385.845 828.163V827.434H388.788C389.922 829.54 391.164 831.619 392.406 833.644L392.73 833.86C393.648 833.779 394.539 833.59 395.403 833.293L395.43 832.969C393.864 830.89 392.406 828.811 391.083 826.678ZM385.899 825.166L385.98 818.524L388.275 818.443C390.462 818.524 391.596 819.469 391.596 821.521C391.596 823.492 390.651 824.707 388.869 825.247L385.899 825.166ZM407.52 821.116L404.901 821.359V830.134C403.956 831.025 402.93 831.511 401.958 831.511C400.689 831.511 400.068 830.701 400.095 829.378L400.23 821.116L397.503 821.359L397.611 826.759L397.557 830.134C397.53 832.456 398.988 833.779 401.715 833.779C402.795 833.482 403.875 832.861 404.955 831.889H405.171C405.387 832.969 406.035 833.698 407.169 833.806C407.817 833.725 408.384 833.509 408.87 833.212L409.14 831.7L408.897 831.511C408.519 831.592 408.276 831.619 408.06 831.619C407.52 831.619 407.331 831.403 407.331 830.728L407.52 821.116ZM417.716 821.035C416.474 821.44 415.637 821.926 414.476 822.898H414.314L414.422 814.663L411.668 814.879L411.83 828.433L411.641 833.671L412.073 833.941L413.774 833.239C414.665 833.644 415.61 833.86 416.528 833.86C420.254 833.86 422.549 831.43 422.549 827.002C422.549 823.276 420.902 821.035 417.716 821.035ZM416.636 831.97C415.907 831.97 415.124 831.727 414.314 831.241L414.233 828.109L414.287 824.869C415.367 823.735 416.312 823.249 417.257 823.249C419.012 823.249 419.93 824.761 419.984 827.38C420.011 830.539 418.661 831.97 416.636 831.97ZM434.473 827.515L434.932 827.083C434.986 826.759 435.04 826.111 435.04 825.733C435.04 822.763 433.393 820.954 430.504 820.954C426.886 820.954 424.537 823.411 424.537 827.461C424.537 831.403 426.697 833.86 430.423 833.86C431.719 833.86 433.042 833.509 434.203 832.942L434.527 830.755L434.284 830.593C433.069 831.322 431.746 831.727 430.639 831.727C428.263 831.727 427.129 830.188 427.075 827.515H434.473ZM432.529 825.706L427.21 825.841C427.561 823.924 428.695 822.844 430.342 822.844C431.692 822.844 432.583 823.627 432.583 825.382L432.529 825.706ZM445.461 833.617H448.242L448.107 828.163L448.188 824.653C448.215 822.331 446.784 821.008 444.003 821.008C442.923 821.332 441.762 821.98 440.682 822.925H440.493L440.52 821.116L437.901 821.359L438.036 828.406L437.874 833.617H440.628L440.466 828.163L440.493 824.869C441.546 823.843 442.653 823.249 443.733 823.249C445.029 823.249 445.677 824.086 445.65 825.436L445.461 833.617ZM455.654 820.954C452.792 820.954 451.118 822.574 451.118 824.707C451.118 828.622 456.707 828.109 456.707 830.404C456.707 831.214 456.005 831.997 454.79 831.997C453.791 831.997 452.414 831.484 451.334 830.539L451.037 830.728L450.713 833.023C451.955 833.563 453.305 833.86 454.493 833.86C457.598 833.86 459.164 831.943 459.164 829.945C459.164 826.138 453.575 826.624 453.575 824.356C453.575 823.573 454.223 822.871 455.33 822.871C456.167 822.871 457.112 823.168 458.084 823.816L458.435 823.735L458.813 821.575C457.814 821.17 456.707 820.954 455.654 820.954ZM198.23 854.925L197.879 853.089L195.341 853.224L199.04 865.617H202.01L206.411 853.17H203.981L203.522 855.06L200.768 862.971H200.579L198.23 854.925ZM214.663 853.143C213.583 853.143 212.287 853.737 211.261 855.6H211.072L211.099 853.116L208.48 853.359L208.642 860.406L208.453 865.617H211.207L211.018 860.163L211.045 858.381C211.99 856.518 212.935 855.762 214.042 855.762C214.285 855.762 214.663 855.789 215.041 855.897L215.338 855.816V853.197C215.149 853.17 214.879 853.143 214.663 853.143ZM221.636 852.927C219.989 852.927 218.315 853.494 216.776 854.547L217.127 856.464L217.343 856.599C218.801 855.411 219.989 854.871 221.204 854.871C222.446 854.871 223.148 855.546 223.148 856.896L223.121 858.354L218.855 859.299C217.181 859.677 216.236 860.595 216.236 862.296C216.236 864.456 217.721 865.806 220.232 865.833C221.258 865.428 222.176 864.726 223.04 863.808H223.229C223.364 864.969 224.093 865.698 225.2 865.806C225.821 865.725 226.415 865.509 226.901 865.212L227.171 863.7L226.928 863.511C226.523 863.592 226.307 863.619 226.118 863.619C225.551 863.619 225.335 863.403 225.335 862.701C225.335 861.783 225.659 857.247 225.659 856.302C225.659 854.169 224.093 852.927 221.636 852.927ZM223.121 859.947L223.04 862.026C222.149 863.052 221.285 863.673 220.34 863.673C219.341 863.673 218.693 863.052 218.693 861.945C218.693 861.216 218.963 860.919 219.611 860.784L223.121 859.947ZM241.285 852.684L241.042 852.522C239.746 852.927 238.396 853.251 237.046 853.467C236.344 853.17 235.534 853.008 234.562 853.008C231.511 853.008 229.513 854.628 229.513 857.409C229.513 858.975 230.161 860.19 231.376 860.865V861C230.647 861.459 230.08 862.026 229.648 862.647C229.648 863.916 230.485 864.537 231.619 864.915V865.05C230.701 865.644 229.864 866.292 229.297 867.237C229.297 869.316 230.944 870.855 234.076 870.855C237.478 870.855 240.043 869.019 240.043 866.616C240.043 862.485 232.105 864.186 232.105 862.269C232.105 861.972 232.24 861.729 232.672 861.378C233.185 861.486 233.725 861.54 234.319 861.54C237.478 861.54 239.422 859.839 239.422 857.193C239.422 856.41 239.26 855.708 238.909 855.114L238.963 855.006C239.773 854.871 240.556 854.736 241.285 854.493V852.684ZM234.427 859.785C232.807 859.785 231.943 858.867 231.943 857.274C231.943 855.654 232.861 854.79 234.535 854.79C236.182 854.79 236.992 855.654 236.992 857.193C236.992 858.84 236.074 859.785 234.427 859.785ZM237.667 867.129C237.667 868.29 236.29 869.073 234.4 869.073C232.564 869.073 231.646 868.344 231.646 867.399C231.646 866.643 232.267 865.995 233.374 865.293C235.48 865.617 237.667 865.698 237.667 867.129ZM252.065 859.515L252.524 859.083C252.578 858.759 252.632 858.111 252.632 857.733C252.632 854.763 250.985 852.954 248.096 852.954C244.478 852.954 242.129 855.411 242.129 859.461C242.129 863.403 244.289 865.86 248.015 865.86C249.311 865.86 250.634 865.509 251.795 864.942L252.119 862.755L251.876 862.593C250.661 863.322 249.338 863.727 248.231 863.727C245.855 863.727 244.721 862.188 244.667 859.515H252.065ZM250.121 857.706L244.802 857.841C245.153 855.924 246.287 854.844 247.934 854.844C249.284 854.844 250.175 855.627 250.175 857.382L250.121 857.706ZM263.053 865.617H265.834L265.699 860.163L265.78 856.653C265.807 854.331 264.376 853.008 261.595 853.008C260.515 853.332 259.354 853.98 258.274 854.925H258.085L258.112 853.116L255.493 853.359L255.628 860.406L255.466 865.617H258.22L258.058 860.163L258.085 856.869C259.138 855.843 260.245 855.249 261.325 855.249C262.621 855.249 263.269 856.086 263.242 857.436L263.053 865.617ZM269.574 847.824L269.061 849.363L269.25 849.633C272.841 849.849 274.407 850.794 274.407 852.414C274.407 853.359 273.84 854.169 272.814 854.763L270.303 856.167L270.168 856.437L270.384 859.596L270.6 859.812L272.544 859.569L272.382 857.085L272.436 856.977L274.542 855.627C276.054 854.709 276.891 853.413 276.891 851.982C276.891 849.471 274.353 847.932 269.871 847.689L269.574 847.824ZM271.653 862.701C270.708 862.701 270.114 863.322 270.114 864.267C270.114 865.212 270.627 865.779 271.572 865.779C272.517 865.779 273.111 865.158 273.111 864.186C273.111 863.268 272.571 862.701 271.653 862.701ZM289.827 848.067C284.724 848.067 281.862 851.307 281.862 857.112C281.862 862.674 284.535 865.86 289.314 865.86C294.39 865.86 297.279 862.512 297.279 856.599C297.279 851.145 294.606 848.067 289.827 848.067ZM289.584 850.362C292.851 850.362 294.39 852.414 294.39 857.112C294.39 861.594 292.797 863.619 289.53 863.619C286.263 863.619 284.724 861.513 284.724 856.761C284.724 852.36 286.29 850.362 289.584 850.362ZM305.883 846.609C302.778 846.609 300.969 848.283 300.996 851.361L301.023 853.224H299.187L299.052 854.817L299.16 854.979H301.023L301.077 860.379L300.915 865.617H303.669L303.48 860.136L303.561 854.979H306.693L306.855 853.413L306.774 853.224H303.588L303.615 850.902C303.642 849.336 304.371 848.58 305.64 848.58C306.261 848.58 306.855 848.715 307.719 849.093L307.908 848.931L308.07 846.852C307.314 846.69 306.585 846.609 305.883 846.609ZM314.27 854.844L314 853.089L311.489 853.224L314.864 865.617H317.564L320.237 856.653H320.453L322.748 865.617H325.367L329.363 853.17H327.014L326.582 854.979L324.287 862.755H324.125L322.127 854.844L321.83 853.17H319.184L318.725 854.979L316.43 862.755H316.241L314.27 854.844ZM335.463 852.927C333.816 852.927 332.142 853.494 330.603 854.547L330.954 856.464L331.17 856.599C332.628 855.411 333.816 854.871 335.031 854.871C336.273 854.871 336.975 855.546 336.975 856.896L336.948 858.354L332.682 859.299C331.008 859.677 330.063 860.595 330.063 862.296C330.063 864.456 331.548 865.806 334.059 865.833C335.085 865.428 336.003 864.726 336.867 863.808H337.056C337.191 864.969 337.92 865.698 339.027 865.806C339.648 865.725 340.242 865.509 340.728 865.212L340.998 863.7L340.755 863.511C340.35 863.592 340.134 863.619 339.945 863.619C339.378 863.619 339.162 863.403 339.162 862.701C339.162 861.783 339.486 857.247 339.486 856.302C339.486 854.169 337.92 852.927 335.463 852.927ZM336.948 859.947L336.867 862.026C335.976 863.052 335.112 863.673 334.167 863.673C333.168 863.673 332.52 863.052 332.52 861.945C332.52 861.216 332.79 860.919 333.438 860.784L336.948 859.947ZM348.443 852.927C344.879 852.927 342.746 855.438 342.746 859.515C342.746 863.457 344.744 865.86 348.119 865.86C349.226 865.86 350.414 865.617 351.413 865.239L351.683 863.025L351.44 862.863C350.522 863.349 349.469 863.673 348.551 863.673C346.499 863.673 345.338 862.053 345.338 859.299C345.338 856.68 346.472 855.195 348.389 855.195C349.307 855.195 350.198 855.546 351.035 856.032L351.305 855.924L351.764 853.629C350.873 853.197 349.604 852.927 348.443 852.927ZM361.696 865.617H364.477L364.342 860.163L364.423 856.653C364.45 854.331 363.019 853.008 360.238 853.008C359.158 853.332 357.997 853.98 356.917 854.925H356.755L356.89 846.663L354.136 846.879L354.271 860.379L354.109 865.617H356.863L356.674 860.136L356.728 856.869C357.781 855.843 358.888 855.249 359.968 855.249C361.264 855.249 361.912 856.086 361.885 857.436L361.696 865.617ZM372.534 863.538C371.427 863.538 370.941 863.106 370.968 861.756L371.103 854.979H374.586L374.721 853.413L374.613 853.224H371.157L371.211 850.551L370.968 850.335L368.538 851.253V853.224H366.891L366.756 854.817L366.864 854.979H368.565L368.592 860.244L368.484 862.188C368.484 864.321 369.429 865.428 371.67 865.779C372.615 865.698 373.452 865.428 374.424 864.969L374.694 863.241L374.424 863.052C373.695 863.403 373.101 863.538 372.534 863.538ZM377.495 862.701C376.523 862.701 375.929 863.322 375.929 864.267C375.929 865.212 376.469 865.779 377.414 865.779C378.332 865.779 378.926 865.158 378.926 864.186C378.926 863.268 378.413 862.701 377.495 862.701ZM383.665 862.701C382.693 862.701 382.099 863.322 382.099 864.267C382.099 865.212 382.639 865.779 383.584 865.779C384.502 865.779 385.096 865.158 385.096 864.186C385.096 863.268 384.583 862.701 383.665 862.701ZM389.835 862.701C388.863 862.701 388.269 863.322 388.269 864.267C388.269 865.212 388.809 865.779 389.754 865.779C390.672 865.779 391.266 865.158 391.266 864.186C391.266 863.268 390.753 862.701 389.835 862.701ZM412.006 865.617L406.417 848.283H403.15L396.967 865.617H399.748L400.18 863.538L400.99 861.27L404.311 861.189L407.983 861.27L408.739 863.673L409.144 865.617H412.006ZM407.281 859.002L404.5 859.056L401.773 859.002L404.608 851.01H404.797L407.281 859.002ZM422.021 865.617H424.802L424.667 860.163L424.748 856.653C424.775 854.331 423.344 853.008 420.563 853.008C419.483 853.332 418.322 853.98 417.242 854.925H417.053L417.08 853.116L414.461 853.359L414.596 860.406L414.434 865.617H417.188L417.026 860.163L417.053 856.869C418.106 855.843 419.213 855.249 420.293 855.249C421.589 855.249 422.237 856.086 422.21 857.436L422.021 865.617ZM432.862 863.538C431.755 863.538 431.269 863.106 431.296 861.756L431.431 854.979H434.914L435.049 853.413L434.941 853.224H431.485L431.539 850.551L431.296 850.335L428.866 851.253V853.224H427.219L427.084 854.817L427.192 854.979H428.893L428.92 860.244L428.812 862.188C428.812 864.321 429.757 865.428 431.998 865.779C432.943 865.698 433.78 865.428 434.752 864.969L435.022 863.241L434.752 863.052C434.023 863.403 433.429 863.538 432.862 863.538ZM441.812 852.927C438.086 852.927 436.007 855.33 436.007 859.596C436.007 863.592 437.978 865.86 441.461 865.86C445.187 865.86 447.266 863.457 447.266 859.191C447.266 855.195 445.295 852.927 441.812 852.927ZM441.65 854.844C443.675 854.844 444.701 856.41 444.701 859.812C444.701 862.647 443.675 863.97 441.65 863.97C439.598 863.97 438.572 862.431 438.572 859.002C438.572 856.221 439.598 854.844 441.65 854.844ZM455.101 852.927C451.375 852.927 449.296 855.33 449.296 859.596C449.296 863.592 451.267 865.86 454.75 865.86C458.476 865.86 460.555 863.457 460.555 859.191C460.555 855.195 458.584 852.927 455.101 852.927ZM454.939 854.844C456.964 854.844 457.99 856.41 457.99 859.812C457.99 862.647 456.964 863.97 454.939 863.97C452.887 863.97 451.861 862.431 451.861 859.002C451.861 856.221 452.887 854.844 454.939 854.844ZM471.09 865.617H473.871L473.736 860.163L473.817 856.653C473.844 854.331 472.413 853.008 469.632 853.008C468.552 853.332 467.391 853.98 466.311 854.925H466.122L466.149 853.116L463.53 853.359L463.665 860.406L463.503 865.617H466.257L466.095 860.163L466.122 856.869C467.175 855.843 468.282 855.249 469.362 855.249C470.658 855.249 471.306 856.086 471.279 857.436L471.09 865.617ZM198.23 886.925L197.879 885.089L195.341 885.224L199.04 897.617H202.01L206.411 885.17H203.981L203.522 887.06L200.768 894.971H200.579L198.23 886.925ZM212.513 884.927C210.866 884.927 209.192 885.494 207.653 886.547L208.004 888.464L208.22 888.599C209.678 887.411 210.866 886.871 212.081 886.871C213.323 886.871 214.025 887.546 214.025 888.896L213.998 890.354L209.732 891.299C208.058 891.677 207.113 892.595 207.113 894.296C207.113 896.456 208.598 897.806 211.109 897.833C212.135 897.428 213.053 896.726 213.917 895.808H214.106C214.241 896.969 214.97 897.698 216.077 897.806C216.698 897.725 217.292 897.509 217.778 897.212L218.048 895.7L217.805 895.511C217.4 895.592 217.184 895.619 216.995 895.619C216.428 895.619 216.212 895.403 216.212 894.701C216.212 893.783 216.536 889.247 216.536 888.302C216.536 886.169 214.97 884.927 212.513 884.927ZM213.998 891.947L213.917 894.026C213.026 895.052 212.162 895.673 211.217 895.673C210.218 895.673 209.57 895.052 209.57 893.945C209.57 893.216 209.84 892.919 210.488 892.784L213.998 891.947ZM228.301 897.617H231.082L230.947 892.163L231.028 888.653C231.055 886.331 229.624 885.008 226.843 885.008C225.763 885.332 224.602 885.98 223.522 886.925H223.333L223.36 885.116L220.741 885.359L220.876 892.406L220.714 897.617H223.468L223.306 892.163L223.333 888.869C224.386 887.843 225.493 887.249 226.573 887.249C227.869 887.249 228.517 888.086 228.49 889.436L228.301 897.617ZM239.497 880.283H239.47L239.659 892.406L239.47 897.617H239.497C241.09 897.698 244.141 897.779 245.302 897.779C250.756 897.779 253.78 894.431 253.78 888.329C253.78 883.064 251.026 880.175 246.058 880.175L239.497 880.283ZM245.788 895.565C245.221 895.565 243.466 895.484 242.251 895.376L242.17 892.163L242.305 882.551C243.331 882.497 245.275 882.443 245.842 882.443C249.217 882.443 250.891 884.468 250.891 888.95C250.891 893.459 249.028 895.565 245.788 895.565ZM258.212 886.844L257.807 885.089L255.134 885.224L259.697 897.617C258.536 899.399 257.024 900.29 254.486 900.776L254.405 901.073C254.729 901.694 255.134 902.261 255.674 902.774H255.917C259.346 901.856 261.155 900.236 262.316 896.969L266.555 885.17H264.098L263.693 887.114L261.047 894.701H260.831L258.212 886.844ZM273.033 884.927C269.469 884.927 267.336 887.438 267.336 891.515C267.336 895.457 269.334 897.86 272.709 897.86C273.816 897.86 275.004 897.617 276.003 897.239L276.273 895.025L276.03 894.863C275.112 895.349 274.059 895.673 273.141 895.673C271.089 895.673 269.928 894.053 269.928 891.299C269.928 888.68 271.062 887.195 272.979 887.195C273.897 887.195 274.788 887.546 275.625 888.032L275.895 887.924L276.354 885.629C275.463 885.197 274.194 884.927 273.033 884.927ZM281.263 892.136L281.479 878.663L278.725 878.879L278.86 892.379L278.698 897.617H281.452L281.263 892.136ZM288.904 885.17H285.907L285.232 886.358L281.668 890.894V891.083C283.099 893.378 284.692 895.592 286.366 897.752L286.69 897.86C287.527 897.752 288.364 897.671 289.201 897.455V897.131C287.554 895.106 285.853 892.973 284.341 890.84L288.904 885.17ZM305.505 885.116L302.886 885.359V894.134C301.941 895.025 300.915 895.511 299.943 895.511C298.674 895.511 298.053 894.701 298.08 893.378L298.215 885.116L295.488 885.359L295.596 890.759L295.542 894.134C295.515 896.456 296.973 897.779 299.7 897.779C300.78 897.482 301.86 896.861 302.94 895.889H303.156C303.372 896.969 304.02 897.698 305.154 897.806C305.802 897.725 306.369 897.509 306.855 897.212L307.125 895.7L306.882 895.511C306.504 895.592 306.261 895.619 306.045 895.619C305.505 895.619 305.316 895.403 305.316 894.728L305.505 885.116ZM311.004 879.365C310.032 879.365 309.438 879.986 309.438 880.931C309.438 881.876 309.978 882.443 310.923 882.443C311.841 882.443 312.435 881.822 312.435 880.85C312.435 879.932 311.922 879.365 311.004 879.365ZM312.084 892.163L312.3 885.116L309.546 885.359L309.681 892.406L309.519 897.617H312.273L312.084 892.163ZM320.538 895.538C319.431 895.538 318.945 895.106 318.972 893.756L319.107 886.979H322.59L322.725 885.413L322.617 885.224H319.161L319.215 882.551L318.972 882.335L316.542 883.253V885.224H314.895L314.76 886.817L314.868 886.979H316.569L316.596 892.244L316.488 894.188C316.488 896.321 317.433 897.428 319.674 897.779C320.619 897.698 321.456 897.428 322.428 896.969L322.698 895.241L322.428 895.052C321.699 895.403 321.105 895.538 320.538 895.538ZM342.713 897.617L337.124 880.283H333.857L327.674 897.617H330.455L330.887 895.538L331.697 893.27L335.018 893.189L338.69 893.27L339.446 895.673L339.851 897.617H342.713ZM337.988 891.002L335.207 891.056L332.48 891.002L335.315 883.01H335.504L337.988 891.002ZM352.728 897.617H355.509L355.374 892.163L355.455 888.653C355.482 886.331 354.051 885.008 351.27 885.008C350.19 885.332 349.029 885.98 347.949 886.925H347.76L347.787 885.116L345.168 885.359L345.303 892.406L345.141 897.617H347.895L347.733 892.163L347.76 888.869C348.813 887.843 349.92 887.249 351 887.249C352.296 887.249 352.944 888.086 352.917 889.436L352.728 897.617ZM363.569 895.538C362.462 895.538 361.976 895.106 362.003 893.756L362.138 886.979H365.621L365.756 885.413L365.648 885.224H362.192L362.246 882.551L362.003 882.335L359.573 883.253V885.224H357.926L357.791 886.817L357.899 886.979H359.6L359.627 892.244L359.519 894.188C359.519 896.321 360.464 897.428 362.705 897.779C363.65 897.698 364.487 897.428 365.459 896.969L365.729 895.241L365.459 895.052C364.73 895.403 364.136 895.538 363.569 895.538ZM369.351 886.844L369.081 885.089L366.57 885.224L369.945 897.617H372.645L375.318 888.653H375.534L377.829 897.617H380.448L384.444 885.17H382.095L381.663 886.979L379.368 894.755H379.206L377.208 886.844L376.911 885.17H374.265L373.806 886.979L371.511 894.755H371.322L369.351 886.844ZM395.107 891.515L395.566 891.083C395.62 890.759 395.674 890.111 395.674 889.733C395.674 886.763 394.027 884.954 391.138 884.954C387.52 884.954 385.171 887.411 385.171 891.461C385.171 895.403 387.331 897.86 391.057 897.86C392.353 897.86 393.676 897.509 394.837 896.942L395.161 894.755L394.918 894.593C393.703 895.322 392.38 895.727 391.273 895.727C388.897 895.727 387.763 894.188 387.709 891.515H395.107ZM393.163 889.706L387.844 889.841C388.195 887.924 389.329 886.844 390.976 886.844C392.326 886.844 393.217 887.627 393.217 889.382L393.163 889.706ZM404.718 885.143C403.638 885.143 402.342 885.737 401.316 887.6H401.127L401.154 885.116L398.535 885.359L398.697 892.406L398.508 897.617H401.262L401.073 892.163L401.1 890.381C402.045 888.518 402.99 887.762 404.097 887.762C404.34 887.762 404.718 887.789 405.096 887.897L405.393 887.816V885.197C405.204 885.17 404.934 885.143 404.718 885.143ZM413.521 885.035C412.279 885.413 411.442 885.899 410.281 886.898H410.092L410.119 885.116L407.473 885.359L407.635 892.406L407.473 902.612H410.2L410.119 897.644C410.848 897.779 411.55 897.86 412.225 897.86C416.086 897.86 418.354 895.43 418.354 891.029C418.354 887.276 416.707 885.035 413.521 885.035ZM412.441 895.97C411.685 895.97 410.902 895.781 410.092 895.376L410.038 892.163L410.065 888.869C411.172 887.735 412.117 887.249 413.062 887.249C414.79 887.249 415.735 888.761 415.762 891.38C415.816 894.539 414.466 895.97 412.441 895.97ZM430.254 891.515L430.713 891.083C430.767 890.759 430.821 890.111 430.821 889.733C430.821 886.763 429.174 884.954 426.285 884.954C422.667 884.954 420.318 887.411 420.318 891.461C420.318 895.403 422.478 897.86 426.204 897.86C427.5 897.86 428.823 897.509 429.984 896.942L430.308 894.755L430.065 894.593C428.85 895.322 427.527 895.727 426.42 895.727C424.044 895.727 422.91 894.188 422.856 891.515H430.254ZM428.31 889.706L422.991 889.841C423.342 887.924 424.476 886.844 426.123 886.844C427.473 886.844 428.364 887.627 428.364 889.382L428.31 889.706ZM441.242 897.617H444.023L443.888 892.163L443.969 888.653C443.996 886.331 442.565 885.008 439.784 885.008C438.704 885.332 437.543 885.98 436.463 886.925H436.274L436.301 885.116L433.682 885.359L433.817 892.406L433.655 897.617H436.409L436.247 892.163L436.274 888.869C437.327 887.843 438.434 887.249 439.514 887.249C440.81 887.249 441.458 888.086 441.431 889.436L441.242 897.617ZM200.525 916.954C197.663 916.954 195.989 918.574 195.989 920.707C195.989 924.622 201.578 924.109 201.578 926.404C201.578 927.214 200.876 927.997 199.661 927.997C198.662 927.997 197.285 927.484 196.205 926.539L195.908 926.728L195.584 929.023C196.826 929.563 198.176 929.86 199.364 929.86C202.469 929.86 204.035 927.943 204.035 925.945C204.035 922.138 198.446 922.624 198.446 920.356C198.446 919.573 199.094 918.871 200.201 918.871C201.038 918.871 201.983 919.168 202.955 919.816L203.306 919.735L203.684 917.575C202.685 917.17 201.578 916.954 200.525 916.954ZM211.703 916.927C208.139 916.927 206.006 919.438 206.006 923.515C206.006 927.457 208.004 929.86 211.379 929.86C212.486 929.86 213.674 929.617 214.673 929.239L214.943 927.025L214.7 926.863C213.782 927.349 212.729 927.673 211.811 927.673C209.759 927.673 208.598 926.053 208.598 923.299C208.598 920.68 209.732 919.195 211.649 919.195C212.567 919.195 213.458 919.546 214.295 920.032L214.565 919.924L215.024 917.629C214.133 917.197 212.864 916.927 211.703 916.927ZM224.955 929.617H227.736L227.601 924.163L227.682 920.653C227.709 918.331 226.278 917.008 223.497 917.008C222.417 917.332 221.256 917.98 220.176 918.925H220.014L220.149 910.663L217.395 910.879L217.53 924.379L217.368 929.617H220.122L219.933 924.136L219.987 920.869C221.04 919.843 222.147 919.249 223.227 919.249C224.523 919.249 225.171 920.086 225.144 921.436L224.955 929.617ZM232.878 911.365C231.906 911.365 231.312 911.986 231.312 912.931C231.312 913.876 231.852 914.443 232.797 914.443C233.715 914.443 234.309 913.822 234.309 912.85C234.309 911.932 233.796 911.365 232.878 911.365ZM233.958 924.163L234.174 917.116L231.42 917.359L231.555 924.406L231.393 929.617H234.147L233.958 924.163ZM240.711 924.136L240.927 910.663L238.173 910.879L238.335 924.379L238.146 929.617H240.9L240.711 924.136ZM254.613 924.136L254.829 910.663L252.075 910.879L252.129 917.17C251.427 917.035 250.698 916.954 250.023 916.954C246.216 916.954 243.894 919.276 243.894 923.434C243.894 927.43 245.865 929.779 249.483 929.779C250.563 929.293 251.265 928.78 252.291 927.916H252.507C252.696 928.969 253.371 929.698 254.505 929.806C255.153 929.725 255.747 929.509 256.233 929.212L256.476 927.7L256.233 927.511C255.855 927.592 255.612 927.619 255.396 927.619C254.883 927.619 254.721 927.403 254.694 926.728L254.613 924.136ZM249.753 918.844C250.536 918.844 251.292 919.06 252.156 919.465L252.237 924.379L252.183 926.134C251.211 927.214 250.374 927.538 249.537 927.538C247.647 927.538 246.513 925.999 246.486 923.11C246.432 920.221 247.728 918.844 249.753 918.844ZM267.912 923.515L268.371 923.083C268.425 922.759 268.479 922.111 268.479 921.733C268.479 918.763 266.832 916.954 263.943 916.954C260.325 916.954 257.976 919.411 257.976 923.461C257.976 927.403 260.136 929.86 263.862 929.86C265.158 929.86 266.481 929.509 267.642 928.942L267.966 926.755L267.723 926.593C266.508 927.322 265.185 927.727 264.078 927.727C261.702 927.727 260.568 926.188 260.514 923.515H267.912ZM265.968 921.706L260.649 921.841C261 919.924 262.134 918.844 263.781 918.844C265.131 918.844 266.022 919.627 266.022 921.382L265.968 921.706ZM277.523 917.143C276.443 917.143 275.147 917.737 274.121 919.6H273.932L273.959 917.116L271.34 917.359L271.502 924.406L271.313 929.617H274.067L273.878 924.163L273.905 922.381C274.85 920.518 275.795 919.762 276.902 919.762C277.145 919.762 277.523 919.789 277.901 919.897L278.198 919.816V917.197C278.009 917.17 277.739 917.143 277.523 917.143ZM284.757 927.538C283.65 927.538 283.164 927.106 283.191 925.756L283.326 918.979H286.809L286.944 917.413L286.836 917.224H283.38L283.434 914.551L283.191 914.335L280.761 915.253V917.224H279.114L278.979 918.817L279.087 918.979H280.788L280.815 924.244L280.707 926.188C280.707 928.321 281.652 929.428 283.893 929.779C284.838 929.698 285.675 929.428 286.647 928.969L286.917 927.241L286.647 927.052C285.918 927.403 285.324 927.538 284.757 927.538ZM298.401 916.927C294.675 916.927 292.596 919.33 292.596 923.596C292.596 927.592 294.567 929.86 298.05 929.86C301.776 929.86 303.855 927.457 303.855 923.191C303.855 919.195 301.884 916.927 298.401 916.927ZM298.239 918.844C300.264 918.844 301.29 920.41 301.29 923.812C301.29 926.647 300.264 927.97 298.239 927.97C296.187 927.97 295.161 926.431 295.161 923.002C295.161 920.221 296.187 918.844 298.239 918.844ZM311.69 916.927C307.964 916.927 305.885 919.33 305.885 923.596C305.885 927.592 307.856 929.86 311.339 929.86C315.065 929.86 317.144 927.457 317.144 923.191C317.144 919.195 315.173 916.927 311.69 916.927ZM311.528 918.844C313.553 918.844 314.579 920.41 314.579 923.812C314.579 926.647 313.553 927.97 311.528 927.97C309.476 927.97 308.45 926.431 308.45 923.002C308.45 920.221 309.476 918.844 311.528 918.844ZM322.792 924.136L323.008 910.663L320.254 910.879L320.389 924.379L320.227 929.617H322.981L322.792 924.136ZM330.433 917.17H327.436L326.761 918.358L323.197 922.894V923.083C324.628 925.378 326.221 927.592 327.895 929.752L328.219 929.86C329.056 929.752 329.893 929.671 330.73 929.455V929.131C329.083 927.106 327.382 924.973 325.87 922.84L330.433 917.17ZM344.738 929.617H347.519L347.384 924.163L347.465 920.653C347.492 918.331 346.061 917.008 343.28 917.008C342.2 917.332 341.039 917.98 339.959 918.925H339.77L339.797 917.116L337.178 917.359L337.313 924.406L337.151 929.617H339.905L339.743 924.163L339.77 920.869C340.823 919.843 341.93 919.249 343.01 919.249C344.306 919.249 344.954 920.086 344.927 921.436L344.738 929.617ZM352.664 911.365C351.692 911.365 351.098 911.986 351.098 912.931C351.098 913.876 351.638 914.443 352.583 914.443C353.501 914.443 354.095 913.822 354.095 912.85C354.095 911.932 353.582 911.365 352.664 911.365ZM353.744 924.163L353.96 917.116L351.206 917.359L351.341 924.406L351.179 929.617H353.933L353.744 924.163ZM366.815 923.515L367.274 923.083C367.328 922.759 367.382 922.111 367.382 921.733C367.382 918.763 365.735 916.954 362.846 916.954C359.228 916.954 356.879 919.411 356.879 923.461C356.879 927.403 359.039 929.86 362.765 929.86C364.061 929.86 365.384 929.509 366.545 928.942L366.869 926.755L366.626 926.593C365.411 927.322 364.088 927.727 362.981 927.727C360.605 927.727 359.471 926.188 359.417 923.515H366.815ZM364.871 921.706L359.552 921.841C359.903 919.924 361.037 918.844 362.684 918.844C364.034 918.844 364.925 919.627 364.925 921.382L364.871 921.706ZM374.617 927.538C373.51 927.538 373.024 927.106 373.051 925.756L373.186 918.979H376.669L376.804 917.413L376.696 917.224H373.24L373.294 914.551L373.051 914.335L370.621 915.253V917.224H368.974L368.839 918.817L368.947 918.979H370.648L370.675 924.244L370.567 926.188C370.567 928.321 371.512 929.428 373.753 929.779C374.698 929.698 375.535 929.428 376.507 928.969L376.777 927.241L376.507 927.052C375.778 927.403 375.184 927.538 374.617 927.538ZM387.126 916.954C384.264 916.954 382.59 918.574 382.59 920.707C382.59 924.622 388.179 924.109 388.179 926.404C388.179 927.214 387.477 927.997 386.262 927.997C385.263 927.997 383.886 927.484 382.806 926.539L382.509 926.728L382.185 929.023C383.427 929.563 384.777 929.86 385.965 929.86C389.07 929.86 390.636 927.943 390.636 925.945C390.636 922.138 385.047 922.624 385.047 920.356C385.047 919.573 385.695 918.871 386.802 918.871C387.639 918.871 388.584 919.168 389.556 919.816L389.907 919.735L390.285 917.575C389.286 917.17 388.179 916.954 387.126 916.954ZM396.224 924.136L396.44 910.663L393.686 910.879L393.848 924.379L393.659 929.617H396.413L396.224 924.136ZM409.398 923.515L409.857 923.083C409.911 922.759 409.965 922.111 409.965 921.733C409.965 918.763 408.318 916.954 405.429 916.954C401.811 916.954 399.462 919.411 399.462 923.461C399.462 927.403 401.622 929.86 405.348 929.86C406.644 929.86 407.967 929.509 409.128 928.942L409.452 926.755L409.209 926.593C407.994 927.322 406.671 927.727 405.564 927.727C403.188 927.727 402.054 926.188 402 923.515H409.398ZM407.454 921.706L402.135 921.841C402.486 919.924 403.62 918.844 405.267 918.844C406.617 918.844 407.508 919.627 407.508 921.382L407.454 921.706ZM417.551 916.927C413.987 916.927 411.854 919.438 411.854 923.515C411.854 927.457 413.852 929.86 417.227 929.86C418.334 929.86 419.522 929.617 420.521 929.239L420.791 927.025L420.548 926.863C419.63 927.349 418.577 927.673 417.659 927.673C415.607 927.673 414.446 926.053 414.446 923.299C414.446 920.68 415.58 919.195 417.497 919.195C418.415 919.195 419.306 919.546 420.143 920.032L420.413 919.924L420.872 917.629C419.981 917.197 418.712 916.927 417.551 916.927ZM430.804 929.617H433.585L433.45 924.163L433.531 920.653C433.558 918.331 432.127 917.008 429.346 917.008C428.266 917.332 427.105 917.98 426.025 918.925H425.863L425.998 910.663L423.244 910.879L423.379 924.379L423.217 929.617H425.971L425.782 924.136L425.836 920.869C426.889 919.843 427.996 919.249 429.076 919.249C430.372 919.249 431.02 920.086 430.993 921.436L430.804 929.617ZM441.642 927.538C440.535 927.538 440.049 927.106 440.076 925.756L440.211 918.979H443.694L443.829 917.413L443.721 917.224H440.265L440.319 914.551L440.076 914.335L437.646 915.253V917.224H435.999L435.864 918.817L435.972 918.979H437.673L437.7 924.244L437.592 926.188C437.592 928.321 438.537 929.428 440.778 929.779C441.723 929.698 442.56 929.428 443.532 928.969L443.802 927.241L443.532 927.052C442.803 927.403 442.209 927.538 441.642 927.538ZM449.287 912.067L448.963 911.716L446.803 911.851L446.56 912.175L446.641 923.407L446.938 923.731L448.531 923.515L449.287 912.067ZM447.424 926.701C446.479 926.701 445.858 927.322 445.858 928.267C445.858 929.212 446.398 929.779 447.343 929.779C448.261 929.779 448.855 929.158 448.855 928.186C448.855 927.268 448.342 926.701 447.424 926.701Z" fill="#2C1E25"/>
<path d="M2532.06 989.048L1530.06 56.5481L1493.06 1041.55L2532.06 1009.55V989.048Z" fill="#F87980"/>
</g>
<defs>
<clipPath id="clip0">
<rect width="1538" height="1068" fill="white"/>
</clipPath>
</defs>
</svg>
