<svg width="448" height="857" fill="none" xmlns="http://www.w3.org/2000/svg"><g filter="url(#filter0_d)"><path d="M249.953 240.785h-47.91l-7.984 1.928 32.49 32.352 23.404-34.28z" fill="#FFF1F0"/><path d="M291.484 203.492c-5.596 3.663-10.386-.127-12.082-2.48l7.047-111.223.012-.186-.012.186c-.38 6.892 6.207 4.526 9.296 33.835 3.116 29.569 4.26 23.337 3.434 37.581-.827 14.244 2.352 20.158 2.861 28.17.509 8.012-3.561 9.539-10.556 14.117z" fill="#2C1E25"/><mask id="a" maskUnits="userSpaceOnUse" x="181" y="18" width="107" height="230"><path d="M199.447 34.102c-8.787 7.436-15.491 18.87-17.744 23.659 1.221 44.032 3.662 136.039 3.662 151.811 0 19.716-3.662 15.491-2.253 26.758 1.408 11.266 26.757 11.829 45.346 10.702 18.589-1.126 33.235.564 40.84-7.604 7.604-8.168 9.857-40.277 12.956-56.049 3.098-15.773 4.224-57.739 4.788-92.946.563-35.207-5.352-32.672-11.266-38.587-5.915-5.915-8.45-17.744-18.308-27.038-9.858-9.295-29.574-6.479-38.023-4.789-8.45 1.69-9.013 4.789-19.998 14.083z" fill="#FFCBC8"/></mask><g mask="url(#a)"><path d="M199.447 34.102c-8.787 7.436-15.491 18.87-17.744 23.659 1.221 44.032 3.662 136.039 3.662 151.811 0 19.716-3.662 15.491-2.253 26.758 1.408 11.266 26.757 11.829 45.346 10.702 18.589-1.126 33.235.564 40.84-7.604 7.604-8.168 9.857-40.277 12.956-56.049 3.098-15.773 4.224-57.739 4.788-92.946.563-35.207-5.352-32.672-11.266-38.587-5.915-5.915-8.45-17.744-18.308-27.038-9.858-9.295-29.574-6.479-38.023-4.789-8.45 1.69-9.013 4.789-19.998 14.083z" fill="#FFCBC8"/><mask id="b" maskUnits="userSpaceOnUse" x="261" y="59" width="27" height="16"><path d="M274.346 73.49c5.326 1.115 10.424.465 12.307 0 1.265-3.973 2.726-12.245-1.547-13.546-5.342-1.626-12.618 1.006-15.483 3.406-2.864 2.4-9.211 1.78-8.437 4.722.774 2.942 6.502 4.025 13.16 5.419z" fill="#FFF1F0"/></mask><g mask="url(#b)"><path d="M274.346 73.49c5.326 1.115 10.424.465 12.307 0 1.265-3.973 2.726-12.245-1.547-13.546-5.342-1.626-12.618 1.006-15.483 3.406-2.864 2.4-9.211 1.78-8.437 4.722.774 2.942 6.502 4.025 13.16 5.419z" fill="#FFF1F0"/><path d="M275.53 66.064c-.93-2.323 2.086-4.065 3.71-4.646 3.517-1.806 5.001 2.388 5.033 4.324.032 1.935-1.452 1.935-3.484 2.613-2.033.677-4.098.613-5.259-2.29z" fill="#2C1E25"/></g></g><path d="M176.644 54.252c3.918-6.12 7.039-3.876 8.11-1.989 3.673 5.356 3.673-.765 7.345 11.17 3.672 11.935 1.377 22.188-1.377 32.44-2.754 10.252-7.039 22.34-.918 37.948 6.12 15.607 5.967 25.553 7.957 42.844 1.989 17.291-1.531 14.077-.919 23.717.613 9.64-7.344 12.089-14.842 13.313-7.498 1.224-6.886-2.295-5.662-13.313 1.224-11.017-1.224-21.422-6.273-29.685-5.05-8.262-1.071-30.909 4.131-45.904 5.203-14.996-1.683-30.91-5.202-43.15-3.52-12.242 2.754-19.74 7.65-27.39zM220.326 12.267c-5.173.485-7.139 6.061-7.476 8.79-.157 1.26-.768.908 1.01 4.545 2.223 4.547 4.041.708 11.719 2.02 7.678 1.314 10.002 5.355 17.882 0 7.88-5.354 11.012-3.434 13.437-4.848 2.425-1.415 3.334-8.487-3.536-10.507-6.87-2.02-8.486-2.728-16.67-3.637-8.183-.91-9.9 3.03-16.366 3.637zM274.907 47.718c2.656.438 6.79-.183 8.525-.548 3.299-.513 1.301-.308 2.637 2.328 1.335 2.637.171 3.493-2.089 5.615-2.26 2.123-5.581.856-11.538.548-5.958-.308-6.095 2.397-10.614.548-4.52-1.849.65-4.656 3.355-7.43 2.705-2.773 6.403-1.61 9.724-1.061zM211.41 47.47c-1.774 1.914-2.761 1.46-3.033.993-4.317-3.326-11.26 1.458-11.26 6.183s3.559 2.275 8.634 4.142c5.075 1.867 12.076-.291 21.76 1.575 9.684 1.867 16.859-6.242 8.517-7.7-8.342-1.459-12.776-9.917-16.743-10.034-3.967-.117-5.658 2.45-7.875 4.842z" fill="#2C1E25"/><path d="M247.373 176.68c5.986-17.72 5.088-78.224 3.891-106.26-.264-6.89-6.75 15.31-9.105 24.727-2.354 9.418-4.719 40.712-9.13 53.292-4.412 12.58-4.493 31.042-8.414 30.797-3.137-.196-3.297 2.405-2.984 3.73.099 2.595 2.275 9.639 10.177 17.062 9.878 9.279 8.082-1.197 15.565-23.348z" fill="#BE988D"/><path d="M209.585 225.152c-1.525.163-1.408 1.793-1.158 2.588 0 4.223 14.167-2.18 17.641-2.997 3.473-.817 9.058-1.566 14.575-1.975 5.517-.409 5.585-1.907 4.291-3.746-1.294-1.839-3.746-.341-8.377.749-4.632 1.09-15.461.341-18.594 2.52-3.133 2.18-6.471 2.656-8.378 2.861z" fill="#2C1E25"/><path d="M199.241 69.869c-2.934.978-.282 2.226 1.411 2.728 3.387 1.41 9.313 3.95 15.803 4.89 6.49.942 10.817-.752 13.639-1.786 2.822-1.035 2.728-1.6 2.069-3.95-.658-2.353-6.584-4.798-13.168-6.868-6.585-2.069-16.085 3.763-19.754 4.986z" fill="#FFF1F0"/><mask id="c" maskUnits="userSpaceOnUse" x="197" y="64" width="36" height="14"><path d="M199.241 69.869c-2.934.978-.282 2.226 1.411 2.728 3.387 1.41 9.313 3.95 15.803 4.89 6.49.942 10.817-.752 13.639-1.786 2.822-1.035 2.728-1.6 2.069-3.95-.658-2.353-6.584-4.798-13.168-6.868-6.585-2.069-16.085 3.763-19.754 4.986z" fill="#FFF1F0"/></mask><g mask="url(#c)"><path d="M216.691 69.041c-.128-2.847 1.546-3.932 2.399-4.12l8.798.92c-.586.694-1.655 2.68-1.239 5.08.519 3-1.4 3.28-4.04 3.4-2.639.119-5.759-1.72-5.918-5.28z" fill="#2C1E25"/></g><path d="M289.637 281.563c-7.582-2.8-9.769-5.832-9.914-6.999l-71.664 6.999c4.903 79.211 15.541 239.898 18.86 248.951 4.15 11.316 47.152-1.509 76.197 4.527 23.236 4.828 47.733 7.632 57.077 8.431 12.007-44.828 33.805-139.499 24.94-159.56-11.08-25.077-10.206-44.906-10.206-56.278s-26.534-46.8-35.136-46.071c-8.602.729-13.122 6.123-23.765 8.164-10.643 2.041-16.913-4.665-26.389-8.164z" fill="#F87980"/><path d="M232.355 261.024c-3.091 4.251-6.923 6.441-8.453 7.004-5.075 3.288 5.192 22.099 9.298 24.152 4.106 2.052 5.072 0 14.249 0 9.178 0 20.529-5.918 28.499-10.023 7.97-4.106 5.313-14.129 6.279-21.978.966-7.849-2.656-19.321-5.434-28.498-2.777-9.178-9.057-.604-18.476 1.932-9.352 2.518-14.061 10.155-18.501 17.356l-.095.153c-4.468 7.246-3.502 4.589-7.366 9.902zM213.966 320.878c.738-22.392-1.628-28.656-2.903-28.988.615 1.395.068 1.648-16.948-4.181-21.271-7.287-15.97 1.08-45.11 7.142-29.139 6.063-25.814 10.365-43.22 9.974-17.405-.391-45.958 14.472-45.958 30.117 0 12.517-5.801 36.011-8.702 46.194l51.855 78.901c0 7.641 1.819 4.366 8.551 19.649 5.385 12.226 5.518 20.377 4.912 22.924 37.634 13.756 113.087 39.055 113.825 30.196.923-11.073-7.382-31.681-3.384-49.521 3.999-17.84-5.536-55.366-3.998-80.588 1.538-25.223-9.843-53.828-8.92-81.819z" fill="#A75155"/><path d="M197.452 239.175c14.714 7.456 28.168 26.635 33.055 35.292 6.214 10.687 9.445 14.54 7.954 17.522-1.491 2.983-18.268 3.853-35.79 0-17.522-3.852-27.339-3.728-28.209-8.326-.87-4.598.373-23.86 1.988-30.197 1.616-6.338-.621-10.315 2.858-16.404 3.48-6.089-.248-7.207 18.144 2.113z" fill="#F87980"/><path d="M114.614 297.139c-3.838.333-7.58-.139-8.971-.418-2.923-.387-6.05 2.869-6.05 7.354 0 4.485 2.608.834 4.486 3.286 1.877 2.451 19.297-2.191 23.052-5.007 1.188-.892 3.434-.469-.947-5.215-4.381-4.746-6.772-.418-11.57 0z" fill="#FFF1F0"/><path d="M97.318 691.921c2.271-14.279 5.94-19.14 7.491-19.786l71.624-94.218 91.614-11.583 97.405 34.223c1.726 13.014 5.846 41.043 8.517 49.056 3.339 10.017-1.226 18.781 1.208 42.308 2.433 23.526-2.434 21.904-2.434 38.129 0 16.225-79.504 160.631-82.749 169.555-3.245 8.924-21.499 5.679-46.648 5.679-25.149 0-91.268-55.572-109.116-56.789-17.847-1.217-15.008-11.763-23.526-24.744-8.519-12.98-5.895-34.073-5.895-45.836 0-11.764-7.491-9.735-10.33-20.282-2.84-10.546 2.839-18.253 6.084-33.262 3.245-15.008-6.085-14.603-3.245-32.45z" fill="#5C404E"/><path d="M262.564 832.594c-1.066-15.19-16.656-31.647-24.318-37.976V596.979l16.12-35.366c23.468 7.532 71.584 25.149 76.299 35.366 5.894 12.771 24.56 96.929 39.296 126.401 14.735 29.472 8.186 139.172 11.133 173.228 2.947 34.056-12.771 90.38-8.514 95.946 4.257 5.567 6.222 26.526 5.567 38.646-.655 12.11 6.222 31.1-2.947 29.47-9.169-1.64-10.479 1.63-33.729 7.2s-38.313-.98-42.242-5.57c-3.93-4.58-4.912-36.02-3.275-69.746 1.637-33.728-7.069-39.074-7.647-61.026-.578-21.953-24.41-79.946-25.743-98.934z" fill="#A75155"/><path d="M120.248 680.312c.727-23.259 22.714-59.055 33.616-74.046l4.088-28.165 85.857-4.542c4.391 5.299 12.083 23.531 7.722 54.057-5.451 38.159 7.269 89.037-3.179 145.366-10.449 56.33-3.635 129.012-9.54 176.711-5.906 47.698 0 95.847 0 104.027 0 8.18-28.619 0-48.607 4.09-15.99 3.27-27.862-1.36-31.799-4.09 4.997-14.99 0-54.058 0-89.491s-22.259-94.033-25.893-140.369c-3.634-46.335-13.173-114.475-12.265-143.548z" fill="#FFCBC8"/><path d="M116.421 625.582c4.685-13.202 4.613-28.036 3.992-33.803 5.756-9.649 92.807-21.993 135.614-26.959 36.985.797 112.813 4.354 120.245 12.211 9.291 9.821-3.802 61.061-6.197 54.14-2.396-6.92-51.37-42.053-81.979-49.506-30.608-7.453-73.461 6.92-96.883 7.453-23.423.532-46.845 32.205-61.484 50.837-14.639 18.631-22.89 44.183-27.415 41.255-4.525-2.928 8.251-39.126 14.107-55.628z" fill="#2C1E25"/><path d="M369.451 585.214l-8.61-45.435c-1.686-8.895-47.028-6.227-71.125-8.139-24.097-1.912-168.369 19.049-168.369 30.797 0 11.747-7.285 35.096 0 36.023 7.286.927 23.579-11.524 42.124-16.16 18.545-4.637 52.323-5.034 70.735-5.034 18.413 0 34.838 3.444 57.489 0 22.651-3.444 55.635 5.828 65.304 7.285 7.736 1.166 11.525.928 12.452.663z" fill="#5C404E"/><path d="M217.846 567.537c-1.088-3.175 3.554-7.674 6.011-9.526l60.785-103.879c1.209-5.595 4.332-16.852 7.144-17.124 3.516-.34 13.722 6.691 16.33 9.186 2.609 2.495-1.928 9.866-5.783 18.031-3.856 8.165-14.516 25.97-19.96 36.516-5.443 10.547-19.845 36.517-20.979 40.486-1.134 3.969-8.506 13.268-12.021 21.887-3.516 8.619-12.475 14.062-17.805 14.062s-12.361-5.67-13.722-9.639z" fill="#C0A74F"/><path d="M290.058 436.547c5.616 0 5.637 9.572 4.945 14.359.982 11.636-12.763 31.11-17.549 41.64-4.787 10.53-21.38 42.119-24.73 47.544-3.35 5.424-10.848 30.951-15.475 30.951-4.627 0-14.678-5.265-14.838-10.849-.16-5.584 22.975-36.535 25.049-49.139 2.074-12.604 22.495-44.193 26.005-56.957 3.51-12.763 9.573-17.549 16.593-17.549z" fill="#FD6"/><path d="M241.192 496.693c-5.825-2.446-9.514-.339-10.63 1.02l-6.027 14.705 6.647 39.081c1.462-.177 6.088-.425 12.894 0 8.507.532 15.274-4.005 18.231-2.769 2.956 1.236 7.525-1.612 5.096-3.279-2.429-1.666-5.58-1.72-5.096-3.064.484-1.343 3.924.914 9.621 2.473 5.698 1.559 7.58-4.031 6.558-6.02-1.021-1.989-20.963-4.193-18.867-4.569 2.096-.377 15.857 2.795 21.555 2.795s5.859-3.01 6.179-6.665c.32-3.656-16.446-2.4-19.617-2.4-3.172 0-14.166 0-8.779-1.165 5.388-1.165 20.824 1.165 30.871 1.165 10.048 0 10.339-4.368 10.194-8.3-.146-3.932-6.262-1.165-12.669 0-6.407 1.165-14.125-1.165-19.95-1.165-5.824 0-8.154-1.019-6.407-2.767 1.747-1.747 15.581 3.058 20.678 2.767 5.096-.291 7.718-2.912 10.339-8.737 2.621-5.825-7.718-4.368-16.892-4.368s-26.648-5.68-33.929-8.738z" fill="#FFF1F0"/><path d="M227.927 556.553c-4.413-1.07-7.132-.446-7.941 0l-13.705-39.611c1.467-6.726 5.022-19.873 7.514-18.656 3.114 1.521 12.281-3.715 17.225-4.844 4.943-1.129 1.125 4.233-1.839 11.149-2.964 6.915 1.17 18.82 1.839 21.871.668 3.051 4.89 11.786 4.43 17.595-.46 5.809 3.26 10.03 3.176 11.869-.084 1.839-5.182 1.965-10.699.627z" fill="#C0A74F"/><path d="M197.947 494.74c-13.329-1.851-23.45.772-26.844 2.314-10.181 3.703.926 60.937 7.56 60.783 6.633-.154 23.14-1.08 33.168-.926 10.027.155 9.256 3.549 7.868-5.553-1.389-9.102-6.326-18.05-7.868-34.403-1.543-16.352 7.25-19.901 2.468-22.215s.309 2.314-16.352 0z" fill="#FD6"/><path d="M173.392 525.754c-1.683-12.413.701-24.633 2.104-29.191 4.734-29.192-101.25 34.451-85.208 5.786 16.042-28.666 16.831-56.28 19.461-84.156 2.63-27.877 7.101-21.302-6.049-52.598s-40.237-28.403-43.393-20.513c-3.156 7.89-21.828 59.961-24.983 88.364-3.156 28.402-16.569 53.912-22.091 90.205-5.523 36.292 11.308 43.13 16.042 50.23 4.734 7.101 52.86 10.52 74.688 2.104 21.828-8.416 61.276-6.049 71.533-9.204 10.257-3.156 0-25.51-2.104-41.027z" fill="#F87980"/><path d="M38.872 319.729c.507-9.54 5.032-16.662 7.231-19.03a376.8 376.8 0 013.821-.541c-5.939-1.139-4.799-.178-8.134-2.63-3.451-2.537 5.243-5.202 10.022-6.216 7.283-2.175 31.325-1.339 40.121-1.339 8.796 0 9.578-2.15 13.585 0 4.007 2.15 6.353 8.405-.782 8.894-.837.058-1.935.193-3.244.382.428.415.625.897.557 1.45-1.014 8.373 6.217 7.993-1.395 19.03s-8.373 25.118-12.432 21.312c-4.06-3.805-21.567 3.553-30.194 3.806-8.626.254-11.925 14.463-11.925 6.217 0-8.246 0-5.202-4.313-14.716-4.314-9.515-3.553-4.694-2.918-16.619z" fill="#FD6"/><path d="M41.79 297.528c-3.451-2.537 5.243-5.202 10.022-6.216 7.283-2.175 31.325-1.339 40.12-1.339 8.797 0 9.579-2.15 13.586 0s6.353 8.405-.782 8.894c-7.135.489-33.134 6.653-47.47 2.974-14.334-3.679-11.163-1.142-15.477-4.313z" fill="#C0A74F"/><path d="M328.044 284.532c3.837-1.244 6.898-2.62 7.949-3.153.962 1.584 1.882 4.654-2.132 4.263-5.018-.489-5.24 2.798-9.636 5.284-4.397 2.487-5.729.089-5.818-1.509-.088-1.599 4.841-3.331 9.637-4.885z" fill="#FFF1F0"/><path d="M382.612 369.54c-6.274-13.734-7.56-32.427-7.418-40.057-20.352-20.104-31.58 56.377-32.004 68.882-.424 12.505 3.815 23.526 2.756 44.509-1.06 20.982 13.564 90.095 17.379 106.202 3.815 16.108 5.086 52.563 6.994 70.79 1.908 18.228-6.359 50.655 4.875 47.052 11.233-3.603 33.699-46.84 37.09-59.768 3.391-12.929 21.619-75.665 7.206-94.528-14.412-18.863-6.358-39.44-17.167-61.694-10.809-22.255-11.869-64.22-19.711-81.388z" fill="#A75155"/><path d="M387.628 305.723c-5.426-7.349-7.255-16.158-7.49-19.644-1.862-8.565-20.492 5.653-29.961 0-9.469-5.653-14.839-7.208-17.1-2.12-2.262 5.088 9.327 9.893 11.023 17.1 1.696 7.208 17.807 15.122 20.209 22.754 2.403 7.631 19.221 4.805 26.711 4.805 7.49 0 3.392-13.709-3.392-22.895z" fill="#FD6"/><path d="M350.659 277.207c-1.414 2.013-4.281 1.694-7.07 2.124-.297.048-3.949-.152-3.881 2.773.068 2.925 14.624 6.598 19.521 6.87 4.898.272 10.679-1.905 15.917-2.789 5.237-.884 7.142.952 7.346-3.673.204-4.625-9.931-5.713-13.604-8.23-3.673-2.517-16.461.408-18.229 2.925z" fill="#C0A74F"/><path d="M222.487 304.063c1.28-3.329 3.094-2.028 3.841-.961 3.84 2.721 4.641 6.242 3.04 10.563-1.6 4.321-4.32.48-6.881 0s-1.6-5.442 0-9.602zM227.941 333.843c-2.151.038-1.934 2.405-1.557 3.584.242 1.602-.377 1.321 0 7.217.378 5.896 8.821 2.736 7.264.943-1.556-1.792 0-5.565 0-8.16 0-2.594-3.019-3.631-5.707-3.584zM231.602 367.716c-2.646 1.029-1.898 4.043-1.194 5.421 1.378 2.848 1.194 5.237 3.767 8.912 2.572 3.675 2.664-.275 5.329-4.042 2.664-3.767.551-4.87-1.195-8.912-1.745-4.043-3.399-2.665-6.707-1.379zM231.602 403.272c0 2.941 2.205 5.697 3.308 6.707 1.99 2.5 0 1.47 4.594 2.849 4.594 1.378 1.102-4.135 3.491-9.556 2.389-5.42-.643-3.95-5.696-6.155s-5.697 2.48-5.697 6.155zM236.288 437.083c-1.617-3.161.98-6.523 2.481-7.81 1.862-2.189 1.837-.918 5.329-.735 3.491.184 1.47 2.849 2.664 7.81 1.194 4.961-4.502 8.544-4.869 6.339-.368-2.205-3.584-1.653-5.605-5.604zM239.688 465.564c-1.765 4.043.183 6.646 1.378 7.442 2.085 4.319 7.166 0 8.085-3.675.919-3.675-1.287-3.215-3.675-6.615-2.389-3.399-3.583-2.205-5.788 2.848zM277.686 386.395c2.14-5.993.892-13.316 0-16.229-1.058-5.84-10.343-4.102-11.77-10.879-1.427-6.777 8.025-5.885 9.274-10.343 1.248-4.459-10.522-9.987-7.847-15.101 2.675-5.114 13.375 3.584 16.942 1.725s3.032-16.05 7.49-16.05 6.063 16.585 9.274 17.909c3.21 1.325 15.515-7.744 17.477-3.584 1.961 4.16-6.064 14.209-5.707 18.132.357 3.924 14.624 11.592 14.624 15.741 0 4.15-11.771 2.45-11.771 5.421 0 2.972 4.459 22.531 0 22.888-4.458.356-5.528-7.669-8.56-11.057-3.032-3.389-4.458 12.149-9.274 12.149-4.815 0-2.675-11.792-8.025-12.149-5.35-.357-14.802 8.917-12.127 1.427z" fill="#A75155"/><path d="M232.231 600.099c1.889 1.786 1.674 2.825 1.544 3.535.018.954.007.674-1.832 1.506s-1.373 4.405-.425 3.976c.947-.429 2.807-1.808 4.068-1.841 1.26-.034 2.614 3.341 3.632 2.88 1.019-.461-.66-2.881-1.013-3.661-.353-.78 1.19-1.076 3.308-2.034 2.117-.959.817-1.715 0-2.631-.817-.915-2.815 2.539-3.884 1.805-1.068-.735-1.973-4.361-2.819-6.23-.846-1.869-4.941.461-2.579 2.695z" fill="#5C404E"/><path d="M249.953 240.785h-47.91l-7.984 1.928 32.49 32.352 23.404-34.28z" fill="#FFF1F0"/><path d="M291.484 203.492c-5.596 3.663-10.386-.127-12.082-2.48l7.047-111.223.012-.186-.012.186c-.38 6.892 6.207 4.526 9.296 33.835 3.116 29.569 4.26 23.337 3.434 37.581-.827 14.244 2.352 20.158 2.861 28.17.509 8.012-3.561 9.539-10.556 14.117z" fill="#2C1E25"/><mask id="d" maskUnits="userSpaceOnUse" x="181" y="18" width="107" height="230"><path d="M199.447 34.102c-8.787 7.436-15.491 18.87-17.744 23.659 1.221 44.032 3.662 136.039 3.662 151.811 0 19.716-3.662 15.491-2.253 26.758 1.408 11.266 26.757 11.829 45.346 10.702 18.589-1.126 33.235.564 40.84-7.604 7.604-8.168 9.857-40.277 12.956-56.049 3.098-15.773 4.224-57.739 4.788-92.946.563-35.207-5.352-32.672-11.266-38.587-5.915-5.915-8.45-17.744-18.308-27.038-9.858-9.295-29.574-6.479-38.023-4.789-8.45 1.69-9.013 4.789-19.998 14.083z" fill="#FFCBC8"/></mask><g mask="url(#d)"><path d="M199.447 34.102c-8.787 7.436-15.491 18.87-17.744 23.659 1.221 44.032 3.662 136.039 3.662 151.811 0 19.716-3.662 15.491-2.253 26.758 1.408 11.266 26.757 11.829 45.346 10.702 18.589-1.126 33.235.564 40.84-7.604 7.604-8.168 9.857-40.277 12.956-56.049 3.098-15.773 4.224-57.739 4.788-92.946.563-35.207-5.352-32.672-11.266-38.587-5.915-5.915-8.45-17.744-18.308-27.038-9.858-9.295-29.574-6.479-38.023-4.789-8.45 1.69-9.013 4.789-19.998 14.083z" fill="#FFCBC8"/><mask id="e" maskUnits="userSpaceOnUse" x="261" y="59" width="27" height="16"><path d="M274.346 73.49c5.326 1.115 10.424.465 12.307 0 1.265-3.973 2.726-12.245-1.547-13.546-5.342-1.626-12.618 1.006-15.483 3.406-2.864 2.4-9.211 1.78-8.437 4.722.774 2.942 6.502 4.025 13.16 5.419z" fill="#FFF1F0"/></mask><g mask="url(#e)"><path d="M274.346 73.49c5.326 1.115 10.424.465 12.307 0 1.265-3.973 2.726-12.245-1.547-13.546-5.342-1.626-12.618 1.006-15.483 3.406-2.864 2.4-9.211 1.78-8.437 4.722.774 2.942 6.502 4.025 13.16 5.419z" fill="#FFF1F0"/><path d="M275.53 66.064c-.93-2.323 2.086-4.065 3.71-4.646 3.517-1.806 5.001 2.388 5.033 4.324.032 1.935-1.452 1.935-3.484 2.613-2.033.677-4.098.613-5.259-2.29z" fill="#2C1E25"/></g></g><path d="M176.644 54.252c3.918-6.12 7.039-3.876 8.11-1.989 3.673 5.356 3.673-.765 7.345 11.17 3.672 11.935 1.377 22.188-1.377 32.44-2.754 10.252-7.039 22.34-.918 37.948 6.12 15.607 5.967 25.553 7.957 42.844 1.989 17.291-1.531 14.077-.919 23.717.613 9.64-7.344 12.089-14.842 13.313-7.498 1.224-6.886-2.295-5.662-13.313 1.224-11.017-1.224-21.422-6.273-29.685-5.05-8.262-1.071-30.909 4.131-45.904 5.203-14.996-1.683-30.91-5.202-43.15-3.52-12.242 2.754-19.74 7.65-27.39zM220.326 12.267c-5.173.485-7.139 6.061-7.476 8.79-.157 1.26-.768.908 1.01 4.545 2.223 4.547 4.041.708 11.719 2.02 7.678 1.314 10.002 5.355 17.882 0 7.88-5.354 11.012-3.434 13.437-4.848 2.425-1.415 3.334-8.487-3.536-10.507-6.87-2.02-8.486-2.728-16.67-3.637-8.183-.91-9.9 3.03-16.366 3.637zM274.907 47.718c2.656.438 6.79-.183 8.525-.548 3.299-.513 1.301-.308 2.637 2.328 1.335 2.637.171 3.493-2.089 5.615-2.26 2.123-5.581.856-11.538.548-5.958-.308-6.095 2.397-10.614.548-4.52-1.849.65-4.656 3.355-7.43 2.705-2.773 6.403-1.61 9.724-1.061zM211.41 47.47c-1.774 1.914-2.761 1.46-3.033.993-4.317-3.326-11.26 1.458-11.26 6.183s3.559 2.275 8.634 4.142c5.075 1.867 12.076-.291 21.76 1.575 9.684 1.867 16.859-6.242 8.517-7.7-8.342-1.459-12.776-9.917-16.743-10.034-3.967-.117-5.658 2.45-7.875 4.842z" fill="#2C1E25"/><path d="M247.373 176.68c5.986-17.72 5.088-78.224 3.891-106.26-.264-6.89-6.75 15.31-9.105 24.727-2.354 9.418-4.719 40.712-9.13 53.292-4.412 12.58-4.493 31.042-8.414 30.797-3.137-.196-3.297 2.405-2.984 3.73.099 2.595 2.275 9.639 10.177 17.062 9.878 9.279 8.082-1.197 15.565-23.348z" fill="#BE988D"/><path d="M209.585 225.152c-1.525.163-1.408 1.793-1.158 2.588 0 4.223 14.167-2.18 17.641-2.997 3.473-.817 9.058-1.566 14.575-1.975 5.517-.409 5.585-1.907 4.291-3.746-1.294-1.839-3.746-.341-8.377.749-4.632 1.09-15.461.341-18.594 2.52-3.133 2.18-6.471 2.656-8.378 2.861z" fill="#2C1E25"/><path d="M199.241 69.869c-2.934.978-.282 2.226 1.411 2.728 3.387 1.41 9.313 3.95 15.803 4.89 6.49.942 10.817-.752 13.639-1.786 2.822-1.035 2.728-1.6 2.069-3.95-.658-2.353-6.584-4.798-13.168-6.868-6.585-2.069-16.085 3.763-19.754 4.986z" fill="#FFF1F0"/><mask id="f" maskUnits="userSpaceOnUse" x="197" y="64" width="36" height="14"><path d="M199.241 69.869c-2.934.978-.282 2.226 1.411 2.728 3.387 1.41 9.313 3.95 15.803 4.89 6.49.942 10.817-.752 13.639-1.786 2.822-1.035 2.728-1.6 2.069-3.95-.658-2.353-6.584-4.798-13.168-6.868-6.585-2.069-16.085 3.763-19.754 4.986z" fill="#FFF1F0"/></mask><g mask="url(#f)"><path d="M216.691 69.041c-.128-2.847 1.546-3.932 2.399-4.12l8.798.92c-.586.694-1.655 2.68-1.239 5.08.519 3-1.4 3.28-4.04 3.4-2.639.119-5.759-1.72-5.918-5.28z" fill="#2C1E25"/></g><path d="M289.637 281.563c-7.582-2.8-9.769-5.832-9.914-6.999l-71.664 6.999c4.903 79.211 15.541 239.898 18.86 248.951 4.15 11.316 47.152-1.509 76.197 4.527 23.236 4.828 47.733 7.632 57.077 8.431 12.007-44.828 33.805-139.499 24.94-159.56-11.08-25.077-10.206-44.906-10.206-56.278s-26.534-46.8-35.136-46.071c-8.602.729-13.122 6.123-23.765 8.164-10.643 2.041-16.913-4.665-26.389-8.164z" fill="#F87980"/><path d="M232.355 261.024c-3.091 4.251-6.923 6.441-8.453 7.004-5.075 3.288 5.192 22.099 9.298 24.152 4.106 2.052 5.072 0 14.249 0 9.178 0 20.529-5.918 28.499-10.023 7.97-4.106 5.313-14.129 6.279-21.978.966-7.849-2.656-19.321-5.434-28.498-2.777-9.178-9.057-.604-18.476 1.932-9.352 2.518-14.061 10.155-18.501 17.356l-.095.153c-4.468 7.246-3.502 4.589-7.366 9.902zM213.966 320.878c.738-22.392-1.628-28.656-2.903-28.988.615 1.395.068 1.648-16.948-4.181-21.271-7.287-15.97 1.08-45.11 7.142-29.139 6.063-25.814 10.365-43.22 9.974-17.405-.391-45.958 14.472-45.958 30.117 0 12.517-5.801 36.011-8.702 46.194l51.855 78.901c0 7.641 1.819 4.366 8.551 19.649 5.385 12.226 5.518 20.377 4.912 22.924 37.634 13.756 113.087 39.055 113.825 30.196.923-11.073-7.382-31.681-3.384-49.521 3.999-17.84-5.536-55.366-3.998-80.588 1.538-25.223-9.843-53.828-8.92-81.819z" fill="#A75155"/><path d="M197.452 239.175c14.714 7.456 28.168 26.635 33.055 35.292 6.214 10.687 9.445 14.54 7.954 17.522-1.491 2.983-18.268 3.853-35.79 0-17.522-3.852-27.339-3.728-28.209-8.326-.87-4.598.373-23.86 1.988-30.197 1.616-6.338-.621-10.315 2.858-16.404 3.48-6.089-.248-7.207 18.144 2.113z" fill="#F87980"/><path d="M114.614 297.139c-3.838.333-7.58-.139-8.971-.418-2.923-.387-6.05 2.869-6.05 7.354 0 4.485 2.608.834 4.486 3.286 1.877 2.451 19.297-2.191 23.052-5.007 1.188-.892 3.434-.469-.947-5.215-4.381-4.746-6.772-.418-11.57 0z" fill="#FFF1F0"/><path d="M97.318 691.921c2.271-14.279 5.94-19.14 7.491-19.786l71.624-94.218 91.614-11.583 97.405 34.223c1.726 13.014 5.846 41.043 8.517 49.056 3.339 10.017-1.226 18.781 1.208 42.308 2.433 23.526-2.434 21.904-2.434 38.129 0 16.225-79.504 160.631-82.749 169.555-3.245 8.924-21.499 5.679-46.648 5.679-25.149 0-91.268-55.572-109.116-56.789-17.847-1.217-15.008-11.763-23.526-24.744-8.519-12.98-5.895-34.073-5.895-45.836 0-11.764-7.491-9.735-10.33-20.282-2.84-10.546 2.839-18.253 6.084-33.262 3.245-15.008-6.085-14.603-3.245-32.45z" fill="#5C404E"/><path d="M262.564 832.594c-1.066-15.19-16.656-31.647-24.318-37.976V596.979l16.12-35.366c23.468 7.532 71.584 25.149 76.299 35.366 5.894 12.771 24.56 96.929 39.296 126.401 14.735 29.472 8.186 139.172 11.133 173.228 2.947 34.056-12.771 90.38-8.514 95.946 4.257 5.567 6.222 26.526 5.567 38.646-.655 12.11 6.222 31.1-2.947 29.47-9.169-1.64-10.479 1.63-33.729 7.2s-38.313-.98-42.242-5.57c-3.93-4.58-4.912-36.02-3.275-69.746 1.637-33.728-7.069-39.074-7.647-61.026-.578-21.953-24.41-79.946-25.743-98.934z" fill="#A75155"/><path d="M120.248 680.312c.727-23.259 22.714-59.055 33.616-74.046l4.088-28.165 85.857-4.542c4.391 5.299 12.083 23.531 7.722 54.057-5.451 38.159 7.269 89.037-3.179 145.366-10.449 56.33-3.635 129.012-9.54 176.711-5.906 47.698 0 95.847 0 104.027 0 8.18-28.619 0-48.607 4.09-15.99 3.27-27.862-1.36-31.799-4.09 4.997-14.99 0-54.058 0-89.491s-22.259-94.033-25.893-140.369c-3.634-46.335-13.173-114.475-12.265-143.548z" fill="#FFCBC8"/><path d="M116.421 625.582c4.685-13.202 4.613-28.036 3.992-33.803 5.756-9.649 92.807-21.993 135.614-26.959 36.985.797 112.813 4.354 120.245 12.211 9.291 9.821-3.802 61.061-6.197 54.14-2.396-6.92-51.37-42.053-81.979-49.506-30.608-7.453-73.461 6.92-96.883 7.453-23.423.532-46.845 32.205-61.484 50.837-14.639 18.631-22.89 44.183-27.415 41.255-4.525-2.928 8.251-39.126 14.107-55.628z" fill="#2C1E25"/><path d="M369.451 585.214l-8.61-45.435c-1.686-8.895-47.028-6.227-71.125-8.139-24.097-1.912-168.369 19.049-168.369 30.797 0 11.747-7.285 35.096 0 36.023 7.286.927 23.579-11.524 42.124-16.16 18.545-4.637 52.323-5.034 70.735-5.034 18.413 0 34.838 3.444 57.489 0 22.651-3.444 55.635 5.828 65.304 7.285 7.736 1.166 11.525.928 12.452.663z" fill="#5C404E"/><path d="M217.846 567.537c-1.088-3.175 3.554-7.674 6.011-9.526l60.785-103.879c1.209-5.595 4.332-16.852 7.144-17.124 3.516-.34 13.722 6.691 16.33 9.186 2.609 2.495-1.928 9.866-5.783 18.031-3.856 8.165-14.516 25.97-19.96 36.516-5.443 10.547-19.845 36.517-20.979 40.486-1.134 3.969-8.506 13.268-12.021 21.887-3.516 8.619-12.475 14.062-17.805 14.062s-12.361-5.67-13.722-9.639z" fill="#C0A74F"/><path d="M290.058 436.547c5.616 0 5.637 9.572 4.945 14.359.982 11.636-12.763 31.11-17.549 41.64-4.787 10.53-21.38 42.119-24.73 47.544-3.35 5.424-10.848 30.951-15.475 30.951-4.627 0-14.678-5.265-14.838-10.849-.16-5.584 22.975-36.535 25.049-49.139 2.074-12.604 22.495-44.193 26.005-56.957 3.51-12.763 9.573-17.549 16.593-17.549z" fill="#FD6"/><path d="M241.192 496.693c-5.825-2.446-9.514-.339-10.63 1.02l-6.027 14.705 6.647 39.081c1.462-.177 6.088-.425 12.894 0 8.507.532 15.274-4.005 18.231-2.769 2.956 1.236 7.525-1.612 5.096-3.279-2.429-1.666-5.58-1.72-5.096-3.064.484-1.343 3.924.914 9.621 2.473 5.698 1.559 7.58-4.031 6.558-6.02-1.021-1.989-20.963-4.193-18.867-4.569 2.096-.377 15.857 2.795 21.555 2.795s5.859-3.01 6.179-6.665c.32-3.656-16.446-2.4-19.617-2.4-3.172 0-14.166 0-8.779-1.165 5.388-1.165 20.824 1.165 30.871 1.165 10.048 0 10.339-4.368 10.194-8.3-.146-3.932-6.262-1.165-12.669 0-6.407 1.165-14.125-1.165-19.95-1.165-5.824 0-8.154-1.019-6.407-2.767 1.747-1.747 15.581 3.058 20.678 2.767 5.096-.291 7.718-2.912 10.339-8.737 2.621-5.825-7.718-4.368-16.892-4.368s-26.648-5.68-33.929-8.738z" fill="#FFF1F0"/><path d="M227.927 556.553c-4.413-1.07-7.132-.446-7.941 0l-13.705-39.611c1.467-6.726 5.022-19.873 7.514-18.656 3.114 1.521 12.281-3.715 17.225-4.844 4.943-1.129 1.125 4.233-1.839 11.149-2.964 6.915 1.17 18.82 1.839 21.871.668 3.051 4.89 11.786 4.43 17.595-.46 5.809 3.26 10.03 3.176 11.869-.084 1.839-5.182 1.965-10.699.627z" fill="#C0A74F"/><path d="M197.947 494.74c-13.329-1.851-23.45.772-26.844 2.314-10.181 3.703.926 60.937 7.56 60.783 6.633-.154 23.14-1.08 33.168-.926 10.027.155 9.256 3.549 7.868-5.553-1.389-9.102-6.326-18.05-7.868-34.403-1.543-16.352 7.25-19.901 2.468-22.215s.309 2.314-16.352 0z" fill="#FD6"/><path d="M173.392 525.754c-1.683-12.413.701-24.633 2.104-29.191 4.734-29.192-101.25 34.451-85.208 5.786 16.042-28.666 16.831-56.28 19.461-84.156 2.63-27.877 7.101-21.302-6.049-52.598s-40.237-28.403-43.393-20.513c-3.156 7.89-21.828 59.961-24.983 88.364-3.156 28.402-16.569 53.912-22.091 90.205-5.523 36.292 11.308 43.13 16.042 50.23 4.734 7.101 52.86 10.52 74.688 2.104 21.828-8.416 61.276-6.049 71.533-9.204 10.257-3.156 0-25.51-2.104-41.027z" fill="#F87980"/><path d="M38.872 319.729c.507-9.54 5.032-16.662 7.231-19.03a376.8 376.8 0 013.821-.541c-5.939-1.139-4.799-.178-8.134-2.63-3.451-2.537 5.243-5.202 10.022-6.216 7.283-2.175 31.325-1.339 40.121-1.339 8.796 0 9.578-2.15 13.585 0 4.007 2.15 6.353 8.405-.782 8.894-.837.058-1.935.193-3.244.382.428.415.625.897.557 1.45-1.014 8.373 6.217 7.993-1.395 19.03s-8.373 25.118-12.432 21.312c-4.06-3.805-21.567 3.553-30.194 3.806-8.626.254-11.925 14.463-11.925 6.217 0-8.246 0-5.202-4.313-14.716-4.314-9.515-3.553-4.694-2.918-16.619z" fill="#FD6"/><path d="M41.79 297.528c-3.451-2.537 5.243-5.202 10.022-6.216 7.283-2.175 31.325-1.339 40.12-1.339 8.797 0 9.579-2.15 13.586 0s6.353 8.405-.782 8.894c-7.135.489-33.134 6.653-47.47 2.974-14.334-3.679-11.163-1.142-15.477-4.313z" fill="#C0A74F"/><path d="M328.044 284.532c3.837-1.244 6.898-2.62 7.949-3.153.962 1.584 1.882 4.654-2.132 4.263-5.018-.489-5.24 2.798-9.636 5.284-4.397 2.487-5.729.089-5.818-1.509-.088-1.599 4.841-3.331 9.637-4.885z" fill="#FFF1F0"/><path d="M382.612 369.54c-6.274-13.734-7.56-32.427-7.418-40.057-20.352-20.104-31.58 56.377-32.004 68.882-.424 12.505 3.815 23.526 2.756 44.509-1.06 20.982 13.564 90.095 17.379 106.202 3.815 16.108 5.086 52.563 6.994 70.79 1.908 18.228-6.359 50.655 4.875 47.052 11.233-3.603 33.699-46.84 37.09-59.768 3.391-12.929 21.619-75.665 7.206-94.528-14.412-18.863-6.358-39.44-17.167-61.694-10.809-22.255-11.869-64.22-19.711-81.388z" fill="#A75155"/><path d="M387.628 305.723c-5.426-7.349-7.255-16.158-7.49-19.644-1.862-8.565-20.492 5.653-29.961 0-9.469-5.653-14.839-7.208-17.1-2.12-2.262 5.088 9.327 9.893 11.023 17.1 1.696 7.208 17.807 15.122 20.209 22.754 2.403 7.631 19.221 4.805 26.711 4.805 7.49 0 3.392-13.709-3.392-22.895z" fill="#FD6"/><path d="M350.659 277.207c-1.414 2.013-4.281 1.694-7.07 2.124-.297.048-3.949-.152-3.881 2.773.068 2.925 14.624 6.598 19.521 6.87 4.898.272 10.679-1.905 15.917-2.789 5.237-.884 7.142.952 7.346-3.673.204-4.625-9.931-5.713-13.604-8.23-3.673-2.517-16.461.408-18.229 2.925z" fill="#C0A74F"/><path d="M222.487 304.063c1.28-3.329 3.094-2.028 3.841-.961 3.84 2.721 4.641 6.242 3.04 10.563-1.6 4.321-4.32.48-6.881 0s-1.6-5.442 0-9.602zM227.941 333.843c-2.151.038-1.934 2.405-1.557 3.584.242 1.602-.377 1.321 0 7.217.378 5.896 8.821 2.736 7.264.943-1.556-1.792 0-5.565 0-8.16 0-2.594-3.019-3.631-5.707-3.584zM231.602 367.716c-2.646 1.029-1.898 4.043-1.194 5.421 1.378 2.848 1.194 5.237 3.767 8.912 2.572 3.675 2.664-.275 5.329-4.042 2.664-3.767.551-4.87-1.195-8.912-1.745-4.043-3.399-2.665-6.707-1.379zM231.602 403.272c0 2.941 2.205 5.697 3.308 6.707 1.99 2.5 0 1.47 4.594 2.849 4.594 1.378 1.102-4.135 3.491-9.556 2.389-5.42-.643-3.95-5.696-6.155s-5.697 2.48-5.697 6.155zM236.288 437.083c-1.617-3.161.98-6.523 2.481-7.81 1.862-2.189 1.837-.918 5.329-.735 3.491.184 1.47 2.849 2.664 7.81 1.194 4.961-4.502 8.544-4.869 6.339-.368-2.205-3.584-1.653-5.605-5.604zM239.688 465.564c-1.765 4.043.183 6.646 1.378 7.442 2.085 4.319 7.166 0 8.085-3.675.919-3.675-1.287-3.215-3.675-6.615-2.389-3.399-3.583-2.205-5.788 2.848zM277.686 386.395c2.14-5.993.892-13.316 0-16.229-1.058-5.84-10.343-4.102-11.77-10.879-1.427-6.777 8.025-5.885 9.274-10.343 1.248-4.459-10.522-9.987-7.847-15.101 2.675-5.114 13.375 3.584 16.942 1.725s3.032-16.05 7.49-16.05 6.063 16.585 9.274 17.909c3.21 1.325 15.515-7.744 17.477-3.584 1.961 4.16-6.064 14.209-5.707 18.132.357 3.924 14.624 11.592 14.624 15.741 0 4.15-11.771 2.45-11.771 5.421 0 2.972 4.459 22.531 0 22.888-4.458.356-5.528-7.669-8.56-11.057-3.032-3.389-4.458 12.149-9.274 12.149-4.815 0-2.675-11.792-8.025-12.149-5.35-.357-14.802 8.917-12.127 1.427z" fill="#A75155"/><path d="M232.231 600.099c1.889 1.786 1.674 2.825 1.544 3.535.018.954.007.674-1.832 1.506s-1.373 4.405-.425 3.976c.947-.429 2.807-1.808 4.068-1.841 1.26-.034 2.614 3.341 3.632 2.88 1.019-.461-.66-2.881-1.013-3.661-.353-.78 1.19-1.076 3.308-2.034 2.117-.959.817-1.715 0-2.631-.817-.915-2.815 2.539-3.884 1.805-1.068-.735-1.973-4.361-2.819-6.23-.846-1.869-4.941.461-2.579 2.695z" fill="#5C404E"/><mask id="g" maskUnits="userSpaceOnUse" x="4.102" y=".482" width="440" height="1396" fill="#000"><path fill="#fff" d="M4.102.482h440v1396h-440z"/><path fill-rule="evenodd" clip-rule="evenodd" d="M201.197 21.044c.337-2.727 2.303-8.304 7.476-8.789 2.673-.25 4.535-1.071 6.377-1.883 2.614-1.152 5.189-2.287 9.989-1.754 7.142.794 9.282 1.433 14.278 2.926.728.218 1.518.454 2.392.711 4.36 1.282 5.586 4.599 5.281 7.213 3.972.984 7.631 2.656 10.471 5.334 5.63 5.309 8.871 11.444 11.718 16.832 1.055 1.997 2.056 3.892 3.105 5.604.447.073.894.156 1.338.239h.001c.431.08.859.16 1.281.23 2.657.438 6.791-.183 8.526-.549l.342-.053c1.132-.177 1.517-.238 1.655-.08.071.08.078.218.088.426.018.395.048 1.043.551 2.036 1.261 2.488.294 3.39-1.719 5.27-.12.11-.243.226-.37.345-.808.76-1.753 1.085-2.905 1.176.894.863 1.73 1.893 2.478 3.312.529.082 1.046.196 1.546.349 4.269 1.299 2.815 9.557 1.552 13.535.353 4.39.499 9.918.386 16.954l-.016 1.007-.014.876-.014.862c.314.751.745 1.478 1.254 2.337 2.098 3.538 5.519 9.305 7.5 28.105 1.278 12.129 2.224 18.234 2.839 22.2.884 5.702 1.082 6.98.594 15.381-.535 9.219.609 14.949 1.62 20.016.551 2.762 1.062 5.328 1.242 8.154.451 7.109-2.701 9.112-8.304 12.671l-.002.001-.005.004-.003.001c-.709.451-1.457.926-2.242 1.44-5.505 3.603-10.23-.006-11.997-2.364-1.324 9.22-2.83 19.164-4.976 26.859.917.569 1.675 1.721 2.272 3.693l.304 1.004.028.091.014.047c2.721 8.972 6.015 19.83 5.088 27.357-.245 1.996-.257 4.132-.268 6.276-.019 3.528-.038 7.076-1.101 10.052 1.327 1.427 3.964 3.292 8.763 5.064 2.911 1.075 5.519 2.452 8.044 3.785 5.696 3.008 10.971 5.794 18.345 4.38.84-.161 1.641-.343 2.409-.542.346-1.536 5.042-3.181 9.618-4.663a69.37 69.37 0 006.178-2.334c1.298-1.342 3.144-1.623 5.606-1.019.564-1.731 2.868-1.813 3.572-1.838h.005l.113-.004.02-.002a.435.435 0 00.048-.004c.655-.101 1.315-.161 1.959-.22 2.097-.19 4.028-.365 5.11-1.905 1.769-2.516 14.556-5.441 18.229-2.925 1.249.856 3.244 1.547 5.326 2.267 4.043 1.399 8.413 2.911 8.278 5.964-.119 2.693-.815 3.195-2.409 3.32.021.08.042.163.06.249.236 3.486 2.064 12.295 7.491 19.644 6.783 9.186 10.881 22.894 3.391 22.894-1.436 0-3.216.104-5.171.218-3.407.199-7.347.43-10.934.195l-.001.194.074.071.074.072.039.037.085.084c-.141 7.63 1.145 26.323 7.418 40.057 3.574 7.825 5.74 20.802 8.061 34.715 2.772 16.613 5.767 34.562 11.65 46.673 4.886 10.06 5.918 19.777 6.913 29.149 1.205 11.359 2.357 22.209 10.254 32.545 13.491 17.657-1.618 73.758-6.386 91.463l-.004.014-.008.028c-.32 1.19-.594 2.206-.808 3.023-3.391 12.928-25.857 56.165-37.09 59.768a6.3 6.3 0 01-.237.072l-.057.016-.067.017c-.397 6.172-.783 13.929.351 24.891 1.444 13.96.318 19.065-.837 24.299-.792 3.586-1.597 7.233-1.597 13.83v.084l-.002.082a7.294 7.294 0 01-.022.37c7.43 24.77 7.443 76.427 7.454 117.432V848.019c.006 20.345.01 38.066.92 48.579 1.655 19.123-2.575 45.266-5.849 65.502-2.557 15.803-4.532 28.004-2.665 30.445 4.257 5.567 6.222 26.525 5.567 38.645-.217 4.01.394 8.79.974 13.32.245 1.91.484 3.78.653 5.53l.265-.09c.149-.05.296-.11.441-.16 4.635-1.67 6.775-2.44 7.645 4.52.674 5.39-1.957 9.95-4.715 14.74-3.092 5.37-6.345 11.01-5.288 18.41.406 2.84 1.236 7.14 2.248 12.39 3.976 20.61 10.766 55.81 5.754 74.49-3.048 11.36-3.409 26.02-3.754 39.99-.366 14.84-.714 28.92-4.248 37.46-1.219 2.95-2.483 5.56-3.664 8h-.001c-5.463 11.29-9.146 18.9 1.664 38.88 8.515 15.73 18.707 24.15 27.473 31.39 4.769 3.94 9.115 7.53 12.539 11.76 1.988 2.46 4.3 4.97 6.625 7.5l.003.01c9.041 9.84 18.3 19.92 9.663 27.64-10.861 9.72-23.722 15.15-37.154 6.01-4.843-3.3-10.651-5.56-16.126-7.69-9.712-3.77-18.376-7.14-18.742-15.18-.571-12.57-8.288-26.58-12.575-26.01-1.783.24-2.479 2.95-3.238 5.92-1.066 4.15-2.259 8.8-6.765 7.8-1.224-.27-2.283-.43-3.198-.58-4.852-.75-5.661-.87-5.661-13.14 0-7.24-1.342-14.77-2.621-21.95-1.295-7.26-2.525-14.16-2.238-20.06.324-6.64-2.752-18.16-5.529-28.55-2.12-7.94-4.064-15.22-4.188-19.18-.114-3.65-2.643-15.27-5.64-29.05h-.001l-.001-.01c-4.509-20.72-10.077-46.32-10.077-56.96 0-7.52-1.593-17.29-3.211-27.21-2.196-13.48-4.437-27.23-2.791-35.95 1.267-6.72-.473-17.25-1.967-26.3-1.877-11.37-3.368-20.39 1.967-16.57.051 1.62 1.271 3.96 4.833 5.54-2.458-10.73-2.91-37.22-1.547-65.305.962-19.815-1.646-29.834-4.079-39.179-1.708-6.562-3.33-12.792-3.568-21.848-.169-6.432-2.335-15.958-5.346-26.69-5.434 1.34-13.557 1.084-23.559.77-4.928-.155-10.311-.324-16.055-.324-.615 0-1.255-.034-1.919-.099-.321 16.168-.981 31.297-2.616 44.51-4.715 38.081-1.902 76.455-.575 94.535v.01l.002.02c.137 1.88.259 3.53.354 4.94 1.689.15 2.892.43 3.554.89 1.255 13.76 3.013 46.32 0 66.41-2.344 15.63 1.219 57.12 4.417 94.35 1.94 22.58 3.745 43.6 4.016 56.33.377 17.75 4.629 33.41 7.789 45.05 2.845 10.48 4.806 17.7 2.256 20.25-5.381 5.38-27.984 13.63-30.854 10.04-1.394-1.74-1.603-4.16-1.779-6.19-.185-2.14-.333-3.85-1.809-3.85-.844 0-1.844 1.58-3.318 3.92-3.538 5.6-9.81 15.54-23.231 18.32-5.79 1.2-11.946 3.07-17.89 4.87h-.004c-13.576 4.12-26.049 7.9-30.539 2.67-6.458-7.54-3.947-21.53 4.305-29.78 2.431-2.43 3.648-4.21 4.568-5.55 2.201-3.22 2.7-3.95 14.088-5.22 10.101-1.12 11.635-8.7 13.214-16.51.944-4.67 1.904-9.41 4.724-12.9 2.942-3.65 4.572-6.91 5.913-9.59 2.094-4.19 3.487-6.98 8.079-7.64 4.128-.59-.467-8.28-5.466-16.66-4.125-6.91-8.526-14.28-8.526-18.49 0-3.07-1.475-5.68-3.467-9.19-4.065-7.17-10.284-18.15-10.525-44.63-.208-22.86-5.831-44.99-10.527-63.48-3.412-13.43-6.335-24.93-6.335-33.39 0-8.87-3.665-18.08-6.563-25.35-3.66-9.19-6.094-15.31 1.637-13.79.657.29 1.599.61 2.823.94 2.333-10.39 1.454-28.68.472-49.13-.586-12.197-1.209-25.159-1.209-37.669 0-18.261-5.912-42.677-12.14-68.395-3.775-15.586-7.665-31.65-10.425-47.114a12.415 12.415 0 00-1.609-.227c-12.57-.857-14.879-6.342-18.121-14.046-1.361-3.234-2.887-6.86-5.406-10.698-7.028-10.709-6.472-26.941-6.062-38.899.087-2.536.167-4.879.167-6.937 0-6.501-2.288-8.79-4.814-11.317-2.045-2.046-4.246-4.247-5.516-8.965-1.883-6.991-.022-12.735 2.392-20.184 1.228-3.789 2.598-8.018 3.692-13.078 1.592-7.364.157-11.017-1.382-14.936-1.598-4.069-3.31-8.424-1.863-17.514 1.155-7.26 2.671-12.085 4.087-15.16.725-10.78 10.204-37.622 15.013-51.176 3.405-9.595 4.298-20.053 4.293-27.265-4.097-1.447-2.525-11.611-.974-21.636.253-1.637.506-3.269.733-4.859-6.029.982-11.704 2.314-16.52 4.171-21.828 8.415-69.954 4.996-74.688-2.104-.911-1.367-2.27-2.724-3.832-4.283-6.553-6.541-16.67-16.641-12.21-45.948 2.767-18.19 7.517-33.671 11.964-48.165 4.426-14.425 8.552-27.872 10.126-42.04 2.703-24.324 16.786-66.008 22.757-82.433.37-2.131.697-4.223.965-6.23-.345.028-.678.047-1 .057-4.668.137-7.776 4.361-9.646 6.902-1.584 2.154-2.279 3.098-2.279-.686 0-3.704 0-5.13-.39-6.439-.245-.82-.643-1.594-1.29-2.852-.62-1.207-1.47-2.859-2.633-5.425a123.918 123.918 0 00-2.015-4.225v-.001c-.7-1.411-1.083-2.183-1.264-3-.217-.985-.139-2.035.033-4.353v-.001c.092-1.249.212-2.866.328-5.039.507-9.54 5.032-16.661 7.231-19.029 1.203-.177 2.482-.359 3.821-.541a62.641 62.641 0 00-3.636-.592h-.002l-.001-.001c-.653-.089-1.105-.151-1.499-.254-.821-.213-1.39-.602-2.996-1.784-3.451-2.537 5.243-5.201 10.022-6.216 5.935-1.772 22.998-1.545 33.871-1.4 2.47.033 4.622.062 6.25.062 3.678 0 5.955-.376 7.653-.657 1.645-.271 2.745-.453 4.049-.116.569.147 1.176.393 1.885.773 2.801 1.503 4.79 5.013 3.296 7.156 1.666.133 3.72.19 5.802.009 1.595-.139 2.924-.71 4.149-1.236 2.459-1.057 4.497-1.932 7.421 1.236 1.365 1.479 2.087 2.456 2.398 3.127 4.479-1.529 10.606-3.368 20.403-5.407 11.381-2.367 17.508-5.087 22.016-7.087 1.799-.798 3.339-1.482 4.853-1.984-.766-.583-1.234-1.272-1.395-2.123-.87-4.598.372-23.86 1.988-30.198.649-2.547.676-4.712.702-6.787.039-3.088.075-5.974 2.156-9.616.55-.962.919-1.8 1.225-2.492.449-1.017.759-1.72 1.297-2.04.257-.153.567-.219.969-.19-.047-2.569.337-4.025.822-5.862.662-2.505 1.51-5.718 1.707-13.427a52.73 52.73 0 01-3.318.641c-7.282 1.188-6.915-2.096-5.766-12.377l.005-.045.099-.891c1.224-11.017-1.224-21.422-6.274-29.685-5.049-8.263-1.071-30.909 4.132-45.905 4.383-12.633.186-25.918-3.349-37.11-.661-2.092-1.299-4.112-1.854-6.04-3.158-10.985 1.57-18.15 6.112-25.034h.001c.519-.788 1.036-1.571 1.538-2.356 3.871-6.05 6.966-3.928 8.071-2.056 3.291-5.502 8.483-12.806 14.728-18.09 3.018-2.553 5.249-4.64 7.073-6.357-1.997.315-3.091.336-4.306-2.15-1.415-2.895-1.317-3.262-1.139-3.928.046-.17.097-.36.129-.618zm168.839 610.07l.05.29.046.268.057.326.213 1.223.013-.255.02-.416.016-.351.019-.429c-.161-.075-.301-.273-.416-.606l-.007-.019-.011-.031zM234.28 536.298c2.441-.321 4.85-.63 7.218-.925-2.915-.018-5.506-.187-7.679-.586.159.499.314 1.003.461 1.511zm126.674 4.215l5.137 27.107c-.764-7.291-1.667-13.801-2.791-18.547a587.183 587.183 0 01-2.122-9.407l-.224.847zM90.257 502.349c6.942-12.404 11.027-24.612 13.642-36.729.324.641.742 1.289 1.273 2.111 1.323 2.048 3.342 5.176 6.328 11.955 5.386 12.226 5.519 20.377 4.912 22.924l.533.194.377.138.571.208c-19.318 6.917-34.435 11.347-27.636-.801z"/></mask><path d="M208.673 12.255l-.747-7.965.747 7.965zm-7.476 8.79l7.938.988.001-.008-7.939-.98zm13.853-10.673l-3.226-7.32 3.226 7.32zm9.989-1.754l-.883 7.951.883-7.951zm14.278 2.926l2.291-7.665-2.291 7.665zm2.392.711l-2.257 7.675 2.257-7.675zm5.281 7.213l-7.946-.928-.817 6.999 6.84 1.694 1.923-7.765zm10.471 5.334l-5.488 5.821 5.488-5.82zm11.718 16.832l7.073-3.737-7.073 3.737zm3.105 5.604l-6.823 4.178 1.912 3.122 3.613.594 1.298-7.894zm1.338.239l-1.462 7.865.047.009.047.008 1.368-7.882zm0 0l-1.368 7.882.067.012.066.01 1.235-7.904zm.001 0l1.462-7.865-.113-.021-.114-.018-1.235 7.904zm1.281.23l1.302-7.894-1.302 7.893zm8.526-.549l-1.235-7.904-.208.033-.205.043 1.648 7.828zm.342-.053l1.235 7.904h.003l-1.238-7.904zm1.655-.08l5.995-5.298-.001-.002-5.994 5.3zm.088.426l7.991-.372-7.991.372zm.551 2.036l-7.137 3.614 7.137-3.614zm-1.719 5.27l-5.459-5.85 5.459 5.85zm-.37.345L278.5 49.27l5.477 5.83zm-2.905 1.176l-.629-7.975-17.701 1.395 12.772 12.334 5.558-5.754zm2.478 3.312l-7.077 3.73 1.879 3.566 3.984.612 1.214-7.908zm1.546.349l2.33-7.654h-.001l-2.329 7.654zm1.552 13.535l-7.625-2.422-.475 1.497.126 1.566 7.974-.641zm.386 16.954l7.999.129v-.001l-7.999-.128zm-.016 1.007l7.999.13v-.001l-7.999-.13zm-.014.876l7.999.133v-.002l-7.999-.131zm-.014.862l-7.999-.132-.028 1.675.646 1.545 7.381-3.087zm1.254 2.337l-6.881 4.08 6.881-4.08zm7.5 28.105l-7.956.838 7.956-.838zm2.839 22.2l7.905-1.226-7.905 1.226zm.594 15.381l7.987.463-7.987-.463zm1.62 20.016l-7.846 1.565 7.846-1.565zm1.242 8.154l-7.984.507 7.984-.507zm-8.304 12.671l4.267 6.767.011-.007.012-.008-4.29-6.752zm-.002.001l-4.266-6.767-.013.008-.012.008 4.291 6.751zm-.005.004l-4.291-6.752-.018.011-.017.011 4.326 6.73zm-.003.001l4.29 6.753.018-.012.018-.011-4.326-6.73zm-2.242 1.44l-4.381-6.694 4.381 6.694zm-11.997-2.364l6.403-4.797-11.577-15.454-2.744 19.114 7.918 1.137zm-4.976 26.859l-7.706-2.149-1.612 5.782 5.1 3.165 4.218-6.798zm2.272 3.693l7.657-2.317-7.657 2.317zm.304 1.004l7.656-2.321v-.001l-7.656 2.322zm.028.091l-7.656 2.32.001.004 7.655-2.324zm.014.047l7.656-2.322-.001-.002-7.655 2.324zm5.088 27.357l7.94.977-7.94-.977zm-.268 6.276l-8-.042 8 .042zm-1.101 10.052l-7.534-2.691-1.635 4.579 3.311 3.56 5.858-5.448zm8.763 5.064l-2.771 7.505 2.771-7.505zm8.044 3.785l-3.736 7.075 3.736-7.075zm18.345 4.38l-1.506-7.857 1.506 7.857zm2.409-.542l2.004 7.745 4.731-1.224 1.071-4.768-7.806-1.753zm9.618-4.663l2.466 7.61-2.466-7.61zm6.178-2.334l3.195 7.334 1.454-.633 1.103-1.14-5.752-5.561zm5.606-1.019l-1.903 7.77 7.212 1.767 2.298-7.061-7.607-2.476zm3.572-1.838v-8h-.142l-.142.005.284 7.995zm0 0v8h.137l.137-.004-.274-7.996zm.005 0l.274 7.995h.017l-.291-7.995zm.113-.004l-.408-7.99.408 7.99zm.02-.002l.502 7.985.005-.001-.507-7.984zm.048-.004l-1.222-7.906-.026.004-.026.004 1.274 7.898zm1.959-.22v-8h-.362l-.361.033.723 7.967zm0 0v8h.362l.36-.032-.722-7.968zm5.11-1.905l-6.545-4.599 6.545 4.599zm18.229-2.925l4.522-6.599-4.522 6.599zm5.326 2.267l2.617-7.56-2.617 7.56zm8.278 5.964l7.992.352-7.992-.352zm-2.409 3.32l-.621-7.976-9.617.749 2.514 9.312 7.724-2.085zm.06.249l7.982-.54-.04-.585-.124-.574-7.818 1.699zm7.491 19.644l6.435-4.753-6.435 4.753zm-1.78 23.112l-.466-7.986.466 7.986zm-10.934.195l.522-7.983-8.486-.555-.036 8.504 8 .034zm-.001.194l-8-.033-.015 3.443 2.491 2.378 5.524-5.788zm.074.071l5.538-5.773-.007-.007-.008-.007-5.523 5.787zm.074.072l5.58-5.734-.009-.007-5.571 5.741zm.039.037l5.588-5.724-.009-.009-5.579 5.733zm.085.084l7.998.148.064-3.431-2.442-2.411-5.62 5.694zm7.418 40.057l-7.277 3.324 7.277-3.324zm8.061 34.715l7.891-1.317-7.891 1.317zm11.65 46.673l7.196-3.496-7.196 3.496zm6.913 29.149l7.955-.845-7.955.845zm10.254 32.545l-6.357 4.857 6.357-4.857zm-6.386 91.463l7.72 2.096.002-.008.003-.008-7.725-2.08zm-.004.014l-7.72-2.096-.003.007-.002.008 7.725 2.081zm-.008.028l-7.724-2.082v.002l7.724 2.08zm-.808 3.023l7.738 2.029-7.738-2.029zm-37.09 59.768l2.442 7.618h.001l-2.443-7.618zm-.237.072l2.165 7.701.009-.003-2.174-7.698zm-.057.016l2.091 7.721.009-.002.009-.002-2.109-7.717zm-.067.017l-2.028-7.738-5.585 1.463-.37 5.761 7.983.514zm.351 24.891l7.958-.824-7.958.824zm-.837 24.299l7.812 1.724-7.812-1.724zm-1.597 13.914l-7.999-.129v.002l7.999.127zm-.002.082l7.996.248v-.001l-7.996-.247zm-.022.37l-7.971-.681-.13 1.519.438 1.46 7.663-2.298zm7.454 117.432h8v-.002l-8 .002zm0 .011h-8v.002l8-.002zm.92 48.579l7.97-.69-7.97.69zm-5.849 65.502l-7.898-1.278 7.898 1.278zm-2.665 30.445l6.355-4.86-6.355 4.86zm5.567 38.645l7.988.43-7.988-.43zm.974 13.32l7.972-.67-.015-.17-.022-.18-7.935 1.02zm0 0l-7.973.66.022.26.039.26 7.912-1.18zm0 0l7.935-1.02-.011-.08-.013-.09-7.911 1.19zm.653 5.53l-7.963.77.984 10.21 9.662-3.44-2.683-7.54zm.265-.09l-2.699-7.53h-.002l2.701 7.53zm.441-.16l-2.71-7.53h-.002l2.712 7.53zm7.645 4.52l-7.938.99 7.938-.99zm-4.715 14.74l-6.932-3.99 6.932 3.99zm-5.288 18.41l7.919-1.13-7.919 1.13zm2.248 12.39l7.855-1.51-7.855 1.51zm5.754 74.49l7.727 2.08-7.727-2.08zm-3.754 39.99l7.998.19-7.998-.19zm-4.248 37.46l-7.392-3.05 7.392 3.05zm-3.664 8l-7.201-3.48-.009.02-.01.02 7.22 3.44zm-.001 0l7.201 3.49.01-.02.009-.02-7.22-3.45zm1.664 38.88l-7.035 3.8 7.035-3.8zm27.473 31.39l-5.095 6.17 5.095-6.17zm12.539 11.76l-6.218 5.03 6.218-5.03zm6.625 7.5l5.98-5.31-.044-.05-.044-.05-5.892 5.41zm.003.01l-5.979 5.31.044.05.044.05 5.891-5.41zm9.663 27.64l-5.335-5.96 5.335 5.96zm-37.154 6.01l-4.503 6.61 4.503-6.61zm-16.126-7.69l2.897-7.45-2.897 7.45zm-18.742-15.18l-7.991.37 7.991-.37zm-12.575-26.01l1.058 7.93-1.058-7.93zm-3.238 5.92l-7.749-1.99 7.749 1.99zm-6.765 7.8l1.736-7.81-1.736 7.81zm-3.198-.58l-1.226 7.91 1.226-7.91zm-8.282-35.09l-7.876 1.41 7.876-1.41zm-2.238-20.06l7.991.39-7.991-.39zm-5.529-28.55l-7.761 1.94.016.06.016.06 7.729-2.06zm0 0l7.761-1.94-.016-.07-.016-.06-7.729 2.07zm-4.188-19.18l7.996-.25-7.996.25zm-5.64-29.05l-7.827 1.65.005.03.005.02 7.817-1.7zm0 0l7.827-1.65-.011-.05-.012-.06-7.804 1.76zm-.001 0l7.805-1.76-.005-.02-.005-.02-7.795 1.8zm-.001-.01l-7.817 1.71.011.04.011.05 7.795-1.8zm-13.288-84.17l-7.895 1.28 7.895-1.28zm-2.791-35.95l7.862 1.48-7.862-1.48zm-1.967-26.3l-7.894 1.3 7.894-1.3zm1.967-16.57l7.997-.25-.124-3.96-3.217-2.3-4.656 6.51zm4.833 5.54l-3.234 7.31 14.593 6.45-3.561-15.55-7.798 1.79zm-1.547-65.305l-7.991-.388 7.991.388zm-4.079-39.179l-7.742 2.016 7.742-2.016zm-3.568-21.848l7.997-.211-7.997.211zm-5.346-26.69l7.703-2.161-2.094-7.461-7.524 1.855 1.915 7.767zm-23.559.77l-.252 7.996.252-7.996zm-17.974-.423l.781-7.961-8.607-.844-.172 8.647 7.998.158zm-2.616 44.51l7.939.983-7.939-.983zm-.575 94.535l-7.979.59.001.01 7.978-.6zm0 .01l-7.978.59.006.08.007.07 7.965-.74zm0 0l7.978-.59-.005-.08-.008-.08-7.965.75zm.002.02l7.979-.58h-.001l-7.978.58zm.354 4.94l-7.982.54.461 6.84 6.831.59.69-7.97zm3.554.89l7.967-.73-.342-3.75-3.107-2.12-4.518 6.6zm0 66.41l-7.911-1.19 7.911 1.19zm4.417 94.35l7.972-.66v-.02l-.001-.01-7.971.69zm0 0l-7.972.66.001.01v.02l7.971-.69zm4.016 56.33l7.998-.17-7.998.17zm7.789 45.05l-7.721 2.09 7.721-2.09zm2.256 20.25l-5.657-5.66 5.657 5.66zm-30.854 10.04l6.247-4.99-6.247 4.99zm-1.779-6.19l7.971-.69-7.971.69zm-5.127.07l6.765 4.27-6.765-4.27zm-23.231 18.32l1.626 7.83-1.626-7.83zm-17.89 4.87l-2.322-7.65-.141.04-.14.05 2.603 7.56zm-.004 0l2.322 7.66.141-.04.14-.05-2.603-7.57zm-30.539 2.67l6.074-5.21-6.074 5.21zm4.305-29.78l-5.657-5.66 5.657 5.66zm4.568-5.55l-6.602-4.52 6.602 4.52zm14.088-5.22l-.884-7.95.884 7.95zm13.214-16.51l-7.842-1.58 7.842 1.58zm4.724-12.9l-6.223-5.03 6.223 5.03zm5.913-9.59l7.156 3.57-7.156-3.57zm8.079-7.64l1.132 7.92-1.132-7.92zm-5.466-16.66l6.869-4.1-6.869 4.1zm-11.993-27.68l6.96-3.95-6.96 3.95zm-10.525-44.63l8-.07-8 .07zm-10.527-63.48l7.754-1.97-7.754 1.97zm-12.898-58.74l-7.432 2.96 7.432-2.96zm1.637-13.79l3.226-7.32-.815-.36-.874-.17-1.537 7.85zm2.823.94l-2.074 7.73 8.053 2.16 1.827-8.14-7.806-1.75zm.472-49.13l7.991-.39-7.991.39zm-13.349-106.064l7.775-1.883-7.775 1.883zm-10.425-47.114l7.875-1.406-.954-5.348-5.324-1.085-1.597 7.839zm-1.609-.227l.545-7.981h-.001l-.544 7.981zm-18.121-14.046l-7.374 3.103 7.374-3.103zm-5.406-10.698l-6.688 4.39 6.688-4.39zm-6.062-38.899l-7.994-.3v.013l-.001.013 7.995.274zm0 0l7.994.299.001-.013v-.012l-7.995-.274zm-4.647-18.254l5.657-5.656-5.657 5.656zm-5.516-8.965l7.725-2.08-7.725 2.08zm2.392-20.184l-7.61-2.466 7.61 2.466zm3.692-13.078l7.82 1.691-7.82-1.691zm-1.382-14.936l-7.446 2.925 7.446-2.925zM97.3 691.911l7.901 1.256-7.9-1.256zm4.087-15.16l7.267 3.345.616-1.338.099-1.47-7.982-.537zm15.013-51.176l-7.539-2.675 7.539 2.675zm4.293-27.265l8-.005-.004-5.655-5.332-1.883-2.664 7.543zm-.974-21.636l-7.906-1.223 7.906 1.223zm.733-4.859l7.919 1.131 1.54-10.778-10.745 1.751 1.286 7.896zm-16.52 4.171l2.878 7.464-2.878-7.464zm-74.688-2.104l6.656-4.438-6.656 4.438zm-3.832-4.283l5.652-5.662-5.652 5.662zm-12.21-45.948l-7.91-1.203 7.91 1.203zm11.964-48.165l7.649 2.346-7.648-2.346zm10.126-42.04l-7.95-.883 7.95.883zm22.757-82.433l7.519 2.733.242-.667.121-.698-7.882-1.368zm.965-6.23l7.93 1.06 1.316-9.844-9.898.81.652 7.974zm-1 .057l.235 7.996-.235-7.996zm-9.646 6.902l-6.443-4.741 6.444 4.741zm-2.67-7.125l7.666-2.288-7.666 2.288zm-1.29-2.852l7.116-3.658-7.115 3.658zm-2.632-5.425l-7.287 3.303 7.287-3.303zm-2.015-4.225l-7.256 3.369.043.093.046.093 7.167-3.555zm0-.001l7.256-3.369-.07-.15-.076-.147-7.11 3.666zm0 0l-7.167 3.555.027.056.03.055 7.11-3.666zm-1.264-3l-7.812 1.723 7.813-1.723zm.033-4.353l7.978.591.003-.046.003-.046-7.984-.499zm0-.001l-7.978-.591-.004.046-.003.046 7.985.499zm.328-5.039l-7.99-.425 7.99.425zm7.231-19.029l-1.163-7.915-2.784.409-1.915 2.062 5.862 5.444zm3.821-.541l1.082 7.926.425-15.783-1.507 7.857zm-3.636-.592l1.087-7.926-.055-.008-.055-.006-.977 7.94zm-.002 0l.977-7.941-.055-.006-.056-.006-.866 7.953zm0 0l-1.316 7.891.224.037.226.025.866-7.953zm-.001-.001l1.315-7.891-.653-.109h-.662v8zm0 0l-1.736 7.81.858.19h.878v-8zm0 0l1.735-7.809-.322-.072-.327-.045-1.087 7.926zm-1.499-.254l2.015-7.742h-.002l-2.013 7.742zm-2.996-1.784l-4.74 6.446 4.74-6.446zm10.022-6.216l1.662 7.825.317-.067.31-.093-2.289-7.665zm33.871-1.4l-.106 7.999.053.001h.053v-8zm0 0l.107-7.999-.053-.001h-.053v8zm13.903-.595l1.303 7.893.453-.074.441-.127-2.197-7.692zm0 0l-1.431-7.871-.388.071-.379.108 2.198 7.692zm0 0l-1.303-7.893-.064.011-.064.011 1.431 7.871zm4.049-.116l-2.003 7.745.002.001 2.001-7.746zm1.885.773l3.782-7.049-3.782 7.049zm3.296 7.156l-6.562-4.576-7.973 11.433 13.894 1.117.641-7.974zm5.802.009l.693 7.97-.693-7.97zm4.149-1.236l-2.734-7.519-.214.078-.21.09 3.158 7.351zm0 0l2.734 7.518.215-.078.209-.09-3.158-7.35zm7.421 1.236l5.879-5.426-5.879 5.426zm2.398 3.127l-7.26 3.361 3.026 6.537 6.818-2.327-2.584-7.571zm20.403-5.407l1.629 7.833-1.629-7.833zm22.016-7.087l-3.245-7.313 3.245 7.313zm4.853-1.984l2.517 7.594 14.411-4.775-12.087-9.188-4.841 6.369zm-1.395-2.123l7.86-1.488-7.86 1.488zm1.988-30.198l7.752 1.976-7.752-1.976zm.702-6.787l-7.999-.1 7.999.1zm2.156-9.616l-6.946-3.969 6.946 3.969zm1.225-2.492l-7.264-3.352-.028.06-.027.062 7.319 3.23zm0 0l7.264 3.352.028-.06.027-.062-7.319-3.23zm1.297-2.04l-4.093-6.874 4.093 6.874zm.969-.19l-.583 7.979 8.741.638-.16-8.763-7.998.146zm.822-5.862l7.735 2.043-7.735-2.043zm1.707-13.427l7.998.204.263-10.319-10.058 2.319 1.797 7.796zm-3.318.641l-1.29-7.896 1.29 7.896zm-5.766-12.377l7.95.888v-.003l-7.95-.885zm.005-.045l-7.951-.888v.003l7.951.885zm.099-.891l-7.951-.883 7.951.883zm-2.142-75.59l7.558 2.623-7.558-2.623zm-3.349-37.11l-7.646 2.353.008.03.009.028 7.629-2.41zm0 0l7.646-2.352-.009-.029-.009-.029-7.628 2.41zm-1.854-6.04l-7.688 2.21 7.688-2.21zm6.112-25.034l-6.598-4.524-.04.059-.039.06 6.677 4.405zm.001 0l6.597 4.524.041-.06.039-.059-6.677-4.406zm1.538-2.356l-6.738-4.313 6.738 4.313zm8.071-2.056l-6.888 4.069 6.846 11.59 6.908-11.553-6.866-4.106zm14.728-18.09l5.167 6.107-5.167-6.107zm7.073-6.357l5.484 5.825 18.869-17.764-25.599 4.037 1.246 7.902zm-4.306-2.15l7.187-3.513-7.187 3.514zm-1.139-3.928l7.728 2.069-7.728-2.069zm169.018 609.742l-7.885 1.354.001.004 7.884-1.358zm-.05-.29l7.52-2.731-15.404 4.085 7.884-1.354zm.096.558l-7.884 1.358.001.004 7.883-1.362zm.057.326l-7.884 1.362.001.003 7.883-1.365zm.213 1.223l-7.879 1.386 15.869-.988-7.99-.398zm.013-.255l7.99.397v-.005l-7.99-.392zm.02-.416l7.991.375-7.991-.375zm.016-.351l7.992.36v-.001l-7.992-.359zm.019-.429l7.992.34.227-5.328-4.831-2.259-3.388 7.247zm-.416-.606l7.56-2.617-.007-.02-.007-.021-7.546 2.658zm-.007-.019l7.546-2.659-.013-.036-.013-.036-7.52 2.731zm-128.549-95.772l.988 7.939-.938-15.938-.05 7.999zm-7.218.925l-7.686 2.22 1.909 6.609 6.82-.897-1.043-7.932zm-.461-1.511l1.444-7.868-13.121-2.409 4.056 12.709 7.621-2.432zm132.272 32.833l-7.86 1.489 15.816-2.323-7.956.834zm-5.137-27.107l-7.734-2.046-.464 1.754.338 1.782 7.86-1.49zm2.346 8.56l-7.785 1.844 7.785-1.844zm-2.122-9.407l7.815-1.708-15.551-.331 7.736 2.039zM103.899 465.62l7.139-3.609-10.194-20.163-4.765 22.085 7.82 1.687zm-13.642 36.729l-6.981-3.907 6.98 3.907zm14.915-34.618l6.72-4.34-6.72 4.34zm6.328 11.955l-7.321 3.225 7.321-3.225zm4.912 22.924l-7.782-1.853-1.649 6.925 6.687 2.442 2.744-7.514zm.533.194l-2.745 7.515.003.001 2.742-7.516zm.377.138l-2.742 7.516.004.001 2.738-7.517zm.571.208l2.697 7.532 20.855-7.467-20.814-7.582-2.738 7.517zM207.926 4.29c-5.701.534-9.413 3.964-11.49 7.124-1.984 3.02-2.892 6.325-3.179 8.65l15.879 1.96c.015-.116.073-.438.213-.847a4.41 4.41 0 01.458-.974c.152-.233.213-.242.111-.172a1.17 1.17 0 01-.498.19L207.926 4.29zm3.898-1.239c-1.797.792-2.625 1.12-3.898 1.239l1.494 15.93c4.073-.382 6.968-1.695 8.857-2.528l-6.453-14.64zM225.923.667c-6.9-.767-11.042 1.037-14.099 2.384l6.453 14.641c1.359-.599 2.008-.864 2.741-1.033.63-.144 1.566-.265 3.138-.09L225.923.667zm15.685 3.212c-5.309-1.586-7.935-2.351-15.685-3.212l-1.767 15.902c6.533.726 8.187 1.24 12.87 2.64l4.582-15.33zm2.358.701c-.855-.252-1.629-.483-2.358-.7l-4.582 15.33c.727.217 1.532.457 2.426.72l4.514-15.35zm10.97 15.816c.334-2.86-.152-6.198-2.032-9.24-1.952-3.158-5.061-5.436-8.938-6.576l-4.514 15.35c.284.084.321.14.224.07a1.577 1.577 0 01-.382-.432 1.591 1.591 0 01-.25-1.028l15.892 1.856zm-9.869 6.837c3.085.764 5.356 1.93 6.906 3.39l10.976-11.641c-4.131-3.896-9.177-6.076-14.035-7.28l-3.847 15.531zm6.906 3.39c4.543 4.283 7.246 9.285 10.133 14.748l14.146-7.474c-2.806-5.313-6.586-12.582-13.303-18.915l-10.976 11.641zm10.133 14.748c1.028 1.946 2.15 4.076 3.355 6.045l13.645-8.356c-.891-1.455-1.771-3.115-2.854-5.163l-14.146 7.474zm8.88 9.76c.352.059.717.126 1.174.211l2.924-15.73c-.43-.08-.959-.179-1.503-.268l-2.595 15.788zm1.268.228l2.737-15.764h-.001l-2.736 15.764zm.133.022h.001l2.47-15.808h-.001l-2.47 15.808zm-.226-.039c.417.078.925.172 1.441.258l2.604-15.787a58.036 58.036 0 01-1.121-.201l-2.924 15.73zm1.441.258c2.349.387 4.859.265 6.646.1a44.605 44.605 0 004.83-.713l-3.296-15.657a28.85 28.85 0 01-3.005.438c-1.378.127-2.264.096-2.571.045L273.602 55.6zm11.062-.538l.343-.053-2.47-15.808-.342.053 2.469 15.809zm.346-.053c.754-.118.695-.101.514-.089-.093.007-.795.063-1.72-.11a7.737 7.737 0 01-4.37-2.487l11.987-10.598a8.257 8.257 0 00-4.686-2.644 9.162 9.162 0 00-2.314-.123c-.692.048-1.508.184-1.887.243l2.476 15.807zm-5.577-2.687a7.69 7.69 0 01-1.831-3.822c-.083-.498-.091-.947-.079-.676l15.983-.746a9.506 9.506 0 00-.12-1.2 8.312 8.312 0 00-1.964-4.151l-11.989 10.595zm-1.91-4.498c.046.992.197 2.89 1.406 5.277l14.274-7.229c.046.09.147.324.224.678a4 4 0 01.07.444c.011.107.014.188.009.085l-15.983.745zm1.406 5.277c.068.135-.167-.272-.261-1.06a5.664 5.664 0 01.43-2.883c.332-.762.712-1.145.636-1.062-.094.103-.273.277-.846.812l10.917 11.697c.434-.405 1.131-1.048 1.745-1.72.632-.693 1.552-1.81 2.22-3.343 1.665-3.828.62-7.325-.567-9.67l-14.274 7.23zm-.041-4.193l-.388.363 10.955 11.662c.116-.11.23-.216.351-.328l-10.918-11.697zm-.388.363a3.946 3.946 0 011.247-.784c.424-.165.705-.185.696-.184l1.257 15.95c2.433-.192 5.277-.993 7.755-3.32L278.5 49.27zm-2.986 12.761c.195.188.352.363.493.548.14.184.297.42.466.74l14.154-7.46a20.691 20.691 0 00-3.998-5.337l-11.115 11.51zm6.822 5.466c.184.028.327.062.431.094l4.658-15.307a19.045 19.045 0 00-2.66-.602l-2.429 15.815zm.431.094a4.753 4.753 0 01-1.917-1.14 3.944 3.944 0 01-.866-1.212c-.167-.383-.041-.327-.037.498.003.728-.09 1.66-.278 2.688a22.11 22.11 0 01-.646 2.626l15.249 4.843c.781-2.456 1.692-6.386 1.675-10.23-.009-1.899-.241-4.4-1.296-6.82-1.153-2.643-3.425-5.403-7.225-6.56l-4.659 15.307zm-4.093 6.523c.325 4.052.472 9.308.362 16.185l15.997.256c.116-7.195-.031-12.996-.411-17.724l-15.948 1.283zm.362 16.184l-.017 1.007 15.998.258.016-1.007-15.997-.258zm-.017 1.005l-.014.876 15.998.262.014-.876-15.998-.262zm-.014.874l-.014.863 15.997.265.015-.862-15.998-.266zm.604 4.083c.57 1.362 1.313 2.587 1.754 3.33l13.762-8.162c-.578-.974-.697-1.204-.755-1.343l-14.761 6.175zm1.754 3.33c.92 1.551 1.96 3.29 3.061 6.703 1.147 3.56 2.412 9.128 3.364 18.159l15.912-1.677c-1.03-9.768-2.466-16.483-4.048-21.391-1.63-5.056-3.349-7.97-4.527-9.956l-13.762 8.162zm6.425 24.862c1.295 12.294 2.261 18.533 2.889 22.587l15.811-2.451c-.601-3.877-1.528-9.848-2.788-21.813l-15.912 1.677zm2.889 22.587c.454 2.93.651 4.249.727 5.833.077 1.623.03 3.674-.213 7.859l15.973.927c.245-4.216.342-7.004.221-9.546-.122-2.581-.467-4.752-.897-7.524l-15.811 2.451zm.514 13.692c-.595 10.242.706 16.762 1.76 22.045l15.691-3.13c-.968-4.852-1.954-9.791-1.478-17.988l-15.973-.927zm1.76 22.045c.565 2.83.964 4.885 1.104 7.096l15.968-1.014c-.219-3.442-.843-6.517-1.381-9.212l-15.691 3.13zm1.104 7.096c.075 1.185-.027 1.762-.083 1.979a.534.534 0 01-.121.257c-.11.142-.401.459-1.161 1.024-.796.591-1.778 1.22-3.245 2.151l8.58 13.505c2.423-1.539 5.976-3.68 8.438-6.833 2.953-3.783 3.873-8.17 3.56-13.097l-15.968 1.014zm-4.586 5.396l-.002.002L298 208.806l.002-.002-8.533-13.535zm-.027.018l-.005.003 8.582 13.503.006-.003-8.583-13.503zm-.04.025l-.003.002 8.652 13.459.003-.002-8.652-13.459zm.033-.021c-.704.447-1.496.95-2.333 1.498l8.762 13.388c.733-.48 1.437-.928 2.151-1.381l-8.58-13.505zm-2.333 1.498c-.394.258-.52.232-.408.22.095-.01.141.015.08-.006a1.884 1.884 0 01-.485-.293 2.49 2.49 0 01-.4-.388l-12.805 9.593c1.594 2.128 4.414 4.764 8.308 6.155 4.301 1.537 9.496 1.364 14.472-1.894l-8.762-13.387zm-15.534 3.193c-1.338 9.316-2.781 18.738-4.764 25.847l15.412 4.298c2.309-8.28 3.879-18.747 5.189-27.871l-15.837-2.274zm-1.276 34.794c-.792-.492-1.185-1.038-1.309-1.236-.105-.168-.021-.089.142.449l15.314-4.635c-.804-2.658-2.333-6.077-5.711-8.174l-8.436 13.596zm-1.167-.787l.306 1.007 15.311-4.643-.303-.999-15.314 4.635zm.305 1.006l.028.091 15.312-4.641-.028-.091-15.312 4.641zm.029.095l.014.047 15.31-4.648-.014-.047-15.31 4.648zm.014.045c1.377 4.542 2.784 9.196 3.753 13.612.994 4.536 1.344 8.058 1.05 10.446l15.88 1.954c.633-5.139-.201-10.809-1.302-15.828-1.126-5.137-2.727-10.398-4.07-14.828l-15.311 4.644zm4.803 24.058c-.313 2.546-.317 5.167-.328 7.211l16 .085c.012-2.244.03-3.896.208-5.342l-15.88-1.954zm-.328 7.211c-.021 3.888-.12 5.961-.635 7.403l15.068 5.382c1.611-4.51 1.55-9.533 1.567-12.7l-16-.085zm1.041 15.542c2.463 2.649 6.34 5.086 11.85 7.121l5.542-15.01c-4.088-1.509-5.486-2.803-5.675-3.007l-11.717 10.896zm11.85 7.121c2.339.863 4.497 1.991 7.079 3.355l7.472-14.149c-2.468-1.303-5.527-2.93-9.009-4.216l-5.542 15.01zm7.079 3.355c5.543 2.926 13.147 7.164 23.588 5.161l-3.013-15.713c-4.308.826-7.253-.507-13.103-3.597l-7.472 14.149zm23.588 5.161a46.482 46.482 0 002.906-.653l-4.007-15.49c-.608.157-1.243.301-1.912.43l3.013 15.713zm8.708-6.645c-.344 1.531-1.088 2.508-1.458 2.932a4.344 4.344 0 01-.746.694c-.069.049.142-.1.847-.41 1.366-.602 3.318-1.271 5.635-2.022l-4.932-15.221c-2.259.732-4.943 1.627-7.155 2.601-1.085.479-2.398 1.122-3.588 1.957-.789.554-3.424 2.444-4.214 5.963l15.611 3.506zm4.278 1.194a77.238 77.238 0 006.907-2.61l-6.39-14.668a61.546 61.546 0 01-5.449 2.057l4.932 15.221zm9.464-4.383a3.806 3.806 0 01-.974.721 3.62 3.62 0 01-1.037.36c-.508.089-.606-.03-.038.109l3.807-15.54c-3.813-.935-9.15-1.024-13.261 3.228l11.503 11.122zm7.461-4.104c-.837 2.574-2.921 3.417-3.389 3.57-.45.147-.72.124-.363.111l-.567-15.99c-.346.013-2.121.043-4.039.67-1.937.633-5.454 2.382-6.856 6.686l15.214 4.953zm-4.035 3.686v-16 16zm.274-.004l.005-.001-.548-15.99h-.005l.548 15.991zm.022-.001l.23-.01-.816-15.979.037-.002h.009-.012l-.013.001h-.016l.581 15.99zm.23-.01l.114-.006-1.003-15.969.073-.004.816 15.979zm.119-.007c.041-.002.391-.022.814-.09l-2.547-15.796a7.76 7.76 0 01.51-.065c.098-.009.174-.014.21-.017l1.013 15.968zm.762-.082c.366-.056.776-.096 1.46-.158l-1.445-15.935c-.604.055-1.513.135-2.458.281l2.443 15.812zm.738-.126v-16 16zm.722-.032c.85-.077 2.696-.215 4.48-.742 2.031-.6 4.572-1.853 6.454-4.531l-13.091-9.199a4.57 4.57 0 011.25-1.204c.423-.272.753-.38.854-.41.089-.026.05-.006-.219.03-.282.039-.612.07-1.172.121l1.444 15.935zm10.934-5.273a5.547 5.547 0 01-.982 1.082 3.443 3.443 0 01-.305.225c-.001.001.059-.035.195-.099a8.43 8.43 0 01.539-.23c.958-.375 2.344-.775 3.89-1.066 1.555-.293 2.975-.421 4.012-.397.514.012.779.058.84.071.109.024-.357-.051-1.028-.511l9.044-13.199c-2.923-2.003-6.403-2.309-8.486-2.357-2.448-.057-5.025.232-7.347.67-2.331.44-4.703 1.086-6.755 1.889-1.02.399-2.115.896-3.141 1.512-.88.529-2.395 1.543-3.567 3.211l13.091 9.199zm7.161-.925c2.348 1.608 5.58 2.655 7.232 3.227l5.233-15.12c-1.087-.376-1.905-.661-2.596-.94-.734-.297-.915-.428-.825-.366l-9.044 13.199zm7.232 3.227c1.043.361 1.906.661 2.691.972.793.313 1.281.552 1.56.716.318.189.029.086-.378-.445a4.695 4.695 0 01-.703-1.336 5.092 5.092 0 01-.268-1.856l15.984.705c.272-6.166-4.261-9.522-6.493-10.841-2.418-1.429-5.369-2.415-7.16-3.035l-5.233 15.12zm2.902-1.949c-.018.396-.045.345.028.052.078-.313.339-1.179 1.104-2.12 1.81-2.229 4.204-2.264 3.83-2.235l1.242 15.951c1.22-.095 4.759-.443 7.346-3.627 2.157-2.656 2.368-5.818 2.434-7.316l-15.984-.705zm-2.141 5.758a3.88 3.88 0 01-.034-.138l15.636-3.397a13.367 13.367 0 00-.155-.636l-15.447 4.171zm-.198-1.297c.311 4.594 2.485 14.984 9.037 23.857l12.871-9.505c-4.301-5.824-5.783-13.053-5.944-15.431l-15.964 1.079zm9.037 23.857c2.862 3.876 4.992 8.546 5.646 11.744.361 1.76.034 1.91.322 1.179.213-.539.722-1.392 1.717-2.052.977-.649 1.844-.729 2.142-.729v16c2.171 0 4.548-.508 6.709-1.942 2.177-1.446 3.542-3.441 4.318-5.41 1.414-3.588 1.044-7.439.468-10.254-1.219-5.953-4.53-12.73-8.451-18.041l-12.871 9.505zm9.827 10.142c-1.721 0-3.763.123-5.637.232l.933 15.973c2.036-.119 3.553-.205 4.704-.205v-16zm-5.637.232c-3.508.205-6.941.395-9.946.198l-1.044 15.966c4.169.273 8.617.002 11.923-.191l-.933-15.973zm-18.468 8.147l-.001.195 16 .067.001-.194-16-.068zm2.475 6.016l.074.07 11.047-11.574-.073-.071-11.048 11.575zm.059.056l.042.04 11.142-11.482-.107-.104-11.077 11.546zm.034.032l.038.037 11.159-11.466-.038-.037-11.159 11.466zm.029.029l.054.052 11.24-11.387-.117-.114-11.177 11.449zm-2.325-5.789c-.15 8.113 1.14 28.204 8.14 43.529l14.554-6.647c-5.547-12.143-6.829-29.439-6.697-36.586l-15.997-.296zm8.14 43.529c3.024 6.62 5.041 18.285 7.447 32.708l15.782-2.634c-2.237-13.404-4.55-27.691-8.675-36.721l-14.554 6.647zm7.447 32.708c2.701 16.185 5.844 35.467 12.345 48.851l14.392-6.991c-5.264-10.837-8.111-27.453-10.955-44.494l-15.782 2.634zm12.345 48.851c4.197 8.641 5.148 17.032 6.153 26.498l15.911-1.689c-.985-9.276-2.096-20.32-7.672-31.8l-14.392 6.991zm6.153 26.498c1.188 11.184 2.425 24.218 11.853 36.558l12.714-9.714c-6.366-8.332-7.432-16.999-8.656-28.533l-15.911 1.689zm11.853 36.558c1.866 2.441 3.349 7.232 3.732 14.798.369 7.286-.33 15.933-1.637 24.905-2.61 17.92-7.46 35.951-9.849 44.822l15.45 4.161c2.379-8.833 7.468-27.705 10.232-46.676 1.38-9.473 2.227-19.269 1.783-28.021-.429-8.472-2.116-17.316-6.997-23.703l-12.714 9.714zm-7.749 84.509l-.004.015 15.44 4.193.004-.015-15.44-4.193zm-.009.03l-.007.027 15.449 4.163.007-.027-15.449-4.163zm-.007.029a437.61 437.61 0 00-.822 3.073l15.476 4.059c.207-.786.472-1.772.795-2.972l-15.449-4.16zm-.822 3.073c-1.412 5.381-7.421 18.658-14.792 31.407-3.621 6.262-7.377 12.056-10.795 16.41-1.713 2.182-3.226 3.853-4.487 5.008-1.382 1.265-1.945 1.427-1.722 1.356l4.887 15.235c3.031-.972 5.628-2.949 7.638-4.789 2.131-1.95 4.242-4.349 6.269-6.929 4.059-5.17 8.238-11.669 12.061-18.283 7.519-13.003 14.438-27.808 16.417-35.356l-15.476-4.059zm-31.795 54.18l.031-.009 4.349 15.397c.17-.047.338-.098.505-.152l-4.885-15.236zm.041-.012l-.007.002.006-.001 4.218 15.434.113-.032-4.33-15.403zm.016-.004l-.003.001 4.056 15.477.13-.035-4.183-15.443zm-5.958 7.225c-.411 6.373-.823 14.631.377 26.228l15.915-1.647c-1.068-10.326-.71-17.581-.326-23.553l-15.966-1.028zm.377 26.228c1.345 13.008.301 17.249-.692 21.752l15.624 3.448c1.316-5.965 2.525-11.934.983-26.847l-15.915 1.647zm-.692 21.752c-.844 3.822-1.785 8.116-1.785 15.554h16c0-5.756.669-8.756 1.409-12.106l-15.624-3.448zm-1.785 15.554l.001-.045 15.998.258.001-.213h-16zm.001-.043l.001-.038 15.992.494.005-.202-15.998-.254zm.001-.039l.003-.063 15.942 1.361c.022-.259.039-.527.047-.802l-15.992-.496zm.311 2.916c3.399 11.332 5.246 29.537 6.18 50.683.924 20.929.932 43.915.937 64.453l16-.004c-.005-20.467-.01-43.812-.953-65.155-.933-21.127-2.808-41.135-6.838-54.574l-15.326 4.597zm7.117 115.134v.001h16v-.001h-16zm0 .001h16-16zm0 0v.001h16v-.001h-16zm0 .001v.001h16v-.001h-16zm0 .001h16-16zm0 0v.001h16v-.001h-16zm0 .001v.001h16v-.001h-16zm0 .001h16-16zm0 0v.001h16v-.001h-16zm0 .001h16-16zm0 0v.001h16v-.001h-16zm0 .001h16-16zm0 0v.001h16v-.001h-16zm0 .001h16-16zm0 0v.001h16v-.001h-16zm0 .001h16-16zm0 0v.001h16v-.001h-16zm0 .001v.001h16v-.001h-16zm0 .003c.006 20.154.002 38.32.95 49.267l15.94-1.38c-.872-10.078-.884-27.356-.89-47.892l-16 .005zm.95 49.267c1.551 17.917-2.447 42.955-5.777 63.534l15.795 2.556c3.219-19.893 7.682-47.142 5.922-67.47l-15.94 1.38zm-5.777 63.534c-1.265 7.82-2.439 15.06-3.047 20.646-.302 2.778-.497 5.431-.449 7.685.025 1.126.113 2.374.358 3.601.219 1.095.705 2.936 2.016 4.65l12.71-9.719c.461.603.696 1.131.806 1.417.113.294.152.485.157.512.006.031-.037-.198-.05-.807-.027-1.213.081-3.056.359-5.609.552-5.075 1.643-11.837 2.935-19.82l-15.795-2.556zm-1.122 36.582c-.059-.077.121.149.434.919.294.722.616 1.697.942 2.937.655 2.49 1.224 5.64 1.668 9.15.89 7.05 1.188 14.83.89 20.34l15.976.87c.357-6.61 0-15.36-.993-23.21-.497-3.94-1.177-7.83-2.067-11.218-.821-3.119-2.058-6.785-4.14-9.507l-12.71 9.719zm3.934 33.346c-.265 4.9.473 10.45 1.026 14.77l15.871-2.03c-.606-4.74-1.091-8.73-.921-11.87l-15.976-.87zm.989 14.42l15.945-1.33-15.945 1.33zm.061.52v.01l15.823-2.38-15.823 2.37zm-.023-.17c.248 1.95.47 3.69.625 5.29l15.926-1.53c-.183-1.9-.439-3.9-.681-5.79l-15.87 2.03zm11.271 12.06c.098-.03.193-.07.283-.1l-5.402-15.06-.247.09 5.366 15.07zm.281-.1c.157-.06.31-.11.455-.16l-5.425-15.06c-.145.06-.286.11-.428.16l5.398 15.06zm.452-.16c.603-.22 1.043-.38 1.433-.51.389-.13.587-.18.669-.2.09-.02-.107.04-.491.04-.411.01-1.116-.05-1.948-.36a5.929 5.929 0 01-2.136-1.43c-.501-.53-.729-.99-.799-1.15-.069-.15-.04-.13.031.17.069.29.153.75.238 1.42l15.876-1.98c-.251-2.02-.668-4.2-1.55-6.17-.963-2.14-2.76-4.59-5.937-5.81-2.833-1.08-5.453-.65-6.853-.32-1.439.32-2.948.88-3.953 1.24l5.42 15.06zm-3.003-2.02c.285 2.29-.675 4.49-3.709 9.76l13.863 7.98c2.483-4.3 6.784-11.23 5.722-19.72l-15.876 1.98zm-3.709 9.76c-2.954 5.12-7.773 13.05-6.276 23.53l15.839-2.26c-.617-4.32 1.07-7.68 4.3-13.29l-13.863-7.98zm-6.276 23.53c.441 3.09 1.319 7.63 2.313 12.78l15.71-3.03c-1.031-5.35-1.812-9.41-2.184-12.01l-15.839 2.26zm2.313 12.78c1.995 10.34 4.626 24 6.154 37.36 1.561 13.65 1.808 25.79-.271 33.54l15.453 4.15c2.932-10.93 2.289-25.74.714-39.51-1.608-14.06-4.359-28.3-6.34-38.57l-15.71 3.03zm5.883 70.9c-3.348 12.48-3.688 28.2-4.026 41.86l15.996.39c.352-14.28.735-27.86 3.483-38.1l-15.453-4.15zm-4.026 41.86c-.184 7.49-.359 14.45-.907 20.59-.556 6.24-1.447 10.9-2.735 14.02l14.784 6.11c2.246-5.42 3.296-12.07 3.888-18.71.602-6.75.784-14.26.966-21.62l-15.996-.39zm-3.642 34.61c-1.118 2.7-2.284 5.11-3.473 7.57l14.402 6.97c1.173-2.43 2.535-5.24 3.855-8.43l-14.784-6.11zm-3.492 7.61l14.439 6.89h.001l-14.44-6.89zm.019-.04c-2.62 5.41-5.727 11.59-6.063 19.32-.341 7.84 2.149 16.23 7.892 26.84l14.071-7.61c-5.067-9.37-6.142-14.77-5.978-18.54.169-3.9 1.635-7.16 4.479-13.04l-14.401-6.97zm1.829 46.16c9.298 17.19 20.54 26.43 29.413 33.76l10.19-12.34c-8.658-7.15-17.802-14.75-25.532-29.03l-14.071 7.61zm29.413 33.76c4.905 4.05 8.589 7.13 11.416 10.62l12.436-10.06c-4.021-4.97-9.03-9.07-13.662-12.9l-10.19 12.34zm11.416 10.62c2.175 2.69 4.665 5.4 6.952 7.89l11.783-10.83c-2.365-2.57-4.497-4.9-6.299-7.12l-12.436 10.06zm6.864 7.79h.003l11.959-10.63h-.003l-11.959 10.63zm.091.1c4.788 5.21 8.448 9.3 10.201 12.79.809 1.61.807 2.35.793 2.5a.326.326 0 01-.052.15c-.054.11-.232.39-.723.83l10.669 11.93c3.435-3.08 5.615-6.94 6.036-11.41.397-4.23-.865-8.07-2.421-11.17-2.978-5.94-8.468-11.82-12.721-16.44l-11.782 10.82zm10.219 16.27c-4.918 4.4-9.655 7.23-14.06 8.24-4.053.93-8.353.45-13.257-2.89l-9.005 13.23c8.53 5.81 17.376 7.19 25.827 5.26 8.098-1.85 15.222-6.6 21.164-11.91l-10.669-11.93zm-27.317 5.35c-5.73-3.9-12.429-6.46-17.731-8.52l-5.795 14.91c5.649 2.2 10.567 4.15 14.521 6.84l9.005-13.23zm-17.731-8.52c-5.12-1.99-8.766-3.45-11.289-5.16-2.218-1.5-2.331-2.34-2.358-2.93l-15.983.73c.338 7.44 4.74 12.31 9.373 15.45 4.329 2.93 9.87 5.04 14.462 6.82l5.795-14.91zm-13.647-8.09c-.346-7.62-2.798-15.37-5.751-21.19-1.475-2.91-3.258-5.7-5.277-7.86-1.006-1.08-2.287-2.23-3.846-3.12-1.531-.87-3.901-1.79-6.75-1.41l2.115 15.86c-1.777.24-2.968-.37-3.255-.53-.314-.18-.285-.23.045.12.651.7 1.636 2.08 2.698 4.18 2.12 4.18 3.812 9.72 4.038 14.68l15.983-.73zm-21.624-33.58c-5.24.7-7.493 4.94-8.224 6.55-.85 1.86-1.386 4.06-1.706 5.31l15.498 3.97c.198-.77.347-1.34.497-1.85.152-.51.243-.74.268-.79.042-.09-.144.37-.719.96a6.02 6.02 0 01-3.499 1.71l-2.115-15.86zm-9.93 11.86c-.28 1.09-.488 1.89-.72 2.59-.236.72-.379.95-.365.93.032-.05.454-.7 1.459-1.17 1.108-.53 2.046-.43 2.346-.37l-3.471 15.62c2.553.57 5.33.46 7.962-.79 2.529-1.19 4.161-3.07 5.188-4.68 1.828-2.86 2.667-6.47 3.099-8.16l-15.498-3.97zm2.72 1.98a57.198 57.198 0 00-3.709-.67l-2.451 15.81c.918.14 1.745.27 2.689.48l3.471-15.62zm-3.709-.67c-.657-.1-.998-.16-1.261-.21-.25-.05-.142-.05.125.06.316.13.84.4 1.382.89.549.5.885 1.03 1.069 1.4.262.54.102.56-.029-.95-.119-1.37-.172-3.38-.172-6.43h-16c0 3.09.048 5.7.232 7.82.172 1.98.517 4.38 1.588 6.58 1.327 2.72 3.437 4.51 5.889 5.51 1.819.74 3.845 1 4.726 1.14l2.451-15.81zm1.114-5.24c0-8.07-1.491-16.31-2.745-23.35l-15.752 2.81c1.304 7.32 2.497 14.13 2.497 20.54h16zm-2.745-23.35c-1.344-7.54-2.358-13.47-2.123-18.27l-15.981-.78c-.341 6.99 1.107 14.87 2.352 21.86l15.752-2.81zm-2.123-18.27c.216-4.44-.682-9.87-1.771-14.94-1.125-5.24-2.643-10.91-4.02-16.07l-15.458 4.13c1.4 5.24 2.808 10.52 3.835 15.3 1.062 4.95 1.54 8.6 1.433 10.8l15.981.78zm-5.759-30.88l-15.522 3.88 15.522-3.88zm-.032-.13c-1.07-4-2.048-7.67-2.778-10.82-.764-3.29-1.108-5.42-1.143-6.54l-15.992.5c.089 2.85.778 6.34 1.548 9.66.803 3.46 1.857 7.4 2.907 11.33l15.458-4.13zm-3.921-17.36c-.082-2.64-.915-7.19-1.891-12.05-1.037-5.16-2.434-11.58-3.927-18.45l-15.635 3.4c1.503 6.91 2.869 13.19 3.875 18.2 1.066 5.31 1.554 8.39 1.586 9.4l15.992-.5zm-5.808-30.45h-.001l-15.655 3.3h.001l15.655-3.3zm-.024-.11l-15.61 3.51.001.01 15.609-3.52zm-.01-.04l-15.591 3.59h.001l15.59-3.59zm.022.09c-2.26-10.38-4.755-21.85-6.687-32.05-1.976-10.43-3.208-18.76-3.208-23.21h-16c0 6.19 1.553 15.98 3.488 26.19 1.979 10.45 4.523 22.14 6.772 32.48l15.635-3.41zm-9.895-55.26c0-8.31-1.736-18.82-3.315-28.5l-15.791 2.57c1.656 10.16 3.106 19.21 3.106 25.93h16zm-3.315-28.5c-1.107-6.8-2.173-13.35-2.773-19.28-.611-6.04-.654-10.71-.052-13.9l-15.723-2.97c-1.045 5.54-.789 12.1-.143 18.49.658 6.49 1.811 13.55 2.9 20.23l15.791-2.57zm-2.825-33.18c.854-4.53.631-9.78.15-14.56-.493-4.9-1.347-10.05-2.086-14.53l-15.787 2.61c.756 4.58 1.52 9.22 1.953 13.52.446 4.43.46 7.81.047 9.99l15.723 2.97zm-1.936-29.09c-1.002-6.06-1.658-10.24-1.616-12.52.01-.49.053-.48-.027-.17-.048.19-.424 1.65-1.969 2.94-1.934 1.62-4.186 1.77-5.628 1.47-1.107-.23-1.608-.67-1.341-.48l9.311-13.01c-1.067-.76-2.689-1.75-4.728-2.18-2.374-.49-5.371-.17-7.885 1.93-2.127 1.78-2.921 4.05-3.25 5.32-.36 1.39-.459 2.77-.48 3.88-.077 4.12.951 10.13 1.826 15.43l15.787-2.61zm-13.922-15.01c.17 5.43 3.963 10.12 9.595 12.6l6.467-14.63c-.74-.33-.794-.53-.619-.31.151.2.517.8.55 1.84l-15.993.5zm20.627 3.5c-1.029-4.49-1.757-13.07-2.006-24.53-.245-11.25-.023-24.71.651-38.597l-15.981-.776c-.689 14.193-.921 28.023-.667 39.723.251 11.49.978 21.52 2.407 27.75l15.596-3.57zm-1.355-63.127c1.017-20.933-1.786-31.822-4.327-41.582l-15.484 4.031c2.325 8.93 4.738 18.078 3.83 36.775l15.981.776zm-4.327-41.582c-1.69-6.493-3.1-11.967-3.313-20.044l-15.994.421c.264 10.036 2.097 17.022 3.823 23.654l15.484-4.031zm-3.313-20.044c-.199-7.549-2.644-17.961-5.64-28.64l-15.405 4.322c3.025 10.785 4.911 19.425 5.051 24.739l15.994-.421zm-15.258-34.246c-4.098 1.01-10.855.872-21.393.541l-.503 15.992c9.468.297 18.956.67 25.726-.998l-3.83-15.535zm-21.393.541c-4.915-.155-10.419-.328-16.306-.328v16c5.6 0 10.864.165 15.803.32l.503-15.992zm-16.306-.328c-.328 0-.707-.018-1.138-.06l-1.561 15.923c.895.088 1.797.137 2.699.137v-16zm-9.917 7.743c-.32 16.098-.974 30.894-2.558 43.685l15.879 1.966c1.688-13.634 2.353-29.097 2.676-45.334l-15.997-.317zm-2.558 43.685c-4.822 38.952-1.939 78.038-.614 96.108l15.957-1.17c-1.327-18.11-4.071-55.761.536-92.972l-15.879-1.966zm-.613 96.118l15.956-1.19h-.001l-15.955 1.19zm.013.15l15.93-1.49-15.93 1.49zm-.013-.15l.002.02 15.956-1.17-.002-.03-15.956 1.18zm.001.02c.138 1.88.258 3.51.351 4.89l15.964-1.07c-.098-1.45-.221-3.13-.357-4.99l-15.958 1.17zm7.643 12.32c.285.03.508.06.675.08.169.03.254.05.271.05.021.01-.079-.02-.262-.09a5.19 5.19 0 01-.958-.52l9.036-13.2c-2.55-1.75-5.666-2.11-7.383-2.26l-1.379 15.94zm-3.723-6.36c1.252 13.73 2.913 45.44.056 64.5l15.823 2.37c3.167-21.12 1.314-54.51.055-68.32l-15.934 1.45zm.056 64.5c-1.318 8.79-.933 23.92.055 40.73 1.005 17.11 2.706 36.91 4.302 55.49l15.942-1.37c-1.602-18.64-3.281-38.2-4.271-55.06-1.007-17.14-1.232-30.57-.205-37.42l-15.823-2.37zm4.356 96.2l15.944-1.32-15.944 1.32zm.001.03c1.952 22.71 3.724 43.4 3.988 55.81l15.997-.34c-.278-13.06-2.115-34.4-4.043-56.84l-15.942 1.37zm3.988 55.81c.401 18.84 4.916 35.37 8.067 46.97l15.441-4.19c-3.169-11.67-7.157-26.47-7.511-43.12l-15.997.34zm8.067 46.97c1.471 5.42 2.522 9.34 2.965 12.22.219 1.42.204 2.11.182 2.31-.022.2.042-.9 1.173-2.03l11.314 11.31c2.406-2.4 3.181-5.36 3.42-7.55.239-2.21.034-4.46-.274-6.47-.612-3.98-1.964-8.92-3.339-13.98l-15.441 4.19zm4.32 12.5c-.401.4-1.864 1.46-4.636 2.86-2.561 1.29-5.638 2.58-8.666 3.61-3.081 1.06-5.8 1.75-7.694 2.01-.98.13-1.371.09-1.329.1.037 0 .413.05.967.28.566.23 1.54.76 2.408 1.85l-12.494 9.99c2.366 2.96 5.698 3.58 7.233 3.77 1.848.22 3.736.08 5.363-.14 3.319-.45 7.125-1.48 10.727-2.72 3.653-1.25 7.415-2.81 10.695-4.47 3.07-1.55 6.451-3.54 8.74-5.83l-11.314-11.31zm-18.95 10.71c.31.38.292.6.202.21a8.162 8.162 0 01-.131-.8 36.5 36.5 0 01-.126-1.3l-15.941 1.38c.127 1.47.326 6.53 3.502 10.5l12.494-9.99zm-.055-1.89c-.058-.67-.186-2.82-.844-4.69-.381-1.09-1.162-2.79-2.828-4.23-1.845-1.59-4.052-2.24-6.108-2.24v16a6.703 6.703 0 01-4.349-1.65c-1.218-1.05-1.673-2.19-1.809-2.58-.14-.4-.147-.6-.113-.34.032.22.06.53.11 1.11l15.941-1.38zm-9.78-11.16c-2.749 0-4.692 1.27-5.608 1.99-.968.76-1.676 1.6-2.108 2.15-.852 1.09-1.72 2.48-2.367 3.51l13.53 8.54c.379-.6.674-1.07.937-1.47.268-.41.417-.61.487-.7.107-.14-.1.16-.597.55-.446.35-1.947 1.43-4.274 1.43v-16zm-10.083 7.65c-3.531 5.59-8.246 12.71-18.091 14.76l3.251 15.66c16.997-3.52 24.826-16.27 28.37-21.88l-13.53-8.54zm-18.091 14.76c-6.207 1.29-12.719 3.27-18.587 5.05l4.644 15.31c6.021-1.83 11.821-3.58 17.194-4.7l-3.251-15.66zm-18.868 5.14h-.004l5.206 15.13h.004l-5.206-15.13zm.277-.09c-6.979 2.12-12.867 3.88-17.54 4.58-2.312.35-3.805.34-4.673.21-.792-.13-.418-.25.07.32l-12.149 10.41c2.734 3.19 6.35 4.56 9.584 5.07 3.158.5 6.474.27 9.539-.18 6.08-.92 13.216-3.1 19.813-5.1l-4.644-15.31zm-22.143 5.11c-1.26-1.47-2.147-4.24-1.533-8.18.602-3.87 2.544-7.86 5.421-10.74l-11.314-11.31c-5.375 5.38-8.814 12.51-9.917 19.58-1.09 7.01-.004 15 5.194 21.06l12.149-10.41zm3.888-18.92c2.943-2.94 4.483-5.18 5.512-6.69l-13.203-9.03c-.81 1.18-1.703 2.49-3.623 4.41l11.314 11.31zm5.512-6.69c.653-.95.685-.95.616-.88-.093.09-.23.21-.393.32-.155.1-.244.13-.208.12.146-.06.706-.25 2.165-.51 1.423-.25 3.385-.51 6.19-.82l-1.767-15.91c-5.421.61-9.574 1.18-12.622 2.42-4.217 1.72-6.036 4.55-7.184 6.23l13.203 9.03zm8.37-1.77c7.406-.83 12.556-4.32 15.743-9.53 2.724-4.45 3.713-9.81 4.429-13.35l-15.683-3.17c-.863 4.26-1.43 6.6-2.393 8.17-.369.6-.72.94-1.108 1.18-.406.25-1.206.62-2.755.79l1.767 15.91zm20.172-22.88c1.04-5.14 1.745-7.78 3.107-9.47l-12.447-10.05c-4.278 5.3-5.494 12.15-6.343 16.35l15.683 3.17zm3.107-9.47c3.526-4.36 5.477-8.3 6.845-11.04l-14.312-7.15c-1.315 2.63-2.623 5.22-4.98 8.14l12.447 10.05zm6.845-11.04c.55-1.1.919-1.83 1.273-2.44.339-.59.527-.82.594-.89.029-.04-.041.04-.169.11-.112.06-.05-.01.357-.07l-2.263-15.84c-4.031.58-7.257 2.28-9.765 5.04-2.079 2.28-3.439 5.14-4.339 6.94l14.312 7.15zm2.055-3.29c1.832-.26 4.1-1.06 5.921-3.05 1.801-1.97 2.384-4.23 2.514-5.93.226-2.95-.798-5.74-1.483-7.4-1.536-3.72-4.31-8.33-6.681-12.3l-13.738 8.2c2.628 4.41 4.651 7.83 5.63 10.21.572 1.38.236 1.15.319.07.058-.76.362-2.26 1.644-3.66 1.302-1.42 2.81-1.86 3.611-1.98l2.263 15.84zm.271-28.68c-2.103-3.52-4.067-6.82-5.523-9.73-.72-1.44-1.232-2.63-1.552-3.56-.346-1.01-.32-1.31-.32-1.1h-16c0 4.2 1.971 8.63 3.56 11.81 1.776 3.55 4.074 7.4 6.097 10.78l13.738-8.2zm-7.395-14.39c0-5.58-2.787-10.1-4.507-13.14l-13.92 7.89c1.06 1.87 1.665 2.97 2.063 3.91.34.81.364 1.16.364 1.34h16zm-4.507-13.14c-1.97-3.47-4.172-7.37-5.996-13.43-1.84-6.11-3.374-14.71-3.489-27.32l-16 .14c.127 13.87 1.822 24 4.168 31.79 2.361 7.84 5.302 13.02 7.397 16.71l13.92-7.89zm-9.485-40.75c-.218-23.97-6.108-47.01-10.773-65.38l-15.508 3.94c4.727 18.61 10.084 39.84 10.281 61.58l16-.14zm-10.773-65.38c-3.524-13.87-6.089-24.21-6.089-31.42h-16c0 9.7 3.28 22.37 6.581 35.36l15.508-3.94zm-6.089-31.42c0-10.68-4.353-21.34-7.13-28.31l-14.865 5.92c3.018 7.57 5.995 15.32 5.995 22.39h16zm-7.13-28.31c-.939-2.36-1.689-4.25-2.229-5.85a21.59 21.59 0 01-.55-1.84c-.114-.49-.116-.65-.114-.58.002.04.032.67-.311 1.57a5.896 5.896 0 01-2.368 2.86c-1.059.67-1.95.76-2.182.77-.228.02-.136-.02.421.09l3.074-15.7c-2.327-.46-6.29-.92-9.825 1.3-4.345 2.73-4.895 7.26-4.796 9.75.099 2.45.83 4.94 1.492 6.9.705 2.09 1.632 4.41 2.523 6.65l14.865-5.92zm-9.022-3.51c1.15.5 2.508.95 3.975 1.35l4.149-15.45c-.982-.27-1.508-.47-1.672-.54l-6.452 14.64zm13.855-4.63c1.379-6.14 1.725-14.09 1.673-22.59-.052-8.63-.527-18.5-1.016-28.68l-15.982.77c.494 10.27.949 19.78.999 28 .05 8.35-.332 14.75-1.286 19l15.612 3.5zm.657-51.27c-.588-12.226-1.2-24.994-1.2-37.279h-16c0 12.735.634 25.89 1.218 38.049l15.982-.77zm-1.2-37.279c0-19.441-6.23-44.943-12.365-70.278l-15.551 3.765c6.321 26.102 11.916 49.431 11.916 66.513h16zm-12.365-70.278c-3.786-15.633-7.615-31.456-10.325-46.637l-15.751 2.812c2.811 15.746 6.762 32.052 10.525 47.59l15.551-3.765zm-16.603-53.07a20.181 20.181 0 00-2.661-.369l-1.09 15.962c.084.006.264.026.557.085l3.194-15.678zm-2.662-.369c-5.154-.352-6.826-1.541-7.574-2.257-1.132-1.082-1.944-2.697-3.718-6.911l-14.747 6.206c1.469 3.49 3.432 8.469 7.408 12.27 4.359 4.167 10.127 6.149 17.543 6.654l1.088-15.962zm-11.292-9.168c-1.354-3.218-3.125-7.465-6.09-11.984l-13.377 8.779c2.072 3.157 3.352 6.161 4.72 9.411l14.747-6.206zm-6.09-11.984c-2.496-3.803-3.917-9.062-4.549-15.387-.626-6.274-.414-12.793-.207-18.849l-15.99-.548c-.203 5.903-.473 13.478.277 20.987.744 7.458 2.56 15.669 7.092 22.576l13.377-8.779zm-4.757-34.21v-.001l-15.988-.599 15.988.6zm.001-.026c.086-2.497.172-4.989.172-7.211h-16c0 1.893-.074 4.088-.162 6.663l15.99.548zm.172-7.211c0-4.233-.756-7.764-2.368-10.851-1.534-2.94-3.611-4.945-4.789-6.122l-11.315 11.312c1.35 1.349 1.68 1.752 1.92 2.214.164.314.552 1.179.552 3.447h16zm-7.157-16.973c-1.057-1.058-1.625-1.65-2.125-2.373-.44-.637-.923-1.53-1.323-3.016l-15.45 4.16c1.83 6.799 5.271 10.228 7.583 12.541l11.315-11.312zm-3.448-5.389c-1.176-4.366-.238-7.874 2.278-15.638l-15.221-4.932c-2.312 7.135-5.096 15.114-2.507 24.73l15.45-4.16zm2.278-15.638c1.224-3.779 2.712-8.356 3.901-13.853l-15.64-3.381c-.998 4.621-2.252 8.504-3.482 12.302l15.221 4.932zm3.901-13.853c.967-4.477 1.093-8.22.573-11.649-.505-3.33-1.583-6.003-2.329-7.903l-14.892 5.85c.793 2.019 1.202 3.132 1.402 4.45.184 1.218.231 2.983-.393 5.871l15.639 3.381zm-1.756-19.552c-.802-2.04-1.329-3.436-1.624-5.239-.288-1.763-.395-4.255.216-8.094L89.4 690.654c-.836 5.251-.81 9.483-.205 13.187.598 3.664 1.725 6.481 2.522 8.509l14.892-5.85zm-1.408-13.333c1.079-6.781 2.431-10.852 3.453-13.071l-14.534-6.69c-1.81 3.93-3.49 9.51-4.72 17.248l15.801 2.513zm4.168-15.879c.287-4.276 2.511-12.765 5.626-22.688 3.011-9.594 6.537-19.565 8.945-26.35l-15.079-5.35c-2.402 6.769-6.021 16.997-9.132 26.907-3.008 9.582-5.886 19.903-6.324 26.407l15.964 1.074zm14.571-49.038c3.82-10.765 4.758-22.219 4.753-29.945l-16 .011c.004 6.697-.842 16.158-3.832 24.584l15.079 5.35zm-.583-37.483a5.182 5.182 0 012.32 1.636c.227.286.367.533.448.696.079.161.111.262.115.275.002.006-.055-.188-.101-.665a16.566 16.566 0 01-.052-1.85c.062-3.317.734-7.764 1.538-12.963l-15.812-2.445c-.747 4.827-1.636 10.474-1.723 15.107-.043 2.288.083 5.006.859 7.526.788 2.56 2.708 6.226 7.08 7.77l5.328-15.087zm4.268-12.871c.252-1.627.512-3.306.746-4.95l-15.839-2.263c-.219 1.537-.465 3.123-.719 4.768l15.812 2.445zm-8.459-13.977c-6.32 1.029-12.587 2.472-18.112 4.602l5.756 14.929c4.108-1.584 9.189-2.804 14.928-3.739l-2.572-15.792zm-18.112 4.602c-9.335 3.599-25.472 4.916-40.517 4.239-7.378-.331-14.053-1.124-19.013-2.191-2.498-.538-4.333-1.097-5.524-1.595-1.552-.648-.898-.726-.1.47l-13.313 8.875c1.982 2.972 5.175 4.554 7.247 5.419 2.432 1.016 5.305 1.823 8.324 2.473 6.078 1.307 13.686 2.175 21.66 2.533 15.659.704 34.499-.477 46.992-5.294l-5.756-14.929zm-65.154.923c-1.446-2.169-3.455-4.128-4.836-5.507L19.76 575.261c1.742 1.739 2.451 2.494 2.827 3.058l13.313-8.875zm-4.836-5.507c-3.202-3.195-6.318-6.37-8.455-11.735-2.14-5.374-3.572-13.726-1.499-27.347l-15.818-2.407c-2.387 15.685-.988 27.036 2.453 35.675 3.444 8.647 8.663 13.792 12.015 17.138l11.303-11.324zm-9.954-39.082c2.669-17.536 7.248-32.497 11.705-47.023l-15.297-4.693c-4.437 14.463-9.358 30.465-12.226 49.309l15.818 2.407zm11.705-47.023c4.386-14.296 8.757-28.463 10.428-43.502l-15.902-1.767c-1.477 13.295-5.358 26.023-9.823 40.576l15.297 4.693zm10.428-43.502c2.58-23.22 16.302-64.016 22.325-80.584L50.53 348.28c-5.919 16.281-20.363 58.853-23.189 84.283l15.902 1.767zm22.688-81.949c.384-2.214.728-4.41 1.013-6.538l-15.859-2.121a155.014 155.014 0 01-.918 5.923l15.764 2.736zm-7.569-15.572c-.224.019-.418.029-.583.034l.47 15.993c.478-.014.952-.042 1.418-.08l-1.305-15.947zm-.583.034c-4.831.142-8.485 2.415-10.896 4.518-2.352 2.051-4.076 4.441-4.958 5.64l12.887 9.482c.987-1.342 1.752-2.335 2.589-3.065.777-.678 1.011-.587.848-.582l-.47-15.993zm-15.854 10.158c-.208.282-.353.479-.479.644-.13.171-.168.214-.148.191.015-.017.071-.082.165-.176.089-.089.26-.255.506-.451.274-.218 1.694-1.356 3.974-1.554a7.767 7.767 0 014.12.781 7.69 7.69 0 012.734 2.274c.956 1.276 1.2 2.461 1.24 2.639.11.504.052.607.052-.293h-16c0 .991.029 2.395.32 3.719.128.588.486 2.063 1.579 3.522 1.423 1.901 4.02 3.586 7.338 3.298 2.466-.213 4.097-1.461 4.606-1.866a11.094 11.094 0 001.457-1.414c.546-.63 1.102-1.396 1.423-1.832l-12.887-9.482zm12.164 4.055c0-3.116.085-6.013-.725-8.727l-15.331 4.576c-.056-.188-.014-.202.017.431.037.736.04 1.779.04 3.72h16zm-.725-8.727c-.502-1.681-1.302-3.175-1.84-4.222l-14.23 7.316c.346.674.527 1.028.657 1.308.11.236.106.256.082.174l15.331-4.576zm-1.84-4.222a103.69 103.69 0 01-2.462-5.07l-14.572 6.606c1.243 2.744 2.163 4.532 2.804 5.78l14.23-7.316zm-2.462-5.07c-.918-2.026-1.626-3.453-2.134-4.477l-14.334 7.11c.487.982 1.095 2.208 1.895 3.973l14.573-6.606zm-2.045-4.291v-.001l-14.512 6.738v.001l14.512-6.738zm-.146-.298l-14.22 7.332v.001l14.22-7.333zm.056.111c-.18-.362-.316-.637-.432-.877a13.749 13.749 0 01-.229-.491c-.081-.186-.015-.068.044.2l-15.625 3.446c.438 1.987 1.37 3.745 1.909 4.832l14.333-7.11zm-.617-1.168c.076.346.05.524.056.209.004-.171.015-.421.04-.811.024-.39.058-.846.102-1.437l-15.956-1.182c-.133 1.796-.398 4.26.133 6.667l15.625-3.446zm.204-2.131v-.001l-15.969-.998v.001l15.97.998zm-.006.091c.093-1.259.218-2.945.338-5.205l-15.977-.85c-.111 2.086-.226 3.635-.317 4.873l15.956 1.182zm.338-5.205c.395-7.431 4.008-12.829 5.105-14.01l-11.724-10.888c-3.3 3.554-8.739 12.399-9.358 24.048l15.977.85zm.407-11.539c1.175-.173 2.426-.351 3.74-.53l-2.165-15.853a401.04 401.04 0 00-3.902.553l2.327 15.83zm4.164-16.313a71.036 71.036 0 00-4.056-.661l-2.175 15.851c.76.105 1.72.236 3.218.524l3.013-15.714zm-4.166-.675l-.002-.001-1.954 15.881h.001l1.955-15.88zm-.113-.013v-.001l-1.732 15.907 1.732-15.906zm.449.061l-2.631 15.783 2.63-15.783zm-1.316-.109v16-16zm1.735.191l-3.471 15.619 3.471-15.619zm-.65-.117c-.167-.023-.296-.04-.41-.057a9.509 9.509 0 01-.242-.036c-.112-.018-.054-.012.083.023l-4.03 15.484c.954.249 1.938.371 2.427.438l2.173-15.852zm-.571-.07a3.969 3.969 0 01.948.383l-.078-.051-.238-.164a65.723 65.723 0 01-.903-.655l-9.477 12.891c1.279.94 3.126 2.406 5.723 3.081l4.025-15.485zm-.27-.487c.363.267 1.686 1.334 2.244 3.465a6.86 6.86 0 01-.837 5.441 5.4 5.4 0 01-.803.977c-.186.177-.32.273-.357.299-.06.042.035-.03.368-.188 1.499-.711 4.152-1.477 6.33-1.94l-3.324-15.651c-2.6.553-6.684 1.626-9.864 3.135-.838.398-1.783.904-2.693 1.542-.838.587-2.085 1.587-3.073 3.107-1.091 1.678-2.02 4.298-1.225 7.331.724 2.765 2.53 4.471 3.756 5.373l9.477-12.891zm7.572 7.894c1.75-.522 6.374-.934 12.979-1.086 6.196-.143 13.034-.053 18.497.02l.213-15.998c-5.41-.072-12.542-.168-19.078-.018-6.13.141-13.004.502-17.19 1.751l4.58 15.331zm31.582-1.065v-16 16zm-.106-.001c2.449.033 4.662.063 6.356.063v-16c-1.563 0-3.651-.028-6.143-.061l-.213 15.998zm6.356.063c4.317 0 7.088-.455 8.956-.764l-2.607-15.786c-1.527.252-3.31.55-6.349.55v16zm9.85-.965h.001l-4.396-15.384 4.395 15.384zm-.766.179h.001l-2.863-15.742 2.862 15.742zm-.127.022c.433-.071.712-.117.954-.151.231-.032.329-.04.356-.041.015-.001-.057.004-.184-.007a2.261 2.261 0 01-.384-.065l4.006-15.49c-3.202-.828-5.977-.259-7.355-.032l2.607 15.786zm.744-.263c-.097-.025-.146-.046-.135-.041.013.005.089.037.238.117l7.565-14.098c-1.118-.6-2.329-1.124-3.666-1.469l-4.002 15.491zm.103.076c-.05-.027-.042.011-.126-.159-.06-.119-.259-.56-.282-1.299a5.059 5.059 0 01.925-3.011l13.124 9.152c3.096-4.44 1.897-9.266.569-11.947-1.406-2.835-3.793-5.304-6.645-6.834l-7.565 14.098zm6.438 8.081c1.977.159 4.495.234 7.136.005l-1.386-15.94c-1.524.132-3.114.095-4.468-.014l-1.282 15.949zm7.136.005c3.048-.265 5.485-1.371 6.614-1.856l-6.316-14.701c-.654.281-.981.417-1.283.517a1.88 1.88 0 01-.401.1l1.386 15.94zm6.19-1.688l-5.468-15.037 5.468 15.037zm.424-.168c.325-.14.533-.228.722-.304a3.76 3.76 0 01.281-.105c.043-.013-.325.11-.93.087a4.084 4.084 0 01-.935-.146 3.51 3.51 0 01-.732-.29c-.332-.18-.333-.267-.021.07l11.757-10.852c-2.361-2.557-5.465-4.618-9.459-4.771-3.318-.126-6.164 1.252-6.999 1.61l6.316 14.701zm-1.615-.688a18.77 18.77 0 011.103 1.281c.089.117.116.161.104.142a3.073 3.073 0 01-.191-.361l14.519-6.722c-.882-1.905-2.375-3.672-3.778-5.192l-11.757 10.852zm10.86 5.272c4.162-1.421 9.971-3.173 19.448-5.145l-3.259-15.665c-10.115 2.105-16.562 4.031-21.358 5.668l5.169 15.142zm19.448-5.145c12.159-2.53 18.866-5.493 23.633-7.608l-6.491-14.625c-4.25 1.887-9.798 4.362-20.401 6.568l3.259 15.665zm23.633-7.608c1.887-.838 3.052-1.347 4.124-1.702l-5.033-15.188c-1.957.649-3.872 1.507-5.582 2.265l6.491 14.625zm6.448-15.665c.203.155.559.47.904.99.359.542.604 1.154.72 1.768l-15.721 2.975c.593 3.131 2.367 5.449 4.415 7.005l9.682-12.738zm1.624 2.758c.005.025-.013-.066-.036-.311a19.367 19.367 0 01-.064-.936 56.25 56.25 0 01-.044-2.971c.018-2.362.134-5.24.329-8.219.404-6.193 1.09-11.923 1.695-14.297l-15.504-3.952c-1.011 3.964-1.754 11.034-2.157 17.206-.21 3.203-.342 6.398-.363 9.14-.019 2.514.043 5.304.423 7.315l15.721-2.975zm1.88-26.734c.91-3.57.924-6.601.949-8.663l-15.998-.2c-.026 2.088-.067 3.387-.455 4.911l15.504 3.952zm.949-8.663c.021-1.629.048-2.49.193-3.319.121-.69.346-1.441.91-2.428l-13.892-7.938c-3.169 5.545-3.169 10.235-3.209 13.485l15.998.2zm1.103-5.747c.774-1.355 1.288-2.529 1.598-3.231l-14.638-6.46c-.301.683-.527 1.184-.852 1.753l13.892 7.938zm1.543-3.108v-.001l-14.528-6.705v.001l14.528 6.705zm.055-.123c.122-.276.185-.418.237-.528.05-.107.032-.06-.039.061-.111.191-.737 1.243-2.127 2.071l-8.186-13.748c-1.928 1.148-2.978 2.712-3.491 3.588-.483.824-.869 1.727-1.032 2.096l14.638 6.46zm-1.929 1.604c-1.468.874-2.885.975-3.707.915l1.165-15.957c-1.626-.119-3.661.114-5.644 1.294l8.186 13.748zm4.874-7.21c-.015-.825.039-1.346.107-1.757.079-.483.197-.949.452-1.916l-15.469-4.085c-.536 2.026-1.155 4.348-1.087 8.05l15.997-.292zm.559-3.673c.79-2.992 1.754-6.828 1.97-15.266l-15.995-.408c-.178 6.98-.911 9.57-1.444 11.589l15.469 4.085zm-7.825-23.266c-.878.203-1.815.379-2.811.541l2.579 15.791a59.666 59.666 0 003.827-.741l-3.595-15.591zm-2.811.541c-.653.107-1.005.126-1.141.127-.147.001.141-.022.667.141a5.205 5.205 0 012.105 1.299c.702.706 1.035 1.421 1.178 1.834.126.367.111.516.092.268-.017-.234-.026-.651.006-1.334.067-1.421.27-3.264.567-5.928l-15.901-1.776c-.277 2.477-.551 4.9-.648 6.948-.089 1.886-.108 4.527.757 7.037 1.098 3.185 3.5 5.816 7.103 6.934 2.816.873 5.692.584 7.794.241l-2.579-15.791zm3.474-3.596l.005-.044-15.901-1.771-.005.045 15.901 1.77zm.005-.041l.1-.896-15.902-1.767-.099.886 15.901 1.777zm.1-.896c1.414-12.727-1.396-24.919-7.398-34.74l-13.653 8.343c4.097 6.704 6.183 15.322 5.149 24.63l15.902 1.767zm-7.398-34.74c-.286-.467-.844-1.937-1.064-4.959-.207-2.851-.067-6.387.403-10.358.94-7.942 3.093-16.788 5.524-23.794l-15.116-5.245c-2.772 7.99-5.209 17.964-6.297 27.16-.544 4.598-.776 9.21-.472 13.397.292 4.018 1.13 8.477 3.369 12.142l13.653-8.343zm4.863-39.111c5.397-15.556.092-31.47-3.279-42.142l-15.257 4.82c3.7 11.711 6.789 22.366 3.42 32.077l15.116 5.245zm-3.261-42.085l-15.293 4.705h.001l15.292-4.705zm-.018-.058c-.668-2.114-1.273-4.03-1.793-5.84l-15.377 4.42c.588 2.047 1.259 4.169 1.913 6.24l15.257-4.82zm-1.793-5.84c-2.059-7.16.523-11.48 5.1-18.418l-13.354-8.812c-4.507 6.83-11.381 16.84-7.123 31.65l15.377-4.42zm5.021-18.3l-13.195-9.049h-.001l13.196 9.05zm.08-.119c.514-.779 1.062-1.609 1.599-2.449l-13.476-8.624c-.467.73-.953 1.466-1.478 2.262l13.355 8.811zm1.599-2.449c.628-.98.915-1.131.722-.99-.267.195-1.118.687-2.434.68a4.91 4.91 0 01-2.84-.904 3.578 3.578 0 01-1.003-1.085l13.777-8.137c-1.257-2.128-4.449-5.842-9.84-5.874-5.563-.033-9.421 3.878-11.858 7.686l13.476 8.624zm8.199-2.262c3.078-5.146 7.739-11.612 13.029-16.089L194.272 27.99c-7.198 6.09-12.922 14.232-16.426 20.092l13.732 8.211zm13.029-16.089c3.182-2.692 5.535-4.893 7.39-6.639l-10.968-11.65c-1.794 1.69-3.903 3.66-6.757 6.075l10.335 12.214zm-9.587-11.1c.93 1.902 2.667 4.696 6.112 6.054 3.007 1.185 5.94.593 6.627.485l-2.492-15.805c-.488.077-.448.054-.245.05.281-.005 1.043.016 1.979.385 2.095.826 2.678 2.388 2.393 1.804l-14.374 7.027zm-1.68-9.51c-.023.087-.275.945-.349 1.995-.08 1.15.056 2.184.274 3.085.358 1.48 1.056 3.001 1.755 4.43l14.374-7.027a24.2 24.2 0 01-.595-1.287c-.107-.258-.054-.174.016.117.088.364.194 1 .137 1.803-.049.703-.222 1.266-.156 1.02l-15.456-4.137zm-.082.462c.019-.156.045-.295.07-.405.02-.09.038-.155.012-.057l15.456 4.136c.056-.207.234-.853.339-1.697l-15.877-1.977zM377.971 630.05l-.05-.289-15.769 2.707.049.29 15.77-2.708zm.045.264l-.046-.268-15.768 2.716.046.268 15.768-2.716zm.056.323l-.057-.327-15.766 2.724.056.326 15.767-2.723zm.209 1.198l-.21-1.201-15.765 2.729.217 1.244 15.758-2.772zm-15.856.733l-.013.256 15.98.795.013-.256-15.98-.795zm.018-.393l-.019.398 15.981.785.021-.433-15.983-.75zm.016-.337l-.016.337 15.983.75.017-.366-15.984-.721zm.018-.408l-.018.409 15.984.719.019-.448-15.985-.68zm.017 2.351c.261.755 1.324 3.71 4.587 5.236l6.777-14.494a7.426 7.426 0 012.969 2.494 6.36 6.36 0 01.787 1.53l-15.12 5.234zm.008.022l.007.02 15.091-5.317-.007-.02-15.091 5.317zm.015.042l.011.03 15.039-5.461-.011-.031-15.039 5.462zM240.51 527.435c-2.387.297-4.815.608-7.274.931l2.087 15.864c2.424-.319 4.815-.625 7.163-.918l-1.976-15.877zm-8.135 15.221c2.823.518 5.935.698 9.073.717l.1-15.999c-2.691-.017-4.762-.176-6.285-.455l-2.888 15.737zm9.59-8.578a64.833 64.833 0 00-.524-1.723l-15.243 4.864c.14.439.273.873.396 1.299l15.371-4.44zm131.986 32.052l-5.137-27.106-15.72 2.979 5.137 27.106 15.72-2.979zm-18.436-15.213c1 4.222 1.862 10.31 2.619 17.536l15.913-1.667c-.77-7.355-1.715-14.288-2.962-19.556l-15.57 3.687zm-2.153-9.544a595.173 595.173 0 002.153 9.544l15.57-3.687a578.289 578.289 0 01-2.092-9.272l-15.631 3.415zm15.326 1.186l.226-.854-15.472-4.078-.222.84 15.468 4.092zm-272.61-78.626c-2.479 11.492-6.318 22.923-12.802 34.509l13.962 7.814c7.4-13.222 11.731-26.206 14.481-38.948l-15.64-3.375zm15.814-.542c-.595-.922-.758-1.192-.854-1.38L96.76 469.23c.552 1.093 1.225 2.119 1.691 2.84l13.441-8.679zm6.93 13.07c-3.202-7.269-5.448-10.776-6.93-13.07l-13.44 8.679c1.163 1.803 2.957 4.552 5.727 10.841l14.643-6.45zm5.373 28.002c.648-2.724.617-6.579-.095-10.967-.747-4.603-2.333-10.349-5.278-17.035l-14.643 6.45c2.44 5.54 3.614 9.983 4.128 13.149.548 3.38.281 4.873.323 4.697l15.565 3.706zm-4.506-9.173l-.532-.194-5.489 15.028.532.195 5.489-15.029zm.375.137l-.377-.138-5.484 15.031.377.138 5.484-15.031zm.567.206l-.571-.208-5.476 15.034.572.208 5.475-15.034zm-37.355 2.809c-1.055 1.885-2.002 3.987-2.43 6.189-.434 2.236-.46 5.355 1.418 8.272 1.881 2.922 4.712 4.148 6.809 4.646 2.058.488 4.14.47 5.885.322 6.605-.561 16.297-3.847 25.632-7.189l-5.393-15.064c-9.984 3.575-17.51 5.963-21.592 6.31-.927.079-1.11-.011-.838.053.31.074 1.831.523 2.95 2.26 1.115 1.732.871 3.258.836 3.439-.028.146.04-.271.685-1.424l-13.962-7.814z" fill="#fff" mask="url(#g)"/></g><defs><filter id="filter0_d" x=".102" y=".484" width="447.747" height="1403.18" filterUnits="userSpaceOnUse" color-interpolation-filters="sRGB"><feFlood flood-opacity="0" result="BackgroundImageFix"/><feColorMatrix in="SourceAlpha" values="0 0 0 0 0 0 0 0 0 0 0 0 0 0 0 0 0 0 127 0"/><feOffset dy="4"/><feGaussianBlur stdDeviation="2"/><feColorMatrix values="0 0 0 0 0 0 0 0 0 0 0 0 0 0 0 0 0 0 0.25 0"/><feBlend in2="BackgroundImageFix" result="effect1_dropShadow"/><feBlend in="SourceGraphic" in2="effect1_dropShadow" result="shape"/></filter></defs></svg>