<svg width="2539" height="190" viewBox="0 0 2539 190" fill="none" xmlns="http://www.w3.org/2000/svg">
<path opacity="0.4" d="M472.263 39.8294L338.759 45.4613L338.672 45.499L301.704 61.3376L273.004 77.1875L252.562 90.2884L287.088 81.9665L323.969 64.297L339.018 56.1204L418.781 50.9225L469.714 47.6857L549.21 58.2522L623.927 72.0333L691.628 74.772L755.67 78.6737L825.38 77.8381L888.567 78.4511L937.469 77.5016L986.388 74.1631L1049.76 77.1509L1103.81 104.743L1137.66 119.907L1104.17 126.892L1064.12 144.058L1018.01 153.137L969.318 154.962L912.821 160.197L857.256 167.381L807.01 167.377L745.311 172.627L689.2 177.804L652.097 190.058L652.417 191.023L689.464 178.787L745.401 173.64L807.053 168.392L857.321 168.394L912.933 161.208L969.384 155.976L1018.13 154.143L1064.47 145.014L1104.48 127.857L1140.93 120.262L1104.25 103.827L1050.03 76.1465L1049.92 76.1404L986.377 73.1485L937.424 76.486L888.563 77.4345L825.378 76.8215L755.694 77.6581L691.68 73.7564L624.04 71.0248L549.369 57.2478L469.749 46.6742L418.716 49.908L338.728 55.1201L323.508 63.3912L286.697 81.0261L258.191 87.8872L273.524 78.0597L302.151 62.2495L338.988 46.4698L472.22 40.8419L545.635 50.3441L638.405 62.6358L740.49 72.0435L830.354 72.015L907.247 73.8367L966.578 64.1953L1052.76 73.8235L1126.9 110.02L1127 110.026L1213.47 115.444L1213.57 115.41L1255.74 100.426L1255.4 99.4683L1213.32 114.416L1127.16 109.018L1053.05 72.8334L1052.96 72.8232L966.552 63.1695L966.484 63.1807L907.178 72.8262L830.365 70.9984L740.536 71.0289L638.518 61.6253L545.767 49.3366L472.263 39.8294Z" fill="black"/>
<path opacity="0.4" d="M484.656 36.5936L338.787 39.8254L338.716 39.8478L307.011 50.0799L279.491 68.521L244.27 87.2651L230.254 103.971L270.862 89.8493L311.689 78.1177L338.911 65.6898L416.723 57.1026L495.482 58.5848L579.112 74.3197L640.733 84.1919L727.033 93.9289L819.405 90.1126L899.402 84.8944L990.173 78.808L1063.42 96.2671L1085.42 107.143L1093.24 122.542L1059.42 140.059L993.384 147.465L952.232 150.771L911.683 150.769L851.152 157.6L794.005 161.246L730.343 163.535L676.493 171.327L647.487 180.922L628.353 184.754L617.34 190.081L617.784 190.996L628.736 185.698L647.746 181.903L676.726 172.312L730.433 164.545L794.055 162.262L851.242 158.612L911.739 151.783L952.272 151.786L993.482 148.478L1059.72 141.047L1094.6 122.981L1086.17 106.381L1063.71 95.2912L990.258 77.7833L990.182 77.7884L899.335 83.8798L819.351 89.0981L727.068 92.9164L640.871 83.1845L579.287 73.3184L495.587 57.5763L416.677 56.089L338.637 64.6976L338.562 64.7321L311.339 77.1672L270.555 88.8805L233.402 101.799L244.922 88.0693L280.014 69.3923L307.517 50.9643L338.958 40.838L484.601 37.6051L626.283 56.4367L734.381 66.745L838.425 66.7471L914.448 69.0903L969.436 59.886L1055.11 66.4787L1129.07 106.209L1129.18 106.217L1211.28 111.517L1255.76 92.9408L1255.37 92.0025L1211.11 110.488L1129.36 105.209L1055.4 65.4814L1055.29 65.4733L969.39 58.8623L969.329 58.8725L914.379 68.0798L838.442 65.7315L734.429 65.7305L626.399 55.4272L484.656 36.5936Z" fill="black"/>
<path opacity="0.4" d="M473.528 65.7293L413.957 68.3532L387.799 75.2112L338.654 83.4507L270.298 99.451L222.281 118.385L170.71 131.234L74.7028 152.168L74.6022 152.256L32.0469 190.159L32.7239 190.92L75.1796 153.104L170.941 132.223L222.591 119.351L270.6 100.419L338.855 84.447L388.013 76.2044L414.162 69.3494L473.456 66.75L506.046 72.7591L560.875 84.1634L570.055 91.5947L608.201 107.272L650.38 114.793L702.035 114.632L756.089 115.619L839.907 113.566L853.943 115.632L854.065 115.588L906.261 96.2914L968.865 93.937L995.751 101.699L1021.22 108.184L1043.28 119.975L1015.66 131.135L985.526 135.844L946.002 138.372L908.27 138.555L860.835 143.314L833.256 146.19L758.399 146.188L705.341 148.922L607.248 168.19L573.244 181.09L545.215 190.056L545.525 191.023L573.58 182.049L607.526 169.163L705.465 149.928L758.426 147.204L833.309 147.205L860.939 144.326L908.324 139.568L946.037 139.387L985.638 136.854L1015.98 132.1L1045.68 120.103L1021.53 107.214L996.018 100.718L968.99 92.9143L968.909 92.9173L906.06 95.2819L905.985 95.3104L853.834 114.589L839.968 112.554L756.085 114.602L702.043 113.615L650.467 113.784L608.434 106.281L570.511 90.6828L561.323 83.2179L561.202 83.1925L506.241 71.7608L473.528 65.7293Z" fill="black"/>
<path opacity="0.4" d="M488.389 72.0423H443.678L376.821 83.1882L338.675 87.8626L295.53 99.4538L239.814 114.467L239.727 114.54L210.066 139.625L131.931 144.734L76.6938 155.567L76.5916 155.657L37.1562 190.156L37.8254 190.921L77.158 156.512L132.062 145.74L210.467 140.618L240.296 115.389L295.794 100.435L338.869 88.858L376.966 84.194L443.761 73.052L488.258 73.059L538.783 86.2257L589.727 104.476L627.452 119.124L591.14 129.578L568.539 138.707L527.627 148.303L488.502 153.068L449.179 155.459L392.97 159.698L344.553 161.115L338.788 159.413L338.691 159.421L276.608 164.996C276.069 165.022 240.319 165.039 215.969 165.039C203.741 165.039 194.399 165.028 193.841 164.995C192.138 164.917 110.999 168.045 107.546 168.179L107.33 168.187L87.3276 190.561L88.0861 191.238L107.801 169.187C137.088 168.048 192.464 165.918 193.781 166.01C195.479 166.112 273.341 166.016 276.655 166.011L338.685 160.443L344.42 162.136L344.501 162.134L393.023 160.714L449.249 156.473L488.595 154.081L527.805 149.303L568.846 139.673L591.471 130.537L630.628 119.267L590.082 103.523L539.083 85.2548L488.389 72.0423Z" fill="black"/>
<path opacity="0.4" d="M452.049 78.0365L451.994 78.0426L402.307 83.1846L358.327 91.9742L338.656 91.964L338.58 91.9894L286.713 108.746L250.545 117.628L250.436 117.768L237.491 134.574L164.531 153.546L117.152 152.978L117.086 152.996L86.2835 161.015L44.5781 190.123L45.1606 190.957L86.7908 161.9L117.275 153.997L164.654 154.564L164.721 154.547L238.085 135.47L251.133 118.53L286.99 109.723L338.817 92.9806H358.427L402.458 84.189L452.045 79.0592L498.836 84.1961L551.226 96.2652L577.054 111.382L584.314 122.531L537.862 142.162L479.628 148.295L423.963 151.066L379.067 151.065L338.711 153.067L235.763 161.12L100.621 161.119L100.502 161.188L50.57 190.463L51.0844 191.34L100.897 162.136H235.802L338.776 154.081L379.092 152.082H423.987L479.707 149.307L538.118 143.157L585.828 122.995L577.775 110.626L551.53 95.2913L499.006 83.1958L452.049 78.0365Z" fill="black"/>
<path opacity="0.4" d="M455.433 83.179L455.368 83.1864L380.689 91.7277L338.572 99.4655L287.27 117.004L256.051 124.091L274.315 135.526L338.803 144.325L396.812 146.848L444.407 144.329L484.597 143.666L525.433 136.333L568.648 119.22L549.762 110.974L512.076 91.3282L511.991 91.3158L455.433 83.179ZM338.866 100.44L380.838 92.7324L455.417 84.2031L511.76 92.31L549.323 111.89L566.004 119.174L525.156 135.36L484.499 142.658L444.372 143.313L396.808 145.832L338.894 143.313L274.561 134.534L258.672 124.538L287.547 117.981L338.866 100.44Z" fill="black"/>
<path opacity="0.4" d="M422.967 93.6346L422.908 93.6447L389.297 99.4442L357.774 105.725L338.707 106.885L319.682 110.504L296.952 119.038L286.247 120.724L282.703 127.77L326.498 135.522L338.738 138.592H382.654L410.992 140.629L454.547 139.611L488.573 136.008L537.126 120.376L498.038 104.741L473.672 96.8249L422.967 93.6346ZM286.92 121.648L297.26 120.008L319.956 111.479L338.833 107.891L357.905 106.73L389.483 100.443L423.022 94.6571L473.544 97.835L497.692 105.696L534.129 120.273L488.311 135.024L454.482 138.598L411.017 139.614L382.691 137.576L338.801 137.575L326.711 134.528L284.224 127.007L286.92 121.648Z" fill="black"/>
<path opacity="0.4" d="M428.96 100.699L428.905 100.709L393.579 107.284L374.972 116.969L338.758 115.376L320.284 117.572L299.789 124.117L301.814 124.475C310.224 125.963 323.097 128.355 324.09 128.844C325.535 129.556 338.068 133.021 338.601 133.168L338.732 133.186L369.423 133.402L392.697 131.153L420.042 133.909L449.608 135.453L481.987 131.52L508.273 119.279L495.968 110.888L463.449 101.895L428.96 100.699ZM393.981 108.221L429.035 101.719L463.353 102.909L495.614 111.845L506.227 119.11L481.631 130.565L449.574 134.44L420.12 132.895L392.699 130.141L369.378 132.387L338.807 132.17C335.154 131.161 325.661 128.485 324.539 127.932C323.316 127.329 309.493 124.815 304.012 123.834L320.499 118.561L338.796 116.389L375.2 117.996L375.32 117.933L393.981 108.221Z" fill="black"/>
<path opacity="0.4" d="M354.111 120.002L338.856 121.557L320.855 124.226L338.714 127.953L354.762 125.929L362.695 126.854L371.943 122.681L366.324 120.677L354.111 120.002ZM338.994 122.565L354.135 121.015L366.194 121.688L369.239 122.786L362.534 125.811L354.758 124.905L354.697 124.913L338.756 126.923L326.644 124.396L338.994 122.565Z" fill="black"/>
<path opacity="0.4" d="M449.621 111.168L421.779 111.428L406.869 114.994L393.301 121.711L416.774 125.937L437.142 127.461L457.548 127.898L472.56 123.646L477.654 118.171L471.684 116.1L449.621 111.168ZM421.958 112.43L449.514 112.185L471.406 117.076L475.848 118.62L472.01 122.746L457.417 126.879L437.191 126.446L416.902 124.93L396.511 121.257L407.268 115.931L421.958 112.43Z" fill="black"/>
<path opacity="0.4" d="M952.62 99.4289L952.53 99.4421L913.584 105.188L887.568 115.771L844.693 121.17L770.943 121.246L698.528 119.97L659.686 117.566L613.105 129.494L580.405 141.381L542.053 154.367L504.304 161.125L461.041 162.436L409.392 164.327L371.549 169.058L338.767 167.16L216.47 176.811L128.419 177.378L107.305 190.104L107.829 190.974L128.704 178.392L216.513 177.826L338.779 168.174L371.583 170.069L409.475 165.339L461.077 163.452L504.41 162.134L542.305 155.349L580.743 142.341L613.404 130.464L659.783 118.591L698.488 120.986L770.935 122.263L844.758 122.182L887.889 116.738L913.91 106.154L952.59 100.461L1010.69 112.438L1016.47 119.827L986.439 129.746L946.33 134.242L903.763 129.475L903.708 129.481L874.087 132.646L847.523 139.624L790.52 139.826L730.788 138.184L676.479 146.193L630.352 154.617L588.556 166.356L547.026 180.361L496.053 186.659L469.304 190.035L469.431 191.043L496.179 187.668L547.303 181.341L588.855 167.327L630.581 155.606L676.645 147.195L730.849 139.195L790.508 140.842L847.719 140.624L874.27 133.644L903.76 130.497L946.33 135.265L946.386 135.259L986.709 130.728L1018.16 120.339L1011.27 111.518L952.62 99.4289Z" fill="black"/>
<path opacity="0.4" d="M789.346 125.827L725.808 127.881L669.965 130.9L615.504 141.559L567.206 153.08L512.039 168.18L439.483 168.29L384.81 174.401L338.891 172.53L295.936 173.158L235.158 181.861L190.405 181.856L141.523 190.038L141.692 191.041L190.489 182.866L235.23 182.872L296.017 174.169L338.877 173.546L384.846 175.415L439.54 169.304L512.176 169.197L512.242 169.179L567.458 154.065L615.72 142.552L670.09 131.906L725.852 128.898L789.362 126.843H848.316L873.257 127.735L826.514 135.596L768.003 132.25L707.994 136.166L634.137 145.836L576.48 162.149L522.297 173.168L470.305 184.093L407.83 183.104L338.917 176.775L177.314 190.032L177.398 191.047L338.912 177.788L407.776 184.12L470.402 185.112L470.458 185.1L522.502 174.163L576.719 163.135L634.341 146.828L708.093 137.177L768.007 133.264L826.57 136.618L826.627 136.609L883.301 127.076L848.333 125.828L789.346 125.827Z" fill="black"/>
<path opacity="0.4" d="M1255.47 106.893L1194.04 119.751L1137.56 125.852L1075.79 146.811L1040.83 159.467L1028.17 158.185L953.931 162.51L878.227 170.632L817.098 171.727L749.49 176.109L679.707 190.039L679.906 191.035L749.622 177.115L817.139 172.742L878.291 171.646L954.016 163.523L1028.15 159.198L1040.95 160.502L1076.13 147.771L1137.83 126.832L1194.2 120.753L1255.67 107.887L1255.47 106.893Z" fill="black"/>
<path opacity="0.4" d="M1345.79 100.702L1345.74 100.712L1310.41 107.287L1291.8 116.972L1255.59 115.379L1219 120.009L1191.56 125.839L1141.08 129.375L1141.01 129.402L1106.62 142.547L1183.16 131.642L1255.57 133.189L1286.26 133.405L1309.53 131.157L1336.88 133.913L1366.44 135.456L1398.82 131.524L1425.11 119.282L1412.8 110.891L1380.28 101.899L1345.79 100.702ZM1310.81 108.223L1345.87 101.721L1380.19 102.912L1412.45 111.848L1423.06 119.113L1398.46 130.567L1366.41 134.443L1336.95 132.898L1309.53 130.144L1286.21 132.39L1255.58 132.172L1183.1 130.629L1115.45 140.263L1141.3 130.378L1191.7 126.843L1219.17 121.009L1255.63 116.391L1292.03 117.998L1292.15 117.935L1310.81 108.223Z" fill="black"/>
<path opacity="0.4" d="M1203.86 135.859L1203.81 135.869L1160.97 143.433L1113.84 145.089L1113.74 145.136L1079.13 161.917L1038.69 173.882L976.992 178.229L904.367 182.672L825.548 179.79L734.375 190.032L734.488 191.043L825.585 180.803L904.38 183.688L977.058 179.242L1038.92 174.872L1079.49 162.862L1114.09 146.098L1161.07 144.442L1203.93 136.878L1255.55 138.59L1255.59 137.575L1203.86 135.859Z" fill="black"/>
<path opacity="0.4" d="M1233.38 140.856L1233.31 140.868L1201.45 145.796L1153.99 152.131L1103.51 167.278L1073.09 178.423L1026.73 182.39L959.852 190.032L959.966 191.043L1026.83 183.4L1073.38 179.401L1103.83 168.242L1154.2 153.121L1201.6 146.801L1233.4 141.882L1255.65 144.324L1255.76 143.314L1233.38 140.856Z" fill="black"/>
<path opacity="0.4" d="M1231.42 146.474L1231.29 146.504L1195.93 154.901L1167.26 157.141L1116.67 170.016L1054.07 190.056L1054.38 191.023L1116.95 170.993L1167.42 158.14L1196.09 155.902L1231.4 147.523L1255.43 154.065L1255.7 153.084L1231.42 146.474Z" fill="black"/>
<path opacity="0.4" d="M1218.31 158.184L1218.25 158.199L1183.26 166.352L1131.15 176.156L1100.28 190.077L1100.69 191.004L1131.51 177.109L1183.47 167.347L1218.41 159.205L1255.55 160.438L1255.58 159.422L1218.31 158.184Z" fill="black"/>
<path opacity="0.4" d="M1255.56 167.159L1203.11 168.304L1163.39 177.79L1145.5 181.113L1127.53 190.45L1128 191.352L1145.9 182.051L1163.6 178.784L1203.3 169.306L1255.58 168.176L1255.56 167.159Z" fill="black"/>
<path opacity="0.4" d="M1255.59 172.541L1232.3 177.777L1197.97 178.387L1160.95 190.054L1161.26 191.023L1198.21 179.379L1232.47 178.781L1255.81 173.533L1255.59 172.541Z" fill="black"/>
<path opacity="0.4" d="M1255.56 176.793L1245.08 179.812L1190.47 190.041L1190.66 191.039L1245.31 180.799L1255.85 177.769L1255.56 176.793Z" fill="black"/>
<path opacity="0.4" d="M338.772 0.276215L338.629 0.354507L231.018 59.1354L148.759 122.948L50.8722 147.632L50.7837 147.707L0 190.149L0.65063 190.93L51.3459 148.561L149.214 123.882L231.574 59.9833L338.972 1.32536L501.334 21.5201L591.254 26.2789L776.43 43.5591L903.743 47.6854L1008.1 43.8264L1124.72 52.5875L1255.59 46.7176L1255.54 45.7021L1124.74 51.5729L1008.12 42.8118L903.741 46.6688L776.494 42.5455L591.329 25.2653L501.423 20.5076L338.772 0.276215Z" fill="black"/>
<path opacity="0.4" d="M1389.09 39.8268L1255.54 45.701L1255.59 46.7166L1389.05 40.8389L1462.47 50.3412L1555.24 62.6328L1657.32 72.0408L1747.18 72.0125L1824.08 73.8342L1883.41 64.1924L1969.6 73.8213L2043.73 110.017L2043.83 110.023L2130.2 115.435L2323.75 119.363C2364.25 135.909 2441.22 167.534 2443.25 169.042C2445.55 170.875 2528.68 183.602 2538.16 185.047L2538.31 184.042C2501.52 178.428 2446 169.587 2443.87 168.237C2441.59 166.418 2328.85 120.346 2324.05 118.386L2323.86 118.348L2130.24 114.419L2043.99 109.015L1969.88 72.8305L1969.8 72.8204L1883.38 63.1667L1883.31 63.1776L1824.01 72.8239L1747.2 70.9958L1657.37 71.0263L1555.35 61.6227L1462.6 49.3336L1389.09 39.8268Z" fill="black"/>
<path opacity="0.4" d="M1333.51 56.089L1255.55 64.6884L1255.66 65.6989L1333.56 57.1026L1412.32 58.5848L1495.94 74.3197L1557.57 84.1919L1643.86 93.93L1736.24 90.1126L1816.23 84.8944L1907 78.808L1980.25 96.2671L2002.25 107.143L2010.07 122.542L1976.25 140.059L1910.22 147.465L1869.06 150.771L1828.52 150.769L1767.98 157.601L1710.84 161.246L1647.17 163.535L1593.33 171.327L1564.32 180.922L1545.18 184.754L1534.17 190.081L1534.62 190.996L1545.57 185.698L1564.58 181.903L1593.56 172.312L1647.26 164.545L1710.89 162.262L1768.07 158.612L1828.57 151.783L1869.11 151.786L1910.31 148.478L1976.55 141.048L1976.63 141.005L2011.44 122.981L2003 106.381L1980.54 95.2912L1907.09 77.7833L1907.01 77.7884L1816.17 83.8798L1736.18 89.0981L1643.9 92.9164L1557.7 83.1845L1496.12 73.3184L1412.42 57.5763L1333.51 56.089Z" fill="black"/>
<path opacity="0.4" d="M1386.25 61.6209L1325.22 63.7181L1255.54 73.5629L1255.68 74.5693L1325.31 64.7296L1386.24 62.6354L1440.44 66.4853L1501.78 81.9976L1547.24 95.6984L1647.48 101.716L1747.38 101.717L1808.61 90.4934L1902.39 87.8563L1959.88 100.418L1989.98 121.073L1961.18 132.97L1885.24 143.314L1812.64 146.479L1750.82 153.805L1677.47 157.893L1600.73 161.119L1530.49 181.074L1508.28 190.066L1508.66 191.008L1530.82 182.034L1600.89 162.13L1677.52 158.908L1750.9 154.818L1812.72 147.491L1885.33 144.325L1961.44 133.96L1961.51 133.935L1992.1 121.296L1960.19 99.4466L1902.48 86.8366L1902.42 86.8387L1808.5 89.4859L1747.29 100.708L1647.51 100.7L1547.37 94.6868L1502.05 81.0176L1440.6 65.486L1386.25 61.6209Z" fill="black"/>
<path opacity="0.4" d="M1390.36 65.7293L1330.79 68.3522L1304.63 75.2112L1255.48 83.4507L1255.65 84.4531L1304.84 76.2044L1330.99 69.3494L1390.29 66.75L1422.88 72.7591L1477.71 84.1634L1486.89 91.5947L1525.03 107.272L1567.21 114.793L1618.87 114.632L1672.92 115.619L1756.74 113.566L1770.77 115.632L1823.09 96.2914L1885.7 93.936L1912.58 101.699L1938.05 108.184L1960.11 119.975L1932.49 131.135L1902.36 135.844L1862.83 138.372L1825.1 138.555L1777.67 143.314L1750.09 146.19L1675.23 146.188L1622.17 148.922L1524.08 168.19L1490.07 181.09L1462.05 190.056L1462.36 191.023L1490.41 182.049L1524.36 169.163L1622.3 149.928L1675.26 147.204L1750.14 147.205L1777.77 144.326L1825.16 139.568L1862.87 139.387L1902.47 136.854L1932.82 132.1L1962.51 120.103L1938.36 107.214L1912.85 100.718L1885.82 92.9143L1885.74 92.9173L1822.89 95.2819L1822.82 95.3094L1770.66 114.589L1756.8 112.554L1672.92 114.602L1618.87 113.615L1567.3 113.784L1525.26 106.281L1487.34 90.6828L1478.15 83.2179L1478.03 83.1935L1423.07 71.7608L1390.36 65.7293Z" fill="black"/>
<path opacity="0.4" d="M1405.22 72.0435H1360.51L1293.65 83.1895L1255.51 87.8638L1255.63 88.8723L1293.8 84.1949L1360.59 73.0529L1405.09 73.0601L1455.62 86.2271L1506.56 104.477L1544.28 119.124L1507.97 129.579L1485.37 138.708L1444.46 148.305L1405.34 153.07L1366.01 155.461L1309.8 159.7L1261.39 161.117L1255.71 159.442L1255.43 160.417L1261.25 162.137L1261.33 162.136L1309.86 160.716L1366.08 156.474L1405.43 154.082L1444.64 149.304L1485.68 139.674L1508.3 130.538L1547.46 119.268L1506.91 103.525L1455.92 85.2562L1405.22 72.0435Z" fill="black"/>
<path opacity="0.4" d="M1368.88 78.0362L1368.82 78.0423L1319.13 83.1842L1275.16 91.9738L1255.56 91.9636V92.9802H1275.26L1319.29 84.1886L1368.87 79.0589L1415.66 84.1958L1468.05 96.2649L1493.88 111.382L1501.14 122.531L1454.69 142.161L1396.46 148.295L1340.79 151.066L1295.9 151.065L1255.54 153.066L1255.59 154.082L1295.92 152.081H1340.82L1396.53 149.307L1454.94 143.157L1502.66 122.994L1494.6 110.625L1468.36 95.2909L1415.83 83.1954L1368.88 78.0362Z" fill="black"/>
<path opacity="0.4" d="M1372.26 83.1789L1372.2 83.186L1297.52 91.7275L1255.48 99.4466L1255.66 100.446L1297.67 92.7329L1372.25 84.2037L1428.59 92.31L1466.15 111.891L1482.84 119.174L1441.99 135.36L1401.33 142.657L1361.2 143.313L1313.64 145.832L1255.73 143.313L1255.68 144.329L1313.64 146.848L1361.24 144.329L1401.43 143.667L1442.27 136.333L1485.48 119.219L1466.59 110.974L1428.91 91.328L1428.82 91.3158L1372.26 83.1789Z" fill="black"/>
<path opacity="0.4" d="M1339.8 93.6345L1339.74 93.6446L1306.13 99.4443L1274.61 105.725L1255.54 106.885L1255.6 107.899L1274.74 106.73L1306.32 100.444L1339.85 94.6572L1390.38 97.8361L1414.52 105.696L1450.96 120.273L1405.14 135.024L1371.31 138.598L1327.85 139.614L1299.52 137.577L1255.57 137.575V138.592H1299.49L1327.82 140.629L1371.38 139.611L1405.4 136.008L1453.96 120.376L1414.87 104.741L1390.5 96.8246L1339.8 93.6345Z" fill="black"/>
<path opacity="0.4" d="M1246.97 119.994L1214.62 125.336L1238.43 128.898L1255.59 127.947L1255.54 126.932L1238.47 127.878L1221.16 125.286L1246.96 121.026L1255.48 122.589L1255.66 121.589L1246.97 119.994Z" fill="black"/>
<path opacity="0.4" d="M1270.94 120.005L1255.52 121.584L1255.62 122.596L1270.97 121.017L1283.03 121.69L1286.07 122.788L1279.37 125.815L1271.59 124.908L1271.53 124.916L1255.5 126.937L1255.63 127.945L1271.6 125.931L1279.53 126.857L1288.78 122.683L1283.16 120.68L1270.94 120.005Z" fill="black"/>
<path opacity="0.4" d="M1366.45 111.168L1338.61 111.428L1323.7 114.994L1310.13 121.711L1333.61 125.937L1353.97 127.461L1374.38 127.898L1389.39 123.646L1394.49 118.171L1388.52 116.1L1366.45 111.168ZM1338.79 112.43L1366.35 112.185L1388.24 117.076L1392.68 118.62L1388.84 122.746L1374.25 126.879L1354.02 126.446L1333.73 124.93L1313.34 121.257L1324.1 115.931L1338.79 112.43Z" fill="black"/>
<path opacity="0.4" d="M1869.45 99.4289L1869.36 99.4421L1830.41 105.189L1804.4 115.771L1761.52 121.17L1687.77 121.246L1615.36 119.97L1576.51 117.566L1529.93 129.494L1497.24 141.381L1458.88 154.367L1421.13 161.125L1377.87 162.437L1326.22 164.327L1288.38 169.058L1255.6 167.16L1255.54 168.175L1288.41 170.069L1326.3 165.339L1377.91 163.452L1421.24 162.135L1459.13 155.349L1497.57 142.341L1530.23 130.464L1576.61 118.591L1615.32 120.986L1687.77 122.263L1761.59 122.182L1804.72 116.738L1830.74 106.154L1869.42 100.461L1927.52 112.438L1933.3 119.827L1903.27 129.746L1863.16 134.242L1820.59 129.475L1820.54 129.481L1790.92 132.646L1764.35 139.624L1707.35 139.826L1647.62 138.184L1593.31 146.193L1547.18 154.617L1505.39 166.356L1463.85 180.361L1412.88 186.659L1386.13 190.035L1386.26 191.043L1413.01 187.668L1464.13 181.341L1505.69 167.327L1547.41 155.606L1593.47 147.195L1647.68 139.195L1707.34 140.842L1764.55 140.624L1791.1 133.644L1820.59 130.497L1863.16 135.265L1863.22 135.259L1903.54 130.728L1934.99 120.339L1928.1 111.518L1869.45 99.4289Z" fill="black"/>
<path opacity="0.4" d="M1706.18 125.824L1642.64 127.88L1586.8 130.897L1532.34 141.556L1484.04 153.077L1428.87 168.178L1356.31 168.288L1301.64 174.398L1255.72 172.528L1255.68 173.544L1301.68 175.412L1356.37 169.301L1429.01 169.194L1429.07 169.176L1484.29 154.062L1532.55 142.549L1586.92 131.904L1642.68 128.895L1706.19 126.841H1765.15L1790.09 127.732L1743.35 135.594L1684.83 132.247L1624.83 136.163L1550.97 145.833L1493.31 162.146L1439.13 173.165L1387.14 184.091L1324.66 183.102L1255.75 176.772L1255.66 177.785L1324.61 184.117L1387.23 185.109L1387.29 185.097L1439.33 174.161L1493.55 163.134L1551.17 146.825L1624.92 137.175L1684.84 133.262L1743.4 136.615L1743.46 136.606L1800.13 127.074L1765.17 125.825L1706.18 125.824Z" fill="black"/>
<path opacity="0.4" d="M1386.58 46.6741L1335.55 49.908L1255.67 55.1129L1255.74 56.1275L1335.61 50.9225L1386.54 47.6857L1466.04 58.2522L1540.76 72.0333L1608.46 74.772L1672.5 78.6737L1742.21 77.8381L1805.4 78.4511L1854.3 77.5016L1903.22 74.1631L1966.59 77.1508L2020.64 104.743L2054.49 119.907L2021.01 126.892L1980.95 144.058L1934.85 153.137L1886.15 154.962L1829.65 160.197L1774.09 167.381L1723.84 167.377L1662.14 172.627L1606.03 177.804L1568.93 190.058L1569.25 191.023L1606.29 178.787L1662.23 173.64L1723.88 168.392L1774.15 168.394L1829.76 161.207L1886.21 155.976L1934.96 154.143L1981.3 145.014L2021.31 127.857L2057.76 120.262L2021.08 103.827L1966.86 76.1464L1966.75 76.1404L1903.21 73.1485L1854.25 76.486L1805.39 77.4345L1742.21 76.8215L1672.52 77.6581L1608.51 73.7564L1540.87 71.0248L1466.2 57.2478L1386.58 46.6741Z" fill="black"/>
<path opacity="0.4" d="M2110.97 119.74L2054.39 125.851L1992.62 146.811L1957.65 159.467L1945 158.185L1870.76 162.51L1795.05 170.632L1733.93 171.727L1666.32 176.11L1596.54 190.039L1596.73 191.035L1666.45 177.115L1733.97 172.742L1795.12 171.645L1870.85 163.523L1944.98 159.198L1957.78 160.501L1992.96 147.771L2054.66 126.832L2111.03 120.753L2171.59 120.756C2231.53 128.218 2345.53 142.527 2348.43 143.357C2351.49 144.929 2435.25 180.872 2444.9 185.011L2466.52 191.027L2466.8 190.047L2445.24 184.054C2412.56 170.033 2350.29 143.262 2348.91 142.463C2347.78 141.706 2212.95 124.882 2171.65 119.744L2110.97 119.74Z" fill="black"/>
<path opacity="0.4" d="M2099.93 130.626L2027.73 140.908L2027.67 140.935L1990.88 156.924L1937.42 167.397L1886.58 172.859L1822.55 176.109L1754.91 176.108L1702.27 178.363L1657.81 183.369L1624.23 190.039L1624.43 191.035L1657.97 184.372L1702.35 179.376L1754.93 177.125H1822.57L1886.67 173.872L1937.57 168.402L1991.24 157.879L2028.01 141.895L2099.99 131.637L2172.39 132.759L2315.59 141.869L2357.11 163.937L2422.21 191.007L2422.6 190.067L2357.54 163.019L2315.88 140.869L2172.43 131.744L2099.93 130.626Z" fill="black"/>
<path opacity="0.4" d="M2172.44 135.295L2120.72 135.861L2077.8 143.433L2030.67 145.089L2030.57 145.136L1995.96 161.917L1955.52 173.882L1893.82 178.228L1821.2 182.672L1742.38 179.79L1651.2 190.032L1651.32 191.043L1742.41 180.803L1821.21 183.688L1893.89 179.242L1955.75 174.872L1996.32 162.862L2030.92 146.098L2077.9 144.442L2120.81 136.869L2172.4 136.309L2274.39 144.908L2326.91 163.648L2398.01 191.012L2398.38 190.063L2327.26 162.695L2274.54 143.9L2172.44 135.295Z" fill="black"/>
<path opacity="0.4" d="M2150.24 140.861L2118.28 145.796L2070.82 152.131L2020.34 167.278L1989.92 178.423L1943.56 182.39L1876.68 190.032L1876.8 191.043L1943.66 183.4L1990.21 179.401L2020.66 168.242L2071.04 153.121L2118.43 146.801L2150.3 141.872L2172.38 142.457L2234.34 150.962L2297.86 163.668L2367.37 191.01L2367.74 190.065L2298.14 162.696L2234.5 149.961L2172.47 141.445L2150.24 140.861Z" fill="black"/>
<path opacity="0.4" d="M2172.45 146.239L2148.13 146.502L2112.76 154.899L2084.09 157.14L2033.5 170.015L1970.9 190.053L1971.21 191.021L2033.78 170.991L2084.25 158.138L2112.92 155.9L2148.31 147.504L2172.35 147.256C2178.18 148.464 2226.84 158.531 2229.15 158.341C2230.89 158.219 2260.43 161.753 2275.87 163.663L2335.19 191.359L2335.62 190.438L2276.16 162.675L2276.08 162.664C2274.25 162.439 2231.42 157.126 2229.07 157.329C2229.05 157.33 2229.03 157.33 2229.01 157.33C2226.8 157.33 2194.14 150.731 2172.5 146.25L2172.45 146.239Z" fill="black"/>
<path opacity="0.4" d="M2172.45 157.333L2135.08 158.199L2100.09 166.352L2047.98 176.157L2017.11 190.077L2017.53 191.004L2048.34 177.109L2100.3 167.347L2135.26 159.201L2172.41 158.347L2247.21 166.461L2281.88 174.667L2310.94 190.984L2311.44 190.097L2282.18 173.694L2247.38 165.462L2172.45 157.333Z" fill="black"/>
<path opacity="0.4" d="M2172.4 162.979L2172.34 162.984L2120.01 168.293L2080.23 177.79L2062.33 181.113L2044.36 190.45L2044.83 191.352L2062.73 182.051L2080.44 178.784L2120.18 169.293L2172.39 164.001L2218.46 169.33L2268.64 179.034L2288.61 191.333L2289.14 190.468L2268.92 178.053L2218.61 168.327L2172.4 162.979Z" fill="black"/>
<path opacity="0.4" d="M2172.34 171.719L2149.12 177.777L2114.8 178.387L2077.79 190.054L2078.09 191.023L2115.04 179.379L2149.32 178.776L2172.45 172.74L2236.18 174.693L2273.16 191.003L2273.57 190.073L2236.41 173.682L2236.31 173.679L2172.34 171.719Z" fill="black"/>
<path opacity="0.4" d="M2217.09 178.042H2173.74L2161.98 179.795L2107.3 190.038L2107.49 191.036L2162.15 180.796L2173.81 179.054L2216.92 179.059L2252.4 191.379L2252.73 190.418L2217.09 178.042Z" fill="black"/>
<path opacity="0.4" d="M937.531 109.3L901.895 121.589L925.517 126.844H946.033L967.821 125.847L981.862 121.938L987.937 115.901L960.963 112.291L937.531 109.3ZM905.623 121.379L937.638 110.339L960.831 113.299L985.757 116.635L981.334 121.03L967.605 124.853L946.01 125.828L925.572 125.827L905.623 121.379Z" fill="black"/>
<path opacity="0.4" d="M338.617 21.397L338.488 21.4692L293.429 46.7317L247.732 75.2698L199.648 112.443L237.291 107.177L275.969 93.9031L333.416 76.1867L338.92 74.5531L408.478 64.7296L469.405 62.6354L523.605 66.4853L584.947 81.9976L630.413 95.6984L730.645 101.716L830.548 101.717L891.778 90.4934L985.558 87.8563L1043.05 100.418L1073.14 121.073L1044.35 132.97L968.412 143.314L895.805 146.479L833.986 153.805L760.641 157.892L683.896 161.119L613.658 181.074L591.447 190.066L591.828 191.008L613.988 182.034L684.059 162.13L760.69 158.908L834.073 154.818L895.886 147.491L968.502 144.325L1044.61 133.96L1075.27 121.296L1043.36 99.4466L985.652 86.8366L985.592 86.8387L891.672 89.4859L830.457 100.708L730.676 100.7L630.533 94.6868L585.218 81.0176L523.766 65.486L469.423 61.6209L408.389 63.7181L338.704 73.5629L333.121 75.2138L275.654 92.9373L237.056 106.194L203.298 110.906L248.313 76.1034L293.946 47.606L338.854 22.4288L447.667 28.8975L512.432 33.8321L635.48 48.4945L745.305 58.1187L903.756 59.7432L1003.91 54.4101L1124 61.6199L1255.56 74.5714L1255.66 73.5598L1124.08 60.6063L1003.91 53.3945L903.734 58.7276L745.353 57.1041L635.586 47.483L512.531 32.8205L447.736 27.8829L338.617 21.397Z" fill="black"/>
<path opacity="0.4" d="M338.762 5.17389L290.87 32.7563L225.043 72.1151L153.02 123.515L54.2238 150.77L21.4961 190.215L22.2789 190.863L54.8023 151.665L153.465 124.448L153.537 124.395L225.599 72.965L291.385 33.6337L338.982 6.21997L510.276 24.4934L611.167 30.6001L694.757 43.5343L776.797 45.7719L868.995 51.8613L917.333 51.0094L997.18 46.2182L1127.4 55.9531L1193.77 56.127H1255.7V55.1104H1193.78L1127.44 54.9376L997.187 45.2046L917.293 49.9928L869.02 50.8457L776.845 44.7563L694.849 42.5238L611.276 29.5906L510.36 23.4809L338.762 5.17389Z" fill="black"/>
<path opacity="0.4" d="M338.624 14.7187L338.505 14.7796L252.878 57.7097L201.75 93.0071L163.205 127.93L98.9236 144.751L59.9193 154.449L59.8177 154.555L25.7734 190.189L26.5085 190.891L60.451 155.363L99.1757 145.736L163.703 128.85L163.795 128.767L202.38 93.8021L253.393 58.582L338.839 15.7485L445.686 21.2686L505.693 31.1612L602.301 34.5343L716.269 51.8114L781.012 54.8886L899.68 57.1069L991.108 50.747L1134.73 59.4329L1236.71 62.6382L1255.52 65.6972L1255.69 64.6928L1236.81 61.6287L1134.78 58.4173L991.104 49.7325L899.654 56.0913L781.045 53.872L716.37 50.8009L602.394 33.5238L505.793 30.1507L445.794 20.2591L338.624 14.7187Z" fill="black"/>
<path opacity="0.4" d="M1215.18 83.1838L1179.62 85.4336L1198.13 91.6328H1223.13L1255.61 88.8748L1255.53 87.8622L1223.09 90.6182L1198.21 90.6162L1184.85 86.1208L1215.18 84.1984L1250.01 86.1005L1255.71 84.4404L1255.43 83.4644L1249.89 85.0757L1215.18 83.1838Z" fill="black"/>
<path opacity="0.4" d="M1074.2 64.6842H1072.38L1125.76 96.8677L1182.22 105.957L1226.16 101.405L1193.51 93.6496L1173.33 85.5228L1196.13 81.7363L1236.52 81.7433L1204.82 72.0632L1131.03 64.6865L1074.2 64.6842ZM1076.03 65.7008H1130.98L1204.62 73.0553L1229.72 80.727H1196.05L1169.59 85.1141L1193.21 94.6159L1220.1 101.011L1182.25 104.932L1126.02 95.8802L1076.03 65.7008Z" fill="black"/>
<path opacity="0.4" d="M1091.82 70.7992L1123.59 87.855L1162.99 101.723L1192.28 100.375L1166.96 85.3746L1180.56 79.0513L1204.69 78.1379L1204.73 77.1249L1157.52 72.0458L1091.82 70.7992ZM1163.14 100.698L1124 86.9277L1096.01 71.8952L1157.45 73.0597L1197.66 77.3872L1180.23 78.0867L1164.78 85.2664L1188.84 99.5161L1163.14 100.698Z" fill="black"/>
<path opacity="0.4" d="M1156.14 75.6092L1110.58 77.2256L1154.74 91.6083L1177.06 98.4258L1160.27 85.41L1174.25 78.2775L1156.14 75.6092ZM1116.35 78.0365L1156.08 76.6198L1170.95 78.8183L1158.38 85.2321L1172.06 95.8353L1155.04 90.6383L1116.35 78.0365Z" fill="black"/>
<path opacity="0.4" d="M1153.74 78.6722L1134.04 81.2226L1146.01 84.9772L1154.34 87.207L1158.41 80.7947L1153.74 78.6722ZM1138.76 81.6366L1153.58 79.7175L1156.93 81.2365L1153.88 86.0316L1146.29 84.0014L1138.76 81.6366Z" fill="black"/>
<path opacity="0.4" d="M2190.95 182.485L2169.55 184.245L2153.06 190.057L2153.4 191.017L2169.83 185.225L2190.94 183.497L2208.63 185.231L2232.39 191.031L2232.63 190.043L2208.8 184.23L2190.95 182.485Z" fill="black"/>
<path opacity="0.4" d="M2199.7 187.779L2185.09 187.797L2175.52 190.41L2175.79 191.391L2185.3 188.795H2199.51L2206.23 191.374L2206.6 190.426L2199.7 187.779Z" fill="black"/>
</svg>
