<svg width="2539" height="190" fill="none" xmlns="http://www.w3.org/2000/svg"><path opacity=".4" d="M472.263 39.83L338.759 45.46l-.087.038-36.968 15.839-28.7 15.85-20.442 13.1 34.526-8.322 36.881-17.669 15.049-8.177 79.763-5.197 50.933-3.237 79.496 10.566 74.717 13.781 67.701 2.739 64.042 3.902 69.71-.836 63.187.613 48.902-.95 48.919-3.338 63.372 2.988 54.05 27.592 33.85 15.164-33.49 6.985-40.05 17.166-46.11 9.079-48.692 1.825-56.497 5.235-55.565 7.184-50.246-.004-61.699 5.25-56.111 5.177-37.103 12.254.32.965 37.047-12.236 55.937-5.147 61.652-5.248 50.268.002 55.612-7.186 56.451-5.232 48.746-1.833 46.34-9.129 40.01-17.157 36.45-7.595-36.68-16.435-54.22-27.68-.11-.007-63.543-2.992-48.953 3.338-48.861.948-63.185-.612-69.684.836-64.014-3.902-67.64-2.731-74.671-13.777-79.62-10.574-51.033 3.234-79.988 5.212-15.22 8.271-36.811 17.635-28.506 6.861 15.333-9.827 28.627-15.81 36.837-15.78 133.232-5.628 73.415 9.502 92.77 12.292 102.085 9.407 89.864-.028 76.893 1.822 59.331-9.642 86.182 9.629 74.14 36.196.1.006 86.47 5.418.1-.034 42.17-14.984-.34-.958-42.08 14.948-86.16-5.398-74.11-36.185-.09-.01-86.408-9.653-.068.01-59.306 9.646-76.813-1.828-89.829.03-102.018-9.403-92.751-12.288-73.504-9.508z" fill="#000"/><path opacity=".4" d="M484.656 36.594l-145.869 3.231-.071.023-31.705 10.232-27.52 18.441-35.221 18.744-14.016 16.706 40.608-14.122 40.827-11.731 27.222-12.428 77.812-8.587 78.759 1.482 83.63 15.735 61.621 9.872 86.3 9.737 92.372-3.816 79.997-5.219 90.771-6.086 73.247 17.46 22 10.875 7.82 15.399-33.82 17.517-66.036 7.406-41.152 3.306-40.549-.002-60.531 6.831-57.147 3.646-63.662 2.289-53.85 7.792-29.006 9.595-19.134 3.832-11.013 5.327.444.915 10.952-5.298 19.01-3.795 28.98-9.591 53.707-7.767 63.622-2.283 57.187-3.65 60.497-6.829 40.533.003 41.21-3.308 66.238-7.431 34.88-18.066-8.43-16.6-22.46-11.09-73.452-17.508-.076.005-90.847 6.092-79.984 5.218-92.283 3.818-86.197-9.731-61.584-9.867-83.7-15.742-78.91-1.487-78.04 8.609-.075.034-27.223 12.435-40.784 11.713-37.153 12.919 11.52-13.73 35.092-18.677 27.503-18.428 31.441-10.126 145.643-3.233 141.682 18.832 108.098 10.308 104.044.002 76.023 2.343 54.988-9.204 85.674 6.593 73.96 39.73.11.008 82.1 5.3 44.48-18.576-.39-.939-44.26 18.486-81.75-5.279-73.96-39.728-.11-.008-85.9-6.61-.061.01-54.95 9.207-75.937-2.349H734.429l-108.03-10.304-141.743-18.833z" fill="#000"/><path opacity=".4" d="M473.528 65.73l-59.571 2.623-26.158 6.858-49.145 8.24-68.356 16-48.017 18.934-51.571 12.849-96.007 20.934-.1.088-42.556 37.903.677.761 42.456-37.816 95.761-20.881 51.65-12.872 48.009-18.932 68.255-15.972 49.158-8.243 26.149-6.855 59.294-2.599 32.59 6.01 54.829 11.403 9.18 7.432 38.146 15.677 42.179 7.521 51.655-.161 54.054.987 83.818-2.053 14.036 2.066.122-.044 52.196-19.297 62.604-2.354 26.886 7.762 25.469 6.485 22.06 11.791-27.62 11.16-30.134 4.709-39.524 2.528-37.732.183-47.435 4.759-27.579 2.876-74.857-.002-53.058 2.734-98.093 19.268-34.004 12.9-28.029 8.966.31.967 28.055-8.974 33.946-12.886 97.939-19.235 52.961-2.724 74.883.001 27.63-2.879 47.385-4.758 37.713-.181 39.601-2.533 30.342-4.754 29.7-11.997-24.15-12.889-25.512-6.496-27.028-7.804-.081.003-62.849 2.365-.075.028-52.151 19.279-13.866-2.035-83.883 2.048-54.042-.987-51.576.169-42.033-7.503-37.923-15.598-9.188-7.465-.121-.026-54.961-11.431-32.713-6.032z" fill="#000"/><path opacity=".4" d="M488.389 72.042h-44.711l-66.857 11.146-38.146 4.675-43.145 11.59-55.716 15.014-.087.073-29.661 25.085-78.135 5.109-55.237 10.833-.102.09-39.436 34.499.67.765 39.332-34.409 54.904-10.772 78.405-5.122 29.829-25.229 55.498-14.954 43.075-11.577 38.097-4.664 66.795-11.142 44.497.007 50.525 13.167 50.944 18.25 37.725 14.648-36.312 10.454-22.601 9.129-40.912 9.596-39.125 4.765-39.323 2.391-56.209 4.239-48.417 1.417-5.765-1.702-.097.008-62.083 5.575c-.539.026-36.289.043-60.639.043-12.228 0-21.57-.011-22.128-.044-1.703-.078-82.842 3.05-86.295 3.184l-.216.008-20.002 22.374.758.677 19.715-22.051c29.287-1.139 84.663-3.269 85.98-3.177 1.698.102 79.56.006 82.874.001l62.03-5.568 5.735 1.693.081-.002 48.522-1.42 56.226-4.241 39.346-2.392 39.21-4.778 41.041-9.63 22.625-9.136 39.157-11.27-40.546-15.744-50.999-18.268-50.694-13.213z" fill="#000"/><path opacity=".4" d="M452.049 78.037l-.055.006-49.687 5.142-43.98 8.79-19.671-.011-.076.025-51.867 16.757-36.168 8.882-.109.14-12.945 16.806-72.96 18.972-47.379-.568-.066.018-30.802 8.019-41.706 29.108.583.834L86.79 161.9l30.484-7.903 47.379.567.067-.017 73.364-19.077 13.048-16.94 35.857-8.807 51.827-16.742h19.61l44.031-8.792 49.587-5.13 46.791 5.137 52.39 12.07 25.828 15.116 7.26 11.149-46.452 19.631-58.234 6.133-55.665 2.771-44.896-.001-40.356 2.002-102.948 8.053-135.142-.001-.119.069-49.932 29.275.514.877 49.813-29.204h134.905l102.974-8.055 40.316-1.999h44.895l55.72-2.775 58.411-6.15 47.71-20.162-8.053-12.369-26.245-15.335-52.524-12.095-46.957-5.16z" fill="#000"/><path opacity=".4" d="M455.433 83.179l-.065.007-74.679 8.542-42.117 7.738-51.302 17.538-31.219 7.087 18.264 11.435 64.488 8.799 58.009 2.523 47.595-2.519 40.19-.663 40.836-7.333 43.215-17.113-18.886-8.246-37.686-19.646-.085-.012-56.558-8.137zM338.866 100.44l41.972-7.708 74.579-8.529 56.343 8.107 37.563 19.58 16.681 7.284-40.848 16.186-40.657 7.298-40.127.655-47.564 2.519-57.914-2.519-64.333-8.779-15.889-9.996 28.875-6.557 51.319-17.541z" fill="#000"/><path opacity=".4" d="M422.967 93.635l-.059.01-33.611 5.8-31.523 6.28-19.067 1.16-19.025 3.619-22.73 8.534-10.705 1.686-3.544 7.046 43.795 7.752 12.24 3.07h43.916l28.338 2.037 43.555-1.018 34.026-3.603 48.553-15.632-39.088-15.635-24.366-7.916-50.705-3.19zM286.92 121.648l10.34-1.64 22.696-8.529 18.877-3.588 19.072-1.161 31.578-6.287 33.539-5.786 50.522 3.178 24.148 7.861 36.437 14.577-45.818 14.751-33.829 3.574-43.465 1.016-28.326-2.038-43.89-.001-12.09-3.047-42.487-7.521 2.696-5.359z" fill="#000"/><path opacity=".4" d="M428.96 100.699l-.055.01-35.326 6.575-18.607 9.685-36.214-1.593-18.474 2.196-20.495 6.545 2.025.358c8.41 1.488 21.283 3.88 22.276 4.369 1.445.712 13.978 4.177 14.511 4.324l.131.018 30.691.216 23.274-2.249 27.345 2.756 29.566 1.544 32.379-3.933 26.286-12.241-12.305-8.391-32.519-8.993-34.489-1.196zm-34.979 7.522l35.054-6.502 34.318 1.19 32.261 8.936 10.613 7.265-24.596 11.455-32.057 3.875-29.454-1.545-27.421-2.754-23.321 2.246-30.571-.217c-3.653-1.009-13.146-3.685-14.268-4.238-1.223-.603-15.046-3.117-20.527-4.098l16.487-5.273 18.297-2.172 36.404 1.607.12-.063 18.661-9.712z" fill="#000"/><path opacity=".4" d="M354.111 120.002l-15.255 1.555-18.001 2.669 17.859 3.727 16.048-2.024 7.933.925 9.248-4.173-5.619-2.004-12.213-.675zm-15.117 2.563l15.141-1.55 12.059.673 3.045 1.098-6.705 3.025-7.776-.906-.061.008-15.941 2.01-12.112-2.527 12.35-1.831zM449.621 111.168l-27.842.26-14.91 3.566-13.568 6.717 23.473 4.226 20.368 1.524 20.406.437 15.012-4.252 5.094-5.475-5.97-2.071-22.063-4.932zm-27.663 1.262l27.556-.245 21.892 4.891 4.442 1.544-3.838 4.126-14.593 4.133-20.226-.433-20.289-1.516-20.391-3.673 10.757-5.326 14.69-3.501zM952.62 99.429l-.09.013-38.946 5.746-26.016 10.583-42.875 5.399-73.75.076-72.415-1.276-38.842-2.404-46.581 11.928-32.7 11.887-38.352 12.986-37.749 6.758-43.263 1.311-51.649 1.891-37.843 4.731-32.782-1.898-122.297 9.651-88.051.567-21.114 12.726.524.87 20.875-12.582 87.809-.566 122.266-9.652 32.804 1.895 37.892-4.73 51.602-1.887 43.333-1.318 37.895-6.785 38.438-13.008 32.661-11.877 46.379-11.873 38.705 2.395 72.447 1.277 73.823-.081 43.131-5.444 26.021-10.584 38.68-5.693 58.1 11.977 5.78 7.389-30.031 9.919-40.109 4.496-42.567-4.767-.055.006-29.621 3.165-26.564 6.978-57.003.202-59.732-1.642-54.309 8.009-46.127 8.424-41.796 11.739-41.53 14.005-50.973 6.298-26.749 3.376.127 1.008 26.748-3.375 51.124-6.327 41.552-14.014 41.726-11.721 46.064-8.411 54.204-8 59.659 1.647 57.211-.218 26.551-6.98 29.49-3.147 42.57 4.768.056-.006 40.323-4.531 31.451-10.389-6.89-8.821-58.65-12.09z" fill="#000"/><path opacity=".4" d="M789.346 125.827l-63.538 2.054-55.843 3.019-54.461 10.659-48.298 11.521-55.167 15.1-72.556.11-54.673 6.111-45.919-1.871-42.955.628-60.778 8.703-44.753-.005-48.882 8.182.169 1.003 48.797-8.175 44.741.006 60.787-8.703 42.86-.623 45.969 1.869 54.694-6.111 72.636-.107.066-.018 55.216-15.114 48.262-11.513 54.37-10.646 55.762-3.008 63.51-2.055h58.954l24.941.892-46.743 7.861-58.511-3.346-60.009 3.916-73.857 9.67-57.657 16.313-54.183 11.019-51.992 10.925-62.475-.989-68.913-6.329-161.603 13.257.084 1.015 161.514-13.259 68.864 6.332 62.626.992.056-.012 52.044-10.937 54.217-11.028 57.622-16.307 73.752-9.651 59.914-3.913 58.563 3.354.057-.009 56.674-9.533-34.968-1.248-58.987-.001zM1255.47 106.893l-61.43 12.858-56.48 6.101-61.77 20.959-34.96 12.656-12.66-1.282-74.239 4.325-75.704 8.122-61.129 1.095-67.608 4.382-69.783 13.93.199.996 69.716-13.92 67.517-4.373 61.152-1.096 75.725-8.123 74.134-4.325 12.8 1.304 35.18-12.731 61.7-20.939 56.37-6.079 61.47-12.866-.2-.994z" fill="#000"/><path opacity=".4" d="M1345.79 100.702l-.05.01-35.33 6.575-18.61 9.685-36.21-1.593-36.59 4.63-27.44 5.83-50.48 3.536-.07.027-34.39 13.145 76.54-10.905 72.41 1.547 30.69.216 23.27-2.248 27.35 2.756 29.56 1.543 32.38-3.932 26.29-12.242-12.31-8.391-32.52-8.992-34.49-1.197zm-34.98 7.521l35.06-6.502 34.32 1.191 32.26 8.936 10.61 7.265-24.6 11.454-32.05 3.876-29.46-1.545-27.42-2.754-23.32 2.246-30.63-.218-72.48-1.543-67.65 9.634 25.85-9.885 50.4-3.535 27.47-5.834 36.46-4.618 36.4 1.607.12-.063 18.66-9.712z" fill="#000"/><path opacity=".4" d="M1203.86 135.859l-.05.01-42.84 7.564-47.13 1.656-.1.047-34.61 16.781-40.44 11.965-61.698 4.347-72.625 4.443-78.819-2.882-91.173 10.242.113 1.011 91.097-10.24 78.795 2.885 72.678-4.446 61.862-4.37 40.57-12.01 34.6-16.764 46.98-1.656 42.86-7.564 51.62 1.712.04-1.015-51.73-1.716z" fill="#000"/><path opacity=".4" d="M1233.38 140.856l-.07.012-31.86 4.928-47.46 6.335-50.48 15.147-30.42 11.145-46.36 3.967-66.878 7.642.114 1.011 66.864-7.643 46.55-3.999 30.45-11.159 50.37-15.121 47.4-6.32 31.8-4.919 22.25 2.442.11-1.01-22.38-2.458z" fill="#000"/><path opacity=".4" d="M1231.42 146.474l-.13.03-35.36 8.397-28.67 2.24-50.59 12.875-62.6 20.04.31.967 62.57-20.03 50.47-12.853 28.67-2.238 35.31-8.379 24.03 6.542.27-.981-24.28-6.61z" fill="#000"/><path opacity=".4" d="M1218.31 158.184l-.06.015-34.99 8.153-52.11 9.804-30.87 13.921.41.927 30.82-13.895 51.96-9.762 34.94-8.142 37.14 1.233.03-1.016-37.27-1.238z" fill="#000"/><path opacity=".4" d="M1255.56 167.159l-52.45 1.145-39.72 9.486-17.89 3.323-17.97 9.337.47.902 17.9-9.301 17.7-3.267 39.7-9.478 52.28-1.13-.02-1.017z" fill="#000"/><path opacity=".4" d="M1255.59 172.541l-23.29 5.236-34.33.61-37.02 11.667.31.969 36.95-11.644 34.26-.598 23.34-5.248-.22-.992zM1255.56 176.793l-10.48 3.019-54.61 10.229.19.998 54.65-10.24 10.54-3.03-.29-.976zM338.772.276l-.143.079-107.611 58.78-82.259 63.813-97.887 24.684-.088.075L0 190.149l.65.781 50.696-42.369 97.868-24.679 82.36-63.899L338.972 1.325 501.334 21.52l89.92 4.759 185.176 17.28 127.313 4.126 104.357-3.859 116.62 8.761 130.87-5.87-.05-1.015-130.8 5.87-116.62-8.76-104.379 3.857-127.247-4.123-185.165-17.28-89.906-4.758L338.772.276zM1389.09 39.827L1255.54 45.7l.05 1.016 133.46-5.878 73.42 9.502 92.77 12.292 102.08 9.408 89.86-.028 76.9 1.821 59.33-9.642 86.19 9.63 74.13 36.195.1.006 86.37 5.412 193.55 3.928c40.5 16.546 117.47 48.171 119.5 49.679 2.3 1.833 85.43 14.56 94.91 16.005l.15-1.005c-36.79-5.614-92.31-14.455-94.44-15.805-2.28-1.819-115.02-47.891-119.82-49.851l-.19-.038-193.62-3.929-86.25-5.404-74.11-36.184-.08-.01-86.42-9.654-.07.01-59.3 9.647-76.81-1.828-89.83.03-102.02-9.403-92.75-12.29-73.51-9.506z" fill="#000"/><path opacity=".4" d="M1333.51 56.089l-77.96 8.6.11 1.01 77.9-8.596 78.76 1.482 83.62 15.735 61.63 9.872 86.29 9.738 92.38-3.817 79.99-5.219 90.77-6.086 73.25 17.46 22 10.875 7.82 15.399-33.82 17.517-66.03 7.406-41.16 3.306-40.54-.002-60.54 6.832-57.14 3.645-63.67 2.289-53.84 7.792-29.01 9.595-19.14 3.832-11.01 5.327.45.915 10.95-5.298 19.01-3.795 28.98-9.591 53.7-7.767 63.63-2.283 57.18-3.65 60.5-6.829 40.54.003 41.2-3.308 66.24-7.43.08-.043 34.81-18.024-8.44-16.6-22.46-11.09-73.45-17.508-.08.005-90.84 6.092-79.99 5.218-92.28 3.818-86.2-9.731-61.58-9.867-83.7-15.742-78.91-1.487z" fill="#000"/><path opacity=".4" d="M1386.25 61.62l-61.03 2.098-69.68 9.845.14 1.006 69.63-9.84 60.93-2.094 54.2 3.85 61.34 15.513 45.46 13.7 100.24 6.018 99.9.001 61.23-11.224 93.78-2.637 57.49 12.562 30.1 20.655-28.8 11.897-75.94 10.344-72.6 3.165-61.82 7.326-73.35 4.088-76.74 3.226-70.24 19.955-22.21 8.992.38.942 22.16-8.974 70.07-19.904 76.63-3.222 73.38-4.09 61.82-7.327 72.61-3.166 76.11-10.365.07-.025 30.59-12.639-31.91-21.85-57.71-12.61-.06.003-93.92 2.647-61.21 11.222-99.78-.008-100.14-6.013-45.32-13.67-61.45-15.531-54.35-3.865z" fill="#000"/><path opacity=".4" d="M1390.36 65.73l-59.57 2.622-26.16 6.86-49.15 8.239.17 1.002 49.19-8.249 26.15-6.855 59.3-2.599 32.59 6.01 54.83 11.403 9.18 7.432 38.14 15.677 42.18 7.521 51.66-.161 54.05.987 83.82-2.053 14.03 2.066 52.32-19.34 62.61-2.356 26.88 7.763 25.47 6.485 22.06 11.791-27.62 11.16-30.13 4.709-39.53 2.528-37.73.183-47.43 4.759-27.58 2.876-74.86-.002-53.06 2.734-98.09 19.268-34.01 12.9-28.02 8.966.31.967 28.05-8.974 33.95-12.886 97.94-19.235 52.96-2.724 74.88.001 27.63-2.879 47.39-4.758 37.71-.181 39.6-2.533 30.35-4.754 29.69-11.997-24.15-12.889-25.51-6.496-27.03-7.804-.08.003-62.85 2.365-.07.027-52.16 19.28-13.86-2.035-83.88 2.048-54.05-.987-51.57.169-42.04-7.503-37.92-15.598-9.19-7.465-.12-.025-54.96-11.432-32.71-6.032z" fill="#000"/><path opacity=".4" d="M1405.22 72.043h-44.71l-66.86 11.146-38.14 4.675.12 1.008 38.17-4.677 66.79-11.142 44.5.007 50.53 13.167 50.94 18.25 37.72 14.647-36.31 10.455-22.6 9.129-40.91 9.597-39.12 4.765-39.33 2.391-56.21 4.239-48.41 1.417-5.68-1.675-.28.975 5.82 1.72.08-.001 48.53-1.42 56.22-4.242 39.35-2.392 39.21-4.778 41.04-9.63 22.62-9.136 39.16-11.27-40.55-15.743-50.99-18.269-50.7-13.213z" fill="#000"/><path opacity=".4" d="M1368.88 78.036l-.06.006-49.69 5.142-43.97 8.79-19.6-.01v1.016h19.7l44.03-8.791 49.58-5.13 46.79 5.137 52.39 12.069 25.83 15.117 7.26 11.149-46.45 19.63-58.23 6.134-55.67 2.771-44.89-.001-40.36 2.001.05 1.016 40.33-2.001h44.9l55.71-2.774 58.41-6.15 47.72-20.163-8.06-12.369-26.24-15.334-52.53-12.096-46.95-5.159z" fill="#000"/><path opacity=".4" d="M1372.26 83.179l-.06.007-74.68 8.541-42.04 7.72.18.999 42.01-7.713 74.58-8.53 56.34 8.107 37.56 19.581 16.69 7.283-40.85 16.186-40.66 7.297-40.13.656-47.56 2.519-57.91-2.519-.05 1.016 57.96 2.519 47.6-2.519 40.19-.662 40.84-7.334 43.21-17.114-18.89-8.245-37.68-19.646-.09-.012-56.56-8.137z" fill="#000"/><path opacity=".4" d="M1339.8 93.635l-.06.01-33.61 5.8-31.52 6.28-19.07 1.16.06 1.014 19.14-1.169 31.58-6.286 33.53-5.787 50.53 3.18 24.14 7.859 36.44 14.577-45.82 14.751-33.83 3.574-43.46 1.016-28.33-2.037-43.95-.002v1.017h43.92l28.33 2.037 43.56-1.018 34.02-3.603 48.56-15.632-39.09-15.635-24.37-7.916-50.7-3.19z" fill="#000"/><path opacity=".4" d="M1246.97 119.994l-32.35 5.342 23.81 3.562 17.16-.951-.05-1.015-17.07.946-17.31-2.592 25.8-4.26 8.52 1.563.18-1-8.69-1.595z" fill="#000"/><path opacity=".4" d="M1270.94 120.005l-15.42 1.579.1 1.012 15.35-1.579 12.06.673 3.04 1.098-6.7 3.027-7.78-.907-.06.008-16.03 2.021.13 1.008 15.97-2.014 7.93.926 9.25-4.174-5.62-2.003-12.22-.675zM1366.45 111.168l-27.84.26-14.91 3.566-13.57 6.717 23.48 4.226 20.36 1.524 20.41.437 15.01-4.252 5.1-5.475-5.97-2.071-22.07-4.932zm-27.66 1.262l27.56-.245 21.89 4.891 4.44 1.544-3.84 4.126-14.59 4.133-20.23-.433-20.29-1.516-20.39-3.673 10.76-5.326 14.69-3.501zM1869.45 99.429l-.09.013-38.95 5.747-26.01 10.582-42.88 5.399-73.75.076-72.41-1.276-38.85-2.404-46.58 11.928-32.69 11.887-38.36 12.986-37.75 6.758-43.26 1.312-51.65 1.89-37.84 4.731-32.78-1.898-.06 1.015 32.87 1.894 37.89-4.73 51.61-1.887 43.33-1.317 37.89-6.786 38.44-13.008 32.66-11.877 46.38-11.873 38.71 2.395 72.45 1.277 73.82-.081 43.13-5.444 26.02-10.584 38.68-5.693 58.1 11.977 5.78 7.389-30.03 9.919-40.11 4.496-42.57-4.767-.05.006-29.62 3.165-26.57 6.978-57 .202-59.73-1.642-54.31 8.009-46.13 8.424-41.79 11.739-41.54 14.005-50.97 6.298-26.75 3.376.13 1.008 26.75-3.375 51.12-6.327 41.56-14.014 41.72-11.721 46.06-8.411 54.21-8 59.66 1.647 57.21-.218 26.55-6.98 29.49-3.147 42.57 4.768.06-.006 40.32-4.531 31.45-10.389-6.89-8.821-58.65-12.09z" fill="#000"/><path opacity=".4" d="M1706.18 125.824l-63.54 2.056-55.84 3.017-54.46 10.659-48.3 11.521-55.17 15.101-72.56.11-54.67 6.11-45.92-1.87-.04 1.016 46 1.868 54.69-6.111 72.64-.107.06-.018 55.22-15.114 48.26-11.513 54.37-10.645 55.76-3.009 63.51-2.054h58.96l24.94.891-46.74 7.862-58.52-3.347-60 3.916-73.86 9.67-57.66 16.313-54.18 11.019-51.99 10.926-62.48-.989-68.91-6.33-.09 1.013 68.95 6.332 62.62.992.06-.012 52.04-10.936 54.22-11.027 57.62-16.309 73.75-9.65 59.92-3.913 58.56 3.353.06-.009 56.67-9.532-34.96-1.249-58.99-.001z" fill="#000"/><path opacity=".4" d="M1386.58 46.674l-51.03 3.234-79.88 5.205.07 1.014 79.87-5.205 50.93-3.236 79.5 10.566 74.72 13.781 67.7 2.739 64.04 3.902 69.71-.836 63.19.613 48.9-.95 48.92-3.338 63.37 2.988 54.05 27.592 33.85 15.164-33.48 6.985-40.06 17.166-46.1 9.079-48.7 1.825-56.5 5.235-55.56 7.184-50.25-.004-61.7 5.25-56.11 5.177-37.1 12.254.32.965 37.04-12.236 55.94-5.147 61.65-5.248 50.27.002 55.61-7.187 56.45-5.231 48.75-1.833 46.34-9.129 40.01-17.157 36.45-7.595-36.68-16.435-54.22-27.68-.11-.007-63.54-2.992-48.96 3.338-48.86.948-63.18-.612-69.69.836-64.01-3.902-67.64-2.731-74.67-13.777-79.62-10.574z" fill="#000"/><path opacity=".4" d="M2110.97 119.74l-56.58 6.111-61.77 20.96-34.97 12.656-12.65-1.282-74.24 4.325-75.71 8.122-61.12 1.095-67.61 4.383-69.78 13.929.19.996 69.72-13.92 67.52-4.373 61.15-1.097 75.73-8.122 74.13-4.325 12.8 1.303 35.18-12.73 61.7-20.939 56.37-6.079 60.56.003c59.94 7.462 173.94 21.771 176.84 22.601 3.06 1.572 86.82 37.515 96.47 41.654l21.62 6.016.28-.98-21.56-5.993c-32.68-14.021-94.95-40.792-96.33-41.591-1.13-.757-135.96-17.581-177.26-22.719l-60.68-.004z" fill="#000"/><path opacity=".4" d="M2099.93 130.626l-72.2 10.282-.06.027-36.79 15.989-53.46 10.473-50.84 5.462-64.03 3.25-67.64-.001-52.64 2.255-44.46 5.006-33.58 6.67.2.996 33.54-6.663 44.38-4.996 52.58-2.251h67.64l64.1-3.253 50.9-5.47 53.67-10.523 36.77-15.984 71.98-10.258 72.4 1.122 143.2 9.11 41.52 22.068 65.1 27.07.39-.94-65.06-27.048-41.66-22.15-143.45-9.125-72.5-1.118z" fill="#000"/><path opacity=".4" d="M2172.44 135.295l-51.72.566-42.92 7.572-47.13 1.656-.1.047-34.61 16.781-40.44 11.965-61.7 4.346-72.62 4.444-78.82-2.882-91.18 10.242.12 1.011 91.09-10.24 78.8 2.885 72.68-4.446 61.86-4.37 40.57-12.01 34.6-16.764 46.98-1.656 42.91-7.573 51.59-.56 101.99 8.599 52.52 18.74 71.1 27.364.37-.949-71.12-27.368-52.72-18.795-102.1-8.605z" fill="#000"/><path opacity=".4" d="M2150.24 140.861l-31.96 4.935-47.46 6.335-50.48 15.147-30.42 11.145-46.36 3.967-66.88 7.642.12 1.011 66.86-7.643 46.55-3.999 30.45-11.159 50.38-15.121 47.39-6.32 31.87-4.929 22.08.585 61.96 8.505 63.52 12.706 69.51 27.342.37-.945-69.6-27.369-63.64-12.735-62.03-8.516-22.23-.584z" fill="#000"/><path opacity=".4" d="M2172.45 146.239l-24.32.263-35.37 8.397-28.67 2.241-50.59 12.875-62.6 20.038.31.968 62.57-20.03 50.47-12.853 28.67-2.238 35.39-8.396 24.04-.248c5.83 1.208 54.49 11.275 56.8 11.085 1.74-.122 31.28 3.412 46.72 5.322l59.32 27.696.43-.921-59.46-27.763-.08-.011c-1.83-.225-44.66-5.538-47.01-5.335l-.06.001c-2.21 0-34.87-6.599-56.51-11.08l-.05-.011z" fill="#000"/><path opacity=".4" d="M2172.45 157.333l-37.37.866-34.99 8.153-52.11 9.805-30.87 13.92.42.927 30.81-13.895 51.96-9.762 34.96-8.146 37.15-.854 74.8 8.114 34.67 8.206 29.06 16.317.5-.887-29.26-16.403-34.8-8.232-74.93-8.129z" fill="#000"/><path opacity=".4" d="M2172.4 162.979l-.06.005-52.33 5.309-39.78 9.497-17.9 3.323-17.97 9.337.47.902 17.9-9.301 17.71-3.267 39.74-9.491 52.21-5.292 46.07 5.329 50.18 9.704 19.97 12.299.53-.865-20.22-12.415-50.31-9.726-46.21-5.348z" fill="#000"/><path opacity=".4" d="M2172.34 171.719l-23.22 6.058-34.32.61-37.01 11.667.3.969 36.95-11.644 34.28-.603 23.13-6.036 63.73 1.953 36.98 16.31.41-.93-37.16-16.391-.1-.003-63.97-1.96z" fill="#000"/><path opacity=".4" d="M2217.09 178.042h-43.35l-11.76 1.753-54.68 10.243.19.998 54.66-10.24 11.66-1.742 43.11.005 35.48 12.32.33-.961-35.64-12.376zM937.531 109.3l-35.636 12.289 23.622 5.255h20.516l21.788-.997 14.041-3.909 6.075-6.037-26.974-3.61-23.432-2.991zm-31.908 12.079l32.015-11.04 23.193 2.96 24.926 3.336-4.423 4.395-13.729 3.823-21.595.975-20.438-.001-19.949-4.448z" fill="#000"/><path opacity=".4" d="M338.617 21.397l-.129.072-45.059 25.263-45.697 28.538-48.084 37.173 37.643-5.266 38.678-13.274 57.447-17.716 5.504-1.634 69.558-9.823 60.927-2.095 54.2 3.85 61.342 15.513 45.466 13.7 100.232 6.018 99.903.001 61.23-11.224 93.78-2.637 57.492 12.562 30.09 20.655-28.79 11.897-75.938 10.344-72.607 3.165-61.819 7.326-73.345 4.087-76.745 3.227-70.238 19.955-22.211 8.992.381.942 22.16-8.974 70.071-19.904 76.631-3.222 73.383-4.09 61.813-7.327 72.616-3.166 76.108-10.365 30.66-12.664-31.91-21.85-57.708-12.61-.06.003-93.92 2.647-61.215 11.222-99.781-.008-100.143-6.013-45.315-13.67-61.452-15.531-54.343-3.865-61.034 2.097-69.685 9.845-5.583 1.65-57.467 17.724-38.598 13.257-33.758 4.712 45.015-34.803 45.633-28.497 44.908-25.177 108.813 6.469 64.765 4.934L635.48 48.495l109.825 9.624 158.451 1.624 100.154-5.333L1124 61.62l131.56 12.951.1-1.011-131.58-12.954-120.17-7.212-100.176 5.334-158.381-1.624-109.767-9.621-123.055-14.662-64.795-4.938-109.119-6.486z" fill="#000"/><path opacity=".4" d="M338.762 5.174L290.87 32.756l-65.827 39.36-72.023 51.399-98.796 27.255-32.728 39.445.783.648 32.523-39.198 98.663-27.217.072-.053 72.062-51.43 65.786-39.331L338.982 6.22l171.294 18.273L611.167 30.6l83.59 12.934 82.04 2.238 92.198 6.09 48.338-.853 79.847-4.79 130.22 9.734 66.37.174h61.93V55.11h-61.92l-66.34-.172-130.253-9.733-79.894 4.788-48.273.853-92.175-6.09-81.996-2.232-83.573-12.933-100.916-6.11L338.762 5.174z" fill="#000"/><path opacity=".4" d="M338.624 14.719l-.119.06-85.627 42.93-51.128 35.298-38.545 34.923-64.281 16.821-39.005 9.698-.101.106-34.045 35.634.736.702 33.942-35.528 38.725-9.627 64.527-16.886.092-.083 38.585-34.965 51.013-35.22 85.446-42.834 106.847 5.52 60.007 9.893 96.608 3.373 113.968 17.277 64.743 3.078 118.668 2.218 91.428-6.36 143.622 8.686 101.98 3.205 18.81 3.06.17-1.005-18.88-3.064-102.03-3.212-143.676-8.684-91.45 6.358-118.609-2.219-64.675-3.071-113.976-17.277-96.601-3.373-59.999-9.892-107.17-5.54zM1215.18 83.184l-35.56 2.25 18.51 6.199h25l32.48-2.758-.08-1.013-32.44 2.756-24.88-.002-13.36-4.495 30.33-1.923 34.83 1.903 5.7-1.66-.28-.977-5.54 1.612-34.71-1.892z" fill="#000"/><path opacity=".4" d="M1074.2 64.684h-1.82l53.38 32.184 56.46 9.089 43.94-4.552-32.65-7.755-20.18-8.127 22.8-3.787 40.39.007-31.7-9.68-73.79-7.377-56.83-.002zm1.83 1.017h54.95l73.64 7.354 25.1 7.672h-33.67l-26.46 4.387 23.62 9.502 26.89 6.395-37.85 3.921-56.23-9.052-49.99-30.18z" fill="#000"/><path opacity=".4" d="M1091.82 70.8l31.77 17.055 39.4 13.868 29.29-1.348-25.32-15 13.6-6.324 24.13-.913.04-1.013-47.21-5.08-65.7-1.246zm71.32 29.898L1124 86.928l-27.99-15.033 61.44 1.165 40.21 4.327-17.43.7-15.45 7.18 24.06 14.25-25.7 1.181z" fill="#000"/><path opacity=".4" d="M1156.14 75.61l-45.56 1.616 44.16 14.382 22.32 6.818-16.79-13.016 13.98-7.132-18.11-2.669zm-39.79 2.427l39.73-1.417 14.87 2.198-12.57 6.414 13.68 10.603-17.02-5.197-38.69-12.602z" fill="#000"/><path opacity=".4" d="M1153.74 78.672l-19.7 2.55 11.97 3.755 8.33 2.23 4.07-6.412-4.67-2.123zm-14.98 2.965l14.82-1.92 3.35 1.52-3.05 4.795-7.59-2.03-7.53-2.365zM2190.95 182.485l-21.4 1.76-16.49 5.812.34.96 16.43-5.792 21.11-1.728 17.69 1.734 23.76 5.8.24-.988-23.83-5.813-17.85-1.745z" fill="#000"/><path opacity=".4" d="M2199.7 187.779l-14.61.018-9.57 2.613.27.981 9.51-2.596h14.21l6.72 2.579.37-.948-6.9-2.647z" fill="#000"/></svg>