<svg width="3061" height="979" viewBox="0 0 3061 979" fill="none" xmlns="http://www.w3.org/2000/svg">
<path d="M100.023 427.598L81 543.231L0 978.518H3060.69V489.028L2973.97 651.636L2936.63 510.709L2759.56 687.771L2652.36 489.028L2572.87 454.097L2475.3 687.771L2452.42 543.231L2405.44 510.709L2357.26 658.863H2310.28L2240.42 434.825H2207.9L2150.09 589.002H2074.2L2005.55 481.801L1905.57 567.321L1885.1 130.086L1753.8 -2.72157e-06L1676.72 99.9737L1630.95 543.231L1526.15 567.321L1449.07 333.647L1337.05 481.801L1296.09 419.167L1244.3 501.073L1185.28 514.323L1173.23 369.782H1125.05L1087.71 501.073H1034.72L984.127 405.917L879.336 501.073L804.657 454.097L768.521 490.233L725.159 208.379L643.253 -2.72157e-06L574.597 179.471L533.643 490.233L484.259 514.323L437.283 490.233L397.535 521.55L343.332 490.233L315.628 521.55L267.448 531.186L275.88 462.529V405.917L210.837 419.167L216.859 490.233L190.36 521.55L155.43 427.598H100.023Z" fill="#2E5A9C"/>
</svg>
