<svg width="47" height="58" viewBox="0 0 47 58" fill="none" xmlns="http://www.w3.org/2000/svg">
<path fill-rule="evenodd" clip-rule="evenodd" d="M32.3068 26.5168C35.5542 24.1628 37.6664 20.3386 37.6664 16.0211C37.6664 8.86648 31.8665 3.06653 24.7119 3.06653C17.5573 3.06653 11.7573 8.86648 11.7573 16.0211C11.7573 20.3694 13.8997 24.2174 17.1866 26.567C5.38226 27.1597 2.85408 47.2431 3.07987 57.3597H46.7413C46.7413 31.484 37.3067 26.0346 32.3068 26.5168Z" fill="#A75155"/>
<path fill-rule="evenodd" clip-rule="evenodd" d="M29.2404 23.4503C32.4878 21.0963 34.6 17.2721 34.6 12.9545C34.6 5.79995 28.8001 0 21.6455 0C14.4909 0 8.69091 5.79995 8.69091 12.9545C8.69091 17.3029 10.8333 21.1509 14.1202 23.5005C2.31585 24.0932 -0.212328 44.1765 0.0134648 54.2932H43.6748C43.6748 28.4175 34.2403 22.9681 29.2404 23.4503Z" fill="#F87980"/>
</svg>
