<svg width="3061" height="1024" fill="none" xmlns="http://www.w3.org/2000/svg"><path d="M100.023 472.598L81 588.231 0 1023.52h3060.69V534.028l-86.72 162.608-37.34-140.927-177.07 177.062-107.2-198.743-79.49-34.931-97.57 233.674-22.88-144.54-46.98-32.522-48.18 148.154h-46.98l-69.86-224.038h-32.52l-57.81 154.177h-75.89l-68.65-107.201-99.98 85.52-20.47-437.235L1753.8 45l-77.08 99.974-45.77 443.257-104.8 24.09-77.08-233.674-112.02 148.154-40.96-62.634-51.79 81.906-59.02 13.25-12.05-144.541h-48.18l-37.34 131.291h-52.99l-50.593-95.156-104.791 95.156-74.679-46.976-36.136 36.136-43.362-281.854L643.253 45l-68.656 179.471-40.954 310.762-49.384 24.09-46.976-24.09-39.748 31.317-54.203-31.317-27.704 31.317-48.18 9.636 8.432-68.657v-56.612l-65.043 13.25 6.022 71.066-26.499 31.317-34.93-93.952h-55.407z" fill="#2E5A9C"/><path d="M.605 1026.27L.616-.053 175.548 1026.27H.605z" fill="#2E5A9C"/></svg>