<svg width="364" height="523" viewBox="0 0 364 523" fill="none" xmlns="http://www.w3.org/2000/svg">
<path d="M0 89.8436L70.3867 0H235.796H322.773L364 115.441V350.842L330.315 523H62.8453L7.03867 443.697L0 89.8436Z" fill="#3F7AD3"/>
<mask id="mask0" mask-type="alpha" maskUnits="userSpaceOnUse" x="0" y="0" width="364" height="523">
<path d="M0 89.8436L70.3867 0H235.796H322.773L364 115.441V350.842L330.315 523H62.8453L7.03867 443.697L0 89.8436Z" fill="#3F7AD3"/>
</mask>
<g mask="url(#mask0)">
<mask id="path-3-outside-1" maskUnits="userSpaceOnUse" x="64.9885" y="132.099" width="261" height="486" fill="black">
<rect fill="white" x="64.9885" y="132.099" width="261" height="486"/>
<path fill-rule="evenodd" clip-rule="evenodd" d="M207.317 144.483C203.098 142.252 181.033 139.552 174.214 146.905C172.997 148.218 171.775 149.186 170.588 149.882L170.124 150.171C166.061 152.319 162.463 151.353 160.859 150.315C160.012 149.669 157.894 148.857 154.616 148.995V149.214L154.616 149.214V148.994C152.782 149.071 150.585 149.446 148.044 150.314C121.04 159.058 112.405 176.709 111.463 184.442C110.769 189.034 107.796 200.218 101.452 208.209C95.1085 216.2 97.5531 232.158 99.5684 239.139C100.642 242.088 103.542 251.195 106.556 264.023C109.187 275.22 123.125 282.625 132.313 285.871C133.943 289.231 135.871 292.838 138.166 296.772C143.232 305.457 149.521 309.948 155.174 312.054C157.885 318.256 160.666 328.154 158.571 337.336C156.352 339.623 152.665 343.113 149.513 345.094L149.512 345.094C147.446 346.416 142.538 349.379 139.436 350.658L139.436 350.659C134.434 353.134 122.648 361.011 115.516 372.717C114.254 374.787 112.886 376.853 111.487 378.965L111.486 378.966L111.486 378.966C104.108 390.103 95.8604 402.551 97.8286 423.936C97.5137 424.362 97.2083 424.772 96.9154 425.161L96.7933 425.155C96.5622 425.458 96.3408 425.746 96.1307 426.017C95.1672 427.312 94.064 428.992 92.8778 431.035L92.9017 431.034C85.8814 442.895 75.6236 468.223 75.0135 502.329C74.3125 541.513 88.5654 563.357 95.7795 569.381L100.976 568.847C101.24 571.646 101.427 573.945 101.544 575.645L105.726 569.361C118.069 575.089 122.503 573.008 122.828 566.605L129.17 565.954C129.13 566.824 129.089 567.669 129.05 568.488C128.787 574.004 128.582 578.315 128.75 580.771L132.933 574.487C147.322 581.165 151.798 575.211 151.766 563.635L162.192 562.565C162.108 565.525 162.066 567.866 162.135 569.38L164.501 564.023C170.566 568.264 173.518 566.529 174.622 561.29L194.995 559.199C192.089 577.767 194.063 590.385 212.742 581.716L216.924 588C217.093 585.545 216.887 581.234 216.624 575.717C216.371 570.414 216.065 563.997 215.987 557.045L236.87 554.902C237.012 553.081 237.158 551.101 237.305 548.987C268.456 541.638 321.277 526.941 315.027 519.174C306.813 508.966 302.344 464.915 311.544 435.803C318.904 412.514 308.477 392.585 302.344 385.531C299.934 382.793 294.222 374.329 290.647 362.377C287.072 350.426 273.064 340.02 266.507 336.31L266.507 336.31C262.477 334.19 251.072 328.695 245.873 326.212L245.873 326.212C243.384 325.494 240.616 324.701 239.542 324.394L239.541 324.394L239.542 324.394C234.653 321.992 214.8 311.514 219.46 285.452C229.793 290.061 251.829 293.035 260.046 284.966C269.837 275.349 273.057 261.571 268.172 246.675C263.288 231.78 265.149 227.815 270.056 218.024C277.968 202.49 262.557 189.693 251.811 184.066C250.86 183.568 249.945 183.125 249.086 182.741C247.165 181.976 244.565 180.814 241.875 179.405C236.382 176.525 230.523 172.62 229.313 168.978C224.212 155.019 213.417 148.288 208.867 145.45L208.866 145.45C208.376 145.144 207.957 144.883 207.627 144.664C207.537 144.604 207.434 144.544 207.317 144.483Z"/>
</mask>
<path d="M174.214 146.905L166.882 140.105L166.882 140.105L174.214 146.905ZM207.317 144.483L202.642 153.323L202.675 153.34L202.708 153.358L207.317 144.483ZM170.588 149.882L165.53 141.255L165.408 141.327L165.288 141.402L170.588 149.882ZM170.124 150.171L174.797 159.013L175.117 158.843L175.425 158.651L170.124 150.171ZM160.859 150.315L154.796 158.267L155.103 158.501L155.426 158.71L160.859 150.315ZM154.616 148.995L154.195 139.004L144.616 139.408V148.995H154.616ZM154.616 149.214L155.059 159.204L164.616 158.78V149.214H154.616ZM154.616 149.214H144.616V159.667L155.059 159.204L154.616 149.214ZM154.616 148.994H164.616V138.564L154.195 139.003L154.616 148.994ZM148.044 150.314L151.125 159.827L151.201 159.803L151.277 159.777L148.044 150.314ZM111.463 184.442L121.351 185.935L121.372 185.793L121.389 185.651L111.463 184.442ZM101.452 208.209L109.284 214.426L109.284 214.426L101.452 208.209ZM99.5684 239.139L89.9608 241.912L90.055 242.239L90.1712 242.558L99.5684 239.139ZM106.556 264.023L96.8213 266.31L96.8213 266.31L106.556 264.023ZM132.313 285.871L141.31 281.505L139.517 277.81L135.644 276.442L132.313 285.871ZM138.166 296.772L129.528 301.81L129.528 301.81L138.166 296.772ZM155.174 312.054L164.336 308.048L162.638 304.163L158.665 302.683L155.174 312.054ZM158.571 337.336L165.75 344.297L167.698 342.289L168.32 339.56L158.571 337.336ZM149.513 345.094L147.343 354.856L151.354 355.747L154.834 353.561L149.513 345.094ZM149.512 345.094L151.682 335.332L147.625 334.431L144.124 336.67L149.512 345.094ZM139.436 350.658L135.623 341.413L129.657 343.874L129.442 350.325L139.436 350.658ZM139.436 350.659L143.872 359.621L149.231 356.969L149.431 350.992L139.436 350.659ZM115.516 372.717L124.055 377.92L124.056 377.92L115.516 372.717ZM111.487 378.965L103.15 373.442L103.126 373.479L103.102 373.515L111.487 378.965ZM111.486 378.966L119.678 384.701L119.777 384.56L119.871 384.416L111.486 378.966ZM111.486 378.966L103.293 373.232L103.22 373.337L103.149 373.443L111.486 378.966ZM97.8286 423.936L105.873 429.876L108.136 426.812L107.787 423.019L97.8286 423.936ZM96.9154 425.161L96.4287 435.149L101.717 435.406L104.902 431.178L96.9154 425.161ZM96.7933 425.155L97.28 415.166L92.0246 414.91L88.8371 419.097L96.7933 425.155ZM96.1307 426.017L88.2264 419.892L88.1663 419.969L88.1077 420.048L96.1307 426.017ZM92.8778 431.035L84.2296 426.014L75.1105 441.721L93.2594 441.028L92.8778 431.035ZM92.9017 431.034L101.507 436.128L110.851 420.341L92.52 421.041L92.9017 431.034ZM75.0135 502.329L85.0119 502.508L75.0135 502.329ZM95.7795 569.381L89.37 577.057L92.6062 579.759L96.8003 579.328L95.7795 569.381ZM100.976 568.847L110.932 567.91L109.987 557.87L99.9553 558.9L100.976 568.847ZM101.544 575.645L91.5676 576.33L93.5831 605.654L109.869 581.185L101.544 575.645ZM105.726 569.361L109.936 560.29L102.155 556.678L97.4018 563.82L105.726 569.361ZM122.828 566.605L121.808 556.657L113.277 557.533L112.841 566.097L122.828 566.605ZM129.17 565.954L139.159 566.42L139.7 554.821L128.149 556.006L129.17 565.954ZM129.05 568.488L119.062 568.011L119.062 568.011L129.05 568.488ZM128.75 580.771L118.774 581.456L120.79 610.78L137.075 586.311L128.75 580.771ZM132.933 574.487L137.143 565.416L129.361 561.804L124.608 568.946L132.933 574.487ZM151.766 563.635L150.745 553.687L141.741 554.611L141.766 563.663L151.766 563.635ZM162.192 562.565L172.188 562.851L172.515 551.453L161.171 552.617L162.192 562.565ZM162.135 569.38L152.145 569.836L171.282 573.421L162.135 569.38ZM164.501 564.023L170.232 555.828L160.267 548.859L155.354 559.982L164.501 564.023ZM174.622 561.29L173.601 551.342L166.342 552.087L164.837 559.227L174.622 561.29ZM194.995 559.199L204.875 560.745L206.881 547.927L193.974 549.251L194.995 559.199ZM212.742 581.716L221.066 576.175L216.313 569.034L208.532 572.646L212.742 581.716ZM216.924 588L208.599 593.541L224.885 618.01L226.9 588.686L216.924 588ZM216.624 575.717L206.635 576.194L206.635 576.194L216.624 575.717ZM215.987 557.045L214.966 547.097L205.886 548.029L205.988 557.156L215.987 557.045ZM236.87 554.902L237.891 564.849L246.19 563.998L246.84 555.68L236.87 554.902ZM237.305 548.987L235.009 539.254L227.841 540.945L227.33 548.293L237.305 548.987ZM315.027 519.174L307.236 525.443L307.236 525.443L315.027 519.174ZM311.544 435.803L321.079 438.817L321.079 438.817L311.544 435.803ZM302.344 385.531L309.89 378.969L309.871 378.947L309.851 378.925L302.344 385.531ZM266.507 336.31L256.806 333.885L254.96 341.268L261.584 345.014L266.507 336.31ZM266.507 336.31L276.209 338.736L278.113 331.117L271.163 327.46L266.507 336.31ZM245.873 326.212L250.182 317.188L241.32 312.956L236.929 321.74L245.873 326.212ZM245.873 326.212L243.099 335.82L251.095 338.128L254.817 330.684L245.873 326.212ZM239.542 324.394L242.289 314.779L240.185 314.178L238.022 314.51L239.542 324.394ZM239.541 324.394L234.114 315.995L241.062 334.278L239.541 324.394ZM239.542 324.394L244.969 332.793L259.806 323.206L243.951 315.418L239.542 324.394ZM219.46 285.452L223.533 276.319L211.865 271.115L209.616 283.692L219.46 285.452ZM260.046 284.966L267.053 292.1L267.053 292.1L260.046 284.966ZM270.056 218.024L261.145 213.485L261.131 213.514L261.116 213.544L270.056 218.024ZM251.811 184.066L247.167 192.923L247.173 192.926L251.811 184.066ZM249.086 182.741L253.163 173.61L252.976 173.527L252.786 173.451L249.086 182.741ZM241.875 179.405L237.232 188.261L237.235 188.263L241.875 179.405ZM229.313 168.978L238.803 165.825L238.756 165.685L238.705 165.546L229.313 168.978ZM208.867 145.45L203.403 153.826L203.489 153.882L203.575 153.936L208.867 145.45ZM208.866 145.45L214.33 137.075L214.244 137.019L214.158 136.965L208.866 145.45ZM207.627 144.664L202.092 152.992L202.092 152.992L207.627 144.664ZM181.547 153.704C181.324 153.944 181.772 153.373 184.014 152.832C186.073 152.335 188.742 152.085 191.69 152.1C194.595 152.114 197.44 152.384 199.712 152.756C202.407 153.196 203.151 153.593 202.642 153.323L211.993 135.644C209.374 134.259 205.778 133.481 202.936 133.017C199.672 132.484 195.783 132.12 191.791 132.1C187.844 132.08 183.454 132.394 179.326 133.389C175.381 134.34 170.514 136.189 166.882 140.105L181.547 153.704ZM175.645 158.509C177.749 157.275 179.724 155.67 181.547 153.704L166.882 140.105C166.269 140.766 165.801 141.096 165.53 141.255L175.645 158.509ZM175.425 158.651L175.888 158.362L165.288 141.402L164.824 141.691L175.425 158.651ZM155.426 158.71C159.809 161.547 167.268 162.991 174.797 159.013L165.452 141.33C165.259 141.432 165.155 141.454 165.142 141.457C165.124 141.461 165.148 141.454 165.207 141.458C165.259 141.461 165.353 141.473 165.494 141.519C165.614 141.558 165.893 141.661 166.293 141.92L155.426 158.71ZM155.037 158.987C155.769 158.956 156.139 159.041 156.179 159.051C156.201 159.057 156.104 159.035 155.909 158.948C155.81 158.903 155.668 158.834 155.491 158.733C155.32 158.634 155.079 158.483 154.796 158.267L166.923 142.363C163.645 139.864 158.967 138.803 154.195 139.004L155.037 158.987ZM164.616 149.214V148.995H144.616V149.214H164.616ZM155.059 159.204L155.059 159.204L154.174 139.224L154.173 139.224L155.059 159.204ZM144.616 148.994V149.214H164.616V148.994H144.616ZM151.277 159.777C152.979 159.195 154.23 159.019 155.037 158.985L154.195 139.003C151.334 139.123 148.191 139.696 144.812 140.85L151.277 159.777ZM121.389 185.651C121.807 182.219 127.387 167.514 151.125 159.827L144.964 140.8C114.692 150.602 103.002 171.199 101.536 183.232L121.389 185.651ZM109.284 214.426C117.135 204.536 120.521 191.432 121.351 185.935L101.575 182.948C101.018 186.637 98.4565 195.899 93.6202 201.991L109.284 214.426ZM109.176 236.365C108.375 233.589 107.433 228.753 107.375 223.933C107.313 218.721 108.31 215.654 109.284 214.426L93.6202 201.991C88.2509 208.755 87.2986 217.663 87.3764 224.172C87.459 231.074 88.7469 237.708 89.9608 241.912L109.176 236.365ZM116.291 261.735C113.209 248.617 110.203 239.12 108.966 235.719L90.1712 242.558C91.0805 245.057 93.8753 253.773 96.8213 266.31L116.291 261.735ZM135.644 276.442C131.681 275.042 126.855 272.787 122.908 269.878C118.815 266.862 116.827 264.015 116.291 261.735L96.8213 266.31C98.9167 275.228 105.213 281.682 111.043 285.979C117.02 290.383 123.757 293.454 128.982 295.3L135.644 276.442ZM146.803 291.733C144.621 287.991 142.816 284.609 141.31 281.505L123.316 290.236C125.071 293.853 127.121 297.685 129.528 301.81L146.803 291.733ZM158.665 302.683C155.23 301.403 150.735 298.473 146.803 291.733L129.528 301.81C135.729 312.44 143.811 318.492 151.682 321.425L158.665 302.683ZM168.32 339.56C171.111 327.332 167.401 315.059 164.336 308.048L146.011 316.059C148.369 321.453 150.222 328.976 148.822 335.111L168.32 339.56ZM154.834 353.561C159.058 350.906 163.437 346.682 165.75 344.297L151.392 330.374C149.268 332.565 146.272 335.32 144.192 336.627L154.834 353.561ZM147.343 354.856L147.343 354.856L151.682 335.332L151.682 335.332L147.343 354.856ZM143.249 359.903C147.264 358.247 152.842 354.835 154.9 353.519L144.124 336.67C143.225 337.245 141.629 338.227 139.917 339.201C138.119 340.224 136.566 341.025 135.623 341.413L143.249 359.903ZM149.431 350.992L149.431 350.991L129.442 350.325L129.442 350.326L149.431 350.992ZM124.056 377.92C129.91 368.311 139.979 361.548 143.872 359.621L135.001 341.696C128.889 344.721 115.386 353.711 106.976 367.514L124.056 377.92ZM119.823 384.488C121.203 382.405 122.678 380.18 124.055 377.92L106.976 367.514C105.83 369.394 104.569 371.3 103.15 373.442L119.823 384.488ZM119.871 384.416L119.871 384.415L103.102 373.515L103.102 373.516L119.871 384.416ZM119.678 384.701L119.678 384.701L103.294 373.231L103.293 373.232L119.678 384.701ZM107.787 423.019C106.154 405.28 112.631 395.343 119.822 384.489L103.149 373.443C95.5842 384.862 85.5669 399.823 87.8707 424.853L107.787 423.019ZM104.902 431.178C105.215 430.763 105.539 430.328 105.873 429.876L89.7843 417.996C89.4882 418.396 89.2019 418.78 88.9283 419.143L104.902 431.178ZM96.3066 435.143L96.4287 435.149L97.4021 415.172L97.28 415.166L96.3066 435.143ZM104.035 432.143C104.264 431.848 104.502 431.537 104.749 431.213L88.8371 419.097C88.6222 419.379 88.4181 419.645 88.2264 419.892L104.035 432.143ZM101.526 436.056C102.565 434.266 103.463 432.915 104.154 431.987L88.1077 420.048C86.8718 421.709 85.5628 423.718 84.2296 426.014L101.526 436.056ZM92.52 421.041L92.4961 421.042L93.2594 441.028L93.2834 441.027L92.52 421.041ZM85.0119 502.508C85.5892 470.232 95.3169 446.586 101.507 436.128L84.2961 425.941C76.4458 439.204 65.6579 466.214 65.0151 502.151L85.0119 502.508ZM102.189 561.705C97.8694 558.098 84.3502 539.497 85.0119 502.508L65.0151 502.151C64.2748 543.529 79.2614 568.616 89.37 577.057L102.189 561.705ZM99.9553 558.9L94.7586 559.433L96.8003 579.328L101.997 578.795L99.9553 558.9ZM111.521 574.959C111.397 573.155 111.201 570.77 110.932 567.91L91.0202 569.785C91.2779 572.523 91.458 574.735 91.5676 576.33L111.521 574.959ZM97.4018 563.82L93.2194 570.104L109.869 581.185L114.051 574.901L97.4018 563.82ZM112.841 566.097C112.81 566.72 112.712 566.104 113.372 565.09C113.733 564.535 114.251 563.975 114.918 563.523C115.576 563.077 116.184 562.867 116.592 562.775C117.283 562.62 117.22 562.837 115.863 562.516C114.584 562.213 112.658 561.553 109.936 560.29L101.517 578.431C104.966 580.032 108.223 581.26 111.256 581.978C114.212 582.678 117.592 583.048 120.975 582.289C124.698 581.453 127.968 579.33 130.137 575.995C132.105 572.969 132.684 569.691 132.816 567.113L112.841 566.097ZM128.149 556.006L121.808 556.657L123.849 576.553L130.191 575.902L128.149 556.006ZM139.039 568.964C139.078 568.146 139.119 567.296 139.159 566.42L119.181 565.488C119.141 566.352 119.101 567.192 119.062 568.011L139.039 568.964ZM138.727 580.085C138.609 578.37 138.759 574.831 139.039 568.964L119.062 568.011C118.815 573.177 118.554 578.261 118.774 581.456L138.727 580.085ZM124.608 568.946L120.426 575.23L137.075 586.311L141.258 580.027L124.608 568.946ZM141.766 563.663C141.773 566.013 141.536 567.453 141.302 568.215C141.082 568.929 141.075 568.396 141.909 567.795C142.828 567.132 143.451 567.326 142.767 567.27C141.933 567.201 140.153 566.813 137.143 565.416L128.723 583.557C136.359 587.101 145.889 589.581 153.606 584.018C157.353 581.316 159.358 577.541 160.419 574.092C161.465 570.69 161.775 567.045 161.766 563.608L141.766 563.663ZM161.171 552.617L150.745 553.687L152.787 573.583L163.213 572.513L161.171 552.617ZM172.125 568.924C172.075 567.848 172.101 565.888 172.188 562.851L152.196 562.279C152.114 565.161 152.056 567.884 152.145 569.836L172.125 568.924ZM155.354 559.982L152.988 565.339L171.282 573.421L173.649 568.064L155.354 559.982ZM164.837 559.227C164.702 559.87 164.642 559.707 164.976 559.179C165.387 558.529 166.397 557.361 168.188 556.749C169.898 556.164 171.167 556.484 171.419 556.562C171.615 556.622 171.249 556.539 170.232 555.828L158.771 572.218C162.201 574.617 168.13 577.904 174.656 575.674C181.619 573.294 183.706 566.678 184.407 563.352L164.837 559.227ZM193.974 549.251L173.601 551.342L175.643 571.237L196.016 569.147L193.974 549.251ZM208.532 572.646C206.622 573.532 205.174 574.029 204.124 574.285C203.609 574.411 203.228 574.469 202.968 574.494C202.708 574.519 202.592 574.508 202.594 574.508C202.645 574.513 203.092 574.577 203.648 574.943C204.194 575.302 204.446 575.69 204.494 575.777C204.516 575.815 204.364 575.552 204.21 574.787C204.057 574.034 203.94 572.983 203.914 571.583C203.861 568.748 204.19 565.119 204.875 560.745L185.116 557.652C184.347 562.563 183.834 567.474 183.917 571.956C183.997 576.249 184.63 581.248 187.054 585.566C189.849 590.547 194.627 593.861 200.766 594.424C206.105 594.915 211.641 593.251 216.951 590.787L208.532 572.646ZM225.249 582.459L221.066 576.175L204.417 587.257L208.599 593.541L225.249 582.459ZM206.635 576.194C206.915 582.061 207.065 585.6 206.948 587.314L226.9 588.686C227.12 585.49 226.859 580.406 226.613 575.241L206.635 576.194ZM205.988 557.156C206.068 564.315 206.383 570.902 206.635 576.194L226.613 575.241C226.359 569.926 226.062 563.679 225.987 556.933L205.988 557.156ZM235.849 544.954L214.966 547.097L217.008 566.992L237.891 564.849L235.849 544.954ZM227.33 548.293C227.184 550.38 227.04 552.332 226.9 554.123L246.84 555.68C246.984 553.829 247.132 551.821 247.281 549.682L227.33 548.293ZM307.236 525.443C306.18 524.131 305.348 522.104 305.572 519.758C305.764 517.74 306.645 516.527 306.883 516.222C307.235 515.773 306.998 516.226 304.969 517.376C301.267 519.475 295.02 522.026 286.964 524.772C271.089 530.185 250.453 535.611 235.009 539.254L239.602 558.72C255.308 555.015 276.658 549.417 293.419 543.702C301.681 540.885 309.414 537.846 314.832 534.775C317.362 533.34 320.471 531.313 322.636 528.545C323.781 527.081 325.186 524.748 325.481 521.658C325.807 518.24 324.655 515.188 322.818 512.905L307.236 525.443ZM302.009 432.79C296.915 448.91 295.734 468.531 296.775 485.2C297.299 493.605 298.406 501.559 299.994 508.246C301.485 514.519 303.704 521.054 307.236 525.443L322.818 512.905C322.242 512.19 320.823 509.391 319.453 503.623C318.181 498.27 317.205 491.478 316.736 483.955C315.788 468.769 316.973 451.809 321.079 438.817L302.009 432.79ZM294.798 392.093C299.367 397.347 308.027 413.748 302.009 432.79L321.079 438.817C329.782 411.279 317.588 387.822 309.89 378.969L294.798 392.093ZM281.066 365.243C285.043 378.539 291.449 388.288 294.837 392.137L309.851 378.925C308.42 377.298 303.4 370.118 300.227 359.512L281.066 365.243ZM261.584 345.014C264.202 346.495 268.663 349.54 272.784 353.481C277.04 357.55 280.004 361.691 281.066 365.243L300.227 359.512C297.715 351.112 291.887 344.075 286.606 339.025C281.191 333.848 275.37 329.835 271.431 327.607L261.584 345.014ZM256.806 333.885L256.806 333.885L276.209 338.736L276.209 338.736L256.806 333.885ZM241.564 335.236C246.834 337.753 258.033 343.151 261.851 345.16L271.163 327.46C266.921 325.228 255.309 319.637 250.182 317.188L241.564 335.236ZM254.817 330.684L254.817 330.684L236.929 321.74L236.928 321.74L254.817 330.684ZM236.795 334.009C237.863 334.314 240.622 335.105 243.099 335.82L248.647 316.605C246.146 315.883 243.368 315.087 242.289 314.779L236.795 334.009ZM241.062 334.278L241.063 334.278L238.022 314.51L238.021 314.51L241.062 334.278ZM234.115 315.994L234.114 315.995L244.968 332.793L244.969 332.793L234.115 315.994ZM209.616 283.692C206.735 299.802 211.476 311.831 218.142 320.081C224.522 327.976 232.293 331.974 235.133 333.369L243.951 315.418C241.903 314.412 237.302 311.97 233.698 307.51C230.38 303.405 227.524 297.164 229.304 287.212L209.616 283.692ZM253.039 277.831C252.758 278.106 251.778 278.809 249.433 279.352C247.164 279.878 244.256 280.102 240.943 279.971C234.195 279.703 227.379 278.034 223.533 276.319L215.387 294.585C221.874 297.478 231.242 299.601 240.15 299.955C244.665 300.134 249.452 299.878 253.948 298.836C258.369 297.811 263.225 295.859 267.053 292.1L253.039 277.831ZM258.67 249.792C262.491 261.442 259.851 271.14 253.039 277.831L267.053 292.1C279.823 279.558 283.624 261.7 277.674 243.559L258.67 249.792ZM261.116 213.544C258.815 218.135 256.212 223.159 255.508 229.295C254.79 235.542 256.088 241.916 258.67 249.792L277.674 243.559C275.372 236.539 275.158 233.484 275.377 231.577C275.609 229.558 276.391 227.703 278.996 222.504L261.116 213.544ZM247.173 192.926C251.792 195.344 256.854 199.059 259.814 203.172C262.475 206.868 262.956 209.93 261.145 213.485L278.967 222.562C285.068 210.584 281.8 199.481 276.046 191.488C270.593 183.912 262.576 178.415 256.45 175.207L247.173 192.926ZM245.009 191.873C245.668 192.167 246.394 192.517 247.167 192.923L256.455 175.21C255.326 174.618 254.222 174.083 253.163 173.61L245.009 191.873ZM237.235 188.263C240.24 189.837 243.155 191.143 245.386 192.032L252.786 173.451C251.176 172.81 248.89 171.79 246.515 170.546L237.235 188.263ZM219.823 172.131C221.424 176.949 225.294 180.383 227.848 182.37C230.797 184.665 234.205 186.674 237.232 188.261L246.519 170.548C244.053 169.255 241.784 167.873 240.128 166.585C239.306 165.945 238.807 165.461 238.55 165.166C238.25 164.822 238.541 165.039 238.803 165.825L219.823 172.131ZM203.575 153.936C207.909 156.638 216.061 161.851 219.92 172.411L238.705 165.546C232.362 148.187 218.925 139.938 214.158 136.965L203.575 153.936ZM203.403 153.826L203.403 153.826L214.33 137.075L214.33 137.075L203.403 153.826ZM202.092 152.992C202.57 153.31 203.129 153.657 203.575 153.936L214.158 136.965C213.622 136.631 213.344 136.457 213.161 136.335L202.092 152.992ZM202.708 153.358C202.576 153.289 202.36 153.17 202.092 152.992L213.161 136.335C212.714 136.038 212.291 135.798 211.927 135.609L202.708 153.358Z" fill="white" mask="url(#path-3-outside-1)"/>
<path d="M223.354 406.363L232.686 550.06C262.871 543.167 321.599 527.34 315.027 519.174C306.813 508.966 302.344 464.915 311.544 435.803C318.904 412.514 308.477 392.585 302.344 385.531C299.934 382.793 294.222 374.329 290.647 362.378C287.072 350.426 273.064 340.02 266.507 336.311L241.711 357.274L223.354 406.363Z" fill="#C6525C"/>
<path d="M223.354 406.363L232.686 550.06C262.871 543.167 321.599 527.34 315.027 519.174C306.813 508.966 302.344 464.915 311.544 435.803C318.904 412.514 308.477 392.585 302.344 385.531C299.934 382.793 294.222 374.329 290.647 362.378C287.072 350.426 273.064 340.02 266.507 336.311L241.711 357.274L223.354 406.363Z" fill="#C6525C"/>
<path d="M115.516 372.717C122.648 361.011 134.434 353.134 139.436 350.659V406.823C128.484 426.815 105.155 460.293 99.4594 434.27C92.3402 401.741 106.6 387.35 115.516 372.717Z" fill="#D65A64"/>
<path d="M135.45 355.653C136.554 352.744 138.567 351.111 139.436 350.659L239.345 367.92C225.545 400.252 230.977 427.83 236.87 453.612C241.584 474.238 238.834 529.733 236.87 554.901L95.7795 569.381C88.5654 563.357 74.3125 541.513 75.0135 502.329C75.7144 463.146 89.1495 435.548 95.7795 426.647C99.7224 421.565 107.753 410.302 108.331 405.903C109.698 395.266 117.852 381.056 121.759 375.28C125.862 369.95 134.345 358.562 135.45 355.653Z" fill="#EA646F"/>
<path d="M139.436 350.658C142.538 349.379 147.446 346.416 149.512 345.094L206.422 355.477L245.873 326.212C251.072 328.694 262.477 334.19 266.507 336.31C265.675 338.26 250.845 357.142 244.558 364.831C238.272 372.519 203.574 389.452 191.833 394.337C180.092 399.221 157.552 404.982 147.081 391.138C136.61 377.295 138.823 354.272 139.436 350.658Z" fill="#D65A64"/>
<path d="M149.512 345.094C153.333 342.694 157.939 338.077 159.764 336.069L239.542 324.394C240.616 324.701 243.384 325.494 245.873 326.212C240.922 335.872 223.354 353.572 214.527 359.924C205.699 366.277 184.495 376.703 166.116 374.228C147.738 371.753 149.512 352.323 149.512 345.094Z" fill="#EA646F"/>
<path fill-rule="evenodd" clip-rule="evenodd" d="M154.616 148.994C152.782 149.071 150.585 149.446 148.044 150.313C121.04 159.058 112.405 176.709 111.463 184.442C110.769 189.034 107.796 200.218 101.452 208.208C95.1086 216.199 97.5532 232.158 99.5684 239.138C100.642 242.088 103.542 251.195 106.556 264.023C109.57 276.85 127.424 284.701 135.975 287.023C141.236 286.292 147.687 285.458 154.616 284.645V148.994Z" fill="#462937"/>
<path fill-rule="evenodd" clip-rule="evenodd" d="M154.616 284.647C179.806 281.694 211.317 279.032 214.987 282.687C220.836 288.514 250.254 294.582 260.046 284.965C269.837 275.349 273.057 261.571 268.172 246.675C263.288 231.78 265.149 227.815 270.056 218.024C278.66 201.13 259.68 187.473 249.115 182.756C243.266 180.427 231.118 174.411 229.313 168.978C224.212 155.019 213.417 148.288 208.867 145.45C208.376 145.144 207.957 144.883 207.627 144.664C204.232 142.407 181.231 139.384 174.243 146.92C168.653 152.948 162.992 151.695 160.859 150.315C160.012 149.669 157.894 148.857 154.616 148.995V284.647Z" fill="#543343"/>
<path d="M158.472 337.756C161.345 326.032 156.106 313.025 153.127 307.987C171.615 299.692 209.357 284.22 219.696 284.22C214.176 311.185 234.577 321.955 239.542 324.394C232.021 329.198 212.424 339.832 194.199 343.933C171.417 349.059 164.298 342.641 158.472 337.756Z" fill="#F0BBAC"/>
<path d="M130.652 194.804C135.927 182.817 142.716 189.703 145.329 194.804C146.249 196.6 147.843 196.679 153.784 194.804C159.725 192.929 164.101 196.841 165.547 199.031C168.387 203.281 175.777 211.955 182.611 212.656C189.445 213.357 190.543 214.592 194.79 217.432C199.394 220.511 199.92 224.619 204.428 227.837C208.634 230.838 213.081 236.489 215.074 241.155C216.669 244.888 218.908 271.435 219.828 284.242C218.689 285.688 214.68 289.863 207.758 294.997C191.706 307.054 174.185 312.215 167.431 313.288C161.662 314.617 147.734 313.174 138.166 296.772C126.205 276.269 124.212 264.637 122.328 250.574C120.821 239.324 122.182 230.159 123.051 226.982C124.767 222.265 128.199 211.903 128.199 208.188C128.33 199.557 128.637 199.623 130.652 194.804Z" fill="#FFC9BA"/>
<path d="M175.163 222.075C169.836 220.866 164.057 223.192 161.889 224.441C160.969 224.971 158.647 227.223 159.304 229.523C160.675 234.319 166.774 232.765 173.17 230.399C179.566 228.033 186.445 231.319 188.241 231.582C190.037 231.845 197.485 231.779 196.039 227.223C194.593 222.667 188.832 222.732 186.445 223.192C184.057 223.652 181.823 223.587 175.163 222.075Z" fill="#543343"/>
<path d="M148.067 270.179C140.093 270.985 153.368 228.756 155.142 230.224C156.033 230.961 156.653 239.357 156.873 247.726C157.09 256.024 156.913 264.297 156.215 265.053C154.813 266.572 151.221 269.723 148.067 270.179Z" fill="#F0BBAC"/>
<path d="M153.215 279.248C144.663 276.322 142.722 282.534 139.217 283.673C142.569 283.673 146.796 289.521 153.215 286.192C156.873 288.098 162.349 287.309 169.994 283.673C166.248 282.271 160.049 276.094 153.215 279.248Z" fill="#9A1919"/>
<path fill-rule="evenodd" clip-rule="evenodd" d="M123.079 174.538C122.349 170.879 123.5 166.672 125.372 162.73C130.851 158.088 138.253 153.718 148.095 150.531C155.175 148.113 159.588 149.523 160.909 150.531C162.341 151.458 165.364 152.327 168.888 150.973C167.649 153.903 166.759 156.928 166.386 159.271C165.994 161.727 164.605 163.391 163.093 165.202C160.883 167.849 158.412 170.81 158.412 177.014C159.193 186.724 162.256 194.276 166.091 199.965C165.914 199.714 165.749 199.474 165.597 199.247C164.151 197.056 159.775 193.144 153.834 195.019C147.893 196.894 146.299 196.815 145.379 195.019C142.766 189.918 135.977 183.033 130.702 195.019C130.528 195.436 130.367 195.816 130.217 196.169C128.635 199.892 128.369 200.519 128.249 208.403C128.249 212.118 124.817 222.481 123.101 227.198C122.597 229.04 121.928 232.898 121.748 238.01C120.177 240.631 118.403 242.186 116.595 241.239C111.075 238.348 110.134 227.636 111.382 218.677C112.381 211.51 117.669 200.197 120.188 195.436C121.838 191.909 124.727 182.792 123.079 174.538Z" fill="#543343"/>
<path fill-rule="evenodd" clip-rule="evenodd" d="M191.535 215.257C208.153 217.566 236.71 226.241 236.71 245.74C236.71 271.523 239.36 274.173 246.589 272.486C252.372 271.137 258.155 262.768 260.323 258.752C261.382 255.824 263.5 248.641 263.5 243.331C263.5 236.693 264.573 227.866 267.99 222.105C268.067 221.975 268.148 221.827 268.233 221.659C268.336 221.441 268.441 221.221 268.549 220.998C269.45 219.003 270.708 215.414 272.13 210.992C273.387 197.4 258.144 186.785 249.086 182.741C243.237 180.412 231.089 174.395 229.284 168.963C224.183 155.004 213.388 148.273 208.838 145.435L208.837 145.435C208.347 145.129 207.928 144.868 207.598 144.648C204.202 142.392 181.202 139.369 174.214 146.905C172.997 148.218 171.775 149.186 170.588 149.882L168.859 150.962C167.621 153.892 166.731 156.916 166.357 159.259C165.966 161.715 164.577 163.379 163.065 165.19C160.855 167.838 158.384 170.798 158.384 177.002C159.095 185.85 161.701 192.906 165.06 198.393C165.236 198.611 165.389 198.821 165.518 199.018C167.84 202.492 173.203 208.923 178.817 211.538L181.648 212.499C181.96 212.562 182.272 212.611 182.582 212.642C187.355 213.132 189.331 213.882 191.535 215.257Z" fill="#462937"/>
<path d="M128.571 220.367C122.051 220.367 120.072 221.309 120.072 223.214C120.072 227.939 125.549 229.085 130.915 228.581C134.759 228.22 139.064 229.085 140.685 230.093C141.982 230.899 145.454 232.152 147.388 232.152C148.79 232.152 150.792 230.995 150.301 229.085C149.811 227.175 146.161 226.5 144.212 226.106C137.835 224.816 139.13 220.367 128.571 220.367Z" fill="#462937"/>
<path d="M93.8581 517.688C89.1108 491.711 102.829 447.28 110.281 428.311C112.011 448.872 106.797 474.476 105.726 499.536C104.543 527.251 144.835 587.512 105.726 569.36L101.544 575.644C100.96 567.149 98.6055 543.664 93.8581 517.688Z" fill="#DF606A"/>
<path d="M127.318 515.581C122.57 489.604 130.035 452.406 137.488 433.437C139.218 453.998 140.173 464.695 139.103 489.755C137.919 517.47 172.042 592.638 132.933 574.486L128.75 580.77C128.167 572.275 132.065 541.558 127.318 515.581Z" fill="#DF606A"/>
<path d="M161.324 513.805C158.638 491.66 162.862 459.947 167.078 443.776C168.057 461.305 168.598 470.424 167.992 491.788C167.322 515.415 186.629 579.497 164.501 564.023L162.135 569.38C161.805 562.138 164.01 535.95 161.324 513.805Z" fill="#DF606A"/>
<path d="M218.357 522.81C223.104 496.834 215.639 459.635 208.187 440.667C206.457 461.227 205.502 471.924 206.572 496.984C207.756 524.699 173.633 599.867 212.742 581.716L216.924 588C217.508 579.505 213.61 548.787 218.357 522.81Z" fill="#DF606A"/>
<path fill-rule="evenodd" clip-rule="evenodd" d="M92.8777 431.035C94.064 428.992 95.1672 427.313 96.1307 426.018C96.3408 425.747 96.5622 425.458 96.7933 425.155C109.892 425.791 128.996 427.565 141.212 431.519C160.578 437.786 178.142 436.997 189.311 436.028C200.48 435.058 229.776 442.182 240.539 451.335C240.572 451.362 240.604 451.39 240.636 451.417C240.813 452.203 240.991 452.987 241.17 453.769C241.346 454.539 241.511 455.357 241.667 456.218C239.34 456.089 235.598 455.018 232.726 454.018C227.517 452.041 213.869 448.197 200.953 448.63C198.192 448.722 195.439 448.862 192.681 449.002C179.308 449.682 165.826 450.367 150.872 445.676C147.076 444.485 142.962 443.031 138.648 441.505C124.178 436.388 107.453 430.474 92.8777 431.035Z" fill="#C14D57"/>
<path d="M165.965 240.64C169.673 237.105 179.019 231.457 186.736 237.143C183.594 241 176.687 245.184 165.965 240.64Z" fill="#FFF3F1"/>
<mask id="mask1" mask-type="alpha" maskUnits="userSpaceOnUse" x="172" y="234" width="10" height="10">
<path d="M181.245 239.78C180.885 242.295 178.071 243.858 175.556 243.497C173.041 243.137 171.973 241.017 172.334 238.502C172.694 235.987 174.347 234.03 176.862 234.39C179.377 234.751 181.606 237.265 181.245 239.78Z" fill="#2C1E25"/>
</mask>
<g mask="url(#mask1)">
<path d="M165.873 240.659C169.582 237.115 178.93 231.452 186.646 237.147C183.503 241.014 176.595 245.209 165.873 240.659Z" fill="#2C1E25"/>
</g>
<path d="M126.003 239.911C128.288 237.304 135.106 233.357 144.096 238.421C141.468 242.627 132.487 246.745 126.003 239.911Z" fill="#FFF3F1"/>
<mask id="mask2" mask-type="alpha" maskUnits="userSpaceOnUse" x="130" y="235" width="9" height="10">
<path d="M138.467 239.753C138.467 242.293 137.218 244.353 134.677 244.353C132.136 244.353 130.778 242.406 130.778 239.866C130.778 237.325 132.136 235.153 134.677 235.153C137.218 235.153 138.467 237.212 138.467 239.753Z" fill="#2C1E25"/>
</mask>
<g mask="url(#mask2)">
<path d="M126.003 239.911C128.288 237.304 135.107 233.357 144.096 238.421C141.468 242.627 132.487 246.745 126.003 239.911Z" fill="#2C1E25"/>
</g>
<ellipse cx="155.552" cy="404.041" rx="16.1002" ry="17.0859" fill="#C14D57"/>
<path d="M166.702 404.041C166.702 411.518 161.159 416.133 154.106 416.133C147.053 416.133 144.161 411.518 144.161 404.041C144.161 396.565 148.499 393.943 155.552 393.943C162.605 393.943 166.702 396.565 166.702 404.041Z" fill="#D65A64"/>
</g>
</svg>
