<svg width="383" height="526" viewBox="0 0 383 526" fill="none" xmlns="http://www.w3.org/2000/svg">
<path d="M33.809 31.2975L63.581 0H316.896L383 53.5086V427.06L351.317 519.531L56.0119 526L0 446.242L33.809 31.2975Z" fill="#3F7AD3"/>
<mask id="mask0" mask-type="alpha" maskUnits="userSpaceOnUse" x="0" y="0" width="383" height="526">
<path d="M33.809 31.2975L63.581 0H316.896L383 53.5086V427.06L351.317 519.531L56.0119 526L0 446.242L33.809 31.2975Z" fill="#3F7AD3"/>
</mask>
<g mask="url(#mask0)">
<path d="M199.023 448.894C177.24 422.765 126.797 391.468 104.298 379.086L130.876 450.842L170.99 534.176L194.471 557.095C205.065 531.915 220.807 475.023 199.023 448.894Z" fill="#0B6AC2"/>
<path d="M180.272 421.724C176.789 455.564 189.628 513.522 196.483 538.271L229.268 469.13L260.881 382.215V349.402C235.462 359.409 183.754 387.884 180.272 421.724Z" fill="#117CDF"/>
<path d="M26.6409 427.918C31.5837 417.535 48.9466 404.935 57.0102 399.933C117.814 458.486 235.401 577.386 219.317 584.552C199.213 593.51 29.583 597.139 23.3065 575.202C17.03 553.264 20.4624 440.897 26.6409 427.918Z" fill="#117CDF"/>
<path d="M45.8393 402.834C51.8215 395.825 83.4512 376.067 98.5184 367.063C106.238 387.134 125.522 428.889 140.902 435.34C160.126 443.404 191.516 531.183 195.283 534.755C194.859 540.804 197.022 552.343 198.157 557.356C197.775 557.969 195.126 559.716 187.582 561.792C174.245 562.769 131.331 532.523 103.708 515.614C76.0851 498.705 53.0101 464.581 45.8393 451.272C40.1026 440.624 43.449 436.214 45.8393 435.34L61.1296 422.337C58.9625 419.956 52.8706 412.722 45.8393 402.834Z" fill="#0B6AC2"/>
<path d="M168.106 173.898C164.981 180.84 158.266 195.652 155.299 202.191L220.144 217.676C235.695 216.709 269.441 214.239 280.022 212.096C274.86 204.255 277.148 183.189 280.022 170.187C282.896 157.185 276.506 156.961 266.796 152.413C247.376 143.736 201.756 136.928 188.335 141.057C174.915 145.187 172.013 165.22 168.106 173.898Z" fill="#117CDF"/>
<path d="M127.983 196.582C112.224 197.028 115.371 209.045 118.915 214.997L194.25 229.339C221.12 247.661 280.713 278.82 304.129 256.878C333.398 229.45 310.183 217.508 296.204 211.872C280.412 205.505 237.861 208.803 215.902 210.616C194.119 212.416 170.304 203.671 166.955 202.442L166.878 202.413C163.837 201.297 147.682 196.024 127.983 196.582Z" fill="#0B6AC2"/>
<path d="M120.198 206.878C107.698 209.244 134.856 233.404 149.998 245.188C165.456 268.737 270.312 265.612 277.845 273.704C286.037 272.342 298.372 262.273 303.515 257.409C309.616 252.582 320.027 240.802 312.862 232.297C303.906 221.666 274.999 216.951 246.483 221.639C223.67 225.389 192.242 220.076 179.379 216.951C164.86 212.608 132.699 204.512 120.198 206.878Z" fill="#117CDF"/>
<path fill-rule="evenodd" clip-rule="evenodd" d="M87.1208 374.008C98.7078 399.453 117.523 434.161 137.554 452.251C147.689 460.944 173.496 524.107 187.885 561.71C195.198 559.671 197.781 557.963 198.157 557.358C197.022 552.344 194.859 540.806 195.283 534.757C194.251 533.779 191.147 526.483 186.789 516.239C175.234 489.081 154.861 441.197 140.902 435.342C125.522 428.891 106.238 387.136 98.5185 367.065C95.3283 368.972 91.3955 371.36 87.1208 374.008Z" fill="#1485EE"/>
<path d="M356.138 390.278C345.335 377.198 300.092 366.283 278.822 362.46L262.443 429.955C241.851 454.639 199.764 507.528 196.148 521.613C192.532 535.698 201.747 568.126 206.806 582.579L360.24 587.072C363.374 526.924 366.942 403.359 356.138 390.278Z" fill="#0B6AC2"/>
<path d="M208.174 484.867C190.272 511.028 194.985 547.628 199.58 562.658C207.337 549.321 246.232 527.753 255.328 521.837C259.43 504.092 300.278 437.573 303.599 431.63C306.255 426.876 304.705 423.957 303.599 423.092L289.201 404.063C293.647 399.617 303.309 389.989 306.389 387.043C302.951 383.985 284.383 361.717 275.529 350.965L264.48 335.061C262.229 336.01 257.728 339.899 257.728 347.868C255.663 381.937 230.551 452.166 208.174 484.867Z" fill="#0E79DC"/>
<path fill-rule="evenodd" clip-rule="evenodd" d="M277.254 353.057C277.943 370.759 274.363 397.394 259.681 431.853C250.005 454.562 240.838 469.935 233.339 482.511C220.18 504.579 212.155 518.037 215.522 547.415C208.246 552.821 202.173 558.2 199.58 562.658C194.985 547.628 190.272 511.028 208.174 484.867C230.551 452.166 255.663 381.937 257.728 347.868C257.728 339.899 262.229 336.01 264.48 335.061L275.529 350.965C276.07 351.622 276.647 352.321 277.254 353.057Z" fill="#0960B0"/>
<path d="M280.454 263.529C278.446 255.032 271.658 257.829 268.515 260.29L258.589 273.159C258.249 278.412 258.519 291.812 262.326 303.391C264.749 293.761 282.965 274.151 280.454 263.529Z" fill="#FFC9BA"/>
<path d="M148.631 246.281C149.903 249.563 149.161 262.046 148.631 267.878L143.524 299.714L159.373 313.693L188.586 309.731L213.921 313.693L230.105 302.448L255.551 268.073C257.644 259.154 261.215 238.999 253.793 236.181C244.667 232.715 216.879 227.196 201.365 227.308C185.852 227.42 164.563 223.904 156.08 224.797C147.598 225.69 147.04 242.18 148.631 246.281Z" fill="#FFC9BA"/>
<path d="M260.992 277.169C263.727 261.656 272.683 259.507 272.683 256.438C272.817 244.57 263.858 239.603 253.291 235.998C251.617 237.994 251.329 244.131 251.31 249.435C251.29 254.873 253.961 259.669 253.291 263.218C252.454 267.655 244.056 281.187 237.778 284.145C232.755 286.511 226.57 292.757 224.106 295.585C222.059 298.412 217.398 304.34 215.121 305.434C210.478 307.041 199.087 303.648 193.971 301.751C185.229 306.299 165.751 313.129 157.782 304.067C147.821 292.739 148.686 269.245 148.686 265.562C134.038 275.272 137.972 284.982 134.763 303.425C131.554 321.868 109.763 336.043 102.313 345.613C82.2515 372.566 103.931 395.614 108.172 399.436C112.414 403.259 122.012 412.466 130.355 425.608C138.697 438.75 152.341 446.702 180.355 439.95C208.369 433.198 218.86 414.029 224.44 399.436C230.021 384.843 237.387 374.38 244.921 368.437C252.454 362.494 259.095 355.909 264.871 341.595C269.491 330.144 265.14 307.917 262.387 298.235C261.439 294.301 259.831 284.58 260.992 277.169Z" fill="#543343"/>
<path d="M157.643 301.025C163.737 289.507 171.808 287.669 175.082 288.19C176.533 288.05 180.138 287.855 182.95 288.19C201.226 289.752 188.837 310.037 213.559 316.51C199.412 324.63 178.235 313.246 173.491 311.544C154.713 328.48 146.036 316.036 143.134 311.544C148.1 311.432 153.904 308.168 157.643 301.025Z" fill="#603A4C"/>
<path d="M182.253 239.696C178.933 264.557 149.942 317.37 186.299 288.686C184.234 279.841 187.588 252.219 182.253 239.696Z" fill="#F0BBAC"/>
<path d="M200.222 255.49C204.63 250.746 215.73 244.842 224.859 259.173C221.26 262.214 208.202 265.116 200.222 255.49Z" fill="#FFF3F1"/>
<path d="M145.087 244.914C145.801 248.486 149.514 248.039 151.281 247.37C152.146 247.019 154.858 245.847 158.787 243.966C162.716 242.084 165.195 242.393 169.25 243.017C171.789 243.408 173 244.211 178.29 243.966C184.903 243.659 184.094 239.487 183.257 238.943C181.667 237.911 178.514 236.516 173.742 233.279C168.971 230.043 161.131 231.828 159.791 232.861C158.72 233.687 153.672 236.572 151.281 237.911C148.919 238.757 144.373 241.343 145.087 244.914Z" fill="#543343"/>
<path d="M196.567 237.857C191.946 238.236 189.738 241.002 188.335 245.028C185.587 252.916 204.881 248.962 209.625 247.092C214.368 245.223 222.209 246.032 227.175 247.957C232.142 249.883 238.671 247.623 233.844 243.744C229.017 239.866 218.525 239.252 210.964 239.336C203.403 239.419 202.342 237.383 196.567 237.857Z" fill="#543343"/>
<path d="M154.992 248.794C158.489 245.706 167.61 241.841 176.114 251.082C173.184 253.565 159.01 262.466 154.992 248.794Z" fill="#FFF3F1"/>
<mask id="mask1" mask-type="alpha" maskUnits="userSpaceOnUse" x="158" y="243" width="14" height="17">
<path d="M170.347 251.667C169.816 255.614 165.628 259.528 162.104 257.672C159.175 256.13 158.899 252.547 160.058 249.446C161.197 246.397 163.69 243.701 166.824 244.58C169.8 245.415 170.76 248.604 170.347 251.667Z" fill="#2C1E25"/>
</mask>
<g mask="url(#mask1)">
<path d="M154.993 248.792C158.49 245.704 167.61 241.839 176.115 251.08C173.185 253.563 159.011 262.464 154.993 248.792Z" fill="#2C1E25"/>
</g>
<mask id="mask2" mask-type="alpha" maskUnits="userSpaceOnUse" x="207" y="248" width="11" height="15">
<path d="M207.191 256.283C207.08 252.302 210.581 247.764 214.358 249.027C217.498 250.077 218.348 253.569 217.704 256.816C217.072 260.009 215.046 263.071 211.811 262.709C208.74 262.365 207.278 259.372 207.191 256.283Z" fill="#2C1E25"/>
</mask>
<g mask="url(#mask2)">
<path d="M200.221 255.489C204.63 250.745 215.729 244.841 224.859 259.172C221.259 262.213 208.201 265.115 200.221 255.489Z" fill="#2C1E25"/>
</g>
<path d="M296.204 211.872L298.074 207.235L298.074 207.235L296.204 211.872ZM278.43 208.604L273.663 210.113L274.686 213.345L278.068 213.591L278.43 208.604ZM311.297 249.23L307.39 246.11L307.299 246.224L307.215 246.343L311.297 249.23ZM303.796 257.184L300.652 253.296L300.547 253.381L300.446 253.472L303.796 257.184ZM303.201 257.704L299.973 253.886L299.878 253.966L299.788 254.05L303.201 257.704ZM278.761 273.52L277.624 268.651L275.141 269.231L274.152 271.581L278.761 273.52ZM270.108 288.842L265.882 286.17L265.882 286.17L270.108 288.842ZM263.135 301.032L258.522 299.105L257.88 300.641L258.287 302.256L263.135 301.032ZM266.097 337.389L261.197 336.396L260.773 338.489L261.991 340.242L266.097 337.389ZM275.529 350.965L271.423 353.818L271.54 353.986L271.67 354.144L275.529 350.965ZM277.254 353.057L273.399 356.241L273.399 356.241L277.254 353.057ZM286.265 363.897L282.43 367.105L283.551 368.444L285.262 368.795L286.265 363.897ZM356.138 390.278L359.993 387.094L359.993 387.094L356.138 390.278ZM360.24 587.072L360.094 592.07L364.979 592.213L365.233 587.332L360.24 587.072ZM220.677 582.986L220.823 577.988L216.939 577.874L215.87 581.609L220.677 582.986ZM219.317 584.552L217.282 579.985L217.282 579.985L219.317 584.552ZM23.3065 575.202L28.1136 573.827L28.1136 573.827L23.3065 575.202ZM26.6409 427.918L31.1555 430.067L31.1555 430.067L26.6409 427.918ZM48.1246 406.002L51.0953 410.024L55.0989 407.066L52.1597 403.049L48.1246 406.002ZM45.8392 402.834L42.0361 399.588L39.5048 402.554L41.7643 405.731L45.8392 402.834ZM93.9386 369.823L96.534 374.097L99.0151 372.59L98.9368 369.688L93.9386 369.823ZM102.313 345.613L98.3675 342.542L98.3343 342.584L98.3021 342.628L102.313 345.613ZM111.606 336.137L115.029 339.781L115.029 339.781L111.606 336.137ZM134.763 303.425L129.837 302.568L129.837 302.568L134.763 303.425ZM136.255 290.824L141.237 291.248L141.237 291.248L136.255 290.824ZM148.686 265.562H153.686V256.249L145.924 261.395L148.686 265.562ZM148.68 266.392L143.68 266.339L143.68 266.365V266.392H148.68ZM148.68 266.397L153.679 266.454L153.68 266.425V266.397H148.68ZM148.68 266.401L153.679 266.464L153.679 266.458L148.68 266.401ZM148.68 266.409L143.68 266.346L143.68 266.357L148.68 266.409ZM148.671 267.429L143.671 267.396L153.651 267.865L148.671 267.429ZM149.004 247.826L153.944 247.053L153.261 242.686L148.842 242.829L149.004 247.826ZM145.087 244.915L140.184 245.895L140.184 245.895L145.087 244.915ZM145.768 241.822L149.946 244.569L152.429 240.792L148.921 237.941L145.768 241.822ZM117.221 211.491L122.041 210.164L121.978 209.933L121.893 209.71L117.221 211.491ZM127.983 196.582L128.124 201.58L128.124 201.58L127.983 196.582ZM156.528 199.481L155.42 204.357L159.397 205.262L161.082 201.547L156.528 199.481ZM168.106 173.898L163.547 171.846L163.547 171.846L168.106 173.898ZM170.787 166.425L166.08 164.739L166.056 164.808L166.033 164.878L170.787 166.425ZM170.788 166.425L175.495 168.111L175.538 167.991L175.574 167.87L170.788 166.425ZM170.788 166.424L166.044 164.843L166.022 164.911L166.001 164.979L170.788 166.424ZM170.788 166.424L175.531 168.005L175.617 167.747L175.675 167.481L170.788 166.424ZM170.788 166.424L165.968 165.094L165.931 165.23L165.901 165.367L170.788 166.424ZM170.788 166.424L165.976 165.065L165.972 165.08L165.968 165.094L170.788 166.424ZM170.788 166.424L166.033 164.877L166.003 164.97L165.976 165.065L170.788 166.424ZM188.335 141.057L189.806 145.836L189.806 145.836L188.335 141.057ZM266.796 152.413L268.917 147.885L268.877 147.867L268.836 147.848L266.796 152.413ZM270.888 154.212L272.839 149.608L272.839 149.608L270.888 154.212ZM280.022 170.187L275.14 169.108L275.14 169.108L280.022 170.187ZM298.074 207.235C293.048 205.208 286.168 204.154 278.793 203.618L278.068 213.591C285.213 214.111 290.809 215.088 294.335 216.509L298.074 207.235ZM315.204 252.351C319.986 246.364 322.606 240.693 323.125 235.275C323.655 229.729 321.928 225.02 319.106 221.207C313.766 213.992 304.292 209.742 298.074 207.235L294.335 216.509C300.722 219.085 307.607 222.48 311.069 227.157C312.647 229.29 313.432 231.588 313.17 234.322C312.897 237.183 311.422 241.063 307.39 246.11L315.204 252.351ZM306.94 261.072C309.551 258.961 312.77 255.806 315.379 252.118L307.215 246.343C305.234 249.143 302.693 251.645 300.652 253.296L306.94 261.072ZM306.429 261.523C306.671 261.318 306.911 261.108 307.147 260.895L300.446 253.472C300.29 253.613 300.132 253.751 299.973 253.886L306.429 261.523ZM279.898 278.389C284.881 277.225 290.366 273.988 294.926 270.802C299.619 267.524 303.911 263.882 306.613 261.359L299.788 254.05C297.373 256.305 293.446 259.637 289.199 262.605C284.818 265.665 280.643 267.946 277.624 268.651L279.898 278.389ZM274.334 291.514C277.466 286.562 281.117 280.813 283.37 275.459L274.152 271.581C272.287 276.015 269.141 281.016 265.882 286.17L274.334 291.514ZM267.749 302.96C268.981 300.01 271.393 296.165 274.334 291.514L265.882 286.17C263.121 290.536 260.155 295.197 258.522 299.105L267.749 302.96ZM270.998 338.382C272.251 332.2 272.041 324.854 271.299 318.101C270.549 311.271 269.211 304.67 267.983 299.808L258.287 302.256C259.425 306.761 260.668 312.903 261.359 319.192C262.058 325.558 262.147 331.707 261.197 336.396L270.998 338.382ZM279.635 348.112L270.204 334.536L261.991 340.242L271.423 353.818L279.635 348.112ZM281.109 349.872C280.503 349.139 279.928 348.441 279.389 347.787L271.67 354.144C272.212 354.802 272.79 355.504 273.399 356.241L281.109 349.872ZM290.1 360.688C286.84 356.792 283.697 353.005 281.109 349.872L273.399 356.241C275.999 359.388 279.156 363.191 282.43 367.105L290.1 360.688ZM359.993 387.094C356.913 383.365 352.032 380.171 346.642 377.425C341.142 374.623 334.619 372.044 327.797 369.729C314.145 365.096 298.877 361.377 287.269 358.999L285.262 368.795C296.622 371.123 311.456 374.744 324.583 379.198C331.15 381.427 337.184 383.83 342.103 386.336C347.132 388.898 350.53 391.34 352.283 393.462L359.993 387.094ZM365.233 587.332C366.803 557.203 368.483 511.18 368.416 471.017C368.382 450.948 367.913 432.247 366.762 417.693C366.188 410.427 365.435 404.078 364.452 399.062C363.96 396.554 363.393 394.283 362.725 392.349C362.082 390.491 361.227 388.588 359.993 387.094L352.283 393.462C352.4 393.604 352.783 394.199 353.274 395.617C353.738 396.96 354.199 398.743 354.638 400.984C355.516 405.463 356.232 411.384 356.793 418.482C357.914 432.655 358.383 451.057 358.416 471.033C358.482 510.96 356.811 556.793 355.247 586.811L365.233 587.332ZM220.53 587.983L360.094 592.07L360.386 582.074L220.823 577.988L220.53 587.983ZM221.352 589.119C223.428 588.195 224.875 586.486 225.483 584.362L215.87 581.609C215.943 581.354 216.099 581.002 216.397 580.657C216.696 580.311 217.027 580.099 217.282 579.985L221.352 589.119ZM18.4994 576.577C19.3088 579.406 21.2737 581.508 23.3501 583.042C25.4525 584.595 28.0738 585.871 30.948 586.95C36.7044 589.113 44.3199 590.798 53.001 592.12C70.4239 594.774 93.1006 596.103 116.048 596.462C139.027 596.822 162.45 596.211 181.425 594.944C190.908 594.311 199.335 593.51 206.069 592.575C212.59 591.668 218.108 590.565 221.352 589.119L217.282 579.985C215.5 580.779 211.319 581.749 204.692 582.67C198.276 583.561 190.104 584.343 180.759 584.966C162.078 586.214 138.931 586.819 116.205 586.463C93.4473 586.107 71.2831 584.79 54.5069 582.234C46.0883 580.952 39.2647 579.392 34.4645 577.589C32.0605 576.686 30.3742 575.798 29.2924 574.999C28.1846 574.181 28.0888 573.74 28.1136 573.827L18.4994 576.577ZM22.1263 425.769C20.9949 428.146 20.1867 432.025 19.5249 436.311C18.8281 440.823 18.2003 446.485 17.6491 452.894C16.5457 465.722 15.7295 481.774 15.3048 498.071C14.88 514.368 14.845 530.98 15.3136 544.927C15.7744 558.645 16.7328 570.403 18.4994 576.577L28.1136 573.827C26.7419 569.032 25.7757 558.518 25.3079 544.591C24.8478 530.895 24.8803 514.49 25.3014 498.331C25.7225 482.171 26.5306 466.327 27.6123 453.751C28.1537 447.456 28.7587 442.04 29.4077 437.837C30.0917 433.407 30.7423 430.935 31.1555 430.067L22.1263 425.769ZM45.1538 401.98C40.9143 405.112 36.2301 408.899 32.1162 412.903C28.0753 416.836 24.2604 421.286 22.1263 425.769L31.1555 430.067C32.5232 427.194 35.3269 423.732 39.0909 420.069C42.7817 416.477 47.0885 412.983 51.0953 410.024L45.1538 401.98ZM41.7643 405.731C42.5524 406.84 43.3288 407.915 44.0894 408.955L52.1597 403.049C51.4249 402.045 50.6751 401.007 49.9141 399.936L41.7643 405.731ZM91.3432 365.55C83.2441 370.468 72.5104 377.172 63.0993 383.459C58.397 386.6 53.983 389.666 50.377 392.37C46.8903 394.985 43.7955 397.526 42.0361 399.588L49.6423 406.08C50.5969 404.961 52.8557 403.011 56.3767 400.37C59.7785 397.819 64.0262 394.866 68.6544 391.774C77.9042 385.595 88.5061 378.972 96.534 374.097L91.3432 365.55ZM98.3021 342.628C91.2315 352.127 88.711 361.456 88.9404 369.958L98.9368 369.688C98.7705 363.526 100.534 356.378 106.324 348.599L98.3021 342.628ZM108.182 332.493C104.525 335.929 100.821 339.39 98.3675 342.542L106.259 348.684C108.124 346.288 111.15 343.426 115.029 339.781L108.182 332.493ZM129.837 302.568C128.9 307.954 125.973 313.192 121.882 318.324C117.792 323.454 112.839 328.119 108.182 332.493L115.029 339.781C119.603 335.485 125.089 330.342 129.701 324.558C134.311 318.776 138.348 311.993 139.689 304.282L129.837 302.568ZM131.273 290.4C130.956 294.132 130.617 298.084 129.837 302.568L139.689 304.282C140.553 299.317 140.921 294.966 141.237 291.248L131.273 290.4ZM145.924 261.395C139.798 265.455 136.167 269.81 134.09 274.982C132.128 279.869 131.718 285.178 131.273 290.4L141.237 291.248C141.713 285.653 142.071 281.943 143.37 278.708C144.554 275.759 146.678 272.892 151.449 269.73L145.924 261.395ZM153.68 266.444C153.683 266.116 153.686 265.807 153.686 265.562H143.686C143.686 265.742 143.684 265.99 143.68 266.339L153.68 266.444ZM153.68 266.392V266.392H143.68V266.392H153.68ZM153.68 266.392V266.392H143.68V266.392H153.68ZM153.68 266.393V266.392H143.68V266.393H153.68ZM153.68 266.393V266.393H143.68V266.393H153.68ZM153.68 266.393V266.393H143.68V266.393H153.68ZM153.68 266.394V266.393H143.68V266.394H153.68ZM153.68 266.395V266.394H143.68V266.395H153.68ZM153.68 266.395V266.395H143.68V266.395H153.68ZM153.68 266.396V266.395H143.68V266.396H153.68ZM153.68 266.397V266.396H143.68V266.397H153.68ZM153.679 266.458L153.679 266.454L143.68 266.341L143.68 266.345L153.679 266.458ZM153.679 266.471L153.679 266.464L143.68 266.339L143.68 266.346L153.679 266.471ZM153.67 267.462C153.673 267.09 153.676 266.757 153.679 266.46L143.68 266.357C143.677 266.653 143.673 267.003 143.671 267.396L153.67 267.462ZM144.064 248.599C144.336 250.336 144.391 253.498 144.277 257.185C144.166 260.752 143.914 264.433 143.69 266.992L153.651 267.865C153.889 265.16 154.155 261.288 154.272 257.494C154.385 253.82 154.376 249.812 153.944 247.053L144.064 248.599ZM140.184 245.895C140.666 248.303 141.97 250.295 143.973 251.531C145.805 252.662 147.75 252.87 149.166 252.824L148.842 242.829C148.595 242.837 148.817 242.769 149.225 243.021C149.453 243.162 149.665 243.361 149.82 243.593C149.97 243.817 149.996 243.965 149.99 243.934L140.184 245.895ZM141.59 239.075C140.444 240.818 139.641 243.18 140.184 245.895L149.99 243.934C150.023 244.1 150.018 244.287 149.979 244.447C149.945 244.589 149.905 244.63 149.946 244.569L141.59 239.075ZM112.4 212.818C113.16 215.576 114.959 218.412 116.921 220.984C118.966 223.665 121.552 226.52 124.358 229.359C129.977 235.044 136.768 240.952 142.615 245.702L148.921 237.941C143.237 233.323 136.746 227.667 131.47 222.329C128.829 219.657 126.564 217.137 124.872 214.919C123.097 212.593 122.274 211.008 122.041 210.164L112.4 212.818ZM127.841 191.584C120.324 191.797 114.76 194.421 112.284 199.726C110.065 204.481 111.2 209.733 112.549 213.272L121.893 209.71C120.869 207.024 120.855 205.006 121.346 203.955C121.579 203.455 122.583 201.737 128.124 201.58L127.841 191.584ZM157.637 194.606C150.195 192.913 139.648 191.249 127.841 191.584L128.124 201.58C138.866 201.276 148.545 202.793 155.42 204.357L157.637 194.606ZM163.547 171.846C160.804 177.94 155.286 190.115 151.975 197.416L161.082 201.547C164.392 194.249 169.916 182.06 172.666 175.95L163.547 171.846ZM166.033 164.878C165.069 167.84 164.311 170.148 163.547 171.846L172.666 175.95C173.702 173.649 174.637 170.753 175.542 167.972L166.033 164.878ZM166.081 164.739L166.08 164.739L175.495 168.111L175.495 168.111L166.081 164.739ZM166.001 164.979L166.001 164.98L175.574 167.87L175.574 167.869L166.001 164.979ZM166.044 164.843L166.044 164.843L175.531 168.005L175.531 168.005L166.044 164.843ZM165.901 165.367L165.901 165.367L175.675 167.481L175.675 167.481L165.901 165.367ZM165.968 165.094L165.968 165.094L175.608 167.754L175.608 167.753L165.968 165.094ZM165.976 165.065L165.976 165.065L175.6 167.782L175.6 167.782L165.976 165.065ZM186.865 136.278C179.99 138.394 175.537 143.56 172.515 148.859C169.513 154.124 167.564 160.171 166.033 164.877L175.543 167.971C177.132 163.084 178.793 158.037 181.202 153.812C183.593 149.62 186.352 146.899 189.806 145.836L186.865 136.278ZM268.836 147.848C258.501 143.23 241.707 139.279 226.04 136.985C218.147 135.83 210.382 135.072 203.675 134.871C197.135 134.676 191.06 134.987 186.865 136.278L189.806 145.836C192.321 145.062 196.982 144.676 203.377 144.867C209.605 145.053 216.975 145.765 224.592 146.88C239.946 149.128 255.672 152.919 264.756 156.978L268.836 147.848ZM272.839 149.608C271.553 149.063 270.264 148.517 268.917 147.885L264.675 156.941C266.216 157.663 267.668 158.278 268.937 158.816L272.839 149.608ZM284.904 171.266C286.231 165.261 286.118 160.195 283.108 156.202C281.697 154.329 279.905 153.057 278.187 152.096C276.509 151.157 274.597 150.353 272.839 149.608L268.937 158.815C270.836 159.62 272.199 160.204 273.302 160.822C274.364 161.416 274.858 161.869 275.122 162.22C275.462 162.672 276.259 164.044 275.14 169.108L284.904 171.266ZM283.197 207.095C281.993 203.291 281.701 197.306 282.149 190.446C282.588 183.733 283.693 176.746 284.904 171.266L275.14 169.108C273.834 175.016 272.646 182.509 272.17 189.794C271.704 196.932 271.874 204.462 273.663 210.113L283.197 207.095Z" fill="white"/>
</g>
</svg>
