<svg width="380" height="521" viewBox="0 0 380 521" fill="none" xmlns="http://www.w3.org/2000/svg">
<path d="M33.5 31L63 0H314L379.5 53V423L348.106 514.592L55.5 521L0 442L33.5 31Z" fill="#3F7AD3"/>
<mask id="mask0" mask-type="alpha" maskUnits="userSpaceOnUse" x="0" y="0" width="380" height="521">
<path d="M33.5 31L63 0H314L379.5 53V423L348.106 514.592L55.5 521L0 442L33.5 31Z" fill="#3F7AD3"/>
</mask>
<g mask="url(#mask0)">
<mask id="path-3-outside-1" maskUnits="userSpaceOnUse" x="-10.6132" y="114.524" width="400" height="535" fill="black">
<rect fill="white" x="-10.6132" y="114.524" width="400" height="535"/>
<path fill-rule="evenodd" clip-rule="evenodd" d="M265.025 193.035C270.113 191.666 275.897 185.028 278.305 181.636C280.371 179.571 283.633 172.219 280.161 159.335C275.819 143.231 259.96 140.5 255.129 140.01C250.298 139.52 211.928 131.468 204.366 128.387C196.804 125.306 183.325 123.906 176.253 124.781C169.181 125.657 121.009 143.231 104.169 151.283C87.3299 159.335 82.1485 176.175 84.5991 189.443C86.8975 201.887 105.7 212.422 112.938 211.662C114.115 213.053 114.926 215.214 114.637 218.465C113.867 227.148 114.917 230.053 119.293 230.544C121.296 230.768 122.799 230.216 123.821 229.508C124.001 230.938 124.2 232.491 124.416 234.141C121.833 232.08 118.342 230.882 116.536 235.64C113.974 242.392 123.424 258.725 128.799 264.551C130.399 274.51 132.062 283.446 133.437 287.923C134.083 290.027 134.794 292.215 135.601 294.443C126.224 305.216 106.538 326.636 95.837 334.032C85.1475 341.42 78.8928 347.281 78.0431 360.816C54.4194 374.79 16.7154 393.929 -0.613159 402.44C-0.613159 646.72 166.054 654.833 249.388 628.354L244.589 616.381H259.299L258.7 626.044H290.068C290.139 623.998 290.265 621.878 290.441 619.693C314.582 628.873 359.909 639.075 378.852 630.139C378.852 510.146 377.417 450.582 349.59 412.13C351.42 411.848 352.978 411.469 354.439 411.113L354.44 411.112L354.44 411.112C354.62 411.069 354.798 411.025 354.975 410.982C328.753 376.988 270.183 343.66 259.61 339.318C251.152 335.846 246.073 331.103 244.591 329.166L234.946 319.553C240.944 312.527 244.376 305.571 245.291 298.531C246.972 285.613 251.068 267.128 252.783 263.347C252.996 262.879 253.152 262.143 253.26 261.202C256.651 254.397 260.927 238.078 257.09 232.754C255.039 229.908 252.944 230.229 251.256 231.593C250.267 225.934 250.563 215.712 251.06 210.289C251.444 210.667 251.798 211.059 252.118 211.464C259.712 221.072 262.386 202.344 260.287 196.481C262.189 196.135 263.632 195.461 264.441 194.345C264.75 193.919 264.941 193.481 265.025 193.035Z"/>
</mask>
<path fill-rule="evenodd" clip-rule="evenodd" d="M265.025 193.035C270.113 191.666 275.897 185.028 278.305 181.636C280.371 179.571 283.633 172.219 280.161 159.335C275.819 143.231 259.96 140.5 255.129 140.01C250.298 139.52 211.928 131.468 204.366 128.387C196.804 125.306 183.325 123.906 176.253 124.781C169.181 125.657 121.009 143.231 104.169 151.283C87.3299 159.335 82.1485 176.175 84.5991 189.443C86.8975 201.887 105.7 212.422 112.938 211.662C114.115 213.053 114.926 215.214 114.637 218.465C113.867 227.148 114.917 230.053 119.293 230.544C121.296 230.768 122.799 230.216 123.821 229.508C124.001 230.938 124.2 232.491 124.416 234.141C121.833 232.08 118.342 230.882 116.536 235.64C113.974 242.392 123.424 258.725 128.799 264.551C130.399 274.51 132.062 283.446 133.437 287.923C134.083 290.027 134.794 292.215 135.601 294.443C126.224 305.216 106.538 326.636 95.837 334.032C85.1475 341.42 78.8928 347.281 78.0431 360.816C54.4194 374.79 16.7154 393.929 -0.613159 402.44C-0.613159 646.72 166.054 654.833 249.388 628.354L244.589 616.381H259.299L258.7 626.044H290.068C290.139 623.998 290.265 621.878 290.441 619.693C314.582 628.873 359.909 639.075 378.852 630.139C378.852 510.146 377.417 450.582 349.59 412.13C351.42 411.848 352.978 411.469 354.439 411.113L354.44 411.112L354.44 411.112C354.62 411.069 354.798 411.025 354.975 410.982C328.753 376.988 270.183 343.66 259.61 339.318C251.152 335.846 246.073 331.103 244.591 329.166L234.946 319.553C240.944 312.527 244.376 305.571 245.291 298.531C246.972 285.613 251.068 267.128 252.783 263.347C252.996 262.879 253.152 262.143 253.26 261.202C256.651 254.397 260.927 238.078 257.09 232.754C255.039 229.908 252.944 230.229 251.256 231.593C250.267 225.934 250.563 215.712 251.06 210.289C251.444 210.667 251.798 211.059 252.118 211.464C259.712 221.072 262.386 202.344 260.287 196.481C262.189 196.135 263.632 195.461 264.441 194.345C264.75 193.919 264.941 193.481 265.025 193.035Z" fill="#2C1E25"/>
<path d="M278.305 181.636L271.234 174.565L270.639 175.16L270.152 175.846L278.305 181.636ZM265.025 193.035L262.425 183.379L256.355 185.013L255.196 191.192L265.025 193.035ZM280.161 159.335L289.816 156.733L289.816 156.733L280.161 159.335ZM255.129 140.01L254.12 149.959L254.12 149.959L255.129 140.01ZM204.366 128.387L200.593 137.648L200.593 137.648L204.366 128.387ZM104.169 151.283L99.8554 142.262L99.8554 142.262L104.169 151.283ZM84.5991 189.443L74.7655 191.26L74.7655 191.26L84.5991 189.443ZM112.938 211.662L120.572 205.202L117.155 201.164L111.894 201.716L112.938 211.662ZM114.637 218.465L104.676 217.582L104.676 217.582L114.637 218.465ZM119.293 230.544L120.406 220.606L120.406 220.606L119.293 230.544ZM123.821 229.508L133.742 228.257L131.679 211.901L118.127 221.288L123.821 229.508ZM124.416 234.141L118.179 241.958L137.54 257.406L134.331 232.846L124.416 234.141ZM116.536 235.64L107.187 232.092L107.187 232.092L116.536 235.64ZM128.799 264.551L138.672 262.964L138.194 259.987L136.149 257.77L128.799 264.551ZM133.437 287.923L123.878 290.859L123.878 290.859L133.437 287.923ZM135.601 294.443L143.144 301.009L147.008 296.57L145.004 291.037L135.601 294.443ZM95.837 334.032L90.1514 325.806L90.1514 325.806L95.837 334.032ZM78.0431 360.816L83.1345 369.422L87.6917 366.727L88.0235 361.442L78.0431 360.816ZM-0.613159 402.44L-5.02151 393.464L-10.6132 396.21V402.44H-0.613159ZM249.388 628.354L252.416 637.885L262.674 634.625L258.67 624.634L249.388 628.354ZM244.589 616.381V606.381H229.808L235.307 620.101L244.589 616.381ZM259.299 616.381L269.28 617L269.938 606.381H259.299V616.381ZM258.7 626.044L248.719 625.425L248.061 636.044H258.7V626.044ZM290.068 626.044V636.044H299.729L300.062 626.389L290.068 626.044ZM290.441 619.693L293.996 610.346L281.547 605.612L280.474 618.887L290.441 619.693ZM378.852 630.139L383.118 639.184L388.852 636.479V630.139H378.852ZM349.59 412.13L348.07 402.246L331.893 404.733L341.489 417.992L349.59 412.13ZM354.439 411.113L352.478 401.307L352.274 401.348L352.071 401.397L354.439 411.113ZM354.44 411.112L356.402 420.918L356.606 420.877L356.808 420.828L354.44 411.112ZM354.975 410.982L357.327 420.702L372.307 417.078L362.893 404.875L354.975 410.982ZM259.61 339.318L255.812 348.569L255.812 348.569L259.61 339.318ZM244.591 329.166L252.534 323.089L252.126 322.557L251.651 322.083L244.591 329.166ZM234.946 319.553L227.341 313.06L221.33 320.101L227.887 326.636L234.946 319.553ZM245.291 298.531L255.208 299.821L255.208 299.821L245.291 298.531ZM252.783 263.347L243.677 259.215L243.677 259.215L252.783 263.347ZM253.26 261.202L244.31 256.742L243.526 258.315L243.325 260.061L253.26 261.202ZM257.09 232.754L248.977 238.6L248.977 238.6L257.09 232.754ZM251.256 231.593L241.405 233.313L244.327 250.043L257.539 239.372L251.256 231.593ZM251.06 210.289L258.069 203.157L243.026 188.373L241.101 209.377L251.06 210.289ZM252.118 211.464L259.964 205.263L259.964 205.263L252.118 211.464ZM260.287 196.481L258.498 186.643L246.899 188.752L250.873 199.852L260.287 196.481ZM264.441 194.345L272.537 200.215L272.537 200.215L264.441 194.345ZM270.152 175.846C269.271 177.086 267.643 179.084 265.797 180.83C264.887 181.691 264.05 182.371 263.342 182.846C262.588 183.351 262.286 183.417 262.425 183.379L267.624 202.692C272.662 201.336 276.88 197.877 279.543 195.358C282.463 192.595 284.93 189.578 286.458 187.427L270.152 175.846ZM270.505 161.938C271.911 167.154 271.819 170.737 271.455 172.842C271.044 175.223 270.37 175.43 271.234 174.565L285.376 188.707C290.875 183.208 293.831 171.628 289.816 156.733L270.505 161.938ZM254.12 149.959C258.688 150.423 267.987 152.595 270.505 161.938L289.816 156.733C283.652 133.867 261.232 130.578 256.138 130.061L254.12 149.959ZM200.593 137.648C203.241 138.727 207.746 139.965 212.36 141.13C217.228 142.359 222.989 143.693 228.616 144.935C239.506 147.339 250.985 149.641 254.12 149.959L256.138 130.061C256.149 130.062 256.094 130.057 255.951 130.037C255.816 130.018 255.636 129.992 255.407 129.955C254.947 129.883 254.355 129.782 253.632 129.653C252.189 129.395 250.33 129.041 248.169 128.612C243.851 127.755 238.435 126.621 232.927 125.405C227.412 124.188 221.861 122.901 217.256 121.738C212.398 120.512 209.272 119.588 208.139 119.126L200.593 137.648ZM177.482 134.706C179.91 134.405 184.163 134.455 188.931 135.029C193.707 135.604 197.98 136.584 200.593 137.648L208.139 119.126C203.19 117.11 196.942 115.849 191.321 115.172C185.69 114.495 179.669 114.282 175.025 114.857L177.482 134.706ZM108.483 160.305C116.437 156.501 132.299 150.234 147.315 144.73C154.763 142.001 161.861 139.51 167.495 137.66C170.318 136.733 172.712 135.986 174.567 135.455C175.496 135.189 176.236 134.993 176.795 134.859C177.415 134.71 177.593 134.692 177.482 134.706L175.025 114.857C173.27 115.074 171.05 115.659 169.065 116.227C166.867 116.856 164.205 117.689 161.254 118.659C155.341 120.601 148.018 123.172 140.433 125.952C125.385 131.467 108.741 138.013 99.8554 142.262L108.483 160.305ZM94.4328 187.627C92.6516 177.983 96.4285 166.069 108.483 160.305L99.8554 142.262C78.2312 152.602 71.6454 174.367 74.7655 191.26L94.4328 187.627ZM111.894 201.716C112.415 201.662 111.644 201.795 109.346 200.918C107.344 200.154 104.956 198.913 102.622 197.291C97.484 193.722 94.8622 189.952 94.4328 187.627L74.7655 191.26C76.6344 201.379 84.5633 209.098 91.2107 213.716C94.7692 216.189 98.5834 218.217 102.214 219.603C105.549 220.876 109.842 222.042 113.983 221.607L111.894 201.716ZM124.598 219.349C125.077 213.946 123.779 208.992 120.572 205.202L105.304 218.121C105.136 217.922 105.001 217.718 104.897 217.522C104.793 217.325 104.736 217.165 104.707 217.061C104.648 216.849 104.73 216.971 104.676 217.582L124.598 219.349ZM120.406 220.606C120.285 220.592 121.14 220.658 122.232 221.4C122.79 221.779 123.282 222.25 123.677 222.773C124.06 223.281 124.272 223.732 124.381 224.018C124.563 224.497 124.454 224.507 124.417 223.557C124.382 222.66 124.423 221.323 124.598 219.349L104.676 217.582C104.302 221.8 104.061 226.858 105.69 231.136C106.66 233.683 108.343 236.142 110.99 237.941C113.486 239.637 116.114 240.25 118.18 240.481L120.406 220.606ZM118.127 221.288C118.505 221.026 118.93 220.823 119.38 220.705C119.842 220.583 120.206 220.583 120.406 220.606L118.18 240.481C122.728 240.991 126.627 239.729 129.515 237.729L118.127 221.288ZM134.331 232.846C134.118 231.209 133.92 229.671 133.742 228.257L113.899 230.76C114.081 232.204 114.283 233.772 114.5 235.437L134.331 232.846ZM125.886 239.188C125.933 239.065 125.662 239.868 124.616 240.751C123.424 241.756 121.903 242.292 120.449 242.33C119.192 242.363 118.39 242.022 118.199 241.935C117.98 241.835 117.984 241.803 118.179 241.958L130.653 226.324C128.84 224.879 124.964 222.204 119.92 222.337C117.044 222.413 114.15 223.412 111.716 225.467C109.427 227.399 108.043 229.836 107.187 232.092L125.886 239.188ZM136.149 257.77C134.293 255.759 131.104 251.112 128.707 246.116C127.533 243.669 126.734 241.518 126.346 239.88C125.881 237.918 126.322 238.039 125.886 239.188L107.187 232.092C105.47 236.616 106.131 241.312 106.885 244.493C107.716 247.999 109.136 251.56 110.675 254.769C113.706 261.084 117.929 267.517 121.449 271.332L136.149 257.77ZM142.997 284.988C141.862 281.293 140.296 273.066 138.672 262.964L118.925 266.138C120.503 275.955 122.262 285.599 123.878 290.859L142.997 284.988ZM145.004 291.037C144.269 289.008 143.61 286.985 142.997 284.988L123.878 290.859C124.556 293.069 125.32 295.422 126.199 297.849L145.004 291.037ZM101.523 342.258C107.768 337.942 115.974 330.08 123.377 322.483C130.966 314.695 138.36 306.505 143.144 301.009L128.059 287.877C123.465 293.154 116.327 301.06 109.053 308.525C101.594 316.18 94.6071 322.726 90.1514 325.806L101.523 342.258ZM88.0235 361.442C88.3471 356.287 89.6026 353.356 91.3013 351.05C93.2446 348.412 96.2649 345.892 101.523 342.258L90.1514 325.806C84.7196 329.56 79.2677 333.664 75.1989 339.188C70.8855 345.043 68.5888 351.809 68.0628 360.189L88.0235 361.442ZM3.79519 411.416C21.1565 402.889 59.1554 383.607 83.1345 369.422L72.9518 352.209C49.6834 365.973 12.2743 384.969 -5.02151 393.464L3.79519 411.416ZM246.359 618.824C206.272 631.561 146.879 635.647 98.0342 608.213C50.0549 581.264 9.38684 522.208 9.38684 402.44H-10.6132C-10.6132 526.952 32.0524 594.092 88.24 625.65C143.563 656.723 209.169 651.626 252.416 637.885L246.359 618.824ZM235.307 620.101L240.105 632.074L258.67 624.634L253.871 612.661L235.307 620.101ZM259.299 606.381H244.589V626.381H259.299V606.381ZM268.681 626.662L269.28 617L249.318 615.763L248.719 625.425L268.681 626.662ZM290.068 616.044H258.7V636.044H290.068V616.044ZM280.474 618.887C280.286 621.209 280.151 623.483 280.074 625.699L300.062 626.389C300.127 624.513 300.243 622.548 300.409 620.499L280.474 618.887ZM374.585 621.095C371.689 622.461 366.925 623.426 360.226 623.57C353.697 623.71 346.113 623.06 338.122 621.826C322.113 619.355 305.425 614.692 293.996 610.346L286.887 629.04C299.598 633.874 317.644 638.902 335.07 641.592C343.795 642.939 352.604 643.738 360.656 643.565C368.538 643.396 376.543 642.285 383.118 639.184L374.585 621.095ZM341.489 417.992C353.936 435.193 360.962 457.705 364.717 491.656C368.481 525.695 368.852 569.992 368.852 630.139H388.852C388.852 570.293 388.505 524.811 384.595 489.458C380.676 454.015 373.071 427.519 357.691 406.267L341.489 417.992ZM352.071 401.397C350.593 401.757 349.421 402.038 348.07 402.246L351.11 422.014C353.419 421.658 355.363 421.18 356.807 420.828L352.071 401.397ZM352.479 401.307L352.478 401.307L356.4 420.918L356.401 420.918L352.479 401.307ZM352.479 401.307L352.479 401.307L356.401 420.918L356.402 420.918L352.479 401.307ZM352.624 401.263C352.437 401.308 352.251 401.353 352.073 401.397L356.808 420.828C356.989 420.784 357.159 420.742 357.327 420.702L352.624 401.263ZM255.812 348.569C260.138 350.345 276.75 359.305 295.79 372.292C314.804 385.261 334.935 401.375 347.057 417.09L362.893 404.875C348.793 386.595 326.529 369.049 307.059 355.769C287.615 342.507 269.655 332.633 263.409 330.068L255.812 348.569ZM236.649 335.242C239.336 338.754 245.924 344.509 255.812 348.569L263.409 330.068C260.003 328.669 257.337 327.039 255.439 325.632C254.49 324.929 253.758 324.3 253.24 323.811C252.687 323.288 252.487 323.029 252.534 323.089L236.649 335.242ZM227.887 326.636L237.532 336.249L251.651 322.083L242.006 312.47L227.887 326.636ZM235.375 297.241C234.775 301.85 232.462 307.062 227.341 313.06L242.552 326.046C249.427 317.992 253.976 309.291 255.208 299.821L235.375 297.241ZM243.677 259.215C242.852 261.032 242.089 263.677 241.457 266.069C240.756 268.723 239.996 271.946 239.25 275.402C237.762 282.292 236.261 290.428 235.375 297.241L255.208 299.821C256.002 293.716 257.39 286.151 258.799 279.623C259.501 276.37 260.192 273.456 260.794 271.177C261.095 270.035 261.361 269.106 261.581 268.403C261.827 267.618 261.933 267.383 261.89 267.479L243.677 259.215ZM243.325 260.061C243.297 260.304 243.28 260.371 243.294 260.306C243.302 260.268 243.327 260.158 243.378 259.994C243.427 259.835 243.52 259.562 243.677 259.215L261.89 267.479C262.781 265.514 263.065 263.472 263.195 262.343L243.325 260.061ZM248.977 238.6C248.193 237.513 248.531 237.11 248.593 238.848C248.645 240.271 248.477 242.26 248.045 244.641C247.169 249.482 245.511 254.332 244.31 256.742L262.21 265.662C264.4 261.268 266.575 254.556 267.725 248.204C268.307 244.99 268.701 241.475 268.58 238.129C268.471 235.096 267.905 230.657 265.202 226.907L248.977 238.6ZM257.539 239.372C257.263 239.595 255.628 240.819 252.983 240.539C251.679 240.401 250.632 239.93 249.914 239.44C249.576 239.209 249.339 238.995 249.193 238.846C249.048 238.699 248.98 238.605 248.977 238.6L265.202 226.907C263.186 224.109 259.881 221.158 255.091 220.651C250.464 220.16 246.936 222.227 244.972 223.813L257.539 239.372ZM241.101 209.377C240.587 214.992 240.18 226.3 241.405 233.313L261.106 229.872C260.355 225.569 260.539 216.431 261.018 211.202L241.101 209.377ZM259.964 205.263C259.364 204.504 258.727 203.803 258.069 203.157L244.05 217.422C244.162 217.532 244.233 217.614 244.273 217.664L259.964 205.263ZM250.873 199.852C250.777 199.585 251.028 200.396 250.969 202.341C250.916 204.086 250.641 205.708 250.318 206.712C250.155 207.218 250.092 207.215 250.289 206.92C250.446 206.687 251.327 205.43 253.293 204.671C255.637 203.766 257.85 204.199 259.191 204.866C260.225 205.381 260.435 205.86 259.964 205.263L244.273 217.664C246.636 220.654 252.524 226.406 260.494 223.33C263.746 222.075 265.761 219.758 266.898 218.062C268.077 216.305 268.842 214.436 269.357 212.836C270.39 209.626 270.865 206.067 270.96 202.952C271.049 200.037 270.847 196.308 269.702 193.11L250.873 199.852ZM256.346 188.474C257.066 187.481 257.866 186.976 258.286 186.765C258.671 186.572 258.807 186.586 258.498 186.643L262.077 206.32C264.991 205.79 269.502 204.401 272.537 200.215L256.346 188.474ZM255.196 191.192C255.411 190.045 255.873 189.126 256.346 188.474L272.537 200.215C273.627 198.712 274.471 196.918 274.853 194.879L255.196 191.192Z" fill="white" mask="url(#path-3-outside-1)"/>
<path d="M257.238 232.754C253.625 227.74 249.874 232.555 248.451 235.589L251.742 263.807C255.032 260.516 261.754 239.02 257.238 232.754Z" fill="#E6B6A9"/>
<path d="M116.685 235.64C119.046 229.418 124.289 233.381 126.615 236.14L131.056 266.408C126.716 263.902 113.734 243.417 116.685 235.64Z" fill="#FFC9BA"/>
<rect x="140.342" y="305.358" width="93.6146" height="61.8963" fill="#EEB9AB"/>
<rect x="164.289" y="371.947" width="44.2516" height="73.3793" fill="#FCA7AE"/>
<rect x="208.4" y="371.947" width="44.2516" height="73.3793" fill="#FCA7AE"/>
<path d="M379 630.139C379 473.298 376.549 419.699 315.913 381.539L266.9 378.913L275.723 612.109C284.405 620.803 354.241 641.818 379 630.139Z" fill="#FF6F7B"/>
<path d="M84.8877 356.753C62.3978 370.812 18.6153 393.069 -0.464751 402.44C-42.5 647 166.202 654.833 249.536 628.354L157.182 397.924C142.454 378.342 107.378 342.693 84.8877 356.753Z" fill="#EA646F"/>
<path d="M196.847 432.722C195.923 430.426 195.855 419.629 195.937 414.518C196.661 413.666 201.363 410.61 214.387 405.205C228.419 425.286 236.244 463.869 238.403 480.65L227.2 486.426C217.468 469.482 197.772 435.019 196.847 432.722Z" fill="#FF808A"/>
<path d="M228.32 324.51L229.931 327.24L234.237 341.664L240.784 404.821L248.101 482.576L261.404 584.803L258.848 626.044H290.217C291.617 585.489 314.7 515.765 326.066 485.972C331.924 474.408 344.901 448.701 349.942 438.395C329.077 427.122 317.384 418.019 282.48 394.808C335.028 416.584 346.441 413.083 355.124 410.983C328.902 376.989 270.331 343.66 259.759 339.319C251.3 335.846 246.222 331.103 244.74 329.166L234.237 318.698L228.32 324.51Z" fill="#EA646F"/>
<path d="M230.491 336.412L229.161 325.244C247.645 346.425 248.311 388.331 247.155 406.921C246 425.511 248.311 455.303 249.326 460.1C250.341 464.896 254.122 485.691 254.962 491.783C256.433 504.561 262.723 529.803 266.2 541.076L224.749 506.487C227.62 489.519 232.704 451.998 230.071 437.659C226.78 419.734 229.161 405.835 232.381 395.088C234.958 386.489 234.109 377.921 233.362 374.712L232.556 361.304L230.491 336.412Z" fill="#FF6F7B"/>
<path d="M95.9855 334.032C107.048 326.386 127.715 303.749 136.666 293.386L142.408 307.635L141.918 315.057L161.453 372.997C190.417 419.524 251.727 517.228 265.255 535.825C270.716 563.048 268.558 600.872 266.795 616.381H239.908C184.034 526.583 105.123 472.388 93.1847 465.667C83.6342 460.289 97.1641 447.088 105.123 441.16C110.211 437.881 121.164 429.789 124.273 423.655C127.382 417.522 143.143 404.342 150.635 398.519C147.134 399.359 138.669 402.524 132.815 408.461C114.995 426.456 98.4361 431.322 90.9791 431.322C89.3687 426.316 81.9818 399.324 78.866 374.958C75.7501 350.591 82.1568 343.589 95.9855 334.032Z" fill="#E25F6A"/>
<path d="M133.585 287.923C130.421 277.617 125.732 243.695 123.783 228.023L128.754 213.949L155.081 194.239H211.936C225.321 197.425 251.966 204.651 251.461 208.067C250.831 212.339 250.236 225.432 251.461 231.909C252.687 238.385 254.647 259.566 252.932 263.347C251.216 267.128 247.12 285.613 245.44 298.531C243.759 311.45 233.607 324.088 214.667 337.391C195.727 350.695 175.596 335.116 159.772 325.978C143.948 316.841 137.541 300.807 133.585 287.923Z" fill="#FFC9BA"/>
<path d="M179.692 303.399C184.818 298.946 189.81 301.263 191.666 302.979L200.103 305.92C201.211 307.32 202.567 310.59 199.123 312.466C165.269 332.982 164.708 302.139 164.708 296.222C166.319 301.789 173.286 308.965 179.692 303.399Z" fill="#603A4C"/>
<path d="M212.286 296.257C206.601 296.397 203.242 301.17 202.274 303.539C202.274 304.484 202.435 307.194 203.079 310.471C226.08 319.118 228.285 295.102 228.846 287.61C225.38 295.767 219.393 296.082 212.286 296.257Z" fill="#603A4C"/>
<path d="M213.056 215.979C215.941 211.75 225.018 211.813 229.196 212.374C233.992 211.533 236.793 211.708 241.309 215.209C245.825 218.71 244.425 222.211 242.359 224.662C240.293 227.112 234.412 225.222 230.806 223.927C227.2 222.631 222.789 223.821 218.343 223.927C213.897 224.032 209.45 221.266 213.056 215.979Z" fill="#603A4C"/>
<path d="M153.681 231.245C158.638 226.624 166.973 225.165 170.52 225.013C174.441 225.013 182.843 226.344 187.185 221.757C191.526 217.171 181.898 213.74 169.4 212.375C156.902 211.01 151.125 216.016 149.935 218.186C148.983 219.923 145.407 224.348 143.738 226.344C142.676 227.125 140.265 229.2 139.117 231.245C135.301 237.477 137.997 241.853 140.552 241.853C143.108 241.853 147.484 237.021 153.681 231.245Z" fill="#603A4C"/>
<path d="M114.786 218.465C115.402 211.52 111.005 209.55 108.729 209.433L121.367 197.18L143.983 189.198L204.689 185.347C222.182 187.284 257.735 192.04 260.004 195.569C262.84 199.981 260.319 221.651 252.267 211.464C245.825 203.313 225.66 200.669 216.382 200.366C214.62 202.49 209.941 206.954 205.319 207.823C199.543 208.908 197.862 201.136 195.622 200.366C193.276 203.306 182.879 202.326 181.898 201.871C179.623 203.867 172.341 205.407 169.225 201.136C166.109 196.865 161.418 195.709 159.142 195.709C157.742 198.335 154.626 201.486 150.215 203.656C145.804 205.827 139.292 212.059 135.266 220.601C132.045 227.435 127.389 228.326 125.463 227.918C124.915 228.956 122.943 230.936 119.442 230.544C115.066 230.053 114.015 227.148 114.786 218.465Z" fill="#603A4C"/>
<path d="M209.626 234.639C211.925 230.438 220.044 223.877 234.132 231.243C231.611 235.619 221.074 240.03 209.626 234.639Z" fill="#FFF3F1"/>
<path d="M195.867 414.692C195.195 404.273 188.328 387.968 184.979 381.118C194.957 378.341 215.052 373.248 215.612 375.097C216.312 377.407 217.083 401.459 216.207 406.64C213.862 409.406 206.545 413.327 195.867 414.692Z" fill="#E9717B"/>
<path d="M210.431 357.487C201.664 363.901 195.155 362.074 192.996 360.358C190.814 364.921 185.973 375.496 184.069 381.294C193.059 384.794 210.291 379.228 217.783 376.007C217.106 373.241 214.688 365.665 210.431 357.487Z" fill="#FF808A"/>
<path d="M114.365 211.359C119.127 209.399 125.498 201.206 128.089 197.355L132.955 189.443L183.299 181.636C207.957 185.721 258.61 193.763 263.96 193.259C269.309 192.755 275.851 185.301 278.454 181.636C280.519 179.571 283.782 172.219 280.309 159.335C275.968 143.231 260.109 140.5 255.277 140.01C250.446 139.52 212.076 131.468 204.514 128.387C196.952 125.306 183.474 123.906 176.402 124.781C169.33 125.657 121.157 143.231 104.318 151.283C87.4783 159.335 82.2969 176.175 84.7476 189.443C87.1982 202.712 108.414 213.81 114.365 211.359Z" fill="#FF6F7B"/>
<path d="M126.899 198.896C111.915 204.918 114.727 196.387 118.006 191.369C121.367 186.433 136.806 181.496 144.578 181.181C152.35 180.866 168.244 177.61 178.257 175.79C188.27 173.969 225.379 177.295 237.668 178.661C249.956 180.026 268.931 188.358 264.59 194.345C260.249 200.331 237.668 193.61 223.909 191.649C210.235 189.701 180.136 190 169.387 190.107L169.19 190.109C158.617 190.214 145.628 191.369 126.899 198.896Z" fill="#E3616C"/>
<path d="M201.083 227.918C213.126 248.083 214.289 328.709 196.252 309.524C182.703 294.505 201.083 265.061 201.083 227.918Z" fill="#E7B6A9"/>
<path d="M194.082 360.988C172.46 347.684 142.373 330.985 142.373 308.194C128.369 328.751 159.854 378.002 177.347 400.058L194.082 360.988Z" fill="#FF6F7B"/>
<path d="M224.925 397.888L208.505 358.643C224.294 348.805 229.593 333.168 229.371 326.049C236.737 374.334 235.252 379.508 224.925 397.888Z" fill="#E25F6A"/>
<path d="M151.72 242.273C154.159 236.24 162.587 225.84 176.787 232.505C175.491 235.481 164.498 243.358 151.72 242.273Z" fill="#FFF3F1"/>
<mask id="mask1" mask-type="alpha" maskUnits="userSpaceOnUse" x="160" y="229" width="14" height="12">
<path d="M173.461 235.9C173.461 238.878 169.927 240.382 166.949 240.382C163.972 240.382 160.438 239.508 160.438 236.531C160.438 233.553 161.208 228.163 166.949 229.599C169.927 229.599 173.461 232.923 173.461 235.9Z" fill="#2C1E25"/>
</mask>
<g mask="url(#mask1)">
<path d="M151.721 242.272C154.159 236.238 162.587 225.838 176.787 232.504C175.492 235.48 164.499 243.357 151.721 242.272Z" fill="#2C1E25"/>
</g>
<mask id="mask2" mask-type="alpha" maskUnits="userSpaceOnUse" x="213" y="227" width="13" height="12">
<path d="M225.835 233.309C225.835 236.287 222.196 238.701 219.218 238.701C216.24 238.701 213.371 236.287 213.371 233.309C213.371 230.332 216.24 227.918 219.218 227.918C222.196 227.918 225.835 230.332 225.835 233.309Z" fill="#2C1E25"/>
</mask>
<g mask="url(#mask2)">
<path d="M209.625 234.638C211.924 230.437 220.044 223.877 234.132 231.243C231.611 235.619 221.073 240.03 209.625 234.638Z" fill="#2C1E25"/>
</g>
</g>
</svg>
