<svg width="1366" height="871" viewBox="0 0 1366 871" fill="none" xmlns="http://www.w3.org/2000/svg">
<path d="M-369.159 383.305V472.202L502.272 479V398.992L519 374.938V347.746H234.099V326.306L227.303 310.095L165.618 297.022L162.482 248.39L114.911 238.977L104.979 218.583L99.7514 149.557L87.7281 133.346V92.5578L84.5916 80.5305V65.8886L53.7491 43.4028V15.6877H42.7713V-6.10352e-05H37.5437V18.8253H28.1342V43.4028L-5.84482 65.8886V75.3012L-11.0724 84.7139V130.731L-28.846 153.74V229.564L-38.2556 245.775H-86.3489V280.811H-276.109V310.095H-343.544V320.553H-372.295L-377 331.535L-372.295 347.746V368.663L-377 374.938L-369.159 383.305Z" fill="#C9585E"/>
<path fill-rule="evenodd" clip-rule="evenodd" d="M237.064 488.044L231 391.5L255.256 358.044L308.618 357.088L332.874 386.721L345.002 377.162L342.576 353.265L354.704 299.735L364.406 348.485L383.811 318.853L410.492 319.809V297.824L406.854 292.088L412.918 289.221L420.195 271.059L431.11 190.765L428.684 185.03L432.323 181.206L433.535 171.647H417.769V166.868L432.323 165.912V150.618L440.812 149.662L439.599 164.956H446.876L448.089 172.603L439.599 169.735L438.387 178.338L440.812 184.074L437.174 190.765L440.812 240.471L445.663 266.28L457.791 290.177L463.855 293.044L460.217 299.735L461.429 319.809L467.493 315.03L495.387 349.441L500.239 380.03L535.409 378.118L536.622 365.691L558.452 337.971L563.303 337.015L564.516 327.456L560.878 323.632L574.219 279.662L576.644 258.633L577.857 291.132L591.198 321.721L588.772 336.059L614.241 337.015L631.219 361.868L630.007 385.765L637.283 373.338L724.604 374.294L725.817 356.132L762.2 329.368L758.562 296.868L753.711 295.912L779.179 247.162L791.307 190.765L787.669 180.25L793.733 177.382L797.371 178.338L798.584 184.074L809.499 248.118L816.776 234.735L817.989 201.28L825.265 237.603L831.329 257.677L830.116 287.309L832.542 294L826.478 296.868L827.691 333.191L858.011 355.177L867.713 347.53L889.543 345.618L887.117 326.5L906.522 299.735L905.309 263.412L916.224 215.618L917.437 187.897L921.075 207.971L925.927 235.691L945.331 160.177L946.544 48.3384L952.608 51.206L962.31 162.088L976.864 243.338L981.715 192.677L988.991 232.824L993.843 258.633L995.055 294L1008.4 294.956L1005.97 257.677L1012.03 234.735C1012.03 234.735 1015.67 190.765 1016.89 190.765C1018.1 190.765 1022.95 232.824 1022.95 232.824L1031.44 203.191L1036.29 164L1039.93 101.868L1043.57 34.0001L1055.69 145.838L1075.1 241.427L1083.59 194.588L1087.23 238.559L1094.5 256.721L1090.87 261.5L1092.08 327.456L1111.48 310.25V302.603L1117.55 298.78V291.132L1121.19 288.265L1123.61 272.015L1124.82 291.132L1128.46 294L1127.25 301.647L1130.89 302.603L1129.67 312.162L1143.02 326.5L1144.23 351.353H1164.85L1173.33 358.044L1179.4 352.309L1189.1 354.221L1197.59 344.662L1184.25 342.75L1190.31 334.147L1201.23 336.059L1204.87 324.588L1198.8 318.853L1204.87 313.118L1213.36 318.853L1212.14 322.677L1213.36 335.103L1224.27 336.059L1223.06 341.794L1215.78 340.838L1221.85 352.309C1221.85 352.309 1237.61 352.309 1237.61 353.265C1237.61 354.221 1235.19 361.868 1235.19 361.868L1229.12 360.912L1242.46 377.162L1250.95 369.515L1249.74 276.794L1244.89 274.882L1253.38 260.544L1258.23 231.868L1259.44 200.324L1263.08 199.368L1266.72 245.25L1272.78 271.059L1283.7 199.368L1288.55 129.588L1292.19 89.4413H1297.04L1309.17 210.838L1317.66 262.456L1322.51 277.75L1331 262.456L1332.21 207.015L1335.85 207.971L1343.12 266.28L1346.76 278.706V305.471L1446.21 308.338L1454.7 310.25L1475.32 344.662L1477.74 307.382L1466.83 304.515L1500.79 261.5L1502 489L237.064 488.044Z" fill="#C9585E"/>
<path fill-rule="evenodd" clip-rule="evenodd" d="M1456.55 601.826L1464 483.214L1434.21 442.111L1368.67 440.937L1338.88 477.343L1323.99 465.599L1326.97 436.24L1312.07 370.475L1300.15 430.368L1276.32 393.962L1243.55 395.137V368.126L1248.02 361.08L1240.57 357.557L1231.64 335.244L1218.23 236.597L1221.21 229.551L1216.74 224.853L1215.25 213.109H1234.62V207.238L1216.74 206.063V187.273L1206.32 186.099L1207.81 204.889H1198.87L1197.38 214.284L1207.81 210.761L1209.29 221.33L1206.32 228.376L1210.78 236.597L1206.32 297.664L1200.36 329.372L1185.46 358.731L1178.02 362.254L1182.48 370.475L1180.99 395.137L1173.55 389.265L1139.29 431.542L1133.33 469.122L1090.13 466.773L1088.65 451.506L1061.83 417.45L1055.88 416.275L1054.39 404.532L1058.85 399.834L1042.47 345.813L1039.49 319.977L1038 359.906L1021.62 397.485L1024.6 415.101L993.317 416.275L972.464 446.809L973.953 476.168L965.016 460.901L857.772 462.076L856.283 439.763L811.597 406.88L816.066 366.952L822.024 365.777L790.744 305.885L775.849 236.597L780.318 223.679L772.87 220.156L768.402 221.33L766.912 228.376L753.507 307.059L744.57 290.618L743.08 249.515L734.143 294.141L726.696 318.803L728.185 355.208L725.206 363.429L732.654 366.952L731.164 411.578L693.927 438.588L682.01 429.193L655.199 426.845L658.178 403.357L634.346 370.475L635.836 325.849L622.43 267.13L620.941 233.074L616.472 257.735L610.514 291.792L586.682 199.017L585.193 61.6157L577.745 65.1388L565.829 201.366L547.955 301.187L541.997 238.946L533.06 288.269L527.102 319.977L525.613 363.429L509.228 364.603L512.207 318.803L504.76 290.618C504.76 290.618 500.291 236.597 498.802 236.597C497.312 236.597 491.354 288.269 491.354 288.269L480.927 251.864L474.969 203.714L470.501 127.38L466.032 44.0001L451.137 181.401L427.305 298.838L416.879 241.294L412.41 295.315L403.473 317.628L407.942 323.5L406.452 404.532L382.62 383.393V373.998L375.173 369.301V359.906L370.704 356.382L367.725 336.418L366.236 359.906L361.767 363.429L363.257 372.824L358.788 373.998L360.278 385.742L343.893 403.357L342.404 433.891H317.082L306.656 442.111L299.208 435.065L287.292 437.414L276.865 425.67L293.25 423.322L285.802 412.752L272.397 415.101L267.928 401.009L275.376 393.962L267.928 386.916L257.502 393.962L258.991 398.66L257.502 413.927L244.096 415.101L245.586 422.147L254.523 420.973L247.075 435.065C247.075 435.065 227.712 435.065 227.712 436.24C227.712 437.414 230.691 446.809 230.691 446.809L238.138 445.635L221.754 465.599L211.327 456.204L212.817 342.29L218.775 339.941L208.348 322.326L202.39 287.095L200.901 248.34L196.432 247.166L191.964 303.536L184.516 335.244L171.111 247.166L165.153 161.437L160.684 112.114H154.726L139.831 261.259L129.405 324.674L123.447 343.464L113.02 324.674L111.531 256.561L107.062 257.735L98.125 329.372L93.6565 344.639V377.521L-28.4828 381.044L-38.9094 383.393L-64.2309 425.67L-67.2099 379.87L-53.8044 376.347L-95.5105 323.5L-97 603L1456.55 601.826Z" fill="#D66167"/>
<path d="M337.5 596.268C152.7 541.868 53.5 530.268 -13.5 531.268V826.268L559.5 771.768L1379.5 712.268V539.268C1292 490.371 960.5 511.268 790.5 553.768C618.121 596.863 568.5 664.268 337.5 596.268Z" fill="#F26D74"/>
<path d="M238.142 782.739C187.076 786.329 58.1033 809.167 0 820.138V871H1366V756.31C1318.54 739.356 1188.06 707.941 1045.86 717.914C868.112 730.38 745.85 740.852 683.982 756.31C622.114 771.768 514.582 745.34 456.152 756.31C397.721 767.281 301.973 778.251 238.142 782.739Z" fill="#CA5C62"/>
<path d="M781.172 828.039C667.297 818.97 540.276 852.901 491 871H1366V718.225C1331 701.518 1090.41 783.885 1062.73 798.802C1035.04 813.719 923.516 839.376 781.172 828.039Z" fill="#B35055"/>
</svg>
